<svg width="24" height="24" viewBox="0 0 24 24" fill="none" xmlns="http://www.w3.org/2000/svg">
<path d="M18.355 6.54H16.415V4.69C16.416 4.15983 16.2603 3.64121 15.9674 3.19926C15.6746 2.75731 15.2577 2.41176 14.769 2.206C14.4444 2.07133 14.0965 2.00136 13.745 2H5.69504C5.3431 2.00131 4.99486 2.07193 4.67021 2.20782C4.34556 2.34372 4.05085 2.54223 3.80292 2.79202C3.55499 3.04181 3.35868 3.33799 3.22521 3.66364C3.09175 3.9893 3.02373 4.33806 3.02504 4.69V14.78C3.02373 15.1319 3.09175 15.4807 3.22521 15.8064C3.35868 16.132 3.55499 16.4282 3.80292 16.678C4.05085 16.9278 4.34556 17.1263 4.67021 17.2622C4.99486 17.3981 5.3431 17.4687 5.69504 17.47H7.63504V19.32C7.63504 20.0291 7.91602 20.7092 8.41646 21.2115C8.91689 21.7138 9.596 21.9974 10.305 22H18.305C19.0141 21.9974 19.6932 21.7138 20.1936 21.2115C20.6941 20.7092 20.975 20.0291 20.975 19.32V9.23C20.9753 8.52853 20.7015 7.85472 20.2121 7.35221C19.7226 6.8497 19.0563 6.55825 18.355 6.54ZM7.63504 9.23V15.97H5.69504C5.54008 15.9687 5.3869 15.9369 5.24423 15.8764C5.10157 15.8159 4.97222 15.7278 4.86357 15.6173C4.75493 15.5068 4.66911 15.376 4.61103 15.2323C4.55294 15.0887 4.52372 14.935 4.52504 14.78V4.69C4.52372 4.53504 4.55294 4.38133 4.61103 4.23767C4.66911 4.094 4.75493 3.96318 4.86357 3.85267C4.97222 3.74217 5.10157 3.65415 5.24423 3.59364C5.3869 3.53313 5.54008 3.50131 5.69504 3.5H13.745C13.9 3.50131 14.0532 3.53313 14.1959 3.59364C14.3385 3.65415 14.4679 3.74217 14.5765 3.85267C14.6852 3.96318 14.771 4.094 14.8291 4.23767C14.8871 4.38133 14.9164 4.53504 14.915 4.69V6.54H10.305C9.59508 6.54528 8.916 6.83102 8.41584 7.33492C7.91569 7.83882 7.63502 8.52002 7.63504 9.23Z" fill="white"/>
</svg>
