<svg width="48" height="48" viewBox="0 0 48 48" fill="none" xmlns="http://www.w3.org/2000/svg">
<g filter="url(#filter0_d_51_367)">
<path d="M4 10C4 5.58172 7.58172 2 12 2H36C40.4183 2 44 5.58172 44 10V34C44 38.4183 40.4183 42 36 42H12C7.58172 42 4 38.4183 4 34V10Z" fill="white" shape-rendering="crispEdges"/>
<path d="M28.59 19H27V14C27 13.45 26.55 13 26 13H22C21.45 13 21 13.45 21 14V19H19.41C18.52 19 18.07 20.08 18.7 20.71L23.29 25.3C23.68 25.69 24.31 25.69 24.7 25.3L29.29 20.71C29.92 20.08 29.48 19 28.59 19ZM17 29C17 29.55 17.45 30 18 30H30C30.55 30 31 29.55 31 29C31 28.45 30.55 28 30 28H18C17.45 28 17 28.45 17 29Z" fill="black"/>
</g>
<defs>
<filter id="filter0_d_51_367" x="0" y="0" width="48" height="48" filterUnits="userSpaceOnUse" color-interpolation-filters="sRGB">
<feFlood flood-opacity="0" result="BackgroundImageFix"/>
<feColorMatrix in="SourceAlpha" type="matrix" values="0 0 0 0 0 0 0 0 0 0 0 0 0 0 0 0 0 0 127 0" result="hardAlpha"/>
<feOffset dy="2"/>
<feGaussianBlur stdDeviation="2"/>
<feComposite in2="hardAlpha" operator="out"/>
<feColorMatrix type="matrix" values="0 0 0 0 0 0 0 0 0 0 0 0 0 0 0 0 0 0 0.25 0"/>
<feBlend mode="normal" in2="BackgroundImageFix" result="effect1_dropShadow_51_367"/>
<feBlend mode="normal" in="SourceGraphic" in2="effect1_dropShadow_51_367" result="shape"/>
</filter>
</defs>
</svg>
