<svg width="72" height="72" viewBox="0 0 72 72" fill="none" xmlns="http://www.w3.org/2000/svg">
<path d="M60.4635 3.55664H10.6701C6.75771 3.55664 3.5567 6.75765 3.5567 10.67V60.4635C3.5567 64.3794 6.75771 67.5768 10.6701 67.5768H35.5668V42.6801H28.4534V33.8773H35.5668V26.5861C35.5668 18.8895 39.8775 13.4833 48.9612 13.4833L55.3739 13.4904V22.7556H51.1166C47.5812 22.7556 46.2368 25.4089 46.2368 27.8701V33.8809H55.3704L53.3502 42.6801H46.2368V67.5768H60.4635C64.3759 67.5768 67.5769 64.3794 67.5769 60.4635V10.67C67.5769 6.75765 64.3759 3.55664 60.4635 3.55664Z" fill="#3329AC"/>
</svg>
