<svg width="65" height="65" viewBox="0 0 65 65" fill="none" xmlns="http://www.w3.org/2000/svg">
<g clip-path="url(#clip0_20_1996)">
<path d="M49.7656 0H15.2344C6.82066 0 0 6.82066 0 15.2344V49.7656C0 58.1793 6.82066 65 15.2344 65H49.7656C58.1793 65 65 58.1793 65 49.7656V15.2344C65 6.82066 58.1793 0 49.7656 0Z" fill="url(#paint0_radial_20_1996)"/>
<path d="M49.7656 0H15.2344C6.82066 0 0 6.82066 0 15.2344V49.7656C0 58.1793 6.82066 65 15.2344 65H49.7656C58.1793 65 65 58.1793 65 49.7656V15.2344C65 6.82066 58.1793 0 49.7656 0Z" fill="url(#paint1_radial_20_1996)"/>
<path d="M32.5023 7.10938C25.6067 7.10938 24.7411 7.13959 22.033 7.26273C19.3299 7.38664 17.4847 7.81447 15.8704 8.44238C14.2002 9.09086 12.7837 9.95846 11.3725 11.3702C9.95998 12.7816 9.09238 14.1982 8.44188 15.8676C7.81219 17.4825 7.38385 19.3284 7.26223 22.0302C7.14111 24.7386 7.10938 25.6044 7.10938 32.5003C7.10938 39.3961 7.13984 40.2589 7.26273 42.967C7.38715 45.6701 7.81498 47.5152 8.44238 49.1296C9.09137 50.7998 9.95897 52.2163 11.3707 53.6275C12.7816 55.04 14.1982 55.9096 15.8671 56.5581C17.4827 57.186 19.3281 57.6139 22.0307 57.7378C24.7391 57.8609 25.6039 57.8911 32.4992 57.8911C39.3956 57.8911 40.2584 57.8609 42.9665 57.7378C45.6696 57.6139 47.5168 57.186 49.1324 56.5581C50.8018 55.9096 52.2163 55.04 53.627 53.6275C55.0395 52.2163 55.9069 50.7998 56.5576 49.1303C57.1817 47.5153 57.6103 45.6696 57.7373 42.9675C57.8589 40.2594 57.8906 39.3961 57.8906 32.5003C57.8906 25.6044 57.8589 24.7391 57.7373 22.0307C57.6103 19.3276 57.1817 17.4827 56.5576 15.8684C55.9069 14.1982 55.0395 12.7816 53.627 11.3702C52.2148 9.95795 50.8023 9.09035 49.1309 8.44264C47.5122 7.81447 45.6661 7.38639 42.963 7.26273C40.2545 7.13959 39.3923 7.10938 32.4944 7.10938H32.5023ZM30.2245 11.685C30.9006 11.684 31.655 11.685 32.5023 11.685C39.2818 11.685 40.0852 11.7094 42.7624 11.831C45.238 11.9443 46.5816 12.3579 47.4767 12.7055C48.6616 13.1655 49.5064 13.7158 50.3946 14.6047C51.2832 15.4934 51.8332 16.3396 52.2945 17.5246C52.6421 18.4184 53.0563 19.762 53.169 22.2376C53.2906 24.9143 53.317 25.7182 53.317 32.4944C53.317 39.2707 53.2906 40.0748 53.169 42.7512C53.0557 45.2268 52.6421 46.5705 52.2945 47.4645C51.8345 48.6494 51.2832 49.4932 50.3946 50.3813C49.5059 51.27 48.6621 51.82 47.4767 52.2803C46.5827 52.6294 45.238 53.042 42.7624 53.1553C40.0857 53.2769 39.2818 53.3033 32.5023 53.3033C25.7225 53.3033 24.9189 53.2769 22.2424 53.1553C19.7669 53.041 18.4232 52.6274 17.5274 52.2798C16.3427 51.8195 15.4962 51.2695 14.6075 50.3808C13.7188 49.4922 13.1688 48.6479 12.7075 47.4624C12.3599 46.5684 11.9458 45.2248 11.833 42.7492C11.7114 40.0725 11.6871 39.2686 11.6871 32.4881C11.6871 25.7075 11.7114 24.9079 11.833 22.2313C11.9463 19.7557 12.3599 18.412 12.7075 17.517C13.1678 16.332 13.7188 15.4857 14.6077 14.5971C15.4967 13.7084 16.3427 13.1582 17.5277 12.6971C18.4227 12.348 19.7669 11.9354 22.2424 11.8216C24.5847 11.7157 25.4924 11.684 30.2245 11.6787V11.685ZM46.0558 15.9009C44.3737 15.9009 43.0089 17.2644 43.0089 18.9467C43.0089 20.6289 44.3737 21.9936 46.0558 21.9936C47.7379 21.9936 49.1027 20.6289 49.1027 18.9467C49.1027 17.2646 47.7379 15.8999 46.0558 15.8999V15.9009ZM32.5023 19.4609C25.3015 19.4609 19.4632 25.2992 19.4632 32.5003C19.4632 39.7013 25.3015 45.5368 32.5023 45.5368C39.7033 45.5368 45.5396 39.7013 45.5396 32.5003C45.5396 25.2995 39.7028 19.4609 32.5018 19.4609H32.5023ZM32.5023 24.0365C37.1764 24.0365 40.966 27.8256 40.966 32.5003C40.966 37.1744 37.1764 40.964 32.5023 40.964C27.8281 40.964 24.0388 37.1744 24.0388 32.5003C24.0388 27.8256 27.8279 24.0365 32.5023 24.0365Z" fill="white"/>
</g>
<defs>
<radialGradient id="paint0_radial_20_1996" cx="0" cy="0" r="1" gradientUnits="userSpaceOnUse" gradientTransform="translate(17.2656 70.0063) rotate(-90) scale(64.4198 59.9155)">
<stop stop-color="#FFDD55"/>
<stop offset="0.1" stop-color="#FFDD55"/>
<stop offset="0.5" stop-color="#FF543E"/>
<stop offset="1" stop-color="#C837AB"/>
</radialGradient>
<radialGradient id="paint1_radial_20_1996" cx="0" cy="0" r="1" gradientUnits="userSpaceOnUse" gradientTransform="translate(-10.8878 4.68228) rotate(78.681) scale(28.796 118.698)">
<stop stop-color="#3771C8"/>
<stop offset="0.128" stop-color="#3771C8"/>
<stop offset="1" stop-color="#6600FF" stop-opacity="0"/>
</radialGradient>
<clipPath id="clip0_20_1996">
<rect width="65" height="65" fill="white"/>
</clipPath>
</defs>
</svg>
