<svg width="65" height="65" viewBox="0 0 65 65" fill="none" xmlns="http://www.w3.org/2000/svg">
<g clip-path="url(#clip0_186_88)">
<path d="M49.7656 0H15.2344C6.82066 0 0 6.82066 0 15.2344V49.7656C0 58.1793 6.82066 65 15.2344 65H49.7656C58.1793 65 65 58.1793 65 49.7656V15.2344C65 6.82066 58.1793 0 49.7656 0Z" fill="white"/>
<path d="M49.7656 0H15.2344C6.82066 0 0 6.82066 0 15.2344V49.7656C0 58.1793 6.82066 65 15.2344 65H49.7656C58.1793 65 65 58.1793 65 49.7656V15.2344C65 6.82066 58.1793 0 49.7656 0Z" fill="#0A66C2"/>
<path d="M46.9003 55.2716H54.3321C54.6014 55.2716 54.8597 55.1646 55.0502 54.9742C55.2407 54.7838 55.3477 54.5255 55.3478 54.2562L55.3516 38.5541C55.3516 30.3471 53.5831 24.0388 43.9923 24.0388C40.3465 23.9032 36.9083 25.7827 35.053 28.9209C35.044 28.9362 35.0301 28.948 35.0137 28.9547C34.9973 28.9614 34.9791 28.9625 34.962 28.9578C34.9449 28.9532 34.9297 28.9431 34.9189 28.929C34.908 28.915 34.9021 28.8978 34.902 28.8801V25.8121C34.902 25.5427 34.7949 25.2844 34.6045 25.094C34.414 24.9035 34.1557 24.7965 33.8863 24.7965H26.8336C26.5642 24.7965 26.3059 24.9035 26.1154 25.094C25.925 25.2844 25.8179 25.5427 25.8179 25.8121V54.2547C25.8179 54.524 25.925 54.7824 26.1154 54.9728C26.3059 55.1633 26.5642 55.2703 26.8336 55.2703H34.2649C34.5343 55.2703 34.7926 55.1633 34.9831 54.9728C35.1735 54.7824 35.2805 54.524 35.2805 54.2547V40.1951C35.2805 36.2197 36.0346 32.3697 40.9632 32.3697C45.8217 32.3697 45.8847 36.9187 45.8847 40.4526V54.256C45.8847 54.5253 45.9917 54.7836 46.1821 54.9741C46.3726 55.1646 46.6309 55.2716 46.9003 55.2716ZM9.64844 15.1399C9.64844 18.1523 12.1283 20.6309 15.1409 20.6309C18.1528 20.6306 20.6312 18.1505 20.6312 15.1387C20.6306 12.1268 18.152 9.64844 15.1399 9.64844C12.1271 9.64844 9.64844 12.1276 9.64844 15.1399ZM11.4154 55.2716H18.8566C19.126 55.2716 19.3843 55.1646 19.5748 54.9741C19.7652 54.7836 19.8722 54.5253 19.8722 54.256V25.8121C19.8722 25.5427 19.7652 25.2844 19.5748 25.094C19.3843 24.9035 19.126 24.7965 18.8566 24.7965H11.4154C11.146 24.7965 10.8877 24.9035 10.6972 25.094C10.5067 25.2844 10.3997 25.5427 10.3997 25.8121V54.256C10.3997 54.5253 10.5067 54.7836 10.6972 54.9741C10.8877 55.1646 11.146 55.2716 11.4154 55.2716Z" fill="white"/>
</g>
<defs>
<clipPath id="clip0_186_88">
<rect width="65" height="65" fill="white"/>
</clipPath>
</defs>
</svg>
