<svg width="48" height="48" viewBox="0 0 48 48" fill="none" xmlns="http://www.w3.org/2000/svg">
<g filter="url(#filter0_d_48_98)">
<path d="M4 10C4 5.58172 7.58172 2 12 2H36C40.4183 2 44 5.58172 44 10V34C44 38.4183 40.4183 42 36 42H12C7.58172 42 4 38.4183 4 34V10Z" fill="white" shape-rendering="crispEdges"/>
<path d="M30.622 13.217C30.7399 13.3106 30.8351 13.4297 30.9005 13.5652C30.966 13.7008 31 13.8494 31 14V25.667C31 25.707 30.9977 25.7473 30.993 25.788C30.9977 25.858 31 25.9286 31 26C30.9997 26.6367 30.7967 27.2569 30.4206 27.7706C30.0444 28.2844 29.5145 28.6652 28.9076 28.8578C28.3007 29.0504 27.6482 29.045 27.0446 28.8422C26.441 28.6394 25.9176 28.2498 25.5501 27.7298C25.1826 27.2098 24.9901 26.5863 25.0004 25.9497C25.0107 25.313 25.2234 24.6961 25.6076 24.1883C25.9918 23.6805 26.5276 23.3081 27.1375 23.1251C27.7473 22.942 28.3997 22.9577 29 23.17V19.26L21 21.127V28.003C20.9992 28.6396 20.7959 29.2596 20.4195 29.773C20.0431 30.2865 19.5131 30.667 18.9062 30.8593C18.2992 31.0516 17.6468 31.0458 17.0434 30.8428C16.44 30.6398 15.9168 30.25 15.5495 29.73C15.1822 29.2099 14.9899 28.5865 15.0004 27.9499C15.0109 27.3133 15.2237 26.6966 15.6079 26.1889C15.9921 25.6812 16.5279 25.309 17.1377 25.126C17.7475 24.943 18.3997 24.9587 19 25.171V16.333C19 16.1072 19.0764 15.8881 19.2167 15.7112C19.3571 15.5344 19.5531 15.4102 19.773 15.359L29.773 13.026C29.9183 12.9922 30.0694 12.9914 30.2151 13.0235C30.3608 13.0557 30.4974 13.1201 30.615 13.212L30.622 13.217Z" fill="black"/>
</g>
<defs>
<filter id="filter0_d_48_98" x="0" y="0" width="48" height="48" filterUnits="userSpaceOnUse" color-interpolation-filters="sRGB">
<feFlood flood-opacity="0" result="BackgroundImageFix"/>
<feColorMatrix in="SourceAlpha" type="matrix" values="0 0 0 0 0 0 0 0 0 0 0 0 0 0 0 0 0 0 127 0" result="hardAlpha"/>
<feOffset dy="2"/>
<feGaussianBlur stdDeviation="2"/>
<feComposite in2="hardAlpha" operator="out"/>
<feColorMatrix type="matrix" values="0 0 0 0 0 0 0 0 0 0 0 0 0 0 0 0 0 0 0.25 0"/>
<feBlend mode="normal" in2="BackgroundImageFix" result="effect1_dropShadow_48_98"/>
<feBlend mode="normal" in="SourceGraphic" in2="effect1_dropShadow_48_98" result="shape"/>
</filter>
</defs>
</svg>
