<svg width="40" height="40" viewBox="0 0 40 40" fill="none" xmlns="http://www.w3.org/2000/svg">
<g clip-path="url(#clip0_116_52)">
<path d="M18.0795 11.3305L13.9091 15.5H9.125C8.50344 15.5 8 16.0035 8 16.625V23.375C8 23.9961 8.50344 24.5 9.125 24.5H13.9091L18.0795 28.6696C18.7841 29.3741 20 28.8791 20 27.8741V12.126C20 11.12 18.7831 10.6269 18.0795 11.3305ZM29.6394 20L31.7787 17.8607C32.0741 17.5654 32.0741 17.0863 31.7787 16.791L30.7091 15.7213C30.4137 15.426 29.9347 15.426 29.6394 15.7213L27.5 17.8607L25.3606 15.7213C25.0653 15.426 24.5863 15.426 24.2909 15.7213L23.2213 16.791C22.9259 17.0863 22.9259 17.5654 23.2213 17.8607L25.3606 20L23.2217 22.139C22.9264 22.4343 22.9264 22.9133 23.2217 23.2086L24.2914 24.2783C24.5867 24.5736 25.0658 24.5736 25.3611 24.2783L27.5 22.1394L29.6394 24.2788C29.9347 24.5741 30.4137 24.5741 30.7091 24.2788L31.7787 23.2091C32.0741 22.9138 32.0741 22.4347 31.7787 22.1394L29.6394 20Z" fill="white"/>
</g>
<defs>
<clipPath id="clip0_116_52">
<rect width="24" height="24" fill="white" transform="translate(8 8)"/>
</clipPath>
</defs>
</svg>
