<svg width="40" height="40" viewBox="0 0 40 40" fill="none" xmlns="http://www.w3.org/2000/svg">
<path d="M15.7145 10.1428C15.9418 10.1428 16.1598 10.2331 16.3206 10.3939C16.4813 10.5546 16.5716 10.7726 16.5716 11V14C16.5716 14.682 16.3007 15.336 15.8185 15.8182C15.3362 16.3005 14.6822 16.5714 14.0002 16.5714H11.0002C10.7729 16.5714 10.5549 16.4811 10.3941 16.3203C10.2334 16.1596 10.1431 15.9416 10.1431 15.7143C10.1431 15.4869 10.2334 15.2689 10.3941 15.1082C10.5549 14.9474 10.7729 14.8571 11.0002 14.8571H14.0002C14.2275 14.8571 14.4456 14.7668 14.6063 14.6061C14.767 14.4453 14.8574 14.2273 14.8574 14V11C14.8574 10.7726 14.9477 10.5546 15.1084 10.3939C15.2691 10.2331 15.4872 10.1428 15.7145 10.1428ZM24.2859 10.1428C24.5133 10.1428 24.7313 10.2331 24.892 10.3939C25.0528 10.5546 25.1431 10.7726 25.1431 11V14C25.1431 14.2273 25.2334 14.4453 25.3941 14.6061C25.5549 14.7668 25.7729 14.8571 26.0002 14.8571H29.0002C29.2275 14.8571 29.4456 14.9474 29.6063 15.1082C29.767 15.2689 29.8574 15.4869 29.8574 15.7143C29.8574 15.9416 29.767 16.1596 29.6063 16.3203C29.4456 16.4811 29.2275 16.5714 29.0002 16.5714H26.0002C25.3182 16.5714 24.6642 16.3005 24.1819 15.8182C23.6997 15.336 23.4288 14.682 23.4288 14V11C23.4288 10.7726 23.5191 10.5546 23.6798 10.3939C23.8406 10.2331 24.0586 10.1428 24.2859 10.1428ZM10.1431 24.2857C10.1431 24.0584 10.2334 23.8403 10.3941 23.6796C10.5549 23.5188 10.7729 23.4285 11.0002 23.4285H14.0002C14.6822 23.4285 15.3362 23.6995 15.8185 24.1817C16.3007 24.6639 16.5716 25.318 16.5716 26V29C16.5716 29.2273 16.4813 29.4453 16.3206 29.6061C16.1598 29.7668 15.9418 29.8571 15.7145 29.8571C15.4872 29.8571 15.2691 29.7668 15.1084 29.6061C14.9477 29.4453 14.8574 29.2273 14.8574 29V26C14.8574 25.7726 14.767 25.5546 14.6063 25.3939C14.4456 25.2331 14.2275 25.1428 14.0002 25.1428H11.0002C10.7729 25.1428 10.5549 25.0525 10.3941 24.8918C10.2334 24.731 10.1431 24.513 10.1431 24.2857ZM23.4288 26C23.4288 25.318 23.6997 24.6639 24.1819 24.1817C24.6642 23.6995 25.3182 23.4285 26.0002 23.4285H29.0002C29.2275 23.4285 29.4456 23.5188 29.6063 23.6796C29.767 23.8403 29.8574 24.0584 29.8574 24.2857C29.8574 24.513 29.767 24.731 29.6063 24.8918C29.4456 25.0525 29.2275 25.1428 29.0002 25.1428H26.0002C25.7729 25.1428 25.5549 25.2331 25.3941 25.3939C25.2334 25.5546 25.1431 25.7726 25.1431 26V29C25.1431 29.2273 25.0528 29.4453 24.892 29.6061C24.7313 29.7668 24.5133 29.8571 24.2859 29.8571C24.0586 29.8571 23.8406 29.7668 23.6798 29.6061C23.5191 29.4453 23.4288 29.2273 23.4288 29V26Z" fill="white"/>
</svg>
