<svg width="42" height="80" viewBox="0 0 42 80" fill="none" xmlns="http://www.w3.org/2000/svg">
<g clip-path="url(#clip0_20_2012)">
<path d="M12 80C5.37258 80 0 74.6274 0 68V12C0 5.37258 5.37258 0 12 0H30C36.6274 0 42 5.37258 42 12V68C42 74.6274 36.6274 80 30 80H12Z" fill="white" fill-opacity="0.24"/>
<path fill-rule="evenodd" clip-rule="evenodd" d="M14.5129 41.2372C14.1848 40.909 14.0005 40.464 14.0005 39.9999C14.0005 39.5359 14.1848 39.0909 14.5129 38.7627L24.4126 28.8629C24.7427 28.5442 25.1847 28.3678 25.6436 28.3717C26.1024 28.3757 26.5413 28.5598 26.8658 28.8842C27.1903 29.2087 27.3743 29.6476 27.3783 30.1065C27.3823 30.5653 27.2059 31.0074 26.8871 31.3374L18.2246 39.9999L26.8871 48.6624C27.2059 48.9925 27.3823 49.4345 27.3783 49.8934C27.3743 50.3522 27.1903 50.7911 26.8658 51.1156C26.5413 51.4401 26.1024 51.6241 25.6436 51.6281C25.1847 51.6321 24.7427 51.4557 24.4126 51.1369L14.5129 41.2372Z" fill="white"/>
</g>
<defs>
<clipPath id="clip0_20_2012">
<path d="M12 80C5.37258 80 0 74.6274 0 68V12C0 5.37258 5.37258 0 12 0H30C36.6274 0 42 5.37258 42 12V68C42 74.6274 36.6274 80 30 80H12Z" fill="white"/>
</clipPath>
</defs>
</svg>
