<svg width="48" height="48" viewBox="0 0 48 48" fill="none" xmlns="http://www.w3.org/2000/svg">
<path d="M48 24C48 10.7452 37.2548 0 24 0C10.7452 0 0 10.7452 0 24C0 37.2548 10.7452 48 24 48C37.2548 48 48 37.2548 48 24Z" fill="white" fill-opacity="0.69"/>
<path d="M34.6667 18.6666L35.6093 19.6093L36.552 18.6666L35.6093 17.724L34.6667 18.6666ZM28 34.6666C28.3536 34.6666 28.6928 34.5262 28.9428 34.2761C29.1929 34.0261 29.3333 33.6869 29.3333 33.3333C29.3333 32.9797 29.1929 32.6406 28.9428 32.3905C28.6928 32.1405 28.3536 32 28 32V34.6666ZM28.9427 26.276L35.6093 19.6093L33.724 17.724L27.0573 24.3906L28.9427 26.276ZM35.6093 17.724L28.9427 11.0573L27.0573 12.9426L33.724 19.6093L35.6093 17.724ZM34.6667 17.3333H20.6667V20H34.6667V17.3333ZM20.6667 34.6666H28V32H20.6667V34.6666ZM12 26C12 28.2985 12.9131 30.5029 14.5384 32.1282C16.1637 33.7536 18.3681 34.6666 20.6667 34.6666V32C19.8787 32 19.0985 31.8448 18.3706 31.5433C17.6426 31.2417 16.9812 30.7998 16.424 30.2426C15.8669 29.6855 15.4249 29.024 15.1234 28.2961C14.8219 27.5681 14.6667 26.7879 14.6667 26H12ZM20.6667 17.3333C18.3681 17.3333 16.1637 18.2464 14.5384 19.8717C12.9131 21.497 12 23.7014 12 26H14.6667C14.6667 25.212 14.8219 24.4318 15.1234 23.7039C15.4249 22.9759 15.8669 22.3145 16.424 21.7573C16.9812 21.2002 17.6426 20.7582 18.3706 20.4567C19.0985 20.1552 19.8787 20 20.6667 20V17.3333Z" fill="black"/>
</svg>
