<svg width="48" height="48" viewBox="0 0 48 48" fill="none" xmlns="http://www.w3.org/2000/svg">
<g filter="url(#filter0_d_51_364)">
<path d="M4 10C4 5.58172 7.58172 2 12 2H36C40.4183 2 44 5.58172 44 10V34C44 38.4183 40.4183 42 36 42H12C7.58172 42 4 38.4183 4 34V10Z" fill="white" shape-rendering="crispEdges"/>
<path d="M25.5757 27.2706L20.4657 24.4836C19.9752 24.9705 19.3515 25.3013 18.6733 25.4342C17.9951 25.5672 17.2927 25.4964 16.6546 25.2307C16.0166 24.9651 15.4715 24.5164 15.0881 23.9414C14.7046 23.3664 14.5 22.6908 14.5 21.9996C14.5 21.3085 14.7046 20.6328 15.0881 20.0578C15.4715 19.4828 16.0166 19.0342 16.6546 18.7685C17.2927 18.5029 17.9951 18.432 18.6733 18.565C19.3515 18.6979 19.9752 19.0287 20.4657 19.5156L25.5757 16.7286C25.4005 15.9064 25.527 15.0485 25.9323 14.3119C26.3376 13.5753 26.9945 13.0092 27.7828 12.7171C28.5712 12.425 29.4383 12.4264 30.2257 12.7211C31.0131 13.0158 31.6681 13.5841 32.0709 14.3221C32.4737 15.06 32.5975 15.9183 32.4195 16.74C32.2415 17.5617 31.7737 18.2918 31.1016 18.7969C30.4295 19.302 29.5981 19.5483 28.7593 19.4908C27.9206 19.4333 27.1305 19.0758 26.5337 18.4836L21.4237 21.2706C21.5259 21.7509 21.5259 22.2473 21.4237 22.7276L26.5337 25.5156C27.1305 24.9235 27.9206 24.566 28.7593 24.5084C29.5981 24.4509 30.4295 24.6972 31.1016 25.2023C31.7737 25.7074 32.2415 26.4376 32.4195 27.2593C32.5975 28.0809 32.4737 28.9392 32.0709 29.6772C31.6681 30.4151 31.0131 30.9834 30.2257 31.2781C29.4383 31.5728 28.5712 31.5743 27.7828 31.2822C26.9945 30.9901 26.3376 30.424 25.9323 29.6874C25.527 28.9508 25.4005 28.0929 25.5757 27.2706Z" fill="black"/>
</g>
<defs>
<filter id="filter0_d_51_364" x="0" y="0" width="48" height="48" filterUnits="userSpaceOnUse" color-interpolation-filters="sRGB">
<feFlood flood-opacity="0" result="BackgroundImageFix"/>
<feColorMatrix in="SourceAlpha" type="matrix" values="0 0 0 0 0 0 0 0 0 0 0 0 0 0 0 0 0 0 127 0" result="hardAlpha"/>
<feOffset dy="2"/>
<feGaussianBlur stdDeviation="2"/>
<feComposite in2="hardAlpha" operator="out"/>
<feColorMatrix type="matrix" values="0 0 0 0 0 0 0 0 0 0 0 0 0 0 0 0 0 0 0.25 0"/>
<feBlend mode="normal" in2="BackgroundImageFix" result="effect1_dropShadow_51_364"/>
<feBlend mode="normal" in="SourceGraphic" in2="effect1_dropShadow_51_364" result="shape"/>
</filter>
</defs>
</svg>
