<svg width="65" height="65" viewBox="0 0 65 65" fill="none" xmlns="http://www.w3.org/2000/svg">
<path d="M0 12C0 5.37259 5.37258 0 12 0H52.8937C59.5211 0 64.8937 5.37258 64.8937 12V52.8937C64.8937 59.5211 59.5211 64.8937 52.8937 64.8937H12C5.37259 64.8937 0 59.5211 0 52.8937V12Z" fill="#00AC47"/>
<g clip-path="url(#clip0_20_1966)">
<path d="M7.70164 32.2341C7.70028 36.5955 8.83973 40.8532 11.006 44.6062L7.49384 57.4295L20.617 53.9886C24.2328 55.9601 28.3039 56.9995 32.4465 57.001H32.4571C46.1002 57.001 57.2064 45.8983 57.2123 32.2539C57.2146 25.6413 54.6417 19.4232 49.9681 14.7456C45.294 10.0686 39.0792 7.491 32.4571 7.48828C18.8118 7.48828 7.70708 18.5895 7.70164 32.2341ZM15.517 43.9599L15.027 43.182C12.9671 39.9068 11.8799 36.122 11.8815 32.2356C11.8858 20.8946 21.1155 11.6677 32.4649 11.6677C37.9611 11.6701 43.1264 13.8126 47.0114 17.7C50.8963 21.5877 53.034 26.7557 53.0326 32.2523C53.0276 43.5934 43.7976 52.8214 32.4571 52.8214H32.449C28.7564 52.8195 25.1349 51.8278 21.9767 49.9538L21.2251 49.5081L13.4375 51.5499L15.517 43.9599Z" fill="white"/>
<path d="M26.2697 21.8888C25.8063 20.8589 25.3187 20.8381 24.878 20.8201C24.5171 20.8045 24.1046 20.8057 23.6925 20.8057C23.28 20.8057 22.6098 20.9609 22.0433 21.5794C21.4762 22.1986 19.8782 23.6948 19.8782 26.7379C19.8782 29.781 22.0947 32.7222 22.4037 33.1353C22.7131 33.5476 26.6828 39.9923 32.9699 42.4717C38.1949 44.5321 39.2583 44.1223 40.3923 44.0189C41.5265 43.916 44.052 42.5231 44.5673 41.0788C45.0829 39.6346 45.0829 38.3967 44.9283 38.138C44.7737 37.8803 44.3612 37.7255 43.7426 37.4163C43.1241 37.1071 40.0829 35.6105 39.516 35.4041C38.9489 35.1978 38.5366 35.0949 38.1241 35.7142C37.7116 36.3326 36.5271 37.7255 36.166 38.138C35.8054 38.5515 35.4443 38.6029 34.8259 38.2936C34.207 37.9832 32.2149 37.3308 29.8516 35.2238C28.0128 33.5843 26.7714 31.5596 26.4105 30.9403C26.0497 30.3219 26.3719 29.9867 26.682 29.6785C26.9599 29.4013 27.3008 28.9562 27.6104 28.5952C27.9188 28.2339 28.0217 27.9762 28.228 27.5637C28.4344 27.1508 28.3311 26.7896 28.1767 26.4802C28.0217 26.1708 26.8197 23.1118 26.2697 21.8888Z" fill="white"/>
</g>
<defs>
<clipPath id="clip0_20_1966">
<rect width="49.7311" height="50.1069" fill="white" transform="translate(7.4873 7.48828)"/>
</clipPath>
</defs>
</svg>
