<svg width="34" height="34" viewBox="0 0 34 34" fill="none" xmlns="http://www.w3.org/2000/svg">
<path d="M0 12C0 5.37259 5.37259 0 12 0H21.49C28.1174 0 33.49 5.37259 33.49 12V21.49C33.49 28.1174 28.1174 33.49 21.49 33.49H12C5.37259 33.49 0 28.1174 0 21.49V12Z" fill="white"/>
<path d="M20.5 19H19.71L19.43 18.73C20.444 17.5541 21.0012 16.0527 21 14.5C21 13.2144 20.6188 11.9577 19.9046 10.8888C19.1903 9.81988 18.1752 8.98676 16.9874 8.49479C15.7997 8.00282 14.4928 7.87409 13.2319 8.1249C11.971 8.3757 10.8128 8.99477 9.90381 9.90381C8.99477 10.8128 8.3757 11.971 8.1249 13.2319C7.87409 14.4928 8.00282 15.7997 8.49479 16.9874C8.98676 18.1752 9.81988 19.1903 10.8888 19.9046C11.9577 20.6188 13.2144 21 14.5 21C16.11 21 17.59 20.41 18.73 19.43L19 19.71V20.5L24 25.49L25.49 24L20.5 19ZM14.5 19C12.01 19 10 16.99 10 14.5C10 12.01 12.01 10 14.5 10C16.99 10 19 12.01 19 14.5C19 16.99 16.99 19 14.5 19ZM15 12H14V14H12V15H14V17H15V15H17V14H15V12Z" fill="#555555"/>
</svg>
