<svg width="539" height="83" viewBox="0 0 539 83" fill="none" xmlns="http://www.w3.org/2000/svg">
<rect width="538.441" height="82.5508" rx="15.6203" fill="#3B3B3B"/>
<rect width="531.311" height="55.9984" transform="translate(3.67578 12.9609)" fill="#3B3B3B"/>
<g clip-path="url(#clip0_2008_158)">
<path d="M71.3157 21.4474L59.6803 17.375L48.0449 21.4474V30.8255C48.0449 35.6274 50.9933 38.9842 53.7416 41.0681C55.4009 42.3136 57.2208 43.3293 59.1521 44.0875C59.2839 44.1372 59.4166 44.1845 59.55 44.2295L59.6803 44.276L59.813 44.2295C60.0674 44.1411 60.3195 44.0464 60.5693 43.9456C62.3678 43.2046 64.0647 42.2377 65.619 41.0681C68.3685 38.9842 71.3157 35.6274 71.3157 30.8255V21.4474ZM58.5179 34.799L53.5834 29.8621L55.2286 28.2157L58.5191 31.5073L65.1012 24.9252L66.7476 26.5704L58.5179 34.799Z" fill="white"/>
</g>
<path d="M13.2102 59.7897H14.3828L14.9724 60.5481L15.5523 61.2237L16.6453 62.5939H15.358L14.6059 61.6698L14.2203 61.1217L13.2102 59.7897ZM16.7441 58.7955C16.7441 59.5072 16.6092 60.1126 16.3394 60.6119C16.0718 61.1111 15.7064 61.4924 15.2432 61.7559C14.7822 62.0172 14.2639 62.1478 13.6882 62.1478C13.1082 62.1478 12.5877 62.0161 12.1267 61.7527C11.6657 61.4893 11.3014 61.1079 11.0337 60.6087C10.766 60.1094 10.6322 59.505 10.6322 58.7955C10.6322 58.0838 10.766 57.4784 11.0337 56.9791C11.3014 56.4799 11.6657 56.0996 12.1267 55.8383C12.5877 55.5749 13.1082 55.4432 13.6882 55.4432C14.2639 55.4432 14.7822 55.5749 15.2432 55.8383C15.7064 56.0996 16.0718 56.4799 16.3394 56.9791C16.6092 57.4784 16.7441 58.0838 16.7441 58.7955ZM15.3452 58.7955C15.3452 58.3345 15.2762 57.9457 15.1381 57.6292C15.0021 57.3126 14.8099 57.0726 14.5613 56.909C14.3127 56.7454 14.0217 56.6636 13.6882 56.6636C13.3546 56.6636 13.0636 56.7454 12.815 56.909C12.5665 57.0726 12.3731 57.3126 12.2351 57.6292C12.0991 57.9457 12.0311 58.3345 12.0311 58.7955C12.0311 59.2565 12.0991 59.6453 12.2351 59.9618C12.3731 60.2783 12.5665 60.5184 12.815 60.682C13.0636 60.8456 13.3546 60.9273 13.6882 60.9273C14.0217 60.9273 14.3127 60.8456 14.5613 60.682C14.8099 60.5184 15.0021 60.2783 15.1381 59.9618C15.2762 59.6453 15.3452 59.2565 15.3452 58.7955ZM21.7973 55.5324H23.1771V59.7706C23.1771 60.2465 23.0635 60.6629 22.8362 61.0198C22.611 61.3767 22.2955 61.655 21.8897 61.8546C21.484 62.0522 21.0113 62.151 20.4717 62.151C19.93 62.151 19.4562 62.0522 19.0505 61.8546C18.6447 61.655 18.3292 61.3767 18.104 61.0198C17.8788 60.6629 17.7662 60.2465 17.7662 59.7706V55.5324H19.146V59.6527C19.146 59.9012 19.2002 60.1222 19.3086 60.3155C19.419 60.5088 19.5741 60.6607 19.7738 60.7712C19.9735 60.8817 20.2061 60.9369 20.4717 60.9369C20.7394 60.9369 20.972 60.8817 21.1696 60.7712C21.3693 60.6607 21.5233 60.5088 21.6316 60.3155C21.7421 60.1222 21.7973 59.9012 21.7973 59.6527V55.5324ZM25.4372 62.0586H23.9586L26.2116 55.5324H27.9897L30.2395 62.0586H28.7609L27.1262 57.0237H27.0752L25.4372 62.0586ZM25.3448 59.4934H28.8374V60.5704H25.3448V59.4934ZM31.025 62.0586V55.5324H32.4048V60.921H35.2026V62.0586H31.025ZM37.4962 55.5324V62.0586H36.1164V55.5324H37.4962ZM38.3829 56.67V55.5324H43.7428V56.67H41.7448V62.0586H40.3809V56.67H38.3829ZM44.2431 55.5324H45.7886L47.2768 58.343H47.3405L48.8286 55.5324H50.3742L47.9938 59.7515V62.0586H46.6235V59.7515L44.2431 55.5324ZM54.3296 62.0586H52.851L55.1039 55.5324H56.882L59.1318 62.0586H57.6532L56.0185 57.0237H55.9675L54.3296 62.0586ZM54.2371 59.4934H57.7297V60.5704H54.2371V59.4934ZM63.3087 57.4093C63.2832 57.1523 63.1738 56.9526 62.9804 56.8102C62.7871 56.6679 62.5248 56.5967 62.1934 56.5967C61.9682 56.5967 61.778 56.6286 61.6229 56.6923C61.4679 56.7539 61.3489 56.84 61.266 56.9504C61.1853 57.0609 61.145 57.1862 61.145 57.3265C61.1407 57.4433 61.1651 57.5453 61.2182 57.6324C61.2735 57.7195 61.3489 57.7949 61.4445 57.8586C61.5401 57.9202 61.6506 57.9744 61.7759 58.0211C61.9012 58.0658 62.0351 58.104 62.1774 58.1359L62.7638 58.2761C63.0484 58.3398 63.3097 58.4248 63.5477 58.531C63.7856 58.6372 63.9917 58.7679 64.1659 58.923C64.3401 59.078 64.475 59.2607 64.5706 59.4711C64.6683 59.6814 64.7182 59.9225 64.7203 60.1944C64.7182 60.5938 64.6162 60.9401 64.4144 61.2333C64.2147 61.5243 63.9258 61.7506 63.5477 61.912C63.1716 62.0713 62.7181 62.151 62.187 62.151C61.6601 62.151 61.2012 62.0703 60.8104 61.9088C60.4216 61.7474 60.1178 61.5084 59.899 61.1918C59.6823 60.8732 59.5686 60.4791 59.558 60.0096H60.8932C60.9081 60.2284 60.9707 60.4111 61.0812 60.5577C61.1938 60.7022 61.3436 60.8116 61.5305 60.8859C61.7196 60.9581 61.9331 60.9943 62.171 60.9943C62.4047 60.9943 62.6076 60.9603 62.7797 60.8923C62.9539 60.8243 63.0888 60.7298 63.1844 60.6087C63.28 60.4876 63.3278 60.3484 63.3278 60.1912C63.3278 60.0446 63.2842 59.9214 63.1971 59.8216C63.1122 59.7217 62.9868 59.6368 62.8211 59.5667C62.6575 59.4965 62.4568 59.4328 62.2188 59.3755L61.5082 59.197C60.958 59.0632 60.5236 58.8539 60.2049 58.5692C59.8862 58.2846 59.728 57.9011 59.7301 57.4189C59.728 57.0237 59.8331 56.6785 60.0456 56.3832C60.2601 56.0879 60.5544 55.8574 60.9283 55.6917C61.3022 55.526 61.727 55.4432 62.2029 55.4432C62.6873 55.4432 63.11 55.526 63.4712 55.6917C63.8345 55.8574 64.117 56.0879 64.3188 56.3832C64.5206 56.6785 64.6247 57.0205 64.6311 57.4093H63.3087ZM69.1888 57.4093C69.1633 57.1523 69.0539 56.9526 68.8606 56.8102C68.6672 56.6679 68.4049 56.5967 68.0735 56.5967C67.8483 56.5967 67.6581 56.6286 67.5031 56.6923C67.348 56.7539 67.229 56.84 67.1462 56.9504C67.0654 57.0609 67.0251 57.1862 67.0251 57.3265C67.0208 57.4433 67.0452 57.5453 67.0984 57.6324C67.1536 57.7195 67.229 57.7949 67.3246 57.8586C67.4202 57.9202 67.5307 57.9744 67.656 58.0211C67.7814 58.0658 67.9152 58.104 68.0575 58.1359L68.6439 58.2761C68.9285 58.3398 69.1898 58.4248 69.4278 58.531C69.6657 58.6372 69.8718 58.7679 70.046 58.923C70.2202 59.078 70.3551 59.2607 70.4507 59.4711C70.5484 59.6814 70.5983 59.9225 70.6005 60.1944C70.5983 60.5938 70.4964 60.9401 70.2945 61.2333C70.0948 61.5243 69.8059 61.7506 69.4278 61.912C69.0518 62.0713 68.5982 62.151 68.0671 62.151C67.5402 62.151 67.0814 62.0703 66.6905 61.9088C66.3017 61.7474 65.9979 61.5084 65.7791 61.1918C65.5624 60.8732 65.4488 60.4791 65.4381 60.0096H66.7733C66.7882 60.2284 66.8509 60.4111 66.9613 60.5577C67.0739 60.7022 67.2237 60.8116 67.4106 60.8859C67.5997 60.9581 67.8132 60.9943 68.0512 60.9943C68.2848 60.9943 68.4877 60.9603 68.6598 60.8923C68.834 60.8243 68.9689 60.7298 69.0645 60.6087C69.1601 60.4876 69.2079 60.3484 69.2079 60.1912C69.2079 60.0446 69.1644 59.9214 69.0773 59.8216C68.9923 59.7217 68.8669 59.6368 68.7012 59.5667C68.5377 59.4965 68.3369 59.4328 68.099 59.3755L67.3883 59.197C66.8381 59.0632 66.4037 58.8539 66.085 58.5692C65.7664 58.2846 65.6081 57.9011 65.6102 57.4189C65.6081 57.0237 65.7132 56.6785 65.9257 56.3832C66.1402 56.0879 66.4345 55.8574 66.8084 55.6917C67.1823 55.526 67.6072 55.4432 68.083 55.4432C68.5674 55.4432 68.9902 55.526 69.3513 55.6917C69.7146 55.8574 69.9971 56.0879 70.1989 56.3832C70.4008 56.6785 70.5049 57.0205 70.5112 57.4093H69.1888ZM75.5596 55.5324H76.9394V59.7706C76.9394 60.2465 76.8258 60.6629 76.5985 61.0198C76.3733 61.3767 76.0578 61.655 75.6521 61.8546C75.2463 62.0522 74.7736 62.151 74.234 62.151C73.6923 62.151 73.2185 62.0522 72.8128 61.8546C72.407 61.655 72.0915 61.3767 71.8663 61.0198C71.6412 60.6629 71.5286 60.2465 71.5286 59.7706V55.5324H72.9084V59.6527C72.9084 59.9012 72.9625 60.1222 73.0709 60.3155C73.1814 60.5088 73.3364 60.6607 73.5361 60.7712C73.7358 60.8817 73.9685 60.9369 74.234 60.9369C74.5017 60.9369 74.7343 60.8817 74.9319 60.7712C75.1316 60.6607 75.2856 60.5088 75.3939 60.3155C75.5044 60.1222 75.5596 59.9012 75.5596 59.6527V55.5324ZM78.0747 62.0586V55.5324H80.6495C81.1423 55.5324 81.563 55.6206 81.9114 55.7969C82.2619 55.9711 82.5285 56.2186 82.7112 56.5394C82.896 56.858 82.9885 57.233 82.9885 57.6642C82.9885 58.0976 82.895 58.4705 82.708 58.7827C82.5211 59.0929 82.2502 59.3308 81.8954 59.4965C81.5428 59.6623 81.1158 59.7451 80.6144 59.7451H78.8905V58.6362H80.3914C80.6548 58.6362 80.8736 58.6 81.0478 58.5278C81.222 58.4556 81.3516 58.3472 81.4366 58.2028C81.5237 58.0583 81.5672 57.8788 81.5672 57.6642C81.5672 57.4475 81.5237 57.2648 81.4366 57.1161C81.3516 56.9674 81.2209 56.8548 81.0446 56.7784C80.8704 56.6998 80.6505 56.6605 80.385 56.6605H79.4545V62.0586H78.0747ZM81.5991 59.0887L83.2211 62.0586H81.6979L80.1109 59.0887H81.5991ZM85.0884 62.0586H83.6099L85.8628 55.5324H87.6409L89.8907 62.0586H88.4121L86.7774 57.0237H86.7264L85.0884 62.0586ZM84.996 59.4934H88.4886V60.5704H84.996V59.4934ZM96.1349 55.5324V62.0586H94.9431L92.1038 57.951H92.056V62.0586H90.6762V55.5324H91.8871L94.7041 59.6368H94.7614V55.5324H96.1349ZM103.033 57.8172H101.637C101.612 57.6366 101.56 57.4762 101.481 57.336C101.403 57.1937 101.302 57.0726 101.178 56.9727C101.055 56.8729 100.913 56.7964 100.751 56.7433C100.592 56.6902 100.419 56.6636 100.232 56.6636C99.8943 56.6636 99.6001 56.7476 99.3494 56.9154C99.0987 57.0811 98.9043 57.3233 98.7662 57.6419C98.6281 57.9585 98.5591 58.343 98.5591 58.7955C98.5591 59.2607 98.6281 59.6516 98.7662 59.9682C98.9064 60.2847 99.1019 60.5237 99.3526 60.6852C99.6032 60.8466 99.8932 60.9273 100.223 60.9273C100.407 60.9273 100.578 60.9029 100.736 60.8541C100.895 60.8052 101.036 60.734 101.159 60.6405C101.283 60.5449 101.385 60.4292 101.465 60.2932C101.548 60.1572 101.606 60.0022 101.637 59.828L103.033 59.8343C102.997 60.1339 102.907 60.4228 102.762 60.7011C102.62 60.9773 102.428 61.2248 102.185 61.4436C101.945 61.6603 101.659 61.8323 101.325 61.9598C100.994 62.0851 100.619 62.1478 100.2 62.1478C99.6181 62.1478 99.0976 62.0161 98.6388 61.7527C98.182 61.4893 97.8209 61.1079 97.5553 60.6087C97.2919 60.1094 97.1602 59.505 97.1602 58.7955C97.1602 58.0838 97.294 57.4784 97.5617 56.9791C97.8294 56.4799 98.1926 56.0996 98.6515 55.8383C99.1104 55.5749 99.6266 55.4432 100.2 55.4432C100.578 55.4432 100.929 55.4963 101.252 55.6025C101.577 55.7087 101.865 55.8638 102.115 56.0677C102.366 56.2696 102.57 56.5171 102.727 56.8102C102.887 57.1034 102.988 57.4391 103.033 57.8172ZM104.023 62.0586V55.5324H108.42V56.67H105.402V58.2251H108.194V59.3627H105.402V60.921H108.433V62.0586H104.023Z" fill="white"/>
<path d="M127.627 15.6914L127.627 66.2277" stroke="white" stroke-opacity="0.38" stroke-width="1.02269" stroke-linecap="round"/>
<path d="M195.575 19.1914C194.047 19.1914 192.534 19.4924 191.122 20.0771C189.711 20.6618 188.428 21.5189 187.347 22.5993C185.165 24.7814 183.939 27.7409 183.939 30.8268C183.939 33.9127 185.165 36.8722 187.347 39.0543C188.428 40.1347 189.711 40.9918 191.122 41.5765C192.534 42.1612 194.047 42.4622 195.575 42.4622C198.661 42.4622 201.62 41.2363 203.802 39.0543C205.984 36.8722 207.21 33.9127 207.21 30.8268C207.21 29.2988 206.909 27.7858 206.325 26.3741C205.74 24.9625 204.883 23.6798 203.802 22.5993C202.722 21.5189 201.439 20.6618 200.028 20.0771C198.616 19.4924 197.103 19.1914 195.575 19.1914ZM200.462 35.7137L194.411 31.9903V25.0091H196.157V31.0595L201.393 34.2011L200.462 35.7137Z" fill="white"/>
<path d="M159.141 58.7955C159.141 59.5072 159.006 60.1126 158.736 60.6119C158.468 61.1111 158.103 61.4924 157.64 61.7559C157.179 62.0172 156.66 62.1478 156.085 62.1478C155.505 62.1478 154.984 62.0161 154.523 61.7527C154.062 61.4893 153.698 61.1079 153.43 60.6087C153.163 60.1094 153.029 59.505 153.029 58.7955C153.029 58.0838 153.163 57.4784 153.43 56.9791C153.698 56.4799 154.062 56.0996 154.523 55.8383C154.984 55.5749 155.505 55.4432 156.085 55.4432C156.66 55.4432 157.179 55.5749 157.64 55.8383C158.103 56.0996 158.468 56.4799 158.736 56.9791C159.006 57.4784 159.141 58.0838 159.141 58.7955ZM157.742 58.7955C157.742 58.3345 157.673 57.9457 157.535 57.6292C157.399 57.3126 157.206 57.0726 156.958 56.909C156.709 56.7454 156.418 56.6636 156.085 56.6636C155.751 56.6636 155.46 56.7454 155.212 56.909C154.963 57.0726 154.77 57.3126 154.632 57.6292C154.496 57.9457 154.428 58.3345 154.428 58.7955C154.428 59.2565 154.496 59.6453 154.632 59.9618C154.77 60.2783 154.963 60.5184 155.212 60.682C155.46 60.8456 155.751 60.9273 156.085 60.9273C156.418 60.9273 156.709 60.8456 156.958 60.682C157.206 60.5184 157.399 60.2783 157.535 59.9618C157.673 59.6453 157.742 59.2565 157.742 58.7955ZM165.621 55.5324V62.0586H164.43L161.59 57.951H161.543V62.0586H160.163V55.5324H161.374L164.191 59.6368H164.248V55.5324H165.621ZM169.786 58.257V59.334H166.809V58.257H169.786ZM170.448 56.67V55.5324H175.807V56.67H173.809V62.0586H172.446V56.67H170.448ZM178.07 55.5324V62.0586H176.69V55.5324H178.07ZM179.205 55.5324H180.907L182.704 59.9172H182.781L184.578 55.5324H186.279V62.0586H184.941V57.8108H184.887L183.198 62.0267H182.287L180.598 57.7949H180.544V62.0586H179.205V55.5324ZM187.416 62.0586V55.5324H191.814V56.67H188.796V58.2251H191.588V59.3627H188.796V60.921H191.827V62.0586H187.416ZM197.301 62.0586H194.988V55.5324H197.32C197.977 55.5324 198.542 55.663 199.016 55.9243C199.489 56.1835 199.854 56.5564 200.109 57.0428C200.366 57.5293 200.494 58.1114 200.494 58.7891C200.494 59.4689 200.366 60.0531 200.109 60.5418C199.854 61.0304 199.487 61.4053 199.009 61.6666C198.533 61.9279 197.964 62.0586 197.301 62.0586ZM196.368 60.8764H197.244C197.652 60.8764 197.995 60.8041 198.273 60.6597C198.554 60.5131 198.764 60.2868 198.904 59.9809C199.046 59.6729 199.118 59.2756 199.118 58.7891C199.118 58.3069 199.046 57.9128 198.904 57.6069C198.764 57.301 198.555 57.0758 198.276 56.9313C197.998 56.7869 197.655 56.7146 197.247 56.7146H196.368V60.8764ZM201.516 62.0586V55.5324H205.914V56.67H202.896V58.2251H205.688V59.3627H202.896V60.921H205.927V62.0586H201.516ZM207.011 62.0586V55.5324H208.391V60.921H211.189V62.0586H207.011ZM213.482 55.5324V62.0586H212.102V55.5324H213.482ZM215.796 55.5324L217.374 60.4908H217.434L219.015 55.5324H220.544L218.295 62.0586H216.517L214.264 55.5324H215.796ZM221.33 62.0586V55.5324H225.728V56.67H222.71V58.2251H225.501V59.3627H222.71V60.921H225.74V62.0586H221.33ZM226.824 62.0586V55.5324H229.399C229.892 55.5324 230.313 55.6206 230.661 55.7969C231.012 55.9711 231.278 56.2186 231.461 56.5394C231.646 56.858 231.738 57.233 231.738 57.6642C231.738 58.0976 231.645 58.4705 231.458 58.7827C231.271 59.0929 231 59.3308 230.645 59.4965C230.293 59.6623 229.866 59.7451 229.364 59.7451H227.64V58.6362H229.141C229.405 58.6362 229.623 58.6 229.798 58.5278C229.972 58.4556 230.101 58.3472 230.186 58.2028C230.273 58.0583 230.317 57.8788 230.317 57.6642C230.317 57.4475 230.273 57.2648 230.186 57.1161C230.101 56.9674 229.971 56.8548 229.794 56.7784C229.62 56.6998 229.4 56.6605 229.135 56.6605H228.204V62.0586H226.824ZM230.349 59.0887L231.971 62.0586H230.448L228.861 59.0887H230.349ZM232.059 55.5324H233.605L235.093 58.343H235.157L236.645 55.5324H238.19L235.81 59.7515V62.0586H234.44V59.7515L232.059 55.5324Z" fill="white"/>
<path d="M263.523 15.6914L263.523 66.2277" stroke="white" stroke-opacity="0.38" stroke-width="1.02269" stroke-linecap="round"/>
<path d="M338.156 19.5445C338.156 19.3131 338.064 19.0911 337.9 18.9275C337.737 18.7638 337.515 18.6719 337.283 18.6719C337.052 18.6719 336.83 18.7638 336.666 18.9275C336.503 19.0911 336.411 19.3131 336.411 19.5445V21.2666C336.411 21.498 336.503 21.72 336.666 21.8836C336.83 22.0473 337.052 22.1392 337.283 22.1392C337.515 22.1392 337.737 22.0473 337.9 21.8836C338.064 21.72 338.156 21.498 338.156 21.2666V19.5445ZM344.103 28.8412C343.86 27.8983 343.42 27.0178 342.811 26.2581C342.208 25.4931 341.451 24.8629 340.589 24.4081C339.729 23.9569 338.787 23.6838 337.82 23.6053C336.849 23.5324 335.874 23.6632 334.957 23.9892C334.035 24.3107 333.191 24.8221 332.479 25.4902C331.775 26.1471 331.209 26.9383 330.815 27.8173C330.43 28.7098 330.236 29.6728 330.245 30.6447C330.218 31.7672 330.458 32.8801 330.946 33.8916C331.433 34.9031 332.154 35.7842 333.049 36.4624L333.456 36.8464C333.806 37.207 333.806 37.207 333.794 38.0099V38.3822C333.78 38.6397 333.819 38.8972 333.91 39.1385C333.992 39.3968 334.136 39.633 334.329 39.825C334.418 39.9158 334.514 39.9972 334.62 40.0694V41.2329C334.601 41.4439 334.624 41.6566 334.687 41.8588C334.751 42.061 334.853 42.2486 334.99 42.4108C335.126 42.573 335.293 42.7067 335.481 42.8041C335.669 42.9015 335.875 42.9606 336.086 42.9782H338.413C338.84 42.9426 339.236 42.7388 339.513 42.4115C339.79 42.0842 339.926 41.6603 339.891 41.2329V40.0694C339.996 39.998 340.093 39.9162 340.182 39.825C340.364 39.6319 340.504 39.4015 340.589 39.1502C340.678 38.9044 340.718 38.6434 340.705 38.3822V37.9517C340.705 37.3118 340.705 37.3118 341.066 36.9045L341.508 36.4973C343 35.3371 343.974 33.6355 344.219 31.7617C344.39 30.7911 344.351 29.7951 344.103 28.8412ZM338.204 41.2096H336.365V40.4766H338.204V41.2096ZM337.284 28.9227C336.905 28.9227 336.541 29.0734 336.273 29.3418C336.004 29.6102 335.853 29.9742 335.853 30.3538C335.853 30.6624 335.731 30.9583 335.513 31.1766C335.294 31.3948 334.998 31.5173 334.69 31.5173C334.381 31.5173 334.085 31.3948 333.867 31.1766C333.649 30.9583 333.526 30.6624 333.526 30.3538C333.523 29.8594 333.618 29.3693 333.806 28.9119C333.994 28.4546 334.271 28.039 334.62 27.6894C334.97 27.3398 335.385 27.0631 335.843 26.8754C336.3 26.6876 336.79 26.5925 337.284 26.5956C337.593 26.5956 337.889 26.7182 338.107 26.9364C338.325 27.1546 338.448 27.4505 338.448 27.7591C338.448 28.0677 338.325 28.3637 338.107 28.5819C337.889 28.8001 337.593 28.9227 337.284 28.9227ZM347.943 31.8315H345.813C345.582 31.8315 345.36 31.7396 345.196 31.5759C345.033 31.4123 344.941 31.1903 344.941 30.9588C344.941 30.7274 345.033 30.5054 345.196 30.3418C345.36 30.1781 345.582 30.0862 345.813 30.0862H347.943C348.174 30.0862 348.396 30.1781 348.56 30.3418C348.723 30.5054 348.815 30.7274 348.815 30.9588C348.815 31.1903 348.723 31.4123 348.56 31.5759C348.396 31.7396 348.174 31.8315 347.943 31.8315ZM343.661 24.8386C343.546 24.8392 343.432 24.8168 343.327 24.7729C343.221 24.7289 343.125 24.6642 343.044 24.5827C342.881 24.419 342.789 24.1972 342.789 23.966C342.789 23.7347 342.881 23.5129 343.044 23.3493L344.557 21.8367C344.722 21.6826 344.941 21.5986 345.167 21.6026C345.393 21.6066 345.609 21.6982 345.769 21.8581C345.928 22.018 346.02 22.2337 346.024 22.4597C346.028 22.6858 345.944 22.9046 345.79 23.0701L344.277 24.5827C344.197 24.6648 344.101 24.7298 343.995 24.7738C343.889 24.8178 343.775 24.8398 343.661 24.8386ZM346.337 39.3131C346.107 39.3069 345.887 39.2157 345.72 39.0571L344.208 37.5445C344.105 37.4431 344.03 37.3181 343.988 37.1805C343.945 37.0428 343.938 36.8969 343.966 36.7557C343.994 36.6145 344.056 36.4824 344.147 36.3711C344.239 36.2598 344.356 36.1729 344.489 36.118C344.649 36.0507 344.825 36.0331 344.995 36.0676C345.165 36.102 345.32 36.1869 345.441 36.3111L346.954 37.8237C347.036 37.9039 347.101 37.9998 347.146 38.1058C347.191 38.2117 347.214 38.3255 347.214 38.4404C347.214 38.5554 347.191 38.6691 347.146 38.7751C347.101 38.881 347.036 38.9769 346.954 39.0571C346.79 39.2208 346.568 39.3129 346.337 39.3131ZM330.92 24.8386C330.689 24.8384 330.467 24.7464 330.303 24.5827L328.791 23.0701C328.627 22.905 328.536 22.6817 328.537 22.4493C328.538 22.2169 328.631 21.9944 328.796 21.8309C328.962 21.6673 329.185 21.5761 329.417 21.5772C329.65 21.5782 329.872 21.6716 330.036 21.8367L331.537 23.3493C331.659 23.4713 331.741 23.6268 331.775 23.7959C331.809 23.9651 331.791 24.1405 331.725 24.2998C331.659 24.4592 331.548 24.5954 331.404 24.6913C331.261 24.7872 331.092 24.8385 330.92 24.8386ZM328.255 39.3131C328.14 39.3164 328.026 39.2953 327.92 39.2512C327.813 39.207 327.718 39.1409 327.639 39.0571C327.475 38.8935 327.384 38.6717 327.384 38.4404C327.384 38.2091 327.475 37.9873 327.639 37.8237L329.151 36.3111C329.317 36.157 329.536 36.0731 329.762 36.077C329.988 36.081 330.203 36.1726 330.363 36.3325C330.523 36.4924 330.615 36.7081 330.619 36.9342C330.623 37.1602 330.539 37.379 330.385 37.5445L328.884 39.0687C328.712 39.2258 328.488 39.313 328.255 39.3131ZM328.744 31.8315H326.615C326.383 31.8315 326.161 31.7396 325.998 31.5759C325.834 31.4123 325.742 31.1903 325.742 30.9588C325.742 30.7274 325.834 30.5054 325.998 30.3418C326.161 30.1781 326.383 30.0862 326.615 30.0862H328.744C328.976 30.0862 329.198 30.1781 329.361 30.3418C329.525 30.5054 329.617 30.7274 329.617 30.9588C329.617 31.1903 329.525 31.4123 329.361 31.5759C329.198 31.7396 328.976 31.8315 328.744 31.8315Z" fill="white"/>
<path d="M284.226 55.5324V62.0586H282.847V55.5324H284.226ZM290.82 55.5324V62.0586H289.628L286.789 57.951H286.741V62.0586H285.362V55.5324H286.572L289.389 59.6368H289.447V55.5324H290.82ZM297.419 55.5324V62.0586H296.227L293.388 57.951H293.34V62.0586H291.96V55.5324H293.171L295.988 59.6368H296.046V55.5324H297.419ZM304.556 58.7955C304.556 59.5072 304.421 60.1126 304.151 60.6119C303.884 61.1111 303.518 61.4924 303.055 61.7559C302.594 62.0172 302.076 62.1478 301.5 62.1478C300.92 62.1478 300.4 62.0161 299.939 61.7527C299.478 61.4893 299.113 61.1079 298.846 60.6087C298.578 60.1094 298.444 59.505 298.444 58.7955C298.444 58.0838 298.578 57.4784 298.846 56.9791C299.113 56.4799 299.478 56.0996 299.939 55.8383C300.4 55.5749 300.92 55.4432 301.5 55.4432C302.076 55.4432 302.594 55.5749 303.055 55.8383C303.518 56.0996 303.884 56.4799 304.151 56.9791C304.421 57.4784 304.556 58.0838 304.556 58.7955ZM303.157 58.7955C303.157 58.3345 303.088 57.9457 302.95 57.6292C302.814 57.3126 302.622 57.0726 302.373 56.909C302.125 56.7454 301.834 56.6636 301.5 56.6636C301.167 56.6636 300.876 56.7454 300.627 56.909C300.379 57.0726 300.185 57.3126 300.047 57.6292C299.911 57.9457 299.843 58.3345 299.843 58.7955C299.843 59.2565 299.911 59.6453 300.047 59.9618C300.185 60.2783 300.379 60.5184 300.627 60.682C300.876 60.8456 301.167 60.9273 301.5 60.9273C301.834 60.9273 302.125 60.8456 302.373 60.682C302.622 60.5184 302.814 60.2783 302.95 59.9618C303.088 59.6453 303.157 59.2565 303.157 58.7955ZM306.389 55.5324L307.967 60.4908H308.027L309.608 55.5324H311.137L308.888 62.0586H307.109L304.857 55.5324H306.389ZM312.18 62.0586H310.702L312.955 55.5324H314.733L316.982 62.0586H315.504L313.869 57.0237H313.818L312.18 62.0586ZM312.088 59.4934H315.58V60.5704H312.088V59.4934ZM316.722 56.67V55.5324H322.082V56.67H320.084V62.0586H318.72V56.67H316.722ZM324.344 55.5324V62.0586H322.965V55.5324H324.344ZM326.659 55.5324L328.236 60.4908H328.297L329.877 55.5324H331.407L329.157 62.0586H327.379L325.126 55.5324H326.659ZM332.192 62.0586V55.5324H336.59V56.67H333.572V58.2251H336.363V59.3627H333.572V60.921H336.602V62.0586H332.192ZM343.304 57.4093C343.278 57.1523 343.169 56.9526 342.976 56.8102C342.782 56.6679 342.52 56.5967 342.189 56.5967C341.963 56.5967 341.773 56.6286 341.618 56.6923C341.463 56.7539 341.344 56.84 341.261 56.9504C341.181 57.0609 341.14 57.1862 341.14 57.3265C341.136 57.4433 341.16 57.5453 341.214 57.6324C341.269 57.7195 341.344 57.7949 341.44 57.8586C341.535 57.9202 341.646 57.9744 341.771 58.0211C341.897 58.0658 342.03 58.104 342.173 58.1359L342.759 58.2761C343.044 58.3398 343.305 58.4248 343.543 58.531C343.781 58.6372 343.987 58.7679 344.161 58.923C344.335 59.078 344.47 59.2607 344.566 59.4711C344.664 59.6814 344.713 59.9225 344.716 60.1944C344.713 60.5938 344.612 60.9401 344.41 61.2333C344.21 61.5243 343.921 61.7506 343.543 61.912C343.167 62.0713 342.713 62.151 342.182 62.151C341.655 62.151 341.197 62.0703 340.806 61.9088C340.417 61.7474 340.113 61.5084 339.894 61.1918C339.678 60.8732 339.564 60.4791 339.553 60.0096H340.888C340.903 60.2284 340.966 60.4111 341.076 60.5577C341.189 60.7022 341.339 60.8116 341.526 60.8859C341.715 60.9581 341.928 60.9943 342.166 60.9943C342.4 60.9943 342.603 60.9603 342.775 60.8923C342.949 60.8243 343.084 60.7298 343.18 60.6087C343.275 60.4876 343.323 60.3484 343.323 60.1912C343.323 60.0446 343.28 59.9214 343.192 59.8216C343.107 59.7217 342.982 59.6368 342.816 59.5667C342.653 59.4965 342.452 59.4328 342.214 59.3755L341.503 59.197C340.953 59.0632 340.519 58.8539 340.2 58.5692C339.881 58.2846 339.723 57.9011 339.725 57.4189C339.723 57.0237 339.828 56.6785 340.041 56.3832C340.255 56.0879 340.55 55.8574 340.924 55.6917C341.297 55.526 341.722 55.4432 342.198 55.4432C342.683 55.4432 343.105 55.526 343.466 55.6917C343.83 55.8574 344.112 56.0879 344.314 56.3832C344.516 56.6785 344.62 57.0205 344.626 57.4093H343.304ZM351.641 58.7955C351.641 59.5072 351.506 60.1126 351.236 60.6119C350.969 61.1111 350.603 61.4924 350.14 61.7559C349.679 62.0172 349.161 62.1478 348.585 62.1478C348.005 62.1478 347.485 62.0161 347.024 61.7527C346.563 61.4893 346.198 61.1079 345.931 60.6087C345.663 60.1094 345.529 59.505 345.529 58.7955C345.529 58.0838 345.663 57.4784 345.931 56.9791C346.198 56.4799 346.563 56.0996 347.024 55.8383C347.485 55.5749 348.005 55.4432 348.585 55.4432C349.161 55.4432 349.679 55.5749 350.14 55.8383C350.603 56.0996 350.969 56.4799 351.236 56.9791C351.506 57.4784 351.641 58.0838 351.641 58.7955ZM350.242 58.7955C350.242 58.3345 350.173 57.9457 350.035 57.6292C349.899 57.3126 349.707 57.0726 349.458 56.909C349.21 56.7454 348.918 56.6636 348.585 56.6636C348.251 56.6636 347.96 56.7454 347.712 56.909C347.463 57.0726 347.27 57.3126 347.132 57.6292C346.996 57.9457 346.928 58.3345 346.928 58.7955C346.928 59.2565 346.996 59.6453 347.132 59.9618C347.27 60.2783 347.463 60.5184 347.712 60.682C347.96 60.8456 348.251 60.9273 348.585 60.9273C348.918 60.9273 349.21 60.8456 349.458 60.682C349.707 60.5184 349.899 60.2783 350.035 59.9618C350.173 59.6453 350.242 59.2565 350.242 58.7955ZM352.663 62.0586V55.5324H354.043V60.921H356.841V62.0586H352.663ZM361.786 55.5324H363.165V59.7706C363.165 60.2465 363.052 60.6629 362.824 61.0198C362.599 61.3767 362.284 61.655 361.878 61.8546C361.472 62.0522 361 62.151 360.46 62.151C359.918 62.151 359.444 62.0522 359.039 61.8546C358.633 61.655 358.317 61.3767 358.092 61.0198C357.867 60.6629 357.754 60.2465 357.754 59.7706V55.5324H359.134V59.6527C359.134 59.9012 359.188 60.1222 359.297 60.3155C359.407 60.5088 359.562 60.6607 359.762 60.7712C359.962 60.8817 360.194 60.9369 360.46 60.9369C360.728 60.9369 360.96 60.8817 361.158 60.7712C361.357 60.6607 361.512 60.5088 361.62 60.3155C361.73 60.1222 361.786 59.9012 361.786 59.6527V55.5324ZM364.052 56.67V55.5324H369.412V56.67H367.414V62.0586H366.05V56.67H364.052ZM371.674 55.5324V62.0586H370.295V55.5324H371.674ZM378.807 58.7955C378.807 59.5072 378.672 60.1126 378.402 60.6119C378.135 61.1111 377.769 61.4924 377.306 61.7559C376.845 62.0172 376.327 62.1478 375.751 62.1478C375.171 62.1478 374.65 62.0161 374.189 61.7527C373.728 61.4893 373.364 61.1079 373.096 60.6087C372.829 60.1094 372.695 59.505 372.695 58.7955C372.695 58.0838 372.829 57.4784 373.096 56.9791C373.364 56.4799 373.728 56.0996 374.189 55.8383C374.65 55.5749 375.171 55.4432 375.751 55.4432C376.327 55.4432 376.845 55.5749 377.306 55.8383C377.769 56.0996 378.135 56.4799 378.402 56.9791C378.672 57.4784 378.807 58.0838 378.807 58.7955ZM377.408 58.7955C377.408 58.3345 377.339 57.9457 377.201 57.6292C377.065 57.3126 376.873 57.0726 376.624 56.909C376.376 56.7454 376.084 56.6636 375.751 56.6636C375.417 56.6636 375.126 56.7454 374.878 56.909C374.629 57.0726 374.436 57.3126 374.298 57.6292C374.162 57.9457 374.094 58.3345 374.094 58.7955C374.094 59.2565 374.162 59.6453 374.298 59.9618C374.436 60.2783 374.629 60.5184 374.878 60.682C375.126 60.8456 375.417 60.9273 375.751 60.9273C376.084 60.9273 376.376 60.8456 376.624 60.682C376.873 60.5184 377.065 60.2783 377.201 59.9618C377.339 59.6453 377.408 59.2565 377.408 58.7955ZM385.288 55.5324V62.0586H384.096L381.257 57.951H381.209V62.0586H379.829V55.5324H381.04L383.857 59.6368H383.914V55.5324H385.288ZM389.968 57.4093C389.943 57.1523 389.833 56.9526 389.64 56.8102C389.447 56.6679 389.184 56.5967 388.853 56.5967C388.628 56.5967 388.437 56.6286 388.282 56.6923C388.127 56.7539 388.008 56.84 387.925 56.9504C387.845 57.0609 387.804 57.1862 387.804 57.3265C387.8 57.4433 387.825 57.5453 387.878 57.6324C387.933 57.7195 388.008 57.7949 388.104 57.8586C388.199 57.9202 388.31 57.9744 388.435 58.0211C388.561 58.0658 388.694 58.104 388.837 58.1359L389.423 58.2761C389.708 58.3398 389.969 58.4248 390.207 58.531C390.445 58.6372 390.651 58.7679 390.825 58.923C390.999 59.078 391.134 59.2607 391.23 59.4711C391.328 59.6814 391.378 59.9225 391.38 60.1944C391.378 60.5938 391.276 60.9401 391.074 61.2333C390.874 61.5243 390.585 61.7506 390.207 61.912C389.831 62.0713 389.377 62.151 388.846 62.151C388.32 62.151 387.861 62.0703 387.47 61.9088C387.081 61.7474 386.777 61.5084 386.558 61.1918C386.342 60.8732 386.228 60.4791 386.217 60.0096H387.553C387.567 60.2284 387.63 60.4111 387.741 60.5577C387.853 60.7022 388.003 60.8116 388.19 60.8859C388.379 60.9581 388.592 60.9943 388.83 60.9943C389.064 60.9943 389.267 60.9603 389.439 60.8923C389.613 60.8243 389.748 60.7298 389.844 60.6087C389.939 60.4876 389.987 60.3484 389.987 60.1912C389.987 60.0446 389.944 59.9214 389.857 59.8216C389.772 59.7217 389.646 59.6368 389.48 59.5667C389.317 59.4965 389.116 59.4328 388.878 59.3755L388.168 59.197C387.617 59.0632 387.183 58.8539 386.864 58.5692C386.546 58.2846 386.387 57.9011 386.389 57.4189C386.387 57.0237 386.493 56.6785 386.705 56.3832C386.92 56.0879 387.214 55.8574 387.588 55.6917C387.962 55.526 388.386 55.4432 388.862 55.4432C389.347 55.4432 389.769 55.526 390.131 55.6917C390.494 55.8574 390.776 56.0879 390.978 56.3832C391.18 56.6785 391.284 57.0205 391.29 57.4093H389.968Z" fill="white"/>
<path d="M411.035 15.6914L411.035 66.2277" stroke="white" stroke-opacity="0.38" stroke-width="1.02269" stroke-linecap="round"/>
<g clip-path="url(#clip1_2008_158)">
<path d="M478.984 29.082C477.827 29.082 476.717 28.6223 475.899 27.804C475.081 26.9858 474.621 25.876 474.621 24.7187C474.621 23.5615 475.081 22.4517 475.899 21.6334C476.717 20.8152 477.827 20.3555 478.984 20.3555C480.142 20.3555 481.251 20.8152 482.07 21.6334C482.888 22.4517 483.348 23.5615 483.348 24.7187C483.348 25.876 482.888 26.9858 482.07 27.804C481.251 28.6223 480.142 29.082 478.984 29.082ZM478.984 22.1008C477.536 22.1008 476.366 23.2701 476.366 24.7187C476.366 26.1673 477.536 27.3367 478.984 27.3367C480.433 27.3367 481.602 26.1673 481.602 24.7187C481.602 23.2701 480.433 22.1008 478.984 22.1008Z" fill="white"/>
<path d="M489.456 36.0632C488.968 36.0632 488.584 35.6793 488.584 35.1906C488.584 34.7019 488.968 34.3179 489.456 34.3179C489.945 34.3179 490.329 33.934 490.329 33.4453C490.329 32.2881 489.869 31.1783 489.051 30.36C488.233 29.5417 487.123 29.082 485.966 29.082H484.22C483.732 29.082 483.348 28.698 483.348 28.2094C483.348 27.7207 483.732 27.3367 484.22 27.3367C485.669 27.3367 486.838 26.1673 486.838 24.7187C486.838 23.2701 485.669 22.1008 484.22 22.1008C483.732 22.1008 483.348 21.7168 483.348 21.2281C483.348 20.7394 483.732 20.3555 484.22 20.3555C485.377 20.3555 486.487 20.8152 487.306 21.6334C488.124 22.4517 488.584 23.5615 488.584 24.7187C488.584 25.8008 488.2 26.7782 487.536 27.5461C490.137 28.2443 492.074 30.6179 492.074 33.4453C492.074 34.8939 490.905 36.0632 489.456 36.0632ZM468.512 36.0632C467.064 36.0632 465.895 34.8939 465.895 33.4453C465.895 30.6179 467.814 28.2443 470.432 27.5461C469.787 26.7782 469.385 25.8008 469.385 24.7187C469.385 23.5615 469.845 22.4517 470.663 21.6334C471.481 20.8152 472.591 20.3555 473.748 20.3555C474.237 20.3555 474.621 20.7394 474.621 21.2281C474.621 21.7168 474.237 22.1008 473.748 22.1008C472.3 22.1008 471.13 23.2701 471.13 24.7187C471.13 26.1673 472.3 27.3367 473.748 27.3367C474.237 27.3367 474.621 27.7207 474.621 28.2094C474.621 28.698 474.237 29.082 473.748 29.082H472.003C470.846 29.082 469.736 29.5417 468.918 30.36C468.1 31.1783 467.64 32.2881 467.64 33.4453C467.64 33.934 468.024 34.3179 468.512 34.3179C469.001 34.3179 469.385 34.7019 469.385 35.1906C469.385 35.6793 469.001 36.0632 468.512 36.0632ZM484.22 41.2992H473.748C472.3 41.2992 471.13 40.1298 471.13 38.6812V36.9359C471.13 33.5675 473.871 30.8273 477.239 30.8273H480.73C484.098 30.8273 486.838 33.5675 486.838 36.9359V38.6812C486.838 40.1298 485.669 41.2992 484.22 41.2992ZM477.239 32.5726C476.082 32.5726 474.972 33.0323 474.154 33.8506C473.335 34.6689 472.876 35.7787 472.876 36.9359V38.6812C472.876 39.1699 473.26 39.5539 473.748 39.5539H484.22C484.709 39.5539 485.093 39.1699 485.093 38.6812V36.9359C485.093 35.7787 484.633 34.6689 483.815 33.8506C482.997 33.0323 481.887 32.5726 480.73 32.5726H477.239Z" fill="white"/>
</g>
<path d="M434.808 57.8172H433.412C433.387 57.6366 433.335 57.4762 433.256 57.336C433.177 57.1937 433.076 57.0726 432.953 56.9727C432.83 56.8729 432.688 56.7964 432.526 56.7433C432.367 56.6902 432.194 56.6636 432.007 56.6636C431.669 56.6636 431.375 56.7476 431.124 56.9154C430.873 57.0811 430.679 57.3233 430.541 57.6419C430.403 57.9585 430.334 58.343 430.334 58.7955C430.334 59.2607 430.403 59.6516 430.541 59.9682C430.681 60.2847 430.877 60.5237 431.127 60.6852C431.378 60.8466 431.668 60.9273 431.997 60.9273C432.182 60.9273 432.353 60.9029 432.51 60.8541C432.67 60.8052 432.811 60.734 432.934 60.6405C433.057 60.5449 433.159 60.4292 433.24 60.2932C433.323 60.1572 433.38 60.0022 433.412 59.828L434.808 59.8343C434.772 60.1339 434.681 60.4228 434.537 60.7011C434.395 60.9773 434.202 61.2248 433.96 61.4436C433.72 61.6603 433.433 61.8323 433.1 61.9598C432.768 62.0851 432.393 62.1478 431.975 62.1478C431.393 62.1478 430.872 62.0161 430.414 61.7527C429.957 61.4893 429.596 61.1079 429.33 60.6087C429.067 60.1094 428.935 59.505 428.935 58.7955C428.935 58.0838 429.069 57.4784 429.336 56.9791C429.604 56.4799 429.967 56.0996 430.426 55.8383C430.885 55.5749 431.401 55.4432 431.975 55.4432C432.353 55.4432 432.704 55.4963 433.027 55.6025C433.352 55.7087 433.639 55.8638 433.89 56.0677C434.141 56.2696 434.345 56.5171 434.502 56.8102C434.661 57.1034 434.763 57.4391 434.808 57.8172ZM435.797 62.0586V55.5324H437.177V60.921H439.975V62.0586H435.797ZM442.269 55.5324V62.0586H440.889V55.5324H442.269ZM443.404 62.0586V55.5324H447.801V56.67H444.784V58.2251H447.575V59.3627H444.784V60.921H447.814V62.0586H443.404ZM454.357 55.5324V62.0586H453.165L450.326 57.951H450.278V62.0586H448.898V55.5324H450.109L452.926 59.6368H452.984V55.5324H454.357ZM455.248 56.67V55.5324H460.608V56.67H458.61V62.0586H457.246V56.67H455.248ZM467.108 57.4093C467.083 57.1523 466.973 56.9526 466.78 56.8102C466.587 56.6679 466.324 56.5967 465.993 56.5967C465.768 56.5967 465.578 56.6286 465.423 56.6923C465.267 56.7539 465.149 56.84 465.066 56.9504C464.985 57.0609 464.945 57.1862 464.945 57.3265C464.94 57.4433 464.965 57.5453 465.018 57.6324C465.073 57.7195 465.149 57.7949 465.244 57.8586C465.34 57.9202 465.45 57.9744 465.576 58.0211C465.701 58.0658 465.835 58.104 465.977 58.1359L466.563 58.2761C466.848 58.3398 467.109 58.4248 467.347 58.531C467.585 58.6372 467.791 58.7679 467.965 58.923C468.14 59.078 468.275 59.2607 468.37 59.4711C468.468 59.6814 468.518 59.9225 468.52 60.1944C468.518 60.5938 468.416 60.9401 468.214 61.2333C468.014 61.5243 467.725 61.7506 467.347 61.912C466.971 62.0713 466.518 62.151 465.987 62.151C465.46 62.151 465.001 62.0703 464.61 61.9088C464.221 61.7474 463.917 61.5084 463.699 61.1918C463.482 60.8732 463.368 60.4791 463.358 60.0096H464.693C464.708 60.2284 464.77 60.4111 464.881 60.5577C464.993 60.7022 465.143 60.8116 465.33 60.8859C465.519 60.9581 465.733 60.9943 465.971 60.9943C466.204 60.9943 466.407 60.9603 466.579 60.8923C466.754 60.8243 466.888 60.7298 466.984 60.6087C467.08 60.4876 467.127 60.3484 467.127 60.1912C467.127 60.0446 467.084 59.9214 466.997 59.8216C466.912 59.7217 466.786 59.6368 466.621 59.5667C466.457 59.4965 466.256 59.4328 466.018 59.3755L465.308 59.197C464.758 59.0632 464.323 58.8539 464.005 58.5692C463.686 58.2846 463.528 57.9011 463.53 57.4189C463.528 57.0237 463.633 56.6785 463.845 56.3832C464.06 56.0879 464.354 55.8574 464.728 55.6917C465.102 55.526 465.527 55.4432 466.003 55.4432C466.487 55.4432 466.91 55.526 467.271 55.6917C467.634 55.8574 467.917 56.0879 468.118 56.3832C468.32 56.6785 468.424 57.0205 468.431 57.4093H467.108ZM470.424 62.0586H468.945L471.198 55.5324H472.976L475.226 62.0586H473.748L472.113 57.0237H472.062L470.424 62.0586ZM470.332 59.4934H473.824V60.5704H470.332V59.4934ZM474.966 56.67V55.5324H480.326V56.67H478.328V62.0586H476.964V56.67H474.966ZM482.588 55.5324V62.0586H481.208V55.5324H482.588ZM487.264 57.4093C487.238 57.1523 487.129 56.9526 486.935 56.8102C486.742 56.6679 486.48 56.5967 486.148 56.5967C485.923 56.5967 485.733 56.6286 485.578 56.6923C485.423 56.7539 485.304 56.84 485.221 56.9504C485.14 57.0609 485.1 57.1862 485.1 57.3265C485.096 57.4433 485.12 57.5453 485.173 57.6324C485.228 57.7195 485.304 57.7949 485.399 57.8586C485.495 57.9202 485.606 57.9744 485.731 58.0211C485.856 58.0658 485.99 58.104 486.132 58.1359L486.719 58.2761C487.003 58.3398 487.265 58.4248 487.503 58.531C487.741 58.6372 487.947 58.7679 488.121 58.923C488.295 59.078 488.43 59.2607 488.526 59.4711C488.623 59.6814 488.673 59.9225 488.675 60.1944C488.673 60.5938 488.571 60.9401 488.369 61.2333C488.17 61.5243 487.881 61.7506 487.503 61.912C487.127 62.0713 486.673 62.151 486.142 62.151C485.615 62.151 485.156 62.0703 484.765 61.9088C484.377 61.7474 484.073 61.5084 483.854 61.1918C483.637 60.8732 483.524 60.4791 483.513 60.0096H484.848C484.863 60.2284 484.926 60.4111 485.036 60.5577C485.149 60.7022 485.299 60.8116 485.486 60.8859C485.675 60.9581 485.888 60.9943 486.126 60.9943C486.36 60.9943 486.563 60.9603 486.735 60.8923C486.909 60.8243 487.044 60.7298 487.139 60.6087C487.235 60.4876 487.283 60.3484 487.283 60.1912C487.283 60.0446 487.239 59.9214 487.152 59.8216C487.067 59.7217 486.942 59.6368 486.776 59.5667C486.613 59.4965 486.412 59.4328 486.174 59.3755L485.463 59.197C484.913 59.0632 484.479 58.8539 484.16 58.5692C483.841 58.2846 483.683 57.9011 483.685 57.4189C483.683 57.0237 483.788 56.6785 484.001 56.3832C484.215 56.0879 484.509 55.8574 484.883 55.6917C485.257 55.526 485.682 55.4432 486.158 55.4432C486.642 55.4432 487.065 55.526 487.426 55.6917C487.789 55.8574 488.072 56.0879 488.274 56.3832C488.476 56.6785 488.58 57.0205 488.586 57.4093H487.264ZM489.603 62.0586V55.5324H493.925V56.67H490.983V58.2251H493.638V59.3627H490.983V62.0586H489.603ZM495.163 62.0586H493.684L495.937 55.5324H497.715L499.965 62.0586H498.486L496.851 57.0237H496.8L495.163 62.0586ZM495.07 59.4934H498.563V60.5704H495.07V59.4934ZM506.202 57.8172H504.806C504.781 57.6366 504.728 57.4762 504.65 57.336C504.571 57.1937 504.47 57.0726 504.347 56.9727C504.224 56.8729 504.082 56.7964 503.92 56.7433C503.761 56.6902 503.588 56.6636 503.401 56.6636C503.063 56.6636 502.769 56.7476 502.518 56.9154C502.267 57.0811 502.073 57.3233 501.935 57.6419C501.797 57.9585 501.728 58.343 501.728 58.7955C501.728 59.2607 501.797 59.6516 501.935 59.9682C502.075 60.2847 502.271 60.5237 502.521 60.6852C502.772 60.8466 503.062 60.9273 503.391 60.9273C503.576 60.9273 503.747 60.9029 503.904 60.8541C504.064 60.8052 504.205 60.734 504.328 60.6405C504.451 60.5449 504.553 60.4292 504.634 60.2932C504.717 60.1572 504.774 60.0022 504.806 59.828L506.202 59.8343C506.166 60.1339 506.075 60.4228 505.931 60.7011C505.789 60.9773 505.596 61.2248 505.354 61.4436C505.114 61.6603 504.827 61.8323 504.494 61.9598C504.162 62.0851 503.787 62.1478 503.369 62.1478C502.787 62.1478 502.266 62.0161 501.807 61.7527C501.351 61.4893 500.99 61.1079 500.724 60.6087C500.461 60.1094 500.329 59.505 500.329 58.7955C500.329 58.0838 500.463 57.4784 500.73 56.9791C500.998 56.4799 501.361 56.0996 501.82 55.8383C502.279 55.5749 502.795 55.4432 503.369 55.4432C503.747 55.4432 504.098 55.4963 504.42 55.6025C504.745 55.7087 505.033 55.8638 505.284 56.0677C505.535 56.2696 505.739 56.5171 505.896 56.8102C506.055 57.1034 506.157 57.4391 506.202 57.8172ZM506.943 56.67V55.5324H512.303V56.67H510.305V62.0586H508.941V56.67H506.943ZM514.565 55.5324V62.0586H513.185V55.5324H514.565ZM521.698 58.7955C521.698 59.5072 521.563 60.1126 521.293 60.6119C521.025 61.1111 520.66 61.4924 520.197 61.7559C519.736 62.0172 519.217 62.1478 518.642 62.1478C518.062 62.1478 517.541 62.0161 517.08 61.7527C516.619 61.4893 516.255 61.1079 515.987 60.6087C515.719 60.1094 515.586 59.505 515.586 58.7955C515.586 58.0838 515.719 57.4784 515.987 56.9791C516.255 56.4799 516.619 56.0996 517.08 55.8383C517.541 55.5749 518.062 55.4432 518.642 55.4432C519.217 55.4432 519.736 55.5749 520.197 55.8383C520.66 56.0996 521.025 56.4799 521.293 56.9791C521.563 57.4784 521.698 58.0838 521.698 58.7955ZM520.299 58.7955C520.299 58.3345 520.23 57.9457 520.091 57.6292C519.956 57.3126 519.763 57.0726 519.515 56.909C519.266 56.7454 518.975 56.6636 518.642 56.6636C518.308 56.6636 518.017 56.7454 517.768 56.909C517.52 57.0726 517.327 57.3126 517.188 57.6292C517.052 57.9457 516.985 58.3345 516.985 58.7955C516.985 59.2565 517.052 59.6453 517.188 59.9618C517.327 60.2783 517.52 60.5184 517.768 60.682C518.017 60.8456 518.308 60.9273 518.642 60.9273C518.975 60.9273 519.266 60.8456 519.515 60.682C519.763 60.5184 519.956 60.2783 520.091 59.9618C520.23 59.6453 520.299 59.2565 520.299 58.7955ZM528.178 55.5324V62.0586H526.987L524.147 57.951H524.099V62.0586H522.72V55.5324H523.931L526.748 59.6368H526.805V55.5324H528.178Z" fill="white"/>
<defs>
<clipPath id="clip0_2008_158">
<rect width="27.9249" height="27.9249" fill="white" transform="translate(45.7168 16.8633)"/>
</clipPath>
<clipPath id="clip1_2008_158">
<rect width="26.1796" height="27.9249" fill="white" transform="translate(465.895 16.8633)"/>
</clipPath>
</defs>
</svg>
