<svg width="72" height="221" viewBox="0 0 72 221" fill="none" xmlns="http://www.w3.org/2000/svg">
<g filter="url(#filter0_d_1980_381)">
<rect x="3.0957" y="1.54688" width="64.9996" height="64.2262" rx="32.1131" fill="#FEFFFF" shape-rendering="crispEdges"/>
<rect x="3.48261" y="1.93378" width="64.2258" height="63.4524" rx="31.7262" stroke="#828282" stroke-width="0.773809" shape-rendering="crispEdges"/>
<path d="M42.5602 10.9922V12.5398C42.5602 19.9893 38.4025 23.3731 33.2745 23.3731H31.8027C31.9668 21.0424 32.6926 19.6318 34.5869 17.9557C35.5185 17.1316 35.4396 16.6557 34.9807 16.9289C31.8205 18.8092 30.2504 21.3504 30.1808 25.4083L30.1785 25.6946H28.6309C28.6309 24.6399 28.7206 23.6827 28.8986 22.8067C28.7211 21.8054 28.6321 20.4466 28.6316 18.7303C28.6316 14.4565 32.096 10.9922 36.3697 10.9922C37.9173 10.9922 39.465 11.766 42.5602 10.9922Z" fill="#4E4E4E"/>
<path d="M25.3967 44.9766V37.6708H28.3219C28.8593 37.6708 29.3076 37.7504 29.6667 37.9098C30.0258 38.0691 30.2958 38.2903 30.4765 38.5733C30.6572 38.8539 30.7476 39.1774 30.7476 39.5436C30.7476 39.829 30.6905 40.0799 30.5764 40.2963C30.4622 40.5103 30.3053 40.6863 30.1055 40.8243C29.9081 40.9598 29.6822 41.0561 29.4277 41.1132V41.1845C29.706 41.1964 29.9664 41.2749 30.209 41.42C30.4539 41.5651 30.6525 41.7684 30.8047 42.03C30.9569 42.2892 31.033 42.5984 31.033 42.9575C31.033 43.3451 30.9367 43.6912 30.744 43.9956C30.5538 44.2976 30.272 44.5366 29.8986 44.7126C29.5252 44.8886 29.065 44.9766 28.5181 44.9766H25.3967ZM26.9413 43.7137H28.2006C28.631 43.7137 28.9449 43.6317 29.1423 43.4676C29.3397 43.3011 29.4384 43.08 29.4384 42.8041C29.4384 42.6019 29.3897 42.4236 29.2922 42.269C29.1947 42.1144 29.0555 41.9931 28.8748 41.9051C28.6964 41.8171 28.4836 41.7731 28.2362 41.7731H26.9413V43.7137ZM26.9413 40.7279H28.0864C28.2981 40.7279 28.486 40.6911 28.6501 40.6173C28.8165 40.5412 28.9473 40.4342 29.0425 40.2963C29.14 40.1584 29.1887 39.9931 29.1887 39.8004C29.1887 39.5365 29.0948 39.3236 28.9069 39.1619C28.7214 39.0002 28.4574 38.9193 28.115 38.9193H26.9413V40.7279ZM32.0381 44.9766V37.6708H34.9204C35.4746 37.6708 35.9466 37.7766 36.3366 37.9883C36.7267 38.1975 37.0239 38.4889 37.2285 38.8622C37.4354 39.2332 37.5388 39.6613 37.5388 40.1465C37.5388 40.6316 37.4342 41.0597 37.2249 41.4307C37.0156 41.8017 36.7124 42.0906 36.3152 42.2975C35.9205 42.5044 35.4424 42.6079 34.8812 42.6079H33.044V41.37H34.6315C34.9288 41.37 35.1737 41.3189 35.3663 41.2167C35.5614 41.112 35.7064 40.9681 35.8016 40.785C35.8991 40.5995 35.9478 40.3867 35.9478 40.1465C35.9478 39.9039 35.8991 39.6922 35.8016 39.5115C35.7064 39.3284 35.5614 39.1869 35.3663 39.087C35.1713 38.9847 34.924 38.9336 34.6243 38.9336H33.5827V44.9766H32.0381ZM38.9577 44.9766H37.3025L39.8245 37.6708H41.8151L44.3336 44.9766H42.6784L40.8484 39.3403H40.7913L38.9577 44.9766ZM38.8542 42.1049H42.764V43.3106H38.8542V42.1049Z" fill="black"/>
<path d="M25.499 56.6523V50.5642H29.1495V51.2182H26.2362V53.2753H28.876V53.9293H26.2362V56.6523H25.499ZM30.268 56.6523V52.0862H30.9457V52.7759H30.9933C31.0765 52.55 31.2272 52.3667 31.4452 52.2259C31.6632 52.0852 31.9089 52.0149 32.1824 52.0149C32.2339 52.0149 32.2983 52.0159 32.3756 52.0179C32.4529 52.0198 32.5114 52.0228 32.551 52.0268V52.7402C32.5272 52.7343 32.4727 52.7254 32.3875 52.7135C32.3043 52.6996 32.2161 52.6927 32.1229 52.6927C31.901 52.6927 31.7028 52.7392 31.5284 52.8324C31.356 52.9235 31.2192 53.0504 31.1182 53.2129C31.0191 53.3734 30.9695 53.5567 30.9695 53.7628V56.6523H30.268ZM35.1581 56.7475C34.7181 56.7475 34.3386 56.6504 34.0195 56.4561C33.7025 56.2599 33.4577 55.9865 33.2853 55.6357C33.1148 55.2829 33.0296 54.8727 33.0296 54.405C33.0296 53.9372 33.1148 53.525 33.2853 53.1683C33.4577 52.8096 33.6975 52.5302 34.0047 52.33C34.3138 52.1278 34.6745 52.0268 35.0868 52.0268C35.3246 52.0268 35.5594 52.0664 35.7913 52.1457C36.0232 52.225 36.2342 52.3538 36.4245 52.5321C36.6147 52.7085 36.7664 52.9424 36.8793 53.2337C36.9923 53.525 37.0488 53.8837 37.0488 54.3098V54.6071H33.529V54.0007H36.3353C36.3353 53.743 36.2838 53.5131 36.1807 53.311C36.0796 53.1088 35.935 52.9493 35.7467 52.8324C35.5604 52.7155 35.3404 52.657 35.0868 52.657C34.8073 52.657 34.5655 52.7264 34.3614 52.8651C34.1593 53.0018 34.0037 53.1802 33.8947 53.4002C33.7857 53.6202 33.7312 53.856 33.7312 54.1077V54.512C33.7312 54.8568 33.7906 55.1491 33.9096 55.3889C34.0304 55.6268 34.1979 55.8081 34.4119 55.9329C34.626 56.0558 34.8747 56.1173 35.1581 56.1173C35.3424 56.1173 35.5089 56.0915 35.6575 56.04C35.8081 55.9865 35.9379 55.9072 36.0469 55.8021C36.1559 55.6951 36.2402 55.5623 36.2996 55.4038L36.9774 55.5941C36.9061 55.8239 36.7862 56.0261 36.6177 56.2005C36.4493 56.3729 36.2412 56.5077 35.9934 56.6048C35.7457 56.6999 35.4673 56.7475 35.1581 56.7475ZM40.0304 56.7475C39.5904 56.7475 39.2109 56.6504 38.8919 56.4561C38.5748 56.2599 38.33 55.9865 38.1576 55.6357C37.9872 55.2829 37.9019 54.8727 37.9019 54.405C37.9019 53.9372 37.9872 53.525 38.1576 53.1683C38.33 52.8096 38.5698 52.5302 38.877 52.33C39.1862 52.1278 39.5468 52.0268 39.9591 52.0268C40.1969 52.0268 40.4317 52.0664 40.6636 52.1457C40.8955 52.225 41.1065 52.3538 41.2968 52.5321C41.487 52.7085 41.6387 52.9424 41.7516 53.2337C41.8646 53.525 41.9211 53.8837 41.9211 54.3098V54.6071H38.4014V54.0007H41.2076C41.2076 53.743 41.1561 53.5131 41.053 53.311C40.952 53.1088 40.8073 52.9493 40.619 52.8324C40.4327 52.7155 40.2127 52.657 39.9591 52.657C39.6796 52.657 39.4378 52.7264 39.2337 52.8651C39.0316 53.0018 38.876 53.1802 38.767 53.4002C38.658 53.6202 38.6035 53.856 38.6035 54.1077V54.512C38.6035 54.8568 38.663 55.1491 38.7819 55.3889C38.9028 55.6268 39.0702 55.8081 39.2843 55.9329C39.4983 56.0558 39.747 56.1173 40.0304 56.1173C40.2147 56.1173 40.3812 56.0915 40.5298 56.04C40.6804 55.9865 40.8103 55.9072 40.9193 55.8021C41.0283 55.6951 41.1125 55.5623 41.1719 55.4038L41.8497 55.5941C41.7784 55.8239 41.6585 56.0261 41.49 56.2005C41.3216 56.3729 41.1135 56.5077 40.8657 56.6048C40.618 56.6999 40.3396 56.7475 40.0304 56.7475Z" fill="black"/>
</g>
<g filter="url(#filter1_d_1980_381)">
<rect x="3.0957" y="76.7734" width="64.9996" height="64.2262" rx="32.1131" fill="#FEFFFF" shape-rendering="crispEdges"/>
<rect x="3.48261" y="77.1603" width="64.2258" height="63.4524" rx="31.7262" stroke="#828282" stroke-width="0.773809" shape-rendering="crispEdges"/>
<g clip-path="url(#clip0_1980_381)">
<path d="M43.3336 88.1068L35.5955 85.3984L27.8574 88.1068V94.3437C27.8574 97.5372 29.8183 99.7696 31.646 101.156C32.7495 101.984 33.9599 102.659 35.2442 103.164C35.3319 103.197 35.4201 103.228 35.5089 103.258L35.5955 103.289L35.6837 103.258C35.8529 103.199 36.0206 103.136 36.1867 103.069C37.3828 102.576 38.5113 101.933 39.545 101.156C41.3736 99.7696 43.3336 97.5372 43.3336 94.3437V88.1068ZM34.8225 96.9862L31.5408 93.703L32.6349 92.608L34.8233 94.7971L39.2007 90.4197L40.2956 91.5139L34.8225 96.9862Z" fill="#4E4E4E"/>
</g>
<path d="M25.3967 119.043V111.737H26.9413V117.769H30.0734V119.043H25.3967ZM33.5649 119.15C33.0012 119.15 32.5161 119.036 32.1094 118.808C31.7051 118.577 31.3936 118.251 31.1748 117.83C30.956 117.407 30.8466 116.906 30.8466 116.328C30.8466 115.765 30.956 115.27 31.1748 114.844C31.3936 114.419 31.7016 114.087 32.0987 113.849C32.4983 113.611 32.9668 113.492 33.5042 113.492C33.8657 113.492 34.2022 113.551 34.5138 113.667C34.8277 113.781 35.1012 113.954 35.3342 114.184C35.5697 114.415 35.7528 114.705 35.8836 115.055C36.0144 115.402 36.0798 115.809 36.0798 116.275V116.692H31.453V115.75H34.6493C34.6493 115.532 34.6018 115.338 34.5066 115.169C34.4115 115 34.2795 114.868 34.1107 114.773C33.9442 114.675 33.7504 114.627 33.5292 114.627C33.2985 114.627 33.094 114.68 32.9156 114.787C32.7396 114.892 32.6017 115.033 32.5018 115.212C32.4019 115.388 32.3508 115.584 32.3484 115.8V116.696C32.3484 116.967 32.3984 117.201 32.4983 117.398C32.6005 117.596 32.7444 117.748 32.9299 117.855C33.1154 117.962 33.3354 118.016 33.5898 118.016C33.7587 118.016 33.9133 117.992 34.0536 117.944C34.1939 117.897 34.314 117.825 34.4139 117.73C34.5138 117.635 34.5899 117.519 34.6422 117.381L36.0477 117.473C35.9763 117.811 35.8301 118.106 35.6089 118.358C35.3901 118.608 35.1071 118.803 34.7599 118.943C34.4151 119.081 34.0167 119.15 33.5649 119.15ZM38.634 119.146C38.2844 119.146 37.9728 119.086 37.6993 118.964C37.4259 118.841 37.2094 118.659 37.0501 118.419C36.8931 118.176 36.8147 117.874 36.8147 117.513C36.8147 117.208 36.8705 116.953 36.9823 116.746C37.0941 116.539 37.2463 116.372 37.4389 116.246C37.6316 116.12 37.8504 116.025 38.0953 115.961C38.3426 115.897 38.6019 115.851 38.873 115.825C39.1917 115.792 39.4485 115.761 39.6435 115.733C39.8385 115.702 39.98 115.656 40.068 115.597C40.156 115.538 40.2 115.45 40.2 115.333V115.312C40.2 115.086 40.1287 114.911 39.986 114.787C39.8457 114.664 39.6459 114.602 39.3867 114.602C39.1132 114.602 38.8956 114.662 38.7339 114.784C38.5721 114.903 38.4651 115.052 38.4128 115.233L37.0073 115.119C37.0786 114.786 37.2189 114.498 37.4282 114.256C37.6375 114.011 37.9074 113.823 38.238 113.692C38.5709 113.559 38.9562 113.492 39.3938 113.492C39.6982 113.492 39.9895 113.528 40.2678 113.599C40.5484 113.671 40.7969 113.781 41.0133 113.931C41.2321 114.081 41.4046 114.274 41.5306 114.509C41.6566 114.742 41.7197 115.021 41.7197 115.347V119.043H40.2785V118.283H40.2357C40.1477 118.454 40.03 118.605 39.8825 118.736C39.7351 118.865 39.5579 118.966 39.351 119.039C39.1441 119.111 38.9051 119.146 38.634 119.146ZM39.0692 118.098C39.2927 118.098 39.4901 118.054 39.6613 117.966C39.8326 117.875 39.9669 117.754 40.0644 117.602C40.162 117.45 40.2107 117.277 40.2107 117.085V116.503C40.1631 116.534 40.0977 116.563 40.0145 116.589C39.9336 116.612 39.8421 116.635 39.7398 116.656C39.6376 116.675 39.5353 116.693 39.433 116.71C39.3308 116.724 39.238 116.737 39.1548 116.749C38.9764 116.775 38.8207 116.817 38.6875 116.874C38.5543 116.931 38.4508 117.008 38.3771 117.106C38.3034 117.201 38.2665 117.32 38.2665 117.463C38.2665 117.67 38.3415 117.828 38.4913 117.937C38.6435 118.044 38.8361 118.098 39.0692 118.098ZM44.2756 117.466L44.2792 115.643H44.5004L46.2555 113.564H47.9999L45.6419 116.318H45.2816L44.2756 117.466ZM42.8986 119.043V111.737H44.4183V119.043H42.8986ZM46.3232 119.043L44.7108 116.656L45.7239 115.583L48.1033 119.043H46.3232Z" fill="black"/>
<path d="M25.499 130.719V124.631H27.5561C28.0337 124.631 28.4241 124.717 28.7273 124.889C29.0325 125.06 29.2585 125.291 29.4051 125.582C29.5518 125.873 29.6251 126.198 29.6251 126.557C29.6251 126.916 29.5518 127.242 29.4051 127.535C29.2605 127.828 29.0365 128.062 28.7333 128.237C28.4301 128.409 28.0416 128.495 27.568 128.495H26.0935V127.841H27.5442C27.8712 127.841 28.1338 127.785 28.332 127.672C28.5302 127.559 28.6738 127.406 28.763 127.214C28.8542 127.02 28.8998 126.801 28.8998 126.557C28.8998 126.313 28.8542 126.095 28.763 125.903C28.6738 125.711 28.5292 125.56 28.329 125.451C28.1288 125.34 27.8633 125.285 27.5323 125.285H26.2362V130.719H25.499ZM30.7176 130.719V126.153H31.3954V126.842H31.4429C31.5262 126.616 31.6768 126.433 31.8948 126.292C32.1128 126.152 32.3585 126.081 32.632 126.081C32.6836 126.081 32.748 126.082 32.8253 126.084C32.9025 126.086 32.961 126.089 33.0006 126.093V126.807C32.9769 126.801 32.9224 126.792 32.8371 126.78C32.7539 126.766 32.6657 126.759 32.5726 126.759C32.3506 126.759 32.1524 126.806 31.978 126.899C31.8056 126.99 31.6689 127.117 31.5678 127.279C31.4687 127.44 31.4192 127.623 31.4192 127.829V130.719H30.7176ZM35.5483 130.814C35.1361 130.814 34.7744 130.716 34.4632 130.52C34.1541 130.323 33.9123 130.049 33.7379 129.696C33.5655 129.343 33.4793 128.931 33.4793 128.459C33.4793 127.984 33.5655 127.569 33.7379 127.214C33.9123 126.859 34.1541 126.584 34.4632 126.387C34.7744 126.191 35.1361 126.093 35.5483 126.093C35.9605 126.093 36.3212 126.191 36.6303 126.387C36.9415 126.584 37.1833 126.859 37.3557 127.214C37.5301 127.569 37.6173 127.984 37.6173 128.459C37.6173 128.931 37.5301 129.343 37.3557 129.696C37.1833 130.049 36.9415 130.323 36.6303 130.52C36.3212 130.716 35.9605 130.814 35.5483 130.814ZM35.5483 130.184C35.8614 130.184 36.119 130.103 36.3212 129.943C36.5233 129.782 36.673 129.571 36.7701 129.31C36.8672 129.048 36.9157 128.765 36.9157 128.459C36.9157 128.154 36.8672 127.87 36.7701 127.606C36.673 127.343 36.5233 127.13 36.3212 126.967C36.119 126.805 35.8614 126.723 35.5483 126.723C35.2351 126.723 34.9775 126.805 34.7754 126.967C34.5732 127.13 34.4236 127.343 34.3265 127.606C34.2294 127.87 34.1808 128.154 34.1808 128.459C34.1808 128.765 34.2294 129.048 34.3265 129.31C34.4236 129.571 34.5732 129.782 34.7754 129.943C34.9775 130.103 35.2351 130.184 35.5483 130.184ZM40.5432 130.814C40.131 130.814 39.7693 130.716 39.4582 130.52C39.149 130.323 38.9072 130.049 38.7328 129.696C38.5604 129.343 38.4742 128.931 38.4742 128.459C38.4742 127.984 38.5604 127.569 38.7328 127.214C38.9072 126.859 39.149 126.584 39.4582 126.387C39.7693 126.191 40.131 126.093 40.5432 126.093C40.9554 126.093 41.3161 126.191 41.6253 126.387C41.9364 126.584 42.1782 126.859 42.3506 127.214C42.525 127.569 42.6122 127.984 42.6122 128.459C42.6122 128.931 42.525 129.343 42.3506 129.696C42.1782 130.049 41.9364 130.323 41.6253 130.52C41.3161 130.716 40.9554 130.814 40.5432 130.814ZM40.5432 130.184C40.8563 130.184 41.114 130.103 41.3161 129.943C41.5183 129.782 41.6679 129.571 41.765 129.31C41.8621 129.048 41.9107 128.765 41.9107 128.459C41.9107 128.154 41.8621 127.87 41.765 127.606C41.6679 127.343 41.5183 127.13 41.3161 126.967C41.114 126.805 40.8563 126.723 40.5432 126.723C40.2301 126.723 39.9724 126.805 39.7703 126.967C39.5681 127.13 39.4185 127.343 39.3214 127.606C39.2243 127.87 39.1757 128.154 39.1757 128.459C39.1757 128.765 39.2243 129.048 39.3214 129.31C39.4185 129.571 39.5681 129.782 39.7703 129.943C39.9724 130.103 40.2301 130.184 40.5432 130.184ZM45.7165 126.153V126.747H43.2551V126.153H45.7165ZM43.9923 130.719V125.522C43.9923 125.261 44.0538 125.043 44.1766 124.868C44.2995 124.694 44.459 124.563 44.6552 124.476C44.8514 124.389 45.0585 124.345 45.2765 124.345C45.449 124.345 45.5897 124.359 45.6987 124.387C45.8077 124.415 45.8889 124.44 45.9424 124.464L45.7403 125.071C45.7046 125.059 45.6551 125.044 45.5916 125.026C45.5302 125.008 45.449 124.999 45.3479 124.999C45.116 124.999 44.9485 125.058 44.8455 125.175C44.7444 125.292 44.6939 125.463 44.6939 125.689V130.719H43.9923Z" fill="black"/>
</g>
<g filter="url(#filter2_d_1980_381)">
<rect x="3.0957" y="152" width="64.9996" height="64.2262" rx="32.1131" fill="#FEFFFF" shape-rendering="crispEdges"/>
<rect x="3.48261" y="152.387" width="64.2258" height="63.4524" rx="31.7262" stroke="#828282" stroke-width="0.773809" shape-rendering="crispEdges"/>
<path d="M43.1956 174.385L41.2611 177.735C40.8819 178.401 40.1778 178.749 39.4658 178.702H37.9182V180.25L35.9837 176.768L37.9182 173.286V174.833H40.1004L38.3825 171.854L41.7331 169.92L43.126 172.334C43.5283 172.93 43.5825 173.727 43.1956 174.385ZM33.4379 164.82H37.3069C38.0653 164.82 38.723 165.261 39.0403 165.896L39.8141 167.242L41.1528 166.469L39.1099 169.881L35.1248 169.951L36.4635 169.177L35.3724 167.281L33.6623 170.26L30.3039 168.326L31.6968 165.911C32.0141 165.269 32.6718 164.82 33.4379 164.82ZM30.2188 177.743L28.2843 174.392C27.9051 173.735 27.9593 172.945 28.3539 172.349L29.1278 171.011L27.7891 170.237L31.7664 170.299L33.817 173.719L32.4783 172.945L31.3873 174.833H34.823V178.702H32.0373C31.6748 178.729 31.3121 178.653 30.9907 178.483C30.6692 178.313 30.4018 178.057 30.2188 177.743Z" fill="#4E4E4E"/>
<path d="M18.5744 191.898V186.391H20.7472C21.1632 186.391 21.5181 186.465 21.8121 186.614C22.108 186.761 22.333 186.97 22.4871 187.241C22.6431 187.51 22.7211 187.826 22.7211 188.19C22.7211 188.556 22.6422 188.87 22.4844 189.134C22.3267 189.396 22.0981 189.597 21.7987 189.736C21.5011 189.876 21.1407 189.946 20.7177 189.946H19.2628V189.01H20.5294C20.7517 189.01 20.9364 188.98 21.0834 188.919C21.2304 188.858 21.3397 188.766 21.4115 188.645C21.485 188.523 21.5217 188.371 21.5217 188.19C21.5217 188.007 21.485 187.853 21.4115 187.728C21.3397 187.602 21.2295 187.507 21.0807 187.442C20.9337 187.376 20.7481 187.343 20.524 187.343H19.7388V191.898H18.5744ZM21.5486 189.392L22.9174 191.898H21.632L20.2928 189.392H21.5486ZM25.3383 191.979C24.9134 191.979 24.5477 191.893 24.2411 191.721C23.9364 191.547 23.7015 191.301 23.5366 190.984C23.3716 190.665 23.2892 190.288 23.2892 189.852C23.2892 189.427 23.3716 189.054 23.5366 188.733C23.7015 188.412 23.9337 188.162 24.2331 187.983C24.5343 187.804 24.8874 187.714 25.2926 187.714C25.5651 187.714 25.8188 187.758 26.0537 187.846C26.2903 187.932 26.4965 188.062 26.6722 188.236C26.8497 188.41 26.9877 188.628 27.0863 188.892C27.1849 189.154 27.2342 189.46 27.2342 189.812V190.126H23.7463V189.416H26.1558C26.1558 189.251 26.12 189.105 26.0483 188.978C25.9766 188.851 25.8771 188.751 25.7498 188.679C25.6243 188.606 25.4782 188.569 25.3114 188.569C25.1375 188.569 24.9834 188.61 24.8489 188.69C24.7162 188.769 24.6123 188.876 24.537 189.01C24.4617 189.143 24.4231 189.291 24.4213 189.454V190.129C24.4213 190.333 24.459 190.51 24.5343 190.659C24.6114 190.808 24.7198 190.922 24.8597 191.003C24.9995 191.084 25.1653 191.124 25.3572 191.124C25.4844 191.124 25.601 191.106 25.7067 191.07C25.8125 191.034 25.9031 190.981 25.9784 190.909C26.0537 190.837 26.111 190.749 26.1505 190.645L27.21 190.715C27.1562 190.97 27.046 191.192 26.8792 191.382C26.7143 191.57 26.501 191.717 26.2392 191.823C25.9793 191.927 25.679 191.979 25.3383 191.979ZM30.6306 190.14V187.768H31.7762V191.898H30.6764V191.148H30.6333C30.5401 191.39 30.385 191.585 30.1681 191.732C29.953 191.879 29.6903 191.952 29.3802 191.952C29.1041 191.952 28.8612 191.889 28.6514 191.764C28.4416 191.638 28.2776 191.46 28.1593 191.229C28.0427 190.998 27.9836 190.721 27.9818 190.398V187.768H29.1274V190.193C29.1292 190.437 29.1946 190.63 29.3237 190.772C29.4528 190.913 29.6258 190.984 29.8427 190.984C29.9808 190.984 30.1098 190.953 30.2299 190.89C30.3501 190.825 30.4469 190.73 30.5204 190.605C30.5957 190.479 30.6324 190.324 30.6306 190.14ZM36.1293 188.946L35.0806 189.01C35.0626 188.921 35.0241 188.84 34.9649 188.768C34.9058 188.695 34.8278 188.636 34.731 188.593C34.6359 188.549 34.5221 188.526 34.3894 188.526C34.2119 188.526 34.0623 188.564 33.9403 188.639C33.8184 188.713 33.7575 188.811 33.7575 188.935C33.7575 189.034 33.7969 189.117 33.8758 189.185C33.9547 189.253 34.09 189.308 34.2819 189.349L35.0295 189.5C35.431 189.582 35.7304 189.715 35.9276 189.898C36.1249 190.081 36.2235 190.321 36.2235 190.618C36.2235 190.889 36.1437 191.127 35.9841 191.331C35.8264 191.535 35.6094 191.695 35.3333 191.81C35.059 191.923 34.7426 191.979 34.3841 191.979C33.8373 191.979 33.4016 191.865 33.0771 191.638C32.7544 191.408 32.5653 191.096 32.5097 190.702L33.6365 190.643C33.6705 190.809 33.753 190.937 33.8839 191.024C34.0147 191.111 34.1824 191.154 34.3867 191.154C34.5875 191.154 34.7489 191.115 34.8708 191.038C34.9945 190.959 35.0572 190.858 35.059 190.734C35.0572 190.63 35.0133 190.545 34.9273 190.479C34.8412 190.41 34.7086 190.358 34.5293 190.323L33.814 190.18C33.4106 190.099 33.1103 189.96 32.9131 189.761C32.7177 189.562 32.62 189.308 32.62 189C32.62 188.734 32.6917 188.506 32.8351 188.314C32.9803 188.122 33.1838 187.974 33.4455 187.87C33.7091 187.766 34.0174 187.714 34.3706 187.714C34.8923 187.714 35.3029 187.824 35.6023 188.045C35.9034 188.265 36.0791 188.566 36.1293 188.946ZM38.1227 191.976C37.8591 191.976 37.6243 191.931 37.4181 191.839C37.212 191.746 37.0488 191.609 36.9287 191.428C36.8104 191.245 36.7512 191.017 36.7512 190.745C36.7512 190.515 36.7933 190.323 36.8776 190.167C36.9619 190.011 37.0766 189.885 37.2218 189.79C37.367 189.695 37.532 189.623 37.7166 189.575C37.9031 189.527 38.0985 189.493 38.3029 189.473C38.5431 189.448 38.7367 189.424 38.8837 189.403C39.0307 189.38 39.1374 189.346 39.2037 189.301C39.2701 189.256 39.3032 189.19 39.3032 189.102V189.086C39.3032 188.915 39.2495 188.783 39.1419 188.69C39.0361 188.597 38.8855 188.55 38.6901 188.55C38.4839 188.55 38.3199 188.596 38.198 188.688C38.0761 188.777 37.9954 188.89 37.956 189.026L36.8964 188.94C36.9502 188.689 37.056 188.472 37.2137 188.29C37.3715 188.105 37.575 187.963 37.8242 187.865C38.0752 187.764 38.3656 187.714 38.6955 187.714C38.925 187.714 39.1446 187.741 39.3543 187.795C39.5659 187.849 39.7532 187.932 39.9164 188.045C40.0813 188.158 40.2113 188.303 40.3063 188.48C40.4013 188.656 40.4488 188.867 40.4488 189.112V191.898H39.3624V191.326H39.3301C39.2638 191.455 39.1751 191.569 39.0639 191.667C38.9527 191.764 38.8192 191.84 38.6632 191.896C38.5072 191.95 38.3271 191.976 38.1227 191.976ZM38.4508 191.186C38.6193 191.186 38.7681 191.153 38.8972 191.086C39.0262 191.018 39.1275 190.927 39.201 190.812C39.2746 190.697 39.3113 190.567 39.3113 190.422V189.984C39.2754 190.007 39.2261 190.029 39.1634 190.048C39.1024 190.066 39.0334 190.083 38.9563 190.099C38.8792 190.114 38.8022 190.127 38.7251 190.14C38.648 190.15 38.5781 190.16 38.5153 190.169C38.3808 190.189 38.2634 190.22 38.163 190.263C38.0626 190.306 37.9846 190.365 37.9291 190.438C37.8735 190.51 37.8457 190.6 37.8457 190.707C37.8457 190.863 37.9022 190.982 38.0151 191.065C38.1299 191.145 38.2751 191.186 38.4508 191.186ZM41.3591 191.898V186.391H42.5047V188.462H42.5397C42.5899 188.351 42.6625 188.238 42.7575 188.123C42.8543 188.006 42.9798 187.909 43.134 187.832C43.2899 187.754 43.4836 187.714 43.7148 187.714C44.016 187.714 44.2939 187.793 44.5485 187.951C44.8031 188.107 45.0065 188.342 45.1589 188.658C45.3113 188.972 45.3875 189.365 45.3875 189.839C45.3875 190.299 45.3131 190.688 45.1643 191.006C45.0173 191.321 44.8165 191.56 44.5619 191.724C44.3091 191.885 44.0259 191.966 43.7121 191.966C43.4898 191.966 43.3007 191.929 43.1447 191.855C42.9905 191.782 42.8642 191.69 42.7656 191.578C42.6669 191.465 42.5917 191.352 42.5397 191.237H42.4886V191.898H41.3591ZM42.4805 189.833C42.4805 190.079 42.5146 190.293 42.5827 190.476C42.6508 190.659 42.7494 190.801 42.8785 190.903C43.0076 191.004 43.1644 191.054 43.3491 191.054C43.5356 191.054 43.6933 191.003 43.8224 190.901C43.9515 190.797 44.0492 190.653 44.1155 190.47C44.1836 190.286 44.2177 190.073 44.2177 189.833C44.2177 189.595 44.1845 189.385 44.1182 189.204C44.0519 189.023 43.9542 188.881 43.8251 188.779C43.696 188.677 43.5373 188.626 43.3491 188.626C43.1627 188.626 43.0049 188.675 42.8758 188.774C42.7485 188.872 42.6508 189.012 42.5827 189.193C42.5146 189.374 42.4805 189.588 42.4805 189.833ZM47.2975 186.391V191.898H46.1519V186.391H47.2975ZM50.0976 191.979C49.6727 191.979 49.307 191.893 49.0004 191.721C48.6956 191.547 48.4608 191.301 48.2958 190.984C48.1309 190.665 48.0484 190.288 48.0484 189.852C48.0484 189.427 48.1309 189.054 48.2958 188.733C48.4608 188.412 48.6929 188.162 48.9923 187.983C49.2935 187.804 49.6467 187.714 50.0519 187.714C50.3244 187.714 50.5781 187.758 50.8129 187.846C51.0496 187.932 51.2557 188.062 51.4314 188.236C51.6089 188.41 51.747 188.628 51.8456 188.892C51.9442 189.154 51.9935 189.46 51.9935 189.812V190.126H48.5056V189.416H50.9151C50.9151 189.251 50.8793 189.105 50.8075 188.978C50.7358 188.851 50.6363 188.751 50.509 188.679C50.3835 188.606 50.2374 188.569 50.0707 188.569C49.8968 188.569 49.7426 188.61 49.6082 188.69C49.4755 188.769 49.3715 188.876 49.2962 189.01C49.2209 189.143 49.1824 189.291 49.1806 189.454V190.129C49.1806 190.333 49.2182 190.51 49.2935 190.659C49.3706 190.808 49.4791 190.922 49.6189 191.003C49.7588 191.084 49.9246 191.124 50.1164 191.124C50.2437 191.124 50.3602 191.106 50.466 191.07C50.5718 191.034 50.6623 190.981 50.7376 190.909C50.8129 190.837 50.8703 190.749 50.9097 190.645L51.9693 190.715C51.9155 190.97 51.8052 191.192 51.6385 191.382C51.4736 191.57 51.2602 191.717 50.9985 191.823C50.7385 191.927 50.4382 191.979 50.0976 191.979Z" fill="black"/>
<path d="M17.1515 203.766V199.176H19.9213V199.669H17.7072V201.22H19.7779V201.713H17.7072V203.273H19.9572V203.766H17.1515ZM22.2497 203.837C21.927 203.837 21.6491 203.761 21.4161 203.609C21.183 203.456 21.0037 203.246 20.8782 202.979C20.7527 202.712 20.69 202.406 20.69 202.062C20.69 201.713 20.7542 201.404 20.8827 201.137C21.0127 200.868 21.1935 200.658 21.425 200.507C21.6581 200.355 21.93 200.279 22.2407 200.279C22.4828 200.279 22.7009 200.323 22.8951 200.413C23.0893 200.503 23.2484 200.628 23.3724 200.79C23.4964 200.951 23.5734 201.139 23.6033 201.354H23.0744C23.034 201.197 22.9444 201.059 22.8055 200.938C22.668 200.815 22.4828 200.754 22.2497 200.754C22.0435 200.754 21.8628 200.808 21.7074 200.915C21.5535 201.021 21.4332 201.171 21.3466 201.366C21.2614 201.558 21.2188 201.785 21.2188 202.045C21.2188 202.31 21.2607 202.542 21.3443 202.739C21.4295 202.936 21.549 203.09 21.7029 203.199C21.8583 203.308 22.0405 203.362 22.2497 203.362C22.3871 203.362 22.5119 203.338 22.6239 203.291C22.736 203.243 22.8309 203.174 22.9085 203.084C22.9862 202.995 23.0415 202.887 23.0744 202.762H23.6033C23.5734 202.965 23.4994 203.148 23.3814 203.311C23.2649 203.472 23.1102 203.601 22.9175 203.696C22.7263 203.79 22.5037 203.837 22.2497 203.837ZM25.7748 203.837C25.464 203.837 25.1914 203.763 24.9568 203.615C24.7237 203.468 24.5415 203.261 24.41 202.995C24.28 202.729 24.215 202.418 24.215 202.062C24.215 201.704 24.28 201.391 24.41 201.124C24.5415 200.856 24.7237 200.648 24.9568 200.501C25.1914 200.353 25.464 200.279 25.7748 200.279C26.0855 200.279 26.3574 200.353 26.5905 200.501C26.825 200.648 27.0073 200.856 27.1373 201.124C27.2688 201.391 27.3345 201.704 27.3345 202.062C27.3345 202.418 27.2688 202.729 27.1373 202.995C27.0073 203.261 26.825 203.468 26.5905 203.615C26.3574 203.763 26.0855 203.837 25.7748 203.837ZM25.7748 203.362C26.0108 203.362 26.205 203.302 26.3574 203.181C26.5098 203.06 26.6226 202.901 26.6958 202.703C26.769 202.506 26.8056 202.293 26.8056 202.062C26.8056 201.832 26.769 201.618 26.6958 201.419C26.6226 201.221 26.5098 201.06 26.3574 200.938C26.205 200.815 26.0108 200.754 25.7748 200.754C25.5387 200.754 25.3445 200.815 25.1921 200.938C25.0397 201.06 24.9269 201.221 24.8537 201.419C24.7805 201.618 24.7439 201.832 24.7439 202.062C24.7439 202.293 24.7805 202.506 24.8537 202.703C24.9269 202.901 25.0397 203.06 25.1921 203.181C25.3445 203.302 25.5387 203.362 25.7748 203.362ZM30.1139 201.552V202.045H28.1059V201.552H30.1139ZM31.1161 203.766V199.176H33.8681V199.669H31.6719V201.22H33.6619V201.713H31.6719V203.766H31.1161ZM34.7112 203.766V200.323H35.2222V200.843H35.258C35.3208 200.673 35.4343 200.535 35.5987 200.429C35.763 200.323 35.9483 200.27 36.1544 200.27C36.1933 200.27 36.2418 200.27 36.3001 200.272C36.3584 200.273 36.4024 200.276 36.4323 200.279V200.816C36.4144 200.812 36.3733 200.805 36.3091 200.796C36.2463 200.786 36.1798 200.781 36.1096 200.781C35.9423 200.781 35.7929 200.816 35.6614 200.886C35.5314 200.955 35.4284 201.05 35.3522 201.173C35.2775 201.294 35.2401 201.432 35.2401 201.587V203.766H34.7112ZM37.0592 203.766V200.323H37.5881V203.766H37.0592ZM37.3281 199.75C37.2251 199.75 37.1362 199.715 37.0615 199.644C36.9883 199.574 36.9517 199.49 36.9517 199.391C36.9517 199.293 36.9883 199.208 37.0615 199.138C37.1362 199.068 37.2251 199.033 37.3281 199.033C37.4312 199.033 37.5194 199.068 37.5926 199.138C37.6673 199.208 37.7046 199.293 37.7046 199.391C37.7046 199.49 37.6673 199.574 37.5926 199.644C37.5194 199.715 37.4312 199.75 37.3281 199.75ZM40 203.837C39.6683 203.837 39.3822 203.764 39.1417 203.618C38.9026 203.47 38.7181 203.264 38.5881 202.999C38.4597 202.733 38.3954 202.424 38.3954 202.071C38.3954 201.719 38.4597 201.408 38.5881 201.139C38.7181 200.869 38.8989 200.658 39.1305 200.507C39.3635 200.355 39.6354 200.279 39.9462 200.279C40.1255 200.279 40.3025 200.309 40.4773 200.368C40.6521 200.428 40.8112 200.525 40.9546 200.66C41.098 200.793 41.2123 200.969 41.2975 201.188C41.3826 201.408 41.4252 201.679 41.4252 202V202.224H38.7719V201.767H40.8874C40.8874 201.572 40.8485 201.399 40.7709 201.247C40.6947 201.094 40.5856 200.974 40.4437 200.886C40.3032 200.798 40.1374 200.754 39.9462 200.754C39.7355 200.754 39.5533 200.806 39.3994 200.911C39.247 201.014 39.1297 201.148 39.0475 201.314C38.9654 201.48 38.9243 201.658 38.9243 201.847V202.152C38.9243 202.412 38.9691 202.632 39.0587 202.813C39.1499 202.992 39.2761 203.129 39.4375 203.223C39.5988 203.316 39.7863 203.362 40 203.362C40.1389 203.362 40.2644 203.343 40.3764 203.304C40.49 203.264 40.5878 203.204 40.67 203.125C40.7522 203.044 40.8157 202.944 40.8605 202.824L41.3714 202.968C41.3177 203.141 41.2273 203.294 41.1003 203.425C40.9733 203.555 40.8164 203.657 40.6297 203.73C40.4429 203.801 40.233 203.837 40 203.837ZM42.7586 201.695V203.766H42.2297V200.323H42.7407V200.861H42.7855C42.8662 200.687 42.9887 200.546 43.153 200.44C43.3174 200.332 43.5295 200.279 43.7895 200.279C44.0225 200.279 44.2265 200.326 44.4012 200.422C44.576 200.516 44.712 200.66 44.8091 200.852C44.9062 201.044 44.9548 201.286 44.9548 201.578V203.766H44.4259V201.614C44.4259 201.344 44.3557 201.133 44.2152 200.982C44.0748 200.83 43.8821 200.754 43.6371 200.754C43.4683 200.754 43.3174 200.79 43.1844 200.864C43.0529 200.937 42.9491 201.044 42.8729 201.184C42.7967 201.324 42.7586 201.495 42.7586 201.695ZM47.221 203.837C46.9341 203.837 46.6809 203.765 46.4613 203.62C46.2417 203.474 46.0698 203.267 45.9458 203.001C45.8218 202.734 45.7598 202.418 45.7598 202.054C45.7598 201.692 45.8218 201.378 45.9458 201.112C46.0698 200.846 46.2424 200.641 46.4635 200.496C46.6846 200.351 46.9401 200.279 47.2299 200.279C47.454 200.279 47.6311 200.316 47.761 200.391C47.8925 200.464 47.9926 200.548 48.0613 200.642C48.1315 200.734 48.1861 200.811 48.2249 200.87H48.2697V199.176H48.7986V203.766H48.2877V203.237H48.2249C48.1861 203.3 48.1308 203.379 48.0591 203.474C47.9874 203.568 47.885 203.653 47.7521 203.728C47.6191 203.801 47.4421 203.837 47.221 203.837ZM47.2927 203.362C47.5048 203.362 47.6841 203.307 47.8305 203.196C47.9769 203.084 48.0882 202.93 48.1644 202.733C48.2406 202.534 48.2787 202.305 48.2787 202.045C48.2787 201.788 48.2414 201.563 48.1667 201.37C48.092 201.176 47.9814 201.025 47.835 200.917C47.6886 200.808 47.5078 200.754 47.2927 200.754C47.0686 200.754 46.8818 200.811 46.7324 200.926C46.5845 201.04 46.4732 201.194 46.3985 201.39C46.3253 201.584 46.2887 201.803 46.2887 202.045C46.2887 202.29 46.3261 202.512 46.4008 202.712C46.477 202.911 46.589 203.069 46.7369 203.187C46.8863 203.304 47.0716 203.362 47.2927 203.362ZM50.3695 199.176V203.766H49.8407V199.176H50.3695ZM51.6788 205.056C51.5892 205.056 51.5093 205.049 51.439 205.034C51.3688 205.021 51.3203 205.007 51.2934 204.994L51.4278 204.528C51.5563 204.56 51.6699 204.572 51.7685 204.563C51.8671 204.554 51.9545 204.51 52.0307 204.431C52.1084 204.354 52.1793 204.227 52.2436 204.052L52.3422 203.784L51.0693 200.323H51.643L52.5932 203.066H52.629L53.5792 200.323H54.1529L52.6918 204.268C52.626 204.445 52.5446 204.593 52.4475 204.709C52.3504 204.827 52.2376 204.915 52.1091 204.971C51.9821 205.028 51.8387 205.056 51.6788 205.056Z" fill="black"/>
</g>
<defs>
<filter id="filter0_d_1980_381" x="0.000465155" y="-0.000743985" width="71.1905" height="70.417" filterUnits="userSpaceOnUse" color-interpolation-filters="sRGB">
<feFlood flood-opacity="0" result="BackgroundImageFix"/>
<feColorMatrix in="SourceAlpha" type="matrix" values="0 0 0 0 0 0 0 0 0 0 0 0 0 0 0 0 0 0 127 0" result="hardAlpha"/>
<feOffset dy="1.54762"/>
<feGaussianBlur stdDeviation="1.54762"/>
<feComposite in2="hardAlpha" operator="out"/>
<feColorMatrix type="matrix" values="0 0 0 0 0 0 0 0 0 0 0 0 0 0 0 0 0 0 0.25 0"/>
<feBlend mode="normal" in2="BackgroundImageFix" result="effect1_dropShadow_1980_381"/>
<feBlend mode="normal" in="SourceGraphic" in2="effect1_dropShadow_1980_381" result="shape"/>
</filter>
<filter id="filter1_d_1980_381" x="0.000465155" y="75.2258" width="71.1905" height="70.417" filterUnits="userSpaceOnUse" color-interpolation-filters="sRGB">
<feFlood flood-opacity="0" result="BackgroundImageFix"/>
<feColorMatrix in="SourceAlpha" type="matrix" values="0 0 0 0 0 0 0 0 0 0 0 0 0 0 0 0 0 0 127 0" result="hardAlpha"/>
<feOffset dy="1.54762"/>
<feGaussianBlur stdDeviation="1.54762"/>
<feComposite in2="hardAlpha" operator="out"/>
<feColorMatrix type="matrix" values="0 0 0 0 0 0 0 0 0 0 0 0 0 0 0 0 0 0 0.25 0"/>
<feBlend mode="normal" in2="BackgroundImageFix" result="effect1_dropShadow_1980_381"/>
<feBlend mode="normal" in="SourceGraphic" in2="effect1_dropShadow_1980_381" result="shape"/>
</filter>
<filter id="filter2_d_1980_381" x="0.000465155" y="150.452" width="71.1905" height="70.417" filterUnits="userSpaceOnUse" color-interpolation-filters="sRGB">
<feFlood flood-opacity="0" result="BackgroundImageFix"/>
<feColorMatrix in="SourceAlpha" type="matrix" values="0 0 0 0 0 0 0 0 0 0 0 0 0 0 0 0 0 0 127 0" result="hardAlpha"/>
<feOffset dy="1.54762"/>
<feGaussianBlur stdDeviation="1.54762"/>
<feComposite in2="hardAlpha" operator="out"/>
<feColorMatrix type="matrix" values="0 0 0 0 0 0 0 0 0 0 0 0 0 0 0 0 0 0 0.25 0"/>
<feBlend mode="normal" in2="BackgroundImageFix" result="effect1_dropShadow_1980_381"/>
<feBlend mode="normal" in="SourceGraphic" in2="effect1_dropShadow_1980_381" result="shape"/>
</filter>
<clipPath id="clip0_1980_381">
<rect width="18.5714" height="18.5714" fill="white" transform="translate(26.3105 85.0547)"/>
</clipPath>
</defs>
</svg>
