<svg width="374" height="43" viewBox="0 0 374 43" fill="none" xmlns="http://www.w3.org/2000/svg">
<path d="M37.9865 19V10.2727H40.9354C41.62 10.2727 42.1797 10.3963 42.6143 10.6435C43.0518 10.8878 43.3757 11.2188 43.5859 11.6364C43.7962 12.054 43.9013 12.5199 43.9013 13.0341C43.9013 13.5483 43.7962 14.0156 43.5859 14.4361C43.3786 14.8565 43.0575 15.1918 42.6229 15.4418C42.1882 15.6889 41.6314 15.8125 40.9524 15.8125H38.8388V14.875H40.9183C41.3871 14.875 41.7635 14.794 42.0476 14.6321C42.3317 14.4702 42.5376 14.2514 42.6655 13.9759C42.7962 13.6974 42.8615 13.3835 42.8615 13.0341C42.8615 12.6847 42.7962 12.3722 42.6655 12.0966C42.5376 11.821 42.3303 11.6051 42.0433 11.4489C41.7564 11.2898 41.3757 11.2102 40.9013 11.2102H39.0433V19H37.9865ZM48.1413 19.1364C47.5107 19.1364 46.9666 18.9972 46.5092 18.7188C46.0547 18.4375 45.7038 18.0455 45.4567 17.5426C45.2124 17.0369 45.0902 16.4489 45.0902 15.7784C45.0902 15.108 45.2124 14.517 45.4567 14.0057C45.7038 13.4915 46.0476 13.0909 46.4879 12.804C46.9311 12.5142 47.4482 12.3693 48.0391 12.3693C48.38 12.3693 48.7166 12.4261 49.049 12.5398C49.3814 12.6534 49.6839 12.8381 49.9567 13.0938C50.2294 13.3466 50.4467 13.6818 50.6087 14.0994C50.7706 14.517 50.8516 15.0312 50.8516 15.642V16.0682H45.8061V15.1989H49.8288C49.8288 14.8295 49.755 14.5 49.6072 14.2102C49.4624 13.9205 49.255 13.6918 48.9851 13.5241C48.718 13.3565 48.4027 13.2727 48.0391 13.2727C47.6385 13.2727 47.2919 13.3722 46.9993 13.571C46.7095 13.767 46.4865 14.0227 46.3303 14.3381C46.174 14.6534 46.0959 14.9915 46.0959 15.3523V15.9318C46.0959 16.4261 46.1811 16.8452 46.3516 17.1889C46.5249 17.5298 46.7649 17.7898 47.0717 17.9688C47.3786 18.1449 47.7351 18.233 48.1413 18.233C48.4055 18.233 48.6442 18.196 48.8572 18.1222C49.0732 18.0455 49.2592 17.9318 49.4155 17.7812C49.5717 17.6278 49.6925 17.4375 49.7777 17.2102L50.7493 17.483C50.647 17.8125 50.4751 18.1023 50.2337 18.3523C49.9922 18.5994 49.6939 18.7926 49.3388 18.9318C48.9837 19.0682 48.5845 19.1364 48.1413 19.1364ZM52.3814 19V12.4545H53.353V13.4432H53.4212C53.5405 13.1193 53.7564 12.8565 54.0689 12.6548C54.3814 12.4531 54.7337 12.3523 55.1257 12.3523C55.1996 12.3523 55.2919 12.3537 55.4027 12.3565C55.5135 12.3594 55.5973 12.3636 55.6541 12.3693V13.392C55.62 13.3835 55.5419 13.3707 55.4197 13.3537C55.3004 13.3338 55.174 13.3239 55.0405 13.3239C54.7223 13.3239 54.4382 13.3906 54.1882 13.5241C53.9411 13.6548 53.745 13.8366 53.6001 14.0696C53.4581 14.2997 53.3871 14.5625 53.3871 14.858V19H52.3814ZM60.1712 12.4545V13.3068H56.6428V12.4545H60.1712ZM57.6996 19V11.5511C57.6996 11.1761 57.7876 10.8636 57.9638 10.6136C58.1399 10.3636 58.3686 10.1761 58.6499 10.0511C58.9311 9.92614 59.228 9.86364 59.5405 9.86364C59.7876 9.86364 59.9893 9.88352 60.1456 9.9233C60.3018 9.96307 60.4183 10 60.495 10.0341L60.2053 10.9034C60.1541 10.8864 60.0831 10.8651 59.9922 10.8395C59.9041 10.8139 59.7876 10.8011 59.6428 10.8011C59.3104 10.8011 59.0703 10.8849 58.9226 11.0526C58.7777 11.2202 58.7053 11.4659 58.7053 11.7898V19H57.6996ZM64.0554 19.1364C63.4247 19.1364 62.8807 18.9972 62.4233 18.7188C61.9688 18.4375 61.6179 18.0455 61.3707 17.5426C61.1264 17.0369 61.0043 16.4489 61.0043 15.7784C61.0043 15.108 61.1264 14.517 61.3707 14.0057C61.6179 13.4915 61.9616 13.0909 62.402 12.804C62.8452 12.5142 63.3622 12.3693 63.9531 12.3693C64.294 12.3693 64.6307 12.4261 64.9631 12.5398C65.2955 12.6534 65.598 12.8381 65.8707 13.0938C66.1435 13.3466 66.3608 13.6818 66.5227 14.0994C66.6847 14.517 66.7656 15.0312 66.7656 15.642V16.0682H61.7202V15.1989H65.7429C65.7429 14.8295 65.669 14.5 65.5213 14.2102C65.3764 13.9205 65.169 13.6918 64.8991 13.5241C64.6321 13.3565 64.3168 13.2727 63.9531 13.2727C63.5526 13.2727 63.206 13.3722 62.9134 13.571C62.6236 13.767 62.4006 14.0227 62.2443 14.3381C62.0881 14.6534 62.0099 14.9915 62.0099 15.3523V15.9318C62.0099 16.4261 62.0952 16.8452 62.2656 17.1889C62.4389 17.5298 62.679 17.7898 62.9858 17.9688C63.2926 18.1449 63.6491 18.233 64.0554 18.233C64.3196 18.233 64.5582 18.196 64.7713 18.1222C64.9872 18.0455 65.1733 17.9318 65.3295 17.7812C65.4858 17.6278 65.6065 17.4375 65.6918 17.2102L66.6634 17.483C66.5611 17.8125 66.3892 18.1023 66.1477 18.3523C65.9063 18.5994 65.608 18.7926 65.2528 18.9318C64.8977 19.0682 64.4986 19.1364 64.0554 19.1364ZM70.9545 19.1364C70.3409 19.1364 69.8125 18.9915 69.3693 18.7017C68.9261 18.4119 68.5852 18.0128 68.3466 17.5043C68.108 16.9957 67.9886 16.4148 67.9886 15.7614C67.9886 15.0966 68.1108 14.5099 68.3551 14.0014C68.6023 13.4901 68.946 13.0909 69.3864 12.804C69.8295 12.5142 70.3466 12.3693 70.9375 12.3693C71.3977 12.3693 71.8125 12.4545 72.1818 12.625C72.5511 12.7955 72.8537 13.0341 73.0895 13.3409C73.3253 13.6477 73.4716 14.0057 73.5284 14.4148H72.5227C72.446 14.1165 72.2756 13.8523 72.0114 13.6222C71.75 13.3892 71.3977 13.2727 70.9545 13.2727C70.5625 13.2727 70.2188 13.375 69.9233 13.5795C69.6307 13.7812 69.402 14.0668 69.2372 14.4361C69.0753 14.8026 68.9943 15.233 68.9943 15.7273C68.9943 16.233 69.0739 16.6733 69.233 17.0483C69.3949 17.4233 69.6222 17.7145 69.9148 17.9219C70.2102 18.1293 70.5568 18.233 70.9545 18.233C71.2159 18.233 71.4531 18.1875 71.6662 18.0966C71.8793 18.0057 72.0597 17.875 72.2074 17.7045C72.3551 17.5341 72.4602 17.3295 72.5227 17.0909H73.5284C73.4716 17.4773 73.331 17.8253 73.1065 18.1349C72.8849 18.4418 72.5909 18.6861 72.2244 18.8679C71.8608 19.0469 71.4375 19.1364 70.9545 19.1364ZM77.8452 12.4545V13.3068H74.4531V12.4545H77.8452ZM75.4418 10.8864H76.4474V17.125C76.4474 17.4091 76.4886 17.6222 76.571 17.7642C76.6563 17.9034 76.7642 17.9972 76.8949 18.0455C77.0284 18.0909 77.169 18.1136 77.3168 18.1136C77.4276 18.1136 77.5185 18.108 77.5895 18.0966C77.6605 18.0824 77.7173 18.071 77.7599 18.0625L77.9645 18.9659C77.8963 18.9915 77.8011 19.017 77.679 19.0426C77.5568 19.071 77.402 19.0852 77.2145 19.0852C76.9304 19.0852 76.652 19.0241 76.3793 18.902C76.1094 18.7798 75.8849 18.5938 75.706 18.3438C75.5298 18.0938 75.4418 17.7784 75.4418 17.3977V10.8864ZM85.6477 12.4545V13.3068H82.1193V12.4545H85.6477ZM83.1761 19V11.5511C83.1761 11.1761 83.2642 10.8636 83.4403 10.6136C83.6165 10.3636 83.8452 10.1761 84.1264 10.0511C84.4077 9.92614 84.7045 9.86364 85.017 9.86364C85.2642 9.86364 85.4659 9.88352 85.6222 9.9233C85.7784 9.96307 85.8949 10 85.9716 10.0341L85.6818 10.9034C85.6307 10.8864 85.5597 10.8651 85.4688 10.8395C85.3807 10.8139 85.2642 10.8011 85.1193 10.8011C84.7869 10.8011 84.5469 10.8849 84.3991 11.0526C84.2543 11.2202 84.1818 11.4659 84.1818 11.7898V19H83.1761ZM89.4467 19.1364C88.8558 19.1364 88.3374 18.9957 87.8913 18.7145C87.4482 18.4332 87.1016 18.0398 86.8516 17.5341C86.6044 17.0284 86.4808 16.4375 86.4808 15.7614C86.4808 15.0795 86.6044 14.4844 86.8516 13.9759C87.1016 13.4673 87.4482 13.0724 87.8913 12.7912C88.3374 12.5099 88.8558 12.3693 89.4467 12.3693C90.0376 12.3693 90.5547 12.5099 90.9979 12.7912C91.4439 13.0724 91.7905 13.4673 92.0376 13.9759C92.2876 14.4844 92.4126 15.0795 92.4126 15.7614C92.4126 16.4375 92.2876 17.0284 92.0376 17.5341C91.7905 18.0398 91.4439 18.4332 90.9979 18.7145C90.5547 18.9957 90.0376 19.1364 89.4467 19.1364ZM89.4467 18.233C89.8956 18.233 90.2649 18.1179 90.5547 17.8878C90.8445 17.6577 91.0589 17.3551 91.1982 16.9801C91.3374 16.6051 91.407 16.1989 91.407 15.7614C91.407 15.3239 91.3374 14.9162 91.1982 14.5384C91.0589 14.1605 90.8445 13.8551 90.5547 13.6222C90.2649 13.3892 89.8956 13.2727 89.4467 13.2727C88.9979 13.2727 88.6286 13.3892 88.3388 13.6222C88.049 13.8551 87.8345 14.1605 87.6953 14.5384C87.5561 14.9162 87.4865 15.3239 87.4865 15.7614C87.4865 16.1989 87.5561 16.6051 87.6953 16.9801C87.8345 17.3551 88.049 17.6577 88.3388 17.8878C88.6286 18.1179 88.9979 18.233 89.4467 18.233ZM93.9478 19V12.4545H94.9194V13.4432H94.9876C95.1069 13.1193 95.3228 12.8565 95.6353 12.6548C95.9478 12.4531 96.3001 12.3523 96.6921 12.3523C96.766 12.3523 96.8583 12.3537 96.9691 12.3565C97.0799 12.3594 97.1637 12.3636 97.2205 12.3693V13.392C97.1864 13.3835 97.1083 13.3707 96.9862 13.3537C96.8668 13.3338 96.7404 13.3239 96.6069 13.3239C96.2887 13.3239 96.0046 13.3906 95.7546 13.5241C95.5075 13.6548 95.3114 13.8366 95.1665 14.0696C95.0245 14.2997 94.9535 14.5625 94.9535 14.858V19H93.9478ZM106.424 13.9205L105.521 14.1761C105.464 14.0256 105.38 13.8793 105.269 13.7372C105.161 13.5923 105.013 13.473 104.826 13.3793C104.638 13.2855 104.398 13.2386 104.106 13.2386C103.705 13.2386 103.371 13.331 103.104 13.5156C102.84 13.6974 102.708 13.929 102.708 14.2102C102.708 14.4602 102.799 14.6577 102.981 14.8026C103.163 14.9474 103.447 15.0682 103.833 15.1648L104.805 15.4034C105.39 15.5455 105.826 15.7628 106.113 16.0554C106.4 16.3452 106.543 16.7187 106.543 17.1761C106.543 17.5511 106.435 17.8864 106.219 18.1818C106.006 18.4773 105.708 18.7102 105.325 18.8807C104.941 19.0511 104.495 19.1364 103.987 19.1364C103.319 19.1364 102.766 18.9915 102.329 18.7017C101.891 18.4119 101.614 17.9886 101.498 17.4318L102.452 17.1932C102.543 17.5455 102.715 17.8097 102.968 17.9858C103.224 18.1619 103.558 18.25 103.969 18.25C104.438 18.25 104.81 18.1506 105.086 17.9517C105.364 17.75 105.504 17.5085 105.504 17.2273C105.504 17 105.424 16.8097 105.265 16.6562C105.106 16.5 104.862 16.3835 104.532 16.3068L103.441 16.0511C102.842 15.9091 102.401 15.6889 102.12 15.3906C101.842 15.0895 101.702 14.7131 101.702 14.2614C101.702 13.892 101.806 13.5653 102.013 13.2812C102.224 12.9972 102.509 12.7741 102.87 12.6122C103.234 12.4503 103.646 12.3693 104.106 12.3693C104.754 12.3693 105.262 12.5114 105.631 12.7955C106.004 13.0795 106.268 13.4545 106.424 13.9205ZM109.983 19.1534C109.569 19.1534 109.192 19.0753 108.854 18.919C108.516 18.7599 108.248 18.5312 108.049 18.233C107.85 17.9318 107.75 17.5682 107.75 17.142C107.75 16.767 107.824 16.4631 107.972 16.2301C108.12 15.9943 108.317 15.8097 108.564 15.6761C108.811 15.5426 109.084 15.4432 109.382 15.3778C109.684 15.3097 109.986 15.2557 110.29 15.2159C110.688 15.1648 111.01 15.1264 111.257 15.1009C111.507 15.0724 111.689 15.0256 111.803 14.9602C111.919 14.8949 111.978 14.7812 111.978 14.6193V14.5852C111.978 14.1648 111.863 13.8381 111.632 13.6051C111.405 13.3722 111.06 13.2557 110.597 13.2557C110.117 13.2557 109.74 13.3608 109.468 13.571C109.195 13.7812 109.003 14.0057 108.892 14.2443L107.938 13.9034C108.108 13.5057 108.336 13.196 108.62 12.9744C108.907 12.75 109.219 12.5937 109.557 12.5057C109.898 12.4148 110.233 12.3693 110.563 12.3693C110.773 12.3693 111.015 12.3949 111.287 12.446C111.563 12.4943 111.828 12.5952 112.084 12.7486C112.343 12.902 112.557 13.1335 112.728 13.4432C112.898 13.7528 112.983 14.1676 112.983 14.6875V19H111.978V18.1136H111.926C111.858 18.2557 111.745 18.4077 111.586 18.5696C111.426 18.7315 111.215 18.8693 110.951 18.983C110.686 19.0966 110.364 19.1534 109.983 19.1534ZM110.137 18.25C110.534 18.25 110.87 18.1719 111.142 18.0156C111.418 17.8594 111.625 17.6577 111.765 17.4105C111.907 17.1634 111.978 16.9034 111.978 16.6307V15.7102C111.935 15.7614 111.841 15.8082 111.696 15.8509C111.554 15.8906 111.39 15.9261 111.202 15.9574C111.017 15.9858 110.837 16.0114 110.661 16.0341C110.488 16.054 110.347 16.071 110.239 16.0852C109.978 16.1193 109.733 16.1747 109.506 16.2514C109.282 16.3253 109.1 16.4375 108.961 16.5881C108.824 16.7358 108.756 16.9375 108.756 17.1932C108.756 17.5426 108.885 17.8068 109.144 17.9858C109.405 18.1619 109.736 18.25 110.137 18.25ZM115.825 10.2727V19H114.819V10.2727H115.825ZM119.593 19.1534C119.178 19.1534 118.801 19.0753 118.463 18.919C118.125 18.7599 117.857 18.5312 117.658 18.233C117.459 17.9318 117.36 17.5682 117.36 17.142C117.36 16.767 117.434 16.4631 117.581 16.2301C117.729 15.9943 117.926 15.8097 118.174 15.6761C118.421 15.5426 118.694 15.4432 118.992 15.3778C119.293 15.3097 119.596 15.2557 119.9 15.2159C120.297 15.1648 120.62 15.1264 120.867 15.1009C121.117 15.0724 121.299 15.0256 121.412 14.9602C121.529 14.8949 121.587 14.7812 121.587 14.6193V14.5852C121.587 14.1648 121.472 13.8381 121.242 13.6051C121.015 13.3722 120.669 13.2557 120.206 13.2557C119.726 13.2557 119.35 13.3608 119.077 13.571C118.804 13.7812 118.613 14.0057 118.502 14.2443L117.547 13.9034C117.718 13.5057 117.945 13.196 118.229 12.9744C118.516 12.75 118.828 12.5937 119.167 12.5057C119.507 12.4148 119.843 12.3693 120.172 12.3693C120.382 12.3693 120.624 12.3949 120.897 12.446C121.172 12.4943 121.438 12.5952 121.694 12.7486C121.952 12.902 122.167 13.1335 122.337 13.4432C122.507 13.7528 122.593 14.1676 122.593 14.6875V19H121.587V18.1136H121.536C121.468 18.2557 121.354 18.4077 121.195 18.5696C121.036 18.7315 120.824 18.8693 120.56 18.983C120.296 19.0966 119.973 19.1534 119.593 19.1534ZM119.746 18.25C120.144 18.25 120.479 18.1719 120.752 18.0156C121.027 17.8594 121.235 17.6577 121.374 17.4105C121.516 17.1634 121.587 16.9034 121.587 16.6307V15.7102C121.544 15.7614 121.451 15.8082 121.306 15.8509C121.164 15.8906 120.999 15.9261 120.811 15.9574C120.627 15.9858 120.446 16.0114 120.27 16.0341C120.097 16.054 119.956 16.071 119.848 16.0852C119.587 16.1193 119.343 16.1747 119.115 16.2514C118.891 16.3253 118.709 16.4375 118.57 16.5881C118.434 16.7358 118.365 16.9375 118.365 17.1932C118.365 17.5426 118.495 17.8068 118.753 17.9858C119.015 18.1619 119.346 18.25 119.746 18.25ZM126.9 19.1364C126.354 19.1364 125.873 18.9986 125.455 18.723C125.038 18.4446 124.711 18.0526 124.475 17.5469C124.239 17.0384 124.121 16.4375 124.121 15.7443C124.121 15.0568 124.239 14.4602 124.475 13.9545C124.711 13.4489 125.039 13.0582 125.46 12.7827C125.88 12.5071 126.366 12.3693 126.917 12.3693C127.343 12.3693 127.68 12.4403 127.927 12.5824C128.177 12.7216 128.367 12.8807 128.498 13.0597C128.631 13.2358 128.735 13.3807 128.809 13.4943H128.894V10.2727H129.9V19H128.928V17.9943H128.809C128.735 18.1136 128.63 18.2642 128.494 18.446C128.357 18.625 128.163 18.7855 127.91 18.9276C127.657 19.0668 127.32 19.1364 126.9 19.1364ZM127.036 18.233C127.44 18.233 127.781 18.1278 128.059 17.9176C128.337 17.7045 128.549 17.4105 128.694 17.0355C128.839 16.6577 128.911 16.2216 128.911 15.7273C128.911 15.2386 128.84 14.8111 128.698 14.4446C128.556 14.0753 128.346 13.7884 128.067 13.5838C127.789 13.3764 127.445 13.2727 127.036 13.2727C126.61 13.2727 126.255 13.3821 125.971 13.6009C125.69 13.8168 125.478 14.1108 125.336 14.483C125.197 14.8523 125.127 15.267 125.127 15.7273C125.127 16.1932 125.198 16.6165 125.34 16.9972C125.485 17.375 125.698 17.6761 125.979 17.9006C126.263 18.1222 126.616 18.233 127.036 18.233ZM136.518 13.9205L135.614 14.1761C135.558 14.0256 135.474 13.8793 135.363 13.7372C135.255 13.5923 135.107 13.473 134.92 13.3793C134.732 13.2855 134.492 13.2386 134.2 13.2386C133.799 13.2386 133.465 13.331 133.198 13.5156C132.934 13.6974 132.802 13.929 132.802 14.2102C132.802 14.4602 132.893 14.6577 133.075 14.8026C133.256 14.9474 133.54 15.0682 133.927 15.1648L134.898 15.4034C135.484 15.5455 135.92 15.7628 136.207 16.0554C136.494 16.3452 136.637 16.7187 136.637 17.1761C136.637 17.5511 136.529 17.8864 136.313 18.1818C136.1 18.4773 135.802 18.7102 135.418 18.8807C135.035 19.0511 134.589 19.1364 134.08 19.1364C133.413 19.1364 132.86 18.9915 132.423 18.7017C131.985 18.4119 131.708 17.9886 131.592 17.4318L132.546 17.1932C132.637 17.5455 132.809 17.8097 133.062 17.9858C133.317 18.1619 133.651 18.25 134.063 18.25C134.532 18.25 134.904 18.1506 135.18 17.9517C135.458 17.75 135.597 17.5085 135.597 17.2273C135.597 17 135.518 16.8097 135.359 16.6562C135.2 16.5 134.955 16.3835 134.626 16.3068L133.535 16.0511C132.935 15.9091 132.495 15.6889 132.214 15.3906C131.935 15.0895 131.796 14.7131 131.796 14.2614C131.796 13.892 131.9 13.5653 132.107 13.2812C132.317 12.9972 132.603 12.7741 132.964 12.6122C133.327 12.4503 133.739 12.3693 134.2 12.3693C134.847 12.3693 135.356 12.5114 135.725 12.7955C136.097 13.0795 136.362 13.4545 136.518 13.9205ZM139.651 17.8068L139.583 18.267C139.534 18.5909 139.461 18.9375 139.361 19.3068C139.265 19.6761 139.164 20.0241 139.059 20.3509C138.953 20.6776 138.867 20.9375 138.799 21.1307H138.032C138.069 20.9489 138.117 20.7088 138.176 20.4105C138.236 20.1122 138.296 19.7784 138.355 19.4091C138.418 19.0426 138.469 18.6676 138.509 18.2841L138.56 17.8068H139.651ZM149.526 13.9205L148.622 14.1761C148.565 14.0256 148.482 13.8793 148.371 13.7372C148.263 13.5923 148.115 13.473 147.928 13.3793C147.74 13.2855 147.5 13.2386 147.207 13.2386C146.807 13.2386 146.473 13.331 146.206 13.5156C145.942 13.6974 145.81 13.929 145.81 14.2102C145.81 14.4602 145.901 14.6577 146.082 14.8026C146.264 14.9474 146.548 15.0682 146.935 15.1648L147.906 15.4034C148.491 15.5455 148.928 15.7628 149.214 16.0554C149.501 16.3452 149.645 16.7187 149.645 17.1761C149.645 17.5511 149.537 17.8864 149.321 18.1818C149.108 18.4773 148.81 18.7102 148.426 18.8807C148.043 19.0511 147.597 19.1364 147.088 19.1364C146.42 19.1364 145.868 18.9915 145.43 18.7017C144.993 18.4119 144.716 17.9886 144.599 17.4318L145.554 17.1932C145.645 17.5455 145.817 17.8097 146.07 17.9858C146.325 18.1619 146.659 18.25 147.071 18.25C147.54 18.25 147.912 18.1506 148.188 17.9517C148.466 17.75 148.605 17.5085 148.605 17.2273C148.605 17 148.526 16.8097 148.366 16.6562C148.207 16.5 147.963 16.3835 147.634 16.3068L146.543 16.0511C145.943 15.9091 145.503 15.6889 145.222 15.3906C144.943 15.0895 144.804 14.7131 144.804 14.2614C144.804 13.892 144.908 13.5653 145.115 13.2812C145.325 12.9972 145.611 12.7741 145.972 12.6122C146.335 12.4503 146.747 12.3693 147.207 12.3693C147.855 12.3693 148.364 12.5114 148.733 12.7955C149.105 13.0795 149.369 13.4545 149.526 13.9205ZM152.164 15.0625V19H151.159V12.4545H152.13V13.4773H152.216C152.369 13.1449 152.602 12.8778 152.914 12.6761C153.227 12.4716 153.63 12.3693 154.125 12.3693C154.568 12.3693 154.956 12.4602 155.288 12.642C155.62 12.821 155.879 13.0938 156.064 13.4602C156.248 13.8239 156.341 14.2841 156.341 14.8409V19H155.335V14.9091C155.335 14.3949 155.201 13.9943 154.934 13.7074C154.667 13.4176 154.301 13.2727 153.835 13.2727C153.514 13.2727 153.227 13.3423 152.974 13.4815C152.724 13.6207 152.527 13.8239 152.382 14.0909C152.237 14.358 152.164 14.6818 152.164 15.0625ZM160.104 19.1534C159.69 19.1534 159.313 19.0753 158.975 18.919C158.637 18.7599 158.369 18.5312 158.17 18.233C157.971 17.9318 157.871 17.5682 157.871 17.142C157.871 16.767 157.945 16.4631 158.093 16.2301C158.241 15.9943 158.438 15.8097 158.685 15.6761C158.933 15.5426 159.205 15.4432 159.504 15.3778C159.805 15.3097 160.107 15.2557 160.411 15.2159C160.809 15.1648 161.131 15.1264 161.379 15.1009C161.629 15.0724 161.81 15.0256 161.924 14.9602C162.04 14.8949 162.099 14.7812 162.099 14.6193V14.5852C162.099 14.1648 161.984 13.8381 161.754 13.6051C161.526 13.3722 161.181 13.2557 160.718 13.2557C160.238 13.2557 159.862 13.3608 159.589 13.571C159.316 13.7812 159.124 14.0057 159.013 14.2443L158.059 13.9034C158.229 13.5057 158.457 13.196 158.741 12.9744C159.028 12.75 159.34 12.5937 159.678 12.5057C160.019 12.4148 160.354 12.3693 160.684 12.3693C160.894 12.3693 161.136 12.3949 161.408 12.446C161.684 12.4943 161.95 12.5952 162.205 12.7486C162.464 12.902 162.678 13.1335 162.849 13.4432C163.019 13.7528 163.104 14.1676 163.104 14.6875V19H162.099V18.1136H162.048C161.979 18.2557 161.866 18.4077 161.707 18.5696C161.548 18.7315 161.336 18.8693 161.072 18.983C160.808 19.0966 160.485 19.1534 160.104 19.1534ZM160.258 18.25C160.656 18.25 160.991 18.1719 161.263 18.0156C161.539 17.8594 161.746 17.6577 161.886 17.4105C162.028 17.1634 162.099 16.9034 162.099 16.6307V15.7102C162.056 15.7614 161.962 15.8082 161.817 15.8509C161.675 15.8906 161.511 15.9261 161.323 15.9574C161.138 15.9858 160.958 16.0114 160.782 16.0341C160.609 16.054 160.468 16.071 160.36 16.0852C160.099 16.1193 159.854 16.1747 159.627 16.2514C159.403 16.3253 159.221 16.4375 159.082 16.5881C158.945 16.7358 158.877 16.9375 158.877 17.1932C158.877 17.5426 159.006 17.8068 159.265 17.9858C159.526 18.1619 159.857 18.25 160.258 18.25ZM167.599 19.1364C166.985 19.1364 166.457 18.9915 166.014 18.7017C165.571 18.4119 165.23 18.0128 164.991 17.5043C164.752 16.9957 164.633 16.4148 164.633 15.7614C164.633 15.0966 164.755 14.5099 165 14.0014C165.247 13.4901 165.591 13.0909 166.031 12.804C166.474 12.5142 166.991 12.3693 167.582 12.3693C168.042 12.3693 168.457 12.4545 168.826 12.625C169.196 12.7955 169.498 13.0341 169.734 13.3409C169.97 13.6477 170.116 14.0057 170.173 14.4148H169.167C169.091 14.1165 168.92 13.8523 168.656 13.6222C168.395 13.3892 168.042 13.2727 167.599 13.2727C167.207 13.2727 166.863 13.375 166.568 13.5795C166.275 13.7812 166.047 14.0668 165.882 14.4361C165.72 14.8026 165.639 15.233 165.639 15.7273C165.639 16.233 165.718 16.6733 165.877 17.0483C166.039 17.4233 166.267 17.7145 166.559 17.9219C166.855 18.1293 167.201 18.233 167.599 18.233C167.86 18.233 168.098 18.1875 168.311 18.0966C168.524 18.0057 168.704 17.875 168.852 17.7045C169 17.5341 169.105 17.3295 169.167 17.0909H170.173C170.116 17.4773 169.975 17.8253 169.751 18.1349C169.529 18.4418 169.235 18.6861 168.869 18.8679C168.505 19.0469 168.082 19.1364 167.599 19.1364ZM172.581 16.6136L172.564 15.3693H172.768L175.632 12.4545H176.876L173.825 15.5398H173.74L172.581 16.6136ZM171.643 19V10.2727H172.649V19H171.643ZM175.802 19L173.245 15.7614L173.961 15.0625L177.081 19H175.802ZM182.807 13.9205L181.903 14.1761C181.847 14.0256 181.763 13.8793 181.652 13.7372C181.544 13.5923 181.396 13.473 181.209 13.3793C181.021 13.2855 180.781 13.2386 180.489 13.2386C180.088 13.2386 179.754 13.331 179.487 13.5156C179.223 13.6974 179.091 13.929 179.091 14.2102C179.091 14.4602 179.182 14.6577 179.364 14.8026C179.545 14.9474 179.83 15.0682 180.216 15.1648L181.188 15.4034C181.773 15.5455 182.209 15.7628 182.496 16.0554C182.783 16.3452 182.926 16.7187 182.926 17.1761C182.926 17.5511 182.818 17.8864 182.602 18.1818C182.389 18.4773 182.091 18.7102 181.707 18.8807C181.324 19.0511 180.878 19.1364 180.369 19.1364C179.702 19.1364 179.149 18.9915 178.712 18.7017C178.274 18.4119 177.997 17.9886 177.881 17.4318L178.835 17.1932C178.926 17.5455 179.098 17.8097 179.351 17.9858C179.607 18.1619 179.94 18.25 180.352 18.25C180.821 18.25 181.193 18.1506 181.469 17.9517C181.747 17.75 181.886 17.5085 181.886 17.2273C181.886 17 181.807 16.8097 181.648 16.6562C181.489 16.5 181.244 16.3835 180.915 16.3068L179.824 16.0511C179.224 15.9091 178.784 15.6889 178.503 15.3906C178.224 15.0895 178.085 14.7131 178.085 14.2614C178.085 13.892 178.189 13.5653 178.396 13.2812C178.607 12.9972 178.892 12.7741 179.253 12.6122C179.616 12.4503 180.028 12.3693 180.489 12.3693C181.136 12.3693 181.645 12.5114 182.014 12.7955C182.386 13.0795 182.651 13.4545 182.807 13.9205ZM190.287 19.1193C189.713 19.1193 189.218 19.0142 188.804 18.804C188.389 18.5937 188.069 18.3054 187.845 17.9389C187.62 17.5724 187.508 17.1534 187.508 16.6818C187.508 16.3182 187.585 15.9957 187.738 15.7145C187.895 15.4304 188.109 15.1676 188.382 14.9261C188.657 14.6818 188.974 14.4375 189.332 14.1932L190.593 13.2557C190.841 13.0937 191.038 12.9205 191.186 12.7358C191.336 12.5511 191.412 12.3097 191.412 12.0114C191.412 11.7898 191.314 11.5753 191.118 11.3679C190.924 11.1605 190.67 11.0568 190.355 11.0568C190.133 11.0568 189.937 11.1136 189.767 11.2273C189.599 11.3381 189.467 11.4801 189.37 11.6534C189.277 11.8239 189.23 12 189.23 12.1818C189.23 12.3864 189.285 12.5938 189.396 12.804C189.51 13.0114 189.653 13.2244 189.826 13.4432C190.002 13.6591 190.184 13.8807 190.372 14.108L194.377 19H193.167L189.86 15.0114C189.554 14.642 189.275 14.3068 189.025 14.0057C188.775 13.7045 188.576 13.4077 188.429 13.1151C188.281 12.8224 188.207 12.5057 188.207 12.1648C188.207 11.7727 188.294 11.429 188.467 11.1335C188.643 10.8352 188.889 10.6037 189.204 10.4389C189.522 10.2713 189.895 10.1875 190.321 10.1875C190.758 10.1875 191.135 10.2727 191.45 10.4432C191.765 10.6108 192.008 10.8338 192.179 11.1122C192.349 11.3878 192.434 11.6875 192.434 12.0114C192.434 12.429 192.331 12.7912 192.123 13.098C191.916 13.4048 191.633 13.6903 191.275 13.9545L189.537 15.25C189.145 15.5398 188.879 15.821 188.74 16.0938C188.6 16.3665 188.531 16.5625 188.531 16.6818C188.531 16.9545 188.602 17.2088 188.744 17.4446C188.886 17.6804 189.086 17.8707 189.345 18.0156C189.603 18.1605 189.906 18.233 190.252 18.233C190.582 18.233 190.903 18.1634 191.216 18.0241C191.528 17.8821 191.811 17.6776 192.064 17.4105C192.319 17.1435 192.521 16.8224 192.669 16.4474C192.819 16.0724 192.895 15.6506 192.895 15.1818H193.866C193.866 15.7614 193.799 16.2344 193.666 16.6009C193.532 16.9673 193.382 17.2543 193.214 17.4616C193.047 17.669 192.912 17.8239 192.809 17.9261C192.775 17.9687 192.744 18.0114 192.716 18.054C192.687 18.0966 192.656 18.1392 192.622 18.1818C192.341 18.4972 191.985 18.733 191.556 18.8892C191.127 19.0426 190.704 19.1193 190.287 19.1193ZM198.866 19V12.4545H199.837V13.4773H199.923C200.059 13.1278 200.279 12.8565 200.583 12.6634C200.887 12.4673 201.252 12.3693 201.678 12.3693C202.11 12.3693 202.469 12.4673 202.756 12.6634C203.046 12.8565 203.272 13.1278 203.434 13.4773H203.502C203.67 13.1392 203.921 12.8707 204.256 12.6719C204.592 12.4702 204.994 12.3693 205.462 12.3693C206.048 12.3693 206.526 12.5526 206.898 12.919C207.271 13.2827 207.457 13.8494 207.457 14.6193V19H206.451V14.6193C206.451 14.1364 206.319 13.7912 206.055 13.5838C205.79 13.3764 205.479 13.2727 205.121 13.2727C204.661 13.2727 204.305 13.4119 204.052 13.6903C203.799 13.9659 203.673 14.3153 203.673 14.7386V19H202.65V14.517C202.65 14.1449 202.529 13.8452 202.288 13.6179C202.046 13.3878 201.735 13.2727 201.354 13.2727C201.093 13.2727 200.849 13.3423 200.621 13.4815C200.397 13.6207 200.215 13.8139 200.076 14.0611C199.94 14.3054 199.871 14.5881 199.871 14.9091V19H198.866ZM212.04 19.1364C211.409 19.1364 210.865 18.9972 210.408 18.7188C209.953 18.4375 209.602 18.0455 209.355 17.5426C209.111 17.0369 208.989 16.4489 208.989 15.7784C208.989 15.108 209.111 14.517 209.355 14.0057C209.602 13.4915 209.946 13.0909 210.386 12.804C210.83 12.5142 211.347 12.3693 211.938 12.3693C212.278 12.3693 212.615 12.4261 212.947 12.5398C213.28 12.6534 213.582 12.8381 213.855 13.0938C214.128 13.3466 214.345 13.6818 214.507 14.0994C214.669 14.517 214.75 15.0312 214.75 15.642V16.0682H209.705V15.1989H213.727C213.727 14.8295 213.653 14.5 213.506 14.2102C213.361 13.9205 213.153 13.6918 212.884 13.5241C212.616 13.3565 212.301 13.2727 211.938 13.2727C211.537 13.2727 211.19 13.3722 210.898 13.571C210.608 13.767 210.385 14.0227 210.229 14.3381C210.072 14.6534 209.994 14.9915 209.994 15.3523V15.9318C209.994 16.4261 210.08 16.8452 210.25 17.1889C210.423 17.5298 210.663 17.7898 210.97 17.9688C211.277 18.1449 211.634 18.233 212.04 18.233C212.304 18.233 212.543 18.196 212.756 18.1222C212.972 18.0455 213.158 17.9318 213.314 17.7812C213.47 17.6278 213.591 17.4375 213.676 17.2102L214.648 17.483C214.545 17.8125 214.374 18.1023 214.132 18.3523C213.891 18.5994 213.592 18.7926 213.237 18.9318C212.882 19.0682 212.483 19.1364 212.04 19.1364ZM218.206 19.1534C217.791 19.1534 217.415 19.0753 217.077 18.919C216.739 18.7599 216.47 18.5312 216.271 18.233C216.072 17.9318 215.973 17.5682 215.973 17.142C215.973 16.767 216.047 16.4631 216.195 16.2301C216.342 15.9943 216.54 15.8097 216.787 15.6761C217.034 15.5426 217.307 15.4432 217.605 15.3778C217.906 15.3097 218.209 15.2557 218.513 15.2159C218.911 15.1648 219.233 15.1264 219.48 15.1009C219.73 15.0724 219.912 15.0256 220.026 14.9602C220.142 14.8949 220.2 14.7812 220.2 14.6193V14.5852C220.2 14.1648 220.085 13.8381 219.855 13.6051C219.628 13.3722 219.283 13.2557 218.82 13.2557C218.339 13.2557 217.963 13.3608 217.69 13.571C217.418 13.7812 217.226 14.0057 217.115 14.2443L216.161 13.9034C216.331 13.5057 216.558 13.196 216.842 12.9744C217.129 12.75 217.442 12.5937 217.78 12.5057C218.121 12.4148 218.456 12.3693 218.786 12.3693C218.996 12.3693 219.237 12.3949 219.51 12.446C219.786 12.4943 220.051 12.5952 220.307 12.7486C220.565 12.902 220.78 13.1335 220.95 13.4432C221.121 13.7528 221.206 14.1676 221.206 14.6875V19H220.2V18.1136H220.149C220.081 18.2557 219.967 18.4077 219.808 18.5696C219.649 18.7315 219.438 18.8693 219.173 18.983C218.909 19.0966 218.587 19.1534 218.206 19.1534ZM218.359 18.25C218.757 18.25 219.092 18.1719 219.365 18.0156C219.641 17.8594 219.848 17.6577 219.987 17.4105C220.129 17.1634 220.2 16.9034 220.2 16.6307V15.7102C220.158 15.7614 220.064 15.8082 219.919 15.8509C219.777 15.8906 219.612 15.9261 219.425 15.9574C219.24 15.9858 219.06 16.0114 218.884 16.0341C218.71 16.054 218.57 16.071 218.462 16.0852C218.2 16.1193 217.956 16.1747 217.729 16.2514C217.504 16.3253 217.322 16.4375 217.183 16.5881C217.047 16.7358 216.979 16.9375 216.979 17.1932C216.979 17.5426 217.108 17.8068 217.366 17.9858C217.628 18.1619 217.959 18.25 218.359 18.25ZM224.047 10.2727V19H223.042V10.2727H224.047ZM229.264 21.4545V12.4545H230.236V13.4943H230.355C230.429 13.3807 230.531 13.2358 230.662 13.0597C230.795 12.8807 230.986 12.7216 231.233 12.5824C231.483 12.4403 231.821 12.3693 232.247 12.3693C232.798 12.3693 233.284 12.5071 233.705 12.7827C234.125 13.0582 234.453 13.4489 234.689 13.9545C234.925 14.4602 235.043 15.0568 235.043 15.7443C235.043 16.4375 234.925 17.0384 234.689 17.5469C234.453 18.0526 234.126 18.4446 233.709 18.723C233.291 18.9986 232.81 19.1364 232.264 19.1364C231.844 19.1364 231.507 19.0668 231.254 18.9276C231.001 18.7855 230.807 18.625 230.67 18.446C230.534 18.2642 230.429 18.1136 230.355 17.9943H230.27V21.4545H229.264ZM230.253 15.7273C230.253 16.2216 230.325 16.6577 230.47 17.0355C230.615 17.4105 230.827 17.7045 231.105 17.9176C231.384 18.1278 231.724 18.233 232.128 18.233C232.548 18.233 232.899 18.1222 233.18 17.9006C233.464 17.6761 233.678 17.375 233.82 16.9972C233.964 16.6165 234.037 16.1932 234.037 15.7273C234.037 15.267 233.966 14.8523 233.824 14.483C233.685 14.1108 233.473 13.8168 233.189 13.6009C232.908 13.3821 232.554 13.2727 232.128 13.2727C231.719 13.2727 231.375 13.3764 231.097 13.5838C230.818 13.7884 230.608 14.0753 230.466 14.4446C230.324 14.8111 230.253 15.2386 230.253 15.7273ZM239.236 19.1364C238.645 19.1364 238.126 18.9957 237.68 18.7145C237.237 18.4332 236.891 18.0398 236.641 17.5341C236.393 17.0284 236.27 16.4375 236.27 15.7614C236.27 15.0795 236.393 14.4844 236.641 13.9759C236.891 13.4673 237.237 13.0724 237.68 12.7912C238.126 12.5099 238.645 12.3693 239.236 12.3693C239.827 12.3693 240.344 12.5099 240.787 12.7912C241.233 13.0724 241.58 13.4673 241.827 13.9759C242.077 14.4844 242.202 15.0795 242.202 15.7614C242.202 16.4375 242.077 17.0284 241.827 17.5341C241.58 18.0398 241.233 18.4332 240.787 18.7145C240.344 18.9957 239.827 19.1364 239.236 19.1364ZM239.236 18.233C239.685 18.233 240.054 18.1179 240.344 17.8878C240.634 17.6577 240.848 17.3551 240.987 16.9801C241.126 16.6051 241.196 16.1989 241.196 15.7614C241.196 15.3239 241.126 14.9162 240.987 14.5384C240.848 14.1605 240.634 13.8551 240.344 13.6222C240.054 13.3892 239.685 13.2727 239.236 13.2727C238.787 13.2727 238.418 13.3892 238.128 13.6222C237.838 13.8551 237.624 14.1605 237.484 14.5384C237.345 14.9162 237.276 15.3239 237.276 15.7614C237.276 16.1989 237.345 16.6051 237.484 16.9801C237.624 17.3551 237.838 17.6577 238.128 17.8878C238.418 18.1179 238.787 18.233 239.236 18.233ZM243.737 19V12.4545H244.708V13.4432H244.777C244.896 13.1193 245.112 12.8565 245.424 12.6548C245.737 12.4531 246.089 12.3523 246.481 12.3523C246.555 12.3523 246.647 12.3537 246.758 12.3565C246.869 12.3594 246.953 12.3636 247.01 12.3693V13.392C246.975 13.3835 246.897 13.3707 246.775 13.3537C246.656 13.3338 246.529 13.3239 246.396 13.3239C246.078 13.3239 245.794 13.3906 245.544 13.5241C245.297 13.6548 245.1 13.8366 244.956 14.0696C244.814 14.2997 244.743 14.5625 244.743 14.858V19H243.737ZM251.458 12.4545V13.3068H248.066V12.4545H251.458ZM249.055 10.8864H250.061V17.125C250.061 17.4091 250.102 17.6222 250.184 17.7642C250.27 17.9034 250.377 17.9972 250.508 18.0455C250.642 18.0909 250.782 18.1136 250.93 18.1136C251.041 18.1136 251.132 18.108 251.203 18.0966C251.274 18.0824 251.331 18.071 251.373 18.0625L251.578 18.9659C251.51 18.9915 251.414 19.017 251.292 19.0426C251.17 19.071 251.015 19.0852 250.828 19.0852C250.544 19.0852 250.265 19.0241 249.993 18.902C249.723 18.7798 249.498 18.5938 249.319 18.3438C249.143 18.0938 249.055 17.7784 249.055 17.3977V10.8864ZM252.971 19V12.4545H253.977V19H252.971ZM253.483 11.3636C253.287 11.3636 253.118 11.2969 252.975 11.1634C252.836 11.0298 252.767 10.8693 252.767 10.6818C252.767 10.4943 252.836 10.3338 252.975 10.2003C253.118 10.0668 253.287 10 253.483 10C253.679 10 253.846 10.0668 253.985 10.2003C254.127 10.3338 254.199 10.4943 254.199 10.6818C254.199 10.8693 254.127 11.0298 253.985 11.1634C253.846 11.2969 253.679 11.3636 253.483 11.3636ZM258.478 19.1364C257.887 19.1364 257.369 18.9957 256.923 18.7145C256.479 18.4332 256.133 18.0398 255.883 17.5341C255.636 17.0284 255.512 16.4375 255.512 15.7614C255.512 15.0795 255.636 14.4844 255.883 13.9759C256.133 13.4673 256.479 13.0724 256.923 12.7912C257.369 12.5099 257.887 12.3693 258.478 12.3693C259.069 12.3693 259.586 12.5099 260.029 12.7912C260.475 13.0724 260.822 13.4673 261.069 13.9759C261.319 14.4844 261.444 15.0795 261.444 15.7614C261.444 16.4375 261.319 17.0284 261.069 17.5341C260.822 18.0398 260.475 18.4332 260.029 18.7145C259.586 18.9957 259.069 19.1364 258.478 19.1364ZM258.478 18.233C258.927 18.233 259.296 18.1179 259.586 17.8878C259.876 17.6577 260.09 17.3551 260.229 16.9801C260.369 16.6051 260.438 16.1989 260.438 15.7614C260.438 15.3239 260.369 14.9162 260.229 14.5384C260.09 14.1605 259.876 13.8551 259.586 13.6222C259.296 13.3892 258.927 13.2727 258.478 13.2727C258.029 13.2727 257.66 13.3892 257.37 13.6222C257.08 13.8551 256.866 14.1605 256.727 14.5384C256.587 14.9162 256.518 15.3239 256.518 15.7614C256.518 16.1989 256.587 16.6051 256.727 16.9801C256.866 17.3551 257.08 17.6577 257.37 17.8878C257.66 18.1179 258.029 18.233 258.478 18.233ZM263.985 15.0625V19H262.979V12.4545H263.951V13.4773H264.036C264.189 13.1449 264.422 12.8778 264.735 12.6761C265.047 12.4716 265.451 12.3693 265.945 12.3693C266.388 12.3693 266.776 12.4602 267.108 12.642C267.441 12.821 267.699 13.0938 267.884 13.4602C268.069 13.8239 268.161 14.2841 268.161 14.8409V19H267.155V14.9091C267.155 14.3949 267.022 13.9943 266.755 13.7074C266.488 13.4176 266.121 13.2727 265.655 13.2727C265.334 13.2727 265.047 13.3423 264.794 13.4815C264.544 13.6207 264.347 13.8239 264.202 14.0909C264.057 14.358 263.985 14.6818 263.985 15.0625ZM274.635 13.9205L273.732 14.1761C273.675 14.0256 273.591 13.8793 273.48 13.7372C273.372 13.5923 273.224 13.473 273.037 13.3793C272.849 13.2855 272.609 13.2386 272.317 13.2386C271.916 13.2386 271.582 13.331 271.315 13.5156C271.051 13.6974 270.919 13.929 270.919 14.2102C270.919 14.4602 271.01 14.6577 271.192 14.8026C271.374 14.9474 271.658 15.0682 272.044 15.1648L273.016 15.4034C273.601 15.5455 274.037 15.7628 274.324 16.0554C274.611 16.3452 274.754 16.7187 274.754 17.1761C274.754 17.5511 274.646 17.8864 274.43 18.1818C274.217 18.4773 273.919 18.7102 273.536 18.8807C273.152 19.0511 272.706 19.1364 272.197 19.1364C271.53 19.1364 270.977 18.9915 270.54 18.7017C270.102 18.4119 269.825 17.9886 269.709 17.4318L270.663 17.1932C270.754 17.5455 270.926 17.8097 271.179 17.9858C271.435 18.1619 271.768 18.25 272.18 18.25C272.649 18.25 273.021 18.1506 273.297 17.9517C273.575 17.75 273.714 17.5085 273.714 17.2273C273.714 17 273.635 16.8097 273.476 16.6562C273.317 16.5 273.072 16.3835 272.743 16.3068L271.652 16.0511C271.053 15.9091 270.612 15.6889 270.331 15.3906C270.053 15.0895 269.913 14.7131 269.913 14.2614C269.913 13.892 270.017 13.5653 270.224 13.2812C270.435 12.9972 270.72 12.7741 271.081 12.6122C271.445 12.4503 271.857 12.3693 272.317 12.3693C272.964 12.3693 273.473 12.5114 273.842 12.7955C274.214 13.0795 274.479 13.4545 274.635 13.9205ZM277.001 19.0682C276.791 19.0682 276.61 18.9929 276.46 18.8423C276.309 18.6918 276.234 18.5114 276.234 18.3011C276.234 18.0909 276.309 17.9105 276.46 17.7599C276.61 17.6094 276.791 17.5341 277.001 17.5341C277.211 17.5341 277.392 17.6094 277.542 17.7599C277.693 17.9105 277.768 18.0909 277.768 18.3011C277.768 18.4403 277.733 18.5682 277.662 18.6847C277.593 18.8011 277.501 18.8949 277.385 18.9659C277.271 19.0341 277.143 19.0682 277.001 19.0682ZM287.857 12.4545C287.806 12.0227 287.598 11.6875 287.235 11.4489C286.871 11.2102 286.425 11.0909 285.897 11.0909C285.51 11.0909 285.172 11.1534 284.882 11.2784C284.596 11.4034 284.371 11.5753 284.209 11.794C284.05 12.0128 283.971 12.2614 283.971 12.5398C283.971 12.7727 284.026 12.973 284.137 13.1406C284.25 13.3054 284.395 13.4432 284.571 13.554C284.748 13.6619 284.932 13.7514 285.125 13.8224C285.319 13.8906 285.496 13.946 285.658 13.9886L286.544 14.2273C286.772 14.2869 287.025 14.3693 287.303 14.4744C287.584 14.5795 287.853 14.723 288.108 14.9048C288.367 15.0838 288.58 15.3139 288.748 15.5952C288.915 15.8764 288.999 16.2216 288.999 16.6307C288.999 17.1023 288.875 17.5284 288.628 17.9091C288.384 18.2898 288.026 18.5923 287.554 18.8168C287.086 19.0412 286.516 19.1534 285.846 19.1534C285.221 19.1534 284.679 19.0526 284.222 18.8509C283.767 18.6491 283.409 18.3679 283.148 18.0071C282.89 17.6463 282.743 17.2273 282.709 16.75H283.8C283.828 17.0795 283.939 17.3523 284.132 17.5682C284.328 17.7812 284.576 17.9403 284.874 18.0455C285.175 18.1477 285.499 18.1989 285.846 18.1989C286.249 18.1989 286.611 18.1335 286.932 18.0028C287.253 17.8693 287.507 17.6847 287.695 17.4489C287.882 17.2102 287.976 16.9318 287.976 16.6136C287.976 16.3239 287.895 16.0881 287.733 15.9062C287.571 15.7244 287.358 15.5767 287.094 15.4631C286.83 15.3494 286.544 15.25 286.238 15.1648L285.164 14.858C284.482 14.6619 283.942 14.3821 283.544 14.0185C283.147 13.6548 282.948 13.179 282.948 12.5909C282.948 12.1023 283.08 11.6761 283.344 11.3125C283.611 10.946 283.969 10.6619 284.418 10.4602C284.87 10.2557 285.374 10.1534 285.931 10.1534C286.493 10.1534 286.993 10.2543 287.431 10.456C287.868 10.6548 288.215 10.9276 288.471 11.2741C288.729 11.6207 288.865 12.0142 288.88 12.4545H287.857ZM290.6 21.4545V12.4545H291.572V13.4943H291.691C291.765 13.3807 291.867 13.2358 291.998 13.0597C292.131 12.8807 292.322 12.7216 292.569 12.5824C292.819 12.4403 293.157 12.3693 293.583 12.3693C294.134 12.3693 294.62 12.5071 295.04 12.7827C295.461 13.0582 295.789 13.4489 296.025 13.9545C296.261 14.4602 296.379 15.0568 296.379 15.7443C296.379 16.4375 296.261 17.0384 296.025 17.5469C295.789 18.0526 295.462 18.4446 295.045 18.723C294.627 18.9986 294.146 19.1364 293.6 19.1364C293.18 19.1364 292.843 19.0668 292.59 18.9276C292.337 18.7855 292.143 18.625 292.006 18.446C291.87 18.2642 291.765 18.1136 291.691 17.9943H291.606V21.4545H290.6ZM291.589 15.7273C291.589 16.2216 291.661 16.6577 291.806 17.0355C291.951 17.4105 292.163 17.7045 292.441 17.9176C292.719 18.1278 293.06 18.233 293.464 18.233C293.884 18.233 294.235 18.1222 294.516 17.9006C294.8 17.6761 295.013 17.375 295.156 16.9972C295.3 16.6165 295.373 16.1932 295.373 15.7273C295.373 15.267 295.302 14.8523 295.16 14.483C295.021 14.1108 294.809 13.8168 294.525 13.6009C294.244 13.3821 293.89 13.2727 293.464 13.2727C293.055 13.2727 292.711 13.3764 292.433 13.5838C292.154 13.7884 291.944 14.0753 291.802 14.4446C291.66 14.8111 291.589 15.2386 291.589 15.7273ZM299.839 19.1534C299.424 19.1534 299.048 19.0753 298.71 18.919C298.371 18.7599 298.103 18.5312 297.904 18.233C297.705 17.9318 297.606 17.5682 297.606 17.142C297.606 16.767 297.68 16.4631 297.827 16.2301C297.975 15.9943 298.173 15.8097 298.42 15.6761C298.667 15.5426 298.94 15.4432 299.238 15.3778C299.539 15.3097 299.842 15.2557 300.146 15.2159C300.543 15.1648 300.866 15.1264 301.113 15.1009C301.363 15.0724 301.545 15.0256 301.658 14.9602C301.775 14.8949 301.833 14.7812 301.833 14.6193V14.5852C301.833 14.1648 301.718 13.8381 301.488 13.6051C301.261 13.3722 300.915 13.2557 300.452 13.2557C299.972 13.2557 299.596 13.3608 299.323 13.571C299.05 13.7812 298.859 14.0057 298.748 14.2443L297.793 13.9034C297.964 13.5057 298.191 13.196 298.475 12.9744C298.762 12.75 299.075 12.5937 299.413 12.5057C299.754 12.4148 300.089 12.3693 300.418 12.3693C300.629 12.3693 300.87 12.3949 301.143 12.446C301.418 12.4943 301.684 12.5952 301.94 12.7486C302.198 12.902 302.413 13.1335 302.583 13.4432C302.754 13.7528 302.839 14.1676 302.839 14.6875V19H301.833V18.1136H301.782C301.714 18.2557 301.6 18.4077 301.441 18.5696C301.282 18.7315 301.07 18.8693 300.806 18.983C300.542 19.0966 300.219 19.1534 299.839 19.1534ZM299.992 18.25C300.39 18.25 300.725 18.1719 300.998 18.0156C301.273 17.8594 301.481 17.6577 301.62 17.4105C301.762 17.1634 301.833 16.9034 301.833 16.6307V15.7102C301.79 15.7614 301.697 15.8082 301.552 15.8509C301.41 15.8906 301.245 15.9261 301.058 15.9574C300.873 15.9858 300.692 16.0114 300.516 16.0341C300.343 16.054 300.202 16.071 300.094 16.0852C299.833 16.1193 299.589 16.1747 299.362 16.2514C299.137 16.3253 298.955 16.4375 298.816 16.5881C298.68 16.7358 298.612 16.9375 298.612 17.1932C298.612 17.5426 298.741 17.8068 298.999 17.9858C299.261 18.1619 299.592 18.25 299.992 18.25ZM307.333 19.1364C306.72 19.1364 306.191 18.9915 305.748 18.7017C305.305 18.4119 304.964 18.0128 304.725 17.5043C304.487 16.9957 304.368 16.4148 304.368 15.7614C304.368 15.0966 304.49 14.5099 304.734 14.0014C304.981 13.4901 305.325 13.0909 305.765 12.804C306.208 12.5142 306.725 12.3693 307.316 12.3693C307.777 12.3693 308.191 12.4545 308.561 12.625C308.93 12.7955 309.233 13.0341 309.468 13.3409C309.704 13.6477 309.85 14.0057 309.907 14.4148H308.902C308.825 14.1165 308.654 13.8523 308.39 13.6222C308.129 13.3892 307.777 13.2727 307.333 13.2727C306.941 13.2727 306.598 13.375 306.302 13.5795C306.01 13.7812 305.781 14.0668 305.616 14.4361C305.454 14.8026 305.373 15.233 305.373 15.7273C305.373 16.233 305.453 16.6733 305.612 17.0483C305.774 17.4233 306.001 17.7145 306.294 17.9219C306.589 18.1293 306.936 18.233 307.333 18.233C307.595 18.233 307.832 18.1875 308.045 18.0966C308.258 18.0057 308.439 17.875 308.586 17.7045C308.734 17.5341 308.839 17.3295 308.902 17.0909H309.907C309.85 17.4773 309.71 17.8253 309.485 18.1349C309.264 18.4418 308.97 18.6861 308.603 18.8679C308.24 19.0469 307.816 19.1364 307.333 19.1364ZM311.377 19V12.4545H312.383V19H311.377ZM311.889 11.3636C311.693 11.3636 311.524 11.2969 311.382 11.1634C311.243 11.0298 311.173 10.8693 311.173 10.6818C311.173 10.4943 311.243 10.3338 311.382 10.2003C311.524 10.0668 311.693 10 311.889 10C312.085 10 312.252 10.0668 312.392 10.2003C312.534 10.3338 312.605 10.4943 312.605 10.6818C312.605 10.8693 312.534 11.0298 312.392 11.1634C312.252 11.2969 312.085 11.3636 311.889 11.3636ZM316.884 19.1364C316.293 19.1364 315.775 18.9957 315.329 18.7145C314.886 18.4332 314.539 18.0398 314.289 17.5341C314.042 17.0284 313.918 16.4375 313.918 15.7614C313.918 15.0795 314.042 14.4844 314.289 13.9759C314.539 13.4673 314.886 13.0724 315.329 12.7912C315.775 12.5099 316.293 12.3693 316.884 12.3693C317.475 12.3693 317.992 12.5099 318.435 12.7912C318.881 13.0724 319.228 13.4673 319.475 13.9759C319.725 14.4844 319.85 15.0795 319.85 15.7614C319.85 16.4375 319.725 17.0284 319.475 17.5341C319.228 18.0398 318.881 18.4332 318.435 18.7145C317.992 18.9957 317.475 19.1364 316.884 19.1364ZM316.884 18.233C317.333 18.233 317.702 18.1179 317.992 17.8878C318.282 17.6577 318.496 17.3551 318.636 16.9801C318.775 16.6051 318.844 16.1989 318.844 15.7614C318.844 15.3239 318.775 14.9162 318.636 14.5384C318.496 14.1605 318.282 13.8551 317.992 13.6222C317.702 13.3892 317.333 13.2727 316.884 13.2727C316.435 13.2727 316.066 13.3892 315.776 13.6222C315.487 13.8551 315.272 14.1605 315.133 14.5384C314.994 14.9162 314.924 15.3239 314.924 15.7614C314.924 16.1989 314.994 16.6051 315.133 16.9801C315.272 17.3551 315.487 17.6577 315.776 17.8878C316.066 18.1179 316.435 18.233 316.884 18.233ZM325.51 16.3239V12.4545H326.516V19H325.51V17.892H325.442C325.289 18.2244 325.05 18.5071 324.726 18.7401C324.402 18.9702 323.993 19.0852 323.499 19.0852C323.09 19.0852 322.726 18.9957 322.408 18.8168C322.09 18.6349 321.84 18.3622 321.658 17.9986C321.476 17.6321 321.385 17.1705 321.385 16.6136V12.4545H322.391V16.5455C322.391 17.0227 322.525 17.4034 322.792 17.6875C323.061 17.9716 323.405 18.1136 323.823 18.1136C324.073 18.1136 324.327 18.0497 324.586 17.9219C324.847 17.794 325.066 17.598 325.242 17.3338C325.421 17.0696 325.51 16.733 325.51 16.3239ZM332.994 13.9205L332.091 14.1761C332.034 14.0256 331.95 13.8793 331.839 13.7372C331.732 13.5923 331.584 13.473 331.396 13.3793C331.209 13.2855 330.969 13.2386 330.676 13.2386C330.276 13.2386 329.942 13.331 329.675 13.5156C329.411 13.6974 329.278 13.929 329.278 14.2102C329.278 14.4602 329.369 14.6577 329.551 14.8026C329.733 14.9474 330.017 15.0682 330.403 15.1648L331.375 15.4034C331.96 15.5455 332.396 15.7628 332.683 16.0554C332.97 16.3452 333.114 16.7187 333.114 17.1761C333.114 17.5511 333.006 17.8864 332.79 18.1818C332.577 18.4773 332.278 18.7102 331.895 18.8807C331.511 19.0511 331.065 19.1364 330.557 19.1364C329.889 19.1364 329.337 18.9915 328.899 18.7017C328.462 18.4119 328.185 17.9886 328.068 17.4318L329.023 17.1932C329.114 17.5455 329.286 17.8097 329.538 17.9858C329.794 18.1619 330.128 18.25 330.54 18.25C331.009 18.25 331.381 18.1506 331.656 17.9517C331.935 17.75 332.074 17.5085 332.074 17.2273C332.074 17 331.994 16.8097 331.835 16.6562C331.676 16.5 331.432 16.3835 331.102 16.3068L330.011 16.0511C329.412 15.9091 328.972 15.6889 328.69 15.3906C328.412 15.0895 328.273 14.7131 328.273 14.2614C328.273 13.892 328.376 13.5653 328.584 13.2812C328.794 12.9972 329.08 12.7741 329.44 12.6122C329.804 12.4503 330.216 12.3693 330.676 12.3693C331.324 12.3693 331.832 12.5114 332.202 12.7955C332.574 13.0795 332.838 13.4545 332.994 13.9205ZM336.127 17.8068L336.059 18.267C336.011 18.5909 335.937 18.9375 335.838 19.3068C335.741 19.6761 335.64 20.0241 335.535 20.3509C335.43 20.6776 335.343 20.9375 335.275 21.1307H334.508C334.545 20.9489 334.593 20.7088 334.653 20.4105C334.713 20.1122 334.772 19.7784 334.832 19.4091C334.895 19.0426 334.946 18.6676 334.985 18.2841L335.037 17.8068H336.127ZM30.185 34.1364C29.6396 34.1364 29.158 33.9986 28.7404 33.723C28.3228 33.4446 27.9961 33.0526 27.7603 32.5469C27.5245 32.0384 27.4066 31.4375 27.4066 30.7443C27.4066 30.0568 27.5245 29.4602 27.7603 28.9545C27.9961 28.4489 28.3242 28.0582 28.7447 27.7827C29.1651 27.5071 29.6509 27.3693 30.2021 27.3693C30.6282 27.3693 30.9648 27.4403 31.212 27.5824C31.462 27.7216 31.6523 27.8807 31.783 28.0597C31.9165 28.2358 32.0202 28.3807 32.0941 28.4943H32.1793V25.2727H33.185V34H32.2134V32.9943H32.0941C32.0202 33.1136 31.9151 33.2642 31.7788 33.446C31.6424 33.625 31.4478 33.7855 31.195 33.9276C30.9421 34.0668 30.6055 34.1364 30.185 34.1364ZM30.3214 33.233C30.7248 33.233 31.0657 33.1278 31.3441 32.9176C31.6225 32.7045 31.8342 32.4105 31.979 32.0355C32.1239 31.6577 32.1964 31.2216 32.1964 30.7273C32.1964 30.2386 32.1254 29.8111 31.9833 29.4446C31.8413 29.0753 31.631 28.7884 31.3526 28.5838C31.0742 28.3764 30.7305 28.2727 30.3214 28.2727C29.8952 28.2727 29.5401 28.3821 29.256 28.6009C28.9748 28.8168 28.7631 29.1108 28.6211 29.483C28.4819 29.8523 28.4123 30.267 28.4123 30.7273C28.4123 31.1932 28.4833 31.6165 28.6254 31.9972C28.7702 32.375 28.9833 32.6761 29.2646 32.9006C29.5487 33.1222 29.9009 33.233 30.3214 33.233ZM39.2915 31.3239V27.4545H40.2972V34H39.2915V32.892H39.2234C39.07 33.2244 38.8313 33.5071 38.5075 33.7401C38.1836 33.9702 37.7745 34.0852 37.2802 34.0852C36.8711 34.0852 36.5075 33.9957 36.1893 33.8168C35.8711 33.6349 35.6211 33.3622 35.4393 32.9986C35.2575 32.6321 35.1665 32.1705 35.1665 31.6136V27.4545H36.1722V31.5455C36.1722 32.0227 36.3058 32.4034 36.5728 32.6875C36.8427 32.9716 37.1864 33.1136 37.604 33.1136C37.854 33.1136 38.1083 33.0497 38.3668 32.9219C38.6282 32.794 38.8469 32.598 39.0231 32.3338C39.2021 32.0696 39.2915 31.733 39.2915 31.3239ZM42.1392 34V27.4545H43.1108V28.4432H43.179C43.2983 28.1193 43.5142 27.8565 43.8267 27.6548C44.1392 27.4531 44.4915 27.3523 44.8835 27.3523C44.9574 27.3523 45.0497 27.3537 45.1605 27.3565C45.2713 27.3594 45.3551 27.3636 45.4119 27.3693V28.392C45.3778 28.3835 45.2997 28.3707 45.1776 28.3537C45.0582 28.3338 44.9318 28.3239 44.7983 28.3239C44.4801 28.3239 44.196 28.3906 43.946 28.5241C43.6989 28.6548 43.5028 28.8366 43.358 29.0696C43.2159 29.2997 43.1449 29.5625 43.1449 29.858V34H42.1392ZM48.5302 34.1534C48.1154 34.1534 47.739 34.0753 47.4009 33.919C47.0629 33.7599 46.7944 33.5312 46.5955 33.233C46.3967 32.9318 46.2972 32.5682 46.2972 32.142C46.2972 31.767 46.3711 31.4631 46.5188 31.2301C46.6665 30.9943 46.864 30.8097 47.1112 30.6761C47.3583 30.5426 47.631 30.4432 47.9293 30.3778C48.2305 30.3097 48.533 30.2557 48.837 30.2159C49.2347 30.1648 49.5572 30.1264 49.8043 30.1009C50.0543 30.0724 50.2362 30.0256 50.3498 29.9602C50.4663 29.8949 50.5245 29.7812 50.5245 29.6193V29.5852C50.5245 29.1648 50.4094 28.8381 50.1793 28.6051C49.9521 28.3722 49.6069 28.2557 49.1438 28.2557C48.6637 28.2557 48.2873 28.3608 48.0146 28.571C47.7418 28.7812 47.5501 29.0057 47.4393 29.2443L46.4847 28.9034C46.6552 28.5057 46.8825 28.196 47.1665 27.9744C47.4535 27.75 47.766 27.5937 48.104 27.5057C48.445 27.4148 48.7802 27.3693 49.1097 27.3693C49.32 27.3693 49.5614 27.3949 49.8342 27.446C50.1097 27.4943 50.3754 27.5952 50.631 27.7486C50.8896 27.902 51.104 28.1335 51.2745 28.4432C51.445 28.7528 51.5302 29.1676 51.5302 29.6875V34H50.5245V33.1136H50.4734C50.4052 33.2557 50.2915 33.4077 50.1325 33.5696C49.9734 33.7315 49.7617 33.8693 49.4975 33.983C49.2333 34.0966 48.9109 34.1534 48.5302 34.1534ZM48.6836 33.25C49.0813 33.25 49.4165 33.1719 49.6893 33.0156C49.9648 32.8594 50.1722 32.6577 50.3114 32.4105C50.4535 32.1634 50.5245 31.9034 50.5245 31.6307V30.7102C50.4819 30.7614 50.3881 30.8082 50.2433 30.8509C50.1012 30.8906 49.9364 30.9261 49.7489 30.9574C49.5643 30.9858 49.3839 31.0114 49.2077 31.0341C49.0344 31.054 48.8938 31.071 48.7859 31.0852C48.5245 31.1193 48.2802 31.1747 48.0529 31.2514C47.8285 31.3253 47.6467 31.4375 47.5075 31.5881C47.3711 31.7358 47.3029 31.9375 47.3029 32.1932C47.3029 32.5426 47.4322 32.8068 47.6907 32.9858C47.9521 33.1619 48.283 33.25 48.6836 33.25ZM53.5021 34V25.2727H54.5078V28.4943H54.593C54.6669 28.3807 54.7692 28.2358 54.8999 28.0597C55.0334 27.8807 55.2237 27.7216 55.4709 27.5824C55.7209 27.4403 56.0589 27.3693 56.4851 27.3693C57.0362 27.3693 57.522 27.5071 57.9425 27.7827C58.3629 28.0582 58.6911 28.4489 58.9268 28.9545C59.1626 29.4602 59.2805 30.0568 59.2805 30.7443C59.2805 31.4375 59.1626 32.0384 58.9268 32.5469C58.6911 33.0526 58.3643 33.4446 57.9467 33.723C57.5291 33.9986 57.0476 34.1364 56.5021 34.1364C56.0817 34.1364 55.745 34.0668 55.4922 33.9276C55.2393 33.7855 55.0447 33.625 54.9084 33.446C54.772 33.2642 54.6669 33.1136 54.593 32.9943H54.4737V34H53.5021ZM54.4908 30.7273C54.4908 31.2216 54.5632 31.6577 54.7081 32.0355C54.853 32.4105 55.0646 32.7045 55.343 32.9176C55.6214 33.1278 55.9624 33.233 56.3658 33.233C56.7862 33.233 57.1371 33.1222 57.4183 32.9006C57.7024 32.6761 57.9155 32.375 58.0575 31.9972C58.2024 31.6165 58.2749 31.1932 58.2749 30.7273C58.2749 30.267 58.2038 29.8523 58.0618 29.483C57.9226 29.1108 57.7109 28.8168 57.4268 28.6009C57.1456 28.3821 56.7919 28.2727 56.3658 28.2727C55.9567 28.2727 55.6129 28.3764 55.3345 28.5838C55.0561 28.7884 54.8459 29.0753 54.7038 29.4446C54.5618 29.8111 54.4908 30.2386 54.4908 30.7273ZM61.8246 25.2727V34H60.8189V25.2727H61.8246ZM66.4109 34.1364C65.7802 34.1364 65.2362 33.9972 64.7788 33.7188C64.3242 33.4375 63.9734 33.0455 63.7262 32.5426C63.4819 32.0369 63.3597 31.4489 63.3597 30.7784C63.3597 30.108 63.4819 29.517 63.7262 29.0057C63.9734 28.4915 64.3171 28.0909 64.7575 27.804C65.2006 27.5142 65.7177 27.3693 66.3086 27.3693C66.6495 27.3693 66.9862 27.4261 67.3185 27.5398C67.6509 27.6534 67.9535 27.8381 68.2262 28.0938C68.4989 28.3466 68.7163 28.6818 68.8782 29.0994C69.0401 29.517 69.1211 30.0312 69.1211 30.642V31.0682H64.0756V30.1989H68.0984C68.0984 29.8295 68.0245 29.5 67.8768 29.2102C67.7319 28.9205 67.5245 28.6918 67.2546 28.5241C66.9876 28.3565 66.6722 28.2727 66.3086 28.2727C65.908 28.2727 65.5614 28.3722 65.2688 28.571C64.979 28.767 64.756 29.0227 64.5998 29.3381C64.4435 29.6534 64.3654 29.9915 64.3654 30.3523V30.9318C64.3654 31.4261 64.4506 31.8452 64.6211 32.1889C64.7944 32.5298 65.0344 32.7898 65.3413 32.9688C65.6481 33.1449 66.0046 33.233 66.4109 33.233C66.6751 33.233 66.9137 33.196 67.1268 33.1222C67.3427 33.0455 67.5288 32.9318 67.685 32.7812C67.8413 32.6278 67.962 32.4375 68.0472 32.2102L69.0188 32.483C68.9165 32.8125 68.7447 33.1023 68.5032 33.3523C68.2617 33.5994 67.9634 33.7926 67.6083 33.9318C67.2532 34.0682 66.854 34.1364 66.4109 34.1364ZM76.4975 34.1193C75.9237 34.1193 75.4293 34.0142 75.0146 33.804C74.5998 33.5937 74.2802 33.3054 74.0558 32.9389C73.8313 32.5724 73.7191 32.1534 73.7191 31.6818C73.7191 31.3182 73.7958 30.9957 73.9492 30.7145C74.1055 30.4304 74.32 30.1676 74.5927 29.9261C74.8683 29.6818 75.185 29.4375 75.543 29.1932L76.8043 28.2557C77.0515 28.0937 77.2489 27.9205 77.3967 27.7358C77.5472 27.5511 77.6225 27.3097 77.6225 27.0114C77.6225 26.7898 77.5245 26.5753 77.3285 26.3679C77.1353 26.1605 76.881 26.0568 76.5657 26.0568C76.3441 26.0568 76.1481 26.1136 75.9776 26.2273C75.81 26.3381 75.6779 26.4801 75.5813 26.6534C75.4876 26.8239 75.4407 27 75.4407 27.1818C75.4407 27.3864 75.4961 27.5938 75.6069 27.804C75.7205 28.0114 75.864 28.2244 76.0373 28.4432C76.2134 28.6591 76.3952 28.8807 76.5827 29.108L80.5884 34H79.3782L76.0714 30.0114C75.7646 29.642 75.4862 29.3068 75.2362 29.0057C74.9862 28.7045 74.7873 28.4077 74.6396 28.1151C74.4918 27.8224 74.418 27.5057 74.418 27.1648C74.418 26.7727 74.5046 26.429 74.6779 26.1335C74.854 25.8352 75.0998 25.6037 75.4151 25.4389C75.7333 25.2713 76.1055 25.1875 76.5316 25.1875C76.9691 25.1875 77.3455 25.2727 77.6609 25.4432C77.9762 25.6108 78.2191 25.8338 78.3896 26.1122C78.56 26.3878 78.6452 26.6875 78.6452 27.0114C78.6452 27.429 78.5415 27.7912 78.3342 28.098C78.1268 28.4048 77.8441 28.6903 77.4862 28.9545L75.7475 30.25C75.3555 30.5398 75.0898 30.821 74.9506 31.0938C74.8114 31.3665 74.7418 31.5625 74.7418 31.6818C74.7418 31.9545 74.8129 32.2088 74.9549 32.4446C75.0969 32.6804 75.2972 32.8707 75.5558 33.0156C75.8143 33.1605 76.1168 33.233 76.4634 33.233C76.793 33.233 77.114 33.1634 77.4265 33.0241C77.739 32.8821 78.0217 32.6776 78.2745 32.4105C78.5302 32.1435 78.7319 31.8224 78.8796 31.4474C79.0302 31.0724 79.1055 30.6506 79.1055 30.1818H80.0771C80.0771 30.7614 80.0103 31.2344 79.8768 31.6009C79.7433 31.9673 79.5927 32.2543 79.4251 32.4616C79.2575 32.669 79.1225 32.8239 79.0202 32.9261C78.9862 32.9687 78.9549 33.0114 78.9265 33.054C78.8981 33.0966 78.8668 33.1392 78.8327 33.1818C78.5515 33.4972 78.1964 33.733 77.7674 33.8892C77.3384 34.0426 76.9151 34.1193 76.4975 34.1193ZM85.0767 34V27.4545H86.0824V34H85.0767ZM85.5881 26.3636C85.392 26.3636 85.223 26.2969 85.081 26.1634C84.9418 26.0298 84.8722 25.8693 84.8722 25.6818C84.8722 25.4943 84.9418 25.3338 85.081 25.2003C85.223 25.0668 85.392 25 85.5881 25C85.7841 25 85.9517 25.0668 86.0909 25.2003C86.233 25.3338 86.304 25.4943 86.304 25.6818C86.304 25.8693 86.233 26.0298 86.0909 26.1634C85.9517 26.2969 85.7841 26.3636 85.5881 26.3636ZM90.396 34.1364C89.8505 34.1364 89.369 33.9986 88.9513 33.723C88.5337 33.4446 88.207 33.0526 87.9712 32.5469C87.7354 32.0384 87.6175 31.4375 87.6175 30.7443C87.6175 30.0568 87.7354 29.4602 87.9712 28.9545C88.207 28.4489 88.5352 28.0582 88.9556 27.7827C89.3761 27.5071 89.8619 27.3693 90.413 27.3693C90.8391 27.3693 91.1758 27.4403 91.4229 27.5824C91.6729 27.7216 91.8633 27.8807 91.994 28.0597C92.1275 28.2358 92.2312 28.3807 92.305 28.4943H92.3903V25.2727H93.396V34H92.4244V32.9943H92.305C92.2312 33.1136 92.1261 33.2642 91.9897 33.446C91.8533 33.625 91.6587 33.7855 91.4059 33.9276C91.1531 34.0668 90.8164 34.1364 90.396 34.1364ZM90.5323 33.233C90.9357 33.233 91.2766 33.1278 91.555 32.9176C91.8335 32.7045 92.0451 32.4105 92.19 32.0355C92.3349 31.6577 92.4073 31.2216 92.4073 30.7273C92.4073 30.2386 92.3363 29.8111 92.1942 29.4446C92.0522 29.0753 91.842 28.7884 91.5636 28.5838C91.2852 28.3764 90.9414 28.2727 90.5323 28.2727C90.1062 28.2727 89.7511 28.3821 89.467 28.6009C89.1857 28.8168 88.9741 29.1108 88.832 29.483C88.6928 29.8523 88.6232 30.267 88.6232 30.7273C88.6232 31.1932 88.6942 31.6165 88.8363 31.9972C88.9812 32.375 89.1942 32.6761 89.4755 32.9006C89.7596 33.1222 90.1119 33.233 90.5323 33.233ZM98.1218 34.1364C97.4911 34.1364 96.9471 33.9972 96.4897 33.7188C96.0352 33.4375 95.6843 33.0455 95.4371 32.5426C95.1928 32.0369 95.0707 31.4489 95.0707 30.7784C95.0707 30.108 95.1928 29.517 95.4371 29.0057C95.6843 28.4915 96.0281 28.0909 96.4684 27.804C96.9116 27.5142 97.4286 27.3693 98.0195 27.3693C98.3604 27.3693 98.6971 27.4261 99.0295 27.5398C99.3619 27.6534 99.6644 27.8381 99.9371 28.0938C100.21 28.3466 100.427 28.6818 100.589 29.0994C100.751 29.517 100.832 30.0312 100.832 30.642V31.0682H95.7866V30.1989H99.8093C99.8093 29.8295 99.7354 29.5 99.5877 29.2102C99.4428 28.9205 99.2354 28.6918 98.9656 28.5241C98.6985 28.3565 98.3832 28.2727 98.0195 28.2727C97.619 28.2727 97.2724 28.3722 96.9798 28.571C96.69 28.767 96.467 29.0227 96.3107 29.3381C96.1545 29.6534 96.0763 29.9915 96.0763 30.3523V30.9318C96.0763 31.4261 96.1616 31.8452 96.332 32.1889C96.5053 32.5298 96.7454 32.7898 97.0522 32.9688C97.359 33.1449 97.7156 33.233 98.1218 33.233C98.386 33.233 98.6246 33.196 98.8377 33.1222C99.0536 33.0455 99.2397 32.9318 99.396 32.7812C99.5522 32.6278 99.6729 32.4375 99.7582 32.2102L100.73 32.483C100.627 32.8125 100.456 33.1023 100.214 33.3523C99.9727 33.5994 99.6744 33.7926 99.3192 33.9318C98.9641 34.0682 98.565 34.1364 98.1218 34.1364ZM104.288 34.1534C103.873 34.1534 103.497 34.0753 103.159 33.919C102.821 33.7599 102.552 33.5312 102.353 33.233C102.154 32.9318 102.055 32.5682 102.055 32.142C102.055 31.767 102.129 31.4631 102.277 31.2301C102.424 30.9943 102.622 30.8097 102.869 30.6761C103.116 30.5426 103.389 30.4432 103.687 30.3778C103.988 30.3097 104.291 30.2557 104.595 30.2159C104.993 30.1648 105.315 30.1264 105.562 30.1009C105.812 30.0724 105.994 30.0256 106.108 29.9602C106.224 29.8949 106.282 29.7812 106.282 29.6193V29.5852C106.282 29.1648 106.167 28.8381 105.937 28.6051C105.71 28.3722 105.365 28.2557 104.902 28.2557C104.422 28.2557 104.045 28.3608 103.772 28.571C103.5 28.7812 103.308 29.0057 103.197 29.2443L102.243 28.9034C102.413 28.5057 102.64 28.196 102.924 27.9744C103.211 27.75 103.524 27.5937 103.862 27.5057C104.203 27.4148 104.538 27.3693 104.868 27.3693C105.078 27.3693 105.319 27.3949 105.592 27.446C105.868 27.4943 106.133 27.5952 106.389 27.7486C106.647 27.902 106.862 28.1335 107.032 28.4432C107.203 28.7528 107.288 29.1676 107.288 29.6875V34H106.282V33.1136H106.231C106.163 33.2557 106.049 33.4077 105.89 33.5696C105.731 33.7315 105.52 33.8693 105.255 33.983C104.991 34.0966 104.669 34.1534 104.288 34.1534ZM104.441 33.25C104.839 33.25 105.174 33.1719 105.447 33.0156C105.723 32.8594 105.93 32.6577 106.069 32.4105C106.211 32.1634 106.282 31.9034 106.282 31.6307V30.7102C106.24 30.7614 106.146 30.8082 106.001 30.8509C105.859 30.8906 105.694 30.9261 105.507 30.9574C105.322 30.9858 105.142 31.0114 104.966 31.0341C104.792 31.054 104.652 31.071 104.544 31.0852C104.282 31.1193 104.038 31.1747 103.811 31.2514C103.586 31.3253 103.404 31.4375 103.265 31.5881C103.129 31.7358 103.061 31.9375 103.061 32.1932C103.061 32.5426 103.19 32.8068 103.449 32.9858C103.71 33.1619 104.041 33.25 104.441 33.25ZM110.129 25.2727V34H109.124V25.2727H110.129ZM118.261 27.4545V28.3068H114.733V27.4545H118.261ZM115.789 34V26.5511C115.789 26.1761 115.877 25.8636 116.054 25.6136C116.23 25.3636 116.458 25.1761 116.74 25.0511C117.021 24.9261 117.318 24.8636 117.63 24.8636C117.877 24.8636 118.079 24.8835 118.235 24.9233C118.392 24.9631 118.508 25 118.585 25.0341L118.295 25.9034C118.244 25.8864 118.173 25.8651 118.082 25.8395C117.994 25.8139 117.877 25.8011 117.733 25.8011C117.4 25.8011 117.16 25.8849 117.012 26.0526C116.868 26.2202 116.795 26.4659 116.795 26.7898V34H115.789ZM122.06 34.1364C121.469 34.1364 120.951 33.9957 120.505 33.7145C120.061 33.4332 119.715 33.0398 119.465 32.5341C119.218 32.0284 119.094 31.4375 119.094 30.7614C119.094 30.0795 119.218 29.4844 119.465 28.9759C119.715 28.4673 120.061 28.0724 120.505 27.7912C120.951 27.5099 121.469 27.3693 122.06 27.3693C122.651 27.3693 123.168 27.5099 123.611 27.7912C124.057 28.0724 124.404 28.4673 124.651 28.9759C124.901 29.4844 125.026 30.0795 125.026 30.7614C125.026 31.4375 124.901 32.0284 124.651 32.5341C124.404 33.0398 124.057 33.4332 123.611 33.7145C123.168 33.9957 122.651 34.1364 122.06 34.1364ZM122.06 33.233C122.509 33.233 122.878 33.1179 123.168 32.8878C123.458 32.6577 123.672 32.3551 123.811 31.9801C123.951 31.6051 124.02 31.1989 124.02 30.7614C124.02 30.3239 123.951 29.9162 123.811 29.5384C123.672 29.1605 123.458 28.8551 123.168 28.6222C122.878 28.3892 122.509 28.2727 122.06 28.2727C121.611 28.2727 121.242 28.3892 120.952 28.6222C120.662 28.8551 120.448 29.1605 120.309 29.5384C120.169 29.9162 120.1 30.3239 120.1 30.7614C120.1 31.1989 120.169 31.6051 120.309 31.9801C120.448 32.3551 120.662 32.6577 120.952 32.8878C121.242 33.1179 121.611 33.233 122.06 33.233ZM126.561 34V27.4545H127.533V28.4432H127.601C127.72 28.1193 127.936 27.8565 128.249 27.6548C128.561 27.4531 128.913 27.3523 129.305 27.3523C129.379 27.3523 129.472 27.3537 129.582 27.3565C129.693 27.3594 129.777 27.3636 129.834 27.3693V28.392C129.8 28.3835 129.722 28.3707 129.599 28.3537C129.48 28.3338 129.354 28.3239 129.22 28.3239C128.902 28.3239 128.618 28.3906 128.368 28.5241C128.121 28.6548 127.925 28.8366 127.78 29.0696C127.638 29.2997 127.567 29.5625 127.567 29.858V34H126.561ZM137.316 27.4545V28.3068H133.787V27.4545H137.316ZM134.844 34V26.5511C134.844 26.1761 134.932 25.8636 135.108 25.6136C135.284 25.3636 135.513 25.1761 135.794 25.0511C136.076 24.9261 136.373 24.8636 136.685 24.8636C136.932 24.8636 137.134 24.8835 137.29 24.9233C137.446 24.9631 137.563 25 137.64 25.0341L137.35 25.9034C137.299 25.8864 137.228 25.8651 137.137 25.8395C137.049 25.8139 136.932 25.8011 136.787 25.8011C136.455 25.8011 136.215 25.8849 136.067 26.0526C135.922 26.2202 135.85 26.4659 135.85 26.7898V34H134.844ZM138.725 34V27.4545H139.697V28.4432H139.765C139.884 28.1193 140.1 27.8565 140.413 27.6548C140.725 27.4531 141.077 27.3523 141.469 27.3523C141.543 27.3523 141.636 27.3537 141.746 27.3565C141.857 27.3594 141.941 27.3636 141.998 27.3693V28.392C141.964 28.3835 141.886 28.3707 141.763 28.3537C141.644 28.3338 141.518 28.3239 141.384 28.3239C141.066 28.3239 140.782 28.3906 140.532 28.5241C140.285 28.6548 140.089 28.8366 139.944 29.0696C139.802 29.2997 139.731 29.5625 139.731 29.858V34H138.725ZM145.735 34.1364C145.104 34.1364 144.56 33.9972 144.103 33.7188C143.648 33.4375 143.298 33.0455 143.05 32.5426C142.806 32.0369 142.684 31.4489 142.684 30.7784C142.684 30.108 142.806 29.517 143.05 29.0057C143.298 28.4915 143.641 28.0909 144.082 27.804C144.525 27.5142 145.042 27.3693 145.633 27.3693C145.974 27.3693 146.31 27.4261 146.643 27.5398C146.975 27.6534 147.278 27.8381 147.55 28.0938C147.823 28.3466 148.04 28.6818 148.202 29.0994C148.364 29.517 148.445 30.0312 148.445 30.642V31.0682H143.4V30.1989H147.423C147.423 29.8295 147.349 29.5 147.201 29.2102C147.056 28.9205 146.849 28.6918 146.579 28.5241C146.312 28.3565 145.996 28.2727 145.633 28.2727C145.232 28.2727 144.886 28.3722 144.593 28.571C144.303 28.767 144.08 29.0227 143.924 29.3381C143.768 29.6534 143.69 29.9915 143.69 30.3523V30.9318C143.69 31.4261 143.775 31.8452 143.945 32.1889C144.119 32.5298 144.359 32.7898 144.665 32.9688C144.972 33.1449 145.329 33.233 145.735 33.233C145.999 33.233 146.238 33.196 146.451 33.1222C146.667 33.0455 146.853 32.9318 147.009 32.7812C147.165 32.6278 147.286 32.4375 147.371 32.2102L148.343 32.483C148.241 32.8125 148.069 33.1023 147.827 33.3523C147.586 33.5994 147.288 33.7926 146.933 33.9318C146.577 34.0682 146.178 34.1364 145.735 34.1364ZM154.612 28.9205L153.708 29.1761C153.651 29.0256 153.567 28.8793 153.457 28.7372C153.349 28.5923 153.201 28.473 153.013 28.3793C152.826 28.2855 152.586 28.2386 152.293 28.2386C151.893 28.2386 151.559 28.331 151.292 28.5156C151.028 28.6974 150.896 28.929 150.896 29.2102C150.896 29.4602 150.987 29.6577 151.168 29.8026C151.35 29.9474 151.634 30.0682 152.021 30.1648L152.992 30.4034C153.577 30.5455 154.013 30.7628 154.3 31.0554C154.587 31.3452 154.731 31.7187 154.731 32.1761C154.731 32.5511 154.623 32.8864 154.407 33.1818C154.194 33.4773 153.896 33.7102 153.512 33.8807C153.129 34.0511 152.683 34.1364 152.174 34.1364C151.506 34.1364 150.954 33.9915 150.516 33.7017C150.079 33.4119 149.802 32.9886 149.685 32.4318L150.64 32.1932C150.731 32.5455 150.903 32.8097 151.156 32.9858C151.411 33.1619 151.745 33.25 152.157 33.25C152.626 33.25 152.998 33.1506 153.273 32.9517C153.552 32.75 153.691 32.5085 153.691 32.2273C153.691 32 153.612 31.8097 153.452 31.6562C153.293 31.5 153.049 31.3835 152.719 31.3068L151.629 31.0511C151.029 30.9091 150.589 30.6889 150.308 30.3906C150.029 30.0895 149.89 29.7131 149.89 29.2614C149.89 28.892 149.994 28.5653 150.201 28.2812C150.411 27.9972 150.697 27.7741 151.058 27.6122C151.421 27.4503 151.833 27.3693 152.293 27.3693C152.941 27.3693 153.45 27.5114 153.819 27.7955C154.191 28.0795 154.455 28.4545 154.612 28.9205ZM157.25 30.0625V34H156.245V25.2727H157.25V28.4773H157.336C157.489 28.1392 157.719 27.8707 158.026 27.6719C158.336 27.4702 158.748 27.3693 159.262 27.3693C159.708 27.3693 160.098 27.4588 160.434 27.6378C160.769 27.8139 161.029 28.0852 161.213 28.4517C161.401 28.8153 161.495 29.2784 161.495 29.8409V34H160.489V29.9091C160.489 29.3892 160.354 28.9872 160.084 28.7031C159.817 28.4162 159.446 28.2727 158.972 28.2727C158.642 28.2727 158.347 28.3423 158.086 28.4815C157.827 28.6207 157.623 28.8239 157.472 29.0909C157.324 29.358 157.25 29.6818 157.25 30.0625ZM169.624 27.4545V28.3068H166.096V27.4545H169.624ZM167.153 34V26.5511C167.153 26.1761 167.241 25.8636 167.417 25.6136C167.593 25.3636 167.822 25.1761 168.103 25.0511C168.384 24.9261 168.681 24.8636 168.994 24.8636C169.241 24.8636 169.442 24.8835 169.599 24.9233C169.755 24.9631 169.871 25 169.948 25.0341L169.658 25.9034C169.607 25.8864 169.536 25.8651 169.445 25.8395C169.357 25.8139 169.241 25.8011 169.096 25.8011C168.763 25.8011 168.523 25.8849 168.376 26.0526C168.231 26.2202 168.158 26.4659 168.158 26.7898V34H167.153ZM173.423 34.1364C172.832 34.1364 172.314 33.9957 171.868 33.7145C171.425 33.4332 171.078 33.0398 170.828 32.5341C170.581 32.0284 170.457 31.4375 170.457 30.7614C170.457 30.0795 170.581 29.4844 170.828 28.9759C171.078 28.4673 171.425 28.0724 171.868 27.7912C172.314 27.5099 172.832 27.3693 173.423 27.3693C174.014 27.3693 174.531 27.5099 174.974 27.7912C175.42 28.0724 175.767 28.4673 176.014 28.9759C176.264 29.4844 176.389 30.0795 176.389 30.7614C176.389 31.4375 176.264 32.0284 176.014 32.5341C175.767 33.0398 175.42 33.4332 174.974 33.7145C174.531 33.9957 174.014 34.1364 173.423 34.1364ZM173.423 33.233C173.872 33.233 174.241 33.1179 174.531 32.8878C174.821 32.6577 175.036 32.3551 175.175 31.9801C175.314 31.6051 175.384 31.1989 175.384 30.7614C175.384 30.3239 175.314 29.9162 175.175 29.5384C175.036 29.1605 174.821 28.8551 174.531 28.6222C174.241 28.3892 173.872 28.2727 173.423 28.2727C172.974 28.2727 172.605 28.3892 172.315 28.6222C172.026 28.8551 171.811 29.1605 171.672 29.5384C171.533 29.9162 171.463 30.3239 171.463 30.7614C171.463 31.1989 171.533 31.6051 171.672 31.9801C171.811 32.3551 172.026 32.6577 172.315 32.8878C172.605 33.1179 172.974 33.233 173.423 33.233ZM180.583 34.1364C179.993 34.1364 179.474 33.9957 179.028 33.7145C178.585 33.4332 178.238 33.0398 177.988 32.5341C177.741 32.0284 177.618 31.4375 177.618 30.7614C177.618 30.0795 177.741 29.4844 177.988 28.9759C178.238 28.4673 178.585 28.0724 179.028 27.7912C179.474 27.5099 179.993 27.3693 180.583 27.3693C181.174 27.3693 181.691 27.5099 182.135 27.7912C182.581 28.0724 182.927 28.4673 183.174 28.9759C183.424 29.4844 183.549 30.0795 183.549 30.7614C183.549 31.4375 183.424 32.0284 183.174 32.5341C182.927 33.0398 182.581 33.4332 182.135 33.7145C181.691 33.9957 181.174 34.1364 180.583 34.1364ZM180.583 33.233C181.032 33.233 181.402 33.1179 181.691 32.8878C181.981 32.6577 182.196 32.3551 182.335 31.9801C182.474 31.6051 182.544 31.1989 182.544 30.7614C182.544 30.3239 182.474 29.9162 182.335 29.5384C182.196 29.1605 181.981 28.8551 181.691 28.6222C181.402 28.3892 181.032 28.2727 180.583 28.2727C180.135 28.2727 179.765 28.3892 179.475 28.6222C179.186 28.8551 178.971 29.1605 178.832 29.5384C178.693 29.9162 178.623 30.3239 178.623 30.7614C178.623 31.1989 178.693 31.6051 178.832 31.9801C178.971 32.3551 179.186 32.6577 179.475 32.8878C179.765 33.1179 180.135 33.233 180.583 33.233ZM187.556 34.1364C187.011 34.1364 186.529 33.9986 186.112 33.723C185.694 33.4446 185.367 33.0526 185.131 32.5469C184.896 32.0384 184.778 31.4375 184.778 30.7443C184.778 30.0568 184.896 29.4602 185.131 28.9545C185.367 28.4489 185.695 28.0582 186.116 27.7827C186.536 27.5071 187.022 27.3693 187.573 27.3693C187.999 27.3693 188.336 27.4403 188.583 27.5824C188.833 27.7216 189.023 27.8807 189.154 28.0597C189.288 28.2358 189.391 28.3807 189.465 28.4943H189.55V25.2727H190.556V34H189.585V32.9943H189.465C189.391 33.1136 189.286 33.2642 189.15 33.446C189.013 33.625 188.819 33.7855 188.566 33.9276C188.313 34.0668 187.977 34.1364 187.556 34.1364ZM187.692 33.233C188.096 33.233 188.437 33.1278 188.715 32.9176C188.994 32.7045 189.205 32.4105 189.35 32.0355C189.495 31.6577 189.567 31.2216 189.567 30.7273C189.567 30.2386 189.496 29.8111 189.354 29.4446C189.212 29.0753 189.002 28.7884 188.724 28.5838C188.445 28.3764 188.102 28.2727 187.692 28.2727C187.266 28.2727 186.911 28.3821 186.627 28.6009C186.346 28.8168 186.134 29.1108 185.992 29.483C185.853 29.8523 185.783 30.267 185.783 30.7273C185.783 31.1932 185.854 31.6165 185.996 31.9972C186.141 32.375 186.354 32.6761 186.636 32.9006C186.92 33.1222 187.272 33.233 187.692 33.233ZM200.549 28.9205L199.646 29.1761C199.589 29.0256 199.505 28.8793 199.394 28.7372C199.286 28.5923 199.138 28.473 198.951 28.3793C198.763 28.2855 198.523 28.2386 198.231 28.2386C197.83 28.2386 197.496 28.331 197.229 28.5156C196.965 28.6974 196.833 28.929 196.833 29.2102C196.833 29.4602 196.924 29.6577 197.106 29.8026C197.288 29.9474 197.572 30.0682 197.958 30.1648L198.93 30.4034C199.515 30.5455 199.951 30.7628 200.238 31.0554C200.525 31.3452 200.668 31.7187 200.668 32.1761C200.668 32.5511 200.56 32.8864 200.344 33.1818C200.131 33.4773 199.833 33.7102 199.45 33.8807C199.066 34.0511 198.62 34.1364 198.112 34.1364C197.444 34.1364 196.891 33.9915 196.454 33.7017C196.016 33.4119 195.739 32.9886 195.623 32.4318L196.577 32.1932C196.668 32.5455 196.84 32.8097 197.093 32.9858C197.349 33.1619 197.683 33.25 198.094 33.25C198.563 33.25 198.935 33.1506 199.211 32.9517C199.489 32.75 199.629 32.5085 199.629 32.2273C199.629 32 199.549 31.8097 199.39 31.6562C199.231 31.5 198.987 31.3835 198.657 31.3068L197.566 31.0511C196.967 30.9091 196.526 30.6889 196.245 30.3906C195.967 30.0895 195.827 29.7131 195.827 29.2614C195.827 28.892 195.931 28.5653 196.138 28.2812C196.349 27.9972 196.634 27.7741 196.995 27.6122C197.359 27.4503 197.771 27.3693 198.231 27.3693C198.879 27.3693 199.387 27.5114 199.756 27.7955C200.129 28.0795 200.393 28.4545 200.549 28.9205ZM205.029 27.4545V28.3068H201.637V27.4545H205.029ZM202.625 25.8864H203.631V32.125C203.631 32.4091 203.672 32.6222 203.755 32.7642C203.84 32.9034 203.948 32.9972 204.078 33.0455C204.212 33.0909 204.353 33.1136 204.5 33.1136C204.611 33.1136 204.702 33.108 204.773 33.0966C204.844 33.0824 204.901 33.071 204.944 33.0625L205.148 33.9659C205.08 33.9915 204.985 34.017 204.863 34.0426C204.74 34.071 204.586 34.0852 204.398 34.0852C204.114 34.0852 203.836 34.0241 203.563 33.902C203.293 33.7798 203.069 33.5938 202.89 33.3438C202.713 33.0938 202.625 32.7784 202.625 32.3977V25.8864ZM209.13 34.1364C208.539 34.1364 208.021 33.9957 207.575 33.7145C207.132 33.4332 206.785 33.0398 206.535 32.5341C206.288 32.0284 206.164 31.4375 206.164 30.7614C206.164 30.0795 206.288 29.4844 206.535 28.9759C206.785 28.4673 207.132 28.0724 207.575 27.7912C208.021 27.5099 208.539 27.3693 209.13 27.3693C209.721 27.3693 210.238 27.5099 210.681 27.7912C211.127 28.0724 211.474 28.4673 211.721 28.9759C211.971 29.4844 212.096 30.0795 212.096 30.7614C212.096 31.4375 211.971 32.0284 211.721 32.5341C211.474 33.0398 211.127 33.4332 210.681 33.7145C210.238 33.9957 209.721 34.1364 209.13 34.1364ZM209.13 33.233C209.579 33.233 209.949 33.1179 210.238 32.8878C210.528 32.6577 210.743 32.3551 210.882 31.9801C211.021 31.6051 211.091 31.1989 211.091 30.7614C211.091 30.3239 211.021 29.9162 210.882 29.5384C210.743 29.1605 210.528 28.8551 210.238 28.6222C209.949 28.3892 209.579 28.2727 209.13 28.2727C208.681 28.2727 208.312 28.3892 208.022 28.6222C207.733 28.8551 207.518 29.1605 207.379 29.5384C207.24 29.9162 207.17 30.3239 207.17 30.7614C207.17 31.1989 207.24 31.6051 207.379 31.9801C207.518 32.3551 207.733 32.6577 208.022 32.8878C208.312 33.1179 208.681 33.233 209.13 33.233ZM213.631 34V27.4545H214.603V28.4432H214.671C214.79 28.1193 215.006 27.8565 215.319 27.6548C215.631 27.4531 215.984 27.3523 216.376 27.3523C216.45 27.3523 216.542 27.3537 216.653 27.3565C216.763 27.3594 216.847 27.3636 216.904 27.3693V28.392C216.87 28.3835 216.792 28.3707 216.67 28.3537C216.55 28.3338 216.424 28.3239 216.29 28.3239C215.972 28.3239 215.688 28.3906 215.438 28.5241C215.191 28.6548 214.995 28.8366 214.85 29.0696C214.708 29.2997 214.637 29.5625 214.637 29.858V34H213.631ZM220.022 34.1534C219.608 34.1534 219.231 34.0753 218.893 33.919C218.555 33.7599 218.287 33.5312 218.088 33.233C217.889 32.9318 217.789 32.5682 217.789 32.142C217.789 31.767 217.863 31.4631 218.011 31.2301C218.159 30.9943 218.356 30.8097 218.603 30.6761C218.85 30.5426 219.123 30.4432 219.422 30.3778C219.723 30.3097 220.025 30.2557 220.329 30.2159C220.727 30.1648 221.049 30.1264 221.297 30.1009C221.547 30.0724 221.728 30.0256 221.842 29.9602C221.958 29.8949 222.017 29.7812 222.017 29.6193V29.5852C222.017 29.1648 221.902 28.8381 221.672 28.6051C221.444 28.3722 221.099 28.2557 220.636 28.2557C220.156 28.2557 219.779 28.3608 219.507 28.571C219.234 28.7812 219.042 29.0057 218.931 29.2443L217.977 28.9034C218.147 28.5057 218.375 28.196 218.659 27.9744C218.946 27.75 219.258 27.5937 219.596 27.5057C219.937 27.4148 220.272 27.3693 220.602 27.3693C220.812 27.3693 221.054 27.3949 221.326 27.446C221.602 27.4943 221.868 27.5952 222.123 27.7486C222.382 27.902 222.596 28.1335 222.767 28.4432C222.937 28.7528 223.022 29.1676 223.022 29.6875V34H222.017V33.1136H221.966C221.897 33.2557 221.784 33.4077 221.625 33.5696C221.466 33.7315 221.254 33.8693 220.99 33.983C220.725 34.0966 220.403 34.1534 220.022 34.1534ZM220.176 33.25C220.574 33.25 220.909 33.1719 221.181 33.0156C221.457 32.8594 221.664 32.6577 221.804 32.4105C221.946 32.1634 222.017 31.9034 222.017 31.6307V30.7102C221.974 30.7614 221.88 30.8082 221.735 30.8509C221.593 30.8906 221.429 30.9261 221.241 30.9574C221.056 30.9858 220.876 31.0114 220.7 31.0341C220.527 31.054 220.386 31.071 220.278 31.0852C220.017 31.1193 219.772 31.1747 219.545 31.2514C219.321 31.3253 219.139 31.4375 219 31.5881C218.863 31.7358 218.795 31.9375 218.795 32.1932C218.795 32.5426 218.924 32.8068 219.183 32.9858C219.444 33.1619 219.775 33.25 220.176 33.25ZM227.5 36.5909C227.014 36.5909 226.597 36.5284 226.247 36.4034C225.898 36.2812 225.607 36.1193 225.374 35.9176C225.143 35.7188 224.96 35.5057 224.824 35.2784L225.625 34.7159C225.716 34.8352 225.831 34.9716 225.97 35.125C226.109 35.2812 226.3 35.4162 226.541 35.5298C226.786 35.6463 227.105 35.7045 227.5 35.7045C228.028 35.7045 228.464 35.5767 228.808 35.321C229.152 35.0653 229.324 34.6648 229.324 34.1193V32.7898H229.239C229.165 32.9091 229.06 33.0568 228.923 33.233C228.79 33.4062 228.597 33.5611 228.344 33.6974C228.094 33.831 227.756 33.8977 227.33 33.8977C226.801 33.8977 226.327 33.7727 225.906 33.5227C225.489 33.2727 225.158 32.9091 224.913 32.4318C224.672 31.9545 224.551 31.375 224.551 30.6932C224.551 30.0227 224.669 29.4389 224.905 28.9418C225.141 28.4418 225.469 28.0554 225.889 27.7827C226.31 27.5071 226.795 27.3693 227.347 27.3693C227.773 27.3693 228.111 27.4403 228.361 27.5824C228.614 27.7216 228.807 27.8807 228.94 28.0597C229.077 28.2358 229.182 28.3807 229.256 28.4943H229.358V27.4545H230.33V34.1875C230.33 34.75 230.202 35.2074 229.946 35.5597C229.693 35.9148 229.352 36.1747 228.923 36.3395C228.497 36.5071 228.023 36.5909 227.5 36.5909ZM227.466 32.9943C227.869 32.9943 228.21 32.902 228.489 32.7173C228.767 32.5327 228.979 32.267 229.124 31.9205C229.268 31.5739 229.341 31.1591 229.341 30.6761C229.341 30.2045 229.27 29.7884 229.128 29.4276C228.986 29.0668 228.776 28.7841 228.497 28.5795C228.219 28.375 227.875 28.2727 227.466 28.2727C227.04 28.2727 226.685 28.3807 226.401 28.5966C226.119 28.8125 225.908 29.1023 225.766 29.4659C225.626 29.8295 225.557 30.233 225.557 30.6761C225.557 31.1307 225.628 31.5327 225.77 31.8821C225.915 32.2287 226.128 32.5014 226.409 32.7003C226.693 32.8963 227.045 32.9943 227.466 32.9943ZM234.915 34.1364C234.284 34.1364 233.74 33.9972 233.283 33.7188C232.828 33.4375 232.477 33.0455 232.23 32.5426C231.986 32.0369 231.864 31.4489 231.864 30.7784C231.864 30.108 231.986 29.517 232.23 29.0057C232.477 28.4915 232.821 28.0909 233.261 27.804C233.705 27.5142 234.222 27.3693 234.812 27.3693C235.153 27.3693 235.49 27.4261 235.822 27.5398C236.155 27.6534 236.457 27.8381 236.73 28.0938C237.003 28.3466 237.22 28.6818 237.382 29.0994C237.544 29.517 237.625 30.0312 237.625 30.642V31.0682H232.58V30.1989H236.602C236.602 29.8295 236.528 29.5 236.381 29.2102C236.236 28.9205 236.028 28.6918 235.759 28.5241C235.491 28.3565 235.176 28.2727 234.812 28.2727C234.412 28.2727 234.065 28.3722 233.773 28.571C233.483 28.767 233.26 29.0227 233.104 29.3381C232.947 29.6534 232.869 29.9915 232.869 30.3523V30.9318C232.869 31.4261 232.955 31.8452 233.125 32.1889C233.298 32.5298 233.538 32.7898 233.845 32.9688C234.152 33.1449 234.509 33.233 234.915 33.233C235.179 33.233 235.418 33.196 235.631 33.1222C235.847 33.0455 236.033 32.9318 236.189 32.7812C236.345 32.6278 236.466 32.4375 236.551 32.2102L237.523 32.483C237.42 32.8125 237.249 33.1023 237.007 33.3523C236.766 33.5994 236.467 33.7926 236.112 33.9318C235.757 34.0682 235.358 34.1364 234.915 34.1364ZM244.456 34.1534C244.041 34.1534 243.665 34.0753 243.327 33.919C242.989 33.7599 242.72 33.5312 242.521 33.233C242.322 32.9318 242.223 32.5682 242.223 32.142C242.223 31.767 242.297 31.4631 242.445 31.2301C242.592 30.9943 242.79 30.8097 243.037 30.6761C243.284 30.5426 243.557 30.4432 243.855 30.3778C244.156 30.3097 244.459 30.2557 244.763 30.2159C245.161 30.1648 245.483 30.1264 245.73 30.1009C245.98 30.0724 246.162 30.0256 246.276 29.9602C246.392 29.8949 246.45 29.7812 246.45 29.6193V29.5852C246.45 29.1648 246.335 28.8381 246.105 28.6051C245.878 28.3722 245.533 28.2557 245.07 28.2557C244.589 28.2557 244.213 28.3608 243.94 28.571C243.668 28.7812 243.476 29.0057 243.365 29.2443L242.411 28.9034C242.581 28.5057 242.808 28.196 243.092 27.9744C243.379 27.75 243.692 27.5937 244.03 27.5057C244.371 27.4148 244.706 27.3693 245.036 27.3693C245.246 27.3693 245.487 27.3949 245.76 27.446C246.036 27.4943 246.301 27.5952 246.557 27.7486C246.815 27.902 247.03 28.1335 247.2 28.4432C247.371 28.7528 247.456 29.1676 247.456 29.6875V34H246.45V33.1136H246.399C246.331 33.2557 246.217 33.4077 246.058 33.5696C245.899 33.7315 245.688 33.8693 245.423 33.983C245.159 34.0966 244.837 34.1534 244.456 34.1534ZM244.609 33.25C245.007 33.25 245.342 33.1719 245.615 33.0156C245.891 32.8594 246.098 32.6577 246.237 32.4105C246.379 32.1634 246.45 31.9034 246.45 31.6307V30.7102C246.408 30.7614 246.314 30.8082 246.169 30.8509C246.027 30.8906 245.862 30.9261 245.675 30.9574C245.49 30.9858 245.31 31.0114 245.134 31.0341C244.96 31.054 244.82 31.071 244.712 31.0852C244.45 31.1193 244.206 31.1747 243.979 31.2514C243.754 31.3253 243.572 31.4375 243.433 31.5881C243.297 31.7358 243.229 31.9375 243.229 32.1932C243.229 32.5426 243.358 32.8068 243.616 32.9858C243.878 33.1619 244.209 33.25 244.609 33.25ZM250.297 30.0625V34H249.292V27.4545H250.263V28.4773H250.348C250.502 28.1449 250.735 27.8778 251.047 27.6761C251.36 27.4716 251.763 27.3693 252.257 27.3693C252.701 27.3693 253.088 27.4602 253.421 27.642C253.753 27.821 254.012 28.0938 254.196 28.4602C254.381 28.8239 254.473 29.2841 254.473 29.8409V34H253.468V29.9091C253.468 29.3949 253.334 28.9943 253.067 28.7074C252.8 28.4176 252.434 28.2727 251.968 28.2727C251.647 28.2727 251.36 28.3423 251.107 28.4815C250.857 28.6207 250.659 28.8239 250.515 29.0909C250.37 29.358 250.297 29.6818 250.297 30.0625ZM258.783 34.1364C258.237 34.1364 257.756 33.9986 257.338 33.723C256.92 33.4446 256.594 33.0526 256.358 32.5469C256.122 32.0384 256.004 31.4375 256.004 30.7443C256.004 30.0568 256.122 29.4602 256.358 28.9545C256.594 28.4489 256.922 28.0582 257.342 27.7827C257.763 27.5071 258.249 27.3693 258.8 27.3693C259.226 27.3693 259.563 27.4403 259.81 27.5824C260.06 27.7216 260.25 27.8807 260.381 28.0597C260.514 28.2358 260.618 28.3807 260.692 28.4943H260.777V25.2727H261.783V34H260.811V32.9943H260.692C260.618 33.1136 260.513 33.2642 260.376 33.446C260.24 33.625 260.045 33.7855 259.793 33.9276C259.54 34.0668 259.203 34.1364 258.783 34.1364ZM258.919 33.233C259.322 33.233 259.663 33.1278 259.942 32.9176C260.22 32.7045 260.432 32.4105 260.577 32.0355C260.722 31.6577 260.794 31.2216 260.794 30.7273C260.794 30.2386 260.723 29.8111 260.581 29.4446C260.439 29.0753 260.229 28.7884 259.95 28.5838C259.672 28.3764 259.328 28.2727 258.919 28.2727C258.493 28.2727 258.138 28.3821 257.854 28.6009C257.572 28.8168 257.361 29.1108 257.219 29.483C257.08 29.8523 257.01 30.267 257.01 30.7273C257.01 31.1932 257.081 31.6165 257.223 31.9972C257.368 32.375 257.581 32.6761 257.862 32.9006C258.146 33.1222 258.499 33.233 258.919 33.233ZM269.986 27.4545V28.3068H266.594V27.4545H269.986ZM267.582 25.8864H268.588V32.125C268.588 32.4091 268.629 32.6222 268.712 32.7642C268.797 32.9034 268.905 32.9972 269.036 33.0455C269.169 33.0909 269.31 33.1136 269.457 33.1136C269.568 33.1136 269.659 33.108 269.73 33.0966C269.801 33.0824 269.858 33.071 269.901 33.0625L270.105 33.9659C270.037 33.9915 269.942 34.017 269.82 34.0426C269.697 34.071 269.543 34.0852 269.355 34.0852C269.071 34.0852 268.793 34.0241 268.52 33.902C268.25 33.7798 268.026 33.5938 267.847 33.3438C267.67 33.0938 267.582 32.7784 267.582 32.3977V25.8864ZM273.425 34.1534C273.01 34.1534 272.634 34.0753 272.295 33.919C271.957 33.7599 271.689 33.5312 271.49 33.233C271.291 32.9318 271.192 32.5682 271.192 32.142C271.192 31.767 271.266 31.4631 271.413 31.2301C271.561 30.9943 271.759 30.8097 272.006 30.6761C272.253 30.5426 272.526 30.4432 272.824 30.3778C273.125 30.3097 273.428 30.2557 273.732 30.2159C274.129 30.1648 274.452 30.1264 274.699 30.1009C274.949 30.0724 275.131 30.0256 275.244 29.9602C275.361 29.8949 275.419 29.7812 275.419 29.6193V29.5852C275.419 29.1648 275.304 28.8381 275.074 28.6051C274.847 28.3722 274.501 28.2557 274.038 28.2557C273.558 28.2557 273.182 28.3608 272.909 28.571C272.636 28.7812 272.445 29.0057 272.334 29.2443L271.379 28.9034C271.55 28.5057 271.777 28.196 272.061 27.9744C272.348 27.75 272.661 27.5937 272.999 27.5057C273.339 27.4148 273.675 27.3693 274.004 27.3693C274.214 27.3693 274.456 27.3949 274.729 27.446C275.004 27.4943 275.27 27.5952 275.526 27.7486C275.784 27.902 275.999 28.1335 276.169 28.4432C276.339 28.7528 276.425 29.1676 276.425 29.6875V34H275.419V33.1136H275.368C275.3 33.2557 275.186 33.4077 275.027 33.5696C274.868 33.7315 274.656 33.8693 274.392 33.983C274.128 34.0966 273.805 34.1534 273.425 34.1534ZM273.578 33.25C273.976 33.25 274.311 33.1719 274.584 33.0156C274.859 32.8594 275.067 32.6577 275.206 32.4105C275.348 32.1634 275.419 31.9034 275.419 31.6307V30.7102C275.376 30.7614 275.283 30.8082 275.138 30.8509C274.996 30.8906 274.831 30.9261 274.643 30.9574C274.459 30.9858 274.278 31.0114 274.102 31.0341C273.929 31.054 273.788 31.071 273.68 31.0852C273.419 31.1193 273.175 31.1747 272.947 31.2514C272.723 31.3253 272.541 31.4375 272.402 31.5881C272.266 31.7358 272.197 31.9375 272.197 32.1932C272.197 32.5426 272.327 32.8068 272.585 32.9858C272.847 33.1619 273.178 33.25 273.578 33.25ZM279.198 31.6136L279.181 30.3693H279.385L282.249 27.4545H283.493L280.442 30.5398H280.357L279.198 31.6136ZM278.26 34V25.2727H279.266V34H278.26ZM282.419 34L279.863 30.7614L280.578 30.0625L283.698 34H282.419ZM287.262 34.1364C286.632 34.1364 286.088 33.9972 285.63 33.7188C285.176 33.4375 284.825 33.0455 284.578 32.5426C284.333 32.0369 284.211 31.4489 284.211 30.7784C284.211 30.108 284.333 29.517 284.578 29.0057C284.825 28.4915 285.169 28.0909 285.609 27.804C286.052 27.5142 286.569 27.3693 287.16 27.3693C287.501 27.3693 287.838 27.4261 288.17 27.5398C288.502 27.6534 288.805 27.8381 289.078 28.0938C289.35 28.3466 289.568 28.6818 289.73 29.0994C289.892 29.517 289.973 30.0312 289.973 30.642V31.0682H284.927V30.1989H288.95C288.95 29.8295 288.876 29.5 288.728 29.2102C288.583 28.9205 288.376 28.6918 288.106 28.5241C287.839 28.3565 287.524 28.2727 287.16 28.2727C286.76 28.2727 286.413 28.3722 286.12 28.571C285.831 28.767 285.608 29.0227 285.451 29.3381C285.295 29.6534 285.217 29.9915 285.217 30.3523V30.9318C285.217 31.4261 285.302 31.8452 285.473 32.1889C285.646 32.5298 285.886 32.7898 286.193 32.9688C286.5 33.1449 286.856 33.233 287.262 33.233C287.527 33.233 287.765 33.196 287.978 33.1222C288.194 33.0455 288.38 32.9318 288.537 32.7812C288.693 32.6278 288.814 32.4375 288.899 32.2102L289.87 32.483C289.768 32.8125 289.596 33.1023 289.355 33.3523C289.113 33.5994 288.815 33.7926 288.46 33.9318C288.105 34.0682 287.706 34.1364 287.262 34.1364ZM293.429 34.1534C293.014 34.1534 292.637 34.0753 292.299 33.919C291.961 33.7599 291.693 33.5312 291.494 33.233C291.295 32.9318 291.196 32.5682 291.196 32.142C291.196 31.767 291.27 31.4631 291.417 31.2301C291.565 30.9943 291.762 30.8097 292.01 30.6761C292.257 30.5426 292.529 30.4432 292.828 30.3778C293.129 30.3097 293.431 30.2557 293.735 30.2159C294.133 30.1648 294.456 30.1264 294.703 30.1009C294.953 30.0724 295.135 30.0256 295.248 29.9602C295.365 29.8949 295.423 29.7812 295.423 29.6193V29.5852C295.423 29.1648 295.308 28.8381 295.078 28.6051C294.85 28.3722 294.505 28.2557 294.042 28.2557C293.562 28.2557 293.186 28.3608 292.913 28.571C292.64 28.7812 292.449 29.0057 292.338 29.2443L291.383 28.9034C291.554 28.5057 291.781 28.196 292.065 27.9744C292.352 27.75 292.664 27.5937 293.002 27.5057C293.343 27.4148 293.679 27.3693 294.008 27.3693C294.218 27.3693 294.46 27.3949 294.733 27.446C295.008 27.4943 295.274 27.5952 295.529 27.7486C295.788 27.902 296.002 28.1335 296.173 28.4432C296.343 28.7528 296.429 29.1676 296.429 29.6875V34H295.423V33.1136H295.372C295.304 33.2557 295.19 33.4077 295.031 33.5696C294.872 33.7315 294.66 33.8693 294.396 33.983C294.132 34.0966 293.809 34.1534 293.429 34.1534ZM293.582 33.25C293.98 33.25 294.315 33.1719 294.588 33.0156C294.863 32.8594 295.071 32.6577 295.21 32.4105C295.352 32.1634 295.423 31.9034 295.423 31.6307V30.7102C295.38 30.7614 295.287 30.8082 295.142 30.8509C295 30.8906 294.835 30.9261 294.647 30.9574C294.463 30.9858 294.282 31.0114 294.106 31.0341C293.933 31.054 293.792 31.071 293.684 31.0852C293.423 31.1193 293.179 31.1747 292.951 31.2514C292.727 31.3253 292.545 31.4375 292.406 31.5881C292.27 31.7358 292.201 31.9375 292.201 32.1932C292.201 32.5426 292.331 32.8068 292.589 32.9858C292.85 33.1619 293.181 33.25 293.582 33.25ZM299.747 34L297.753 27.4545H298.81L300.224 32.4659H300.293L301.69 27.4545H302.764L304.145 32.4489H304.213L305.628 27.4545H306.685L304.69 34H303.702L302.27 28.9716H302.168L300.736 34H299.747ZM309.94 34.1534C309.526 34.1534 309.149 34.0753 308.811 33.919C308.473 33.7599 308.205 33.5312 308.006 33.233C307.807 32.9318 307.707 32.5682 307.707 32.142C307.707 31.767 307.781 31.4631 307.929 31.2301C308.077 30.9943 308.274 30.8097 308.521 30.6761C308.768 30.5426 309.041 30.4432 309.339 30.3778C309.641 30.3097 309.943 30.2557 310.247 30.2159C310.645 30.1648 310.967 30.1264 311.214 30.1009C311.464 30.0724 311.646 30.0256 311.76 29.9602C311.876 29.8949 311.935 29.7812 311.935 29.6193V29.5852C311.935 29.1648 311.82 28.8381 311.589 28.6051C311.362 28.3722 311.017 28.2557 310.554 28.2557C310.074 28.2557 309.697 28.3608 309.425 28.571C309.152 28.7812 308.96 29.0057 308.849 29.2443L307.895 28.9034C308.065 28.5057 308.293 28.196 308.577 27.9744C308.864 27.75 309.176 27.5937 309.514 27.5057C309.855 27.4148 310.19 27.3693 310.52 27.3693C310.73 27.3693 310.972 27.3949 311.244 27.446C311.52 27.4943 311.786 27.5952 312.041 27.7486C312.3 27.902 312.514 28.1335 312.685 28.4432C312.855 28.7528 312.94 29.1676 312.94 29.6875V34H311.935V33.1136H311.884C311.815 33.2557 311.702 33.4077 311.543 33.5696C311.384 33.7315 311.172 33.8693 310.908 33.983C310.643 34.0966 310.321 34.1534 309.94 34.1534ZM310.094 33.25C310.491 33.25 310.827 33.1719 311.099 33.0156C311.375 32.8594 311.582 32.6577 311.722 32.4105C311.864 32.1634 311.935 31.9034 311.935 31.6307V30.7102C311.892 30.7614 311.798 30.8082 311.653 30.8509C311.511 30.8906 311.347 30.9261 311.159 30.9574C310.974 30.9858 310.794 31.0114 310.618 31.0341C310.445 31.054 310.304 31.071 310.196 31.0852C309.935 31.1193 309.69 31.1747 309.463 31.2514C309.239 31.3253 309.057 31.4375 308.918 31.5881C308.781 31.7358 308.713 31.9375 308.713 32.1932C308.713 32.5426 308.842 32.8068 309.101 32.9858C309.362 33.1619 309.693 33.25 310.094 33.25ZM315.189 36.4545C315.019 36.4545 314.867 36.4403 314.733 36.4119C314.6 36.3864 314.507 36.3608 314.456 36.3352L314.712 35.4489C314.956 35.5114 315.172 35.5341 315.36 35.517C315.547 35.5 315.713 35.4162 315.858 35.2656C316.006 35.1179 316.141 34.8778 316.263 34.5455L316.451 34.0341L314.03 27.4545H315.121L316.928 32.6705H316.996L318.803 27.4545H319.894L317.115 34.9545C316.99 35.2926 316.836 35.5724 316.651 35.794C316.466 36.0185 316.252 36.1847 316.007 36.2926C315.766 36.4006 315.493 36.4545 315.189 36.4545ZM328.721 31.3239V27.4545H329.727V34H328.721V32.892H328.653C328.5 33.2244 328.261 33.5071 327.937 33.7401C327.613 33.9702 327.204 34.0852 326.71 34.0852C326.301 34.0852 325.937 33.9957 325.619 33.8168C325.301 33.6349 325.051 33.3622 324.869 32.9986C324.687 32.6321 324.596 32.1705 324.596 31.6136V27.4545H325.602V31.5455C325.602 32.0227 325.735 32.4034 326.002 32.6875C326.272 32.9716 326.616 33.1136 327.034 33.1136C327.284 33.1136 327.538 33.0497 327.797 32.9219C328.058 32.794 328.277 32.598 328.453 32.3338C328.632 32.0696 328.721 31.733 328.721 31.3239ZM336.205 28.9205L335.302 29.1761C335.245 29.0256 335.161 28.8793 335.05 28.7372C334.942 28.5923 334.795 28.473 334.607 28.3793C334.42 28.2855 334.18 28.2386 333.887 28.2386C333.487 28.2386 333.153 28.331 332.886 28.5156C332.621 28.6974 332.489 28.929 332.489 29.2102C332.489 29.4602 332.58 29.6577 332.762 29.8026C332.944 29.9474 333.228 30.0682 333.614 30.1648L334.586 30.4034C335.171 30.5455 335.607 30.7628 335.894 31.0554C336.181 31.3452 336.325 31.7187 336.325 32.1761C336.325 32.5511 336.217 32.8864 336.001 33.1818C335.788 33.4773 335.489 33.7102 335.106 33.8807C334.722 34.0511 334.276 34.1364 333.768 34.1364C333.1 34.1364 332.548 33.9915 332.11 33.7017C331.673 33.4119 331.396 32.9886 331.279 32.4318L332.234 32.1932C332.325 32.5455 332.496 32.8097 332.749 32.9858C333.005 33.1619 333.339 33.25 333.751 33.25C334.219 33.25 334.592 33.1506 334.867 32.9517C335.146 32.75 335.285 32.5085 335.285 32.2273C335.285 32 335.205 31.8097 335.046 31.6562C334.887 31.5 334.643 31.3835 334.313 31.3068L333.222 31.0511C332.623 30.9091 332.183 30.6889 331.901 30.3906C331.623 30.0895 331.484 29.7131 331.484 29.2614C331.484 28.892 331.587 28.5653 331.795 28.2812C332.005 27.9972 332.29 27.7741 332.651 27.6122C333.015 27.4503 333.427 27.3693 333.887 27.3693C334.535 27.3693 335.043 27.5114 335.413 27.7955C335.785 28.0795 336.049 28.4545 336.205 28.9205ZM340.583 34.1364C339.952 34.1364 339.408 33.9972 338.951 33.7188C338.496 33.4375 338.145 33.0455 337.898 32.5426C337.654 32.0369 337.532 31.4489 337.532 30.7784C337.532 30.108 337.654 29.517 337.898 29.0057C338.145 28.4915 338.489 28.0909 338.929 27.804C339.373 27.5142 339.89 27.3693 340.48 27.3693C340.821 27.3693 341.158 27.4261 341.49 27.5398C341.823 27.6534 342.125 27.8381 342.398 28.0938C342.671 28.3466 342.888 28.6818 343.05 29.0994C343.212 29.517 343.293 30.0312 343.293 30.642V31.0682H338.248V30.1989H342.27C342.27 29.8295 342.196 29.5 342.049 29.2102C341.904 28.9205 341.696 28.6918 341.426 28.5241C341.159 28.3565 340.844 28.2727 340.48 28.2727C340.08 28.2727 339.733 28.3722 339.441 28.571C339.151 28.767 338.928 29.0227 338.772 29.3381C338.615 29.6534 338.537 29.9915 338.537 30.3523V30.9318C338.537 31.4261 338.623 31.8452 338.793 32.1889C338.966 32.5298 339.206 32.7898 339.513 32.9688C339.82 33.1449 340.176 33.233 340.583 33.233C340.847 33.233 341.086 33.196 341.299 33.1222C341.515 33.0455 341.701 32.9318 341.857 32.7812C342.013 32.6278 342.134 32.4375 342.219 32.2102L343.191 32.483C343.088 32.8125 342.917 33.1023 342.675 33.3523C342.434 33.5994 342.135 33.7926 341.78 33.9318C341.425 34.0682 341.026 34.1364 340.583 34.1364ZM345.556 34.0682C345.346 34.0682 345.165 33.9929 345.015 33.8423C344.864 33.6918 344.789 33.5114 344.789 33.3011C344.789 33.0909 344.864 32.9105 345.015 32.7599C345.165 32.6094 345.346 32.5341 345.556 32.5341C345.766 32.5341 345.946 32.6094 346.097 32.7599C346.248 32.9105 346.323 33.0909 346.323 33.3011C346.323 33.4403 346.287 33.5682 346.216 33.6847C346.148 33.8011 346.056 33.8949 345.939 33.9659C345.826 34.0341 345.698 34.0682 345.556 34.0682Z" fill="black"/>
</svg>
