<svg width="595" height="80" viewBox="0 0 595 80" fill="none" xmlns="http://www.w3.org/2000/svg">
<rect x="0.5" y="0.5" width="594" height="79" fill="white" fill-opacity="0.61" stroke="white"/>
<g filter="url(#filter0_d_1980_884)">
<circle cx="95.2113" cy="43.2113" r="20.5686" fill="#4E4E4E" stroke="#4E4E4E" stroke-width="1.28553"/>
<path d="M101.031 38.7793C101.171 38.6387 101.25 38.4481 101.25 38.2493C101.25 38.0506 101.171 37.86 101.031 37.7193L95.7808 32.4693C95.6402 32.3289 95.4496 32.25 95.2508 32.25C95.0521 32.25 94.8614 32.3289 94.7208 32.4693L89.4708 37.7193C89.3383 37.8615 89.2662 38.0496 89.2696 38.2439C89.2731 38.4382 89.3518 38.6235 89.4892 38.761C89.6266 38.8984 89.812 38.9771 90.0063 38.9805C90.2006 38.9839 90.3886 38.9118 90.5308 38.7793L94.5008 34.8093V51.1893L90.5308 47.2193C90.4622 47.1457 90.3794 47.0866 90.2874 47.0456C90.1954 47.0046 90.096 46.9825 89.9953 46.9807C89.8946 46.979 89.7946 46.9975 89.7012 47.0352C89.6078 47.0729 89.523 47.1291 89.4518 47.2003C89.3806 47.2715 89.3244 47.3564 89.2867 47.4497C89.249 47.5431 89.2305 47.6432 89.2322 47.7439C89.234 47.8446 89.256 47.9439 89.297 48.0359C89.338 48.1279 89.3971 48.2107 89.4708 48.2793L94.7208 53.5293C94.8614 53.6698 95.0521 53.7487 95.2508 53.7487C95.4496 53.7487 95.6402 53.6698 95.7808 53.5293L101.031 48.2793C101.105 48.2107 101.164 48.1279 101.205 48.0359C101.246 47.9439 101.268 47.8446 101.269 47.7439C101.271 47.6432 101.253 47.5431 101.215 47.4497C101.177 47.3564 101.121 47.2715 101.05 47.2003C100.979 47.1291 100.894 47.0729 100.8 47.0352C100.707 46.9975 100.607 46.979 100.506 46.9807C100.406 46.9825 100.306 47.0046 100.214 47.0456C100.122 47.0866 100.039 47.1457 99.9708 47.2193L96.0008 51.1893V34.8093L99.9708 38.7793C100.111 38.9198 100.302 38.9987 100.501 38.9987C100.7 38.9987 100.89 38.9198 101.031 38.7793Z" fill="white"/>
</g>
<path d="M124.817 40.6289V31.1876H126.813V35.0831H130.865V31.1876H132.857V40.6289H130.865V36.7288H126.813V40.6289H124.817ZM137.692 40.7672C136.964 40.7672 136.337 40.6197 135.812 40.3246C135.289 40.0265 134.886 39.6055 134.604 39.0615C134.321 38.5144 134.18 37.8675 134.18 37.1207C134.18 36.3923 134.321 35.753 134.604 35.2029C134.886 34.6528 135.284 34.2241 135.798 33.9167C136.314 33.6094 136.92 33.4557 137.614 33.4557C138.081 33.4557 138.516 33.531 138.919 33.6816C139.324 33.8291 139.678 34.0519 139.979 34.3501C140.283 34.6482 140.52 35.0231 140.689 35.4749C140.858 35.9236 140.943 36.4492 140.943 37.0515V37.5909H134.963V36.3739H139.094C139.094 36.0911 139.032 35.8406 138.91 35.6224C138.787 35.4042 138.616 35.2336 138.398 35.1107C138.183 34.9847 137.932 34.9217 137.646 34.9217C137.348 34.9217 137.084 34.9909 136.853 35.1292C136.626 35.2644 136.448 35.4472 136.319 35.6777C136.19 35.9052 136.124 36.1587 136.12 36.4384V37.5955C136.12 37.9459 136.185 38.2486 136.314 38.5037C136.446 38.7588 136.632 38.9555 136.872 39.0938C137.112 39.2321 137.396 39.3012 137.725 39.3012C137.943 39.3012 138.143 39.2705 138.324 39.209C138.505 39.1476 138.661 39.0554 138.79 38.9324C138.919 38.8095 139.017 38.6589 139.085 38.4806L140.901 38.6005C140.809 39.0369 140.62 39.418 140.334 39.7438C140.051 40.0665 139.686 40.3185 139.237 40.4998C138.791 40.6781 138.276 40.7672 137.692 40.7672ZM142.224 40.6289V33.5479H144.188V40.6289H142.224ZM143.211 32.6351C142.919 32.6351 142.668 32.5383 142.459 32.3447C142.253 32.148 142.15 31.9129 142.15 31.6394C142.15 31.3689 142.253 31.1369 142.459 30.9433C142.668 30.7466 142.919 30.6482 143.211 30.6482C143.503 30.6482 143.752 30.7466 143.957 30.9433C144.166 31.1369 144.271 31.3689 144.271 31.6394C144.271 31.9129 144.166 32.148 143.957 32.3447C143.752 32.5383 143.503 32.6351 143.211 32.6351ZM148.951 43.4318C148.315 43.4318 147.77 43.3442 147.315 43.169C146.863 42.9969 146.503 42.7618 146.236 42.4637C145.969 42.1656 145.795 41.8306 145.715 41.4587L147.531 41.2144C147.587 41.3558 147.674 41.4879 147.794 41.6108C147.914 41.7338 148.072 41.8321 148.269 41.9059C148.469 41.9827 148.712 42.0211 148.997 42.0211C149.425 42.0211 149.776 41.9166 150.053 41.7077C150.333 41.5017 150.473 41.156 150.473 40.6704V39.375H150.39C150.304 39.5717 150.174 39.7576 150.002 39.9328C149.83 40.108 149.609 40.2509 149.339 40.3615C149.068 40.4722 148.745 40.5275 148.37 40.5275C147.839 40.5275 147.355 40.4046 146.918 40.1587C146.485 39.9097 146.139 39.5302 145.881 39.02C145.626 38.5068 145.498 37.8583 145.498 37.0746C145.498 36.2724 145.629 35.6024 145.89 35.0646C146.151 34.5268 146.499 34.1242 146.932 33.8568C147.369 33.5894 147.846 33.4557 148.366 33.4557C148.762 33.4557 149.094 33.5233 149.362 33.6586C149.629 33.7907 149.844 33.9567 150.007 34.1564C150.173 34.3531 150.3 34.5468 150.39 34.7373H150.463V33.5479H152.413V40.6981C152.413 41.3004 152.266 41.8045 151.971 42.2101C151.676 42.6158 151.267 42.9201 150.745 43.1229C150.225 43.3288 149.627 43.4318 148.951 43.4318ZM148.993 39.0523C149.309 39.0523 149.577 38.9739 149.795 38.8172C150.016 38.6574 150.185 38.4299 150.302 38.1349C150.422 37.8368 150.482 37.4803 150.482 37.0654C150.482 36.6505 150.423 36.2909 150.307 35.9866C150.19 35.6793 150.021 35.4411 149.8 35.2721C149.578 35.103 149.309 35.0185 148.993 35.0185C148.67 35.0185 148.398 35.1061 148.177 35.2813C147.956 35.4534 147.788 35.6931 147.674 36.0004C147.561 36.3078 147.504 36.6628 147.504 37.0654C147.504 37.4741 147.561 37.8276 147.674 38.1257C147.791 38.4207 147.959 38.6497 148.177 38.8126C148.398 38.9724 148.67 39.0523 148.993 39.0523ZM155.94 36.5352V40.6289H153.976V31.1876H155.885V34.7972H155.968C156.128 34.3793 156.386 34.0519 156.742 33.8153C157.099 33.5756 157.546 33.4557 158.084 33.4557C158.575 33.4557 159.004 33.5633 159.37 33.7784C159.739 33.9905 160.025 34.2963 160.227 34.6958C160.433 35.0923 160.535 35.5671 160.532 36.1203V40.6289H158.568V36.4707C158.571 36.0343 158.46 35.6946 158.236 35.4519C158.015 35.2091 157.704 35.0877 157.305 35.0877C157.037 35.0877 156.801 35.1445 156.595 35.2582C156.392 35.3719 156.232 35.5379 156.115 35.7561C156.002 35.9712 155.943 36.2309 155.94 36.5352ZM165.844 33.5479V35.0231H161.579V33.5479H165.844ZM162.547 31.8514H164.511V38.453C164.511 38.6343 164.539 38.7757 164.594 38.8771C164.65 38.9754 164.726 39.0446 164.825 39.0845C164.926 39.1245 165.043 39.1445 165.175 39.1445C165.267 39.1445 165.36 39.1368 165.452 39.1214C165.544 39.103 165.615 39.0892 165.664 39.0799L165.973 40.5413C165.874 40.572 165.736 40.6074 165.558 40.6473C165.379 40.6904 165.163 40.7165 164.908 40.7257C164.434 40.7442 164.02 40.6812 163.663 40.5367C163.31 40.3923 163.035 40.1679 162.838 39.8636C162.641 39.5594 162.544 39.1752 162.547 38.7111V31.8514Z" fill="black"/>
<path d="M127.469 55.9005C126.962 55.9005 126.51 55.8135 126.113 55.6393C125.718 55.4651 125.405 55.2231 125.172 54.9132C124.941 54.6008 124.816 54.2384 124.795 53.826H125.763C125.784 54.0796 125.871 54.2986 126.025 54.483C126.178 54.6648 126.379 54.8057 126.628 54.9055C126.876 55.0054 127.151 55.0554 127.454 55.0554C127.792 55.0554 128.091 54.9965 128.353 54.8786C128.614 54.7608 128.819 54.5969 128.967 54.3869C129.116 54.1769 129.19 53.9336 129.19 53.657C129.19 53.3676 129.118 53.1128 128.975 52.8925C128.831 52.6697 128.621 52.4955 128.345 52.37C128.068 52.2445 127.73 52.1818 127.331 52.1818H126.701V51.3366H127.331C127.643 51.3366 127.917 51.2803 128.153 51.1676C128.391 51.0549 128.577 50.8961 128.71 50.6912C128.846 50.4863 128.913 50.2456 128.913 49.969C128.913 49.7026 128.855 49.4708 128.737 49.2736C128.619 49.0764 128.452 48.9228 128.237 48.8126C128.025 48.7025 127.774 48.6474 127.484 48.6474C127.213 48.6474 126.957 48.6974 126.716 48.7973C126.478 48.8946 126.283 49.0367 126.132 49.2237C125.981 49.4081 125.899 49.6309 125.886 49.8921H124.964C124.98 49.4798 125.104 49.1187 125.337 48.8088C125.57 48.4963 125.875 48.253 126.251 48.0789C126.63 47.9047 127.046 47.8176 127.5 47.8176C127.986 47.8176 128.404 47.9162 128.752 48.1134C129.1 48.3081 129.368 48.5655 129.555 48.8856C129.742 49.2058 129.835 49.5515 129.835 49.9229C129.835 50.366 129.719 50.7437 129.486 51.0562C129.255 51.3686 128.942 51.585 128.545 51.7054V51.7669C129.042 51.8488 129.43 52.0601 129.709 52.4008C129.988 52.7388 130.127 53.1576 130.127 53.657C130.127 54.0847 130.011 54.4689 129.778 54.8095C129.547 55.1476 129.232 55.4139 128.833 55.6086C128.433 55.8032 127.979 55.9005 127.469 55.9005ZM131.699 55.793V55.1015L134.296 52.2586C134.6 51.9257 134.851 51.6363 135.049 51.3904C135.246 51.142 135.392 50.9089 135.487 50.6912C135.584 50.471 135.633 50.2405 135.633 49.9997C135.633 49.7231 135.566 49.4836 135.433 49.2813C135.302 49.079 135.123 48.9228 134.895 48.8126C134.667 48.7025 134.411 48.6474 134.127 48.6474C133.824 48.6474 133.561 48.7102 133.335 48.8357C133.112 48.9586 132.94 49.1315 132.817 49.3543C132.696 49.5771 132.636 49.8384 132.636 50.138H131.729C131.729 49.677 131.836 49.2724 132.048 48.924C132.261 48.5757 132.55 48.3042 132.916 48.1096C133.285 47.915 133.699 47.8176 134.157 47.8176C134.618 47.8176 135.027 47.915 135.383 48.1096C135.739 48.3042 136.018 48.5668 136.22 48.8971C136.423 49.2275 136.524 49.5951 136.524 49.9997C136.524 50.2891 136.471 50.5721 136.366 50.8487C136.264 51.1228 136.085 51.4288 135.828 51.7669C135.575 52.1024 135.223 52.5122 134.772 52.9962L133.005 54.8863V54.9478H136.662V55.793H131.699ZM140.815 55.9005C140.236 55.9005 139.743 55.743 139.336 55.428C138.929 55.1104 138.618 54.6507 138.402 54.0488C138.187 53.4444 138.08 52.7145 138.08 51.8591C138.08 51.0088 138.187 50.2827 138.402 49.6808C138.62 49.0764 138.933 48.6154 139.34 48.2978C139.75 47.9777 140.241 47.8176 140.815 47.8176C141.389 47.8176 141.879 47.9777 142.286 48.2978C142.696 48.6154 143.009 49.0764 143.224 49.6808C143.441 50.2827 143.55 51.0088 143.55 51.8591C143.55 52.7145 143.443 53.4444 143.228 54.0488C143.012 54.6507 142.701 55.1104 142.294 55.428C141.887 55.743 141.394 55.9005 140.815 55.9005ZM140.815 55.0554C141.389 55.0554 141.834 54.7788 142.152 54.2256C142.469 53.6724 142.628 52.8835 142.628 51.8591C142.628 51.1778 142.555 50.5977 142.409 50.1188C142.266 49.6399 142.058 49.2749 141.787 49.0239C141.518 48.7729 141.194 48.6474 140.815 48.6474C140.246 48.6474 139.802 48.9279 139.482 49.4888C139.162 50.0471 139.002 50.8372 139.002 51.8591C139.002 52.5403 139.073 53.1192 139.217 53.5955C139.36 54.0719 139.566 54.4343 139.835 54.6827C140.107 54.9312 140.433 55.0554 140.815 55.0554ZM145.025 55.793V49.8921H145.901V50.8141H145.978C146.101 50.4991 146.3 50.2545 146.574 50.0804C146.848 49.9037 147.177 49.8153 147.561 49.8153C147.95 49.8153 148.274 49.9037 148.533 50.0804C148.794 50.2545 148.998 50.4991 149.144 50.8141H149.205C149.356 50.5094 149.583 50.2673 149.885 50.0881C150.187 49.9062 150.55 49.8153 150.972 49.8153C151.5 49.8153 151.932 49.9805 152.267 50.3109C152.603 50.6387 152.77 51.1497 152.77 51.8437V55.793H151.864V51.8437C151.864 51.4083 151.745 51.0972 151.506 50.9102C151.268 50.7232 150.988 50.6297 150.665 50.6297C150.25 50.6297 149.929 50.7552 149.701 51.0062C149.473 51.2547 149.359 51.5697 149.359 51.9513V55.793H148.437V51.7515C148.437 51.416 148.328 51.1458 148.11 50.9409C147.893 50.7335 147.612 50.6297 147.269 50.6297C147.033 50.6297 146.813 50.6925 146.608 50.818C146.406 50.9435 146.242 51.1176 146.117 51.3405C145.994 51.5607 145.932 51.8155 145.932 52.105V55.793H145.025ZM154.428 55.793V49.8921H155.304V50.8141H155.381C155.504 50.4991 155.702 50.2545 155.976 50.0804C156.25 49.9037 156.579 49.8153 156.964 49.8153C157.353 49.8153 157.677 49.9037 157.935 50.0804C158.197 50.2545 158.4 50.4991 158.546 50.8141H158.608C158.759 50.5094 158.986 50.2673 159.288 50.0881C159.59 49.9062 159.952 49.8153 160.375 49.8153C160.903 49.8153 161.334 49.9805 161.67 50.3109C162.005 50.6387 162.173 51.1497 162.173 51.8437V55.793H161.266V51.8437C161.266 51.4083 161.147 51.0972 160.909 50.9102C160.671 50.7232 160.39 50.6297 160.068 50.6297C159.653 50.6297 159.331 50.7552 159.103 51.0062C158.875 51.2547 158.761 51.5697 158.761 51.9513V55.793H157.839V51.7515C157.839 51.416 157.731 51.1458 157.513 50.9409C157.295 50.7335 157.015 50.6297 156.672 50.6297C156.436 50.6297 156.216 50.6925 156.011 50.818C155.808 50.9435 155.645 51.1176 155.519 51.3405C155.396 51.5607 155.335 51.8155 155.335 52.105V55.793H154.428Z" fill="black"/>
<line x1="215.045" y1="25.7109" x2="215.045" y2="60.7109" stroke="#C8C8C8" stroke-width="1.10919"/>
<g filter="url(#filter1_d_1980_884)">
<circle cx="250.702" cy="43.2113" r="20.5686" fill="#4E4E4E" stroke="#4E4E4E" stroke-width="1.28553"/>
<path d="M245.779 36.477C245.639 36.3365 245.448 36.2576 245.249 36.2576C245.051 36.2576 244.86 36.3365 244.719 36.477L239.469 41.727C239.329 41.8676 239.25 42.0582 239.25 42.257C239.25 42.4557 239.329 42.6464 239.469 42.787L244.719 48.037C244.862 48.1695 245.05 48.2416 245.244 48.2382C245.438 48.2347 245.624 48.156 245.761 48.0186C245.898 47.8812 245.977 47.6958 245.981 47.5015C245.984 47.3072 245.912 47.1192 245.779 46.977L241.809 43.007H258.189L254.219 46.977C254.146 47.0457 254.087 47.1285 254.046 47.2205C254.005 47.3124 253.983 47.4118 253.981 47.5125C253.979 47.6132 253.997 47.7132 254.035 47.8066C254.073 47.9 254.129 47.9848 254.2 48.056C254.272 48.1272 254.356 48.1834 254.45 48.2211C254.543 48.2588 254.643 48.2774 254.744 48.2756C254.845 48.2738 254.944 48.2518 255.036 48.2108C255.128 48.1698 255.211 48.1107 255.279 48.037L260.529 42.787C260.67 42.6464 260.749 42.4557 260.749 42.257C260.749 42.0582 260.67 41.8676 260.529 41.727L255.279 36.477C255.211 36.4033 255.128 36.3442 255.036 36.3032C254.944 36.2622 254.845 36.2402 254.744 36.2384C254.643 36.2366 254.543 36.2551 254.45 36.2929C254.356 36.3306 254.272 36.3867 254.2 36.458C254.129 36.5292 254.073 36.614 254.035 36.7074C253.997 36.8008 253.979 36.9008 253.981 37.0015C253.983 37.1022 254.005 37.2015 254.046 37.2935C254.087 37.3855 254.146 37.4683 254.219 37.537L258.189 41.507H241.809L245.779 37.537C245.92 37.3964 245.999 37.2057 245.999 37.007C245.999 36.8082 245.92 36.6176 245.779 36.477Z" fill="white"/>
</g>
<path d="M284.736 40.3906H281.389V30.9493H284.763C285.713 30.9493 286.531 31.1383 287.216 31.5163C287.901 31.8913 288.428 32.4307 288.797 33.1345C289.169 33.8382 289.355 34.6803 289.355 35.6607C289.355 36.6442 289.169 37.4894 288.797 38.1963C288.428 38.9031 287.898 39.4456 287.207 39.8236C286.518 40.2016 285.695 40.3906 284.736 40.3906ZM283.385 38.6803H284.653C285.243 38.6803 285.739 38.5758 286.142 38.3668C286.548 38.1548 286.852 37.8275 287.055 37.3849C287.261 36.9393 287.364 36.3645 287.364 35.6607C287.364 34.9631 287.261 34.393 287.055 33.9504C286.852 33.5079 286.549 33.1821 286.146 32.9731C285.744 32.7641 285.248 32.6596 284.657 32.6596H283.385V38.6803ZM290.797 40.3906V33.3096H292.761V40.3906H290.797ZM291.783 32.3968C291.491 32.3968 291.241 32.3 291.032 32.1064C290.826 31.9097 290.723 31.6746 290.723 31.4011C290.723 31.1306 290.826 30.8986 291.032 30.705C291.241 30.5083 291.491 30.4099 291.783 30.4099C292.075 30.4099 292.324 30.5083 292.53 30.705C292.739 30.8986 292.844 31.1306 292.844 31.4011C292.844 31.6746 292.739 31.9097 292.53 32.1064C292.324 32.3 292.075 32.3968 291.783 32.3968ZM294.334 40.3906V33.3096H296.206V34.5589H296.289C296.436 34.144 296.682 33.8167 297.026 33.577C297.37 33.3373 297.782 33.2174 298.262 33.2174C298.747 33.2174 299.161 33.3388 299.502 33.5816C299.843 33.8213 300.07 34.1471 300.184 34.5589H300.258C300.402 34.1533 300.663 33.829 301.041 33.5862C301.423 33.3404 301.873 33.2174 302.392 33.2174C303.053 33.2174 303.589 33.428 304.001 33.849C304.416 34.267 304.623 34.8601 304.623 35.6285V40.3906H302.664V36.0157C302.664 35.6223 302.56 35.3273 302.351 35.1306C302.142 34.9339 301.88 34.8356 301.567 34.8356C301.21 34.8356 300.932 34.9493 300.733 35.1767C300.533 35.401 300.433 35.6976 300.433 36.0664V40.3906H298.529V35.9742C298.529 35.6269 298.429 35.3503 298.229 35.1444C298.033 34.9385 297.773 34.8356 297.45 34.8356C297.232 34.8356 297.035 34.8909 296.86 35.0015C296.688 35.1091 296.551 35.2612 296.45 35.4579C296.348 35.6515 296.298 35.879 296.298 36.1402V40.3906H294.334ZM309.402 40.5289C308.673 40.5289 308.046 40.3814 307.521 40.0864C306.998 39.7882 306.596 39.3672 306.313 38.8232C306.03 38.2762 305.889 37.6292 305.889 36.8824C305.889 36.154 306.03 35.5148 306.313 34.9646C306.596 34.4145 306.994 33.9858 307.507 33.6784C308.023 33.3711 308.629 33.2174 309.323 33.2174C309.791 33.2174 310.225 33.2927 310.628 33.4433C311.034 33.5908 311.387 33.8137 311.688 34.1118C311.993 34.4099 312.229 34.7848 312.398 35.2366C312.567 35.6853 312.652 36.2109 312.652 36.8132V37.3526H306.673V36.1356H310.803C310.803 35.8528 310.742 35.6024 310.619 35.3841C310.496 35.1659 310.325 34.9954 310.107 34.8724C309.892 34.7464 309.641 34.6834 309.356 34.6834C309.058 34.6834 308.793 34.7526 308.563 34.8909C308.335 35.0261 308.157 35.209 308.028 35.4395C307.899 35.6669 307.833 35.9204 307.83 36.2001V37.3572C307.83 37.7076 307.894 38.0103 308.023 38.2654C308.155 38.5205 308.341 38.7172 308.581 38.8555C308.821 38.9938 309.105 39.0629 309.434 39.0629C309.652 39.0629 309.852 39.0322 310.033 38.9707C310.215 38.9093 310.37 38.8171 310.499 38.6941C310.628 38.5712 310.726 38.4206 310.794 38.2424L312.61 38.3622C312.518 38.7986 312.329 39.1797 312.043 39.5055C311.761 39.8282 311.395 40.0802 310.946 40.2615C310.5 40.4398 309.986 40.5289 309.402 40.5289ZM315.897 36.2969V40.3906H313.933V33.3096H315.805V34.5589H315.888C316.045 34.1471 316.308 33.8213 316.676 33.5816C317.045 33.3388 317.492 33.2174 318.018 33.2174C318.51 33.2174 318.938 33.325 319.304 33.5401C319.67 33.7553 319.954 34.0626 320.157 34.4621C320.36 34.8586 320.461 35.3319 320.461 35.882V40.3906H318.497V36.2324C318.5 35.799 318.39 35.461 318.165 35.2182C317.941 34.9723 317.632 34.8494 317.239 34.8494C316.974 34.8494 316.741 34.9062 316.538 35.02C316.338 35.1337 316.182 35.2996 316.068 35.5178C315.957 35.733 315.9 35.9927 315.897 36.2969ZM327.901 35.3288L326.103 35.4395C326.072 35.2858 326.006 35.1475 325.904 35.0246C325.803 34.8986 325.669 34.7987 325.503 34.7249C325.34 34.6481 325.145 34.6097 324.918 34.6097C324.614 34.6097 324.357 34.6742 324.148 34.8033C323.939 34.9293 323.835 35.0983 323.835 35.3104C323.835 35.4794 323.902 35.6223 324.037 35.7391C324.173 35.8559 324.405 35.9496 324.734 36.0203L326.015 36.2785C326.704 36.4199 327.217 36.6473 327.555 36.9608C327.893 37.2743 328.062 37.6861 328.062 38.1963C328.062 38.6603 327.925 39.0675 327.652 39.4179C327.381 39.7683 327.009 40.0418 326.536 40.2385C326.066 40.4321 325.523 40.5289 324.909 40.5289C323.971 40.5289 323.224 40.3338 322.668 39.9435C322.115 39.5501 321.791 39.0153 321.696 38.3392L323.627 38.2377C323.685 38.5236 323.827 38.7418 324.051 38.8924C324.276 39.0399 324.563 39.1136 324.913 39.1136C325.258 39.1136 325.534 39.0476 325.743 38.9154C325.955 38.7802 326.063 38.6065 326.066 38.3945C326.063 38.2162 325.987 38.0702 325.84 37.9565C325.692 37.8397 325.465 37.7506 325.158 37.6892L323.931 37.4448C323.24 37.3065 322.725 37.0668 322.387 36.7257C322.052 36.3845 321.885 35.9496 321.885 35.421C321.885 34.9662 322.007 34.5743 322.253 34.2455C322.502 33.9166 322.851 33.6631 323.3 33.4848C323.752 33.3066 324.28 33.2174 324.886 33.2174C325.78 33.2174 326.484 33.4064 326.997 33.7845C327.513 34.1625 327.815 34.6773 327.901 35.3288ZM329.299 40.3906V33.3096H331.262V40.3906H329.299ZM330.285 32.3968C329.993 32.3968 329.743 32.3 329.534 32.1064C329.328 31.9097 329.225 31.6746 329.225 31.4011C329.225 31.1306 329.328 30.8986 329.534 30.705C329.743 30.5083 329.993 30.4099 330.285 30.4099C330.577 30.4099 330.826 30.5083 331.032 30.705C331.241 30.8986 331.345 31.1306 331.345 31.4011C331.345 31.6746 331.241 31.9097 331.032 32.1064C330.826 32.3 330.577 32.3968 330.285 32.3968ZM336.035 40.5289C335.319 40.5289 334.7 40.3768 334.177 40.0725C333.658 39.7652 333.257 39.338 332.974 38.7909C332.691 38.2408 332.55 37.6031 332.55 36.8778C332.55 36.1463 332.691 35.5071 332.974 34.96C333.257 34.4099 333.658 33.9827 334.177 33.6784C334.7 33.3711 335.319 33.2174 336.035 33.2174C336.751 33.2174 337.369 33.3711 337.888 33.6784C338.411 33.9827 338.813 34.4099 339.096 34.96C339.379 35.5071 339.52 36.1463 339.52 36.8778C339.52 37.6031 339.379 38.2408 339.096 38.7909C338.813 39.338 338.411 39.7652 337.888 40.0725C337.369 40.3768 336.751 40.5289 336.035 40.5289ZM336.044 39.0076C336.37 39.0076 336.642 38.9154 336.86 38.731C337.078 38.5435 337.243 38.2885 337.353 37.9658C337.467 37.6431 337.524 37.2758 337.524 36.864C337.524 36.4521 337.467 36.0849 337.353 35.7622C337.243 35.4395 337.078 35.1844 336.86 34.9969C336.642 34.8094 336.37 34.7157 336.044 34.7157C335.715 34.7157 335.439 34.8094 335.214 34.9969C334.993 35.1844 334.826 35.4395 334.712 35.7622C334.601 36.0849 334.546 36.4521 334.546 36.864C334.546 37.2758 334.601 37.6431 334.712 37.9658C334.826 38.2885 334.993 38.5435 335.214 38.731C335.439 38.9154 335.715 39.0076 336.044 39.0076ZM342.761 36.2969V40.3906H340.797V33.3096H342.669V34.5589H342.752C342.909 34.1471 343.171 33.8213 343.54 33.5816C343.909 33.3388 344.356 33.2174 344.882 33.2174C345.373 33.2174 345.802 33.325 346.168 33.5401C346.534 33.7553 346.818 34.0626 347.021 34.4621C347.223 34.8586 347.325 35.3319 347.325 35.882V40.3906H345.361V36.2324C345.364 35.799 345.253 35.461 345.029 35.2182C344.805 34.9723 344.496 34.8494 344.103 34.8494C343.838 34.8494 343.605 34.9062 343.402 35.02C343.202 35.1337 343.045 35.2996 342.932 35.5178C342.821 35.733 342.764 35.9927 342.761 36.2969Z" fill="black"/>
<path d="M283.888 48.0598C284.21 48.0624 284.533 48.1238 284.856 48.2442C285.178 48.3646 285.473 48.5644 285.739 48.8435C286.006 49.1201 286.219 49.4979 286.381 49.9768C286.542 50.4558 286.623 51.0563 286.623 51.7786C286.623 52.4778 286.556 53.0988 286.423 53.6418C286.292 54.1822 286.103 54.6381 285.855 55.0094C285.609 55.3808 285.309 55.6625 284.956 55.8546C284.605 56.0467 284.208 56.1427 283.765 56.1427C283.324 56.1427 282.931 56.0556 282.585 55.8815C282.242 55.7048 281.96 55.4602 281.74 55.1477C281.522 54.8327 281.383 54.4677 281.321 54.0528H282.259C282.343 54.414 282.511 54.7123 282.762 54.948C283.016 55.181 283.35 55.2976 283.765 55.2976C284.372 55.2976 284.851 55.0325 285.201 54.5023C285.555 53.9722 285.732 53.223 285.732 52.2549H285.67C285.527 52.4701 285.356 52.6558 285.159 52.812C284.962 52.9682 284.743 53.0886 284.502 53.1731C284.261 53.2576 284.005 53.2999 283.734 53.2999C283.283 53.2999 282.87 53.1885 282.493 52.9657C282.119 52.7403 281.819 52.4317 281.594 52.0398C281.371 51.6454 281.26 51.1946 281.26 50.6875C281.26 50.206 281.367 49.7655 281.583 49.366C281.8 48.9639 282.105 48.6438 282.497 48.4056C282.891 48.1674 283.355 48.0521 283.888 48.0598ZM283.888 48.905C283.565 48.905 283.274 48.9857 283.016 49.147C282.759 49.3058 282.556 49.5209 282.405 49.7924C282.256 50.0613 282.182 50.3597 282.182 50.6875C282.182 51.0154 282.254 51.3137 282.397 51.5826C282.543 51.849 282.741 52.0616 282.992 52.2204C283.246 52.3766 283.534 52.4547 283.857 52.4547C284.1 52.4547 284.327 52.4073 284.537 52.3126C284.747 52.2152 284.93 52.0833 285.086 51.9169C285.245 51.7478 285.369 51.557 285.459 51.3445C285.548 51.1293 285.593 50.9052 285.593 50.6722C285.593 50.3648 285.519 50.0767 285.37 49.8078C285.224 49.5389 285.022 49.3212 284.763 49.1547C284.507 48.9882 284.215 48.905 283.888 48.905ZM290.592 56.1427C290.142 56.1427 289.736 56.0531 289.374 55.8738C289.013 55.6945 288.724 55.4487 288.506 55.1362C288.289 54.8237 288.169 54.4677 288.149 54.0682H289.071C289.107 54.4242 289.268 54.7187 289.555 54.9518C289.844 55.1823 290.19 55.2976 290.592 55.2976C290.915 55.2976 291.202 55.222 291.453 55.0709C291.706 54.9198 291.905 54.7123 292.048 54.4485C292.194 54.1822 292.267 53.8813 292.267 53.5457C292.267 53.2026 292.192 52.8965 292.041 52.6276C291.892 52.3561 291.687 52.1423 291.426 51.986C291.165 51.8298 290.866 51.7504 290.531 51.7478C290.29 51.7453 290.043 51.7824 289.789 51.8592C289.536 51.9335 289.327 52.0296 289.163 52.1474L288.272 52.0398L288.748 48.1674H292.836V49.0126H289.547L289.271 51.3329H289.317C289.478 51.2049 289.681 51.0986 289.924 51.0141C290.167 50.9296 290.421 50.8873 290.684 50.8873C291.166 50.8873 291.595 51.0026 291.971 51.2331C292.35 51.461 292.648 51.7734 292.863 52.1704C293.08 52.5674 293.189 53.0207 293.189 53.5304C293.189 54.0324 293.077 54.4806 292.851 54.875C292.628 55.2668 292.321 55.5767 291.929 55.8047C291.537 56.03 291.092 56.1427 290.592 56.1427ZM294.731 56.0352V50.1343H295.607V51.0563H295.683C295.806 50.7413 296.005 50.4967 296.279 50.3226C296.553 50.1459 296.882 50.0575 297.266 50.0575C297.656 50.0575 297.98 50.1459 298.238 50.3226C298.499 50.4967 298.703 50.7413 298.849 51.0563H298.91C299.062 50.7516 299.288 50.5095 299.59 50.3303C299.893 50.1484 300.255 50.0575 300.678 50.0575C301.205 50.0575 301.637 50.2227 301.972 50.5531C302.308 50.8809 302.476 51.3918 302.476 52.0859V56.0352H301.569V52.0859C301.569 51.6505 301.45 51.3393 301.212 51.1524C300.973 50.9654 300.693 50.8719 300.37 50.8719C299.955 50.8719 299.634 50.9974 299.406 51.2484C299.178 51.4968 299.064 51.8119 299.064 52.1935V56.0352H298.142V51.9937C298.142 51.6582 298.033 51.388 297.816 51.1831C297.598 50.9757 297.317 50.8719 296.974 50.8719C296.739 50.8719 296.518 50.9347 296.314 51.0602C296.111 51.1857 295.947 51.3598 295.822 51.5826C295.699 51.8029 295.637 52.0577 295.637 52.3471V56.0352H294.731ZM304.133 56.0352V50.1343H305.009V51.0563H305.086C305.209 50.7413 305.407 50.4967 305.681 50.3226C305.955 50.1459 306.285 50.0575 306.669 50.0575C307.058 50.0575 307.382 50.1459 307.641 50.3226C307.902 50.4967 308.106 50.7413 308.252 51.0563H308.313C308.464 50.7516 308.691 50.5095 308.993 50.3303C309.295 50.1484 309.658 50.0575 310.08 50.0575C310.608 50.0575 311.039 50.2227 311.375 50.5531C311.71 50.8809 311.878 51.3918 311.878 52.0859V56.0352H310.971V52.0859C310.971 51.6505 310.852 51.3393 310.614 51.1524C310.376 50.9654 310.096 50.8719 309.773 50.8719C309.358 50.8719 309.037 50.9974 308.809 51.2484C308.581 51.4968 308.467 51.8119 308.467 52.1935V56.0352H307.545V51.9937C307.545 51.6582 307.436 51.388 307.218 51.1831C307 50.9757 306.72 50.8719 306.377 50.8719C306.141 50.8719 305.921 50.9347 305.716 51.0602C305.514 51.1857 305.35 51.3598 305.224 51.5826C305.101 51.8029 305.04 52.0577 305.04 52.3471V56.0352H304.133Z" fill="black"/>
<line x1="370.537" y1="25.7109" x2="370.537" y2="60.7109" stroke="#C8C8C8" stroke-width="1.10919"/>
<g filter="url(#filter2_d_1980_884)">
<circle cx="406.194" cy="43.2113" r="20.5686" fill="#4E4E4E" stroke="#4E4E4E" stroke-width="1.28553"/>
<path d="M405.999 38.0195C406.283 38.0195 406.52 37.9235 406.712 37.7315C406.904 37.5395 407 37.3022 406.999 37.0195C406.999 36.7369 406.903 36.4995 406.711 36.3075C406.52 36.1155 406.283 36.0195 405.999 36.0195C405.716 36.0195 405.479 36.1155 405.287 36.3075C405.096 36.4995 405 36.7369 404.999 37.0195C404.999 37.3022 405.095 37.5399 405.287 37.7325C405.48 37.9252 405.717 38.0209 405.999 38.0195ZM408.824 38.0195H410.574C411.074 38.0195 411.508 38.1862 411.874 38.5195C412.241 38.8529 412.466 39.2612 412.549 39.7445L413.974 49.7445C414.058 50.3445 413.904 50.8739 413.512 51.3325C413.121 51.7912 412.617 52.0202 411.999 52.0195H399.999C399.383 52.0195 398.878 51.7905 398.486 51.3325C398.094 50.8745 397.94 50.3452 398.024 49.7445L399.449 39.7445C399.533 39.2612 399.758 38.8529 400.124 38.5195C400.491 38.1862 400.924 38.0195 401.424 38.0195H403.174C403.124 37.8529 403.083 37.6905 403.049 37.5325C403.016 37.3745 402.999 37.2035 402.999 37.0195C402.999 36.1862 403.291 35.4779 403.874 34.8945C404.458 34.3112 405.166 34.0195 405.999 34.0195C406.833 34.0195 407.541 34.3112 408.124 34.8945C408.708 35.4779 408.999 36.1862 408.999 37.0195C408.999 37.2029 408.983 37.3739 408.949 37.5325C408.916 37.6912 408.874 37.8535 408.824 38.0195Z" fill="white"/>
</g>
<path d="M445.35 40.6289L442.649 31.1876H444.829L446.392 37.7476H446.47L448.194 31.1876H450.062L451.781 37.7615H451.864L453.427 31.1876H455.607L452.906 40.6289H450.96L449.163 34.4561H449.089L447.296 40.6289H445.35ZM459.105 40.7672C458.377 40.7672 457.75 40.6197 457.224 40.3246C456.702 40.0265 456.299 39.6055 456.017 39.0615C455.734 38.5144 455.592 37.8675 455.592 37.1207C455.592 36.3923 455.734 35.753 456.017 35.2029C456.299 34.6528 456.697 34.2241 457.211 33.9167C457.727 33.6094 458.332 33.4557 459.027 33.4557C459.494 33.4557 459.929 33.531 460.332 33.6816C460.737 33.8291 461.091 34.0519 461.392 34.3501C461.696 34.6482 461.933 35.0231 462.102 35.4749C462.271 35.9236 462.355 36.4492 462.355 37.0515V37.5909H456.376V36.3739H460.507C460.507 36.0911 460.445 35.8406 460.322 35.6224C460.199 35.4042 460.029 35.2336 459.811 35.1107C459.595 34.9847 459.345 34.9217 459.059 34.9217C458.761 34.9217 458.497 34.9909 458.266 35.1292C458.039 35.2644 457.861 35.4472 457.731 35.6777C457.602 35.9052 457.536 36.1587 457.533 36.4384V37.5955C457.533 37.9459 457.598 38.2486 457.727 38.5037C457.859 38.7588 458.045 38.9555 458.285 39.0938C458.524 39.2321 458.809 39.3012 459.138 39.3012C459.356 39.3012 459.555 39.2705 459.737 39.209C459.918 39.1476 460.073 39.0554 460.202 38.9324C460.332 38.8095 460.43 38.6589 460.497 38.4806L462.314 38.6005C462.222 39.0369 462.033 39.418 461.747 39.7438C461.464 40.0665 461.098 40.3185 460.65 40.4998C460.204 40.6781 459.689 40.7672 459.105 40.7672ZM463.637 40.6289V33.5479H465.601V40.6289H463.637ZM464.623 32.6351C464.331 32.6351 464.081 32.5383 463.872 32.3447C463.666 32.148 463.563 31.9129 463.563 31.6394C463.563 31.3689 463.666 31.1369 463.872 30.9433C464.081 30.7466 464.331 30.6482 464.623 30.6482C464.915 30.6482 465.164 30.7466 465.37 30.9433C465.579 31.1369 465.684 31.3689 465.684 31.6394C465.684 31.9129 465.579 32.148 465.37 32.3447C465.164 32.5383 464.915 32.6351 464.623 32.6351ZM470.364 43.4318C469.728 43.4318 469.182 43.3442 468.728 43.169C468.276 42.9969 467.916 42.7618 467.649 42.4637C467.381 42.1656 467.208 41.8306 467.128 41.4587L468.944 41.2144C469 41.3558 469.087 41.4879 469.207 41.6108C469.327 41.7338 469.485 41.8321 469.682 41.9059C469.882 41.9827 470.124 42.0211 470.41 42.0211C470.837 42.0211 471.189 41.9166 471.466 41.7077C471.746 41.5017 471.885 41.156 471.885 40.6704V39.375H471.802C471.716 39.5717 471.587 39.7576 471.415 39.9328C471.243 40.108 471.022 40.2509 470.751 40.3615C470.481 40.4722 470.158 40.5275 469.783 40.5275C469.252 40.5275 468.767 40.4046 468.331 40.1587C467.898 39.9097 467.552 39.5302 467.294 39.02C467.039 38.5068 466.911 37.8583 466.911 37.0746C466.911 36.2724 467.042 35.6024 467.303 35.0646C467.564 34.5268 467.912 34.1242 468.345 33.8568C468.781 33.5894 469.259 33.4557 469.779 33.4557C470.175 33.4557 470.507 33.5233 470.774 33.6586C471.042 33.7907 471.257 33.9567 471.42 34.1564C471.586 34.3531 471.713 34.5468 471.802 34.7373H471.876V33.5479H473.826V40.6981C473.826 41.3004 473.679 41.8045 473.384 42.2101C473.089 42.6158 472.68 42.9201 472.157 43.1229C471.638 43.3288 471.04 43.4318 470.364 43.4318ZM470.406 39.0523C470.722 39.0523 470.989 38.9739 471.208 38.8172C471.429 38.6574 471.598 38.4299 471.715 38.1349C471.835 37.8368 471.895 37.4803 471.895 37.0654C471.895 36.6505 471.836 36.2909 471.719 35.9866C471.603 35.6793 471.434 35.4411 471.212 35.2721C470.991 35.103 470.722 35.0185 470.406 35.0185C470.083 35.0185 469.811 35.1061 469.59 35.2813C469.368 35.4534 469.201 35.6931 469.087 36.0004C468.973 36.3078 468.917 36.6628 468.917 37.0654C468.917 37.4741 468.973 37.8276 469.087 38.1257C469.204 38.4207 469.371 38.6497 469.59 38.8126C469.811 38.9724 470.083 39.0523 470.406 39.0523ZM477.353 36.5352V40.6289H475.389V31.1876H477.298V34.7972H477.381C477.54 34.3793 477.798 34.0519 478.155 33.8153C478.512 33.5756 478.959 33.4557 479.497 33.4557C479.988 33.4557 480.417 33.5633 480.783 33.7784C481.152 33.9905 481.437 34.2963 481.64 34.6958C481.846 35.0923 481.948 35.5671 481.944 36.1203V40.6289H479.981V36.4707C479.984 36.0343 479.873 35.6946 479.649 35.4519C479.427 35.2091 479.117 35.0877 478.717 35.0877C478.45 35.0877 478.213 35.1445 478.007 35.2582C477.805 35.3719 477.645 35.5379 477.528 35.7561C477.414 35.9712 477.356 36.2309 477.353 36.5352ZM487.256 33.5479V35.0231H482.992V33.5479H487.256ZM483.96 31.8514H485.924V38.453C485.924 38.6343 485.952 38.7757 486.007 38.8771C486.062 38.9754 486.139 39.0446 486.238 39.0845C486.339 39.1245 486.456 39.1445 486.588 39.1445C486.68 39.1445 486.772 39.1368 486.864 39.1214C486.957 39.103 487.027 39.0892 487.077 39.0799L487.385 40.5413C487.287 40.572 487.149 40.6074 486.971 40.6473C486.792 40.6904 486.576 40.7165 486.321 40.7257C485.847 40.7442 485.432 40.6812 485.076 40.5367C484.722 40.3923 484.447 40.1679 484.251 39.8636C484.054 39.5594 483.957 39.1752 483.96 38.7111V31.8514Z" fill="black"/>
<path d="M443.219 55.793V55.1015L445.816 52.2586C446.12 51.9257 446.371 51.6363 446.569 51.3904C446.766 51.142 446.912 50.9089 447.007 50.6912C447.104 50.471 447.153 50.2405 447.153 49.9997C447.153 49.7231 447.086 49.4836 446.953 49.2813C446.822 49.079 446.643 48.9228 446.415 48.8126C446.187 48.7025 445.931 48.6474 445.647 48.6474C445.344 48.6474 445.081 48.7102 444.855 48.8357C444.632 48.9586 444.46 49.1315 444.337 49.3543C444.216 49.5771 444.156 49.8384 444.156 50.138H443.249C443.249 49.677 443.356 49.2724 443.568 48.924C443.781 48.5757 444.07 48.3042 444.437 48.1096C444.805 47.915 445.219 47.8176 445.677 47.8176C446.138 47.8176 446.547 47.915 446.903 48.1096C447.259 48.3042 447.538 48.5668 447.74 48.8971C447.943 49.2275 448.044 49.5951 448.044 49.9997C448.044 50.2891 447.991 50.5721 447.886 50.8487C447.784 51.1228 447.605 51.4288 447.349 51.7669C447.095 52.1024 446.743 52.5122 446.292 52.9962L444.525 54.8863V54.9478H448.182V55.793H443.219ZM452.289 55.9005C451.761 55.9005 451.295 55.8071 450.891 55.6201C450.488 55.4306 450.175 55.1706 449.949 54.8402C449.724 54.5073 449.613 54.1282 449.615 53.7031C449.613 53.3701 449.678 53.0628 449.811 52.7811C449.944 52.4968 450.126 52.2599 450.357 52.0704C450.59 51.8783 450.85 51.7566 451.136 51.7054V51.6593C450.76 51.562 450.46 51.3507 450.237 51.0254C450.015 50.6976 449.905 50.325 449.907 49.9075C449.905 49.508 450.006 49.1507 450.211 48.8357C450.415 48.5207 450.697 48.2722 451.056 48.0904C451.417 47.9086 451.828 47.8176 452.289 47.8176C452.745 47.8176 453.152 47.9086 453.511 48.0904C453.869 48.2722 454.151 48.5207 454.356 48.8357C454.563 49.1507 454.668 49.508 454.671 49.9075C454.668 50.325 454.554 50.6976 454.329 51.0254C454.106 51.3507 453.81 51.562 453.441 51.6593V51.7054C453.726 51.7566 453.982 51.8783 454.21 52.0704C454.438 52.2599 454.62 52.4968 454.755 52.7811C454.891 53.0628 454.96 53.3701 454.963 53.7031C454.96 54.1282 454.845 54.5073 454.617 54.8402C454.392 55.1706 454.078 55.4306 453.676 55.6201C453.276 55.8071 452.814 55.9005 452.289 55.9005ZM452.289 55.0554C452.645 55.0554 452.952 54.9977 453.211 54.8825C453.47 54.7672 453.669 54.6046 453.81 54.3946C453.951 54.1846 454.023 53.9387 454.025 53.657C454.023 53.3599 453.946 53.0974 453.795 52.8694C453.644 52.6415 453.438 52.4622 453.176 52.3316C452.918 52.201 452.622 52.1357 452.289 52.1357C451.953 52.1357 451.654 52.201 451.39 52.3316C451.129 52.4622 450.923 52.6415 450.771 52.8694C450.623 53.0974 450.55 53.3599 450.553 53.657C450.55 53.9387 450.618 54.1846 450.756 54.3946C450.897 54.6046 451.098 54.7672 451.359 54.8825C451.62 54.9977 451.93 55.0554 452.289 55.0554ZM452.289 51.3212C452.571 51.3212 452.82 51.2649 453.038 51.1522C453.258 51.0395 453.431 50.882 453.557 50.6797C453.682 50.4774 453.746 50.2405 453.749 49.969C453.746 49.7026 453.683 49.4708 453.561 49.2736C453.438 49.0739 453.267 48.9202 453.05 48.8126C452.832 48.7025 452.578 48.6474 452.289 48.6474C451.994 48.6474 451.737 48.7025 451.517 48.8126C451.297 48.9202 451.126 49.0739 451.006 49.2736C450.885 49.4708 450.827 49.7026 450.829 49.969C450.827 50.2405 450.887 50.4774 451.01 50.6797C451.135 50.882 451.308 51.0395 451.528 51.1522C451.749 51.2649 452.002 51.3212 452.289 51.3212ZM459.001 55.9005C458.423 55.9005 457.93 55.743 457.522 55.428C457.115 55.1104 456.804 54.6507 456.589 54.0488C456.374 53.4444 456.266 52.7145 456.266 51.8591C456.266 51.0088 456.374 50.2827 456.589 49.6808C456.806 49.0764 457.119 48.6154 457.526 48.2978C457.936 47.9777 458.428 47.8176 459.001 47.8176C459.575 47.8176 460.065 47.9777 460.473 48.2978C460.882 48.6154 461.195 49.0764 461.41 49.6808C461.628 50.2827 461.737 51.0088 461.737 51.8591C461.737 52.7145 461.629 53.4444 461.414 54.0488C461.199 54.6507 460.888 55.1104 460.48 55.428C460.073 55.743 459.58 55.9005 459.001 55.9005ZM459.001 55.0554C459.575 55.0554 460.021 54.7788 460.338 54.2256C460.656 53.6724 460.815 52.8835 460.815 51.8591C460.815 51.1778 460.742 50.5977 460.596 50.1188C460.452 49.6399 460.245 49.2749 459.973 49.0239C459.704 48.7729 459.38 48.6474 459.001 48.6474C458.433 48.6474 457.988 48.9279 457.668 49.4888C457.348 50.0471 457.188 50.8372 457.188 51.8591C457.188 52.5403 457.26 53.1192 457.403 53.5955C457.547 54.0719 457.753 54.4343 458.022 54.6827C458.293 54.9312 458.62 55.0554 459.001 55.0554ZM465.594 58.1287C465.156 58.1287 464.779 58.0724 464.464 57.9597C464.149 57.8496 463.887 57.7036 463.677 57.5217C463.469 57.3424 463.304 57.1504 463.181 56.9455L463.903 56.4384C463.985 56.5459 464.089 56.6689 464.214 56.8072C464.34 56.948 464.512 57.0697 464.729 57.1721C464.95 57.2771 465.238 57.3296 465.594 57.3296C466.07 57.3296 466.463 57.2144 466.773 56.9839C467.083 56.7534 467.238 56.3923 467.238 55.9005V54.7019H467.161C467.094 54.8095 467 54.9427 466.877 55.1015C466.756 55.2577 466.582 55.3973 466.354 55.5202C466.129 55.6406 465.824 55.7008 465.44 55.7008C464.964 55.7008 464.536 55.5881 464.157 55.3627C463.78 55.1373 463.482 54.8095 463.262 54.3792C463.044 53.949 462.935 53.4265 462.935 52.8118C462.935 52.2074 463.042 51.6811 463.254 51.2329C463.467 50.7821 463.762 50.4338 464.142 50.188C464.521 49.9395 464.959 49.8153 465.455 49.8153C465.84 49.8153 466.144 49.8793 466.37 50.0074C466.598 50.1329 466.772 50.2763 466.892 50.4377C467.015 50.5965 467.11 50.7271 467.176 50.8295H467.269V49.8921H468.145V55.962C468.145 56.4691 468.029 56.8814 467.799 57.199C467.571 57.5192 467.264 57.7535 466.877 57.9021C466.493 58.0532 466.065 58.1287 465.594 58.1287ZM465.563 54.8863C465.927 54.8863 466.234 54.8031 466.485 54.6366C466.736 54.4701 466.927 54.2307 467.057 53.9182C467.188 53.6058 467.253 53.2318 467.253 52.7965C467.253 52.3713 467.189 51.9961 467.061 51.6708C466.933 51.3456 466.744 51.0907 466.493 50.9063C466.242 50.7219 465.932 50.6297 465.563 50.6297C465.179 50.6297 464.859 50.7271 464.603 50.9217C464.349 51.1164 464.158 51.3776 464.03 51.7054C463.905 52.0332 463.842 52.3969 463.842 52.7965C463.842 53.2062 463.906 53.5686 464.034 53.8837C464.165 54.1961 464.357 54.442 464.61 54.6213C464.866 54.798 465.184 54.8863 465.563 54.8863Z" fill="black"/>
<defs>
<filter id="filter0_d_1980_884" x="69.6727" y="16.5909" width="51.0764" height="51.0764" filterUnits="userSpaceOnUse" color-interpolation-filters="sRGB">
<feFlood flood-opacity="0" result="BackgroundImageFix"/>
<feColorMatrix in="SourceAlpha" type="matrix" values="0 0 0 0 0 0 0 0 0 0 0 0 0 0 0 0 0 0 127 0" result="hardAlpha"/>
<feOffset dy="-1.08182"/>
<feGaussianBlur stdDeviation="2.16364"/>
<feComposite in2="hardAlpha" operator="out"/>
<feColorMatrix type="matrix" values="0 0 0 0 0 0 0 0 0 0 0 0 0 0 0 0 0 0 0.25 0"/>
<feBlend mode="normal" in2="BackgroundImageFix" result="effect1_dropShadow_1980_884"/>
<feBlend mode="normal" in="SourceGraphic" in2="effect1_dropShadow_1980_884" result="shape"/>
</filter>
<filter id="filter1_d_1980_884" x="225.163" y="16.5909" width="51.0764" height="51.0764" filterUnits="userSpaceOnUse" color-interpolation-filters="sRGB">
<feFlood flood-opacity="0" result="BackgroundImageFix"/>
<feColorMatrix in="SourceAlpha" type="matrix" values="0 0 0 0 0 0 0 0 0 0 0 0 0 0 0 0 0 0 127 0" result="hardAlpha"/>
<feOffset dy="-1.08182"/>
<feGaussianBlur stdDeviation="2.16364"/>
<feComposite in2="hardAlpha" operator="out"/>
<feColorMatrix type="matrix" values="0 0 0 0 0 0 0 0 0 0 0 0 0 0 0 0 0 0 0.25 0"/>
<feBlend mode="normal" in2="BackgroundImageFix" result="effect1_dropShadow_1980_884"/>
<feBlend mode="normal" in="SourceGraphic" in2="effect1_dropShadow_1980_884" result="shape"/>
</filter>
<filter id="filter2_d_1980_884" x="380.655" y="16.5909" width="51.0764" height="51.0764" filterUnits="userSpaceOnUse" color-interpolation-filters="sRGB">
<feFlood flood-opacity="0" result="BackgroundImageFix"/>
<feColorMatrix in="SourceAlpha" type="matrix" values="0 0 0 0 0 0 0 0 0 0 0 0 0 0 0 0 0 0 127 0" result="hardAlpha"/>
<feOffset dy="-1.08182"/>
<feGaussianBlur stdDeviation="2.16364"/>
<feComposite in2="hardAlpha" operator="out"/>
<feColorMatrix type="matrix" values="0 0 0 0 0 0 0 0 0 0 0 0 0 0 0 0 0 0 0.25 0"/>
<feBlend mode="normal" in2="BackgroundImageFix" result="effect1_dropShadow_1980_884"/>
<feBlend mode="normal" in="SourceGraphic" in2="effect1_dropShadow_1980_884" result="shape"/>
</filter>
</defs>
</svg>
