<svg width="506" height="42" viewBox="0 0 506 42" fill="none" xmlns="http://www.w3.org/2000/svg">
<path d="M488.439 24.379C487.663 24.379 486.997 24.1828 486.441 23.7902C485.889 23.3946 485.463 22.8246 485.165 22.0804C484.87 21.333 484.722 20.4333 484.722 19.3814C484.725 18.3294 484.874 17.4344 485.17 16.6965C485.468 15.9554 485.893 15.3902 486.446 15.0008C487.002 14.6114 487.666 14.4167 488.439 14.4167C489.211 14.4167 489.875 14.6114 490.431 15.0008C490.987 15.3902 491.412 15.9554 491.708 16.6965C492.006 17.4376 492.155 18.3325 492.155 19.3814C492.155 20.4365 492.006 21.3377 491.708 22.0851C491.412 22.8293 490.987 23.3977 490.431 23.7902C489.878 24.1828 489.214 24.379 488.439 24.379ZM488.439 22.9047C489.042 22.9047 489.517 22.6079 489.866 22.0144C490.218 21.4178 490.393 20.5401 490.393 19.3814C490.393 18.6152 490.313 17.9714 490.153 17.4501C489.993 16.9289 489.767 16.5363 489.475 16.2726C489.183 16.0056 488.837 15.8722 488.439 15.8722C487.839 15.8722 487.365 16.1705 487.016 16.7671C486.668 17.3606 486.492 18.2321 486.489 19.3814C486.485 20.1507 486.562 20.7976 486.719 21.322C486.879 21.8464 487.106 22.2421 487.398 22.509C487.69 22.7728 488.037 22.9047 488.439 22.9047ZM493.546 22.4054V21.0159L497.639 14.5486H498.798V16.5269H498.091L495.336 20.8934V20.9687H501.049V22.4054H493.546ZM498.148 24.1953V21.9815L498.167 21.3597V14.5486H499.815V24.1953H498.148Z" fill="#7D7D7D"/>
<path d="M48.1507 23.7109V14.0642H54.3306V15.5291H49.8982V18.1481H53.9067V19.613H49.8982V23.7109H48.1507ZM55.9227 23.7109V14.0642H62.1969V15.5291H57.6702V18.1481H61.8718V19.613H57.6702V22.246H62.2345V23.7109H55.9227ZM65.2185 23.7109H63.3532L66.7494 14.0642H68.9067L72.3075 23.7109H70.4423L67.8657 16.0425H67.7903L65.2185 23.7109ZM65.2798 19.9286H70.3669V21.3322H65.2798V19.9286ZM71.9884 15.5291V14.0642H79.6851V15.5291H76.7034V23.7109H74.97V15.5291H71.9884ZM87.2498 14.0642H88.9974V20.3666C88.9974 21.0575 88.8341 21.6651 88.5075 22.1895C88.184 22.7139 87.7287 23.1237 87.1415 23.4189C86.5543 23.7109 85.8681 23.857 85.0831 23.857C84.2949 23.857 83.6072 23.7109 83.02 23.4189C82.4327 23.1237 81.9774 22.7139 81.654 22.1895C81.3305 21.6651 81.1688 21.0575 81.1688 20.3666V14.0642H82.9163V20.2206C82.9163 20.6225 83.0043 20.9805 83.1801 21.2945C83.3591 21.6086 83.6103 21.8551 83.9338 22.0341C84.2572 22.2099 84.6403 22.2978 85.0831 22.2978C85.5259 22.2978 85.909 22.2099 86.2324 22.0341C86.559 21.8551 86.8102 21.6086 86.986 21.2945C87.1619 20.9805 87.2498 20.6225 87.2498 20.2206V14.0642ZM90.8968 23.7109V14.0642H94.5143C95.2554 14.0642 95.8772 14.193 96.3796 14.4505C96.8852 14.708 97.2667 15.0691 97.5242 15.5338C97.7848 15.9954 97.9151 16.534 97.9151 17.1495C97.9151 17.7681 97.7833 18.3051 97.5195 18.7604C97.2588 19.2126 96.8742 19.5627 96.3655 19.8108C95.8567 20.0557 95.2318 20.1782 94.4908 20.1782H91.9142V18.7274H94.2552C94.6886 18.7274 95.0434 18.6678 95.3198 18.5484C95.5961 18.426 95.8002 18.2485 95.9321 18.0162C96.0671 17.7807 96.1347 17.4918 96.1347 17.1495C96.1347 16.8072 96.0671 16.5152 95.9321 16.2734C95.7971 16.0284 95.5914 15.8431 95.3151 15.7175C95.0387 15.5888 94.6823 15.5244 94.2458 15.5244H92.6443V23.7109H90.8968ZM95.8803 19.3398L98.2684 23.7109H96.3184L93.9726 19.3398H95.8803ZM99.5237 23.7109V14.0642H105.798V15.5291H101.271V18.1481H105.473V19.613H101.271V22.246H105.836V23.7109H99.5237ZM112.823 16.7161C112.779 16.3048 112.594 15.9845 112.267 15.7552C111.944 15.526 111.523 15.4114 111.005 15.4114C110.641 15.4114 110.328 15.4663 110.068 15.5762C109.807 15.6861 109.608 15.8353 109.47 16.0237C109.331 16.2121 109.261 16.4272 109.258 16.669C109.258 16.87 109.303 17.0443 109.394 17.1919C109.488 17.3395 109.616 17.4651 109.776 17.5687C109.936 17.6692 110.113 17.754 110.308 17.823C110.503 17.8921 110.699 17.9502 110.897 17.9973L111.801 18.2234C112.165 18.3082 112.516 18.4228 112.852 18.5673C113.191 18.7117 113.494 18.8939 113.761 19.1137C114.031 19.3335 114.244 19.5988 114.401 19.9097C114.558 20.2206 114.637 20.5849 114.637 21.0025C114.637 21.5677 114.492 22.0655 114.203 22.4957C113.915 22.9227 113.497 23.2572 112.95 23.499C112.407 23.7376 111.749 23.857 110.977 23.857C110.226 23.857 109.575 23.7408 109.022 23.5084C108.473 23.276 108.042 22.9369 107.731 22.491C107.424 22.0451 107.257 21.5018 107.232 20.8612H108.951C108.977 21.1972 109.08 21.4767 109.262 21.6996C109.444 21.9226 109.682 22.089 109.974 22.1989C110.269 22.3088 110.598 22.3638 110.963 22.3638C111.343 22.3638 111.676 22.3073 111.961 22.1942C112.25 22.078 112.476 21.9179 112.64 21.7138C112.803 21.5065 112.886 21.2647 112.889 20.9884C112.886 20.7372 112.812 20.5299 112.668 20.3666C112.523 20.2002 112.321 20.062 112.06 19.9521C111.803 19.8391 111.501 19.7386 111.156 19.6506L110.058 19.368C109.264 19.1639 108.636 18.8546 108.174 18.4401C107.716 18.0225 107.487 17.4682 107.487 16.7774C107.487 16.209 107.64 15.7113 107.948 15.2842C108.259 14.8571 108.681 14.5258 109.215 14.2903C109.749 14.0517 110.354 13.9323 111.029 13.9323C111.713 13.9323 112.313 14.0517 112.828 14.2903C113.346 14.5258 113.753 14.854 114.048 15.2748C114.343 15.6924 114.495 16.1729 114.505 16.7161H112.823ZM123.314 14.0642V23.7109H121.567V15.7646H121.51L119.254 17.206V15.6045L121.652 14.0642H123.314Z" fill="black"/>
<path d="M136.73 19.838C136.444 19.838 136.199 19.7375 135.995 19.5365C135.791 19.3356 135.69 19.0906 135.693 18.8017C135.69 18.5191 135.791 18.2773 135.995 18.0763C136.199 17.8754 136.444 17.7749 136.73 17.7749C137.006 17.7749 137.246 17.8754 137.45 18.0763C137.658 18.2773 137.763 18.5191 137.766 18.8017C137.763 18.9933 137.713 19.1676 137.615 19.3246C137.521 19.4816 137.395 19.6072 137.238 19.7014C137.084 19.7925 136.915 19.838 136.73 19.838ZM140.577 19.838C140.291 19.838 140.046 19.7375 139.842 19.5365C139.638 19.3356 139.537 19.0906 139.54 18.8017C139.537 18.5191 139.638 18.2773 139.842 18.0763C140.046 17.8754 140.291 17.7749 140.577 17.7749C140.853 17.7749 141.093 17.8754 141.297 18.0763C141.505 18.2773 141.61 18.5191 141.613 18.8017C141.61 18.9933 141.56 19.1676 141.462 19.3246C141.368 19.4816 141.242 19.6072 141.085 19.7014C140.932 19.7925 140.762 19.838 140.577 19.838ZM144.424 19.838C144.138 19.838 143.893 19.7375 143.689 19.5365C143.485 19.3356 143.385 19.0906 143.388 18.8017C143.385 18.5191 143.485 18.2773 143.689 18.0763C143.893 17.8754 144.138 17.7749 144.424 17.7749C144.7 17.7749 144.94 17.8754 145.145 18.0763C145.352 18.2773 145.457 18.5191 145.46 18.8017C145.457 18.9933 145.407 19.1676 145.309 19.3246C145.215 19.4816 145.09 19.6072 144.933 19.7014C144.779 19.7925 144.609 19.838 144.424 19.838ZM148.271 19.838C147.985 19.838 147.74 19.7375 147.536 19.5365C147.332 19.3356 147.232 19.0906 147.235 18.8017C147.232 18.5191 147.332 18.2773 147.536 18.0763C147.74 17.8754 147.985 17.7749 148.271 17.7749C148.547 17.7749 148.788 17.8754 148.992 18.0763C149.199 18.2773 149.304 18.5191 149.307 18.8017C149.304 18.9933 149.254 19.1676 149.157 19.3246C149.062 19.4816 148.937 19.6072 148.78 19.7014C148.626 19.7925 148.456 19.838 148.271 19.838ZM152.118 19.838C151.832 19.838 151.588 19.7375 151.383 19.5365C151.179 19.3356 151.079 19.0906 151.082 18.8017C151.079 18.5191 151.179 18.2773 151.383 18.0763C151.588 17.8754 151.832 17.7749 152.118 17.7749C152.395 17.7749 152.635 17.8754 152.839 18.0763C153.046 18.2773 153.151 18.5191 153.154 18.8017C153.151 18.9933 153.101 19.1676 153.004 19.3246C152.91 19.4816 152.784 19.6072 152.627 19.7014C152.473 19.7925 152.303 19.838 152.118 19.838ZM155.965 19.838C155.68 19.838 155.435 19.7375 155.231 19.5365C155.026 19.3356 154.926 19.0906 154.929 18.8017C154.926 18.5191 155.026 18.2773 155.231 18.0763C155.435 17.8754 155.68 17.7749 155.965 17.7749C156.242 17.7749 156.482 17.8754 156.686 18.0763C156.893 18.2773 156.998 18.5191 157.002 18.8017C156.998 18.9933 156.948 19.1676 156.851 19.3246C156.757 19.4816 156.631 19.6072 156.474 19.7014C156.32 19.7925 156.151 19.838 155.965 19.838ZM159.813 19.838C159.527 19.838 159.282 19.7375 159.078 19.5365C158.874 19.3356 158.773 19.0906 158.776 18.8017C158.773 18.5191 158.874 18.2773 159.078 18.0763C159.282 17.8754 159.527 17.7749 159.813 17.7749C160.089 17.7749 160.329 17.8754 160.533 18.0763C160.74 18.2773 160.846 18.5191 160.849 18.8017C160.846 18.9933 160.795 19.1676 160.698 19.3246C160.604 19.4816 160.478 19.6072 160.321 19.7014C160.167 19.7925 159.998 19.838 159.813 19.838ZM163.66 19.838C163.374 19.838 163.129 19.7375 162.925 19.5365C162.721 19.3356 162.62 19.0906 162.623 18.8017C162.62 18.5191 162.721 18.2773 162.925 18.0763C163.129 17.8754 163.374 17.7749 163.66 17.7749C163.936 17.7749 164.176 17.8754 164.38 18.0763C164.588 18.2773 164.693 18.5191 164.696 18.8017C164.693 18.9933 164.643 19.1676 164.545 19.3246C164.451 19.4816 164.325 19.6072 164.168 19.7014C164.014 19.7925 163.845 19.838 163.66 19.838ZM167.507 19.838C167.221 19.838 166.976 19.7375 166.772 19.5365C166.568 19.3356 166.467 19.0906 166.471 18.8017C166.467 18.5191 166.568 18.2773 166.772 18.0763C166.976 17.8754 167.221 17.7749 167.507 17.7749C167.783 17.7749 168.023 17.8754 168.227 18.0763C168.435 18.2773 168.54 18.5191 168.543 18.8017C168.54 18.9933 168.49 19.1676 168.392 19.3246C168.298 19.4816 168.173 19.6072 168.016 19.7014C167.862 19.7925 167.692 19.838 167.507 19.838ZM171.354 19.838C171.068 19.838 170.823 19.7375 170.619 19.5365C170.415 19.3356 170.315 19.0906 170.318 18.8017C170.315 18.5191 170.415 18.2773 170.619 18.0763C170.823 17.8754 171.068 17.7749 171.354 17.7749C171.63 17.7749 171.871 17.8754 172.075 18.0763C172.282 18.2773 172.387 18.5191 172.39 18.8017C172.387 18.9933 172.337 19.1676 172.239 19.3246C172.145 19.4816 172.02 19.6072 171.863 19.7014C171.709 19.7925 171.539 19.838 171.354 19.838ZM175.201 19.838C174.915 19.838 174.67 19.7375 174.466 19.5365C174.262 19.3356 174.162 19.0906 174.165 18.8017C174.162 18.5191 174.262 18.2773 174.466 18.0763C174.67 17.8754 174.915 17.7749 175.201 17.7749C175.477 17.7749 175.718 17.8754 175.922 18.0763C176.129 18.2773 176.234 18.5191 176.237 18.8017C176.234 18.9933 176.184 19.1676 176.087 19.3246C175.992 19.4816 175.867 19.6072 175.71 19.7014C175.556 19.7925 175.386 19.838 175.201 19.838ZM179.048 19.838C178.762 19.838 178.518 19.7375 178.313 19.5365C178.109 19.3356 178.009 19.0906 178.012 18.8017C178.009 18.5191 178.109 18.2773 178.313 18.0763C178.518 17.8754 178.762 17.7749 179.048 17.7749C179.325 17.7749 179.565 17.8754 179.769 18.0763C179.976 18.2773 180.081 18.5191 180.085 18.8017C180.081 18.9933 180.031 19.1676 179.934 19.3246C179.84 19.4816 179.714 19.6072 179.557 19.7014C179.403 19.7925 179.234 19.838 179.048 19.838ZM182.895 19.838C182.61 19.838 182.365 19.7375 182.161 19.5365C181.956 19.3356 181.856 19.0906 181.859 18.8017C181.856 18.5191 181.956 18.2773 182.161 18.0763C182.365 17.8754 182.61 17.7749 182.895 17.7749C183.172 17.7749 183.412 17.8754 183.616 18.0763C183.823 18.2773 183.929 18.5191 183.932 18.8017C183.929 18.9933 183.878 19.1676 183.781 19.3246C183.687 19.4816 183.561 19.6072 183.404 19.7014C183.25 19.7925 183.081 19.838 182.895 19.838ZM186.743 19.838C186.457 19.838 186.212 19.7375 186.008 19.5365C185.804 19.3356 185.703 19.0906 185.706 18.8017C185.703 18.5191 185.804 18.2773 186.008 18.0763C186.212 17.8754 186.457 17.7749 186.743 17.7749C187.019 17.7749 187.259 17.8754 187.463 18.0763C187.67 18.2773 187.776 18.5191 187.779 18.8017C187.776 18.9933 187.725 19.1676 187.628 19.3246C187.534 19.4816 187.408 19.6072 187.251 19.7014C187.097 19.7925 186.928 19.838 186.743 19.838ZM190.59 19.838C190.304 19.838 190.059 19.7375 189.855 19.5365C189.651 19.3356 189.55 19.0906 189.553 18.8017C189.55 18.5191 189.651 18.2773 189.855 18.0763C190.059 17.8754 190.304 17.7749 190.59 17.7749C190.866 17.7749 191.106 17.8754 191.31 18.0763C191.518 18.2773 191.623 18.5191 191.626 18.8017C191.623 18.9933 191.573 19.1676 191.475 19.3246C191.381 19.4816 191.255 19.6072 191.098 19.7014C190.945 19.7925 190.775 19.838 190.59 19.838ZM194.437 19.838C194.151 19.838 193.906 19.7375 193.702 19.5365C193.498 19.3356 193.397 19.0906 193.401 18.8017C193.397 18.5191 193.498 18.2773 193.702 18.0763C193.906 17.8754 194.151 17.7749 194.437 17.7749C194.713 17.7749 194.953 17.8754 195.158 18.0763C195.365 18.2773 195.47 18.5191 195.473 18.8017C195.47 18.9933 195.42 19.1676 195.322 19.3246C195.228 19.4816 195.103 19.6072 194.946 19.7014C194.792 19.7925 194.622 19.838 194.437 19.838ZM198.284 19.838C197.998 19.838 197.753 19.7375 197.549 19.5365C197.345 19.3356 197.245 19.0906 197.248 18.8017C197.245 18.5191 197.345 18.2773 197.549 18.0763C197.753 17.8754 197.998 17.7749 198.284 17.7749C198.56 17.7749 198.801 17.8754 199.005 18.0763C199.212 18.2773 199.317 18.5191 199.32 18.8017C199.317 18.9933 199.267 19.1676 199.17 19.3246C199.075 19.4816 198.95 19.6072 198.793 19.7014C198.639 19.7925 198.469 19.838 198.284 19.838ZM202.131 19.838C201.845 19.838 201.6 19.7375 201.396 19.5365C201.192 19.3356 201.092 19.0906 201.095 18.8017C201.092 18.5191 201.192 18.2773 201.396 18.0763C201.6 17.8754 201.845 17.7749 202.131 17.7749C202.407 17.7749 202.648 17.8754 202.852 18.0763C203.059 18.2773 203.164 18.5191 203.167 18.8017C203.164 18.9933 203.114 19.1676 203.017 19.3246C202.922 19.4816 202.797 19.6072 202.64 19.7014C202.486 19.7925 202.316 19.838 202.131 19.838ZM205.978 19.838C205.693 19.838 205.448 19.7375 205.243 19.5365C205.039 19.3356 204.939 19.0906 204.942 18.8017C204.939 18.5191 205.039 18.2773 205.243 18.0763C205.448 17.8754 205.693 17.7749 205.978 17.7749C206.255 17.7749 206.495 17.8754 206.699 18.0763C206.906 18.2773 207.011 18.5191 207.015 18.8017C207.011 18.9933 206.961 19.1676 206.864 19.3246C206.77 19.4816 206.644 19.6072 206.487 19.7014C206.333 19.7925 206.164 19.838 205.978 19.838ZM209.825 19.838C209.54 19.838 209.295 19.7375 209.091 19.5365C208.886 19.3356 208.786 19.0906 208.789 18.8017C208.786 18.5191 208.886 18.2773 209.091 18.0763C209.295 17.8754 209.54 17.7749 209.825 17.7749C210.102 17.7749 210.342 17.8754 210.546 18.0763C210.753 18.2773 210.859 18.5191 210.862 18.8017C210.859 18.9933 210.808 19.1676 210.711 19.3246C210.617 19.4816 210.491 19.6072 210.334 19.7014C210.18 19.7925 210.011 19.838 209.825 19.838ZM213.673 19.838C213.387 19.838 213.142 19.7375 212.938 19.5365C212.734 19.3356 212.633 19.0906 212.636 18.8017C212.633 18.5191 212.734 18.2773 212.938 18.0763C213.142 17.8754 213.387 17.7749 213.673 17.7749C213.949 17.7749 214.189 17.8754 214.393 18.0763C214.6 18.2773 214.706 18.5191 214.709 18.8017C214.706 18.9933 214.655 19.1676 214.558 19.3246C214.464 19.4816 214.338 19.6072 214.181 19.7014C214.027 19.7925 213.858 19.838 213.673 19.838ZM217.52 19.838C217.234 19.838 216.989 19.7375 216.785 19.5365C216.581 19.3356 216.48 19.0906 216.483 18.8017C216.48 18.5191 216.581 18.2773 216.785 18.0763C216.989 17.8754 217.234 17.7749 217.52 17.7749C217.796 17.7749 218.036 17.8754 218.24 18.0763C218.448 18.2773 218.553 18.5191 218.556 18.8017C218.553 18.9933 218.503 19.1676 218.405 19.3246C218.311 19.4816 218.185 19.6072 218.028 19.7014C217.875 19.7925 217.705 19.838 217.52 19.838ZM221.367 19.838C221.081 19.838 220.836 19.7375 220.632 19.5365C220.428 19.3356 220.327 19.0906 220.331 18.8017C220.327 18.5191 220.428 18.2773 220.632 18.0763C220.836 17.8754 221.081 17.7749 221.367 17.7749C221.643 17.7749 221.883 17.8754 222.088 18.0763C222.295 18.2773 222.4 18.5191 222.403 18.8017C222.4 18.9933 222.35 19.1676 222.252 19.3246C222.158 19.4816 222.033 19.6072 221.876 19.7014C221.722 19.7925 221.552 19.838 221.367 19.838ZM225.214 19.838C224.928 19.838 224.683 19.7375 224.479 19.5365C224.275 19.3356 224.175 19.0906 224.178 18.8017C224.175 18.5191 224.275 18.2773 224.479 18.0763C224.683 17.8754 224.928 17.7749 225.214 17.7749C225.49 17.7749 225.731 17.8754 225.935 18.0763C226.142 18.2773 226.247 18.5191 226.25 18.8017C226.247 18.9933 226.197 19.1676 226.1 19.3246C226.005 19.4816 225.88 19.6072 225.723 19.7014C225.569 19.7925 225.399 19.838 225.214 19.838ZM229.061 19.838C228.775 19.838 228.53 19.7375 228.326 19.5365C228.122 19.3356 228.022 19.0906 228.025 18.8017C228.022 18.5191 228.122 18.2773 228.326 18.0763C228.53 17.8754 228.775 17.7749 229.061 17.7749C229.337 17.7749 229.578 17.8754 229.782 18.0763C229.989 18.2773 230.094 18.5191 230.097 18.8017C230.094 18.9933 230.044 19.1676 229.947 19.3246C229.852 19.4816 229.727 19.6072 229.57 19.7014C229.416 19.7925 229.246 19.838 229.061 19.838ZM232.908 19.838C232.623 19.838 232.378 19.7375 232.173 19.5365C231.969 19.3356 231.869 19.0906 231.872 18.8017C231.869 18.5191 231.969 18.2773 232.173 18.0763C232.378 17.8754 232.623 17.7749 232.908 17.7749C233.185 17.7749 233.425 17.8754 233.629 18.0763C233.836 18.2773 233.941 18.5191 233.945 18.8017C233.941 18.9933 233.891 19.1676 233.794 19.3246C233.7 19.4816 233.574 19.6072 233.417 19.7014C233.263 19.7925 233.094 19.838 232.908 19.838ZM236.755 19.838C236.47 19.838 236.225 19.7375 236.021 19.5365C235.817 19.3356 235.716 19.0906 235.719 18.8017C235.716 18.5191 235.817 18.2773 236.021 18.0763C236.225 17.8754 236.47 17.7749 236.755 17.7749C237.032 17.7749 237.272 17.8754 237.476 18.0763C237.683 18.2773 237.789 18.5191 237.792 18.8017C237.789 18.9933 237.738 19.1676 237.641 19.3246C237.547 19.4816 237.421 19.6072 237.264 19.7014C237.11 19.7925 236.941 19.838 236.755 19.838ZM240.603 19.838C240.317 19.838 240.072 19.7375 239.868 19.5365C239.664 19.3356 239.563 19.0906 239.566 18.8017C239.563 18.5191 239.664 18.2773 239.868 18.0763C240.072 17.8754 240.317 17.7749 240.603 17.7749C240.879 17.7749 241.119 17.8754 241.323 18.0763C241.531 18.2773 241.636 18.5191 241.639 18.8017C241.636 18.9933 241.585 19.1676 241.488 19.3246C241.394 19.4816 241.268 19.6072 241.111 19.7014C240.957 19.7925 240.788 19.838 240.603 19.838ZM244.45 19.838C244.164 19.838 243.919 19.7375 243.715 19.5365C243.511 19.3356 243.41 19.0906 243.413 18.8017C243.41 18.5191 243.511 18.2773 243.715 18.0763C243.919 17.8754 244.164 17.7749 244.45 17.7749C244.726 17.7749 244.966 17.8754 245.17 18.0763C245.378 18.2773 245.483 18.5191 245.486 18.8017C245.483 18.9933 245.433 19.1676 245.335 19.3246C245.241 19.4816 245.115 19.6072 244.958 19.7014C244.805 19.7925 244.635 19.838 244.45 19.838ZM248.297 19.838C248.011 19.838 247.766 19.7375 247.562 19.5365C247.358 19.3356 247.257 19.0906 247.261 18.8017C247.257 18.5191 247.358 18.2773 247.562 18.0763C247.766 17.8754 248.011 17.7749 248.297 17.7749C248.573 17.7749 248.813 17.8754 249.018 18.0763C249.225 18.2773 249.33 18.5191 249.333 18.8017C249.33 18.9933 249.28 19.1676 249.182 19.3246C249.088 19.4816 248.963 19.6072 248.806 19.7014C248.652 19.7925 248.482 19.838 248.297 19.838ZM252.144 19.838C251.858 19.838 251.613 19.7375 251.409 19.5365C251.205 19.3356 251.105 19.0906 251.108 18.8017C251.105 18.5191 251.205 18.2773 251.409 18.0763C251.613 17.8754 251.858 17.7749 252.144 17.7749C252.42 17.7749 252.661 17.8754 252.865 18.0763C253.072 18.2773 253.177 18.5191 253.18 18.8017C253.177 18.9933 253.127 19.1676 253.03 19.3246C252.935 19.4816 252.81 19.6072 252.653 19.7014C252.499 19.7925 252.329 19.838 252.144 19.838ZM255.991 19.838C255.705 19.838 255.46 19.7375 255.256 19.5365C255.052 19.3356 254.952 19.0906 254.955 18.8017C254.952 18.5191 255.052 18.2773 255.256 18.0763C255.46 17.8754 255.705 17.7749 255.991 17.7749C256.268 17.7749 256.508 17.8754 256.712 18.0763C256.919 18.2773 257.024 18.5191 257.027 18.8017C257.024 18.9933 256.974 19.1676 256.877 19.3246C256.783 19.4816 256.657 19.6072 256.5 19.7014C256.346 19.7925 256.176 19.838 255.991 19.838ZM259.838 19.838C259.553 19.838 259.308 19.7375 259.104 19.5365C258.899 19.3356 258.799 19.0906 258.802 18.8017C258.799 18.5191 258.899 18.2773 259.104 18.0763C259.308 17.8754 259.553 17.7749 259.838 17.7749C260.115 17.7749 260.355 17.8754 260.559 18.0763C260.766 18.2773 260.871 18.5191 260.875 18.8017C260.871 18.9933 260.821 19.1676 260.724 19.3246C260.63 19.4816 260.504 19.6072 260.347 19.7014C260.193 19.7925 260.024 19.838 259.838 19.838ZM263.685 19.838C263.4 19.838 263.155 19.7375 262.951 19.5365C262.747 19.3356 262.646 19.0906 262.649 18.8017C262.646 18.5191 262.747 18.2773 262.951 18.0763C263.155 17.8754 263.4 17.7749 263.685 17.7749C263.962 17.7749 264.202 17.8754 264.406 18.0763C264.613 18.2773 264.719 18.5191 264.722 18.8017C264.719 18.9933 264.668 19.1676 264.571 19.3246C264.477 19.4816 264.351 19.6072 264.194 19.7014C264.04 19.7925 263.871 19.838 263.685 19.838ZM267.533 19.838C267.247 19.838 267.002 19.7375 266.798 19.5365C266.594 19.3356 266.493 19.0906 266.496 18.8017C266.493 18.5191 266.594 18.2773 266.798 18.0763C267.002 17.8754 267.247 17.7749 267.533 17.7749C267.809 17.7749 268.049 17.8754 268.253 18.0763C268.461 18.2773 268.566 18.5191 268.569 18.8017C268.566 18.9933 268.516 19.1676 268.418 19.3246C268.324 19.4816 268.198 19.6072 268.041 19.7014C267.887 19.7925 267.718 19.838 267.533 19.838ZM271.38 19.838C271.094 19.838 270.849 19.7375 270.645 19.5365C270.441 19.3356 270.34 19.0906 270.344 18.8017C270.34 18.5191 270.441 18.2773 270.645 18.0763C270.849 17.8754 271.094 17.7749 271.38 17.7749C271.656 17.7749 271.896 17.8754 272.1 18.0763C272.308 18.2773 272.413 18.5191 272.416 18.8017C272.413 18.9933 272.363 19.1676 272.265 19.3246C272.171 19.4816 272.046 19.6072 271.888 19.7014C271.735 19.7925 271.565 19.838 271.38 19.838ZM275.227 19.838C274.941 19.838 274.696 19.7375 274.492 19.5365C274.288 19.3356 274.188 19.0906 274.191 18.8017C274.188 18.5191 274.288 18.2773 274.492 18.0763C274.696 17.8754 274.941 17.7749 275.227 17.7749C275.503 17.7749 275.743 17.8754 275.948 18.0763C276.155 18.2773 276.26 18.5191 276.263 18.8017C276.26 18.9933 276.21 19.1676 276.112 19.3246C276.018 19.4816 275.893 19.6072 275.736 19.7014C275.582 19.7925 275.412 19.838 275.227 19.838ZM279.074 19.838C278.788 19.838 278.543 19.7375 278.339 19.5365C278.135 19.3356 278.035 19.0906 278.038 18.8017C278.035 18.5191 278.135 18.2773 278.339 18.0763C278.543 17.8754 278.788 17.7749 279.074 17.7749C279.35 17.7749 279.591 17.8754 279.795 18.0763C280.002 18.2773 280.107 18.5191 280.11 18.8017C280.107 18.9933 280.057 19.1676 279.96 19.3246C279.865 19.4816 279.74 19.6072 279.583 19.7014C279.429 19.7925 279.259 19.838 279.074 19.838ZM282.921 19.838C282.635 19.838 282.391 19.7375 282.186 19.5365C281.982 19.3356 281.882 19.0906 281.885 18.8017C281.882 18.5191 281.982 18.2773 282.186 18.0763C282.391 17.8754 282.635 17.7749 282.921 17.7749C283.198 17.7749 283.438 17.8754 283.642 18.0763C283.849 18.2773 283.954 18.5191 283.957 18.8017C283.954 18.9933 283.904 19.1676 283.807 19.3246C283.713 19.4816 283.587 19.6072 283.43 19.7014C283.276 19.7925 283.106 19.838 282.921 19.838ZM286.768 19.838C286.483 19.838 286.238 19.7375 286.034 19.5365C285.829 19.3356 285.729 19.0906 285.732 18.8017C285.729 18.5191 285.829 18.2773 286.034 18.0763C286.238 17.8754 286.483 17.7749 286.768 17.7749C287.045 17.7749 287.285 17.8754 287.489 18.0763C287.696 18.2773 287.802 18.5191 287.805 18.8017C287.802 18.9933 287.751 19.1676 287.654 19.3246C287.56 19.4816 287.434 19.6072 287.277 19.7014C287.123 19.7925 286.954 19.838 286.768 19.838ZM290.616 19.838C290.33 19.838 290.085 19.7375 289.881 19.5365C289.677 19.3356 289.576 19.0906 289.579 18.8017C289.576 18.5191 289.677 18.2773 289.881 18.0763C290.085 17.8754 290.33 17.7749 290.616 17.7749C290.892 17.7749 291.132 17.8754 291.336 18.0763C291.543 18.2773 291.649 18.5191 291.652 18.8017C291.649 18.9933 291.598 19.1676 291.501 19.3246C291.407 19.4816 291.281 19.6072 291.124 19.7014C290.97 19.7925 290.801 19.838 290.616 19.838ZM294.463 19.838C294.177 19.838 293.932 19.7375 293.728 19.5365C293.524 19.3356 293.423 19.0906 293.426 18.8017C293.423 18.5191 293.524 18.2773 293.728 18.0763C293.932 17.8754 294.177 17.7749 294.463 17.7749C294.739 17.7749 294.979 17.8754 295.183 18.0763C295.391 18.2773 295.496 18.5191 295.499 18.8017C295.496 18.9933 295.446 19.1676 295.348 19.3246C295.254 19.4816 295.128 19.6072 294.971 19.7014C294.818 19.7925 294.648 19.838 294.463 19.838ZM298.31 19.838C298.024 19.838 297.779 19.7375 297.575 19.5365C297.371 19.3356 297.27 19.0906 297.274 18.8017C297.27 18.5191 297.371 18.2773 297.575 18.0763C297.779 17.8754 298.024 17.7749 298.31 17.7749C298.586 17.7749 298.826 17.8754 299.03 18.0763C299.238 18.2773 299.343 18.5191 299.346 18.8017C299.343 18.9933 299.293 19.1676 299.195 19.3246C299.101 19.4816 298.976 19.6072 298.819 19.7014C298.665 19.7925 298.495 19.838 298.31 19.838ZM302.157 19.838C301.871 19.838 301.626 19.7375 301.422 19.5365C301.218 19.3356 301.118 19.0906 301.121 18.8017C301.118 18.5191 301.218 18.2773 301.422 18.0763C301.626 17.8754 301.871 17.7749 302.157 17.7749C302.433 17.7749 302.674 17.8754 302.878 18.0763C303.085 18.2773 303.19 18.5191 303.193 18.8017C303.19 18.9933 303.14 19.1676 303.042 19.3246C302.948 19.4816 302.823 19.6072 302.666 19.7014C302.512 19.7925 302.342 19.838 302.157 19.838ZM306.004 19.838C305.718 19.838 305.473 19.7375 305.269 19.5365C305.065 19.3356 304.965 19.0906 304.968 18.8017C304.965 18.5191 305.065 18.2773 305.269 18.0763C305.473 17.8754 305.718 17.7749 306.004 17.7749C306.28 17.7749 306.521 17.8754 306.725 18.0763C306.932 18.2773 307.037 18.5191 307.04 18.8017C307.037 18.9933 306.987 19.1676 306.89 19.3246C306.795 19.4816 306.67 19.6072 306.513 19.7014C306.359 19.7925 306.189 19.838 306.004 19.838ZM309.851 19.838C309.566 19.838 309.321 19.7375 309.116 19.5365C308.912 19.3356 308.812 19.0906 308.815 18.8017C308.812 18.5191 308.912 18.2773 309.116 18.0763C309.321 17.8754 309.566 17.7749 309.851 17.7749C310.128 17.7749 310.368 17.8754 310.572 18.0763C310.779 18.2773 310.884 18.5191 310.888 18.8017C310.884 18.9933 310.834 19.1676 310.737 19.3246C310.643 19.4816 310.517 19.6072 310.36 19.7014C310.206 19.7925 310.037 19.838 309.851 19.838ZM313.698 19.838C313.413 19.838 313.168 19.7375 312.964 19.5365C312.759 19.3356 312.659 19.0906 312.662 18.8017C312.659 18.5191 312.759 18.2773 312.964 18.0763C313.168 17.8754 313.413 17.7749 313.698 17.7749C313.975 17.7749 314.215 17.8754 314.419 18.0763C314.626 18.2773 314.732 18.5191 314.735 18.8017C314.732 18.9933 314.681 19.1676 314.584 19.3246C314.49 19.4816 314.364 19.6072 314.207 19.7014C314.053 19.7925 313.884 19.838 313.698 19.838ZM317.546 19.838C317.26 19.838 317.015 19.7375 316.811 19.5365C316.607 19.3356 316.506 19.0906 316.509 18.8017C316.506 18.5191 316.607 18.2773 316.811 18.0763C317.015 17.8754 317.26 17.7749 317.546 17.7749C317.822 17.7749 318.062 17.8754 318.266 18.0763C318.473 18.2773 318.579 18.5191 318.582 18.8017C318.579 18.9933 318.528 19.1676 318.431 19.3246C318.337 19.4816 318.211 19.6072 318.054 19.7014C317.9 19.7925 317.731 19.838 317.546 19.838ZM321.393 19.838C321.107 19.838 320.862 19.7375 320.658 19.5365C320.454 19.3356 320.353 19.0906 320.356 18.8017C320.353 18.5191 320.454 18.2773 320.658 18.0763C320.862 17.8754 321.107 17.7749 321.393 17.7749C321.669 17.7749 321.909 17.8754 322.113 18.0763C322.321 18.2773 322.426 18.5191 322.429 18.8017C322.426 18.9933 322.376 19.1676 322.278 19.3246C322.184 19.4816 322.058 19.6072 321.901 19.7014C321.748 19.7925 321.578 19.838 321.393 19.838ZM325.24 19.838C324.954 19.838 324.709 19.7375 324.505 19.5365C324.301 19.3356 324.2 19.0906 324.204 18.8017C324.2 18.5191 324.301 18.2773 324.505 18.0763C324.709 17.8754 324.954 17.7749 325.24 17.7749C325.516 17.7749 325.756 17.8754 325.961 18.0763C326.168 18.2773 326.273 18.5191 326.276 18.8017C326.273 18.9933 326.223 19.1676 326.125 19.3246C326.031 19.4816 325.906 19.6072 325.749 19.7014C325.595 19.7925 325.425 19.838 325.24 19.838ZM329.087 19.838C328.801 19.838 328.556 19.7375 328.352 19.5365C328.148 19.3356 328.048 19.0906 328.051 18.8017C328.048 18.5191 328.148 18.2773 328.352 18.0763C328.556 17.8754 328.801 17.7749 329.087 17.7749C329.363 17.7749 329.604 17.8754 329.808 18.0763C330.015 18.2773 330.12 18.5191 330.123 18.8017C330.12 18.9933 330.07 19.1676 329.973 19.3246C329.878 19.4816 329.753 19.6072 329.596 19.7014C329.442 19.7925 329.272 19.838 329.087 19.838ZM332.934 19.838C332.648 19.838 332.403 19.7375 332.199 19.5365C331.995 19.3356 331.895 19.0906 331.898 18.8017C331.895 18.5191 331.995 18.2773 332.199 18.0763C332.403 17.8754 332.648 17.7749 332.934 17.7749C333.21 17.7749 333.451 17.8754 333.655 18.0763C333.862 18.2773 333.967 18.5191 333.97 18.8017C333.967 18.9933 333.917 19.1676 333.82 19.3246C333.725 19.4816 333.6 19.6072 333.443 19.7014C333.289 19.7925 333.119 19.838 332.934 19.838ZM336.781 19.838C336.496 19.838 336.251 19.7375 336.046 19.5365C335.842 19.3356 335.742 19.0906 335.745 18.8017C335.742 18.5191 335.842 18.2773 336.046 18.0763C336.251 17.8754 336.496 17.7749 336.781 17.7749C337.058 17.7749 337.298 17.8754 337.502 18.0763C337.709 18.2773 337.814 18.5191 337.818 18.8017C337.814 18.9933 337.764 19.1676 337.667 19.3246C337.573 19.4816 337.447 19.6072 337.29 19.7014C337.136 19.7925 336.967 19.838 336.781 19.838ZM340.628 19.838C340.343 19.838 340.098 19.7375 339.894 19.5365C339.69 19.3356 339.589 19.0906 339.592 18.8017C339.589 18.5191 339.69 18.2773 339.894 18.0763C340.098 17.8754 340.343 17.7749 340.628 17.7749C340.905 17.7749 341.145 17.8754 341.349 18.0763C341.556 18.2773 341.662 18.5191 341.665 18.8017C341.662 18.9933 341.611 19.1676 341.514 19.3246C341.42 19.4816 341.294 19.6072 341.137 19.7014C340.983 19.7925 340.814 19.838 340.628 19.838ZM344.476 19.838C344.19 19.838 343.945 19.7375 343.741 19.5365C343.537 19.3356 343.436 19.0906 343.439 18.8017C343.436 18.5191 343.537 18.2773 343.741 18.0763C343.945 17.8754 344.19 17.7749 344.476 17.7749C344.752 17.7749 344.992 17.8754 345.196 18.0763C345.404 18.2773 345.509 18.5191 345.512 18.8017C345.509 18.9933 345.458 19.1676 345.361 19.3246C345.267 19.4816 345.141 19.6072 344.984 19.7014C344.83 19.7925 344.661 19.838 344.476 19.838ZM348.323 19.838C348.037 19.838 347.792 19.7375 347.588 19.5365C347.384 19.3356 347.283 19.0906 347.286 18.8017C347.283 18.5191 347.384 18.2773 347.588 18.0763C347.792 17.8754 348.037 17.7749 348.323 17.7749C348.599 17.7749 348.839 17.8754 349.043 18.0763C349.251 18.2773 349.356 18.5191 349.359 18.8017C349.356 18.9933 349.306 19.1676 349.208 19.3246C349.114 19.4816 348.988 19.6072 348.831 19.7014C348.678 19.7925 348.508 19.838 348.323 19.838ZM352.17 19.838C351.884 19.838 351.639 19.7375 351.435 19.5365C351.231 19.3356 351.13 19.0906 351.134 18.8017C351.13 18.5191 351.231 18.2773 351.435 18.0763C351.639 17.8754 351.884 17.7749 352.17 17.7749C352.446 17.7749 352.686 17.8754 352.891 18.0763C353.098 18.2773 353.203 18.5191 353.206 18.8017C353.203 18.9933 353.153 19.1676 353.055 19.3246C352.961 19.4816 352.836 19.6072 352.679 19.7014C352.525 19.7925 352.355 19.838 352.17 19.838ZM356.017 19.838C355.731 19.838 355.486 19.7375 355.282 19.5365C355.078 19.3356 354.978 19.0906 354.981 18.8017C354.978 18.5191 355.078 18.2773 355.282 18.0763C355.486 17.8754 355.731 17.7749 356.017 17.7749C356.293 17.7749 356.534 17.8754 356.738 18.0763C356.945 18.2773 357.05 18.5191 357.053 18.8017C357.05 18.9933 357 19.1676 356.903 19.3246C356.808 19.4816 356.683 19.6072 356.526 19.7014C356.372 19.7925 356.202 19.838 356.017 19.838ZM359.864 19.838C359.578 19.838 359.333 19.7375 359.129 19.5365C358.925 19.3356 358.825 19.0906 358.828 18.8017C358.825 18.5191 358.925 18.2773 359.129 18.0763C359.333 17.8754 359.578 17.7749 359.864 17.7749C360.141 17.7749 360.381 17.8754 360.585 18.0763C360.792 18.2773 360.897 18.5191 360.9 18.8017C360.897 18.9933 360.847 19.1676 360.75 19.3246C360.656 19.4816 360.53 19.6072 360.373 19.7014C360.219 19.7925 360.049 19.838 359.864 19.838ZM363.711 19.838C363.426 19.838 363.181 19.7375 362.977 19.5365C362.772 19.3356 362.672 19.0906 362.675 18.8017C362.672 18.5191 362.772 18.2773 362.977 18.0763C363.181 17.8754 363.426 17.7749 363.711 17.7749C363.988 17.7749 364.228 17.8754 364.432 18.0763C364.639 18.2773 364.744 18.5191 364.748 18.8017C364.744 18.9933 364.694 19.1676 364.597 19.3246C364.503 19.4816 364.377 19.6072 364.22 19.7014C364.066 19.7925 363.897 19.838 363.711 19.838ZM367.558 19.838C367.273 19.838 367.028 19.7375 366.824 19.5365C366.62 19.3356 366.519 19.0906 366.522 18.8017C366.519 18.5191 366.62 18.2773 366.824 18.0763C367.028 17.8754 367.273 17.7749 367.558 17.7749C367.835 17.7749 368.075 17.8754 368.279 18.0763C368.486 18.2773 368.592 18.5191 368.595 18.8017C368.592 18.9933 368.541 19.1676 368.444 19.3246C368.35 19.4816 368.224 19.6072 368.067 19.7014C367.913 19.7925 367.744 19.838 367.558 19.838ZM371.406 19.838C371.12 19.838 370.875 19.7375 370.671 19.5365C370.467 19.3356 370.366 19.0906 370.369 18.8017C370.366 18.5191 370.467 18.2773 370.671 18.0763C370.875 17.8754 371.12 17.7749 371.406 17.7749C371.682 17.7749 371.922 17.8754 372.126 18.0763C372.334 18.2773 372.439 18.5191 372.442 18.8017C372.439 18.9933 372.388 19.1676 372.291 19.3246C372.197 19.4816 372.071 19.6072 371.914 19.7014C371.76 19.7925 371.591 19.838 371.406 19.838ZM375.253 19.838C374.967 19.838 374.722 19.7375 374.518 19.5365C374.314 19.3356 374.213 19.0906 374.216 18.8017C374.213 18.5191 374.314 18.2773 374.518 18.0763C374.722 17.8754 374.967 17.7749 375.253 17.7749C375.529 17.7749 375.769 17.8754 375.973 18.0763C376.181 18.2773 376.286 18.5191 376.289 18.8017C376.286 18.9933 376.236 19.1676 376.138 19.3246C376.044 19.4816 375.918 19.6072 375.761 19.7014C375.608 19.7925 375.438 19.838 375.253 19.838ZM379.1 19.838C378.814 19.838 378.569 19.7375 378.365 19.5365C378.161 19.3356 378.061 19.0906 378.064 18.8017C378.061 18.5191 378.161 18.2773 378.365 18.0763C378.569 17.8754 378.814 17.7749 379.1 17.7749C379.376 17.7749 379.616 17.8754 379.821 18.0763C380.028 18.2773 380.133 18.5191 380.136 18.8017C380.133 18.9933 380.083 19.1676 379.985 19.3246C379.891 19.4816 379.766 19.6072 379.609 19.7014C379.455 19.7925 379.285 19.838 379.1 19.838ZM382.947 19.838C382.661 19.838 382.416 19.7375 382.212 19.5365C382.008 19.3356 381.908 19.0906 381.911 18.8017C381.908 18.5191 382.008 18.2773 382.212 18.0763C382.416 17.8754 382.661 17.7749 382.947 17.7749C383.223 17.7749 383.464 17.8754 383.668 18.0763C383.875 18.2773 383.98 18.5191 383.983 18.8017C383.98 18.9933 383.93 19.1676 383.833 19.3246C383.738 19.4816 383.613 19.6072 383.456 19.7014C383.302 19.7925 383.132 19.838 382.947 19.838ZM386.794 19.838C386.508 19.838 386.263 19.7375 386.059 19.5365C385.855 19.3356 385.755 19.0906 385.758 18.8017C385.755 18.5191 385.855 18.2773 386.059 18.0763C386.263 17.8754 386.508 17.7749 386.794 17.7749C387.071 17.7749 387.311 17.8754 387.515 18.0763C387.722 18.2773 387.827 18.5191 387.83 18.8017C387.827 18.9933 387.777 19.1676 387.68 19.3246C387.586 19.4816 387.46 19.6072 387.303 19.7014C387.149 19.7925 386.979 19.838 386.794 19.838ZM390.641 19.838C390.356 19.838 390.111 19.7375 389.907 19.5365C389.702 19.3356 389.602 19.0906 389.605 18.8017C389.602 18.5191 389.702 18.2773 389.907 18.0763C390.111 17.8754 390.356 17.7749 390.641 17.7749C390.918 17.7749 391.158 17.8754 391.362 18.0763C391.569 18.2773 391.674 18.5191 391.678 18.8017C391.674 18.9933 391.624 19.1676 391.527 19.3246C391.433 19.4816 391.307 19.6072 391.15 19.7014C390.996 19.7925 390.827 19.838 390.641 19.838ZM394.488 19.838C394.203 19.838 393.958 19.7375 393.754 19.5365C393.55 19.3356 393.449 19.0906 393.452 18.8017C393.449 18.5191 393.55 18.2773 393.754 18.0763C393.958 17.8754 394.203 17.7749 394.488 17.7749C394.765 17.7749 395.005 17.8754 395.209 18.0763C395.416 18.2773 395.522 18.5191 395.525 18.8017C395.522 18.9933 395.471 19.1676 395.374 19.3246C395.28 19.4816 395.154 19.6072 394.997 19.7014C394.843 19.7925 394.674 19.838 394.488 19.838ZM398.336 19.838C398.05 19.838 397.805 19.7375 397.601 19.5365C397.397 19.3356 397.296 19.0906 397.299 18.8017C397.296 18.5191 397.397 18.2773 397.601 18.0763C397.805 17.8754 398.05 17.7749 398.336 17.7749C398.612 17.7749 398.852 17.8754 399.056 18.0763C399.264 18.2773 399.369 18.5191 399.372 18.8017C399.369 18.9933 399.319 19.1676 399.221 19.3246C399.127 19.4816 399.001 19.6072 398.844 19.7014C398.69 19.7925 398.521 19.838 398.336 19.838ZM402.183 19.838C401.897 19.838 401.652 19.7375 401.448 19.5365C401.244 19.3356 401.143 19.0906 401.147 18.8017C401.143 18.5191 401.244 18.2773 401.448 18.0763C401.652 17.8754 401.897 17.7749 402.183 17.7749C402.459 17.7749 402.699 17.8754 402.903 18.0763C403.111 18.2773 403.216 18.5191 403.219 18.8017C403.216 18.9933 403.166 19.1676 403.068 19.3246C402.974 19.4816 402.849 19.6072 402.692 19.7014C402.538 19.7925 402.368 19.838 402.183 19.838ZM406.03 19.838C405.744 19.838 405.499 19.7375 405.295 19.5365C405.091 19.3356 404.991 19.0906 404.994 18.8017C404.991 18.5191 405.091 18.2773 405.295 18.0763C405.499 17.8754 405.744 17.7749 406.03 17.7749C406.306 17.7749 406.547 17.8754 406.751 18.0763C406.958 18.2773 407.063 18.5191 407.066 18.8017C407.063 18.9933 407.013 19.1676 406.915 19.3246C406.821 19.4816 406.696 19.6072 406.539 19.7014C406.385 19.7925 406.215 19.838 406.03 19.838ZM409.877 19.838C409.591 19.838 409.346 19.7375 409.142 19.5365C408.938 19.3356 408.838 19.0906 408.841 18.8017C408.838 18.5191 408.938 18.2773 409.142 18.0763C409.346 17.8754 409.591 17.7749 409.877 17.7749C410.153 17.7749 410.394 17.8754 410.598 18.0763C410.805 18.2773 410.91 18.5191 410.913 18.8017C410.91 18.9933 410.86 19.1676 410.763 19.3246C410.668 19.4816 410.543 19.6072 410.386 19.7014C410.232 19.7925 410.062 19.838 409.877 19.838ZM413.724 19.838C413.438 19.838 413.194 19.7375 412.989 19.5365C412.785 19.3356 412.685 19.0906 412.688 18.8017C412.685 18.5191 412.785 18.2773 412.989 18.0763C413.194 17.8754 413.438 17.7749 413.724 17.7749C414.001 17.7749 414.241 17.8754 414.445 18.0763C414.652 18.2773 414.757 18.5191 414.761 18.8017C414.757 18.9933 414.707 19.1676 414.61 19.3246C414.516 19.4816 414.39 19.6072 414.233 19.7014C414.079 19.7925 413.91 19.838 413.724 19.838ZM417.571 19.838C417.286 19.838 417.041 19.7375 416.837 19.5365C416.632 19.3356 416.532 19.0906 416.535 18.8017C416.532 18.5191 416.632 18.2773 416.837 18.0763C417.041 17.8754 417.286 17.7749 417.571 17.7749C417.848 17.7749 418.088 17.8754 418.292 18.0763C418.499 18.2773 418.605 18.5191 418.608 18.8017C418.605 18.9933 418.554 19.1676 418.457 19.3246C418.363 19.4816 418.237 19.6072 418.08 19.7014C417.926 19.7925 417.757 19.838 417.571 19.838ZM421.419 19.838C421.133 19.838 420.888 19.7375 420.684 19.5365C420.48 19.3356 420.379 19.0906 420.382 18.8017C420.379 18.5191 420.48 18.2773 420.684 18.0763C420.888 17.8754 421.133 17.7749 421.419 17.7749C421.695 17.7749 421.935 17.8754 422.139 18.0763C422.346 18.2773 422.452 18.5191 422.455 18.8017C422.452 18.9933 422.401 19.1676 422.304 19.3246C422.21 19.4816 422.084 19.6072 421.927 19.7014C421.773 19.7925 421.604 19.838 421.419 19.838ZM425.266 19.838C424.98 19.838 424.735 19.7375 424.531 19.5365C424.327 19.3356 424.226 19.0906 424.229 18.8017C424.226 18.5191 424.327 18.2773 424.531 18.0763C424.735 17.8754 424.98 17.7749 425.266 17.7749C425.542 17.7749 425.782 17.8754 425.986 18.0763C426.194 18.2773 426.299 18.5191 426.302 18.8017C426.299 18.9933 426.249 19.1676 426.151 19.3246C426.057 19.4816 425.931 19.6072 425.774 19.7014C425.621 19.7925 425.451 19.838 425.266 19.838ZM429.113 19.838C428.827 19.838 428.582 19.7375 428.378 19.5365C428.174 19.3356 428.073 19.0906 428.077 18.8017C428.073 18.5191 428.174 18.2773 428.378 18.0763C428.582 17.8754 428.827 17.7749 429.113 17.7749C429.389 17.7749 429.629 17.8754 429.834 18.0763C430.041 18.2773 430.146 18.5191 430.149 18.8017C430.146 18.9933 430.096 19.1676 429.998 19.3246C429.904 19.4816 429.779 19.6072 429.622 19.7014C429.468 19.7925 429.298 19.838 429.113 19.838ZM432.96 19.838C432.674 19.838 432.429 19.7375 432.225 19.5365C432.021 19.3356 431.921 19.0906 431.924 18.8017C431.921 18.5191 432.021 18.2773 432.225 18.0763C432.429 17.8754 432.674 17.7749 432.96 17.7749C433.236 17.7749 433.477 17.8754 433.681 18.0763C433.888 18.2773 433.993 18.5191 433.996 18.8017C433.993 18.9933 433.943 19.1676 433.846 19.3246C433.751 19.4816 433.626 19.6072 433.469 19.7014C433.315 19.7925 433.145 19.838 432.96 19.838ZM436.807 19.838C436.521 19.838 436.276 19.7375 436.072 19.5365C435.868 19.3356 435.768 19.0906 435.771 18.8017C435.768 18.5191 435.868 18.2773 436.072 18.0763C436.276 17.8754 436.521 17.7749 436.807 17.7749C437.083 17.7749 437.324 17.8754 437.528 18.0763C437.735 18.2773 437.84 18.5191 437.843 18.8017C437.84 18.9933 437.79 19.1676 437.693 19.3246C437.598 19.4816 437.473 19.6072 437.316 19.7014C437.162 19.7925 436.992 19.838 436.807 19.838ZM440.654 19.838C440.369 19.838 440.124 19.7375 439.919 19.5365C439.715 19.3356 439.615 19.0906 439.618 18.8017C439.615 18.5191 439.715 18.2773 439.919 18.0763C440.124 17.8754 440.369 17.7749 440.654 17.7749C440.931 17.7749 441.171 17.8754 441.375 18.0763C441.582 18.2773 441.687 18.5191 441.691 18.8017C441.687 18.9933 441.637 19.1676 441.54 19.3246C441.446 19.4816 441.32 19.6072 441.163 19.7014C441.009 19.7925 440.84 19.838 440.654 19.838ZM444.501 19.838C444.216 19.838 443.971 19.7375 443.767 19.5365C443.562 19.3356 443.462 19.0906 443.465 18.8017C443.462 18.5191 443.562 18.2773 443.767 18.0763C443.971 17.8754 444.216 17.7749 444.501 17.7749C444.778 17.7749 445.018 17.8754 445.222 18.0763C445.429 18.2773 445.535 18.5191 445.538 18.8017C445.535 18.9933 445.484 19.1676 445.387 19.3246C445.293 19.4816 445.167 19.6072 445.01 19.7014C444.856 19.7925 444.687 19.838 444.501 19.838ZM448.349 19.838C448.063 19.838 447.818 19.7375 447.614 19.5365C447.41 19.3356 447.309 19.0906 447.312 18.8017C447.309 18.5191 447.41 18.2773 447.614 18.0763C447.818 17.8754 448.063 17.7749 448.349 17.7749C448.625 17.7749 448.865 17.8754 449.069 18.0763C449.277 18.2773 449.382 18.5191 449.385 18.8017C449.382 18.9933 449.331 19.1676 449.234 19.3246C449.14 19.4816 449.014 19.6072 448.857 19.7014C448.703 19.7925 448.534 19.838 448.349 19.838ZM452.196 19.838C451.91 19.838 451.665 19.7375 451.461 19.5365C451.257 19.3356 451.156 19.0906 451.159 18.8017C451.156 18.5191 451.257 18.2773 451.461 18.0763C451.665 17.8754 451.91 17.7749 452.196 17.7749C452.472 17.7749 452.712 17.8754 452.916 18.0763C453.124 18.2773 453.229 18.5191 453.232 18.8017C453.229 18.9933 453.179 19.1676 453.081 19.3246C452.987 19.4816 452.861 19.6072 452.704 19.7014C452.551 19.7925 452.381 19.838 452.196 19.838ZM456.043 19.838C455.757 19.838 455.512 19.7375 455.308 19.5365C455.104 19.3356 455.003 19.0906 455.007 18.8017C455.003 18.5191 455.104 18.2773 455.308 18.0763C455.512 17.8754 455.757 17.7749 456.043 17.7749C456.319 17.7749 456.559 17.8754 456.764 18.0763C456.971 18.2773 457.076 18.5191 457.079 18.8017C457.076 18.9933 457.026 19.1676 456.928 19.3246C456.834 19.4816 456.709 19.6072 456.552 19.7014C456.398 19.7925 456.228 19.838 456.043 19.838ZM459.89 19.838C459.604 19.838 459.359 19.7375 459.155 19.5365C458.951 19.3356 458.851 19.0906 458.854 18.8017C458.851 18.5191 458.951 18.2773 459.155 18.0763C459.359 17.8754 459.604 17.7749 459.89 17.7749C460.166 17.7749 460.407 17.8754 460.611 18.0763C460.818 18.2773 460.923 18.5191 460.926 18.8017C460.923 18.9933 460.873 19.1676 460.776 19.3246C460.681 19.4816 460.556 19.6072 460.399 19.7014C460.245 19.7925 460.075 19.838 459.89 19.838ZM463.737 19.838C463.451 19.838 463.206 19.7375 463.002 19.5365C462.798 19.3356 462.698 19.0906 462.701 18.8017C462.698 18.5191 462.798 18.2773 463.002 18.0763C463.206 17.8754 463.451 17.7749 463.737 17.7749C464.013 17.7749 464.254 17.8754 464.458 18.0763C464.665 18.2773 464.77 18.5191 464.773 18.8017C464.77 18.9933 464.72 19.1676 464.623 19.3246C464.528 19.4816 464.403 19.6072 464.246 19.7014C464.092 19.7925 463.922 19.838 463.737 19.838ZM467.584 19.838C467.299 19.838 467.054 19.7375 466.849 19.5365C466.645 19.3356 466.545 19.0906 466.548 18.8017C466.545 18.5191 466.645 18.2773 466.849 18.0763C467.054 17.8754 467.299 17.7749 467.584 17.7749C467.861 17.7749 468.101 17.8754 468.305 18.0763C468.512 18.2773 468.617 18.5191 468.621 18.8017C468.617 18.9933 468.567 19.1676 468.47 19.3246C468.376 19.4816 468.25 19.6072 468.093 19.7014C467.939 19.7925 467.77 19.838 467.584 19.838ZM471.431 19.838C471.146 19.838 470.901 19.7375 470.697 19.5365C470.493 19.3356 470.392 19.0906 470.395 18.8017C470.392 18.5191 470.493 18.2773 470.697 18.0763C470.901 17.8754 471.146 17.7749 471.431 17.7749C471.708 17.7749 471.948 17.8754 472.152 18.0763C472.359 18.2773 472.465 18.5191 472.468 18.8017C472.465 18.9933 472.414 19.1676 472.317 19.3246C472.223 19.4816 472.097 19.6072 471.94 19.7014C471.786 19.7925 471.617 19.838 471.431 19.838ZM475.279 19.838C474.993 19.838 474.748 19.7375 474.544 19.5365C474.34 19.3356 474.239 19.0906 474.242 18.8017C474.239 18.5191 474.34 18.2773 474.544 18.0763C474.748 17.8754 474.993 17.7749 475.279 17.7749C475.555 17.7749 475.795 17.8754 475.999 18.0763C476.207 18.2773 476.312 18.5191 476.315 18.8017C476.312 18.9933 476.261 19.1676 476.164 19.3246C476.07 19.4816 475.944 19.6072 475.787 19.7014C475.633 19.7925 475.464 19.838 475.279 19.838Z" fill="#6C6C6C"/>
<g filter="url(#filter0_d_1954_75)">
<rect x="7.19922" y="7.19922" width="27" height="27" rx="13.5" fill="white" shape-rendering="crispEdges"/>
<path d="M20.6989 23.8444H14.4121V15.043H26.9856V23.8444H20.6989Z" stroke="#00B1EF" stroke-width="1.25735" stroke-linecap="round" stroke-linejoin="round"/>
<path d="M19.4414 23.2148H21.9561V26.9869H19.4414V23.2148Z" fill="#00B1EF"/>
<path d="M22.5846 26.3594H20.6985H18.8125" stroke="#00B1EF" stroke-width="1.25735" stroke-linecap="round" stroke-linejoin="round"/>
</g>
<defs>
<filter id="filter0_d_1954_75" x="-0.000781059" y="-0.000781059" width="41.4" height="41.4" filterUnits="userSpaceOnUse" color-interpolation-filters="sRGB">
<feFlood flood-opacity="0" result="BackgroundImageFix"/>
<feColorMatrix in="SourceAlpha" type="matrix" values="0 0 0 0 0 0 0 0 0 0 0 0 0 0 0 0 0 0 127 0" result="hardAlpha"/>
<feOffset/>
<feGaussianBlur stdDeviation="3.6"/>
<feComposite in2="hardAlpha" operator="out"/>
<feColorMatrix type="matrix" values="0 0 0 0 0 0 0 0 0 0 0 0 0 0 0 0 0 0 0.25 0"/>
<feBlend mode="normal" in2="BackgroundImageFix" result="effect1_dropShadow_1954_75"/>
<feBlend mode="normal" in="SourceGraphic" in2="effect1_dropShadow_1954_75" result="shape"/>
</filter>
</defs>
</svg>
