<svg width="506" height="43" viewBox="0 0 506 43" fill="none" xmlns="http://www.w3.org/2000/svg">
<path d="M489.197 12.9509V22.5977H487.449V14.6514H487.393L485.137 16.0927V14.4912L487.534 12.9509H489.197ZM495.179 22.7295C494.717 22.7264 494.267 22.6463 493.827 22.4893C493.388 22.3292 492.992 22.0701 492.64 21.7121C492.289 21.351 492.009 20.8721 491.802 20.2755C491.595 19.6757 491.492 18.933 491.496 18.0475C491.496 17.2216 491.584 16.4852 491.759 15.8384C491.935 15.1915 492.188 14.6451 492.518 14.1992C492.847 13.7501 493.245 13.4078 493.709 13.1723C494.177 12.9368 494.7 12.819 495.278 12.819C495.884 12.819 496.421 12.9384 496.889 13.177C497.36 13.4157 497.74 13.7423 498.029 14.1568C498.318 14.5681 498.497 15.0329 498.566 15.551H496.847C496.759 15.1805 496.578 14.8853 496.305 14.6655C496.035 14.4425 495.693 14.3311 495.278 14.3311C494.609 14.3311 494.094 14.6215 493.733 15.2025C493.375 15.7834 493.194 16.581 493.191 17.5953H493.257C493.411 17.319 493.611 17.0819 493.855 16.884C494.1 16.6862 494.377 16.5339 494.684 16.4271C494.995 16.3172 495.324 16.2623 495.669 16.2623C496.234 16.2623 496.741 16.3973 497.19 16.6674C497.643 16.9374 498.001 17.3095 498.264 17.7837C498.528 18.2547 498.658 18.7949 498.655 19.4041C498.658 20.0384 498.514 20.6083 498.222 21.1139C497.93 21.6163 497.523 22.012 497.002 22.3009C496.481 22.5898 495.873 22.7327 495.179 22.7295ZM495.17 21.3165C495.512 21.3165 495.818 21.2332 496.088 21.0668C496.358 20.9004 496.572 20.6758 496.729 20.3932C496.886 20.1106 496.963 19.7935 496.96 19.4417C496.963 19.0963 496.887 18.7839 496.733 18.5044C496.583 18.2249 496.374 18.0035 496.107 17.8402C495.84 17.6769 495.535 17.5953 495.193 17.5953C494.939 17.5953 494.702 17.644 494.482 17.7413C494.262 17.8387 494.071 17.9737 493.907 18.1464C493.744 18.316 493.615 18.5138 493.521 18.7399C493.43 18.9629 493.383 19.2015 493.38 19.4559C493.383 19.7919 493.461 20.1012 493.615 20.3838C493.769 20.6664 493.981 20.8925 494.251 21.0621C494.521 21.2317 494.827 21.3165 495.17 21.3165Z" fill="#7D7D7D"/>
<path d="M56.8083 15.7214H55.0466C54.9964 15.4325 54.9037 15.1766 54.7687 14.9536C54.6337 14.7275 54.4657 14.536 54.2647 14.3789C54.0637 14.2219 53.8345 14.1042 53.577 14.0257C53.3226 13.944 53.0479 13.9032 52.7527 13.9032C52.2283 13.9032 51.7635 14.0351 51.3584 14.2989C50.9534 14.5595 50.6362 14.9426 50.407 15.4482C50.1777 15.9506 50.0631 16.5645 50.0631 17.2899C50.0631 18.0279 50.1777 18.6496 50.407 19.1552C50.6393 19.6576 50.9565 20.0376 51.3584 20.2951C51.7635 20.5495 52.2267 20.6766 52.748 20.6766C53.0369 20.6766 53.3069 20.639 53.5582 20.5636C53.8125 20.4851 54.0402 20.3705 54.2411 20.2197C54.4453 20.069 54.6164 19.8837 54.7546 19.6639C54.8959 19.4441 54.9932 19.1929 55.0466 18.9103L56.8083 18.9197C56.7423 19.3782 56.5994 19.8084 56.3796 20.2103C56.163 20.6123 55.8788 20.9671 55.5271 21.2748C55.1754 21.5794 54.764 21.8181 54.293 21.9908C53.8219 22.1604 53.2991 22.2452 52.7244 22.2452C51.8766 22.2452 51.1198 22.0489 50.4541 21.6564C49.7883 21.2639 49.2639 20.697 48.8808 19.956C48.4977 19.2149 48.3062 18.3262 48.3062 17.2899C48.3062 16.2505 48.4993 15.3618 48.8855 14.6239C49.2718 13.8828 49.7978 13.316 50.4635 12.9235C51.1292 12.5309 51.8829 12.3347 52.7244 12.3347C53.2614 12.3347 53.7607 12.41 54.2223 12.5608C54.6839 12.7115 55.0953 12.9329 55.4564 13.2249C55.8175 13.5138 56.1143 13.8687 56.3467 14.2895C56.5822 14.7071 56.736 15.1844 56.8083 15.7214ZM67.0285 17.2899C67.0285 18.3293 66.8338 19.2196 66.4444 19.9607C66.0581 20.6986 65.5306 21.2639 64.8617 21.6564C64.196 22.0489 63.4408 22.2452 62.5961 22.2452C61.7513 22.2452 60.9946 22.0489 60.3257 21.6564C59.66 21.2607 59.1324 20.6939 58.743 19.956C58.3568 19.2149 58.1637 18.3262 58.1637 17.2899C58.1637 16.2505 58.3568 15.3618 58.743 14.6239C59.1324 13.8828 59.66 13.316 60.3257 12.9235C60.9946 12.5309 61.7513 12.3347 62.5961 12.3347C63.4408 12.3347 64.196 12.5309 64.8617 12.9235C65.5306 13.316 66.0581 13.8828 66.4444 14.6239C66.8338 15.3618 67.0285 16.2505 67.0285 17.2899ZM65.2715 17.2899C65.2715 16.5583 65.1569 15.9412 64.9277 15.4388C64.7016 14.9332 64.3876 14.5517 63.9856 14.2942C63.5837 14.0335 63.1205 13.9032 62.5961 13.9032C62.0717 13.9032 61.6085 14.0335 61.2065 14.2942C60.8046 14.5517 60.489 14.9332 60.2598 15.4388C60.0337 15.9412 59.9206 16.5583 59.9206 17.2899C59.9206 18.0216 60.0337 18.6402 60.2598 19.1458C60.489 19.6482 60.8046 20.0298 61.2065 20.2904C61.6085 20.5479 62.0717 20.6766 62.5961 20.6766C63.1205 20.6766 63.5837 20.5479 63.9856 20.2904C64.3876 20.0298 64.7016 19.6482 64.9277 19.1458C65.1569 18.6402 65.2715 18.0216 65.2715 17.2899ZM76.6081 12.4666V22.1133H75.0537L70.5082 15.5424H70.4281V22.1133H68.6806V12.4666H70.2444L74.7852 19.0422H74.87V12.4666H76.6081ZM78.0883 13.9315V12.4666H85.7849V13.9315H82.8033V22.1133H81.0699V13.9315H78.0883ZM87.3417 22.1133H85.4764L88.8725 12.4666H91.0299L94.4307 22.1133H92.5654L89.9889 14.4449H89.9135L87.3417 22.1133ZM87.4029 18.3309H92.4901V19.7346H87.4029V18.3309ZM103.505 15.7214H101.743C101.693 15.4325 101.601 15.1766 101.466 14.9536C101.331 14.7275 101.163 14.536 100.962 14.3789C100.761 14.2219 100.531 14.1042 100.274 14.0257C100.019 13.944 99.7447 13.9032 99.4495 13.9032C98.9251 13.9032 98.4604 14.0351 98.0553 14.2989C97.6502 14.5595 97.333 14.9426 97.1038 15.4482C96.8746 15.9506 96.76 16.5645 96.76 17.2899C96.76 18.0279 96.8746 18.6496 97.1038 19.1552C97.3362 19.6576 97.6533 20.0376 98.0553 20.2951C98.4604 20.5495 98.9236 20.6766 99.4448 20.6766C99.7337 20.6766 100.004 20.639 100.255 20.5636C100.509 20.4851 100.737 20.3705 100.938 20.2197C101.142 20.069 101.313 19.8837 101.451 19.6639C101.593 19.4441 101.69 19.1929 101.743 18.9103L103.505 18.9197C103.439 19.3782 103.296 19.8084 103.076 20.2103C102.86 20.6123 102.576 20.9671 102.224 21.2748C101.872 21.5794 101.461 21.8181 100.99 21.9908C100.519 22.1604 99.9959 22.2452 99.4213 22.2452C98.5734 22.2452 97.8166 22.0489 97.1509 21.6564C96.4852 21.2639 95.9608 20.697 95.5777 19.956C95.1946 19.2149 95.003 18.3262 95.003 17.2899C95.003 16.2505 95.1961 15.3618 95.5824 14.6239C95.9686 13.8828 96.4946 13.316 97.1603 12.9235C97.8261 12.5309 98.5797 12.3347 99.4213 12.3347C99.9583 12.3347 100.458 12.41 100.919 12.5608C101.381 12.7115 101.792 12.9329 102.153 13.2249C102.514 13.5138 102.811 13.8687 103.044 14.2895C103.279 14.7071 103.433 15.1844 103.505 15.7214ZM104.682 13.9315V12.4666H112.378V13.9315H109.397V22.1133H107.663V13.9315H104.682ZM123.233 12.4666H124.981V18.769C124.981 19.4598 124.817 20.0674 124.491 20.5919C124.167 21.1163 123.712 21.5261 123.125 21.8212C122.538 22.1133 121.851 22.2593 121.066 22.2593C120.278 22.2593 119.59 22.1133 119.003 21.8212C118.416 21.5261 117.961 21.1163 117.637 20.5919C117.314 20.0674 117.152 19.4598 117.152 18.769V12.4666H118.9V18.6229C118.9 19.0249 118.988 19.3829 119.163 19.6969C119.342 20.0109 119.594 20.2574 119.917 20.4364C120.24 20.6123 120.624 20.7002 121.066 20.7002C121.509 20.7002 121.892 20.6123 122.216 20.4364C122.542 20.2574 122.793 20.0109 122.969 19.6969C123.145 19.3829 123.233 19.0249 123.233 18.6229V12.4666ZM132.123 15.1185C132.079 14.7071 131.893 14.3868 131.567 14.1576C131.243 13.9283 130.823 13.8137 130.304 13.8137C129.94 13.8137 129.628 13.8687 129.367 13.9786C129.106 14.0885 128.907 14.2376 128.769 14.4261C128.631 14.6145 128.56 14.8296 128.557 15.0714C128.557 15.2723 128.602 15.4466 128.694 15.5942C128.788 15.7418 128.915 15.8674 129.075 15.971C129.235 16.0715 129.413 16.1563 129.607 16.2254C129.802 16.2945 129.998 16.3526 130.196 16.3997L131.1 16.6258C131.465 16.7106 131.815 16.8252 132.151 16.9696C132.49 17.1141 132.793 17.2962 133.06 17.516C133.33 17.7358 133.544 18.0012 133.701 18.3121C133.858 18.6229 133.936 18.9872 133.936 19.4049C133.936 19.9701 133.792 20.4678 133.503 20.898C133.214 21.3251 132.796 21.6595 132.25 21.9013C131.707 22.14 131.049 22.2593 130.276 22.2593C129.526 22.2593 128.874 22.1431 128.321 21.9107C127.772 21.6784 127.342 21.3392 127.031 20.8933C126.723 20.4474 126.557 19.9041 126.531 19.2635H128.251C128.276 19.5995 128.379 19.879 128.562 20.102C128.744 20.3249 128.981 20.4914 129.273 20.6013C129.568 20.7112 129.898 20.7661 130.262 20.7661C130.642 20.7661 130.975 20.7096 131.261 20.5966C131.55 20.4804 131.776 20.3202 131.939 20.1161C132.102 19.9089 132.185 19.6671 132.189 19.3907C132.185 19.1395 132.112 18.9323 131.967 18.769C131.823 18.6025 131.62 18.4644 131.36 18.3545C131.102 18.2414 130.801 18.1409 130.455 18.053L129.358 17.7704C128.563 17.5663 127.935 17.2569 127.474 16.8424C127.015 16.4248 126.786 15.8705 126.786 15.1797C126.786 14.6113 126.94 14.1136 127.247 13.6865C127.558 13.2595 127.981 12.9282 128.515 12.6927C129.048 12.454 129.653 12.3347 130.328 12.3347C131.013 12.3347 131.612 12.454 132.127 12.6927C132.645 12.9282 133.052 13.2563 133.347 13.6771C133.642 14.0948 133.795 14.5752 133.804 15.1185H132.123Z" fill="black"/>
<path d="M156.366 18.2403C156.08 18.2403 155.835 18.1399 155.631 17.9389C155.427 17.7379 155.326 17.493 155.329 17.2041C155.326 16.9215 155.427 16.6797 155.631 16.4787C155.835 16.2777 156.08 16.1772 156.366 16.1772C156.642 16.1772 156.882 16.2777 157.086 16.4787C157.294 16.6797 157.399 16.9215 157.402 17.2041C157.399 17.3956 157.349 17.5699 157.251 17.7269C157.157 17.8839 157.031 18.0095 156.874 18.1037C156.721 18.1948 156.551 18.2403 156.366 18.2403ZM160.213 18.2403C159.927 18.2403 159.682 18.1399 159.478 17.9389C159.274 17.7379 159.173 17.493 159.177 17.2041C159.173 16.9215 159.274 16.6797 159.478 16.4787C159.682 16.2777 159.927 16.1772 160.213 16.1772C160.489 16.1772 160.729 16.2777 160.934 16.4787C161.141 16.6797 161.246 16.9215 161.249 17.2041C161.246 17.3956 161.196 17.5699 161.098 17.7269C161.004 17.8839 160.879 18.0095 160.722 18.1037C160.568 18.1948 160.398 18.2403 160.213 18.2403ZM164.06 18.2403C163.774 18.2403 163.529 18.1399 163.325 17.9389C163.121 17.7379 163.021 17.493 163.024 17.2041C163.021 16.9215 163.121 16.6797 163.325 16.4787C163.529 16.2777 163.774 16.1772 164.06 16.1772C164.336 16.1772 164.577 16.2777 164.781 16.4787C164.988 16.6797 165.093 16.9215 165.096 17.2041C165.093 17.3956 165.043 17.5699 164.946 17.7269C164.851 17.8839 164.726 18.0095 164.569 18.1037C164.415 18.1948 164.245 18.2403 164.06 18.2403ZM167.907 18.2403C167.621 18.2403 167.376 18.1399 167.172 17.9389C166.968 17.7379 166.868 17.493 166.871 17.2041C166.868 16.9215 166.968 16.6797 167.172 16.4787C167.376 16.2777 167.621 16.1772 167.907 16.1772C168.184 16.1772 168.424 16.2777 168.628 16.4787C168.835 16.6797 168.94 16.9215 168.943 17.2041C168.94 17.3956 168.89 17.5699 168.793 17.7269C168.699 17.8839 168.573 18.0095 168.416 18.1037C168.262 18.1948 168.092 18.2403 167.907 18.2403ZM171.754 18.2403C171.469 18.2403 171.224 18.1399 171.02 17.9389C170.815 17.7379 170.715 17.493 170.718 17.2041C170.715 16.9215 170.815 16.6797 171.02 16.4787C171.224 16.2777 171.469 16.1772 171.754 16.1772C172.031 16.1772 172.271 16.2777 172.475 16.4787C172.682 16.6797 172.787 16.9215 172.791 17.2041C172.787 17.3956 172.737 17.5699 172.64 17.7269C172.546 17.8839 172.42 18.0095 172.263 18.1037C172.109 18.1948 171.94 18.2403 171.754 18.2403ZM175.601 18.2403C175.316 18.2403 175.071 18.1399 174.867 17.9389C174.663 17.7379 174.562 17.493 174.565 17.2041C174.562 16.9215 174.663 16.6797 174.867 16.4787C175.071 16.2777 175.316 16.1772 175.601 16.1772C175.878 16.1772 176.118 16.2777 176.322 16.4787C176.529 16.6797 176.635 16.9215 176.638 17.2041C176.635 17.3956 176.584 17.5699 176.487 17.7269C176.393 17.8839 176.267 18.0095 176.11 18.1037C175.956 18.1948 175.787 18.2403 175.601 18.2403ZM179.449 18.2403C179.163 18.2403 178.918 18.1399 178.714 17.9389C178.51 17.7379 178.409 17.493 178.412 17.2041C178.409 16.9215 178.51 16.6797 178.714 16.4787C178.918 16.2777 179.163 16.1772 179.449 16.1772C179.725 16.1772 179.965 16.2777 180.169 16.4787C180.377 16.6797 180.482 16.9215 180.485 17.2041C180.482 17.3956 180.431 17.5699 180.334 17.7269C180.24 17.8839 180.114 18.0095 179.957 18.1037C179.803 18.1948 179.634 18.2403 179.449 18.2403ZM183.296 18.2403C183.01 18.2403 182.765 18.1399 182.561 17.9389C182.357 17.7379 182.256 17.493 182.259 17.2041C182.256 16.9215 182.357 16.6797 182.561 16.4787C182.765 16.2777 183.01 16.1772 183.296 16.1772C183.572 16.1772 183.812 16.2777 184.016 16.4787C184.224 16.6797 184.329 16.9215 184.332 17.2041C184.329 17.3956 184.279 17.5699 184.181 17.7269C184.087 17.8839 183.961 18.0095 183.804 18.1037C183.651 18.1948 183.481 18.2403 183.296 18.2403ZM187.143 18.2403C186.857 18.2403 186.612 18.1399 186.408 17.9389C186.204 17.7379 186.103 17.493 186.107 17.2041C186.103 16.9215 186.204 16.6797 186.408 16.4787C186.612 16.2777 186.857 16.1772 187.143 16.1772C187.419 16.1772 187.659 16.2777 187.864 16.4787C188.071 16.6797 188.176 16.9215 188.179 17.2041C188.176 17.3956 188.126 17.5699 188.028 17.7269C187.934 17.8839 187.809 18.0095 187.652 18.1037C187.498 18.1948 187.328 18.2403 187.143 18.2403ZM190.99 18.2403C190.704 18.2403 190.459 18.1399 190.255 17.9389C190.051 17.7379 189.951 17.493 189.954 17.2041C189.951 16.9215 190.051 16.6797 190.255 16.4787C190.459 16.2777 190.704 16.1772 190.99 16.1772C191.266 16.1772 191.507 16.2777 191.711 16.4787C191.918 16.6797 192.023 16.9215 192.026 17.2041C192.023 17.3956 191.973 17.5699 191.876 17.7269C191.781 17.8839 191.656 18.0095 191.499 18.1037C191.345 18.1948 191.175 18.2403 190.99 18.2403ZM194.837 18.2403C194.551 18.2403 194.307 18.1399 194.102 17.9389C193.898 17.7379 193.798 17.493 193.801 17.2041C193.798 16.9215 193.898 16.6797 194.102 16.4787C194.307 16.2777 194.551 16.1772 194.837 16.1772C195.114 16.1772 195.354 16.2777 195.558 16.4787C195.765 16.6797 195.87 16.9215 195.873 17.2041C195.87 17.3956 195.82 17.5699 195.723 17.7269C195.629 17.8839 195.503 18.0095 195.346 18.1037C195.192 18.1948 195.022 18.2403 194.837 18.2403ZM198.684 18.2403C198.399 18.2403 198.154 18.1399 197.95 17.9389C197.745 17.7379 197.645 17.493 197.648 17.2041C197.645 16.9215 197.745 16.6797 197.95 16.4787C198.154 16.2777 198.399 16.1772 198.684 16.1772C198.961 16.1772 199.201 16.2777 199.405 16.4787C199.612 16.6797 199.717 16.9215 199.721 17.2041C199.717 17.3956 199.667 17.5699 199.57 17.7269C199.476 17.8839 199.35 18.0095 199.193 18.1037C199.039 18.1948 198.87 18.2403 198.684 18.2403ZM202.531 18.2403C202.246 18.2403 202.001 18.1399 201.797 17.9389C201.593 17.7379 201.492 17.493 201.495 17.2041C201.492 16.9215 201.593 16.6797 201.797 16.4787C202.001 16.2777 202.246 16.1772 202.531 16.1772C202.808 16.1772 203.048 16.2777 203.252 16.4787C203.459 16.6797 203.565 16.9215 203.568 17.2041C203.565 17.3956 203.514 17.5699 203.417 17.7269C203.323 17.8839 203.197 18.0095 203.04 18.1037C202.886 18.1948 202.717 18.2403 202.531 18.2403ZM206.379 18.2403C206.093 18.2403 205.848 18.1399 205.644 17.9389C205.44 17.7379 205.339 17.493 205.342 17.2041C205.339 16.9215 205.44 16.6797 205.644 16.4787C205.848 16.2777 206.093 16.1772 206.379 16.1772C206.655 16.1772 206.895 16.2777 207.099 16.4787C207.307 16.6797 207.412 16.9215 207.415 17.2041C207.412 17.3956 207.362 17.5699 207.264 17.7269C207.17 17.8839 207.044 18.0095 206.887 18.1037C206.733 18.1948 206.564 18.2403 206.379 18.2403ZM210.226 18.2403C209.94 18.2403 209.695 18.1399 209.491 17.9389C209.287 17.7379 209.186 17.493 209.19 17.2041C209.186 16.9215 209.287 16.6797 209.491 16.4787C209.695 16.2777 209.94 16.1772 210.226 16.1772C210.502 16.1772 210.742 16.2777 210.946 16.4787C211.154 16.6797 211.259 16.9215 211.262 17.2041C211.259 17.3956 211.209 17.5699 211.111 17.7269C211.017 17.8839 210.892 18.0095 210.735 18.1037C210.581 18.1948 210.411 18.2403 210.226 18.2403ZM214.073 18.2403C213.787 18.2403 213.542 18.1399 213.338 17.9389C213.134 17.7379 213.034 17.493 213.037 17.2041C213.034 16.9215 213.134 16.6797 213.338 16.4787C213.542 16.2777 213.787 16.1772 214.073 16.1772C214.349 16.1772 214.59 16.2777 214.794 16.4787C215.001 16.6797 215.106 16.9215 215.109 17.2041C215.106 17.3956 215.056 17.5699 214.958 17.7269C214.864 17.8839 214.739 18.0095 214.582 18.1037C214.428 18.1948 214.258 18.2403 214.073 18.2403ZM217.92 18.2403C217.634 18.2403 217.389 18.1399 217.185 17.9389C216.981 17.7379 216.881 17.493 216.884 17.2041C216.881 16.9215 216.981 16.6797 217.185 16.4787C217.389 16.2777 217.634 16.1772 217.92 16.1772C218.196 16.1772 218.437 16.2777 218.641 16.4787C218.848 16.6797 218.953 16.9215 218.956 17.2041C218.953 17.3956 218.903 17.5699 218.806 17.7269C218.711 17.8839 218.586 18.0095 218.429 18.1037C218.275 18.1948 218.105 18.2403 217.92 18.2403ZM221.767 18.2403C221.481 18.2403 221.237 18.1399 221.032 17.9389C220.828 17.7379 220.728 17.493 220.731 17.2041C220.728 16.9215 220.828 16.6797 221.032 16.4787C221.237 16.2777 221.481 16.1772 221.767 16.1772C222.044 16.1772 222.284 16.2777 222.488 16.4787C222.695 16.6797 222.8 16.9215 222.803 17.2041C222.8 17.3956 222.75 17.5699 222.653 17.7269C222.559 17.8839 222.433 18.0095 222.276 18.1037C222.122 18.1948 221.953 18.2403 221.767 18.2403ZM225.614 18.2403C225.329 18.2403 225.084 18.1399 224.88 17.9389C224.675 17.7379 224.575 17.493 224.578 17.2041C224.575 16.9215 224.675 16.6797 224.88 16.4787C225.084 16.2777 225.329 16.1772 225.614 16.1772C225.891 16.1772 226.131 16.2777 226.335 16.4787C226.542 16.6797 226.648 16.9215 226.651 17.2041C226.648 17.3956 226.597 17.5699 226.5 17.7269C226.406 17.8839 226.28 18.0095 226.123 18.1037C225.969 18.1948 225.8 18.2403 225.614 18.2403ZM229.462 18.2403C229.176 18.2403 228.931 18.1399 228.727 17.9389C228.523 17.7379 228.422 17.493 228.425 17.2041C228.422 16.9215 228.523 16.6797 228.727 16.4787C228.931 16.2777 229.176 16.1772 229.462 16.1772C229.738 16.1772 229.978 16.2777 230.182 16.4787C230.389 16.6797 230.495 16.9215 230.498 17.2041C230.495 17.3956 230.444 17.5699 230.347 17.7269C230.253 17.8839 230.127 18.0095 229.97 18.1037C229.816 18.1948 229.647 18.2403 229.462 18.2403ZM233.309 18.2403C233.023 18.2403 232.778 18.1399 232.574 17.9389C232.37 17.7379 232.269 17.493 232.272 17.2041C232.269 16.9215 232.37 16.6797 232.574 16.4787C232.778 16.2777 233.023 16.1772 233.309 16.1772C233.585 16.1772 233.825 16.2777 234.029 16.4787C234.237 16.6797 234.342 16.9215 234.345 17.2041C234.342 17.3956 234.292 17.5699 234.194 17.7269C234.1 17.8839 233.974 18.0095 233.817 18.1037C233.664 18.1948 233.494 18.2403 233.309 18.2403ZM237.156 18.2403C236.87 18.2403 236.625 18.1399 236.421 17.9389C236.217 17.7379 236.116 17.493 236.12 17.2041C236.116 16.9215 236.217 16.6797 236.421 16.4787C236.625 16.2777 236.87 16.1772 237.156 16.1772C237.432 16.1772 237.672 16.2777 237.877 16.4787C238.084 16.6797 238.189 16.9215 238.192 17.2041C238.189 17.3956 238.139 17.5699 238.041 17.7269C237.947 17.8839 237.822 18.0095 237.665 18.1037C237.511 18.1948 237.341 18.2403 237.156 18.2403ZM241.003 18.2403C240.717 18.2403 240.472 18.1399 240.268 17.9389C240.064 17.7379 239.964 17.493 239.967 17.2041C239.964 16.9215 240.064 16.6797 240.268 16.4787C240.472 16.2777 240.717 16.1772 241.003 16.1772C241.279 16.1772 241.52 16.2777 241.724 16.4787C241.931 16.6797 242.036 16.9215 242.039 17.2041C242.036 17.3956 241.986 17.5699 241.889 17.7269C241.794 17.8839 241.669 18.0095 241.512 18.1037C241.358 18.1948 241.188 18.2403 241.003 18.2403ZM244.85 18.2403C244.564 18.2403 244.319 18.1399 244.115 17.9389C243.911 17.7379 243.811 17.493 243.814 17.2041C243.811 16.9215 243.911 16.6797 244.115 16.4787C244.319 16.2777 244.564 16.1772 244.85 16.1772C245.126 16.1772 245.367 16.2777 245.571 16.4787C245.778 16.6797 245.883 16.9215 245.886 17.2041C245.883 17.3956 245.833 17.5699 245.736 17.7269C245.641 17.8839 245.516 18.0095 245.359 18.1037C245.205 18.1948 245.035 18.2403 244.85 18.2403ZM248.697 18.2403C248.412 18.2403 248.167 18.1399 247.962 17.9389C247.758 17.7379 247.658 17.493 247.661 17.2041C247.658 16.9215 247.758 16.6797 247.962 16.4787C248.167 16.2777 248.412 16.1772 248.697 16.1772C248.974 16.1772 249.214 16.2777 249.418 16.4787C249.625 16.6797 249.73 16.9215 249.734 17.2041C249.73 17.3956 249.68 17.5699 249.583 17.7269C249.489 17.8839 249.363 18.0095 249.206 18.1037C249.052 18.1948 248.883 18.2403 248.697 18.2403ZM252.544 18.2403C252.259 18.2403 252.014 18.1399 251.81 17.9389C251.605 17.7379 251.505 17.493 251.508 17.2041C251.505 16.9215 251.605 16.6797 251.81 16.4787C252.014 16.2777 252.259 16.1772 252.544 16.1772C252.821 16.1772 253.061 16.2777 253.265 16.4787C253.472 16.6797 253.578 16.9215 253.581 17.2041C253.578 17.3956 253.527 17.5699 253.43 17.7269C253.336 17.8839 253.21 18.0095 253.053 18.1037C252.899 18.1948 252.73 18.2403 252.544 18.2403ZM256.392 18.2403C256.106 18.2403 255.861 18.1399 255.657 17.9389C255.453 17.7379 255.352 17.493 255.355 17.2041C255.352 16.9215 255.453 16.6797 255.657 16.4787C255.861 16.2777 256.106 16.1772 256.392 16.1772C256.668 16.1772 256.908 16.2777 257.112 16.4787C257.319 16.6797 257.425 16.9215 257.428 17.2041C257.425 17.3956 257.374 17.5699 257.277 17.7269C257.183 17.8839 257.057 18.0095 256.9 18.1037C256.746 18.1948 256.577 18.2403 256.392 18.2403ZM260.239 18.2403C259.953 18.2403 259.708 18.1399 259.504 17.9389C259.3 17.7379 259.199 17.493 259.202 17.2041C259.199 16.9215 259.3 16.6797 259.504 16.4787C259.708 16.2777 259.953 16.1772 260.239 16.1772C260.515 16.1772 260.755 16.2777 260.959 16.4787C261.167 16.6797 261.272 16.9215 261.275 17.2041C261.272 17.3956 261.222 17.5699 261.124 17.7269C261.03 17.8839 260.904 18.0095 260.747 18.1037C260.594 18.1948 260.424 18.2403 260.239 18.2403ZM264.086 18.2403C263.8 18.2403 263.555 18.1399 263.351 17.9389C263.147 17.7379 263.046 17.493 263.05 17.2041C263.046 16.9215 263.147 16.6797 263.351 16.4787C263.555 16.2777 263.8 16.1772 264.086 16.1772C264.362 16.1772 264.602 16.2777 264.807 16.4787C265.014 16.6797 265.119 16.9215 265.122 17.2041C265.119 17.3956 265.069 17.5699 264.971 17.7269C264.877 17.8839 264.752 18.0095 264.595 18.1037C264.441 18.1948 264.271 18.2403 264.086 18.2403ZM267.933 18.2403C267.647 18.2403 267.402 18.1399 267.198 17.9389C266.994 17.7379 266.894 17.493 266.897 17.2041C266.894 16.9215 266.994 16.6797 267.198 16.4787C267.402 16.2777 267.647 16.1772 267.933 16.1772C268.209 16.1772 268.45 16.2777 268.654 16.4787C268.861 16.6797 268.966 16.9215 268.969 17.2041C268.966 17.3956 268.916 17.5699 268.819 17.7269C268.724 17.8839 268.599 18.0095 268.442 18.1037C268.288 18.1948 268.118 18.2403 267.933 18.2403ZM271.78 18.2403C271.494 18.2403 271.249 18.1399 271.045 17.9389C270.841 17.7379 270.741 17.493 270.744 17.2041C270.741 16.9215 270.841 16.6797 271.045 16.4787C271.249 16.2777 271.494 16.1772 271.78 16.1772C272.056 16.1772 272.297 16.2777 272.501 16.4787C272.708 16.6797 272.813 16.9215 272.816 17.2041C272.813 17.3956 272.763 17.5699 272.666 17.7269C272.571 17.8839 272.446 18.0095 272.289 18.1037C272.135 18.1948 271.965 18.2403 271.78 18.2403ZM275.627 18.2403C275.342 18.2403 275.097 18.1399 274.892 17.9389C274.688 17.7379 274.588 17.493 274.591 17.2041C274.588 16.9215 274.688 16.6797 274.892 16.4787C275.097 16.2777 275.342 16.1772 275.627 16.1772C275.904 16.1772 276.144 16.2777 276.348 16.4787C276.555 16.6797 276.66 16.9215 276.664 17.2041C276.66 17.3956 276.61 17.5699 276.513 17.7269C276.419 17.8839 276.293 18.0095 276.136 18.1037C275.982 18.1948 275.813 18.2403 275.627 18.2403ZM279.474 18.2403C279.189 18.2403 278.944 18.1399 278.74 17.9389C278.536 17.7379 278.435 17.493 278.438 17.2041C278.435 16.9215 278.536 16.6797 278.74 16.4787C278.944 16.2777 279.189 16.1772 279.474 16.1772C279.751 16.1772 279.991 16.2777 280.195 16.4787C280.402 16.6797 280.508 16.9215 280.511 17.2041C280.508 17.3956 280.457 17.5699 280.36 17.7269C280.266 17.8839 280.14 18.0095 279.983 18.1037C279.829 18.1948 279.66 18.2403 279.474 18.2403ZM283.322 18.2403C283.036 18.2403 282.791 18.1399 282.587 17.9389C282.383 17.7379 282.282 17.493 282.285 17.2041C282.282 16.9215 282.383 16.6797 282.587 16.4787C282.791 16.2777 283.036 16.1772 283.322 16.1772C283.598 16.1772 283.838 16.2777 284.042 16.4787C284.25 16.6797 284.355 16.9215 284.358 17.2041C284.355 17.3956 284.304 17.5699 284.207 17.7269C284.113 17.8839 283.987 18.0095 283.83 18.1037C283.676 18.1948 283.507 18.2403 283.322 18.2403ZM287.169 18.2403C286.883 18.2403 286.638 18.1399 286.434 17.9389C286.23 17.7379 286.129 17.493 286.132 17.2041C286.129 16.9215 286.23 16.6797 286.434 16.4787C286.638 16.2777 286.883 16.1772 287.169 16.1772C287.445 16.1772 287.685 16.2777 287.889 16.4787C288.097 16.6797 288.202 16.9215 288.205 17.2041C288.202 17.3956 288.152 17.5699 288.054 17.7269C287.96 17.8839 287.834 18.0095 287.677 18.1037C287.524 18.1948 287.354 18.2403 287.169 18.2403ZM291.016 18.2403C290.73 18.2403 290.485 18.1399 290.281 17.9389C290.077 17.7379 289.976 17.493 289.98 17.2041C289.976 16.9215 290.077 16.6797 290.281 16.4787C290.485 16.2777 290.73 16.1772 291.016 16.1772C291.292 16.1772 291.532 16.2777 291.737 16.4787C291.944 16.6797 292.049 16.9215 292.052 17.2041C292.049 17.3956 291.999 17.5699 291.901 17.7269C291.807 17.8839 291.682 18.0095 291.525 18.1037C291.371 18.1948 291.201 18.2403 291.016 18.2403ZM294.863 18.2403C294.577 18.2403 294.332 18.1399 294.128 17.9389C293.924 17.7379 293.824 17.493 293.827 17.2041C293.824 16.9215 293.924 16.6797 294.128 16.4787C294.332 16.2777 294.577 16.1772 294.863 16.1772C295.139 16.1772 295.38 16.2777 295.584 16.4787C295.791 16.6797 295.896 16.9215 295.899 17.2041C295.896 17.3956 295.846 17.5699 295.749 17.7269C295.654 17.8839 295.529 18.0095 295.372 18.1037C295.218 18.1948 295.048 18.2403 294.863 18.2403ZM298.71 18.2403C298.424 18.2403 298.179 18.1399 297.975 17.9389C297.771 17.7379 297.671 17.493 297.674 17.2041C297.671 16.9215 297.771 16.6797 297.975 16.4787C298.179 16.2777 298.424 16.1772 298.71 16.1772C298.987 16.1772 299.227 16.2777 299.431 16.4787C299.638 16.6797 299.743 16.9215 299.746 17.2041C299.743 17.3956 299.693 17.5699 299.596 17.7269C299.502 17.8839 299.376 18.0095 299.219 18.1037C299.065 18.1948 298.895 18.2403 298.71 18.2403ZM302.557 18.2403C302.272 18.2403 302.027 18.1399 301.823 17.9389C301.618 17.7379 301.518 17.493 301.521 17.2041C301.518 16.9215 301.618 16.6797 301.823 16.4787C302.027 16.2777 302.272 16.1772 302.557 16.1772C302.834 16.1772 303.074 16.2777 303.278 16.4787C303.485 16.6797 303.59 16.9215 303.594 17.2041C303.59 17.3956 303.54 17.5699 303.443 17.7269C303.349 17.8839 303.223 18.0095 303.066 18.1037C302.912 18.1948 302.743 18.2403 302.557 18.2403ZM306.404 18.2403C306.119 18.2403 305.874 18.1399 305.67 17.9389C305.466 17.7379 305.365 17.493 305.368 17.2041C305.365 16.9215 305.466 16.6797 305.67 16.4787C305.874 16.2777 306.119 16.1772 306.404 16.1772C306.681 16.1772 306.921 16.2777 307.125 16.4787C307.332 16.6797 307.438 16.9215 307.441 17.2041C307.438 17.3956 307.387 17.5699 307.29 17.7269C307.196 17.8839 307.07 18.0095 306.913 18.1037C306.759 18.1948 306.59 18.2403 306.404 18.2403ZM310.252 18.2403C309.966 18.2403 309.721 18.1399 309.517 17.9389C309.313 17.7379 309.212 17.493 309.215 17.2041C309.212 16.9215 309.313 16.6797 309.517 16.4787C309.721 16.2777 309.966 16.1772 310.252 16.1772C310.528 16.1772 310.768 16.2777 310.972 16.4787C311.18 16.6797 311.285 16.9215 311.288 17.2041C311.285 17.3956 311.235 17.5699 311.137 17.7269C311.043 17.8839 310.917 18.0095 310.76 18.1037C310.606 18.1948 310.437 18.2403 310.252 18.2403ZM314.099 18.2403C313.813 18.2403 313.568 18.1399 313.364 17.9389C313.16 17.7379 313.059 17.493 313.063 17.2041C313.059 16.9215 313.16 16.6797 313.364 16.4787C313.568 16.2777 313.813 16.1772 314.099 16.1772C314.375 16.1772 314.615 16.2777 314.819 16.4787C315.027 16.6797 315.132 16.9215 315.135 17.2041C315.132 17.3956 315.082 17.5699 314.984 17.7269C314.89 17.8839 314.764 18.0095 314.607 18.1037C314.454 18.1948 314.284 18.2403 314.099 18.2403ZM317.946 18.2403C317.66 18.2403 317.415 18.1399 317.211 17.9389C317.007 17.7379 316.907 17.493 316.91 17.2041C316.907 16.9215 317.007 16.6797 317.211 16.4787C317.415 16.2777 317.66 16.1772 317.946 16.1772C318.222 16.1772 318.462 16.2777 318.667 16.4787C318.874 16.6797 318.979 16.9215 318.982 17.2041C318.979 17.3956 318.929 17.5699 318.831 17.7269C318.737 17.8839 318.612 18.0095 318.455 18.1037C318.301 18.1948 318.131 18.2403 317.946 18.2403ZM321.793 18.2403C321.507 18.2403 321.262 18.1399 321.058 17.9389C320.854 17.7379 320.754 17.493 320.757 17.2041C320.754 16.9215 320.854 16.6797 321.058 16.4787C321.262 16.2777 321.507 16.1772 321.793 16.1772C322.069 16.1772 322.31 16.2777 322.514 16.4787C322.721 16.6797 322.826 16.9215 322.829 17.2041C322.826 17.3956 322.776 17.5699 322.679 17.7269C322.584 17.8839 322.459 18.0095 322.302 18.1037C322.148 18.1948 321.978 18.2403 321.793 18.2403ZM325.64 18.2403C325.354 18.2403 325.11 18.1399 324.905 17.9389C324.701 17.7379 324.601 17.493 324.604 17.2041C324.601 16.9215 324.701 16.6797 324.905 16.4787C325.11 16.2777 325.354 16.1772 325.64 16.1772C325.917 16.1772 326.157 16.2777 326.361 16.4787C326.568 16.6797 326.673 16.9215 326.676 17.2041C326.673 17.3956 326.623 17.5699 326.526 17.7269C326.432 17.8839 326.306 18.0095 326.149 18.1037C325.995 18.1948 325.825 18.2403 325.64 18.2403ZM329.487 18.2403C329.202 18.2403 328.957 18.1399 328.753 17.9389C328.548 17.7379 328.448 17.493 328.451 17.2041C328.448 16.9215 328.548 16.6797 328.753 16.4787C328.957 16.2777 329.202 16.1772 329.487 16.1772C329.764 16.1772 330.004 16.2777 330.208 16.4787C330.415 16.6797 330.52 16.9215 330.524 17.2041C330.52 17.3956 330.47 17.5699 330.373 17.7269C330.279 17.8839 330.153 18.0095 329.996 18.1037C329.842 18.1948 329.673 18.2403 329.487 18.2403ZM333.335 18.2403C333.049 18.2403 332.804 18.1399 332.6 17.9389C332.396 17.7379 332.295 17.493 332.298 17.2041C332.295 16.9215 332.396 16.6797 332.6 16.4787C332.804 16.2777 333.049 16.1772 333.335 16.1772C333.611 16.1772 333.851 16.2777 334.055 16.4787C334.262 16.6797 334.368 16.9215 334.371 17.2041C334.368 17.3956 334.317 17.5699 334.22 17.7269C334.126 17.8839 334 18.0095 333.843 18.1037C333.689 18.1948 333.52 18.2403 333.335 18.2403ZM337.182 18.2403C336.896 18.2403 336.651 18.1399 336.447 17.9389C336.243 17.7379 336.142 17.493 336.145 17.2041C336.142 16.9215 336.243 16.6797 336.447 16.4787C336.651 16.2777 336.896 16.1772 337.182 16.1772C337.458 16.1772 337.698 16.2777 337.902 16.4787C338.11 16.6797 338.215 16.9215 338.218 17.2041C338.215 17.3956 338.165 17.5699 338.067 17.7269C337.973 17.8839 337.847 18.0095 337.69 18.1037C337.537 18.1948 337.367 18.2403 337.182 18.2403ZM341.029 18.2403C340.743 18.2403 340.498 18.1399 340.294 17.9389C340.09 17.7379 339.989 17.493 339.993 17.2041C339.989 16.9215 340.09 16.6797 340.294 16.4787C340.498 16.2777 340.743 16.1772 341.029 16.1772C341.305 16.1772 341.545 16.2777 341.749 16.4787C341.957 16.6797 342.062 16.9215 342.065 17.2041C342.062 17.3956 342.012 17.5699 341.914 17.7269C341.82 17.8839 341.695 18.0095 341.538 18.1037C341.384 18.1948 341.214 18.2403 341.029 18.2403ZM344.876 18.2403C344.59 18.2403 344.345 18.1399 344.141 17.9389C343.937 17.7379 343.837 17.493 343.84 17.2041C343.837 16.9215 343.937 16.6797 344.141 16.4787C344.345 16.2777 344.59 16.1772 344.876 16.1772C345.152 16.1772 345.393 16.2777 345.597 16.4787C345.804 16.6797 345.909 16.9215 345.912 17.2041C345.909 17.3956 345.859 17.5699 345.761 17.7269C345.667 17.8839 345.542 18.0095 345.385 18.1037C345.231 18.1948 345.061 18.2403 344.876 18.2403ZM348.723 18.2403C348.437 18.2403 348.192 18.1399 347.988 17.9389C347.784 17.7379 347.684 17.493 347.687 17.2041C347.684 16.9215 347.784 16.6797 347.988 16.4787C348.192 16.2777 348.437 16.1772 348.723 16.1772C348.999 16.1772 349.24 16.2777 349.444 16.4787C349.651 16.6797 349.756 16.9215 349.759 17.2041C349.756 17.3956 349.706 17.5699 349.609 17.7269C349.514 17.8839 349.389 18.0095 349.232 18.1037C349.078 18.1948 348.908 18.2403 348.723 18.2403ZM352.57 18.2403C352.284 18.2403 352.04 18.1399 351.835 17.9389C351.631 17.7379 351.531 17.493 351.534 17.2041C351.531 16.9215 351.631 16.6797 351.835 16.4787C352.04 16.2777 352.284 16.1772 352.57 16.1772C352.847 16.1772 353.087 16.2777 353.291 16.4787C353.498 16.6797 353.603 16.9215 353.607 17.2041C353.603 17.3956 353.553 17.5699 353.456 17.7269C353.362 17.8839 353.236 18.0095 353.079 18.1037C352.925 18.1948 352.756 18.2403 352.57 18.2403ZM356.417 18.2403C356.132 18.2403 355.887 18.1399 355.683 17.9389C355.478 17.7379 355.378 17.493 355.381 17.2041C355.378 16.9215 355.478 16.6797 355.683 16.4787C355.887 16.2777 356.132 16.1772 356.417 16.1772C356.694 16.1772 356.934 16.2777 357.138 16.4787C357.345 16.6797 357.451 16.9215 357.454 17.2041C357.451 17.3956 357.4 17.5699 357.303 17.7269C357.209 17.8839 357.083 18.0095 356.926 18.1037C356.772 18.1948 356.603 18.2403 356.417 18.2403ZM360.265 18.2403C359.979 18.2403 359.734 18.1399 359.53 17.9389C359.326 17.7379 359.225 17.493 359.228 17.2041C359.225 16.9215 359.326 16.6797 359.53 16.4787C359.734 16.2777 359.979 16.1772 360.265 16.1772C360.541 16.1772 360.781 16.2777 360.985 16.4787C361.192 16.6797 361.298 16.9215 361.301 17.2041C361.298 17.3956 361.247 17.5699 361.15 17.7269C361.056 17.8839 360.93 18.0095 360.773 18.1037C360.619 18.1948 360.45 18.2403 360.265 18.2403ZM364.112 18.2403C363.826 18.2403 363.581 18.1399 363.377 17.9389C363.173 17.7379 363.072 17.493 363.075 17.2041C363.072 16.9215 363.173 16.6797 363.377 16.4787C363.581 16.2777 363.826 16.1772 364.112 16.1772C364.388 16.1772 364.628 16.2777 364.832 16.4787C365.04 16.6797 365.145 16.9215 365.148 17.2041C365.145 17.3956 365.095 17.5699 364.997 17.7269C364.903 17.8839 364.777 18.0095 364.62 18.1037C364.467 18.1948 364.297 18.2403 364.112 18.2403ZM367.959 18.2403C367.673 18.2403 367.428 18.1399 367.224 17.9389C367.02 17.7379 366.919 17.493 366.923 17.2041C366.919 16.9215 367.02 16.6797 367.224 16.4787C367.428 16.2777 367.673 16.1772 367.959 16.1772C368.235 16.1772 368.475 16.2777 368.68 16.4787C368.887 16.6797 368.992 16.9215 368.995 17.2041C368.992 17.3956 368.942 17.5699 368.844 17.7269C368.75 17.8839 368.625 18.0095 368.468 18.1037C368.314 18.1948 368.144 18.2403 367.959 18.2403ZM371.806 18.2403C371.52 18.2403 371.275 18.1399 371.071 17.9389C370.867 17.7379 370.767 17.493 370.77 17.2041C370.767 16.9215 370.867 16.6797 371.071 16.4787C371.275 16.2777 371.52 16.1772 371.806 16.1772C372.082 16.1772 372.323 16.2777 372.527 16.4787C372.734 16.6797 372.839 16.9215 372.842 17.2041C372.839 17.3956 372.789 17.5699 372.692 17.7269C372.597 17.8839 372.472 18.0095 372.315 18.1037C372.161 18.1948 371.991 18.2403 371.806 18.2403ZM375.653 18.2403C375.367 18.2403 375.122 18.1399 374.918 17.9389C374.714 17.7379 374.614 17.493 374.617 17.2041C374.614 16.9215 374.714 16.6797 374.918 16.4787C375.122 16.2777 375.367 16.1772 375.653 16.1772C375.929 16.1772 376.17 16.2777 376.374 16.4787C376.581 16.6797 376.686 16.9215 376.689 17.2041C376.686 17.3956 376.636 17.5699 376.539 17.7269C376.444 17.8839 376.319 18.0095 376.162 18.1037C376.008 18.1948 375.838 18.2403 375.653 18.2403ZM379.5 18.2403C379.215 18.2403 378.97 18.1399 378.765 17.9389C378.561 17.7379 378.461 17.493 378.464 17.2041C378.461 16.9215 378.561 16.6797 378.765 16.4787C378.97 16.2777 379.215 16.1772 379.5 16.1772C379.777 16.1772 380.017 16.2777 380.221 16.4787C380.428 16.6797 380.533 16.9215 380.537 17.2041C380.533 17.3956 380.483 17.5699 380.386 17.7269C380.292 17.8839 380.166 18.0095 380.009 18.1037C379.855 18.1948 379.686 18.2403 379.5 18.2403ZM383.347 18.2403C383.062 18.2403 382.817 18.1399 382.613 17.9389C382.408 17.7379 382.308 17.493 382.311 17.2041C382.308 16.9215 382.408 16.6797 382.613 16.4787C382.817 16.2777 383.062 16.1772 383.347 16.1772C383.624 16.1772 383.864 16.2777 384.068 16.4787C384.275 16.6797 384.381 16.9215 384.384 17.2041C384.381 17.3956 384.33 17.5699 384.233 17.7269C384.139 17.8839 384.013 18.0095 383.856 18.1037C383.702 18.1948 383.533 18.2403 383.347 18.2403ZM387.195 18.2403C386.909 18.2403 386.664 18.1399 386.46 17.9389C386.256 17.7379 386.155 17.493 386.158 17.2041C386.155 16.9215 386.256 16.6797 386.46 16.4787C386.664 16.2777 386.909 16.1772 387.195 16.1772C387.471 16.1772 387.711 16.2777 387.915 16.4787C388.123 16.6797 388.228 16.9215 388.231 17.2041C388.228 17.3956 388.177 17.5699 388.08 17.7269C387.986 17.8839 387.86 18.0095 387.703 18.1037C387.549 18.1948 387.38 18.2403 387.195 18.2403ZM391.042 18.2403C390.756 18.2403 390.511 18.1399 390.307 17.9389C390.103 17.7379 390.002 17.493 390.005 17.2041C390.002 16.9215 390.103 16.6797 390.307 16.4787C390.511 16.2777 390.756 16.1772 391.042 16.1772C391.318 16.1772 391.558 16.2777 391.762 16.4787C391.97 16.6797 392.075 16.9215 392.078 17.2041C392.075 17.3956 392.025 17.5699 391.927 17.7269C391.833 17.8839 391.707 18.0095 391.55 18.1037C391.397 18.1948 391.227 18.2403 391.042 18.2403ZM394.889 18.2403C394.603 18.2403 394.358 18.1399 394.154 17.9389C393.95 17.7379 393.849 17.493 393.853 17.2041C393.849 16.9215 393.95 16.6797 394.154 16.4787C394.358 16.2777 394.603 16.1772 394.889 16.1772C395.165 16.1772 395.405 16.2777 395.61 16.4787C395.817 16.6797 395.922 16.9215 395.925 17.2041C395.922 17.3956 395.872 17.5699 395.774 17.7269C395.68 17.8839 395.555 18.0095 395.398 18.1037C395.244 18.1948 395.074 18.2403 394.889 18.2403ZM398.736 18.2403C398.45 18.2403 398.205 18.1399 398.001 17.9389C397.797 17.7379 397.697 17.493 397.7 17.2041C397.697 16.9215 397.797 16.6797 398.001 16.4787C398.205 16.2777 398.45 16.1772 398.736 16.1772C399.012 16.1772 399.253 16.2777 399.457 16.4787C399.664 16.6797 399.769 16.9215 399.772 17.2041C399.769 17.3956 399.719 17.5699 399.622 17.7269C399.527 17.8839 399.402 18.0095 399.245 18.1037C399.091 18.1948 398.921 18.2403 398.736 18.2403ZM402.583 18.2403C402.297 18.2403 402.052 18.1399 401.848 17.9389C401.644 17.7379 401.544 17.493 401.547 17.2041C401.544 16.9215 401.644 16.6797 401.848 16.4787C402.052 16.2777 402.297 16.1772 402.583 16.1772C402.86 16.1772 403.1 16.2777 403.304 16.4787C403.511 16.6797 403.616 16.9215 403.619 17.2041C403.616 17.3956 403.566 17.5699 403.469 17.7269C403.374 17.8839 403.249 18.0095 403.092 18.1037C402.938 18.1948 402.768 18.2403 402.583 18.2403ZM406.43 18.2403C406.145 18.2403 405.9 18.1399 405.695 17.9389C405.491 17.7379 405.391 17.493 405.394 17.2041C405.391 16.9215 405.491 16.6797 405.695 16.4787C405.9 16.2777 406.145 16.1772 406.43 16.1772C406.707 16.1772 406.947 16.2777 407.151 16.4787C407.358 16.6797 407.463 16.9215 407.467 17.2041C407.463 17.3956 407.413 17.5699 407.316 17.7269C407.222 17.8839 407.096 18.0095 406.939 18.1037C406.785 18.1948 406.616 18.2403 406.43 18.2403ZM410.277 18.2403C409.992 18.2403 409.747 18.1399 409.543 17.9389C409.339 17.7379 409.238 17.493 409.241 17.2041C409.238 16.9215 409.339 16.6797 409.543 16.4787C409.747 16.2777 409.992 16.1772 410.277 16.1772C410.554 16.1772 410.794 16.2777 410.998 16.4787C411.205 16.6797 411.311 16.9215 411.314 17.2041C411.311 17.3956 411.26 17.5699 411.163 17.7269C411.069 17.8839 410.943 18.0095 410.786 18.1037C410.632 18.1948 410.463 18.2403 410.277 18.2403ZM414.125 18.2403C413.839 18.2403 413.594 18.1399 413.39 17.9389C413.186 17.7379 413.085 17.493 413.088 17.2041C413.085 16.9215 413.186 16.6797 413.39 16.4787C413.594 16.2777 413.839 16.1772 414.125 16.1772C414.401 16.1772 414.641 16.2777 414.845 16.4787C415.053 16.6797 415.158 16.9215 415.161 17.2041C415.158 17.3956 415.107 17.5699 415.01 17.7269C414.916 17.8839 414.79 18.0095 414.633 18.1037C414.479 18.1948 414.31 18.2403 414.125 18.2403ZM417.972 18.2403C417.686 18.2403 417.441 18.1399 417.237 17.9389C417.033 17.7379 416.932 17.493 416.935 17.2041C416.932 16.9215 417.033 16.6797 417.237 16.4787C417.441 16.2777 417.686 16.1772 417.972 16.1772C418.248 16.1772 418.488 16.2777 418.692 16.4787C418.9 16.6797 419.005 16.9215 419.008 17.2041C419.005 17.3956 418.955 17.5699 418.857 17.7269C418.763 17.8839 418.637 18.0095 418.48 18.1037C418.327 18.1948 418.157 18.2403 417.972 18.2403ZM421.819 18.2403C421.533 18.2403 421.288 18.1399 421.084 17.9389C420.88 17.7379 420.78 17.493 420.783 17.2041C420.78 16.9215 420.88 16.6797 421.084 16.4787C421.288 16.2777 421.533 16.1772 421.819 16.1772C422.095 16.1772 422.335 16.2777 422.54 16.4787C422.747 16.6797 422.852 16.9215 422.855 17.2041C422.852 17.3956 422.802 17.5699 422.704 17.7269C422.61 17.8839 422.485 18.0095 422.328 18.1037C422.174 18.1948 422.004 18.2403 421.819 18.2403ZM425.666 18.2403C425.38 18.2403 425.135 18.1399 424.931 17.9389C424.727 17.7379 424.627 17.493 424.63 17.2041C424.627 16.9215 424.727 16.6797 424.931 16.4787C425.135 16.2777 425.38 16.1772 425.666 16.1772C425.942 16.1772 426.183 16.2777 426.387 16.4787C426.594 16.6797 426.699 16.9215 426.702 17.2041C426.699 17.3956 426.649 17.5699 426.552 17.7269C426.457 17.8839 426.332 18.0095 426.175 18.1037C426.021 18.1948 425.851 18.2403 425.666 18.2403ZM429.513 18.2403C429.227 18.2403 428.982 18.1399 428.778 17.9389C428.574 17.7379 428.474 17.493 428.477 17.2041C428.474 16.9215 428.574 16.6797 428.778 16.4787C428.982 16.2777 429.227 16.1772 429.513 16.1772C429.79 16.1772 430.03 16.2777 430.234 16.4787C430.441 16.6797 430.546 16.9215 430.549 17.2041C430.546 17.3956 430.496 17.5699 430.399 17.7269C430.305 17.8839 430.179 18.0095 430.022 18.1037C429.868 18.1948 429.698 18.2403 429.513 18.2403ZM433.36 18.2403C433.075 18.2403 432.83 18.1399 432.626 17.9389C432.421 17.7379 432.321 17.493 432.324 17.2041C432.321 16.9215 432.421 16.6797 432.626 16.4787C432.83 16.2777 433.075 16.1772 433.36 16.1772C433.637 16.1772 433.877 16.2777 434.081 16.4787C434.288 16.6797 434.393 16.9215 434.397 17.2041C434.393 17.3956 434.343 17.5699 434.246 17.7269C434.152 17.8839 434.026 18.0095 433.869 18.1037C433.715 18.1948 433.546 18.2403 433.36 18.2403ZM437.207 18.2403C436.922 18.2403 436.677 18.1399 436.473 17.9389C436.269 17.7379 436.168 17.493 436.171 17.2041C436.168 16.9215 436.269 16.6797 436.473 16.4787C436.677 16.2777 436.922 16.1772 437.207 16.1772C437.484 16.1772 437.724 16.2777 437.928 16.4787C438.135 16.6797 438.241 16.9215 438.244 17.2041C438.241 17.3956 438.19 17.5699 438.093 17.7269C437.999 17.8839 437.873 18.0095 437.716 18.1037C437.562 18.1948 437.393 18.2403 437.207 18.2403ZM441.055 18.2403C440.769 18.2403 440.524 18.1399 440.32 17.9389C440.116 17.7379 440.015 17.493 440.018 17.2041C440.015 16.9215 440.116 16.6797 440.32 16.4787C440.524 16.2777 440.769 16.1772 441.055 16.1772C441.331 16.1772 441.571 16.2777 441.775 16.4787C441.983 16.6797 442.088 16.9215 442.091 17.2041C442.088 17.3956 442.038 17.5699 441.94 17.7269C441.846 17.8839 441.72 18.0095 441.563 18.1037C441.409 18.1948 441.24 18.2403 441.055 18.2403ZM444.902 18.2403C444.616 18.2403 444.371 18.1399 444.167 17.9389C443.963 17.7379 443.862 17.493 443.866 17.2041C443.862 16.9215 443.963 16.6797 444.167 16.4787C444.371 16.2777 444.616 16.1772 444.902 16.1772C445.178 16.1772 445.418 16.2777 445.622 16.4787C445.83 16.6797 445.935 16.9215 445.938 17.2041C445.935 17.3956 445.885 17.5699 445.787 17.7269C445.693 17.8839 445.568 18.0095 445.411 18.1037C445.257 18.1948 445.087 18.2403 444.902 18.2403ZM448.749 18.2403C448.463 18.2403 448.218 18.1399 448.014 17.9389C447.81 17.7379 447.71 17.493 447.713 17.2041C447.71 16.9215 447.81 16.6797 448.014 16.4787C448.218 16.2777 448.463 16.1772 448.749 16.1772C449.025 16.1772 449.266 16.2777 449.47 16.4787C449.677 16.6797 449.782 16.9215 449.785 17.2041C449.782 17.3956 449.732 17.5699 449.634 17.7269C449.54 17.8839 449.415 18.0095 449.258 18.1037C449.104 18.1948 448.934 18.2403 448.749 18.2403ZM452.596 18.2403C452.31 18.2403 452.065 18.1399 451.861 17.9389C451.657 17.7379 451.557 17.493 451.56 17.2041C451.557 16.9215 451.657 16.6797 451.861 16.4787C452.065 16.2777 452.31 16.1772 452.596 16.1772C452.872 16.1772 453.113 16.2777 453.317 16.4787C453.524 16.6797 453.629 16.9215 453.632 17.2041C453.629 17.3956 453.579 17.5699 453.482 17.7269C453.387 17.8839 453.262 18.0095 453.105 18.1037C452.951 18.1948 452.781 18.2403 452.596 18.2403ZM456.443 18.2403C456.157 18.2403 455.913 18.1399 455.708 17.9389C455.504 17.7379 455.404 17.493 455.407 17.2041C455.404 16.9215 455.504 16.6797 455.708 16.4787C455.913 16.2777 456.157 16.1772 456.443 16.1772C456.72 16.1772 456.96 16.2777 457.164 16.4787C457.371 16.6797 457.476 16.9215 457.48 17.2041C457.476 17.3956 457.426 17.5699 457.329 17.7269C457.235 17.8839 457.109 18.0095 456.952 18.1037C456.798 18.1948 456.629 18.2403 456.443 18.2403ZM460.29 18.2403C460.005 18.2403 459.76 18.1399 459.556 17.9389C459.351 17.7379 459.251 17.493 459.254 17.2041C459.251 16.9215 459.351 16.6797 459.556 16.4787C459.76 16.2777 460.005 16.1772 460.29 16.1772C460.567 16.1772 460.807 16.2777 461.011 16.4787C461.218 16.6797 461.324 16.9215 461.327 17.2041C461.324 17.3956 461.273 17.5699 461.176 17.7269C461.082 17.8839 460.956 18.0095 460.799 18.1037C460.645 18.1948 460.476 18.2403 460.29 18.2403ZM464.138 18.2403C463.852 18.2403 463.607 18.1399 463.403 17.9389C463.199 17.7379 463.098 17.493 463.101 17.2041C463.098 16.9215 463.199 16.6797 463.403 16.4787C463.607 16.2777 463.852 16.1772 464.138 16.1772C464.414 16.1772 464.654 16.2777 464.858 16.4787C465.065 16.6797 465.171 16.9215 465.174 17.2041C465.171 17.3956 465.12 17.5699 465.023 17.7269C464.929 17.8839 464.803 18.0095 464.646 18.1037C464.492 18.1948 464.323 18.2403 464.138 18.2403ZM467.985 18.2403C467.699 18.2403 467.454 18.1399 467.25 17.9389C467.046 17.7379 466.945 17.493 466.948 17.2041C466.945 16.9215 467.046 16.6797 467.25 16.4787C467.454 16.2777 467.699 16.1772 467.985 16.1772C468.261 16.1772 468.501 16.2777 468.705 16.4787C468.913 16.6797 469.018 16.9215 469.021 17.2041C469.018 17.3956 468.968 17.5699 468.87 17.7269C468.776 17.8839 468.65 18.0095 468.493 18.1037C468.34 18.1948 468.17 18.2403 467.985 18.2403ZM471.832 18.2403C471.546 18.2403 471.301 18.1399 471.097 17.9389C470.893 17.7379 470.792 17.493 470.796 17.2041C470.792 16.9215 470.893 16.6797 471.097 16.4787C471.301 16.2777 471.546 16.1772 471.832 16.1772C472.108 16.1772 472.348 16.2777 472.552 16.4787C472.76 16.6797 472.865 16.9215 472.868 17.2041C472.865 17.3956 472.815 17.5699 472.717 17.7269C472.623 17.8839 472.498 18.0095 472.341 18.1037C472.187 18.1948 472.017 18.2403 471.832 18.2403ZM475.679 18.2403C475.393 18.2403 475.148 18.1399 474.944 17.9389C474.74 17.7379 474.64 17.493 474.643 17.2041C474.64 16.9215 474.74 16.6797 474.944 16.4787C475.148 16.2777 475.393 16.1772 475.679 16.1772C475.955 16.1772 476.196 16.2777 476.4 16.4787C476.607 16.6797 476.712 16.9215 476.715 17.2041C476.712 17.3956 476.662 17.5699 476.564 17.7269C476.47 17.8839 476.345 18.0095 476.188 18.1037C476.034 18.1948 475.864 18.2403 475.679 18.2403Z" fill="#6C6C6C"/>
<g filter="url(#filter0_d_1954_83)">
<rect x="7.59961" y="5.60156" width="27" height="27" rx="13.5" fill="white" shape-rendering="crispEdges"/>
<path d="M26.0975 24.7615C24.7877 24.7615 23.4937 24.4761 22.2154 23.9052C20.9371 23.3344 19.774 22.5249 18.7262 21.4767C17.6784 20.4284 16.8691 19.2654 16.2983 17.9875C15.7275 16.7096 15.4418 15.4156 15.4414 14.1054C15.4414 13.9168 15.5043 13.7597 15.63 13.6339C15.7557 13.5082 15.9129 13.4453 16.1015 13.4453H18.6477C18.7943 13.4453 18.9253 13.4952 19.0406 13.5949C19.1558 13.6947 19.2239 13.8125 19.2449 13.9483L19.6535 16.1486C19.6745 16.3163 19.6693 16.4577 19.6378 16.573C19.6064 16.6882 19.5488 16.7878 19.4649 16.8716L17.9404 18.4119C18.15 18.7995 18.3987 19.174 18.6866 19.5353C18.9746 19.8966 19.2916 20.2451 19.6378 20.5808C19.9626 20.9056 20.3032 21.207 20.6594 21.4848C21.0157 21.7627 21.3929 22.0167 21.791 22.2468L23.2684 20.7694C23.3627 20.6751 23.486 20.6045 23.6381 20.5575C23.7902 20.5106 23.9394 20.4974 24.0857 20.5179L26.2546 20.958C26.4013 20.9999 26.5218 21.076 26.6161 21.1862C26.7104 21.2964 26.7576 21.4194 26.7576 21.5552V24.1014C26.7576 24.29 26.6947 24.4472 26.569 24.5729C26.4432 24.6986 26.2861 24.7615 26.0975 24.7615ZM17.3432 17.2174L18.3805 16.1801L18.1133 14.7027H16.7145C16.7669 15.1323 16.8402 15.5566 16.9345 15.9757C17.0288 16.3949 17.165 16.8087 17.3432 17.2174ZM22.9698 22.844C23.3784 23.0222 23.795 23.1636 24.2196 23.2684C24.6442 23.3732 25.0711 23.4413 25.5002 23.4727V22.0896L24.0228 21.791L22.9698 22.844Z" fill="#00B1EF"/>
</g>
<defs>
<filter id="filter0_d_1954_83" x="-0.00039053" y="0.0015626" width="42.2" height="42.2" filterUnits="userSpaceOnUse" color-interpolation-filters="sRGB">
<feFlood flood-opacity="0" result="BackgroundImageFix"/>
<feColorMatrix in="SourceAlpha" type="matrix" values="0 0 0 0 0 0 0 0 0 0 0 0 0 0 0 0 0 0 127 0" result="hardAlpha"/>
<feOffset dy="2"/>
<feGaussianBlur stdDeviation="3.8"/>
<feComposite in2="hardAlpha" operator="out"/>
<feColorMatrix type="matrix" values="0 0 0 0 0 0 0 0 0 0 0 0 0 0 0 0 0 0 0.25 0"/>
<feBlend mode="normal" in2="BackgroundImageFix" result="effect1_dropShadow_1954_83"/>
<feBlend mode="normal" in="SourceGraphic" in2="effect1_dropShadow_1954_83" result="shape"/>
</filter>
</defs>
</svg>
