<svg width="506" height="42" viewBox="0 0 506 42" fill="none" xmlns="http://www.w3.org/2000/svg">
<path d="M488.797 14.5486V24.1953H487.049V16.249H486.993L484.736 17.6904V16.0889L487.134 14.5486H488.797ZM491.072 22.4054V21.0159L495.165 14.5486H496.324V16.5269H495.617L492.862 20.8934V20.9687H498.575V22.4054H491.072ZM495.674 24.1953V21.9815L495.692 21.3597V14.5486H497.341V24.1953H495.674Z" fill="#7D7D7D"/>
<path d="M48.1507 23.7109V14.0642H49.8982V22.246H54.1469V23.7109H48.1507ZM57.4112 14.0642V23.7109H55.6636V14.0642H57.4112ZM59.3035 23.7109V14.0642H62.9964C63.6936 14.0642 64.2729 14.1741 64.7345 14.3939C65.1993 14.6106 65.5463 14.9074 65.7755 15.2842C66.0079 15.661 66.1241 16.0881 66.1241 16.5654C66.1241 16.9579 66.0487 17.2939 65.898 17.5734C65.7473 17.8497 65.5447 18.0743 65.2904 18.247C65.036 18.4197 64.7518 18.5437 64.4378 18.6191V18.7133C64.7801 18.7321 65.1082 18.8373 65.4222 19.0289C65.7394 19.2173 65.9985 19.4842 66.1994 19.8296C66.4004 20.1751 66.5009 20.5927 66.5009 21.0826C66.5009 21.5819 66.38 22.0309 66.1382 22.4297C65.8964 22.8254 65.5321 23.1378 65.0454 23.3671C64.5587 23.5963 63.9463 23.7109 63.2084 23.7109H59.3035ZM61.0511 22.2507H62.9305C63.5648 22.2507 64.0217 22.1298 64.3012 21.888C64.5838 21.6431 64.7251 21.3291 64.7251 20.946C64.7251 20.6602 64.6545 20.4027 64.5131 20.1735C64.3718 19.9411 64.1709 19.759 63.9102 19.6271C63.6496 19.4921 63.3387 19.4246 62.9776 19.4246H61.0511V22.2507ZM61.0511 18.1669H62.7798C63.0812 18.1669 63.3528 18.1119 63.5946 18.002C63.8364 17.889 64.0264 17.7304 64.1646 17.5263C64.3059 17.319 64.3765 17.0741 64.3765 16.7915C64.3765 16.4178 64.2447 16.1101 63.9809 15.8683C63.7202 15.6265 63.3324 15.5056 62.8174 15.5056H61.0511V18.1669ZM68.0212 23.7109V14.0642H71.6387C72.3798 14.0642 73.0015 14.193 73.504 14.4505C74.0095 14.708 74.3911 15.0691 74.6486 15.5338C74.9092 15.9954 75.0395 16.534 75.0395 17.1495C75.0395 17.7681 74.9076 18.3051 74.6439 18.7604C74.3832 19.2126 73.9985 19.5627 73.4898 19.8108C72.9811 20.0557 72.3562 20.1782 71.6151 20.1782H69.0386V18.7274H71.3796C71.813 18.7274 72.1678 18.6678 72.4441 18.5484C72.7205 18.426 72.9246 18.2485 73.0565 18.0162C73.1915 17.7807 73.259 17.4918 73.259 17.1495C73.259 16.8072 73.1915 16.5152 73.0565 16.2734C72.9214 16.0284 72.7158 15.8431 72.4394 15.7175C72.1631 15.5888 71.8067 15.5244 71.3702 15.5244H69.7687V23.7109H68.0212ZM73.0047 19.3398L75.3928 23.7109H73.4427L71.097 19.3398H73.0047ZM77.8869 23.7109H76.0216L79.4178 14.0642H81.5751L84.9759 23.7109H83.1106L80.5341 16.0425H80.4587L77.8869 23.7109ZM77.9481 19.9286H83.0353V21.3322H77.9481V19.9286ZM86.2465 23.7109V14.0642H89.8641C90.6051 14.0642 91.2269 14.193 91.7293 14.4505C92.2349 14.708 92.6164 15.0691 92.8739 15.5338C93.1346 15.9954 93.2649 16.534 93.2649 17.1495C93.2649 17.7681 93.133 18.3051 92.8692 18.7604C92.6086 19.2126 92.2239 19.5627 91.7152 19.8108C91.2065 20.0557 90.5816 20.1782 89.8405 20.1782H87.264V18.7274H89.605C90.0383 18.7274 90.3932 18.6678 90.6695 18.5484C90.9459 18.426 91.15 18.2485 91.2819 18.0162C91.4169 17.7807 91.4844 17.4918 91.4844 17.1495C91.4844 16.8072 91.4169 16.5152 91.2819 16.2734C91.1468 16.0284 90.9411 15.8431 90.6648 15.7175C90.3885 15.5888 90.0321 15.5244 89.5956 15.5244H87.9941V23.7109H86.2465ZM91.23 19.3398L93.6182 23.7109H91.6681L89.3224 19.3398H91.23ZM93.8384 14.0642H95.812L98.1719 18.3318H98.2661L100.626 14.0642H102.6L99.0904 20.1123V23.7109H97.3476V20.1123L93.8384 14.0642Z" fill="black"/>
<path d="M121.126 19.838C120.84 19.838 120.595 19.7375 120.391 19.5365C120.187 19.3356 120.086 19.0906 120.089 18.8017C120.086 18.5191 120.187 18.2773 120.391 18.0763C120.595 17.8754 120.84 17.7749 121.126 17.7749C121.402 17.7749 121.642 17.8754 121.846 18.0763C122.054 18.2773 122.159 18.5191 122.162 18.8017C122.159 18.9933 122.109 19.1676 122.011 19.3246C121.917 19.4816 121.791 19.6072 121.634 19.7014C121.481 19.7925 121.311 19.838 121.126 19.838ZM124.973 19.838C124.687 19.838 124.442 19.7375 124.238 19.5365C124.034 19.3356 123.933 19.0906 123.937 18.8017C123.933 18.5191 124.034 18.2773 124.238 18.0763C124.442 17.8754 124.687 17.7749 124.973 17.7749C125.249 17.7749 125.489 17.8754 125.694 18.0763C125.901 18.2773 126.006 18.5191 126.009 18.8017C126.006 18.9933 125.956 19.1676 125.858 19.3246C125.764 19.4816 125.639 19.6072 125.482 19.7014C125.328 19.7925 125.158 19.838 124.973 19.838ZM128.82 19.838C128.534 19.838 128.289 19.7375 128.085 19.5365C127.881 19.3356 127.781 19.0906 127.784 18.8017C127.781 18.5191 127.881 18.2773 128.085 18.0763C128.289 17.8754 128.534 17.7749 128.82 17.7749C129.096 17.7749 129.337 17.8754 129.541 18.0763C129.748 18.2773 129.853 18.5191 129.856 18.8017C129.853 18.9933 129.803 19.1676 129.706 19.3246C129.611 19.4816 129.486 19.6072 129.329 19.7014C129.175 19.7925 129.005 19.838 128.82 19.838ZM132.667 19.838C132.381 19.838 132.136 19.7375 131.932 19.5365C131.728 19.3356 131.628 19.0906 131.631 18.8017C131.628 18.5191 131.728 18.2773 131.932 18.0763C132.136 17.8754 132.381 17.7749 132.667 17.7749C132.944 17.7749 133.184 17.8754 133.388 18.0763C133.595 18.2773 133.7 18.5191 133.703 18.8017C133.7 18.9933 133.65 19.1676 133.553 19.3246C133.459 19.4816 133.333 19.6072 133.176 19.7014C133.022 19.7925 132.852 19.838 132.667 19.838ZM136.514 19.838C136.229 19.838 135.984 19.7375 135.78 19.5365C135.575 19.3356 135.475 19.0906 135.478 18.8017C135.475 18.5191 135.575 18.2773 135.78 18.0763C135.984 17.8754 136.229 17.7749 136.514 17.7749C136.791 17.7749 137.031 17.8754 137.235 18.0763C137.442 18.2773 137.547 18.5191 137.551 18.8017C137.547 18.9933 137.497 19.1676 137.4 19.3246C137.306 19.4816 137.18 19.6072 137.023 19.7014C136.869 19.7925 136.7 19.838 136.514 19.838ZM140.361 19.838C140.076 19.838 139.831 19.7375 139.627 19.5365C139.423 19.3356 139.322 19.0906 139.325 18.8017C139.322 18.5191 139.423 18.2773 139.627 18.0763C139.831 17.8754 140.076 17.7749 140.361 17.7749C140.638 17.7749 140.878 17.8754 141.082 18.0763C141.289 18.2773 141.395 18.5191 141.398 18.8017C141.395 18.9933 141.344 19.1676 141.247 19.3246C141.153 19.4816 141.027 19.6072 140.87 19.7014C140.716 19.7925 140.547 19.838 140.361 19.838ZM144.209 19.838C143.923 19.838 143.678 19.7375 143.474 19.5365C143.27 19.3356 143.169 19.0906 143.172 18.8017C143.169 18.5191 143.27 18.2773 143.474 18.0763C143.678 17.8754 143.923 17.7749 144.209 17.7749C144.485 17.7749 144.725 17.8754 144.929 18.0763C145.137 18.2773 145.242 18.5191 145.245 18.8017C145.242 18.9933 145.192 19.1676 145.094 19.3246C145 19.4816 144.874 19.6072 144.717 19.7014C144.563 19.7925 144.394 19.838 144.209 19.838ZM148.056 19.838C147.77 19.838 147.525 19.7375 147.321 19.5365C147.117 19.3356 147.016 19.0906 147.02 18.8017C147.016 18.5191 147.117 18.2773 147.321 18.0763C147.525 17.8754 147.77 17.7749 148.056 17.7749C148.332 17.7749 148.572 17.8754 148.776 18.0763C148.984 18.2773 149.089 18.5191 149.092 18.8017C149.089 18.9933 149.039 19.1676 148.941 19.3246C148.847 19.4816 148.721 19.6072 148.564 19.7014C148.411 19.7925 148.241 19.838 148.056 19.838ZM151.903 19.838C151.617 19.838 151.372 19.7375 151.168 19.5365C150.964 19.3356 150.864 19.0906 150.867 18.8017C150.864 18.5191 150.964 18.2773 151.168 18.0763C151.372 17.8754 151.617 17.7749 151.903 17.7749C152.179 17.7749 152.419 17.8754 152.624 18.0763C152.831 18.2773 152.936 18.5191 152.939 18.8017C152.936 18.9933 152.886 19.1676 152.788 19.3246C152.694 19.4816 152.569 19.6072 152.412 19.7014C152.258 19.7925 152.088 19.838 151.903 19.838ZM155.75 19.838C155.464 19.838 155.219 19.7375 155.015 19.5365C154.811 19.3356 154.711 19.0906 154.714 18.8017C154.711 18.5191 154.811 18.2773 155.015 18.0763C155.219 17.8754 155.464 17.7749 155.75 17.7749C156.026 17.7749 156.267 17.8754 156.471 18.0763C156.678 18.2773 156.783 18.5191 156.786 18.8017C156.783 18.9933 156.733 19.1676 156.636 19.3246C156.541 19.4816 156.416 19.6072 156.259 19.7014C156.105 19.7925 155.935 19.838 155.75 19.838ZM159.597 19.838C159.311 19.838 159.067 19.7375 158.862 19.5365C158.658 19.3356 158.558 19.0906 158.561 18.8017C158.558 18.5191 158.658 18.2773 158.862 18.0763C159.067 17.8754 159.311 17.7749 159.597 17.7749C159.874 17.7749 160.114 17.8754 160.318 18.0763C160.525 18.2773 160.63 18.5191 160.633 18.8017C160.63 18.9933 160.58 19.1676 160.483 19.3246C160.389 19.4816 160.263 19.6072 160.106 19.7014C159.952 19.7925 159.782 19.838 159.597 19.838ZM163.444 19.838C163.159 19.838 162.914 19.7375 162.71 19.5365C162.505 19.3356 162.405 19.0906 162.408 18.8017C162.405 18.5191 162.505 18.2773 162.71 18.0763C162.914 17.8754 163.159 17.7749 163.444 17.7749C163.721 17.7749 163.961 17.8754 164.165 18.0763C164.372 18.2773 164.477 18.5191 164.481 18.8017C164.477 18.9933 164.427 19.1676 164.33 19.3246C164.236 19.4816 164.11 19.6072 163.953 19.7014C163.799 19.7925 163.63 19.838 163.444 19.838ZM167.292 19.838C167.006 19.838 166.761 19.7375 166.557 19.5365C166.353 19.3356 166.252 19.0906 166.255 18.8017C166.252 18.5191 166.353 18.2773 166.557 18.0763C166.761 17.8754 167.006 17.7749 167.292 17.7749C167.568 17.7749 167.808 17.8754 168.012 18.0763C168.219 18.2773 168.325 18.5191 168.328 18.8017C168.325 18.9933 168.274 19.1676 168.177 19.3246C168.083 19.4816 167.957 19.6072 167.8 19.7014C167.646 19.7925 167.477 19.838 167.292 19.838ZM171.139 19.838C170.853 19.838 170.608 19.7375 170.404 19.5365C170.2 19.3356 170.099 19.0906 170.102 18.8017C170.099 18.5191 170.2 18.2773 170.404 18.0763C170.608 17.8754 170.853 17.7749 171.139 17.7749C171.415 17.7749 171.655 17.8754 171.859 18.0763C172.067 18.2773 172.172 18.5191 172.175 18.8017C172.172 18.9933 172.122 19.1676 172.024 19.3246C171.93 19.4816 171.804 19.6072 171.647 19.7014C171.493 19.7925 171.324 19.838 171.139 19.838ZM174.986 19.838C174.7 19.838 174.455 19.7375 174.251 19.5365C174.047 19.3356 173.946 19.0906 173.95 18.8017C173.946 18.5191 174.047 18.2773 174.251 18.0763C174.455 17.8754 174.7 17.7749 174.986 17.7749C175.262 17.7749 175.502 17.8754 175.706 18.0763C175.914 18.2773 176.019 18.5191 176.022 18.8017C176.019 18.9933 175.969 19.1676 175.871 19.3246C175.777 19.4816 175.652 19.6072 175.495 19.7014C175.341 19.7925 175.171 19.838 174.986 19.838ZM178.833 19.838C178.547 19.838 178.302 19.7375 178.098 19.5365C177.894 19.3356 177.794 19.0906 177.797 18.8017C177.794 18.5191 177.894 18.2773 178.098 18.0763C178.302 17.8754 178.547 17.7749 178.833 17.7749C179.109 17.7749 179.35 17.8754 179.554 18.0763C179.761 18.2773 179.866 18.5191 179.869 18.8017C179.866 18.9933 179.816 19.1676 179.718 19.3246C179.624 19.4816 179.499 19.6072 179.342 19.7014C179.188 19.7925 179.018 19.838 178.833 19.838ZM182.68 19.838C182.394 19.838 182.149 19.7375 181.945 19.5365C181.741 19.3356 181.641 19.0906 181.644 18.8017C181.641 18.5191 181.741 18.2773 181.945 18.0763C182.149 17.8754 182.394 17.7749 182.68 17.7749C182.956 17.7749 183.197 17.8754 183.401 18.0763C183.608 18.2773 183.713 18.5191 183.716 18.8017C183.713 18.9933 183.663 19.1676 183.566 19.3246C183.471 19.4816 183.346 19.6072 183.189 19.7014C183.035 19.7925 182.865 19.838 182.68 19.838ZM186.527 19.838C186.241 19.838 185.997 19.7375 185.792 19.5365C185.588 19.3356 185.488 19.0906 185.491 18.8017C185.488 18.5191 185.588 18.2773 185.792 18.0763C185.997 17.8754 186.241 17.7749 186.527 17.7749C186.804 17.7749 187.044 17.8754 187.248 18.0763C187.455 18.2773 187.56 18.5191 187.564 18.8017C187.56 18.9933 187.51 19.1676 187.413 19.3246C187.319 19.4816 187.193 19.6072 187.036 19.7014C186.882 19.7925 186.713 19.838 186.527 19.838ZM190.374 19.838C190.089 19.838 189.844 19.7375 189.64 19.5365C189.435 19.3356 189.335 19.0906 189.338 18.8017C189.335 18.5191 189.435 18.2773 189.64 18.0763C189.844 17.8754 190.089 17.7749 190.374 17.7749C190.651 17.7749 190.891 17.8754 191.095 18.0763C191.302 18.2773 191.408 18.5191 191.411 18.8017C191.408 18.9933 191.357 19.1676 191.26 19.3246C191.166 19.4816 191.04 19.6072 190.883 19.7014C190.729 19.7925 190.56 19.838 190.374 19.838ZM194.222 19.838C193.936 19.838 193.691 19.7375 193.487 19.5365C193.283 19.3356 193.182 19.0906 193.185 18.8017C193.182 18.5191 193.283 18.2773 193.487 18.0763C193.691 17.8754 193.936 17.7749 194.222 17.7749C194.498 17.7749 194.738 17.8754 194.942 18.0763C195.149 18.2773 195.255 18.5191 195.258 18.8017C195.255 18.9933 195.204 19.1676 195.107 19.3246C195.013 19.4816 194.887 19.6072 194.73 19.7014C194.576 19.7925 194.407 19.838 194.222 19.838ZM198.069 19.838C197.783 19.838 197.538 19.7375 197.334 19.5365C197.13 19.3356 197.029 19.0906 197.032 18.8017C197.029 18.5191 197.13 18.2773 197.334 18.0763C197.538 17.8754 197.783 17.7749 198.069 17.7749C198.345 17.7749 198.585 17.8754 198.789 18.0763C198.997 18.2773 199.102 18.5191 199.105 18.8017C199.102 18.9933 199.052 19.1676 198.954 19.3246C198.86 19.4816 198.734 19.6072 198.577 19.7014C198.424 19.7925 198.254 19.838 198.069 19.838ZM201.916 19.838C201.63 19.838 201.385 19.7375 201.181 19.5365C200.977 19.3356 200.876 19.0906 200.88 18.8017C200.876 18.5191 200.977 18.2773 201.181 18.0763C201.385 17.8754 201.63 17.7749 201.916 17.7749C202.192 17.7749 202.432 17.8754 202.637 18.0763C202.844 18.2773 202.949 18.5191 202.952 18.8017C202.949 18.9933 202.899 19.1676 202.801 19.3246C202.707 19.4816 202.582 19.6072 202.425 19.7014C202.271 19.7925 202.101 19.838 201.916 19.838ZM205.763 19.838C205.477 19.838 205.232 19.7375 205.028 19.5365C204.824 19.3356 204.724 19.0906 204.727 18.8017C204.724 18.5191 204.824 18.2773 205.028 18.0763C205.232 17.8754 205.477 17.7749 205.763 17.7749C206.039 17.7749 206.28 17.8754 206.484 18.0763C206.691 18.2773 206.796 18.5191 206.799 18.8017C206.796 18.9933 206.746 19.1676 206.649 19.3246C206.554 19.4816 206.429 19.6072 206.272 19.7014C206.118 19.7925 205.948 19.838 205.763 19.838ZM209.61 19.838C209.324 19.838 209.079 19.7375 208.875 19.5365C208.671 19.3356 208.571 19.0906 208.574 18.8017C208.571 18.5191 208.671 18.2773 208.875 18.0763C209.079 17.8754 209.324 17.7749 209.61 17.7749C209.886 17.7749 210.127 17.8754 210.331 18.0763C210.538 18.2773 210.643 18.5191 210.646 18.8017C210.643 18.9933 210.593 19.1676 210.496 19.3246C210.401 19.4816 210.276 19.6072 210.119 19.7014C209.965 19.7925 209.795 19.838 209.61 19.838ZM213.457 19.838C213.172 19.838 212.927 19.7375 212.722 19.5365C212.518 19.3356 212.418 19.0906 212.421 18.8017C212.418 18.5191 212.518 18.2773 212.722 18.0763C212.927 17.8754 213.172 17.7749 213.457 17.7749C213.734 17.7749 213.974 17.8754 214.178 18.0763C214.385 18.2773 214.49 18.5191 214.494 18.8017C214.49 18.9933 214.44 19.1676 214.343 19.3246C214.249 19.4816 214.123 19.6072 213.966 19.7014C213.812 19.7925 213.643 19.838 213.457 19.838ZM217.304 19.838C217.019 19.838 216.774 19.7375 216.57 19.5365C216.366 19.3356 216.265 19.0906 216.268 18.8017C216.265 18.5191 216.366 18.2773 216.57 18.0763C216.774 17.8754 217.019 17.7749 217.304 17.7749C217.581 17.7749 217.821 17.8754 218.025 18.0763C218.232 18.2773 218.338 18.5191 218.341 18.8017C218.338 18.9933 218.287 19.1676 218.19 19.3246C218.096 19.4816 217.97 19.6072 217.813 19.7014C217.659 19.7925 217.49 19.838 217.304 19.838ZM221.152 19.838C220.866 19.838 220.621 19.7375 220.417 19.5365C220.213 19.3356 220.112 19.0906 220.115 18.8017C220.112 18.5191 220.213 18.2773 220.417 18.0763C220.621 17.8754 220.866 17.7749 221.152 17.7749C221.428 17.7749 221.668 17.8754 221.872 18.0763C222.08 18.2773 222.185 18.5191 222.188 18.8017C222.185 18.9933 222.134 19.1676 222.037 19.3246C221.943 19.4816 221.817 19.6072 221.66 19.7014C221.506 19.7925 221.337 19.838 221.152 19.838ZM224.999 19.838C224.713 19.838 224.468 19.7375 224.264 19.5365C224.06 19.3356 223.959 19.0906 223.962 18.8017C223.959 18.5191 224.06 18.2773 224.264 18.0763C224.468 17.8754 224.713 17.7749 224.999 17.7749C225.275 17.7749 225.515 17.8754 225.719 18.0763C225.927 18.2773 226.032 18.5191 226.035 18.8017C226.032 18.9933 225.982 19.1676 225.884 19.3246C225.79 19.4816 225.664 19.6072 225.507 19.7014C225.354 19.7925 225.184 19.838 224.999 19.838ZM228.846 19.838C228.56 19.838 228.315 19.7375 228.111 19.5365C227.907 19.3356 227.806 19.0906 227.81 18.8017C227.806 18.5191 227.907 18.2773 228.111 18.0763C228.315 17.8754 228.56 17.7749 228.846 17.7749C229.122 17.7749 229.362 17.8754 229.567 18.0763C229.774 18.2773 229.879 18.5191 229.882 18.8017C229.879 18.9933 229.829 19.1676 229.731 19.3246C229.637 19.4816 229.512 19.6072 229.355 19.7014C229.201 19.7925 229.031 19.838 228.846 19.838ZM232.693 19.838C232.407 19.838 232.162 19.7375 231.958 19.5365C231.754 19.3356 231.654 19.0906 231.657 18.8017C231.654 18.5191 231.754 18.2773 231.958 18.0763C232.162 17.8754 232.407 17.7749 232.693 17.7749C232.969 17.7749 233.21 17.8754 233.414 18.0763C233.621 18.2773 233.726 18.5191 233.729 18.8017C233.726 18.9933 233.676 19.1676 233.579 19.3246C233.484 19.4816 233.359 19.6072 233.202 19.7014C233.048 19.7925 232.878 19.838 232.693 19.838ZM236.54 19.838C236.254 19.838 236.009 19.7375 235.805 19.5365C235.601 19.3356 235.501 19.0906 235.504 18.8017C235.501 18.5191 235.601 18.2773 235.805 18.0763C236.009 17.8754 236.254 17.7749 236.54 17.7749C236.816 17.7749 237.057 17.8754 237.261 18.0763C237.468 18.2773 237.573 18.5191 237.576 18.8017C237.573 18.9933 237.523 19.1676 237.426 19.3246C237.331 19.4816 237.206 19.6072 237.049 19.7014C236.895 19.7925 236.725 19.838 236.54 19.838ZM240.387 19.838C240.102 19.838 239.857 19.7375 239.653 19.5365C239.448 19.3356 239.348 19.0906 239.351 18.8017C239.348 18.5191 239.448 18.2773 239.653 18.0763C239.857 17.8754 240.102 17.7749 240.387 17.7749C240.664 17.7749 240.904 17.8754 241.108 18.0763C241.315 18.2773 241.42 18.5191 241.424 18.8017C241.42 18.9933 241.37 19.1676 241.273 19.3246C241.179 19.4816 241.053 19.6072 240.896 19.7014C240.742 19.7925 240.573 19.838 240.387 19.838ZM244.234 19.838C243.949 19.838 243.704 19.7375 243.5 19.5365C243.296 19.3356 243.195 19.0906 243.198 18.8017C243.195 18.5191 243.296 18.2773 243.5 18.0763C243.704 17.8754 243.949 17.7749 244.234 17.7749C244.511 17.7749 244.751 17.8754 244.955 18.0763C245.162 18.2773 245.268 18.5191 245.271 18.8017C245.268 18.9933 245.217 19.1676 245.12 19.3246C245.026 19.4816 244.9 19.6072 244.743 19.7014C244.589 19.7925 244.42 19.838 244.234 19.838ZM248.082 19.838C247.796 19.838 247.551 19.7375 247.347 19.5365C247.143 19.3356 247.042 19.0906 247.045 18.8017C247.042 18.5191 247.143 18.2773 247.347 18.0763C247.551 17.8754 247.796 17.7749 248.082 17.7749C248.358 17.7749 248.598 17.8754 248.802 18.0763C249.01 18.2773 249.115 18.5191 249.118 18.8017C249.115 18.9933 249.064 19.1676 248.967 19.3246C248.873 19.4816 248.747 19.6072 248.59 19.7014C248.436 19.7925 248.267 19.838 248.082 19.838ZM251.929 19.838C251.643 19.838 251.398 19.7375 251.194 19.5365C250.99 19.3356 250.889 19.0906 250.892 18.8017C250.889 18.5191 250.99 18.2773 251.194 18.0763C251.398 17.8754 251.643 17.7749 251.929 17.7749C252.205 17.7749 252.445 17.8754 252.649 18.0763C252.857 18.2773 252.962 18.5191 252.965 18.8017C252.962 18.9933 252.912 19.1676 252.814 19.3246C252.72 19.4816 252.594 19.6072 252.437 19.7014C252.284 19.7925 252.114 19.838 251.929 19.838ZM255.776 19.838C255.49 19.838 255.245 19.7375 255.041 19.5365C254.837 19.3356 254.736 19.0906 254.74 18.8017C254.736 18.5191 254.837 18.2773 255.041 18.0763C255.245 17.8754 255.49 17.7749 255.776 17.7749C256.052 17.7749 256.292 17.8754 256.497 18.0763C256.704 18.2773 256.809 18.5191 256.812 18.8017C256.809 18.9933 256.759 19.1676 256.661 19.3246C256.567 19.4816 256.442 19.6072 256.285 19.7014C256.131 19.7925 255.961 19.838 255.776 19.838ZM259.623 19.838C259.337 19.838 259.092 19.7375 258.888 19.5365C258.684 19.3356 258.584 19.0906 258.587 18.8017C258.584 18.5191 258.684 18.2773 258.888 18.0763C259.092 17.8754 259.337 17.7749 259.623 17.7749C259.899 17.7749 260.14 17.8754 260.344 18.0763C260.551 18.2773 260.656 18.5191 260.659 18.8017C260.656 18.9933 260.606 19.1676 260.509 19.3246C260.414 19.4816 260.289 19.6072 260.132 19.7014C259.978 19.7925 259.808 19.838 259.623 19.838ZM263.47 19.838C263.184 19.838 262.939 19.7375 262.735 19.5365C262.531 19.3356 262.431 19.0906 262.434 18.8017C262.431 18.5191 262.531 18.2773 262.735 18.0763C262.939 17.8754 263.184 17.7749 263.47 17.7749C263.747 17.7749 263.987 17.8754 264.191 18.0763C264.398 18.2773 264.503 18.5191 264.506 18.8017C264.503 18.9933 264.453 19.1676 264.356 19.3246C264.262 19.4816 264.136 19.6072 263.979 19.7014C263.825 19.7925 263.655 19.838 263.47 19.838ZM267.317 19.838C267.032 19.838 266.787 19.7375 266.583 19.5365C266.378 19.3356 266.278 19.0906 266.281 18.8017C266.278 18.5191 266.378 18.2773 266.583 18.0763C266.787 17.8754 267.032 17.7749 267.317 17.7749C267.594 17.7749 267.834 17.8754 268.038 18.0763C268.245 18.2773 268.35 18.5191 268.354 18.8017C268.35 18.9933 268.3 19.1676 268.203 19.3246C268.109 19.4816 267.983 19.6072 267.826 19.7014C267.672 19.7925 267.503 19.838 267.317 19.838ZM271.164 19.838C270.879 19.838 270.634 19.7375 270.43 19.5365C270.226 19.3356 270.125 19.0906 270.128 18.8017C270.125 18.5191 270.226 18.2773 270.43 18.0763C270.634 17.8754 270.879 17.7749 271.164 17.7749C271.441 17.7749 271.681 17.8754 271.885 18.0763C272.092 18.2773 272.198 18.5191 272.201 18.8017C272.198 18.9933 272.147 19.1676 272.05 19.3246C271.956 19.4816 271.83 19.6072 271.673 19.7014C271.519 19.7925 271.35 19.838 271.164 19.838ZM275.012 19.838C274.726 19.838 274.481 19.7375 274.277 19.5365C274.073 19.3356 273.972 19.0906 273.975 18.8017C273.972 18.5191 274.073 18.2773 274.277 18.0763C274.481 17.8754 274.726 17.7749 275.012 17.7749C275.288 17.7749 275.528 17.8754 275.732 18.0763C275.94 18.2773 276.045 18.5191 276.048 18.8017C276.045 18.9933 275.995 19.1676 275.897 19.3246C275.803 19.4816 275.677 19.6072 275.52 19.7014C275.366 19.7925 275.197 19.838 275.012 19.838ZM278.859 19.838C278.573 19.838 278.328 19.7375 278.124 19.5365C277.92 19.3356 277.819 19.0906 277.823 18.8017C277.819 18.5191 277.92 18.2773 278.124 18.0763C278.328 17.8754 278.573 17.7749 278.859 17.7749C279.135 17.7749 279.375 17.8754 279.579 18.0763C279.787 18.2773 279.892 18.5191 279.895 18.8017C279.892 18.9933 279.842 19.1676 279.744 19.3246C279.65 19.4816 279.525 19.6072 279.367 19.7014C279.214 19.7925 279.044 19.838 278.859 19.838ZM282.706 19.838C282.42 19.838 282.175 19.7375 281.971 19.5365C281.767 19.3356 281.667 19.0906 281.67 18.8017C281.667 18.5191 281.767 18.2773 281.971 18.0763C282.175 17.8754 282.42 17.7749 282.706 17.7749C282.982 17.7749 283.223 17.8754 283.427 18.0763C283.634 18.2773 283.739 18.5191 283.742 18.8017C283.739 18.9933 283.689 19.1676 283.591 19.3246C283.497 19.4816 283.372 19.6072 283.215 19.7014C283.061 19.7925 282.891 19.838 282.706 19.838ZM286.553 19.838C286.267 19.838 286.022 19.7375 285.818 19.5365C285.614 19.3356 285.514 19.0906 285.517 18.8017C285.514 18.5191 285.614 18.2773 285.818 18.0763C286.022 17.8754 286.267 17.7749 286.553 17.7749C286.829 17.7749 287.07 17.8754 287.274 18.0763C287.481 18.2773 287.586 18.5191 287.589 18.8017C287.586 18.9933 287.536 19.1676 287.439 19.3246C287.344 19.4816 287.219 19.6072 287.062 19.7014C286.908 19.7925 286.738 19.838 286.553 19.838ZM290.4 19.838C290.114 19.838 289.87 19.7375 289.665 19.5365C289.461 19.3356 289.361 19.0906 289.364 18.8017C289.361 18.5191 289.461 18.2773 289.665 18.0763C289.87 17.8754 290.114 17.7749 290.4 17.7749C290.677 17.7749 290.917 17.8754 291.121 18.0763C291.328 18.2773 291.433 18.5191 291.436 18.8017C291.433 18.9933 291.383 19.1676 291.286 19.3246C291.192 19.4816 291.066 19.6072 290.909 19.7014C290.755 19.7925 290.585 19.838 290.4 19.838ZM294.247 19.838C293.962 19.838 293.717 19.7375 293.513 19.5365C293.308 19.3356 293.208 19.0906 293.211 18.8017C293.208 18.5191 293.308 18.2773 293.513 18.0763C293.717 17.8754 293.962 17.7749 294.247 17.7749C294.524 17.7749 294.764 17.8754 294.968 18.0763C295.175 18.2773 295.281 18.5191 295.284 18.8017C295.281 18.9933 295.23 19.1676 295.133 19.3246C295.039 19.4816 294.913 19.6072 294.756 19.7014C294.602 19.7925 294.433 19.838 294.247 19.838ZM298.095 19.838C297.809 19.838 297.564 19.7375 297.36 19.5365C297.156 19.3356 297.055 19.0906 297.058 18.8017C297.055 18.5191 297.156 18.2773 297.36 18.0763C297.564 17.8754 297.809 17.7749 298.095 17.7749C298.371 17.7749 298.611 17.8754 298.815 18.0763C299.022 18.2773 299.128 18.5191 299.131 18.8017C299.128 18.9933 299.077 19.1676 298.98 19.3246C298.886 19.4816 298.76 19.6072 298.603 19.7014C298.449 19.7925 298.28 19.838 298.095 19.838ZM301.942 19.838C301.656 19.838 301.411 19.7375 301.207 19.5365C301.003 19.3356 300.902 19.0906 300.905 18.8017C300.902 18.5191 301.003 18.2773 301.207 18.0763C301.411 17.8754 301.656 17.7749 301.942 17.7749C302.218 17.7749 302.458 17.8754 302.662 18.0763C302.87 18.2773 302.975 18.5191 302.978 18.8017C302.975 18.9933 302.925 19.1676 302.827 19.3246C302.733 19.4816 302.607 19.6072 302.45 19.7014C302.297 19.7925 302.127 19.838 301.942 19.838ZM305.789 19.838C305.503 19.838 305.258 19.7375 305.054 19.5365C304.85 19.3356 304.749 19.0906 304.753 18.8017C304.749 18.5191 304.85 18.2773 305.054 18.0763C305.258 17.8754 305.503 17.7749 305.789 17.7749C306.065 17.7749 306.305 17.8754 306.51 18.0763C306.717 18.2773 306.822 18.5191 306.825 18.8017C306.822 18.9933 306.772 19.1676 306.674 19.3246C306.58 19.4816 306.455 19.6072 306.298 19.7014C306.144 19.7925 305.974 19.838 305.789 19.838ZM309.636 19.838C309.35 19.838 309.105 19.7375 308.901 19.5365C308.697 19.3356 308.597 19.0906 308.6 18.8017C308.597 18.5191 308.697 18.2773 308.901 18.0763C309.105 17.8754 309.35 17.7749 309.636 17.7749C309.912 17.7749 310.153 17.8754 310.357 18.0763C310.564 18.2773 310.669 18.5191 310.672 18.8017C310.669 18.9933 310.619 19.1676 310.521 19.3246C310.427 19.4816 310.302 19.6072 310.145 19.7014C309.991 19.7925 309.821 19.838 309.636 19.838ZM313.483 19.838C313.197 19.838 312.952 19.7375 312.748 19.5365C312.544 19.3356 312.444 19.0906 312.447 18.8017C312.444 18.5191 312.544 18.2773 312.748 18.0763C312.952 17.8754 313.197 17.7749 313.483 17.7749C313.759 17.7749 314 17.8754 314.204 18.0763C314.411 18.2773 314.516 18.5191 314.519 18.8017C314.516 18.9933 314.466 19.1676 314.369 19.3246C314.274 19.4816 314.149 19.6072 313.992 19.7014C313.838 19.7925 313.668 19.838 313.483 19.838ZM317.33 19.838C317.044 19.838 316.8 19.7375 316.595 19.5365C316.391 19.3356 316.291 19.0906 316.294 18.8017C316.291 18.5191 316.391 18.2773 316.595 18.0763C316.8 17.8754 317.044 17.7749 317.33 17.7749C317.607 17.7749 317.847 17.8754 318.051 18.0763C318.258 18.2773 318.363 18.5191 318.367 18.8017C318.363 18.9933 318.313 19.1676 318.216 19.3246C318.122 19.4816 317.996 19.6072 317.839 19.7014C317.685 19.7925 317.516 19.838 317.33 19.838ZM321.177 19.838C320.892 19.838 320.647 19.7375 320.443 19.5365C320.238 19.3356 320.138 19.0906 320.141 18.8017C320.138 18.5191 320.238 18.2773 320.443 18.0763C320.647 17.8754 320.892 17.7749 321.177 17.7749C321.454 17.7749 321.694 17.8754 321.898 18.0763C322.105 18.2773 322.211 18.5191 322.214 18.8017C322.211 18.9933 322.16 19.1676 322.063 19.3246C321.969 19.4816 321.843 19.6072 321.686 19.7014C321.532 19.7925 321.363 19.838 321.177 19.838ZM325.025 19.838C324.739 19.838 324.494 19.7375 324.29 19.5365C324.086 19.3356 323.985 19.0906 323.988 18.8017C323.985 18.5191 324.086 18.2773 324.29 18.0763C324.494 17.8754 324.739 17.7749 325.025 17.7749C325.301 17.7749 325.541 17.8754 325.745 18.0763C325.952 18.2773 326.058 18.5191 326.061 18.8017C326.058 18.9933 326.007 19.1676 325.91 19.3246C325.816 19.4816 325.69 19.6072 325.533 19.7014C325.379 19.7925 325.21 19.838 325.025 19.838ZM328.872 19.838C328.586 19.838 328.341 19.7375 328.137 19.5365C327.933 19.3356 327.832 19.0906 327.835 18.8017C327.832 18.5191 327.933 18.2773 328.137 18.0763C328.341 17.8754 328.586 17.7749 328.872 17.7749C329.148 17.7749 329.388 17.8754 329.592 18.0763C329.8 18.2773 329.905 18.5191 329.908 18.8017C329.905 18.9933 329.855 19.1676 329.757 19.3246C329.663 19.4816 329.537 19.6072 329.38 19.7014C329.227 19.7925 329.057 19.838 328.872 19.838ZM332.719 19.838C332.433 19.838 332.188 19.7375 331.984 19.5365C331.78 19.3356 331.679 19.0906 331.683 18.8017C331.679 18.5191 331.78 18.2773 331.984 18.0763C332.188 17.8754 332.433 17.7749 332.719 17.7749C332.995 17.7749 333.235 17.8754 333.44 18.0763C333.647 18.2773 333.752 18.5191 333.755 18.8017C333.752 18.9933 333.702 19.1676 333.604 19.3246C333.51 19.4816 333.385 19.6072 333.228 19.7014C333.074 19.7925 332.904 19.838 332.719 19.838ZM336.566 19.838C336.28 19.838 336.035 19.7375 335.831 19.5365C335.627 19.3356 335.527 19.0906 335.53 18.8017C335.527 18.5191 335.627 18.2773 335.831 18.0763C336.035 17.8754 336.28 17.7749 336.566 17.7749C336.842 17.7749 337.083 17.8754 337.287 18.0763C337.494 18.2773 337.599 18.5191 337.602 18.8017C337.599 18.9933 337.549 19.1676 337.452 19.3246C337.357 19.4816 337.232 19.6072 337.075 19.7014C336.921 19.7925 336.751 19.838 336.566 19.838ZM340.413 19.838C340.127 19.838 339.882 19.7375 339.678 19.5365C339.474 19.3356 339.374 19.0906 339.377 18.8017C339.374 18.5191 339.474 18.2773 339.678 18.0763C339.882 17.8754 340.127 17.7749 340.413 17.7749C340.689 17.7749 340.93 17.8754 341.134 18.0763C341.341 18.2773 341.446 18.5191 341.449 18.8017C341.446 18.9933 341.396 19.1676 341.299 19.3246C341.204 19.4816 341.079 19.6072 340.922 19.7014C340.768 19.7925 340.598 19.838 340.413 19.838ZM344.26 19.838C343.975 19.838 343.73 19.7375 343.525 19.5365C343.321 19.3356 343.221 19.0906 343.224 18.8017C343.221 18.5191 343.321 18.2773 343.525 18.0763C343.73 17.8754 343.975 17.7749 344.26 17.7749C344.537 17.7749 344.777 17.8754 344.981 18.0763C345.188 18.2773 345.293 18.5191 345.297 18.8017C345.293 18.9933 345.243 19.1676 345.146 19.3246C345.052 19.4816 344.926 19.6072 344.769 19.7014C344.615 19.7925 344.446 19.838 344.26 19.838ZM348.107 19.838C347.822 19.838 347.577 19.7375 347.373 19.5365C347.169 19.3356 347.068 19.0906 347.071 18.8017C347.068 18.5191 347.169 18.2773 347.373 18.0763C347.577 17.8754 347.822 17.7749 348.107 17.7749C348.384 17.7749 348.624 17.8754 348.828 18.0763C349.035 18.2773 349.141 18.5191 349.144 18.8017C349.141 18.9933 349.09 19.1676 348.993 19.3246C348.899 19.4816 348.773 19.6072 348.616 19.7014C348.462 19.7925 348.293 19.838 348.107 19.838ZM351.955 19.838C351.669 19.838 351.424 19.7375 351.22 19.5365C351.016 19.3356 350.915 19.0906 350.918 18.8017C350.915 18.5191 351.016 18.2773 351.22 18.0763C351.424 17.8754 351.669 17.7749 351.955 17.7749C352.231 17.7749 352.471 17.8754 352.675 18.0763C352.883 18.2773 352.988 18.5191 352.991 18.8017C352.988 18.9933 352.937 19.1676 352.84 19.3246C352.746 19.4816 352.62 19.6072 352.463 19.7014C352.309 19.7925 352.14 19.838 351.955 19.838ZM355.802 19.838C355.516 19.838 355.271 19.7375 355.067 19.5365C354.863 19.3356 354.762 19.0906 354.765 18.8017C354.762 18.5191 354.863 18.2773 355.067 18.0763C355.271 17.8754 355.516 17.7749 355.802 17.7749C356.078 17.7749 356.318 17.8754 356.522 18.0763C356.73 18.2773 356.835 18.5191 356.838 18.8017C356.835 18.9933 356.785 19.1676 356.687 19.3246C356.593 19.4816 356.467 19.6072 356.31 19.7014C356.157 19.7925 355.987 19.838 355.802 19.838ZM359.649 19.838C359.363 19.838 359.118 19.7375 358.914 19.5365C358.71 19.3356 358.609 19.0906 358.613 18.8017C358.609 18.5191 358.71 18.2773 358.914 18.0763C359.118 17.8754 359.363 17.7749 359.649 17.7749C359.925 17.7749 360.165 17.8754 360.37 18.0763C360.577 18.2773 360.682 18.5191 360.685 18.8017C360.682 18.9933 360.632 19.1676 360.534 19.3246C360.44 19.4816 360.315 19.6072 360.158 19.7014C360.004 19.7925 359.834 19.838 359.649 19.838ZM363.496 19.838C363.21 19.838 362.965 19.7375 362.761 19.5365C362.557 19.3356 362.457 19.0906 362.46 18.8017C362.457 18.5191 362.557 18.2773 362.761 18.0763C362.965 17.8754 363.21 17.7749 363.496 17.7749C363.772 17.7749 364.013 17.8754 364.217 18.0763C364.424 18.2773 364.529 18.5191 364.532 18.8017C364.529 18.9933 364.479 19.1676 364.382 19.3246C364.287 19.4816 364.162 19.6072 364.005 19.7014C363.851 19.7925 363.681 19.838 363.496 19.838ZM367.343 19.838C367.057 19.838 366.812 19.7375 366.608 19.5365C366.404 19.3356 366.304 19.0906 366.307 18.8017C366.304 18.5191 366.404 18.2773 366.608 18.0763C366.812 17.8754 367.057 17.7749 367.343 17.7749C367.62 17.7749 367.86 17.8754 368.064 18.0763C368.271 18.2773 368.376 18.5191 368.379 18.8017C368.376 18.9933 368.326 19.1676 368.229 19.3246C368.135 19.4816 368.009 19.6072 367.852 19.7014C367.698 19.7925 367.528 19.838 367.343 19.838ZM371.19 19.838C370.905 19.838 370.66 19.7375 370.456 19.5365C370.251 19.3356 370.151 19.0906 370.154 18.8017C370.151 18.5191 370.251 18.2773 370.456 18.0763C370.66 17.8754 370.905 17.7749 371.19 17.7749C371.467 17.7749 371.707 17.8754 371.911 18.0763C372.118 18.2773 372.223 18.5191 372.227 18.8017C372.223 18.9933 372.173 19.1676 372.076 19.3246C371.982 19.4816 371.856 19.6072 371.699 19.7014C371.545 19.7925 371.376 19.838 371.19 19.838ZM375.037 19.838C374.752 19.838 374.507 19.7375 374.303 19.5365C374.099 19.3356 373.998 19.0906 374.001 18.8017C373.998 18.5191 374.099 18.2773 374.303 18.0763C374.507 17.8754 374.752 17.7749 375.037 17.7749C375.314 17.7749 375.554 17.8754 375.758 18.0763C375.965 18.2773 376.071 18.5191 376.074 18.8017C376.071 18.9933 376.02 19.1676 375.923 19.3246C375.829 19.4816 375.703 19.6072 375.546 19.7014C375.392 19.7925 375.223 19.838 375.037 19.838ZM378.885 19.838C378.599 19.838 378.354 19.7375 378.15 19.5365C377.946 19.3356 377.845 19.0906 377.848 18.8017C377.845 18.5191 377.946 18.2773 378.15 18.0763C378.354 17.8754 378.599 17.7749 378.885 17.7749C379.161 17.7749 379.401 17.8754 379.605 18.0763C379.813 18.2773 379.918 18.5191 379.921 18.8017C379.918 18.9933 379.868 19.1676 379.77 19.3246C379.676 19.4816 379.55 19.6072 379.393 19.7014C379.239 19.7925 379.07 19.838 378.885 19.838ZM382.732 19.838C382.446 19.838 382.201 19.7375 381.997 19.5365C381.793 19.3356 381.692 19.0906 381.695 18.8017C381.692 18.5191 381.793 18.2773 381.997 18.0763C382.201 17.8754 382.446 17.7749 382.732 17.7749C383.008 17.7749 383.248 17.8754 383.452 18.0763C383.66 18.2773 383.765 18.5191 383.768 18.8017C383.765 18.9933 383.715 19.1676 383.617 19.3246C383.523 19.4816 383.397 19.6072 383.24 19.7014C383.087 19.7925 382.917 19.838 382.732 19.838ZM386.579 19.838C386.293 19.838 386.048 19.7375 385.844 19.5365C385.64 19.3356 385.54 19.0906 385.543 18.8017C385.54 18.5191 385.64 18.2773 385.844 18.0763C386.048 17.8754 386.293 17.7749 386.579 17.7749C386.855 17.7749 387.095 17.8754 387.3 18.0763C387.507 18.2773 387.612 18.5191 387.615 18.8017C387.612 18.9933 387.562 19.1676 387.464 19.3246C387.37 19.4816 387.245 19.6072 387.088 19.7014C386.934 19.7925 386.764 19.838 386.579 19.838ZM390.426 19.838C390.14 19.838 389.895 19.7375 389.691 19.5365C389.487 19.3356 389.387 19.0906 389.39 18.8017C389.387 18.5191 389.487 18.2773 389.691 18.0763C389.895 17.8754 390.14 17.7749 390.426 17.7749C390.702 17.7749 390.943 17.8754 391.147 18.0763C391.354 18.2773 391.459 18.5191 391.462 18.8017C391.459 18.9933 391.409 19.1676 391.312 19.3246C391.217 19.4816 391.092 19.6072 390.935 19.7014C390.781 19.7925 390.611 19.838 390.426 19.838ZM394.273 19.838C393.987 19.838 393.743 19.7375 393.538 19.5365C393.334 19.3356 393.234 19.0906 393.237 18.8017C393.234 18.5191 393.334 18.2773 393.538 18.0763C393.743 17.8754 393.987 17.7749 394.273 17.7749C394.55 17.7749 394.79 17.8754 394.994 18.0763C395.201 18.2773 395.306 18.5191 395.309 18.8017C395.306 18.9933 395.256 19.1676 395.159 19.3246C395.065 19.4816 394.939 19.6072 394.782 19.7014C394.628 19.7925 394.458 19.838 394.273 19.838ZM398.12 19.838C397.835 19.838 397.59 19.7375 397.386 19.5365C397.181 19.3356 397.081 19.0906 397.084 18.8017C397.081 18.5191 397.181 18.2773 397.386 18.0763C397.59 17.8754 397.835 17.7749 398.12 17.7749C398.397 17.7749 398.637 17.8754 398.841 18.0763C399.048 18.2773 399.153 18.5191 399.157 18.8017C399.153 18.9933 399.103 19.1676 399.006 19.3246C398.912 19.4816 398.786 19.6072 398.629 19.7014C398.475 19.7925 398.306 19.838 398.12 19.838ZM401.968 19.838C401.682 19.838 401.437 19.7375 401.233 19.5365C401.029 19.3356 400.928 19.0906 400.931 18.8017C400.928 18.5191 401.029 18.2773 401.233 18.0763C401.437 17.8754 401.682 17.7749 401.968 17.7749C402.244 17.7749 402.484 17.8754 402.688 18.0763C402.895 18.2773 403.001 18.5191 403.004 18.8017C403.001 18.9933 402.95 19.1676 402.853 19.3246C402.759 19.4816 402.633 19.6072 402.476 19.7014C402.322 19.7925 402.153 19.838 401.968 19.838ZM405.815 19.838C405.529 19.838 405.284 19.7375 405.08 19.5365C404.876 19.3356 404.775 19.0906 404.778 18.8017C404.775 18.5191 404.876 18.2773 405.08 18.0763C405.284 17.8754 405.529 17.7749 405.815 17.7749C406.091 17.7749 406.331 17.8754 406.535 18.0763C406.743 18.2773 406.848 18.5191 406.851 18.8017C406.848 18.9933 406.798 19.1676 406.7 19.3246C406.606 19.4816 406.48 19.6072 406.323 19.7014C406.169 19.7925 406 19.838 405.815 19.838ZM409.662 19.838C409.376 19.838 409.131 19.7375 408.927 19.5365C408.723 19.3356 408.622 19.0906 408.626 18.8017C408.622 18.5191 408.723 18.2773 408.927 18.0763C409.131 17.8754 409.376 17.7749 409.662 17.7749C409.938 17.7749 410.178 17.8754 410.382 18.0763C410.59 18.2773 410.695 18.5191 410.698 18.8017C410.695 18.9933 410.645 19.1676 410.547 19.3246C410.453 19.4816 410.328 19.6072 410.171 19.7014C410.017 19.7925 409.847 19.838 409.662 19.838ZM413.509 19.838C413.223 19.838 412.978 19.7375 412.774 19.5365C412.57 19.3356 412.47 19.0906 412.473 18.8017C412.47 18.5191 412.57 18.2773 412.774 18.0763C412.978 17.8754 413.223 17.7749 413.509 17.7749C413.785 17.7749 414.026 17.8754 414.23 18.0763C414.437 18.2773 414.542 18.5191 414.545 18.8017C414.542 18.9933 414.492 19.1676 414.394 19.3246C414.3 19.4816 414.175 19.6072 414.018 19.7014C413.864 19.7925 413.694 19.838 413.509 19.838ZM417.356 19.838C417.07 19.838 416.825 19.7375 416.621 19.5365C416.417 19.3356 416.317 19.0906 416.32 18.8017C416.317 18.5191 416.417 18.2773 416.621 18.0763C416.825 17.8754 417.07 17.7749 417.356 17.7749C417.632 17.7749 417.873 17.8754 418.077 18.0763C418.284 18.2773 418.389 18.5191 418.392 18.8017C418.389 18.9933 418.339 19.1676 418.242 19.3246C418.147 19.4816 418.022 19.6072 417.865 19.7014C417.711 19.7925 417.541 19.838 417.356 19.838ZM421.203 19.838C420.917 19.838 420.673 19.7375 420.468 19.5365C420.264 19.3356 420.164 19.0906 420.167 18.8017C420.164 18.5191 420.264 18.2773 420.468 18.0763C420.673 17.8754 420.917 17.7749 421.203 17.7749C421.48 17.7749 421.72 17.8754 421.924 18.0763C422.131 18.2773 422.236 18.5191 422.24 18.8017C422.236 18.9933 422.186 19.1676 422.089 19.3246C421.995 19.4816 421.869 19.6072 421.712 19.7014C421.558 19.7925 421.389 19.838 421.203 19.838ZM425.05 19.838C424.765 19.838 424.52 19.7375 424.316 19.5365C424.111 19.3356 424.011 19.0906 424.014 18.8017C424.011 18.5191 424.111 18.2773 424.316 18.0763C424.52 17.8754 424.765 17.7749 425.05 17.7749C425.327 17.7749 425.567 17.8754 425.771 18.0763C425.978 18.2773 426.084 18.5191 426.087 18.8017C426.084 18.9933 426.033 19.1676 425.936 19.3246C425.842 19.4816 425.716 19.6072 425.559 19.7014C425.405 19.7925 425.236 19.838 425.05 19.838ZM428.898 19.838C428.612 19.838 428.367 19.7375 428.163 19.5365C427.959 19.3356 427.858 19.0906 427.861 18.8017C427.858 18.5191 427.959 18.2773 428.163 18.0763C428.367 17.8754 428.612 17.7749 428.898 17.7749C429.174 17.7749 429.414 17.8754 429.618 18.0763C429.825 18.2773 429.931 18.5191 429.934 18.8017C429.931 18.9933 429.88 19.1676 429.783 19.3246C429.689 19.4816 429.563 19.6072 429.406 19.7014C429.252 19.7925 429.083 19.838 428.898 19.838ZM432.745 19.838C432.459 19.838 432.214 19.7375 432.01 19.5365C431.806 19.3356 431.705 19.0906 431.708 18.8017C431.705 18.5191 431.806 18.2773 432.01 18.0763C432.214 17.8754 432.459 17.7749 432.745 17.7749C433.021 17.7749 433.261 17.8754 433.465 18.0763C433.673 18.2773 433.778 18.5191 433.781 18.8017C433.778 18.9933 433.728 19.1676 433.63 19.3246C433.536 19.4816 433.41 19.6072 433.253 19.7014C433.1 19.7925 432.93 19.838 432.745 19.838ZM436.592 19.838C436.306 19.838 436.061 19.7375 435.857 19.5365C435.653 19.3356 435.552 19.0906 435.556 18.8017C435.552 18.5191 435.653 18.2773 435.857 18.0763C436.061 17.8754 436.306 17.7749 436.592 17.7749C436.868 17.7749 437.108 17.8754 437.313 18.0763C437.52 18.2773 437.625 18.5191 437.628 18.8017C437.625 18.9933 437.575 19.1676 437.477 19.3246C437.383 19.4816 437.258 19.6072 437.101 19.7014C436.947 19.7925 436.777 19.838 436.592 19.838ZM440.439 19.838C440.153 19.838 439.908 19.7375 439.704 19.5365C439.5 19.3356 439.4 19.0906 439.403 18.8017C439.4 18.5191 439.5 18.2773 439.704 18.0763C439.908 17.8754 440.153 17.7749 440.439 17.7749C440.715 17.7749 440.956 17.8754 441.16 18.0763C441.367 18.2773 441.472 18.5191 441.475 18.8017C441.472 18.9933 441.422 19.1676 441.325 19.3246C441.23 19.4816 441.105 19.6072 440.948 19.7014C440.794 19.7925 440.624 19.838 440.439 19.838ZM444.286 19.838C444 19.838 443.755 19.7375 443.551 19.5365C443.347 19.3356 443.247 19.0906 443.25 18.8017C443.247 18.5191 443.347 18.2773 443.551 18.0763C443.755 17.8754 444 17.7749 444.286 17.7749C444.562 17.7749 444.803 17.8754 445.007 18.0763C445.214 18.2773 445.319 18.5191 445.322 18.8017C445.319 18.9933 445.269 19.1676 445.172 19.3246C445.077 19.4816 444.952 19.6072 444.795 19.7014C444.641 19.7925 444.471 19.838 444.286 19.838ZM448.133 19.838C447.848 19.838 447.603 19.7375 447.398 19.5365C447.194 19.3356 447.094 19.0906 447.097 18.8017C447.094 18.5191 447.194 18.2773 447.398 18.0763C447.603 17.8754 447.848 17.7749 448.133 17.7749C448.41 17.7749 448.65 17.8754 448.854 18.0763C449.061 18.2773 449.166 18.5191 449.17 18.8017C449.166 18.9933 449.116 19.1676 449.019 19.3246C448.925 19.4816 448.799 19.6072 448.642 19.7014C448.488 19.7925 448.319 19.838 448.133 19.838ZM451.98 19.838C451.695 19.838 451.45 19.7375 451.246 19.5365C451.041 19.3356 450.941 19.0906 450.944 18.8017C450.941 18.5191 451.041 18.2773 451.246 18.0763C451.45 17.8754 451.695 17.7749 451.98 17.7749C452.257 17.7749 452.497 17.8754 452.701 18.0763C452.908 18.2773 453.014 18.5191 453.017 18.8017C453.014 18.9933 452.963 19.1676 452.866 19.3246C452.772 19.4816 452.646 19.6072 452.489 19.7014C452.335 19.7925 452.166 19.838 451.98 19.838ZM455.828 19.838C455.542 19.838 455.297 19.7375 455.093 19.5365C454.889 19.3356 454.788 19.0906 454.791 18.8017C454.788 18.5191 454.889 18.2773 455.093 18.0763C455.297 17.8754 455.542 17.7749 455.828 17.7749C456.104 17.7749 456.344 17.8754 456.548 18.0763C456.756 18.2773 456.861 18.5191 456.864 18.8017C456.861 18.9933 456.81 19.1676 456.713 19.3246C456.619 19.4816 456.493 19.6072 456.336 19.7014C456.182 19.7925 456.013 19.838 455.828 19.838ZM459.675 19.838C459.389 19.838 459.144 19.7375 458.94 19.5365C458.736 19.3356 458.635 19.0906 458.638 18.8017C458.635 18.5191 458.736 18.2773 458.94 18.0763C459.144 17.8754 459.389 17.7749 459.675 17.7749C459.951 17.7749 460.191 17.8754 460.395 18.0763C460.603 18.2773 460.708 18.5191 460.711 18.8017C460.708 18.9933 460.658 19.1676 460.56 19.3246C460.466 19.4816 460.34 19.6072 460.183 19.7014C460.03 19.7925 459.86 19.838 459.675 19.838ZM463.522 19.838C463.236 19.838 462.991 19.7375 462.787 19.5365C462.583 19.3356 462.482 19.0906 462.486 18.8017C462.482 18.5191 462.583 18.2773 462.787 18.0763C462.991 17.8754 463.236 17.7749 463.522 17.7749C463.798 17.7749 464.038 17.8754 464.243 18.0763C464.45 18.2773 464.555 18.5191 464.558 18.8017C464.555 18.9933 464.505 19.1676 464.407 19.3246C464.313 19.4816 464.188 19.6072 464.031 19.7014C463.877 19.7925 463.707 19.838 463.522 19.838ZM467.369 19.838C467.083 19.838 466.838 19.7375 466.634 19.5365C466.43 19.3356 466.33 19.0906 466.333 18.8017C466.33 18.5191 466.43 18.2773 466.634 18.0763C466.838 17.8754 467.083 17.7749 467.369 17.7749C467.645 17.7749 467.886 17.8754 468.09 18.0763C468.297 18.2773 468.402 18.5191 468.405 18.8017C468.402 18.9933 468.352 19.1676 468.255 19.3246C468.16 19.4816 468.035 19.6072 467.878 19.7014C467.724 19.7925 467.554 19.838 467.369 19.838ZM471.216 19.838C470.93 19.838 470.685 19.7375 470.481 19.5365C470.277 19.3356 470.177 19.0906 470.18 18.8017C470.177 18.5191 470.277 18.2773 470.481 18.0763C470.685 17.8754 470.93 17.7749 471.216 17.7749C471.492 17.7749 471.733 17.8754 471.937 18.0763C472.144 18.2773 472.249 18.5191 472.252 18.8017C472.249 18.9933 472.199 19.1676 472.102 19.3246C472.007 19.4816 471.882 19.6072 471.725 19.7014C471.571 19.7925 471.401 19.838 471.216 19.838ZM475.063 19.838C474.778 19.838 474.533 19.7375 474.328 19.5365C474.124 19.3356 474.024 19.0906 474.027 18.8017C474.024 18.5191 474.124 18.2773 474.328 18.0763C474.533 17.8754 474.778 17.7749 475.063 17.7749C475.34 17.7749 475.58 17.8754 475.784 18.0763C475.991 18.2773 476.096 18.5191 476.1 18.8017C476.096 18.9933 476.046 19.1676 475.949 19.3246C475.855 19.4816 475.729 19.6072 475.572 19.7014C475.418 19.7925 475.249 19.838 475.063 19.838Z" fill="#6C6C6C"/>
<g filter="url(#filter0_d_1954_81)">
<rect x="7.19922" y="7.19922" width="27" height="27" rx="13.5" fill="white" shape-rendering="crispEdges"/>
<g clip-path="url(#clip0_1954_81)">
<path d="M27.1868 25.5752L24.362 18.1107C24.3229 18.0077 24.2639 17.9135 24.1884 17.8334C24.113 17.7532 24.0224 17.6888 23.922 17.6436C23.8216 17.5985 23.7133 17.5735 23.6032 17.5703C23.4932 17.567 23.3836 17.5854 23.2806 17.6245L21.9562 18.1233V16.8952C21.9562 16.6818 21.8714 16.4771 21.7205 16.3262C21.5696 16.1753 21.3649 16.0905 21.1515 16.0905H19.0224V15.2188C19.0224 15.0053 18.9376 14.8007 18.7867 14.6498C18.6358 14.4988 18.4311 14.4141 18.2177 14.4141H15.2503C15.028 14.4141 14.8148 14.5024 14.6576 14.6596C14.5004 14.8168 14.4121 15.03 14.4121 15.2523V26.5685C14.4121 26.6796 14.4563 26.7862 14.5349 26.8648C14.6135 26.9434 14.7201 26.9876 14.8312 26.9876H21.5371C21.6483 26.9876 21.7549 26.9434 21.8335 26.8648C21.9121 26.7862 21.9562 26.6796 21.9562 26.5685V21.2331L24.0518 26.7697C24.0713 26.8211 24.1008 26.8682 24.1386 26.9083C24.1763 26.9484 24.2216 26.9806 24.2718 27.0032C24.322 27.0258 24.3762 27.0382 24.4312 27.0399C24.4862 27.0415 24.541 27.0323 24.5925 27.0127L26.9437 26.1158C26.9952 26.0963 27.0423 26.0668 27.0824 26.0291C27.1224 25.9913 27.1547 25.9461 27.1773 25.8959C27.1998 25.8456 27.2123 25.7915 27.2139 25.7365C27.2156 25.6814 27.2064 25.6266 27.1868 25.5752ZM18.1842 16.8575V26.1494H15.2503V15.2523H18.1842V16.8575ZM21.118 26.1494H19.0224V16.9288H21.118V26.1494ZM24.6847 26.0446L22.0107 18.9908L23.5782 18.3957L26.2564 25.4494L24.6847 26.0446Z" fill="#00B1EF"/>
</g>
</g>
<defs>
<filter id="filter0_d_1954_81" x="-0.000781059" y="-0.000781059" width="41.4" height="41.4" filterUnits="userSpaceOnUse" color-interpolation-filters="sRGB">
<feFlood flood-opacity="0" result="BackgroundImageFix"/>
<feColorMatrix in="SourceAlpha" type="matrix" values="0 0 0 0 0 0 0 0 0 0 0 0 0 0 0 0 0 0 127 0" result="hardAlpha"/>
<feOffset/>
<feGaussianBlur stdDeviation="3.6"/>
<feComposite in2="hardAlpha" operator="out"/>
<feColorMatrix type="matrix" values="0 0 0 0 0 0 0 0 0 0 0 0 0 0 0 0 0 0 0.25 0"/>
<feBlend mode="normal" in2="BackgroundImageFix" result="effect1_dropShadow_1954_81"/>
<feBlend mode="normal" in="SourceGraphic" in2="effect1_dropShadow_1954_81" result="shape"/>
</filter>
<clipPath id="clip0_1954_81">
<rect width="15.0882" height="15.0882" fill="white" transform="translate(13.1543 13.1562)"/>
</clipPath>
</defs>
</svg>
