<svg width="208" height="31" viewBox="0 0 208 31" fill="none" xmlns="http://www.w3.org/2000/svg">
<path d="M0.779282 4.91416V2.75026H12.1485V4.91416H7.74412V17H5.18362V4.91416H0.779282ZM14.448 17H11.6927L16.7093 2.75026H19.8961L24.9196 17H22.1643L18.3584 5.67257H18.247L14.448 17ZM14.5385 11.4128H22.053V13.4863H14.5385V11.4128ZM26.7965 17V2.75026H32.2515C33.2813 2.75026 34.1371 2.91261 34.819 3.23731C35.5055 3.55738 36.018 3.99572 36.3567 4.55235C36.6999 5.10898 36.8715 5.73983 36.8715 6.4449C36.8715 7.02472 36.7602 7.52105 36.5376 7.93388C36.3149 8.34208 36.0157 8.67374 35.64 8.92886C35.2643 9.18398 34.8445 9.36721 34.3806 9.47853V9.61769C34.8862 9.64552 35.371 9.80091 35.8348 10.0839C36.3033 10.3622 36.686 10.7565 36.9829 11.2667C37.2797 11.777 37.4282 12.3939 37.4282 13.1175C37.4282 13.855 37.2496 14.5184 36.8924 15.1075C36.5352 15.6919 35.9972 16.1535 35.2782 16.4921C34.5592 16.8307 33.6547 17 32.5646 17H26.7965ZM29.3779 14.8431H32.1541C33.0911 14.8431 33.766 14.6645 34.1788 14.3073C34.5963 13.9455 34.8051 13.4816 34.8051 12.9157C34.8051 12.4936 34.7007 12.1132 34.4919 11.7746C34.2832 11.4314 33.9863 11.1623 33.6013 10.9675C33.2163 10.7681 32.7571 10.6683 32.2237 10.6683H29.3779V14.8431ZM29.3779 8.81058H31.9314C32.3768 8.81058 32.778 8.7294 33.1352 8.56705C33.4923 8.40006 33.773 8.16581 33.9771 7.8643C34.1858 7.55816 34.2902 7.19635 34.2902 6.77888C34.2902 6.22688 34.0953 5.7723 33.7057 5.41513C33.3207 5.05796 32.7478 4.87937 31.9871 4.87937H29.3779V8.81058ZM39.6738 17V2.75026H42.2552V14.8361H48.5312V17H39.6738ZM50.7716 17V2.75026H60.0395V4.91416H53.353V8.78274H59.5594V10.9466H53.353V14.8361H60.0952V17H50.7716ZM80.2661 9.87513C80.2661 11.4105 79.9785 12.7255 79.4033 13.8202C78.8328 14.9103 78.0535 15.7453 77.0655 16.3251C76.0821 16.9049 74.9665 17.1948 73.7187 17.1948C72.471 17.1948 71.3531 16.9049 70.365 16.3251C69.3817 15.7406 68.6024 14.9034 68.0272 13.8133C67.4566 12.7186 67.1714 11.4059 67.1714 9.87513C67.1714 8.33976 67.4566 7.02704 68.0272 5.93697C68.6024 4.84227 69.3817 4.005 70.365 3.42518C71.3531 2.84535 72.471 2.55544 73.7187 2.55544C74.9665 2.55544 76.0821 2.84535 77.0655 3.42518C78.0535 4.005 78.8328 4.84227 79.4033 5.93697C79.9785 7.02704 80.2661 8.33976 80.2661 9.87513ZM77.6708 9.87513C77.6708 8.79434 77.5015 7.88286 77.1629 7.14068C76.8289 6.39387 76.365 5.83028 75.7713 5.44992C75.1776 5.06492 74.4934 4.87242 73.7187 4.87242C72.9441 4.87242 72.2599 5.06492 71.6662 5.44992C71.0724 5.83028 70.6062 6.39387 70.2676 7.14068C69.9336 7.88286 69.7667 8.79434 69.7667 9.87513C69.7667 10.9559 69.9336 11.8697 70.2676 12.6165C70.6062 13.3587 71.0724 13.9223 71.6662 14.3073C72.2599 14.6877 72.9441 14.8778 73.7187 14.8778C74.4934 14.8778 75.1776 14.6877 75.7713 14.3073C76.365 13.9223 76.8289 13.3587 77.1629 12.6165C77.5015 11.8697 77.6708 10.9559 77.6708 9.87513ZM82.7066 17V2.75026H91.8353V4.91416H85.2879V8.78274H91.2091V10.9466H85.2879V17H82.7066Z" fill="black"/>
<path d="M110.771 7.55816H108.168C108.094 7.13141 107.957 6.75336 107.758 6.42402C107.558 6.09005 107.31 5.80709 107.013 5.57516C106.716 5.34323 106.378 5.16929 105.998 5.05332C105.622 4.93272 105.216 4.87242 104.78 4.87242C104.005 4.87242 103.319 5.06724 102.72 5.45688C102.122 5.84188 101.653 6.40779 101.315 7.1546C100.976 7.89677 100.807 8.80362 100.807 9.87513C100.807 10.9652 100.976 11.8836 101.315 12.6305C101.658 13.3726 102.127 13.9339 102.72 14.3143C103.319 14.69 104.003 14.8778 104.773 14.8778C105.2 14.8778 105.599 14.8222 105.97 14.7109C106.345 14.5949 106.682 14.4256 106.979 14.2029C107.28 13.9803 107.533 13.7066 107.737 13.3819C107.946 13.0572 108.09 12.6861 108.168 12.2686L110.771 12.2826C110.673 12.9598 110.462 13.5953 110.137 14.189C109.817 14.7828 109.398 15.3069 108.878 15.7615C108.359 16.2114 107.751 16.564 107.055 16.8191C106.359 17.0696 105.587 17.1948 104.738 17.1948C103.486 17.1948 102.368 16.9049 101.384 16.3251C100.401 15.7453 99.6264 14.908 99.0605 13.8133C98.4946 12.7186 98.2117 11.4059 98.2117 9.87513C98.2117 8.33976 98.4969 7.02704 99.0675 5.93697C99.638 4.84227 100.415 4.005 101.398 3.42518C102.382 2.84535 103.495 2.55544 104.738 2.55544C105.531 2.55544 106.269 2.66677 106.951 2.88942C107.633 3.11207 108.24 3.43909 108.774 3.87048C109.307 4.29723 109.745 4.82139 110.089 5.44296C110.437 6.05989 110.664 6.76496 110.771 7.55816ZM125.867 9.87513C125.867 11.4105 125.58 12.7255 125.005 13.8202C124.434 14.9103 123.655 15.7453 122.667 16.3251C121.683 16.9049 120.568 17.1948 119.32 17.1948C118.072 17.1948 116.954 16.9049 115.966 16.3251C114.983 15.7406 114.204 14.9034 113.629 13.8133C113.058 12.7186 112.773 11.4059 112.773 9.87513C112.773 8.33976 113.058 7.02704 113.629 5.93697C114.204 4.84227 114.983 4.005 115.966 3.42518C116.954 2.84535 118.072 2.55544 119.32 2.55544C120.568 2.55544 121.683 2.84535 122.667 3.42518C123.655 4.005 124.434 4.84227 125.005 5.93697C125.58 7.02704 125.867 8.33976 125.867 9.87513ZM123.272 9.87513C123.272 8.79434 123.103 7.88286 122.764 7.14068C122.43 6.39387 121.966 5.83028 121.373 5.44992C120.779 5.06492 120.095 4.87242 119.32 4.87242C118.545 4.87242 117.861 5.06492 117.268 5.44992C116.674 5.83028 116.208 6.39387 115.869 7.14068C115.535 7.88286 115.368 8.79434 115.368 9.87513C115.368 10.9559 115.535 11.8697 115.869 12.6165C116.208 13.3587 116.674 13.9223 117.268 14.3073C117.861 14.6877 118.545 14.8778 119.32 14.8778C120.095 14.8778 120.779 14.6877 121.373 14.3073C121.966 13.9223 122.43 13.3587 122.764 12.6165C123.103 11.8697 123.272 10.9559 123.272 9.87513ZM140.018 2.75026V17H137.722L131.008 7.29376H130.889V17H128.308V2.75026H130.618L137.325 12.4635H137.451V2.75026H140.018ZM142.205 4.91416V2.75026H153.574V4.91416H149.169V17H146.609V4.91416H142.205ZM155.765 17V2.75026H165.033V4.91416H158.347V8.78274H164.553V10.9466H158.347V14.8361H165.089V17H155.765ZM179.377 2.75026V17H177.081L170.367 7.29376H170.248V17H167.667V2.75026H169.977L176.684 12.4635H176.81V2.75026H179.377ZM181.564 4.91416V2.75026H192.933V4.91416H188.528V17H185.968V4.91416H181.564ZM202.869 6.66755C202.804 6.05989 202.53 5.58676 202.048 5.24814C201.57 4.90953 200.948 4.74022 200.183 4.74022C199.645 4.74022 199.183 4.82139 198.798 4.98374C198.413 5.14609 198.119 5.36643 197.915 5.64474C197.71 5.92306 197.606 6.2408 197.601 6.59797C197.601 6.89484 197.669 7.15228 197.803 7.3703C197.942 7.58831 198.13 7.77385 198.367 7.92693C198.603 8.07536 198.865 8.2006 199.153 8.30265C199.441 8.4047 199.731 8.49051 200.023 8.56009L201.359 8.89407C201.897 9.01931 202.414 9.18862 202.91 9.402C203.411 9.61537 203.859 9.88441 204.253 10.2091C204.652 10.5338 204.968 10.9258 205.199 11.385C205.431 11.8442 205.547 12.3823 205.547 12.9992C205.547 13.8342 205.334 14.5694 204.907 15.2049C204.48 15.8357 203.864 16.3297 203.056 16.6869C202.254 17.0394 201.282 17.2157 200.141 17.2157C199.032 17.2157 198.07 17.0441 197.254 16.7008C196.442 16.3576 195.806 15.8566 195.347 15.1979C194.893 14.5392 194.647 13.7368 194.61 12.7905H197.149C197.186 13.2868 197.339 13.6996 197.608 14.029C197.877 14.3583 198.228 14.6042 198.659 14.7665C199.095 14.9289 199.582 15.01 200.12 15.01C200.681 15.01 201.173 14.9266 201.595 14.7596C202.022 14.5879 202.356 14.3514 202.597 14.0499C202.838 13.7437 202.961 13.3865 202.966 12.9783C202.961 12.6073 202.852 12.3011 202.639 12.0599C202.426 11.8141 202.126 11.61 201.741 11.4476C201.361 11.2806 200.916 11.1322 200.406 11.0023L198.784 10.5848C197.611 10.2833 196.683 9.82643 196.001 9.21413C195.324 8.5972 194.985 7.77849 194.985 6.758C194.985 5.91842 195.213 5.1832 195.667 4.55235C196.126 3.92151 196.75 3.43214 197.539 3.08424C198.327 2.73171 199.22 2.55544 200.218 2.55544C201.229 2.55544 202.115 2.73171 202.876 3.08424C203.641 3.43214 204.242 3.91687 204.678 4.53844C205.114 5.15537 205.339 5.86507 205.353 6.66755H202.869Z" fill="#7D7D7D"/>
<path d="M2 30H42.5" stroke="#7D7D7D" stroke-width="2" stroke-linecap="round"/>
</svg>
