<svg width="134" height="157" viewBox="0 0 134 157" fill="none" xmlns="http://www.w3.org/2000/svg">
<rect width="39" height="39" rx="19.5" fill="url(#paint0_linear_1752_142)"/>
<path d="M17.9197 25.0513V14.7767L17.0262 15.6701C16.8443 15.8521 16.6169 15.9431 16.3443 15.9431C16.0716 15.9431 15.8356 15.8438 15.6364 15.6453C15.4544 15.4633 15.3634 15.2316 15.3634 14.9504C15.3634 14.6691 15.4544 14.4375 15.6364 14.2555L18.2175 11.6744C18.3168 11.5751 18.4243 11.5047 18.5401 11.463C18.656 11.4213 18.7801 11.4011 18.9124 11.4024C19.0448 11.4037 19.1689 11.4246 19.2847 11.4649C19.4005 11.5053 19.508 11.5755 19.6073 11.6754L22.1884 14.2565C22.3704 14.4385 22.4614 14.6661 22.4614 14.9395C22.4614 15.2128 22.3704 15.4481 22.1884 15.6453C21.9898 15.8438 21.7542 15.9431 21.4816 15.9431C21.2089 15.9431 20.973 15.8438 20.7738 15.6453L19.9051 14.7767V25.0513L20.7986 24.1578C20.9806 23.9758 21.2082 23.8848 21.4816 23.8848C21.7549 23.8848 21.9905 23.9841 22.1884 24.1827C22.3704 24.3647 22.4614 24.5963 22.4614 24.8776C22.4614 25.1588 22.3704 25.3905 22.1884 25.5725L19.6073 28.1535C19.508 28.2528 19.4005 28.3233 19.2847 28.365C19.1689 28.4067 19.0448 28.4272 18.9124 28.4265C18.7801 28.4259 18.656 28.4054 18.5401 28.365C18.4243 28.3246 18.3168 28.2541 18.2175 28.1535L15.6364 25.5725C15.4544 25.3905 15.3595 25.1631 15.3515 24.8905C15.3436 24.6178 15.4386 24.3819 15.6364 24.1827C15.8184 24.0007 16.0501 23.9097 16.3313 23.9097C16.6126 23.9097 16.8443 24.0007 17.0262 24.1827L17.9197 25.0513Z" fill="white"/>
<path d="M46.319 16.7539V7.30257H48.3173V11.2022H52.3738V7.30257H54.3674V16.7539H52.3738V12.8497H48.3173V16.7539H46.319ZM59.2085 16.8924C58.4793 16.8924 57.8517 16.7447 57.3256 16.4493C56.8025 16.1509 56.3995 15.7294 56.1165 15.1848C55.8334 14.6372 55.6919 13.9896 55.6919 13.242C55.6919 12.5128 55.8334 11.8729 56.1165 11.3222C56.3995 10.7714 56.7979 10.3423 57.3117 10.0346C57.8286 9.72694 58.4347 9.57311 59.13 9.57311C59.5976 9.57311 60.033 9.64848 60.436 9.79924C60.8421 9.94691 61.1959 10.17 61.4974 10.4684C61.802 10.7668 62.0389 11.1422 62.2081 11.5944C62.3774 12.0436 62.462 12.5697 62.462 13.1727V13.7127H56.4764V12.4943H60.6114C60.6114 12.2113 60.5499 11.9606 60.4268 11.7421C60.3037 11.5237 60.133 11.3529 59.9145 11.2299C59.6992 11.1037 59.4484 11.0406 59.1623 11.0406C58.8639 11.0406 58.5993 11.1099 58.3685 11.2483C58.1409 11.3837 57.9624 11.5667 57.8332 11.7975C57.704 12.0252 57.6378 12.279 57.6348 12.559V13.7173C57.6348 14.068 57.6994 14.3711 57.8286 14.6264C57.9609 14.8818 58.147 15.0787 58.387 15.2171C58.627 15.3556 58.9116 15.4248 59.2408 15.4248C59.4592 15.4248 59.6592 15.394 59.8407 15.3325C60.0222 15.271 60.1776 15.1787 60.3068 15.0556C60.436 14.9326 60.5345 14.7818 60.6022 14.6034L62.4204 14.7233C62.3281 15.1602 62.1389 15.5417 61.8528 15.8678C61.5697 16.1909 61.2036 16.4432 60.7544 16.6247C60.3083 16.8031 59.793 16.8924 59.2085 16.8924ZM63.7449 16.7539V9.66541H65.7109V16.7539H63.7449ZM64.7325 8.75165C64.4402 8.75165 64.1895 8.65474 63.9803 8.46091C63.7741 8.26401 63.6711 8.02865 63.6711 7.75483C63.6711 7.48409 63.7741 7.25181 63.9803 7.05798C64.1895 6.86108 64.4402 6.76263 64.7325 6.76263C65.0248 6.76263 65.274 6.86108 65.4801 7.05798C65.6893 7.25181 65.7939 7.48409 65.7939 7.75483C65.7939 8.02865 65.6893 8.26401 65.4801 8.46091C65.274 8.65474 65.0248 8.75165 64.7325 8.75165ZM70.4792 19.5598C69.8424 19.5598 69.2963 19.4721 68.8409 19.2967C68.3887 19.1244 68.0287 18.8891 67.761 18.5906C67.4934 18.2922 67.3195 17.9569 67.2396 17.5846L69.0578 17.34C69.1132 17.4815 69.2009 17.6138 69.3209 17.7369C69.4409 17.8599 69.5993 17.9584 69.7962 18.0322C69.9962 18.1092 70.2392 18.1476 70.5254 18.1476C70.953 18.1476 71.3053 18.043 71.5822 17.8338C71.8622 17.6277 72.0021 17.2815 72.0021 16.7954V15.4987H71.9191C71.8329 15.6956 71.7037 15.8817 71.5314 16.0571C71.3591 16.2324 71.1376 16.3755 70.8669 16.4862C70.5961 16.597 70.2731 16.6524 69.8977 16.6524C69.3655 16.6524 68.8809 16.5293 68.444 16.2832C68.0102 16.034 67.6641 15.654 67.4057 15.1433C67.1503 14.6295 67.0227 13.9803 67.0227 13.1958C67.0227 12.3928 67.1534 11.7221 67.4149 11.1837C67.6764 10.6453 68.0241 10.2423 68.4579 9.9746C68.8948 9.70694 69.3732 9.57311 69.8931 9.57311C70.29 9.57311 70.6223 9.64079 70.8899 9.77616C71.1576 9.90846 71.373 10.0746 71.536 10.2746C71.7022 10.4715 71.8298 10.6653 71.9191 10.8561H71.9929V9.66541H73.945V16.8231C73.945 17.4261 73.7973 17.9307 73.502 18.3368C73.2066 18.7429 72.7974 19.0475 72.2744 19.2506C71.7545 19.4567 71.1561 19.5598 70.4792 19.5598ZM70.5208 15.1756C70.8376 15.1756 71.1053 15.0972 71.3237 14.9402C71.5453 14.7803 71.7145 14.5526 71.8314 14.2572C71.9514 13.9588 72.0114 13.6019 72.0114 13.1866C72.0114 12.7712 71.9529 12.4113 71.836 12.1067C71.7191 11.799 71.5499 11.5606 71.3284 11.3914C71.1068 11.2222 70.8376 11.1376 70.5208 11.1376C70.1977 11.1376 69.9254 11.2252 69.7039 11.4006C69.4824 11.5729 69.3147 11.8129 69.2009 12.1205C69.0871 12.4282 69.0301 12.7835 69.0301 13.1866C69.0301 13.5958 69.0871 13.9496 69.2009 14.248C69.3178 14.5434 69.4855 14.7726 69.7039 14.9356C69.9254 15.0956 70.1977 15.1756 70.5208 15.1756ZM77.4754 12.6559V16.7539H75.5095V7.30257H77.42V10.916H77.5031C77.6631 10.4976 77.9215 10.17 78.2784 9.93307C78.6353 9.69309 79.0829 9.57311 79.6214 9.57311C80.1136 9.57311 80.5428 9.68079 80.9089 9.89615C81.2781 10.1084 81.5642 10.4146 81.7673 10.8145C81.9734 11.2114 82.0749 11.6867 82.0719 12.2405V16.7539H80.1059V12.5913C80.109 12.1544 79.9982 11.8144 79.7736 11.5714C79.5521 11.3283 79.2414 11.2068 78.8414 11.2068C78.5738 11.2068 78.3369 11.2637 78.1307 11.3775C77.9277 11.4914 77.7677 11.6575 77.6508 11.8759C77.537 12.0913 77.4785 12.3513 77.4754 12.6559ZM87.3894 9.66541V11.1422H83.1206V9.66541H87.3894ZM84.0897 7.96712H86.0557V14.5757C86.0557 14.7572 86.0834 14.8987 86.1388 15.0002C86.1941 15.0987 86.2711 15.1679 86.3695 15.2079C86.471 15.2479 86.5879 15.2679 86.7202 15.2679C86.8125 15.2679 86.9048 15.2602 86.9971 15.2448C87.0894 15.2264 87.1602 15.2125 87.2094 15.2033L87.5186 16.6662C87.4202 16.697 87.2817 16.7324 87.1033 16.7724C86.9248 16.8154 86.7079 16.8416 86.4526 16.8508C85.9788 16.8693 85.5634 16.8062 85.2065 16.6616C84.8527 16.517 84.5774 16.2924 84.3805 15.9878C84.1836 15.6832 84.0867 15.2987 84.0897 14.8341V7.96712Z" fill="black"/>
<path d="M49.0818 24.3739V32.25H48.1281V25.3738H48.0819L46.159 26.6506V25.6814L48.1281 24.3739H49.0818ZM51.347 32.25V31.5578L53.9467 28.7119C54.2518 28.3786 54.503 28.0889 54.7005 27.8428C54.8979 27.5941 55.044 27.3608 55.1389 27.1428C55.2363 26.9223 55.285 26.6916 55.285 26.4506C55.285 26.1737 55.2184 25.934 55.085 25.7314C54.9543 25.5289 54.7748 25.3725 54.5466 25.2623C54.3184 25.152 54.0621 25.0969 53.7775 25.0969C53.4749 25.0969 53.2109 25.1597 52.9852 25.2853C52.7622 25.4084 52.5891 25.5815 52.4661 25.8045C52.3456 26.0276 52.2853 26.2891 52.2853 26.589H51.3777C51.3777 26.1276 51.4841 25.7225 51.6969 25.3738C51.9097 25.0251 52.1994 24.7533 52.5661 24.5585C52.9353 24.3636 53.3493 24.2662 53.8082 24.2662C54.2697 24.2662 54.6787 24.3636 55.035 24.5585C55.3914 24.7533 55.6709 25.0161 55.8734 25.3469C56.076 25.6776 56.1772 26.0455 56.1772 26.4506C56.1772 26.7403 56.1247 27.0236 56.0196 27.3005C55.917 27.5748 55.7375 27.8812 55.4811 28.2196C55.2273 28.5555 54.8748 28.9657 54.4236 29.4503L52.6545 31.3424V31.4039H56.3157V32.25H51.347ZM60.4729 32.3577C59.8935 32.3577 59.4 32.2 58.9923 31.8847C58.5847 31.5667 58.2732 31.1065 58.0578 30.504C57.8424 29.899 57.7348 29.1683 57.7348 28.3119C57.7348 27.4607 57.8424 26.7339 58.0578 26.1314C58.2757 25.5263 58.5885 25.0648 58.9962 24.7469C59.4064 24.4264 59.8986 24.2662 60.4729 24.2662C61.0472 24.2662 61.5382 24.4264 61.9459 24.7469C62.3561 25.0648 62.6689 25.5263 62.8842 26.1314C63.1022 26.7339 63.2111 27.4607 63.2111 28.3119C63.2111 29.1683 63.1034 29.899 62.8881 30.504C62.6727 31.1065 62.3612 31.5667 61.9536 31.8847C61.5459 32.2 61.0524 32.3577 60.4729 32.3577ZM60.4729 31.5116C61.0472 31.5116 61.4933 31.2347 61.8113 30.6809C62.1292 30.1271 62.2881 29.3375 62.2881 28.3119C62.2881 27.63 62.2151 27.0493 62.0689 26.5698C61.9254 26.0904 61.7177 25.725 61.4459 25.4738C61.1767 25.2225 60.8524 25.0969 60.4729 25.0969C59.9038 25.0969 59.4589 25.3776 59.1385 25.9391C58.818 26.498 58.6577 27.289 58.6577 28.3119C58.6577 28.9939 58.7295 29.5734 58.8731 30.0502C59.0167 30.5271 59.2231 30.8899 59.4923 31.1386C59.764 31.3873 60.0909 31.5116 60.4729 31.5116ZM64.6879 32.25V26.3429H65.5647V27.2659H65.6416C65.7647 26.9505 65.9634 26.7057 66.2377 26.5314C66.5121 26.3545 66.8415 26.266 67.2261 26.266C67.6158 26.266 67.9401 26.3545 68.1991 26.5314C68.4606 26.7057 68.6644 26.9505 68.8105 27.2659H68.8721C69.0233 26.9608 69.2502 26.7185 69.5528 26.539C69.8553 26.357 70.2181 26.266 70.6411 26.266C71.1693 26.266 71.6013 26.4314 71.9371 26.7621C72.273 27.0903 72.4409 27.6018 72.4409 28.2966V32.25H71.5333V28.2966C71.5333 27.8607 71.4141 27.5492 71.1757 27.362C70.9372 27.1749 70.6565 27.0813 70.3335 27.0813C69.9181 27.0813 69.5964 27.2069 69.3682 27.4582C69.14 27.7069 69.0259 28.0222 69.0259 28.4042V32.25H68.1029V28.2043C68.1029 27.8684 67.994 27.5979 67.776 27.3928C67.5581 27.1851 67.2774 27.0813 66.9338 27.0813C66.6979 27.0813 66.4774 27.1441 66.2723 27.2697C66.0698 27.3954 65.9057 27.5697 65.7801 27.7928C65.657 28.0133 65.5955 28.2684 65.5955 28.5581V32.25H64.6879ZM74.1004 32.25V26.3429H74.9772V27.2659H75.0541C75.1772 26.9505 75.3759 26.7057 75.6502 26.5314C75.9246 26.3545 76.254 26.266 76.6386 26.266C77.0283 26.266 77.3526 26.3545 77.6116 26.5314C77.8731 26.7057 78.0769 26.9505 78.223 27.2659H78.2846C78.4358 26.9608 78.6627 26.7185 78.9653 26.539C79.2678 26.357 79.6306 26.266 80.0536 26.266C80.5818 26.266 81.0138 26.4314 81.3496 26.7621C81.6855 27.0903 81.8534 27.6018 81.8534 28.2966V32.25H80.9458V28.2966C80.9458 27.8607 80.8266 27.5492 80.5882 27.362C80.3497 27.1749 80.069 27.0813 79.746 27.0813C79.3306 27.0813 79.0089 27.2069 78.7807 27.4582C78.5525 27.7069 78.4384 28.0222 78.4384 28.4042V32.25H77.5154V28.2043C77.5154 27.8684 77.4065 27.5979 77.1885 27.3928C76.9706 27.1851 76.6899 27.0813 76.3463 27.0813C76.1104 27.0813 75.8899 27.1441 75.6848 27.2697C75.4823 27.3954 75.3182 27.5697 75.1926 27.7928C75.0695 28.0133 75.008 28.2684 75.008 28.5581V32.25H74.1004Z" fill="black"/>
<rect y="59" width="39" height="39" rx="19.5" fill="url(#paint1_linear_1752_142)"/>
<g clip-path="url(#clip0_1752_142)">
<path d="M17.9741 73.7344C17.9741 73.4692 18.0795 73.2148 18.267 73.0273C18.4545 72.8397 18.7089 72.7344 18.9741 72.7344C19.2393 72.7344 19.4937 72.8397 19.6812 73.0273C19.8688 73.2148 19.9741 73.4692 19.9741 73.7344C19.9741 73.9996 19.8688 74.2539 19.6812 74.4415C19.4937 74.629 19.2393 74.7344 18.9741 74.7344C18.7089 74.7344 18.4545 74.629 18.267 74.4415C18.0795 74.2539 17.9741 73.9996 17.9741 73.7344ZM21.8022 74.7344C21.9116 74.4219 21.9741 74.0844 21.9741 73.7344C21.9741 72.0781 20.6304 70.7344 18.9741 70.7344C17.3179 70.7344 15.9741 72.0781 15.9741 73.7344C15.9741 74.0844 16.0335 74.4219 16.146 74.7344H14.7241C14.0366 74.7344 13.4366 75.2031 13.2679 75.8719L11.0179 84.8719C10.9054 85.3187 11.0054 85.7938 11.2897 86.1594C11.5741 86.525 12.0116 86.7344 12.4741 86.7344H25.4741C25.9366 86.7344 26.371 86.5219 26.6554 86.1562C26.9397 85.7906 27.0397 85.3187 26.9272 84.8687L24.6772 75.8688C24.5116 75.2031 23.9116 74.7344 23.2241 74.7344H21.8022Z" fill="white"/>
</g>
<path d="M48.4465 75.7539L45.7421 66.3026H47.925L49.4895 72.8696H49.5679L51.2939 66.3026H53.1629L54.8843 72.8834H54.9674L56.5318 66.3026H58.7147L56.0103 75.7539H54.0628L52.263 69.5745H52.1892L50.394 75.7539H48.4465ZM62.2162 75.8924C61.4871 75.8924 60.8594 75.7447 60.3333 75.4493C59.8103 75.1509 59.4073 74.7294 59.1242 74.1848C58.8412 73.6372 58.6997 72.9896 58.6997 72.242C58.6997 71.5128 58.8412 70.8729 59.1242 70.3222C59.4073 69.7714 59.8057 69.3423 60.3195 69.0346C60.8364 68.7269 61.4425 68.5731 62.1378 68.5731C62.6054 68.5731 63.0408 68.6485 63.4438 68.7992C63.8499 68.9469 64.2037 69.17 64.5052 69.4684C64.8098 69.7668 65.0467 70.1422 65.2159 70.5944C65.3851 71.0436 65.4697 71.5697 65.4697 72.1727V72.7127H59.4842V71.4943H63.6192C63.6192 71.2113 63.5576 70.9606 63.4346 70.7421C63.3115 70.5237 63.1407 70.3529 62.9223 70.2299C62.7069 70.1037 62.4562 70.0406 62.1701 70.0406C61.8716 70.0406 61.6071 70.1099 61.3763 70.2483C61.1486 70.3837 60.9702 70.5667 60.841 70.7975C60.7118 71.0252 60.6456 71.279 60.6425 71.559V72.7173C60.6425 73.068 60.7071 73.3711 60.8364 73.6264C60.9687 73.8818 61.1548 74.0787 61.3948 74.2171C61.6347 74.3556 61.9193 74.4248 62.2485 74.4248C62.467 74.4248 62.6669 74.394 62.8485 74.3325C63.03 74.271 63.1854 74.1787 63.3146 74.0556C63.4438 73.9326 63.5422 73.7818 63.6099 73.6034L65.4282 73.7233C65.3359 74.1602 65.1467 74.5417 64.8606 74.8678C64.5775 75.1909 64.2114 75.4432 63.7622 75.6247C63.3161 75.8031 62.8008 75.8924 62.2162 75.8924ZM66.7527 75.7539V68.6654H68.7186V75.7539H66.7527ZM67.7403 67.7517C67.448 67.7517 67.1972 67.6547 66.988 67.4609C66.7819 67.264 66.6788 67.0287 66.6788 66.7548C66.6788 66.4841 66.7819 66.2518 66.988 66.058C67.1972 65.8611 67.448 65.7626 67.7403 65.7626C68.0325 65.7626 68.2818 65.8611 68.4879 66.058C68.6971 66.2518 68.8017 66.4841 68.8017 66.7548C68.8017 67.0287 68.6971 67.264 68.4879 67.4609C68.2818 67.6547 68.0325 67.7517 67.7403 67.7517ZM73.487 78.5598C72.8501 78.5598 72.304 78.4721 71.8487 78.2967C71.3964 78.1244 71.0365 77.8891 70.7688 77.5906C70.5011 77.2922 70.3273 76.9569 70.2473 76.5846L72.0656 76.34C72.121 76.4815 72.2087 76.6138 72.3286 76.7369C72.4486 76.8599 72.6071 76.9584 72.804 77.0322C73.004 77.1092 73.247 77.1476 73.5331 77.1476C73.9608 77.1476 74.3131 77.043 74.5899 76.8338C74.8699 76.6277 75.0099 76.2815 75.0099 75.7954V74.4987H74.9268C74.8407 74.6956 74.7115 74.8817 74.5392 75.0571C74.3669 75.2324 74.1454 75.3755 73.8746 75.4862C73.6039 75.597 73.2809 75.6524 72.9055 75.6524C72.3733 75.6524 71.8887 75.5293 71.4518 75.2832C71.018 75.034 70.6719 74.654 70.4135 74.1433C70.1581 73.6295 70.0304 72.9803 70.0304 72.1958C70.0304 71.3928 70.1612 70.7221 70.4227 70.1837C70.6842 69.6453 71.0319 69.2423 71.4657 68.9746C71.9025 68.7069 72.3809 68.5731 72.9009 68.5731C73.2978 68.5731 73.63 68.6408 73.8977 68.7762C74.1654 68.9085 74.3807 69.0746 74.5438 69.2746C74.7099 69.4715 74.8376 69.6653 74.9268 69.8561H75.0007V68.6654H76.9528V75.8231C76.9528 76.4261 76.8051 76.9307 76.5097 77.3368C76.2144 77.7429 75.8052 78.0475 75.2822 78.2506C74.7622 78.4567 74.1638 78.5598 73.487 78.5598ZM73.5285 74.1756C73.8454 74.1756 74.1131 74.0972 74.3315 73.9402C74.553 73.7803 74.7222 73.5526 74.8392 73.2572C74.9591 72.9588 75.0191 72.6019 75.0191 72.1866C75.0191 71.7712 74.9607 71.4113 74.8438 71.1067C74.7269 70.799 74.5576 70.5606 74.3361 70.3914C74.1146 70.2222 73.8454 70.1376 73.5285 70.1376C73.2055 70.1376 72.9332 70.2252 72.7117 70.4006C72.4902 70.5729 72.3225 70.8129 72.2087 71.1205C72.0948 71.4282 72.0379 71.7835 72.0379 72.1866C72.0379 72.5958 72.0948 72.9496 72.2087 73.248C72.3256 73.5434 72.4932 73.7726 72.7117 73.9356C72.9332 74.0956 73.2055 74.1756 73.5285 74.1756ZM80.4832 71.6559V75.7539H78.5172V66.3026H80.4278V69.916H80.5109C80.6709 69.4976 80.9293 69.17 81.2862 68.9331C81.6431 68.6931 82.0907 68.5731 82.6291 68.5731C83.1214 68.5731 83.5506 68.6808 83.9167 68.8962C84.2859 69.1084 84.572 69.4146 84.7751 69.8145C84.9812 70.2114 85.0827 70.6867 85.0796 71.2405V75.7539H83.1137V71.5913C83.1168 71.1544 83.006 70.8144 82.7814 70.5714C82.5599 70.3283 82.2492 70.2068 81.8492 70.2068C81.5815 70.2068 81.3446 70.2637 81.1385 70.3775C80.9354 70.4914 80.7755 70.6575 80.6586 70.8759C80.5447 71.0913 80.4863 71.3513 80.4832 71.6559ZM90.3972 68.6654V70.1422H86.1284V68.6654H90.3972ZM87.0975 66.9671H89.0635V73.5757C89.0635 73.7572 89.0911 73.8987 89.1465 74.0002C89.2019 74.0987 89.2788 74.1679 89.3773 74.2079C89.4788 74.2479 89.5957 74.2679 89.728 74.2679C89.8203 74.2679 89.9126 74.2602 90.0049 74.2448C90.0972 74.2264 90.168 74.2125 90.2172 74.2033L90.5264 75.6662C90.4279 75.697 90.2895 75.7324 90.111 75.7724C89.9326 75.8154 89.7157 75.8416 89.4603 75.8508C88.9865 75.8693 88.5712 75.8062 88.2143 75.6616C87.8605 75.517 87.5851 75.2924 87.3882 74.9878C87.1913 74.6832 87.0944 74.2987 87.0975 73.8341V66.9671Z" fill="black"/>
<path d="M46.559 91.25L50.0817 84.2815V84.22H46.0206V83.3739H51.0662V84.2661L47.5589 91.25H46.559ZM54.8995 91.3577C54.32 91.3577 53.8265 91.2 53.4189 90.8847C53.0112 90.5667 52.6997 90.1065 52.4843 89.504C52.269 88.899 52.1613 88.1683 52.1613 87.3119C52.1613 86.4607 52.269 85.7339 52.4843 85.1314C52.7023 84.5263 53.0151 84.0648 53.4227 83.7469C53.8329 83.4264 54.3252 83.2662 54.8995 83.2662C55.4738 83.2662 55.9647 83.4264 56.3724 83.7469C56.7826 84.0648 57.0954 84.5263 57.3108 85.1314C57.5287 85.7339 57.6377 86.4607 57.6377 87.3119C57.6377 88.1683 57.53 88.899 57.3146 89.504C57.0992 90.1065 56.7877 90.5667 56.3801 90.8847C55.9724 91.2 55.4789 91.3577 54.8995 91.3577ZM54.8995 90.5116C55.4738 90.5116 55.9199 90.2347 56.2378 89.6809C56.5557 89.1271 56.7147 88.3375 56.7147 87.3119C56.7147 86.63 56.6416 86.0493 56.4955 85.5698C56.3519 85.0904 56.1442 84.725 55.8725 84.4738C55.6032 84.2225 55.2789 84.0969 54.8995 84.0969C54.3303 84.0969 53.8855 84.3776 53.565 84.9391C53.2445 85.498 53.0843 86.289 53.0843 87.3119C53.0843 87.9939 53.1561 88.5734 53.2996 89.0502C53.4432 89.5271 53.6496 89.8899 53.9188 90.1386C54.1906 90.3873 54.5175 90.5116 54.8995 90.5116ZM59.1144 91.25V85.3429H59.9913V86.2659H60.0682C60.1912 85.9505 60.3899 85.7057 60.6643 85.5314C60.9386 85.3545 61.268 85.266 61.6526 85.266C62.0423 85.266 62.3667 85.3545 62.6256 85.5314C62.8871 85.7057 63.0909 85.9505 63.2371 86.2659H63.2986C63.4499 85.9608 63.6768 85.7185 63.9793 85.539C64.2818 85.357 64.6446 85.266 65.0677 85.266C65.5958 85.266 66.0278 85.4314 66.3637 85.7621C66.6995 86.0903 66.8675 86.6018 66.8675 87.2966V91.25H65.9599V87.2966C65.9599 86.8607 65.8407 86.5492 65.6022 86.362C65.3638 86.1749 65.083 86.0813 64.76 86.0813C64.3447 86.0813 64.0229 86.2069 63.7947 86.4582C63.5665 86.7069 63.4524 87.0222 63.4524 87.4042V91.25H62.5295V87.2043C62.5295 86.8684 62.4205 86.5979 62.2026 86.3928C61.9846 86.1851 61.7039 86.0813 61.3603 86.0813C61.1245 86.0813 60.904 86.1441 60.6989 86.2697C60.4963 86.3954 60.3322 86.5697 60.2066 86.7928C60.0836 87.0133 60.022 87.2684 60.022 87.5581V91.25H59.1144ZM68.5269 91.25V85.3429H69.4038V86.2659H69.4807C69.6037 85.9505 69.8024 85.7057 70.0768 85.5314C70.3511 85.3545 70.6805 85.266 71.0651 85.266C71.4548 85.266 71.7791 85.3545 72.0381 85.5314C72.2996 85.7057 72.5034 85.9505 72.6496 86.2659H72.7111C72.8624 85.9608 73.0893 85.7185 73.3918 85.539C73.6943 85.357 74.0571 85.266 74.4802 85.266C75.0083 85.266 75.4403 85.4314 75.7762 85.7621C76.112 86.0903 76.28 86.6018 76.28 87.2966V91.25H75.3724V87.2966C75.3724 86.8607 75.2531 86.5492 75.0147 86.362C74.7763 86.1749 74.4955 86.0813 74.1725 86.0813C73.7571 86.0813 73.4354 86.2069 73.2072 86.4582C72.979 86.7069 72.8649 87.0222 72.8649 87.4042V91.25H71.942V87.2043C71.942 86.8684 71.833 86.5979 71.6151 86.3928C71.3971 86.1851 71.1164 86.0813 70.7728 86.0813C70.537 86.0813 70.3165 86.1441 70.1114 86.2697C69.9088 86.3954 69.7447 86.5697 69.6191 86.7928C69.496 87.0133 69.4345 87.2684 69.4345 87.5581V91.25H68.5269Z" fill="black"/>
<rect y="118" width="39" height="39" rx="19.5" fill="url(#paint2_linear_1752_142)"/>
<path d="M16.9271 140.889V137.91M20.898 140.889V137.91M24.8688 140.889V137.91M8.98535 133.94V129.969M28.8397 131.954H8.98535M28.8397 133.94V129.969M12.9562 140.889V137.91" stroke="white" stroke-width="2.23288" stroke-linecap="round" stroke-linejoin="round"/>
<path d="M26.8543 137.914H10.9708C9.87426 137.914 8.98535 138.803 8.98535 139.899V143.87C8.98535 144.967 9.87426 145.856 10.9708 145.856H26.8543C27.9508 145.856 28.8397 144.967 28.8397 143.87V139.899C28.8397 138.803 27.9508 137.914 26.8543 137.914Z" stroke="white" stroke-width="2.23288" stroke-linecap="round" stroke-linejoin="round"/>
<path d="M46.319 134.754V125.303H48.3173V133.106H52.3692V134.754H46.319ZM56.886 134.892C56.1568 134.892 55.5292 134.745 55.0031 134.449C54.4801 134.151 54.0771 133.729 53.794 133.185C53.511 132.637 53.3694 131.99 53.3694 131.242C53.3694 130.513 53.511 129.873 53.794 129.322C54.0771 128.771 54.4755 128.342 54.9893 128.035C55.5061 127.727 56.1122 127.573 56.8075 127.573C57.2752 127.573 57.7105 127.648 58.1136 127.799C58.5197 127.947 58.8735 128.17 59.175 128.468C59.4796 128.767 59.7165 129.142 59.8857 129.594C60.0549 130.044 60.1395 130.57 60.1395 131.173V131.713H54.154V130.494H58.2889C58.2889 130.211 58.2274 129.961 58.1043 129.742C57.9813 129.524 57.8105 129.353 57.5921 129.23C57.3767 129.104 57.126 129.041 56.8399 129.041C56.5414 129.041 56.2768 129.11 56.0461 129.248C55.8184 129.384 55.64 129.567 55.5108 129.797C55.3815 130.025 55.3154 130.279 55.3123 130.559V131.717C55.3123 132.068 55.3769 132.371 55.5061 132.626C55.6384 132.882 55.8246 133.079 56.0645 133.217C56.3045 133.356 56.5891 133.425 56.9183 133.425C57.1367 133.425 57.3367 133.394 57.5182 133.333C57.6998 133.271 57.8551 133.179 57.9843 133.056C58.1136 132.933 58.212 132.782 58.2797 132.603L60.098 132.723C60.0057 133.16 59.8165 133.542 59.5303 133.868C59.2473 134.191 58.8812 134.443 58.432 134.625C57.9859 134.803 57.4706 134.892 56.886 134.892ZM63.3884 130.656V134.754H61.4225V127.665H63.2961V128.916H63.3792C63.5361 128.504 63.7991 128.178 64.1683 127.938C64.5375 127.695 64.9852 127.573 65.5113 127.573C66.0035 127.573 66.4327 127.681 66.7988 127.896C67.1649 128.112 67.4495 128.419 67.6526 128.819C67.8556 129.216 67.9572 129.69 67.9572 130.241V134.754H65.9912V130.591C65.9943 130.157 65.8835 129.819 65.6589 129.576C65.4344 129.33 65.1252 129.207 64.7313 129.207C64.4668 129.207 64.2329 129.264 64.0299 129.378C63.8299 129.491 63.673 129.658 63.5592 129.876C63.4484 130.091 63.3915 130.351 63.3884 130.656ZM72.7001 137.56C72.0633 137.56 71.5172 137.472 71.0618 137.297C70.6096 137.124 70.2496 136.889 69.982 136.591C69.7143 136.292 69.5405 135.957 69.4605 135.585L71.2787 135.34C71.3341 135.482 71.4218 135.614 71.5418 135.737C71.6618 135.86 71.8202 135.958 72.0171 136.032C72.2171 136.109 72.4602 136.148 72.7463 136.148C73.1739 136.148 73.5262 136.043 73.8031 135.834C74.0831 135.628 74.2231 135.282 74.2231 134.795V133.499H74.14C74.0538 133.696 73.9246 133.882 73.7523 134.057C73.5801 134.232 73.3585 134.375 73.0878 134.486C72.8171 134.597 72.494 134.652 72.1187 134.652C71.5864 134.652 71.1018 134.529 70.665 134.283C70.2312 134.034 69.885 133.654 69.6266 133.143C69.3713 132.63 69.2436 131.98 69.2436 131.196C69.2436 130.393 69.3743 129.722 69.6358 129.184C69.8974 128.645 70.245 128.242 70.6788 127.975C71.1157 127.707 71.5941 127.573 72.114 127.573C72.5109 127.573 72.8432 127.641 73.1109 127.776C73.3785 127.908 73.5939 128.075 73.757 128.275C73.9231 128.471 74.0508 128.665 74.14 128.856H74.2138V127.665H76.1659V134.823C76.1659 135.426 76.0183 135.931 75.7229 136.337C75.4276 136.743 75.0184 137.048 74.4953 137.251C73.9754 137.457 73.377 137.56 72.7001 137.56ZM72.7417 133.176C73.0586 133.176 73.3262 133.097 73.5447 132.94C73.7662 132.78 73.9354 132.553 74.0523 132.257C74.1723 131.959 74.2323 131.602 74.2323 131.187C74.2323 130.771 74.1738 130.411 74.0569 130.107C73.94 129.799 73.7708 129.561 73.5493 129.391C73.3278 129.222 73.0586 129.138 72.7417 129.138C72.4186 129.138 72.1464 129.225 71.9248 129.401C71.7033 129.573 71.5356 129.813 71.4218 130.121C71.308 130.428 71.2511 130.784 71.2511 131.187C71.2511 131.596 71.308 131.95 71.4218 132.248C71.5387 132.543 71.7064 132.773 71.9248 132.936C72.1464 133.096 72.4186 133.176 72.7417 133.176ZM81.5008 127.665V129.142H77.232V127.665H81.5008ZM78.2011 125.967H80.1671V132.576C80.1671 132.757 80.1948 132.899 80.2501 133C80.3055 133.099 80.3824 133.168 80.4809 133.208C80.5824 133.248 80.6993 133.268 80.8316 133.268C80.9239 133.268 81.0162 133.26 81.1085 133.245C81.2008 133.226 81.2716 133.213 81.3208 133.203L81.63 134.666C81.5315 134.697 81.3931 134.732 81.2146 134.772C81.0362 134.815 80.8193 134.842 80.5639 134.851C80.0901 134.869 79.6748 134.806 79.3179 134.662C78.9641 134.517 78.6888 134.292 78.4919 133.988C78.2949 133.683 78.198 133.299 78.2011 132.834V125.967ZM84.8997 130.656V134.754H82.9337V125.303H84.8443V128.916H84.9273C85.0873 128.498 85.3458 128.17 85.7027 127.933C86.0595 127.693 86.5072 127.573 87.0456 127.573C87.5378 127.573 87.967 127.681 88.3331 127.896C88.7023 128.108 88.9885 128.415 89.1915 128.815C89.3977 129.211 89.4992 129.687 89.4961 130.241V134.754H87.5302V130.591C87.5332 130.154 87.4225 129.814 87.1979 129.571C86.9764 129.328 86.6656 129.207 86.2657 129.207C85.998 129.207 85.7611 129.264 85.555 129.378C85.3519 129.491 85.1919 129.658 85.075 129.876C84.9612 130.091 84.9027 130.351 84.8997 130.656Z" fill="black"/>
<path d="M49.0818 142.374V150.25H48.1281V143.374H48.0819L46.159 144.651V143.681L48.1281 142.374H49.0818ZM51.1624 148.635V147.85L54.6235 142.374H55.1927V143.589H54.8081L52.193 147.727V147.789H56.8541V148.635H51.1624ZM54.8697 150.25V148.396V148.031V142.374H55.7773V150.25H54.8697ZM60.695 152.588C60.2566 152.588 59.8797 152.532 59.5644 152.419C59.249 152.309 58.9862 152.163 58.776 151.981C58.5683 151.801 58.403 151.609 58.2799 151.404L59.0029 150.896C59.0849 151.004 59.1888 151.127 59.3144 151.265C59.44 151.406 59.6118 151.528 59.8297 151.631C60.0502 151.736 60.3387 151.788 60.695 151.788C61.1719 151.788 61.5655 151.673 61.8757 151.442C62.1859 151.211 62.341 150.85 62.341 150.358V149.158H62.2641C62.1974 149.265 62.1026 149.399 61.9795 149.558C61.859 149.714 61.6847 149.854 61.4565 149.977C61.2309 150.097 60.9258 150.158 60.5412 150.158C60.0643 150.158 59.6362 150.045 59.2567 149.819C58.8798 149.594 58.5811 149.265 58.3607 148.835C58.1427 148.404 58.0338 147.881 58.0338 147.266C58.0338 146.661 58.1402 146.134 58.353 145.685C58.5658 145.234 58.8619 144.885 59.2413 144.639C59.6208 144.39 60.0592 144.266 60.5566 144.266C60.9412 144.266 61.2463 144.33 61.4719 144.458C61.7001 144.584 61.8744 144.727 61.9949 144.889C62.118 145.048 62.2128 145.179 62.2795 145.281H62.3718V144.343H63.2486V150.419C63.2486 150.927 63.1332 151.34 62.9025 151.658C62.6743 151.978 62.3667 152.213 61.9795 152.361C61.5949 152.513 61.1668 152.588 60.695 152.588ZM60.6643 149.342C61.0283 149.342 61.336 149.259 61.5872 149.092C61.8385 148.926 62.0295 148.686 62.1603 148.373C62.291 148.06 62.3564 147.686 62.3564 147.25C62.3564 146.825 62.2923 146.449 62.1641 146.124C62.0359 145.798 61.8462 145.543 61.5949 145.358C61.3437 145.174 61.0335 145.081 60.6643 145.081C60.2797 145.081 59.9592 145.179 59.7028 145.374C59.449 145.568 59.258 145.83 59.1298 146.158C59.0042 146.486 58.9414 146.85 58.9414 147.25C58.9414 147.661 59.0055 148.023 59.1337 148.339C59.2644 148.651 59.4567 148.898 59.7105 149.077C59.9669 149.254 60.2848 149.342 60.6643 149.342Z" fill="black"/>
<defs>
<linearGradient id="paint0_linear_1752_142" x1="0" y1="19.5" x2="39" y2="19.5" gradientUnits="userSpaceOnUse">
<stop stop-color="#7C7675"/>
<stop offset="1" stop-color="#98918F"/>
</linearGradient>
<linearGradient id="paint1_linear_1752_142" x1="0" y1="78.5" x2="39" y2="78.5" gradientUnits="userSpaceOnUse">
<stop stop-color="#7C7675"/>
<stop offset="1" stop-color="#98918F"/>
</linearGradient>
<linearGradient id="paint2_linear_1752_142" x1="0" y1="137.5" x2="39" y2="137.5" gradientUnits="userSpaceOnUse">
<stop stop-color="#7C7675"/>
<stop offset="1" stop-color="#98918F"/>
</linearGradient>
<clipPath id="clip0_1752_142">
<rect width="16" height="16" fill="white" transform="translate(10.9741 70.7344)"/>
</clipPath>
</defs>
</svg>
