<svg width="368" height="75" viewBox="0 0 368 75" fill="none" xmlns="http://www.w3.org/2000/svg">
<path d="M128.96 0.379261V28.0156H123.117V5.92542H122.955L116.626 9.89276V4.71094L123.468 0.379261H128.96ZM146.365 28.6229C144.044 28.6139 142.046 28.0426 140.373 26.9091C138.709 25.7756 137.427 24.1338 136.527 21.9837C135.637 19.8336 135.196 17.2472 135.205 14.2244C135.205 11.2107 135.65 8.64228 136.541 6.51917C137.44 4.39607 138.722 2.78125 140.387 1.67472C142.06 0.559185 144.053 0.00141943 146.365 0.00141943C148.677 0.00141943 150.665 0.559185 152.329 1.67472C154.002 2.79025 155.289 4.40956 156.188 6.53267C157.088 8.64678 157.533 11.2107 157.524 14.2244C157.524 17.2562 157.075 19.8471 156.175 21.9972C155.284 24.1473 154.007 25.7891 152.343 26.9226C150.678 28.0561 148.686 28.6229 146.365 28.6229ZM146.365 23.7784C147.948 23.7784 149.212 22.9822 150.156 21.3899C151.101 19.7976 151.569 17.4091 151.56 14.2244C151.56 12.1283 151.344 10.383 150.912 8.98864C150.489 7.59422 149.887 6.54616 149.104 5.84446C148.33 5.14276 147.417 4.7919 146.365 4.7919C144.79 4.7919 143.531 5.57907 142.586 7.15341C141.642 8.72775 141.165 11.0848 141.156 14.2244C141.156 16.3475 141.367 18.1198 141.79 19.5412C142.222 20.9536 142.829 22.0152 143.612 22.7259C144.394 23.4276 145.312 23.7784 146.365 23.7784ZM172.527 28.6229C170.206 28.6139 168.208 28.0426 166.535 26.9091C164.871 25.7756 163.589 24.1338 162.689 21.9837C161.799 19.8336 161.358 17.2472 161.367 14.2244C161.367 11.2107 161.812 8.64228 162.703 6.51917C163.602 4.39607 164.884 2.78125 166.549 1.67472C168.222 0.559185 170.215 0.00141943 172.527 0.00141943C174.839 0.00141943 176.827 0.559185 178.491 1.67472C180.164 2.79025 181.451 4.40956 182.351 6.53267C183.25 8.64678 183.695 11.2107 183.686 14.2244C183.686 17.2562 183.237 19.8471 182.337 21.9972C181.446 24.1473 180.169 25.7891 178.505 26.9226C176.84 28.0561 174.848 28.6229 172.527 28.6229ZM172.527 23.7784C174.11 23.7784 175.374 22.9822 176.319 21.3899C177.263 19.7976 177.731 17.4091 177.722 14.2244C177.722 12.1283 177.506 10.383 177.074 8.98864C176.651 7.59422 176.049 6.54616 175.266 5.84446C174.492 5.14276 173.579 4.7919 172.527 4.7919C170.952 4.7919 169.693 5.57907 168.748 7.15341C167.804 8.72775 167.327 11.0848 167.318 14.2244C167.318 16.3475 167.529 18.1198 167.952 19.5412C168.384 20.9536 168.991 22.0152 169.774 22.7259C170.557 23.4276 171.474 23.7784 172.527 23.7784ZM188.015 0.379261H195.221L202.832 18.9474H203.155L210.766 0.379261H217.972V28.0156H212.305V10.0277H212.075L204.923 27.8807H201.064L193.912 9.96023H193.682V28.0156H188.015V0.379261ZM222.786 28.0156V0.379261H228.629V23.1982H240.477V28.0156H222.786Z" fill="#4A732A"/>
<path d="M0.000133142 74.0156V46.3793H10.9035C12.9907 46.3793 14.7719 46.7526 16.2473 47.4993C17.7317 48.237 18.8607 49.285 19.6344 50.6435C20.417 51.9929 20.8084 53.5807 20.8084 55.407C20.8084 57.2422 20.4125 58.821 19.6209 60.1435C18.8292 61.4569 17.6822 62.4645 16.1798 63.1662C14.6865 63.8679 12.8782 64.2188 10.7551 64.2188H3.45468V59.5227H9.8105C10.926 59.5227 11.8526 59.3698 12.5903 59.0639C13.328 58.758 13.8768 58.2992 14.2366 57.6875C14.6055 57.0758 14.7899 56.3156 14.7899 55.407C14.7899 54.4893 14.6055 53.7157 14.2366 53.0859C13.8768 52.4562 13.3235 51.9794 12.5768 51.6555C11.8391 51.3227 10.908 51.1562 9.78351 51.1562H5.84317V74.0156H0.000133142ZM14.9249 61.4389L21.7935 74.0156H15.3432L8.623 61.4389H14.9249ZM50.3339 60.1974C50.3339 63.2112 49.7627 65.7751 48.6202 67.8892C47.4866 70.0033 45.9393 71.6181 43.9781 72.7337C42.0259 73.8402 39.8309 74.3935 37.3929 74.3935C34.9369 74.3935 32.7329 73.8357 30.7807 72.7202C28.8285 71.6046 27.2856 69.9898 26.1521 67.8757C25.0186 65.7616 24.4518 63.2022 24.4518 60.1974C24.4518 57.1837 25.0186 54.6198 26.1521 52.5057C27.2856 50.3916 28.8285 48.7812 30.7807 47.6747C32.7329 46.5592 34.9369 46.0014 37.3929 46.0014C39.8309 46.0014 42.0259 46.5592 43.9781 47.6747C45.9393 48.7812 47.4866 50.3916 48.6202 52.5057C49.7627 54.6198 50.3339 57.1837 50.3339 60.1974ZM44.4099 60.1974C44.4099 58.2453 44.1176 56.599 43.5328 55.2585C42.957 53.9181 42.1429 52.9015 41.0903 52.2088C40.0378 51.5161 38.8053 51.1697 37.3929 51.1697C35.9805 51.1697 34.748 51.5161 33.6954 52.2088C32.6429 52.9015 31.8242 53.9181 31.2395 55.2585C30.6637 56.599 30.3758 58.2453 30.3758 60.1974C30.3758 62.1496 30.6637 63.7959 31.2395 65.1364C31.8242 66.4768 32.6429 67.4934 33.6954 68.1861C34.748 68.8788 35.9805 69.2251 37.3929 69.2251C38.8053 69.2251 40.0378 68.8788 41.0903 68.1861C42.1429 67.4934 42.957 66.4768 43.5328 65.1364C44.1176 63.7959 44.4099 62.1496 44.4099 60.1974ZM71.7326 46.3793H77.5756V64.3267C77.5756 66.3419 77.0943 68.1051 76.1317 69.6165C75.1781 71.1278 73.8422 72.3063 72.1239 73.152C70.4056 73.9886 68.404 74.407 66.1189 74.407C63.8249 74.407 61.8187 73.9886 60.1005 73.152C58.3822 72.3063 57.0462 71.1278 56.0926 69.6165C55.139 68.1051 54.6622 66.3419 54.6622 64.3267V46.3793H60.5053V63.8274C60.5053 64.88 60.7347 65.8156 61.1935 66.6342C61.6613 67.4529 62.318 68.0961 63.1637 68.5639C64.0093 69.0317 64.9944 69.2656 66.1189 69.2656C67.2524 69.2656 68.2375 69.0317 69.0742 68.5639C69.9198 68.0961 70.572 67.4529 71.0309 66.6342C71.4987 65.8156 71.7326 64.88 71.7326 63.8274V46.3793ZM105.499 46.3793V74.0156H100.452L88.4284 56.6214H88.226V74.0156H82.3829V46.3793H87.5108L99.4398 63.7599H99.6827V46.3793H105.499ZM120.123 74.0156H110.326V46.3793H120.204C122.984 46.3793 125.377 46.9325 127.383 48.0391C129.389 49.1366 130.932 50.7154 132.012 52.7756C133.1 54.8357 133.644 57.3007 133.644 60.1705C133.644 63.0492 133.1 65.5232 132.012 67.5923C130.932 69.6615 129.38 71.2493 127.356 72.3558C125.341 73.4624 122.93 74.0156 120.123 74.0156ZM116.169 69.0092H119.88C121.608 69.0092 123.06 68.7034 124.239 68.0916C125.426 67.4709 126.317 66.5128 126.911 65.2173C127.514 63.9129 127.815 62.2306 127.815 60.1705C127.815 58.1283 127.514 56.4595 126.911 55.1641C126.317 53.8686 125.431 52.915 124.252 52.3033C123.074 51.6915 121.621 51.3857 119.894 51.3857H116.169V69.0092ZM171.152 56.0547H165.241C165.133 55.29 164.913 54.6108 164.58 54.017C164.247 53.4143 163.82 52.9015 163.298 52.4787C162.776 52.0559 162.174 51.732 161.49 51.5071C160.815 51.2822 160.082 51.1697 159.29 51.1697C157.86 51.1697 156.614 51.5251 155.553 52.2358C154.491 52.9375 153.668 53.9631 153.083 55.3125C152.498 56.6529 152.206 58.2812 152.206 60.1974C152.206 62.1676 152.498 63.8229 153.083 65.1634C153.677 66.5038 154.504 67.5159 155.566 68.1996C156.628 68.8833 157.856 69.2251 159.25 69.2251C160.033 69.2251 160.757 69.1217 161.423 68.9148C162.097 68.7079 162.696 68.4065 163.217 68.0107C163.739 67.6058 164.171 67.1155 164.513 66.5398C164.864 65.964 165.106 65.3073 165.241 64.5696L171.152 64.5966C170.999 65.8651 170.617 67.0885 170.005 68.267C169.402 69.4366 168.588 70.4846 167.562 71.4112C166.546 72.3288 165.331 73.0575 163.919 73.5973C162.516 74.1281 160.928 74.3935 159.155 74.3935C156.691 74.3935 154.486 73.8357 152.543 72.7202C150.609 71.6046 149.08 69.9898 147.955 67.8757C146.84 65.7616 146.282 63.2022 146.282 60.1974C146.282 57.1837 146.849 54.6198 147.982 52.5057C149.116 50.3916 150.654 48.7812 152.597 47.6747C154.54 46.5592 156.727 46.0014 159.155 46.0014C160.757 46.0014 162.241 46.2263 163.609 46.6761C164.985 47.1259 166.204 47.7827 167.266 48.6463C168.327 49.5009 169.191 50.549 169.856 51.7905C170.531 53.032 170.963 54.4534 171.152 56.0547ZM200.738 60.1974C200.738 63.2112 200.167 65.7751 199.024 67.8892C197.891 70.0033 196.344 71.6181 194.382 72.7337C192.43 73.8402 190.235 74.3935 187.797 74.3935C185.341 74.3935 183.137 73.8357 181.185 72.7202C179.233 71.6046 177.69 69.9898 176.556 67.8757C175.423 65.7616 174.856 63.2022 174.856 60.1974C174.856 57.1837 175.423 54.6198 176.556 52.5057C177.69 50.3916 179.233 48.7812 181.185 47.6747C183.137 46.5592 185.341 46.0014 187.797 46.0014C190.235 46.0014 192.43 46.5592 194.382 47.6747C196.344 48.7812 197.891 50.3916 199.024 52.5057C200.167 54.6198 200.738 57.1837 200.738 60.1974ZM194.814 60.1974C194.814 58.2453 194.522 56.599 193.937 55.2585C193.361 53.9181 192.547 52.9015 191.495 52.2088C190.442 51.5161 189.21 51.1697 187.797 51.1697C186.385 51.1697 185.152 51.5161 184.1 52.2088C183.047 52.9015 182.229 53.9181 181.644 55.2585C181.068 56.599 180.78 58.2453 180.78 60.1974C180.78 62.1496 181.068 63.7959 181.644 65.1364C182.229 66.4768 183.047 67.4934 184.1 68.1861C185.152 68.8788 186.385 69.2251 187.797 69.2251C189.21 69.2251 190.442 68.8788 191.495 68.1861C192.547 67.4934 193.361 66.4768 193.937 65.1364C194.522 63.7959 194.814 62.1496 194.814 60.1974ZM228.182 46.3793V74.0156H223.135L211.112 56.6214H210.91V74.0156H205.067V46.3793H210.194L222.123 63.7599H222.366V46.3793H228.182ZM231.957 51.1967V46.3793H254.655V51.1967H246.194V74.0156H240.418V51.1967H231.957ZM259.779 74.0156H253.518L263.058 46.3793H270.588L280.115 74.0156H273.854L266.931 52.6946H266.715L259.779 74.0156ZM259.388 63.1527H274.178V67.7138H259.388V63.1527ZM289.285 46.3793V74.0156H283.442V46.3793H289.285ZM317.208 46.3793V74.0156H312.161L300.137 56.6214H299.935V74.0156H294.092V46.3793H299.22L311.149 63.7599H311.392V46.3793H317.208ZM322.035 74.0156V46.3793H340.657V51.1967H327.878V57.782H339.699V62.5994H327.878V69.1982H340.711V74.0156H322.035ZM345.303 74.0156V46.3793H356.206C358.293 46.3793 360.075 46.7526 361.55 47.4993C363.034 48.237 364.163 49.285 364.937 50.6435C365.72 51.9929 366.111 53.5807 366.111 55.407C366.111 57.2422 365.715 58.821 364.924 60.1435C364.132 61.4569 362.985 62.4645 361.483 63.1662C359.989 63.8679 358.181 64.2188 356.058 64.2188H348.757V59.5227H355.113C356.229 59.5227 357.155 59.3698 357.893 59.0639C358.631 58.758 359.18 58.2992 359.539 57.6875C359.908 57.0758 360.093 56.3156 360.093 55.407C360.093 54.4893 359.908 53.7157 359.539 53.0859C359.18 52.4562 358.626 51.9794 357.88 51.6555C357.142 51.3227 356.211 51.1562 355.086 51.1562H351.146V74.0156H345.303ZM360.228 61.4389L367.096 74.0156H360.646L353.926 61.4389H360.228Z" fill="black"/>
</svg>
