<svg width="47" height="47" viewBox="0 0 47 47" fill="none" xmlns="http://www.w3.org/2000/svg">
<rect width="46.8293" height="46.8293" rx="23.4146" fill="white"/>
<path d="M17.0908 14.9569C17.0905 15.5979 16.8268 16.2124 16.3577 16.6654C15.8886 17.1184 15.2526 17.3727 14.5896 17.3724C13.9265 17.3721 13.2908 17.1172 12.8222 16.6637C12.3536 16.2103 12.0905 15.5955 12.0908 14.9545C12.0912 14.3136 12.3549 13.699 12.8239 13.246C13.293 12.793 13.929 12.5387 14.5921 12.5391C15.2551 12.5394 15.8909 12.7943 16.3595 13.2477C16.8281 13.7012 17.0912 14.316 17.0908 14.9569ZM17.1658 19.1619H12.1658V34.2903H17.1658V19.1619ZM25.0658 19.1619H20.0908V34.2903H25.0158V26.3515C25.0158 21.929 30.9783 21.5182 30.9783 26.3515V34.2903H35.9158V24.7082C35.9158 17.2528 27.0908 17.5307 25.0158 21.1919L25.0658 19.1619Z" fill="black"/>
</svg>
