<svg width="134" height="157" viewBox="0 0 134 157" fill="none" xmlns="http://www.w3.org/2000/svg">
<rect width="39" height="39" rx="19.5" fill="url(#paint0_linear_1752_38)"/>
<path d="M17.9197 25.0513V14.7767L17.0262 15.6701C16.8443 15.8521 16.6169 15.9431 16.3443 15.9431C16.0716 15.9431 15.8356 15.8438 15.6364 15.6453C15.4544 15.4633 15.3634 15.2316 15.3634 14.9504C15.3634 14.6691 15.4544 14.4375 15.6364 14.2555L18.2175 11.6744C18.3168 11.5751 18.4243 11.5047 18.5401 11.463C18.656 11.4213 18.7801 11.4011 18.9124 11.4024C19.0448 11.4037 19.1689 11.4246 19.2847 11.4649C19.4005 11.5053 19.508 11.5755 19.6073 11.6754L22.1884 14.2565C22.3704 14.4385 22.4614 14.6661 22.4614 14.9395C22.4614 15.2128 22.3704 15.4481 22.1884 15.6453C21.9898 15.8438 21.7542 15.9431 21.4816 15.9431C21.2089 15.9431 20.973 15.8438 20.7738 15.6453L19.9051 14.7767V25.0513L20.7986 24.1578C20.9806 23.9758 21.2082 23.8848 21.4816 23.8848C21.7549 23.8848 21.9905 23.9841 22.1884 24.1827C22.3704 24.3647 22.4614 24.5963 22.4614 24.8776C22.4614 25.1588 22.3704 25.3905 22.1884 25.5725L19.6073 28.1535C19.508 28.2528 19.4005 28.3233 19.2847 28.365C19.1689 28.4067 19.0448 28.4272 18.9124 28.4265C18.7801 28.4259 18.656 28.4054 18.5401 28.365C18.4243 28.3246 18.3168 28.2541 18.2175 28.1535L15.6364 25.5725C15.4544 25.3905 15.3595 25.1631 15.3515 24.8905C15.3436 24.6178 15.4386 24.3819 15.6364 24.1827C15.8184 24.0007 16.0501 23.9097 16.3313 23.9097C16.6126 23.9097 16.8443 24.0007 17.0262 24.1827L17.9197 25.0513Z" fill="white"/>
<path d="M46.319 16.7539V7.30257H48.3173V11.2022H52.3738V7.30257H54.3674V16.7539H52.3738V12.8497H48.3173V16.7539H46.319ZM59.2085 16.8924C58.4793 16.8924 57.8517 16.7447 57.3256 16.4493C56.8025 16.1509 56.3995 15.7294 56.1165 15.1848C55.8334 14.6372 55.6919 13.9896 55.6919 13.242C55.6919 12.5128 55.8334 11.8729 56.1165 11.3222C56.3995 10.7714 56.7979 10.3423 57.3117 10.0346C57.8286 9.72694 58.4347 9.57311 59.13 9.57311C59.5976 9.57311 60.033 9.64848 60.436 9.79924C60.8421 9.94691 61.1959 10.17 61.4974 10.4684C61.802 10.7668 62.0389 11.1422 62.2081 11.5944C62.3774 12.0436 62.462 12.5697 62.462 13.1727V13.7127H56.4764V12.4943H60.6114C60.6114 12.2113 60.5499 11.9606 60.4268 11.7421C60.3037 11.5237 60.133 11.3529 59.9145 11.2299C59.6992 11.1037 59.4484 11.0406 59.1623 11.0406C58.8639 11.0406 58.5993 11.1099 58.3685 11.2483C58.1409 11.3837 57.9624 11.5667 57.8332 11.7975C57.704 12.0252 57.6378 12.279 57.6348 12.559V13.7173C57.6348 14.068 57.6994 14.3711 57.8286 14.6264C57.9609 14.8818 58.147 15.0787 58.387 15.2171C58.627 15.3556 58.9116 15.4248 59.2408 15.4248C59.4592 15.4248 59.6592 15.394 59.8407 15.3325C60.0222 15.271 60.1776 15.1787 60.3068 15.0556C60.436 14.9326 60.5345 14.7818 60.6022 14.6034L62.4204 14.7233C62.3281 15.1602 62.1389 15.5417 61.8528 15.8678C61.5697 16.1909 61.2036 16.4432 60.7544 16.6247C60.3083 16.8031 59.793 16.8924 59.2085 16.8924ZM63.7449 16.7539V9.66541H65.7109V16.7539H63.7449ZM64.7325 8.75165C64.4402 8.75165 64.1895 8.65474 63.9803 8.46091C63.7741 8.26401 63.6711 8.02865 63.6711 7.75483C63.6711 7.48409 63.7741 7.25181 63.9803 7.05798C64.1895 6.86108 64.4402 6.76263 64.7325 6.76263C65.0248 6.76263 65.274 6.86108 65.4801 7.05798C65.6893 7.25181 65.7939 7.48409 65.7939 7.75483C65.7939 8.02865 65.6893 8.26401 65.4801 8.46091C65.274 8.65474 65.0248 8.75165 64.7325 8.75165ZM70.4792 19.5598C69.8424 19.5598 69.2963 19.4721 68.8409 19.2967C68.3887 19.1244 68.0287 18.8891 67.761 18.5906C67.4934 18.2922 67.3195 17.9569 67.2396 17.5846L69.0578 17.34C69.1132 17.4815 69.2009 17.6138 69.3209 17.7369C69.4409 17.8599 69.5993 17.9584 69.7962 18.0322C69.9962 18.1092 70.2392 18.1476 70.5254 18.1476C70.953 18.1476 71.3053 18.043 71.5822 17.8338C71.8622 17.6277 72.0021 17.2815 72.0021 16.7954V15.4987H71.9191C71.8329 15.6956 71.7037 15.8817 71.5314 16.0571C71.3591 16.2324 71.1376 16.3755 70.8669 16.4862C70.5961 16.597 70.2731 16.6524 69.8977 16.6524C69.3655 16.6524 68.8809 16.5293 68.444 16.2832C68.0102 16.034 67.6641 15.654 67.4057 15.1433C67.1503 14.6295 67.0227 13.9803 67.0227 13.1958C67.0227 12.3928 67.1534 11.7221 67.4149 11.1837C67.6764 10.6453 68.0241 10.2423 68.4579 9.9746C68.8948 9.70694 69.3732 9.57311 69.8931 9.57311C70.29 9.57311 70.6223 9.64079 70.8899 9.77616C71.1576 9.90846 71.373 10.0746 71.536 10.2746C71.7022 10.4715 71.8298 10.6653 71.9191 10.8561H71.9929V9.66541H73.945V16.8231C73.945 17.4261 73.7973 17.9307 73.502 18.3368C73.2066 18.7429 72.7974 19.0475 72.2744 19.2506C71.7545 19.4567 71.1561 19.5598 70.4792 19.5598ZM70.5208 15.1756C70.8376 15.1756 71.1053 15.0972 71.3237 14.9402C71.5453 14.7803 71.7145 14.5526 71.8314 14.2572C71.9514 13.9588 72.0114 13.6019 72.0114 13.1866C72.0114 12.7712 71.9529 12.4113 71.836 12.1067C71.7191 11.799 71.5499 11.5606 71.3284 11.3914C71.1068 11.2222 70.8376 11.1376 70.5208 11.1376C70.1977 11.1376 69.9254 11.2252 69.7039 11.4006C69.4824 11.5729 69.3147 11.8129 69.2009 12.1205C69.0871 12.4282 69.0301 12.7835 69.0301 13.1866C69.0301 13.5958 69.0871 13.9496 69.2009 14.248C69.3178 14.5434 69.4855 14.7726 69.7039 14.9356C69.9254 15.0956 70.1977 15.1756 70.5208 15.1756ZM77.4754 12.6559V16.7539H75.5095V7.30257H77.42V10.916H77.5031C77.6631 10.4976 77.9215 10.17 78.2784 9.93307C78.6353 9.69309 79.0829 9.57311 79.6214 9.57311C80.1136 9.57311 80.5428 9.68079 80.9089 9.89615C81.2781 10.1084 81.5642 10.4146 81.7673 10.8145C81.9734 11.2114 82.0749 11.6867 82.0719 12.2405V16.7539H80.1059V12.5913C80.109 12.1544 79.9982 11.8144 79.7736 11.5714C79.5521 11.3283 79.2414 11.2068 78.8414 11.2068C78.5738 11.2068 78.3369 11.2637 78.1307 11.3775C77.9277 11.4914 77.7677 11.6575 77.6508 11.8759C77.537 12.0913 77.4785 12.3513 77.4754 12.6559ZM87.3894 9.66541V11.1422H83.1206V9.66541H87.3894ZM84.0897 7.96712H86.0557V14.5757C86.0557 14.7572 86.0834 14.8987 86.1388 15.0002C86.1941 15.0987 86.2711 15.1679 86.3695 15.2079C86.471 15.2479 86.5879 15.2679 86.7202 15.2679C86.8125 15.2679 86.9048 15.2602 86.9971 15.2448C87.0894 15.2264 87.1602 15.2125 87.2094 15.2033L87.5186 16.6662C87.4202 16.697 87.2817 16.7324 87.1033 16.7724C86.9248 16.8154 86.7079 16.8416 86.4526 16.8508C85.9788 16.8693 85.5634 16.8062 85.2065 16.6616C84.8527 16.517 84.5774 16.2924 84.3805 15.9878C84.1836 15.6832 84.0867 15.2987 84.0897 14.8341V7.96712Z" fill="black"/>
<path d="M46.559 32.25L50.0817 25.2815V25.22H46.0206V24.3739H51.0662V25.2661L47.5589 32.25H46.559ZM54.8552 32.3577C54.404 32.3577 53.9976 32.2679 53.6361 32.0885C53.2746 31.909 52.9849 31.6629 52.767 31.3501C52.5491 31.0373 52.4299 30.6809 52.4093 30.281H53.3323C53.3682 30.6373 53.5297 30.9322 53.8169 31.1655C54.1066 31.3962 54.4527 31.5116 54.8552 31.5116C55.1783 31.5116 55.4654 31.436 55.7167 31.2847C55.9705 31.1334 56.1692 30.9258 56.3128 30.6617C56.4589 30.3951 56.532 30.0938 56.532 29.7579C56.532 29.4144 56.4564 29.108 56.3051 28.8388C56.1564 28.567 55.9513 28.353 55.6898 28.1966C55.4283 28.0402 55.1296 27.9607 54.7937 27.9581C54.5527 27.9556 54.3053 27.9927 54.0515 28.0697C53.7977 28.144 53.5887 28.2402 53.4246 28.3581L52.5324 28.2504L53.0093 24.3739H57.1012V25.22H53.8092L53.5323 27.5428H53.5785C53.74 27.4146 53.9425 27.3082 54.1861 27.2236C54.4297 27.139 54.6835 27.0967 54.9475 27.0967C55.4295 27.0967 55.859 27.2121 56.2359 27.4428C56.6153 27.671 56.9127 27.9838 57.1281 28.3812C57.346 28.7786 57.455 29.2324 57.455 29.7426C57.455 30.2451 57.3422 30.6937 57.1166 31.0886C56.8935 31.4808 56.5858 31.7911 56.1936 32.0193C55.8013 32.2449 55.3552 32.3577 54.8552 32.3577ZM58.9981 32.25V26.3429H59.8749V27.2659H59.9518C60.0749 26.9505 60.2736 26.7057 60.5479 26.5314C60.8223 26.3545 61.1517 26.266 61.5363 26.266C61.926 26.266 62.2503 26.3545 62.5093 26.5314C62.7708 26.7057 62.9746 26.9505 63.1207 27.2659H63.1823C63.3335 26.9608 63.5604 26.7185 63.863 26.539C64.1655 26.357 64.5283 26.266 64.9513 26.266C65.4795 26.266 65.9115 26.4314 66.2473 26.7621C66.5832 27.0903 66.7511 27.6018 66.7511 28.2966V32.25H65.8435V28.2966C65.8435 27.8607 65.7243 27.5492 65.4859 27.362C65.2474 27.1749 64.9667 27.0813 64.6437 27.0813C64.2283 27.0813 63.9066 27.2069 63.6784 27.4582C63.4502 27.7069 63.3361 28.0222 63.3361 28.4042V32.25H62.4131V28.2043C62.4131 27.8684 62.3042 27.5979 62.0862 27.3928C61.8683 27.1851 61.5876 27.0813 61.244 27.0813C61.0081 27.0813 60.7877 27.1441 60.5825 27.2697C60.38 27.3954 60.2159 27.5697 60.0903 27.7928C59.9672 28.0133 59.9057 28.2684 59.9057 28.5581V32.25H58.9981ZM68.4106 32.25V26.3429H69.2874V27.2659H69.3643C69.4874 26.9505 69.6861 26.7057 69.9604 26.5314C70.2348 26.3545 70.5642 26.266 70.9488 26.266C71.3385 26.266 71.6628 26.3545 71.9218 26.5314C72.1833 26.7057 72.3871 26.9505 72.5332 27.2659H72.5948C72.746 26.9608 72.9729 26.7185 73.2755 26.539C73.578 26.357 73.9408 26.266 74.3638 26.266C74.892 26.266 75.324 26.4314 75.6598 26.7621C75.9957 27.0903 76.1636 27.6018 76.1636 28.2966V32.25H75.256V28.2966C75.256 27.8607 75.1368 27.5492 74.8984 27.362C74.6599 27.1749 74.3792 27.0813 74.0562 27.0813C73.6408 27.0813 73.3191 27.2069 73.0909 27.4582C72.8627 27.7069 72.7486 28.0222 72.7486 28.4042V32.25H71.8256V28.2043C71.8256 27.8684 71.7167 27.5979 71.4987 27.3928C71.2808 27.1851 71.0001 27.0813 70.6565 27.0813C70.4206 27.0813 70.2001 27.1441 69.995 27.2697C69.7925 27.3954 69.6284 27.5697 69.5028 27.7928C69.3797 28.0133 69.3182 28.2684 69.3182 28.5581V32.25H68.4106Z" fill="black"/>
<rect y="59" width="39" height="39" rx="19.5" fill="url(#paint1_linear_1752_38)"/>
<g clip-path="url(#clip0_1752_38)">
<path d="M17.9741 73.7344C17.9741 73.4692 18.0795 73.2148 18.267 73.0273C18.4545 72.8397 18.7089 72.7344 18.9741 72.7344C19.2393 72.7344 19.4937 72.8397 19.6812 73.0273C19.8688 73.2148 19.9741 73.4692 19.9741 73.7344C19.9741 73.9996 19.8688 74.2539 19.6812 74.4415C19.4937 74.629 19.2393 74.7344 18.9741 74.7344C18.7089 74.7344 18.4545 74.629 18.267 74.4415C18.0795 74.2539 17.9741 73.9996 17.9741 73.7344ZM21.8022 74.7344C21.9116 74.4219 21.9741 74.0844 21.9741 73.7344C21.9741 72.0781 20.6304 70.7344 18.9741 70.7344C17.3179 70.7344 15.9741 72.0781 15.9741 73.7344C15.9741 74.0844 16.0335 74.4219 16.146 74.7344H14.7241C14.0366 74.7344 13.4366 75.2031 13.2679 75.8719L11.0179 84.8719C10.9054 85.3187 11.0054 85.7938 11.2897 86.1594C11.5741 86.525 12.0116 86.7344 12.4741 86.7344H25.4741C25.9366 86.7344 26.371 86.5219 26.6554 86.1562C26.9397 85.7906 27.0397 85.3187 26.9272 84.8687L24.6772 75.8688C24.5116 75.2031 23.9116 74.7344 23.2241 74.7344H21.8022Z" fill="white"/>
</g>
<path d="M48.4465 75.7539L45.7421 66.3026H47.925L49.4895 72.8696H49.5679L51.2939 66.3026H53.1629L54.8843 72.8834H54.9674L56.5318 66.3026H58.7147L56.0103 75.7539H54.0628L52.263 69.5745H52.1892L50.394 75.7539H48.4465ZM62.2162 75.8924C61.4871 75.8924 60.8594 75.7447 60.3333 75.4493C59.8103 75.1509 59.4073 74.7294 59.1242 74.1848C58.8412 73.6372 58.6997 72.9896 58.6997 72.242C58.6997 71.5128 58.8412 70.8729 59.1242 70.3222C59.4073 69.7714 59.8057 69.3423 60.3195 69.0346C60.8364 68.7269 61.4425 68.5731 62.1378 68.5731C62.6054 68.5731 63.0408 68.6485 63.4438 68.7992C63.8499 68.9469 64.2037 69.17 64.5052 69.4684C64.8098 69.7668 65.0467 70.1422 65.2159 70.5944C65.3851 71.0436 65.4697 71.5697 65.4697 72.1727V72.7127H59.4842V71.4943H63.6192C63.6192 71.2113 63.5576 70.9606 63.4346 70.7421C63.3115 70.5237 63.1407 70.3529 62.9223 70.2299C62.7069 70.1037 62.4562 70.0406 62.1701 70.0406C61.8716 70.0406 61.6071 70.1099 61.3763 70.2483C61.1486 70.3837 60.9702 70.5667 60.841 70.7975C60.7118 71.0252 60.6456 71.279 60.6425 71.559V72.7173C60.6425 73.068 60.7071 73.3711 60.8364 73.6264C60.9687 73.8818 61.1548 74.0787 61.3948 74.2171C61.6347 74.3556 61.9193 74.4248 62.2485 74.4248C62.467 74.4248 62.6669 74.394 62.8485 74.3325C63.03 74.271 63.1854 74.1787 63.3146 74.0556C63.4438 73.9326 63.5422 73.7818 63.6099 73.6034L65.4282 73.7233C65.3359 74.1602 65.1467 74.5417 64.8606 74.8678C64.5775 75.1909 64.2114 75.4432 63.7622 75.6247C63.3161 75.8031 62.8008 75.8924 62.2162 75.8924ZM66.7527 75.7539V68.6654H68.7186V75.7539H66.7527ZM67.7403 67.7517C67.448 67.7517 67.1972 67.6547 66.988 67.4609C66.7819 67.264 66.6788 67.0287 66.6788 66.7548C66.6788 66.4841 66.7819 66.2518 66.988 66.058C67.1972 65.8611 67.448 65.7626 67.7403 65.7626C68.0325 65.7626 68.2818 65.8611 68.4879 66.058C68.6971 66.2518 68.8017 66.4841 68.8017 66.7548C68.8017 67.0287 68.6971 67.264 68.4879 67.4609C68.2818 67.6547 68.0325 67.7517 67.7403 67.7517ZM73.487 78.5598C72.8501 78.5598 72.304 78.4721 71.8487 78.2967C71.3964 78.1244 71.0365 77.8891 70.7688 77.5906C70.5011 77.2922 70.3273 76.9569 70.2473 76.5846L72.0656 76.34C72.121 76.4815 72.2087 76.6138 72.3286 76.7369C72.4486 76.8599 72.6071 76.9584 72.804 77.0322C73.004 77.1092 73.247 77.1476 73.5331 77.1476C73.9608 77.1476 74.3131 77.043 74.5899 76.8338C74.8699 76.6277 75.0099 76.2815 75.0099 75.7954V74.4987H74.9268C74.8407 74.6956 74.7115 74.8817 74.5392 75.0571C74.3669 75.2324 74.1454 75.3755 73.8746 75.4862C73.6039 75.597 73.2809 75.6524 72.9055 75.6524C72.3733 75.6524 71.8887 75.5293 71.4518 75.2832C71.018 75.034 70.6719 74.654 70.4135 74.1433C70.1581 73.6295 70.0304 72.9803 70.0304 72.1958C70.0304 71.3928 70.1612 70.7221 70.4227 70.1837C70.6842 69.6453 71.0319 69.2423 71.4657 68.9746C71.9025 68.7069 72.3809 68.5731 72.9009 68.5731C73.2978 68.5731 73.63 68.6408 73.8977 68.7762C74.1654 68.9085 74.3807 69.0746 74.5438 69.2746C74.7099 69.4715 74.8376 69.6653 74.9268 69.8561H75.0007V68.6654H76.9528V75.8231C76.9528 76.4261 76.8051 76.9307 76.5097 77.3368C76.2144 77.7429 75.8052 78.0475 75.2822 78.2506C74.7622 78.4567 74.1638 78.5598 73.487 78.5598ZM73.5285 74.1756C73.8454 74.1756 74.1131 74.0972 74.3315 73.9402C74.553 73.7803 74.7222 73.5526 74.8392 73.2572C74.9591 72.9588 75.0191 72.6019 75.0191 72.1866C75.0191 71.7712 74.9607 71.4113 74.8438 71.1067C74.7269 70.799 74.5576 70.5606 74.3361 70.3914C74.1146 70.2222 73.8454 70.1376 73.5285 70.1376C73.2055 70.1376 72.9332 70.2252 72.7117 70.4006C72.4902 70.5729 72.3225 70.8129 72.2087 71.1205C72.0948 71.4282 72.0379 71.7835 72.0379 72.1866C72.0379 72.5958 72.0948 72.9496 72.2087 73.248C72.3256 73.5434 72.4932 73.7726 72.7117 73.9356C72.9332 74.0956 73.2055 74.1756 73.5285 74.1756ZM80.4832 71.6559V75.7539H78.5172V66.3026H80.4278V69.916H80.5109C80.6709 69.4976 80.9293 69.17 81.2862 68.9331C81.6431 68.6931 82.0907 68.5731 82.6291 68.5731C83.1214 68.5731 83.5506 68.6808 83.9167 68.8962C84.2859 69.1084 84.572 69.4146 84.7751 69.8145C84.9812 70.2114 85.0827 70.6867 85.0796 71.2405V75.7539H83.1137V71.5913C83.1168 71.1544 83.006 70.8144 82.7814 70.5714C82.5599 70.3283 82.2492 70.2068 81.8492 70.2068C81.5815 70.2068 81.3446 70.2637 81.1385 70.3775C80.9354 70.4914 80.7755 70.6575 80.6586 70.8759C80.5447 71.0913 80.4863 71.3513 80.4832 71.6559ZM90.3972 68.6654V70.1422H86.1284V68.6654H90.3972ZM87.0975 66.9671H89.0635V73.5757C89.0635 73.7572 89.0911 73.8987 89.1465 74.0002C89.2019 74.0987 89.2788 74.1679 89.3773 74.2079C89.4788 74.2479 89.5957 74.2679 89.728 74.2679C89.8203 74.2679 89.9126 74.2602 90.0049 74.2448C90.0972 74.2264 90.168 74.2125 90.2172 74.2033L90.5264 75.6662C90.4279 75.697 90.2895 75.7324 90.111 75.7724C89.9326 75.8154 89.7157 75.8416 89.4603 75.8508C88.9865 75.8693 88.5712 75.8062 88.2143 75.6616C87.8605 75.517 87.5851 75.2924 87.3882 74.9878C87.1913 74.6832 87.0944 74.2987 87.0975 73.8341V66.9671Z" fill="black"/>
<path d="M46.1283 89.6348V88.8502L49.5894 83.3739H50.1586V84.5891H49.774L47.1589 88.7272V88.7887H51.82V89.6348H46.1283ZM49.8356 91.25V89.3963V89.031V83.3739H50.7432V91.25H49.8356ZM55.8301 91.3577C55.2507 91.3577 54.7572 91.2 54.3495 90.8847C53.9419 90.5667 53.6304 90.1065 53.415 89.504C53.1996 88.899 53.092 88.1683 53.092 87.3119C53.092 86.4607 53.1996 85.7339 53.415 85.1314C53.6329 84.5263 53.9457 84.0648 54.3534 83.7469C54.7636 83.4264 55.2558 83.2662 55.8301 83.2662C56.4044 83.2662 56.8954 83.4264 57.3031 83.7469C57.7133 84.0648 58.0261 84.5263 58.2414 85.1314C58.4594 85.7339 58.5683 86.4607 58.5683 87.3119C58.5683 88.1683 58.4606 88.899 58.2453 89.504C58.0299 90.1065 57.7184 90.5667 57.3108 90.8847C56.9031 91.2 56.4096 91.3577 55.8301 91.3577ZM55.8301 90.5116C56.4044 90.5116 56.8506 90.2347 57.1685 89.6809C57.4864 89.1271 57.6453 88.3375 57.6453 87.3119C57.6453 86.63 57.5723 86.0493 57.4261 85.5698C57.2826 85.0904 57.0749 84.725 56.8031 84.4738C56.5339 84.2225 56.2096 84.0969 55.8301 84.0969C55.261 84.0969 54.8162 84.3776 54.4957 84.9391C54.1752 85.498 54.015 86.289 54.015 87.3119C54.015 87.9939 54.0867 88.5734 54.2303 89.0502C54.3739 89.5271 54.5803 89.8899 54.8495 90.1386C55.1212 90.3873 55.4481 90.5116 55.8301 90.5116ZM60.0451 91.25V85.3429H60.9219V86.2659H60.9988C61.1219 85.9505 61.3206 85.7057 61.5949 85.5314C61.8693 85.3545 62.1987 85.266 62.5833 85.266C62.973 85.266 63.2973 85.3545 63.5563 85.5314C63.8178 85.7057 64.0216 85.9505 64.1678 86.2659H64.2293C64.3805 85.9608 64.6074 85.7185 64.91 85.539C65.2125 85.357 65.5753 85.266 65.9983 85.266C66.5265 85.266 66.9585 85.4314 67.2944 85.7621C67.6302 86.0903 67.7981 86.6018 67.7981 87.2966V91.25H66.8905V87.2966C66.8905 86.8607 66.7713 86.5492 66.5329 86.362C66.2945 86.1749 66.0137 86.0813 65.6907 86.0813C65.2753 86.0813 64.9536 86.2069 64.7254 86.4582C64.4972 86.7069 64.3831 87.0222 64.3831 87.4042V91.25H63.4601V87.2043C63.4601 86.8684 63.3512 86.5979 63.1332 86.3928C62.9153 86.1851 62.6346 86.0813 62.291 86.0813C62.0551 86.0813 61.8347 86.1441 61.6296 86.2697C61.427 86.3954 61.2629 86.5697 61.1373 86.7928C61.0142 87.0133 60.9527 87.2684 60.9527 87.5581V91.25H60.0451ZM69.4576 91.25V85.3429H70.3344V86.2659H70.4113C70.5344 85.9505 70.7331 85.7057 71.0074 85.5314C71.2818 85.3545 71.6112 85.266 71.9958 85.266C72.3855 85.266 72.7098 85.3545 72.9688 85.5314C73.2303 85.7057 73.4341 85.9505 73.5802 86.2659H73.6418C73.793 85.9608 74.0199 85.7185 74.3225 85.539C74.625 85.357 74.9878 85.266 75.4108 85.266C75.939 85.266 76.371 85.4314 76.7068 85.7621C77.0427 86.0903 77.2106 86.6018 77.2106 87.2966V91.25H76.303V87.2966C76.303 86.8607 76.1838 86.5492 75.9454 86.362C75.7069 86.1749 75.4262 86.0813 75.1032 86.0813C74.6878 86.0813 74.3661 86.2069 74.1379 86.4582C73.9097 86.7069 73.7956 87.0222 73.7956 87.4042V91.25H72.8726V87.2043C72.8726 86.8684 72.7637 86.5979 72.5457 86.3928C72.3278 86.1851 72.0471 86.0813 71.7035 86.0813C71.4676 86.0813 71.2472 86.1441 71.042 86.2697C70.8395 86.3954 70.6754 86.5697 70.5498 86.7928C70.4267 87.0133 70.3652 87.2684 70.3652 87.5581V91.25H69.4576Z" fill="black"/>
<rect y="118" width="39" height="39" rx="19.5" fill="url(#paint2_linear_1752_38)"/>
<path d="M16.9271 140.889V137.91M20.898 140.889V137.91M24.8688 140.889V137.91M8.98535 133.94V129.969M28.8397 131.954H8.98535M28.8397 133.94V129.969M12.9562 140.889V137.91" stroke="white" stroke-width="2.23288" stroke-linecap="round" stroke-linejoin="round"/>
<path d="M26.8543 137.914H10.9708C9.87426 137.914 8.98535 138.803 8.98535 139.899V143.87C8.98535 144.967 9.87426 145.856 10.9708 145.856H26.8543C27.9508 145.856 28.8397 144.967 28.8397 143.87V139.899C28.8397 138.803 27.9508 137.914 26.8543 137.914Z" stroke="white" stroke-width="2.23288" stroke-linecap="round" stroke-linejoin="round"/>
<path d="M46.319 134.754V125.303H48.3173V133.106H52.3692V134.754H46.319ZM56.886 134.892C56.1568 134.892 55.5292 134.745 55.0031 134.449C54.4801 134.151 54.0771 133.729 53.794 133.185C53.511 132.637 53.3694 131.99 53.3694 131.242C53.3694 130.513 53.511 129.873 53.794 129.322C54.0771 128.771 54.4755 128.342 54.9893 128.035C55.5061 127.727 56.1122 127.573 56.8075 127.573C57.2752 127.573 57.7105 127.648 58.1136 127.799C58.5197 127.947 58.8735 128.17 59.175 128.468C59.4796 128.767 59.7165 129.142 59.8857 129.594C60.0549 130.044 60.1395 130.57 60.1395 131.173V131.713H54.154V130.494H58.2889C58.2889 130.211 58.2274 129.961 58.1043 129.742C57.9813 129.524 57.8105 129.353 57.5921 129.23C57.3767 129.104 57.126 129.041 56.8399 129.041C56.5414 129.041 56.2768 129.11 56.0461 129.248C55.8184 129.384 55.64 129.567 55.5108 129.797C55.3815 130.025 55.3154 130.279 55.3123 130.559V131.717C55.3123 132.068 55.3769 132.371 55.5061 132.626C55.6384 132.882 55.8246 133.079 56.0645 133.217C56.3045 133.356 56.5891 133.425 56.9183 133.425C57.1367 133.425 57.3367 133.394 57.5182 133.333C57.6998 133.271 57.8551 133.179 57.9843 133.056C58.1136 132.933 58.212 132.782 58.2797 132.603L60.098 132.723C60.0057 133.16 59.8165 133.542 59.5303 133.868C59.2473 134.191 58.8812 134.443 58.432 134.625C57.9859 134.803 57.4706 134.892 56.886 134.892ZM63.3884 130.656V134.754H61.4225V127.665H63.2961V128.916H63.3792C63.5361 128.504 63.7991 128.178 64.1683 127.938C64.5375 127.695 64.9852 127.573 65.5113 127.573C66.0035 127.573 66.4327 127.681 66.7988 127.896C67.1649 128.112 67.4495 128.419 67.6526 128.819C67.8556 129.216 67.9572 129.69 67.9572 130.241V134.754H65.9912V130.591C65.9943 130.157 65.8835 129.819 65.6589 129.576C65.4344 129.33 65.1252 129.207 64.7313 129.207C64.4668 129.207 64.2329 129.264 64.0299 129.378C63.8299 129.491 63.673 129.658 63.5592 129.876C63.4484 130.091 63.3915 130.351 63.3884 130.656ZM72.7001 137.56C72.0633 137.56 71.5172 137.472 71.0618 137.297C70.6096 137.124 70.2496 136.889 69.982 136.591C69.7143 136.292 69.5405 135.957 69.4605 135.585L71.2787 135.34C71.3341 135.482 71.4218 135.614 71.5418 135.737C71.6618 135.86 71.8202 135.958 72.0171 136.032C72.2171 136.109 72.4602 136.148 72.7463 136.148C73.1739 136.148 73.5262 136.043 73.8031 135.834C74.0831 135.628 74.2231 135.282 74.2231 134.795V133.499H74.14C74.0538 133.696 73.9246 133.882 73.7523 134.057C73.5801 134.232 73.3585 134.375 73.0878 134.486C72.8171 134.597 72.494 134.652 72.1187 134.652C71.5864 134.652 71.1018 134.529 70.665 134.283C70.2312 134.034 69.885 133.654 69.6266 133.143C69.3713 132.63 69.2436 131.98 69.2436 131.196C69.2436 130.393 69.3743 129.722 69.6358 129.184C69.8974 128.645 70.245 128.242 70.6788 127.975C71.1157 127.707 71.5941 127.573 72.114 127.573C72.5109 127.573 72.8432 127.641 73.1109 127.776C73.3785 127.908 73.5939 128.075 73.757 128.275C73.9231 128.471 74.0508 128.665 74.14 128.856H74.2138V127.665H76.1659V134.823C76.1659 135.426 76.0183 135.931 75.7229 136.337C75.4276 136.743 75.0184 137.048 74.4953 137.251C73.9754 137.457 73.377 137.56 72.7001 137.56ZM72.7417 133.176C73.0586 133.176 73.3262 133.097 73.5447 132.94C73.7662 132.78 73.9354 132.553 74.0523 132.257C74.1723 131.959 74.2323 131.602 74.2323 131.187C74.2323 130.771 74.1738 130.411 74.0569 130.107C73.94 129.799 73.7708 129.561 73.5493 129.391C73.3278 129.222 73.0586 129.138 72.7417 129.138C72.4186 129.138 72.1464 129.225 71.9248 129.401C71.7033 129.573 71.5356 129.813 71.4218 130.121C71.308 130.428 71.2511 130.784 71.2511 131.187C71.2511 131.596 71.308 131.95 71.4218 132.248C71.5387 132.543 71.7064 132.773 71.9248 132.936C72.1464 133.096 72.4186 133.176 72.7417 133.176ZM81.5008 127.665V129.142H77.232V127.665H81.5008ZM78.2011 125.967H80.1671V132.576C80.1671 132.757 80.1948 132.899 80.2501 133C80.3055 133.099 80.3824 133.168 80.4809 133.208C80.5824 133.248 80.6993 133.268 80.8316 133.268C80.9239 133.268 81.0162 133.26 81.1085 133.245C81.2008 133.226 81.2716 133.213 81.3208 133.203L81.63 134.666C81.5315 134.697 81.3931 134.732 81.2146 134.772C81.0362 134.815 80.8193 134.842 80.5639 134.851C80.0901 134.869 79.6748 134.806 79.3179 134.662C78.9641 134.517 78.6888 134.292 78.4919 133.988C78.2949 133.683 78.198 133.299 78.2011 132.834V125.967ZM84.8997 130.656V134.754H82.9337V125.303H84.8443V128.916H84.9273C85.0873 128.498 85.3458 128.17 85.7027 127.933C86.0595 127.693 86.5072 127.573 87.0456 127.573C87.5378 127.573 87.967 127.681 88.3331 127.896C88.7023 128.108 88.9885 128.415 89.1915 128.815C89.3977 129.211 89.4992 129.687 89.4961 130.241V134.754H87.5302V130.591C87.5332 130.154 87.4225 129.814 87.1979 129.571C86.9764 129.328 86.6656 129.207 86.2657 129.207C85.998 129.207 85.7611 129.264 85.555 129.378C85.3519 129.491 85.1919 129.658 85.075 129.876C84.9612 130.091 84.9027 130.351 84.8997 130.656Z" fill="black"/>
<path d="M48.928 150.358C48.6049 150.353 48.2819 150.291 47.9588 150.173C47.6358 150.055 47.341 149.856 47.0743 149.577C46.8077 149.295 46.5936 148.914 46.4321 148.435C46.2706 147.953 46.1898 147.348 46.1898 146.62C46.1898 145.922 46.2552 145.304 46.3859 144.766C46.5167 144.225 46.7064 143.77 46.9551 143.401C47.2038 143.029 47.5038 142.747 47.855 142.555C48.2088 142.362 48.6075 142.266 49.051 142.266C49.492 142.266 49.8843 142.355 50.2278 142.532C50.574 142.706 50.856 142.949 51.0739 143.262C51.2918 143.575 51.4328 143.935 51.4969 144.343H50.5586C50.4714 143.989 50.3022 143.696 50.0509 143.462C49.7997 143.229 49.4664 143.112 49.051 143.112C48.4408 143.112 47.9601 143.378 47.6089 143.908C47.2602 144.439 47.0846 145.184 47.082 146.143H47.1435C47.2871 145.925 47.4576 145.739 47.655 145.585C47.855 145.429 48.0755 145.308 48.3165 145.224C48.5575 145.139 48.8126 145.097 49.0818 145.097C49.533 145.097 49.9458 145.209 50.3201 145.435C50.6945 145.658 50.9944 145.967 51.22 146.362C51.4457 146.754 51.5585 147.204 51.5585 147.712C51.5585 148.199 51.4495 148.645 51.2316 149.05C51.0137 149.453 50.7073 149.773 50.3124 150.012C49.9202 150.247 49.4587 150.363 48.928 150.358ZM48.928 149.512C49.251 149.512 49.5407 149.431 49.7971 149.269C50.0561 149.108 50.2599 148.891 50.4086 148.619C50.5599 148.348 50.6355 148.045 50.6355 147.712C50.6355 147.386 50.5624 147.09 50.4163 146.823C50.2727 146.554 50.074 146.34 49.8202 146.181C49.5689 146.022 49.2818 145.943 48.9587 145.943C48.7152 145.943 48.4883 145.991 48.278 146.089C48.0678 146.184 47.8832 146.315 47.7243 146.481C47.5679 146.648 47.4448 146.839 47.3551 147.054C47.2653 147.267 47.2205 147.491 47.2205 147.727C47.2205 148.04 47.2935 148.332 47.4397 148.604C47.5884 148.876 47.7909 149.095 48.0473 149.262C48.3062 149.428 48.5998 149.512 48.928 149.512ZM55.4706 152.588C55.0322 152.588 54.6553 152.532 54.3399 152.419C54.0246 152.309 53.7618 152.163 53.5515 151.981C53.3439 151.801 53.1785 151.609 53.0554 151.404L53.7784 150.896C53.8605 151.004 53.9643 151.127 54.0899 151.265C54.2156 151.406 54.3873 151.528 54.6053 151.631C54.8258 151.736 55.1142 151.788 55.4706 151.788C55.9474 151.788 56.341 151.673 56.6512 151.442C56.9614 151.211 57.1166 150.85 57.1166 150.358V149.158H57.0396C56.973 149.265 56.8781 149.399 56.7551 149.558C56.6346 149.714 56.4602 149.854 56.232 149.977C56.0064 150.097 55.7013 150.158 55.3167 150.158C54.8399 150.158 54.4117 150.045 54.0323 149.819C53.6554 149.594 53.3567 149.265 53.1362 148.835C52.9183 148.404 52.8093 147.881 52.8093 147.266C52.8093 146.661 52.9157 146.134 53.1285 145.685C53.3413 145.234 53.6374 144.885 54.0169 144.639C54.3963 144.39 54.8347 144.266 55.3321 144.266C55.7167 144.266 56.0218 144.33 56.2474 144.458C56.4756 144.584 56.6499 144.727 56.7704 144.889C56.8935 145.048 56.9884 145.179 57.055 145.281H57.1473V144.343H58.0242V150.419C58.0242 150.927 57.9088 151.34 57.678 151.658C57.4499 151.978 57.1422 152.213 56.7551 152.361C56.3705 152.513 55.9423 152.588 55.4706 152.588ZM55.4398 149.342C55.8039 149.342 56.1115 149.259 56.3628 149.092C56.614 148.926 56.805 148.686 56.9358 148.373C57.0666 148.06 57.1319 147.686 57.1319 147.25C57.1319 146.825 57.0678 146.449 56.9396 146.124C56.8115 145.798 56.6217 145.543 56.3705 145.358C56.1192 145.174 55.809 145.081 55.4398 145.081C55.0552 145.081 54.7347 145.179 54.4784 145.374C54.2245 145.568 54.0335 145.83 53.9053 146.158C53.7797 146.486 53.7169 146.85 53.7169 147.25C53.7169 147.661 53.781 148.023 53.9092 148.339C54.0399 148.651 54.2322 148.898 54.4861 149.077C54.7424 149.254 55.0604 149.342 55.4398 149.342Z" fill="black"/>
<defs>
<linearGradient id="paint0_linear_1752_38" x1="0" y1="19.5" x2="39" y2="19.5" gradientUnits="userSpaceOnUse">
<stop stop-color="#7C7675"/>
<stop offset="1" stop-color="#98918F"/>
</linearGradient>
<linearGradient id="paint1_linear_1752_38" x1="0" y1="78.5" x2="39" y2="78.5" gradientUnits="userSpaceOnUse">
<stop stop-color="#7C7675"/>
<stop offset="1" stop-color="#98918F"/>
</linearGradient>
<linearGradient id="paint2_linear_1752_38" x1="0" y1="137.5" x2="39" y2="137.5" gradientUnits="userSpaceOnUse">
<stop stop-color="#7C7675"/>
<stop offset="1" stop-color="#98918F"/>
</linearGradient>
<clipPath id="clip0_1752_38">
<rect width="16" height="16" fill="white" transform="translate(10.9741 70.7344)"/>
</clipPath>
</defs>
</svg>
