<svg width="374" height="43" viewBox="0 0 374 43" fill="none" xmlns="http://www.w3.org/2000/svg">
<path d="M52.7189 19V10.2727H55.6678C56.3525 10.2727 56.9121 10.3963 57.3468 10.6435C57.7843 10.8878 58.1081 11.2188 58.3184 11.6364C58.5286 12.054 58.6337 12.5199 58.6337 13.0341C58.6337 13.5483 58.5286 14.0156 58.3184 14.4361C58.111 14.8565 57.79 15.1918 57.3553 15.4418C56.9206 15.6889 56.3638 15.8125 55.6848 15.8125H53.5712V14.875H55.6507C56.1195 14.875 56.4959 14.794 56.78 14.6321C57.0641 14.4702 57.2701 14.2514 57.3979 13.9759C57.5286 13.6974 57.5939 13.3835 57.5939 13.0341C57.5939 12.6847 57.5286 12.3722 57.3979 12.0966C57.2701 11.821 57.0627 11.6051 56.7757 11.4489C56.4888 11.2898 56.1081 11.2102 55.6337 11.2102H53.7757V19H52.7189ZM62.8738 19.1364C62.2431 19.1364 61.699 18.9972 61.2417 18.7188C60.7871 18.4375 60.4363 18.0455 60.1891 17.5426C59.9448 17.0369 59.8226 16.4489 59.8226 15.7784C59.8226 15.108 59.9448 14.517 60.1891 14.0057C60.4363 13.4915 60.78 13.0909 61.2203 12.804C61.6635 12.5142 62.1806 12.3693 62.7715 12.3693C63.1124 12.3693 63.449 12.4261 63.7814 12.5398C64.1138 12.6534 64.4164 12.8381 64.6891 13.0938C64.9618 13.3466 65.1792 13.6818 65.3411 14.0994C65.503 14.517 65.584 15.0312 65.584 15.642V16.0682H60.5385V15.1989H64.5613C64.5613 14.8295 64.4874 14.5 64.3397 14.2102C64.1948 13.9205 63.9874 13.6918 63.7175 13.5241C63.4505 13.3565 63.1351 13.2727 62.7715 13.2727C62.3709 13.2727 62.0243 13.3722 61.7317 13.571C61.4419 13.767 61.2189 14.0227 61.0627 14.3381C60.9064 14.6534 60.8283 14.9915 60.8283 15.3523V15.9318C60.8283 16.4261 60.9135 16.8452 61.084 17.1889C61.2573 17.5298 61.4973 17.7898 61.8042 17.9688C62.111 18.1449 62.4675 18.233 62.8738 18.233C63.138 18.233 63.3766 18.196 63.5897 18.1222C63.8056 18.0455 63.9917 17.9318 64.1479 17.7812C64.3042 17.6278 64.4249 17.4375 64.5101 17.2102L65.4817 17.483C65.3794 17.8125 65.2076 18.1023 64.9661 18.3523C64.7246 18.5994 64.4263 18.7926 64.0712 18.9318C63.7161 19.0682 63.3169 19.1364 62.8738 19.1364ZM67.1138 19V12.4545H68.0854V13.4432H68.1536C68.2729 13.1193 68.4888 12.8565 68.8013 12.6548C69.1138 12.4531 69.4661 12.3523 69.8581 12.3523C69.932 12.3523 70.0243 12.3537 70.1351 12.3565C70.2459 12.3594 70.3297 12.3636 70.3865 12.3693V13.392C70.3525 13.3835 70.2743 13.3707 70.1522 13.3537C70.0328 13.3338 69.9064 13.3239 69.7729 13.3239C69.4547 13.3239 69.1706 13.3906 68.9206 13.5241C68.6735 13.6548 68.4775 13.8366 68.3326 14.0696C68.1905 14.2997 68.1195 14.5625 68.1195 14.858V19H67.1138ZM74.9036 12.4545V13.3068H71.3752V12.4545H74.9036ZM72.432 19V11.5511C72.432 11.1761 72.5201 10.8636 72.6962 10.6136C72.8723 10.3636 73.101 10.1761 73.3823 10.0511C73.6635 9.92614 73.9604 9.86364 74.2729 9.86364C74.5201 9.86364 74.7218 9.88352 74.878 9.9233C75.0343 9.96307 75.1507 10 75.2275 10.0341L74.9377 10.9034C74.8865 10.8864 74.8155 10.8651 74.7246 10.8395C74.6365 10.8139 74.5201 10.8011 74.3752 10.8011C74.0428 10.8011 73.8027 10.8849 73.655 11.0526C73.5101 11.2202 73.4377 11.4659 73.4377 11.7898V19H72.432ZM78.7878 19.1364C78.1571 19.1364 77.6131 18.9972 77.1557 18.7188C76.7012 18.4375 76.3503 18.0455 76.1032 17.5426C75.8588 17.0369 75.7367 16.4489 75.7367 15.7784C75.7367 15.108 75.8588 14.517 76.1032 14.0057C76.3503 13.4915 76.6941 13.0909 77.1344 12.804C77.5776 12.5142 78.0946 12.3693 78.6855 12.3693C79.0265 12.3693 79.3631 12.4261 79.6955 12.5398C80.0279 12.6534 80.3304 12.8381 80.6032 13.0938C80.8759 13.3466 81.0932 13.6818 81.2551 14.0994C81.4171 14.517 81.498 15.0312 81.498 15.642V16.0682H76.4526V15.1989H80.4753C80.4753 14.8295 80.4015 14.5 80.2537 14.2102C80.1088 13.9205 79.9015 13.6918 79.6316 13.5241C79.3645 13.3565 79.0492 13.2727 78.6855 13.2727C78.285 13.2727 77.9384 13.3722 77.6458 13.571C77.356 13.767 77.133 14.0227 76.9767 14.3381C76.8205 14.6534 76.7424 14.9915 76.7424 15.3523V15.9318C76.7424 16.4261 76.8276 16.8452 76.998 17.1889C77.1713 17.5298 77.4114 17.7898 77.7182 17.9688C78.025 18.1449 78.3816 18.233 78.7878 18.233C79.052 18.233 79.2907 18.196 79.5037 18.1222C79.7196 18.0455 79.9057 17.9318 80.062 17.7812C80.2182 17.6278 80.339 17.4375 80.4242 17.2102L81.3958 17.483C81.2935 17.8125 81.1216 18.1023 80.8801 18.3523C80.6387 18.5994 80.3404 18.7926 79.9853 18.9318C79.6301 19.0682 79.231 19.1364 78.7878 19.1364ZM85.687 19.1364C85.0733 19.1364 84.5449 18.9915 84.1017 18.7017C83.6586 18.4119 83.3176 18.0128 83.079 17.5043C82.8404 16.9957 82.7211 16.4148 82.7211 15.7614C82.7211 15.0966 82.8432 14.5099 83.0875 14.0014C83.3347 13.4901 83.6784 13.0909 84.1188 12.804C84.562 12.5142 85.079 12.3693 85.6699 12.3693C86.1301 12.3693 86.5449 12.4545 86.9142 12.625C87.2836 12.7955 87.5861 13.0341 87.8219 13.3409C88.0577 13.6477 88.204 14.0057 88.2608 14.4148H87.2551C87.1784 14.1165 87.008 13.8523 86.7438 13.6222C86.4824 13.3892 86.1301 13.2727 85.687 13.2727C85.2949 13.2727 84.9512 13.375 84.6557 13.5795C84.3631 13.7812 84.1344 14.0668 83.9696 14.4361C83.8077 14.8026 83.7267 15.233 83.7267 15.7273C83.7267 16.233 83.8063 16.6733 83.9654 17.0483C84.1273 17.4233 84.3546 17.7145 84.6472 17.9219C84.9426 18.1293 85.2892 18.233 85.687 18.233C85.9483 18.233 86.1855 18.1875 86.3986 18.0966C86.6117 18.0057 86.7921 17.875 86.9398 17.7045C87.0875 17.5341 87.1926 17.3295 87.2551 17.0909H88.2608C88.204 17.4773 88.0634 17.8253 87.839 18.1349C87.6174 18.4418 87.3233 18.6861 86.9569 18.8679C86.5932 19.0469 86.1699 19.1364 85.687 19.1364ZM92.5776 12.4545V13.3068H89.1855V12.4545H92.5776ZM90.1742 10.8864H91.1799V17.125C91.1799 17.4091 91.2211 17.6222 91.3034 17.7642C91.3887 17.9034 91.4966 17.9972 91.6273 18.0455C91.7608 18.0909 91.9015 18.1136 92.0492 18.1136C92.16 18.1136 92.2509 18.108 92.3219 18.0966C92.3929 18.0824 92.4498 18.071 92.4924 18.0625L92.6969 18.9659C92.6287 18.9915 92.5336 19.017 92.4114 19.0426C92.2892 19.071 92.1344 19.0852 91.9469 19.0852C91.6628 19.0852 91.3844 19.0241 91.1117 18.902C90.8418 18.7798 90.6174 18.5938 90.4384 18.3438C90.2623 18.0938 90.1742 17.7784 90.1742 17.3977V10.8864ZM100.38 12.4545V13.3068H96.8517V12.4545H100.38ZM97.9086 19V11.5511C97.9086 11.1761 97.9966 10.8636 98.1728 10.6136C98.3489 10.3636 98.5776 10.1761 98.8588 10.0511C99.1401 9.92614 99.437 9.86364 99.7495 9.86364C99.9966 9.86364 100.198 9.88352 100.355 9.9233C100.511 9.96307 100.627 10 100.704 10.0341L100.414 10.9034C100.363 10.8864 100.292 10.8651 100.201 10.8395C100.113 10.8139 99.9966 10.8011 99.8517 10.8011C99.5194 10.8011 99.2793 10.8849 99.1316 11.0526C98.9867 11.2202 98.9142 11.4659 98.9142 11.7898V19H97.9086ZM104.179 19.1364C103.588 19.1364 103.07 18.9957 102.624 18.7145C102.181 18.4332 101.834 18.0398 101.584 17.5341C101.337 17.0284 101.213 16.4375 101.213 15.7614C101.213 15.0795 101.337 14.4844 101.584 13.9759C101.834 13.4673 102.181 13.0724 102.624 12.7912C103.07 12.5099 103.588 12.3693 104.179 12.3693C104.77 12.3693 105.287 12.5099 105.73 12.7912C106.176 13.0724 106.523 13.4673 106.77 13.9759C107.02 14.4844 107.145 15.0795 107.145 15.7614C107.145 16.4375 107.02 17.0284 106.77 17.5341C106.523 18.0398 106.176 18.4332 105.73 18.7145C105.287 18.9957 104.77 19.1364 104.179 19.1364ZM104.179 18.233C104.628 18.233 104.997 18.1179 105.287 17.8878C105.577 17.6577 105.791 17.3551 105.931 16.9801C106.07 16.6051 106.139 16.1989 106.139 15.7614C106.139 15.3239 106.07 14.9162 105.931 14.5384C105.791 14.1605 105.577 13.8551 105.287 13.6222C104.997 13.3892 104.628 13.2727 104.179 13.2727C103.73 13.2727 103.361 13.3892 103.071 13.6222C102.781 13.8551 102.567 14.1605 102.428 14.5384C102.289 14.9162 102.219 15.3239 102.219 15.7614C102.219 16.1989 102.289 16.6051 102.428 16.9801C102.567 17.3551 102.781 17.6577 103.071 17.8878C103.361 18.1179 103.73 18.233 104.179 18.233ZM108.68 19V12.4545H109.652V13.4432H109.72C109.839 13.1193 110.055 12.8565 110.368 12.6548C110.68 12.4531 111.032 12.3523 111.425 12.3523C111.498 12.3523 111.591 12.3537 111.702 12.3565C111.812 12.3594 111.896 12.3636 111.953 12.3693V13.392C111.919 13.3835 111.841 13.3707 111.719 13.3537C111.599 13.3338 111.473 13.3239 111.339 13.3239C111.021 13.3239 110.737 13.3906 110.487 13.5241C110.24 13.6548 110.044 13.8366 109.899 14.0696C109.757 14.2997 109.686 14.5625 109.686 14.858V19H108.68ZM119.179 19.1364C118.566 19.1364 118.037 18.9915 117.594 18.7017C117.151 18.4119 116.81 18.0128 116.571 17.5043C116.333 16.9957 116.213 16.4148 116.213 15.7614C116.213 15.0966 116.335 14.5099 116.58 14.0014C116.827 13.4901 117.171 13.0909 117.611 12.804C118.054 12.5142 118.571 12.3693 119.162 12.3693C119.622 12.3693 120.037 12.4545 120.406 12.625C120.776 12.7955 121.078 13.0341 121.314 13.3409C121.55 13.6477 121.696 14.0057 121.753 14.4148H120.747C120.671 14.1165 120.5 13.8523 120.236 13.6222C119.975 13.3892 119.622 13.2727 119.179 13.2727C118.787 13.2727 118.443 13.375 118.148 13.5795C117.855 13.7812 117.627 14.0668 117.462 14.4361C117.3 14.8026 117.219 15.233 117.219 15.7273C117.219 16.233 117.298 16.6733 117.458 17.0483C117.619 17.4233 117.847 17.7145 118.139 17.9219C118.435 18.1293 118.781 18.233 119.179 18.233C119.441 18.233 119.678 18.1875 119.891 18.0966C120.104 18.0057 120.284 17.875 120.432 17.7045C120.58 17.5341 120.685 17.3295 120.747 17.0909H121.753C121.696 17.4773 121.556 17.8253 121.331 18.1349C121.11 18.4418 120.816 18.6861 120.449 18.8679C120.085 19.0469 119.662 19.1364 119.179 19.1364ZM124.229 15.0625V19H123.223V10.2727H124.229V13.4773H124.314C124.468 13.1392 124.698 12.8707 125.004 12.6719C125.314 12.4702 125.726 12.3693 126.24 12.3693C126.686 12.3693 127.077 12.4588 127.412 12.6378C127.747 12.8139 128.007 13.0852 128.192 13.4517C128.379 13.8153 128.473 14.2784 128.473 14.8409V19H127.468V14.9091C127.468 14.3892 127.333 13.9872 127.063 13.7031C126.796 13.4162 126.425 13.2727 125.95 13.2727C125.621 13.2727 125.325 13.3423 125.064 13.4815C124.806 13.6207 124.601 13.8239 124.45 14.0909C124.303 14.358 124.229 14.6818 124.229 15.0625ZM134.438 16.3239V12.4545H135.444V19H134.438V17.892H134.37C134.216 18.2244 133.978 18.5071 133.654 18.7401C133.33 18.9702 132.921 19.0852 132.427 19.0852C132.018 19.0852 131.654 18.9957 131.336 18.8168C131.018 18.6349 130.768 18.3622 130.586 17.9986C130.404 17.6321 130.313 17.1705 130.313 16.6136V12.4545H131.319V16.5455C131.319 17.0227 131.452 17.4034 131.719 17.6875C131.989 17.9716 132.333 18.1136 132.751 18.1136C133.001 18.1136 133.255 18.0497 133.513 17.9219C133.775 17.794 133.993 17.598 134.17 17.3338C134.349 17.0696 134.438 16.733 134.438 16.3239ZM140.132 12.4545V13.3068H136.74V12.4545H140.132ZM137.729 10.8864H138.735V17.125C138.735 17.4091 138.776 17.6222 138.858 17.7642C138.943 17.9034 139.051 17.9972 139.182 18.0455C139.316 18.0909 139.456 18.1136 139.604 18.1136C139.715 18.1136 139.806 18.108 139.877 18.0966C139.948 18.0824 140.004 18.071 140.047 18.0625L140.252 18.9659C140.183 18.9915 140.088 19.017 139.966 19.0426C139.844 19.071 139.689 19.0852 139.502 19.0852C139.218 19.0852 138.939 19.0241 138.666 18.902C138.396 18.7798 138.172 18.5938 137.993 18.3438C137.817 18.0938 137.729 17.7784 137.729 17.3977V10.8864ZM142.651 15.0625V19H141.645V12.4545H142.617V13.4773H142.702C142.855 13.1449 143.088 12.8778 143.401 12.6761C143.713 12.4716 144.117 12.3693 144.611 12.3693C145.054 12.3693 145.442 12.4602 145.774 12.642C146.107 12.821 146.365 13.0938 146.55 13.4602C146.735 13.8239 146.827 14.2841 146.827 14.8409V19H145.821V14.9091C145.821 14.3949 145.688 13.9943 145.421 13.7074C145.154 13.4176 144.787 13.2727 144.321 13.2727C144 13.2727 143.713 13.3423 143.46 13.4815C143.21 13.6207 143.013 13.8239 142.868 14.0909C142.723 14.358 142.651 14.6818 142.651 15.0625ZM151.409 19.1364C150.778 19.1364 150.234 18.9972 149.777 18.7188C149.322 18.4375 148.971 18.0455 148.724 17.5426C148.48 17.0369 148.358 16.4489 148.358 15.7784C148.358 15.108 148.48 14.517 148.724 14.0057C148.971 13.4915 149.315 13.0909 149.756 12.804C150.199 12.5142 150.716 12.3693 151.307 12.3693C151.648 12.3693 151.984 12.4261 152.317 12.5398C152.649 12.6534 152.952 12.8381 153.224 13.0938C153.497 13.3466 153.714 13.6818 153.876 14.0994C154.038 14.517 154.119 15.0312 154.119 15.642V16.0682H149.074V15.1989H153.096C153.096 14.8295 153.023 14.5 152.875 14.2102C152.73 13.9205 152.523 13.6918 152.253 13.5241C151.986 13.3565 151.67 13.2727 151.307 13.2727C150.906 13.2727 150.559 13.3722 150.267 13.571C149.977 13.767 149.754 14.0227 149.598 14.3381C149.442 14.6534 149.363 14.9915 149.363 15.3523V15.9318C149.363 16.4261 149.449 16.8452 149.619 17.1889C149.792 17.5298 150.032 17.7898 150.339 17.9688C150.646 18.1449 151.003 18.233 151.409 18.233C151.673 18.233 151.912 18.196 152.125 18.1222C152.341 18.0455 152.527 17.9318 152.683 17.7812C152.839 17.6278 152.96 17.4375 153.045 17.2102L154.017 17.483C153.915 17.8125 153.743 18.1023 153.501 18.3523C153.26 18.5994 152.961 18.7926 152.606 18.9318C152.251 19.0682 151.852 19.1364 151.409 19.1364ZM156.097 21.4545C155.927 21.4545 155.775 21.4403 155.642 21.4119C155.508 21.3864 155.416 21.3608 155.365 21.3352L155.62 20.4489C155.865 20.5114 156.08 20.5341 156.268 20.517C156.455 20.5 156.622 20.4162 156.767 20.2656C156.914 20.1179 157.049 19.8778 157.171 19.5455L157.359 19.0341L154.938 12.4545H156.029L157.836 17.6705H157.904L159.711 12.4545H160.802L158.024 19.9545C157.899 20.2926 157.744 20.5724 157.559 20.794C157.374 21.0185 157.16 21.1847 156.916 21.2926C156.674 21.4006 156.401 21.4545 156.097 21.4545ZM166.766 13.9205L165.862 14.1761C165.806 14.0256 165.722 13.8793 165.611 13.7372C165.503 13.5923 165.355 13.473 165.168 13.3793C164.98 13.2855 164.74 13.2386 164.448 13.2386C164.047 13.2386 163.713 13.331 163.446 13.5156C163.182 13.6974 163.05 13.929 163.05 14.2102C163.05 14.4602 163.141 14.6577 163.323 14.8026C163.504 14.9474 163.789 15.0682 164.175 15.1648L165.146 15.4034C165.732 15.5455 166.168 15.7628 166.455 16.0554C166.742 16.3452 166.885 16.7187 166.885 17.1761C166.885 17.5511 166.777 17.8864 166.561 18.1818C166.348 18.4773 166.05 18.7102 165.666 18.8807C165.283 19.0511 164.837 19.1364 164.328 19.1364C163.661 19.1364 163.108 18.9915 162.671 18.7017C162.233 18.4119 161.956 17.9886 161.84 17.4318L162.794 17.1932C162.885 17.5455 163.057 17.8097 163.31 17.9858C163.566 18.1619 163.899 18.25 164.311 18.25C164.78 18.25 165.152 18.1506 165.428 17.9517C165.706 17.75 165.845 17.5085 165.845 17.2273C165.845 17 165.766 16.8097 165.607 16.6562C165.448 16.5 165.203 16.3835 164.874 16.3068L163.783 16.0511C163.183 15.9091 162.743 15.6889 162.462 15.3906C162.183 15.0895 162.044 14.7131 162.044 14.2614C162.044 13.892 162.148 13.5653 162.355 13.2812C162.566 12.9972 162.851 12.7741 163.212 12.6122C163.575 12.4503 163.987 12.3693 164.448 12.3693C165.095 12.3693 165.604 12.5114 165.973 12.7955C166.345 13.0795 166.61 13.4545 166.766 13.9205ZM169.899 17.8068L169.831 18.267C169.782 18.5909 169.709 18.9375 169.609 19.3068C169.513 19.6761 169.412 20.0241 169.307 20.3509C169.202 20.6776 169.115 20.9375 169.047 21.1307H168.28C168.317 20.9489 168.365 20.7088 168.425 20.4105C168.484 20.1122 168.544 19.7784 168.604 19.4091C168.666 19.0426 168.717 18.6676 168.757 18.2841L168.808 17.8068H169.899ZM177.609 19.1364C177.063 19.1364 176.582 18.9986 176.164 18.723C175.747 18.4446 175.42 18.0526 175.184 17.5469C174.948 17.0384 174.83 16.4375 174.83 15.7443C174.83 15.0568 174.948 14.4602 175.184 13.9545C175.42 13.4489 175.748 13.0582 176.169 12.7827C176.589 12.5071 177.075 12.3693 177.626 12.3693C178.052 12.3693 178.389 12.4403 178.636 12.5824C178.886 12.7216 179.076 12.8807 179.207 13.0597C179.34 13.2358 179.444 13.3807 179.518 13.4943H179.603V10.2727H180.609V19H179.637V17.9943H179.518C179.444 18.1136 179.339 18.2642 179.203 18.446C179.066 18.625 178.872 18.7855 178.619 18.9276C178.366 19.0668 178.029 19.1364 177.609 19.1364ZM177.745 18.233C178.149 18.233 178.49 18.1278 178.768 17.9176C179.046 17.7045 179.258 17.4105 179.403 17.0355C179.548 16.6577 179.62 16.2216 179.62 15.7273C179.62 15.2386 179.549 14.8111 179.407 14.4446C179.265 14.0753 179.055 13.7884 178.776 13.5838C178.498 13.3764 178.154 13.2727 177.745 13.2727C177.319 13.2727 176.964 13.3821 176.68 13.6009C176.399 13.8168 176.187 14.1108 176.045 14.483C175.906 14.8523 175.836 15.267 175.836 15.7273C175.836 16.1932 175.907 16.6165 176.049 16.9972C176.194 17.375 176.407 17.6761 176.688 17.9006C176.972 18.1222 177.325 18.233 177.745 18.233ZM182.59 19V12.4545H183.596V19H182.59ZM183.102 11.3636C182.906 11.3636 182.737 11.2969 182.595 11.1634C182.455 11.0298 182.386 10.8693 182.386 10.6818C182.386 10.4943 182.455 10.3338 182.595 10.2003C182.737 10.0668 182.906 10 183.102 10C183.298 10 183.465 10.0668 183.605 10.2003C183.747 10.3338 183.818 10.4943 183.818 10.6818C183.818 10.8693 183.747 11.0298 183.605 11.1634C183.465 11.2969 183.298 11.3636 183.102 11.3636ZM185.438 21.4545V12.4545H186.41V13.4943H186.529C186.603 13.3807 186.705 13.2358 186.836 13.0597C186.969 12.8807 187.16 12.7216 187.407 12.5824C187.657 12.4403 187.995 12.3693 188.421 12.3693C188.972 12.3693 189.458 12.5071 189.878 12.7827C190.299 13.0582 190.627 13.4489 190.863 13.9545C191.099 14.4602 191.216 15.0568 191.216 15.7443C191.216 16.4375 191.099 17.0384 190.863 17.5469C190.627 18.0526 190.3 18.4446 189.883 18.723C189.465 18.9986 188.983 19.1364 188.438 19.1364C188.018 19.1364 187.681 19.0668 187.428 18.9276C187.175 18.7855 186.981 18.625 186.844 18.446C186.708 18.2642 186.603 18.1136 186.529 17.9943H186.444V21.4545H185.438ZM186.427 15.7273C186.427 16.2216 186.499 16.6577 186.644 17.0355C186.789 17.4105 187.001 17.7045 187.279 17.9176C187.557 18.1278 187.898 18.233 188.302 18.233C188.722 18.233 189.073 18.1222 189.354 17.9006C189.638 17.6761 189.851 17.375 189.993 16.9972C190.138 16.6165 190.211 16.1932 190.211 15.7273C190.211 15.267 190.14 14.8523 189.998 14.483C189.858 14.1108 189.647 13.8168 189.363 13.6009C189.081 13.3821 188.728 13.2727 188.302 13.2727C187.893 13.2727 187.549 13.3764 187.27 13.5838C186.992 13.7884 186.782 14.0753 186.64 14.4446C186.498 14.8111 186.427 15.2386 186.427 15.7273ZM197.387 13.9205L196.483 14.1761C196.427 14.0256 196.343 13.8793 196.232 13.7372C196.124 13.5923 195.976 13.473 195.789 13.3793C195.601 13.2855 195.361 13.2386 195.069 13.2386C194.668 13.2386 194.334 13.331 194.067 13.5156C193.803 13.6974 193.671 13.929 193.671 14.2102C193.671 14.4602 193.762 14.6577 193.944 14.8026C194.126 14.9474 194.41 15.0682 194.796 15.1648L195.768 15.4034C196.353 15.5455 196.789 15.7628 197.076 16.0554C197.363 16.3452 197.506 16.7187 197.506 17.1761C197.506 17.5511 197.398 17.8864 197.182 18.1818C196.969 18.4773 196.671 18.7102 196.287 18.8807C195.904 19.0511 195.458 19.1364 194.949 19.1364C194.282 19.1364 193.729 18.9915 193.292 18.7017C192.854 18.4119 192.577 17.9886 192.461 17.4318L193.415 17.1932C193.506 17.5455 193.678 17.8097 193.931 17.9858C194.187 18.1619 194.52 18.25 194.932 18.25C195.401 18.25 195.773 18.1506 196.049 17.9517C196.327 17.75 196.466 17.5085 196.466 17.2273C196.466 17 196.387 16.8097 196.228 16.6562C196.069 16.5 195.824 16.3835 195.495 16.3068L194.404 16.0511C193.805 15.9091 193.364 15.6889 193.083 15.3906C192.805 15.0895 192.665 14.7131 192.665 14.2614C192.665 13.892 192.769 13.5653 192.976 13.2812C193.187 12.9972 193.472 12.7741 193.833 12.6122C194.197 12.4503 194.608 12.3693 195.069 12.3693C195.716 12.3693 196.225 12.5114 196.594 12.7955C196.966 13.0795 197.231 13.4545 197.387 13.9205ZM204.867 19.1193C204.293 19.1193 203.798 19.0142 203.384 18.804C202.969 18.5937 202.649 18.3054 202.425 17.9389C202.2 17.5724 202.088 17.1534 202.088 16.6818C202.088 16.3182 202.165 15.9957 202.318 15.7145C202.475 15.4304 202.689 15.1676 202.962 14.9261C203.237 14.6818 203.554 14.4375 203.912 14.1932L205.173 13.2557C205.421 13.0937 205.618 12.9205 205.766 12.7358C205.916 12.5511 205.992 12.3097 205.992 12.0114C205.992 11.7898 205.894 11.5753 205.698 11.3679C205.504 11.1605 205.25 11.0568 204.935 11.0568C204.713 11.0568 204.517 11.1136 204.347 11.2273C204.179 11.3381 204.047 11.4801 203.95 11.6534C203.857 11.8239 203.81 12 203.81 12.1818C203.81 12.3864 203.865 12.5938 203.976 12.804C204.09 13.0114 204.233 13.2244 204.406 13.4432C204.583 13.6591 204.764 13.8807 204.952 14.108L208.958 19H207.747L204.441 15.0114C204.134 14.642 203.855 14.3068 203.605 14.0057C203.355 13.7045 203.156 13.4077 203.009 13.1151C202.861 12.8224 202.787 12.5057 202.787 12.1648C202.787 11.7727 202.874 11.429 203.047 11.1335C203.223 10.8352 203.469 10.6037 203.784 10.4389C204.102 10.2713 204.475 10.1875 204.901 10.1875C205.338 10.1875 205.715 10.2727 206.03 10.4432C206.345 10.6108 206.588 10.8338 206.759 11.1122C206.929 11.3878 207.014 11.6875 207.014 12.0114C207.014 12.429 206.911 12.7912 206.703 13.098C206.496 13.4048 206.213 13.6903 205.855 13.9545L204.117 15.25C203.725 15.5398 203.459 15.821 203.32 16.0938C203.181 16.3665 203.111 16.5625 203.111 16.6818C203.111 16.9545 203.182 17.2088 203.324 17.4446C203.466 17.6804 203.666 17.8707 203.925 18.0156C204.183 18.1605 204.486 18.233 204.833 18.233C205.162 18.233 205.483 18.1634 205.796 18.0241C206.108 17.8821 206.391 17.6776 206.644 17.4105C206.899 17.1435 207.101 16.8224 207.249 16.4474C207.399 16.0724 207.475 15.6506 207.475 15.1818H208.446C208.446 15.7614 208.379 16.2344 208.246 16.6009C208.112 16.9673 207.962 17.2543 207.794 17.4616C207.627 17.669 207.492 17.8239 207.389 17.9261C207.355 17.9687 207.324 18.0114 207.296 18.054C207.267 18.0966 207.236 18.1392 207.202 18.1818C206.921 18.4972 206.566 18.733 206.137 18.8892C205.708 19.0426 205.284 19.1193 204.867 19.1193ZM218.082 13.9205L217.179 14.1761C217.122 14.0256 217.038 13.8793 216.927 13.7372C216.819 13.5923 216.672 13.473 216.484 13.3793C216.297 13.2855 216.057 13.2386 215.764 13.2386C215.363 13.2386 215.03 13.331 214.763 13.5156C214.498 13.6974 214.366 13.929 214.366 14.2102C214.366 14.4602 214.457 14.6577 214.639 14.8026C214.821 14.9474 215.105 15.0682 215.491 15.1648L216.463 15.4034C217.048 15.5455 217.484 15.7628 217.771 16.0554C218.058 16.3452 218.202 16.7187 218.202 17.1761C218.202 17.5511 218.094 17.8864 217.878 18.1818C217.665 18.4773 217.366 18.7102 216.983 18.8807C216.599 19.0511 216.153 19.1364 215.645 19.1364C214.977 19.1364 214.425 18.9915 213.987 18.7017C213.55 18.4119 213.273 17.9886 213.156 17.4318L214.111 17.1932C214.202 17.5455 214.373 17.8097 214.626 17.9858C214.882 18.1619 215.216 18.25 215.628 18.25C216.096 18.25 216.469 18.1506 216.744 17.9517C217.023 17.75 217.162 17.5085 217.162 17.2273C217.162 17 217.082 16.8097 216.923 16.6562C216.764 16.5 216.52 16.3835 216.19 16.3068L215.099 16.0511C214.5 15.9091 214.059 15.6889 213.778 15.3906C213.5 15.0895 213.361 14.7131 213.361 14.2614C213.361 13.892 213.464 13.5653 213.672 13.2812C213.882 12.9972 214.167 12.7741 214.528 12.6122C214.892 12.4503 215.304 12.3693 215.764 12.3693C216.412 12.3693 216.92 12.5114 217.29 12.7955C217.662 13.0795 217.926 13.4545 218.082 13.9205ZM219.715 19V12.4545H220.687V13.4773H220.772C220.909 13.1278 221.129 12.8565 221.433 12.6634C221.737 12.4673 222.102 12.3693 222.528 12.3693C222.96 12.3693 223.319 12.4673 223.606 12.6634C223.896 12.8565 224.122 13.1278 224.284 13.4773H224.352C224.519 13.1392 224.771 12.8707 225.106 12.6719C225.441 12.4702 225.843 12.3693 226.312 12.3693C226.897 12.3693 227.376 12.5526 227.748 12.919C228.12 13.2827 228.306 13.8494 228.306 14.6193V19H227.301V14.6193C227.301 14.1364 227.169 13.7912 226.904 13.5838C226.64 13.3764 226.329 13.2727 225.971 13.2727C225.511 13.2727 225.154 13.4119 224.901 13.6903C224.649 13.9659 224.522 14.3153 224.522 14.7386V19H223.499V14.517C223.499 14.1449 223.379 13.8452 223.137 13.6179C222.896 13.3878 222.585 13.2727 222.204 13.2727C221.943 13.2727 221.698 13.3423 221.471 13.4815C221.247 13.6207 221.065 13.8139 220.926 14.0611C220.789 14.3054 220.721 14.5881 220.721 14.9091V19H219.715ZM232.071 19.1534C231.656 19.1534 231.28 19.0753 230.942 18.919C230.604 18.7599 230.335 18.5312 230.137 18.233C229.938 17.9318 229.838 17.5682 229.838 17.142C229.838 16.767 229.912 16.4631 230.06 16.2301C230.208 15.9943 230.405 15.8097 230.652 15.6761C230.899 15.5426 231.172 15.4432 231.47 15.3778C231.771 15.3097 232.074 15.2557 232.378 15.2159C232.776 15.1648 233.098 15.1264 233.345 15.1009C233.595 15.0724 233.777 15.0256 233.891 14.9602C234.007 14.8949 234.066 14.7812 234.066 14.6193V14.5852C234.066 14.1648 233.95 13.8381 233.72 13.6051C233.493 13.3722 233.148 13.2557 232.685 13.2557C232.205 13.2557 231.828 13.3608 231.556 13.571C231.283 13.7812 231.091 14.0057 230.98 14.2443L230.026 13.9034C230.196 13.5057 230.423 13.196 230.708 12.9744C230.994 12.75 231.307 12.5937 231.645 12.5057C231.986 12.4148 232.321 12.3693 232.651 12.3693C232.861 12.3693 233.102 12.3949 233.375 12.446C233.651 12.4943 233.916 12.5952 234.172 12.7486C234.431 12.902 234.645 13.1335 234.816 13.4432C234.986 13.7528 235.071 14.1676 235.071 14.6875V19H234.066V18.1136H234.014C233.946 18.2557 233.833 18.4077 233.673 18.5696C233.514 18.7315 233.303 18.8693 233.039 18.983C232.774 19.0966 232.452 19.1534 232.071 19.1534ZM232.225 18.25C232.622 18.25 232.958 18.1719 233.23 18.0156C233.506 17.8594 233.713 17.6577 233.852 17.4105C233.994 17.1634 234.066 16.9034 234.066 16.6307V15.7102C234.023 15.7614 233.929 15.8082 233.784 15.8509C233.642 15.8906 233.477 15.9261 233.29 15.9574C233.105 15.9858 232.925 16.0114 232.749 16.0341C232.575 16.054 232.435 16.071 232.327 16.0852C232.066 16.1193 231.821 16.1747 231.594 16.2514C231.369 16.3253 231.188 16.4375 231.048 16.5881C230.912 16.7358 230.844 16.9375 230.844 17.1932C230.844 17.5426 230.973 17.8068 231.232 17.9858C231.493 18.1619 231.824 18.25 232.225 18.25ZM237.912 10.2727V19H236.907V10.2727H237.912ZM240.76 10.2727V19H239.754V10.2727H240.76ZM250.613 13.9205L249.71 14.1761C249.653 14.0256 249.569 13.8793 249.459 13.7372C249.351 13.5923 249.203 13.473 249.015 13.3793C248.828 13.2855 248.588 13.2386 248.295 13.2386C247.895 13.2386 247.561 13.331 247.294 13.5156C247.03 13.6974 246.898 13.929 246.898 14.2102C246.898 14.4602 246.988 14.6577 247.17 14.8026C247.352 14.9474 247.636 15.0682 248.023 15.1648L248.994 15.4034C249.579 15.5455 250.015 15.7628 250.302 16.0554C250.589 16.3452 250.733 16.7187 250.733 17.1761C250.733 17.5511 250.625 17.8864 250.409 18.1818C250.196 18.4773 249.898 18.7102 249.514 18.8807C249.131 19.0511 248.684 19.1364 248.176 19.1364C247.508 19.1364 246.956 18.9915 246.518 18.7017C246.081 18.4119 245.804 17.9886 245.687 17.4318L246.642 17.1932C246.733 17.5455 246.905 17.8097 247.157 17.9858C247.413 18.1619 247.747 18.25 248.159 18.25C248.628 18.25 249 18.1506 249.275 17.9517C249.554 17.75 249.693 17.5085 249.693 17.2273C249.693 17 249.613 16.8097 249.454 16.6562C249.295 16.5 249.051 16.3835 248.721 16.3068L247.631 16.0511C247.031 15.9091 246.591 15.6889 246.309 15.3906C246.031 15.0895 245.892 14.7131 245.892 14.2614C245.892 13.892 245.996 13.5653 246.203 13.2812C246.413 12.9972 246.699 12.7741 247.059 12.6122C247.423 12.4503 247.835 12.3693 248.295 12.3693C248.943 12.3693 249.452 12.5114 249.821 12.7955C250.193 13.0795 250.457 13.4545 250.613 13.9205ZM252.247 19V12.4545H253.252V19H252.247ZM252.758 11.3636C252.562 11.3636 252.393 11.2969 252.251 11.1634C252.112 11.0298 252.042 10.8693 252.042 10.6818C252.042 10.4943 252.112 10.3338 252.251 10.2003C252.393 10.0668 252.562 10 252.758 10C252.954 10 253.122 10.0668 253.261 10.2003C253.403 10.3338 253.474 10.4943 253.474 10.6818C253.474 10.8693 253.403 11.0298 253.261 11.1634C253.122 11.2969 252.954 11.3636 252.758 11.3636ZM257.566 19.1364C257.02 19.1364 256.539 18.9986 256.121 18.723C255.704 18.4446 255.377 18.0526 255.141 17.5469C254.905 17.0384 254.787 16.4375 254.787 15.7443C254.787 15.0568 254.905 14.4602 255.141 13.9545C255.377 13.4489 255.705 13.0582 256.126 12.7827C256.546 12.5071 257.032 12.3693 257.583 12.3693C258.009 12.3693 258.346 12.4403 258.593 12.5824C258.843 12.7216 259.033 12.8807 259.164 13.0597C259.297 13.2358 259.401 13.3807 259.475 13.4943H259.56V10.2727H260.566V19H259.594V17.9943H259.475C259.401 18.1136 259.296 18.2642 259.16 18.446C259.023 18.625 258.829 18.7855 258.576 18.9276C258.323 19.0668 257.986 19.1364 257.566 19.1364ZM257.702 18.233C258.106 18.233 258.447 18.1278 258.725 17.9176C259.003 17.7045 259.215 17.4105 259.36 17.0355C259.505 16.6577 259.577 16.2216 259.577 15.7273C259.577 15.2386 259.506 14.8111 259.364 14.4446C259.222 14.0753 259.012 13.7884 258.733 13.5838C258.455 13.3764 258.111 13.2727 257.702 13.2727C257.276 13.2727 256.921 13.3821 256.637 13.6009C256.356 13.8168 256.144 14.1108 256.002 14.483C255.863 14.8523 255.793 15.267 255.793 15.7273C255.793 16.1932 255.864 16.6165 256.006 16.9972C256.151 17.375 256.364 17.6761 256.645 17.9006C256.93 18.1222 257.282 18.233 257.702 18.233ZM265.292 19.1364C264.661 19.1364 264.117 18.9972 263.66 18.7188C263.205 18.4375 262.854 18.0455 262.607 17.5426C262.363 17.0369 262.241 16.4489 262.241 15.7784C262.241 15.108 262.363 14.517 262.607 14.0057C262.854 13.4915 263.198 13.0909 263.638 12.804C264.081 12.5142 264.599 12.3693 265.189 12.3693C265.53 12.3693 265.867 12.4261 266.199 12.5398C266.532 12.6534 266.834 12.8381 267.107 13.0938C267.38 13.3466 267.597 13.6818 267.759 14.0994C267.921 14.517 268.002 15.0312 268.002 15.642V16.0682H262.956V15.1989H266.979C266.979 14.8295 266.905 14.5 266.758 14.2102C266.613 13.9205 266.405 13.6918 266.135 13.5241C265.868 13.3565 265.553 13.2727 265.189 13.2727C264.789 13.2727 264.442 13.3722 264.15 13.571C263.86 13.767 263.637 14.0227 263.481 14.3381C263.324 14.6534 263.246 14.9915 263.246 15.3523V15.9318C263.246 16.4261 263.331 16.8452 263.502 17.1889C263.675 17.5298 263.915 17.7898 264.222 17.9688C264.529 18.1449 264.885 18.233 265.292 18.233C265.556 18.233 265.795 18.196 266.008 18.1222C266.224 18.0455 266.41 17.9318 266.566 17.7812C266.722 17.6278 266.843 17.4375 266.928 17.2102L267.9 17.483C267.797 17.8125 267.626 18.1023 267.384 18.3523C267.143 18.5994 266.844 18.7926 266.489 18.9318C266.134 19.0682 265.735 19.1364 265.292 19.1364ZM277.543 13.9205L276.64 14.1761C276.583 14.0256 276.499 13.8793 276.388 13.7372C276.28 13.5923 276.133 13.473 275.945 13.3793C275.758 13.2855 275.518 13.2386 275.225 13.2386C274.824 13.2386 274.491 13.331 274.224 13.5156C273.959 13.6974 273.827 13.929 273.827 14.2102C273.827 14.4602 273.918 14.6577 274.1 14.8026C274.282 14.9474 274.566 15.0682 274.952 15.1648L275.924 15.4034C276.509 15.5455 276.945 15.7628 277.232 16.0554C277.519 16.3452 277.662 16.7187 277.662 17.1761C277.662 17.5511 277.555 17.8864 277.339 18.1818C277.126 18.4773 276.827 18.7102 276.444 18.8807C276.06 19.0511 275.614 19.1364 275.106 19.1364C274.438 19.1364 273.885 18.9915 273.448 18.7017C273.01 18.4119 272.733 17.9886 272.617 17.4318L273.572 17.1932C273.662 17.5455 273.834 17.8097 274.087 17.9858C274.343 18.1619 274.677 18.25 275.089 18.25C275.557 18.25 275.93 18.1506 276.205 17.9517C276.483 17.75 276.623 17.5085 276.623 17.2273C276.623 17 276.543 16.8097 276.384 16.6562C276.225 16.5 275.981 16.3835 275.651 16.3068L274.56 16.0511C273.961 15.9091 273.52 15.6889 273.239 15.3906C272.961 15.0895 272.822 14.7131 272.822 14.2614C272.822 13.892 272.925 13.5653 273.133 13.2812C273.343 12.9972 273.628 12.7741 273.989 12.6122C274.353 12.4503 274.765 12.3693 275.225 12.3693C275.873 12.3693 276.381 12.5114 276.751 12.7955C277.123 13.0795 277.387 13.4545 277.543 13.9205ZM281.921 19.1364C281.29 19.1364 280.746 18.9972 280.289 18.7188C279.834 18.4375 279.483 18.0455 279.236 17.5426C278.992 17.0369 278.869 16.4489 278.869 15.7784C278.869 15.108 278.992 14.517 279.236 14.0057C279.483 13.4915 279.827 13.0909 280.267 12.804C280.71 12.5142 281.227 12.3693 281.818 12.3693C282.159 12.3693 282.496 12.4261 282.828 12.5398C283.161 12.6534 283.463 12.8381 283.736 13.0938C284.009 13.3466 284.226 13.6818 284.388 14.0994C284.55 14.517 284.631 15.0312 284.631 15.642V16.0682H279.585V15.1989H283.608C283.608 14.8295 283.534 14.5 283.387 14.2102C283.242 13.9205 283.034 13.6918 282.764 13.5241C282.497 13.3565 282.182 13.2727 281.818 13.2727C281.418 13.2727 281.071 13.3722 280.779 13.571C280.489 13.767 280.266 14.0227 280.11 14.3381C279.953 14.6534 279.875 14.9915 279.875 15.3523V15.9318C279.875 16.4261 279.96 16.8452 280.131 17.1889C280.304 17.5298 280.544 17.7898 280.851 17.9688C281.158 18.1449 281.514 18.233 281.921 18.233C282.185 18.233 282.423 18.196 282.637 18.1222C282.852 18.0455 283.039 17.9318 283.195 17.7812C283.351 17.6278 283.472 17.4375 283.557 17.2102L284.529 17.483C284.426 17.8125 284.254 18.1023 284.013 18.3523C283.771 18.5994 283.473 18.7926 283.118 18.9318C282.763 19.0682 282.364 19.1364 281.921 19.1364ZM286.161 19V12.4545H287.132V13.4432H287.2C287.32 13.1193 287.536 12.8565 287.848 12.6548C288.161 12.4531 288.513 12.3523 288.905 12.3523C288.979 12.3523 289.071 12.3537 289.182 12.3565C289.293 12.3594 289.377 12.3636 289.433 12.3693V13.392C289.399 13.3835 289.321 13.3707 289.199 13.3537C289.08 13.3338 288.953 13.3239 288.82 13.3239C288.502 13.3239 288.218 13.3906 287.968 13.5241C287.72 13.6548 287.524 13.8366 287.379 14.0696C287.237 14.2997 287.166 14.5625 287.166 14.858V19H286.161ZM296.177 12.4545L293.757 19H292.734L290.313 12.4545H291.404L293.211 17.6705H293.279L295.086 12.4545H296.177ZM297.504 19V12.4545H298.51V19H297.504ZM298.016 11.3636C297.82 11.3636 297.651 11.2969 297.509 11.1634C297.369 11.0298 297.3 10.8693 297.3 10.6818C297.3 10.4943 297.369 10.3338 297.509 10.2003C297.651 10.0668 297.82 10 298.016 10C298.212 10 298.379 10.0668 298.519 10.2003C298.661 10.3338 298.732 10.4943 298.732 10.6818C298.732 10.8693 298.661 11.0298 298.519 11.1634C298.379 11.2969 298.212 11.3636 298.016 11.3636ZM301.358 15.0625V19H300.352V12.4545H301.324V13.4773H301.409C301.562 13.1449 301.795 12.8778 302.108 12.6761C302.42 12.4716 302.824 12.3693 303.318 12.3693C303.761 12.3693 304.149 12.4602 304.481 12.642C304.814 12.821 305.072 13.0938 305.257 13.4602C305.442 13.8239 305.534 14.2841 305.534 14.8409V19H304.528V14.9091C304.528 14.3949 304.395 13.9943 304.128 13.7074C303.861 13.4176 303.494 13.2727 303.028 13.2727C302.707 13.2727 302.42 13.3423 302.167 13.4815C301.917 13.6207 301.72 13.8239 301.575 14.0909C301.43 14.358 301.358 14.6818 301.358 15.0625ZM310.014 21.5909C309.528 21.5909 309.11 21.5284 308.761 21.4034C308.411 21.2812 308.12 21.1193 307.887 20.9176C307.657 20.7188 307.474 20.5057 307.338 20.2784L308.139 19.7159C308.23 19.8352 308.345 19.9716 308.484 20.125C308.623 20.2812 308.813 20.4162 309.055 20.5298C309.299 20.6463 309.619 20.7045 310.014 20.7045C310.542 20.7045 310.978 20.5767 311.322 20.321C311.666 20.0653 311.838 19.6648 311.838 19.1193V17.7898H311.752C311.678 17.9091 311.573 18.0568 311.437 18.233C311.303 18.4062 311.11 18.5611 310.857 18.6974C310.607 18.831 310.269 18.8977 309.843 18.8977C309.315 18.8977 308.84 18.7727 308.42 18.5227C308.002 18.2727 307.671 17.9091 307.427 17.4318C307.186 16.9545 307.065 16.375 307.065 15.6932C307.065 15.0227 307.183 14.4389 307.419 13.9418C307.654 13.4418 307.982 13.0554 308.403 12.7827C308.823 12.5071 309.309 12.3693 309.86 12.3693C310.286 12.3693 310.624 12.4403 310.874 12.5824C311.127 12.7216 311.32 12.8807 311.454 13.0597C311.59 13.2358 311.695 13.3807 311.769 13.4943H311.872V12.4545H312.843V19.1875C312.843 19.75 312.715 20.2074 312.46 20.5597C312.207 20.9148 311.866 21.1747 311.437 21.3395C311.011 21.5071 310.536 21.5909 310.014 21.5909ZM309.98 17.9943C310.383 17.9943 310.724 17.902 311.002 17.7173C311.281 17.5327 311.492 17.267 311.637 16.9205C311.782 16.5739 311.855 16.1591 311.855 15.6761C311.855 15.2045 311.784 14.7884 311.642 14.4276C311.499 14.0668 311.289 13.7841 311.011 13.5795C310.732 13.375 310.389 13.2727 309.98 13.2727C309.553 13.2727 309.198 13.3807 308.914 13.5966C308.633 13.8125 308.421 14.1023 308.279 14.4659C308.14 14.8295 308.07 15.233 308.07 15.6761C308.07 16.1307 308.142 16.5327 308.284 16.8821C308.428 17.2287 308.642 17.5014 308.923 17.7003C309.207 17.8963 309.559 17.9943 309.98 17.9943ZM319.32 13.9205L318.417 14.1761C318.36 14.0256 318.276 13.8793 318.166 13.7372C318.058 13.5923 317.91 13.473 317.722 13.3793C317.535 13.2855 317.295 13.2386 317.002 13.2386C316.602 13.2386 316.268 13.331 316.001 13.5156C315.737 13.6974 315.605 13.929 315.605 14.2102C315.605 14.4602 315.695 14.6577 315.877 14.8026C316.059 14.9474 316.343 15.0682 316.73 15.1648L317.701 15.4034C318.286 15.5455 318.722 15.7628 319.009 16.0554C319.296 16.3452 319.44 16.7187 319.44 17.1761C319.44 17.5511 319.332 17.8864 319.116 18.1818C318.903 18.4773 318.605 18.7102 318.221 18.8807C317.838 19.0511 317.392 19.1364 316.883 19.1364C316.215 19.1364 315.663 18.9915 315.225 18.7017C314.788 18.4119 314.511 17.9886 314.394 17.4318L315.349 17.1932C315.44 17.5455 315.612 17.8097 315.865 17.9858C316.12 18.1619 316.454 18.25 316.866 18.25C317.335 18.25 317.707 18.1506 317.982 17.9517C318.261 17.75 318.4 17.5085 318.4 17.2273C318.4 17 318.32 16.8097 318.161 16.6562C318.002 16.5 317.758 16.3835 317.428 16.3068L316.338 16.0511C315.738 15.9091 315.298 15.6889 315.017 15.3906C314.738 15.0895 314.599 14.7131 314.599 14.2614C314.599 13.892 314.703 13.5653 314.91 13.2812C315.12 12.9972 315.406 12.7741 315.767 12.6122C316.13 12.4503 316.542 12.3693 317.002 12.3693C317.65 12.3693 318.159 12.5114 318.528 12.7955C318.9 13.0795 319.164 13.4545 319.32 13.9205ZM321.687 19.0682C321.476 19.0682 321.296 18.9929 321.145 18.8423C320.995 18.6918 320.92 18.5114 320.92 18.3011C320.92 18.0909 320.995 17.9105 321.145 17.7599C321.296 17.6094 321.476 17.5341 321.687 17.5341C321.897 17.5341 322.077 17.6094 322.228 17.7599C322.378 17.9105 322.454 18.0909 322.454 18.3011C322.454 18.4403 322.418 18.5682 322.347 18.6847C322.279 18.8011 322.187 18.8949 322.07 18.9659C321.956 19.0341 321.829 19.0682 321.687 19.0682ZM56.6713 28H55.6145C55.552 27.696 55.4426 27.429 55.2864 27.1989C55.133 26.9688 54.9455 26.7756 54.7239 26.6193C54.5051 26.4602 54.2623 26.3409 53.9952 26.2614C53.7282 26.1818 53.4498 26.142 53.16 26.142C52.6316 26.142 52.1529 26.2756 51.7239 26.5426C51.2978 26.8097 50.9583 27.2031 50.7054 27.723C50.4554 28.2429 50.3304 28.8807 50.3304 29.6364C50.3304 30.392 50.4554 31.0298 50.7054 31.5497C50.9583 32.0696 51.2978 32.4631 51.7239 32.7301C52.1529 32.9972 52.6316 33.1307 53.16 33.1307C53.4498 33.1307 53.7282 33.0909 53.9952 33.0114C54.2623 32.9318 54.5051 32.8139 54.7239 32.6577C54.9455 32.4986 55.133 32.304 55.2864 32.0739C55.4426 31.8409 55.552 31.5739 55.6145 31.2727H56.6713C56.5918 31.7187 56.4469 32.1179 56.2367 32.4702C56.0265 32.8224 55.7651 33.1222 55.4526 33.3693C55.1401 33.6136 54.7892 33.7997 54.4 33.9276C54.0137 34.0554 53.6003 34.1193 53.16 34.1193C52.4157 34.1193 51.7537 33.9375 51.1742 33.5739C50.5946 33.2102 50.1387 32.6932 49.8063 32.0227C49.4739 31.3523 49.3077 30.5568 49.3077 29.6364C49.3077 28.7159 49.4739 27.9205 49.8063 27.25C50.1387 26.5795 50.5946 26.0625 51.1742 25.6989C51.7537 25.3352 52.4157 25.1534 53.16 25.1534C53.6003 25.1534 54.0137 25.2173 54.4 25.3452C54.7892 25.473 55.1401 25.6605 55.4526 25.9077C55.7651 26.152 56.0265 26.4503 56.2367 26.8026C56.4469 27.152 56.5918 27.5511 56.6713 28ZM60.9018 34.1364C60.3109 34.1364 59.7924 33.9957 59.3464 33.7145C58.9032 33.4332 58.5566 33.0398 58.3066 32.5341C58.0595 32.0284 57.9359 31.4375 57.9359 30.7614C57.9359 30.0795 58.0595 29.4844 58.3066 28.9759C58.5566 28.4673 58.9032 28.0724 59.3464 27.7912C59.7924 27.5099 60.3109 27.3693 60.9018 27.3693C61.4927 27.3693 62.0098 27.5099 62.4529 27.7912C62.899 28.0724 63.2456 28.4673 63.4927 28.9759C63.7427 29.4844 63.8677 30.0795 63.8677 30.7614C63.8677 31.4375 63.7427 32.0284 63.4927 32.5341C63.2456 33.0398 62.899 33.4332 62.4529 33.7145C62.0098 33.9957 61.4927 34.1364 60.9018 34.1364ZM60.9018 33.233C61.3507 33.233 61.72 33.1179 62.0098 32.8878C62.2995 32.6577 62.514 32.3551 62.6532 31.9801C62.7924 31.6051 62.862 31.1989 62.862 30.7614C62.862 30.3239 62.7924 29.9162 62.6532 29.5384C62.514 29.1605 62.2995 28.8551 62.0098 28.6222C61.72 28.3892 61.3507 28.2727 60.9018 28.2727C60.4529 28.2727 60.0836 28.3892 59.7939 28.6222C59.5041 28.8551 59.2896 29.1605 59.1504 29.5384C59.0112 29.9162 58.9416 30.3239 58.9416 30.7614C58.9416 31.1989 59.0112 31.6051 59.1504 31.9801C59.2896 32.3551 59.5041 32.6577 59.7939 32.8878C60.0836 33.1179 60.4529 33.233 60.9018 33.233ZM65.4029 34V27.4545H66.3745V28.4773H66.4597C66.5961 28.1278 66.8162 27.8565 67.1202 27.6634C67.4242 27.4673 67.7892 27.3693 68.2154 27.3693C68.6472 27.3693 69.0066 27.4673 69.2935 27.6634C69.5833 27.8565 69.8091 28.1278 69.9711 28.4773H70.0392C70.2069 28.1392 70.4583 27.8707 70.7935 27.6719C71.1287 27.4702 71.5307 27.3693 71.9995 27.3693C72.5847 27.3693 73.0634 27.5526 73.4355 27.919C73.8077 28.2827 73.9938 28.8494 73.9938 29.6193V34H72.9881V29.6193C72.9881 29.1364 72.856 28.7912 72.5918 28.5838C72.3276 28.3764 72.0165 28.2727 71.6586 28.2727C71.1983 28.2727 70.8418 28.4119 70.589 28.6903C70.3361 28.9659 70.2097 29.3153 70.2097 29.7386V34H69.187V29.517C69.187 29.1449 69.0662 28.8452 68.8248 28.6179C68.5833 28.3878 68.2722 28.2727 67.8915 28.2727C67.6301 28.2727 67.3858 28.3423 67.1586 28.4815C66.9341 28.6207 66.7523 28.8139 66.6131 29.0611C66.4767 29.3054 66.4086 29.5881 66.4086 29.9091V34H65.4029ZM75.8326 36.4545V27.4545H76.8042V28.4943H76.9235C76.9973 28.3807 77.0996 28.2358 77.2303 28.0597C77.3638 27.8807 77.5542 27.7216 77.8013 27.5824C78.0513 27.4403 78.3894 27.3693 78.8155 27.3693C79.3667 27.3693 79.8525 27.5071 80.2729 27.7827C80.6934 28.0582 81.0215 28.4489 81.2573 28.9545C81.4931 29.4602 81.611 30.0568 81.611 30.7443C81.611 31.4375 81.4931 32.0384 81.2573 32.5469C81.0215 33.0526 80.6948 33.4446 80.2772 33.723C79.8596 33.9986 79.378 34.1364 78.8326 34.1364C78.4121 34.1364 78.0755 34.0668 77.8226 33.9276C77.5698 33.7855 77.3752 33.625 77.2388 33.446C77.1025 33.2642 76.9973 33.1136 76.9235 32.9943H76.8382V36.4545H75.8326ZM76.8212 30.7273C76.8212 31.2216 76.8936 31.6577 77.0385 32.0355C77.1834 32.4105 77.3951 32.7045 77.6735 32.9176C77.9519 33.1278 78.2928 33.233 78.6962 33.233C79.1167 33.233 79.4675 33.1222 79.7488 32.9006C80.0328 32.6761 80.2459 32.375 80.388 31.9972C80.5328 31.6165 80.6053 31.1932 80.6053 30.7273C80.6053 30.267 80.5343 29.8523 80.3922 29.483C80.253 29.1108 80.0414 28.8168 79.7573 28.6009C79.476 28.3821 79.1223 28.2727 78.6962 28.2727C78.2871 28.2727 77.9434 28.3764 77.665 28.5838C77.3865 28.7884 77.1763 29.0753 77.0343 29.4446C76.8922 29.8111 76.8212 30.2386 76.8212 30.7273ZM85.0712 34.1534C84.6564 34.1534 84.28 34.0753 83.9419 33.919C83.6039 33.7599 83.3354 33.5312 83.1365 33.233C82.9377 32.9318 82.8382 32.5682 82.8382 32.142C82.8382 31.767 82.9121 31.4631 83.0598 31.2301C83.2076 30.9943 83.405 30.8097 83.6522 30.6761C83.8993 30.5426 84.1721 30.4432 84.4703 30.3778C84.7715 30.3097 85.074 30.2557 85.378 30.2159C85.7757 30.1648 86.0982 30.1264 86.3453 30.1009C86.5953 30.0724 86.7772 30.0256 86.8908 29.9602C87.0073 29.8949 87.0655 29.7812 87.0655 29.6193V29.5852C87.0655 29.1648 86.9505 28.8381 86.7203 28.6051C86.4931 28.3722 86.1479 28.2557 85.6848 28.2557C85.2047 28.2557 84.8283 28.3608 84.5556 28.571C84.2828 28.7812 84.0911 29.0057 83.9803 29.2443L83.0257 28.9034C83.1962 28.5057 83.4235 28.196 83.7076 27.9744C83.9945 27.75 84.307 27.5937 84.6451 27.5057C84.986 27.4148 85.3212 27.3693 85.6507 27.3693C85.861 27.3693 86.1025 27.3949 86.3752 27.446C86.6507 27.4943 86.9164 27.5952 87.1721 27.7486C87.4306 27.902 87.6451 28.1335 87.8155 28.4432C87.986 28.7528 88.0712 29.1676 88.0712 29.6875V34H87.0655V33.1136H87.0144C86.9462 33.2557 86.8326 33.4077 86.6735 33.5696C86.5144 33.7315 86.3027 33.8693 86.0385 33.983C85.7743 34.0966 85.4519 34.1534 85.0712 34.1534ZM85.2246 33.25C85.6223 33.25 85.9576 33.1719 86.2303 33.0156C86.5059 32.8594 86.7132 32.6577 86.8525 32.4105C86.9945 32.1634 87.0655 31.9034 87.0655 31.6307V30.7102C87.0229 30.7614 86.9292 30.8082 86.7843 30.8509C86.6422 30.8906 86.4775 30.9261 86.29 30.9574C86.1053 30.9858 85.9249 31.0114 85.7488 31.0341C85.5755 31.054 85.4348 31.071 85.3269 31.0852C85.0655 31.1193 84.8212 31.1747 84.5939 31.2514C84.3695 31.3253 84.1877 31.4375 84.0485 31.5881C83.9121 31.7358 83.8439 31.9375 83.8439 32.1932C83.8439 32.5426 83.9732 32.8068 84.2317 32.9858C84.4931 33.1619 84.824 33.25 85.2246 33.25ZM92.5659 34.1364C91.9522 34.1364 91.4238 33.9915 90.9806 33.7017C90.5375 33.4119 90.1966 33.0128 89.9579 32.5043C89.7193 31.9957 89.6 31.4148 89.6 30.7614C89.6 30.0966 89.7221 29.5099 89.9664 29.0014C90.2136 28.4901 90.5574 28.0909 90.9977 27.804C91.4409 27.5142 91.9579 27.3693 92.5488 27.3693C93.0091 27.3693 93.4238 27.4545 93.7931 27.625C94.1625 27.7955 94.465 28.0341 94.7008 28.3409C94.9366 28.6477 95.0829 29.0057 95.1397 29.4148H94.1341C94.0574 29.1165 93.8869 28.8523 93.6227 28.6222C93.3613 28.3892 93.0091 28.2727 92.5659 28.2727C92.1738 28.2727 91.8301 28.375 91.5346 28.5795C91.242 28.7812 91.0133 29.0668 90.8485 29.4361C90.6866 29.8026 90.6056 30.233 90.6056 30.7273C90.6056 31.233 90.6852 31.6733 90.8443 32.0483C91.0062 32.4233 91.2335 32.7145 91.5261 32.9219C91.8216 33.1293 92.1681 33.233 92.5659 33.233C92.8272 33.233 93.0645 33.1875 93.2775 33.0966C93.4906 33.0057 93.671 32.875 93.8187 32.7045C93.9664 32.5341 94.0716 32.3295 94.1341 32.0909H95.1397C95.0829 32.4773 94.9423 32.8253 94.7179 33.1349C94.4963 33.4418 94.2022 33.6861 93.8358 33.8679C93.4721 34.0469 93.0488 34.1364 92.5659 34.1364ZM99.4565 27.4545V28.3068H96.0645V27.4545H99.4565ZM97.0531 25.8864H98.0588V32.125C98.0588 32.4091 98.1 32.6222 98.1824 32.7642C98.2676 32.9034 98.3755 32.9972 98.5062 33.0455C98.6397 33.0909 98.7804 33.1136 98.9281 33.1136C99.0389 33.1136 99.1298 33.108 99.2008 33.0966C99.2718 33.0824 99.3287 33.071 99.3713 33.0625L99.5758 33.9659C99.5076 33.9915 99.4125 34.017 99.2903 34.0426C99.1681 34.071 99.0133 34.0852 98.8258 34.0852C98.5417 34.0852 98.2633 34.0241 97.9906 33.902C97.7207 33.7798 97.4963 33.5938 97.3173 33.3438C97.1412 33.0938 97.0531 32.7784 97.0531 32.3977V25.8864ZM102.469 32.8068L102.401 33.267C102.353 33.5909 102.279 33.9375 102.18 34.3068C102.083 34.6761 101.982 35.0241 101.877 35.3509C101.772 35.6776 101.685 35.9375 101.617 36.1307H100.85C100.887 35.9489 100.935 35.7088 100.995 35.4105C101.055 35.1122 101.114 34.7784 101.174 34.4091C101.236 34.0426 101.287 33.6676 101.327 33.2841L101.378 32.8068H102.469ZM108.713 25.2727V34H107.708V25.2727H108.713ZM113.3 34.1364C112.669 34.1364 112.125 33.9972 111.667 33.7188C111.213 33.4375 110.862 33.0455 110.615 32.5426C110.371 32.0369 110.248 31.4489 110.248 30.7784C110.248 30.108 110.371 29.517 110.615 29.0057C110.862 28.4915 111.206 28.0909 111.646 27.804C112.089 27.5142 112.606 27.3693 113.197 27.3693C113.538 27.3693 113.875 27.4261 114.207 27.5398C114.54 27.6534 114.842 27.8381 115.115 28.0938C115.388 28.3466 115.605 28.6818 115.767 29.0994C115.929 29.517 116.01 30.0312 116.01 30.642V31.0682H110.964V30.1989H114.987C114.987 29.8295 114.913 29.5 114.765 29.2102C114.621 28.9205 114.413 28.6918 114.143 28.5241C113.876 28.3565 113.561 28.2727 113.197 28.2727C112.797 28.2727 112.45 28.3722 112.157 28.571C111.868 28.767 111.645 29.0227 111.488 29.3381C111.332 29.6534 111.254 29.9915 111.254 30.3523V30.9318C111.254 31.4261 111.339 31.8452 111.51 32.1889C111.683 32.5298 111.923 32.7898 112.23 32.9688C112.537 33.1449 112.893 33.233 113.3 33.233C113.564 33.233 113.802 33.196 114.015 33.1222C114.231 33.0455 114.417 32.9318 114.574 32.7812C114.73 32.6278 114.851 32.4375 114.936 32.2102L115.907 32.483C115.805 32.8125 115.633 33.1023 115.392 33.3523C115.15 33.5994 114.852 33.7926 114.497 33.9318C114.142 34.0682 113.743 34.1364 113.3 34.1364ZM119.466 34.1534C119.051 34.1534 118.675 34.0753 118.336 33.919C117.998 33.7599 117.73 33.5312 117.531 33.233C117.332 32.9318 117.233 32.5682 117.233 32.142C117.233 31.767 117.307 31.4631 117.454 31.2301C117.602 30.9943 117.8 30.8097 118.047 30.6761C118.294 30.5426 118.567 30.4432 118.865 30.3778C119.166 30.3097 119.469 30.2557 119.773 30.2159C120.17 30.1648 120.493 30.1264 120.74 30.1009C120.99 30.0724 121.172 30.0256 121.285 29.9602C121.402 29.8949 121.46 29.7812 121.46 29.6193V29.5852C121.46 29.1648 121.345 28.8381 121.115 28.6051C120.888 28.3722 120.542 28.2557 120.079 28.2557C119.599 28.2557 119.223 28.3608 118.95 28.571C118.677 28.7812 118.486 29.0057 118.375 29.2443L117.42 28.9034C117.591 28.5057 117.818 28.196 118.102 27.9744C118.389 27.75 118.702 27.5937 119.04 27.5057C119.381 27.4148 119.716 27.3693 120.045 27.3693C120.256 27.3693 120.497 27.3949 120.77 27.446C121.045 27.4943 121.311 27.5952 121.567 27.7486C121.825 27.902 122.04 28.1335 122.21 28.4432C122.381 28.7528 122.466 29.1676 122.466 29.6875V34H121.46V33.1136H121.409C121.341 33.2557 121.227 33.4077 121.068 33.5696C120.909 33.7315 120.697 33.8693 120.433 33.983C120.169 34.0966 119.846 34.1534 119.466 34.1534ZM119.619 33.25C120.017 33.25 120.352 33.1719 120.625 33.0156C120.9 32.8594 121.108 32.6577 121.247 32.4105C121.389 32.1634 121.46 31.9034 121.46 31.6307V30.7102C121.417 30.7614 121.324 30.8082 121.179 30.8509C121.037 30.8906 120.872 30.9261 120.684 30.9574C120.5 30.9858 120.319 31.0114 120.143 31.0341C119.97 31.054 119.829 31.071 119.721 31.0852C119.46 31.1193 119.216 31.1747 118.988 31.2514C118.764 31.3253 118.582 31.4375 118.443 31.5881C118.307 31.7358 118.238 31.9375 118.238 32.1932C118.238 32.5426 118.368 32.8068 118.626 32.9858C118.888 33.1619 119.219 33.25 119.619 33.25ZM125.239 31.6136L125.222 30.3693H125.426L128.29 27.4545H129.534L126.483 30.5398H126.398L125.239 31.6136ZM124.301 34V25.2727H125.307V34H124.301ZM128.46 34L125.904 30.7614L126.619 30.0625L129.739 34H128.46ZM134.028 29.7898V30.7273H130.21V29.7898H134.028ZM135.797 34V27.4545H136.769V28.4432H136.837C136.956 28.1193 137.172 27.8565 137.485 27.6548C137.797 27.4531 138.15 27.3523 138.542 27.3523C138.616 27.3523 138.708 27.3537 138.819 27.3565C138.93 27.3594 139.013 27.3636 139.07 27.3693V28.392C139.036 28.3835 138.958 28.3707 138.836 28.3537C138.716 28.3338 138.59 28.3239 138.456 28.3239C138.138 28.3239 137.854 28.3906 137.604 28.5241C137.357 28.6548 137.161 28.8366 137.016 29.0696C136.874 29.2997 136.803 29.5625 136.803 29.858V34H135.797ZM142.807 34.1364C142.177 34.1364 141.633 33.9972 141.175 33.7188C140.721 33.4375 140.37 33.0455 140.123 32.5426C139.878 32.0369 139.756 31.4489 139.756 30.7784C139.756 30.108 139.878 29.517 140.123 29.0057C140.37 28.4915 140.714 28.0909 141.154 27.804C141.597 27.5142 142.114 27.3693 142.705 27.3693C143.046 27.3693 143.383 27.4261 143.715 27.5398C144.047 27.6534 144.35 27.8381 144.623 28.0938C144.895 28.3466 145.113 28.6818 145.275 29.0994C145.437 29.517 145.518 30.0312 145.518 30.642V31.0682H140.472V30.1989H144.495C144.495 29.8295 144.421 29.5 144.273 29.2102C144.128 28.9205 143.921 28.6918 143.651 28.5241C143.384 28.3565 143.069 28.2727 142.705 28.2727C142.305 28.2727 141.958 28.3722 141.665 28.571C141.376 28.767 141.153 29.0227 140.996 29.3381C140.84 29.6534 140.762 29.9915 140.762 30.3523V30.9318C140.762 31.4261 140.847 31.8452 141.018 32.1889C141.191 32.5298 141.431 32.7898 141.738 32.9688C142.045 33.1449 142.401 33.233 142.807 33.233C143.072 33.233 143.31 33.196 143.523 33.1222C143.739 33.0455 143.925 32.9318 144.081 32.7812C144.238 32.6278 144.358 32.4375 144.444 32.2102L145.415 32.483C145.313 32.8125 145.141 33.1023 144.9 33.3523C144.658 33.5994 144.36 33.7926 144.005 33.9318C143.65 34.0682 143.251 34.1364 142.807 34.1364ZM151.684 28.9205L150.78 29.1761C150.724 29.0256 150.64 28.8793 150.529 28.7372C150.421 28.5923 150.273 28.473 150.086 28.3793C149.898 28.2855 149.658 28.2386 149.366 28.2386C148.965 28.2386 148.631 28.331 148.364 28.5156C148.1 28.6974 147.968 28.929 147.968 29.2102C147.968 29.4602 148.059 29.6577 148.241 29.8026C148.422 29.9474 148.706 30.0682 149.093 30.1648L150.064 30.4034C150.65 30.5455 151.086 30.7628 151.373 31.0554C151.66 31.3452 151.803 31.7187 151.803 32.1761C151.803 32.5511 151.695 32.8864 151.479 33.1818C151.266 33.4773 150.968 33.7102 150.584 33.8807C150.201 34.0511 149.755 34.1364 149.246 34.1364C148.579 34.1364 148.026 33.9915 147.589 33.7017C147.151 33.4119 146.874 32.9886 146.758 32.4318L147.712 32.1932C147.803 32.5455 147.975 32.8097 148.228 32.9858C148.483 33.1619 148.817 33.25 149.229 33.25C149.698 33.25 150.07 33.1506 150.346 32.9517C150.624 32.75 150.763 32.5085 150.763 32.2273C150.763 32 150.684 31.8097 150.525 31.6562C150.366 31.5 150.121 31.3835 149.792 31.3068L148.701 31.0511C148.101 30.9091 147.661 30.6889 147.38 30.3906C147.101 30.0895 146.962 29.7131 146.962 29.2614C146.962 28.892 147.066 28.5653 147.273 28.2812C147.483 27.9972 147.769 27.7741 148.13 27.6122C148.493 27.4503 148.905 27.3693 149.366 27.3693C150.013 27.3693 150.522 27.5114 150.891 27.7955C151.263 28.0795 151.528 28.4545 151.684 28.9205ZM153.317 34V27.4545H154.323V34H153.317ZM153.828 26.3636C153.632 26.3636 153.463 26.2969 153.321 26.1634C153.182 26.0298 153.112 25.8693 153.112 25.6818C153.112 25.4943 153.182 25.3338 153.321 25.2003C153.463 25.0668 153.632 25 153.828 25C154.024 25 154.192 25.0668 154.331 25.2003C154.473 25.3338 154.544 25.4943 154.544 25.6818C154.544 25.8693 154.473 26.0298 154.331 26.1634C154.192 26.2969 154.024 26.3636 153.828 26.3636ZM160.801 28.9205L159.898 29.1761C159.841 29.0256 159.757 28.8793 159.646 28.7372C159.538 28.5923 159.39 28.473 159.203 28.3793C159.015 28.2855 158.775 28.2386 158.483 28.2386C158.082 28.2386 157.748 28.331 157.481 28.5156C157.217 28.6974 157.085 28.929 157.085 29.2102C157.085 29.4602 157.176 29.6577 157.358 29.8026C157.54 29.9474 157.824 30.0682 158.21 30.1648L159.182 30.4034C159.767 30.5455 160.203 30.7628 160.49 31.0554C160.777 31.3452 160.92 31.7187 160.92 32.1761C160.92 32.5511 160.812 32.8864 160.596 33.1818C160.383 33.4773 160.085 33.7102 159.702 33.8807C159.318 34.0511 158.872 34.1364 158.363 34.1364C157.696 34.1364 157.143 33.9915 156.706 33.7017C156.268 33.4119 155.991 32.9886 155.875 32.4318L156.829 32.1932C156.92 32.5455 157.092 32.8097 157.345 32.9858C157.601 33.1619 157.934 33.25 158.346 33.25C158.815 33.25 159.187 33.1506 159.463 32.9517C159.741 32.75 159.881 32.5085 159.881 32.2273C159.881 32 159.801 31.8097 159.642 31.6562C159.483 31.5 159.238 31.3835 158.909 31.3068L157.818 31.0511C157.219 30.9091 156.778 30.6889 156.497 30.3906C156.219 30.0895 156.079 29.7131 156.079 29.2614C156.079 28.892 156.183 28.5653 156.39 28.2812C156.601 27.9972 156.886 27.7741 157.247 27.6122C157.611 27.4503 158.023 27.3693 158.483 27.3693C159.131 27.3693 159.639 27.5114 160.008 27.7955C160.381 28.0795 160.645 28.4545 160.801 28.9205ZM165.281 27.4545V28.3068H161.889V27.4545H165.281ZM162.877 25.8864H163.883V32.125C163.883 32.4091 163.924 32.6222 164.007 32.7642C164.092 32.9034 164.2 32.9972 164.33 33.0455C164.464 33.0909 164.605 33.1136 164.752 33.1136C164.863 33.1136 164.954 33.108 165.025 33.0966C165.096 33.0824 165.153 33.071 165.195 33.0625L165.4 33.9659C165.332 33.9915 165.237 34.017 165.115 34.0426C164.992 34.071 164.838 34.0852 164.65 34.0852C164.366 34.0852 164.088 34.0241 163.815 33.902C163.545 33.7798 163.32 33.5938 163.142 33.3438C162.965 33.0938 162.877 32.7784 162.877 32.3977V25.8864ZM168.72 34.1534C168.305 34.1534 167.928 34.0753 167.59 33.919C167.252 33.7599 166.984 33.5312 166.785 33.233C166.586 32.9318 166.487 32.5682 166.487 32.142C166.487 31.767 166.561 31.4631 166.708 31.2301C166.856 30.9943 167.053 30.8097 167.301 30.6761C167.548 30.5426 167.82 30.4432 168.119 30.3778C168.42 30.3097 168.722 30.2557 169.026 30.2159C169.424 30.1648 169.747 30.1264 169.994 30.1009C170.244 30.0724 170.426 30.0256 170.539 29.9602C170.656 29.8949 170.714 29.7812 170.714 29.6193V29.5852C170.714 29.1648 170.599 28.8381 170.369 28.6051C170.142 28.3722 169.796 28.2557 169.333 28.2557C168.853 28.2557 168.477 28.3608 168.204 28.571C167.931 28.7812 167.74 29.0057 167.629 29.2443L166.674 28.9034C166.845 28.5057 167.072 28.196 167.356 27.9744C167.643 27.75 167.955 27.5937 168.294 27.5057C168.634 27.4148 168.97 27.3693 169.299 27.3693C169.509 27.3693 169.751 27.3949 170.024 27.446C170.299 27.4943 170.565 27.5952 170.82 27.7486C171.079 27.902 171.294 28.1335 171.464 28.4432C171.634 28.7528 171.72 29.1676 171.72 29.6875V34H170.714V33.1136H170.663C170.595 33.2557 170.481 33.4077 170.322 33.5696C170.163 33.7315 169.951 33.8693 169.687 33.983C169.423 34.0966 169.1 34.1534 168.72 34.1534ZM168.873 33.25C169.271 33.25 169.606 33.1719 169.879 33.0156C170.154 32.8594 170.362 32.6577 170.501 32.4105C170.643 32.1634 170.714 31.9034 170.714 31.6307V30.7102C170.671 30.7614 170.578 30.8082 170.433 30.8509C170.291 30.8906 170.126 30.9261 169.938 30.9574C169.754 30.9858 169.573 31.0114 169.397 31.0341C169.224 31.054 169.083 31.071 168.975 31.0852C168.714 31.1193 168.47 31.1747 168.242 31.2514C168.018 31.3253 167.836 31.4375 167.697 31.5881C167.561 31.7358 167.492 31.9375 167.492 32.1932C167.492 32.5426 167.622 32.8068 167.88 32.9858C168.142 33.1619 168.472 33.25 168.873 33.25ZM174.561 30.0625V34H173.555V27.4545H174.527V28.4773H174.612C174.765 28.1449 174.998 27.8778 175.311 27.6761C175.623 27.4716 176.027 27.3693 176.521 27.3693C176.964 27.3693 177.352 27.4602 177.684 27.642C178.017 27.821 178.275 28.0938 178.46 28.4602C178.645 28.8239 178.737 29.2841 178.737 29.8409V34H177.731V29.9091C177.731 29.3949 177.598 28.9943 177.331 28.7074C177.064 28.4176 176.697 28.2727 176.231 28.2727C175.91 28.2727 175.623 28.3423 175.371 28.4815C175.121 28.6207 174.923 28.8239 174.778 29.0909C174.633 29.358 174.561 29.6818 174.561 30.0625ZM183.421 27.4545V28.3068H180.029V27.4545H183.421ZM181.018 25.8864H182.024V32.125C182.024 32.4091 182.065 32.6222 182.147 32.7642C182.232 32.9034 182.34 32.9972 182.471 33.0455C182.605 33.0909 182.745 33.1136 182.893 33.1136C183.004 33.1136 183.095 33.108 183.166 33.0966C183.237 33.0824 183.294 33.071 183.336 33.0625L183.541 33.9659C183.472 33.9915 183.377 34.017 183.255 34.0426C183.133 34.071 182.978 34.0852 182.791 34.0852C182.507 34.0852 182.228 34.0241 181.955 33.902C181.686 33.7798 181.461 33.5938 181.282 33.3438C181.106 33.0938 181.018 32.7784 181.018 32.3977V25.8864ZM190.781 34.1193C190.207 34.1193 189.713 34.0142 189.298 33.804C188.883 33.5937 188.563 33.3054 188.339 32.9389C188.115 32.5724 188.002 32.1534 188.002 31.6818C188.002 31.3182 188.079 30.9957 188.232 30.7145C188.389 30.4304 188.603 30.1676 188.876 29.9261C189.151 29.6818 189.468 29.4375 189.826 29.1932L191.088 28.2557C191.335 28.0937 191.532 27.9205 191.68 27.7358C191.83 27.5511 191.906 27.3097 191.906 27.0114C191.906 26.7898 191.808 26.5753 191.612 26.3679C191.419 26.1605 191.164 26.0568 190.849 26.0568C190.627 26.0568 190.431 26.1136 190.261 26.2273C190.093 26.3381 189.961 26.4801 189.865 26.6534C189.771 26.8239 189.724 27 189.724 27.1818C189.724 27.3864 189.779 27.5938 189.89 27.804C190.004 28.0114 190.147 28.2244 190.32 28.4432C190.497 28.6591 190.678 28.8807 190.866 29.108L194.872 34H193.661L190.355 30.0114C190.048 29.642 189.769 29.3068 189.519 29.0057C189.269 28.7045 189.07 28.4077 188.923 28.1151C188.775 27.8224 188.701 27.5057 188.701 27.1648C188.701 26.7727 188.788 26.429 188.961 26.1335C189.137 25.8352 189.383 25.6037 189.698 25.4389C190.017 25.2713 190.389 25.1875 190.815 25.1875C191.252 25.1875 191.629 25.2727 191.944 25.4432C192.259 25.6108 192.502 25.8338 192.673 26.1122C192.843 26.3878 192.928 26.6875 192.928 27.0114C192.928 27.429 192.825 27.7912 192.617 28.098C192.41 28.4048 192.127 28.6903 191.769 28.9545L190.031 30.25C189.639 30.5398 189.373 30.821 189.234 31.0938C189.095 31.3665 189.025 31.5625 189.025 31.6818C189.025 31.9545 189.096 32.2088 189.238 32.4446C189.38 32.6804 189.58 32.8707 189.839 33.0156C190.097 33.1605 190.4 33.233 190.747 33.233C191.076 33.233 191.397 33.1634 191.71 33.0241C192.022 32.8821 192.305 32.6776 192.558 32.4105C192.813 32.1435 193.015 31.8224 193.163 31.4474C193.313 31.0724 193.389 30.6506 193.389 30.1818H194.36C194.36 30.7614 194.294 31.2344 194.16 31.6009C194.026 31.9673 193.876 32.2543 193.708 32.4616C193.541 32.669 193.406 32.8239 193.303 32.9261C193.269 32.9687 193.238 33.0114 193.21 33.054C193.181 33.0966 193.15 33.1392 193.116 33.1818C192.835 33.4972 192.48 33.733 192.051 33.8892C191.622 34.0426 191.198 34.1193 190.781 34.1193ZM202.275 27.4545V28.3068H198.746V27.4545H202.275ZM199.803 34V26.5511C199.803 26.1761 199.891 25.8636 200.067 25.6136C200.243 25.3636 200.472 25.1761 200.753 25.0511C201.035 24.9261 201.331 24.8636 201.644 24.8636C201.891 24.8636 202.093 24.8835 202.249 24.9233C202.405 24.9631 202.522 25 202.599 25.0341L202.309 25.9034C202.258 25.8864 202.187 25.8651 202.096 25.8395C202.008 25.8139 201.891 25.8011 201.746 25.8011C201.414 25.8011 201.174 25.8849 201.026 26.0526C200.881 26.2202 200.809 26.4659 200.809 26.7898V34H199.803ZM206.074 34.1364C205.483 34.1364 204.964 33.9957 204.518 33.7145C204.075 33.4332 203.729 33.0398 203.479 32.5341C203.231 32.0284 203.108 31.4375 203.108 30.7614C203.108 30.0795 203.231 29.4844 203.479 28.9759C203.729 28.4673 204.075 28.0724 204.518 27.7912C204.964 27.5099 205.483 27.3693 206.074 27.3693C206.665 27.3693 207.182 27.5099 207.625 27.7912C208.071 28.0724 208.417 28.4673 208.665 28.9759C208.915 29.4844 209.04 30.0795 209.04 30.7614C209.04 31.4375 208.915 32.0284 208.665 32.5341C208.417 33.0398 208.071 33.4332 207.625 33.7145C207.182 33.9957 206.665 34.1364 206.074 34.1364ZM206.074 33.233C206.523 33.233 206.892 33.1179 207.182 32.8878C207.471 32.6577 207.686 32.3551 207.825 31.9801C207.964 31.6051 208.034 31.1989 208.034 30.7614C208.034 30.3239 207.964 29.9162 207.825 29.5384C207.686 29.1605 207.471 28.8551 207.182 28.6222C206.892 28.3892 206.523 28.2727 206.074 28.2727C205.625 28.2727 205.256 28.3892 204.966 28.6222C204.676 28.8551 204.461 29.1605 204.322 29.5384C204.183 29.9162 204.113 30.3239 204.113 30.7614C204.113 31.1989 204.183 31.6051 204.322 31.9801C204.461 32.3551 204.676 32.6577 204.966 32.8878C205.256 33.1179 205.625 33.233 206.074 33.233ZM213.234 34.1364C212.643 34.1364 212.124 33.9957 211.678 33.7145C211.235 33.4332 210.889 33.0398 210.639 32.5341C210.392 32.0284 210.268 31.4375 210.268 30.7614C210.268 30.0795 210.392 29.4844 210.639 28.9759C210.889 28.4673 211.235 28.0724 211.678 27.7912C212.124 27.5099 212.643 27.3693 213.234 27.3693C213.825 27.3693 214.342 27.5099 214.785 27.7912C215.231 28.0724 215.578 28.4673 215.825 28.9759C216.075 29.4844 216.2 30.0795 216.2 30.7614C216.2 31.4375 216.075 32.0284 215.825 32.5341C215.578 33.0398 215.231 33.4332 214.785 33.7145C214.342 33.9957 213.825 34.1364 213.234 34.1364ZM213.234 33.233C213.683 33.233 214.052 33.1179 214.342 32.8878C214.632 32.6577 214.846 32.3551 214.985 31.9801C215.124 31.6051 215.194 31.1989 215.194 30.7614C215.194 30.3239 215.124 29.9162 214.985 29.5384C214.846 29.1605 214.632 28.8551 214.342 28.6222C214.052 28.3892 213.683 28.2727 213.234 28.2727C212.785 28.2727 212.416 28.3892 212.126 28.6222C211.836 28.8551 211.622 29.1605 211.482 29.5384C211.343 29.9162 211.274 30.3239 211.274 30.7614C211.274 31.1989 211.343 31.6051 211.482 31.9801C211.622 32.3551 211.836 32.6577 212.126 32.8878C212.416 33.1179 212.785 33.233 213.234 33.233ZM220.206 34.1364C219.661 34.1364 219.18 33.9986 218.762 33.723C218.344 33.4446 218.018 33.0526 217.782 32.5469C217.546 32.0384 217.428 31.4375 217.428 30.7443C217.428 30.0568 217.546 29.4602 217.782 28.9545C218.018 28.4489 218.346 28.0582 218.766 27.7827C219.187 27.5071 219.672 27.3693 220.224 27.3693C220.65 27.3693 220.986 27.4403 221.233 27.5824C221.483 27.7216 221.674 27.8807 221.805 28.0597C221.938 28.2358 222.042 28.3807 222.116 28.4943H222.201V25.2727H223.206V34H222.235V32.9943H222.116C222.042 33.1136 221.937 33.2642 221.8 33.446C221.664 33.625 221.469 33.7855 221.216 33.9276C220.964 34.0668 220.627 34.1364 220.206 34.1364ZM220.343 33.233C220.746 33.233 221.087 33.1278 221.366 32.9176C221.644 32.7045 221.856 32.4105 222.001 32.0355C222.145 31.6577 222.218 31.2216 222.218 30.7273C222.218 30.2386 222.147 29.8111 222.005 29.4446C221.863 29.0753 221.653 28.7884 221.374 28.5838C221.096 28.3764 220.752 28.2727 220.343 28.2727C219.917 28.2727 219.562 28.3821 219.278 28.6009C218.996 28.8168 218.785 29.1108 218.643 29.483C218.503 29.8523 218.434 30.267 218.434 30.7273C218.434 31.1932 218.505 31.6165 218.647 31.9972C218.792 32.375 219.005 32.6761 219.286 32.9006C219.57 33.1222 219.922 33.233 220.343 33.233ZM228.938 29.7898V30.7273H225.12V29.7898H228.938ZM235.344 28.9205L234.441 29.1761C234.384 29.0256 234.3 28.8793 234.189 28.7372C234.081 28.5923 233.933 28.473 233.746 28.3793C233.558 28.2855 233.318 28.2386 233.026 28.2386C232.625 28.2386 232.291 28.331 232.024 28.5156C231.76 28.6974 231.628 28.929 231.628 29.2102C231.628 29.4602 231.719 29.6577 231.901 29.8026C232.083 29.9474 232.367 30.0682 232.753 30.1648L233.725 30.4034C234.31 30.5455 234.746 30.7628 235.033 31.0554C235.32 31.3452 235.463 31.7187 235.463 32.1761C235.463 32.5511 235.355 32.8864 235.139 33.1818C234.926 33.4773 234.628 33.7102 234.244 33.8807C233.861 34.0511 233.415 34.1364 232.906 34.1364C232.239 34.1364 231.686 33.9915 231.249 33.7017C230.811 33.4119 230.534 32.9886 230.418 32.4318L231.372 32.1932C231.463 32.5455 231.635 32.8097 231.888 32.9858C232.144 33.1619 232.477 33.25 232.889 33.25C233.358 33.25 233.73 33.1506 234.006 32.9517C234.284 32.75 234.423 32.5085 234.423 32.2273C234.423 32 234.344 31.8097 234.185 31.6562C234.026 31.5 233.781 31.3835 233.452 31.3068L232.361 31.0511C231.762 30.9091 231.321 30.6889 231.04 30.3906C230.762 30.0895 230.622 29.7131 230.622 29.2614C230.622 28.892 230.726 28.5653 230.933 28.2812C231.144 27.9972 231.429 27.7741 231.79 27.6122C232.154 27.4503 232.566 27.3693 233.026 27.3693C233.673 27.3693 234.182 27.5114 234.551 27.7955C234.923 28.0795 235.188 28.4545 235.344 28.9205ZM238.903 34.1534C238.488 34.1534 238.112 34.0753 237.774 33.919C237.436 33.7599 237.167 33.5312 236.969 33.233C236.77 32.9318 236.67 32.5682 236.67 32.142C236.67 31.767 236.744 31.4631 236.892 31.2301C237.04 30.9943 237.237 30.8097 237.484 30.6761C237.731 30.5426 238.004 30.4432 238.302 30.3778C238.604 30.3097 238.906 30.2557 239.21 30.2159C239.608 30.1648 239.93 30.1264 240.177 30.1009C240.427 30.0724 240.609 30.0256 240.723 29.9602C240.839 29.8949 240.898 29.7812 240.898 29.6193V29.5852C240.898 29.1648 240.782 28.8381 240.552 28.6051C240.325 28.3722 239.98 28.2557 239.517 28.2557C239.037 28.2557 238.66 28.3608 238.388 28.571C238.115 28.7812 237.923 29.0057 237.812 29.2443L236.858 28.9034C237.028 28.5057 237.256 28.196 237.54 27.9744C237.827 27.75 238.139 27.5937 238.477 27.5057C238.818 27.4148 239.153 27.3693 239.483 27.3693C239.693 27.3693 239.934 27.3949 240.207 27.446C240.483 27.4943 240.748 27.5952 241.004 27.7486C241.263 27.902 241.477 28.1335 241.648 28.4432C241.818 28.7528 241.903 29.1676 241.903 29.6875V34H240.898V33.1136H240.846C240.778 33.2557 240.665 33.4077 240.506 33.5696C240.346 33.7315 240.135 33.8693 239.871 33.983C239.606 34.0966 239.284 34.1534 238.903 34.1534ZM239.057 33.25C239.454 33.25 239.79 33.1719 240.062 33.0156C240.338 32.8594 240.545 32.6577 240.684 32.4105C240.827 32.1634 240.898 31.9034 240.898 31.6307V30.7102C240.855 30.7614 240.761 30.8082 240.616 30.8509C240.474 30.8906 240.309 30.9261 240.122 30.9574C239.937 30.9858 239.757 31.0114 239.581 31.0341C239.407 31.054 239.267 31.071 239.159 31.0852C238.898 31.1193 238.653 31.1747 238.426 31.2514C238.202 31.3253 238.02 31.4375 237.881 31.5881C237.744 31.7358 237.676 31.9375 237.676 32.1932C237.676 32.5426 237.805 32.8068 238.064 32.9858C238.325 33.1619 238.656 33.25 239.057 33.25ZM246.654 27.4545V28.3068H243.125V27.4545H246.654ZM244.182 34V26.5511C244.182 26.1761 244.27 25.8636 244.446 25.6136C244.622 25.3636 244.851 25.1761 245.132 25.0511C245.414 24.9261 245.71 24.8636 246.023 24.8636C246.27 24.8636 246.472 24.8835 246.628 24.9233C246.784 24.9631 246.901 25 246.977 25.0341L246.688 25.9034C246.637 25.8864 246.566 25.8651 246.475 25.8395C246.387 25.8139 246.27 25.8011 246.125 25.8011C245.793 25.8011 245.553 25.8849 245.405 26.0526C245.26 26.2202 245.188 26.4659 245.188 26.7898V34H244.182ZM250.538 34.1364C249.907 34.1364 249.363 33.9972 248.906 33.7188C248.451 33.4375 248.1 33.0455 247.853 32.5426C247.609 32.0369 247.487 31.4489 247.487 30.7784C247.487 30.108 247.609 29.517 247.853 29.0057C248.1 28.4915 248.444 28.0909 248.884 27.804C249.328 27.5142 249.845 27.3693 250.436 27.3693C250.776 27.3693 251.113 27.4261 251.445 27.5398C251.778 27.6534 252.08 27.8381 252.353 28.0938C252.626 28.3466 252.843 28.6818 253.005 29.0994C253.167 29.517 253.248 30.0312 253.248 30.642V31.0682H248.203V30.1989H252.225C252.225 29.8295 252.151 29.5 252.004 29.2102C251.859 28.9205 251.651 28.6918 251.382 28.5241C251.115 28.3565 250.799 28.2727 250.436 28.2727C250.035 28.2727 249.688 28.3722 249.396 28.571C249.106 28.767 248.883 29.0227 248.727 29.3381C248.57 29.6534 248.492 29.9915 248.492 30.3523V30.9318C248.492 31.4261 248.578 31.8452 248.748 32.1889C248.921 32.5298 249.161 32.7898 249.468 32.9688C249.775 33.1449 250.132 33.233 250.538 33.233C250.802 33.233 251.041 33.196 251.254 33.1222C251.47 33.0455 251.656 32.9318 251.812 32.7812C251.968 32.6278 252.089 32.4375 252.174 32.2102L253.146 32.483C253.044 32.8125 252.872 33.1023 252.63 33.3523C252.389 33.5994 252.09 33.7926 251.735 33.9318C251.38 34.0682 250.981 34.1364 250.538 34.1364ZM261.068 27.4545V28.3068H257.539V27.4545H261.068ZM258.596 34V26.5511C258.596 26.1761 258.684 25.8636 258.86 25.6136C259.036 25.3636 259.265 25.1761 259.546 25.0511C259.828 24.9261 260.124 24.8636 260.437 24.8636C260.684 24.8636 260.886 24.8835 261.042 24.9233C261.198 24.9631 261.315 25 261.392 25.0341L261.102 25.9034C261.051 25.8864 260.98 25.8651 260.889 25.8395C260.801 25.8139 260.684 25.8011 260.539 25.8011C260.207 25.8011 259.967 25.8849 259.819 26.0526C259.674 26.2202 259.602 26.4659 259.602 26.7898V34H258.596ZM264.867 34.1364C264.276 34.1364 263.757 33.9957 263.311 33.7145C262.868 33.4332 262.521 33.0398 262.271 32.5341C262.024 32.0284 261.901 31.4375 261.901 30.7614C261.901 30.0795 262.024 29.4844 262.271 28.9759C262.521 28.4673 262.868 28.0724 263.311 27.7912C263.757 27.5099 264.276 27.3693 264.867 27.3693C265.458 27.3693 265.975 27.5099 266.418 27.7912C266.864 28.0724 267.21 28.4673 267.458 28.9759C267.708 29.4844 267.833 30.0795 267.833 30.7614C267.833 31.4375 267.708 32.0284 267.458 32.5341C267.21 33.0398 266.864 33.4332 266.418 33.7145C265.975 33.9957 265.458 34.1364 264.867 34.1364ZM264.867 33.233C265.316 33.233 265.685 33.1179 265.975 32.8878C266.264 32.6577 266.479 32.3551 266.618 31.9801C266.757 31.6051 266.827 31.1989 266.827 30.7614C266.827 30.3239 266.757 29.9162 266.618 29.5384C266.479 29.1605 266.264 28.8551 265.975 28.6222C265.685 28.3892 265.316 28.2727 264.867 28.2727C264.418 28.2727 264.048 28.3892 263.759 28.6222C263.469 28.8551 263.254 29.1605 263.115 29.5384C262.976 29.9162 262.906 30.3239 262.906 30.7614C262.906 31.1989 262.976 31.6051 263.115 31.9801C263.254 32.3551 263.469 32.6577 263.759 32.8878C264.048 33.1179 264.418 33.233 264.867 33.233ZM269.368 34V27.4545H270.339V28.4432H270.407C270.527 28.1193 270.743 27.8565 271.055 27.6548C271.368 27.4531 271.72 27.3523 272.112 27.3523C272.186 27.3523 272.278 27.3537 272.389 27.3565C272.5 27.3594 272.584 27.3636 272.64 27.3693V28.392C272.606 28.3835 272.528 28.3707 272.406 28.3537C272.287 28.3338 272.16 28.3239 272.027 28.3239C271.709 28.3239 271.425 28.3906 271.175 28.5241C270.927 28.6548 270.731 28.8366 270.586 29.0696C270.444 29.2997 270.373 29.5625 270.373 29.858V34H269.368ZM279.679 34.1364C279.134 34.1364 278.652 33.9986 278.235 33.723C277.817 33.4446 277.49 33.0526 277.254 32.5469C277.019 32.0384 276.901 31.4375 276.901 30.7443C276.901 30.0568 277.019 29.4602 277.254 28.9545C277.49 28.4489 277.818 28.0582 278.239 27.7827C278.659 27.5071 279.145 27.3693 279.696 27.3693C280.122 27.3693 280.459 27.4403 280.706 27.5824C280.956 27.7216 281.146 27.8807 281.277 28.0597C281.411 28.2358 281.514 28.3807 281.588 28.4943H281.673V25.2727H282.679V34H281.708V32.9943H281.588C281.514 33.1136 281.409 33.2642 281.273 33.446C281.137 33.625 280.942 33.7855 280.689 33.9276C280.436 34.0668 280.1 34.1364 279.679 34.1364ZM279.816 33.233C280.219 33.233 280.56 33.1278 280.838 32.9176C281.117 32.7045 281.328 32.4105 281.473 32.0355C281.618 31.6577 281.691 31.2216 281.691 30.7273C281.691 30.2386 281.619 29.8111 281.477 29.4446C281.335 29.0753 281.125 28.7884 280.847 28.5838C280.568 28.3764 280.225 28.2727 279.816 28.2727C279.389 28.2727 279.034 28.3821 278.75 28.6009C278.469 28.8168 278.257 29.1108 278.115 29.483C277.976 29.8523 277.906 30.267 277.906 30.7273C277.906 31.1932 277.977 31.6165 278.119 31.9972C278.264 32.375 278.477 32.6761 278.759 32.9006C279.043 33.1222 279.395 33.233 279.816 33.233ZM286.587 34.1534C286.172 34.1534 285.796 34.0753 285.458 33.919C285.119 33.7599 284.851 33.5312 284.652 33.233C284.453 32.9318 284.354 32.5682 284.354 32.142C284.354 31.767 284.428 31.4631 284.575 31.2301C284.723 30.9943 284.921 30.8097 285.168 30.6761C285.415 30.5426 285.688 30.4432 285.986 30.3778C286.287 30.3097 286.59 30.2557 286.894 30.2159C287.291 30.1648 287.614 30.1264 287.861 30.1009C288.111 30.0724 288.293 30.0256 288.406 29.9602C288.523 29.8949 288.581 29.7812 288.581 29.6193V29.5852C288.581 29.1648 288.466 28.8381 288.236 28.6051C288.009 28.3722 287.664 28.2557 287.2 28.2557C286.72 28.2557 286.344 28.3608 286.071 28.571C285.798 28.7812 285.607 29.0057 285.496 29.2443L284.541 28.9034C284.712 28.5057 284.939 28.196 285.223 27.9744C285.51 27.75 285.823 27.5937 286.161 27.5057C286.502 27.4148 286.837 27.3693 287.166 27.3693C287.377 27.3693 287.618 27.3949 287.891 27.446C288.166 27.4943 288.432 27.5952 288.688 27.7486C288.946 27.902 289.161 28.1335 289.331 28.4432C289.502 28.7528 289.587 29.1676 289.587 29.6875V34H288.581V33.1136H288.53C288.462 33.2557 288.348 33.4077 288.189 33.5696C288.03 33.7315 287.818 33.8693 287.554 33.983C287.29 34.0966 286.968 34.1534 286.587 34.1534ZM286.74 33.25C287.138 33.25 287.473 33.1719 287.746 33.0156C288.021 32.8594 288.229 32.6577 288.368 32.4105C288.51 32.1634 288.581 31.9034 288.581 31.6307V30.7102C288.539 30.7614 288.445 30.8082 288.3 30.8509C288.158 30.8906 287.993 30.9261 287.806 30.9574C287.621 30.9858 287.441 31.0114 287.264 31.0341C287.091 31.054 286.95 31.071 286.843 31.0852C286.581 31.1193 286.337 31.1747 286.11 31.2514C285.885 31.3253 285.703 31.4375 285.564 31.5881C285.428 31.7358 285.36 31.9375 285.36 32.1932C285.36 32.5426 285.489 32.8068 285.747 32.9858C286.009 33.1619 286.34 33.25 286.74 33.25ZM291.422 34V27.4545H292.428V34H291.422ZM291.934 26.3636C291.738 26.3636 291.569 26.2969 291.427 26.1634C291.287 26.0298 291.218 25.8693 291.218 25.6818C291.218 25.4943 291.287 25.3338 291.427 25.2003C291.569 25.0668 291.738 25 291.934 25C292.13 25 292.297 25.0668 292.437 25.2003C292.579 25.3338 292.65 25.4943 292.65 25.6818C292.65 25.8693 292.579 26.0298 292.437 26.1634C292.297 26.2969 292.13 26.3636 291.934 26.3636ZM295.276 25.2727V34H294.27V25.2727H295.276ZM297.765 36.4545C297.595 36.4545 297.443 36.4403 297.309 36.4119C297.176 36.3864 297.084 36.3608 297.032 36.3352L297.288 35.4489C297.532 35.5114 297.748 35.5341 297.936 35.517C298.123 35.5 298.29 35.4162 298.434 35.2656C298.582 35.1179 298.717 34.8778 298.839 34.5455L299.027 34.0341L296.606 27.4545H297.697L299.504 32.6705H299.572L301.379 27.4545H302.47L299.692 34.9545C299.567 35.2926 299.412 35.5724 299.227 35.794C299.042 36.0185 298.828 36.1847 298.584 36.2926C298.342 36.4006 298.069 36.4545 297.765 36.4545ZM311.297 31.3239V27.4545H312.303V34H311.297V32.892H311.229C311.076 33.2244 310.837 33.5071 310.513 33.7401C310.189 33.9702 309.78 34.0852 309.286 34.0852C308.877 34.0852 308.513 33.9957 308.195 33.8168C307.877 33.6349 307.627 33.3622 307.445 32.9986C307.263 32.6321 307.172 32.1705 307.172 31.6136V27.4545H308.178V31.5455C308.178 32.0227 308.312 32.4034 308.579 32.6875C308.849 32.9716 309.192 33.1136 309.61 33.1136C309.86 33.1136 310.114 33.0497 310.373 32.9219C310.634 32.794 310.853 32.598 311.029 32.3338C311.208 32.0696 311.297 31.733 311.297 31.3239ZM318.781 28.9205L317.878 29.1761C317.821 29.0256 317.737 28.8793 317.627 28.7372C317.519 28.5923 317.371 28.473 317.183 28.3793C316.996 28.2855 316.756 28.2386 316.463 28.2386C316.063 28.2386 315.729 28.331 315.462 28.5156C315.198 28.6974 315.066 28.929 315.066 29.2102C315.066 29.4602 315.156 29.6577 315.338 29.8026C315.52 29.9474 315.804 30.0682 316.191 30.1648L317.162 30.4034C317.747 30.5455 318.183 30.7628 318.47 31.0554C318.757 31.3452 318.901 31.7187 318.901 32.1761C318.901 32.5511 318.793 32.8864 318.577 33.1818C318.364 33.4773 318.066 33.7102 317.682 33.8807C317.298 34.0511 316.852 34.1364 316.344 34.1364C315.676 34.1364 315.124 33.9915 314.686 33.7017C314.249 33.4119 313.972 32.9886 313.855 32.4318L314.81 32.1932C314.901 32.5455 315.073 32.8097 315.325 32.9858C315.581 33.1619 315.915 33.25 316.327 33.25C316.796 33.25 317.168 33.1506 317.443 32.9517C317.722 32.75 317.861 32.5085 317.861 32.2273C317.861 32 317.781 31.8097 317.622 31.6562C317.463 31.5 317.219 31.3835 316.889 31.3068L315.798 31.0511C315.199 30.9091 314.759 30.6889 314.477 30.3906C314.199 30.0895 314.06 29.7131 314.06 29.2614C314.06 28.892 314.164 28.5653 314.371 28.2812C314.581 27.9972 314.867 27.7741 315.227 27.6122C315.591 27.4503 316.003 27.3693 316.463 27.3693C317.111 27.3693 317.619 27.5114 317.989 27.7955C318.361 28.0795 318.625 28.4545 318.781 28.9205ZM323.159 34.1364C322.528 34.1364 321.984 33.9972 321.527 33.7188C321.072 33.4375 320.721 33.0455 320.474 32.5426C320.23 32.0369 320.108 31.4489 320.108 30.7784C320.108 30.108 320.23 29.517 320.474 29.0057C320.721 28.4915 321.065 28.0909 321.506 27.804C321.949 27.5142 322.466 27.3693 323.057 27.3693C323.398 27.3693 323.734 27.4261 324.067 27.5398C324.399 27.6534 324.702 27.8381 324.974 28.0938C325.247 28.3466 325.464 28.6818 325.626 29.0994C325.788 29.517 325.869 30.0312 325.869 30.642V31.0682H320.824V30.1989H324.846C324.846 29.8295 324.773 29.5 324.625 29.2102C324.48 28.9205 324.273 28.6918 324.003 28.5241C323.736 28.3565 323.42 28.2727 323.057 28.2727C322.656 28.2727 322.309 28.3722 322.017 28.571C321.727 28.767 321.504 29.0227 321.348 29.3381C321.192 29.6534 321.113 29.9915 321.113 30.3523V30.9318C321.113 31.4261 321.199 31.8452 321.369 32.1889C321.542 32.5298 321.782 32.7898 322.089 32.9688C322.396 33.1449 322.753 33.233 323.159 33.233C323.423 33.233 323.662 33.196 323.875 33.1222C324.091 33.0455 324.277 32.9318 324.433 32.7812C324.589 32.6278 324.71 32.4375 324.795 32.2102L325.767 32.483C325.665 32.8125 325.493 33.1023 325.251 33.3523C325.01 33.5994 324.711 33.7926 324.356 33.9318C324.001 34.0682 323.602 34.1364 323.159 34.1364ZM328.132 34.0682C327.922 34.0682 327.741 33.9929 327.591 33.8423C327.44 33.6918 327.365 33.5114 327.365 33.3011C327.365 33.0909 327.44 32.9105 327.591 32.7599C327.741 32.6094 327.922 32.5341 328.132 32.5341C328.342 32.5341 328.523 32.6094 328.673 32.7599C328.824 32.9105 328.899 33.0909 328.899 33.3011C328.899 33.4403 328.863 33.5682 328.792 33.6847C328.724 33.8011 328.632 33.8949 328.515 33.9659C328.402 34.0341 328.274 34.0682 328.132 34.0682Z" fill="black"/>
</svg>
