<svg width="40" height="40" viewBox="0 0 40 40" fill="none" xmlns="http://www.w3.org/2000/svg">
<path d="M12.7062 8H8.83917C8.61664 8.0001 8.40325 8.08854 8.24589 8.24589C8.08854 8.40324 8.0001 8.61663 8 8.83915V12.7054C8.0001 12.9279 8.08854 13.1413 8.24589 13.2987C8.40325 13.456 8.61664 13.5445 8.83917 13.5445H12.7058C12.9284 13.5445 13.1418 13.456 13.2991 13.2987C13.4565 13.1413 13.5449 12.9279 13.545 12.7054V8.83952C13.545 8.617 13.4567 8.40357 13.2994 8.24615C13.1421 8.08873 12.9287 8.0002 12.7062 8ZM21.9333 8H18.0667C17.8441 8.0001 17.6307 8.08854 17.4734 8.24589C17.316 8.40324 17.2276 8.61663 17.2275 8.83915V12.7054C17.2276 12.9279 17.316 13.1413 17.4734 13.2987C17.6307 13.456 17.8441 13.5445 18.0667 13.5445H21.9333C22.1559 13.5445 22.3693 13.456 22.5266 13.2987C22.684 13.1413 22.7724 12.9279 22.7725 12.7054V8.83952C22.7725 8.61693 22.6841 8.40345 22.5267 8.24602C22.3694 8.08859 22.1559 8.0001 21.9333 8ZM32 8.83915C31.9999 8.61663 31.9115 8.40324 31.7541 8.24589C31.5968 8.08854 31.3834 8.0001 31.1608 8H27.2938C27.0713 8.0001 26.8579 8.08854 26.7005 8.24589C26.5432 8.40324 26.4547 8.61663 26.4546 8.83915V12.7058C26.4546 12.9284 26.543 13.1418 26.7004 13.2993C26.8578 13.4567 27.0712 13.5452 27.2938 13.5453H31.1605C31.383 13.5452 31.5964 13.4567 31.7537 13.2994C31.9111 13.142 31.9995 12.9287 31.9996 12.7061L32 8.83915ZM12.7062 17.2285H8.83917C8.61664 17.2286 8.40325 17.317 8.24589 17.4744C8.08854 17.6317 8.0001 17.8451 8 18.0676V21.9342C8.0001 22.1568 8.08854 22.3701 8.24589 22.5275C8.40325 22.6848 8.61664 22.7733 8.83917 22.7734H12.7058C12.9284 22.7733 13.1418 22.6848 13.2991 22.5275C13.4565 22.3701 13.5449 22.1568 13.545 21.9342V18.068C13.545 17.8455 13.4567 17.632 13.2994 17.4746C13.1421 17.3172 12.9287 17.2287 12.7062 17.2285ZM21.9333 17.2285H18.0667C17.8441 17.2286 17.6307 17.317 17.4734 17.4744C17.316 17.6317 17.2276 17.8451 17.2275 18.0676V21.9342C17.2276 22.1568 17.316 22.3701 17.4734 22.5275C17.6307 22.6848 17.8441 22.7733 18.0667 22.7734H21.9333C22.1559 22.7733 22.3693 22.6848 22.5266 22.5275C22.684 22.3701 22.7724 22.1568 22.7725 21.9342V18.068C22.7725 17.8454 22.6841 17.6319 22.5267 17.4745C22.3694 17.3171 22.1559 17.2286 21.9333 17.2285ZM31.1608 17.2285H27.2938C27.0713 17.2286 26.8579 17.317 26.7005 17.4744C26.5432 17.6317 26.4547 17.8451 26.4546 18.0676V21.9342C26.4546 22.1568 26.543 22.3703 26.7004 22.5277C26.8578 22.6852 27.0712 22.7737 27.2938 22.7738H31.1605C31.383 22.7737 31.5964 22.6852 31.7537 22.5279C31.9111 22.3705 31.9995 22.1571 31.9996 21.9346V18.068C31.9996 17.8455 31.9113 17.632 31.754 17.4746C31.5967 17.3172 31.3834 17.2287 31.1608 17.2285ZM12.7062 26.4551H8.83917C8.61664 26.4552 8.40325 26.5436 8.24589 26.701C8.08854 26.8583 8.0001 27.0717 8 27.2942V31.1605C8.0001 31.383 8.08854 31.5964 8.24589 31.7537C8.40325 31.9111 8.61664 31.9995 8.83917 31.9996H12.7058C12.9284 31.9995 13.1418 31.9111 13.2991 31.7537C13.4565 31.5964 13.5449 31.383 13.545 31.1605V27.2942C13.5449 27.0718 13.4565 26.8584 13.2992 26.7011C13.142 26.5438 12.9287 26.4553 12.7062 26.4551ZM21.9333 26.4551H18.0667C17.8441 26.4552 17.6307 26.5436 17.4734 26.701C17.316 26.8583 17.2276 27.0717 17.2275 27.2942V31.1605C17.2276 31.383 17.316 31.5964 17.4734 31.7537C17.6307 31.9111 17.8441 31.9995 18.0667 31.9996H21.9333C22.1559 31.9995 22.3693 31.9111 22.5266 31.7537C22.684 31.5964 22.7724 31.383 22.7725 31.1605V27.2942C22.7724 27.0717 22.684 26.8583 22.5266 26.701C22.3693 26.5436 22.1559 26.4552 21.9333 26.4551ZM31.1608 26.4551H27.2938C27.0713 26.4552 26.8579 26.5436 26.7005 26.701C26.5432 26.8583 26.4547 27.0717 26.4546 27.2942V31.1605C26.4546 31.3831 26.543 31.5965 26.7004 31.754C26.8578 31.9114 27.0712 31.9999 27.2938 32H31.1605C31.383 31.9999 31.5964 31.9115 31.7537 31.7541C31.9111 31.5968 31.9995 31.3834 31.9996 31.1608V27.2942C31.9995 27.0718 31.9111 26.8584 31.7539 26.7011C31.5966 26.5438 31.3833 26.4553 31.1608 26.4551Z" fill="white"/>
</svg>
