<svg width="40" height="40" viewBox="0 0 40 40" fill="none" xmlns="http://www.w3.org/2000/svg">
<path d="M40 20C40 8.95431 31.0457 0 20 0C8.95431 0 0 8.95431 0 20C0 31.0457 8.95431 40 20 40C31.0457 40 40 31.0457 40 20Z" fill="white" fill-opacity="0.69"/>
<path d="M30 12C29.7348 12 29.4804 12.1054 29.2929 12.2929C29.1054 12.4804 29 12.7348 29 13V18.666L19.777 12.518C19.7017 12.4679 19.6142 12.4392 19.5239 12.4348C19.4336 12.4305 19.3437 12.4508 19.264 12.4935C19.1843 12.5361 19.1176 12.5997 19.0711 12.6772C19.0246 12.7548 19 12.8436 19 12.934V18.666L9.777 12.518C9.70171 12.4679 9.61423 12.4392 9.52389 12.4348C9.43355 12.4305 9.34373 12.4508 9.264 12.4935C9.18427 12.5361 9.1176 12.5997 9.07111 12.6772C9.02462 12.7548 9.00005 12.8436 9 12.934V27.066C9.00005 27.1564 9.02462 27.2452 9.07111 27.3228C9.1176 27.4003 9.18427 27.4639 9.264 27.5065C9.34373 27.5492 9.43355 27.5695 9.52389 27.5652C9.61423 27.5608 9.70171 27.5321 9.777 27.482L19 21.333V27.066C19 27.1564 19.0246 27.2452 19.0711 27.3228C19.1176 27.4003 19.1843 27.4639 19.264 27.5065C19.3437 27.5492 19.4336 27.5695 19.5239 27.5652C19.6142 27.5608 19.7017 27.5321 19.777 27.482L29 21.333V27C29 27.2652 29.1054 27.5196 29.2929 27.7071C29.4804 27.8946 29.7348 28 30 28C30.2652 28 30.5196 27.8946 30.7071 27.7071C30.8946 27.5196 31 27.2652 31 27V13C31 12.7348 30.8946 12.4804 30.7071 12.2929C30.5196 12.1054 30.2652 12 30 12Z" fill="#555555"/>
</svg>
