<svg width="30" height="30" viewBox="0 0 30 30" fill="none" xmlns="http://www.w3.org/2000/svg">
<g clip-path="url(#clip0_1939_45)">
<path d="M23.8319 24.6291H19.8615V18.4112C19.8615 16.9285 19.835 15.0197 17.7965 15.0197C15.7285 15.0197 15.4121 16.6353 15.4121 18.3033V24.6287H11.4418V11.8422H15.2533V13.5896H15.3067C15.6882 12.9374 16.2394 12.4009 16.9016 12.0371C17.5639 11.6734 18.3124 11.4961 19.0674 11.5241C23.0916 11.5241 23.8335 14.1711 23.8335 17.6146L23.8319 24.6291ZM6.9618 10.0944C5.68928 10.0946 4.65751 9.06318 4.6573 7.79066C4.65709 6.51815 5.68844 5.48638 6.96096 5.48617C8.23348 5.48585 9.26525 6.51731 9.26546 7.78983C9.26557 8.40092 9.02293 8.98702 8.59091 9.41922C8.15889 9.85141 7.57289 10.0943 6.9618 10.0944ZM8.94704 24.6292H4.97247V11.8422H8.94693L8.94704 24.6292ZM25.8112 1.79883H2.97739C1.89821 1.78668 1.01319 2.65118 1 3.73037V26.6595C1.01277 27.7392 1.89768 28.6045 2.97729 28.5932H25.8112C26.8931 28.6066 27.7815 27.7413 27.7965 26.6595V3.72859C27.7811 2.64731 26.8926 1.78291 25.8112 1.79705" fill="#0A66C2"/>
</g>
<defs>
<clipPath id="clip0_1939_45">
<rect width="26.7965" height="26.7965" fill="white" transform="translate(1.1875 2)"/>
</clipPath>
</defs>
</svg>
