<svg width="30" height="30" viewBox="0 0 30 30" fill="none" xmlns="http://www.w3.org/2000/svg">
<path d="M29.3379 8.18463C29.1659 7.5487 28.8302 6.96895 28.3644 6.50311C27.8985 6.03726 27.3188 5.70157 26.6829 5.52946C24.3548 4.89453 14.985 4.89453 14.985 4.89453C14.985 4.89453 5.6148 4.91375 3.28672 5.54868C2.65079 5.7208 2.07105 6.05651 1.60522 6.52238C1.13939 6.98824 0.803734 7.56802 0.631674 8.20396C-0.0725178 12.3405 -0.345686 18.6437 0.65101 22.6147C0.823088 23.2507 1.15875 23.8304 1.62458 24.2963C2.09041 24.7621 2.67014 25.0978 3.30605 25.2699C5.63414 25.9048 15.0041 25.9048 15.0041 25.9048C15.0041 25.9048 24.374 25.9048 26.702 25.2699C27.3379 25.0978 27.9177 24.7621 28.3835 24.2963C28.8494 23.8304 29.1851 23.2507 29.3572 22.6147C30.0999 18.4723 30.3288 12.1731 29.3379 8.18463Z" fill="#FF0000"/>
<path d="M12.0039 19.895L19.7768 15.3928L12.0039 10.8906V19.895Z" fill="white"/>
</svg>
