<svg width="42" height="80" viewBox="0 0 42 80" fill="none" xmlns="http://www.w3.org/2000/svg">
<g clip-path="url(#clip0_20_1378)">
<path d="M30 80C36.6274 80 42 74.6274 42 68V12C42 5.37258 36.6274 0 30 0H12C5.37258 0 0 5.37258 0 12V68C0 74.6274 5.37259 80 12 80H30Z" fill="white" fill-opacity="0.24"/>
<path fill-rule="evenodd" clip-rule="evenodd" d="M27.4871 41.2373C27.8152 40.9091 27.9995 40.4641 27.9995 40.0001C27.9995 39.536 27.8152 39.091 27.4871 38.7628L17.5874 28.8631C17.2573 28.5443 16.8153 28.3679 16.3564 28.3719C15.8976 28.3759 15.4587 28.5599 15.1342 28.8844C14.8097 29.2088 14.6257 29.6478 14.6217 30.1066C14.6177 30.5654 14.7941 31.0075 15.1129 31.3375L23.7754 40.0001L15.1129 48.6626C14.7941 48.9926 14.6177 49.4347 14.6217 49.8935C14.6257 50.3523 14.8097 50.7913 15.1342 51.1157C15.4587 51.4402 15.8976 51.6242 16.3564 51.6282C16.8153 51.6322 17.2573 51.4558 17.5874 51.1371L27.4871 41.2373Z" fill="white"/>
</g>
<defs>
<clipPath id="clip0_20_1378">
<path d="M30 80C36.6274 80 42 74.6274 42 68V12C42 5.37258 36.6274 0 30 0H12C5.37258 0 0 5.37258 0 12V68C0 74.6274 5.37259 80 12 80H30Z" fill="white"/>
</clipPath>
</defs>
</svg>
