<svg width="42" height="80" viewBox="0 0 42 80" fill="none" xmlns="http://www.w3.org/2000/svg">
<g clip-path="url(#clip0_20_1374)">
<path d="M12 80C5.37258 80 0 74.6274 0 68V12C0 5.37258 5.37258 0 12 0H30C36.6274 0 42 5.37258 42 12V68C42 74.6274 36.6274 80 30 80H12Z" fill="white" fill-opacity="0.24"/>
<path fill-rule="evenodd" clip-rule="evenodd" d="M14.5129 41.2373C14.1848 40.9091 14.0005 40.4641 14.0005 40.0001C14.0005 39.536 14.1848 39.091 14.5129 38.7628L24.4126 28.8631C24.7427 28.5443 25.1847 28.3679 25.6436 28.3719C26.1024 28.3759 26.5413 28.5599 26.8658 28.8844C27.1903 29.2088 27.3743 29.6478 27.3783 30.1066C27.3823 30.5654 27.2059 31.0075 26.8871 31.3375L18.2246 40.0001L26.8871 48.6626C27.2059 48.9926 27.3823 49.4347 27.3783 49.8935C27.3743 50.3523 27.1903 50.7913 26.8658 51.1157C26.5413 51.4402 26.1024 51.6242 25.6436 51.6282C25.1847 51.6322 24.7427 51.4558 24.4126 51.1371L14.5129 41.2373Z" fill="white"/>
</g>
<defs>
<clipPath id="clip0_20_1374">
<path d="M12 80C5.37258 80 0 74.6274 0 68V12C0 5.37258 5.37258 0 12 0H30C36.6274 0 42 5.37258 42 12V68C42 74.6274 36.6274 80 30 80H12Z" fill="white"/>
</clipPath>
</defs>
</svg>
