<svg width="435" height="56" viewBox="0 0 435 56" fill="none" xmlns="http://www.w3.org/2000/svg">
<path d="M10.9956 4.19008H8.81509C8.7529 3.8325 8.63824 3.51573 8.47111 3.23977C8.30398 2.95992 8.09604 2.72283 7.84729 2.52849C7.59854 2.33415 7.3148 2.1884 6.99609 2.09123C6.68126 1.99018 6.34117 1.93965 5.97582 1.93965C5.32673 1.93965 4.75149 2.10289 4.2501 2.42938C3.74871 2.75198 3.35615 3.22616 3.07241 3.85193C2.78868 4.47381 2.64681 5.23367 2.64681 6.13151C2.64681 7.0449 2.78868 7.81447 3.07241 8.44024C3.36003 9.06212 3.75259 9.53242 4.2501 9.85113C4.75149 10.166 5.32479 10.3234 5.96999 10.3234C6.32757 10.3234 6.66183 10.2767 6.97277 10.1835C7.2876 10.0863 7.56938 9.94442 7.81814 9.75785C8.07078 9.57129 8.2826 9.34197 8.45362 9.0699C8.62852 8.79782 8.74901 8.48688 8.81509 8.13708L10.9956 8.14874C10.9139 8.7162 10.7371 9.24869 10.465 9.74619C10.1968 10.2437 9.84508 10.6829 9.40976 11.0638C8.97445 11.4408 8.46528 11.7362 7.88227 11.95C7.29926 12.1599 6.65211 12.2648 5.94084 12.2648C4.89141 12.2648 3.95471 12.0219 3.13071 11.536C2.30672 11.0502 1.65763 10.3486 1.18345 9.43136C0.709267 8.51409 0.472175 7.41414 0.472175 6.13151C0.472175 4.845 0.711211 3.74505 1.18928 2.83166C1.66735 1.91439 2.31838 1.21283 3.14237 0.726982C3.96637 0.241138 4.89919 -0.00178385 5.94084 -0.00178385C6.60547 -0.00178385 7.22346 0.0914981 7.79482 0.278062C8.36617 0.464627 8.87533 0.738643 9.32231 1.10011C9.76929 1.45769 10.1366 1.89689 10.4242 2.41772C10.7157 2.93466 10.9062 3.52544 10.9956 4.19008ZM12.9763 12.1016V0.16146H15.1393V10.2884H20.3981V12.1016H12.9763ZM24.4384 0.16146V12.1016H22.2754V0.16146H24.4384ZM37.0008 4.19008H34.8204C34.7582 3.8325 34.6435 3.51573 34.4764 3.23977C34.3093 2.95992 34.1013 2.72283 33.8526 2.52849C33.6038 2.33415 33.3201 2.1884 33.0014 2.09123C32.6865 1.99018 32.3465 1.93965 31.9811 1.93965C31.332 1.93965 30.7568 2.10289 30.2554 2.42938C29.754 2.75198 29.3614 3.22616 29.0777 3.85193C28.794 4.47381 28.6521 5.23367 28.6521 6.13151C28.6521 7.0449 28.794 7.81447 29.0777 8.44024C29.3653 9.06212 29.7579 9.53242 30.2554 9.85113C30.7568 10.166 31.3301 10.3234 31.9753 10.3234C32.3329 10.3234 32.6671 10.2767 32.9781 10.1835C33.2929 10.0863 33.5747 9.94442 33.8234 9.75785C34.0761 9.57129 34.2879 9.34197 34.4589 9.0699C34.6338 8.79782 34.7543 8.48688 34.8204 8.13708L37.0008 8.14874C36.9192 8.7162 36.7424 9.24869 36.4703 9.74619C36.2021 10.2437 35.8504 10.6829 35.415 11.0638C34.9797 11.4408 34.4706 11.7362 33.8876 11.95C33.3045 12.1599 32.6574 12.2648 31.9461 12.2648C30.8967 12.2648 29.96 12.0219 29.136 11.536C28.312 11.0502 27.6629 10.3486 27.1887 9.43136C26.7146 8.51409 26.4775 7.41414 26.4775 6.13151C26.4775 4.845 26.7165 3.74505 27.1946 2.83166C27.6726 1.91439 28.3237 1.21283 29.1477 0.726982C29.9717 0.241138 30.9045 -0.00178385 31.9461 -0.00178385C32.6108 -0.00178385 33.2287 0.0914981 33.8001 0.278062C34.3715 0.464627 34.8806 0.738643 35.3276 1.10011C35.7746 1.45769 36.1419 1.89689 36.4295 2.41772C36.721 2.93466 36.9114 3.52544 37.0008 4.19008ZM38.9816 12.1016V0.16146H41.1446V5.64761H41.2904L45.9486 0.16146H48.5897L43.9722 5.51935L48.6305 12.1016H46.0303L42.468 6.98271L41.1446 8.54518V12.1016H38.9816ZM52.2554 0.16146V12.1016H50.0924V0.16146H52.2554ZM64.4097 0.16146V12.1016H62.4858L56.8597 3.96853H56.7606V12.1016H54.5976V0.16146H56.5332L62.1535 8.30032H62.2584V0.16146H64.4097ZM74.7655 3.97436C74.6683 3.65954 74.5342 3.37775 74.3632 3.129C74.1961 2.87636 73.994 2.66064 73.7569 2.48185C73.5237 2.30306 73.2555 2.16897 72.9523 2.07957C72.6492 1.98629 72.3188 1.93965 71.9612 1.93965C71.3199 1.93965 70.7485 2.10095 70.2471 2.42355C69.7458 2.74615 69.3513 3.22033 69.0636 3.8461C68.7799 4.46798 68.638 5.2259 68.638 6.11985C68.638 7.02158 68.7799 7.78532 69.0636 8.41109C69.3474 9.03686 69.7419 9.51299 70.2471 9.83947C70.7524 10.1621 71.3393 10.3234 72.0078 10.3234C72.6142 10.3234 73.1389 10.2068 73.582 9.97357C74.029 9.74036 74.3729 9.40999 74.6139 8.98244C74.8549 8.55101 74.9754 8.04574 74.9754 7.46661L75.4651 7.5424H72.2236V5.85166H77.0684V7.28588C77.0684 8.30809 76.8507 9.19233 76.4154 9.93859C75.9801 10.6848 75.3815 11.2601 74.6197 11.6643C73.8579 12.0646 72.9834 12.2648 71.9962 12.2648C70.8962 12.2648 69.9304 12.018 69.0986 11.5244C68.2707 11.0269 67.6236 10.3214 67.1572 9.40804C66.6947 8.49077 66.4634 7.40248 66.4634 6.14317C66.4634 5.17926 66.5994 4.31834 66.8715 3.56042C67.1475 2.80251 67.5323 2.15925 68.0259 1.63065C68.5195 1.09817 69.0986 0.693945 69.7632 0.417985C70.4279 0.138139 71.1508 -0.00178385 71.9321 -0.00178385C72.5928 -0.00178385 73.2089 0.095385 73.7802 0.289723C74.3516 0.480173 74.8588 0.752246 75.3019 1.10594C75.7488 1.45964 76.1161 1.8794 76.4038 2.36525C76.6914 2.85109 76.8799 3.38746 76.9693 3.97436H74.7655ZM82.7076 1.97463V0.16146H92.234V1.97463H88.5435V12.1016H86.3981V1.97463H82.7076ZM94.0705 12.1016V0.16146H96.2335V5.21618H101.766V0.16146H103.935V12.1016H101.766V7.02935H96.2335V12.1016H94.0705ZM106.288 12.1016V0.16146H114.053V1.97463H108.451V5.21618H113.651V7.02935H108.451V10.2884H114.1V12.1016H106.288ZM130.553 4.19008H128.372C128.31 3.8325 128.195 3.51573 128.028 3.23977C127.861 2.95992 127.653 2.72283 127.404 2.52849C127.156 2.33415 126.872 2.1884 126.553 2.09123C126.238 1.99018 125.898 1.93965 125.533 1.93965C124.884 1.93965 124.308 2.10289 123.807 2.42938C123.306 2.75198 122.913 3.22616 122.629 3.85193C122.346 4.47381 122.204 5.23367 122.204 6.13151C122.204 7.0449 122.346 7.81447 122.629 8.44024C122.917 9.06212 123.31 9.53242 123.807 9.85113C124.308 10.166 124.882 10.3234 125.527 10.3234C125.885 10.3234 126.219 10.2767 126.53 10.1835C126.845 10.0863 127.126 9.94442 127.375 9.75785C127.628 9.57129 127.84 9.34197 128.011 9.0699C128.186 8.79782 128.306 8.48688 128.372 8.13708L130.553 8.14874C130.471 8.7162 130.294 9.24869 130.022 9.74619C129.754 10.2437 129.402 10.6829 128.967 11.0638C128.531 11.4408 128.022 11.7362 127.439 11.95C126.856 12.1599 126.209 12.2648 125.498 12.2648C124.448 12.2648 123.512 12.0219 122.688 11.536C121.864 11.0502 121.215 10.3486 120.74 9.43136C120.266 8.51409 120.029 7.41414 120.029 6.13151C120.029 4.845 120.268 3.74505 120.746 2.83166C121.224 1.91439 121.875 1.21283 122.699 0.726982C123.523 0.241138 124.456 -0.00178385 125.498 -0.00178385C126.162 -0.00178385 126.78 0.0914981 127.352 0.278062C127.923 0.464627 128.432 0.738643 128.879 1.10011C129.326 1.45769 129.694 1.89689 129.981 2.41772C130.273 2.93466 130.463 3.52544 130.553 4.19008ZM143.202 6.13151C143.202 7.41803 142.961 8.51992 142.48 9.43719C142.001 10.3506 141.348 11.0502 140.521 11.536C139.697 12.0219 138.762 12.2648 137.716 12.2648C136.671 12.2648 135.734 12.0219 134.906 11.536C134.082 11.0463 133.429 10.3448 132.947 9.43136C132.469 8.51409 132.23 7.41414 132.23 6.13151C132.23 4.845 132.469 3.74505 132.947 2.83166C133.429 1.91439 134.082 1.21283 134.906 0.726982C135.734 0.241138 136.671 -0.00178385 137.716 -0.00178385C138.762 -0.00178385 139.697 0.241138 140.521 0.726982C141.348 1.21283 142.001 1.91439 142.48 2.83166C142.961 3.74505 143.202 4.845 143.202 6.13151ZM141.028 6.13151C141.028 5.2259 140.886 4.46215 140.602 3.84027C140.322 3.2145 139.934 2.74226 139.436 2.42355C138.939 2.10095 138.365 1.93965 137.716 1.93965C137.067 1.93965 136.494 2.10095 135.996 2.42355C135.499 2.74226 135.108 3.2145 134.825 3.84027C134.545 4.46215 134.405 5.2259 134.405 6.13151C134.405 7.03712 134.545 7.80281 134.825 8.42858C135.108 9.05046 135.499 9.5227 135.996 9.8453C136.494 10.164 137.067 10.3234 137.716 10.3234C138.365 10.3234 138.939 10.164 139.436 9.8453C139.934 9.5227 140.322 9.05046 140.602 8.42858C140.886 7.80281 141.028 7.03712 141.028 6.13151ZM145.247 12.1016V0.16146H149.725C150.642 0.16146 151.412 0.320817 152.034 0.63953C152.659 0.958244 153.132 1.40522 153.45 1.98046C153.773 2.55181 153.934 3.21839 153.934 3.98019C153.934 4.74588 153.771 5.41052 153.445 5.9741C153.122 6.53379 152.646 6.96716 152.016 7.27422C151.386 7.57738 150.613 7.72897 149.696 7.72897H146.507V5.93329H149.404C149.941 5.93329 150.38 5.85944 150.722 5.71174C151.064 5.56016 151.317 5.34056 151.48 5.05294C151.647 4.76143 151.73 4.40385 151.73 3.98019C151.73 3.55654 151.647 3.19507 151.48 2.89579C151.313 2.59262 151.058 2.3633 150.716 2.20783C150.374 2.04848 149.933 1.9688 149.393 1.9688H147.41V12.1016H145.247ZM151.416 6.6912L154.372 12.1016H151.958L149.054 6.6912H151.416ZM165.737 0.16146V12.1016H163.813L158.187 3.96853H158.088V12.1016H155.925V0.16146H157.861L163.481 8.30032H163.586V0.16146H165.737ZM168.094 12.1016V0.16146H175.86V1.97463H170.257V5.21618H175.458V7.02935H170.257V10.2884H175.907V12.1016H168.094ZM178.067 12.1016V0.16146H182.544C183.461 0.16146 184.231 0.320817 184.853 0.63953C185.479 0.958244 185.951 1.40522 186.27 1.98046C186.592 2.55181 186.754 3.21839 186.754 3.98019C186.754 4.74588 186.59 5.41052 186.264 5.9741C185.941 6.53379 185.465 6.96716 184.835 7.27422C184.206 7.57738 183.432 7.72897 182.515 7.72897H179.326V5.93329H182.223C182.76 5.93329 183.199 5.85944 183.541 5.71174C183.883 5.56016 184.136 5.34056 184.299 5.05294C184.466 4.76143 184.55 4.40385 184.55 3.98019C184.55 3.55654 184.466 3.19507 184.299 2.89579C184.132 2.59262 183.877 2.3633 183.535 2.20783C183.193 2.04848 182.752 1.9688 182.212 1.9688H180.23V12.1016H178.067ZM184.235 6.6912L187.191 12.1016H184.777L181.874 6.6912H184.235ZM195.233 3.44382C195.179 2.93466 194.95 2.53821 194.545 2.25448C194.145 1.97074 193.624 1.82888 192.983 1.82888C192.532 1.82888 192.145 1.89689 191.823 2.03293C191.5 2.16897 191.253 2.35359 191.082 2.58679C190.911 2.82 190.824 3.08624 190.82 3.38552C190.82 3.63427 190.876 3.84999 190.989 4.03267C191.106 4.21534 191.263 4.37081 191.461 4.49908C191.66 4.62345 191.879 4.72839 192.12 4.8139C192.361 4.89941 192.604 4.97132 192.849 5.02962L193.968 5.30946C194.419 5.41441 194.853 5.55627 195.268 5.73506C195.688 5.91385 196.063 6.13928 196.394 6.41136C196.728 6.68343 196.992 7.01186 197.187 7.39665C197.381 7.78144 197.478 8.2323 197.478 8.74924C197.478 9.44885 197.299 10.0649 196.942 10.5974C196.584 11.126 196.067 11.5399 195.391 11.8392C194.718 12.1346 193.904 12.2823 192.948 12.2823C192.019 12.2823 191.213 12.1385 190.529 11.8509C189.848 11.5632 189.316 11.1435 188.931 10.5916C188.55 10.0396 188.344 9.36723 188.313 8.57434H190.441C190.472 8.99022 190.6 9.33614 190.826 9.6121C191.051 9.88806 191.345 10.0941 191.706 10.2301C192.072 10.3661 192.48 10.4341 192.931 10.4341C193.401 10.4341 193.813 10.3642 194.167 10.2243C194.524 10.0805 194.804 9.88223 195.006 9.62959C195.208 9.37306 195.311 9.07378 195.315 8.73175C195.311 8.42081 195.22 8.16428 195.041 7.96217C194.862 7.75617 194.612 7.58516 194.289 7.44912C193.97 7.3092 193.597 7.18482 193.17 7.07599L191.811 6.72618C190.828 6.47355 190.05 6.0907 189.479 5.57765C188.912 5.06071 188.628 4.3747 188.628 3.51961C188.628 2.81611 188.818 2.20006 189.199 1.67146C189.584 1.14286 190.107 0.732813 190.768 0.441306C191.428 0.145913 192.177 -0.00178385 193.012 -0.00178385C193.859 -0.00178385 194.602 0.145913 195.239 0.441306C195.881 0.732813 196.384 1.13898 196.749 1.6598C197.115 2.17674 197.303 2.77141 197.315 3.44382H195.233ZM203.479 0.16146H206.126L209.67 8.81337H209.81L213.355 0.16146H216.002V12.1016H213.926V3.89857H213.816L210.516 12.0666H208.965L205.665 3.88108H205.554V12.1016H203.479V0.16146ZM219.89 12.1016H217.582L221.785 0.16146H224.455L228.665 12.1016H226.356L223.167 2.61011H223.074L219.89 12.1016ZM219.966 7.41997H226.263V9.15735H219.966V7.41997ZM230.238 12.1016V0.16146H232.4V5.64761H232.546L237.205 0.16146H239.846L235.228 5.51935L239.886 12.1016H237.286L233.724 6.98271L232.4 8.54518V12.1016H230.238ZM241.348 12.1016V0.16146H249.114V1.97463H243.511V5.21618H248.712V7.02935H243.511V10.2884H249.161V12.1016H241.348ZM257.81 3.44382C257.755 2.93466 257.526 2.53821 257.122 2.25448C256.721 1.97074 256.201 1.82888 255.559 1.82888C255.108 1.82888 254.722 1.89689 254.399 2.03293C254.076 2.16897 253.83 2.35359 253.659 2.58679C253.488 2.82 253.4 3.08624 253.396 3.38552C253.396 3.63427 253.453 3.84999 253.565 4.03267C253.682 4.21534 253.839 4.37081 254.038 4.49908C254.236 4.62345 254.455 4.72839 254.696 4.8139C254.937 4.89941 255.18 4.97132 255.425 5.02962L256.545 5.30946C256.995 5.41441 257.429 5.55627 257.845 5.73506C258.264 5.91385 258.639 6.13928 258.97 6.41136C259.304 6.68343 259.568 7.01186 259.763 7.39665C259.957 7.78144 260.054 8.2323 260.054 8.74924C260.054 9.44885 259.875 10.0649 259.518 10.5974C259.16 11.126 258.643 11.5399 257.967 11.8392C257.295 12.1346 256.48 12.2823 255.524 12.2823C254.595 12.2823 253.789 12.1385 253.105 11.8509C252.425 11.5632 251.892 11.1435 251.507 10.5916C251.126 10.0396 250.92 9.36723 250.889 8.57434H253.017C253.048 8.99022 253.177 9.33614 253.402 9.6121C253.628 9.88806 253.921 10.0941 254.282 10.2301C254.648 10.3661 255.056 10.4341 255.507 10.4341C255.977 10.4341 256.389 10.3642 256.743 10.2243C257.1 10.0805 257.38 9.88223 257.582 9.62959C257.784 9.37306 257.887 9.07378 257.891 8.73175C257.887 8.42081 257.796 8.16428 257.617 7.96217C257.438 7.75617 257.188 7.58516 256.865 7.44912C256.546 7.3092 256.173 7.18482 255.746 7.07599L254.387 6.72618C253.404 6.47355 252.627 6.0907 252.055 5.57765C251.488 5.06071 251.204 4.3747 251.204 3.51961C251.204 2.81611 251.395 2.20006 251.775 1.67146C252.16 1.14286 252.683 0.732813 253.344 0.441306C254.005 0.145913 254.753 -0.00178385 255.588 -0.00178385C256.436 -0.00178385 257.178 0.145913 257.815 0.441306C258.457 0.732813 258.96 1.13898 259.325 1.6598C259.691 2.17674 259.879 2.77141 259.891 3.44382H257.81ZM265.53 1.97463V0.16146H275.057V1.97463H271.366V12.1016H269.221V1.97463H265.53ZM276.893 12.1016V0.16146H279.056V5.21618H284.589V0.16146H286.758V12.1016H284.589V7.02935H279.056V12.1016H276.893ZM289.11 12.1016V0.16146H296.876V1.97463H291.273V5.21618H296.474V7.02935H291.273V10.2884H296.923V12.1016H289.11ZM303.155 12.1016V0.16146H307.632C308.55 0.16146 309.319 0.332477 309.941 0.674511C310.567 1.01655 311.039 1.48684 311.358 2.0854C311.681 2.68008 311.842 3.35637 311.842 4.11429C311.842 4.87998 311.681 5.56016 311.358 6.15483C311.035 6.7495 310.559 7.21786 309.93 7.55989C309.3 7.89804 308.524 8.06711 307.603 8.06711H304.636V6.28892H307.312C307.848 6.28892 308.287 6.19564 308.629 6.00908C308.971 5.82251 309.224 5.56599 309.387 5.2395C309.554 4.91301 309.638 4.53794 309.638 4.11429C309.638 3.69063 309.554 3.3175 309.387 2.9949C309.224 2.6723 308.97 2.42161 308.624 2.24282C308.282 2.06014 307.84 1.9688 307.3 1.9688H305.318V12.1016H303.155ZM313.923 12.1016H311.614L315.818 0.16146H318.488L322.698 12.1016H320.389L317.2 2.61011H317.106L313.923 12.1016ZM313.999 7.41997H320.295V9.15735H313.999V7.41997ZM331.708 3.97436C331.611 3.65954 331.477 3.37775 331.306 3.129C331.139 2.87636 330.936 2.66064 330.699 2.48185C330.466 2.30306 330.198 2.16897 329.895 2.07957C329.592 1.98629 329.261 1.93965 328.904 1.93965C328.262 1.93965 327.691 2.10095 327.19 2.42355C326.688 2.74615 326.294 3.22033 326.006 3.8461C325.722 4.46798 325.581 5.2259 325.581 6.11985C325.581 7.02158 325.722 7.78532 326.006 8.41109C326.29 9.03686 326.684 9.51299 327.19 9.83947C327.695 10.1621 328.282 10.3234 328.95 10.3234C329.557 10.3234 330.081 10.2068 330.524 9.97357C330.971 9.74036 331.315 9.40999 331.556 8.98244C331.797 8.55101 331.918 8.04574 331.918 7.46661L332.408 7.5424H329.166V5.85166H334.011V7.28588C334.011 8.30809 333.793 9.19233 333.358 9.93859C332.923 10.6848 332.324 11.2601 331.562 11.6643C330.8 12.0646 329.926 12.2648 328.939 12.2648C327.839 12.2648 326.873 12.018 326.041 11.5244C325.213 11.0269 324.566 10.3214 324.1 9.40804C323.637 8.49077 323.406 7.40248 323.406 6.14317C323.406 5.17926 323.542 4.31834 323.814 3.56042C324.09 2.80251 324.475 2.15925 324.968 1.63065C325.462 1.09817 326.041 0.693945 326.706 0.417985C327.37 0.138139 328.093 -0.00178385 328.875 -0.00178385C329.535 -0.00178385 330.151 0.095385 330.723 0.289723C331.294 0.480173 331.801 0.752246 332.244 1.10594C332.691 1.45964 333.059 1.8794 333.346 2.36525C333.634 2.85109 333.822 3.38746 333.912 3.97436H331.708ZM336.102 12.1016V0.16146H343.868V1.97463H338.265V5.21618H343.466V7.02935H338.265V10.2884H343.915V12.1016H336.102ZM350.147 12.1016V0.16146H357.796V1.97463H352.31V5.21618H357.272V7.02935H352.31V12.1016H350.147ZM359.767 12.1016V0.16146H361.93V10.2884H367.189V12.1016H359.767ZM371.229 0.16146V12.1016H369.066V0.16146H371.229ZM373.571 12.1016V0.16146H378.049C378.966 0.16146 379.736 0.332477 380.357 0.674511C380.983 1.01655 381.455 1.48684 381.774 2.0854C382.097 2.68008 382.258 3.35637 382.258 4.11429C382.258 4.87998 382.097 5.56016 381.774 6.15483C381.452 6.7495 380.975 7.21786 380.346 7.55989C379.716 7.89804 378.941 8.06711 378.02 8.06711H375.052V6.28892H377.728C378.264 6.28892 378.704 6.19564 379.046 6.00908C379.388 5.82251 379.64 5.56599 379.804 5.2395C379.971 4.91301 380.054 4.53794 380.054 4.11429C380.054 3.69063 379.971 3.3175 379.804 2.9949C379.64 2.6723 379.386 2.42161 379.04 2.24282C378.698 2.06014 378.257 1.9688 377.716 1.9688H375.734V12.1016H373.571ZM384.137 12.1016V0.16146H388.614C389.532 0.16146 390.301 0.332477 390.923 0.674511C391.549 1.01655 392.021 1.48684 392.34 2.0854C392.662 2.68008 392.824 3.35637 392.824 4.11429C392.824 4.87998 392.662 5.56016 392.34 6.15483C392.017 6.7495 391.541 7.21786 390.911 7.55989C390.282 7.89804 389.506 8.06711 388.585 8.06711H385.618V6.28892H388.294C388.83 6.28892 389.269 6.19564 389.611 6.00908C389.953 5.82251 390.206 5.56599 390.369 5.2395C390.536 4.91301 390.62 4.53794 390.62 4.11429C390.62 3.69063 390.536 3.3175 390.369 2.9949C390.206 2.6723 389.951 2.42161 389.606 2.24282C389.263 2.06014 388.822 1.9688 388.282 1.9688H386.3V12.1016H384.137ZM396.866 0.16146V12.1016H394.703V0.16146H396.866ZM409.02 0.16146V12.1016H407.096L401.47 3.96853H401.371V12.1016H399.208V0.16146H401.143L406.764 8.30032H406.869V0.16146H409.02ZM419.376 3.97436C419.278 3.65954 419.144 3.37775 418.973 3.129C418.806 2.87636 418.604 2.66064 418.367 2.48185C418.134 2.30306 417.866 2.16897 417.562 2.07957C417.259 1.98629 416.929 1.93965 416.571 1.93965C415.93 1.93965 415.359 2.10095 414.857 2.42355C414.356 2.74615 413.961 3.22033 413.674 3.8461C413.39 4.46798 413.248 5.2259 413.248 6.11985C413.248 7.02158 413.39 7.78532 413.674 8.41109C413.957 9.03686 414.352 9.51299 414.857 9.83947C415.363 10.1621 415.949 10.3234 416.618 10.3234C417.224 10.3234 417.749 10.2068 418.192 9.97357C418.639 9.74036 418.983 9.40999 419.224 8.98244C419.465 8.55101 419.586 8.04574 419.586 7.46661L420.075 7.5424H416.834V5.85166H421.679V7.28588C421.679 8.30809 421.461 9.19233 421.026 9.93859C420.59 10.6848 419.992 11.2601 419.23 11.6643C418.468 12.0646 417.594 12.2648 416.606 12.2648C415.506 12.2648 414.541 12.018 413.709 11.5244C412.881 11.0269 412.234 10.3214 411.767 9.40804C411.305 8.49077 411.074 7.40248 411.074 6.14317C411.074 5.17926 411.21 4.31834 411.482 3.56042C411.758 2.80251 412.142 2.15925 412.636 1.63065C413.13 1.09817 413.709 0.693945 414.373 0.417985C415.038 0.138139 415.761 -0.00178385 416.542 -0.00178385C417.203 -0.00178385 417.819 0.095385 418.39 0.289723C418.962 0.480173 419.469 0.752246 419.912 1.10594C420.359 1.45964 420.726 1.8794 421.014 2.36525C421.302 2.85109 421.49 3.38746 421.579 3.97436H419.376ZM2.30867 33.1016H-6.48983e-05L4.20346 21.1615H6.87366L11.083 33.1016H8.77428L5.5852 23.6101H5.49192L2.30867 33.1016ZM2.38446 28.42H8.681V30.1573H2.38446V28.42ZM20.1824 21.1615H22.3454V28.9622C22.3454 29.8173 22.1432 30.5693 21.739 31.2184C21.3387 31.8675 20.7751 32.3747 20.0483 32.7401C19.3215 33.1016 18.4722 33.2823 17.5005 33.2823C16.5249 33.2823 15.6737 33.1016 14.9469 32.7401C14.2201 32.3747 13.6565 31.8675 13.2562 31.2184C12.8559 30.5693 12.6557 29.8173 12.6557 28.9622V21.1615H14.8187V28.7814C14.8187 29.2789 14.9275 29.722 15.1452 30.1107C15.3667 30.4994 15.6776 30.8045 16.078 31.026C16.4783 31.2437 16.9525 31.3525 17.5005 31.3525C18.0486 31.3525 18.5227 31.2437 18.9231 31.026C19.3273 30.8045 19.6382 30.4994 19.8559 30.1107C20.0736 29.722 20.1824 29.2789 20.1824 28.7814V21.1615ZM24.1716 22.9746V21.1615H33.6981V22.9746H30.0076V33.1016H27.8621V22.9746H24.1716ZM45.6746 27.1315C45.6746 28.418 45.4336 29.5199 44.9517 30.4372C44.4736 31.3506 43.8206 32.0502 42.9928 32.536C42.1688 33.0219 41.234 33.2648 40.1885 33.2648C39.1429 33.2648 38.2062 33.0219 37.3783 32.536C36.5544 32.0463 35.9014 31.3448 35.4194 30.4314C34.9414 29.5141 34.7023 28.4141 34.7023 27.1315C34.7023 25.845 34.9414 24.745 35.4194 23.8317C35.9014 22.9144 36.5544 22.2128 37.3783 21.727C38.2062 21.2411 39.1429 20.9982 40.1885 20.9982C41.234 20.9982 42.1688 21.2411 42.9928 21.727C43.8206 22.2128 44.4736 22.9144 44.9517 23.8317C45.4336 24.745 45.6746 25.845 45.6746 27.1315ZM43.5 27.1315C43.5 26.2259 43.3581 25.4622 43.0744 24.8403C42.7945 24.2145 42.4059 23.7423 41.9084 23.4236C41.4109 23.1009 40.8376 22.9396 40.1885 22.9396C39.5394 22.9396 38.9661 23.1009 38.4686 23.4236C37.9711 23.7423 37.5805 24.2145 37.2967 24.8403C37.0169 25.4622 36.877 26.2259 36.877 27.1315C36.877 28.0371 37.0169 28.8028 37.2967 29.4286C37.5805 30.0505 37.9711 30.5227 38.4686 30.8453C38.9661 31.164 39.5394 31.3234 40.1885 31.3234C40.8376 31.3234 41.4109 31.164 41.9084 30.8453C42.4059 30.5227 42.7945 30.0505 43.0744 29.4286C43.3581 28.8028 43.5 28.0371 43.5 27.1315ZM47.7195 21.1615H50.3664L53.9111 29.8134H54.0511L57.5958 21.1615H60.2426V33.1016H58.1671V24.8986H58.0564L54.7565 33.0666H53.2057L49.9058 24.8811H49.7951V33.1016H47.7195V21.1615ZM64.1313 33.1016H61.8226L66.0261 21.1615H68.6963L72.9057 33.1016H70.597L67.4079 23.6101H67.3146L64.1313 33.1016ZM64.2071 28.42H70.5037V30.1573H64.2071V28.42ZM72.5107 22.9746V21.1615H82.0371V22.9746H78.3467V33.1016H76.2012V22.9746H72.5107ZM86.0366 21.1615V33.1016H83.8736V21.1615H86.0366ZM98.5991 25.1901H96.4186C96.3564 24.8325 96.2418 24.5157 96.0746 24.2398C95.9075 23.9599 95.6995 23.7228 95.4508 23.5285C95.202 23.3342 94.9183 23.1884 94.5996 23.0912C94.2848 22.9902 93.9447 22.9396 93.5793 22.9396C92.9302 22.9396 92.355 23.1029 91.8536 23.4294C91.3522 23.752 90.9597 24.2262 90.6759 24.8519C90.3922 25.4738 90.2503 26.2337 90.2503 27.1315C90.2503 28.0449 90.3922 28.8145 90.6759 29.4402C90.9635 30.0621 91.3561 30.5324 91.8536 30.8511C92.355 31.166 92.9283 31.3234 93.5735 31.3234C93.9311 31.3234 94.2653 31.2767 94.5763 31.1835C94.8911 31.0863 95.1729 30.9444 95.4216 30.7579C95.6743 30.5713 95.8861 30.342 96.0571 30.0699C96.232 29.7978 96.3525 29.4869 96.4186 29.1371L98.5991 29.1487C98.5174 29.7162 98.3406 30.2487 98.0685 30.7462C97.8003 31.2437 97.4486 31.6829 97.0133 32.0638C96.578 32.4408 96.0688 32.7362 95.4858 32.95C94.9028 33.1599 94.2556 33.2648 93.5443 33.2648C92.4949 33.2648 91.5582 33.0219 90.7342 32.536C89.9102 32.0502 89.2611 31.3486 88.787 30.4314C88.3128 29.5141 88.0757 28.4141 88.0757 27.1315C88.0757 25.845 88.3147 24.745 88.7928 23.8317C89.2709 22.9144 89.9219 22.2128 90.7459 21.727C91.5699 21.2411 92.5027 20.9982 93.5443 20.9982C94.209 20.9982 94.827 21.0915 95.3983 21.2781C95.9697 21.4646 96.4788 21.7386 96.9258 22.1001C97.3728 22.4577 97.7401 22.8969 98.0277 23.4177C98.3192 23.9347 98.5097 24.5254 98.5991 25.1901ZM101.969 33.1016H99.6601L103.864 21.1615H106.534L110.743 33.1016H108.434L105.245 23.6101H105.152L101.969 33.1016ZM102.045 28.42H108.341V30.1573H102.045V28.42ZM112.316 33.1016V21.1615H114.479V31.2884H119.738V33.1016H112.316ZM121.615 33.1016V21.1615H123.778V31.2884H129.037V33.1016H121.615ZM128.895 21.1615H131.338L134.259 26.4436H134.376L137.297 21.1615H139.739L135.396 28.6473V33.1016H133.239V28.6473L128.895 21.1615ZM142.726 31.4691L142.65 32.1104C142.596 32.6002 142.498 33.0977 142.359 33.603C142.223 34.1121 142.079 34.5805 141.927 35.008C141.776 35.4356 141.653 35.7718 141.56 36.0166H140.137C140.192 35.7795 140.266 35.4569 140.359 35.0488C140.456 34.6407 140.549 34.1821 140.639 33.6729C140.728 33.1638 140.788 32.6468 140.819 32.1221L140.86 31.4691H142.726ZM152.933 33.1016H148.887V21.1615H153.015C154.2 21.1615 155.218 21.4005 156.07 21.8786C156.925 22.3527 157.581 23.0349 158.04 23.9249C158.499 24.815 158.728 25.88 158.728 27.1199C158.728 28.3636 158.497 29.4325 158.034 30.3264C157.576 31.2204 156.913 31.9064 156.046 32.3845C155.183 32.8625 154.146 33.1016 152.933 33.1016ZM151.05 31.2301H152.828C153.66 31.2301 154.354 31.0785 154.909 30.7753C155.465 30.4683 155.883 30.0116 156.163 29.4053C156.443 28.795 156.583 28.0332 156.583 27.1199C156.583 26.2065 156.443 25.4485 156.163 24.8461C155.883 24.2398 155.469 23.787 154.921 23.4877C154.377 23.1845 153.701 23.0329 152.892 23.0329H151.05V31.2301ZM160.783 33.1016V21.1615H165.261C166.178 21.1615 166.948 21.3208 167.569 21.6395C168.195 21.9582 168.667 22.4052 168.986 22.9805C169.309 23.5518 169.47 24.2184 169.47 24.9802C169.47 25.7459 169.307 26.4105 168.98 26.9741C168.658 27.5338 168.182 27.9672 167.552 28.2742C166.922 28.5774 166.149 28.729 165.232 28.729H162.043V26.9333H164.94C165.476 26.9333 165.916 26.8594 166.258 26.7117C166.6 26.5602 166.852 26.3406 167.016 26.0529C167.183 25.7614 167.266 25.4038 167.266 24.9802C167.266 24.5565 167.183 24.1951 167.016 23.8958C166.848 23.5926 166.594 23.3633 166.252 23.2078C165.91 23.0485 165.469 22.9688 164.928 22.9688H162.946V33.1016H160.783ZM166.951 27.6912L169.907 33.1016H167.494L164.59 27.6912H166.951ZM172.994 33.1016H170.686L174.889 21.1615H177.559L181.769 33.1016H179.46L176.271 23.6101H176.178L172.994 33.1016ZM173.07 28.42H179.367V30.1573H173.07V28.42ZM190.779 24.9744C190.682 24.6595 190.548 24.3777 190.377 24.129C190.21 23.8764 190.008 23.6606 189.771 23.4819C189.537 23.3031 189.269 23.169 188.966 23.0796C188.663 22.9863 188.333 22.9396 187.975 22.9396C187.334 22.9396 186.762 23.1009 186.261 23.4236C185.759 23.7461 185.365 24.2203 185.077 24.8461C184.794 25.468 184.652 26.2259 184.652 27.1199C184.652 28.0216 184.794 28.7853 185.077 29.4111C185.361 30.0369 185.756 30.513 186.261 30.8395C186.766 31.1621 187.353 31.3234 188.022 31.3234C188.628 31.3234 189.153 31.2068 189.596 30.9736C190.043 30.7404 190.387 30.41 190.628 29.9824C190.869 29.551 190.989 29.0457 190.989 28.4666L191.479 28.5424H188.237V26.8517H193.082V28.2859C193.082 29.3081 192.864 30.1923 192.429 30.9386C191.994 31.6848 191.395 32.2601 190.633 32.6643C189.872 33.0646 188.997 33.2648 188.01 33.2648C186.91 33.2648 185.944 33.018 185.112 32.5244C184.284 32.0269 183.637 31.3214 183.171 30.408C182.708 29.4908 182.477 28.4025 182.477 27.1432C182.477 26.1793 182.613 25.3183 182.885 24.5604C183.161 23.8025 183.546 23.1593 184.04 22.6307C184.533 22.0982 185.112 21.6939 185.777 21.418C186.442 21.1381 187.165 20.9982 187.946 20.9982C188.607 20.9982 189.223 21.0954 189.794 21.2897C190.365 21.4802 190.873 21.7522 191.316 22.1059C191.763 22.4596 192.13 22.8794 192.417 23.3652C192.705 23.8511 192.894 24.3875 192.983 24.9744H190.779ZM203.173 24.9744C203.075 24.6595 202.941 24.3777 202.77 24.129C202.603 23.8764 202.401 23.6606 202.164 23.4819C201.931 23.3031 201.663 23.169 201.359 23.0796C201.056 22.9863 200.726 22.9396 200.368 22.9396C199.727 22.9396 199.156 23.1009 198.654 23.4236C198.153 23.7461 197.758 24.2203 197.471 24.8461C197.187 25.468 197.045 26.2259 197.045 27.1199C197.045 28.0216 197.187 28.7853 197.471 29.4111C197.754 30.0369 198.149 30.513 198.654 30.8395C199.16 31.1621 199.746 31.3234 200.415 31.3234C201.021 31.3234 201.546 31.2068 201.989 30.9736C202.436 30.7404 202.78 30.41 203.021 29.9824C203.262 29.551 203.382 29.0457 203.382 28.4666L203.872 28.5424H200.631V26.8517H205.476V28.2859C205.476 29.3081 205.258 30.1923 204.823 30.9386C204.387 31.6848 203.789 32.2601 203.027 32.6643C202.265 33.0646 201.391 33.2648 200.403 33.2648C199.303 33.2648 198.337 33.018 197.506 32.5244C196.678 32.0269 196.031 31.3214 195.564 30.408C195.102 29.4908 194.871 28.4025 194.871 27.1432C194.871 26.1793 195.007 25.3183 195.279 24.5604C195.555 23.8025 195.939 23.1593 196.433 22.6307C196.927 22.0982 197.506 21.6939 198.17 21.418C198.835 21.1381 199.558 20.9982 200.339 20.9982C201 20.9982 201.616 21.0954 202.187 21.2897C202.759 21.4802 203.266 21.7522 203.709 22.1059C204.156 22.4596 204.523 22.8794 204.811 23.3652C205.098 23.8511 205.287 24.3875 205.376 24.9744H203.173ZM209.73 21.1615V33.1016H207.567V21.1615H209.73ZM221.884 21.1615V33.1016H219.96L214.334 24.9685H214.235V33.1016H212.072V21.1615H214.008L219.628 29.3003H219.733V21.1615H221.884ZM232.24 24.9744C232.143 24.6595 232.009 24.3777 231.838 24.129C231.671 23.8764 231.469 23.6606 231.232 23.4819C230.998 23.3031 230.73 23.169 230.427 23.0796C230.124 22.9863 229.793 22.9396 229.436 22.9396C228.795 22.9396 228.223 23.1009 227.722 23.4236C227.22 23.7461 226.826 24.2203 226.538 24.8461C226.255 25.468 226.113 26.2259 226.113 27.1199C226.113 28.0216 226.255 28.7853 226.538 29.4111C226.822 30.0369 227.217 30.513 227.722 30.8395C228.227 31.1621 228.814 31.3234 229.483 31.3234C230.089 31.3234 230.614 31.2068 231.057 30.9736C231.504 30.7404 231.848 30.41 232.089 29.9824C232.33 29.551 232.45 29.0457 232.45 28.4666L232.94 28.5424H229.698V26.8517H234.543V28.2859C234.543 29.3081 234.325 30.1923 233.89 30.9386C233.455 31.6848 232.856 32.2601 232.094 32.6643C231.333 33.0646 230.458 33.2648 229.471 33.2648C228.371 33.2648 227.405 33.018 226.573 32.5244C225.745 32.0269 225.098 31.3214 224.632 30.408C224.169 29.4908 223.938 28.4025 223.938 27.1432C223.938 26.1793 224.074 25.3183 224.346 24.5604C224.622 23.8025 225.007 23.1593 225.501 22.6307C225.994 22.0982 226.573 21.6939 227.238 21.418C227.903 21.1381 228.625 20.9982 229.407 20.9982C230.067 20.9982 230.684 21.0954 231.255 21.2897C231.826 21.4802 232.333 21.7522 232.777 22.1059C233.224 22.4596 233.591 22.8794 233.878 23.3652C234.166 23.8511 234.355 24.3875 234.444 24.9744H232.24ZM242.87 21.1615V33.1016H240.707V21.1615H242.87ZM244.687 22.9746V21.1615H254.214V22.9746H250.523V33.1016H248.378V22.9746H244.687ZM260.123 33.1016V21.1615H262.286V31.2884H267.545V33.1016H260.123ZM269.422 33.1016V21.1615H277.188V22.9746H271.585V26.2162H276.785V28.0294H271.585V31.2884H277.234V33.1016H269.422ZM278.87 22.9746V21.1615H288.396V22.9746H284.705V33.1016H282.56V22.9746H278.87ZM296.721 24.4438C296.667 23.9347 296.438 23.5382 296.033 23.2545C295.633 22.9707 295.112 22.8289 294.471 22.8289C294.02 22.8289 293.633 22.8969 293.311 23.0329C292.988 23.169 292.741 23.3536 292.57 23.5868C292.399 23.82 292.312 24.0862 292.308 24.3855C292.308 24.6343 292.364 24.85 292.477 25.0327C292.594 25.2153 292.751 25.3708 292.949 25.4991C293.148 25.6235 293.367 25.7284 293.608 25.8139C293.849 25.8994 294.092 25.9713 294.337 26.0296L295.456 26.3095C295.907 26.4144 296.34 26.5563 296.756 26.7351C297.176 26.9139 297.551 27.1393 297.882 27.4114C298.216 27.6834 298.48 28.0119 298.674 28.3966C298.869 28.7814 298.966 29.2323 298.966 29.7492C298.966 30.4489 298.787 31.0649 298.43 31.5974C298.072 32.126 297.555 32.5399 296.879 32.8392C296.206 33.1346 295.392 33.2823 294.436 33.2823C293.507 33.2823 292.701 33.1385 292.016 32.8509C291.336 32.5632 290.804 32.1435 290.419 31.5916C290.038 31.0396 289.832 30.3672 289.801 29.5743H291.929C291.96 29.9902 292.088 30.3361 292.314 30.6121C292.539 30.8881 292.833 31.0941 293.194 31.2301C293.56 31.3661 293.968 31.4341 294.418 31.4341C294.889 31.4341 295.301 31.3642 295.654 31.2243C296.012 31.0805 296.292 30.8822 296.494 30.6296C296.696 30.3731 296.799 30.0738 296.803 29.7317C296.799 29.4208 296.708 29.1643 296.529 28.9622C296.35 28.7562 296.1 28.5852 295.777 28.4491C295.458 28.3092 295.085 28.1848 294.658 28.076L293.299 27.7262C292.316 27.4735 291.538 27.0907 290.967 26.5776C290.4 26.0607 290.116 25.3747 290.116 24.5196C290.116 23.8161 290.306 23.2001 290.687 22.6715C291.072 22.1429 291.595 21.7328 292.256 21.4413C292.916 21.1459 293.664 20.9982 294.5 20.9982C295.347 20.9982 296.09 21.1459 296.727 21.4413C297.369 21.7328 297.872 22.139 298.237 22.6598C298.603 23.1767 298.791 23.7714 298.803 24.4438H296.721ZM304.15 21.1615H306.593L309.514 26.4436H309.631L312.552 21.1615H314.994L310.651 28.6473V33.1016H308.494V28.6473L304.15 21.1615ZM326.522 27.1315C326.522 28.418 326.281 29.5199 325.799 30.4372C325.321 31.3506 324.668 32.0502 323.84 32.536C323.016 33.0219 322.081 33.2648 321.036 33.2648C319.99 33.2648 319.054 33.0219 318.226 32.536C317.402 32.0463 316.749 31.3448 316.267 30.4314C315.789 29.5141 315.55 28.4141 315.55 27.1315C315.55 25.845 315.789 24.745 316.267 23.8317C316.749 22.9144 317.402 22.2128 318.226 21.727C319.054 21.2411 319.99 20.9982 321.036 20.9982C322.081 20.9982 323.016 21.2411 323.84 21.727C324.668 22.2128 325.321 22.9144 325.799 23.8317C326.281 24.745 326.522 25.845 326.522 27.1315ZM324.347 27.1315C324.347 26.2259 324.206 25.4622 323.922 24.8403C323.642 24.2145 323.253 23.7423 322.756 23.4236C322.258 23.1009 321.685 22.9396 321.036 22.9396C320.387 22.9396 319.814 23.1009 319.316 23.4236C318.819 23.7423 318.428 24.2145 318.144 24.8403C317.864 25.4622 317.724 26.2259 317.724 27.1315C317.724 28.0371 317.864 28.8028 318.144 29.4286C318.428 30.0505 318.819 30.5227 319.316 30.8453C319.814 31.164 320.387 31.3234 321.036 31.3234C321.685 31.3234 322.258 31.164 322.756 30.8453C323.253 30.5227 323.642 30.0505 323.922 29.4286C324.206 28.8028 324.347 28.0371 324.347 27.1315ZM336.094 21.1615H338.257V28.9622C338.257 29.8173 338.055 30.5693 337.65 31.2184C337.25 31.8675 336.686 32.3747 335.96 32.7401C335.233 33.1016 334.384 33.2823 333.412 33.2823C332.436 33.2823 331.585 33.1016 330.858 32.7401C330.131 32.3747 329.568 31.8675 329.168 31.2184C328.767 30.5693 328.567 29.8173 328.567 28.9622V21.1615H330.73V28.7814C330.73 29.2789 330.839 29.722 331.056 30.1107C331.278 30.4994 331.589 30.8045 331.989 31.026C332.39 31.2437 332.864 31.3525 333.412 31.3525C333.96 31.3525 334.434 31.2437 334.834 31.026C335.239 30.8045 335.55 30.4994 335.767 30.1107C335.985 29.722 336.094 29.2789 336.094 28.7814V21.1615ZM344.68 33.1016V21.1615H349.158C350.075 21.1615 350.844 21.3325 351.466 21.6745C352.092 22.0165 352.564 22.4868 352.883 23.0854C353.206 23.6801 353.367 24.3564 353.367 25.1143C353.367 25.88 353.206 26.5602 352.883 27.1548C352.56 27.7495 352.084 28.2179 351.455 28.5599C350.825 28.898 350.05 29.0671 349.128 29.0671H346.161V27.2889H348.837C349.373 27.2889 349.812 27.1956 350.155 27.0091C350.497 26.8225 350.749 26.566 350.912 26.2395C351.08 25.913 351.163 25.5379 351.163 25.1143C351.163 24.6906 351.08 24.3175 350.912 23.9949C350.749 23.6723 350.495 23.4216 350.149 23.2428C349.807 23.0601 349.366 22.9688 348.825 22.9688H346.843V33.1016H344.68ZM355.246 33.1016V21.1615H363.011V22.9746H357.409V26.2162H362.609V28.0294H357.409V31.2884H363.058V33.1016H355.246ZM365.218 33.1016V21.1615H369.696C370.613 21.1615 371.382 21.3208 372.004 21.6395C372.63 21.9582 373.102 22.4052 373.421 22.9805C373.744 23.5518 373.905 24.2184 373.905 24.9802C373.905 25.7459 373.742 26.4105 373.415 26.9741C373.093 27.5338 372.617 27.9672 371.987 28.2742C371.357 28.5774 370.584 28.729 369.666 28.729H366.477V26.9333H369.375C369.911 26.9333 370.351 26.8594 370.693 26.7117C371.035 26.5602 371.287 26.3406 371.45 26.0529C371.618 25.7614 371.701 25.4038 371.701 24.9802C371.701 24.5565 371.618 24.1951 371.45 23.8958C371.283 23.5926 371.029 23.3633 370.687 23.2078C370.345 23.0485 369.904 22.9688 369.363 22.9688H367.381V33.1016H365.218ZM371.386 27.6912L374.342 33.1016H371.929L369.025 27.6912H371.386ZM375.896 33.1016V21.1615H383.545V22.9746H378.059V26.2162H383.02V28.0294H378.059V33.1016H375.896ZM396.185 27.1315C396.185 28.418 395.944 29.5199 395.462 30.4372C394.984 31.3506 394.331 32.0502 393.503 32.536C392.679 33.0219 391.744 33.2648 390.699 33.2648C389.653 33.2648 388.716 33.0219 387.889 32.536C387.065 32.0463 386.412 31.3448 385.93 30.4314C385.452 29.5141 385.213 28.4141 385.213 27.1315C385.213 25.845 385.452 24.745 385.93 23.8317C386.412 22.9144 387.065 22.2128 387.889 21.727C388.716 21.2411 389.653 20.9982 390.699 20.9982C391.744 20.9982 392.679 21.2411 393.503 21.727C394.331 22.2128 394.984 22.9144 395.462 23.8317C395.944 24.745 396.185 25.845 396.185 27.1315ZM394.01 27.1315C394.01 26.2259 393.868 25.4622 393.585 24.8403C393.305 24.2145 392.916 23.7423 392.419 23.4236C391.921 23.1009 391.348 22.9396 390.699 22.9396C390.05 22.9396 389.476 23.1009 388.979 23.4236C388.481 23.7423 388.091 24.2145 387.807 24.8403C387.527 25.4622 387.387 26.2259 387.387 27.1315C387.387 28.0371 387.527 28.8028 387.807 29.4286C388.091 30.0505 388.481 30.5227 388.979 30.8453C389.476 31.164 390.05 31.3234 390.699 31.3234C391.348 31.3234 391.921 31.164 392.419 30.8453C392.916 30.5227 393.305 30.0505 393.585 29.4286C393.868 28.8028 394.01 28.0371 394.01 27.1315ZM398.23 33.1016V21.1615H402.707C403.625 21.1615 404.394 21.3208 405.016 21.6395C405.642 21.9582 406.114 22.4052 406.433 22.9805C406.755 23.5518 406.917 24.2184 406.917 24.9802C406.917 25.7459 406.753 26.4105 406.427 26.9741C406.104 27.5338 405.628 27.9672 404.999 28.2742C404.369 28.5774 403.595 28.729 402.678 28.729H399.489V26.9333H402.387C402.923 26.9333 403.362 26.8594 403.704 26.7117C404.046 26.5602 404.299 26.3406 404.462 26.0529C404.629 25.7614 404.713 25.4038 404.713 24.9802C404.713 24.5565 404.629 24.1951 404.462 23.8958C404.295 23.5926 404.04 23.3633 403.698 23.2078C403.356 23.0485 402.915 22.9688 402.375 22.9688H400.393V33.1016H398.23ZM404.398 27.6912L407.354 33.1016H404.94L402.037 27.6912H404.398ZM408.908 21.1615H411.555L415.099 29.8134H415.239L418.784 21.1615H421.431V33.1016H419.355V24.8986H419.244L415.945 33.0666H414.394L411.094 24.8811H410.983V33.1016H408.908V21.1615ZM0.775342 43.1615H3.42222L6.96694 51.8134H7.10686L10.6516 43.1615H13.2985V55.1016H11.2229V46.8986H11.1122L7.81231 55.0666H6.26149L2.96164 46.8811H2.85087V55.1016H0.775342V43.1615ZM17.1872 55.1016H14.8784L19.0819 43.1615H21.7521L25.9615 55.1016H23.6528L20.4637 45.6101H20.3704L17.1872 55.1016ZM17.2629 50.42H23.5595V52.1573H17.2629V50.42ZM37.3463 43.1615V55.1016H35.4223L29.7963 46.9685H29.6972V55.1016H27.5342V43.1615H29.4698L35.09 51.3003H35.195V43.1615H37.3463ZM47.2298 43.1615H49.3928V50.9622C49.3928 51.8173 49.1907 52.5693 48.7864 53.2184C48.3861 53.8675 47.8225 54.3747 47.0957 54.7401C46.3689 55.1016 45.5196 55.2823 44.5479 55.2823C43.5724 55.2823 42.7212 55.1016 41.9943 54.7401C41.2675 54.3747 40.7039 53.8675 40.3036 53.2184C39.9033 52.5693 39.7031 51.8173 39.7031 50.9622V43.1615H41.8661V50.7814C41.8661 51.2789 41.9749 51.722 42.1926 52.1107C42.4141 52.4994 42.7251 52.8045 43.1254 53.026C43.5257 53.2437 43.9999 53.3525 44.5479 53.3525C45.096 53.3525 45.5702 53.2437 45.9705 53.026C46.3747 52.8045 46.6857 52.4994 46.9033 52.1107C47.121 51.722 47.2298 51.2789 47.2298 50.7814V43.1615ZM53.2771 55.1016H50.9684L55.1719 43.1615H57.8421L62.0514 55.1016H59.7427L56.5536 45.6101H56.4604L53.2771 55.1016ZM53.3529 50.42H59.6494V52.1573H53.3529V50.42ZM63.6241 55.1016V43.1615H65.7871V53.2884H71.0459V55.1016H63.6241ZM76.9955 55.1016V43.1615H84.6446V44.9746H79.1585V48.2162H84.1199V50.0294H79.1585V55.1016H76.9955ZM86.6152 55.1016V43.1615H88.7782V53.2884H94.037V55.1016H86.6152ZM98.0773 43.1615V55.1016H95.9143V43.1615H98.0773ZM100.42 55.1016V43.1615H104.897C105.814 43.1615 106.584 43.3325 107.206 43.6745C107.832 44.0165 108.304 44.4868 108.623 45.0854C108.945 45.6801 109.106 46.3564 109.106 47.1143C109.106 47.88 108.945 48.5602 108.623 49.1548C108.3 49.7495 107.824 50.2179 107.194 50.5599C106.564 50.898 105.789 51.0671 104.868 51.0671H101.9V49.2889H104.576C105.113 49.2889 105.552 49.1956 105.894 49.0091C106.236 48.8225 106.489 48.566 106.652 48.2395C106.819 47.913 106.903 47.5379 106.903 47.1143C106.903 46.6906 106.819 46.3175 106.652 45.9949C106.489 45.6723 106.234 45.4216 105.888 45.2428C105.546 45.0601 105.105 44.9688 104.565 44.9688H102.582V55.1016H100.42ZM110.985 55.1016V43.1615H115.463C116.38 43.1615 117.15 43.3325 117.771 43.6745C118.397 44.0165 118.869 44.4868 119.188 45.0854C119.511 45.6801 119.672 46.3564 119.672 47.1143C119.672 47.88 119.511 48.5602 119.188 49.1548C118.866 49.7495 118.389 50.2179 117.76 50.5599C117.13 50.898 116.355 51.0671 115.434 51.0671H112.466V49.2889H115.142C115.678 49.2889 116.118 49.1956 116.46 49.0091C116.802 48.8225 117.054 48.566 117.218 48.2395C117.385 47.913 117.468 47.5379 117.468 47.1143C117.468 46.6906 117.385 46.3175 117.218 45.9949C117.054 45.6723 116.8 45.4216 116.454 45.2428C116.112 45.0601 115.671 44.9688 115.13 44.9688H113.148V55.1016H110.985ZM123.714 43.1615V55.1016H121.551V43.1615H123.714ZM135.868 43.1615V55.1016H133.944L128.318 46.9685H128.219V55.1016H126.056V43.1615H127.992L133.612 51.3003H133.717V43.1615H135.868ZM146.224 46.9744C146.127 46.6595 145.993 46.3777 145.822 46.129C145.655 45.8764 145.452 45.6606 145.215 45.4819C144.982 45.3031 144.714 45.169 144.411 45.0796C144.108 44.9863 143.777 44.9396 143.42 44.9396C142.778 44.9396 142.207 45.1009 141.706 45.4236C141.204 45.7461 140.81 46.2203 140.522 46.8461C140.238 47.468 140.096 48.2259 140.096 49.1199C140.096 50.0216 140.238 50.7853 140.522 51.4111C140.806 52.0369 141.2 52.513 141.706 52.8395C142.211 53.1621 142.798 53.3234 143.466 53.3234C144.073 53.3234 144.597 53.2068 145.04 52.9736C145.487 52.7404 145.831 52.41 146.072 51.9824C146.313 51.551 146.434 51.0457 146.434 50.4666L146.924 50.5424H143.682V48.8517H148.527V50.2859C148.527 51.3081 148.309 52.1923 147.874 52.9386C147.439 53.6848 146.84 54.2601 146.078 54.6643C145.316 55.0646 144.442 55.2648 143.455 55.2648C142.355 55.2648 141.389 55.018 140.557 54.5244C139.729 54.0269 139.082 53.3214 138.616 52.408C138.153 51.4908 137.922 50.4025 137.922 49.1432C137.922 48.1793 138.058 47.3183 138.33 46.5604C138.606 45.8025 138.991 45.1593 139.484 44.6307C139.978 44.0982 140.557 43.6939 141.222 43.418C141.886 43.1381 142.609 42.9982 143.39 42.9982C144.051 42.9982 144.667 43.0954 145.239 43.2897C145.81 43.4802 146.317 43.7522 146.76 44.1059C147.207 44.4596 147.575 44.8794 147.862 45.3652C148.15 45.8511 148.338 46.3875 148.428 46.9744H146.224ZM157.204 55.1016L153.834 43.1615H156.16L158.311 51.9358H158.422L160.719 43.1615H162.835L165.138 51.9416H165.243L167.395 43.1615H169.721L166.351 55.1016H164.217L161.827 46.7237H161.734L159.337 55.1016H157.204ZM173.384 43.1615V55.1016H171.221V43.1615H173.384ZM175.201 44.9746V43.1615H184.728V44.9746H181.037V55.1016H178.892V44.9746H175.201ZM186.564 55.1016V43.1615H188.727V48.2162H194.26V43.1615H196.429V55.1016H194.26V50.0294H188.727V55.1016H186.564ZM202.853 55.1016V43.1615H210.503V44.9746H205.016V48.2162H209.978V50.0294H205.016V55.1016H202.853ZM212.473 55.1016V43.1615H216.951C217.868 43.1615 218.638 43.3208 219.259 43.6395C219.885 43.9582 220.357 44.4052 220.676 44.9805C220.999 45.5518 221.16 46.2184 221.16 46.9802C221.16 47.7459 220.997 48.4105 220.67 48.9741C220.348 49.5338 219.872 49.9672 219.242 50.2742C218.612 50.5774 217.839 50.729 216.922 50.729H213.732V48.9333H216.63C217.166 48.9333 217.606 48.8594 217.948 48.7117C218.29 48.5602 218.542 48.3406 218.706 48.0529C218.873 47.7614 218.956 47.4038 218.956 46.9802C218.956 46.5565 218.873 46.1951 218.706 45.8958C218.538 45.5926 218.284 45.3633 217.942 45.2078C217.6 45.0485 217.159 44.9688 216.618 44.9688H214.636V55.1016H212.473ZM218.641 49.6912L221.597 55.1016H219.184L216.28 49.6912H218.641ZM223.151 55.1016V43.1615H230.917V44.9746H225.314V48.2162H230.514V50.0294H225.314V53.2884H230.963V55.1016H223.151ZM233.123 55.1016V43.1615H240.889V44.9746H235.286V48.2162H240.487V50.0294H235.286V53.2884H240.936V55.1016H233.123ZM247.168 55.1016V43.1615H251.646C252.563 43.1615 253.333 43.3325 253.954 43.6745C254.58 44.0165 255.052 44.4868 255.371 45.0854C255.694 45.6801 255.855 46.3564 255.855 47.1143C255.855 47.88 255.694 48.5602 255.371 49.1548C255.049 49.7495 254.572 50.2179 253.943 50.5599C253.313 50.898 252.538 51.0671 251.617 51.0671H248.649V49.2889H251.325C251.861 49.2889 252.301 49.1956 252.643 49.0091C252.985 48.8225 253.237 48.566 253.401 48.2395C253.568 47.913 253.651 47.5379 253.651 47.1143C253.651 46.6906 253.568 46.3175 253.401 45.9949C253.237 45.6723 252.983 45.4216 252.637 45.2428C252.295 45.0601 251.854 44.9688 251.313 44.9688H249.331V55.1016H247.168ZM257.936 55.1016H255.628L259.831 43.1615H262.501L266.711 55.1016H264.402L261.213 45.6101H261.12L257.936 55.1016ZM258.012 50.42H264.309V52.1573H258.012V50.42ZM275.721 46.9744C275.624 46.6595 275.49 46.3777 275.319 46.129C275.152 45.8764 274.95 45.6606 274.713 45.4819C274.479 45.3031 274.211 45.169 273.908 45.0796C273.605 44.9863 273.275 44.9396 272.917 44.9396C272.276 44.9396 271.704 45.1009 271.203 45.4236C270.702 45.7461 270.307 46.2203 270.019 46.8461C269.736 47.468 269.594 48.2259 269.594 49.1199C269.594 50.0216 269.736 50.7853 270.019 51.4111C270.303 52.0369 270.698 52.513 271.203 52.8395C271.708 53.1621 272.295 53.3234 272.964 53.3234C273.57 53.3234 274.095 53.2068 274.538 52.9736C274.985 52.7404 275.329 52.41 275.57 51.9824C275.811 51.551 275.931 51.0457 275.931 50.4666L276.421 50.5424H273.179V48.8517H278.024V50.2859C278.024 51.3081 277.807 52.1923 277.371 52.9386C276.936 53.6848 276.337 54.2601 275.576 54.6643C274.814 55.0646 273.939 55.2648 272.952 55.2648C271.852 55.2648 270.886 55.018 270.054 54.5244C269.227 54.0269 268.579 53.3214 268.113 52.408C267.65 51.4908 267.419 50.4025 267.419 49.1432C267.419 48.1793 267.555 47.3183 267.827 46.5604C268.103 45.8025 268.488 45.1593 268.982 44.6307C269.475 44.0982 270.054 43.6939 270.719 43.418C271.384 43.1381 272.107 42.9982 272.888 42.9982C273.549 42.9982 274.165 43.0954 274.736 43.2897C275.307 43.4802 275.815 43.7522 276.258 44.1059C276.705 44.4596 277.072 44.8794 277.36 45.3652C277.647 45.8511 277.836 46.3875 277.925 46.9744H275.721ZM280.116 55.1016V43.1615H287.881V44.9746H282.279V48.2162H287.479V50.0294H282.279V53.2884H287.928V55.1016H280.116ZM294.161 55.1016V43.1615H301.81V44.9746H296.323V48.2162H301.285V50.0294H296.323V55.1016H294.161ZM314.449 49.1315C314.449 50.418 314.208 51.5199 313.726 52.4372C313.248 53.3506 312.595 54.0502 311.768 54.536C310.944 55.0219 310.009 55.2648 308.963 55.2648C307.918 55.2648 306.981 55.0219 306.153 54.536C305.329 54.0463 304.676 53.3448 304.194 52.4314C303.716 51.5141 303.477 50.4141 303.477 49.1315C303.477 47.845 303.716 46.745 304.194 45.8317C304.676 44.9144 305.329 44.2128 306.153 43.727C306.981 43.2411 307.918 42.9982 308.963 42.9982C310.009 42.9982 310.944 43.2411 311.768 43.727C312.595 44.2128 313.248 44.9144 313.726 45.8317C314.208 46.745 314.449 47.845 314.449 49.1315ZM312.275 49.1315C312.275 48.2259 312.133 47.4622 311.849 46.8403C311.569 46.2145 311.181 45.7423 310.683 45.4236C310.186 45.1009 309.612 44.9396 308.963 44.9396C308.314 44.9396 307.741 45.1009 307.243 45.4236C306.746 45.7423 306.355 46.2145 306.071 46.8403C305.792 47.4622 305.652 48.2259 305.652 49.1315C305.652 50.0371 305.792 50.8028 306.071 51.4286C306.355 52.0505 306.746 52.5227 307.243 52.8453C307.741 53.164 308.314 53.3234 308.963 53.3234C309.612 53.3234 310.186 53.164 310.683 52.8453C311.181 52.5227 311.569 52.0505 311.849 51.4286C312.133 50.8028 312.275 50.0371 312.275 49.1315ZM316.494 55.1016V43.1615H318.657V53.2884H323.916V55.1016H316.494ZM329.839 55.1016H325.793V43.1615H329.921C331.107 43.1615 332.125 43.4005 332.976 43.8786C333.831 44.3527 334.488 45.0349 334.947 45.9249C335.405 46.815 335.635 47.88 335.635 49.1199C335.635 50.3636 335.403 51.4325 334.941 52.3264C334.482 53.2204 333.819 53.9064 332.953 54.3845C332.09 54.8625 331.052 55.1016 329.839 55.1016ZM327.956 53.2301H329.734C330.566 53.2301 331.26 53.0785 331.816 52.7753C332.372 52.4683 332.789 52.0116 333.069 51.4053C333.349 50.795 333.489 50.0332 333.489 49.1199C333.489 48.2065 333.349 47.4485 333.069 46.8461C332.789 46.2398 332.376 45.787 331.827 45.4877C331.283 45.1845 330.607 45.0329 329.799 45.0329H327.956V53.2301ZM339.853 43.1615V55.1016H337.69V43.1615H339.853ZM352.007 43.1615V55.1016H350.083L344.457 46.9685H344.358V55.1016H342.195V43.1615H344.131L349.751 51.3003H349.856V43.1615H352.007ZM362.363 46.9744C362.266 46.6595 362.132 46.3777 361.961 46.129C361.793 45.8764 361.591 45.6606 361.354 45.4819C361.121 45.3031 360.853 45.169 360.55 45.0796C360.246 44.9863 359.916 44.9396 359.559 44.9396C358.917 44.9396 358.346 45.1009 357.844 45.4236C357.343 45.7461 356.949 46.2203 356.661 46.8461C356.377 47.468 356.235 48.2259 356.235 49.1199C356.235 50.0216 356.377 50.7853 356.661 51.4111C356.945 52.0369 357.339 52.513 357.844 52.8395C358.35 53.1621 358.937 53.3234 359.605 53.3234C360.211 53.3234 360.736 53.2068 361.179 52.9736C361.626 52.7404 361.97 52.41 362.211 51.9824C362.452 51.551 362.573 51.0457 362.573 50.4666L363.062 50.5424H359.821V48.8517H364.666V50.2859C364.666 51.3081 364.448 52.1923 364.013 52.9386C363.577 53.6848 362.979 54.2601 362.217 54.6643C361.455 55.0646 360.581 55.2648 359.593 55.2648C358.494 55.2648 357.528 55.018 356.696 54.5244C355.868 54.0269 355.221 53.3214 354.754 52.408C354.292 51.4908 354.061 50.4025 354.061 49.1432C354.061 48.1793 354.197 47.3183 354.469 46.5604C354.745 45.8025 355.13 45.1593 355.623 44.6307C356.117 44.0982 356.696 43.6939 357.361 43.418C358.025 43.1381 358.748 42.9982 359.529 42.9982C360.19 42.9982 360.806 43.0954 361.378 43.2897C361.949 43.4802 362.456 43.7522 362.899 44.1059C363.346 44.4596 363.713 44.8794 364.001 45.3652C364.289 45.8511 364.477 46.3875 364.567 46.9744H362.363ZM370.83 55.1016V43.1615H378.595V44.9746H372.993V48.2162H378.193V50.0294H372.993V53.2884H378.642V55.1016H370.83ZM380.802 55.1016V43.1615H388.451V44.9746H382.965V48.2162H387.926V50.0294H382.965V55.1016H380.802ZM390.422 55.1016V43.1615H398.071V44.9746H392.585V48.2162H397.546V50.0294H392.585V55.1016H390.422ZM400.041 55.1016V43.1615H407.807V44.9746H402.204V48.2162H407.405V50.0294H402.204V53.2884H407.854V55.1016H400.041ZM420.234 47.1901H418.054C417.991 46.8325 417.877 46.5157 417.71 46.2398C417.543 45.9599 417.335 45.7228 417.086 45.5285C416.837 45.3342 416.553 45.1884 416.235 45.0912C415.92 44.9902 415.58 44.9396 415.214 44.9396C414.565 44.9396 413.99 45.1029 413.489 45.4294C412.987 45.752 412.595 46.2262 412.311 46.8519C412.027 47.4738 411.885 48.2337 411.885 49.1315C411.885 50.0449 412.027 50.8145 412.311 51.4402C412.599 52.0621 412.991 52.5324 413.489 52.8511C413.99 53.166 414.563 53.3234 415.209 53.3234C415.566 53.3234 415.9 53.2767 416.211 53.1835C416.526 53.0863 416.808 52.9444 417.057 52.7579C417.309 52.5713 417.521 52.342 417.692 52.0699C417.867 51.7978 417.988 51.4869 418.054 51.1371L420.234 51.1487C420.152 51.7162 419.976 52.2487 419.704 52.7462C419.435 53.2437 419.084 53.6829 418.648 54.0638C418.213 54.4408 417.704 54.7362 417.121 54.95C416.538 55.1599 415.891 55.2648 415.179 55.2648C414.13 55.2648 413.193 55.0219 412.369 54.536C411.545 54.0502 410.896 53.3486 410.422 52.4314C409.948 51.5141 409.711 50.4141 409.711 49.1315C409.711 47.845 409.95 46.745 410.428 45.8317C410.906 44.9144 411.557 44.2128 412.381 43.727C413.205 43.2411 414.138 42.9982 415.179 42.9982C415.844 42.9982 416.462 43.0915 417.033 43.2781C417.605 43.4646 418.114 43.7386 418.561 44.1001C419.008 44.4577 419.375 44.8969 419.663 45.4177C419.954 45.9347 420.145 46.5254 420.234 47.1901ZM421.69 44.9746V43.1615H431.217V44.9746H427.526V55.1016H425.381V44.9746H421.69ZM433.699 55.2298C433.345 55.2298 433.042 55.1054 432.789 54.8567C432.537 54.6079 432.412 54.3048 432.416 53.9472C432.412 53.5974 432.537 53.2981 432.789 53.0494C433.042 52.8006 433.345 52.6762 433.699 52.6762C434.041 52.6762 434.338 52.8006 434.591 53.0494C434.847 53.2981 434.978 53.5974 434.981 53.9472C434.978 54.1843 434.915 54.4 434.795 54.5943C434.678 54.7887 434.523 54.9441 434.328 55.0608C434.138 55.1735 433.928 55.2298 433.699 55.2298Z" fill="#666666"/>
</svg>
