<svg width="32" height="32" viewBox="0 0 32 32" fill="none" xmlns="http://www.w3.org/2000/svg">
<rect width="32" height="32" rx="4" fill="white" fill-opacity="0.1"/>
<path d="M10 8C9.46957 8 8.96086 8.21071 8.58579 8.58579C8.21071 8.96086 8 9.46957 8 10V13H9.5V10C9.5 9.86739 9.55268 9.74021 9.64645 9.64645C9.74021 9.55268 9.86739 9.5 10 9.5H13V8H10ZM13 22.5H10C9.86739 22.5 9.74021 22.4473 9.64645 22.3536C9.55268 22.2598 9.5 22.1326 9.5 22V19H8V22C8 22.5304 8.21071 23.0391 8.58579 23.4142C8.96086 23.7893 9.46957 24 10 24H13V22.5ZM19 24V22.5H22C22.1326 22.5 22.2598 22.4473 22.3536 22.3536C22.4473 22.2598 22.5 22.1326 22.5 22V19H24V22C24 22.5304 23.7893 23.0391 23.4142 23.4142C23.0391 23.7893 22.5304 24 22 24H19ZM22 8C22.5304 8 23.0391 8.21071 23.4142 8.58579C23.7893 8.96086 24 9.46957 24 10V13H22.5V10C22.5 9.86739 22.4473 9.74021 22.3536 9.64645C22.2598 9.55268 22.1326 9.5 22 9.5H19V8H22Z" fill="white"/>
</svg>
