<svg width="65" height="65" viewBox="0 0 65 65" fill="none" xmlns="http://www.w3.org/2000/svg">
<path d="M12 0.5H52.8936C59.2448 0.5 64.3936 5.64873 64.3936 12V52.8936C64.3936 59.2448 59.2448 64.3936 52.8936 64.3936H12C5.64873 64.3936 0.5 59.2448 0.5 52.8936V12C0.500004 5.64873 5.64873 0.5 12 0.5Z" fill="white" stroke="#555555"/>
<g clip-path="url(#clip0_20_1979)">
<path d="M21.5112 47.2752V31.9258L16.7508 27.5708L12.4821 25.1541V44.5665C12.4821 46.0652 13.6964 47.2752 15.1909 47.2752H21.5112Z" fill="#4285F4"/>
<path d="M43.1808 47.2753H49.5011C51 47.2753 52.2098 46.0608 52.2098 44.5665V25.1543L47.3749 27.9224L43.1808 31.9259V47.2753Z" fill="#34A853"/>
<path d="M21.5112 31.9257L20.8635 25.9282L21.5112 20.188L32.346 28.3142L43.1808 20.188L43.9054 25.6183L43.1808 31.9257L32.346 40.0518L21.5112 31.9257Z" fill="#EA4335"/>
<path d="M43.1808 20.188V31.9257L52.2098 25.154V21.5423C52.2098 18.1926 48.386 16.2831 45.7091 18.2919L43.1808 20.188Z" fill="#FBBC04"/>
<path d="M12.4822 25.154L16.6349 28.2686L21.5113 31.9258V20.1881L18.983 18.292C16.3014 16.283 12.4822 18.1927 12.4822 21.5422V25.154Z" fill="#C5221F"/>
</g>
<defs>
<clipPath id="clip0_20_1979">
<rect width="39.7349" height="29.951" fill="white" transform="translate(12.4785 17.4717)"/>
</clipPath>
</defs>
</svg>
