<svg width="48" height="48" viewBox="0 0 48 48" fill="none" xmlns="http://www.w3.org/2000/svg">
<g filter="url(#filter0_d_48_98)">
<path d="M4 10C4 5.58172 7.58172 2 12 2H36C40.4183 2 44 5.58172 44 10V34C44 38.4183 40.4183 42 36 42H12C7.58172 42 4 38.4183 4 34V10Z" fill="white" shape-rendering="crispEdges"/>
<path d="M25 16.0369C25 14.3129 23.022 13.3719 21.72 14.4749L17.638 17.9329H16C14.895 17.9329 14 18.8429 14 19.9669V24.0329C14 25.1559 14.895 26.0669 16 26.0669H17.638L21.72 29.5249C23.022 30.6289 25 29.6869 25 27.9629V16.0369Z" fill="black"/>
<path fill-rule="evenodd" clip-rule="evenodd" d="M26.7855 17.6576C26.8768 17.5626 26.986 17.4868 27.1069 17.4346C27.2278 17.3824 27.3579 17.3549 27.4896 17.3536C27.6213 17.3523 27.7519 17.3772 27.8738 17.427C27.9957 17.4768 28.1064 17.5505 28.1995 17.6436C28.7717 18.2153 29.2253 18.8944 29.5342 19.642C29.8431 20.3895 30.0012 21.1907 29.9995 21.9996C29.9995 23.6616 29.3445 25.1696 28.2845 26.2696C28.1933 26.3645 28.084 26.4403 27.9632 26.4925C27.8423 26.5447 27.7122 26.5723 27.5805 26.5736C27.4488 26.5749 27.3182 26.5499 27.1963 26.5001C27.0744 26.4503 26.9636 26.3767 26.8705 26.2836C26.6814 26.0931 26.5742 25.8363 26.5715 25.5679C26.5689 25.2995 26.6712 25.0407 26.8565 24.8466C27.5916 24.0813 28.0013 23.0607 27.9995 21.9996C28.0003 21.4604 27.8947 20.9264 27.6888 20.4281C27.4829 19.9298 27.1807 19.477 26.7995 19.0956C26.6101 18.9051 26.5027 18.6481 26.5 18.3794C26.4974 18.1108 26.5999 17.8518 26.7855 17.6576Z" fill="black"/>
<path fill-rule="evenodd" clip-rule="evenodd" d="M29.6577 14.8107C29.7499 14.7166 29.8599 14.6419 29.9813 14.5909C30.1027 14.5399 30.233 14.5137 30.3647 14.5137C30.4964 14.5137 30.6267 14.5399 30.7481 14.5909C30.8695 14.6419 30.9795 14.7166 31.0717 14.8107C32.9556 16.7285 34.0079 19.3114 34.0007 21.9997C34.0007 24.8067 32.8807 27.3497 31.0717 29.1887C30.9795 29.2827 30.8695 29.3574 30.7481 29.4084C30.6267 29.4594 30.4964 29.4857 30.3647 29.4857C30.233 29.4857 30.1027 29.4594 29.9813 29.4084C29.8599 29.3574 29.7499 29.2827 29.6577 29.1887C29.4702 28.9963 29.3652 28.7383 29.3652 28.4697C29.3652 28.201 29.4702 27.943 29.6577 27.7507C31.1652 26.2168 32.0071 24.1503 32.0007 21.9997C32.0071 19.849 31.1652 17.7826 29.6577 16.2487C29.4702 16.0563 29.3652 15.7983 29.3652 15.5297C29.3652 15.261 29.4702 15.003 29.6577 14.8107Z" fill="black"/>
</g>
<defs>
<filter id="filter0_d_48_98" x="0" y="0" width="48" height="48" filterUnits="userSpaceOnUse" color-interpolation-filters="sRGB">
<feFlood flood-opacity="0" result="BackgroundImageFix"/>
<feColorMatrix in="SourceAlpha" type="matrix" values="0 0 0 0 0 0 0 0 0 0 0 0 0 0 0 0 0 0 127 0" result="hardAlpha"/>
<feOffset dy="2"/>
<feGaussianBlur stdDeviation="2"/>
<feComposite in2="hardAlpha" operator="out"/>
<feColorMatrix type="matrix" values="0 0 0 0 0 0 0 0 0 0 0 0 0 0 0 0 0 0 0.25 0"/>
<feBlend mode="normal" in2="BackgroundImageFix" result="effect1_dropShadow_48_98"/>
<feBlend mode="normal" in="SourceGraphic" in2="effect1_dropShadow_48_98" result="shape"/>
</filter>
</defs>
</svg>
