<svg width="32" height="32" viewBox="0 0 32 32" fill="none" xmlns="http://www.w3.org/2000/svg">
<path d="M25.6881 18.0213C25.9967 17.7824 26.2465 17.476 26.4184 17.1257C26.5903 16.7753 26.6797 16.3902 26.6797 15.9999C26.6797 15.6097 26.5903 15.2246 26.4184 14.8742C26.2465 14.5238 25.9967 14.2175 25.6881 13.9786C21.691 10.8868 17.2283 8.44937 12.4667 6.75727L11.5961 6.44794C9.93207 5.85727 8.17341 6.98261 7.94807 8.70127C7.31874 13.5467 7.31874 18.4532 7.94807 23.2986C8.17474 25.0173 9.93207 26.1426 11.5961 25.5519L12.4667 25.2426C17.2283 23.5505 21.691 21.113 25.6881 18.0213Z" fill="white"/>
</svg>
