<svg width="40" height="40" viewBox="0 0 40 40" fill="none" xmlns="http://www.w3.org/2000/svg">
<path d="M21.576 25.2711L16.466 22.4841C15.9755 22.971 15.3518 23.3018 14.6735 23.4347C13.9953 23.5677 13.2929 23.4969 12.6549 23.2312C12.0168 22.9655 11.4717 22.5169 11.0883 21.9419C10.7049 21.3669 10.5002 20.6912 10.5002 20.0001C10.5002 19.309 10.7049 18.6333 11.0883 18.0583C11.4717 17.4833 12.0168 17.0347 12.6549 16.769C13.2929 16.5033 13.9953 16.4325 14.6735 16.5655C15.3518 16.6984 15.9755 17.0292 16.466 17.5161L21.576 14.7291C21.4007 13.9068 21.5273 13.049 21.9326 12.3124C22.3378 11.5758 22.9947 11.0096 23.7831 10.7175C24.5714 10.4254 25.4386 10.4269 26.226 10.7216C27.0134 11.0163 27.6683 11.5846 28.0712 12.3225C28.474 13.0605 28.5977 13.9188 28.4197 14.7405C28.2418 15.5621 27.7739 16.2923 27.1019 16.7974C26.4298 17.3025 25.5983 17.5488 24.7596 17.4913C23.9208 17.4338 23.1308 17.0763 22.534 16.4841L17.424 19.2711C17.5262 19.7514 17.5262 20.2478 17.424 20.7281L22.534 23.5161C23.1308 22.924 23.9208 22.5664 24.7596 22.5089C25.5983 22.4514 26.4298 22.6977 27.1019 23.2028C27.7739 23.7079 28.2418 24.4381 28.4197 25.2598C28.5977 26.0814 28.474 26.9397 28.0712 27.6777C27.6683 28.4156 27.0134 28.9839 26.226 29.2786C25.4386 29.5733 24.5714 29.5748 23.7831 29.2827C22.9947 28.9906 22.3378 28.4245 21.9326 27.6879C21.5273 26.9513 21.4007 26.0934 21.576 25.2711Z" fill="white"/>
</svg>
