<svg width="56" height="8" viewBox="0 0 56 8" fill="none" xmlns="http://www.w3.org/2000/svg">
<path d="M0.666695 0.258662V5.76953H-0.00063686V0.258662H0.666695ZM2.55366 3.28318V5.76953H1.91861V1.63638H2.53213V2.28218H2.58595C2.68282 2.0723 2.82992 1.90367 3.02725 1.7763C3.22458 1.64714 3.47931 1.58256 3.79145 1.58256C4.0713 1.58256 4.31617 1.63997 4.52605 1.75478C4.73594 1.86779 4.89918 2.04001 5.01579 2.27142C5.13239 2.50104 5.19069 2.79165 5.19069 3.14326V5.76953H4.55565V3.18631C4.55565 2.86161 4.47134 2.60867 4.30271 2.42749C4.13409 2.24451 3.90267 2.15302 3.60847 2.15302C3.40576 2.15302 3.22458 2.19697 3.06492 2.28487C2.90706 2.37278 2.78238 2.50104 2.69089 2.66967C2.5994 2.83829 2.55366 3.0428 2.55366 3.28318ZM8.19167 1.63638V2.17455H5.96364V1.63638H8.19167ZM6.63097 5.76953V1.06592C6.63097 0.829123 6.68658 0.631793 6.79781 0.47393C6.90903 0.316066 7.05344 0.197669 7.23103 0.118737C7.40863 0.0398053 7.59609 0.000339415 7.79342 0.000339415C7.94949 0.000339415 8.07686 0.0128968 8.17552 0.0380116C8.27419 0.0631261 8.34774 0.0864468 8.39617 0.107974L8.2132 0.656908C8.18091 0.646145 8.13606 0.63269 8.07865 0.616545C8.02304 0.6004 7.94949 0.592327 7.858 0.592327C7.64812 0.592327 7.49653 0.645248 7.40325 0.751088C7.31176 0.856928 7.26601 1.0121 7.26601 1.21661V5.76953H6.63097ZM10.5906 5.85564C10.2174 5.85564 9.89005 5.76684 9.6084 5.58924C9.32855 5.41165 9.1097 5.16319 8.95184 4.84388C8.79577 4.52456 8.71773 4.15143 8.71773 3.72448C8.71773 3.29395 8.79577 2.91812 8.95184 2.59701C9.1097 2.27591 9.32855 2.02655 9.6084 1.84896C9.89005 1.67136 10.2174 1.58256 10.5906 1.58256C10.9637 1.58256 11.2902 1.67136 11.57 1.84896C11.8517 2.02655 12.0705 2.27591 12.2266 2.59701C12.3845 2.91812 12.4634 3.29395 12.4634 3.72448C12.4634 4.15143 12.3845 4.52456 12.2266 4.84388C12.0705 5.16319 11.8517 5.41165 11.57 5.58924C11.2902 5.76684 10.9637 5.85564 10.5906 5.85564ZM10.5906 5.28518C10.874 5.28518 11.1072 5.21252 11.2902 5.06722C11.4732 4.92191 11.6086 4.73086 11.6965 4.49407C11.7844 4.25727 11.8284 4.00074 11.8284 3.72448C11.8284 3.44822 11.7844 3.1908 11.6965 2.95221C11.6086 2.71362 11.4732 2.52077 11.2902 2.37367C11.1072 2.22657 10.874 2.15302 10.5906 2.15302C10.3071 2.15302 10.0739 2.22657 9.89094 2.37367C9.70797 2.52077 9.57253 2.71362 9.48462 2.95221C9.39672 3.1908 9.35277 3.44822 9.35277 3.72448C9.35277 4.00074 9.39672 4.25727 9.48462 4.49407C9.57253 4.73086 9.70797 4.92191 9.89094 5.06722C10.0739 5.21252 10.3071 5.28518 10.5906 5.28518ZM16.608 7.22259C16.0591 7.22259 15.5738 7.14725 15.1522 6.99656C14.7307 6.84767 14.3764 6.62791 14.0893 6.3373C13.8023 6.04669 13.5853 5.6906 13.4382 5.26903C13.2911 4.84747 13.2175 4.36491 13.2175 3.82135C13.2175 3.29574 13.292 2.82574 13.4409 2.41134C13.5915 1.99695 13.8095 1.64535 14.0947 1.35653C14.3818 1.06592 14.7298 0.844371 15.1388 0.691889C15.5496 0.539407 16.0142 0.463166 16.5326 0.463166C17.0367 0.463166 17.478 0.545686 17.8565 0.710725C18.2369 0.87397 18.5544 1.09552 18.8091 1.37537C19.0656 1.65342 19.2576 1.96646 19.385 2.31447C19.5141 2.66249 19.5787 3.02127 19.5787 3.39082C19.5787 3.65093 19.5661 3.91464 19.541 4.18193C19.5159 4.44922 19.463 4.69498 19.3823 4.91922C19.3015 5.14167 19.1769 5.32106 19.0082 5.45739C18.8414 5.59373 18.6154 5.6619 18.3301 5.6619C18.2046 5.6619 18.0664 5.64216 17.9157 5.6027C17.7651 5.56323 17.6314 5.49775 17.5148 5.40627C17.3982 5.31478 17.3291 5.19189 17.3076 5.03762H17.2753C17.2323 5.14167 17.1659 5.24033 17.0762 5.33361C16.9883 5.4269 16.8726 5.50134 16.7291 5.55695C16.5874 5.61256 16.4142 5.63678 16.2097 5.62961C15.9765 5.62064 15.7711 5.56861 15.5935 5.47354C15.4159 5.37667 15.267 5.24571 15.1469 5.08067C15.0285 4.91384 14.9388 4.721 14.8778 4.50214C14.8186 4.28149 14.789 4.0438 14.789 3.78906C14.789 3.54689 14.8248 3.32534 14.8966 3.12442C14.9684 2.9235 15.0679 2.7477 15.1953 2.59701C15.3245 2.44633 15.4751 2.32613 15.6474 2.23644C15.8214 2.14495 16.0088 2.08844 16.2097 2.06692C16.3891 2.04898 16.5524 2.05705 16.6995 2.09113C16.8466 2.12342 16.9677 2.17276 17.0627 2.23913C17.1578 2.30371 17.2179 2.37547 17.243 2.4544H17.2753V2.15302H17.8458V4.58556C17.8458 4.73624 17.8879 4.86899 17.9723 4.9838C18.0566 5.09861 18.1794 5.15602 18.3409 5.15602C18.5239 5.15602 18.6638 5.09323 18.7607 4.96766C18.8593 4.84208 18.9266 4.64834 18.9625 4.38643C19.0002 4.12452 19.019 3.78906 19.019 3.38005C19.019 3.13967 18.9858 2.90287 18.9194 2.66967C18.8549 2.43467 18.7562 2.21491 18.6234 2.01041C18.4925 1.8059 18.3265 1.62562 18.1256 1.46955C17.9247 1.31348 17.6888 1.19149 17.4179 1.10359C17.1489 1.01389 16.843 0.969047 16.5004 0.969047C16.0788 0.969047 15.7012 1.03452 15.3675 1.16548C15.0356 1.29464 14.7531 1.4839 14.5199 1.73325C14.2885 1.98081 14.1118 2.28218 13.9898 2.63738C13.8696 2.99078 13.8095 3.39261 13.8095 3.84288C13.8095 4.30032 13.8696 4.70664 13.9898 5.06184C14.1118 5.41703 14.2912 5.71661 14.528 5.96058C14.7665 6.20455 15.0616 6.38932 15.4132 6.5149C15.7649 6.64226 16.1703 6.70595 16.6295 6.70595C16.8268 6.70595 17.0215 6.68711 17.2134 6.64944C17.4054 6.61177 17.5749 6.57051 17.722 6.52566C17.8691 6.48081 17.9749 6.44763 18.0395 6.4261L18.1902 6.92122C18.079 6.96786 17.9337 7.0145 17.7543 7.06114C17.5767 7.10778 17.3865 7.14635 17.1838 7.17685C16.9829 7.20734 16.791 7.22259 16.608 7.22259ZM16.2958 5.08067C16.5362 5.08067 16.7309 5.03224 16.8798 4.93537C17.0287 4.8385 17.1372 4.69229 17.2054 4.49676C17.2735 4.30122 17.3076 4.05456 17.3076 3.75677C17.3076 3.4554 17.2699 3.2204 17.1946 3.05177C17.1193 2.88314 17.008 2.76474 16.8609 2.69658C16.7138 2.62841 16.5326 2.59432 16.3174 2.59432C16.1129 2.59432 15.938 2.64814 15.7927 2.75577C15.6491 2.86161 15.5388 3.00333 15.4617 3.18093C15.3863 3.35673 15.3487 3.54868 15.3487 3.75677C15.3487 3.98639 15.3792 4.20256 15.4402 4.40527C15.5012 4.60619 15.6007 4.76943 15.7388 4.895C15.877 5.01878 16.0626 5.08067 16.2958 5.08067ZM22.3698 1.63638V2.17455H20.1418V1.63638H22.3698ZM20.8091 5.76953V1.06592C20.8091 0.829123 20.8647 0.631793 20.9759 0.47393C21.0871 0.316066 21.2315 0.197669 21.4091 0.118737C21.5867 0.0398053 21.7742 0.000339415 21.9715 0.000339415C22.1276 0.000339415 22.255 0.0128968 22.3536 0.0380116C22.4523 0.0631261 22.5258 0.0864468 22.5743 0.107974L22.3913 0.656908C22.359 0.646145 22.3142 0.63269 22.2568 0.616545C22.2012 0.6004 22.1276 0.592327 22.0361 0.592327C21.8262 0.592327 21.6746 0.645248 21.5814 0.751088C21.4899 0.856928 21.4441 1.0121 21.4441 1.21661V5.76953H20.8091ZM23.2598 5.76953V1.63638H23.8948V5.76953H23.2598ZM23.5827 0.947521C23.4589 0.947521 23.3522 0.905364 23.2625 0.82105C23.1746 0.736737 23.1306 0.635381 23.1306 0.516984C23.1306 0.398586 23.1746 0.297231 23.2625 0.212917C23.3522 0.128604 23.4589 0.0864471 23.5827 0.0864471C23.7065 0.0864471 23.8123 0.128604 23.9002 0.212917C23.9899 0.297231 24.0347 0.398586 24.0347 0.516984C24.0347 0.635381 23.9899 0.736737 23.9002 0.82105C23.8123 0.905364 23.7065 0.947521 23.5827 0.947521ZM27.9856 2.56203L27.4151 2.72348C27.3793 2.62841 27.3263 2.53602 27.2564 2.44633C27.1882 2.35484 27.0949 2.27949 26.9765 2.22029C26.8581 2.1611 26.7065 2.1315 26.5218 2.1315C26.2688 2.1315 26.058 2.1898 25.8894 2.3064C25.7226 2.42121 25.6392 2.56741 25.6392 2.74501C25.6392 2.90287 25.6966 3.02755 25.8114 3.11904C25.9262 3.21053 26.1056 3.28677 26.3496 3.34776L26.9631 3.49845C27.3326 3.58815 27.608 3.72538 27.7892 3.91015C27.9703 4.09313 28.0609 4.32903 28.0609 4.61785C28.0609 4.85464 27.9928 5.06632 27.8564 5.25289C27.7219 5.43945 27.5335 5.58655 27.2914 5.69419C27.0492 5.80182 26.7675 5.85564 26.4464 5.85564C26.0249 5.85564 25.6759 5.76415 25.3997 5.58117C25.1234 5.39819 24.9485 5.1309 24.875 4.7793L25.4777 4.62861C25.5351 4.85105 25.6437 5.01789 25.8033 5.12911C25.9648 5.24033 26.1755 5.29594 26.4357 5.29594C26.7317 5.29594 26.9667 5.23315 27.1407 5.10758C27.3165 4.98021 27.4044 4.82773 27.4044 4.65014C27.4044 4.50662 27.3541 4.38643 27.2537 4.28956C27.1532 4.1909 26.9989 4.11735 26.7909 4.06891L26.102 3.90746C25.7235 3.81777 25.4454 3.67874 25.2678 3.49038C25.092 3.30022 25.0041 3.06253 25.0041 2.7773C25.0041 2.54409 25.0696 2.3378 25.2006 2.1584C25.3333 1.97901 25.5136 1.83819 25.7414 1.73594C25.971 1.63369 26.2312 1.58256 26.5218 1.58256C26.9308 1.58256 27.2519 1.67226 27.4851 1.85165C27.7201 2.03104 27.8869 2.26783 27.9856 2.56203ZM30.8144 1.63638V2.17455H28.6724V1.63638H30.8144ZM29.2967 0.646145H29.9318V4.58556C29.9318 4.76495 29.9578 4.89949 30.0098 4.98918C30.0636 5.07708 30.1318 5.13628 30.2143 5.16678C30.2986 5.19548 30.3874 5.20983 30.4807 5.20983C30.5506 5.20983 30.6081 5.20625 30.6529 5.19907C30.6978 5.1901 30.7336 5.18293 30.7605 5.17754L30.8897 5.748C30.8466 5.76415 30.7865 5.78029 30.7094 5.79644C30.6323 5.81438 30.5345 5.82335 30.4161 5.82335C30.2367 5.82335 30.0609 5.78478 29.8887 5.70764C29.7183 5.6305 29.5766 5.513 29.4635 5.35514C29.3523 5.19728 29.2967 4.99815 29.2967 4.75777V0.646145ZM33.9896 3.11097V3.70296H31.5786V3.11097H33.9896ZM36.786 5.85564C36.4129 5.85564 36.0855 5.76684 35.8039 5.58924C35.524 5.41165 35.3052 5.16319 35.1473 4.84388C34.9912 4.52456 34.9132 4.15143 34.9132 3.72448C34.9132 3.29395 34.9912 2.91812 35.1473 2.59701C35.3052 2.27591 35.524 2.02655 35.8039 1.84896C36.0855 1.67136 36.4129 1.58256 36.786 1.58256C37.1592 1.58256 37.4857 1.67136 37.7655 1.84896C38.0471 2.02655 38.266 2.27591 38.4221 2.59701C38.5799 2.91812 38.6589 3.29395 38.6589 3.72448C38.6589 4.15143 38.5799 4.52456 38.4221 4.84388C38.266 5.16319 38.0471 5.41165 37.7655 5.58924C37.4857 5.76684 37.1592 5.85564 36.786 5.85564ZM36.786 5.28518C37.0695 5.28518 37.3027 5.21252 37.4857 5.06722C37.6686 4.92191 37.8041 4.73086 37.892 4.49407C37.9799 4.25727 38.0238 4.00074 38.0238 3.72448C38.0238 3.44822 37.9799 3.1908 37.892 2.95221C37.8041 2.71362 37.6686 2.52077 37.4857 2.37367C37.3027 2.22657 37.0695 2.15302 36.786 2.15302C36.5026 2.15302 36.2694 2.22657 36.0864 2.37367C35.9034 2.52077 35.768 2.71362 35.6801 2.95221C35.5922 3.1908 35.5482 3.44822 35.5482 3.72448C35.5482 4.00074 35.5922 4.25727 35.6801 4.49407C35.768 4.73086 35.9034 4.92191 36.0864 5.06722C36.2694 5.21252 36.5026 5.28518 36.786 5.28518ZM40.0911 5.81258C39.9583 5.81258 39.8444 5.76505 39.7493 5.66997C39.6543 5.57489 39.6067 5.46098 39.6067 5.32823C39.6067 5.19548 39.6543 5.08157 39.7493 4.98649C39.8444 4.89142 39.9583 4.84388 40.0911 4.84388C40.2238 4.84388 40.3377 4.89142 40.4328 4.98649C40.5279 5.08157 40.5754 5.19548 40.5754 5.32823C40.5754 5.41613 40.553 5.49686 40.5082 5.57041C40.4651 5.64396 40.4068 5.70316 40.3332 5.748C40.2615 5.79106 40.1808 5.81258 40.0911 5.81258ZM43.3941 5.85564C43.0066 5.85564 42.6729 5.76415 42.3931 5.58117C42.1132 5.39819 41.898 5.14615 41.7473 4.82504C41.5966 4.50393 41.5213 4.13708 41.5213 3.72448C41.5213 3.30471 41.5984 2.93427 41.7527 2.61316C41.9087 2.29026 42.1258 2.03821 42.4039 1.85703C42.6837 1.67405 43.0102 1.58256 43.3833 1.58256C43.6739 1.58256 43.9359 1.63638 44.1691 1.74401C44.4023 1.85165 44.5933 2.00234 44.7422 2.19608C44.8911 2.38982 44.9835 2.61585 45.0194 2.87417H44.3843C44.3359 2.68581 44.2283 2.51898 44.0614 2.37367C43.8964 2.22657 43.6739 2.15302 43.3941 2.15302C43.1465 2.15302 42.9295 2.2176 42.7429 2.34676C42.5581 2.47413 42.4137 2.65442 42.3097 2.88763C42.2074 3.11904 42.1563 3.39082 42.1563 3.70296C42.1563 4.02227 42.2065 4.30032 42.307 4.53712C42.4092 4.77392 42.5528 4.95779 42.7375 5.08875C42.9241 5.2197 43.1429 5.28518 43.3941 5.28518C43.5591 5.28518 43.7089 5.25648 43.8435 5.19907C43.978 5.14167 44.0919 5.05915 44.1852 4.95151C44.2785 4.84388 44.3449 4.71472 44.3843 4.56403H45.0194C44.9835 4.808 44.8947 5.02775 44.753 5.22329C44.6131 5.41703 44.4274 5.5713 44.196 5.68611C43.9664 5.79913 43.6991 5.85564 43.3941 5.85564ZM47.6268 5.85564C47.2537 5.85564 46.9263 5.76684 46.6446 5.58924C46.3648 5.41165 46.1459 5.16319 45.9881 4.84388C45.832 4.52456 45.754 4.15143 45.754 3.72448C45.754 3.29395 45.832 2.91812 45.9881 2.59701C46.1459 2.27591 46.3648 2.02655 46.6446 1.84896C46.9263 1.67136 47.2537 1.58256 47.6268 1.58256C47.9999 1.58256 48.3264 1.67136 48.6063 1.84896C48.8879 2.02655 49.1068 2.27591 49.2629 2.59701C49.4207 2.91812 49.4996 3.29395 49.4996 3.72448C49.4996 4.15143 49.4207 4.52456 49.2629 4.84388C49.1068 5.16319 48.8879 5.41165 48.6063 5.58924C48.3264 5.76684 47.9999 5.85564 47.6268 5.85564ZM47.6268 5.28518C47.9102 5.28518 48.1435 5.21252 48.3264 5.06722C48.5094 4.92191 48.6449 4.73086 48.7328 4.49407C48.8207 4.25727 48.8646 4.00074 48.8646 3.72448C48.8646 3.44822 48.8207 3.1908 48.7328 2.95221C48.6449 2.71362 48.5094 2.52077 48.3264 2.37367C48.1435 2.22657 47.9102 2.15302 47.6268 2.15302C47.3434 2.15302 47.1102 2.22657 46.9272 2.37367C46.7442 2.52077 46.6088 2.71362 46.5209 2.95221C46.433 3.1908 46.389 3.44822 46.389 3.72448C46.389 4.00074 46.433 4.25727 46.5209 4.49407C46.6088 4.73086 46.7442 4.92191 46.9272 5.06722C47.1102 5.21252 47.3434 5.28518 47.6268 5.28518ZM50.469 5.76953V1.63638H51.0825V2.28218H51.1364C51.2225 2.06153 51.3615 1.89022 51.5534 1.76823C51.7454 1.64445 51.9759 1.58256 52.245 1.58256C52.5177 1.58256 52.7446 1.64445 52.9258 1.76823C53.1088 1.89022 53.2514 2.06153 53.3536 2.28218H53.3967C53.5025 2.06871 53.6613 1.89919 53.873 1.77361C54.0846 1.64625 54.3385 1.58256 54.6345 1.58256C55.004 1.58256 55.3063 1.69827 55.5413 1.92968C55.7763 2.1593 55.8938 2.51719 55.8938 3.00333V5.76953H55.2587V3.00333C55.2587 2.69837 55.1753 2.48041 55.0085 2.34946C54.8417 2.2185 54.6452 2.15302 54.4192 2.15302C54.1286 2.15302 53.9035 2.24092 53.7438 2.41673C53.5841 2.59074 53.5043 2.81139 53.5043 3.07868V5.76953H52.8585V2.93875C52.8585 2.70375 52.7823 2.51449 52.6298 2.37098C52.4773 2.22568 52.2809 2.15302 52.0405 2.15302C51.8754 2.15302 51.7212 2.19697 51.5777 2.28487C51.4359 2.37278 51.3211 2.49476 51.2332 2.65083C51.1471 2.80511 51.1041 2.9836 51.1041 3.18631V5.76953H50.469Z" fill="white"/>
</svg>
