<svg width="15" height="15" viewBox="0 0 15 15" fill="none" xmlns="http://www.w3.org/2000/svg">
<path d="M12.4048 13.0557C11.1094 13.0557 9.82948 12.7734 8.56515 12.2088C7.30082 11.6442 6.15049 10.8436 5.11415 9.8068C4.07781 8.77005 3.27735 7.61972 2.71275 6.3558C2.14815 5.09188 1.86565 3.81201 1.86523 2.51617C1.86523 2.32963 1.92741 2.17418 2.05177 2.04982C2.17614 1.92546 2.33159 1.86328 2.51813 1.86328H5.03642C5.18151 1.86328 5.31105 1.91261 5.42505 2.01127C5.53905 2.10993 5.60641 2.22641 5.62714 2.36072L6.03131 4.53703C6.05203 4.70284 6.04685 4.84275 6.01576 4.95675C5.98467 5.07074 5.92767 5.16919 5.84477 5.2521L4.3369 6.77552C4.54416 7.15896 4.79019 7.52935 5.07498 7.88668C5.35976 8.24401 5.67336 8.58869 6.01576 8.92073C6.33703 9.242 6.67384 9.54005 7.02619 9.81489C7.37855 10.0897 7.75163 10.3409 8.14543 10.5685L9.60667 9.10727C9.69994 9.014 9.82181 8.94415 9.97229 8.89773C10.1228 8.8513 10.2703 8.83824 10.415 8.85855L12.5602 9.29381C12.7053 9.33527 12.8245 9.41051 12.9178 9.51953C13.011 9.62855 13.0577 9.75022 13.0577 9.88453V12.4028C13.0577 12.5894 12.9955 12.7448 12.8711 12.8692C12.7468 12.9935 12.5913 13.0557 12.4048 13.0557Z" fill="white"/>
</svg>
