<svg width="389" height="85" viewBox="0 0 389 85" fill="none" xmlns="http://www.w3.org/2000/svg">
<path d="M13.0701 32H3.72116V4.41124H13.2587C15.9978 4.41124 18.3507 4.96355 20.3175 6.06818C22.2933 7.16383 23.811 8.73994 24.8707 10.7965C25.9305 12.8531 26.4603 15.3138 26.4603 18.1787C26.4603 21.0525 25.926 23.5222 24.8573 25.5878C23.7975 27.6533 22.2663 29.2384 20.2636 30.3431C18.2699 31.4477 15.8721 32 13.0701 32ZM8.71893 27.6758H12.8276C14.7495 27.6758 16.3525 27.3255 17.6368 26.625C18.921 25.9156 19.8864 24.8603 20.5331 23.4593C21.1797 22.0494 21.503 20.2891 21.503 18.1787C21.503 16.0682 21.1797 14.317 20.5331 12.925C19.8864 11.524 18.93 10.4777 17.6637 9.7862C16.4064 9.0857 14.8438 8.73546 12.9758 8.73546H8.71893V27.6758ZM36.2067 4.41124V32H31.2089V4.41124H36.2067ZM60.101 13.2213C59.8765 12.4939 59.5666 11.8428 59.1715 11.268C58.7853 10.6843 58.3183 10.1858 57.7705 9.77273C57.2316 9.35961 56.612 9.04978 55.9115 8.84322C55.211 8.62769 54.4476 8.51992 53.6214 8.51992C52.1396 8.51992 50.8194 8.89262 49.6609 9.63802C48.5024 10.3834 47.5908 11.4791 46.9263 12.925C46.2707 14.3619 45.9429 16.1131 45.9429 18.1787C45.9429 20.2622 46.2707 22.0269 46.9263 23.4728C47.5819 24.9187 48.4934 26.0188 49.6609 26.7732C50.8284 27.5186 52.1845 27.8913 53.7292 27.8913C55.1301 27.8913 56.3425 27.6219 57.3663 27.0831C58.3991 26.5442 59.1939 25.7809 59.7507 24.793C60.3075 23.7961 60.5859 22.6286 60.5859 21.2905L61.7175 21.4656H54.2276V17.559H65.422V20.8729C65.422 23.2348 64.9191 25.2779 63.9133 27.0022C62.9074 28.7265 61.5244 30.0557 59.7642 30.9897C58.004 31.9147 55.9833 32.3772 53.7022 32.3772C51.1607 32.3772 48.929 31.8069 47.0071 30.6664C45.0942 29.5168 43.5989 27.8868 42.5212 25.7764C41.4525 23.6569 40.9182 21.1423 40.9182 18.2326C40.9182 16.0053 41.2325 14.0161 41.8611 12.2649C42.4988 10.5136 43.3879 9.02733 44.5284 7.80595C45.669 6.57559 47.0071 5.6416 48.5428 5.00397C50.0785 4.35736 51.7489 4.03405 53.554 4.03405C55.0807 4.03405 56.5042 4.25857 57.8244 4.7076C59.1445 5.14766 60.3165 5.77631 61.3403 6.59356C62.3731 7.4108 63.2218 8.38072 63.8863 9.50331C64.5509 10.6259 64.9865 11.8652 65.193 13.2213H60.101ZM75.2526 4.41124V32H70.2548V4.41124H75.2526ZM79.4522 8.60075V4.41124H101.464V8.60075H92.9367V32H87.9794V8.60075H79.4522ZM105.916 32H100.582L110.294 4.41124H116.464L126.19 32H120.856L113.487 10.0691H113.271L105.916 32ZM106.091 21.1827H120.64V25.1971H106.091V21.1827ZM129.824 32V4.41124H134.822V27.8105H146.973V32H129.824ZM184.335 13.7198H179.296C179.153 12.8935 178.888 12.1616 178.502 11.524C178.115 10.8774 177.635 10.3295 177.06 9.8805C176.485 9.43146 175.83 9.09468 175.093 8.87017C174.366 8.63667 173.58 8.51992 172.736 8.51992C171.236 8.51992 169.907 8.89711 168.749 9.65149C167.59 10.3969 166.683 11.4925 166.027 12.9384C165.372 14.3753 165.044 16.1311 165.044 18.2056C165.044 20.3161 165.372 22.0943 166.027 23.5402C166.692 24.9771 167.599 26.0637 168.749 26.8002C169.907 27.5276 171.232 27.8913 172.723 27.8913C173.549 27.8913 174.321 27.7836 175.04 27.568C175.767 27.3435 176.418 27.0157 176.993 26.5846C177.577 26.1536 178.066 25.6237 178.461 24.995C178.865 24.3664 179.144 23.6479 179.296 22.8397L184.335 22.8666C184.146 24.1778 183.737 25.4082 183.109 26.5577C182.489 27.7072 181.676 28.722 180.67 29.6021C179.665 30.4733 178.488 31.1558 177.141 31.6498C175.794 32.1347 174.299 32.3772 172.655 32.3772C170.23 32.3772 168.066 31.8159 166.162 30.6933C164.258 29.5707 162.758 27.9497 161.663 25.8302C160.567 23.7108 160.019 21.1693 160.019 18.2056C160.019 15.233 160.572 12.6915 161.676 10.581C162.781 8.46154 164.285 6.84052 166.189 5.71793C168.093 4.59534 170.248 4.03405 172.655 4.03405C174.191 4.03405 175.619 4.24959 176.939 4.68066C178.259 5.11174 179.436 5.74488 180.468 6.58008C181.501 7.40631 182.35 8.42113 183.014 9.62455C183.688 10.819 184.128 12.1841 184.335 13.7198ZM192.121 32H186.786L196.499 4.41124H202.669L212.395 32H207.06L199.692 10.0691H199.476L192.121 32ZM192.296 21.1827H206.845V25.1971H192.296V21.1827ZM211.482 8.60075V4.41124H233.494V8.60075H224.967V32H220.009V8.60075H211.482ZM237.946 32H232.612L242.324 4.41124H248.494L258.22 32H252.886L245.517 10.0691H245.301L237.946 32ZM238.121 21.1827H252.67V25.1971H238.121V21.1827ZM261.854 32V4.41124H266.852V27.8105H279.003V32H261.854ZM306.918 18.2056C306.918 21.1782 306.361 23.7243 305.248 25.8437C304.143 27.9542 302.634 29.5707 300.721 30.6933C298.817 31.8159 296.658 32.3772 294.242 32.3772C291.826 32.3772 289.662 31.8159 287.749 30.6933C285.845 29.5617 284.336 27.9407 283.222 25.8302C282.118 23.7108 281.565 21.1693 281.565 18.2056C281.565 15.233 282.118 12.6915 283.222 10.581C284.336 8.46154 285.845 6.84052 287.749 5.71793C289.662 4.59534 291.826 4.03405 294.242 4.03405C296.658 4.03405 298.817 4.59534 300.721 5.71793C302.634 6.84052 304.143 8.46154 305.248 10.581C306.361 12.6915 306.918 15.233 306.918 18.2056ZM301.893 18.2056C301.893 16.1131 301.565 14.3484 300.91 12.9115C300.263 11.4656 299.365 10.3744 298.216 9.63802C297.066 8.89262 295.741 8.51992 294.242 8.51992C292.742 8.51992 291.417 8.89262 290.268 9.63802C289.118 10.3744 288.216 11.4656 287.56 12.9115C286.913 14.3484 286.59 16.1131 286.59 18.2056C286.59 20.2981 286.913 22.0673 287.56 23.5132C288.216 24.9501 289.118 26.0413 290.268 26.7867C291.417 27.5231 292.742 27.8913 294.242 27.8913C295.741 27.8913 297.066 27.5231 298.216 26.7867C299.365 26.0413 300.263 24.9501 300.91 23.5132C301.565 22.0673 301.893 20.2981 301.893 18.2056ZM330.125 13.2213C329.901 12.4939 329.591 11.8428 329.196 11.268C328.81 10.6843 328.343 10.1858 327.795 9.77273C327.256 9.35961 326.636 9.04978 325.936 8.84322C325.235 8.62769 324.472 8.51992 323.646 8.51992C322.164 8.51992 320.844 8.89262 319.685 9.63802C318.527 10.3834 317.615 11.4791 316.951 12.925C316.295 14.3619 315.967 16.1131 315.967 18.1787C315.967 20.2622 316.295 22.0269 316.951 23.4728C317.606 24.9187 318.518 26.0188 319.685 26.7732C320.853 27.5186 322.209 27.8913 323.753 27.8913C325.154 27.8913 326.367 27.6219 327.391 27.0831C328.423 26.5442 329.218 25.7809 329.775 24.793C330.332 23.7961 330.61 22.6286 330.61 21.2905L331.742 21.4656H324.252V17.559H335.446V20.8729C335.446 23.2348 334.943 25.2779 333.938 27.0022C332.932 28.7265 331.549 30.0557 329.789 30.9897C328.028 31.9147 326.008 32.3772 323.727 32.3772C321.185 32.3772 318.953 31.8069 317.031 30.6664C315.119 29.5168 313.623 27.8868 312.546 25.7764C311.477 23.6569 310.942 21.1423 310.942 18.2326C310.942 16.0053 311.257 14.0161 311.885 12.2649C312.523 10.5136 313.412 9.02733 314.553 7.80595C315.693 6.57559 317.031 5.6416 318.567 5.00397C320.103 4.35736 321.773 4.03405 323.578 4.03405C325.105 4.03405 326.529 4.25857 327.849 4.7076C329.169 5.14766 330.341 5.77631 331.365 6.59356C332.397 7.4108 333.246 8.38072 333.911 9.50331C334.575 10.6259 335.011 11.8652 335.217 13.2213H330.125ZM357.67 4.41124H362.668V22.4355C362.668 24.4113 362.201 26.1491 361.267 27.6488C360.342 29.1486 359.04 30.3206 357.36 31.1648C355.681 32 353.719 32.4176 351.474 32.4176C349.219 32.4176 347.253 32 345.573 31.1648C343.894 30.3206 342.592 29.1486 341.667 27.6488C340.742 26.1491 340.279 24.4113 340.279 22.4355V4.41124H345.277V22.0179C345.277 23.1675 345.528 24.1913 346.031 25.0893C346.543 25.9874 347.262 26.6924 348.187 27.2043C349.112 27.7072 350.207 27.9587 351.474 27.9587C352.74 27.9587 353.836 27.7072 354.761 27.2043C355.695 26.6924 356.413 25.9874 356.916 25.0893C357.419 24.1913 357.67 23.1675 357.67 22.0179V4.41124ZM368.1 32V4.41124H386.044V8.60075H373.098V16.0907H385.114V20.2802H373.098V27.8105H386.151V32H368.1Z" fill="black"/>
<path d="M3.72116 74.7188V47.13H21.3952V51.3195H8.71893V58.8094H20.1828V62.9989H8.71893V74.7188H3.72116ZM25.9484 74.7188V47.13H43.8919V51.3195H30.9462V58.8094H42.9624V62.9989H30.9462V70.5292H43.9997V74.7188H25.9484ZM52.5336 74.7188H47.199L56.9117 47.13H63.0814L72.8076 74.7188H67.473L60.1043 52.7878H59.8888L52.5336 74.7188ZM52.7087 63.9015H67.2575V67.9159H52.7087V63.9015ZM71.8949 51.3195V47.13H93.9066V51.3195H85.3794V74.7188H80.4221V51.3195H71.8949ZM115.541 47.13H120.539V65.1543C120.539 67.13 120.072 68.8678 119.138 70.3676C118.213 71.8674 116.911 73.0394 115.231 73.8835C113.552 74.7188 111.59 75.1364 109.344 75.1364C107.09 75.1364 105.124 74.7188 103.444 73.8835C101.765 73.0394 100.463 71.8674 99.5375 70.3676C98.6125 68.8678 98.15 67.13 98.15 65.1543V47.13H103.148V64.7367C103.148 65.8862 103.399 66.91 103.902 67.8081C104.414 68.7062 105.133 69.4111 106.058 69.923C106.983 70.426 108.078 70.6774 109.344 70.6774C110.611 70.6774 111.706 70.426 112.631 69.923C113.565 69.4111 114.284 68.7062 114.787 67.8081C115.29 66.91 115.541 65.8862 115.541 64.7367V47.13ZM125.971 74.7188V47.13H136.317C138.436 47.13 140.215 47.4982 141.651 48.2346C143.097 48.971 144.189 50.0038 144.925 51.333C145.67 52.6531 146.043 54.1933 146.043 55.9535C146.043 57.7227 145.666 59.2584 144.911 60.5607C144.166 61.8539 143.066 62.8552 141.611 63.5647C140.156 64.2652 138.369 64.6154 136.25 64.6154H128.881V60.4664H135.576C136.815 60.4664 137.83 60.2957 138.62 59.9545C139.411 59.6042 139.995 59.0968 140.372 58.4322C140.758 57.7587 140.951 56.9324 140.951 55.9535C140.951 54.9746 140.758 54.1394 140.372 53.4479C139.986 52.7474 139.397 52.2176 138.607 51.8583C137.817 51.4901 136.797 51.306 135.549 51.306H130.969V74.7188H125.971ZM140.224 62.2176L147.053 74.7188H141.476L134.768 62.2176H140.224ZM150.643 74.7188V47.13H168.587V51.3195H155.641V58.8094H167.657V62.9989H155.641V70.5292H168.695V74.7188H150.643ZM188.679 54.7142C188.553 53.5377 188.023 52.6217 187.089 51.9661C186.164 51.3105 184.961 50.9827 183.479 50.9827C182.437 50.9827 181.544 51.1399 180.798 51.4542C180.053 51.7685 179.483 52.1951 179.088 52.734C178.692 53.2728 178.49 53.888 178.481 54.5795C178.481 55.1543 178.612 55.6527 178.872 56.0748C179.141 56.4969 179.505 56.8561 179.963 57.1525C180.421 57.4399 180.929 57.6823 181.485 57.8799C182.042 58.0775 182.604 58.2436 183.169 58.3783L185.756 59.0249C186.798 59.2674 187.799 59.5952 188.76 60.0083C189.73 60.4215 190.596 60.9423 191.36 61.571C192.132 62.1996 192.743 62.9585 193.192 63.8476C193.641 64.7367 193.865 65.7784 193.865 66.9729C193.865 68.5894 193.452 70.0129 192.626 71.2432C191.8 72.4646 190.605 73.421 189.043 74.1126C187.489 74.7951 185.608 75.1364 183.398 75.1364C181.252 75.1364 179.388 74.8041 177.808 74.1395C176.236 73.4749 175.006 72.505 174.117 71.2297C173.237 69.9545 172.761 68.4008 172.689 66.5688H177.606C177.678 67.5297 177.974 68.329 178.495 68.9666C179.016 69.6042 179.694 70.0802 180.529 70.3945C181.373 70.7089 182.316 70.866 183.358 70.866C184.445 70.866 185.397 70.7044 186.214 70.3811C187.04 70.0488 187.687 69.5908 188.154 69.007C188.621 68.4143 188.859 67.7228 188.868 66.9325C188.859 66.214 188.648 65.6213 188.234 65.1543C187.821 64.6783 187.242 64.2832 186.497 63.9688C185.76 63.6455 184.898 63.3581 183.91 63.1067L180.771 62.2984C178.499 61.7147 176.703 60.8301 175.383 59.6446C174.072 58.4502 173.416 56.8651 173.416 54.8893C173.416 53.2638 173.856 51.8404 174.736 50.619C175.626 49.3976 176.833 48.4502 178.36 47.7766C179.887 47.0941 181.616 46.7528 183.547 46.7528C185.504 46.7528 187.22 47.0941 188.692 47.7766C190.174 48.4502 191.337 49.3886 192.181 50.5921C193.026 51.7865 193.461 53.1605 193.488 54.7142H188.679ZM218.682 47.13V74.7188H213.685V51.993H213.523L207.07 56.1152V51.535L213.927 47.13H218.682Z" fill="#00B1EF"/>
<path d="M1 83.7188H41.5" stroke="black" stroke-width="2" stroke-linecap="round"/>
</svg>
