<svg width="420" height="60" viewBox="0 0 420 60" fill="none" xmlns="http://www.w3.org/2000/svg">
<path d="M80.5589 21V8.12616H88.2782V9.50909H82.1179V13.859H87.6999V15.242H82.1179V21H80.5589ZM106.811 14.5631C106.811 15.9209 106.565 17.0943 106.075 18.0833C105.585 19.0723 104.912 19.835 104.057 20.3714C103.202 20.9078 102.226 21.176 101.128 21.176C100.03 21.176 99.0535 20.9078 98.1986 20.3714C97.3437 19.835 96.6711 19.0723 96.1808 18.0833C95.6905 17.0943 95.4453 15.9209 95.4453 14.5631C95.4453 13.2053 95.6905 12.0319 96.1808 11.0429C96.6711 10.0539 97.3437 9.29117 98.1986 8.75476C99.0535 8.21835 100.03 7.95015 101.128 7.95015C102.226 7.95015 103.202 8.21835 104.057 8.75476C104.912 9.29117 105.585 10.0539 106.075 11.0429C106.565 12.0319 106.811 13.2053 106.811 14.5631ZM105.302 14.5631C105.302 13.4484 105.115 12.5075 104.742 11.7406C104.374 10.9737 103.873 10.3933 103.24 9.9994C102.611 9.60547 101.907 9.40851 101.128 9.40851C100.348 9.40851 99.6423 9.60547 99.0095 9.9994C98.3809 10.3933 97.8801 10.9737 97.5072 11.7406C97.1384 12.5075 96.954 13.4484 96.954 14.5631C96.954 15.6778 97.1384 16.6186 97.5072 17.3855C97.8801 18.1524 98.3809 18.7328 99.0095 19.1268C99.6423 19.5207 100.348 19.7176 101.128 19.7176C101.907 19.7176 102.611 19.5207 103.24 19.1268C103.873 18.7328 104.374 18.1524 104.742 17.3855C105.115 16.6186 105.302 15.6778 105.302 14.5631ZM114.432 21V8.12616H118.782C119.788 8.12616 120.613 8.29797 121.258 8.64161C121.904 8.98106 122.382 9.44832 122.692 10.0434C123.002 10.6385 123.157 11.3153 123.157 12.0738C123.157 12.8323 123.002 13.5049 122.692 14.0916C122.382 14.6783 121.906 15.1393 121.265 15.4746C120.624 15.8056 119.804 15.9712 118.807 15.9712H115.287V14.5631H118.757C119.444 14.5631 119.997 14.4625 120.416 14.2613C120.839 14.0602 121.145 13.7752 121.334 13.4064C121.527 13.0335 121.623 12.5893 121.623 12.0738C121.623 11.5583 121.527 11.1078 121.334 10.7223C121.141 10.3368 120.833 10.0392 120.41 9.82968C119.987 9.61595 119.427 9.50909 118.731 9.50909H115.991V21H114.432ZM120.492 15.2168L123.66 21H121.849L118.731 15.2168H120.492ZM140.733 21V8.12616H148.503V9.50909H142.292V13.859H148.1V15.242H142.292V19.6171H148.603V21H140.733ZM157.067 8.12616L160.386 13.4819H160.487L163.806 8.12616H165.641L161.593 14.5631L165.641 21H163.806L160.487 15.7449H160.386L157.067 21H155.231L159.38 14.5631L155.231 8.12616H157.067ZM172.67 21V8.12616H177.02C178.03 8.12616 178.855 8.30845 179.497 8.67304C180.142 9.03344 180.62 9.52166 180.93 10.1377C181.24 10.7537 181.395 11.441 181.395 12.1995C181.395 12.958 181.24 13.6474 180.93 14.2676C180.624 14.8879 180.15 15.3824 179.509 15.7511C178.868 16.1157 178.047 16.298 177.045 16.298H173.927V14.9151H176.995C177.686 14.9151 178.241 14.7957 178.661 14.5568C179.08 14.3179 179.383 13.9952 179.572 13.5887C179.765 13.178 179.861 12.715 179.861 12.1995C179.861 11.6841 179.765 11.2231 179.572 10.8166C179.383 10.4101 179.077 10.0916 178.654 9.86111C178.231 9.62643 177.669 9.50909 176.97 9.50909H174.229V21H172.67ZM188.906 21V8.12616H190.465V19.6171H196.449V21H188.906ZM214.224 14.5631C214.224 15.9209 213.979 17.0943 213.489 18.0833C212.999 19.0723 212.326 19.835 211.471 20.3714C210.616 20.9078 209.64 21.176 208.542 21.176C207.444 21.176 206.467 20.9078 205.612 20.3714C204.758 19.835 204.085 19.0723 203.595 18.0833C203.104 17.0943 202.859 15.9209 202.859 14.5631C202.859 13.2053 203.104 12.0319 203.595 11.0429C204.085 10.0539 204.758 9.29117 205.612 8.75476C206.467 8.21835 207.444 7.95015 208.542 7.95015C209.64 7.95015 210.616 8.21835 211.471 8.75476C212.326 9.29117 212.999 10.0539 213.489 11.0429C213.979 12.0319 214.224 13.2053 214.224 14.5631ZM212.716 14.5631C212.716 13.4484 212.529 12.5075 212.156 11.7406C211.787 10.9737 211.287 10.3933 210.654 9.9994C210.025 9.60547 209.321 9.40851 208.542 9.40851C207.762 9.40851 207.056 9.60547 206.423 9.9994C205.795 10.3933 205.294 10.9737 204.921 11.7406C204.552 12.5075 204.368 13.4484 204.368 14.5631C204.368 15.6778 204.552 16.6186 204.921 17.3855C205.294 18.1524 205.795 18.7328 206.423 19.1268C207.056 19.5207 207.762 19.7176 208.542 19.7176C209.321 19.7176 210.025 19.5207 210.654 19.1268C211.287 18.7328 211.787 18.1524 212.156 17.3855C212.529 16.6186 212.716 15.6778 212.716 14.5631ZM221.846 21V8.12616H226.196C227.201 8.12616 228.027 8.29797 228.672 8.64161C229.318 8.98106 229.795 9.44832 230.106 10.0434C230.416 10.6385 230.571 11.3153 230.571 12.0738C230.571 12.8323 230.416 13.5049 230.106 14.0916C229.795 14.6783 229.32 15.1393 228.679 15.4746C228.037 15.8056 227.218 15.9712 226.221 15.9712H222.701V14.5631H226.17C226.858 14.5631 227.411 14.4625 227.83 14.2613C228.253 14.0602 228.559 13.7752 228.748 13.4064C228.94 13.0335 229.037 12.5893 229.037 12.0738C229.037 11.5583 228.94 11.1078 228.748 10.7223C228.555 10.3368 228.247 10.0392 227.824 9.82968C227.4 9.61595 226.841 9.50909 226.145 9.50909H223.405V21H221.846ZM227.905 15.2168L231.074 21H229.263L226.145 15.2168H227.905ZM239.727 8.12616V21H238.168V8.12616H239.727ZM258.062 8.12616V21H256.553L249.538 10.892H249.412V21H247.853V8.12616H249.362L256.402 18.2593H256.528V8.12616H258.062ZM274.982 12.1492C274.843 11.726 274.661 11.3467 274.435 11.0115C274.213 10.672 273.946 10.3828 273.636 10.144C273.33 9.90511 272.983 9.72281 272.593 9.59709C272.203 9.47137 271.776 9.40851 271.31 9.40851C270.548 9.40851 269.854 9.60547 269.23 9.9994C268.605 10.3933 268.109 10.9737 267.74 11.7406C267.371 12.5075 267.187 13.4484 267.187 14.5631C267.187 15.6778 267.373 16.6186 267.746 17.3855C268.119 18.1524 268.624 18.7328 269.261 19.1268C269.898 19.5207 270.615 19.7176 271.411 19.7176C272.149 19.7176 272.798 19.5605 273.36 19.2462C273.925 18.9277 274.366 18.4793 274.68 17.901C274.998 17.3185 275.158 16.6333 275.158 15.8454L275.635 15.946H271.763V14.5631H276.666V15.946C276.666 17.0063 276.44 17.9282 275.987 18.7119C275.539 19.4955 274.919 20.1032 274.127 20.5348C273.339 20.9623 272.434 21.176 271.411 21.176C270.271 21.176 269.27 20.9078 268.406 20.3714C267.547 19.835 266.877 19.0723 266.395 18.0833C265.917 17.0943 265.678 15.9209 265.678 14.5631C265.678 13.5447 265.814 12.6291 266.087 11.8161C266.363 10.9989 266.753 10.3032 267.256 9.7291C267.759 9.15497 268.354 8.71495 269.041 8.40903C269.729 8.10311 270.485 7.95015 271.31 7.95015C271.989 7.95015 272.622 8.05282 273.209 8.25816C273.8 8.45932 274.326 8.74638 274.787 9.11935C275.252 9.48813 275.639 9.93025 275.95 10.4457C276.26 10.957 276.473 11.5248 276.591 12.1492H274.982ZM305.177 14.5631C305.177 15.9209 304.932 17.0943 304.442 18.0833C303.951 19.0723 303.279 19.835 302.424 20.3714C301.569 20.9078 300.592 21.176 299.494 21.176C298.397 21.176 297.42 20.9078 296.565 20.3714C295.71 19.835 295.038 19.0723 294.547 18.0833C294.057 17.0943 293.812 15.9209 293.812 14.5631C293.812 13.2053 294.057 12.0319 294.547 11.0429C295.038 10.0539 295.71 9.29117 296.565 8.75476C297.42 8.21835 298.397 7.95015 299.494 7.95015C300.592 7.95015 301.569 8.21835 302.424 8.75476C303.279 9.29117 303.951 10.0539 304.442 11.0429C304.932 12.0319 305.177 13.2053 305.177 14.5631ZM303.668 14.5631C303.668 13.4484 303.482 12.5075 303.109 11.7406C302.74 10.9737 302.239 10.3933 301.607 9.9994C300.978 9.60547 300.274 9.40851 299.494 9.40851C298.715 9.40851 298.009 9.60547 297.376 9.9994C296.747 10.3933 296.247 10.9737 295.874 11.7406C295.505 12.5075 295.321 13.4484 295.321 14.5631C295.321 15.6778 295.505 16.6186 295.874 17.3855C296.247 18.1524 296.747 18.7328 297.376 19.1268C298.009 19.5207 298.715 19.7176 299.494 19.7176C300.274 19.7176 300.978 19.5207 301.607 19.1268C302.239 18.7328 302.74 18.1524 303.109 17.3855C303.482 16.6186 303.668 15.6778 303.668 14.5631ZM321.247 8.12616H322.806V16.65C322.806 17.5301 322.598 18.3159 322.183 19.0073C321.773 19.6946 321.192 20.2373 320.442 20.6354C319.692 21.0293 318.812 21.2263 317.802 21.2263C316.792 21.2263 315.912 21.0293 315.162 20.6354C314.412 20.2373 313.829 19.6946 313.414 19.0073C313.004 18.3159 312.798 17.5301 312.798 16.65V8.12616H314.357V16.5243C314.357 17.1529 314.496 17.7124 314.772 18.2027C315.049 18.6888 315.443 19.0723 315.954 19.3531C316.469 19.6296 317.085 19.7679 317.802 19.7679C318.519 19.7679 319.135 19.6296 319.65 19.3531C320.166 19.0723 320.56 18.6888 320.832 18.2027C321.109 17.7124 321.247 17.1529 321.247 16.5243V8.12616ZM330.919 21V8.12616H335.269C336.275 8.12616 337.1 8.29797 337.746 8.64161C338.391 8.98106 338.869 9.44832 339.179 10.0434C339.489 10.6385 339.644 11.3153 339.644 12.0738C339.644 12.8323 339.489 13.5049 339.179 14.0916C338.869 14.6783 338.393 15.1393 337.752 15.4746C337.111 15.8056 336.291 15.9712 335.294 15.9712H331.774V14.5631H335.244C335.931 14.5631 336.484 14.4625 336.903 14.2613C337.327 14.0602 337.632 13.7752 337.821 13.4064C338.014 13.0335 338.11 12.5893 338.11 12.0738C338.11 11.5583 338.014 11.1078 337.821 10.7223C337.628 10.3368 337.32 10.0392 336.897 9.82968C336.474 9.61595 335.914 9.50909 335.219 9.50909H332.478V21H330.919ZM336.979 15.2168L340.147 21H338.336L335.219 15.2168H336.979Z" fill="white"/>
<path d="M3.60191 39.0597V51.9336H1.26978V39.0597H3.60191ZM21.7068 39.0597V51.9336H19.6324L13.5663 43.1645H13.4595V51.9336H11.1273V39.0597H13.2143L19.2741 47.8351H19.3872V39.0597H21.7068ZM28.6822 41.0147V39.0597H38.9536V41.0147H34.9745V51.9336H32.6612V41.0147H28.6822ZM45.9337 51.9336V39.0597H50.7614C51.7504 39.0597 52.5801 39.2316 53.2507 39.5752C53.9254 39.9188 54.4345 40.4008 54.7782 41.021C55.126 41.637 55.2999 42.3557 55.2999 43.1771C55.2999 44.0027 55.1239 44.7193 54.7719 45.3269C54.4241 45.9304 53.9107 46.3977 53.2318 46.7287C52.5529 47.0556 51.719 47.2191 50.7299 47.2191H47.2915V45.2829H50.4156C50.994 45.2829 51.4675 45.2033 51.8363 45.0441C52.2051 44.8806 52.4775 44.6439 52.6535 44.3338C52.8337 44.0194 52.9238 43.6339 52.9238 43.1771C52.9238 42.7203 52.8337 42.3306 52.6535 42.0079C52.4733 41.681 52.1988 41.4338 51.83 41.2662C51.4612 41.0943 50.9856 41.0084 50.4031 41.0084H48.2658V51.9336H45.9337ZM52.5843 46.1001L55.7714 51.9336H53.1689L50.0385 46.1001H52.5843ZM64.0998 51.9336H61.6106L66.1428 39.0597H69.0218L73.5603 51.9336H71.0711L67.6326 41.6999H67.532L64.0998 51.9336ZM64.1816 46.8859H70.9705V48.7591H64.1816V46.8859ZM90.6704 43.4034H88.3195C88.2524 43.0179 88.1288 42.6763 87.9486 42.3788C87.7684 42.0771 87.5442 41.8214 87.276 41.6119C87.0078 41.4024 86.7018 41.2452 86.3582 41.1404C86.0188 41.0315 85.6521 40.977 85.2581 40.977C84.5583 40.977 83.9381 41.153 83.3975 41.505C82.8569 41.8529 82.4336 42.3641 82.1277 43.0388C81.8218 43.7093 81.6688 44.5286 81.6688 45.4967C81.6688 46.4815 81.8218 47.3112 82.1277 47.9859C82.4378 48.6565 82.8611 49.1635 83.3975 49.5072C83.9381 49.8466 84.5562 50.0163 85.2519 50.0163C85.6374 50.0163 85.9978 49.9661 86.3331 49.8655C86.6725 49.7607 86.9763 49.6078 87.2445 49.4066C87.5169 49.2054 87.7453 48.9582 87.9297 48.6648C88.1183 48.3715 88.2482 48.0362 88.3195 47.6591L90.6704 47.6716C90.5824 48.2835 90.3918 48.8576 90.0984 49.394C89.8092 49.9304 89.43 50.404 88.9606 50.8147C88.4913 51.2212 87.9423 51.5397 87.3137 51.7702C86.6851 51.9965 85.9873 52.1096 85.2204 52.1096C84.0889 52.1096 83.079 51.8477 82.1905 51.3238C81.3021 50.8 80.6023 50.0436 80.091 49.0546C79.5797 48.0656 79.3241 46.8796 79.3241 45.4967C79.3241 44.1095 79.5818 42.9236 80.0973 41.9388C80.6127 40.9498 81.3147 40.1933 82.2031 39.6695C83.0915 39.1457 84.0973 38.8837 85.2204 38.8837C85.937 38.8837 86.6034 38.9843 87.2194 39.1855C87.8354 39.3866 88.3844 39.6821 88.8663 40.0718C89.3483 40.4573 89.7443 40.9309 90.0544 41.4925C90.3687 42.0498 90.5741 42.6868 90.6704 43.4034ZM97.2404 41.0147V39.0597H107.512V41.0147H103.533V51.9336H101.219V41.0147H97.2404ZM116.824 39.0597V51.9336H114.492V39.0597H116.824ZM126.072 39.0597L129.422 49.1929H129.554L132.898 39.0597H135.463L130.925 51.9336H128.046L123.513 39.0597H126.072ZM142.159 51.9336V39.0597H150.532V41.0147H144.491V44.5098H150.098V46.4647H144.491V49.9786H150.582V51.9336H142.159ZM162.324 51.9336H157.76V39.0597H162.362C163.657 39.0597 164.771 39.3175 165.706 39.8329C166.64 40.3442 167.359 41.0797 167.862 42.0393C168.369 42.999 168.623 44.1473 168.623 45.4841C168.623 46.8251 168.369 47.9776 167.862 48.9414C167.359 49.9053 166.636 50.645 165.693 51.1604C164.755 51.6759 163.631 51.9336 162.324 51.9336ZM160.482 49.6015H162.211C163.015 49.6015 163.692 49.459 164.241 49.174C164.794 48.8849 165.209 48.4385 165.486 47.8351C165.767 47.2274 165.907 46.4438 165.907 45.4841C165.907 44.5328 165.767 43.7554 165.486 43.152C165.209 42.5485 164.796 42.1043 164.248 41.8193C163.699 41.5344 163.022 41.3919 162.217 41.3919H160.482V49.6015ZM178.361 39.0597V51.9336H175.639V39.0597H178.361ZM194.137 43.2211C194.049 42.9152 193.925 42.6449 193.766 42.4102C193.606 42.1713 193.412 41.9702 193.181 41.8068C192.955 41.6391 192.695 41.5113 192.402 41.4233C192.112 41.3353 191.792 41.2913 191.44 41.2913C190.782 41.2913 190.204 41.4547 189.705 41.7816C189.21 42.1085 188.825 42.5841 188.548 43.2085C188.272 43.8288 188.133 44.5873 188.133 45.4841C188.133 46.3809 188.27 47.1436 188.542 47.7722C188.814 48.4008 189.2 48.8807 189.699 49.2117C190.197 49.5386 190.786 49.702 191.465 49.702C192.081 49.702 192.607 49.5931 193.043 49.3752C193.483 49.1531 193.818 48.8409 194.049 48.4385C194.283 48.0362 194.401 47.5606 194.401 47.0116L194.954 47.0933H191.635V45.0441H197.022V46.6659C197.022 47.7974 196.783 48.7696 196.305 49.5826C195.828 50.3914 195.17 51.0158 194.331 51.4559C193.493 51.8917 192.534 52.1096 191.452 52.1096C190.246 52.1096 189.185 51.8435 188.272 51.3113C187.358 50.7749 186.646 50.0143 186.134 49.0294C185.627 48.0404 185.374 46.867 185.374 45.5092C185.374 44.4658 185.525 43.5354 185.826 42.7182C186.132 41.8969 186.56 41.2012 187.109 40.6313C187.658 40.0613 188.297 39.6276 189.026 39.33C189.755 39.0325 190.545 38.8837 191.396 38.8837C192.125 38.8837 192.804 38.9906 193.433 39.2043C194.061 39.4139 194.619 39.7114 195.105 40.0969C195.595 40.4825 195.995 40.9414 196.305 41.4736C196.615 42.0016 196.814 42.5841 196.902 43.2211H194.137ZM206.788 39.0597V51.9336H204.066V39.0597H206.788ZM213.537 41.3039V39.0597H224.111V41.3039H220.169V51.9336H217.479V41.3039H213.537ZM231.498 51.9336H228.581L233.025 39.0597H236.533L240.971 51.9336H238.054L234.829 42.0016H234.729L231.498 51.9336ZM231.315 46.8733H238.205V48.998H231.315V46.8733ZM247.52 51.9336V39.0597H250.242V49.6895H255.761V51.9336H247.52ZM283.02 43.5669H280.266C280.216 43.2106 280.113 42.8942 279.958 42.6177C279.803 42.3369 279.604 42.098 279.361 41.901C279.118 41.7041 278.837 41.5532 278.519 41.4485C278.205 41.3437 277.863 41.2913 277.494 41.2913C276.828 41.2913 276.247 41.4568 275.753 41.7879C275.258 42.1148 274.875 42.5925 274.603 43.2211C274.33 43.8455 274.194 44.6041 274.194 45.4967C274.194 46.4144 274.33 47.1855 274.603 47.8099C274.879 48.4344 275.265 48.9058 275.759 49.2243C276.254 49.5428 276.826 49.702 277.475 49.702C277.84 49.702 278.177 49.6539 278.487 49.5575C278.802 49.4611 279.08 49.3207 279.323 49.1363C279.567 48.9477 279.768 48.7193 279.927 48.4511C280.09 48.1829 280.204 47.877 280.266 47.5334L283.02 47.5459C282.948 48.1368 282.77 48.7068 282.485 49.2557C282.205 49.8005 281.825 50.2887 281.348 50.7204C280.874 51.1478 280.308 51.4873 279.65 51.7387C278.997 51.986 278.257 52.1096 277.431 52.1096C276.283 52.1096 275.256 51.8498 274.351 51.3301C273.45 50.8105 272.738 50.0583 272.214 49.0734C271.694 48.0886 271.434 46.8964 271.434 45.4967C271.434 44.0928 271.698 42.8984 272.227 41.9136C272.755 40.9288 273.471 40.1787 274.376 39.6632C275.282 39.1436 276.3 38.8837 277.431 38.8837C278.177 38.8837 278.869 38.9885 279.506 39.198C280.147 39.4076 280.715 39.7135 281.209 40.1158C281.704 40.5139 282.106 41.0021 282.416 41.5805C282.731 42.1588 282.932 42.8209 283.02 43.5669ZM291.948 51.9336H289.032L293.476 39.0597H296.984L301.422 51.9336H298.505L295.28 42.0016H295.179L291.948 51.9336ZM291.766 46.8733H298.656V48.998H291.766V46.8733ZM305.908 41.3039V39.0597H316.481V41.3039H312.539V51.9336H309.849V41.3039H305.908ZM323.868 51.9336H320.951L325.395 39.0597H328.903L333.341 51.9336H330.424L327.2 42.0016H327.099L323.868 51.9336ZM323.686 46.8733H330.575V48.998H323.686V46.8733ZM339.891 51.9336V39.0597H342.612V49.6895H348.132V51.9336H339.891ZM366.263 45.4967C366.263 46.9006 365.997 48.0949 365.465 49.0797C364.937 50.0645 364.216 50.8168 363.302 51.3364C362.393 51.8519 361.37 52.1096 360.235 52.1096C359.091 52.1096 358.064 51.8498 357.155 51.3301C356.245 50.8105 355.527 50.0583 354.999 49.0734C354.47 48.0886 354.206 46.8964 354.206 45.4967C354.206 44.0928 354.47 42.8984 354.999 41.9136C355.527 40.9288 356.245 40.1787 357.155 39.6632C358.064 39.1436 359.091 38.8837 360.235 38.8837C361.37 38.8837 362.393 39.1436 363.302 39.6632C364.216 40.1787 364.937 40.9288 365.465 41.9136C365.997 42.8984 366.263 44.0928 366.263 45.4967ZM363.504 45.4967C363.504 44.5873 363.367 43.8204 363.095 43.196C362.827 42.5716 362.447 42.098 361.957 41.7753C361.467 41.4526 360.893 41.2913 360.235 41.2913C359.577 41.2913 359.003 41.4526 358.512 41.7753C358.022 42.098 357.641 42.5716 357.368 43.196C357.1 43.8204 356.966 44.5873 356.966 45.4967C356.966 46.4061 357.1 47.173 357.368 47.7974C357.641 48.4218 358.022 48.8953 358.512 49.218C359.003 49.5407 359.577 49.702 360.235 49.702C360.893 49.702 361.467 49.5407 361.957 49.218C362.447 48.8953 362.827 48.4218 363.095 47.7974C363.367 47.173 363.504 46.4061 363.504 45.4967ZM381.816 43.2211C381.728 42.9152 381.604 42.6449 381.445 42.4102C381.286 42.1713 381.091 41.9702 380.86 41.8068C380.634 41.6391 380.374 41.5113 380.081 41.4233C379.792 41.3353 379.471 41.2913 379.119 41.2913C378.461 41.2913 377.883 41.4547 377.384 41.7816C376.89 42.1085 376.504 42.5841 376.228 43.2085C375.951 43.8288 375.813 44.5873 375.813 45.4841C375.813 46.3809 375.949 47.1436 376.221 47.7722C376.494 48.4008 376.879 48.8807 377.378 49.2117C377.877 49.5386 378.465 49.702 379.144 49.702C379.76 49.702 380.286 49.5931 380.722 49.3752C381.162 49.1531 381.497 48.8409 381.728 48.4385C381.963 48.0362 382.08 47.5606 382.08 47.0116L382.633 47.0933H379.314V45.0441H384.701V46.6659C384.701 47.7974 384.462 48.7696 383.985 49.5826C383.507 50.3914 382.849 51.0158 382.011 51.4559C381.173 51.8917 380.213 52.1096 379.132 52.1096C377.925 52.1096 376.865 51.8435 375.951 51.3113C375.037 50.7749 374.325 50.0143 373.814 49.0294C373.307 48.0404 373.053 46.867 373.053 45.5092C373.053 44.4658 373.204 43.5354 373.506 42.7182C373.812 41.8969 374.239 41.2012 374.788 40.6313C375.337 40.0613 375.976 39.6276 376.705 39.33C377.434 39.0325 378.224 38.8837 379.075 38.8837C379.804 38.8837 380.483 38.9906 381.112 39.2043C381.74 39.4139 382.298 39.7114 382.784 40.0969C383.274 40.4825 383.674 40.9414 383.985 41.4736C384.295 42.0016 384.494 42.5841 384.582 43.2211H381.816ZM399.698 39.0597H402.419V47.4202C402.419 48.3589 402.195 49.1803 401.747 49.8843C401.303 50.5884 400.68 51.1374 399.88 51.5313C399.079 51.921 398.147 52.1159 397.083 52.1159C396.014 52.1159 395.079 51.921 394.279 51.5313C393.479 51.1374 392.856 50.5884 392.412 49.8843C391.968 49.1803 391.746 48.3589 391.746 47.4202V39.0597H394.468V47.1876C394.468 47.6779 394.574 48.1138 394.788 48.4951C395.006 48.8765 395.312 49.1761 395.706 49.394C396.1 49.6119 396.559 49.7209 397.083 49.7209C397.611 49.7209 398.069 49.6119 398.459 49.394C398.853 49.1761 399.157 48.8765 399.371 48.4951C399.589 48.1138 399.698 47.6779 399.698 47.1876V39.0597ZM409.659 51.9336V39.0597H418.334V41.3039H412.381V44.3715H417.887V46.6156H412.381V49.6895H418.359V51.9336H409.659Z" fill="#00B7F0"/>
</svg>
