<svg width="47" height="47" viewBox="0 0 47 47" fill="none" xmlns="http://www.w3.org/2000/svg">
<rect width="46.8293" height="46.8293" rx="23.4146" fill="white"/>
<path d="M23.4163 19.6641C22.4217 19.6641 21.4679 20.0591 20.7646 20.7624C20.0614 21.4657 19.6663 22.4195 19.6663 23.4141C19.6663 24.4086 20.0614 25.3625 20.7646 26.0657C21.4679 26.769 22.4217 27.1641 23.4163 27.1641C24.4109 27.1641 25.3647 26.769 26.0679 26.0657C26.7712 25.3625 27.1663 24.4086 27.1663 23.4141C27.1663 22.4195 26.7712 21.4657 26.0679 20.7624C25.3647 20.0591 24.4109 19.6641 23.4163 19.6641ZM23.4163 17.1641C25.0739 17.1641 26.6636 17.8225 27.8357 18.9946C29.0078 20.1667 29.6663 21.7565 29.6663 23.4141C29.6663 25.0717 29.0078 26.6614 27.8357 27.8335C26.6636 29.0056 25.0739 29.6641 23.4163 29.6641C21.7587 29.6641 20.169 29.0056 18.9969 27.8335C17.8248 26.6614 17.1663 25.0717 17.1663 23.4141C17.1663 21.7565 17.8248 20.1667 18.9969 18.9946C20.169 17.8225 21.7587 17.1641 23.4163 17.1641ZM31.5413 16.8516C31.5413 17.266 31.3767 17.6634 31.0836 17.9564C30.7906 18.2494 30.3932 18.4141 29.9788 18.4141C29.5644 18.4141 29.167 18.2494 28.8739 17.9564C28.5809 17.6634 28.4163 17.266 28.4163 16.8516C28.4163 16.4372 28.5809 16.0397 28.8739 15.7467C29.167 15.4537 29.5644 15.2891 29.9788 15.2891C30.3932 15.2891 30.7906 15.4537 31.0836 15.7467C31.3767 16.0397 31.5413 16.4372 31.5413 16.8516ZM23.4163 13.4141C20.3238 13.4141 19.8188 13.4228 18.38 13.4866C17.4 13.5328 16.7425 13.6641 16.1325 13.9016C15.6223 14.0895 15.1609 14.3899 14.7825 14.7803C14.3916 15.1586 14.0909 15.62 13.9025 16.1303C13.665 16.7428 13.5338 17.3991 13.4888 18.3778C13.4238 19.7578 13.415 20.2403 13.415 23.4141C13.415 26.5078 13.4238 27.0116 13.4875 28.4503C13.5338 29.4291 13.665 30.0878 13.9013 30.6966C14.1138 31.2403 14.3638 31.6316 14.7788 32.0466C15.2 32.4666 15.5913 32.7178 16.1288 32.9253C16.7463 33.1641 17.4038 33.2966 18.3788 33.3416C19.7588 33.4066 20.2413 33.4141 23.415 33.4141C26.5088 33.4141 27.0125 33.4053 28.4513 33.3416C29.4288 33.2953 30.0863 33.1641 30.6975 32.9278C31.2077 32.7398 31.6691 32.4395 32.0475 32.0491C32.4688 31.6291 32.72 31.2378 32.9275 30.6991C33.165 30.0841 33.2975 29.4266 33.3425 28.4491C33.4075 27.0703 33.415 26.5866 33.415 23.4141C33.415 20.3216 33.4063 19.8166 33.3425 18.3778C33.2963 17.4003 33.1638 16.7403 32.9275 16.1303C32.7396 15.6201 32.4392 15.1587 32.0488 14.7803C31.6705 14.3894 31.2091 14.0886 30.6988 13.9003C30.0863 13.6628 29.4288 13.5316 28.4513 13.4866C27.0725 13.4216 26.59 13.4141 23.415 13.4141M23.415 10.9141C26.8113 10.9141 27.235 10.9266 28.5688 10.9891C29.8988 11.0516 30.8063 11.2603 31.6025 11.5703C32.4275 11.8878 33.1225 12.3178 33.8175 13.0116C34.4534 13.6362 34.9453 14.3922 35.2588 15.2266C35.5675 16.0228 35.7775 16.9303 35.84 18.2616C35.8988 19.5941 35.915 20.0178 35.915 23.4141C35.915 26.8103 35.9025 27.2341 35.84 28.5666C35.7775 29.8991 35.5675 30.8041 35.2588 31.6016C34.9453 32.436 34.4534 33.1919 33.8175 33.8166C33.1929 34.4524 32.4369 34.9443 31.6025 35.2578C30.8063 35.5666 29.8988 35.7766 28.5688 35.8391C27.235 35.8978 26.8113 35.9141 23.415 35.9141C20.0188 35.9141 19.595 35.9016 18.2613 35.8391C16.9313 35.7766 16.025 35.5666 15.2275 35.2578C14.3931 34.9443 13.6372 34.4524 13.0125 33.8166C12.3767 33.1919 11.8848 32.436 11.5713 31.6016C11.2613 30.8053 11.0525 29.8978 10.99 28.5666C10.93 27.2341 10.915 26.8103 10.915 23.4141C10.915 20.0178 10.9275 19.5941 10.99 18.2616C11.0525 16.9291 11.2613 16.0241 11.5713 15.2266C11.8848 14.3922 12.3767 13.6362 13.0125 13.0116C13.6372 12.3757 14.3931 11.8838 15.2275 11.5703C16.0238 11.2603 16.93 11.0516 18.2613 10.9891C19.5963 10.9303 20.02 10.9141 23.4163 10.9141" fill="black"/>
</svg>
