<svg width="416" height="156" viewBox="0 0 416 156" fill="none" xmlns="http://www.w3.org/2000/svg">
<g filter="url(#filter0_d_1855_8)">
<rect x="4" width="408" height="148" rx="8" fill="black" fill-opacity="0.01"/>
<g clip-path="url(#clip0_1855_8)">
<path d="M50.0479 50.8242C50.4749 50.8242 50.8844 50.9938 51.1863 51.2958C51.4883 51.5977 51.6579 52.0072 51.6579 52.4342V55.4449H68.947V52.4549C68.947 52.0279 69.1166 51.6184 69.4186 51.3165C69.7205 51.0145 70.13 50.8449 70.557 50.8449C70.984 50.8449 71.3935 51.0145 71.6954 51.3165C71.9974 51.6184 72.167 52.0279 72.167 52.4549V55.4449H78.4C79.6196 55.4449 80.7893 55.9292 81.6519 56.7914C82.5145 57.6536 82.9994 58.823 83 60.0426V92.2265C82.9994 93.4461 82.5145 94.6156 81.6519 95.4777C80.7893 96.3399 79.6196 96.8242 78.4 96.8242H41.6C40.3804 96.8242 39.2107 96.3399 38.3481 95.4777C37.4855 94.6156 37.0006 93.4461 37 92.2265V60.0426C37.0006 58.823 37.4855 57.6536 38.3481 56.7914C39.2107 55.9292 40.3804 55.4449 41.6 55.4449H48.4379V52.4319C48.4385 52.0053 48.6084 51.5964 48.9103 51.295C49.2121 50.9935 49.6213 50.8242 50.0479 50.8242ZM40.22 68.6308V92.2265C40.22 92.4077 40.2557 92.5872 40.325 92.7546C40.3944 92.9221 40.496 93.0742 40.6242 93.2023C40.7523 93.3305 40.9045 93.4321 41.0719 93.5015C41.2393 93.5708 41.4188 93.6065 41.6 93.6065H78.4C78.5812 93.6065 78.7607 93.5708 78.9281 93.5015C79.0955 93.4321 79.2477 93.3305 79.3758 93.2023C79.504 93.0742 79.6056 92.9221 79.6749 92.7546C79.7443 92.5872 79.78 92.4077 79.78 92.2265V68.663L40.22 68.6308ZM52.3341 84.4479V88.2797H48.5V84.4479H52.3341ZM61.9159 84.4479V88.2797H58.0841V84.4479H61.9159ZM71.5 84.4479V88.2797H67.6659V84.4479H71.5ZM52.3341 75.3008V79.1326H48.5V75.3008H52.3341ZM61.9159 75.3008V79.1326H58.0841V75.3008H61.9159ZM71.5 75.3008V79.1326H67.6659V75.3008H71.5ZM48.4379 58.6626H41.6C41.4188 58.6626 41.2393 58.6983 41.0719 58.7677C40.9045 58.837 40.7523 58.9387 40.6242 59.0668C40.496 59.195 40.3944 59.3471 40.325 59.5145C40.2557 59.6819 40.22 59.8614 40.22 60.0426V65.4131L79.78 65.4453V60.0426C79.78 59.8614 79.7443 59.6819 79.6749 59.5145C79.6056 59.3471 79.504 59.195 79.3758 59.0668C79.2477 58.9387 79.0955 58.837 78.9281 58.7677C78.7607 58.6983 78.5812 58.6626 78.4 58.6626H72.167V60.7993C72.167 61.2263 71.9974 61.6358 71.6954 61.9378C71.3935 62.2397 70.984 62.4093 70.557 62.4093C70.13 62.4093 69.7205 62.2397 69.4186 61.9378C69.1166 61.6358 68.947 61.2263 68.947 60.7993V58.6626H51.6579V60.7786C51.6579 61.2056 51.4883 61.6151 51.1863 61.9171C50.8844 62.219 50.4749 62.3886 50.0479 62.3886C49.6209 62.3886 49.2114 62.219 48.9095 61.9171C48.6075 61.6151 48.4379 61.2056 48.4379 60.7786V58.6626Z" fill="white"/>
</g>
<path d="M97.6924 43.8242L97.6924 103.824" stroke="#999999"/>
<path d="M113.33 45V34.12H115.631V43.1034H120.295V45H113.33ZM121.818 45V34.12H129.15V36.0165H124.119V38.609H128.773V40.5056H124.119V43.1034H129.171V45H121.818ZM130.564 36.0165V34.12H139.5V36.0165H136.169V45H133.895V36.0165H130.564ZM142.385 34.12V38.2531H140.77V34.12H142.385ZM150 37.249C149.958 36.8205 149.775 36.4876 149.453 36.2503C149.131 36.013 148.693 35.8943 148.141 35.8943C147.765 35.8943 147.448 35.9475 147.19 36.0537C146.931 36.1564 146.733 36.2999 146.595 36.484C146.46 36.6682 146.393 36.8772 146.393 37.1109C146.386 37.3057 146.427 37.4757 146.515 37.6209C146.607 37.7661 146.733 37.8918 146.892 37.9981C147.052 38.1008 147.236 38.1911 147.445 38.269C147.654 38.3434 147.877 38.4072 148.114 38.4603L149.092 38.694C149.566 38.8003 150.002 38.942 150.399 39.119C150.795 39.2961 151.139 39.5139 151.429 39.7725C151.72 40.031 151.944 40.3356 152.104 40.6862C152.267 41.0369 152.35 41.4388 152.354 41.8922C152.35 42.558 152.18 43.1353 151.844 43.6241C151.511 44.1093 151.029 44.4865 150.399 44.7556C149.772 45.0213 149.015 45.1541 148.13 45.1541C147.252 45.1541 146.487 45.0195 145.835 44.7503C145.187 44.4811 144.68 44.0827 144.316 43.555C143.954 43.0237 143.765 42.3668 143.747 41.584H145.973C145.998 41.9488 146.102 42.2534 146.287 42.4978C146.474 42.7386 146.724 42.921 147.036 43.045C147.351 43.1654 147.707 43.2256 148.104 43.2256C148.493 43.2256 148.831 43.169 149.118 43.0556C149.409 42.9423 149.634 42.7847 149.793 42.5828C149.952 42.3809 150.032 42.1489 150.032 41.8869C150.032 41.6425 149.959 41.4371 149.814 41.2706C149.672 41.1041 149.464 40.9625 149.187 40.8456C148.915 40.7287 148.58 40.6225 148.183 40.5269L146.999 40.2294C146.081 40.0062 145.357 39.6574 144.826 39.1828C144.294 38.7082 144.031 38.0689 144.034 37.265C144.031 36.6062 144.206 36.0307 144.56 35.5384C144.918 35.0461 145.408 34.6618 146.032 34.3856C146.655 34.1093 147.363 33.9712 148.157 33.9712C148.964 33.9712 149.669 34.1093 150.271 34.3856C150.877 34.6618 151.348 35.0461 151.684 35.5384C152.021 36.0307 152.194 36.6009 152.205 37.249H150ZM161.22 45H157.363V34.12H161.252C162.346 34.12 163.288 34.3378 164.078 34.7734C164.868 35.2055 165.475 35.827 165.9 36.6381C166.329 37.4491 166.543 38.4196 166.543 39.5494C166.543 40.6827 166.329 41.6567 165.9 42.4712C165.475 43.2858 164.865 43.9109 164.068 44.3466C163.274 44.7822 162.325 45 161.22 45ZM159.664 43.0291H161.125C161.805 43.0291 162.376 42.9086 162.84 42.6678C163.308 42.4234 163.659 42.0462 163.892 41.5362C164.13 41.0227 164.248 40.3604 164.248 39.5494C164.248 38.7454 164.13 38.0884 163.892 37.5784C163.659 37.0684 163.31 36.693 162.846 36.4521C162.382 36.2113 161.81 36.0909 161.13 36.0909H159.664V43.0291ZM170.548 34.12V45H168.247V34.12H170.548ZM178.342 37.249C178.3 36.8205 178.117 36.4876 177.795 36.2503C177.473 36.013 177.036 35.8943 176.483 35.8943C176.108 35.8943 175.791 35.9475 175.532 36.0537C175.274 36.1564 175.075 36.2999 174.937 36.484C174.802 36.6682 174.735 36.8772 174.735 37.1109C174.728 37.3057 174.769 37.4757 174.857 37.6209C174.949 37.7661 175.075 37.8918 175.235 37.9981C175.394 38.1008 175.578 38.1911 175.787 38.269C175.996 38.3434 176.219 38.4072 176.456 38.4603L177.434 38.694C177.909 38.8003 178.344 38.942 178.741 39.119C179.138 39.2961 179.481 39.5139 179.771 39.7725C180.062 40.031 180.287 40.3356 180.446 40.6862C180.609 41.0369 180.692 41.4388 180.696 41.8922C180.692 42.558 180.522 43.1353 180.186 43.6241C179.853 44.1093 179.371 44.4865 178.741 44.7556C178.114 45.0213 177.358 45.1541 176.472 45.1541C175.594 45.1541 174.829 45.0195 174.177 44.7503C173.529 44.4811 173.023 44.0827 172.658 43.555C172.297 43.0237 172.107 42.3668 172.09 41.584H174.316C174.34 41.9488 174.445 42.2534 174.629 42.4978C174.817 42.7386 175.066 42.921 175.378 43.045C175.693 43.1654 176.049 43.2256 176.446 43.2256C176.835 43.2256 177.174 43.169 177.461 43.0556C177.751 42.9423 177.976 42.7847 178.135 42.5828C178.295 42.3809 178.374 42.1489 178.374 41.8869C178.374 41.6425 178.302 41.4371 178.156 41.2706C178.015 41.1041 177.806 40.9625 177.53 40.8456C177.257 40.7287 176.922 40.6225 176.526 40.5269L175.341 40.2294C174.424 40.0062 173.699 39.6574 173.168 39.1828C172.637 38.7082 172.373 38.0689 172.376 37.265C172.373 36.6062 172.548 36.0307 172.902 35.5384C173.26 35.0461 173.751 34.6618 174.374 34.3856C174.997 34.1093 175.706 33.9712 176.499 33.9712C177.306 33.9712 178.011 34.1093 178.613 34.3856C179.219 34.6618 179.69 35.0461 180.026 35.5384C180.363 36.0307 180.536 36.6009 180.547 37.249H178.342ZM191.843 37.929H189.516C189.473 37.628 189.387 37.3606 189.256 37.1268C189.125 36.8895 188.956 36.6877 188.751 36.5212C188.546 36.3548 188.308 36.2273 188.039 36.1387C187.773 36.0502 187.485 36.0059 187.173 36.0059C186.61 36.0059 186.119 36.1458 185.702 36.4256C185.284 36.7018 184.96 37.1056 184.729 37.6368C184.499 38.1646 184.384 38.8056 184.384 39.56C184.384 40.3356 184.499 40.9873 184.729 41.515C184.963 42.0427 185.289 42.4411 185.707 42.7103C186.125 42.9795 186.608 43.1141 187.157 43.1141C187.465 43.1141 187.75 43.0733 188.013 42.9919C188.278 42.9104 188.514 42.7918 188.719 42.6359C188.924 42.4766 189.094 42.2835 189.229 42.0569C189.367 41.8302 189.463 41.5717 189.516 41.2812L191.843 41.2919C191.783 41.7912 191.632 42.2729 191.391 42.7369C191.154 43.1973 190.833 43.6099 190.43 43.9747C190.03 44.3359 189.551 44.6228 188.995 44.8353C188.443 45.0443 187.818 45.1488 187.12 45.1488C186.15 45.1488 185.282 44.9292 184.517 44.49C183.755 44.0508 183.153 43.4151 182.711 42.5828C182.271 41.7505 182.052 40.7429 182.052 39.56C182.052 38.3735 182.275 37.3641 182.721 36.5318C183.167 35.6995 183.773 35.0656 184.538 34.63C185.303 34.1908 186.164 33.9712 187.12 33.9712C187.75 33.9712 188.335 34.0597 188.873 34.2368C189.415 34.4139 189.895 34.6725 190.313 35.0125C190.731 35.3489 191.071 35.7615 191.333 36.2503C191.598 36.739 191.768 37.2986 191.843 37.929ZM200.213 34.12H202.513V41.1856C202.513 41.9789 202.324 42.6731 201.945 43.2681C201.569 43.8631 201.043 44.3271 200.367 44.66C199.69 44.9894 198.902 45.1541 198.003 45.1541C197.1 45.1541 196.31 44.9894 195.633 44.66C194.957 44.3271 194.431 43.8631 194.056 43.2681C193.68 42.6731 193.492 41.9789 193.492 41.1856V34.12H195.793V40.989C195.793 41.4034 195.883 41.7718 196.064 42.094C196.248 42.4163 196.506 42.6696 196.839 42.8537C197.172 43.0379 197.56 43.13 198.003 43.13C198.449 43.13 198.837 43.0379 199.166 42.8537C199.499 42.6696 199.756 42.4163 199.936 42.094C200.121 41.7718 200.213 41.4034 200.213 40.989V34.12ZM210.308 37.249C210.265 36.8205 210.083 36.4876 209.761 36.2503C209.438 36.013 209.001 35.8943 208.448 35.8943C208.073 35.8943 207.756 35.9475 207.498 36.0537C207.239 36.1564 207.041 36.2999 206.903 36.484C206.768 36.6682 206.701 36.8772 206.701 37.1109C206.694 37.3057 206.734 37.4757 206.823 37.6209C206.915 37.7661 207.041 37.8918 207.2 37.9981C207.359 38.1008 207.544 38.1911 207.753 38.269C207.961 38.3434 208.185 38.4072 208.422 38.4603L209.399 38.694C209.874 38.8003 210.31 38.942 210.706 39.119C211.103 39.2961 211.446 39.5139 211.737 39.7725C212.027 40.031 212.252 40.3356 212.412 40.6862C212.575 41.0369 212.658 41.4388 212.661 41.8922C212.658 42.558 212.488 43.1353 212.151 43.6241C211.818 44.1093 211.337 44.4865 210.706 44.7556C210.079 45.0213 209.323 45.1541 208.438 45.1541C207.56 45.1541 206.795 45.0195 206.143 44.7503C205.495 44.4811 204.988 44.0827 204.623 43.555C204.262 43.0237 204.073 42.3668 204.055 41.584H206.281C206.306 41.9488 206.41 42.2534 206.594 42.4978C206.782 42.7386 207.032 42.921 207.343 43.045C207.659 43.1654 208.015 43.2256 208.411 43.2256C208.801 43.2256 209.139 43.169 209.426 43.0556C209.716 42.9423 209.941 42.7847 210.101 42.5828C210.26 42.3809 210.34 42.1489 210.34 41.8869C210.34 41.6425 210.267 41.4371 210.122 41.2706C209.98 41.1041 209.771 40.9625 209.495 40.8456C209.222 40.7287 208.888 40.6225 208.491 40.5269L207.306 40.2294C206.389 40.0062 205.665 39.6574 205.133 39.1828C204.602 38.7082 204.338 38.0689 204.342 37.265C204.338 36.6062 204.514 36.0307 204.868 35.5384C205.226 35.0461 205.716 34.6618 206.339 34.3856C206.963 34.1093 207.671 33.9712 208.464 33.9712C209.272 33.9712 209.977 34.1093 210.579 34.3856C211.184 34.6618 211.655 35.0461 211.992 35.5384C212.328 36.0307 212.502 36.6009 212.513 37.249H210.308ZM220.111 37.249C220.068 36.8205 219.886 36.4876 219.564 36.2503C219.241 36.013 218.804 35.8943 218.251 35.8943C217.876 35.8943 217.559 35.9475 217.3 36.0537C217.042 36.1564 216.844 36.2999 216.705 36.484C216.571 36.6682 216.504 36.8772 216.504 37.1109C216.496 37.3057 216.537 37.4757 216.626 37.6209C216.718 37.7661 216.844 37.8918 217.003 37.9981C217.162 38.1008 217.346 38.1911 217.555 38.269C217.764 38.3434 217.988 38.4072 218.225 38.4603L219.202 38.694C219.677 38.8003 220.113 38.942 220.509 39.119C220.906 39.2961 221.249 39.5139 221.54 39.7725C221.83 40.031 222.055 40.3356 222.215 40.6862C222.377 41.0369 222.461 41.4388 222.464 41.8922C222.461 42.558 222.291 43.1353 221.954 43.6241C221.621 44.1093 221.14 44.4865 220.509 44.7556C219.882 45.0213 219.126 45.1541 218.241 45.1541C217.362 45.1541 216.597 45.0195 215.946 44.7503C215.298 44.4811 214.791 44.0827 214.426 43.555C214.065 43.0237 213.876 42.3668 213.858 41.584H216.084C216.109 41.9488 216.213 42.2534 216.397 42.4978C216.585 42.7386 216.835 42.921 217.146 43.045C217.462 43.1654 217.818 43.2256 218.214 43.2256C218.604 43.2256 218.942 43.169 219.229 43.0556C219.519 42.9423 219.744 42.7847 219.904 42.5828C220.063 42.3809 220.143 42.1489 220.143 41.8869C220.143 41.6425 220.07 41.4371 219.925 41.2706C219.783 41.1041 219.574 40.9625 219.298 40.8456C219.025 40.7287 218.691 40.6225 218.294 40.5269L217.109 40.2294C216.192 40.0062 215.468 39.6574 214.936 39.1828C214.405 38.7082 214.141 38.0689 214.145 37.265C214.141 36.6062 214.317 36.0307 214.671 35.5384C215.028 35.0461 215.519 34.6618 216.142 34.3856C216.766 34.1093 217.474 33.9712 218.267 33.9712C219.075 33.9712 219.78 34.1093 220.382 34.3856C220.987 34.6618 221.458 35.0461 221.795 35.5384C222.131 36.0307 222.305 36.6009 222.315 37.249H220.111Z" fill="white"/>
<path d="M112.693 56.12H115.269L117.75 60.8056H117.857L120.338 56.12H122.914L118.946 63.1537V67H116.661V63.1537L112.693 56.12ZM133.511 61.56C133.511 62.7464 133.286 63.7558 132.837 64.5881C132.39 65.4204 131.781 66.0561 131.009 66.4953C130.241 66.9309 129.376 67.1488 128.417 67.1488C127.45 67.1488 126.582 66.9292 125.813 66.49C125.045 66.0508 124.438 65.4151 123.991 64.5828C123.545 63.7505 123.322 62.7429 123.322 61.56C123.322 60.3735 123.545 59.3641 123.991 58.5318C124.438 57.6995 125.045 57.0656 125.813 56.63C126.582 56.1908 127.45 55.9712 128.417 55.9712C129.376 55.9712 130.241 56.1908 131.009 56.63C131.781 57.0656 132.39 57.6995 132.837 58.5318C133.286 59.3641 133.511 60.3735 133.511 61.56ZM131.179 61.56C131.179 60.7914 131.064 60.1433 130.834 59.6156C130.607 59.0879 130.287 58.6877 129.872 58.415C129.458 58.1423 128.973 58.0059 128.417 58.0059C127.861 58.0059 127.375 58.1423 126.961 58.415C126.547 58.6877 126.224 59.0879 125.994 59.6156C125.767 60.1433 125.654 60.7914 125.654 61.56C125.654 62.3285 125.767 62.9766 125.994 63.5044C126.224 64.0321 126.547 64.4323 126.961 64.705C127.375 64.9777 127.861 65.1141 128.417 65.1141C128.973 65.1141 129.458 64.9777 129.872 64.705C130.287 64.4323 130.607 64.0321 130.834 63.5044C131.064 62.9766 131.179 62.3285 131.179 61.56ZM141.936 56.12H144.236V63.1856C144.236 63.9789 144.047 64.6731 143.668 65.2681C143.292 65.8631 142.766 66.3271 142.09 66.66C141.413 66.9894 140.625 67.1541 139.726 67.1541C138.823 67.1541 138.033 66.9894 137.356 66.66C136.68 66.3271 136.154 65.8631 135.778 65.2681C135.403 64.6731 135.215 63.9789 135.215 63.1856V56.12H137.516V62.989C137.516 63.4034 137.606 63.7718 137.787 64.094C137.971 64.4163 138.229 64.6696 138.562 64.8537C138.895 65.0379 139.283 65.13 139.726 65.13C140.172 65.13 140.56 65.0379 140.889 64.8537C141.222 64.6696 141.479 64.4163 141.659 64.094C141.844 63.7718 141.936 63.4034 141.936 62.989V56.12ZM146.129 67V56.12H150.421C151.243 56.12 151.944 56.2669 152.525 56.5609C153.109 56.8513 153.554 57.2639 153.858 57.7987C154.166 58.33 154.32 58.9551 154.32 59.674C154.32 60.3965 154.165 61.0181 153.853 61.5387C153.541 62.0558 153.09 62.4525 152.498 62.7287C151.91 63.005 151.198 63.1431 150.363 63.1431H147.489V61.2944H149.991C150.43 61.2944 150.795 61.2341 151.085 61.1137C151.376 60.9933 151.592 60.8127 151.733 60.5718C151.879 60.331 151.951 60.0317 151.951 59.674C151.951 59.3128 151.879 59.0082 151.733 58.7603C151.592 58.5124 151.374 58.3246 151.08 58.1971C150.789 58.0661 150.423 58.0006 149.98 58.0006H148.429V67H146.129ZM152.004 62.0487L154.708 67H152.169L149.523 62.0487H152.004ZM168.509 56.12V67H166.522L161.789 60.1522H161.709V67H159.409V56.12H161.427L166.124 62.9625H166.219V56.12H168.509ZM170.409 67V56.12H177.741V58.0165H172.71V60.609H177.364V62.5056H172.71V65.1034H177.762V67H170.409ZM181.726 56.12L183.921 59.8281H184.006L186.21 56.12H188.808L185.488 61.56L188.882 67H186.237L184.006 63.2865H183.921L181.689 67H179.054L182.46 61.56L179.118 56.12H181.726ZM189.849 58.0165V56.12H198.785V58.0165H195.454V67H193.18V58.0165H189.849ZM203.719 67V56.12H208.012C208.837 56.12 209.54 56.2776 210.121 56.5928C210.701 56.9044 211.144 57.3383 211.449 57.8943C211.757 58.4468 211.911 59.0843 211.911 59.8068C211.911 60.5293 211.755 61.1668 211.443 61.7194C211.132 62.2719 210.68 62.7022 210.089 63.0103C209.501 63.3184 208.789 63.4725 207.953 63.4725H205.217V61.629H207.581C208.024 61.629 208.389 61.5529 208.676 61.4006C208.966 61.2448 209.182 61.0305 209.324 60.7578C209.469 60.4815 209.542 60.1646 209.542 59.8068C209.542 59.4456 209.469 59.1304 209.324 58.8612C209.182 58.5885 208.966 58.3778 208.676 58.229C208.385 58.0767 208.017 58.0006 207.571 58.0006H206.019V67H203.719ZM213.405 67V56.12H217.698C218.519 56.12 219.22 56.2669 219.801 56.5609C220.386 56.8513 220.83 57.2639 221.135 57.7987C221.443 58.33 221.597 58.9551 221.597 59.674C221.597 60.3965 221.441 61.0181 221.129 61.5387C220.818 62.0558 220.366 62.4525 219.775 62.7287C219.187 63.005 218.475 63.1431 217.639 63.1431H214.765V61.2944H217.267C217.706 61.2944 218.071 61.2341 218.362 61.1137C218.652 60.9933 218.868 60.8127 219.01 60.5718C219.155 60.331 219.228 60.0317 219.228 59.674C219.228 59.3128 219.155 59.0082 219.01 58.7603C218.868 58.5124 218.65 58.3246 218.356 58.1971C218.066 58.0661 217.699 58.0006 217.257 58.0006H215.705V67H213.405ZM219.281 62.0487L221.985 67H219.445L216.8 62.0487H219.281ZM233.221 61.56C233.221 62.7464 232.996 63.7558 232.546 64.5881C232.1 65.4204 231.491 66.0561 230.719 66.4953C229.95 66.9309 229.086 67.1488 228.126 67.1488C227.159 67.1488 226.291 66.9292 225.523 66.49C224.754 66.0508 224.147 65.4151 223.701 64.5828C223.254 63.7505 223.031 62.7429 223.031 61.56C223.031 60.3735 223.254 59.3641 223.701 58.5318C224.147 57.6995 224.754 57.0656 225.523 56.63C226.291 56.1908 227.159 55.9712 228.126 55.9712C229.086 55.9712 229.95 56.1908 230.719 56.63C231.491 57.0656 232.1 57.6995 232.546 58.5318C232.996 59.3641 233.221 60.3735 233.221 61.56ZM230.889 61.56C230.889 60.7914 230.773 60.1433 230.543 59.6156C230.317 59.0879 229.996 58.6877 229.582 58.415C229.167 58.1423 228.682 58.0059 228.126 58.0059C227.57 58.0059 227.085 58.1423 226.67 58.415C226.256 58.6877 225.934 59.0879 225.704 59.6156C225.477 60.1433 225.364 60.7914 225.364 61.56C225.364 62.3285 225.477 62.9766 225.704 63.5044C225.934 64.0321 226.256 64.4323 226.67 64.705C227.085 64.9777 227.57 65.1141 228.126 65.1141C228.682 65.1141 229.167 64.9777 229.582 64.705C229.996 64.4323 230.317 64.0321 230.543 63.5044C230.773 62.9766 230.889 62.3285 230.889 61.56ZM239.281 56.12H241.555V63.7062C241.555 64.4075 241.397 65.0167 241.082 65.5337C240.77 66.0508 240.336 66.4493 239.78 66.7291C239.224 67.0089 238.578 67.1488 237.841 67.1488C237.186 67.1488 236.591 67.0336 236.056 66.8034C235.525 66.5697 235.104 66.2155 234.792 65.7409C234.48 65.2628 234.326 64.6625 234.33 63.94H236.619C236.627 64.2269 236.685 64.473 236.795 64.6784C236.908 64.8803 237.062 65.0361 237.257 65.1459C237.455 65.2522 237.689 65.3053 237.958 65.3053C238.242 65.3053 238.481 65.2451 238.675 65.1247C238.874 65.0007 239.024 64.8201 239.127 64.5828C239.23 64.3455 239.281 64.0533 239.281 63.7062V56.12ZM243.457 67V56.12H250.788V58.0165H245.757V60.609H250.411V62.5056H245.757V65.1034H250.809V67H243.457ZM262.217 59.929H259.89C259.847 59.628 259.76 59.3606 259.629 59.1268C259.498 58.8895 259.33 58.6877 259.125 58.5212C258.919 58.3548 258.682 58.2273 258.413 58.1387C258.147 58.0502 257.858 58.0059 257.547 58.0059C256.984 58.0059 256.493 58.1458 256.075 58.4256C255.657 58.7018 255.333 59.1056 255.103 59.6368C254.873 60.1646 254.758 60.8056 254.758 61.56C254.758 62.3356 254.873 62.9873 255.103 63.515C255.337 64.0427 255.663 64.4411 256.081 64.7103C256.498 64.9795 256.982 65.1141 257.531 65.1141C257.839 65.1141 258.124 65.0733 258.386 64.9919C258.652 64.9104 258.887 64.7918 259.093 64.6359C259.298 64.4766 259.468 64.2835 259.603 64.0569C259.741 63.8302 259.837 63.5717 259.89 63.2812L262.217 63.2919C262.156 63.7912 262.006 64.2729 261.765 64.7369C261.528 65.1973 261.207 65.6099 260.803 65.9747C260.403 66.3359 259.925 66.6228 259.369 66.8353C258.817 67.0443 258.191 67.1488 257.494 67.1488C256.523 67.1488 255.656 66.9292 254.891 66.49C254.129 66.0508 253.527 65.4151 253.084 64.5828C252.645 63.7505 252.426 62.7429 252.426 61.56C252.426 60.3735 252.649 59.3641 253.095 58.5318C253.541 57.6995 254.147 57.0656 254.912 56.63C255.677 56.1908 256.537 55.9712 257.494 55.9712C258.124 55.9712 258.708 56.0597 259.247 56.2368C259.789 56.4139 260.269 56.6725 260.687 57.0125C261.104 57.3489 261.444 57.7615 261.707 58.2503C261.972 58.739 262.142 59.2986 262.217 59.929ZM263.452 58.0165V56.12H272.387V58.0165H269.056V67H266.783V58.0165H263.452Z" fill="#00B7F0"/>
<path d="M119.652 85.4923C119.589 84.954 119.33 84.5361 118.877 84.2386C118.423 83.9411 117.867 83.7923 117.209 83.7923C116.727 83.7923 116.305 83.8702 115.944 84.0261C115.586 84.1819 115.307 84.3962 115.105 84.6689C114.906 84.9416 114.807 85.2515 114.807 85.5986C114.807 85.889 114.876 86.1387 115.014 86.3476C115.156 86.553 115.337 86.7248 115.556 86.8629C115.776 86.9975 116.006 87.1091 116.247 87.1976C116.488 87.2826 116.709 87.3517 116.911 87.4048L118.016 87.7023C118.299 87.7767 118.615 87.8794 118.962 88.0104C119.312 88.1415 119.647 88.3203 119.966 88.547C120.288 88.7701 120.554 89.057 120.763 89.4076C120.972 89.7583 121.076 90.1886 121.076 90.6986C121.076 91.2865 120.922 91.8178 120.614 92.2923C120.309 92.7669 119.863 93.1441 119.275 93.4239C118.691 93.7037 117.981 93.8436 117.145 93.8436C116.366 93.8436 115.691 93.7179 115.121 93.4664C114.554 93.2149 114.108 92.8643 113.782 92.4145C113.46 91.9647 113.277 91.4423 113.235 90.8473H114.595C114.63 91.2582 114.768 91.5982 115.009 91.8673C115.254 92.133 115.562 92.3313 115.934 92.4623C116.309 92.5898 116.713 92.6536 117.145 92.6536C117.648 92.6536 118.099 92.5721 118.499 92.4092C118.9 92.2428 119.217 92.0125 119.45 91.7186C119.684 91.4211 119.801 91.074 119.801 90.6773C119.801 90.3161 119.7 90.0221 119.498 89.7955C119.296 89.5688 119.031 89.3846 118.701 89.2429C118.372 89.1013 118.016 88.9773 117.634 88.8711L116.295 88.4886C115.445 88.2442 114.772 87.8953 114.276 87.442C113.78 86.9887 113.532 86.3954 113.532 85.6623C113.532 85.0531 113.697 84.5219 114.026 84.0686C114.359 83.6117 114.806 83.2575 115.365 83.006C115.928 82.751 116.557 82.6235 117.251 82.6235C117.952 82.6235 118.576 82.7493 119.121 83.0007C119.666 83.2487 120.099 83.5887 120.417 84.0207C120.74 84.4528 120.91 84.9433 120.927 85.4923H119.652ZM126.387 93.8223C125.622 93.8223 124.963 93.6417 124.411 93.2805C123.858 92.9192 123.433 92.4216 123.136 91.7876C122.838 91.1537 122.69 90.4294 122.69 89.6148C122.69 88.7861 122.842 88.0547 123.147 87.4208C123.455 86.7833 123.883 86.2856 124.432 85.9279C124.985 85.5667 125.629 85.3861 126.366 85.3861C126.94 85.3861 127.457 85.4923 127.917 85.7048C128.378 85.9173 128.755 86.2148 129.049 86.5973C129.343 86.9798 129.525 87.4261 129.596 87.9361H128.342C128.247 87.5642 128.034 87.2348 127.705 86.9479C127.379 86.6575 126.94 86.5123 126.387 86.5123C125.898 86.5123 125.47 86.6398 125.102 86.8948C124.737 87.1463 124.452 87.5022 124.246 87.9626C124.044 88.4195 123.943 88.9561 123.943 89.5723C123.943 90.2027 124.043 90.7517 124.241 91.2192C124.443 91.6867 124.726 92.0497 125.091 92.3083C125.459 92.5668 125.891 92.6961 126.387 92.6961C126.713 92.6961 127.009 92.6394 127.274 92.5261C127.54 92.4128 127.765 92.2498 127.949 92.0373C128.133 91.8248 128.264 91.5698 128.342 91.2723H129.596C129.525 91.754 129.35 92.1879 129.07 92.5739C128.794 92.9564 128.427 93.261 127.97 93.4877C127.517 93.7108 126.989 93.8223 126.387 93.8223ZM132.683 88.7436V93.6523H131.429V82.7723H132.683V86.7673H132.789C132.98 86.3459 133.267 86.0112 133.649 85.7632C134.036 85.5118 134.549 85.3861 135.19 85.3861C135.746 85.3861 136.233 85.4976 136.651 85.7207C137.069 85.9403 137.393 86.2786 137.623 86.7354C137.857 87.1888 137.974 87.7661 137.974 88.4673V93.6523H136.72V88.5523C136.72 87.9042 136.552 87.403 136.215 87.0489C135.882 86.6912 135.42 86.5123 134.829 86.5123C134.418 86.5123 134.05 86.5991 133.724 86.7726C133.402 86.9462 133.147 87.1994 132.959 87.5323C132.775 87.8652 132.683 88.269 132.683 88.7436ZM143.689 93.8223C142.903 93.8223 142.224 93.6488 141.654 93.3017C141.087 92.9511 140.65 92.4623 140.342 91.8355C140.037 91.205 139.885 90.4719 139.885 89.6361C139.885 88.8002 140.037 88.0636 140.342 87.4261C140.65 86.785 141.079 86.2856 141.628 85.9279C142.18 85.5667 142.825 85.3861 143.561 85.3861C143.986 85.3861 144.406 85.4569 144.82 85.5986C145.235 85.7402 145.612 85.9704 145.952 86.2892C146.292 86.6044 146.563 87.0223 146.765 87.5429C146.967 88.0636 147.068 88.7046 147.068 89.4661V89.9973H140.778V88.9136H145.793C145.793 88.4532 145.7 88.0423 145.516 87.6811C145.336 87.3198 145.077 87.0347 144.741 86.8258C144.408 86.6168 144.015 86.5123 143.561 86.5123C143.062 86.5123 142.63 86.6363 142.265 86.8842C141.904 87.1286 141.626 87.4473 141.431 87.8404C141.236 88.2336 141.139 88.655 141.139 89.1048V89.8273C141.139 90.4436 141.245 90.966 141.458 91.3945C141.674 91.8195 141.973 92.1436 142.355 92.3667C142.738 92.5863 143.182 92.6961 143.689 92.6961C144.018 92.6961 144.316 92.65 144.581 92.558C144.85 92.4623 145.082 92.3207 145.277 92.133C145.472 91.9417 145.623 91.7044 145.729 91.4211L146.94 91.7611C146.813 92.1719 146.598 92.5332 146.297 92.8448C145.996 93.153 145.624 93.3938 145.182 93.5673C144.739 93.7373 144.241 93.8223 143.689 93.8223ZM152.056 93.8223C151.376 93.8223 150.776 93.6506 150.255 93.307C149.734 92.9599 149.327 92.4712 149.033 91.8408C148.739 91.2068 148.592 90.4577 148.592 89.5936C148.592 88.7365 148.739 87.9927 149.033 87.3623C149.327 86.7319 149.736 86.2449 150.26 85.9014C150.785 85.5578 151.39 85.3861 152.077 85.3861C152.609 85.3861 153.028 85.4746 153.336 85.6517C153.648 85.8252 153.885 86.0236 154.048 86.2467C154.215 86.4663 154.344 86.6469 154.436 86.7886H154.542V82.7723H155.796V93.6523H154.585V92.3986H154.436C154.344 92.5473 154.213 92.735 154.043 92.9617C153.873 93.1848 153.63 93.3849 153.315 93.562C153 93.7356 152.58 93.8223 152.056 93.8223ZM152.226 92.6961C152.729 92.6961 153.154 92.565 153.501 92.303C153.848 92.0373 154.112 91.6708 154.293 91.2033C154.473 90.7322 154.564 90.1886 154.564 89.5723C154.564 88.9632 154.475 88.4301 154.298 87.9733C154.121 87.5128 153.859 87.1551 153.512 86.9001C153.165 86.6416 152.736 86.5123 152.226 86.5123C151.695 86.5123 151.252 86.6487 150.898 86.9214C150.547 87.1905 150.283 87.5571 150.106 88.0211C149.933 88.4815 149.846 88.9986 149.846 89.5723C149.846 90.1532 149.935 90.6809 150.112 91.1555C150.292 91.6265 150.558 92.0019 150.909 92.2817C151.263 92.558 151.702 92.6961 152.226 92.6961ZM163.409 90.3161V85.4923H164.663V93.6523H163.409V92.2711H163.324C163.133 92.6855 162.835 93.0379 162.431 93.3283C162.028 93.6152 161.518 93.7586 160.901 93.7586C160.391 93.7586 159.938 93.647 159.541 93.4239C159.145 93.1972 158.833 92.8572 158.606 92.4039C158.38 91.947 158.266 91.3715 158.266 90.6773V85.4923H159.52V90.5923C159.52 91.1873 159.687 91.6619 160.02 92.0161C160.356 92.3703 160.785 92.5473 161.305 92.5473C161.617 92.5473 161.934 92.4677 162.256 92.3083C162.582 92.1489 162.855 91.9045 163.074 91.5751C163.297 91.2458 163.409 90.8261 163.409 90.3161ZM168.213 82.7723V93.6523H166.959V82.7723H168.213ZM173.93 93.8223C173.144 93.8223 172.466 93.6488 171.896 93.3017C171.329 92.9511 170.892 92.4623 170.583 91.8355C170.279 91.205 170.127 90.4719 170.127 89.6361C170.127 88.8002 170.279 88.0636 170.583 87.4261C170.892 86.785 171.32 86.2856 171.869 85.9279C172.422 85.5667 173.066 85.3861 173.803 85.3861C174.228 85.3861 174.648 85.4569 175.062 85.5986C175.476 85.7402 175.853 85.9704 176.193 86.2892C176.533 86.6044 176.804 87.0223 177.006 87.5429C177.208 88.0636 177.309 88.7046 177.309 89.4661V89.9973H171.019V88.9136H176.034C176.034 88.4532 175.942 88.0423 175.758 87.6811C175.577 87.3198 175.319 87.0347 174.982 86.8258C174.649 86.6168 174.256 86.5123 173.803 86.5123C173.303 86.5123 172.871 86.6363 172.507 86.8842C172.145 87.1286 171.867 87.4473 171.673 87.8404C171.478 88.2336 171.38 88.655 171.38 89.1048V89.8273C171.38 90.4436 171.487 90.966 171.699 91.3945C171.915 91.8195 172.214 92.1436 172.597 92.3667C172.979 92.5863 173.424 92.6961 173.93 92.6961C174.26 92.6961 174.557 92.65 174.823 92.558C175.092 92.4623 175.324 92.3207 175.519 92.133C175.714 91.9417 175.864 91.7044 175.97 91.4211L177.182 91.7611C177.054 92.1719 176.84 92.5332 176.539 92.8448C176.238 93.153 175.866 93.3938 175.423 93.5673C174.98 93.7373 174.483 93.8223 173.93 93.8223ZM185.825 93.8436C185.308 93.8436 184.839 93.7462 184.417 93.5514C183.996 93.3531 183.661 93.068 183.413 92.6961C183.165 92.3207 183.041 91.8673 183.041 91.3361C183.041 90.8686 183.133 90.4896 183.318 90.1992C183.502 89.9052 183.748 89.675 184.056 89.5086C184.364 89.3421 184.704 89.2182 185.076 89.1367C185.451 89.0517 185.829 88.9844 186.208 88.9348C186.703 88.8711 187.105 88.8233 187.414 88.7914C187.725 88.756 187.952 88.6975 188.094 88.6161C188.239 88.5346 188.311 88.3929 188.311 88.1911V88.1486C188.311 87.6244 188.168 87.2171 187.881 86.9267C187.598 86.6363 187.167 86.4911 186.59 86.4911C185.992 86.4911 185.522 86.6221 185.182 86.8842C184.842 87.1463 184.603 87.4261 184.465 87.7236L183.275 87.2986C183.488 86.8027 183.771 86.4167 184.125 86.1404C184.483 85.8606 184.872 85.6659 185.294 85.5561C185.719 85.4427 186.137 85.3861 186.548 85.3861C186.81 85.3861 187.111 85.4179 187.451 85.4817C187.794 85.5419 188.125 85.6676 188.444 85.8589C188.766 86.0501 189.034 86.3388 189.246 86.7248C189.459 87.1109 189.565 87.6279 189.565 88.2761V93.6523H188.311V92.5473H188.248C188.163 92.7244 188.021 92.9139 187.823 93.1158C187.624 93.3177 187.36 93.4894 187.031 93.6311C186.702 93.7728 186.3 93.8436 185.825 93.8436ZM186.016 92.7173C186.512 92.7173 186.93 92.6199 187.27 92.4252C187.614 92.2304 187.872 91.9789 188.046 91.6708C188.223 91.3626 188.311 91.0386 188.311 90.6986V89.5511C188.258 89.6148 188.141 89.6733 187.961 89.7264C187.784 89.776 187.578 89.8202 187.344 89.8592C187.114 89.8946 186.889 89.9265 186.67 89.9548C186.454 89.9796 186.278 90.0009 186.144 90.0186C185.818 90.0611 185.513 90.1301 185.23 90.2258C184.95 90.3179 184.724 90.4577 184.55 90.6455C184.38 90.8296 184.295 91.0811 184.295 91.3998C184.295 91.8355 184.456 92.1648 184.779 92.388C185.104 92.6075 185.517 92.7173 186.016 92.7173ZM199.695 85.4923V86.5548H195.296V85.4923H199.695ZM196.613 93.6523V84.3661C196.613 83.8986 196.723 83.509 196.943 83.1973C197.162 82.8856 197.448 82.6519 197.798 82.496C198.149 82.3402 198.519 82.2623 198.909 82.2623C199.217 82.2623 199.468 82.2871 199.663 82.3367C199.858 82.3863 200.003 82.4323 200.099 82.4748L199.737 83.5585C199.674 83.5373 199.585 83.5107 199.472 83.4789C199.362 83.447 199.217 83.431 199.036 83.431C198.622 83.431 198.322 83.5355 198.138 83.7445C197.958 83.9534 197.867 84.2598 197.867 84.6636V93.6523H196.613ZM201.452 93.6523V85.4923H202.663V86.7248H202.748C202.897 86.3211 203.166 85.9935 203.556 85.742C203.945 85.4905 204.384 85.3648 204.873 85.3648C204.965 85.3648 205.08 85.3666 205.218 85.3701C205.357 85.3737 205.461 85.379 205.532 85.3861V86.6611C205.489 86.6504 205.392 86.6345 205.24 86.6133C205.091 86.5885 204.933 86.5761 204.767 86.5761C204.37 86.5761 204.016 86.6593 203.704 86.8258C203.396 86.9887 203.152 87.2153 202.971 87.5058C202.794 87.7926 202.706 88.1202 202.706 88.4886V93.6523H201.452ZM210.191 93.8223C209.405 93.8223 208.726 93.6488 208.156 93.3017C207.59 92.9511 207.152 92.4623 206.844 91.8355C206.539 91.205 206.387 90.4719 206.387 89.6361C206.387 88.8002 206.539 88.0636 206.844 87.4261C207.152 86.785 207.581 86.2856 208.13 85.9279C208.682 85.5667 209.327 85.3861 210.063 85.3861C210.488 85.3861 210.908 85.4569 211.323 85.5986C211.737 85.7402 212.114 85.9704 212.454 86.2892C212.794 86.6044 213.065 87.0223 213.267 87.5429C213.469 88.0636 213.57 88.7046 213.57 89.4661V89.9973H207.28V88.9136H212.295C212.295 88.4532 212.203 88.0423 212.018 87.6811C211.838 87.3198 211.579 87.0347 211.243 86.8258C210.91 86.6168 210.517 86.5123 210.063 86.5123C209.564 86.5123 209.132 86.6363 208.767 86.8842C208.406 87.1286 208.128 87.4473 207.933 87.8404C207.738 88.2336 207.641 88.655 207.641 89.1048V89.8273C207.641 90.4436 207.747 90.966 207.96 91.3945C208.176 91.8195 208.475 92.1436 208.858 92.3667C209.24 92.5863 209.685 92.6961 210.191 92.6961C210.52 92.6961 210.818 92.65 211.083 92.558C211.353 92.4623 211.585 92.3207 211.779 92.133C211.974 91.9417 212.125 91.7044 212.231 91.4211L213.442 91.7611C213.315 92.1719 213.1 92.5332 212.799 92.8448C212.498 93.153 212.126 93.3938 211.684 93.5673C211.241 93.7373 210.743 93.8223 210.191 93.8223ZM218.898 93.8223C218.112 93.8223 217.434 93.6488 216.863 93.3017C216.297 92.9511 215.859 92.4623 215.551 91.8355C215.247 91.205 215.094 90.4719 215.094 89.6361C215.094 88.8002 215.247 88.0636 215.551 87.4261C215.859 86.785 216.288 86.2856 216.837 85.9279C217.389 85.5667 218.034 85.3861 218.771 85.3861C219.196 85.3861 219.615 85.4569 220.03 85.5986C220.444 85.7402 220.821 85.9704 221.161 86.2892C221.501 86.6044 221.772 87.0223 221.974 87.5429C222.176 88.0636 222.277 88.7046 222.277 89.4661V89.9973H215.987V88.9136H221.002C221.002 88.4532 220.91 88.0423 220.726 87.6811C220.545 87.3198 220.287 87.0347 219.95 86.8258C219.617 86.6168 219.224 86.5123 218.771 86.5123C218.271 86.5123 217.839 86.6363 217.474 86.8842C217.113 87.1286 216.835 87.4473 216.64 87.8404C216.446 88.2336 216.348 88.655 216.348 89.1048V89.8273C216.348 90.4436 216.454 90.966 216.667 91.3945C216.883 91.8195 217.182 92.1436 217.565 92.3667C217.947 92.5863 218.392 92.6961 218.898 92.6961C219.228 92.6961 219.525 92.65 219.791 92.558C220.06 92.4623 220.292 92.3207 220.487 92.133C220.681 91.9417 220.832 91.7044 220.938 91.4211L222.149 91.7611C222.022 92.1719 221.808 92.5332 221.507 92.8448C221.206 93.153 220.834 93.3938 220.391 93.5673C219.948 93.7373 219.451 93.8223 218.898 93.8223ZM231.707 93.8223C230.942 93.8223 230.283 93.6417 229.73 93.2805C229.178 92.9192 228.753 92.4216 228.455 91.7876C228.158 91.1537 228.009 90.4294 228.009 89.6148C228.009 88.7861 228.161 88.0547 228.466 87.4208C228.774 86.7833 229.203 86.2856 229.752 85.9279C230.304 85.5667 230.949 85.3861 231.685 85.3861C232.259 85.3861 232.776 85.4923 233.237 85.7048C233.697 85.9173 234.074 86.2148 234.368 86.5973C234.662 86.9798 234.845 87.4261 234.915 87.9361H233.662C233.566 87.5642 233.354 87.2348 233.024 86.9479C232.698 86.6575 232.259 86.5123 231.707 86.5123C231.218 86.5123 230.789 86.6398 230.421 86.8948C230.056 87.1463 229.771 87.5022 229.566 87.9626C229.364 88.4195 229.263 88.9561 229.263 89.5723C229.263 90.2027 229.362 90.7517 229.56 91.2192C229.762 91.6867 230.046 92.0497 230.41 92.3083C230.779 92.5668 231.211 92.6961 231.707 92.6961C232.033 92.6961 232.328 92.6394 232.594 92.5261C232.86 92.4128 233.084 92.2498 233.269 92.0373C233.453 91.8248 233.584 91.5698 233.662 91.2723H234.915C234.845 91.754 234.669 92.1879 234.39 92.5739C234.113 92.9564 233.747 93.261 233.29 93.4877C232.836 93.7108 232.309 93.8223 231.707 93.8223ZM240.063 93.8223C239.327 93.8223 238.68 93.647 238.124 93.2964C237.572 92.9458 237.14 92.4553 236.828 91.8248C236.52 91.1944 236.366 90.4577 236.366 89.6148C236.366 88.7648 236.52 88.0228 236.828 87.3889C237.14 86.7549 237.572 86.2626 238.124 85.912C238.68 85.5614 239.327 85.3861 240.063 85.3861C240.8 85.3861 241.445 85.5614 241.997 85.912C242.553 86.2626 242.985 86.7549 243.293 87.3889C243.605 88.0228 243.761 88.7648 243.761 89.6148C243.761 90.4577 243.605 91.1944 243.293 91.8248C242.985 92.4553 242.553 92.9458 241.997 93.2964C241.445 93.647 240.8 93.8223 240.063 93.8223ZM240.063 92.6961C240.623 92.6961 241.083 92.5527 241.445 92.2658C241.806 91.9789 242.073 91.6017 242.247 91.1342C242.42 90.6667 242.507 90.1602 242.507 89.6148C242.507 89.0694 242.42 88.5612 242.247 88.0901C242.073 87.6191 241.806 87.2384 241.445 86.9479C241.083 86.6575 240.623 86.5123 240.063 86.5123C239.504 86.5123 239.043 86.6575 238.682 86.9479C238.321 87.2384 238.053 87.6191 237.88 88.0901C237.706 88.5612 237.62 89.0694 237.62 89.6148C237.62 90.1602 237.706 90.6667 237.88 91.1342C238.053 91.6017 238.321 91.9789 238.682 92.2658C239.043 92.5527 239.504 92.6961 240.063 92.6961ZM246.928 88.7436V93.6523H245.675V85.4923H246.886V86.7673H246.992C247.183 86.3529 247.474 86.02 247.863 85.7686C248.253 85.5136 248.756 85.3861 249.372 85.3861C249.925 85.3861 250.408 85.4994 250.822 85.7261C251.237 85.9492 251.559 86.2892 251.789 86.7461C252.02 87.1994 252.135 87.7732 252.135 88.4673V93.6523H250.881V88.5523C250.881 87.9113 250.714 87.4119 250.382 87.0542C250.049 86.6929 249.592 86.5123 249.011 86.5123C248.611 86.5123 248.253 86.5991 247.938 86.7726C247.626 86.9462 247.38 87.1994 247.199 87.5323C247.019 87.8652 246.928 88.269 246.928 88.7436ZM260.206 87.3198L259.079 87.6386C259.009 87.4509 258.904 87.2685 258.766 87.0914C258.631 86.9108 258.447 86.762 258.214 86.6451C257.98 86.5283 257.68 86.4698 257.316 86.4698C256.816 86.4698 256.4 86.5849 256.067 86.8151C255.738 87.0418 255.573 87.3304 255.573 87.6811C255.573 87.9927 255.687 88.2389 255.913 88.4195C256.14 88.6001 256.494 88.7507 256.976 88.8711L258.187 89.1686C258.917 89.3457 259.46 89.6166 259.818 89.9814C260.176 90.3426 260.354 90.8084 260.354 91.3786C260.354 91.8461 260.22 92.264 259.951 92.6323C259.685 93.0007 259.313 93.2911 258.835 93.5036C258.357 93.7161 257.801 93.8223 257.167 93.8223C256.335 93.8223 255.646 93.6417 255.1 93.2805C254.555 92.9192 254.21 92.3915 254.064 91.6973L255.254 91.3998C255.368 91.839 255.582 92.1684 255.897 92.388C256.216 92.6075 256.632 92.7173 257.146 92.7173C257.73 92.7173 258.194 92.5934 258.538 92.3455C258.885 92.094 259.058 91.793 259.058 91.4423C259.058 91.159 258.959 90.9217 258.761 90.7305C258.562 90.5357 258.258 90.3905 257.847 90.2948L256.487 89.9761C255.74 89.799 255.191 89.5245 254.84 89.1526C254.493 88.7772 254.319 88.3079 254.319 87.7448C254.319 87.2844 254.449 86.8771 254.707 86.5229C254.969 86.1688 255.325 85.8907 255.775 85.6889C256.228 85.487 256.742 85.3861 257.316 85.3861C258.123 85.3861 258.757 85.5631 259.218 85.9173C259.682 86.2715 260.011 86.739 260.206 87.3198ZM267.384 90.3161V85.4923H268.638V93.6523H267.384V92.2711H267.299C267.108 92.6855 266.811 93.0379 266.407 93.3283C266.003 93.6152 265.493 93.7586 264.877 93.7586C264.367 93.7586 263.913 93.647 263.517 93.4239C263.12 93.1972 262.808 92.8572 262.582 92.4039C262.355 91.947 262.242 91.3715 262.242 90.6773V85.4923H263.495V90.5923C263.495 91.1873 263.662 91.6619 263.995 92.0161C264.331 92.3703 264.76 92.5473 265.281 92.5473C265.592 92.5473 265.909 92.4677 266.231 92.3083C266.557 92.1489 266.83 91.9045 267.05 91.5751C267.273 91.2458 267.384 90.8261 267.384 90.3161ZM272.188 82.7723V93.6523H270.934V82.7723H272.188ZM278.033 85.4923V86.5548H273.804V85.4923H278.033ZM275.037 83.5373H276.291V91.3148C276.291 91.669 276.342 91.9346 276.445 92.1117C276.551 92.2853 276.686 92.4021 276.849 92.4623C277.015 92.519 277.19 92.5473 277.374 92.5473C277.513 92.5473 277.626 92.5403 277.714 92.5261C277.803 92.5084 277.874 92.4942 277.927 92.4836L278.182 93.6098C278.097 93.6417 277.978 93.6736 277.826 93.7055C277.674 93.7409 277.481 93.7586 277.247 93.7586C276.893 93.7586 276.546 93.6824 276.206 93.5302C275.869 93.3779 275.589 93.1459 275.366 92.8342C275.147 92.5225 275.037 92.1294 275.037 91.6548V83.5373ZM282.32 93.8436C281.803 93.8436 281.334 93.7462 280.913 93.5514C280.491 93.3531 280.156 93.068 279.909 92.6961C279.661 92.3207 279.537 91.8673 279.537 91.3361C279.537 90.8686 279.629 90.4896 279.813 90.1992C279.997 89.9052 280.243 89.675 280.551 89.5086C280.859 89.3421 281.199 89.2182 281.571 89.1367C281.947 89.0517 282.324 88.9844 282.703 88.9348C283.199 88.8711 283.601 88.8233 283.909 88.7914C284.221 88.756 284.447 88.6975 284.589 88.6161C284.734 88.5346 284.807 88.3929 284.807 88.1911V88.1486C284.807 87.6244 284.663 87.2171 284.376 86.9267C284.093 86.6363 283.663 86.4911 283.085 86.4911C282.487 86.4911 282.018 86.6221 281.678 86.8842C281.338 87.1463 281.099 87.4261 280.96 87.7236L279.77 87.2986C279.983 86.8027 280.266 86.4167 280.62 86.1404C280.978 85.8606 281.368 85.6659 281.789 85.5561C282.214 85.4427 282.632 85.3861 283.043 85.3861C283.305 85.3861 283.606 85.4179 283.946 85.4817C284.29 85.5419 284.621 85.6676 284.939 85.8589C285.262 86.0501 285.529 86.3388 285.742 86.7248C285.954 87.1109 286.06 87.6279 286.06 88.2761V93.6523H284.807V92.5473H284.743C284.658 92.7244 284.516 92.9139 284.318 93.1158C284.12 93.3177 283.856 93.4894 283.526 93.6311C283.197 93.7728 282.795 93.8436 282.32 93.8436ZM282.512 92.7173C283.008 92.7173 283.425 92.6199 283.765 92.4252C284.109 92.2304 284.368 91.9789 284.541 91.6708C284.718 91.3626 284.807 91.0386 284.807 90.6986V89.5511C284.754 89.6148 284.637 89.6733 284.456 89.7264C284.279 89.776 284.074 89.8202 283.84 89.8592C283.61 89.8946 283.385 89.9265 283.165 89.9548C282.949 89.9796 282.774 90.0009 282.639 90.0186C282.313 90.0611 282.009 90.1301 281.725 90.2258C281.446 90.3179 281.219 90.4577 281.045 90.6455C280.875 90.8296 280.79 91.0811 280.79 91.3998C280.79 91.8355 280.952 92.1648 281.274 92.388C281.6 92.6075 282.012 92.7173 282.512 92.7173ZM291.898 85.4923V86.5548H287.669V85.4923H291.898ZM288.901 83.5373H290.155V91.3148C290.155 91.669 290.206 91.9346 290.309 92.1117C290.415 92.2853 290.55 92.4021 290.713 92.4623C290.879 92.519 291.055 92.5473 291.239 92.5473C291.377 92.5473 291.49 92.5403 291.579 92.5261C291.667 92.5084 291.738 92.4942 291.791 92.4836L292.046 93.6098C291.961 93.6417 291.843 93.6736 291.69 93.7055C291.538 93.7409 291.345 93.7586 291.111 93.7586C290.757 93.7586 290.41 93.6824 290.07 93.5302C289.734 93.3779 289.454 93.1459 289.231 92.8342C289.011 92.5225 288.901 92.1294 288.901 91.6548V83.5373ZM293.784 93.6523V85.4923H295.037V93.6523H293.784ZM294.421 84.1323C294.177 84.1323 293.966 84.0491 293.789 83.8826C293.615 83.7162 293.529 83.516 293.529 83.2823C293.529 83.0485 293.615 82.8484 293.789 82.682C293.966 82.5155 294.177 82.4323 294.421 82.4323C294.665 82.4323 294.874 82.5155 295.048 82.682C295.225 82.8484 295.314 83.0485 295.314 83.2823C295.314 83.516 295.225 83.7162 295.048 83.8826C294.874 84.0491 294.665 84.1323 294.421 84.1323ZM300.649 93.8223C299.912 93.8223 299.266 93.647 298.71 93.2964C298.157 92.9458 297.725 92.4553 297.413 91.8248C297.105 91.1944 296.951 90.4577 296.951 89.6148C296.951 88.7648 297.105 88.0228 297.413 87.3889C297.725 86.7549 298.157 86.2626 298.71 85.912C299.266 85.5614 299.912 85.3861 300.649 85.3861C301.385 85.3861 302.03 85.5614 302.582 85.912C303.138 86.2626 303.571 86.7549 303.879 87.3889C304.19 88.0228 304.346 88.7648 304.346 89.6148C304.346 90.4577 304.19 91.1944 303.879 91.8248C303.571 92.4553 303.138 92.9458 302.582 93.2964C302.03 93.647 301.385 93.8223 300.649 93.8223ZM300.649 92.6961C301.208 92.6961 301.669 92.5527 302.03 92.2658C302.391 91.9789 302.659 91.6017 302.832 91.1342C303.006 90.6667 303.092 90.1602 303.092 89.6148C303.092 89.0694 303.006 88.5612 302.832 88.0901C302.659 87.6191 302.391 87.2384 302.03 86.9479C301.669 86.6575 301.208 86.5123 300.649 86.5123C300.089 86.5123 299.629 86.6575 299.267 86.9479C298.906 87.2384 298.639 87.6191 298.465 88.0901C298.292 88.5612 298.205 89.0694 298.205 89.6148C298.205 90.1602 298.292 90.6667 298.465 91.1342C298.639 91.6017 298.906 91.9789 299.267 92.2658C299.629 92.5527 300.089 92.6961 300.649 92.6961ZM307.514 88.7436V93.6523H306.26V85.4923H307.471V86.7673H307.577C307.769 86.3529 308.059 86.02 308.449 85.7686C308.838 85.5136 309.341 85.3861 309.957 85.3861C310.51 85.3861 310.993 85.4994 311.408 85.7261C311.822 85.9492 312.144 86.2892 312.375 86.7461C312.605 87.1994 312.72 87.7732 312.72 88.4673V93.6523H311.466V88.5523C311.466 87.9113 311.3 87.4119 310.967 87.0542C310.634 86.6929 310.177 86.5123 309.596 86.5123C309.196 86.5123 308.838 86.5991 308.523 86.7726C308.211 86.9462 307.965 87.1994 307.785 87.5323C307.604 87.8652 307.514 88.269 307.514 88.7436ZM321.067 93.6523L318.581 85.4923H319.899L321.662 91.7398H321.747L323.49 85.4923H324.829L326.55 91.7186H326.635L328.399 85.4923H329.716L327.23 93.6523H325.997L324.212 87.3836H324.085L322.3 93.6523H321.067ZM331.374 93.6523V85.4923H332.627V93.6523H331.374ZM332.011 84.1323C331.767 84.1323 331.556 84.0491 331.379 83.8826C331.205 83.7162 331.119 83.516 331.119 83.2823C331.119 83.0485 331.205 82.8484 331.379 82.682C331.556 82.5155 331.767 82.4323 332.011 82.4323C332.255 82.4323 332.464 82.5155 332.638 82.682C332.815 82.8484 332.904 83.0485 332.904 83.2823C332.904 83.516 332.815 83.7162 332.638 83.8826C332.464 84.0491 332.255 84.1323 332.011 84.1323ZM338.472 85.4923V86.5548H334.244V85.4923H338.472ZM335.476 83.5373H336.73V91.3148C336.73 91.669 336.781 91.9346 336.884 92.1117C336.99 92.2853 337.125 92.4021 337.288 92.4623C337.454 92.519 337.63 92.5473 337.814 92.5473C337.952 92.5473 338.065 92.5403 338.154 92.5261C338.242 92.5084 338.313 92.4942 338.366 92.4836L338.621 93.6098C338.536 93.6417 338.418 93.6736 338.265 93.7055C338.113 93.7409 337.92 93.7586 337.686 93.7586C337.332 93.7586 336.985 93.6824 336.645 93.5302C336.308 93.3779 336.029 93.1459 335.806 92.8342C335.586 92.5225 335.476 92.1294 335.476 91.6548V83.5373ZM341.787 88.7436V93.6523H340.534V82.7723H341.787V86.7673H341.894C342.085 86.3459 342.372 86.0112 342.754 85.7632C343.14 85.5118 343.654 85.3861 344.295 85.3861C344.851 85.3861 345.338 85.4976 345.756 85.7207C346.174 85.9403 346.498 86.2786 346.728 86.7354C346.962 87.1888 347.079 87.7661 347.079 88.4673V93.6523H345.825V88.5523C345.825 87.9042 345.657 87.403 345.32 87.0489C344.987 86.6912 344.525 86.5123 343.934 86.5123C343.523 86.5123 343.155 86.5991 342.829 86.7726C342.506 86.9462 342.251 87.1994 342.064 87.5323C341.88 87.8652 341.787 88.269 341.787 88.7436ZM356.895 93.8223C356.158 93.8223 355.512 93.647 354.956 93.2964C354.403 92.9458 353.971 92.4553 353.66 91.8248C353.352 91.1944 353.197 90.4577 353.197 89.6148C353.197 88.7648 353.352 88.0228 353.66 87.3889C353.971 86.7549 354.403 86.2626 354.956 85.912C355.512 85.5614 356.158 85.3861 356.895 85.3861C357.632 85.3861 358.276 85.5614 358.829 85.912C359.385 86.2626 359.817 86.7549 360.125 87.3889C360.437 88.0228 360.592 88.7648 360.592 89.6148C360.592 90.4577 360.437 91.1944 360.125 91.8248C359.817 92.4553 359.385 92.9458 358.829 93.2964C358.276 93.647 357.632 93.8223 356.895 93.8223ZM356.895 92.6961C357.455 92.6961 357.915 92.5527 358.276 92.2658C358.637 91.9789 358.905 91.6017 359.078 91.1342C359.252 90.6667 359.339 90.1602 359.339 89.6148C359.339 89.0694 359.252 88.5612 359.078 88.0901C358.905 87.6191 358.637 87.2384 358.276 86.9479C357.915 86.6575 357.455 86.5123 356.895 86.5123C356.335 86.5123 355.875 86.6575 355.514 86.9479C355.152 87.2384 354.885 87.6191 354.712 88.0901C354.538 88.5612 354.451 89.0694 354.451 89.6148C354.451 90.1602 354.538 90.6667 354.712 91.1342C354.885 91.6017 355.152 91.9789 355.514 92.2658C355.875 92.5527 356.335 92.6961 356.895 92.6961ZM363.76 88.7436V93.6523H362.506V85.4923H363.718V86.7673H363.824C364.015 86.3529 364.305 86.02 364.695 85.7686C365.085 85.5136 365.588 85.3861 366.204 85.3861C366.756 85.3861 367.24 85.4994 367.654 85.7261C368.069 85.9492 368.391 86.2892 368.621 86.7461C368.851 87.1994 368.966 87.7732 368.966 88.4673V93.6523H367.713V88.5523C367.713 87.9113 367.546 87.4119 367.213 87.0542C366.88 86.6929 366.423 86.5123 365.843 86.5123C365.442 86.5123 365.085 86.5991 364.769 86.7726C364.458 86.9462 364.212 87.1994 364.031 87.5323C363.85 87.8652 363.76 88.269 363.76 88.7436ZM374.679 93.8223C373.892 93.8223 373.214 93.6488 372.644 93.3017C372.077 92.9511 371.64 92.4623 371.332 91.8355C371.027 91.205 370.875 90.4719 370.875 89.6361C370.875 88.8002 371.027 88.0636 371.332 87.4261C371.64 86.785 372.068 86.2856 372.617 85.9279C373.17 85.5667 373.814 85.3861 374.551 85.3861C374.976 85.3861 375.396 85.4569 375.81 85.5986C376.225 85.7402 376.602 85.9704 376.942 86.2892C377.282 86.6044 377.553 87.0223 377.755 87.5429C377.956 88.0636 378.057 88.7046 378.057 89.4661V89.9973H371.767V88.9136H376.782C376.782 88.4532 376.69 88.0423 376.506 87.6811C376.326 87.3198 376.067 87.0347 375.731 86.8258C375.398 86.6168 375.004 86.5123 374.551 86.5123C374.052 86.5123 373.62 86.6363 373.255 86.8842C372.894 87.1286 372.616 87.4473 372.421 87.8404C372.226 88.2336 372.129 88.655 372.129 89.1048V89.8273C372.129 90.4436 372.235 90.966 372.447 91.3945C372.663 91.8195 372.963 92.1436 373.345 92.3667C373.728 92.5863 374.172 92.6961 374.679 92.6961C375.008 92.6961 375.306 92.65 375.571 92.558C375.84 92.4623 376.072 92.3207 376.267 92.133C376.462 91.9417 376.612 91.7044 376.719 91.4211L377.93 91.7611C377.802 92.1719 377.588 92.5332 377.287 92.8448C376.986 93.153 376.614 93.3938 376.171 93.5673C375.729 93.7373 375.231 93.8223 374.679 93.8223ZM116.847 113.822C116.111 113.822 115.464 113.647 114.908 113.296C114.356 112.946 113.924 112.455 113.612 111.825C113.304 111.194 113.15 110.458 113.15 109.615C113.15 108.765 113.304 108.023 113.612 107.389C113.924 106.755 114.356 106.263 114.908 105.912C115.464 105.561 116.111 105.386 116.847 105.386C117.584 105.386 118.229 105.561 118.781 105.912C119.337 106.263 119.769 106.755 120.077 107.389C120.389 108.023 120.545 108.765 120.545 109.615C120.545 110.458 120.389 111.194 120.077 111.825C119.769 112.455 119.337 112.946 118.781 113.296C118.229 113.647 117.584 113.822 116.847 113.822ZM116.847 112.696C117.407 112.696 117.867 112.553 118.229 112.266C118.59 111.979 118.857 111.602 119.031 111.134C119.204 110.667 119.291 110.16 119.291 109.615C119.291 109.069 119.204 108.561 119.031 108.09C118.857 107.619 118.59 107.238 118.229 106.948C117.867 106.658 117.407 106.512 116.847 106.512C116.288 106.512 115.827 106.658 115.466 106.948C115.105 107.238 114.837 107.619 114.664 108.09C114.49 108.561 114.404 109.069 114.404 109.615C114.404 110.16 114.49 110.667 114.664 111.134C114.837 111.602 115.105 111.979 115.466 112.266C115.827 112.553 116.288 112.696 116.847 112.696ZM126.092 105.492V106.555H121.694V105.492H126.092ZM123.011 113.652V104.366C123.011 103.899 123.121 103.509 123.341 103.197C123.56 102.886 123.845 102.652 124.196 102.496C124.546 102.34 124.917 102.262 125.306 102.262C125.614 102.262 125.866 102.287 126.061 102.337C126.255 102.386 126.401 102.432 126.496 102.475L126.135 103.559C126.071 103.537 125.983 103.511 125.869 103.479C125.759 103.447 125.614 103.431 125.434 103.431C125.019 103.431 124.72 103.536 124.536 103.744C124.355 103.953 124.265 104.26 124.265 104.664V113.652H123.011ZM135.372 113.822C134.635 113.822 133.989 113.647 133.433 113.296C132.88 112.946 132.448 112.455 132.137 111.825C131.829 111.194 131.675 110.458 131.675 109.615C131.675 108.765 131.829 108.023 132.137 107.389C132.448 106.755 132.88 106.263 133.433 105.912C133.989 105.561 134.635 105.386 135.372 105.386C136.109 105.386 136.753 105.561 137.306 105.912C137.862 106.263 138.294 106.755 138.602 107.389C138.914 108.023 139.07 108.765 139.07 109.615C139.07 110.458 138.914 111.194 138.602 111.825C138.294 112.455 137.862 112.946 137.306 113.296C136.753 113.647 136.109 113.822 135.372 113.822ZM135.372 112.696C135.932 112.696 136.392 112.553 136.753 112.266C137.115 111.979 137.382 111.602 137.556 111.134C137.729 110.667 137.816 110.16 137.816 109.615C137.816 109.069 137.729 108.561 137.556 108.09C137.382 107.619 137.115 107.238 136.753 106.948C136.392 106.658 135.932 106.512 135.372 106.512C134.812 106.512 134.352 106.658 133.991 106.948C133.63 107.238 133.362 107.619 133.189 108.09C133.015 108.561 132.928 109.069 132.928 109.615C132.928 110.16 133.015 110.667 133.189 111.134C133.362 111.602 133.63 111.979 133.991 112.266C134.352 112.553 134.812 112.696 135.372 112.696ZM146.126 110.316V105.492H147.38V113.652H146.126V112.271H146.041C145.85 112.685 145.552 113.038 145.148 113.328C144.745 113.615 144.235 113.759 143.618 113.759C143.108 113.759 142.655 113.647 142.258 113.424C141.862 113.197 141.55 112.857 141.323 112.404C141.097 111.947 140.983 111.372 140.983 110.677V105.492H142.237V110.592C142.237 111.187 142.404 111.662 142.737 112.016C143.073 112.37 143.502 112.547 144.022 112.547C144.334 112.547 144.651 112.468 144.973 112.308C145.299 112.149 145.572 111.905 145.791 111.575C146.014 111.246 146.126 110.826 146.126 110.316ZM149.676 113.652V105.492H150.887V106.725H150.972C151.121 106.321 151.39 105.993 151.78 105.742C152.169 105.491 152.609 105.365 153.097 105.365C153.189 105.365 153.304 105.367 153.443 105.37C153.581 105.374 153.685 105.379 153.756 105.386V106.661C153.714 106.65 153.616 106.635 153.464 106.613C153.315 106.588 153.157 106.576 152.991 106.576C152.594 106.576 152.24 106.659 151.929 106.826C151.62 106.989 151.376 107.215 151.195 107.506C151.018 107.793 150.93 108.12 150.93 108.489V113.652H149.676ZM162.871 113.822C162.085 113.822 161.407 113.649 160.836 113.302C160.27 112.951 159.832 112.462 159.524 111.835C159.22 111.205 159.067 110.472 159.067 109.636C159.067 108.8 159.22 108.064 159.524 107.426C159.832 106.785 160.261 106.286 160.81 105.928C161.362 105.567 162.007 105.386 162.744 105.386C163.169 105.386 163.588 105.457 164.003 105.599C164.417 105.74 164.794 105.97 165.134 106.289C165.474 106.604 165.745 107.022 165.947 107.543C166.149 108.064 166.25 108.705 166.25 109.466V109.997H159.96V108.914H164.975C164.975 108.453 164.883 108.042 164.699 107.681C164.518 107.32 164.259 107.035 163.923 106.826C163.59 106.617 163.197 106.512 162.744 106.512C162.244 106.512 161.812 106.636 161.447 106.884C161.086 107.129 160.808 107.447 160.613 107.84C160.418 108.234 160.321 108.655 160.321 109.105V109.827C160.321 110.444 160.427 110.966 160.64 111.395C160.856 111.82 161.155 112.144 161.538 112.367C161.92 112.586 162.365 112.696 162.871 112.696C163.2 112.696 163.498 112.65 163.764 112.558C164.033 112.462 164.265 112.321 164.459 112.133C164.654 111.942 164.805 111.704 164.911 111.421L166.122 111.761C165.995 112.172 165.78 112.533 165.479 112.845C165.178 113.153 164.807 113.394 164.364 113.567C163.921 113.737 163.424 113.822 162.871 113.822ZM168.873 105.492L170.828 108.829L172.783 105.492H174.228L171.593 109.572L174.228 113.652H172.783L170.828 110.486L168.873 113.652H167.428L170.02 109.572L167.428 105.492H168.873ZM176.017 116.712V105.492H177.228V106.789H177.377C177.469 106.647 177.596 106.466 177.759 106.247C177.926 106.024 178.163 105.825 178.471 105.652C178.783 105.475 179.204 105.386 179.736 105.386C180.423 105.386 181.028 105.558 181.552 105.901C182.077 106.245 182.486 106.732 182.78 107.362C183.074 107.993 183.221 108.736 183.221 109.594C183.221 110.458 183.074 111.207 182.78 111.841C182.486 112.471 182.078 112.96 181.558 113.307C181.037 113.651 180.437 113.822 179.757 113.822C179.233 113.822 178.813 113.736 178.498 113.562C178.183 113.385 177.94 113.185 177.77 112.962C177.6 112.735 177.469 112.547 177.377 112.399H177.271V116.712H176.017ZM177.249 109.572C177.249 110.189 177.34 110.732 177.52 111.203C177.701 111.671 177.965 112.037 178.312 112.303C178.659 112.565 179.084 112.696 179.587 112.696C180.111 112.696 180.548 112.558 180.899 112.282C181.253 112.002 181.519 111.627 181.696 111.155C181.877 110.681 181.967 110.153 181.967 109.572C181.967 108.999 181.878 108.481 181.701 108.021C181.528 107.557 181.264 107.191 180.91 106.921C180.559 106.649 180.118 106.512 179.587 106.512C179.077 106.512 178.648 106.642 178.301 106.9C177.954 107.155 177.692 107.513 177.515 107.973C177.338 108.43 177.249 108.963 177.249 109.572ZM188.554 113.822C187.768 113.822 187.09 113.649 186.52 113.302C185.953 112.951 185.516 112.462 185.208 111.835C184.903 111.205 184.751 110.472 184.751 109.636C184.751 108.8 184.903 108.064 185.208 107.426C185.516 106.785 185.944 106.286 186.493 105.928C187.046 105.567 187.69 105.386 188.427 105.386C188.852 105.386 189.272 105.457 189.686 105.599C190.1 105.74 190.478 105.97 190.818 106.289C191.158 106.604 191.428 107.022 191.63 107.543C191.832 108.064 191.933 108.705 191.933 109.466V109.997H185.643V108.914H190.658C190.658 108.453 190.566 108.042 190.382 107.681C190.201 107.32 189.943 107.035 189.606 106.826C189.273 106.617 188.88 106.512 188.427 106.512C187.928 106.512 187.495 106.636 187.131 106.884C186.769 107.129 186.491 107.447 186.297 107.84C186.102 108.234 186.004 108.655 186.004 109.105V109.827C186.004 110.444 186.111 110.966 186.323 111.395C186.539 111.82 186.838 112.144 187.221 112.367C187.603 112.586 188.048 112.696 188.554 112.696C188.884 112.696 189.181 112.65 189.447 112.558C189.716 112.462 189.948 112.321 190.143 112.133C190.338 111.942 190.488 111.704 190.594 111.421L191.806 111.761C191.678 112.172 191.464 112.533 191.163 112.845C190.862 113.153 190.49 113.394 190.047 113.567C189.605 113.737 189.107 113.822 188.554 113.822ZM193.84 113.652V105.492H195.052V106.725H195.137C195.285 106.321 195.555 105.993 195.944 105.742C196.334 105.491 196.773 105.365 197.262 105.365C197.354 105.365 197.469 105.367 197.607 105.37C197.745 105.374 197.85 105.379 197.92 105.386V106.661C197.878 106.65 197.78 106.635 197.628 106.613C197.479 106.588 197.322 106.576 197.155 106.576C196.759 106.576 196.405 106.659 196.093 106.826C195.785 106.989 195.54 107.215 195.36 107.506C195.183 107.793 195.094 108.12 195.094 108.489V113.652H193.84ZM203.467 105.492V106.555H199.238V105.492H203.467ZM200.47 103.537H201.724V111.315C201.724 111.669 201.775 111.935 201.878 112.112C201.984 112.285 202.119 112.402 202.282 112.462C202.448 112.519 202.624 112.547 202.808 112.547C202.946 112.547 203.059 112.54 203.148 112.526C203.236 112.508 203.307 112.494 203.36 112.484L203.615 113.61C203.53 113.642 203.412 113.674 203.259 113.705C203.107 113.741 202.914 113.759 202.68 113.759C202.326 113.759 201.979 113.682 201.639 113.53C201.303 113.378 201.023 113.146 200.8 112.834C200.58 112.523 200.47 112.129 200.47 111.655V103.537ZM212.641 113.822C211.961 113.822 211.361 113.651 210.84 113.307C210.32 112.96 209.913 112.471 209.619 111.841C209.325 111.207 209.178 110.458 209.178 109.594C209.178 108.736 209.325 107.993 209.619 107.362C209.913 106.732 210.322 106.245 210.846 105.901C211.37 105.558 211.976 105.386 212.663 105.386C213.194 105.386 213.614 105.475 213.922 105.652C214.233 105.825 214.471 106.024 214.634 106.247C214.8 106.466 214.929 106.647 215.021 106.789H215.128V102.772H216.381V113.652H215.17V112.399H215.021C214.929 112.547 214.798 112.735 214.628 112.962C214.458 113.185 214.216 113.385 213.9 113.562C213.585 113.736 213.166 113.822 212.641 113.822ZM212.811 112.696C213.314 112.696 213.739 112.565 214.086 112.303C214.433 112.037 214.697 111.671 214.878 111.203C215.059 110.732 215.149 110.189 215.149 109.572C215.149 108.963 215.06 108.43 214.883 107.973C214.706 107.513 214.444 107.155 214.097 106.9C213.75 106.642 213.321 106.512 212.811 106.512C212.28 106.512 211.837 106.649 211.483 106.921C211.133 107.191 210.869 107.557 210.692 108.021C210.518 108.481 210.431 108.999 210.431 109.572C210.431 110.153 210.52 110.681 210.697 111.155C210.878 111.627 211.143 112.002 211.494 112.282C211.848 112.558 212.287 112.696 212.811 112.696ZM222.273 113.822C221.487 113.822 220.808 113.649 220.238 113.302C219.672 112.951 219.234 112.462 218.926 111.835C218.622 111.205 218.469 110.472 218.469 109.636C218.469 108.8 218.622 108.064 218.926 107.426C219.234 106.785 219.663 106.286 220.212 105.928C220.764 105.567 221.409 105.386 222.145 105.386C222.57 105.386 222.99 105.457 223.405 105.599C223.819 105.74 224.196 105.97 224.536 106.289C224.876 106.604 225.147 107.022 225.349 107.543C225.551 108.064 225.652 108.705 225.652 109.466V109.997H219.362V108.914H224.377C224.377 108.453 224.285 108.042 224.1 107.681C223.92 107.32 223.661 107.035 223.325 106.826C222.992 106.617 222.599 106.512 222.145 106.512C221.646 106.512 221.214 106.636 220.849 106.884C220.488 107.129 220.21 107.447 220.015 107.84C219.82 108.234 219.723 108.655 219.723 109.105V109.827C219.723 110.444 219.829 110.966 220.042 111.395C220.258 111.82 220.557 112.144 220.94 112.367C221.322 112.586 221.767 112.696 222.273 112.696C222.602 112.696 222.9 112.65 223.165 112.558C223.435 112.462 223.667 112.321 223.861 112.133C224.056 111.942 224.207 111.704 224.313 111.421L225.524 111.761C225.397 112.172 225.182 112.533 224.881 112.845C224.58 113.153 224.209 113.394 223.766 113.567C223.323 113.737 222.825 113.822 222.273 113.822ZM233.983 105.492L230.966 113.652H229.691L226.673 105.492H228.033L230.286 111.995H230.371L232.623 105.492H233.983ZM238.767 113.822C237.981 113.822 237.303 113.649 236.732 113.302C236.166 112.951 235.728 112.462 235.42 111.835C235.116 111.205 234.963 110.472 234.963 109.636C234.963 108.8 235.116 108.064 235.42 107.426C235.728 106.785 236.157 106.286 236.706 105.928C237.258 105.567 237.903 105.386 238.64 105.386C239.065 105.386 239.484 105.457 239.899 105.599C240.313 105.74 240.69 105.97 241.03 106.289C241.37 106.604 241.641 107.022 241.843 107.543C242.045 108.064 242.146 108.705 242.146 109.466V109.997H235.856V108.914H240.871C240.871 108.453 240.779 108.042 240.595 107.681C240.414 107.32 240.155 107.035 239.819 106.826C239.486 106.617 239.093 106.512 238.64 106.512C238.14 106.512 237.708 106.636 237.343 106.884C236.982 107.129 236.704 107.447 236.509 107.84C236.314 108.234 236.217 108.655 236.217 109.105V109.827C236.217 110.444 236.323 110.966 236.536 111.395C236.752 111.82 237.051 112.144 237.434 112.367C237.816 112.586 238.261 112.696 238.767 112.696C239.096 112.696 239.394 112.65 239.66 112.558C239.929 112.462 240.161 112.321 240.355 112.133C240.55 111.942 240.701 111.704 240.807 111.421L242.018 111.761C241.891 112.172 241.677 112.533 241.375 112.845C241.074 113.153 240.703 113.394 240.26 113.567C239.817 113.737 239.32 113.822 238.767 113.822ZM245.307 102.772V113.652H244.053V102.772H245.307ZM250.918 113.822C250.181 113.822 249.535 113.647 248.979 113.296C248.427 112.946 247.994 112.455 247.683 111.825C247.375 111.194 247.221 110.458 247.221 109.615C247.221 108.765 247.375 108.023 247.683 107.389C247.994 106.755 248.427 106.263 248.979 105.912C249.535 105.561 250.181 105.386 250.918 105.386C251.655 105.386 252.299 105.561 252.852 105.912C253.408 106.263 253.84 106.755 254.148 107.389C254.46 108.023 254.616 108.765 254.616 109.615C254.616 110.458 254.46 111.194 254.148 111.825C253.84 112.455 253.408 112.946 252.852 113.296C252.299 113.647 251.655 113.822 250.918 113.822ZM250.918 112.696C251.478 112.696 251.938 112.553 252.299 112.266C252.661 111.979 252.928 111.602 253.102 111.134C253.275 110.667 253.362 110.16 253.362 109.615C253.362 109.069 253.275 108.561 253.102 108.09C252.928 107.619 252.661 107.238 252.299 106.948C251.938 106.658 251.478 106.512 250.918 106.512C250.359 106.512 249.898 106.658 249.537 106.948C249.176 107.238 248.908 107.619 248.735 108.09C248.561 108.561 248.474 109.069 248.474 109.615C248.474 110.16 248.561 110.667 248.735 111.134C248.908 111.602 249.176 111.979 249.537 112.266C249.898 112.553 250.359 112.696 250.918 112.696ZM256.529 116.712V105.492H257.741V106.789H257.889C257.982 106.647 258.109 106.466 258.272 106.247C258.438 106.024 258.676 105.825 258.984 105.652C259.296 105.475 259.717 105.386 260.248 105.386C260.935 105.386 261.541 105.558 262.065 105.901C262.589 106.245 262.998 106.732 263.292 107.362C263.586 107.993 263.733 108.736 263.733 109.594C263.733 110.458 263.586 111.207 263.292 111.841C262.998 112.471 262.591 112.96 262.07 113.307C261.55 113.651 260.949 113.822 260.269 113.822C259.745 113.822 259.326 113.736 259.01 113.562C258.695 113.385 258.453 113.185 258.283 112.962C258.113 112.735 257.982 112.547 257.889 112.399H257.783V116.712H256.529ZM257.762 109.572C257.762 110.189 257.852 110.732 258.033 111.203C258.214 111.671 258.477 112.037 258.824 112.303C259.172 112.565 259.597 112.696 260.099 112.696C260.624 112.696 261.061 112.558 261.412 112.282C261.766 112.002 262.031 111.627 262.209 111.155C262.389 110.681 262.479 110.153 262.479 109.572C262.479 108.999 262.391 108.481 262.214 108.021C262.04 107.557 261.776 107.191 261.422 106.921C261.072 106.649 260.631 106.512 260.099 106.512C259.589 106.512 259.161 106.642 258.814 106.9C258.467 107.155 258.205 107.513 258.028 107.973C257.85 108.43 257.762 108.963 257.762 109.572ZM269.067 113.822C268.281 113.822 267.603 113.649 267.032 113.302C266.466 112.951 266.028 112.462 265.72 111.835C265.416 111.205 265.263 110.472 265.263 109.636C265.263 108.8 265.416 108.064 265.72 107.426C266.028 106.785 266.457 106.286 267.006 105.928C267.558 105.567 268.203 105.386 268.939 105.386C269.365 105.386 269.784 105.457 270.199 105.599C270.613 105.74 270.99 105.97 271.33 106.289C271.67 106.604 271.941 107.022 272.143 107.543C272.345 108.064 272.446 108.705 272.446 109.466V109.997H266.156V108.914H271.171C271.171 108.453 271.079 108.042 270.895 107.681C270.714 107.32 270.455 107.035 270.119 106.826C269.786 106.617 269.393 106.512 268.939 106.512C268.44 106.512 268.008 106.636 267.643 106.884C267.282 107.129 267.004 107.447 266.809 107.84C266.614 108.234 266.517 108.655 266.517 109.105V109.827C266.517 110.444 266.623 110.966 266.836 111.395C267.052 111.82 267.351 112.144 267.734 112.367C268.116 112.586 268.561 112.696 269.067 112.696C269.396 112.696 269.694 112.65 269.96 112.558C270.229 112.462 270.461 112.321 270.655 112.133C270.85 111.942 271.001 111.704 271.107 111.421L272.318 111.761C272.191 112.172 271.976 112.533 271.675 112.845C271.374 113.153 271.003 113.394 270.56 113.567C270.117 113.737 269.62 113.822 269.067 113.822ZM274.353 113.652V105.492H275.564V106.725H275.649C275.798 106.321 276.067 105.993 276.457 105.742C276.846 105.491 277.285 105.365 277.774 105.365C277.866 105.365 277.981 105.367 278.12 105.37C278.258 105.374 278.362 105.379 278.433 105.386V106.661C278.39 106.65 278.293 106.635 278.141 106.613C277.992 106.588 277.834 106.576 277.668 106.576C277.271 106.576 276.917 106.659 276.605 106.826C276.297 106.989 276.053 107.215 275.872 107.506C275.695 107.793 275.607 108.12 275.607 108.489V113.652H274.353ZM285.699 107.32L284.573 107.639C284.502 107.451 284.398 107.268 284.259 107.091C284.125 106.911 283.941 106.762 283.707 106.645C283.473 106.528 283.174 106.47 282.809 106.47C282.31 106.47 281.894 106.585 281.561 106.815C281.231 107.042 281.067 107.33 281.067 107.681C281.067 107.993 281.18 108.239 281.407 108.42C281.633 108.6 281.987 108.751 282.469 108.871L283.68 109.169C284.41 109.346 284.954 109.617 285.311 109.981C285.669 110.343 285.848 110.808 285.848 111.379C285.848 111.846 285.713 112.264 285.444 112.632C285.179 113.001 284.807 113.291 284.329 113.504C283.85 113.716 283.294 113.822 282.66 113.822C281.828 113.822 281.139 113.642 280.594 113.28C280.048 112.919 279.703 112.392 279.558 111.697L280.748 111.4C280.861 111.839 281.076 112.168 281.391 112.388C281.709 112.608 282.126 112.717 282.639 112.717C283.224 112.717 283.688 112.593 284.031 112.345C284.378 112.094 284.552 111.793 284.552 111.442C284.552 111.159 284.453 110.922 284.254 110.73C284.056 110.536 283.751 110.39 283.34 110.295L281.98 109.976C281.233 109.799 280.684 109.525 280.334 109.153C279.986 108.777 279.813 108.308 279.813 107.745C279.813 107.284 279.942 106.877 280.201 106.523C280.463 106.169 280.819 105.891 281.269 105.689C281.722 105.487 282.235 105.386 282.809 105.386C283.617 105.386 284.251 105.563 284.711 105.917C285.175 106.271 285.504 106.739 285.699 107.32ZM295.491 105.492V106.555H291.263V105.492H295.491ZM292.495 103.537H293.749V111.315C293.749 111.669 293.8 111.935 293.903 112.112C294.009 112.285 294.144 112.402 294.307 112.462C294.473 112.519 294.649 112.547 294.833 112.547C294.971 112.547 295.084 112.54 295.173 112.526C295.261 112.508 295.332 112.494 295.385 112.484L295.64 113.61C295.555 113.642 295.437 113.674 295.284 113.705C295.132 113.741 294.939 113.759 294.705 113.759C294.351 113.759 294.004 113.682 293.664 113.53C293.328 113.378 293.048 113.146 292.825 112.834C292.605 112.523 292.495 112.129 292.495 111.655V103.537ZM300.605 113.822C299.868 113.822 299.222 113.647 298.666 113.296C298.113 112.946 297.681 112.455 297.369 111.825C297.061 111.194 296.907 110.458 296.907 109.615C296.907 108.765 297.061 108.023 297.369 107.389C297.681 106.755 298.113 106.263 298.666 105.912C299.222 105.561 299.868 105.386 300.605 105.386C301.341 105.386 301.986 105.561 302.539 105.912C303.095 106.263 303.527 106.755 303.835 107.389C304.146 108.023 304.302 108.765 304.302 109.615C304.302 110.458 304.146 111.194 303.835 111.825C303.527 112.455 303.095 112.946 302.539 113.296C301.986 113.647 301.341 113.822 300.605 113.822ZM300.605 112.696C301.164 112.696 301.625 112.553 301.986 112.266C302.347 111.979 302.615 111.602 302.788 111.134C302.962 110.667 303.049 110.16 303.049 109.615C303.049 109.069 302.962 108.561 302.788 108.09C302.615 107.619 302.347 107.238 301.986 106.948C301.625 106.658 301.164 106.512 300.605 106.512C300.045 106.512 299.585 106.658 299.224 106.948C298.862 107.238 298.595 107.619 298.421 108.09C298.248 108.561 298.161 109.069 298.161 109.615C298.161 110.16 298.248 110.667 298.421 111.134C298.595 111.602 298.862 111.979 299.224 112.266C299.585 112.553 300.045 112.696 300.605 112.696ZM309.297 113.822C308.617 113.822 308.017 113.651 307.496 113.307C306.976 112.96 306.569 112.471 306.275 111.841C305.981 111.207 305.834 110.458 305.834 109.594C305.834 108.736 305.981 107.993 306.275 107.362C306.569 106.732 306.978 106.245 307.502 105.901C308.026 105.558 308.632 105.386 309.319 105.386C309.85 105.386 310.27 105.475 310.578 105.652C310.889 105.825 311.127 106.024 311.29 106.247C311.456 106.466 311.585 106.647 311.677 106.789H311.784V102.772H313.037V113.652H311.826V112.399H311.677C311.585 112.547 311.454 112.735 311.284 112.962C311.114 113.185 310.872 113.385 310.556 113.562C310.241 113.736 309.822 113.822 309.297 113.822ZM309.467 112.696C309.97 112.696 310.395 112.565 310.742 112.303C311.09 112.037 311.353 111.671 311.534 111.203C311.715 110.732 311.805 110.189 311.805 109.572C311.805 108.963 311.716 108.43 311.539 107.973C311.362 107.513 311.1 107.155 310.753 106.9C310.406 106.642 309.977 106.512 309.467 106.512C308.936 106.512 308.493 106.649 308.139 106.921C307.789 107.191 307.525 107.557 307.348 108.021C307.174 108.481 307.087 108.999 307.087 109.572C307.087 110.153 307.176 110.681 307.353 111.155C307.534 111.627 307.799 112.002 308.15 112.282C308.504 112.558 308.943 112.696 309.467 112.696ZM317.909 113.844C317.392 113.844 316.923 113.746 316.501 113.551C316.08 113.353 315.745 113.068 315.497 112.696C315.249 112.321 315.125 111.867 315.125 111.336C315.125 110.869 315.217 110.49 315.401 110.199C315.586 109.905 315.832 109.675 316.14 109.509C316.448 109.342 316.788 109.218 317.16 109.137C317.535 109.052 317.913 108.984 318.292 108.935C318.787 108.871 319.189 108.823 319.497 108.791C319.809 108.756 320.036 108.698 320.177 108.616C320.323 108.535 320.395 108.393 320.395 108.191V108.149C320.395 107.624 320.252 107.217 319.965 106.927C319.682 106.636 319.251 106.491 318.674 106.491C318.075 106.491 317.606 106.622 317.266 106.884C316.926 107.146 316.687 107.426 316.549 107.724L315.359 107.299C315.572 106.803 315.855 106.417 316.209 106.14C316.567 105.861 316.956 105.666 317.378 105.556C317.803 105.443 318.221 105.386 318.632 105.386C318.894 105.386 319.195 105.418 319.535 105.482C319.878 105.542 320.209 105.668 320.528 105.859C320.85 106.05 321.118 106.339 321.33 106.725C321.543 107.111 321.649 107.628 321.649 108.276V113.652H320.395V112.547H320.332C320.247 112.724 320.105 112.914 319.907 113.116C319.708 113.318 319.444 113.489 319.115 113.631C318.786 113.773 318.384 113.844 317.909 113.844ZM318.1 112.717C318.596 112.717 319.014 112.62 319.354 112.425C319.698 112.23 319.956 111.979 320.13 111.671C320.307 111.363 320.395 111.039 320.395 110.699V109.551C320.342 109.615 320.225 109.673 320.045 109.726C319.868 109.776 319.662 109.82 319.428 109.859C319.198 109.895 318.973 109.926 318.754 109.955C318.538 109.98 318.362 110.001 318.228 110.019C317.902 110.061 317.597 110.13 317.314 110.226C317.034 110.318 316.808 110.458 316.634 110.645C316.464 110.83 316.379 111.081 316.379 111.4C316.379 111.835 316.54 112.165 316.862 112.388C317.188 112.608 317.601 112.717 318.1 112.717ZM324.453 116.712C324.24 116.712 324.051 116.695 323.884 116.659C323.718 116.627 323.603 116.595 323.539 116.564L323.858 115.459C324.162 115.537 324.431 115.565 324.665 115.544C324.899 115.522 325.106 115.418 325.287 115.23C325.471 115.046 325.639 114.747 325.791 114.332L326.025 113.695L323.008 105.492H324.368L326.62 111.995H326.705L328.958 105.492H330.318L326.854 114.842C326.698 115.264 326.505 115.613 326.275 115.889C326.045 116.169 325.777 116.376 325.473 116.51C325.172 116.645 324.832 116.712 324.453 116.712ZM333.63 102.772L333.524 110.592H332.291L332.185 102.772H333.63ZM332.908 113.737C332.646 113.737 332.421 113.643 332.233 113.456C332.045 113.268 331.951 113.043 331.951 112.781C331.951 112.519 332.045 112.294 332.233 112.106C332.421 111.919 332.646 111.825 332.908 111.825C333.17 111.825 333.395 111.919 333.582 112.106C333.77 112.294 333.864 112.519 333.864 112.781C333.864 112.955 333.82 113.114 333.731 113.259C333.646 113.404 333.531 113.521 333.386 113.61C333.244 113.695 333.085 113.737 332.908 113.737Z" fill="white"/>
</g>
<defs>
<filter id="filter0_d_1855_8" x="0" y="0" width="416" height="156" filterUnits="userSpaceOnUse" color-interpolation-filters="sRGB">
<feFlood flood-opacity="0" result="BackgroundImageFix"/>
<feColorMatrix in="SourceAlpha" type="matrix" values="0 0 0 0 0 0 0 0 0 0 0 0 0 0 0 0 0 0 127 0" result="hardAlpha"/>
<feOffset dy="4"/>
<feGaussianBlur stdDeviation="2"/>
<feComposite in2="hardAlpha" operator="out"/>
<feColorMatrix type="matrix" values="0 0 0 0 0 0 0 0 0 0 0 0 0 0 0 0 0 0 0.25 0"/>
<feBlend mode="normal" in2="BackgroundImageFix" result="effect1_dropShadow_1855_8"/>
<feBlend mode="normal" in="SourceGraphic" in2="effect1_dropShadow_1855_8" result="shape"/>
</filter>
<clipPath id="clip0_1855_8">
<rect width="46" height="46" fill="white" transform="translate(37 50.8242)"/>
</clipPath>
</defs>
</svg>
