<svg width="353" height="70" viewBox="0 0 353 70" fill="none" xmlns="http://www.w3.org/2000/svg">
<path d="M2.23778 12.2944V6.08054H34.8854V12.2944H22.238V47H14.8853V12.2944H2.23778ZM41.1792 47V6.08054H48.5919V23.4034H67.5531V6.08054H74.9857V47H67.5531V29.6172H48.5919V47H41.1792ZM88.3025 47H80.3904L94.7961 6.08054H103.947L118.373 47H110.461L99.5314 14.4722H99.2117L88.3025 47ZM88.5623 30.9559H110.141V36.91H88.5623V30.9559ZM157.389 6.08054V47H150.796L131.515 19.1276H131.175V47H123.762V6.08054H130.396L149.657 33.9729H150.016V6.08054H157.389ZM165.466 47V6.08054H172.879V24.8819H173.378L189.342 6.08054H198.393L182.569 24.4423L198.533 47H189.622L177.414 29.4574L172.879 34.8121V47H165.466Z" fill="white"/>
<path d="M214.702 6.08054H223.074L233.084 24.1826H233.484L243.494 6.08054H251.865L236.98 31.7351V47H229.588V31.7351L214.702 6.08054ZM291.371 26.5403C291.371 30.9492 290.546 34.7255 288.894 37.869C287.255 40.9993 285.018 43.3969 282.18 45.0619C279.357 46.7269 276.153 47.5594 272.57 47.5594C268.987 47.5594 265.777 46.7269 262.94 45.0619C260.116 43.3836 257.878 40.9793 256.226 37.8491C254.588 34.7055 253.769 30.9359 253.769 26.5403C253.769 22.1313 254.588 18.3617 256.226 15.2315C257.878 12.0879 260.116 9.68363 262.94 8.01862C265.777 6.3536 268.987 5.52109 272.57 5.52109C276.153 5.52109 279.357 6.3536 282.18 8.01862C285.018 9.68363 287.255 12.0879 288.894 15.2315C290.546 18.3617 291.371 22.1313 291.371 26.5403ZM283.919 26.5403C283.919 23.4367 283.433 20.8193 282.46 18.688C281.501 16.5435 280.169 14.9251 278.464 13.8329C276.759 12.7273 274.794 12.1745 272.57 12.1745C270.346 12.1745 268.381 12.7273 266.676 13.8329C264.971 14.9251 263.632 16.5435 262.66 18.688C261.701 20.8193 261.221 23.4367 261.221 26.5403C261.221 29.6439 261.701 32.2679 262.66 34.4125C263.632 36.5437 264.971 38.1621 266.676 39.2677C268.381 40.3599 270.346 40.906 272.57 40.906C274.794 40.906 276.759 40.3599 278.464 39.2677C280.169 38.1621 281.501 36.5437 282.46 34.4125C283.433 32.2679 283.919 29.6439 283.919 26.5403ZM324.174 6.08054H331.587V32.8141C331.587 35.7445 330.894 38.3219 329.509 40.5464C328.137 42.7709 326.205 44.5091 323.714 45.7612C321.223 47 318.313 47.6194 314.983 47.6194C311.64 47.6194 308.723 47 306.232 45.7612C303.741 44.5091 301.809 42.7709 300.437 40.5464C299.065 38.3219 298.379 35.7445 298.379 32.8141V6.08054H305.792V32.1947C305.792 33.8996 306.165 35.4181 306.911 36.7502C307.67 38.0822 308.736 39.1278 310.108 39.887C311.48 40.633 313.105 41.0059 314.983 41.0059C316.861 41.0059 318.486 40.633 319.858 39.887C321.243 39.1278 322.309 38.0822 323.055 36.7502C323.801 35.4181 324.174 33.8996 324.174 32.1947V6.08054ZM348.175 6.08054L347.516 34.9719H341.082L340.443 6.08054H348.175ZM344.299 47.4396C343.087 47.4396 342.048 47.0133 341.182 46.1608C340.33 45.3083 339.903 44.2694 339.903 43.0439C339.903 41.8451 340.33 40.8195 341.182 39.967C342.048 39.1145 343.087 38.6882 344.299 38.6882C345.484 38.6882 346.51 39.1145 347.376 39.967C348.255 40.8195 348.695 41.8451 348.695 43.0439C348.695 43.8564 348.488 44.5957 348.075 45.2617C347.676 45.9277 347.143 46.4605 346.477 46.8601C345.824 47.2464 345.098 47.4396 344.299 47.4396Z" fill="#00B7F0"/>
<path d="M139 68H214" stroke="white" stroke-width="4" stroke-linecap="round"/>
</svg>
