<svg width="47" height="47" viewBox="0 0 47 47" fill="none" xmlns="http://www.w3.org/2000/svg">
<rect width="46.8293" height="46.8293" rx="23.4146" fill="white"/>
<path d="M20.2477 28.2891L28.4652 23.4141L20.2477 18.5391V28.2891ZM38.5511 15.5653C38.7569 16.3291 38.8994 17.3528 38.9944 18.6528C39.1052 19.9528 39.1527 21.0741 39.1527 22.0491L39.2477 23.4141C39.2477 26.9728 38.9944 29.5891 38.5511 31.2628C38.1552 32.7253 37.2369 33.6678 35.8119 34.0741C35.0677 34.2853 33.7061 34.4316 31.6161 34.5291C29.5577 34.6428 27.6736 34.6916 25.9319 34.6916L23.4144 34.7891C16.7802 34.7891 12.6477 34.5291 11.0169 34.0741C9.59189 33.6678 8.67355 32.7253 8.27772 31.2628C8.07189 30.4991 7.92939 29.4753 7.83439 28.1753C7.72355 26.8753 7.67605 25.7541 7.67605 24.7791L7.58105 23.4141C7.58105 19.8553 7.83439 17.2391 8.27772 15.5653C8.67355 14.1028 9.59189 13.1603 11.0169 12.7541C11.7611 12.5428 13.1227 12.3966 15.2127 12.2991C17.2711 12.1853 19.1552 12.1366 20.8969 12.1366L23.4144 12.0391C30.0486 12.0391 34.1811 12.2991 35.8119 12.7541C37.2369 13.1603 38.1552 14.1028 38.5511 15.5653Z" fill="black"/>
</svg>
