<svg width="316" height="55" viewBox="0 0 316 55" fill="none" xmlns="http://www.w3.org/2000/svg">
<path d="M2.97417 11.3906L-0.000843952 0.510577H1.33791L3.61167 9.37187H3.71792L6.03418 0.510577H7.52169L9.83795 9.37187H9.9442L12.218 0.510577H13.5567L10.5817 11.3906H9.2217L6.82044 2.72059H6.73544L4.33418 11.3906H2.97417ZM17.6899 11.5606C16.9036 11.5606 16.2254 11.3871 15.6552 11.04C15.0885 10.6894 14.6511 10.2006 14.343 9.57374C14.0384 8.94332 13.8861 8.21019 13.8861 7.37436C13.8861 6.53852 14.0384 5.80185 14.343 5.16435C14.6511 4.5233 15.0796 4.02393 15.6286 3.66622C16.1811 3.30496 16.8257 3.12434 17.5624 3.12434C17.9874 3.12434 18.407 3.19517 18.8214 3.33684C19.2358 3.47851 19.613 3.70872 19.953 4.02747C20.293 4.34268 20.5639 4.7606 20.7658 5.28122C20.9677 5.80185 21.0686 6.44289 21.0686 7.20436V7.73561H14.7786V6.65185H19.7936C19.7936 6.19144 19.7015 5.7806 19.5174 5.41935C19.3367 5.0581 19.0782 4.77299 18.7417 4.56403C18.4088 4.35507 18.0157 4.25059 17.5624 4.25059C17.063 4.25059 16.6309 4.37455 16.2661 4.62247C15.9048 4.86685 15.6268 5.1856 15.432 5.57872C15.2372 5.97185 15.1398 6.39331 15.1398 6.84311V7.56561C15.1398 8.18186 15.2461 8.70426 15.4586 9.1328C15.6746 9.5578 15.9739 9.88187 16.3564 10.105C16.7389 10.3246 17.1834 10.4344 17.6899 10.4344C18.0192 10.4344 18.3167 10.3883 18.5824 10.2962C18.8515 10.2006 19.0835 10.059 19.2783 9.87124C19.4731 9.67999 19.6236 9.4427 19.7299 9.15937L20.9411 9.49937C20.8136 9.9102 20.5993 10.2715 20.2983 10.5831C19.9973 10.8912 19.6254 11.1321 19.1827 11.3056C18.74 11.4756 18.2424 11.5606 17.6899 11.5606ZM28.4371 6.48185V11.3906H27.1833V0.510577H28.4371V4.5056H28.5433C28.7346 4.08413 29.0215 3.74945 29.404 3.50153C29.79 3.25007 30.3036 3.12434 30.9446 3.12434C31.5006 3.12434 31.9876 3.2359 32.4055 3.45903C32.8235 3.67861 33.1475 4.01684 33.3777 4.47372C33.6115 4.92705 33.7284 5.50435 33.7284 6.2056V11.3906H32.4746V6.2906C32.4746 5.64247 32.3064 5.14133 31.9699 4.78716C31.637 4.42945 31.1748 4.25059 30.5834 4.25059C30.1725 4.25059 29.8042 4.33736 29.4783 4.51091C29.1561 4.68445 28.9011 4.93768 28.7133 5.2706C28.5292 5.60352 28.4371 6.00727 28.4371 6.48185ZM39.3371 11.5606C38.6004 11.5606 37.954 11.3853 37.398 11.0347C36.8455 10.6841 36.4134 10.1935 36.1017 9.56312C35.7936 8.9327 35.6395 8.19603 35.6395 7.35311C35.6395 6.5031 35.7936 5.76112 36.1017 5.12716C36.4134 4.4932 36.8455 4.00091 37.398 3.65028C37.954 3.29965 38.6004 3.12434 39.3371 3.12434C40.0737 3.12434 40.7183 3.29965 41.2708 3.65028C41.8269 4.00091 42.2589 4.4932 42.5671 5.12716C42.8787 5.76112 43.0346 6.5031 43.0346 7.35311C43.0346 8.19603 42.8787 8.9327 42.5671 9.56312C42.2589 10.1935 41.8269 10.6841 41.2708 11.0347C40.7183 11.3853 40.0737 11.5606 39.3371 11.5606ZM39.3371 10.4344C39.8966 10.4344 40.3571 10.2909 40.7183 10.0041C41.0796 9.71718 41.347 9.33999 41.5205 8.87249C41.6941 8.40499 41.7808 7.89853 41.7808 7.35311C41.7808 6.80769 41.6941 6.29946 41.5205 5.82841C41.347 5.35737 41.0796 4.97664 40.7183 4.68622C40.3571 4.3958 39.8966 4.25059 39.3371 4.25059C38.7775 4.25059 38.3171 4.3958 37.9558 4.68622C37.5946 4.97664 37.3272 5.35737 37.1536 5.82841C36.9801 6.29946 36.8933 6.80769 36.8933 7.35311C36.8933 7.89853 36.9801 8.40499 37.1536 8.87249C37.3272 9.33999 37.5946 9.71718 37.9558 10.0041C38.3171 10.2909 38.7775 10.4344 39.3371 10.4344ZM44.9484 14.4506V3.23059H46.1597V4.52684H46.3084C46.4005 4.38518 46.528 4.20455 46.6909 3.98497C46.8574 3.76184 47.0947 3.56351 47.4028 3.38997C47.7145 3.21288 48.1359 3.12434 48.6672 3.12434C49.3543 3.12434 49.9599 3.29611 50.4841 3.63965C51.0082 3.9832 51.4173 4.47018 51.7113 5.1006C52.0052 5.73102 52.1522 6.47477 52.1522 7.33186C52.1522 8.19603 52.0052 8.94509 51.7113 9.57905C51.4173 10.2095 51.01 10.6982 50.4894 11.0453C49.9687 11.3889 49.3684 11.5606 48.6884 11.5606C48.1643 11.5606 47.7446 11.4739 47.4294 11.3003C47.1141 11.1232 46.8715 10.9231 46.7015 10.7C46.5315 10.4733 46.4005 10.2856 46.3084 10.1369H46.2022V14.4506H44.9484ZM46.1809 7.31061C46.1809 7.92686 46.2712 8.47051 46.4519 8.94155C46.6325 9.40905 46.8963 9.77562 47.2434 10.0412C47.5905 10.3033 48.0155 10.4344 48.5184 10.4344C49.0426 10.4344 49.48 10.2962 49.8306 10.02C50.1848 9.7402 50.4504 9.36478 50.6275 8.89374C50.8081 8.41915 50.8984 7.89144 50.8984 7.31061C50.8984 6.73685 50.8099 6.21977 50.6328 5.75935C50.4593 5.29539 50.1954 4.92883 49.8412 4.65966C49.4906 4.38695 49.0497 4.25059 48.5184 4.25059C48.0084 4.25059 47.5799 4.37987 47.2328 4.63841C46.8857 4.89341 46.6236 5.25112 46.4465 5.71154C46.2695 6.16841 46.1809 6.70144 46.1809 7.31061ZM57.486 11.5606C56.6997 11.5606 56.0215 11.3871 55.4513 11.04C54.8846 10.6894 54.4472 10.2006 54.1391 9.57374C53.8345 8.94332 53.6822 8.21019 53.6822 7.37436C53.6822 6.53852 53.8345 5.80185 54.1391 5.16435C54.4472 4.5233 54.8757 4.02393 55.4247 3.66622C55.9772 3.30496 56.6218 3.12434 57.3585 3.12434C57.7835 3.12434 58.2032 3.19517 58.6175 3.33684C59.0319 3.47851 59.4091 3.70872 59.7491 4.02747C60.0891 4.34268 60.36 4.7606 60.5619 5.28122C60.7638 5.80185 60.8647 6.44289 60.8647 7.20436V7.73561H54.5747V6.65185H59.5897C59.5897 6.19144 59.4976 5.7806 59.3135 5.41935C59.1329 5.0581 58.8743 4.77299 58.5378 4.56403C58.2049 4.35507 57.8118 4.25059 57.3585 4.25059C56.8591 4.25059 56.427 4.37455 56.0622 4.62247C55.701 4.86685 55.4229 5.1856 55.2281 5.57872C55.0334 5.97185 54.936 6.39331 54.936 6.84311V7.56561C54.936 8.18186 55.0422 8.70426 55.2547 9.1328C55.4708 9.5578 55.77 9.88187 56.1525 10.105C56.535 10.3246 56.9795 10.4344 57.486 10.4344C57.8153 10.4344 58.1128 10.3883 58.3785 10.2962C58.6476 10.2006 58.8796 10.059 59.0744 9.87124C59.2692 9.67999 59.4197 9.4427 59.526 9.15937L60.7372 9.49937C60.6097 9.9102 60.3955 10.2715 60.0944 10.5831C59.7934 10.8912 59.4215 11.1321 58.9788 11.3056C58.5361 11.4756 58.0385 11.5606 57.486 11.5606ZM67.7869 14.4506C67.5744 14.4506 67.385 14.4329 67.2185 14.3975C67.052 14.3656 66.9369 14.3338 66.8732 14.3019L67.1919 13.1969C67.4965 13.2748 67.7657 13.3031 67.9994 13.2819C68.2332 13.2606 68.4404 13.1562 68.621 12.9684C68.8052 12.7843 68.9734 12.485 69.1257 12.0706L69.3595 11.4331L66.3419 3.23059H67.7019L69.9545 9.73312H70.0395L72.292 3.23059H73.652L70.1882 12.5806C70.0324 13.0021 69.8394 13.3509 69.6091 13.6272C69.3789 13.907 69.1115 14.1142 68.807 14.2488C68.5059 14.3833 68.1659 14.4506 67.7869 14.4506ZM78.3297 11.5606C77.593 11.5606 76.9466 11.3853 76.3906 11.0347C75.8381 10.6841 75.406 10.1935 75.0943 9.56312C74.7862 8.9327 74.6321 8.19603 74.6321 7.35311C74.6321 6.5031 74.7862 5.76112 75.0943 5.12716C75.406 4.4932 75.8381 4.00091 76.3906 3.65028C76.9466 3.29965 77.593 3.12434 78.3297 3.12434C79.0663 3.12434 79.7109 3.29965 80.2634 3.65028C80.8195 4.00091 81.2515 4.4932 81.5597 5.12716C81.8713 5.76112 82.0272 6.5031 82.0272 7.35311C82.0272 8.19603 81.8713 8.9327 81.5597 9.56312C81.2515 10.1935 80.8195 10.6841 80.2634 11.0347C79.7109 11.3853 79.0663 11.5606 78.3297 11.5606ZM78.3297 10.4344C78.8892 10.4344 79.3497 10.2909 79.7109 10.0041C80.0722 9.71718 80.3396 9.33999 80.5131 8.87249C80.6866 8.40499 80.7734 7.89853 80.7734 7.35311C80.7734 6.80769 80.6866 6.29946 80.5131 5.82841C80.3396 5.35737 80.0722 4.97664 79.7109 4.68622C79.3497 4.3958 78.8892 4.25059 78.3297 4.25059C77.7701 4.25059 77.3096 4.3958 76.9484 4.68622C76.5871 4.97664 76.3197 5.35737 76.1462 5.82841C75.9727 6.29946 75.8859 6.80769 75.8859 7.35311C75.8859 7.89853 75.9727 8.40499 76.1462 8.87249C76.3197 9.33999 76.5871 9.71718 76.9484 10.0041C77.3096 10.2909 77.7701 10.4344 78.3297 10.4344ZM89.0835 8.05436V3.23059H90.3373V11.3906H89.0835V10.0094H88.9985C88.8073 10.4237 88.5098 10.7761 88.106 11.0666C87.7023 11.3534 87.1923 11.4969 86.576 11.4969C86.066 11.4969 85.6127 11.3853 85.216 11.1622C84.8193 10.9355 84.5077 10.5955 84.281 10.1422C84.0543 9.6853 83.941 9.10978 83.941 8.41561V3.23059H85.1948V8.33061C85.1948 8.92561 85.3612 9.4002 85.6941 9.75437C86.0306 10.1085 86.4591 10.2856 86.9798 10.2856C87.2914 10.2856 87.6084 10.2059 87.9307 10.0466C88.2565 9.88718 88.5292 9.6428 88.7488 9.31343C88.972 8.98405 89.0835 8.56436 89.0835 8.05436ZM100.475 3.23059V4.29309H96.0761V3.23059H100.475ZM97.3936 11.3906V2.10433C97.3936 1.63683 97.5034 1.24725 97.723 0.935579C97.9426 0.623911 98.2277 0.39016 98.5783 0.234326C98.929 0.0784919 99.2991 0.000574867 99.6887 0.000574867C99.9968 0.000574867 100.248 0.0253668 100.443 0.0749507C100.638 0.124534 100.783 0.170576 100.879 0.213076L100.517 1.29683C100.454 1.27558 100.365 1.24902 100.252 1.21714C100.142 1.18527 99.9968 1.16933 99.8162 1.16933C99.4018 1.16933 99.1025 1.27381 98.9183 1.48277C98.7377 1.69173 98.6474 1.99808 98.6474 2.40184V11.3906H97.3936ZM105.211 11.5606C104.474 11.5606 103.828 11.3853 103.272 11.0347C102.719 10.6841 102.287 10.1935 101.976 9.56312C101.668 8.9327 101.514 8.19603 101.514 7.35311C101.514 6.5031 101.668 5.76112 101.976 5.12716C102.287 4.4932 102.719 4.00091 103.272 3.65028C103.828 3.29965 104.474 3.12434 105.211 3.12434C105.948 3.12434 106.592 3.29965 107.145 3.65028C107.701 4.00091 108.133 4.4932 108.441 5.12716C108.753 5.76112 108.909 6.5031 108.909 7.35311C108.909 8.19603 108.753 8.9327 108.441 9.56312C108.133 10.1935 107.701 10.6841 107.145 11.0347C106.592 11.3853 105.948 11.5606 105.211 11.5606ZM105.211 10.4344C105.771 10.4344 106.231 10.2909 106.592 10.0041C106.954 9.71718 107.221 9.33999 107.394 8.87249C107.568 8.40499 107.655 7.89853 107.655 7.35311C107.655 6.80769 107.568 6.29946 107.394 5.82841C107.221 5.35737 106.954 4.97664 106.592 4.68622C106.231 4.3958 105.771 4.25059 105.211 4.25059C104.651 4.25059 104.191 4.3958 103.83 4.68622C103.469 4.97664 103.201 5.35737 103.028 5.82841C102.854 6.29946 102.767 6.80769 102.767 7.35311C102.767 7.89853 102.854 8.40499 103.028 8.87249C103.201 9.33999 103.469 9.71718 103.83 10.0041C104.191 10.2909 104.651 10.4344 105.211 10.4344ZM115.965 8.05436V3.23059H117.219V11.3906H115.965V10.0094H115.88C115.689 10.4237 115.391 10.7761 114.987 11.0666C114.584 11.3534 114.074 11.4969 113.457 11.4969C112.947 11.4969 112.494 11.3853 112.097 11.1622C111.701 10.9355 111.389 10.5955 111.162 10.1422C110.936 9.6853 110.822 9.10978 110.822 8.41561V3.23059H112.076V8.33061C112.076 8.92561 112.243 9.4002 112.576 9.75437C112.912 10.1085 113.341 10.2856 113.861 10.2856C114.173 10.2856 114.49 10.2059 114.812 10.0466C115.138 9.88718 115.411 9.6428 115.63 9.31343C115.853 8.98405 115.965 8.56436 115.965 8.05436ZM120.769 6.48185V11.3906H119.515V3.23059H120.726V4.5056H120.832C121.024 4.09122 121.314 3.7583 121.704 3.50684C122.093 3.25184 122.596 3.12434 123.212 3.12434C123.765 3.12434 124.248 3.23767 124.663 3.46434C125.077 3.68747 125.399 4.02747 125.63 4.48434C125.86 4.93768 125.975 5.51143 125.975 6.2056V11.3906H124.721V6.2906C124.721 5.64956 124.555 5.15018 124.222 4.79247C123.889 4.43122 123.432 4.25059 122.851 4.25059C122.451 4.25059 122.093 4.33736 121.778 4.51091C121.466 4.68445 121.22 4.93768 121.04 5.2706C120.859 5.60352 120.769 6.00727 120.769 6.48185ZM131.347 11.5606C130.667 11.5606 130.067 11.3889 129.546 11.0453C129.026 10.6982 128.618 10.2095 128.324 9.57905C128.031 8.94509 127.884 8.19603 127.884 7.33186C127.884 6.47477 128.031 5.73102 128.324 5.1006C128.618 4.47018 129.027 3.9832 129.552 3.63965C130.076 3.29611 130.681 3.12434 131.369 3.12434C131.9 3.12434 132.319 3.21288 132.628 3.38997C132.939 3.56351 133.177 3.76184 133.339 3.98497C133.506 4.20455 133.635 4.38518 133.727 4.52684H133.834V0.510577H135.087V11.3906H133.876V10.1369H133.727C133.635 10.2856 133.504 10.4733 133.334 10.7C133.164 10.9231 132.922 11.1232 132.606 11.3003C132.291 11.4739 131.871 11.5606 131.347 11.5606ZM131.517 10.4344C132.02 10.4344 132.445 10.3033 132.792 10.0412C133.139 9.77562 133.403 9.40905 133.584 8.94155C133.764 8.47051 133.855 7.92686 133.855 7.31061C133.855 6.70144 133.766 6.16841 133.589 5.71154C133.412 5.25112 133.15 4.89341 132.803 4.63841C132.456 4.37987 132.027 4.25059 131.517 4.25059C130.986 4.25059 130.543 4.38695 130.189 4.65966C129.839 4.92883 129.575 5.29539 129.398 5.75935C129.224 6.21977 129.137 6.73685 129.137 7.31061C129.137 7.89144 129.226 8.41915 129.403 8.89374C129.584 9.36478 129.849 9.7402 130.2 10.02C130.554 10.2962 130.993 10.4344 131.517 10.4344ZM145.08 11.5606C144.344 11.5606 143.697 11.3853 143.141 11.0347C142.589 10.6841 142.157 10.1935 141.845 9.56312C141.537 8.9327 141.383 8.19603 141.383 7.35311C141.383 6.5031 141.537 5.76112 141.845 5.12716C142.157 4.4932 142.589 4.00091 143.141 3.65028C143.697 3.29965 144.344 3.12434 145.08 3.12434C145.817 3.12434 146.461 3.29965 147.014 3.65028C147.57 4.00091 148.002 4.4932 148.31 5.12716C148.622 5.76112 148.778 6.5031 148.778 7.35311C148.778 8.19603 148.622 8.9327 148.31 9.56312C148.002 10.1935 147.57 10.6841 147.014 11.0347C146.461 11.3853 145.817 11.5606 145.08 11.5606ZM145.08 10.4344C145.64 10.4344 146.1 10.2909 146.461 10.0041C146.823 9.71718 147.09 9.33999 147.264 8.87249C147.437 8.40499 147.524 7.89853 147.524 7.35311C147.524 6.80769 147.437 6.29946 147.264 5.82841C147.09 5.35737 146.823 4.97664 146.461 4.68622C146.1 4.3958 145.64 4.25059 145.08 4.25059C144.521 4.25059 144.06 4.3958 143.699 4.68622C143.338 4.97664 143.07 5.35737 142.897 5.82841C142.723 6.29946 142.636 6.80769 142.636 7.35311C142.636 7.89853 142.723 8.40499 142.897 8.87249C143.07 9.33999 143.338 9.71718 143.699 10.0041C144.06 10.2909 144.521 10.4344 145.08 10.4344ZM155.834 8.05436V3.23059H157.088V11.3906H155.834V10.0094H155.749C155.558 10.4237 155.26 10.7761 154.857 11.0666C154.453 11.3534 153.943 11.4969 153.327 11.4969C152.817 11.4969 152.363 11.3853 151.967 11.1622C151.57 10.9355 151.258 10.5955 151.032 10.1422C150.805 9.6853 150.692 9.10978 150.692 8.41561V3.23059H151.945V8.33061C151.945 8.92561 152.112 9.4002 152.445 9.75437C152.781 10.1085 153.21 10.2856 153.73 10.2856C154.042 10.2856 154.359 10.2059 154.681 10.0466C155.007 9.88718 155.28 9.6428 155.499 9.31343C155.722 8.98405 155.834 8.56436 155.834 8.05436ZM159.384 11.3906V3.23059H160.595V4.46309H160.68C160.829 4.05934 161.098 3.73174 161.488 3.48028C161.877 3.22882 162.317 3.10309 162.805 3.10309C162.897 3.10309 163.013 3.10486 163.151 3.1084C163.289 3.11194 163.393 3.11726 163.464 3.12434V4.39934C163.422 4.38872 163.324 4.37278 163.172 4.35153C163.023 4.32674 162.866 4.31434 162.699 4.31434C162.302 4.31434 161.948 4.39757 161.637 4.56403C161.329 4.72695 161.084 4.95362 160.904 5.24404C160.726 5.53091 160.638 5.85852 160.638 6.22685V11.3906H159.384ZM169.158 11.3906V3.23059H170.412V11.3906H169.158ZM169.795 1.87058C169.551 1.87058 169.34 1.78735 169.163 1.62089C168.99 1.45444 168.903 1.25433 168.903 1.02058C168.903 0.786829 168.99 0.586724 169.163 0.420265C169.34 0.253806 169.551 0.170576 169.795 0.170576C170.04 0.170576 170.249 0.253806 170.422 0.420265C170.599 0.586724 170.688 0.786829 170.688 1.02058C170.688 1.25433 170.599 1.45444 170.422 1.62089C170.249 1.78735 170.04 1.87058 169.795 1.87058ZM173.962 6.48185V11.3906H172.708V3.23059H173.919V4.5056H174.025C174.217 4.09122 174.507 3.7583 174.897 3.50684C175.286 3.25184 175.789 3.12434 176.405 3.12434C176.958 3.12434 177.441 3.23767 177.856 3.46434C178.27 3.68747 178.592 4.02747 178.823 4.48434C179.053 4.93768 179.168 5.51143 179.168 6.2056V11.3906H177.914V6.2906C177.914 5.64956 177.748 5.15018 177.415 4.79247C177.082 4.43122 176.625 4.25059 176.044 4.25059C175.644 4.25059 175.286 4.33736 174.971 4.51091C174.659 4.68445 174.413 4.93768 174.233 5.2706C174.052 5.60352 173.962 6.00727 173.962 6.48185ZM185.008 3.23059V4.29309H180.779V3.23059H185.008ZM182.012 1.27558H183.265V9.05311C183.265 9.40728 183.317 9.67291 183.419 9.84999C183.526 10.0235 183.66 10.1404 183.823 10.2006C183.99 10.2573 184.165 10.2856 184.349 10.2856C184.487 10.2856 184.6 10.2785 184.689 10.2644C184.778 10.2467 184.848 10.2325 184.902 10.2219L185.157 11.3481C185.072 11.38 184.953 11.4119 184.801 11.4438C184.648 11.4792 184.455 11.4969 184.222 11.4969C183.867 11.4969 183.52 11.4207 183.18 11.2684C182.844 11.1161 182.564 10.8842 182.341 10.5725C182.121 10.2608 182.012 9.8677 182.012 9.39312V1.27558ZM190.227 11.5606C189.441 11.5606 188.763 11.3871 188.193 11.04C187.626 10.6894 187.189 10.2006 186.88 9.57374C186.576 8.94332 186.424 8.21019 186.424 7.37436C186.424 6.53852 186.576 5.80185 186.88 5.16435C187.189 4.5233 187.617 4.02393 188.166 3.66622C188.719 3.30496 189.363 3.12434 190.1 3.12434C190.525 3.12434 190.945 3.19517 191.359 3.33684C191.773 3.47851 192.15 3.70872 192.49 4.02747C192.83 4.34268 193.101 4.7606 193.303 5.28122C193.505 5.80185 193.606 6.44289 193.606 7.20436V7.73561H187.316V6.65185H192.331C192.331 6.19144 192.239 5.7806 192.055 5.41935C191.874 5.0581 191.616 4.77299 191.279 4.56403C190.946 4.35507 190.553 4.25059 190.1 4.25059C189.6 4.25059 189.168 4.37455 188.804 4.62247C188.442 4.86685 188.164 5.1856 187.97 5.57872C187.775 5.97185 187.677 6.39331 187.677 6.84311V7.56561C187.677 8.18186 187.784 8.70426 187.996 9.1328C188.212 9.5578 188.511 9.88187 188.894 10.105C189.276 10.3246 189.721 10.4344 190.227 10.4344C190.557 10.4344 190.854 10.3883 191.12 10.2962C191.389 10.2006 191.621 10.059 191.816 9.87124C192.011 9.67999 192.161 9.4427 192.267 9.15937L193.479 9.49937C193.351 9.9102 193.137 10.2715 192.836 10.5831C192.535 10.8912 192.163 11.1321 191.72 11.3056C191.277 11.4756 190.78 11.5606 190.227 11.5606ZM195.513 11.3906V3.23059H196.725V4.46309H196.81C196.958 4.05934 197.227 3.73174 197.617 3.48028C198.007 3.22882 198.446 3.10309 198.935 3.10309C199.027 3.10309 199.142 3.10486 199.28 3.1084C199.418 3.11194 199.522 3.11726 199.593 3.12434V4.39934C199.551 4.38872 199.453 4.37278 199.301 4.35153C199.152 4.32674 198.995 4.31434 198.828 4.31434C198.432 4.31434 198.077 4.39757 197.766 4.56403C197.458 4.72695 197.213 4.95362 197.033 5.24404C196.856 5.53091 196.767 5.85852 196.767 6.22685V11.3906H195.513ZM203.481 11.5819C202.964 11.5819 202.494 11.4845 202.073 11.2897C201.651 11.0914 201.317 10.8062 201.069 10.4344C200.821 10.059 200.697 9.60562 200.697 9.07436C200.697 8.60686 200.789 8.2279 200.973 7.93748C201.157 7.64353 201.404 7.41332 201.712 7.24686C202.02 7.0804 202.36 6.95644 202.732 6.87498C203.107 6.78998 203.484 6.72269 203.863 6.6731C204.359 6.60935 204.761 6.56154 205.069 6.52967C205.381 6.49425 205.608 6.43581 205.749 6.35435C205.894 6.27289 205.967 6.13123 205.967 5.92935V5.88685C205.967 5.36268 205.824 4.95539 205.537 4.66497C205.253 4.37455 204.823 4.22934 204.246 4.22934C203.647 4.22934 203.178 4.36039 202.838 4.62247C202.498 4.88455 202.259 5.16435 202.121 5.46185L200.931 5.03685C201.143 4.54101 201.427 4.15497 201.781 3.87872C202.138 3.59892 202.528 3.40413 202.949 3.29434C203.374 3.18101 203.792 3.12434 204.203 3.12434C204.465 3.12434 204.766 3.15621 205.106 3.21996C205.45 3.28017 205.781 3.4059 206.1 3.59715C206.422 3.7884 206.69 4.07705 206.902 4.46309C207.115 4.84914 207.221 5.36622 207.221 6.01435V11.3906H205.967V10.2856H205.903C205.818 10.4627 205.677 10.6522 205.478 10.8541C205.28 11.0559 205.016 11.2277 204.687 11.3694C204.357 11.511 203.955 11.5819 203.481 11.5819ZM203.672 10.4556C204.168 10.4556 204.586 10.3582 204.926 10.1634C205.269 9.96864 205.528 9.71718 205.701 9.40905C205.878 9.10093 205.967 8.77686 205.967 8.43686V7.28936C205.914 7.35311 205.797 7.41155 205.616 7.46467C205.439 7.51425 205.234 7.55852 205 7.59748C204.77 7.6329 204.545 7.66478 204.325 7.69311C204.109 7.7179 203.934 7.73915 203.799 7.75686C203.474 7.79936 203.169 7.86842 202.886 7.96405C202.606 8.05613 202.379 8.19603 202.206 8.38374C202.036 8.5679 201.951 8.81936 201.951 9.13812C201.951 9.57374 202.112 9.90312 202.434 10.1262C202.76 10.3458 203.173 10.4556 203.672 10.4556ZM212.824 11.5606C212.059 11.5606 211.4 11.38 210.848 11.0187C210.295 10.6575 209.87 10.1599 209.573 9.52593C209.275 8.89197 209.127 8.16769 209.127 7.35311C209.127 6.52435 209.279 5.793 209.583 5.15904C209.892 4.52153 210.32 4.02393 210.869 3.66622C211.422 3.30496 212.066 3.12434 212.803 3.12434C213.377 3.12434 213.894 3.23059 214.354 3.44309C214.815 3.65559 215.192 3.95309 215.486 4.33559C215.78 4.7181 215.962 5.16435 216.033 5.67435H214.779C214.684 5.30247 214.471 4.9731 214.142 4.68622C213.816 4.3958 213.377 4.25059 212.824 4.25059C212.335 4.25059 211.907 4.37809 211.539 4.6331C211.174 4.88455 210.889 5.24049 210.683 5.70091C210.481 6.15779 210.38 6.69435 210.38 7.31061C210.38 7.94103 210.48 8.48999 210.678 8.95749C210.88 9.42499 211.163 9.78801 211.528 10.0466C211.896 10.3051 212.328 10.4344 212.824 10.4344C213.15 10.4344 213.446 10.3777 213.711 10.2644C213.977 10.151 214.202 9.98812 214.386 9.77562C214.57 9.56312 214.701 9.30812 214.779 9.01061H216.033C215.962 9.49228 215.787 9.92614 215.507 10.3122C215.231 10.6947 214.864 10.9993 214.407 11.2259C213.954 11.4491 213.426 11.5606 212.824 11.5606ZM221.414 3.23059V4.29309H217.186V3.23059H221.414ZM218.418 1.27558H219.672V9.05311C219.672 9.40728 219.723 9.67291 219.826 9.84999C219.932 10.0235 220.067 10.1404 220.23 10.2006C220.396 10.2573 220.572 10.2856 220.756 10.2856C220.894 10.2856 221.007 10.2785 221.096 10.2644C221.184 10.2467 221.255 10.2325 221.308 10.2219L221.563 11.3481C221.478 11.38 221.36 11.4119 221.207 11.4438C221.055 11.4792 220.862 11.4969 220.628 11.4969C220.274 11.4969 219.927 11.4207 219.587 11.2684C219.251 11.1161 218.971 10.8842 218.748 10.5725C218.528 10.2608 218.418 9.8677 218.418 9.39312V1.27558ZM223.3 11.3906V3.23059H224.554V11.3906H223.3ZM223.938 1.87058C223.694 1.87058 223.483 1.78735 223.306 1.62089C223.132 1.45444 223.045 1.25433 223.045 1.02058C223.045 0.786829 223.132 0.586724 223.306 0.420265C223.483 0.253806 223.694 0.170576 223.938 0.170576C224.182 0.170576 224.391 0.253806 224.565 0.420265C224.742 0.586724 224.83 0.786829 224.83 1.02058C224.83 1.25433 224.742 1.45444 224.565 1.62089C224.391 1.78735 224.182 1.87058 223.938 1.87058ZM233.523 3.23059L230.506 11.3906H229.231L226.213 3.23059H227.573L229.826 9.73312H229.911L232.163 3.23059H233.523ZM238.307 11.5606C237.521 11.5606 236.843 11.3871 236.272 11.04C235.706 10.6894 235.268 10.2006 234.96 9.57374C234.656 8.94332 234.503 8.21019 234.503 7.37436C234.503 6.53852 234.656 5.80185 234.96 5.16435C235.268 4.5233 235.697 4.02393 236.246 3.66622C236.798 3.30496 237.443 3.12434 238.179 3.12434C238.604 3.12434 239.024 3.19517 239.439 3.33684C239.853 3.47851 240.23 3.70872 240.57 4.02747C240.91 4.34268 241.181 4.7606 241.383 5.28122C241.585 5.80185 241.686 6.44289 241.686 7.20436V7.73561H235.396V6.65185H240.411C240.411 6.19144 240.319 5.7806 240.134 5.41935C239.954 5.0581 239.695 4.77299 239.359 4.56403C239.026 4.35507 238.633 4.25059 238.179 4.25059C237.68 4.25059 237.248 4.37455 236.883 4.62247C236.522 4.86685 236.244 5.1856 236.049 5.57872C235.854 5.97185 235.757 6.39331 235.757 6.84311V7.56561C235.757 8.18186 235.863 8.70426 236.076 9.1328C236.292 9.5578 236.591 9.88187 236.974 10.105C237.356 10.3246 237.801 10.4344 238.307 10.4344C238.636 10.4344 238.934 10.3883 239.199 10.2962C239.469 10.2006 239.701 10.059 239.895 9.87124C240.09 9.67999 240.241 9.4427 240.347 9.15937L241.558 9.49937C241.431 9.9102 241.216 10.2715 240.915 10.5831C240.614 10.8912 240.243 11.1321 239.8 11.3056C239.357 11.4756 238.859 11.5606 238.307 11.5606ZM251.115 11.5606C250.35 11.5606 249.692 11.38 249.139 11.0187C248.587 10.6575 248.162 10.1599 247.864 9.52593C247.567 8.89197 247.418 8.16769 247.418 7.35311C247.418 6.52435 247.57 5.793 247.875 5.15904C248.183 4.52153 248.612 4.02393 249.16 3.66622C249.713 3.30496 250.358 3.12434 251.094 3.12434C251.668 3.12434 252.185 3.23059 252.645 3.44309C253.106 3.65559 253.483 3.95309 253.777 4.33559C254.071 4.7181 254.253 5.16435 254.324 5.67435H253.07C252.975 5.30247 252.762 4.9731 252.433 4.68622C252.107 4.3958 251.668 4.25059 251.115 4.25059C250.627 4.25059 250.198 4.37809 249.83 4.6331C249.465 4.88455 249.18 5.24049 248.975 5.70091C248.773 6.15779 248.672 6.69435 248.672 7.31061C248.672 7.94103 248.771 8.48999 248.969 8.95749C249.171 9.42499 249.454 9.78801 249.819 10.0466C250.188 10.3051 250.62 10.4344 251.115 10.4344C251.441 10.4344 251.737 10.3777 252.003 10.2644C252.268 10.151 252.493 9.98812 252.677 9.77562C252.862 9.56312 252.993 9.30812 253.07 9.01061H254.324C254.253 9.49228 254.078 9.92614 253.798 10.3122C253.522 10.6947 253.155 10.9993 252.699 11.2259C252.245 11.4491 251.718 11.5606 251.115 11.5606ZM258.558 11.5819C258.041 11.5819 257.572 11.4845 257.15 11.2897C256.729 11.0914 256.394 10.8062 256.146 10.4344C255.899 10.059 255.775 9.60562 255.775 9.07436C255.775 8.60686 255.867 8.2279 256.051 7.93748C256.235 7.64353 256.481 7.41332 256.789 7.24686C257.097 7.0804 257.437 6.95644 257.809 6.87498C258.185 6.78998 258.562 6.72269 258.941 6.6731C259.437 6.60935 259.839 6.56154 260.147 6.52967C260.458 6.49425 260.685 6.43581 260.827 6.35435C260.972 6.27289 261.045 6.13123 261.045 5.92935V5.88685C261.045 5.36268 260.901 4.95539 260.614 4.66497C260.331 4.37455 259.901 4.22934 259.323 4.22934C258.725 4.22934 258.256 4.36039 257.916 4.62247C257.576 4.88455 257.336 5.16435 257.198 5.46185L256.008 5.03685C256.221 4.54101 256.504 4.15497 256.858 3.87872C257.216 3.59892 257.606 3.40413 258.027 3.29434C258.452 3.18101 258.87 3.12434 259.281 3.12434C259.543 3.12434 259.844 3.15621 260.184 3.21996C260.527 3.28017 260.859 3.4059 261.177 3.59715C261.5 3.7884 261.767 4.07705 261.98 4.46309C262.192 4.84914 262.298 5.36622 262.298 6.01435V11.3906H261.045V10.2856H260.981C260.896 10.4627 260.754 10.6522 260.556 10.8541C260.357 11.0559 260.094 11.2277 259.764 11.3694C259.435 11.511 259.033 11.5819 258.558 11.5819ZM258.75 10.4556C259.245 10.4556 259.663 10.3582 260.003 10.1634C260.347 9.96864 260.605 9.71718 260.779 9.40905C260.956 9.10093 261.045 8.77686 261.045 8.43686V7.28936C260.991 7.35311 260.875 7.41155 260.694 7.46467C260.517 7.51425 260.311 7.55852 260.078 7.59748C259.847 7.6329 259.623 7.66478 259.403 7.69311C259.187 7.7179 259.012 7.73915 258.877 7.75686C258.551 7.79936 258.247 7.86842 257.963 7.96405C257.684 8.05613 257.457 8.19603 257.283 8.38374C257.113 8.5679 257.028 8.81936 257.028 9.13812C257.028 9.57374 257.189 9.90312 257.512 10.1262C257.838 10.3458 258.25 10.4556 258.75 10.4556ZM268.135 3.23059V4.29309H263.907V3.23059H268.135ZM265.139 1.27558H266.393V9.05311C266.393 9.40728 266.444 9.67291 266.547 9.84999C266.653 10.0235 266.788 10.1404 266.951 10.2006C267.117 10.2573 267.293 10.2856 267.477 10.2856C267.615 10.2856 267.728 10.2785 267.817 10.2644C267.905 10.2467 267.976 10.2325 268.029 10.2219L268.284 11.3481C268.199 11.38 268.081 11.4119 267.928 11.4438C267.776 11.4792 267.583 11.4969 267.349 11.4969C266.995 11.4969 266.648 11.4207 266.308 11.2684C265.972 11.1161 265.692 10.8842 265.469 10.5725C265.249 10.2608 265.139 9.8677 265.139 9.39312V1.27558ZM272.423 11.5819C271.906 11.5819 271.436 11.4845 271.015 11.2897C270.593 11.0914 270.259 10.8062 270.011 10.4344C269.763 10.059 269.639 9.60562 269.639 9.07436C269.639 8.60686 269.731 8.2279 269.915 7.93748C270.099 7.64353 270.345 7.41332 270.654 7.24686C270.962 7.0804 271.302 6.95644 271.674 6.87498C272.049 6.78998 272.426 6.72269 272.805 6.6731C273.301 6.60935 273.703 6.56154 274.011 6.52967C274.323 6.49425 274.549 6.43581 274.691 6.35435C274.836 6.27289 274.909 6.13123 274.909 5.92935V5.88685C274.909 5.36268 274.765 4.95539 274.479 4.66497C274.195 4.37455 273.765 4.22934 273.188 4.22934C272.589 4.22934 272.12 4.36039 271.78 4.62247C271.44 4.88455 271.201 5.16435 271.063 5.46185L269.873 5.03685C270.085 4.54101 270.368 4.15497 270.723 3.87872C271.08 3.59892 271.47 3.40413 271.891 3.29434C272.316 3.18101 272.734 3.12434 273.145 3.12434C273.407 3.12434 273.708 3.15621 274.048 3.21996C274.392 3.28017 274.723 3.4059 275.042 3.59715C275.364 3.7884 275.631 4.07705 275.844 4.46309C276.056 4.84914 276.163 5.36622 276.163 6.01435V11.3906H274.909V10.2856H274.845C274.76 10.4627 274.619 10.6522 274.42 10.8541C274.222 11.0559 273.958 11.2277 273.629 11.3694C273.299 11.511 272.897 11.5819 272.423 11.5819ZM272.614 10.4556C273.11 10.4556 273.528 10.3582 273.868 10.1634C274.211 9.96864 274.47 9.71718 274.643 9.40905C274.82 9.10093 274.909 8.77686 274.909 8.43686V7.28936C274.856 7.35311 274.739 7.41155 274.558 7.46467C274.381 7.51425 274.176 7.55852 273.942 7.59748C273.712 7.6329 273.487 7.66478 273.267 7.69311C273.051 7.7179 272.876 7.73915 272.741 7.75686C272.416 7.79936 272.111 7.86842 271.828 7.96405C271.548 8.05613 271.321 8.19603 271.148 8.38374C270.978 8.5679 270.893 8.81936 270.893 9.13812C270.893 9.57374 271.054 9.90312 271.376 10.1262C271.702 10.3458 272.115 10.4556 272.614 10.4556ZM279.705 0.510577V11.3906H278.451V0.510577H279.705ZM285.316 11.5606C284.579 11.5606 283.933 11.3853 283.377 11.0347C282.825 10.6841 282.392 10.1935 282.081 9.56312C281.773 8.9327 281.619 8.19603 281.619 7.35311C281.619 6.5031 281.773 5.76112 282.081 5.12716C282.392 4.4932 282.825 4.00091 283.377 3.65028C283.933 3.29965 284.579 3.12434 285.316 3.12434C286.053 3.12434 286.697 3.29965 287.25 3.65028C287.806 4.00091 288.238 4.4932 288.546 5.12716C288.858 5.76112 289.014 6.5031 289.014 7.35311C289.014 8.19603 288.858 8.9327 288.546 9.56312C288.238 10.1935 287.806 10.6841 287.25 11.0347C286.697 11.3853 286.053 11.5606 285.316 11.5606ZM285.316 10.4344C285.876 10.4344 286.336 10.2909 286.697 10.0041C287.059 9.71718 287.326 9.33999 287.5 8.87249C287.673 8.40499 287.76 7.89853 287.76 7.35311C287.76 6.80769 287.673 6.29946 287.5 5.82841C287.326 5.35737 287.059 4.97664 286.697 4.68622C286.336 4.3958 285.876 4.25059 285.316 4.25059C284.757 4.25059 284.296 4.3958 283.935 4.68622C283.574 4.97664 283.306 5.35737 283.133 5.82841C282.959 6.29946 282.872 6.80769 282.872 7.35311C282.872 7.89853 282.959 8.40499 283.133 8.87249C283.306 9.33999 283.574 9.71718 283.935 10.0041C284.296 10.2909 284.757 10.4344 285.316 10.4344ZM294.221 14.6206C293.616 14.6206 293.095 14.5427 292.659 14.3869C292.224 14.2346 291.861 14.0327 291.57 13.7813C291.283 13.5333 291.055 13.2677 290.885 12.9844L291.884 12.2831C291.997 12.4319 292.141 12.6019 292.314 12.7931C292.488 12.9879 292.725 13.1562 293.026 13.2978C293.331 13.443 293.729 13.5156 294.221 13.5156C294.88 13.5156 295.424 13.3563 295.852 13.0375C296.281 12.7188 296.495 12.2194 296.495 11.5394V9.88187H296.389C296.297 10.0306 296.166 10.2148 295.996 10.4344C295.829 10.6504 295.588 10.8434 295.273 11.0134C294.962 11.1799 294.54 11.2631 294.009 11.2631C293.35 11.2631 292.759 11.1073 292.234 10.7956C291.714 10.484 291.301 10.0306 290.997 9.43562C290.696 8.84061 290.545 8.11811 290.545 7.26811C290.545 6.43227 290.692 5.70445 290.986 5.08466C291.28 4.46132 291.689 3.97966 292.213 3.63965C292.737 3.29611 293.343 3.12434 294.03 3.12434C294.561 3.12434 294.983 3.21288 295.294 3.38997C295.61 3.56351 295.85 3.76184 296.017 3.98497C296.187 4.20455 296.318 4.38518 296.41 4.52684H296.538V3.23059H297.749V11.6244C297.749 12.3256 297.589 12.8958 297.271 13.335C296.955 13.7777 296.53 14.1018 295.996 14.3072C295.464 14.5162 294.873 14.6206 294.221 14.6206ZM294.179 10.1369C294.682 10.1369 295.107 10.0218 295.454 9.79156C295.801 9.56135 296.065 9.2302 296.245 8.79811C296.426 8.36603 296.516 7.84894 296.516 7.24686C296.516 6.65894 296.428 6.14008 296.251 5.69029C296.074 5.24049 295.812 4.8881 295.464 4.6331C295.117 4.37809 294.689 4.25059 294.179 4.25059C293.648 4.25059 293.205 4.38518 292.851 4.65435C292.5 4.92351 292.236 5.28477 292.059 5.7381C291.886 6.19144 291.799 6.69435 291.799 7.24686C291.799 7.81353 291.887 8.31467 292.064 8.7503C292.245 9.18239 292.511 9.52239 292.861 9.77031C293.215 10.0147 293.655 10.1369 294.179 10.1369ZM305.186 8.05436V3.23059H306.44V11.3906H305.186V10.0094H305.101C304.91 10.4237 304.613 10.7761 304.209 11.0666C303.805 11.3534 303.295 11.4969 302.679 11.4969C302.169 11.4969 301.715 11.3853 301.319 11.1622C300.922 10.9355 300.61 10.5955 300.384 10.1422C300.157 9.6853 300.044 9.10978 300.044 8.41561V3.23059H301.298V8.33061C301.298 8.92561 301.464 9.4002 301.797 9.75437C302.133 10.1085 302.562 10.2856 303.083 10.2856C303.394 10.2856 303.711 10.2059 304.034 10.0466C304.359 9.88718 304.632 9.6428 304.852 9.31343C305.075 8.98405 305.186 8.56436 305.186 8.05436ZM312.158 11.5606C311.371 11.5606 310.693 11.3871 310.123 11.04C309.556 10.6894 309.119 10.2006 308.811 9.57374C308.506 8.94332 308.354 8.21019 308.354 7.37436C308.354 6.53852 308.506 5.80185 308.811 5.16435C309.119 4.5233 309.547 4.02393 310.096 3.66622C310.649 3.30496 311.294 3.12434 312.03 3.12434C312.455 3.12434 312.875 3.19517 313.289 3.33684C313.704 3.47851 314.081 3.70872 314.421 4.02747C314.761 4.34268 315.032 4.7606 315.234 5.28122C315.436 5.80185 315.536 6.44289 315.536 7.20436V7.73561H309.246V6.65185H314.261C314.261 6.19144 314.169 5.7806 313.985 5.41935C313.805 5.0581 313.546 4.77299 313.21 4.56403C312.877 4.35507 312.484 4.25059 312.03 4.25059C311.531 4.25059 311.099 4.37455 310.734 4.62247C310.373 4.86685 310.095 5.1856 309.9 5.57872C309.705 5.97185 309.608 6.39331 309.608 6.84311V7.56561C309.608 8.18186 309.714 8.70426 309.926 9.1328C310.142 9.5578 310.442 9.88187 310.824 10.105C311.207 10.3246 311.651 10.4344 312.158 10.4344C312.487 10.4344 312.785 10.3883 313.05 10.2962C313.319 10.2006 313.551 10.059 313.746 9.87124C313.941 9.67999 314.091 9.4427 314.198 9.15937L315.409 9.49937C315.281 9.9102 315.067 10.2715 314.766 10.5831C314.465 10.8912 314.093 11.1321 313.651 11.3056C313.208 11.4756 312.71 11.5606 312.158 11.5606ZM70.2447 31.3906V23.2306H71.4984V31.3906H70.2447ZM70.8822 21.8706C70.6378 21.8706 70.4271 21.7874 70.25 21.6209C70.0764 21.4544 69.9897 21.2543 69.9897 21.0206C69.9897 20.7868 70.0764 20.5867 70.25 20.4203C70.4271 20.2538 70.6378 20.1706 70.8822 20.1706C71.1265 20.1706 71.3355 20.2538 71.509 20.4203C71.6861 20.5867 71.7747 20.7868 71.7747 21.0206C71.7747 21.2543 71.6861 21.4544 71.509 21.6209C71.3355 21.7874 71.1265 21.8706 70.8822 21.8706ZM75.0485 26.4819V31.3906H73.7948V23.2306H75.006V24.5056H75.1123C75.3035 24.0912 75.5939 23.7583 75.9835 23.5068C76.3731 23.2518 76.876 23.1243 77.4923 23.1243C78.0448 23.1243 78.5282 23.2377 78.9426 23.4643C79.357 23.6875 79.6793 24.0275 79.9095 24.4843C80.1397 24.9377 80.2548 25.5114 80.2548 26.2056V31.3906H79.001V26.2906C79.001 25.6496 78.8346 25.1502 78.5016 24.7925C78.1687 24.4312 77.7119 24.2506 77.131 24.2506C76.7308 24.2506 76.3731 24.3374 76.0579 24.5109C75.7462 24.6844 75.5001 24.9377 75.3194 25.2706C75.1388 25.6035 75.0485 26.0073 75.0485 26.4819ZM86.1796 23.2306V24.2931H81.7808V23.2306H86.1796ZM83.0983 31.3906V22.1043C83.0983 21.6368 83.2081 21.2472 83.4277 20.9356C83.6473 20.6239 83.9324 20.3902 84.283 20.2343C84.6336 20.0785 85.0037 20.0006 85.3933 20.0006C85.7014 20.0006 85.9529 20.0254 86.1477 20.075C86.3425 20.1245 86.4877 20.1706 86.5833 20.2131L86.2221 21.2968C86.1583 21.2756 86.0698 21.249 85.9564 21.2171C85.8467 21.1853 85.7014 21.1693 85.5208 21.1693C85.1064 21.1693 84.8072 21.2738 84.623 21.4828C84.4424 21.6917 84.3521 21.9981 84.3521 22.4018V31.3906H83.0983ZM90.9157 31.5606C90.179 31.5606 89.5327 31.3853 88.9766 31.0347C88.4241 30.6841 87.992 30.1935 87.6804 29.5631C87.3722 28.9327 87.2182 28.196 87.2182 27.3531C87.2182 26.5031 87.3722 25.7611 87.6804 25.1272C87.992 24.4932 88.4241 24.0009 88.9766 23.6503C89.5327 23.2997 90.179 23.1243 90.9157 23.1243C91.6524 23.1243 92.2969 23.2997 92.8494 23.6503C93.4055 24.0009 93.8376 24.4932 94.1457 25.1272C94.4574 25.7611 94.6132 26.5031 94.6132 27.3531C94.6132 28.196 94.4574 28.9327 94.1457 29.5631C93.8376 30.1935 93.4055 30.6841 92.8494 31.0347C92.2969 31.3853 91.6524 31.5606 90.9157 31.5606ZM90.9157 30.4344C91.4753 30.4344 91.9357 30.2909 92.2969 30.0041C92.6582 29.7172 92.9256 29.34 93.0991 28.8725C93.2727 28.405 93.3594 27.8985 93.3594 27.3531C93.3594 26.8077 93.2727 26.2995 93.0991 25.8284C92.9256 25.3574 92.6582 24.9766 92.2969 24.6862C91.9357 24.3958 91.4753 24.2506 90.9157 24.2506C90.3561 24.2506 89.8957 24.3958 89.5344 24.6862C89.1732 24.9766 88.9058 25.3574 88.7322 25.8284C88.5587 26.2995 88.4719 26.8077 88.4719 27.3531C88.4719 27.8985 88.5587 28.405 88.7322 28.8725C88.9058 29.34 89.1732 29.7172 89.5344 30.0041C89.8957 30.2909 90.3561 30.4344 90.9157 30.4344ZM96.527 31.3906V23.2306H97.7383V24.4631H97.8233C97.972 24.0593 98.2412 23.7317 98.6308 23.4803C99.0204 23.2288 99.4595 23.1031 99.9483 23.1031C100.04 23.1031 100.155 23.1049 100.294 23.1084C100.432 23.1119 100.536 23.1173 100.607 23.1243V24.3993C100.565 24.3887 100.467 24.3728 100.315 24.3515C100.166 24.3267 100.009 24.3143 99.8421 24.3143C99.4454 24.3143 99.0912 24.3976 98.7795 24.564C98.4714 24.727 98.227 24.9536 98.0464 25.244C97.8693 25.5309 97.7808 25.8585 97.7808 26.2269V31.3906H96.527ZM102.093 31.3906V23.2306H103.304V24.5056H103.411C103.581 24.07 103.855 23.7317 104.234 23.4909C104.613 23.2465 105.068 23.1243 105.599 23.1243C106.138 23.1243 106.586 23.2465 106.944 23.4909C107.305 23.7317 107.586 24.07 107.788 24.5056H107.873C108.082 24.0841 108.396 23.7494 108.814 23.5015C109.231 23.2501 109.733 23.1243 110.317 23.1243C111.047 23.1243 111.643 23.3528 112.107 23.8097C112.571 24.263 112.803 24.9696 112.803 25.9294V31.3906H111.55V25.9294C111.55 25.3273 111.385 24.897 111.055 24.6384C110.726 24.3799 110.338 24.2506 109.892 24.2506C109.318 24.2506 108.874 24.4241 108.559 24.7712C108.243 25.1148 108.086 25.5504 108.086 26.0781V31.3906H106.811V25.8019C106.811 25.3379 106.66 24.9642 106.359 24.6809C106.058 24.394 105.67 24.2506 105.196 24.2506C104.87 24.2506 104.565 24.3374 104.282 24.5109C104.002 24.6844 103.776 24.9253 103.602 25.2334C103.432 25.538 103.347 25.8904 103.347 26.2906V31.3906H102.093ZM117.497 31.5819C116.98 31.5819 116.511 31.4845 116.089 31.2897C115.668 31.0914 115.333 30.8062 115.085 30.4344C114.837 30.059 114.713 29.6056 114.713 29.0744C114.713 28.6069 114.805 28.2279 114.989 27.9375C115.174 27.6435 115.42 27.4133 115.728 27.2469C116.036 27.0804 116.376 26.9564 116.748 26.875C117.123 26.79 117.5 26.7227 117.879 26.6731C118.375 26.6094 118.777 26.5615 119.085 26.5297C119.397 26.4942 119.624 26.4358 119.765 26.3544C119.911 26.2729 119.983 26.1312 119.983 25.9294V25.8869C119.983 25.3627 119.84 24.9554 119.553 24.665C119.269 24.3746 118.839 24.2293 118.262 24.2293C117.663 24.2293 117.194 24.3604 116.854 24.6225C116.514 24.8846 116.275 25.1643 116.137 25.4618L114.947 25.0368C115.159 24.541 115.443 24.155 115.797 23.8787C116.155 23.5989 116.544 23.4041 116.966 23.2943C117.391 23.181 117.809 23.1243 118.219 23.1243C118.481 23.1243 118.783 23.1562 119.123 23.22C119.466 23.2802 119.797 23.4059 120.116 23.5972C120.438 23.7884 120.706 24.0771 120.918 24.4631C121.131 24.8491 121.237 25.3662 121.237 26.0144V31.3906H119.983V30.2856H119.919C119.834 30.4627 119.693 30.6522 119.494 30.8541C119.296 31.0559 119.032 31.2277 118.703 31.3694C118.373 31.511 117.971 31.5819 117.497 31.5819ZM117.688 30.4556C118.184 30.4556 118.602 30.3582 118.942 30.1634C119.285 29.9686 119.544 29.7172 119.718 29.4091C119.895 29.1009 119.983 28.7769 119.983 28.4369V27.2894C119.93 27.3531 119.813 27.4115 119.633 27.4647C119.455 27.5143 119.25 27.5585 119.016 27.5975C118.786 27.6329 118.561 27.6648 118.342 27.6931C118.126 27.7179 117.95 27.7392 117.816 27.7569C117.49 27.7994 117.185 27.8684 116.902 27.964C116.622 28.0561 116.395 28.196 116.222 28.3837C116.052 28.5679 115.967 28.8194 115.967 29.1381C115.967 29.5737 116.128 29.9031 116.45 30.1262C116.776 30.3458 117.189 30.4556 117.688 30.4556ZM127.074 23.2306V24.2931H122.845V23.2306H127.074ZM124.078 21.2756H125.332V29.0531C125.332 29.4073 125.383 29.6729 125.486 29.85C125.592 30.0235 125.726 30.1404 125.889 30.2006C126.056 30.2573 126.231 30.2856 126.415 30.2856C126.553 30.2856 126.667 30.2785 126.755 30.2644C126.844 30.2467 126.915 30.2325 126.968 30.2219L127.223 31.3481C127.138 31.38 127.019 31.4119 126.867 31.4438C126.715 31.4792 126.522 31.4969 126.288 31.4969C125.934 31.4969 125.587 31.4207 125.247 31.2684C124.91 31.1161 124.63 30.8842 124.407 30.5725C124.188 30.2608 124.078 29.8677 124.078 29.3931V21.2756ZM128.96 31.3906V23.2306H130.214V31.3906H128.96ZM129.597 21.8706C129.353 21.8706 129.142 21.7874 128.965 21.6209C128.792 21.4544 128.705 21.2543 128.705 21.0206C128.705 20.7868 128.792 20.5867 128.965 20.4203C129.142 20.2538 129.353 20.1706 129.597 20.1706C129.842 20.1706 130.051 20.2538 130.224 20.4203C130.401 20.5867 130.49 20.7868 130.49 21.0206C130.49 21.2543 130.401 21.4544 130.224 21.6209C130.051 21.7874 129.842 21.8706 129.597 21.8706ZM139.183 23.2306L136.165 31.3906H134.89L131.873 23.2306H133.233L135.485 29.7331H135.57L137.823 23.2306H139.183ZM143.967 31.5606C143.18 31.5606 142.502 31.3871 141.932 31.04C141.365 30.6894 140.928 30.2006 140.62 29.5737C140.315 28.9433 140.163 28.2102 140.163 27.3744C140.163 26.5385 140.315 25.8019 140.62 25.1643C140.928 24.5233 141.356 24.0239 141.905 23.6662C142.458 23.305 143.102 23.1243 143.839 23.1243C144.264 23.1243 144.684 23.1952 145.098 23.3368C145.512 23.4785 145.89 23.7087 146.23 24.0275C146.57 24.3427 146.841 24.7606 147.042 25.2812C147.244 25.8019 147.345 26.4429 147.345 27.2044V27.7356H141.055V26.6519H146.07C146.07 26.1914 145.978 25.7806 145.794 25.4193C145.613 25.0581 145.355 24.773 145.018 24.564C144.685 24.3551 144.292 24.2506 143.839 24.2506C143.34 24.2506 142.908 24.3746 142.543 24.6225C142.182 24.8668 141.904 25.1856 141.709 25.5787C141.514 25.9719 141.417 26.3933 141.417 26.8431V27.5656C141.417 28.1819 141.523 28.7043 141.735 29.1328C141.951 29.5578 142.251 29.8819 142.633 30.105C143.016 30.3246 143.46 30.4344 143.967 30.4344C144.296 30.4344 144.593 30.3883 144.859 30.2962C145.128 30.2006 145.36 30.059 145.555 29.8712C145.75 29.68 145.9 29.4427 146.007 29.1594L147.218 29.4994C147.09 29.9102 146.876 30.2715 146.575 30.5831C146.274 30.8912 145.902 31.1321 145.459 31.3056C145.017 31.4756 144.519 31.5606 143.967 31.5606ZM155.861 31.5819C155.344 31.5819 154.875 31.4845 154.453 31.2897C154.032 31.0914 153.697 30.8062 153.449 30.4344C153.201 30.059 153.078 29.6056 153.078 29.0744C153.078 28.6069 153.17 28.2279 153.354 27.9375C153.538 27.6435 153.784 27.4133 154.092 27.2469C154.4 27.0804 154.74 26.9564 155.112 26.875C155.488 26.79 155.865 26.7227 156.244 26.6731C156.74 26.6094 157.142 26.5615 157.45 26.5297C157.761 26.4942 157.988 26.4358 158.13 26.3544C158.275 26.2729 158.348 26.1312 158.348 25.9294V25.8869C158.348 25.3627 158.204 24.9554 157.917 24.665C157.634 24.3746 157.204 24.2293 156.626 24.2293C156.028 24.2293 155.558 24.3604 155.218 24.6225C154.878 24.8846 154.639 25.1643 154.501 25.4618L153.311 25.0368C153.524 24.541 153.807 24.155 154.161 23.8787C154.519 23.5989 154.909 23.4041 155.33 23.2943C155.755 23.181 156.173 23.1243 156.584 23.1243C156.846 23.1243 157.147 23.1562 157.487 23.22C157.83 23.2802 158.162 23.4059 158.48 23.5972C158.803 23.7884 159.07 24.0771 159.283 24.4631C159.495 24.8491 159.601 25.3662 159.601 26.0144V31.3906H158.348V30.2856H158.284C158.199 30.4627 158.057 30.6522 157.859 30.8541C157.66 31.0559 157.397 31.2277 157.067 31.3694C156.738 31.511 156.336 31.5819 155.861 31.5819ZM156.053 30.4556C156.548 30.4556 156.966 30.3582 157.306 30.1634C157.65 29.9686 157.908 29.7172 158.082 29.4091C158.259 29.1009 158.348 28.7769 158.348 28.4369V27.2894C158.294 27.3531 158.178 27.4115 157.997 27.4647C157.82 27.5143 157.614 27.5585 157.381 27.5975C157.15 27.6329 156.926 27.6648 156.706 27.6931C156.49 27.7179 156.315 27.7392 156.18 27.7569C155.854 27.7994 155.55 27.8684 155.266 27.964C154.986 28.0561 154.76 28.196 154.586 28.3837C154.416 28.5679 154.331 28.8194 154.331 29.1381C154.331 29.5737 154.492 29.9031 154.815 30.1262C155.141 30.3458 155.553 30.4556 156.053 30.4556ZM163.143 26.4819V31.3906H161.89V23.2306H163.101V24.5056H163.207C163.398 24.0912 163.689 23.7583 164.078 23.5068C164.468 23.2518 164.971 23.1243 165.587 23.1243C166.14 23.1243 166.623 23.2377 167.037 23.4643C167.452 23.6875 167.774 24.0275 168.004 24.4843C168.235 24.9377 168.35 25.5114 168.35 26.2056V31.3906H167.096V26.2906C167.096 25.6496 166.929 25.1502 166.597 24.7925C166.264 24.4312 165.807 24.2506 165.226 24.2506C164.826 24.2506 164.468 24.3374 164.153 24.5109C163.841 24.6844 163.595 24.9377 163.414 25.2706C163.234 25.6035 163.143 26.0073 163.143 26.4819ZM173.722 31.5606C173.042 31.5606 172.442 31.3889 171.921 31.0453C171.4 30.6982 170.993 30.2095 170.699 29.5791C170.405 28.9451 170.258 28.196 170.258 27.3319C170.258 26.4748 170.405 25.731 170.699 25.1006C170.993 24.4702 171.402 23.9832 171.926 23.6397C172.451 23.2961 173.056 23.1243 173.743 23.1243C174.274 23.1243 174.694 23.2129 175.002 23.39C175.314 23.5635 175.551 23.7618 175.714 23.985C175.881 24.2046 176.01 24.3852 176.102 24.5268H176.208V20.5106H177.462V31.3906H176.251V30.1369H176.102C176.01 30.2856 175.879 30.4733 175.709 30.7C175.539 30.9231 175.296 31.1232 174.981 31.3003C174.666 31.4739 174.246 31.5606 173.722 31.5606ZM173.892 30.4344C174.395 30.4344 174.82 30.3033 175.167 30.0412C175.514 29.7756 175.778 29.4091 175.959 28.9416C176.139 28.4705 176.229 27.9269 176.229 27.3106C176.229 26.7014 176.141 26.1684 175.964 25.7115C175.787 25.2511 175.525 24.8934 175.178 24.6384C174.831 24.3799 174.402 24.2506 173.892 24.2506C173.361 24.2506 172.918 24.3869 172.564 24.6597C172.213 24.9288 171.949 25.2954 171.772 25.7594C171.599 26.2198 171.512 26.7369 171.512 27.3106C171.512 27.8914 171.601 28.4192 171.778 28.8937C171.958 29.3648 172.224 29.7402 172.574 30.02C172.929 30.2962 173.368 30.4344 173.892 30.4344ZM184.14 31.3906V23.2306H185.394V31.3906H184.14ZM184.777 21.8706C184.533 21.8706 184.322 21.7874 184.145 21.6209C183.972 21.4544 183.885 21.2543 183.885 21.0206C183.885 20.7868 183.972 20.5867 184.145 20.4203C184.322 20.2538 184.533 20.1706 184.777 20.1706C185.022 20.1706 185.231 20.2538 185.404 20.4203C185.581 20.5867 185.67 20.7868 185.67 21.0206C185.67 21.2543 185.581 21.4544 185.404 21.6209C185.231 21.7874 185.022 21.8706 184.777 21.8706ZM188.944 26.4819V31.3906H187.69V23.2306H188.901V24.5056H189.007C189.199 24.0912 189.489 23.7583 189.879 23.5068C190.268 23.2518 190.771 23.1243 191.387 23.1243C191.94 23.1243 192.423 23.2377 192.838 23.4643C193.252 23.6875 193.574 24.0275 193.805 24.4843C194.035 24.9377 194.15 25.5114 194.15 26.2056V31.3906H192.896V26.2906C192.896 25.6496 192.73 25.1502 192.397 24.7925C192.064 24.4312 191.607 24.2506 191.026 24.2506C190.626 24.2506 190.268 24.3374 189.953 24.5109C189.641 24.6844 189.395 24.9377 189.215 25.2706C189.034 25.6035 188.944 26.0073 188.944 26.4819ZM202.221 25.0581L201.095 25.3768C201.024 25.1891 200.919 25.0067 200.781 24.8297C200.647 24.649 200.463 24.5003 200.229 24.3834C199.995 24.2665 199.696 24.2081 199.331 24.2081C198.832 24.2081 198.415 24.3232 198.083 24.5534C197.753 24.7801 197.588 25.0687 197.588 25.4193C197.588 25.731 197.702 25.9772 197.928 26.1578C198.155 26.3384 198.509 26.4889 198.991 26.6094L200.202 26.9069C200.932 27.0839 201.475 27.3549 201.833 27.7197C202.191 28.0809 202.37 28.5467 202.37 29.1169C202.37 29.5844 202.235 30.0023 201.966 30.3706C201.7 30.739 201.329 31.0294 200.85 31.2419C200.372 31.4544 199.816 31.5606 199.182 31.5606C198.35 31.5606 197.661 31.38 197.116 31.0187C196.57 30.6575 196.225 30.1298 196.08 29.4356L197.27 29.1381C197.383 29.5773 197.597 29.9067 197.913 30.1262C198.231 30.3458 198.647 30.4556 199.161 30.4556C199.745 30.4556 200.209 30.3317 200.553 30.0837C200.9 29.8323 201.074 29.5312 201.074 29.1806C201.074 28.8973 200.974 28.66 200.776 28.4687C200.578 28.2739 200.273 28.1287 199.862 28.0331L198.502 27.7144C197.755 27.5373 197.206 27.2628 196.855 26.8909C196.508 26.5155 196.335 26.0462 196.335 25.4831C196.335 25.0227 196.464 24.6154 196.723 24.2612C196.985 23.9071 197.341 23.629 197.79 23.4272C198.244 23.2253 198.757 23.1243 199.331 23.1243C200.139 23.1243 200.772 23.3014 201.233 23.6556C201.697 24.0098 202.026 24.4773 202.221 25.0581ZM204.257 34.4506V23.2306H205.468V24.5268H205.617C205.709 24.3852 205.837 24.2046 206 23.985C206.166 23.7618 206.403 23.5635 206.711 23.39C207.023 23.2129 207.445 23.1243 207.976 23.1243C208.663 23.1243 209.269 23.2961 209.793 23.6397C210.317 23.9832 210.726 24.4702 211.02 25.1006C211.314 25.731 211.461 26.4748 211.461 27.3319C211.461 28.196 211.314 28.9451 211.02 29.5791C210.726 30.2095 210.319 30.6982 209.798 31.0453C209.277 31.3889 208.677 31.5606 207.997 31.5606C207.473 31.5606 207.053 31.4739 206.738 31.3003C206.423 31.1232 206.18 30.9231 206.01 30.7C205.84 30.4733 205.709 30.2856 205.617 30.1369H205.511V34.4506H204.257ZM205.49 27.3106C205.49 27.9269 205.58 28.4705 205.76 28.9416C205.941 29.4091 206.205 29.7756 206.552 30.0412C206.899 30.3033 207.324 30.4344 207.827 30.4344C208.351 30.4344 208.789 30.2962 209.139 30.02C209.493 29.7402 209.759 29.3648 209.936 28.8937C210.117 28.4192 210.207 27.8914 210.207 27.3106C210.207 26.7369 210.119 26.2198 209.941 25.7594C209.768 25.2954 209.504 24.9288 209.15 24.6597C208.799 24.3869 208.358 24.2506 207.827 24.2506C207.317 24.2506 206.889 24.3799 206.541 24.6384C206.194 24.8934 205.932 25.2511 205.755 25.7115C205.578 26.1684 205.49 26.7014 205.49 27.3106ZM213.373 31.3906V23.2306H214.627V31.3906H213.373ZM214.011 21.8706C213.766 21.8706 213.556 21.7874 213.379 21.6209C213.205 21.4544 213.118 21.2543 213.118 21.0206C213.118 20.7868 213.205 20.5867 213.379 20.4203C213.556 20.2538 213.766 20.1706 214.011 20.1706C214.255 20.1706 214.464 20.2538 214.638 20.4203C214.815 20.5867 214.903 20.7868 214.903 21.0206C214.903 21.2543 214.815 21.4544 214.638 21.6209C214.464 21.7874 214.255 21.8706 214.011 21.8706ZM216.923 31.3906V23.2306H218.135V24.4631H218.22C218.368 24.0593 218.638 23.7317 219.027 23.4803C219.417 23.2288 219.856 23.1031 220.345 23.1031C220.437 23.1031 220.552 23.1049 220.69 23.1084C220.828 23.1119 220.933 23.1173 221.003 23.1243V24.3993C220.961 24.3887 220.864 24.3728 220.711 24.3515C220.562 24.3267 220.405 24.3143 220.238 24.3143C219.842 24.3143 219.488 24.3976 219.176 24.564C218.868 24.727 218.623 24.9536 218.443 25.244C218.266 25.5309 218.177 25.8585 218.177 26.2269V31.3906H216.923ZM222.49 31.3906V23.2306H223.743V31.3906H222.49ZM223.127 21.8706C222.883 21.8706 222.672 21.7874 222.495 21.6209C222.321 21.4544 222.235 21.2543 222.235 21.0206C222.235 20.7868 222.321 20.5867 222.495 20.4203C222.672 20.2538 222.883 20.1706 223.127 20.1706C223.371 20.1706 223.58 20.2538 223.754 20.4203C223.931 20.5867 224.02 20.7868 224.02 21.0206C224.02 21.2543 223.931 21.4544 223.754 21.6209C223.58 21.7874 223.371 21.8706 223.127 21.8706ZM227.293 26.4819V31.3906H226.04V23.2306H227.251V24.5056H227.357C227.548 24.0912 227.839 23.7583 228.228 23.5068C228.618 23.2518 229.121 23.1243 229.737 23.1243C230.29 23.1243 230.773 23.2377 231.188 23.4643C231.602 23.6875 231.924 24.0275 232.154 24.4843C232.385 24.9377 232.5 25.5114 232.5 26.2056V31.3906H231.246V26.2906C231.246 25.6496 231.08 25.1502 230.747 24.7925C230.414 24.4312 229.957 24.2506 229.376 24.2506C228.976 24.2506 228.618 24.3374 228.303 24.5109C227.991 24.6844 227.745 24.9377 227.564 25.2706C227.384 25.6035 227.293 26.0073 227.293 26.4819ZM238.085 34.6206C237.479 34.6206 236.958 34.5427 236.523 34.3869C236.087 34.2346 235.724 34.0327 235.434 33.7813C235.147 33.5333 234.918 33.2677 234.748 32.9844L235.747 32.2831C235.86 32.4319 236.004 32.6019 236.177 32.7931C236.351 32.9879 236.588 33.1562 236.889 33.2978C237.194 33.443 237.592 33.5156 238.085 33.5156C238.743 33.5156 239.287 33.3563 239.715 33.0375C240.144 32.7188 240.358 32.2194 240.358 31.5394V29.8819H240.252C240.16 30.0306 240.029 30.2148 239.859 30.4344C239.692 30.6504 239.452 30.8434 239.136 31.0134C238.825 31.1799 238.403 31.2631 237.872 31.2631C237.213 31.2631 236.622 31.1073 236.098 30.7956C235.577 30.484 235.164 30.0306 234.86 29.4356C234.559 28.8406 234.408 28.1181 234.408 27.2681C234.408 26.4323 234.555 25.7045 234.849 25.0847C235.143 24.4613 235.552 23.9797 236.076 23.6397C236.601 23.2961 237.206 23.1243 237.893 23.1243C238.425 23.1243 238.846 23.2129 239.158 23.39C239.473 23.5635 239.714 23.7618 239.88 23.985C240.05 24.2046 240.181 24.3852 240.273 24.5268H240.401V23.2306H241.612V31.6244C241.612 32.3256 241.453 32.8958 241.134 33.335C240.819 33.7777 240.394 34.1018 239.859 34.3072C239.328 34.5162 238.736 34.6206 238.085 34.6206ZM238.042 30.1369C238.545 30.1369 238.97 30.0218 239.317 29.7916C239.664 29.5613 239.928 29.2302 240.109 28.7981C240.289 28.366 240.38 27.8489 240.38 27.2469C240.38 26.6589 240.291 26.1401 240.114 25.6903C239.937 25.2405 239.675 24.8881 239.328 24.6331C238.981 24.3781 238.552 24.2506 238.042 24.2506C237.511 24.2506 237.068 24.3852 236.714 24.6543C236.363 24.9235 236.099 25.2848 235.922 25.7381C235.749 26.1914 235.662 26.6944 235.662 27.2469C235.662 27.8135 235.751 28.3147 235.928 28.7503C236.108 29.1824 236.374 29.5224 236.725 29.7703C237.079 30.0147 237.518 30.1369 238.042 30.1369ZM244.821 31.4756C244.559 31.4756 244.334 31.3818 244.146 31.1941C243.958 31.0064 243.865 30.7815 243.865 30.5194C243.865 30.2573 243.958 30.0324 244.146 29.8447C244.334 29.657 244.559 29.5631 244.821 29.5631C245.083 29.5631 245.308 29.657 245.496 29.8447C245.683 30.0324 245.777 30.2573 245.777 30.5194C245.777 30.6929 245.733 30.8523 245.644 30.9975C245.559 31.1427 245.444 31.2596 245.299 31.3481C245.157 31.4331 244.998 31.4756 244.821 31.4756ZM18.6534 51.3906V40.5106H19.9709V50.2219H25.0285V51.3906H18.6534ZM30.3197 51.5606C29.5335 51.5606 28.8552 51.3871 28.285 51.04C27.7184 50.6894 27.281 50.2006 26.9728 49.5737C26.6683 48.9433 26.516 48.2102 26.516 47.3744C26.516 46.5385 26.6683 45.8019 26.9728 45.1643C27.281 44.5233 27.7095 44.0239 28.2585 43.6662C28.811 43.305 29.4556 43.1243 30.1922 43.1243C30.6172 43.1243 31.0369 43.1952 31.4513 43.3368C31.8657 43.4785 32.2429 43.7087 32.5829 44.0275C32.9229 44.3427 33.1938 44.7606 33.3957 45.2812C33.5976 45.8019 33.6985 46.4429 33.6985 47.2044V47.7356H27.4085V46.6519H32.4235C32.4235 46.1914 32.3314 45.7806 32.1472 45.4193C31.9666 45.0581 31.7081 44.773 31.3716 44.564C31.0387 44.3551 30.6456 44.2506 30.1922 44.2506C29.6928 44.2506 29.2608 44.3746 28.896 44.6225C28.5347 44.8668 28.2567 45.1856 28.0619 45.5787C27.8671 45.9719 27.7697 46.3933 27.7697 46.8431V47.5656C27.7697 48.1819 27.876 48.7043 28.0885 49.1328C28.3045 49.5578 28.6038 49.8819 28.9863 50.105C29.3688 50.3246 29.8133 50.4344 30.3197 50.4344C30.6491 50.4344 30.9466 50.3883 31.2122 50.2962C31.4814 50.2006 31.7134 50.059 31.9082 49.8712C32.103 49.68 32.2535 49.4427 32.3597 49.1594L33.571 49.4994C33.4435 49.9102 33.2292 50.2715 32.9282 50.5831C32.6271 50.8912 32.2553 51.1321 31.8125 51.3056C31.3698 51.4756 30.8722 51.5606 30.3197 51.5606ZM39.1545 43.2306V44.2931H34.9257V43.2306H39.1545ZM36.1582 41.2756H37.4119V49.0531C37.4119 49.4073 37.4633 49.6729 37.566 49.85C37.6723 50.0235 37.8068 50.1404 37.9698 50.2006C38.1362 50.2573 38.3115 50.2856 38.4957 50.2856C38.6338 50.2856 38.7472 50.2785 38.8357 50.2644C38.9242 50.2467 38.9951 50.2325 39.0482 50.2219L39.3032 51.3481C39.2182 51.38 39.0996 51.4119 38.9473 51.4438C38.795 51.4792 38.602 51.4969 38.3682 51.4969C38.014 51.4969 37.6669 51.4207 37.3269 51.2684C36.9905 51.1161 36.7107 50.8842 36.4876 50.5725C36.268 50.2608 36.1582 49.8677 36.1582 49.3931V41.2756ZM42.5691 40.5106V41.4668C42.5691 41.7572 42.516 42.0671 42.4097 42.3965C42.307 42.7224 42.1547 43.0393 41.9528 43.3475C41.7545 43.652 41.5137 43.9177 41.2303 44.1443L40.5503 43.5918C40.7734 43.2731 40.9665 42.9419 41.1294 42.5984C41.2958 42.2513 41.3791 41.8812 41.3791 41.4881V40.5106H42.5691ZM48.8511 45.0581L47.7249 45.3768C47.654 45.1891 47.5496 45.0067 47.4114 44.8297C47.2769 44.649 47.0927 44.5003 46.8589 44.3834C46.6252 44.2665 46.3259 44.2081 45.9611 44.2081C45.4617 44.2081 45.0456 44.3232 44.7127 44.5534C44.3833 44.7801 44.2186 45.0687 44.2186 45.4193C44.2186 45.731 44.332 45.9772 44.5586 46.1578C44.7853 46.3384 45.1395 46.4889 45.6211 46.6094L46.8324 46.9069C47.562 47.0839 48.1056 47.3549 48.4633 47.7197C48.821 48.0809 48.9999 48.5467 48.9999 49.1169C48.9999 49.5844 48.8653 50.0023 48.5961 50.3706C48.3305 50.739 47.9586 51.0294 47.4805 51.2419C47.0024 51.4544 46.4463 51.5606 45.8124 51.5606C44.9801 51.5606 44.2912 51.38 43.7458 51.0187C43.2004 50.6575 42.8551 50.1298 42.7099 49.4356L43.8999 49.1381C44.0132 49.5773 44.2275 49.9067 44.5427 50.1262C44.8614 50.3458 45.2776 50.4556 45.7911 50.4556C46.3755 50.4556 46.8395 50.3317 47.183 50.0837C47.5301 49.8323 47.7036 49.5312 47.7036 49.1806C47.7036 48.8973 47.6045 48.66 47.4061 48.4687C47.2078 48.2739 46.9032 48.1287 46.4924 48.0331L45.1324 47.7144C44.3851 47.5373 43.8361 47.2628 43.4855 46.8909C43.1384 46.5155 42.9649 46.0462 42.9649 45.4831C42.9649 45.0227 43.0941 44.6154 43.3527 44.2612C43.6148 43.9071 43.9707 43.629 44.4205 43.4272C44.8738 43.2253 45.3874 43.1243 45.9611 43.1243C46.7686 43.1243 47.4026 43.3014 47.863 43.6556C48.327 44.0098 48.6563 44.4773 48.8511 45.0581ZM55.2647 51.3906V40.5106H56.5184V44.5268H56.6247C56.7168 44.3852 56.8443 44.2046 57.0072 43.985C57.1736 43.7618 57.4109 43.5635 57.7191 43.39C58.0307 43.2129 58.4522 43.1243 58.9834 43.1243C59.6705 43.1243 60.2762 43.2961 60.8003 43.6397C61.3245 43.9832 61.7336 44.4702 62.0275 45.1006C62.3215 45.731 62.4685 46.4748 62.4685 47.3319C62.4685 48.196 62.3215 48.9451 62.0275 49.5791C61.7336 50.2095 61.3263 50.6982 60.8056 51.0453C60.285 51.3889 59.6847 51.5606 59.0047 51.5606C58.4805 51.5606 58.0608 51.4739 57.7456 51.3003C57.4304 51.1232 57.1878 50.9231 57.0178 50.7C56.8478 50.4733 56.7168 50.2856 56.6247 50.1369H56.4759V51.3906H55.2647ZM56.4972 47.3106C56.4972 47.9269 56.5875 48.4705 56.7681 48.9416C56.9487 49.4091 57.2126 49.7756 57.5597 50.0412C57.9068 50.3033 58.3318 50.4344 58.8347 50.4344C59.3589 50.4344 59.7963 50.2962 60.1469 50.02C60.5011 49.7402 60.7667 49.3648 60.9438 48.8937C61.1244 48.4192 61.2147 47.8914 61.2147 47.3106C61.2147 46.7369 61.1262 46.2198 60.9491 45.7594C60.7755 45.2954 60.5117 44.9288 60.1575 44.6597C59.8069 44.3869 59.3659 44.2506 58.8347 44.2506C58.3247 44.2506 57.8961 44.3799 57.5491 44.6384C57.202 44.8934 56.9399 45.2511 56.7628 45.7115C56.5857 46.1684 56.4972 46.7014 56.4972 47.3106ZM69.5288 48.0544V43.2306H70.7826V51.3906H69.5288V50.0094H69.4438C69.2526 50.4237 68.9551 50.7761 68.5513 51.0666C68.1475 51.3534 67.6375 51.4969 67.0213 51.4969C66.5113 51.4969 66.058 51.3853 65.6613 51.1622C65.2646 50.9355 64.953 50.5955 64.7263 50.1422C64.4996 49.6853 64.3863 49.1098 64.3863 48.4156V43.2306H65.64V48.3306C65.64 48.9256 65.8065 49.4002 66.1394 49.7544C66.4759 50.1085 66.9044 50.2856 67.425 50.2856C67.7367 50.2856 68.0537 50.2059 68.376 50.0466C68.7018 49.8872 68.9745 49.6428 69.1941 49.3134C69.4172 48.9841 69.5288 48.5644 69.5288 48.0544ZM73.0789 51.3906V43.2306H74.3327V51.3906H73.0789ZM73.7164 41.8706C73.472 41.8706 73.2613 41.7874 73.0842 41.6209C72.9107 41.4544 72.8239 41.2543 72.8239 41.0206C72.8239 40.7868 72.9107 40.5867 73.0842 40.4203C73.2613 40.2538 73.472 40.1706 73.7164 40.1706C73.9608 40.1706 74.1697 40.2538 74.3433 40.4203C74.5204 40.5867 74.6089 40.7868 74.6089 41.0206C74.6089 41.2543 74.5204 41.4544 74.3433 41.6209C74.1697 41.7874 73.9608 41.8706 73.7164 41.8706ZM77.8828 40.5106V51.3906H76.629V40.5106H77.8828ZM83.2603 51.5606C82.5803 51.5606 81.98 51.3889 81.4594 51.0453C80.9388 50.6982 80.5315 50.2095 80.2375 49.5791C79.9436 48.9451 79.7966 48.196 79.7966 47.3319C79.7966 46.4748 79.9436 45.731 80.2375 45.1006C80.5315 44.4702 80.9405 43.9832 81.4647 43.6397C81.9889 43.2961 82.5945 43.1243 83.2816 43.1243C83.8128 43.1243 84.2325 43.2129 84.5407 43.39C84.8523 43.5635 85.0896 43.7618 85.2525 43.985C85.419 44.2046 85.5483 44.3852 85.6404 44.5268H85.7466V40.5106H87.0004V51.3906H85.7891V50.1369H85.6404C85.5483 50.2856 85.4172 50.4733 85.2472 50.7C85.0772 50.9231 84.8346 51.1232 84.5194 51.3003C84.2042 51.4739 83.7845 51.5606 83.2603 51.5606ZM83.4303 50.4344C83.9333 50.4344 84.3583 50.3033 84.7054 50.0412C85.0524 49.7756 85.3163 49.4091 85.4969 48.9416C85.6775 48.4705 85.7679 47.9269 85.7679 47.3106C85.7679 46.7014 85.6793 46.1684 85.5022 45.7115C85.3251 45.2511 85.0631 44.8934 84.716 44.6384C84.3689 44.3799 83.9403 44.2506 83.4303 44.2506C82.8991 44.2506 82.4564 44.3869 82.1022 44.6597C81.7516 44.9288 81.4877 45.2954 81.3107 45.7594C81.1371 46.2198 81.0503 46.7369 81.0503 47.3106C81.0503 47.8914 81.1389 48.4192 81.316 48.8937C81.4966 49.3648 81.7622 49.7402 82.1128 50.02C82.467 50.2962 82.9062 50.4344 83.4303 50.4344ZM99.4582 45.0581L98.332 45.3768C98.2611 45.1891 98.1567 45.0067 98.0185 44.8297C97.884 44.649 97.6998 44.5003 97.466 44.3834C97.2323 44.2665 96.933 44.2081 96.5682 44.2081C96.0688 44.2081 95.6527 44.3232 95.3198 44.5534C94.9904 44.7801 94.8257 45.0687 94.8257 45.4193C94.8257 45.731 94.939 45.9772 95.1657 46.1578C95.3924 46.3384 95.7465 46.4889 96.2282 46.6094L97.4395 46.9069C98.1691 47.0839 98.7127 47.3549 99.0704 47.7197C99.4281 48.0809 99.607 48.5467 99.607 49.1169C99.607 49.5844 99.4724 50.0023 99.2032 50.3706C98.9376 50.739 98.5657 51.0294 98.0876 51.2419C97.6095 51.4544 97.0534 51.5606 96.4195 51.5606C95.5872 51.5606 94.8983 51.38 94.3529 51.0187C93.8075 50.6575 93.4622 50.1298 93.317 49.4356L94.507 49.1381C94.6203 49.5773 94.8346 49.9067 95.1498 50.1262C95.4685 50.3458 95.8847 50.4556 96.3982 50.4556C96.9826 50.4556 97.4466 50.3317 97.7901 50.0837C98.1372 49.8323 98.3107 49.5312 98.3107 49.1806C98.3107 48.8973 98.2116 48.66 98.0132 48.4687C97.8149 48.2739 97.5103 48.1287 97.0995 48.0331L95.7395 47.7144C94.9922 47.5373 94.4432 47.2628 94.0926 46.8909C93.7455 46.5155 93.572 46.0462 93.572 45.4831C93.572 45.0227 93.7012 44.6154 93.9598 44.2612C94.2219 43.9071 94.5778 43.629 95.0276 43.4272C95.4809 43.2253 95.9945 43.1243 96.5682 43.1243C97.3757 43.1243 98.0097 43.3014 98.4701 43.6556C98.9341 44.0098 99.2634 44.4773 99.4582 45.0581ZM104.809 51.5606C104.073 51.5606 103.426 51.3853 102.87 51.0347C102.318 50.6841 101.886 50.1935 101.574 49.5631C101.266 48.9327 101.112 48.196 101.112 47.3531C101.112 46.5031 101.266 45.7611 101.574 45.1272C101.886 44.4932 102.318 44.0009 102.87 43.6503C103.426 43.2997 104.073 43.1243 104.809 43.1243C105.546 43.1243 106.191 43.2997 106.743 43.6503C107.299 44.0009 107.731 44.4932 108.039 45.1272C108.351 45.7611 108.507 46.5031 108.507 47.3531C108.507 48.196 108.351 48.9327 108.039 49.5631C107.731 50.1935 107.299 50.6841 106.743 51.0347C106.191 51.3853 105.546 51.5606 104.809 51.5606ZM104.809 50.4344C105.369 50.4344 105.829 50.2909 106.191 50.0041C106.552 49.7172 106.819 49.34 106.993 48.8725C107.166 48.405 107.253 47.8985 107.253 47.3531C107.253 46.8077 107.166 46.2995 106.993 45.8284C106.819 45.3574 106.552 44.9766 106.191 44.6862C105.829 44.3958 105.369 44.2506 104.809 44.2506C104.25 44.2506 103.789 44.3958 103.428 44.6862C103.067 44.9766 102.799 45.3574 102.626 45.8284C102.452 46.2995 102.365 46.8077 102.365 47.3531C102.365 47.8985 102.452 48.405 102.626 48.8725C102.799 49.34 103.067 49.7172 103.428 50.0041C103.789 50.2909 104.25 50.4344 104.809 50.4344ZM110.421 51.3906V43.2306H111.632V44.5056H111.738C111.908 44.07 112.183 43.7317 112.562 43.4909C112.941 43.2465 113.396 43.1243 113.927 43.1243C114.465 43.1243 114.913 43.2465 115.271 43.4909C115.632 43.7317 115.914 44.07 116.116 44.5056H116.201C116.41 44.0841 116.723 43.7494 117.141 43.5015C117.559 43.2501 118.06 43.1243 118.644 43.1243C119.374 43.1243 119.971 43.3528 120.435 43.8097C120.899 44.263 121.131 44.9696 121.131 45.9294V51.3906H119.877V45.9294C119.877 45.3273 119.712 44.897 119.383 44.6384C119.053 44.3799 118.666 44.2506 118.219 44.2506C117.646 44.2506 117.201 44.4241 116.886 44.7712C116.571 45.1148 116.413 45.5504 116.413 46.0781V51.3906H115.138V45.8019C115.138 45.3379 114.988 44.9642 114.687 44.6809C114.386 44.394 113.998 44.2506 113.523 44.2506C113.197 44.2506 112.893 44.3374 112.609 44.5109C112.33 44.6844 112.103 44.9253 111.929 45.2334C111.759 45.538 111.674 45.8904 111.674 46.2906V51.3906H110.421ZM126.844 51.5606C126.058 51.5606 125.38 51.3871 124.81 51.04C124.243 50.6894 123.806 50.2006 123.497 49.5737C123.193 48.9433 123.041 48.2102 123.041 47.3744C123.041 46.5385 123.193 45.8019 123.497 45.1643C123.806 44.5233 124.234 44.0239 124.783 43.6662C125.336 43.305 125.98 43.1243 126.717 43.1243C127.142 43.1243 127.561 43.1952 127.976 43.3368C128.39 43.4785 128.767 43.7087 129.107 44.0275C129.447 44.3427 129.718 44.7606 129.92 45.2812C130.122 45.8019 130.223 46.4429 130.223 47.2044V47.7356H123.933V46.6519H128.948C128.948 46.1914 128.856 45.7806 128.672 45.4193C128.491 45.0581 128.233 44.773 127.896 44.564C127.563 44.3551 127.17 44.2506 126.717 44.2506C126.217 44.2506 125.785 44.3746 125.421 44.6225C125.059 44.8668 124.781 45.1856 124.586 45.5787C124.392 45.9719 124.294 46.3933 124.294 46.8431V47.5656C124.294 48.1819 124.401 48.7043 124.613 49.1328C124.829 49.5578 125.128 49.8819 125.511 50.105C125.893 50.3246 126.338 50.4344 126.844 50.4344C127.174 50.4344 127.471 50.3883 127.737 50.2962C128.006 50.2006 128.238 50.059 128.433 49.8712C128.628 49.68 128.778 49.4427 128.884 49.1594L130.096 49.4994C129.968 49.9102 129.754 50.2715 129.453 50.5831C129.152 50.8912 128.78 51.1321 128.337 51.3056C127.894 51.4756 127.397 51.5606 126.844 51.5606ZM135.679 43.2306V44.2931H131.45V43.2306H135.679ZM132.683 41.2756H133.937V49.0531C133.937 49.4073 133.988 49.6729 134.091 49.85C134.197 50.0235 134.331 50.1404 134.494 50.2006C134.661 50.2573 134.836 50.2856 135.02 50.2856C135.158 50.2856 135.272 50.2785 135.36 50.2644C135.449 50.2467 135.52 50.2325 135.573 50.2219L135.828 51.3481C135.743 51.38 135.624 51.4119 135.472 51.4438C135.32 51.4792 135.127 51.4969 134.893 51.4969C134.539 51.4969 134.192 51.4207 133.852 51.2684C133.515 51.1161 133.235 50.8842 133.012 50.5725C132.793 50.2608 132.683 49.8677 132.683 49.3931V41.2756ZM138.994 46.4819V51.3906H137.74V40.5106H138.994V44.5056H139.1C139.292 44.0841 139.578 43.7494 139.961 43.5015C140.347 43.2501 140.861 43.1243 141.502 43.1243C142.058 43.1243 142.545 43.2359 142.962 43.459C143.38 43.6786 143.704 44.0168 143.935 44.4737C144.168 44.9271 144.285 45.5043 144.285 46.2056V51.3906H143.032V46.2906C143.032 45.6425 142.863 45.1413 142.527 44.7872C142.194 44.4294 141.732 44.2506 141.14 44.2506C140.729 44.2506 140.361 44.3374 140.035 44.5109C139.713 44.6844 139.458 44.9377 139.27 45.2706C139.086 45.6035 138.994 46.0073 138.994 46.4819ZM146.579 51.3906V43.2306H147.833V51.3906H146.579ZM147.216 41.8706C146.972 41.8706 146.761 41.7874 146.584 41.6209C146.411 41.4544 146.324 41.2543 146.324 41.0206C146.324 40.7868 146.411 40.5867 146.584 40.4203C146.761 40.2538 146.972 40.1706 147.216 40.1706C147.461 40.1706 147.67 40.2538 147.843 40.4203C148.02 40.5867 148.109 40.7868 148.109 41.0206C148.109 41.2543 148.02 41.4544 147.843 41.6209C147.67 41.7874 147.461 41.8706 147.216 41.8706ZM151.383 46.4819V51.3906H150.129V43.2306H151.34V44.5056H151.447C151.638 44.0912 151.928 43.7583 152.318 43.5068C152.707 43.2518 153.21 43.1243 153.827 43.1243C154.379 43.1243 154.863 43.2377 155.277 43.4643C155.691 43.6875 156.014 44.0275 156.244 44.4843C156.474 44.9377 156.589 45.5114 156.589 46.2056V51.3906H155.335V46.2906C155.335 45.6496 155.169 45.1502 154.836 44.7925C154.503 44.4312 154.046 44.2506 153.465 44.2506C153.065 44.2506 152.707 44.3374 152.392 44.5109C152.081 44.6844 151.834 44.9377 151.654 45.2706C151.473 45.6035 151.383 46.0073 151.383 46.4819ZM162.174 54.6206C161.568 54.6206 161.048 54.5427 160.612 54.3869C160.176 54.2346 159.813 54.0327 159.523 53.7813C159.236 53.5333 159.008 53.2677 158.838 52.9844L159.836 52.2831C159.95 52.4319 160.093 52.6019 160.267 52.7931C160.44 52.9879 160.678 53.1562 160.979 53.2978C161.283 53.443 161.682 53.5156 162.174 53.5156C162.833 53.5156 163.376 53.3563 163.805 53.0375C164.233 52.7188 164.448 52.2194 164.448 51.5394V49.8819H164.341C164.249 50.0306 164.118 50.2148 163.948 50.4344C163.782 50.6504 163.541 50.8434 163.226 51.0134C162.914 51.1799 162.493 51.2631 161.961 51.2631C161.303 51.2631 160.711 51.1073 160.187 50.7956C159.666 50.484 159.254 50.0306 158.949 49.4356C158.648 48.8406 158.498 48.1181 158.498 47.2681C158.498 46.4323 158.645 45.7045 158.939 45.0847C159.233 44.4613 159.642 43.9797 160.166 43.6397C160.69 43.2961 161.296 43.1243 161.983 43.1243C162.514 43.1243 162.935 43.2129 163.247 43.39C163.562 43.5635 163.803 43.7618 163.97 43.985C164.14 44.2046 164.271 44.3852 164.363 44.5268H164.49V43.2306H165.701V51.6244C165.701 52.3256 165.542 52.8958 165.223 53.335C164.908 53.7777 164.483 54.1018 163.948 54.3072C163.417 54.5162 162.826 54.6206 162.174 54.6206ZM162.131 50.1369C162.634 50.1369 163.059 50.0218 163.406 49.7916C163.753 49.5613 164.017 49.2302 164.198 48.7981C164.379 48.366 164.469 47.8489 164.469 47.2469C164.469 46.6589 164.38 46.1401 164.203 45.6903C164.026 45.2405 163.764 44.8881 163.417 44.6331C163.07 44.3781 162.641 44.2506 162.131 44.2506C161.6 44.2506 161.157 44.3852 160.803 44.6543C160.453 44.9235 160.189 45.2848 160.012 45.7381C159.838 46.1914 159.751 46.6944 159.751 47.2469C159.751 47.8135 159.84 48.3147 160.017 48.7503C160.198 49.1824 160.463 49.5224 160.814 49.7703C161.168 50.0147 161.607 50.1369 162.131 50.1369ZM174.605 51.5819C174.088 51.5819 173.619 51.4845 173.197 51.2897C172.776 51.0914 172.441 50.8062 172.193 50.4344C171.945 50.059 171.821 49.6056 171.821 49.0744C171.821 48.6069 171.914 48.2279 172.098 47.9375C172.282 47.6435 172.528 47.4133 172.836 47.2469C173.144 47.0804 173.484 46.9564 173.856 46.875C174.232 46.79 174.609 46.7227 174.988 46.6731C175.484 46.6094 175.886 46.5615 176.194 46.5297C176.505 46.4942 176.732 46.4358 176.874 46.3544C177.019 46.2729 177.091 46.1312 177.091 45.9294V45.8869C177.091 45.3627 176.948 44.9554 176.661 44.665C176.378 44.3746 175.947 44.2293 175.37 44.2293C174.772 44.2293 174.302 44.3604 173.962 44.6225C173.622 44.8846 173.383 45.1643 173.245 45.4618L172.055 45.0368C172.268 44.541 172.551 44.155 172.905 43.8787C173.263 43.5989 173.652 43.4041 174.074 43.2943C174.499 43.181 174.917 43.1243 175.328 43.1243C175.59 43.1243 175.891 43.1562 176.231 43.22C176.574 43.2802 176.906 43.4059 177.224 43.5972C177.547 43.7884 177.814 44.0771 178.026 44.4631C178.239 44.8491 178.345 45.3662 178.345 46.0144V51.3906H177.091V50.2856H177.028C176.943 50.4627 176.801 50.6522 176.603 50.8541C176.404 51.0559 176.141 51.2277 175.811 51.3694C175.482 51.511 175.08 51.5819 174.605 51.5819ZM174.796 50.4556C175.292 50.4556 175.71 50.3582 176.05 50.1634C176.394 49.9686 176.652 49.7172 176.826 49.4091C177.003 49.1009 177.091 48.7769 177.091 48.4369V47.2894C177.038 47.3531 176.921 47.4115 176.741 47.4647C176.564 47.5143 176.358 47.5585 176.125 47.5975C175.894 47.6329 175.669 47.6648 175.45 47.6931C175.234 47.7179 175.059 47.7392 174.924 47.7569C174.598 47.7994 174.294 47.8684 174.01 47.964C173.73 48.0561 173.504 48.196 173.33 48.3837C173.16 48.5679 173.075 48.8194 173.075 49.1381C173.075 49.5737 173.236 49.9031 173.559 50.1262C173.884 50.3458 174.297 50.4556 174.796 50.4556ZM180.634 51.3906V43.2306H181.845V44.5056H181.951C182.121 44.07 182.396 43.7317 182.775 43.4909C183.153 43.2465 183.609 43.1243 184.14 43.1243C184.678 43.1243 185.126 43.2465 185.484 43.4909C185.845 43.7317 186.127 44.07 186.329 44.5056H186.414C186.623 44.0841 186.936 43.7494 187.354 43.5015C187.772 43.2501 188.273 43.1243 188.857 43.1243C189.587 43.1243 190.184 43.3528 190.648 43.8097C191.112 44.263 191.344 44.9696 191.344 45.9294V51.3906H190.09V45.9294C190.09 45.3273 189.925 44.897 189.596 44.6384C189.266 44.3799 188.879 44.2506 188.432 44.2506C187.859 44.2506 187.414 44.4241 187.099 44.7712C186.784 45.1148 186.626 45.5504 186.626 46.0781V51.3906H185.351V45.8019C185.351 45.3379 185.201 44.9642 184.9 44.6809C184.598 44.394 184.211 44.2506 183.736 44.2506C183.41 44.2506 183.106 44.3374 182.822 44.5109C182.543 44.6844 182.316 44.9253 182.142 45.2334C181.972 45.538 181.887 45.8904 181.887 46.2906V51.3906H180.634ZM196.037 51.5819C195.52 51.5819 195.051 51.4845 194.629 51.2897C194.208 51.0914 193.873 50.8062 193.625 50.4344C193.377 50.059 193.253 49.6056 193.253 49.0744C193.253 48.6069 193.346 48.2279 193.53 47.9375C193.714 47.6435 193.96 47.4133 194.268 47.2469C194.576 47.0804 194.916 46.9564 195.288 46.875C195.664 46.79 196.041 46.7227 196.42 46.6731C196.916 46.6094 197.318 46.5615 197.626 46.5297C197.937 46.4942 198.164 46.4358 198.306 46.3544C198.451 46.2729 198.524 46.1312 198.524 45.9294V45.8869C198.524 45.3627 198.38 44.9554 198.093 44.665C197.81 44.3746 197.38 44.2293 196.802 44.2293C196.204 44.2293 195.734 44.3604 195.394 44.6225C195.054 44.8846 194.815 45.1643 194.677 45.4618L193.487 45.0368C193.7 44.541 193.983 44.155 194.337 43.8787C194.695 43.5989 195.085 43.4041 195.506 43.2943C195.931 43.181 196.349 43.1243 196.76 43.1243C197.022 43.1243 197.323 43.1562 197.663 43.22C198.006 43.2802 198.338 43.4059 198.656 43.5972C198.979 43.7884 199.246 44.0771 199.459 44.4631C199.671 44.8491 199.777 45.3662 199.777 46.0144V51.3906H198.524V50.2856H198.46C198.375 50.4627 198.233 50.6522 198.035 50.8541C197.836 51.0559 197.573 51.2277 197.243 51.3694C196.914 51.511 196.512 51.5819 196.037 51.5819ZM196.228 50.4556C196.724 50.4556 197.142 50.3582 197.482 50.1634C197.826 49.9686 198.084 49.7172 198.258 49.4091C198.435 49.1009 198.524 48.7769 198.524 48.4369V47.2894C198.47 47.3531 198.354 47.4115 198.173 47.4647C197.996 47.5143 197.79 47.5585 197.557 47.5975C197.326 47.6329 197.102 47.6648 196.882 47.6931C196.666 47.7179 196.491 47.7392 196.356 47.7569C196.03 47.7994 195.726 47.8684 195.442 47.964C195.162 48.0561 194.936 48.196 194.762 48.3837C194.592 48.5679 194.507 48.8194 194.507 49.1381C194.507 49.5737 194.668 49.9031 194.991 50.1262C195.317 50.3458 195.729 50.4556 196.228 50.4556ZM201.832 51.3906V50.4344L206.464 44.4843V44.3993H201.981V43.2306H208.079V44.2293L203.574 50.1369V50.2219H208.228V51.3906H201.832ZM210.159 51.3906V43.2306H211.413V51.3906H210.159ZM210.797 41.8706C210.552 41.8706 210.342 41.7874 210.165 41.6209C209.991 41.4544 209.904 41.2543 209.904 41.0206C209.904 40.7868 209.991 40.5867 210.165 40.4203C210.342 40.2538 210.552 40.1706 210.797 40.1706C211.041 40.1706 211.25 40.2538 211.424 40.4203C211.601 40.5867 211.689 40.7868 211.689 41.0206C211.689 41.2543 211.601 41.4544 211.424 41.6209C211.25 41.7874 211.041 41.8706 210.797 41.8706ZM214.963 46.4819V51.3906H213.709V43.2306H214.921V44.5056H215.027C215.218 44.0912 215.509 43.7583 215.898 43.5068C216.288 43.2518 216.791 43.1243 217.407 43.1243C217.959 43.1243 218.443 43.2377 218.857 43.4643C219.272 43.6875 219.594 44.0275 219.824 44.4843C220.054 44.9377 220.169 45.5114 220.169 46.2056V51.3906H218.916V46.2906C218.916 45.6496 218.749 45.1502 218.416 44.7925C218.083 44.4312 217.626 44.2506 217.046 44.2506C216.645 44.2506 216.288 44.3374 215.972 44.5109C215.661 44.6844 215.415 44.9377 215.234 45.2706C215.053 45.6035 214.963 46.0073 214.963 46.4819ZM225.754 54.6206C225.149 54.6206 224.628 54.5427 224.192 54.3869C223.757 54.2346 223.394 54.0327 223.103 53.7813C222.816 53.5333 222.588 53.2677 222.418 52.9844L223.417 52.2831C223.53 52.4319 223.673 52.6019 223.847 52.7931C224.021 52.9879 224.258 53.1562 224.559 53.2978C224.863 53.443 225.262 53.5156 225.754 53.5156C226.413 53.5156 226.957 53.3563 227.385 53.0375C227.814 52.7188 228.028 52.2194 228.028 51.5394V49.8819H227.922C227.83 50.0306 227.699 50.2148 227.529 50.4344C227.362 50.6504 227.121 50.8434 226.806 51.0134C226.494 51.1799 226.073 51.2631 225.542 51.2631C224.883 51.2631 224.291 51.1073 223.767 50.7956C223.247 50.484 222.834 50.0306 222.529 49.4356C222.228 48.8406 222.078 48.1181 222.078 47.2681C222.078 46.4323 222.225 45.7045 222.519 45.0847C222.813 44.4613 223.222 43.9797 223.746 43.6397C224.27 43.2961 224.876 43.1243 225.563 43.1243C226.094 43.1243 226.516 43.2129 226.827 43.39C227.143 43.5635 227.383 43.7618 227.55 43.985C227.72 44.2046 227.851 44.3852 227.943 44.5268H228.07V43.2306H229.282V51.6244C229.282 52.3256 229.122 52.8958 228.804 53.335C228.488 53.7777 228.063 54.1018 227.529 54.3072C226.997 54.5162 226.406 54.6206 225.754 54.6206ZM225.712 50.1369C226.215 50.1369 226.64 50.0218 226.987 49.7916C227.334 49.5613 227.598 49.2302 227.778 48.7981C227.959 48.366 228.049 47.8489 228.049 47.2469C228.049 46.6589 227.961 46.1401 227.784 45.6903C227.606 45.2405 227.344 44.8881 226.997 44.6331C226.65 44.3781 226.222 44.2506 225.712 44.2506C225.18 44.2506 224.738 44.3852 224.384 44.6543C224.033 44.9235 223.769 45.2848 223.592 45.7381C223.418 46.1914 223.332 46.6944 223.332 47.2469C223.332 47.8135 223.42 48.3147 223.597 48.7503C223.778 49.1824 224.044 49.5224 224.394 49.7703C224.748 50.0147 225.187 50.1369 225.712 50.1369ZM239.333 43.2306V44.2931H235.104V43.2306H239.333ZM236.337 41.2756H237.59V49.0531C237.59 49.4073 237.642 49.6729 237.745 49.85C237.851 50.0235 237.985 50.1404 238.148 50.2006C238.315 50.2573 238.49 50.2856 238.674 50.2856C238.812 50.2856 238.926 50.2785 239.014 50.2644C239.103 50.2467 239.174 50.2325 239.227 50.2219L239.482 51.3481C239.397 51.38 239.278 51.4119 239.126 51.4438C238.974 51.4792 238.78 51.4969 238.547 51.4969C238.193 51.4969 237.845 51.4207 237.505 51.2684C237.169 51.1161 236.889 50.8842 236.666 50.5725C236.447 50.2608 236.337 49.8677 236.337 49.3931V41.2756ZM244.446 51.5606C243.71 51.5606 243.063 51.3853 242.507 51.0347C241.955 50.6841 241.523 50.1935 241.211 49.5631C240.903 48.9327 240.749 48.196 240.749 47.3531C240.749 46.5031 240.903 45.7611 241.211 45.1272C241.523 44.4932 241.955 44.0009 242.507 43.6503C243.063 43.2997 243.71 43.1243 244.446 43.1243C245.183 43.1243 245.828 43.2997 246.38 43.6503C246.936 44.0009 247.368 44.4932 247.676 45.1272C247.988 45.7611 248.144 46.5031 248.144 47.3531C248.144 48.196 247.988 48.9327 247.676 49.5631C247.368 50.1935 246.936 50.6841 246.38 51.0347C245.828 51.3853 245.183 51.5606 244.446 51.5606ZM244.446 50.4344C245.006 50.4344 245.466 50.2909 245.828 50.0041C246.189 49.7172 246.456 49.34 246.63 48.8725C246.803 48.405 246.89 47.8985 246.89 47.3531C246.89 46.8077 246.803 46.2995 246.63 45.8284C246.456 45.3574 246.189 44.9766 245.828 44.6862C245.466 44.3958 245.006 44.2506 244.446 44.2506C243.887 44.2506 243.426 44.3958 243.065 44.6862C242.704 44.9766 242.436 45.3574 242.263 45.8284C242.089 46.2995 242.003 46.8077 242.003 47.3531C242.003 47.8985 242.089 48.405 242.263 48.8725C242.436 49.34 242.704 49.7172 243.065 50.0041C243.426 50.2909 243.887 50.4344 244.446 50.4344ZM253.351 54.6206C252.746 54.6206 252.225 54.5427 251.79 54.3869C251.354 54.2346 250.991 54.0327 250.7 53.7813C250.414 53.5333 250.185 53.2677 250.015 52.9844L251.014 52.2831C251.127 52.4319 251.271 52.6019 251.444 52.7931C251.618 52.9879 251.855 53.1562 252.156 53.2978C252.461 53.443 252.859 53.5156 253.351 53.5156C254.01 53.5156 254.554 53.3563 254.982 53.0375C255.411 52.7188 255.625 52.2194 255.625 51.5394V49.8819H255.519C255.427 50.0306 255.296 50.2148 255.126 50.4344C254.959 50.6504 254.718 50.8434 254.403 51.0134C254.092 51.1799 253.67 51.2631 253.139 51.2631C252.48 51.2631 251.889 51.1073 251.365 50.7956C250.844 50.484 250.431 50.0306 250.127 49.4356C249.826 48.8406 249.675 48.1181 249.675 47.2681C249.675 46.4323 249.822 45.7045 250.116 45.0847C250.41 44.4613 250.819 43.9797 251.343 43.6397C251.867 43.2961 252.473 43.1243 253.16 43.1243C253.691 43.1243 254.113 43.2129 254.425 43.39C254.74 43.5635 254.981 43.7618 255.147 43.985C255.317 44.2046 255.448 44.3852 255.54 44.5268H255.668V43.2306H256.879V51.6244C256.879 52.3256 256.72 52.8958 256.401 53.335C256.086 53.7777 255.661 54.1018 255.126 54.3072C254.595 54.5162 254.003 54.6206 253.351 54.6206ZM253.309 50.1369C253.812 50.1369 254.237 50.0218 254.584 49.7916C254.931 49.5613 255.195 49.2302 255.375 48.7981C255.556 48.366 255.646 47.8489 255.646 47.2469C255.646 46.6589 255.558 46.1401 255.381 45.6903C255.204 45.2405 254.942 44.8881 254.595 44.6331C254.247 44.3781 253.819 44.2506 253.309 44.2506C252.778 44.2506 252.335 44.3852 251.981 44.6543C251.63 44.9235 251.366 45.2848 251.189 45.7381C251.016 46.1914 250.929 46.6944 250.929 47.2469C250.929 47.8135 251.017 48.3147 251.195 48.7503C251.375 49.1824 251.641 49.5224 251.991 49.7703C252.346 50.0147 252.785 50.1369 253.309 50.1369ZM262.595 51.5606C261.809 51.5606 261.131 51.3871 260.561 51.04C259.994 50.6894 259.556 50.2006 259.248 49.5737C258.944 48.9433 258.791 48.2102 258.791 47.3744C258.791 46.5385 258.944 45.8019 259.248 45.1643C259.556 44.5233 259.985 44.0239 260.534 43.6662C261.086 43.305 261.731 43.1243 262.468 43.1243C262.893 43.1243 263.312 43.1952 263.727 43.3368C264.141 43.4785 264.518 43.7087 264.858 44.0275C265.198 44.3427 265.469 44.7606 265.671 45.2812C265.873 45.8019 265.974 46.4429 265.974 47.2044V47.7356H259.684V46.6519H264.699C264.699 46.1914 264.607 45.7806 264.423 45.4193C264.242 45.0581 263.984 44.773 263.647 44.564C263.314 44.3551 262.921 44.2506 262.468 44.2506C261.968 44.2506 261.536 44.3746 261.171 44.6225C260.81 44.8668 260.532 45.1856 260.337 45.5787C260.143 45.9719 260.045 46.3933 260.045 46.8431V47.5656C260.045 48.1819 260.151 48.7043 260.364 49.1328C260.58 49.5578 260.879 49.8819 261.262 50.105C261.644 50.3246 262.089 50.4344 262.595 50.4344C262.925 50.4344 263.222 50.3883 263.488 50.2962C263.757 50.2006 263.989 50.059 264.184 49.8712C264.378 49.68 264.529 49.4427 264.635 49.1594L265.846 49.4994C265.719 49.9102 265.505 50.2715 265.204 50.5831C264.903 50.8912 264.531 51.1321 264.088 51.3056C263.645 51.4756 263.148 51.5606 262.595 51.5606ZM271.43 43.2306V44.2931H267.201V43.2306H271.43ZM268.434 41.2756H269.687V49.0531C269.687 49.4073 269.739 49.6729 269.841 49.85C269.948 50.0235 270.082 50.1404 270.245 50.2006C270.412 50.2573 270.587 50.2856 270.771 50.2856C270.909 50.2856 271.023 50.2785 271.111 50.2644C271.2 50.2467 271.271 50.2325 271.324 50.2219L271.579 51.3481C271.494 51.38 271.375 51.4119 271.223 51.4438C271.07 51.4792 270.877 51.4969 270.644 51.4969C270.289 51.4969 269.942 51.4207 269.602 51.2684C269.266 51.1161 268.986 50.8842 268.763 50.5725C268.543 50.2608 268.434 49.8677 268.434 49.3931V41.2756ZM274.745 46.4819V51.3906H273.491V40.5106H274.745V44.5056H274.851C275.042 44.0841 275.329 43.7494 275.712 43.5015C276.098 43.2501 276.611 43.1243 277.252 43.1243C277.808 43.1243 278.295 43.2359 278.713 43.459C279.131 43.6786 279.455 44.0168 279.686 44.4737C279.919 44.9271 280.036 45.5043 280.036 46.2056V51.3906H278.782V46.2906C278.782 45.6425 278.614 45.1413 278.278 44.7872C277.945 44.4294 277.483 44.2506 276.891 44.2506C276.48 44.2506 276.112 44.3374 275.786 44.5109C275.464 44.6844 275.209 44.9377 275.021 45.2706C274.837 45.6035 274.745 46.0073 274.745 46.4819ZM285.751 51.5606C284.965 51.5606 284.287 51.3871 283.716 51.04C283.15 50.6894 282.712 50.2006 282.404 49.5737C282.1 48.9433 281.947 48.2102 281.947 47.3744C281.947 46.5385 282.1 45.8019 282.404 45.1643C282.712 44.5233 283.141 44.0239 283.69 43.6662C284.242 43.305 284.887 43.1243 285.624 43.1243C286.049 43.1243 286.468 43.1952 286.883 43.3368C287.297 43.4785 287.674 43.7087 288.014 44.0275C288.354 44.3427 288.625 44.7606 288.827 45.2812C289.029 45.8019 289.13 46.4429 289.13 47.2044V47.7356H282.84V46.6519H287.855C287.855 46.1914 287.763 45.7806 287.579 45.4193C287.398 45.0581 287.139 44.773 286.803 44.564C286.47 44.3551 286.077 44.2506 285.624 44.2506C285.124 44.2506 284.692 44.3746 284.327 44.6225C283.966 44.8668 283.688 45.1856 283.493 45.5787C283.299 45.9719 283.201 46.3933 283.201 46.8431V47.5656C283.201 48.1819 283.307 48.7043 283.52 49.1328C283.736 49.5578 284.035 49.8819 284.418 50.105C284.8 50.3246 285.245 50.4344 285.751 50.4344C286.081 50.4344 286.378 50.3883 286.644 50.2962C286.913 50.2006 287.145 50.059 287.34 49.8712C287.534 49.68 287.685 49.4427 287.791 49.1594L289.002 49.4994C288.875 49.9102 288.661 50.2715 288.36 50.5831C288.059 50.8912 287.687 51.1321 287.244 51.3056C286.801 51.4756 286.304 51.5606 285.751 51.5606ZM291.037 51.3906V43.2306H292.248V44.4631H292.333C292.482 44.0593 292.751 43.7317 293.141 43.4803C293.53 43.2288 293.97 43.1031 294.458 43.1031C294.55 43.1031 294.666 43.1049 294.804 43.1084C294.942 43.1119 295.046 43.1173 295.117 43.1243V44.3993C295.075 44.3887 294.977 44.3728 294.825 44.3515C294.676 44.3267 294.519 44.3143 294.352 44.3143C293.955 44.3143 293.601 44.3976 293.29 44.564C292.981 44.727 292.737 44.9536 292.556 45.244C292.379 45.5309 292.291 45.8585 292.291 46.2269V51.3906H291.037ZM296.582 51.4756C296.32 51.4756 296.095 51.3818 295.907 51.1941C295.72 51.0064 295.626 50.7815 295.626 50.5194C295.626 50.2573 295.72 50.0324 295.907 49.8447C296.095 49.657 296.32 49.5631 296.582 49.5631C296.844 49.5631 297.069 49.657 297.257 49.8447C297.444 50.0324 297.538 50.2573 297.538 50.5194C297.538 50.6929 297.494 50.8523 297.406 50.9975C297.321 51.1427 297.205 51.2596 297.06 51.3481C296.919 51.4331 296.759 51.4756 296.582 51.4756Z" fill="white"/>
</svg>
