<svg width="416" height="134" viewBox="0 0 416 134" fill="none" xmlns="http://www.w3.org/2000/svg">
<rect x="2" width="211" height="31" fill="url(#paint0_linear_1902_10)"/>
<path d="M18.319 23L14.5925 9.81125H17.7609L20.0792 19.0846H20.1994L22.5693 9.81125H25.7033L28.0731 19.0331H28.2019L30.4859 9.81125H33.6629L29.9278 23H26.6907L24.2178 14.0873H24.0375L21.5646 23H18.319ZM41.2941 23.2576C39.9718 23.2576 38.8298 22.9828 37.8681 22.4333C36.9122 21.878 36.1766 21.0938 35.6614 20.0806C35.1462 19.0617 34.8886 17.8625 34.8886 16.4829C34.8886 15.1262 35.1462 13.9356 35.6614 12.911C36.1823 11.8806 36.9093 11.0792 37.8424 10.5068C38.7754 9.9286 39.8716 9.63952 41.131 9.63952C41.9438 9.63952 42.7109 9.77118 43.4321 10.0345C44.1591 10.2921 44.8002 10.6928 45.3555 11.2366C45.9165 11.7804 46.3572 12.473 46.6778 13.3145C46.9983 14.1503 47.1586 15.1463 47.1586 16.3026V17.2557H36.3483V15.1606H44.1791C44.1734 14.5653 44.0446 14.0358 43.7927 13.5721C43.5409 13.1027 43.1888 12.7335 42.7366 12.4645C42.2901 12.1954 41.7692 12.0609 41.1739 12.0609C40.5385 12.0609 39.9804 12.2155 39.4995 12.5246C39.0187 12.8279 38.6438 13.2286 38.3747 13.7267C38.1114 14.219 37.9769 14.7599 37.9711 15.3495V17.1784C37.9711 17.9455 38.1114 18.6038 38.3919 19.1533C38.6724 19.6971 39.0645 20.115 39.5682 20.4069C40.072 20.6931 40.6616 20.8362 41.337 20.8362C41.7892 20.8362 42.1985 20.7733 42.5649 20.6473C42.9312 20.5157 43.2489 20.3239 43.518 20.072C43.787 19.8202 43.9902 19.5082 44.1276 19.1361L47.0298 19.4624C46.8466 20.2294 46.4975 20.8992 45.9823 21.4716C45.4728 22.0383 44.8203 22.4791 44.0246 22.7939C43.2289 23.103 42.3187 23.2576 41.2941 23.2576ZM55.7858 23V9.81125H58.8941V23H55.7858ZM57.3486 7.93941C56.8563 7.93941 56.4327 7.77627 56.0778 7.44999C55.7229 7.11798 55.5454 6.72014 55.5454 6.25647C55.5454 5.78708 55.7229 5.38924 56.0778 5.06296C56.4327 4.73095 56.8563 4.56495 57.3486 4.56495C57.8466 4.56495 58.2702 4.73095 58.6193 5.06296C58.9743 5.38924 59.1517 5.78708 59.1517 6.25647C59.1517 6.72014 58.9743 7.11798 58.6193 7.44999C58.2702 7.77627 57.8466 7.93941 57.3486 7.93941ZM65.1987 15.2722V23H62.0904V9.81125H65.0613V12.0523H65.2159C65.5193 11.3139 66.003 10.7271 66.667 10.2921C67.3367 9.85705 68.1639 9.63952 69.1485 9.63952C70.0586 9.63952 70.8514 9.83415 71.5269 10.2234C72.2081 10.6127 72.7347 11.1765 73.1068 11.9149C73.4846 12.6534 73.6706 13.5492 73.6649 14.6025V23H70.5566V15.0833C70.5566 14.2018 70.3277 13.512 69.8697 13.014C69.4175 12.516 68.7907 12.267 67.9893 12.267C67.4455 12.267 66.9618 12.3872 66.5382 12.6276C66.1203 12.8623 65.7912 13.2029 65.5507 13.6494C65.316 14.0959 65.1987 14.6368 65.1987 15.2722ZM83.4105 9.81125V12.2155H75.8287V9.81125H83.4105ZM77.7005 6.65145H80.8088V19.0331C80.8088 19.4509 80.8718 19.7715 80.9977 19.9948C81.1294 20.2123 81.3011 20.3611 81.5129 20.4412C81.7247 20.5214 81.9594 20.5615 82.217 20.5615C82.4116 20.5615 82.5891 20.5471 82.7493 20.5185C82.9153 20.4899 83.0413 20.4641 83.1271 20.4412L83.6509 22.8712C83.4849 22.9284 83.2474 22.9914 82.9382 23.0601C82.6349 23.1288 82.2628 23.1689 81.822 23.1803C81.0435 23.2032 80.3423 23.0859 79.7183 22.8283C79.0944 22.565 78.5992 22.1585 78.2329 21.609C77.8723 21.0595 77.6948 20.3726 77.7005 19.5483V6.65145ZM86.01 23V9.81125H89.0239V12.0094H89.1613C89.4017 11.248 89.8138 10.6613 90.3977 10.2492C90.9873 9.83129 91.6599 9.62235 92.4155 9.62235C92.5872 9.62235 92.779 9.63094 92.9908 9.64811C93.2083 9.65956 93.3886 9.67959 93.5317 9.70822V12.5675C93.4001 12.5217 93.1912 12.4816 92.9049 12.4473C92.6244 12.4072 92.3525 12.3872 92.0892 12.3872C91.5225 12.3872 91.0131 12.5103 90.5608 12.7564C90.1143 12.9968 89.7623 13.3317 89.5047 13.761C89.2471 14.1903 89.1183 14.6855 89.1183 15.2465V23H86.01ZM100.807 23.2576C99.5186 23.2576 98.4024 22.9742 97.4579 22.4075C96.5134 21.8408 95.7807 21.048 95.2598 20.0291C94.7446 19.0102 94.487 17.8195 94.487 16.4571C94.487 15.0948 94.7446 13.9013 95.2598 12.8766C95.7807 11.852 96.5134 11.0563 97.4579 10.4896C98.4024 9.92288 99.5186 9.63952 100.807 9.63952C102.095 9.63952 103.211 9.92288 104.155 10.4896C105.1 11.0563 105.83 11.852 106.345 12.8766C106.866 13.9013 107.126 15.0948 107.126 16.4571C107.126 17.8195 106.866 19.0102 106.345 20.0291C105.83 21.048 105.1 21.8408 104.155 22.4075C103.211 22.9742 102.095 23.2576 100.807 23.2576ZM100.824 20.7675C101.522 20.7675 102.106 20.5758 102.575 20.1922C103.045 19.803 103.394 19.2821 103.623 18.6295C103.858 17.9769 103.975 17.25 103.975 16.4486C103.975 15.6414 103.858 14.9116 103.623 14.259C103.394 13.6007 103.045 13.077 102.575 12.6877C102.106 12.2985 101.522 12.1038 100.824 12.1038C100.108 12.1038 99.5129 12.2985 99.0378 12.6877C98.5684 13.077 98.2164 13.6007 97.9817 14.259C97.7527 14.9116 97.6382 15.6414 97.6382 16.4486C97.6382 17.25 97.7527 17.9769 97.9817 18.6295C98.2164 19.2821 98.5684 19.803 99.0378 20.1922C99.5129 20.5758 100.108 20.7675 100.824 20.7675ZM114.659 23.2318C113.623 23.2318 112.695 22.9657 111.877 22.4333C111.058 21.9009 110.411 21.1282 109.936 20.115C109.461 19.1018 109.223 17.871 109.223 16.4228C109.223 14.9574 109.464 13.7209 109.945 12.7135C110.431 11.7003 111.087 10.9361 111.911 10.4209C112.735 9.89998 113.654 9.63952 114.667 9.63952C115.44 9.63952 116.075 9.77118 116.573 10.0345C117.071 10.2921 117.466 10.6041 117.758 10.9704C118.05 11.331 118.276 11.6716 118.437 11.9922H118.565V5.415H121.682V23H118.626V20.9221H118.437C118.276 21.2426 118.045 21.5832 117.741 21.9439C117.438 22.2988 117.037 22.6022 116.539 22.854C116.041 23.1059 115.414 23.2318 114.659 23.2318ZM115.526 20.6817C116.184 20.6817 116.745 20.5042 117.209 20.1493C117.672 19.7887 118.025 19.2878 118.265 18.6467C118.505 18.0056 118.626 17.2585 118.626 16.4056C118.626 15.5527 118.505 14.8114 118.265 14.1817C118.03 13.5521 117.681 13.0626 117.217 12.7135C116.759 12.3643 116.196 12.1897 115.526 12.1897C114.833 12.1897 114.255 12.37 113.791 12.7306C113.328 13.0913 112.979 13.5893 112.744 14.2247C112.509 14.8601 112.392 15.5871 112.392 16.4056C112.392 17.2299 112.509 17.9655 112.744 18.6123C112.984 19.2535 113.336 19.7601 113.8 20.1321C114.269 20.4985 114.845 20.6817 115.526 20.6817ZM133.401 17.4532V9.81125H136.509V23H133.495V20.6559H133.358C133.06 21.3943 132.571 21.9983 131.889 22.4676C131.214 22.937 130.381 23.1717 129.391 23.1717C128.526 23.1717 127.762 22.98 127.098 22.5964C126.44 22.2072 125.925 21.6433 125.553 20.9049C125.181 20.1608 124.995 19.262 124.995 18.2088V9.81125H128.103V17.7279C128.103 18.5637 128.332 19.2277 128.79 19.72C129.248 20.2123 129.849 20.4584 130.593 20.4584C131.051 20.4584 131.494 20.3468 131.924 20.1235C132.353 19.9003 132.705 19.5683 132.98 19.1275C133.26 18.681 133.401 18.1229 133.401 17.4532ZM145.458 23.2576C144.142 23.2576 143.011 22.9685 142.067 22.3904C141.128 21.8122 140.404 21.0137 139.894 19.9948C139.39 18.9701 139.139 17.7909 139.139 16.4571C139.139 15.1177 139.396 13.9356 139.911 12.911C140.427 11.8806 141.153 11.0792 142.092 10.5068C143.037 9.9286 144.153 9.63952 145.441 9.63952C146.511 9.63952 147.459 9.83701 148.283 10.232C149.113 10.6212 149.774 11.1736 150.267 11.8892C150.759 12.599 151.039 13.429 151.108 14.3792H148.137C148.017 13.7438 147.731 13.2143 147.278 12.7907C146.832 12.3614 146.234 12.1468 145.484 12.1468C144.849 12.1468 144.29 12.3185 143.81 12.6619C143.329 12.9997 142.954 13.4862 142.685 14.1216C142.421 14.757 142.29 15.5184 142.29 16.4056C142.29 17.3043 142.421 18.0771 142.685 18.724C142.948 19.3651 143.317 19.8602 143.792 20.2094C144.273 20.5529 144.837 20.7246 145.484 20.7246C145.942 20.7246 146.351 20.6387 146.712 20.467C147.078 20.2896 147.384 20.0348 147.631 19.7028C147.877 19.3708 148.046 18.9672 148.137 18.4921H151.108C151.034 19.4252 150.759 20.2523 150.284 20.9736C149.809 21.6891 149.162 22.2501 148.343 22.6565C147.525 23.0572 146.563 23.2576 145.458 23.2576ZM159.499 23.2576C158.177 23.2576 157.035 22.9828 156.073 22.4333C155.117 21.878 154.382 21.0938 153.866 20.0806C153.351 19.0617 153.094 17.8625 153.094 16.4829C153.094 15.1262 153.351 13.9356 153.866 12.911C154.387 11.8806 155.114 11.0792 156.047 10.5068C156.98 9.9286 158.077 9.63952 159.336 9.63952C160.149 9.63952 160.916 9.77118 161.637 10.0345C162.364 10.2921 163.005 10.6928 163.56 11.2366C164.121 11.7804 164.562 12.473 164.883 13.3145C165.203 14.1503 165.364 15.1463 165.364 16.3026V17.2557H154.553V15.1606H162.384C162.378 14.5653 162.25 14.0358 161.998 13.5721C161.746 13.1027 161.394 12.7335 160.942 12.4645C160.495 12.1954 159.974 12.0609 159.379 12.0609C158.743 12.0609 158.185 12.2155 157.705 12.5246C157.224 12.8279 156.849 13.2286 156.58 13.7267C156.316 14.219 156.182 14.7599 156.176 15.3495V17.1784C156.176 17.9455 156.316 18.6038 156.597 19.1533C156.877 19.6971 157.269 20.115 157.773 20.4069C158.277 20.6931 158.867 20.8362 159.542 20.8362C159.994 20.8362 160.404 20.7733 160.77 20.6473C161.136 20.5157 161.454 20.3239 161.723 20.072C161.992 19.8202 162.195 19.5082 162.333 19.1361L165.235 19.4624C165.052 20.2294 164.702 20.8992 164.187 21.4716C163.678 22.0383 163.025 22.4791 162.23 22.7939C161.434 23.103 160.524 23.2576 159.499 23.2576Z" fill="white"/>
<path d="M9.24779 43.7063V68H4.11147V43.7063H9.24779ZM33.7936 43.7063V68H29.3571L18.7879 52.7097H18.61V68H13.4737V43.7063H17.9813L28.4675 58.9848H28.681V43.7063H33.7936ZM37.112 47.9411V43.7063H57.0642V47.9411H49.6266V68H44.5496V47.9411H37.112ZM60.35 68V43.7063H76.7198V47.9411H65.4863V53.7298H75.8776V57.9646H65.4863V63.7652H76.7673V68H60.35ZM80.8034 68V43.7063H90.388C92.2227 43.7063 93.7885 44.0345 95.0854 44.6908C96.3903 45.3393 97.3827 46.2606 98.0628 47.4547C98.7508 48.6409 99.0948 50.0367 99.0948 51.6421C99.0948 53.2553 98.7469 54.6432 98.051 55.8057C97.355 56.9603 96.3468 57.846 95.0261 58.4628C93.7134 59.0796 92.1238 59.3881 90.2575 59.3881H83.8401V55.26H89.4272C90.4078 55.26 91.2223 55.1256 91.8708 54.8567C92.5192 54.5878 93.0016 54.1845 93.318 53.6468C93.6422 53.109 93.8043 52.4408 93.8043 51.6421C93.8043 50.8354 93.6422 50.1553 93.318 49.6018C93.0016 49.0482 92.5153 48.6291 91.8589 48.3444C91.2104 48.0518 90.3919 47.9055 89.4034 47.9055H85.9397V68H80.8034ZM93.9229 56.9445L99.9608 68H94.2906L88.3833 56.9445H93.9229ZM106.912 68H101.408L109.795 43.7063H116.414L124.788 68H119.284L113.199 49.2578H113.009L106.912 68ZM106.568 58.451H119.569V62.4604H106.568V58.451ZM148.006 52.2115H142.81C142.715 51.5393 142.521 50.9422 142.229 50.4203C141.936 49.8904 141.56 49.4397 141.102 49.068C140.643 48.6963 140.113 48.4116 139.512 48.2139C138.919 48.0162 138.275 47.9173 137.579 47.9173C136.321 47.9173 135.226 48.2297 134.293 48.8545C133.36 49.4713 132.636 50.3728 132.122 51.559C131.608 52.7373 131.351 54.1687 131.351 55.8531C131.351 57.585 131.608 59.0401 132.122 60.2184C132.644 61.3967 133.372 62.2864 134.305 62.8874C135.238 63.4884 136.317 63.7889 137.543 63.7889C138.231 63.7889 138.868 63.698 139.453 63.5161C140.046 63.3342 140.572 63.0693 141.031 62.7213C141.489 62.3655 141.869 61.9345 142.169 61.4284C142.478 60.9222 142.691 60.3449 142.81 59.6965L148.006 59.7202C147.871 60.8352 147.535 61.9108 146.997 62.9467C146.467 63.9748 145.752 64.8961 144.85 65.7106C143.957 66.5172 142.889 67.1578 141.647 67.6323C140.414 68.0989 139.018 68.3321 137.46 68.3321C135.293 68.3321 133.356 67.8418 131.648 66.8612C129.947 65.8806 128.603 64.4611 127.614 62.6027C126.634 60.7443 126.144 58.4944 126.144 55.8531C126.144 53.2039 126.642 50.9501 127.638 49.0917C128.635 47.2333 129.987 45.8177 131.695 44.845C133.403 43.8644 135.325 43.3741 137.46 43.3741C138.868 43.3741 140.173 43.5718 141.375 43.9672C142.585 44.3626 143.656 44.9399 144.589 45.6991C145.522 46.4504 146.282 47.3717 146.867 48.463C147.46 49.5543 147.839 50.8038 148.006 52.2115ZM150.763 47.9411V43.7063H170.716V47.9411H163.278V68H158.201V47.9411H150.763ZM179.138 43.7063V68H174.001V43.7063H179.138ZM187.753 43.7063L193.624 62.1638H193.85L199.733 43.7063H205.427L197.053 68H190.434L182.047 43.7063H187.753ZM208.351 68V43.7063H224.721V47.9411H213.488V53.7298H223.879V57.9646H213.488V63.7652H224.769V68H208.351Z" fill="white"/>
<path d="M14.924 116H4.54476V86.7209H15.0097C17.9548 86.7209 20.49 87.3071 22.6154 88.4794C24.7408 89.6422 26.3754 91.3148 27.5191 93.4974C28.6724 95.68 29.249 98.2915 29.249 101.332C29.249 104.382 28.6724 107.003 27.5191 109.195C26.3754 111.387 24.7313 113.069 22.5869 114.242C20.4519 115.414 17.8976 116 14.924 116ZM10.7351 110.696H14.6666C16.4966 110.696 18.0358 110.372 19.2844 109.724C20.5425 109.066 21.486 108.051 22.1151 106.679C22.7536 105.297 23.0729 103.514 23.0729 101.332C23.0729 99.1683 22.7536 97.4003 22.1151 96.0279C21.486 94.6554 20.5472 93.6452 19.2987 92.997C18.0501 92.3489 16.5109 92.0249 14.6809 92.0249H10.7351V110.696ZM40.0249 86.7209V116H33.8346V86.7209H40.0249ZM64.5326 96.1852C64.3324 95.4894 64.0513 94.8746 63.6891 94.3409C63.3269 93.7977 62.8837 93.3402 62.3595 92.9685C61.8448 92.5872 61.2539 92.2965 60.5868 92.0964C59.9291 91.8962 59.2 91.7962 58.3994 91.7962C56.903 91.7962 55.5878 92.1679 54.4536 92.9113C53.3289 93.6547 52.4521 94.7364 51.823 96.1566C51.194 97.5671 50.8795 99.2922 50.8795 101.332C50.8795 103.371 51.1892 105.106 51.8087 106.536C52.4283 107.965 53.3051 109.057 54.4393 109.81C55.5735 110.553 56.9126 110.925 58.4566 110.925C59.8576 110.925 61.0538 110.677 62.045 110.181C63.0457 109.676 63.8082 108.966 64.3324 108.051C64.8662 107.136 65.133 106.054 65.133 104.806L66.3911 104.992H58.8426V100.331H71.0946V104.02C71.0946 106.593 70.5514 108.804 69.4648 110.653C68.3783 112.493 66.8819 113.913 64.9758 114.913C63.0696 115.905 60.887 116.4 58.428 116.4C55.6831 116.4 53.2718 115.795 51.194 114.585C49.1163 113.365 47.496 111.635 46.3332 109.395C45.18 107.146 44.6033 104.477 44.6033 101.389C44.6033 99.0158 44.9465 96.9 45.6327 95.0414C46.3285 93.1734 47.3006 91.5912 48.5492 90.295C49.7977 88.9988 51.2512 88.0124 52.9096 87.3357C54.568 86.659 56.3645 86.3206 58.2993 86.3206C59.9577 86.3206 61.5017 86.5637 62.9314 87.0497C64.361 87.5263 65.6286 88.203 66.7342 89.0798C67.8493 89.9567 68.7595 91.0003 69.4648 92.2107C70.1701 93.4116 70.6228 94.7364 70.823 96.1852H64.5326ZM81.9349 86.7209V116H75.7445V86.7209H81.9349ZM85.9129 91.8247V86.7209H109.959V91.8247H100.996V116H94.8767V91.8247H85.9129ZM115.389 116H108.755L118.863 86.7209H126.84L136.933 116H130.3L122.966 93.4116H122.737L115.389 116ZM114.974 104.491H130.643V109.324H114.974V104.491ZM140.457 116V86.7209H146.648V110.896H159.2V116H140.457ZM198.451 96.9715H192.189C192.075 96.1613 191.841 95.4417 191.488 94.8127C191.136 94.1741 190.683 93.6309 190.13 93.1829C189.577 92.7349 188.939 92.3918 188.215 92.1536C187.5 91.9153 186.723 91.7962 185.884 91.7962C184.369 91.7962 183.049 92.1726 181.924 92.9256C180.799 93.669 179.927 94.7555 179.308 96.1852C178.688 97.6053 178.379 99.3304 178.379 101.36C178.379 103.448 178.688 105.201 179.308 106.622C179.937 108.042 180.814 109.114 181.938 109.838C183.063 110.563 184.364 110.925 185.841 110.925C186.671 110.925 187.438 110.815 188.143 110.596C188.858 110.377 189.492 110.057 190.044 109.638C190.597 109.209 191.055 108.69 191.417 108.08C191.789 107.47 192.046 106.774 192.189 105.993L198.451 106.021C198.289 107.365 197.884 108.661 197.236 109.91C196.597 111.149 195.734 112.259 194.648 113.241C193.571 114.213 192.284 114.985 190.788 115.557C189.301 116.119 187.619 116.4 185.741 116.4C183.13 116.4 180.795 115.809 178.736 114.628C176.687 113.446 175.067 111.735 173.875 109.495C172.693 107.255 172.102 104.544 172.102 101.36C172.102 98.1676 172.703 95.4513 173.904 93.2115C175.105 90.9717 176.734 89.2657 178.793 88.0934C180.852 86.9115 183.168 86.3206 185.741 86.3206C187.438 86.3206 189.01 86.5589 190.459 87.0354C191.917 87.512 193.209 88.2077 194.333 89.1227C195.458 90.0282 196.373 91.1385 197.078 92.4538C197.793 93.7691 198.251 95.2749 198.451 96.9715ZM207.386 116H200.752L210.86 86.7209H218.837L228.931 116H222.297L214.963 93.4116H214.734L207.386 116ZM206.971 104.491H222.64V109.324H206.971V104.491ZM227.762 91.8247V86.7209H251.809V91.8247H242.845V116H236.726V91.8247H227.762ZM257.238 116H250.604L260.712 86.7209H268.689L278.782 116H272.149L264.815 93.4116H264.586L257.238 116ZM256.823 104.491H272.492V109.324H256.823V104.491ZM282.306 116V86.7209H288.497V110.896H301.049V116H282.306ZM330.914 101.36C330.914 104.553 330.309 107.27 329.099 109.509C327.898 111.749 326.258 113.46 324.181 114.642C322.112 115.814 319.787 116.4 317.204 116.4C314.602 116.4 312.267 115.809 310.199 114.628C308.131 113.446 306.496 111.735 305.295 109.495C304.094 107.255 303.494 104.544 303.494 101.36C303.494 98.1676 304.094 95.4513 305.295 93.2115C306.496 90.9717 308.131 89.2657 310.199 88.0934C312.267 86.9115 314.602 86.3206 317.204 86.3206C319.787 86.3206 322.112 86.9115 324.181 88.0934C326.258 89.2657 327.898 90.9717 329.099 93.2115C330.309 95.4513 330.914 98.1676 330.914 101.36ZM324.638 101.36C324.638 99.2922 324.328 97.5481 323.709 96.128C323.099 94.7079 322.236 93.6309 321.121 92.897C320.006 92.1631 318.7 91.7962 317.204 91.7962C315.708 91.7962 314.402 92.1631 313.287 92.897C312.172 93.6309 311.304 94.7079 310.685 96.128C310.075 97.5481 309.77 99.2922 309.77 101.36C309.77 103.429 310.075 105.173 310.685 106.593C311.304 108.013 312.172 109.09 313.287 109.824C314.402 110.558 315.708 110.925 317.204 110.925C318.7 110.925 320.006 110.558 321.121 109.824C322.236 109.09 323.099 108.013 323.709 106.593C324.328 105.173 324.638 103.429 324.638 101.36ZM354.914 96.1852C354.714 95.4894 354.433 94.8746 354.071 94.3409C353.709 93.7977 353.266 93.3402 352.741 92.9685C352.227 92.5872 351.636 92.2965 350.969 92.0964C350.311 91.8962 349.582 91.7962 348.781 91.7962C347.285 91.7962 345.97 92.1679 344.835 92.9113C343.711 93.6547 342.834 94.7364 342.205 96.1566C341.576 97.5671 341.261 99.2922 341.261 101.332C341.261 103.371 341.571 105.106 342.191 106.536C342.81 107.965 343.687 109.057 344.821 109.81C345.955 110.553 347.294 110.925 348.838 110.925C350.239 110.925 351.436 110.677 352.427 110.181C353.428 109.676 354.19 108.966 354.714 108.051C355.248 107.136 355.515 106.054 355.515 104.806L356.773 104.992H349.224V100.331H361.476V104.02C361.476 106.593 360.933 108.804 359.847 110.653C358.76 112.493 357.264 113.913 355.358 114.913C353.451 115.905 351.269 116.4 348.81 116.4C346.065 116.4 343.654 115.795 341.576 114.585C339.498 113.365 337.878 111.635 336.715 109.395C335.562 107.146 334.985 104.477 334.985 101.389C334.985 99.0158 335.328 96.9 336.015 95.0414C336.71 93.1734 337.682 91.5912 338.931 90.295C340.18 88.9988 341.633 88.0124 343.291 87.3357C344.95 86.659 346.746 86.3206 348.681 86.3206C350.34 86.3206 351.884 86.5637 353.313 87.0497C354.743 87.5263 356.01 88.203 357.116 89.0798C358.231 89.9567 359.141 91.0003 359.847 92.2107C360.552 93.4116 361.005 94.7364 361.205 96.1852H354.914ZM384.211 86.7209H390.402V105.735C390.402 107.87 389.892 109.738 388.872 111.339C387.862 112.941 386.446 114.189 384.626 115.085C382.806 115.971 380.685 116.415 378.264 116.415C375.834 116.415 373.708 115.971 371.888 115.085C370.067 114.189 368.652 112.941 367.642 111.339C366.632 109.738 366.126 107.87 366.126 105.735V86.7209H372.317V105.206C372.317 106.321 372.56 107.313 373.046 108.18C373.541 109.047 374.237 109.729 375.133 110.224C376.029 110.72 377.073 110.968 378.264 110.968C379.465 110.968 380.509 110.72 381.395 110.224C382.291 109.729 382.982 109.047 383.468 108.18C383.964 107.313 384.211 106.321 384.211 105.206V86.7209ZM395.495 116V86.7209H415.224V91.8247H401.685V98.8014H414.209V103.905H401.685V110.896H415.281V116H395.495Z" fill="url(#paint1_linear_1902_10)"/>
<path d="M2 131.5H42.5" stroke="white" stroke-width="4" stroke-linecap="round"/>
<circle cx="50" cy="132" r="2" fill="white"/>
<defs>
<linearGradient id="paint0_linear_1902_10" x1="2" y1="15.5" x2="213" y2="15.5" gradientUnits="userSpaceOnUse">
<stop stop-color="#00B1EF"/>
<stop offset="1" stop-color="#0060F2" stop-opacity="0"/>
</linearGradient>
<linearGradient id="paint1_linear_1902_10" x1="210" y1="82" x2="210" y2="121" gradientUnits="userSpaceOnUse">
<stop stop-color="#00B1EF"/>
<stop offset="1" stop-color="#00B1EF"/>
</linearGradient>
</defs>
</svg>
