<svg width="388" height="14" viewBox="0 0 388 14" fill="none" xmlns="http://www.w3.org/2000/svg">
<path d="M0.000439224 13.1914V0.177052H8.33776V2.15335H2.35802V5.68655H7.76584V7.66285H2.35802V13.1914H0.000439224ZM10.8435 13.1914V0.177052H13.2011V11.2151H18.933V13.1914H10.8435ZM32.4594 6.68423C32.4594 8.08649 32.1967 9.28752 31.6714 10.2873C31.1503 11.2829 30.4386 12.0454 29.5362 12.575C28.6381 13.1046 27.6192 13.3693 26.4796 13.3693C25.34 13.3693 24.319 13.1046 23.4167 12.575C22.5186 12.0412 21.8068 11.2765 21.2815 10.281C20.7604 9.28117 20.4999 8.08226 20.4999 6.68423C20.4999 5.28197 20.7604 4.08305 21.2815 3.08749C21.8068 2.08769 22.5186 1.32301 23.4167 0.793454C24.319 0.263898 25.34 -0.00087922 26.4796 -0.00087922C27.6192 -0.00087922 28.6381 0.263898 29.5362 0.793454C30.4386 1.32301 31.1503 2.08769 31.6714 3.08749C32.1967 4.08305 32.4594 5.28197 32.4594 6.68423ZM30.0891 6.68423C30.0891 5.69714 29.9344 4.86468 29.6252 4.18684C29.3202 3.50478 28.8965 2.99005 28.3543 2.64266C27.812 2.29104 27.1871 2.11522 26.4796 2.11522C25.7721 2.11522 25.1473 2.29104 24.605 2.64266C24.0627 2.99005 23.637 3.50478 23.3277 4.18684C23.0227 4.86468 22.8702 5.69714 22.8702 6.68423C22.8702 7.67132 23.0227 8.5059 23.3277 9.18797C23.637 9.8658 24.0627 10.3805 24.605 10.7322C25.1473 11.0795 25.7721 11.2532 26.4796 11.2532C27.1871 11.2532 27.812 11.0795 28.3543 10.7322C28.8965 10.3805 29.3202 9.8658 29.6252 9.18797C29.9344 8.5059 30.0891 7.67132 30.0891 6.68423ZM37.453 13.1914L33.78 0.177052H36.3155L38.6604 9.74082H38.7811L41.2849 0.177052H43.5916L46.1017 9.74718H46.2161L48.5609 0.177052H51.0965L47.4235 13.1914H45.0977L42.4922 4.05975H42.3906L39.7788 13.1914H37.453ZM57.8857 0.177052H60.7707L64.6344 9.60738H64.7869L68.6505 0.177052H71.5355V13.1914H69.2733V4.25039H69.1525L65.5558 13.1533H63.8655L60.2687 4.23133H60.148V13.1914H57.8857V0.177052ZM74.4607 13.1914V0.177052H82.9251V2.15335H76.8183V5.68655H82.4867V7.66285H76.8183V11.2151H82.976V13.1914H74.4607ZM85.1163 2.15335V0.177052H95.4999V2.15335H91.4774V13.1914H89.1389V2.15335H85.1163ZM97.8595 13.1914V0.177052H106.324V2.15335H100.217V5.68655H105.885V7.66285H100.217V11.2151H106.375V13.1914H97.8595ZM109.087 13.1914V0.177052H113.967C114.967 0.177052 115.806 0.350746 116.484 0.698134C117.166 1.04552 117.681 1.53271 118.028 2.15971C118.38 2.78246 118.555 3.50901 118.555 4.33936C118.555 5.17394 118.378 5.89837 118.022 6.51265C117.67 7.1227 117.151 7.59506 116.465 7.92974C115.779 8.26019 114.935 8.42541 113.936 8.42541H110.46V6.46817H113.618C114.203 6.46817 114.681 6.38768 115.054 6.22669C115.427 6.06147 115.702 5.82211 115.88 5.50862C116.062 5.19088 116.153 4.80113 116.153 4.33936C116.153 3.87759 116.062 3.4836 115.88 3.15739C115.698 2.82695 115.421 2.577 115.048 2.40754C114.675 2.23385 114.194 2.147 113.605 2.147H111.445V13.1914H109.087ZM115.81 7.29428L119.032 13.1914H116.401L113.237 7.29428H115.81ZM125.308 2.15335V0.177052H135.692V2.15335H131.669V13.1914H129.331V2.15335H125.308ZM138.051 13.1914V0.177052H146.516V2.15335H140.409V5.68655H146.077V7.66285H140.409V11.2151H146.567V13.1914H138.051ZM160.419 4.56813H158.042C157.974 4.17837 157.849 3.8331 157.667 3.53231C157.485 3.22729 157.258 2.96887 156.987 2.75705C156.716 2.54522 156.407 2.38636 156.059 2.28045C155.716 2.1703 155.345 2.11522 154.947 2.11522C154.24 2.11522 153.613 2.29316 153.066 2.64902C152.52 3.00064 152.092 3.51749 151.783 4.19955C151.473 4.87739 151.319 5.70561 151.319 6.68423C151.319 7.67979 151.473 8.51861 151.783 9.20068C152.096 9.87851 152.524 10.3911 153.066 10.7385C153.613 11.0817 154.238 11.2532 154.941 11.2532C155.331 11.2532 155.695 11.2024 156.034 11.1007C156.377 10.9948 156.684 10.8402 156.955 10.6368C157.231 10.4335 157.462 10.1835 157.648 9.88698C157.839 9.59043 157.97 9.25151 158.042 8.87023L160.419 8.88294C160.33 9.50146 160.137 10.0819 159.84 10.6241C159.548 11.1664 159.165 11.6451 158.69 12.0603C158.216 12.4712 157.661 12.7932 157.025 13.0262C156.39 13.255 155.684 13.3693 154.909 13.3693C153.765 13.3693 152.744 13.1046 151.846 12.575C150.948 12.0454 150.241 11.2808 149.724 10.281C149.207 9.28117 148.948 8.08226 148.948 6.68423C148.948 5.28197 149.209 4.08305 149.73 3.08749C150.251 2.08769 150.961 1.32301 151.859 0.793454C152.757 0.263898 153.774 -0.00087922 154.909 -0.00087922C155.634 -0.00087922 156.307 0.100795 156.93 0.304144C157.553 0.507494 158.108 0.806164 158.595 1.20015C159.082 1.58991 159.482 2.06862 159.796 2.63631C160.114 3.19975 160.321 3.84369 160.419 4.56813ZM162.936 13.1914V0.177052H165.293V5.68655H171.324V0.177052H173.688V13.1914H171.324V7.66285H165.293V13.1914H162.936ZM187.305 0.177052V13.1914H185.207L179.075 4.32665H178.967V13.1914H176.61V0.177052H178.719L184.845 9.04816H184.96V0.177052H187.305ZM192.589 0.177052V13.1914H190.231V0.177052H192.589ZM206.639 4.56813H204.263C204.195 4.17837 204.07 3.8331 203.888 3.53231C203.706 3.22729 203.479 2.96887 203.208 2.75705C202.937 2.54522 202.628 2.38636 202.28 2.28045C201.937 2.1703 201.566 2.11522 201.168 2.11522C200.461 2.11522 199.834 2.29316 199.287 2.64902C198.741 3.00064 198.313 3.51749 198.003 4.19955C197.694 4.87739 197.54 5.70561 197.54 6.68423C197.54 7.67979 197.694 8.51861 198.003 9.20068C198.317 9.87851 198.745 10.3911 199.287 10.7385C199.834 11.0817 200.459 11.2532 201.162 11.2532C201.552 11.2532 201.916 11.2024 202.255 11.1007C202.598 10.9948 202.905 10.8402 203.176 10.6368C203.452 10.4335 203.682 10.1835 203.869 9.88698C204.059 9.59043 204.191 9.25151 204.263 8.87023L206.639 8.88294C206.551 9.50146 206.358 10.0819 206.061 10.6241C205.769 11.1664 205.385 11.6451 204.911 12.0603C204.437 12.4712 203.882 12.7932 203.246 13.0262C202.611 13.255 201.905 13.3693 201.13 13.3693C199.986 13.3693 198.965 13.1046 198.067 12.575C197.169 12.0454 196.461 11.2808 195.945 10.281C195.428 9.28117 195.169 8.08226 195.169 6.68423C195.169 5.28197 195.43 4.08305 195.951 3.08749C196.472 2.08769 197.182 1.32301 198.08 0.793454C198.978 0.263898 199.995 -0.00087922 201.13 -0.00087922C201.854 -0.00087922 202.528 0.100795 203.151 0.304144C203.774 0.507494 204.329 0.806164 204.816 1.20015C205.303 1.58991 205.703 2.06862 206.017 2.63631C206.334 3.19975 206.542 3.84369 206.639 4.56813ZM210.67 13.1914H208.154L212.736 0.177052H215.646L220.234 13.1914H217.718L214.242 2.84601H214.14L210.67 13.1914ZM210.753 8.08861H217.616V9.9823H210.753V8.08861ZM222.306 13.1914V0.177052H224.664V11.2151H230.396V13.1914H222.306ZM244.669 3.75473C244.61 3.19975 244.36 2.76764 243.919 2.45838C243.483 2.14912 242.915 1.99449 242.216 1.99449C241.725 1.99449 241.303 2.06862 240.952 2.2169C240.6 2.36517 240.331 2.56641 240.145 2.82059C239.958 3.07478 239.863 3.36498 239.859 3.69118C239.859 3.96231 239.92 4.19744 240.043 4.39655C240.17 4.59566 240.342 4.76512 240.558 4.90492C240.774 5.04049 241.013 5.15487 241.276 5.24807C241.538 5.34128 241.803 5.41965 242.07 5.4832L243.29 5.78822C243.782 5.9026 244.254 6.05724 244.707 6.25211C245.165 6.44699 245.574 6.6927 245.934 6.98925C246.298 7.2858 246.586 7.64378 246.798 8.06319C247.01 8.4826 247.116 8.97403 247.116 9.53747C247.116 10.3 246.921 10.9715 246.531 11.5519C246.141 12.1281 245.578 12.5792 244.841 12.9054C244.108 13.2274 243.22 13.3884 242.178 13.3884C241.166 13.3884 240.287 13.2317 239.541 12.9182C238.8 12.6047 238.219 12.1471 237.8 11.5455C237.385 10.944 237.16 10.2111 237.126 9.34683H239.446C239.48 9.80013 239.619 10.1772 239.865 10.478C240.111 10.7788 240.431 11.0033 240.825 11.1516C241.223 11.2998 241.668 11.374 242.159 11.374C242.672 11.374 243.121 11.2977 243.506 11.1452C243.896 10.9885 244.201 10.7724 244.421 10.497C244.642 10.2174 244.754 9.89122 244.758 9.51841C244.754 9.17949 244.654 8.89989 244.459 8.67959C244.265 8.45506 243.991 8.26866 243.64 8.12038C243.292 7.96787 242.886 7.83231 242.42 7.71368L240.939 7.3324C239.867 7.05704 239.02 6.63975 238.397 6.08054C237.779 5.51709 237.469 4.76936 237.469 3.83734C237.469 3.07054 237.677 2.39907 238.092 1.82291C238.511 1.24675 239.081 0.799809 239.801 0.482075C240.522 0.160106 241.337 -0.00087922 242.248 -0.00087922C243.172 -0.00087922 243.981 0.160106 244.676 0.482075C245.375 0.799809 245.923 1.24252 246.321 1.8102C246.72 2.37365 246.925 3.02182 246.938 3.75473H244.669ZM249.575 13.1914V0.177052H254.456C255.456 0.177052 256.294 0.363455 256.972 0.736262C257.654 1.10907 258.169 1.62168 258.516 2.27409C258.868 2.92227 259.044 3.65941 259.044 4.48551C259.044 5.32009 258.868 6.06147 258.516 6.70965C258.165 7.35782 257.646 7.86831 256.96 8.24112C256.273 8.60969 255.428 8.79398 254.424 8.79398H251.189V6.8558H254.106C254.691 6.8558 255.17 6.75413 255.542 6.55078C255.915 6.34743 256.191 6.06783 256.369 5.71197C256.551 5.3561 256.642 4.94729 256.642 4.48551C256.642 4.02374 256.551 3.61704 256.369 3.26542C256.191 2.91379 255.913 2.64054 255.536 2.44567C255.163 2.24655 254.682 2.147 254.094 2.147H251.933V13.1914H249.575ZM261.45 13.1914V0.177052H269.914V2.15335H263.807V5.68655H269.475V7.66285H263.807V11.2151H269.965V13.1914H261.45ZM283.817 4.56813H281.44C281.372 4.17837 281.247 3.8331 281.065 3.53231C280.883 3.22729 280.656 2.96887 280.385 2.75705C280.114 2.54522 279.805 2.38636 279.458 2.28045C279.114 2.1703 278.744 2.11522 278.345 2.11522C277.638 2.11522 277.011 2.29316 276.464 2.64902C275.918 3.00064 275.49 3.51749 275.181 4.19955C274.872 4.87739 274.717 5.70561 274.717 6.68423C274.717 7.67979 274.872 8.51861 275.181 9.20068C275.494 9.87851 275.922 10.3911 276.464 10.7385C277.011 11.0817 277.636 11.2532 278.339 11.2532C278.729 11.2532 279.093 11.2024 279.432 11.1007C279.775 10.9948 280.082 10.8402 280.354 10.6368C280.629 10.4335 280.86 10.1835 281.046 9.88698C281.237 9.59043 281.368 9.25151 281.44 8.87023L283.817 8.88294C283.728 9.50146 283.535 10.0819 283.239 10.6241C282.946 11.1664 282.563 11.6451 282.088 12.0603C281.614 12.4712 281.059 12.7932 280.423 13.0262C279.788 13.255 279.083 13.3693 278.307 13.3693C277.163 13.3693 276.143 13.1046 275.244 12.575C274.346 12.0454 273.639 11.2808 273.122 10.281C272.605 9.28117 272.347 8.08226 272.347 6.68423C272.347 5.28197 272.607 4.08305 273.128 3.08749C273.649 2.08769 274.359 1.32301 275.257 0.793454C276.155 0.263898 277.172 -0.00087922 278.307 -0.00087922C279.032 -0.00087922 279.705 0.100795 280.328 0.304144C280.951 0.507494 281.506 0.806164 281.993 1.20015C282.48 1.58991 282.881 2.06862 283.194 2.63631C283.512 3.19975 283.719 3.84369 283.817 4.56813ZM288.691 0.177052V13.1914H286.334V0.177052H288.691ZM291.602 13.1914V0.177052H299.94V2.15335H293.96V5.68655H299.368V7.66285H293.96V13.1914H291.602ZM304.803 0.177052V13.1914H302.445V0.177052H304.803ZM318.853 4.56813H316.477C316.409 4.17837 316.284 3.8331 316.102 3.53231C315.92 3.22729 315.693 2.96887 315.422 2.75705C315.151 2.54522 314.842 2.38636 314.494 2.28045C314.151 2.1703 313.78 2.11522 313.382 2.11522C312.675 2.11522 312.048 2.29316 311.501 2.64902C310.955 3.00064 310.527 3.51749 310.217 4.19955C309.908 4.87739 309.754 5.70561 309.754 6.68423C309.754 7.67979 309.908 8.51861 310.217 9.20068C310.531 9.87851 310.959 10.3911 311.501 10.7385C312.048 11.0817 312.672 11.2532 313.376 11.2532C313.765 11.2532 314.13 11.2024 314.469 11.1007C314.812 10.9948 315.119 10.8402 315.39 10.6368C315.666 10.4335 315.896 10.1835 316.083 9.88698C316.273 9.59043 316.405 9.25151 316.477 8.87023L318.853 8.88294C318.764 9.50146 318.572 10.0819 318.275 10.6241C317.983 11.1664 317.599 11.6451 317.125 12.0603C316.651 12.4712 316.096 12.7932 315.46 13.0262C314.825 13.255 314.119 13.3693 313.344 13.3693C312.2 13.3693 311.179 13.1046 310.281 12.575C309.383 12.0454 308.675 11.2808 308.159 10.281C307.642 9.28117 307.383 8.08226 307.383 6.68423C307.383 5.28197 307.644 4.08305 308.165 3.08749C308.686 2.08769 309.396 1.32301 310.294 0.793454C311.192 0.263898 312.209 -0.00087922 313.344 -0.00087922C314.068 -0.00087922 314.742 0.100795 315.365 0.304144C315.988 0.507494 316.542 0.806164 317.03 1.20015C317.517 1.58991 317.917 2.06862 318.231 2.63631C318.548 3.19975 318.756 3.84369 318.853 4.56813ZM322.884 13.1914H320.368L324.95 0.177052H327.86L332.448 13.1914H329.932L326.456 2.84601H326.354L322.884 13.1914ZM322.967 8.08861H329.83V9.9823H322.967V8.08861ZM332.375 2.15335V0.177052H342.759V2.15335H338.737V13.1914H336.398V2.15335H332.375ZM347.476 0.177052V13.1914H345.119V0.177052H347.476ZM362.016 6.68423C362.016 8.08649 361.753 9.28752 361.228 10.2873C360.707 11.2829 359.995 12.0454 359.093 12.575C358.195 13.1046 357.176 13.3693 356.036 13.3693C354.897 13.3693 353.876 13.1046 352.973 12.575C352.075 12.0412 351.364 11.2765 350.838 10.281C350.317 9.28117 350.057 8.08226 350.057 6.68423C350.057 5.28197 350.317 4.08305 350.838 3.08749C351.364 2.08769 352.075 1.32301 352.973 0.793454C353.876 0.263898 354.897 -0.00087922 356.036 -0.00087922C357.176 -0.00087922 358.195 0.263898 359.093 0.793454C359.995 1.32301 360.707 2.08769 361.228 3.08749C361.753 4.08305 362.016 5.28197 362.016 6.68423ZM359.646 6.68423C359.646 5.69714 359.491 4.86468 359.182 4.18684C358.877 3.50478 358.453 2.99005 357.911 2.64266C357.369 2.29104 356.744 2.11522 356.036 2.11522C355.329 2.11522 354.704 2.29104 354.162 2.64266C353.62 2.99005 353.194 3.50478 352.884 4.18684C352.579 4.86468 352.427 5.69714 352.427 6.68423C352.427 7.67132 352.579 8.5059 352.884 9.18797C353.194 9.8658 353.62 10.3805 354.162 10.7322C354.704 11.0795 355.329 11.2532 356.036 11.2532C356.744 11.2532 357.369 11.0795 357.911 10.7322C358.453 10.3805 358.877 9.8658 359.182 9.18797C359.491 8.5059 359.646 7.67132 359.646 6.68423ZM375.298 0.177052V13.1914H373.201L367.069 4.32665H366.96V13.1914H364.603V0.177052H366.713L372.839 9.04816H372.953V0.177052H375.298ZM385.297 3.75473C385.238 3.19975 384.988 2.76764 384.547 2.45838C384.111 2.14912 383.543 1.99449 382.844 1.99449C382.353 1.99449 381.931 2.06862 381.58 2.2169C381.228 2.36517 380.959 2.56641 380.773 2.82059C380.586 3.07478 380.491 3.36498 380.487 3.69118C380.487 3.96231 380.548 4.19744 380.671 4.39655C380.798 4.59566 380.97 4.76512 381.186 4.90492C381.402 5.04049 381.641 5.15487 381.904 5.24807C382.167 5.34128 382.431 5.41965 382.698 5.4832L383.918 5.78822C384.41 5.9026 384.882 6.05724 385.335 6.25211C385.793 6.44699 386.202 6.6927 386.562 6.98925C386.926 7.2858 387.214 7.64378 387.426 8.06319C387.638 8.4826 387.744 8.97403 387.744 9.53747C387.744 10.3 387.549 10.9715 387.159 11.5519C386.769 12.1281 386.206 12.5792 385.469 12.9054C384.736 13.2274 383.848 13.3884 382.806 13.3884C381.794 13.3884 380.915 13.2317 380.169 12.9182C379.428 12.6047 378.847 12.1471 378.428 11.5455C378.013 10.944 377.788 10.2111 377.754 9.34683H380.074C380.108 9.80013 380.247 10.1772 380.493 10.478C380.739 10.7788 381.059 11.0033 381.453 11.1516C381.851 11.2998 382.296 11.374 382.787 11.374C383.3 11.374 383.749 11.2977 384.134 11.1452C384.524 10.9885 384.829 10.7724 385.05 10.497C385.27 10.2174 385.382 9.89122 385.386 9.51841C385.382 9.17949 385.283 8.89989 385.088 8.67959C384.893 8.45506 384.62 8.26866 384.268 8.12038C383.92 7.96787 383.514 7.83231 383.048 7.71368L381.567 7.3324C380.495 7.05704 379.648 6.63975 379.025 6.08054C378.407 5.51709 378.097 4.76936 378.097 3.83734C378.097 3.07054 378.305 2.39907 378.72 1.82291C379.14 1.24675 379.709 0.799809 380.43 0.482075C381.15 0.160106 381.965 -0.00087922 382.876 -0.00087922C383.8 -0.00087922 384.609 0.160106 385.304 0.482075C386.003 0.799809 386.551 1.24252 386.95 1.8102C387.348 2.37365 387.553 3.02182 387.566 3.75473H385.297Z" fill="black"/>
</svg>
