<svg width="376" height="63" viewBox="0 0 376 63" fill="none" xmlns="http://www.w3.org/2000/svg">
<path d="M1.57812 21V5H7.57813C8.80729 5 9.83854 5.22917 10.6719 5.6875C11.5104 6.14583 12.1432 6.77604 12.5703 7.57812C13.0026 8.375 13.2188 9.28125 13.2188 10.2969C13.2188 11.3229 13.0026 12.2344 12.5703 13.0313C12.138 13.8281 11.5 14.4557 10.6562 14.9141C9.8125 15.3672 8.77344 15.5937 7.53906 15.5937H3.5625V13.2109H7.14844C7.86719 13.2109 8.45573 13.0859 8.91406 12.8359C9.3724 12.5859 9.71094 12.2422 9.92969 11.8047C10.1536 11.3672 10.2656 10.8646 10.2656 10.2969C10.2656 9.72917 10.1536 9.22917 9.92969 8.79688C9.71094 8.36458 9.36979 8.02865 8.90625 7.78906C8.44792 7.54427 7.85677 7.42188 7.13281 7.42188H4.47656V21H1.57812ZM16.1763 21V5H22.1763C23.4055 5 24.4367 5.21354 25.2701 5.64062C26.1086 6.06771 26.7414 6.66667 27.1685 7.4375C27.6008 8.20312 27.817 9.09635 27.817 10.1172C27.817 11.1432 27.5982 12.0339 27.1607 12.7891C26.7284 13.5391 26.0904 14.1198 25.2466 14.5312C24.4029 14.9375 23.3664 15.1406 22.1373 15.1406H17.8638V12.7344H21.7466C22.4654 12.7344 23.0539 12.6354 23.5123 12.4375C23.9706 12.2344 24.3091 11.9401 24.5279 11.5547C24.7518 11.1641 24.8638 10.6849 24.8638 10.1172C24.8638 9.54948 24.7518 9.0651 24.5279 8.66406C24.3039 8.25781 23.9628 7.95052 23.5045 7.74219C23.0461 7.52865 22.455 7.42188 21.731 7.42188H19.0748V21H16.1763ZM24.442 13.75L28.4029 21H25.1685L21.2779 13.75H24.442ZM45.2218 13C45.2218 14.724 44.8989 16.2005 44.253 17.4297C43.6124 18.6536 42.7374 19.5911 41.628 20.2422C40.5239 20.8932 39.2713 21.2187 37.8702 21.2187C36.4692 21.2187 35.214 20.8932 34.1046 20.2422C33.0004 19.5859 32.1254 18.6458 31.4796 17.4219C30.839 16.1927 30.5187 14.7187 30.5187 13C30.5187 11.276 30.839 9.80208 31.4796 8.57812C32.1254 7.34896 33.0004 6.40885 34.1046 5.75781C35.214 5.10677 36.4692 4.78125 37.8702 4.78125C39.2713 4.78125 40.5239 5.10677 41.628 5.75781C42.7374 6.40885 43.6124 7.34896 44.253 8.57812C44.8989 9.80208 45.2218 11.276 45.2218 13ZM42.3077 13C42.3077 11.7865 42.1176 10.763 41.7374 9.92969C41.3624 9.09115 40.8416 8.45833 40.1749 8.03125C39.5083 7.59896 38.74 7.38281 37.8702 7.38281C37.0004 7.38281 36.2322 7.59896 35.5655 8.03125C34.8989 8.45833 34.3754 9.09115 33.9952 9.92969C33.6202 10.763 33.4327 11.7865 33.4327 13C33.4327 14.2135 33.6202 15.2396 33.9952 16.0781C34.3754 16.9115 34.8989 17.5443 35.5655 17.9766C36.2322 18.4036 37.0004 18.6172 37.8702 18.6172C38.74 18.6172 39.5083 18.4036 40.1749 17.9766C40.8416 17.5443 41.3624 16.9115 41.7374 16.0781C42.1176 15.2396 42.3077 14.2135 42.3077 13ZM53.8239 21H48.402V5H53.9333C55.5218 5 56.8864 5.32031 58.027 5.96094C59.1729 6.59635 60.0531 7.51042 60.6677 8.70312C61.2822 9.89583 61.5895 11.3229 61.5895 12.9844C61.5895 14.651 61.2796 16.0833 60.6598 17.2812C60.0453 18.4792 59.1572 19.3984 57.9958 20.0391C56.8395 20.6797 55.4489 21 53.8239 21ZM51.3005 18.4922H53.6833C54.7979 18.4922 55.7276 18.2891 56.4723 17.8828C57.2171 17.4714 57.777 16.8594 58.152 16.0469C58.527 15.2292 58.7145 14.2083 58.7145 12.9844C58.7145 11.7604 58.527 10.7448 58.152 9.9375C57.777 9.125 57.2223 8.51823 56.488 8.11719C55.7588 7.71094 54.8526 7.50781 53.7692 7.50781H51.3005V18.4922ZM74.8694 5H77.7678V15.4531C77.7678 16.599 77.497 17.6068 76.9553 18.4766C76.4189 19.3464 75.6636 20.026 74.6897 20.5156C73.7157 21 72.5777 21.2422 71.2756 21.2422C69.9683 21.2422 68.8277 21 67.8537 20.5156C66.8798 20.026 66.1246 19.3464 65.5881 18.4766C65.0517 17.6068 64.7834 16.599 64.7834 15.4531V5H67.6819V15.2109C67.6819 15.8776 67.8277 16.4714 68.1194 16.9922C68.4162 17.513 68.8329 17.9219 69.3694 18.2188C69.9058 18.5104 70.5412 18.6562 71.2756 18.6562C72.01 18.6562 72.6454 18.5104 73.1819 18.2188C73.7235 17.9219 74.1402 17.513 74.4319 16.9922C74.7235 16.4714 74.8694 15.8776 74.8694 15.2109V5ZM95.0535 10.3984H92.1316C92.0483 9.91927 91.8947 9.49479 91.6707 9.125C91.4467 8.75 91.1681 8.43229 90.8348 8.17187C90.5014 7.91146 90.1212 7.71615 89.6941 7.58594C89.2723 7.45052 88.8165 7.38281 88.327 7.38281C87.4572 7.38281 86.6863 7.60156 86.0145 8.03906C85.3426 8.47135 84.8165 9.10677 84.4363 9.94531C84.0561 10.7786 83.866 11.7969 83.866 13C83.866 14.224 84.0561 15.2552 84.4363 16.0937C84.8217 16.9271 85.3478 17.5573 86.0145 17.9844C86.6863 18.4062 87.4546 18.6172 88.3191 18.6172C88.7983 18.6172 89.2462 18.5547 89.6629 18.4297C90.0848 18.2995 90.4624 18.1094 90.7957 17.8594C91.1342 17.6094 91.4181 17.3021 91.6473 16.9375C91.8816 16.5729 92.0431 16.1562 92.1316 15.6875L95.0535 15.7031C94.9441 16.4635 94.7072 17.1771 94.3426 17.8438C93.9832 18.5104 93.5118 19.099 92.9285 19.6094C92.3452 20.1146 91.6629 20.5104 90.8816 20.7969C90.1004 21.0781 89.2332 21.2187 88.2801 21.2187C86.8738 21.2187 85.6186 20.8932 84.5145 20.2422C83.4103 19.5911 82.5405 18.651 81.9051 17.4219C81.2697 16.1927 80.952 14.7187 80.952 13C80.952 11.276 81.2723 9.80208 81.9129 8.57812C82.5535 7.34896 83.4259 6.40885 84.5301 5.75781C85.6342 5.10677 86.8842 4.78125 88.2801 4.78125C89.1707 4.78125 89.9988 4.90625 90.7645 5.15625C91.5301 5.40625 92.2124 5.77344 92.8113 6.25781C93.4103 6.73698 93.9025 7.32552 94.2879 8.02344C94.6785 8.71615 94.9337 9.50781 95.0535 10.3984ZM97.4447 7.42969V5H110.21V7.42969H105.265V21H102.39V7.42969H97.4447ZM127.704 9.39844C127.631 8.71615 127.323 8.1849 126.782 7.80469C126.245 7.42448 125.547 7.23437 124.688 7.23437C124.084 7.23437 123.566 7.32552 123.133 7.50781C122.701 7.6901 122.37 7.9375 122.141 8.25C121.912 8.5625 121.795 8.91927 121.79 9.32031C121.79 9.65365 121.865 9.94271 122.016 10.1875C122.172 10.4323 122.383 10.6406 122.649 10.8125C122.915 10.9792 123.209 11.1198 123.532 11.2344C123.855 11.349 124.18 11.4453 124.508 11.5234L126.008 11.8984C126.612 12.0391 127.193 12.2292 127.75 12.4687C128.313 12.7083 128.816 13.0104 129.258 13.375C129.706 13.7396 130.06 14.1797 130.321 14.6953C130.581 15.2109 130.711 15.8151 130.711 16.5078C130.711 17.4453 130.472 18.2708 129.993 18.9844C129.513 19.6927 128.821 20.2474 127.915 20.6484C127.013 21.0443 125.922 21.2422 124.641 21.2422C123.396 21.2422 122.316 21.0495 121.399 20.6641C120.487 20.2786 119.774 19.7161 119.258 18.9766C118.748 18.237 118.472 17.3359 118.43 16.2734H121.282C121.323 16.8307 121.495 17.2943 121.797 17.6641C122.099 18.0339 122.493 18.3099 122.977 18.4922C123.467 18.6745 124.013 18.7656 124.618 18.7656C125.248 18.7656 125.8 18.6719 126.274 18.4844C126.753 18.2917 127.128 18.026 127.399 17.6875C127.67 17.3437 127.808 16.9427 127.813 16.4844C127.808 16.0677 127.685 15.724 127.446 15.4531C127.206 15.1771 126.87 14.9479 126.438 14.7656C126.011 14.5781 125.511 14.4115 124.938 14.2656L123.118 13.7969C121.8 13.4583 120.758 12.9453 119.993 12.2578C119.232 11.5651 118.852 10.6458 118.852 9.5C118.852 8.55729 119.107 7.73177 119.618 7.02344C120.133 6.3151 120.834 5.76562 121.719 5.375C122.605 4.97917 123.607 4.78125 124.727 4.78125C125.862 4.78125 126.857 4.97917 127.711 5.375C128.571 5.76562 129.245 6.3099 129.735 7.00781C130.224 7.70052 130.477 8.4974 130.493 9.39844H127.704ZM133.735 21V5H144.142V7.42969H136.634V11.7734H143.603V14.2031H136.634V18.5703H144.204V21H133.735ZM147.539 21V5H150.437V18.5703H157.484V21H147.539ZM160.44 21V5H170.846V7.42969H163.338V11.7734H170.307V14.2031H163.338V18.5703H170.908V21H160.44ZM187.938 10.3984H185.016C184.933 9.91927 184.779 9.49479 184.555 9.125C184.331 8.75 184.053 8.43229 183.719 8.17187C183.386 7.91146 183.006 7.71615 182.579 7.58594C182.157 7.45052 181.701 7.38281 181.212 7.38281C180.342 7.38281 179.571 7.60156 178.899 8.03906C178.227 8.47135 177.701 9.10677 177.321 9.94531C176.941 10.7786 176.751 11.7969 176.751 13C176.751 14.224 176.941 15.2552 177.321 16.0937C177.706 16.9271 178.232 17.5573 178.899 17.9844C179.571 18.4062 180.339 18.6172 181.204 18.6172C181.683 18.6172 182.131 18.5547 182.548 18.4297C182.969 18.2995 183.347 18.1094 183.68 17.8594C184.019 17.6094 184.303 17.3021 184.532 16.9375C184.766 16.5729 184.928 16.1562 185.016 15.6875L187.938 15.7031C187.829 16.4635 187.592 17.1771 187.227 17.8438C186.868 18.5104 186.397 19.099 185.813 19.6094C185.23 20.1146 184.548 20.5104 183.766 20.7969C182.985 21.0781 182.118 21.2187 181.165 21.2187C179.759 21.2187 178.503 20.8932 177.399 20.2422C176.295 19.5911 175.425 18.651 174.79 17.4219C174.154 16.1927 173.837 14.7187 173.837 13C173.837 11.276 174.157 9.80208 174.798 8.57812C175.438 7.34896 176.311 6.40885 177.415 5.75781C178.519 5.10677 179.769 4.78125 181.165 4.78125C182.055 4.78125 182.884 4.90625 183.649 5.15625C184.415 5.40625 185.097 5.77344 185.696 6.25781C186.295 6.73698 186.787 7.32552 187.173 8.02344C187.563 8.71615 187.818 9.50781 187.938 10.3984ZM190.329 7.42969V5H203.095V7.42969H198.15V21H195.275V7.42969H190.329ZM208.894 5V21H205.996V5H208.894ZM226.77 13C226.77 14.724 226.447 16.2005 225.801 17.4297C225.161 18.6536 224.286 19.5911 223.176 20.2422C222.072 20.8932 220.819 21.2187 219.418 21.2187C218.017 21.2187 216.762 20.8932 215.653 20.2422C214.549 19.5859 213.674 18.6458 213.028 17.4219C212.387 16.1927 212.067 14.7187 212.067 13C212.067 11.276 212.387 9.80208 213.028 8.57812C213.674 7.34896 214.549 6.40885 215.653 5.75781C216.762 5.10677 218.017 4.78125 219.418 4.78125C220.819 4.78125 222.072 5.10677 223.176 5.75781C224.286 6.40885 225.161 7.34896 225.801 8.57812C226.447 9.80208 226.77 11.276 226.77 13ZM223.856 13C223.856 11.7865 223.666 10.763 223.286 9.92969C222.911 9.09115 222.39 8.45833 221.723 8.03125C221.056 7.59896 220.288 7.38281 219.418 7.38281C218.549 7.38281 217.78 7.59896 217.114 8.03125C216.447 8.45833 215.924 9.09115 215.543 9.92969C215.168 10.763 214.981 11.7865 214.981 13C214.981 14.2135 215.168 15.2396 215.543 16.0781C215.924 16.9115 216.447 17.5443 217.114 17.9766C217.78 18.4036 218.549 18.6172 219.418 18.6172C220.288 18.6172 221.056 18.4036 221.723 17.9766C222.39 17.5443 222.911 16.9115 223.286 16.0781C223.666 15.2396 223.856 14.2135 223.856 13ZM243.099 5V21H240.52L232.981 10.1016H232.849V21H229.95V5H232.544L240.075 15.9062H240.216V5H243.099Z" fill="black"/>
<path d="M1.111 43V36.092H5.313V36.829H1.969V39.128H5.082V39.865H1.969V43H1.111ZM6.87955 43V36.092H7.73755V43H6.87955ZM12.1736 43.132C11.7116 43.132 11.2881 43.0495 10.9031 42.8845C10.5181 42.7158 10.2082 42.4683 9.97356 42.142C9.7389 41.8157 9.6179 41.4123 9.61056 40.932H10.4466C10.4466 41.2547 10.5254 41.5205 10.6831 41.7295C10.8407 41.9348 11.0497 42.0888 11.3101 42.1915C11.5704 42.2905 11.8546 42.34 12.1626 42.34C12.4962 42.34 12.7859 42.2868 13.0316 42.1805C13.2772 42.0742 13.4661 41.9348 13.5981 41.7625C13.7337 41.5865 13.8016 41.394 13.8016 41.185C13.8016 40.8917 13.7117 40.6552 13.5321 40.4755C13.3524 40.2922 13.0866 40.1437 12.7346 40.03L11.5136 39.601C10.9416 39.3957 10.5089 39.161 10.2156 38.897C9.92223 38.633 9.77556 38.2627 9.77556 37.786C9.77556 37.2507 9.9809 36.8143 10.3916 36.477C10.8059 36.1397 11.3926 35.971 12.1516 35.971C12.8556 35.971 13.4056 36.1342 13.8016 36.4605C14.1976 36.7832 14.4249 37.2177 14.4836 37.764H13.6366C13.5816 37.445 13.4312 37.1975 13.1856 37.0215C12.9436 36.8418 12.5989 36.752 12.1516 36.752C11.6969 36.752 11.3431 36.8528 11.0901 37.0545C10.8371 37.2562 10.7106 37.511 10.7106 37.819C10.7106 38.072 10.7894 38.2737 10.9471 38.424C11.1084 38.5707 11.3596 38.7027 11.7006 38.82L13.1306 39.315C13.6256 39.48 14.0161 39.711 14.3021 40.008C14.5917 40.305 14.7366 40.69 14.7366 41.163C14.7366 41.5297 14.6376 41.8615 14.4396 42.1585C14.2452 42.4555 13.9574 42.692 13.5761 42.868C13.1947 43.044 12.7272 43.132 12.1736 43.132ZM15.567 36.829V36.092H20.946V36.829H18.4875L18.68 36.631V43H17.822V36.631L18.0145 36.829H15.567ZM24.5647 43.132C23.9927 43.132 23.4812 43 23.0302 42.736C22.5792 42.472 22.2236 42.076 21.9632 41.548C21.7029 41.0163 21.5727 40.3527 21.5727 39.557C21.5727 38.7503 21.7029 38.083 21.9632 37.555C22.2236 37.0233 22.5792 36.6273 23.0302 36.367C23.4812 36.103 23.9927 35.971 24.5647 35.971C25.1367 35.971 25.6482 36.103 26.0992 36.367C26.5502 36.631 26.9059 37.0288 27.1662 37.5605C27.4266 38.0922 27.5567 38.7577 27.5567 39.557C27.5567 40.36 27.4266 41.0273 27.1662 41.559C26.9059 42.087 26.5502 42.4812 26.0992 42.7415C25.6482 43.0018 25.1367 43.132 24.5647 43.132ZM24.5647 42.34C25.2137 42.34 25.7252 42.1035 26.0992 41.6305C26.4769 41.1575 26.6657 40.4627 26.6657 39.546C26.6657 38.6477 26.4769 37.9565 26.0992 37.4725C25.7252 36.9848 25.2137 36.741 24.5647 36.741C23.9231 36.741 23.4116 36.9848 23.0302 37.4725C22.6526 37.9602 22.4637 38.655 22.4637 39.557C22.4637 40.47 22.6526 41.163 23.0302 41.636C23.4116 42.1053 23.9231 42.34 24.5647 42.34ZM37.06 43V36.092H41.262V36.829H37.918V39.128H41.031V39.865H37.918V43H37.06ZM42.8285 43V35.498H43.6865V43H42.8285ZM47.8145 43.132C47.3415 43.132 46.9199 43.0275 46.5495 42.8185C46.1829 42.6095 45.8932 42.2997 45.6805 41.889C45.4679 41.4783 45.3615 40.9723 45.3615 40.371C45.3615 39.766 45.4679 39.26 45.6805 38.853C45.8932 38.4423 46.1829 38.1325 46.5495 37.9235C46.9199 37.7145 47.3415 37.61 47.8145 37.61C48.2839 37.61 48.7019 37.7145 49.0685 37.9235C49.4389 38.1325 49.7285 38.4423 49.9375 38.853C50.1502 39.26 50.2565 39.766 50.2565 40.371C50.2565 40.9723 50.1502 41.4783 49.9375 41.889C49.7285 42.2997 49.4389 42.6095 49.0685 42.8185C48.7019 43.0275 48.2839 43.132 47.8145 43.132ZM47.7925 42.384C48.1335 42.384 48.4232 42.3033 48.6615 42.142C48.8999 41.977 49.0795 41.7442 49.2005 41.4435C49.3252 41.1428 49.3875 40.7853 49.3875 40.371C49.3875 39.744 49.2574 39.2508 48.997 38.8915C48.7367 38.5285 48.3499 38.347 47.8365 38.347C47.4919 38.347 47.2004 38.4295 46.962 38.5945C46.7274 38.7558 46.5477 38.9887 46.423 39.293C46.302 39.5937 46.2415 39.953 46.2415 40.371C46.2415 40.9907 46.3717 41.482 46.632 41.845C46.896 42.2043 47.2829 42.384 47.7925 42.384ZM51.0142 37.742H51.9052L53.2472 42.131H53.1372L54.4462 37.995H55.1612L56.4592 42.142H56.3602L57.7022 37.742H58.5602L56.8332 43H55.9972L54.7212 39.117H54.8532L53.5882 43H52.7522L51.0142 37.742ZM67.7345 36.092H68.9665L71.3425 40.866H71.2545L73.6305 36.092H74.8295V43H73.9605V36.983H74.1145L71.5845 42.131H71.0125L68.4935 37.016H68.5925V43H67.7345V36.092ZM78.874 43.132C78.4193 43.132 78.0123 43.0165 77.653 42.7855C77.2973 42.5508 77.015 42.2263 76.806 41.812C76.6007 41.3977 76.498 40.921 76.498 40.382C76.498 39.8063 76.6007 39.3113 76.806 38.897C77.0113 38.4827 77.2918 38.1655 77.6475 37.9455C78.0068 37.7218 78.4157 37.61 78.874 37.61C79.2737 37.61 79.6147 37.6907 79.897 37.852C80.1793 38.0133 80.4067 38.2315 80.579 38.5065C80.7513 38.7815 80.8705 39.0932 80.9365 39.4415C81.0062 39.7862 81.0263 40.1437 80.997 40.514H77.191V39.986H80.4305L80.1775 40.151C80.1885 39.9347 80.1757 39.7183 80.139 39.502C80.106 39.2857 80.0418 39.0877 79.9465 38.908C79.8512 38.7247 79.7173 38.578 79.545 38.468C79.3727 38.358 79.1527 38.303 78.885 38.303C78.5477 38.303 78.2653 38.3892 78.038 38.5615C77.8107 38.7338 77.6402 38.9612 77.5265 39.2435C77.4128 39.5222 77.356 39.8247 77.356 40.151V40.503C77.356 40.8697 77.411 41.1978 77.521 41.4875C77.6347 41.7772 77.8033 42.0063 78.027 42.175C78.2507 42.3437 78.533 42.428 78.874 42.428C79.215 42.428 79.4955 42.3455 79.7155 42.1805C79.9355 42.0155 80.0693 41.7717 80.117 41.449H81.008C80.953 41.7973 80.8283 42.098 80.634 42.351C80.4397 42.6003 80.1922 42.7928 79.8915 42.9285C79.5908 43.0642 79.2517 43.132 78.874 43.132ZM84.3154 43.132C84.0294 43.132 83.7727 43.077 83.5454 42.967C83.3181 42.857 83.1384 42.692 83.0064 42.472C82.8744 42.252 82.8084 41.977 82.8084 41.647V36.279H83.6554V41.625C83.6554 42.1677 83.9084 42.439 84.4144 42.439C84.5647 42.439 84.7096 42.4225 84.8489 42.3895C84.9919 42.3565 85.1514 42.307 85.3274 42.241L85.4484 42.857C85.2614 42.9377 85.0744 43.0037 84.8874 43.055C84.7041 43.1063 84.5134 43.132 84.3154 43.132ZM81.9614 38.336V37.742H85.3164V38.336H81.9614ZM88.6601 43.132C88.2055 43.132 87.7985 43.0165 87.4391 42.7855C87.0835 42.5508 86.8011 42.2263 86.5921 41.812C86.3868 41.3977 86.2841 40.921 86.2841 40.382C86.2841 39.8063 86.3868 39.3113 86.5921 38.897C86.7975 38.4827 87.078 38.1655 87.4336 37.9455C87.793 37.7218 88.2018 37.61 88.6601 37.61C89.0598 37.61 89.4008 37.6907 89.6831 37.852C89.9655 38.0133 90.1928 38.2315 90.3651 38.5065C90.5375 38.7815 90.6566 39.0932 90.7226 39.4415C90.7923 39.7862 90.8125 40.1437 90.7831 40.514H86.9771V39.986H90.2166L89.9636 40.151C89.9746 39.9347 89.9618 39.7183 89.9251 39.502C89.8921 39.2857 89.828 39.0877 89.7326 38.908C89.6373 38.7247 89.5035 38.578 89.3311 38.468C89.1588 38.358 88.9388 38.303 88.6711 38.303C88.3338 38.303 88.0515 38.3892 87.8241 38.5615C87.5968 38.7338 87.4263 38.9612 87.3126 39.2435C87.199 39.5222 87.1421 39.8247 87.1421 40.151V40.503C87.1421 40.8697 87.1971 41.1978 87.3071 41.4875C87.4208 41.7772 87.5895 42.0063 87.8131 42.175C88.0368 42.3437 88.3191 42.428 88.6601 42.428C89.0011 42.428 89.2816 42.3455 89.5016 42.1805C89.7216 42.0155 89.8555 41.7717 89.9031 41.449H90.7941C90.7391 41.7973 90.6145 42.098 90.4201 42.351C90.2258 42.6003 89.9783 42.7928 89.6776 42.9285C89.377 43.0642 89.0378 43.132 88.6601 43.132ZM92.4845 43V37.731H93.3425V43H92.4845ZM93.0785 40.624C93.0785 39.9567 93.1427 39.403 93.271 38.963C93.3994 38.5193 93.5864 38.1893 93.832 37.973C94.0814 37.753 94.3839 37.643 94.7395 37.643C94.8569 37.643 94.9632 37.6522 95.0585 37.6705C95.1575 37.6852 95.2565 37.709 95.3555 37.742L95.3005 38.589C95.1979 38.556 95.086 38.5285 94.965 38.5065C94.844 38.4808 94.7359 38.468 94.6405 38.468C94.3289 38.468 94.0777 38.5578 93.887 38.7375C93.6964 38.9135 93.557 39.1628 93.469 39.4855C93.3847 39.8082 93.3425 40.1877 93.3425 40.624H93.0785ZM98.3511 43.132C97.8415 43.132 97.4161 43.0605 97.0751 42.9175C96.7341 42.7708 96.4756 42.571 96.2996 42.318C96.1236 42.0613 96.0301 41.768 96.0191 41.438H96.8441C96.8625 41.7717 96.9963 42.0228 97.2456 42.1915C97.4986 42.3565 97.8415 42.439 98.2741 42.439C98.5015 42.439 98.7105 42.4023 98.9011 42.329C99.0918 42.2557 99.244 42.1548 99.3576 42.0265C99.4713 41.8982 99.5281 41.7533 99.5281 41.592C99.5281 41.3867 99.453 41.2253 99.3026 41.108C99.1523 40.9907 98.9121 40.888 98.5821 40.8L97.5591 40.47C97.1155 40.3307 96.7745 40.14 96.5361 39.898C96.3015 39.6523 96.1841 39.359 96.1841 39.018C96.1841 38.5927 96.3711 38.2517 96.7451 37.995C97.1191 37.7383 97.6105 37.61 98.2191 37.61C98.8645 37.61 99.365 37.742 99.7206 38.006C100.076 38.27 100.261 38.6 100.276 38.996H99.4291C99.3961 38.765 99.2788 38.5908 99.0771 38.4735C98.8755 38.3525 98.5895 38.292 98.2191 38.292C97.8635 38.292 97.5848 38.3727 97.3831 38.534C97.1851 38.6917 97.0861 38.8677 97.0861 39.062C97.0861 39.425 97.3978 39.6927 98.0211 39.865L99.0661 40.217C99.5171 40.3527 99.8618 40.5305 100.1 40.7505C100.342 40.9705 100.463 41.251 100.463 41.592C100.463 41.856 100.377 42.1053 100.205 42.34C100.032 42.5747 99.7885 42.7653 99.4731 42.912C99.1578 43.0587 98.7838 43.132 98.3511 43.132ZM111.956 43.132C111.531 43.132 111.14 43.0183 110.785 42.791C110.429 42.56 110.145 42.2373 109.932 41.823C109.719 41.405 109.613 40.9137 109.613 40.349C109.613 39.788 109.718 39.3022 109.927 38.8915C110.136 38.4808 110.412 38.1655 110.757 37.9455C111.105 37.7218 111.487 37.61 111.901 37.61C112.286 37.61 112.623 37.7035 112.913 37.8905C113.206 38.0775 113.434 38.347 113.595 38.699C113.756 39.051 113.837 39.4763 113.837 39.975H113.507C113.507 39.6267 113.437 39.3333 113.298 39.095C113.162 38.8567 112.985 38.677 112.765 38.556C112.545 38.4313 112.308 38.369 112.055 38.369C111.769 38.369 111.507 38.4497 111.269 38.611C111.034 38.7687 110.845 38.996 110.702 39.293C110.563 39.5863 110.493 39.9383 110.493 40.349C110.493 40.767 110.563 41.1263 110.702 41.427C110.845 41.7277 111.034 41.9587 111.269 42.12C111.507 42.2813 111.769 42.362 112.055 42.362C112.293 42.362 112.523 42.2997 112.743 42.175C112.966 42.0503 113.15 41.8688 113.293 41.6305C113.436 41.3885 113.507 41.097 113.507 40.756H113.837C113.837 41.2657 113.753 41.6983 113.584 42.054C113.419 42.406 113.194 42.6737 112.908 42.857C112.625 43.0403 112.308 43.132 111.956 43.132ZM113.65 43L113.507 41.768V35.498H114.365V43H113.65ZM118.422 43.132C117.967 43.132 117.56 43.0165 117.201 42.7855C116.845 42.5508 116.563 42.2263 116.354 41.812C116.148 41.3977 116.046 40.921 116.046 40.382C116.046 39.8063 116.148 39.3113 116.354 38.897C116.559 38.4827 116.839 38.1655 117.195 37.9455C117.554 37.7218 117.963 37.61 118.422 37.61C118.821 37.61 119.162 37.6907 119.445 37.852C119.727 38.0133 119.954 38.2315 120.127 38.5065C120.299 38.7815 120.418 39.0932 120.484 39.4415C120.554 39.7862 120.574 40.1437 120.545 40.514H116.739V39.986H119.978L119.725 40.151C119.736 39.9347 119.723 39.7183 119.687 39.502C119.654 39.2857 119.589 39.0877 119.494 38.908C119.399 38.7247 119.265 38.578 119.093 38.468C118.92 38.358 118.7 38.303 118.433 38.303C118.095 38.303 117.813 38.3892 117.586 38.5615C117.358 38.7338 117.188 38.9612 117.074 39.2435C116.96 39.5222 116.904 39.8247 116.904 40.151V40.503C116.904 40.8697 116.959 41.1978 117.069 41.4875C117.182 41.7772 117.351 42.0063 117.575 42.175C117.798 42.3437 118.081 42.428 118.422 42.428C118.763 42.428 119.043 42.3455 119.263 42.1805C119.483 42.0155 119.617 41.7717 119.665 41.449H120.556C120.501 41.7973 120.376 42.098 120.182 42.351C119.987 42.6003 119.74 42.7928 119.439 42.9285C119.138 43.0642 118.799 43.132 118.422 43.132ZM122.246 43V35.498H123.104V43H122.246ZM125.813 36.499C125.637 36.499 125.498 36.4495 125.395 36.3505C125.292 36.2478 125.241 36.114 125.241 35.949C125.241 35.7877 125.292 35.6593 125.395 35.564C125.498 35.4687 125.637 35.421 125.813 35.421C125.989 35.421 126.128 35.4687 126.231 35.564C126.334 35.6593 126.385 35.7877 126.385 35.949C126.385 36.114 126.334 36.2478 126.231 36.3505C126.128 36.4495 125.989 36.499 125.813 36.499ZM125.384 43V37.731H126.242V43H125.384ZM127.692 37.742H128.671L130.321 42.263H130.2L131.85 37.742H132.829L130.728 43H129.793L127.692 37.742ZM135.964 43.132C135.509 43.132 135.102 43.0165 134.743 42.7855C134.387 42.5508 134.105 42.2263 133.896 41.812C133.69 41.3977 133.588 40.921 133.588 40.382C133.588 39.8063 133.69 39.3113 133.896 38.897C134.101 38.4827 134.381 38.1655 134.737 37.9455C135.096 37.7218 135.505 37.61 135.964 37.61C136.363 37.61 136.704 37.6907 136.987 37.852C137.269 38.0133 137.496 38.2315 137.669 38.5065C137.841 38.7815 137.96 39.0932 138.026 39.4415C138.096 39.7862 138.116 40.1437 138.087 40.514H134.281V39.986H137.52L137.267 40.151C137.278 39.9347 137.265 39.7183 137.229 39.502C137.196 39.2857 137.131 39.0877 137.036 38.908C136.941 38.7247 136.807 38.578 136.635 38.468C136.462 38.358 136.242 38.303 135.975 38.303C135.637 38.303 135.355 38.3892 135.128 38.5615C134.9 38.7338 134.73 38.9612 134.616 39.2435C134.502 39.5222 134.446 39.8247 134.446 40.151V40.503C134.446 40.8697 134.501 41.1978 134.611 41.4875C134.724 41.7772 134.893 42.0063 135.117 42.175C135.34 42.3437 135.623 42.428 135.964 42.428C136.305 42.428 136.585 42.3455 136.805 42.1805C137.025 42.0155 137.159 41.7717 137.207 41.449H138.098C138.043 41.7973 137.918 42.098 137.724 42.351C137.529 42.6003 137.282 42.7928 136.981 42.9285C136.68 43.0642 136.341 43.132 135.964 43.132ZM139.788 43V37.731H140.646V43H139.788ZM140.382 40.624C140.382 39.9567 140.446 39.403 140.575 38.963C140.703 38.5193 140.89 38.1893 141.136 37.973C141.385 37.753 141.687 37.643 142.043 37.643C142.16 37.643 142.267 37.6522 142.362 37.6705C142.461 37.6852 142.56 37.709 142.659 37.742L142.604 38.589C142.501 38.556 142.39 38.5285 142.269 38.5065C142.148 38.4808 142.039 38.468 141.944 38.468C141.632 38.468 141.381 38.5578 141.191 38.7375C141 38.9135 140.861 39.1628 140.773 39.4855C140.688 39.8082 140.646 40.1877 140.646 40.624H140.382ZM154.855 43L154.745 41.845V39.59C154.745 39.117 154.644 38.7778 154.443 38.5725C154.241 38.3635 153.939 38.259 153.535 38.259C153.308 38.259 153.101 38.292 152.914 38.358C152.73 38.424 152.584 38.5267 152.474 38.666C152.367 38.8017 152.314 38.9777 152.314 39.194H151.357C151.357 38.8127 151.451 38.5065 151.638 38.2755C151.825 38.0408 152.081 37.8722 152.408 37.7695C152.738 37.6632 153.114 37.61 153.535 37.61C153.939 37.61 154.296 37.6778 154.608 37.8135C154.919 37.9492 155.163 38.1655 155.339 38.4625C155.515 38.7558 155.603 39.139 155.603 39.612V43H154.855ZM153.062 43.132C152.63 43.132 152.272 43.055 151.99 42.901C151.707 42.747 151.497 42.5472 151.357 42.3015C151.218 42.0558 151.148 41.7973 151.148 41.526C151.148 41.1703 151.236 40.8807 151.412 40.657C151.592 40.4333 151.836 40.2702 152.144 40.1675C152.452 40.0612 152.798 40.008 153.183 40.008C153.458 40.008 153.733 40.0355 154.008 40.0905C154.287 40.1455 154.558 40.2207 154.822 40.316V40.855C154.602 40.767 154.353 40.6973 154.074 40.646C153.799 40.5947 153.546 40.569 153.315 40.569C152.963 40.569 152.666 40.6423 152.424 40.789C152.182 40.932 152.061 41.1777 152.061 41.526C152.061 41.7827 152.153 42.0027 152.336 42.186C152.523 42.3693 152.82 42.461 153.227 42.461C153.513 42.461 153.77 42.395 153.997 42.263C154.228 42.1273 154.41 41.9587 154.542 41.757C154.677 41.5553 154.745 41.3537 154.745 41.152H154.954C154.954 41.504 154.877 41.8303 154.723 42.131C154.573 42.4317 154.357 42.6737 154.074 42.857C153.792 43.0403 153.455 43.132 153.062 43.132ZM159.506 43.132C159.084 43.132 158.69 43.0183 158.323 42.791C157.96 42.5637 157.667 42.2428 157.443 41.8285C157.22 41.4142 157.108 40.9247 157.108 40.36C157.108 39.7807 157.22 39.2857 157.443 38.875C157.667 38.4643 157.96 38.1508 158.323 37.9345C158.69 37.7182 159.084 37.61 159.506 37.61C159.803 37.61 160.069 37.6558 160.303 37.7475C160.542 37.8355 160.749 37.9583 160.925 38.116C161.101 38.2737 161.246 38.4533 161.359 38.655C161.477 38.853 161.563 39.062 161.618 39.282L160.738 39.359C160.646 39.0547 160.492 38.8145 160.276 38.6385C160.063 38.4588 159.803 38.369 159.495 38.369C159.235 38.369 158.989 38.4442 158.758 38.5945C158.531 38.7412 158.345 38.963 158.202 39.26C158.059 39.5533 157.988 39.92 157.988 40.36C157.988 40.767 158.052 41.1208 158.18 41.4215C158.312 41.7185 158.492 41.9495 158.719 42.1145C158.947 42.2795 159.205 42.362 159.495 42.362C159.902 42.362 160.21 42.263 160.419 42.065C160.632 41.8633 160.738 41.5847 160.738 41.229H161.618C161.618 41.5957 161.532 41.922 161.359 42.208C161.187 42.494 160.941 42.7195 160.622 42.8845C160.307 43.0495 159.935 43.132 159.506 43.132ZM165.178 43.132C164.756 43.132 164.362 43.0183 163.995 42.791C163.632 42.5637 163.339 42.2428 163.115 41.8285C162.892 41.4142 162.78 40.9247 162.78 40.36C162.78 39.7807 162.892 39.2857 163.115 38.875C163.339 38.4643 163.632 38.1508 163.995 37.9345C164.362 37.7182 164.756 37.61 165.178 37.61C165.475 37.61 165.741 37.6558 165.975 37.7475C166.214 37.8355 166.421 37.9583 166.597 38.116C166.773 38.2737 166.918 38.4533 167.031 38.655C167.149 38.853 167.235 39.062 167.29 39.282L166.41 39.359C166.318 39.0547 166.164 38.8145 165.948 38.6385C165.735 38.4588 165.475 38.369 165.167 38.369C164.906 38.369 164.661 38.4442 164.43 38.5945C164.202 38.7412 164.017 38.963 163.874 39.26C163.731 39.5533 163.66 39.92 163.66 40.36C163.66 40.767 163.724 41.1208 163.852 41.4215C163.984 41.7185 164.164 41.9495 164.391 42.1145C164.619 42.2795 164.877 42.362 165.167 42.362C165.574 42.362 165.882 42.263 166.091 42.065C166.303 41.8633 166.41 41.5847 166.41 41.229H167.29C167.29 41.5957 167.204 41.922 167.031 42.208C166.859 42.494 166.613 42.7195 166.294 42.8845C165.979 43.0495 165.607 43.132 165.178 43.132ZM172.577 37.731H173.435V43H172.577V37.731ZM168.848 37.731H169.706V41.009C169.706 41.449 169.812 41.7827 170.025 42.01C170.241 42.2373 170.549 42.351 170.949 42.351C171.279 42.351 171.565 42.263 171.807 42.087C172.052 41.911 172.241 41.669 172.373 41.361C172.509 41.0493 172.577 40.6937 172.577 40.294H172.896C172.896 40.8843 172.809 41.3885 172.637 41.8065C172.468 42.2245 172.228 42.5453 171.917 42.769C171.609 42.989 171.246 43.099 170.828 43.099C170.432 43.099 170.085 43.0257 169.788 42.879C169.491 42.7323 169.26 42.5105 169.095 42.2135C168.93 41.9128 168.848 41.5333 168.848 41.075V37.731ZM175.662 43V37.731H176.52V43H175.662ZM176.256 40.624C176.256 39.9567 176.32 39.403 176.448 38.963C176.577 38.5193 176.764 38.1893 177.009 37.973C177.259 37.753 177.561 37.643 177.917 37.643C178.034 37.643 178.14 37.6522 178.236 37.6705C178.335 37.6852 178.434 37.709 178.533 37.742L178.478 38.589C178.375 38.556 178.263 38.5285 178.142 38.5065C178.021 38.4808 177.913 38.468 177.818 38.468C177.506 38.468 177.255 38.5578 177.064 38.7375C176.874 38.9135 176.734 39.1628 176.646 39.4855C176.562 39.8082 176.52 40.1877 176.52 40.624H176.256ZM182.892 43L182.782 41.845V39.59C182.782 39.117 182.682 38.7778 182.48 38.5725C182.278 38.3635 181.976 38.259 181.572 38.259C181.345 38.259 181.138 38.292 180.951 38.358C180.768 38.424 180.621 38.5267 180.511 38.666C180.405 38.8017 180.351 38.9777 180.351 39.194H179.394C179.394 38.8127 179.488 38.5065 179.675 38.2755C179.862 38.0408 180.119 37.8722 180.445 37.7695C180.775 37.6632 181.151 37.61 181.572 37.61C181.976 37.61 182.333 37.6778 182.645 37.8135C182.957 37.9492 183.2 38.1655 183.376 38.4625C183.552 38.7558 183.64 39.139 183.64 39.612V43H182.892ZM181.099 43.132C180.667 43.132 180.309 43.055 180.027 42.901C179.745 42.747 179.534 42.5472 179.394 42.3015C179.255 42.0558 179.185 41.7973 179.185 41.526C179.185 41.1703 179.273 40.8807 179.449 40.657C179.629 40.4333 179.873 40.2702 180.181 40.1675C180.489 40.0612 180.835 40.008 181.22 40.008C181.495 40.008 181.77 40.0355 182.045 40.0905C182.324 40.1455 182.595 40.2207 182.859 40.316V40.855C182.639 40.767 182.39 40.6973 182.111 40.646C181.836 40.5947 181.583 40.569 181.352 40.569C181 40.569 180.703 40.6423 180.461 40.789C180.219 40.932 180.098 41.1777 180.098 41.526C180.098 41.7827 180.19 42.0027 180.373 42.186C180.56 42.3693 180.857 42.461 181.264 42.461C181.55 42.461 181.807 42.395 182.034 42.263C182.265 42.1273 182.447 41.9587 182.579 41.757C182.715 41.5553 182.782 41.3537 182.782 41.152H182.991C182.991 41.504 182.914 41.8303 182.76 42.131C182.61 42.4317 182.394 42.6737 182.111 42.857C181.829 43.0403 181.492 43.132 181.099 43.132ZM187.312 43.132C187.026 43.132 186.769 43.077 186.542 42.967C186.315 42.857 186.135 42.692 186.003 42.472C185.871 42.252 185.805 41.977 185.805 41.647V36.279H186.652V41.625C186.652 42.1677 186.905 42.439 187.411 42.439C187.561 42.439 187.706 42.4225 187.845 42.3895C187.988 42.3565 188.148 42.307 188.324 42.241L188.445 42.857C188.258 42.9377 188.071 43.0037 187.884 43.055C187.701 43.1063 187.51 43.132 187.312 43.132ZM184.958 38.336V37.742H188.313V38.336H184.958ZM191.657 43.132C191.202 43.132 190.795 43.0165 190.436 42.7855C190.08 42.5508 189.798 42.2263 189.589 41.812C189.383 41.3977 189.281 40.921 189.281 40.382C189.281 39.8063 189.383 39.3113 189.589 38.897C189.794 38.4827 190.075 38.1655 190.43 37.9455C190.79 37.7218 191.198 37.61 191.657 37.61C192.056 37.61 192.397 37.6907 192.68 37.852C192.962 38.0133 193.189 38.2315 193.362 38.5065C193.534 38.7815 193.653 39.0932 193.719 39.4415C193.789 39.7862 193.809 40.1437 193.78 40.514H189.974V39.986H193.213L192.96 40.151C192.971 39.9347 192.958 39.7183 192.922 39.502C192.889 39.2857 192.825 39.0877 192.729 38.908C192.634 38.7247 192.5 38.578 192.328 38.468C192.155 38.358 191.935 38.303 191.668 38.303C191.33 38.303 191.048 38.3892 190.821 38.5615C190.593 38.7338 190.423 38.9612 190.309 39.2435C190.196 39.5222 190.139 39.8247 190.139 40.151V40.503C190.139 40.8697 190.194 41.1978 190.304 41.4875C190.417 41.7772 190.586 42.0063 190.81 42.175C191.033 42.3437 191.316 42.428 191.657 42.428C191.998 42.428 192.278 42.3455 192.498 42.1805C192.718 42.0155 192.852 41.7717 192.9 41.449H193.791C193.736 41.7973 193.611 42.098 193.417 42.351C193.222 42.6003 192.975 42.7928 192.674 42.9285C192.374 43.0642 192.034 43.132 191.657 43.132ZM203.604 43V36.928C203.604 36.5797 203.67 36.2955 203.802 36.0755C203.937 35.8518 204.117 35.6868 204.341 35.5805C204.568 35.4742 204.821 35.421 205.1 35.421C205.25 35.421 205.402 35.432 205.556 35.454C205.714 35.476 205.87 35.509 206.024 35.553L205.859 36.235C205.749 36.191 205.639 36.158 205.529 36.136C205.422 36.114 205.32 36.103 205.221 36.103C205.103 36.103 204.986 36.125 204.869 36.169C204.751 36.213 204.654 36.2955 204.577 36.4165C204.5 36.5375 204.462 36.7117 204.462 36.939V43H203.604ZM202.746 38.336V37.742H205.551V38.336H202.746ZM207.085 43V35.498H207.943V43H207.085ZM212.064 43.132C211.591 43.132 211.169 43.0275 210.799 42.8185C210.432 42.6095 210.142 42.2997 209.93 41.889C209.717 41.4783 209.611 40.9723 209.611 40.371C209.611 39.766 209.717 39.26 209.93 38.853C210.142 38.4423 210.432 38.1325 210.799 37.9235C211.169 37.7145 211.591 37.61 212.064 37.61C212.533 37.61 212.951 37.7145 213.318 37.9235C213.688 38.1325 213.978 38.4423 214.187 38.853C214.399 39.26 214.506 39.766 214.506 40.371C214.506 40.9723 214.399 41.4783 214.187 41.889C213.978 42.2997 213.688 42.6095 213.318 42.8185C212.951 43.0275 212.533 43.132 212.064 43.132ZM212.042 42.384C212.383 42.384 212.672 42.3033 212.911 42.142C213.149 41.977 213.329 41.7442 213.45 41.4435C213.574 41.1428 213.637 40.7853 213.637 40.371C213.637 39.744 213.506 39.2508 213.246 38.8915C212.986 38.5285 212.599 38.347 212.086 38.347C211.741 38.347 211.449 38.4295 211.211 38.5945C210.976 38.7558 210.797 38.9887 210.672 39.293C210.551 39.5937 210.491 39.953 210.491 40.371C210.491 40.9907 210.621 41.482 210.881 41.845C211.145 42.2043 211.532 42.384 212.042 42.384ZM215.263 37.742H216.154L217.496 42.131H217.386L218.695 37.995H219.41L220.708 42.142H220.609L221.951 37.742H222.809L221.082 43H220.246L218.97 39.117H219.102L217.837 43H217.001L215.263 37.742ZM239.376 43V39.909C239.376 39.4067 239.255 39.0253 239.013 38.765C238.774 38.501 238.452 38.369 238.045 38.369C237.568 38.369 237.203 38.5542 236.95 38.9245C236.697 39.2912 236.571 39.799 236.571 40.448H236.175C236.175 39.975 236.22 39.5607 236.312 39.205C236.407 38.8493 236.545 38.5542 236.725 38.3195C236.904 38.0812 237.122 37.9033 237.379 37.786C237.636 37.6687 237.927 37.61 238.254 37.61C238.668 37.61 239.022 37.7035 239.315 37.8905C239.612 38.0738 239.839 38.3378 239.997 38.6825C240.155 39.0272 240.234 39.436 240.234 39.909V43H239.376ZM231.984 43V37.742H232.721L232.82 38.798C232.985 38.4167 233.216 38.1233 233.513 37.918C233.813 37.7127 234.173 37.61 234.591 37.61C235.005 37.61 235.359 37.7035 235.652 37.8905C235.949 38.0738 236.176 38.3378 236.334 38.6825C236.492 39.0272 236.571 39.436 236.571 39.909V43H235.724V39.909C235.724 39.4067 235.603 39.0253 235.361 38.765C235.122 38.501 234.796 38.369 234.382 38.369C234.066 38.369 233.793 38.4552 233.562 38.6275C233.331 38.7998 233.153 39.0473 233.029 39.37C232.904 39.689 232.842 40.0703 232.842 40.514V43H231.984ZM244.101 43.132C243.646 43.132 243.239 43.0165 242.88 42.7855C242.524 42.5508 242.242 42.2263 242.033 41.812C241.827 41.3977 241.725 40.921 241.725 40.382C241.725 39.8063 241.827 39.3113 242.033 38.897C242.238 38.4827 242.518 38.1655 242.874 37.9455C243.233 37.7218 243.642 37.61 244.101 37.61C244.5 37.61 244.841 37.6907 245.124 37.852C245.406 38.0133 245.633 38.2315 245.806 38.5065C245.978 38.7815 246.097 39.0932 246.163 39.4415C246.233 39.7862 246.253 40.1437 246.224 40.514H242.418V39.986H245.657L245.404 40.151C245.415 39.9347 245.402 39.7183 245.366 39.502C245.333 39.2857 245.268 39.0877 245.173 38.908C245.078 38.7247 244.944 38.578 244.772 38.468C244.599 38.358 244.379 38.303 244.112 38.303C243.774 38.303 243.492 38.3892 243.265 38.5615C243.037 38.7338 242.867 38.9612 242.753 39.2435C242.639 39.5222 242.583 39.8247 242.583 40.151V40.503C242.583 40.8697 242.638 41.1978 242.748 41.4875C242.861 41.7772 243.03 42.0063 243.254 42.175C243.477 42.3437 243.76 42.428 244.101 42.428C244.442 42.428 244.722 42.3455 244.942 42.1805C245.162 42.0155 245.296 41.7717 245.344 41.449H246.235C246.18 41.7973 246.055 42.098 245.861 42.351C245.666 42.6003 245.419 42.7928 245.118 42.9285C244.817 43.0642 244.478 43.132 244.101 43.132ZM251.181 43L251.071 41.845V39.59C251.071 39.117 250.97 38.7778 250.768 38.5725C250.567 38.3635 250.264 38.259 249.861 38.259C249.634 38.259 249.426 38.292 249.239 38.358C249.056 38.424 248.909 38.5267 248.799 38.666C248.693 38.8017 248.64 38.9777 248.64 39.194H247.683C247.683 38.8127 247.776 38.5065 247.963 38.2755C248.15 38.0408 248.407 37.8722 248.733 37.7695C249.063 37.6632 249.439 37.61 249.861 37.61C250.264 37.61 250.622 37.6778 250.933 37.8135C251.245 37.9492 251.489 38.1655 251.665 38.4625C251.841 38.7558 251.929 39.139 251.929 39.612V43H251.181ZM249.388 43.132C248.955 43.132 248.598 43.055 248.315 42.901C248.033 42.747 247.822 42.5472 247.683 42.3015C247.544 42.0558 247.474 41.7973 247.474 41.526C247.474 41.1703 247.562 40.8807 247.738 40.657C247.918 40.4333 248.161 40.2702 248.469 40.1675C248.777 40.0612 249.124 40.008 249.509 40.008C249.784 40.008 250.059 40.0355 250.334 40.0905C250.613 40.1455 250.884 40.2207 251.148 40.316V40.855C250.928 40.767 250.679 40.6973 250.4 40.646C250.125 40.5947 249.872 40.569 249.641 40.569C249.289 40.569 248.992 40.6423 248.75 40.789C248.508 40.932 248.387 41.1777 248.387 41.526C248.387 41.7827 248.479 42.0027 248.662 42.186C248.849 42.3693 249.146 42.461 249.553 42.461C249.839 42.461 250.096 42.395 250.323 42.263C250.554 42.1273 250.735 41.9587 250.867 41.757C251.003 41.5553 251.071 41.3537 251.071 41.152H251.28C251.28 41.504 251.203 41.8303 251.049 42.131C250.899 42.4317 250.682 42.6737 250.4 42.857C250.118 43.0403 249.78 43.132 249.388 43.132ZM255.876 43.132C255.366 43.132 254.941 43.0605 254.6 42.9175C254.259 42.7708 254 42.571 253.824 42.318C253.648 42.0613 253.555 41.768 253.544 41.438H254.369C254.387 41.7717 254.521 42.0228 254.77 42.1915C255.023 42.3565 255.366 42.439 255.799 42.439C256.026 42.439 256.235 42.4023 256.426 42.329C256.616 42.2557 256.768 42.1548 256.882 42.0265C256.996 41.8982 257.053 41.7533 257.053 41.592C257.053 41.3867 256.977 41.2253 256.827 41.108C256.677 40.9907 256.437 40.888 256.107 40.8L255.084 40.47C254.64 40.3307 254.299 40.14 254.061 39.898C253.826 39.6523 253.709 39.359 253.709 39.018C253.709 38.5927 253.896 38.2517 254.27 37.995C254.644 37.7383 255.135 37.61 255.744 37.61C256.389 37.61 256.889 37.742 257.245 38.006C257.601 38.27 257.786 38.6 257.801 38.996H256.954C256.921 38.765 256.803 38.5908 256.602 38.4735C256.4 38.3525 256.114 38.292 255.744 38.292C255.388 38.292 255.109 38.3727 254.908 38.534C254.71 38.6917 254.611 38.8677 254.611 39.062C254.611 39.425 254.922 39.6927 255.546 39.865L256.591 40.217C257.042 40.3527 257.386 40.5305 257.625 40.7505C257.867 40.9705 257.988 41.251 257.988 41.592C257.988 41.856 257.901 42.1053 257.729 42.34C257.557 42.5747 257.313 42.7653 256.998 42.912C256.682 43.0587 256.308 43.132 255.876 43.132ZM263.338 37.731H264.196V43H263.338V37.731ZM259.609 37.731H260.467V41.009C260.467 41.449 260.573 41.7827 260.786 42.01C261.002 42.2373 261.31 42.351 261.71 42.351C262.04 42.351 262.326 42.263 262.568 42.087C262.814 41.911 263.002 41.669 263.134 41.361C263.27 41.0493 263.338 40.6937 263.338 40.294H263.657C263.657 40.8843 263.571 41.3885 263.398 41.8065C263.23 42.2245 262.99 42.5453 262.678 42.769C262.37 42.989 262.007 43.099 261.589 43.099C261.193 43.099 260.846 43.0257 260.549 42.879C260.252 42.7323 260.021 42.5105 259.856 42.2135C259.691 41.9128 259.609 41.5333 259.609 41.075V37.731ZM266.423 43V37.731H267.281V43H266.423ZM267.017 40.624C267.017 39.9567 267.081 39.403 267.21 38.963C267.338 38.5193 267.525 38.1893 267.771 37.973C268.02 37.753 268.322 37.643 268.678 37.643C268.795 37.643 268.902 37.6522 268.997 37.6705C269.096 37.6852 269.195 37.709 269.294 37.742L269.239 38.589C269.136 38.556 269.025 38.5285 268.904 38.5065C268.783 38.4808 268.674 38.468 268.579 38.468C268.267 38.468 268.016 38.5578 267.826 38.7375C267.635 38.9135 267.496 39.1628 267.408 39.4855C267.323 39.8082 267.281 40.1877 267.281 40.624H267.017ZM272.224 43.132C271.769 43.132 271.362 43.0165 271.003 42.7855C270.647 42.5508 270.365 42.2263 270.156 41.812C269.95 41.3977 269.848 40.921 269.848 40.382C269.848 39.8063 269.95 39.3113 270.156 38.897C270.361 38.4827 270.641 38.1655 270.997 37.9455C271.356 37.7218 271.765 37.61 272.224 37.61C272.623 37.61 272.964 37.6907 273.247 37.852C273.529 38.0133 273.756 38.2315 273.929 38.5065C274.101 38.7815 274.22 39.0932 274.286 39.4415C274.356 39.7862 274.376 40.1437 274.347 40.514H270.541V39.986H273.78L273.527 40.151C273.538 39.9347 273.525 39.7183 273.489 39.502C273.456 39.2857 273.391 39.0877 273.296 38.908C273.201 38.7247 273.067 38.578 272.895 38.468C272.722 38.358 272.502 38.303 272.235 38.303C271.897 38.303 271.615 38.3892 271.388 38.5615C271.16 38.7338 270.99 38.9612 270.876 39.2435C270.762 39.5222 270.706 39.8247 270.706 40.151V40.503C270.706 40.8697 270.761 41.1978 270.871 41.4875C270.984 41.7772 271.153 42.0063 271.377 42.175C271.6 42.3437 271.883 42.428 272.224 42.428C272.565 42.428 272.845 42.3455 273.065 42.1805C273.285 42.0155 273.419 41.7717 273.467 41.449H274.358C274.303 41.7973 274.178 42.098 273.984 42.351C273.789 42.6003 273.542 42.7928 273.241 42.9285C272.94 43.0642 272.601 43.132 272.224 43.132ZM283.44 43V39.909C283.44 39.4067 283.319 39.0253 283.077 38.765C282.839 38.501 282.516 38.369 282.109 38.369C281.632 38.369 281.268 38.5542 281.015 38.9245C280.762 39.2912 280.635 39.799 280.635 40.448H280.239C280.239 39.975 280.285 39.5607 280.377 39.205C280.472 38.8493 280.609 38.5542 280.789 38.3195C280.969 38.0812 281.187 37.9033 281.444 37.786C281.7 37.6687 281.992 37.61 282.318 37.61C282.732 37.61 283.086 37.7035 283.38 37.8905C283.677 38.0738 283.904 38.3378 284.062 38.6825C284.219 39.0272 284.298 39.436 284.298 39.909V43H283.44ZM276.048 43V37.742H276.785L276.884 38.798C277.049 38.4167 277.28 38.1233 277.577 37.918C277.878 37.7127 278.237 37.61 278.655 37.61C279.069 37.61 279.423 37.7035 279.717 37.8905C280.014 38.0738 280.241 38.3378 280.399 38.6825C280.556 39.0272 280.635 39.436 280.635 39.909V43H279.788V39.909C279.788 39.4067 279.667 39.0253 279.425 38.765C279.187 38.501 278.86 38.369 278.446 38.369C278.131 38.369 277.858 38.4552 277.627 38.6275C277.396 38.7998 277.218 39.0473 277.093 39.37C276.968 39.689 276.906 40.0703 276.906 40.514V43H276.048ZM288.165 43.132C287.71 43.132 287.303 43.0165 286.944 42.7855C286.588 42.5508 286.306 42.2263 286.097 41.812C285.892 41.3977 285.789 40.921 285.789 40.382C285.789 39.8063 285.892 39.3113 286.097 38.897C286.302 38.4827 286.583 38.1655 286.939 37.9455C287.298 37.7218 287.707 37.61 288.165 37.61C288.565 37.61 288.906 37.6907 289.188 37.852C289.47 38.0133 289.698 38.2315 289.87 38.5065C290.042 38.7815 290.162 39.0932 290.228 39.4415C290.297 39.7862 290.317 40.1437 290.288 40.514H286.482V39.986H289.722L289.469 40.151C289.48 39.9347 289.467 39.7183 289.43 39.502C289.397 39.2857 289.333 39.0877 289.238 38.908C289.142 38.7247 289.008 38.578 288.836 38.468C288.664 38.358 288.444 38.303 288.176 38.303C287.839 38.303 287.556 38.3892 287.329 38.5615C287.102 38.7338 286.931 38.9612 286.818 39.2435C286.704 39.5222 286.647 39.8247 286.647 40.151V40.503C286.647 40.8697 286.702 41.1978 286.812 41.4875C286.926 41.7772 287.094 42.0063 287.318 42.175C287.542 42.3437 287.824 42.428 288.165 42.428C288.506 42.428 288.787 42.3455 289.007 42.1805C289.227 42.0155 289.36 41.7717 289.408 41.449H290.299C290.244 41.7973 290.119 42.098 289.925 42.351C289.731 42.6003 289.483 42.7928 289.183 42.9285C288.882 43.0642 288.543 43.132 288.165 43.132ZM295.729 43V39.909C295.729 39.4067 295.608 39.0253 295.366 38.765C295.128 38.501 294.802 38.369 294.387 38.369C294.072 38.369 293.799 38.4552 293.568 38.6275C293.337 38.7998 293.159 39.0473 293.034 39.37C292.91 39.689 292.847 40.0703 292.847 40.514H292.517C292.517 39.9017 292.598 39.3792 292.759 38.9465C292.921 38.5138 293.155 38.1838 293.463 37.9565C293.775 37.7255 294.153 37.61 294.596 37.61C295.011 37.61 295.365 37.7035 295.658 37.8905C295.955 38.0738 296.182 38.3378 296.34 38.6825C296.498 39.0272 296.576 39.436 296.576 39.909V43H295.729ZM291.989 43V37.742H292.726L292.847 38.952V43H291.989ZM300.245 43.132C299.959 43.132 299.702 43.077 299.475 42.967C299.248 42.857 299.068 42.692 298.936 42.472C298.804 42.252 298.738 41.977 298.738 41.647V36.279H299.585V41.625C299.585 42.1677 299.838 42.439 300.344 42.439C300.494 42.439 300.639 42.4225 300.779 42.3895C300.922 42.3565 301.081 42.307 301.257 42.241L301.378 42.857C301.191 42.9377 301.004 43.0037 300.817 43.055C300.634 43.1063 300.443 43.132 300.245 43.132ZM297.891 38.336V37.742H301.246V38.336H297.891ZM309.688 37.742H310.579L311.921 42.131H311.811L313.12 37.995H313.835L315.133 42.142H315.034L316.376 37.742H317.234L315.507 43H314.671L313.395 39.117H313.527L312.262 43H311.426L309.688 37.742ZM319.055 36.499C318.879 36.499 318.74 36.4495 318.637 36.3505C318.535 36.2478 318.483 36.114 318.483 35.949C318.483 35.7877 318.535 35.6593 318.637 35.564C318.74 35.4687 318.879 35.421 319.055 35.421C319.231 35.421 319.371 35.4687 319.473 35.564C319.576 35.6593 319.627 35.7877 319.627 35.949C319.627 36.114 319.576 36.2478 319.473 36.3505C319.371 36.4495 319.231 36.499 319.055 36.499ZM318.626 43V37.731H319.484V43H318.626ZM323.465 43.132C323.179 43.132 322.922 43.077 322.695 42.967C322.467 42.857 322.288 42.692 322.156 42.472C322.024 42.252 321.958 41.977 321.958 41.647V36.279H322.805V41.625C322.805 42.1677 323.058 42.439 323.564 42.439C323.714 42.439 323.859 42.4225 323.998 42.3895C324.141 42.3565 324.301 42.307 324.477 42.241L324.598 42.857C324.411 42.9377 324.224 43.0037 324.037 43.055C323.853 43.1063 323.663 43.132 323.465 43.132ZM321.111 38.336V37.742H324.466V38.336H321.111ZM329.723 43V39.909C329.723 39.4067 329.602 39.0253 329.36 38.765C329.122 38.501 328.796 38.369 328.381 38.369C328.066 38.369 327.793 38.4552 327.562 38.6275C327.331 38.7998 327.153 39.0473 327.028 39.37C326.904 39.689 326.841 40.0703 326.841 40.514H326.511C326.511 39.9017 326.592 39.3792 326.753 38.9465C326.915 38.5138 327.149 38.1838 327.457 37.9565C327.769 37.7255 328.147 37.61 328.59 37.61C329.005 37.61 329.358 37.7035 329.652 37.8905C329.949 38.0738 330.176 38.3378 330.334 38.6825C330.491 39.0272 330.57 39.436 330.57 39.909V43H329.723ZM325.983 43V35.498H326.841V43H325.983ZM340.745 43V36.928C340.745 36.5797 340.811 36.2955 340.943 36.0755C341.078 35.8518 341.258 35.6868 341.482 35.5805C341.709 35.4742 341.962 35.421 342.241 35.421C342.391 35.421 342.543 35.432 342.697 35.454C342.855 35.476 343.011 35.509 343.165 35.553L343 36.235C342.89 36.191 342.78 36.158 342.67 36.136C342.563 36.114 342.461 36.103 342.362 36.103C342.244 36.103 342.127 36.125 342.01 36.169C341.892 36.213 341.795 36.2955 341.718 36.4165C341.641 36.5375 341.603 36.7117 341.603 36.939V43H340.745ZM339.887 38.336V37.742H342.692V38.336H339.887ZM344.226 43V35.498H345.084V43H344.226ZM349.127 43.132C348.673 43.132 348.266 43.0165 347.906 42.7855C347.551 42.5508 347.268 42.2263 347.059 41.812C346.854 41.3977 346.751 40.921 346.751 40.382C346.751 39.8063 346.854 39.3113 347.059 38.897C347.265 38.4827 347.545 38.1655 347.901 37.9455C348.26 37.7218 348.669 37.61 349.127 37.61C349.527 37.61 349.868 37.6907 350.15 37.852C350.433 38.0133 350.66 38.2315 350.832 38.5065C351.005 38.7815 351.124 39.0932 351.19 39.4415C351.26 39.7862 351.28 40.1437 351.25 40.514H347.444V39.986H350.684L350.431 40.151C350.442 39.9347 350.429 39.7183 350.392 39.502C350.359 39.2857 350.295 39.0877 350.2 38.908C350.105 38.7247 349.971 38.578 349.798 38.468C349.626 38.358 349.406 38.303 349.138 38.303C348.801 38.303 348.519 38.3892 348.291 38.5615C348.064 38.7338 347.894 38.9612 347.78 39.2435C347.666 39.5222 347.609 39.8247 347.609 40.151V40.503C347.609 40.8697 347.664 41.1978 347.774 41.4875C347.888 41.7772 348.057 42.0063 348.28 42.175C348.504 42.3437 348.786 42.428 349.127 42.428C349.468 42.428 349.749 42.3455 349.969 42.1805C350.189 42.0155 350.323 41.7717 350.37 41.449H351.261C351.206 41.7973 351.082 42.098 350.887 42.351C350.693 42.6003 350.446 42.7928 350.145 42.9285C349.844 43.0642 349.505 43.132 349.127 43.132ZM352.127 43L354.118 40.371L352.127 37.731H353.172L354.679 39.722L356.131 37.731H357.176L355.174 40.371L357.165 43H356.12L354.613 40.998L353.172 43H352.127ZM359.065 36.499C358.889 36.499 358.749 36.4495 358.647 36.3505C358.544 36.2478 358.493 36.114 358.493 35.949C358.493 35.7877 358.544 35.6593 358.647 35.564C358.749 35.4687 358.889 35.421 359.065 35.421C359.241 35.421 359.38 35.4687 359.483 35.564C359.585 35.6593 359.637 35.7877 359.637 35.949C359.637 36.114 359.585 36.2478 359.483 36.3505C359.38 36.4495 359.241 36.499 359.065 36.499ZM358.636 43V37.731H359.494V43H358.636ZM364.266 43.132C363.914 43.132 363.595 43.0403 363.309 42.857C363.027 42.6737 362.801 42.406 362.633 42.054C362.468 41.6983 362.385 41.2657 362.385 40.756H362.715C362.715 41.097 362.785 41.3885 362.924 41.6305C363.067 41.8688 363.25 42.0503 363.474 42.175C363.698 42.2997 363.932 42.362 364.178 42.362C364.46 42.362 364.719 42.2813 364.954 42.12C365.188 41.9587 365.375 41.7277 365.515 41.427C365.658 41.1263 365.729 40.767 365.729 40.349C365.729 39.9383 365.659 39.5863 365.52 39.293C365.381 38.996 365.192 38.7687 364.954 38.611C364.719 38.4497 364.457 38.369 364.167 38.369C363.918 38.369 363.681 38.4313 363.458 38.556C363.238 38.677 363.058 38.8567 362.919 39.095C362.783 39.3333 362.715 39.6267 362.715 39.975H362.385C362.385 39.4763 362.466 39.051 362.627 38.699C362.792 38.347 363.019 38.0775 363.309 37.8905C363.599 37.7035 363.936 37.61 364.321 37.61C364.735 37.61 365.115 37.7218 365.46 37.9455C365.808 38.1655 366.087 38.4808 366.296 38.8915C366.505 39.3022 366.609 39.788 366.609 40.349C366.609 40.9137 366.503 41.405 366.29 41.823C366.077 42.2373 365.793 42.56 365.438 42.791C365.082 43.0183 364.691 43.132 364.266 43.132ZM361.857 43V35.498H362.715V41.768L362.462 43H361.857ZM368.378 43V35.498H369.236V43H368.378ZM373.287 43.132C372.832 43.132 372.425 43.0165 372.066 42.7855C371.71 42.5508 371.428 42.2263 371.219 41.812C371.013 41.3977 370.911 40.921 370.911 40.382C370.911 39.8063 371.013 39.3113 371.219 38.897C371.424 38.4827 371.704 38.1655 372.06 37.9455C372.419 37.7218 372.828 37.61 373.287 37.61C373.686 37.61 374.027 37.6907 374.31 37.852C374.592 38.0133 374.819 38.2315 374.992 38.5065C375.164 38.7815 375.283 39.0932 375.349 39.4415C375.419 39.7862 375.439 40.1437 375.41 40.514H371.604V39.986H374.843L374.59 40.151C374.601 39.9347 374.588 39.7183 374.552 39.502C374.519 39.2857 374.454 39.0877 374.359 38.908C374.264 38.7247 374.13 38.578 373.958 38.468C373.785 38.358 373.565 38.303 373.298 38.303C372.96 38.303 372.678 38.3892 372.451 38.5615C372.223 38.7338 372.053 38.9612 371.939 39.2435C371.825 39.5222 371.769 39.8247 371.769 40.151V40.503C371.769 40.8697 371.824 41.1978 371.934 41.4875C372.047 41.7772 372.216 42.0063 372.44 42.175C372.663 42.3437 372.946 42.428 373.287 42.428C373.628 42.428 373.908 42.3455 374.128 42.1805C374.348 42.0155 374.482 41.7717 374.53 41.449H375.421C375.366 41.7973 375.241 42.098 375.047 42.351C374.852 42.6003 374.605 42.7928 374.304 42.9285C374.003 43.0642 373.664 43.132 373.287 43.132ZM3.014 59.132C2.541 59.132 2.11933 59.0275 1.749 58.8185C1.38233 58.6095 1.09267 58.2997 0.88 57.889C0.667333 57.4783 0.561 56.9723 0.561 56.371C0.561 55.766 0.667333 55.26 0.88 54.853C1.09267 54.4423 1.38233 54.1325 1.749 53.9235C2.11933 53.7145 2.541 53.61 3.014 53.61C3.48333 53.61 3.90133 53.7145 4.268 53.9235C4.63833 54.1325 4.928 54.4423 5.137 54.853C5.34967 55.26 5.456 55.766 5.456 56.371C5.456 56.9723 5.34967 57.4783 5.137 57.889C4.928 58.2997 4.63833 58.6095 4.268 58.8185C3.90133 59.0275 3.48333 59.132 3.014 59.132ZM2.992 58.384C3.333 58.384 3.62267 58.3033 3.861 58.142C4.09933 57.977 4.279 57.7442 4.4 57.4435C4.52467 57.1428 4.587 56.7853 4.587 56.371C4.587 55.744 4.45683 55.2508 4.1965 54.8915C3.93617 54.5285 3.54933 54.347 3.036 54.347C2.69133 54.347 2.39983 54.4295 2.1615 54.5945C1.92683 54.7558 1.74717 54.9887 1.6225 55.293C1.5015 55.5937 1.441 55.953 1.441 56.371C1.441 56.9907 1.57117 57.482 1.8315 57.845C2.0955 58.2043 2.48233 58.384 2.992 58.384ZM10.7016 53.731H11.5596V59H10.7016V53.731ZM6.97263 53.731H7.83063V57.009C7.83063 57.449 7.93696 57.7827 8.14963 58.01C8.36596 58.2373 8.67396 58.351 9.07363 58.351C9.40363 58.351 9.68963 58.263 9.93163 58.087C10.1773 57.911 10.3661 57.669 10.4981 57.361C10.6338 57.0493 10.7016 56.6937 10.7016 56.294H11.0206C11.0206 56.8843 10.9345 57.3885 10.7621 57.8065C10.5935 58.2245 10.3533 58.5453 10.0416 58.769C9.73363 58.989 9.37063 59.099 8.95263 59.099C8.55663 59.099 8.21013 59.0257 7.91313 58.879C7.61613 58.7323 7.38513 58.5105 7.22013 58.2135C7.05513 57.9128 6.97263 57.5333 6.97263 57.075V53.731ZM15.4038 59.132C15.1178 59.132 14.8611 59.077 14.6338 58.967C14.4064 58.857 14.2268 58.692 14.0948 58.472C13.9628 58.252 13.8968 57.977 13.8968 57.647V52.279H14.7438V57.625C14.7438 58.1677 14.9968 58.439 15.5028 58.439C15.6531 58.439 15.7979 58.4225 15.9373 58.3895C16.0803 58.3565 16.2398 58.307 16.4158 58.241L16.5368 58.857C16.3498 58.9377 16.1628 59.0037 15.9758 59.055C15.7924 59.1063 15.6018 59.132 15.4038 59.132ZM13.0498 54.336V53.742H16.4048V54.336H13.0498ZM20.3095 59.132C19.9245 59.132 19.589 59.044 19.303 58.868C19.0207 58.692 18.8025 58.4353 18.6485 58.098C18.4945 57.757 18.4175 57.3427 18.4175 56.855H18.7805C18.7805 57.1813 18.8484 57.4563 18.984 57.68C19.1197 57.9037 19.2957 58.0742 19.512 58.1915C19.732 58.3052 19.9649 58.362 20.2105 58.362C20.4745 58.362 20.7275 58.2868 20.9695 58.1365C21.2115 57.9825 21.4095 57.757 21.5635 57.46C21.7175 57.163 21.7945 56.7963 21.7945 56.36C21.7945 55.942 21.723 55.5845 21.58 55.2875C21.4407 54.9905 21.2519 54.7632 21.0135 54.6055C20.7752 54.4478 20.5112 54.369 20.2215 54.369C19.9722 54.369 19.7375 54.4295 19.5175 54.5505C19.2975 54.6715 19.1197 54.8493 18.984 55.084C18.8484 55.315 18.7805 55.601 18.7805 55.942H18.4175C18.4175 55.4323 18.5019 55.0052 18.6705 54.6605C18.8392 54.3122 19.0684 54.05 19.358 53.874C19.6477 53.698 19.9722 53.61 20.3315 53.61C20.7422 53.61 21.1254 53.72 21.481 53.94C21.8367 54.16 22.1245 54.4753 22.3445 54.886C22.5645 55.2967 22.6745 55.788 22.6745 56.36C22.6745 56.9393 22.5627 57.4362 22.339 57.8505C22.119 58.2648 21.8294 58.582 21.47 58.802C21.1107 59.022 20.7239 59.132 20.3095 59.132ZM17.9225 61.585V53.742H18.6375L18.7805 54.974V61.585H17.9225ZM27.9321 53.731H28.7901V59H27.9321V53.731ZM24.2031 53.731H25.0611V57.009C25.0611 57.449 25.1674 57.7827 25.3801 58.01C25.5964 58.2373 25.9044 58.351 26.3041 58.351C26.6341 58.351 26.9201 58.263 27.1621 58.087C27.4078 57.911 27.5966 57.669 27.7286 57.361C27.8643 57.0493 27.9321 56.6937 27.9321 56.294H28.2511C28.2511 56.8843 28.1649 57.3885 27.9926 57.8065C27.8239 58.2245 27.5838 58.5453 27.2721 58.769C26.9641 58.989 26.6011 59.099 26.1831 59.099C25.7871 59.099 25.4406 59.0257 25.1436 58.879C24.8466 58.7323 24.6156 58.5105 24.4506 58.2135C24.2856 57.9128 24.2031 57.5333 24.2031 57.075V53.731ZM32.6343 59.132C32.3483 59.132 32.0916 59.077 31.8643 58.967C31.6369 58.857 31.4573 58.692 31.3253 58.472C31.1933 58.252 31.1273 57.977 31.1273 57.647V52.279H31.9743V57.625C31.9743 58.1677 32.2273 58.439 32.7332 58.439C32.8836 58.439 33.0284 58.4225 33.1678 58.3895C33.3108 58.3565 33.4703 58.307 33.6463 58.241L33.7673 58.857C33.5803 58.9377 33.3933 59.0037 33.2063 59.055C33.0229 59.1063 32.8323 59.132 32.6343 59.132ZM30.2803 54.336V53.742H33.6353V54.336H30.2803ZM37.045 59.132C36.5353 59.132 36.11 59.0605 35.769 58.9175C35.428 58.7708 35.1695 58.571 34.9935 58.318C34.8175 58.0613 34.724 57.768 34.713 57.438H35.538C35.5563 57.7717 35.6902 58.0228 35.9395 58.1915C36.1925 58.3565 36.5353 58.439 36.968 58.439C37.1953 58.439 37.4043 58.4023 37.595 58.329C37.7857 58.2557 37.9378 58.1548 38.0515 58.0265C38.1652 57.8982 38.222 57.7533 38.222 57.592C38.222 57.3867 38.1468 57.2253 37.9965 57.108C37.8462 56.9907 37.606 56.888 37.276 56.8L36.253 56.47C35.8093 56.3307 35.4683 56.14 35.23 55.898C34.9953 55.6523 34.878 55.359 34.878 55.018C34.878 54.5927 35.065 54.2517 35.439 53.995C35.813 53.7383 36.3043 53.61 36.913 53.61C37.5583 53.61 38.0588 53.742 38.4145 54.006C38.7702 54.27 38.9553 54.6 38.97 54.996H38.123C38.09 54.765 37.9727 54.5908 37.771 54.4735C37.5693 54.3525 37.2833 54.292 36.913 54.292C36.5573 54.292 36.2787 54.3727 36.077 54.534C35.879 54.6917 35.78 54.8677 35.78 55.062C35.78 55.425 36.0917 55.6927 36.715 55.865L37.76 56.217C38.211 56.3527 38.5557 56.5305 38.794 56.7505C39.036 56.9705 39.157 57.251 39.157 57.592C39.157 57.856 39.0708 58.1053 38.8985 58.34C38.7262 58.5747 38.4823 58.7653 38.167 58.912C37.8517 59.0587 37.4777 59.132 37.045 59.132ZM40.8003 60.199L40.1513 59.88C40.3603 59.7737 40.5363 59.6563 40.6793 59.528C40.826 59.3997 40.9213 59.242 40.9653 59.055C40.8076 59.0367 40.672 58.9798 40.5583 58.8845C40.4483 58.7892 40.3933 58.6627 40.3933 58.505C40.3933 58.351 40.4501 58.219 40.5638 58.109C40.6811 57.999 40.8296 57.944 41.0093 57.944C41.2366 57.944 41.42 58.0265 41.5593 58.1915C41.6986 58.3565 41.7683 58.5527 41.7683 58.78C41.7683 59.0477 41.6858 59.3098 41.5208 59.5665C41.3595 59.8268 41.1193 60.0377 40.8003 60.199ZM53.2335 59V55.909C53.2335 55.4067 53.1125 55.0253 52.8705 54.765C52.6321 54.501 52.3095 54.369 51.9025 54.369C51.4258 54.369 51.061 54.5542 50.808 54.9245C50.555 55.2912 50.4285 55.799 50.4285 56.448H50.0325C50.0325 55.975 50.0783 55.5607 50.17 55.205C50.2653 54.8493 50.4028 54.5542 50.5825 54.3195C50.7621 54.0812 50.9803 53.9033 51.237 53.786C51.4936 53.6687 51.7851 53.61 52.1115 53.61C52.5258 53.61 52.8796 53.7035 53.173 53.8905C53.47 54.0738 53.6973 54.3378 53.855 54.6825C54.0126 55.0272 54.0915 55.436 54.0915 55.909V59H53.2335ZM45.8415 59V53.742H46.5785L46.6775 54.798C46.8425 54.4167 47.0735 54.1233 47.3705 53.918C47.6711 53.7127 48.0305 53.61 48.4485 53.61C48.8628 53.61 49.2166 53.7035 49.51 53.8905C49.807 54.0738 50.0343 54.3378 50.192 54.6825C50.3496 55.0272 50.4285 55.436 50.4285 55.909V59H49.5815V55.909C49.5815 55.4067 49.4605 55.0253 49.2185 54.765C48.9801 54.501 48.6538 54.369 48.2395 54.369C47.9241 54.369 47.651 54.4552 47.42 54.6275C47.189 54.7998 47.0111 55.0473 46.8865 55.37C46.7618 55.689 46.6995 56.0703 46.6995 56.514V59H45.8415ZM59.7075 53.731H60.5655V59H59.7075V53.731ZM55.9785 53.731H56.8365V57.009C56.8365 57.449 56.9428 57.7827 57.1555 58.01C57.3718 58.2373 57.6798 58.351 58.0795 58.351C58.4095 58.351 58.6955 58.263 58.9375 58.087C59.1832 57.911 59.372 57.669 59.504 57.361C59.6397 57.0493 59.7075 56.6937 59.7075 56.294H60.0265C60.0265 56.8843 59.9403 57.3885 59.768 57.8065C59.5993 58.2245 59.3592 58.5453 59.0475 58.769C58.7395 58.989 58.3765 59.099 57.9585 59.099C57.5625 59.099 57.216 59.0257 56.919 58.879C56.622 58.7323 56.391 58.5105 56.226 58.2135C56.061 57.9128 55.9785 57.5333 55.9785 57.075V53.731ZM62.7926 59V51.498H63.6506V59H62.7926ZM67.4926 59.132C67.2066 59.132 66.95 59.077 66.7226 58.967C66.4953 58.857 66.3156 58.692 66.1836 58.472C66.0516 58.252 65.9856 57.977 65.9856 57.647V52.279H66.8326V57.625C66.8326 58.1677 67.0856 58.439 67.5916 58.439C67.742 58.439 67.8868 58.4225 68.0261 58.3895C68.1691 58.3565 68.3286 58.307 68.5046 58.241L68.6256 58.857C68.4386 58.9377 68.2516 59.0037 68.0646 59.055C67.8813 59.1063 67.6906 59.132 67.4926 59.132ZM65.1386 54.336V53.742H68.4936V54.336H65.1386ZM70.4954 52.499C70.3194 52.499 70.1801 52.4495 70.0774 52.3505C69.9747 52.2478 69.9234 52.114 69.9234 51.949C69.9234 51.7877 69.9747 51.6593 70.0774 51.564C70.1801 51.4687 70.3194 51.421 70.4954 51.421C70.6714 51.421 70.8107 51.4687 70.9134 51.564C71.0161 51.6593 71.0674 51.7877 71.0674 51.949C71.0674 52.114 71.0161 52.2478 70.9134 52.3505C70.8107 52.4495 70.6714 52.499 70.4954 52.499ZM70.0664 59V53.731H70.9244V59H70.0664ZM75.6748 59.132C75.2898 59.132 74.9543 59.044 74.6683 58.868C74.3859 58.692 74.1678 58.4353 74.0138 58.098C73.8598 57.757 73.7828 57.3427 73.7828 56.855H74.1458C74.1458 57.1813 74.2136 57.4563 74.3493 57.68C74.4849 57.9037 74.6609 58.0742 74.8773 58.1915C75.0973 58.3052 75.3301 58.362 75.5758 58.362C75.8398 58.362 76.0928 58.2868 76.3348 58.1365C76.5768 57.9825 76.7748 57.757 76.9288 57.46C77.0828 57.163 77.1598 56.7963 77.1598 56.36C77.1598 55.942 77.0883 55.5845 76.9453 55.2875C76.8059 54.9905 76.6171 54.7632 76.3788 54.6055C76.1404 54.4478 75.8764 54.369 75.5868 54.369C75.3374 54.369 75.1028 54.4295 74.8828 54.5505C74.6628 54.6715 74.4849 54.8493 74.3493 55.084C74.2136 55.315 74.1458 55.601 74.1458 55.942H73.7828C73.7828 55.4323 73.8671 55.0052 74.0358 54.6605C74.2044 54.3122 74.4336 54.05 74.7233 53.874C75.0129 53.698 75.3374 53.61 75.6968 53.61C76.1074 53.61 76.4906 53.72 76.8463 53.94C77.2019 54.16 77.4898 54.4753 77.7098 54.886C77.9298 55.2967 78.0398 55.788 78.0398 56.36C78.0398 56.9393 77.9279 57.4362 77.7043 57.8505C77.4843 58.2648 77.1946 58.582 76.8353 58.802C76.4759 59.022 76.0891 59.132 75.6748 59.132ZM73.2878 61.585V53.742H74.0028L74.1458 54.974V61.585H73.2878ZM79.7223 59V51.498H80.5803V59H79.7223ZM84.6313 59.132C84.1767 59.132 83.7697 59.0165 83.4103 58.7855C83.0547 58.5508 82.7723 58.2263 82.5633 57.812C82.358 57.3977 82.2553 56.921 82.2553 56.382C82.2553 55.8063 82.358 55.3113 82.5633 54.897C82.7687 54.4827 83.0492 54.1655 83.4048 53.9455C83.7642 53.7218 84.173 53.61 84.6313 53.61C85.031 53.61 85.372 53.6907 85.6543 53.852C85.9367 54.0133 86.164 54.2315 86.3363 54.5065C86.5087 54.7815 86.6278 55.0932 86.6938 55.4415C86.7635 55.7862 86.7837 56.1437 86.7543 56.514H82.9483V55.986H86.1878L85.9348 56.151C85.9458 55.9347 85.933 55.7183 85.8963 55.502C85.8633 55.2857 85.7992 55.0877 85.7038 54.908C85.6085 54.7247 85.4747 54.578 85.3023 54.468C85.13 54.358 84.91 54.303 84.6423 54.303C84.305 54.303 84.0227 54.3892 83.7953 54.5615C83.568 54.7338 83.3975 54.9612 83.2838 55.2435C83.1702 55.5222 83.1133 55.8247 83.1133 56.151V56.503C83.1133 56.8697 83.1683 57.1978 83.2783 57.4875C83.392 57.7772 83.5607 58.0063 83.7843 58.175C84.008 58.3437 84.2903 58.428 84.6313 58.428C84.9723 58.428 85.2528 58.3455 85.4728 58.1805C85.6928 58.0155 85.8267 57.7717 85.8743 57.449H86.7653C86.7103 57.7973 86.5857 58.098 86.3913 58.351C86.197 58.6003 85.9495 58.7928 85.6488 58.9285C85.3482 59.0642 85.009 59.132 84.6313 59.132ZM92.9581 59.132C92.4484 59.132 92.0231 59.0605 91.6821 58.9175C91.3411 58.7708 91.0826 58.571 90.9066 58.318C90.7306 58.0613 90.6371 57.768 90.6261 57.438H91.4511C91.4694 57.7717 91.6032 58.0228 91.8526 58.1915C92.1056 58.3565 92.4484 58.439 92.8811 58.439C93.1084 58.439 93.3174 58.4023 93.5081 58.329C93.6987 58.2557 93.8509 58.1548 93.9646 58.0265C94.0782 57.8982 94.1351 57.7533 94.1351 57.592C94.1351 57.3867 94.0599 57.2253 93.9096 57.108C93.7592 56.9907 93.5191 56.888 93.1891 56.8L92.1661 56.47C91.7224 56.3307 91.3814 56.14 91.1431 55.898C90.9084 55.6523 90.7911 55.359 90.7911 55.018C90.7911 54.5927 90.9781 54.2517 91.3521 53.995C91.7261 53.7383 92.2174 53.61 92.8261 53.61C93.4714 53.61 93.9719 53.742 94.3276 54.006C94.6832 54.27 94.8684 54.6 94.8831 54.996H94.0361C94.0031 54.765 93.8857 54.5908 93.6841 54.4735C93.4824 54.3525 93.1964 54.292 92.8261 54.292C92.4704 54.292 92.1917 54.3727 91.9901 54.534C91.7921 54.6917 91.6931 54.8677 91.6931 55.062C91.6931 55.425 92.0047 55.6927 92.6281 55.865L93.6731 56.217C94.1241 56.3527 94.4687 56.5305 94.7071 56.7505C94.9491 56.9705 95.0701 57.251 95.0701 57.592C95.0701 57.856 94.9839 58.1053 94.8116 58.34C94.6392 58.5747 94.3954 58.7653 94.0801 58.912C93.7647 59.0587 93.3907 59.132 92.9581 59.132ZM97.3294 52.499C97.1534 52.499 97.014 52.4495 96.9114 52.3505C96.8087 52.2478 96.7574 52.114 96.7574 51.949C96.7574 51.7877 96.8087 51.6593 96.9114 51.564C97.014 51.4687 97.1534 51.421 97.3294 51.421C97.5054 51.421 97.6447 51.4687 97.7474 51.564C97.85 51.6593 97.9014 51.7877 97.9014 51.949C97.9014 52.114 97.85 52.2478 97.7474 52.3505C97.6447 52.4495 97.5054 52.499 97.3294 52.499ZM96.9004 59V53.731H97.7584V59H96.9004ZM99.5937 59V58.307L102.696 54.435H99.5937V53.742H103.664V54.435L100.606 58.307H103.664V59H99.5937ZM107.168 59.132C106.714 59.132 106.307 59.0165 105.947 58.7855C105.592 58.5508 105.309 58.2263 105.1 57.812C104.895 57.3977 104.792 56.921 104.792 56.382C104.792 55.8063 104.895 55.3113 105.1 54.897C105.306 54.4827 105.586 54.1655 105.942 53.9455C106.301 53.7218 106.71 53.61 107.168 53.61C107.568 53.61 107.909 53.6907 108.191 53.852C108.474 54.0133 108.701 54.2315 108.873 54.5065C109.046 54.7815 109.165 55.0932 109.231 55.4415C109.301 55.7862 109.321 56.1437 109.291 56.514H105.485V55.986H108.725L108.472 56.151C108.483 55.9347 108.47 55.7183 108.433 55.502C108.4 55.2857 108.336 55.0877 108.241 54.908C108.146 54.7247 108.012 54.578 107.839 54.468C107.667 54.358 107.447 54.303 107.179 54.303C106.842 54.303 106.56 54.3892 106.332 54.5615C106.105 54.7338 105.935 54.9612 105.821 55.2435C105.707 55.5222 105.65 55.8247 105.65 56.151V56.503C105.65 56.8697 105.705 57.1978 105.815 57.4875C105.929 57.7772 106.098 58.0063 106.321 58.175C106.545 58.3437 106.827 58.428 107.168 58.428C107.509 58.428 107.79 58.3455 108.01 58.1805C108.23 58.0155 108.364 57.7717 108.411 57.449H109.302C109.247 57.7973 109.123 58.098 108.928 58.351C108.734 58.6003 108.487 58.7928 108.186 58.9285C107.885 59.0642 107.546 59.132 107.168 59.132ZM112.885 59.132C112.375 59.132 111.95 59.0605 111.609 58.9175C111.268 58.7708 111.009 58.571 110.833 58.318C110.657 58.0613 110.564 57.768 110.553 57.438H111.378C111.396 57.7717 111.53 58.0228 111.779 58.1915C112.032 58.3565 112.375 58.439 112.808 58.439C113.035 58.439 113.244 58.4023 113.435 58.329C113.626 58.2557 113.778 58.1548 113.891 58.0265C114.005 57.8982 114.062 57.7533 114.062 57.592C114.062 57.3867 113.987 57.2253 113.836 57.108C113.686 56.9907 113.446 56.888 113.116 56.8L112.093 56.47C111.649 56.3307 111.308 56.14 111.07 55.898C110.835 55.6523 110.718 55.359 110.718 55.018C110.718 54.5927 110.905 54.2517 111.279 53.995C111.653 53.7383 112.144 53.61 112.753 53.61C113.398 53.61 113.899 53.742 114.254 54.006C114.61 54.27 114.795 54.6 114.81 54.996H113.963C113.93 54.765 113.813 54.5908 113.611 54.4735C113.409 54.3525 113.123 54.292 112.753 54.292C112.397 54.292 112.119 54.3727 111.917 54.534C111.719 54.6917 111.62 54.8677 111.62 55.062C111.62 55.425 111.932 55.6927 112.555 55.865L113.6 56.217C114.051 56.3527 114.396 56.5305 114.634 56.7505C114.876 56.9705 114.997 57.251 114.997 57.592C114.997 57.856 114.911 58.1053 114.738 58.34C114.566 58.5747 114.322 58.7653 114.007 58.912C113.692 59.0587 113.318 59.132 112.885 59.132ZM116.64 60.199L115.991 59.88C116.2 59.7737 116.376 59.6563 116.519 59.528C116.666 59.3997 116.761 59.242 116.805 59.055C116.647 59.0367 116.512 58.9798 116.398 58.8845C116.288 58.7892 116.233 58.6627 116.233 58.505C116.233 58.351 116.29 58.219 116.404 58.109C116.521 57.999 116.669 57.944 116.849 57.944C117.076 57.944 117.26 58.0265 117.399 58.1915C117.538 58.3565 117.608 58.5527 117.608 58.78C117.608 59.0477 117.526 59.3098 117.361 59.5665C117.199 59.8268 116.959 60.0377 116.64 60.199ZM124.937 59L124.827 57.845V55.59C124.827 55.117 124.726 54.7778 124.525 54.5725C124.323 54.3635 124.021 54.259 123.617 54.259C123.39 54.259 123.183 54.292 122.996 54.358C122.812 54.424 122.666 54.5267 122.556 54.666C122.449 54.8017 122.396 54.9777 122.396 55.194H121.439C121.439 54.8127 121.533 54.5065 121.72 54.2755C121.907 54.0408 122.163 53.8722 122.49 53.7695C122.82 53.6632 123.196 53.61 123.617 53.61C124.021 53.61 124.378 53.6778 124.69 53.8135C125.001 53.9492 125.245 54.1655 125.421 54.4625C125.597 54.7558 125.685 55.139 125.685 55.612V59H124.937ZM123.144 59.132C122.712 59.132 122.354 59.055 122.072 58.901C121.789 58.747 121.579 58.5472 121.439 58.3015C121.3 58.0558 121.23 57.7973 121.23 57.526C121.23 57.1703 121.318 56.8807 121.494 56.657C121.674 56.4333 121.918 56.2702 122.226 56.1675C122.534 56.0612 122.88 56.008 123.265 56.008C123.54 56.008 123.815 56.0355 124.09 56.0905C124.369 56.1455 124.64 56.2207 124.904 56.316V56.855C124.684 56.767 124.435 56.6973 124.156 56.646C123.881 56.5947 123.628 56.569 123.397 56.569C123.045 56.569 122.748 56.6423 122.506 56.789C122.264 56.932 122.143 57.1777 122.143 57.526C122.143 57.7827 122.235 58.0027 122.418 58.186C122.605 58.3693 122.902 58.461 123.309 58.461C123.595 58.461 123.852 58.395 124.079 58.263C124.31 58.1273 124.492 57.9587 124.624 57.757C124.759 57.5553 124.827 57.3537 124.827 57.152H125.036C125.036 57.504 124.959 57.8303 124.805 58.131C124.655 58.4317 124.439 58.6737 124.156 58.857C123.874 59.0403 123.537 59.132 123.144 59.132ZM131.48 59V55.909C131.48 55.4067 131.359 55.0253 131.117 54.765C130.879 54.501 130.552 54.369 130.138 54.369C129.823 54.369 129.549 54.4552 129.318 54.6275C129.087 54.7998 128.91 55.0473 128.785 55.37C128.66 55.689 128.598 56.0703 128.598 56.514H128.268C128.268 55.9017 128.349 55.3792 128.51 54.9465C128.671 54.5138 128.906 54.1838 129.214 53.9565C129.526 53.7255 129.903 53.61 130.347 53.61C130.761 53.61 131.115 53.7035 131.408 53.8905C131.705 54.0738 131.933 54.3378 132.09 54.6825C132.248 55.0272 132.327 55.436 132.327 55.909V59H131.48ZM127.74 59V53.742H128.477L128.598 54.952V59H127.74ZM136.26 59.132C135.834 59.132 135.444 59.0183 135.088 58.791C134.732 58.56 134.448 58.2373 134.236 57.823C134.023 57.405 133.917 56.9137 133.917 56.349C133.917 55.788 134.021 55.3022 134.23 54.8915C134.439 54.4808 134.716 54.1655 135.061 53.9455C135.409 53.7218 135.79 53.61 136.205 53.61C136.59 53.61 136.927 53.7035 137.217 53.8905C137.51 54.0775 137.737 54.347 137.899 54.699C138.06 55.051 138.141 55.4763 138.141 55.975H137.811C137.811 55.6267 137.741 55.3333 137.602 55.095C137.466 54.8567 137.288 54.677 137.068 54.556C136.848 54.4313 136.612 54.369 136.359 54.369C136.073 54.369 135.81 54.4497 135.572 54.611C135.337 54.7687 135.149 54.996 135.006 55.293C134.866 55.5863 134.797 55.9383 134.797 56.349C134.797 56.767 134.866 57.1263 135.006 57.427C135.149 57.7277 135.337 57.9587 135.572 58.12C135.81 58.2813 136.073 58.362 136.359 58.362C136.597 58.362 136.826 58.2997 137.046 58.175C137.27 58.0503 137.453 57.8688 137.596 57.6305C137.739 57.3885 137.811 57.097 137.811 56.756H138.141C138.141 57.2657 138.056 57.6983 137.888 58.054C137.723 58.406 137.497 58.6737 137.211 58.857C136.929 59.0403 136.612 59.132 136.26 59.132ZM137.954 59L137.811 57.768V51.498H138.669V59H137.954ZM143.509 59V53.731H144.367V59H143.509ZM144.103 56.624C144.103 55.9567 144.168 55.403 144.296 54.963C144.424 54.5193 144.611 54.1893 144.857 53.973C145.106 53.753 145.409 53.643 145.764 53.643C145.882 53.643 145.988 53.6522 146.083 53.6705C146.182 53.6852 146.281 53.709 146.38 53.742L146.325 54.589C146.223 54.556 146.111 54.5285 145.99 54.5065C145.869 54.4808 145.761 54.468 145.665 54.468C145.354 54.468 145.103 54.5578 144.912 54.7375C144.721 54.9135 144.582 55.1628 144.494 55.4855C144.41 55.8082 144.367 56.1877 144.367 56.624H144.103ZM151.059 53.731H151.917V59H151.059V53.731ZM147.33 53.731H148.188V57.009C148.188 57.449 148.294 57.7827 148.507 58.01C148.723 58.2373 149.031 58.351 149.431 58.351C149.761 58.351 150.047 58.263 150.289 58.087C150.535 57.911 150.724 57.669 150.856 57.361C150.991 57.0493 151.059 56.6937 151.059 56.294H151.378C151.378 56.8843 151.292 57.3885 151.12 57.8065C150.951 58.2245 150.711 58.5453 150.399 58.769C150.091 58.989 149.728 59.099 149.31 59.099C148.914 59.099 148.568 59.0257 148.271 58.879C147.974 58.7323 147.743 58.5105 147.578 58.2135C147.413 57.9128 147.33 57.5333 147.33 57.075V53.731ZM156.003 61.706C155.464 61.706 154.997 61.629 154.601 61.475C154.205 61.3247 153.897 61.1212 153.677 60.8645C153.46 60.6115 153.352 60.331 153.352 60.023C153.352 59.616 153.501 59.3043 153.798 59.088C154.098 58.8753 154.485 58.769 154.958 58.769L155.431 59.066C155.035 59.066 154.729 59.1485 154.513 59.3135C154.296 59.4785 154.188 59.704 154.188 59.99C154.188 60.276 154.342 60.518 154.65 60.716C154.958 60.914 155.409 61.013 156.003 61.013C156.443 61.013 156.828 60.9488 157.158 60.8205C157.492 60.6958 157.75 60.5308 157.934 60.3255C158.121 60.1238 158.214 59.9057 158.214 59.671C158.214 59.506 158.154 59.363 158.033 59.242C157.912 59.1247 157.727 59.066 157.477 59.066H155.431C155.076 59.066 154.768 59.0128 154.507 58.9065C154.251 58.7965 154.053 58.6535 153.913 58.4775C153.774 58.3015 153.704 58.109 153.704 57.9C153.704 57.68 153.767 57.493 153.891 57.339C154.016 57.185 154.177 57.0677 154.375 56.987C154.577 56.9063 154.793 56.866 155.024 56.866L155.189 57.185C155.079 57.185 154.967 57.2107 154.854 57.262C154.744 57.3097 154.65 57.383 154.573 57.482C154.5 57.5773 154.463 57.6983 154.463 57.845C154.463 58.0137 154.533 58.1548 154.672 58.2685C154.812 58.3822 155.065 58.439 155.431 58.439H157.477C157.972 58.439 158.361 58.5435 158.643 58.7525C158.929 58.9615 159.072 59.253 159.072 59.627C159.072 59.9717 158.949 60.3017 158.704 60.617C158.458 60.936 158.106 61.1963 157.648 61.398C157.189 61.6033 156.641 61.706 156.003 61.706ZM156.157 57.46C155.754 57.46 155.389 57.3793 155.063 57.218C154.74 57.0567 154.483 56.8312 154.293 56.5415C154.106 56.2518 154.012 55.9163 154.012 55.535C154.012 55.15 154.106 54.8127 154.293 54.523C154.483 54.2333 154.74 54.0097 155.063 53.852C155.389 53.6907 155.754 53.61 156.157 53.61C156.55 53.61 156.905 53.6907 157.224 53.852C157.547 54.0097 157.804 54.2333 157.994 54.523C158.185 54.8127 158.28 55.15 158.28 55.535C158.28 55.9163 158.185 56.2518 157.994 56.5415C157.804 56.8312 157.547 57.0567 157.224 57.218C156.905 57.3793 156.55 57.46 156.157 57.46ZM156.157 56.844C156.561 56.844 156.874 56.7193 157.098 56.47C157.321 56.2207 157.433 55.909 157.433 55.535C157.433 55.15 157.321 54.8383 157.098 54.6C156.874 54.358 156.561 54.237 156.157 54.237C155.758 54.237 155.442 54.358 155.211 54.6C154.984 54.8383 154.87 55.15 154.87 55.535C154.87 55.909 154.984 56.2207 155.211 56.47C155.442 56.7193 155.758 56.844 156.157 56.844ZM157.884 54.446L157.477 54.281C157.477 53.973 157.538 53.7035 157.659 53.4725C157.78 53.2378 157.952 53.0563 158.176 52.928C158.399 52.796 158.665 52.73 158.973 52.73L158.907 53.577C158.577 53.577 158.324 53.6485 158.148 53.7915C157.972 53.9308 157.884 54.149 157.884 54.446ZM162.212 61.706C161.673 61.706 161.206 61.629 160.81 61.475C160.414 61.3247 160.106 61.1212 159.886 60.8645C159.669 60.6115 159.561 60.331 159.561 60.023C159.561 59.616 159.71 59.3043 160.007 59.088C160.307 58.8753 160.694 58.769 161.167 58.769L161.64 59.066C161.244 59.066 160.938 59.1485 160.722 59.3135C160.505 59.4785 160.397 59.704 160.397 59.99C160.397 60.276 160.551 60.518 160.859 60.716C161.167 60.914 161.618 61.013 162.212 61.013C162.652 61.013 163.037 60.9488 163.367 60.8205C163.701 60.6958 163.959 60.5308 164.143 60.3255C164.33 60.1238 164.423 59.9057 164.423 59.671C164.423 59.506 164.363 59.363 164.242 59.242C164.121 59.1247 163.936 59.066 163.686 59.066H161.64C161.285 59.066 160.977 59.0128 160.716 58.9065C160.46 58.7965 160.262 58.6535 160.122 58.4775C159.983 58.3015 159.913 58.109 159.913 57.9C159.913 57.68 159.976 57.493 160.1 57.339C160.225 57.185 160.386 57.0677 160.584 56.987C160.786 56.9063 161.002 56.866 161.233 56.866L161.398 57.185C161.288 57.185 161.176 57.2107 161.063 57.262C160.953 57.3097 160.859 57.383 160.782 57.482C160.709 57.5773 160.672 57.6983 160.672 57.845C160.672 58.0137 160.742 58.1548 160.881 58.2685C161.021 58.3822 161.274 58.439 161.64 58.439H163.686C164.181 58.439 164.57 58.5435 164.852 58.7525C165.138 58.9615 165.281 59.253 165.281 59.627C165.281 59.9717 165.158 60.3017 164.913 60.617C164.667 60.936 164.315 61.1963 163.857 61.398C163.398 61.6033 162.85 61.706 162.212 61.706ZM162.366 57.46C161.963 57.46 161.598 57.3793 161.272 57.218C160.949 57.0567 160.692 56.8312 160.502 56.5415C160.315 56.2518 160.221 55.9163 160.221 55.535C160.221 55.15 160.315 54.8127 160.502 54.523C160.692 54.2333 160.949 54.0097 161.272 53.852C161.598 53.6907 161.963 53.61 162.366 53.61C162.759 53.61 163.114 53.6907 163.433 53.852C163.756 54.0097 164.013 54.2333 164.203 54.523C164.394 54.8127 164.489 55.15 164.489 55.535C164.489 55.9163 164.394 56.2518 164.203 56.5415C164.013 56.8312 163.756 57.0567 163.433 57.218C163.114 57.3793 162.759 57.46 162.366 57.46ZM162.366 56.844C162.77 56.844 163.083 56.7193 163.307 56.47C163.53 56.2207 163.642 55.909 163.642 55.535C163.642 55.15 163.53 54.8383 163.307 54.6C163.083 54.358 162.77 54.237 162.366 54.237C161.967 54.237 161.651 54.358 161.42 54.6C161.193 54.8383 161.079 55.15 161.079 55.535C161.079 55.909 161.193 56.2207 161.42 56.47C161.651 56.7193 161.967 56.844 162.366 56.844ZM164.093 54.446L163.686 54.281C163.686 53.973 163.747 53.7035 163.868 53.4725C163.989 53.2378 164.161 53.0563 164.385 52.928C164.608 52.796 164.874 52.73 165.182 52.73L165.116 53.577C164.786 53.577 164.533 53.6485 164.357 53.7915C164.181 53.9308 164.093 54.149 164.093 54.446ZM168.388 59.132C167.934 59.132 167.527 59.0165 167.167 58.7855C166.812 58.5508 166.529 58.2263 166.32 57.812C166.115 57.3977 166.012 56.921 166.012 56.382C166.012 55.8063 166.115 55.3113 166.32 54.897C166.526 54.4827 166.806 54.1655 167.162 53.9455C167.521 53.7218 167.93 53.61 168.388 53.61C168.788 53.61 169.129 53.6907 169.411 53.852C169.694 54.0133 169.921 54.2315 170.093 54.5065C170.266 54.7815 170.385 55.0932 170.451 55.4415C170.52 55.7862 170.541 56.1437 170.511 56.514H166.705V55.986H169.945L169.692 56.151C169.703 55.9347 169.69 55.7183 169.653 55.502C169.62 55.2857 169.556 55.0877 169.461 54.908C169.365 54.7247 169.232 54.578 169.059 54.468C168.887 54.358 168.667 54.303 168.399 54.303C168.062 54.303 167.78 54.3892 167.552 54.5615C167.325 54.7338 167.154 54.9612 167.041 55.2435C166.927 55.5222 166.87 55.8247 166.87 56.151V56.503C166.87 56.8697 166.925 57.1978 167.035 57.4875C167.149 57.7772 167.318 58.0063 167.541 58.175C167.765 58.3437 168.047 58.428 168.388 58.428C168.729 58.428 169.01 58.3455 169.23 58.1805C169.45 58.0155 169.584 57.7717 169.631 57.449H170.522C170.467 57.7973 170.343 58.098 170.148 58.351C169.954 58.6003 169.706 58.7928 169.406 58.9285C169.105 59.0642 168.766 59.132 168.388 59.132ZM174.094 59.132C173.668 59.132 173.278 59.0183 172.922 58.791C172.566 58.56 172.282 58.2373 172.07 57.823C171.857 57.405 171.751 56.9137 171.751 56.349C171.751 55.788 171.855 55.3022 172.064 54.8915C172.273 54.4808 172.55 54.1655 172.895 53.9455C173.243 53.7218 173.624 53.61 174.039 53.61C174.424 53.61 174.761 53.7035 175.051 53.8905C175.344 54.0775 175.571 54.347 175.733 54.699C175.894 55.051 175.975 55.4763 175.975 55.975H175.645C175.645 55.6267 175.575 55.3333 175.436 55.095C175.3 54.8567 175.122 54.677 174.902 54.556C174.682 54.4313 174.446 54.369 174.193 54.369C173.907 54.369 173.644 54.4497 173.406 54.611C173.171 54.7687 172.983 54.996 172.84 55.293C172.7 55.5863 172.631 55.9383 172.631 56.349C172.631 56.767 172.7 57.1263 172.84 57.427C172.983 57.7277 173.171 57.9587 173.406 58.12C173.644 58.2813 173.907 58.362 174.193 58.362C174.431 58.362 174.66 58.2997 174.88 58.175C175.104 58.0503 175.287 57.8688 175.43 57.6305C175.573 57.3885 175.645 57.097 175.645 56.756H175.975C175.975 57.2657 175.89 57.6983 175.722 58.054C175.557 58.406 175.331 58.6737 175.045 58.857C174.763 59.0403 174.446 59.132 174.094 59.132ZM175.788 59L175.645 57.768V51.498H176.503V59H175.788ZM181.343 59V52.092H182.201V59H181.343ZM184.404 59V52.092H186.626C187.385 52.092 187.965 52.2845 188.364 52.6695C188.768 53.0508 188.969 53.5697 188.969 54.226C188.969 54.875 188.768 55.3902 188.364 55.7715C187.965 56.1492 187.385 56.338 186.626 56.338H185.273V59H184.404ZM185.273 55.59H186.626C187.107 55.59 187.47 55.4672 187.715 55.2215C187.965 54.9758 188.089 54.644 188.089 54.226C188.089 53.8007 187.965 53.4615 187.715 53.2085C187.47 52.9555 187.107 52.829 186.626 52.829H185.273V55.59ZM189.824 56.173V55.425H192.816V56.173H189.824ZM194.341 59V53.731H195.199V59H194.341ZM194.935 56.624C194.935 55.9567 195 55.403 195.128 54.963C195.256 54.5193 195.443 54.1893 195.689 53.973C195.938 53.753 196.241 53.643 196.596 53.643C196.714 53.643 196.82 53.6522 196.915 53.6705C197.014 53.6852 197.113 53.709 197.212 53.742L197.157 54.589C197.055 54.556 196.943 54.5285 196.822 54.5065C196.701 54.4808 196.593 54.468 196.497 54.468C196.186 54.468 195.935 54.5578 195.744 54.7375C195.553 54.9135 195.414 55.1628 195.326 55.4855C195.242 55.8082 195.199 56.1877 195.199 56.624H194.935ZM201.572 59L201.462 57.845V55.59C201.462 55.117 201.361 54.7778 201.16 54.5725C200.958 54.3635 200.655 54.259 200.252 54.259C200.025 54.259 199.818 54.292 199.631 54.358C199.447 54.424 199.301 54.5267 199.191 54.666C199.084 54.8017 199.031 54.9777 199.031 55.194H198.074C198.074 54.8127 198.168 54.5065 198.355 54.2755C198.542 54.0408 198.798 53.8722 199.125 53.7695C199.455 53.6632 199.83 53.61 200.252 53.61C200.655 53.61 201.013 53.6778 201.325 53.8135C201.636 53.9492 201.88 54.1655 202.056 54.4625C202.232 54.7558 202.32 55.139 202.32 55.612V59H201.572ZM199.779 59.132C199.346 59.132 198.989 59.055 198.707 58.901C198.424 58.747 198.213 58.5472 198.074 58.3015C197.935 58.0558 197.865 57.7973 197.865 57.526C197.865 57.1703 197.953 56.8807 198.129 56.657C198.309 56.4333 198.553 56.2702 198.861 56.1675C199.169 56.0612 199.515 56.008 199.9 56.008C200.175 56.008 200.45 56.0355 200.725 56.0905C201.004 56.1455 201.275 56.2207 201.539 56.316V56.855C201.319 56.767 201.07 56.6973 200.791 56.646C200.516 56.5947 200.263 56.569 200.032 56.569C199.68 56.569 199.383 56.6423 199.141 56.789C198.899 56.932 198.778 57.1777 198.778 57.526C198.778 57.7827 198.87 58.0027 199.053 58.186C199.24 58.3693 199.537 58.461 199.944 58.461C200.23 58.461 200.487 58.395 200.714 58.263C200.945 58.1273 201.127 57.9587 201.259 57.757C201.394 57.5553 201.462 57.3537 201.462 57.152H201.671C201.671 57.504 201.594 57.8303 201.44 58.131C201.29 58.4317 201.073 58.6737 200.791 58.857C200.509 59.0403 200.171 59.132 199.779 59.132ZM205.992 59.132C205.706 59.132 205.449 59.077 205.222 58.967C204.994 58.857 204.815 58.692 204.683 58.472C204.551 58.252 204.485 57.977 204.485 57.647V52.279H205.332V57.625C205.332 58.1677 205.585 58.439 206.091 58.439C206.241 58.439 206.386 58.4225 206.525 58.3895C206.668 58.3565 206.828 58.307 207.004 58.241L207.125 58.857C206.938 58.9377 206.751 59.0037 206.564 59.055C206.38 59.1063 206.19 59.132 205.992 59.132ZM203.638 54.336V53.742H206.993V54.336H203.638ZM210.336 59.132C209.882 59.132 209.475 59.0165 209.115 58.7855C208.76 58.5508 208.477 58.2263 208.268 57.812C208.063 57.3977 207.96 56.921 207.96 56.382C207.96 55.8063 208.063 55.3113 208.268 54.897C208.474 54.4827 208.754 54.1655 209.11 53.9455C209.469 53.7218 209.878 53.61 210.336 53.61C210.736 53.61 211.077 53.6907 211.359 53.852C211.642 54.0133 211.869 54.2315 212.041 54.5065C212.214 54.7815 212.333 55.0932 212.399 55.4415C212.469 55.7862 212.489 56.1437 212.459 56.514H208.653V55.986H211.893L211.64 56.151C211.651 55.9347 211.638 55.7183 211.601 55.502C211.568 55.2857 211.504 55.0877 211.409 54.908C211.314 54.7247 211.18 54.578 211.007 54.468C210.835 54.358 210.615 54.303 210.347 54.303C210.01 54.303 209.728 54.3892 209.5 54.5615C209.273 54.7338 209.103 54.9612 208.989 55.2435C208.875 55.5222 208.818 55.8247 208.818 56.151V56.503C208.818 56.8697 208.873 57.1978 208.983 57.4875C209.097 57.7772 209.266 58.0063 209.489 58.175C209.713 58.3437 209.995 58.428 210.336 58.428C210.677 58.428 210.958 58.3455 211.178 58.1805C211.398 58.0155 211.532 57.7717 211.579 57.449H212.47C212.415 57.7973 212.291 58.098 212.096 58.351C211.902 58.6003 211.655 58.7928 211.354 58.9285C211.053 59.0642 210.714 59.132 210.336 59.132ZM216.042 59.132C215.616 59.132 215.226 59.0183 214.87 58.791C214.515 58.56 214.23 58.2373 214.018 57.823C213.805 57.405 213.699 56.9137 213.699 56.349C213.699 55.788 213.803 55.3022 214.012 54.8915C214.221 54.4808 214.498 54.1655 214.843 53.9455C215.191 53.7218 215.572 53.61 215.987 53.61C216.372 53.61 216.709 53.7035 216.999 53.8905C217.292 54.0775 217.519 54.347 217.681 54.699C217.842 55.051 217.923 55.4763 217.923 55.975H217.593C217.593 55.6267 217.523 55.3333 217.384 55.095C217.248 54.8567 217.07 54.677 216.85 54.556C216.63 54.4313 216.394 54.369 216.141 54.369C215.855 54.369 215.593 54.4497 215.354 54.611C215.12 54.7687 214.931 54.996 214.788 55.293C214.648 55.5863 214.579 55.9383 214.579 56.349C214.579 56.767 214.648 57.1263 214.788 57.427C214.931 57.7277 215.12 57.9587 215.354 58.12C215.593 58.2813 215.855 58.362 216.141 58.362C216.379 58.362 216.608 58.2997 216.828 58.175C217.052 58.0503 217.235 57.8688 217.378 57.6305C217.521 57.3885 217.593 57.097 217.593 56.756H217.923C217.923 57.2657 217.838 57.6983 217.67 58.054C217.505 58.406 217.279 58.6737 216.993 58.857C216.711 59.0403 216.394 59.132 216.042 59.132ZM217.736 59L217.593 57.768V51.498H218.451V59H217.736ZM225.679 59.132C225.294 59.132 224.958 59.044 224.672 58.868C224.39 58.692 224.172 58.4353 224.018 58.098C223.864 57.757 223.787 57.3427 223.787 56.855H224.15C224.15 57.1813 224.217 57.4563 224.353 57.68C224.489 57.9037 224.665 58.0742 224.881 58.1915C225.101 58.3052 225.334 58.362 225.58 58.362C225.844 58.362 226.097 58.2868 226.339 58.1365C226.581 57.9825 226.779 57.757 226.933 57.46C227.087 57.163 227.164 56.7963 227.164 56.36C227.164 55.942 227.092 55.5845 226.949 55.2875C226.81 54.9905 226.621 54.7632 226.383 54.6055C226.144 54.4478 225.88 54.369 225.591 54.369C225.341 54.369 225.107 54.4295 224.887 54.5505C224.667 54.6715 224.489 54.8493 224.353 55.084C224.217 55.315 224.15 55.601 224.15 55.942H223.787C223.787 55.4323 223.871 55.0052 224.04 54.6605C224.208 54.3122 224.437 54.05 224.727 53.874C225.017 53.698 225.341 53.61 225.701 53.61C226.111 53.61 226.494 53.72 226.85 53.94C227.206 54.16 227.494 54.4753 227.714 54.886C227.934 55.2967 228.044 55.788 228.044 56.36C228.044 56.9393 227.932 57.4362 227.708 57.8505C227.488 58.2648 227.198 58.582 226.839 58.802C226.48 59.022 226.093 59.132 225.679 59.132ZM223.292 61.585V53.742H224.007L224.15 54.974V61.585H223.292ZM229.726 59V53.731H230.584V59H229.726ZM230.32 56.624C230.32 55.9567 230.384 55.403 230.513 54.963C230.641 54.5193 230.828 54.1893 231.074 53.973C231.323 53.753 231.626 53.643 231.981 53.643C232.099 53.643 232.205 53.6522 232.3 53.6705C232.399 53.6852 232.498 53.709 232.597 53.742L232.542 54.589C232.44 54.556 232.328 54.5285 232.207 54.5065C232.086 54.4808 231.978 54.468 231.882 54.468C231.571 54.468 231.319 54.5578 231.129 54.7375C230.938 54.9135 230.799 55.1628 230.711 55.4855C230.626 55.8082 230.584 56.1877 230.584 56.624H230.32ZM235.604 59.132C235.131 59.132 234.709 59.0275 234.339 58.8185C233.972 58.6095 233.683 58.2997 233.47 57.889C233.257 57.4783 233.151 56.9723 233.151 56.371C233.151 55.766 233.257 55.26 233.47 54.853C233.683 54.4423 233.972 54.1325 234.339 53.9235C234.709 53.7145 235.131 53.61 235.604 53.61C236.073 53.61 236.491 53.7145 236.858 53.9235C237.228 54.1325 237.518 54.4423 237.727 54.853C237.94 55.26 238.046 55.766 238.046 56.371C238.046 56.9723 237.94 57.4783 237.727 57.889C237.518 58.2997 237.228 58.6095 236.858 58.8185C236.491 59.0275 236.073 59.132 235.604 59.132ZM235.582 58.384C235.923 58.384 236.213 58.3033 236.451 58.142C236.689 57.977 236.869 57.7442 236.99 57.4435C237.115 57.1428 237.177 56.7853 237.177 56.371C237.177 55.744 237.047 55.2508 236.786 54.8915C236.526 54.5285 236.139 54.347 235.626 54.347C235.281 54.347 234.99 54.4295 234.751 54.5945C234.517 54.7558 234.337 54.9887 234.212 55.293C234.091 55.5937 234.031 55.953 234.031 56.371C234.031 56.9907 234.161 57.482 234.421 57.845C234.685 58.2043 235.072 58.384 235.582 58.384ZM241.333 59.132C241.047 59.132 240.791 59.077 240.563 58.967C240.336 58.857 240.156 58.692 240.024 58.472C239.892 58.252 239.826 57.977 239.826 57.647V52.279H240.673V57.625C240.673 58.1677 240.926 58.439 241.432 58.439C241.583 58.439 241.728 58.4225 241.867 58.3895C242.01 58.3565 242.169 58.307 242.345 58.241L242.466 58.857C242.279 58.9377 242.092 59.0037 241.905 59.055C241.722 59.1063 241.531 59.132 241.333 59.132ZM238.979 54.336V53.742H242.334V54.336H238.979ZM245.678 59.132C245.224 59.132 244.817 59.0165 244.457 58.7855C244.102 58.5508 243.819 58.2263 243.61 57.812C243.405 57.3977 243.302 56.921 243.302 56.382C243.302 55.8063 243.405 55.3113 243.61 54.897C243.816 54.4827 244.096 54.1655 244.452 53.9455C244.811 53.7218 245.22 53.61 245.678 53.61C246.078 53.61 246.419 53.6907 246.701 53.852C246.984 54.0133 247.211 54.2315 247.383 54.5065C247.556 54.7815 247.675 55.0932 247.741 55.4415C247.81 55.7862 247.831 56.1437 247.801 56.514H243.995V55.986H247.235L246.982 56.151C246.993 55.9347 246.98 55.7183 246.943 55.502C246.91 55.2857 246.846 55.0877 246.751 54.908C246.655 54.7247 246.522 54.578 246.349 54.468C246.177 54.358 245.957 54.303 245.689 54.303C245.352 54.303 245.07 54.3892 244.842 54.5615C244.615 54.7338 244.444 54.9612 244.331 55.2435C244.217 55.5222 244.16 55.8247 244.16 56.151V56.503C244.16 56.8697 244.215 57.1978 244.325 57.4875C244.439 57.7772 244.608 58.0063 244.831 58.175C245.055 58.3437 245.337 58.428 245.678 58.428C246.019 58.428 246.3 58.3455 246.52 58.1805C246.74 58.0155 246.874 57.7717 246.921 57.449H247.812C247.757 57.7973 247.633 58.098 247.438 58.351C247.244 58.6003 246.996 58.7928 246.696 58.9285C246.395 59.0642 246.056 59.132 245.678 59.132ZM251.351 59.132C250.929 59.132 250.535 59.0183 250.168 58.791C249.805 58.5637 249.512 58.2428 249.288 57.8285C249.064 57.4142 248.953 56.9247 248.953 56.36C248.953 55.7807 249.064 55.2857 249.288 54.875C249.512 54.4643 249.805 54.1508 250.168 53.9345C250.535 53.7182 250.929 53.61 251.351 53.61C251.648 53.61 251.913 53.6558 252.148 53.7475C252.386 53.8355 252.594 53.9583 252.77 54.116C252.946 54.2737 253.09 54.4533 253.204 54.655C253.321 54.853 253.408 55.062 253.463 55.282L252.583 55.359C252.491 55.0547 252.337 54.8145 252.121 54.6385C251.908 54.4588 251.648 54.369 251.34 54.369C251.079 54.369 250.834 54.4442 250.603 54.5945C250.375 54.7412 250.19 54.963 250.047 55.26C249.904 55.5533 249.833 55.92 249.833 56.36C249.833 56.767 249.897 57.1208 250.025 57.4215C250.157 57.7185 250.337 57.9495 250.564 58.1145C250.791 58.2795 251.05 58.362 251.34 58.362C251.747 58.362 252.055 58.263 252.264 58.065C252.476 57.8633 252.583 57.5847 252.583 57.229H253.463C253.463 57.5957 253.376 57.922 253.204 58.208C253.032 58.494 252.786 58.7195 252.467 58.8845C252.152 59.0495 251.78 59.132 251.351 59.132ZM256.791 59.132C256.505 59.132 256.249 59.077 256.021 58.967C255.794 58.857 255.614 58.692 255.482 58.472C255.35 58.252 255.284 57.977 255.284 57.647V52.279H256.131V57.625C256.131 58.1677 256.384 58.439 256.89 58.439C257.041 58.439 257.186 58.4225 257.325 58.3895C257.468 58.3565 257.627 58.307 257.803 58.241L257.924 58.857C257.737 58.9377 257.55 59.0037 257.363 59.055C257.18 59.1063 256.989 59.132 256.791 59.132ZM254.437 54.336V53.742H257.792V54.336H254.437ZM259.794 52.499C259.618 52.499 259.479 52.4495 259.376 52.3505C259.274 52.2478 259.222 52.114 259.222 51.949C259.222 51.7877 259.274 51.6593 259.376 51.564C259.479 51.4687 259.618 51.421 259.794 51.421C259.97 51.421 260.11 51.4687 260.212 51.564C260.315 51.6593 260.366 51.7877 260.366 51.949C260.366 52.114 260.315 52.2478 260.212 52.3505C260.11 52.4495 259.97 52.499 259.794 52.499ZM259.365 59V53.731H260.223V59H259.365ZM264.49 59.132C264.017 59.132 263.595 59.0275 263.225 58.8185C262.858 58.6095 262.568 58.2997 262.356 57.889C262.143 57.4783 262.037 56.9723 262.037 56.371C262.037 55.766 262.143 55.26 262.356 54.853C262.568 54.4423 262.858 54.1325 263.225 53.9235C263.595 53.7145 264.017 53.61 264.49 53.61C264.959 53.61 265.377 53.7145 265.744 53.9235C266.114 54.1325 266.404 54.4423 266.613 54.853C266.825 55.26 266.932 55.766 266.932 56.371C266.932 56.9723 266.825 57.4783 266.613 57.889C266.404 58.2997 266.114 58.6095 265.744 58.8185C265.377 59.0275 264.959 59.132 264.49 59.132ZM264.468 58.384C264.809 58.384 265.098 58.3033 265.337 58.142C265.575 57.977 265.755 57.7442 265.876 57.4435C266 57.1428 266.063 56.7853 266.063 56.371C266.063 55.744 265.932 55.2508 265.672 54.8915C265.412 54.5285 265.025 54.347 264.512 54.347C264.167 54.347 263.875 54.4295 263.637 54.5945C263.402 54.7558 263.223 54.9887 263.098 55.293C262.977 55.5937 262.917 55.953 262.917 56.371C262.917 56.9907 263.047 57.482 263.307 57.845C263.571 58.2043 263.958 58.384 264.468 58.384ZM272.342 59V55.909C272.342 55.4067 272.221 55.0253 271.979 54.765C271.741 54.501 271.415 54.369 271 54.369C270.685 54.369 270.412 54.4552 270.181 54.6275C269.95 54.7998 269.772 55.0473 269.647 55.37C269.523 55.689 269.46 56.0703 269.46 56.514H269.13C269.13 55.9017 269.211 55.3792 269.372 54.9465C269.534 54.5138 269.768 54.1838 270.076 53.9565C270.388 53.7255 270.766 53.61 271.209 53.61C271.624 53.61 271.977 53.7035 272.271 53.8905C272.568 54.0738 272.795 54.3378 272.953 54.6825C273.11 55.0272 273.189 55.436 273.189 55.909V59H272.342ZM268.602 59V53.742H269.339L269.46 54.952V59H268.602ZM274.46 58.4885C274.46 58.3162 274.52 58.1677 274.641 58.043C274.762 57.9183 274.915 57.856 275.098 57.856C275.281 57.856 275.437 57.9183 275.565 58.043C275.694 58.1677 275.758 58.3162 275.758 58.4885C275.758 58.6608 275.694 58.8057 275.565 58.923C275.437 59.0403 275.281 59.099 275.098 59.099C274.915 59.099 274.762 59.0403 274.641 58.923C274.52 58.802 274.46 58.6572 274.46 58.4885Z" fill="black"/>
</svg>
