<svg width="34" height="34" viewBox="0 0 34 34" fill="none" xmlns="http://www.w3.org/2000/svg">
<rect width="33.52" height="33.52" rx="4" fill="white" fill-opacity="0.1"/>
<path d="M20.6059 14.2458H19.2734V10.0558C19.2734 9.59487 18.8963 9.21777 18.4354 9.21777H15.0834C14.6225 9.21777 14.2454 9.59487 14.2454 10.0558V14.2458H12.913C12.1672 14.2458 11.7901 15.1508 12.318 15.6788L16.1645 19.5252C16.4913 19.852 17.0192 19.852 17.346 19.5252L21.1925 15.6788C21.7204 15.1508 21.3517 14.2458 20.6059 14.2458ZM10.8934 22.6258C10.8934 23.0867 11.2705 23.4638 11.7314 23.4638H21.7874C22.2483 23.4638 22.6254 23.0867 22.6254 22.6258C22.6254 22.1649 22.2483 21.7878 21.7874 21.7878H11.7314C11.2705 21.7878 10.8934 22.1649 10.8934 22.6258Z" fill="white"/>
</svg>
