<svg width="34" height="31" viewBox="0 0 34 31" fill="none" xmlns="http://www.w3.org/2000/svg">
<rect width="33.5201" height="30.1536" rx="4" fill="white" fill-opacity="0.1"/>
<path d="M21.7758 18.1697C21.8923 18.2862 22.0436 18.3456 22.1962 18.3456C22.3487 18.3456 22.5001 18.2862 22.6165 18.1697C24.2443 16.5419 24.2443 13.8953 22.6165 12.2674C22.3837 12.0346 22.0052 12.0346 21.7735 12.2674C21.5407 12.5003 21.5407 12.8787 21.7735 13.1104C22.9356 14.2725 22.9356 16.1622 21.7735 17.3256C21.5407 17.5585 21.5407 17.9369 21.7735 18.1686L21.7758 18.1697Z" fill="white"/>
<path d="M24.7259 10.0155C24.493 9.7826 24.1146 9.7826 23.8829 10.0155C23.65 10.2484 23.65 10.6268 23.8829 10.8585C25.01 11.9856 25.6295 13.4818 25.6295 15.0736C25.6295 16.6655 25.01 18.1615 23.8829 19.2888C23.65 19.5217 23.65 19.9001 23.8829 20.1318C23.9993 20.2483 24.1507 20.3076 24.3033 20.3076C24.4558 20.3076 24.6072 20.2483 24.7236 20.1318C26.0743 18.7811 26.8195 16.9844 26.8195 15.0737C26.8195 13.163 26.0743 11.3652 24.7236 10.0155L24.7259 10.0155Z" fill="white"/>
<path d="M6.70093 11.6452V18.4975C6.70093 19.2392 7.3029 19.8389 8.04229 19.8389H11.1721V10.3003H8.04229C7.30058 10.3003 6.70093 10.9023 6.70093 11.6417V11.6452Z" fill="white"/>
<path d="M18.9225 22.1017V8.04539C18.9225 6.97182 17.7267 6.33491 16.836 6.92758L12.3647 9.90839V20.2435L16.836 23.2243C17.7267 23.8204 18.9225 23.18 18.9225 22.1065V22.1017Z" fill="white"/>
</svg>
