<svg width="34" height="34" viewBox="0 0 34 34" fill="none" xmlns="http://www.w3.org/2000/svg">
<rect width="33.52" height="33.52" rx="4" fill="white" fill-opacity="0.1"/>
<path d="M18.0799 21.1769L13.7977 18.8414C13.3867 19.2495 12.864 19.5266 12.2957 19.6381C11.7273 19.7495 11.1387 19.6901 10.604 19.4675C10.0693 19.2449 9.61255 18.8689 9.29123 18.3871C8.9699 17.9052 8.79843 17.339 8.79843 16.7598C8.79843 16.1807 8.9699 15.6145 9.29123 15.1326C9.61255 14.6507 10.0693 14.2748 10.604 14.0522C11.1387 13.8296 11.7273 13.7702 12.2957 13.8816C12.864 13.993 13.3867 14.2702 13.7977 14.6782L18.0799 12.3427C17.933 11.6537 18.0391 10.9348 18.3787 10.3175C18.7183 9.70023 19.2688 9.22583 19.9294 8.98105C20.5901 8.73627 21.3168 8.73748 21.9766 8.98445C22.6364 9.23142 23.1853 9.70764 23.5229 10.326C23.8604 10.9444 23.9641 11.6637 23.815 12.3523C23.6658 13.0408 23.2738 13.6527 22.7106 14.076C22.1474 14.4993 21.4506 14.7057 20.7478 14.6575C20.0449 14.6093 19.3828 14.3096 18.8827 13.8134L14.6005 16.1489C14.6862 16.5514 14.6862 16.9674 14.6005 17.3699L18.8827 19.7062C19.3828 19.21 20.0449 18.9104 20.7478 18.8622C21.4506 18.814 22.1474 19.0204 22.7106 19.4437C23.2738 19.867 23.6658 20.4789 23.815 21.1674C23.9641 21.856 23.8604 22.5752 23.5229 23.1936C23.1853 23.812 22.6364 24.2883 21.9766 24.5352C21.3168 24.7822 20.5901 24.7834 19.9294 24.5386C19.2688 24.2939 18.7183 23.8194 18.3787 23.2022C18.0391 22.5849 17.933 21.866 18.0799 21.1769Z" fill="white"/>
</svg>
