<svg width="34" height="34" viewBox="0 0 34 34" fill="none" xmlns="http://www.w3.org/2000/svg">
<rect width="33.52" height="33.3951" rx="4" fill="white" fill-opacity="0.1"/>
<path d="M8.71554 6.43815C8.80413 6.41557 8.94454 6.38805 9.02732 6.3773C9.11591 6.3659 12.3279 6.35924 16.8433 6.36117C24.1298 6.3644 24.5166 6.36633 24.6699 6.4031C24.7585 6.42417 24.928 6.47363 25.0462 6.51255C25.1645 6.55168 25.3337 6.62005 25.4225 6.66435C25.5111 6.70864 25.6612 6.79551 25.7558 6.85744C25.8504 6.91936 26.0028 7.0344 26.0944 7.11288C26.186 7.19136 26.3249 7.33069 26.4032 7.42229C26.4815 7.51389 26.5817 7.64204 26.626 7.70719C26.6705 7.77234 26.7511 7.90759 26.8053 8.00822C26.8595 8.10885 26.9339 8.27312 26.9706 8.37375C27.0074 8.47438 27.0556 8.62898 27.0777 8.71778C27.0999 8.80637 27.1289 8.97107 27.1422 9.08331C27.1599 9.23232 27.1646 11.3356 27.1521 24.4034L27.1065 24.5862C27.0814 24.6866 27.0399 24.8317 27.0143 24.9087C26.9887 24.9857 26.9193 25.1502 26.8599 25.2742C26.8008 25.3983 26.6883 25.592 26.6103 25.7043C26.532 25.8165 26.3757 26.0008 26.2626 26.1135C26.1493 26.2261 25.9648 26.3824 25.8525 26.4609C25.7403 26.5394 25.5515 26.6521 25.4333 26.7116C25.315 26.771 25.1264 26.8497 25.014 26.8864C24.9015 26.9232 24.7323 26.9694 24.6377 26.989C24.4799 27.0217 23.8447 27.0253 16.897 27.032C11.4508 27.0372 9.26814 27.0327 9.11333 27.0155C8.99507 27.0023 8.8209 26.9725 8.72629 26.949C8.63168 26.9256 8.48655 26.8811 8.40376 26.8503C8.32098 26.8196 8.16122 26.7484 8.04898 26.6923C7.93674 26.6362 7.75828 26.5289 7.6527 26.4536C7.54691 26.3786 7.36802 26.2246 7.25492 26.1117C7.1416 25.9988 6.98958 25.82 6.91691 25.7139C6.84402 25.6082 6.73586 25.4247 6.67652 25.3065C6.61696 25.1882 6.53933 25.0044 6.50364 24.898C6.46816 24.7915 6.4215 24.6221 6.40022 24.5217C6.3628 24.3471 6.36108 23.9985 6.36108 9.02956L6.41742 8.79304C6.4486 8.66295 6.51633 8.45008 6.56793 8.32021C6.61975 8.19012 6.71371 7.99661 6.77672 7.89017C6.83972 7.78352 6.9655 7.60549 7.05624 7.49411C7.14698 7.38294 7.28889 7.23178 7.37167 7.15803C7.45446 7.0845 7.59465 6.97226 7.68345 6.90861C7.77204 6.84496 7.9318 6.74821 8.03823 6.69338C8.14467 6.63876 8.30421 6.56802 8.39301 6.53663C8.4816 6.50502 8.62674 6.46073 8.71554 6.43815Z" fill="white"/>
<path d="M8.76943 6.89712C8.84039 6.87799 8.98553 6.85025 9.09196 6.83541C9.24549 6.8137 10.8472 6.80897 16.8541 6.81176C23.9227 6.81542 24.4327 6.818 24.5733 6.8524C24.6561 6.87283 24.7916 6.9096 24.8743 6.93454C24.9571 6.95926 25.1216 7.02764 25.2399 7.08634C25.3581 7.14504 25.531 7.24825 25.6239 7.31555C25.7168 7.38307 25.872 7.52025 25.969 7.62088C26.0658 7.72151 26.1971 7.88105 26.261 7.97566C26.3247 8.07027 26.4229 8.24443 26.4792 8.36269C26.5358 8.48095 26.6053 8.66479 26.6338 8.77123C26.6627 8.87766 26.6975 9.05677 26.7113 9.16901C26.7302 9.32275 26.7347 11.2227 26.7224 24.2956L26.6738 24.4891C26.6474 24.5955 26.5863 24.7794 26.5384 24.8976C26.4906 25.0159 26.4145 25.1755 26.3696 25.2524C26.3247 25.3294 26.2305 25.4647 26.1602 25.5535C26.0898 25.6423 25.9557 25.7859 25.8619 25.873C25.7682 25.9601 25.6286 26.0729 25.5517 26.1241C25.4747 26.1751 25.3104 26.2656 25.1861 26.3249C25.0621 26.3845 24.8685 26.4578 24.7561 26.4879C24.6436 26.5178 24.4454 26.5526 24.3153 26.5651C24.154 26.5804 21.6951 26.5851 16.5961 26.5802C9.63682 26.5735 9.10228 26.5703 8.9522 26.5363C8.8634 26.5161 8.71353 26.474 8.61892 26.4428C8.52431 26.4116 8.36477 26.3447 8.26414 26.2942C8.16351 26.2437 8.01364 26.1544 7.93086 26.0959C7.84808 26.0372 7.70875 25.9226 7.62145 25.8414C7.53394 25.7599 7.40041 25.6109 7.32451 25.5105C7.2486 25.41 7.13443 25.2213 7.07078 25.0912C7.00714 24.9611 6.93489 24.7919 6.91017 24.7149C6.88565 24.6379 6.84888 24.4977 6.82846 24.4031C6.79362 24.2421 6.79126 23.7522 6.79126 16.7054C6.79126 10.397 6.79599 9.15547 6.82093 9.02925C6.83727 8.94647 6.87469 8.80133 6.90393 8.70672C6.93339 8.61212 6.99811 8.44763 7.04756 8.34119C7.09723 8.23476 7.19012 8.07027 7.25398 7.97566C7.31784 7.88105 7.4432 7.72753 7.53221 7.63464C7.62145 7.54175 7.7668 7.41145 7.8556 7.34501C7.94419 7.27878 8.09427 7.18353 8.18888 7.13322C8.28349 7.0829 8.4239 7.0171 8.50066 6.98679C8.57742 6.95625 8.69848 6.91605 8.76943 6.89712Z" fill="#20262E"/>
<path d="M9.91149 10.2225C9.9803 10.181 10.0998 10.1309 10.177 10.1109C10.3041 10.078 10.5144 10.0744 12.3763 10.0733C13.8126 10.0725 14.4692 10.0793 14.5479 10.0959C14.6101 10.1092 14.7139 10.1451 14.7791 10.1759C14.844 10.2066 14.9636 10.295 15.0444 10.3724C15.1487 10.472 15.2132 10.5567 15.2657 10.6633C15.3082 10.7502 15.3482 10.873 15.3601 10.9536C15.3717 11.0336 15.3803 11.9752 15.3803 13.1575C15.3803 14.9155 15.3756 15.2441 15.348 15.3722C15.3302 15.455 15.2829 15.5808 15.2429 15.6518C15.2029 15.7227 15.1137 15.8354 15.0446 15.9023C14.9715 15.9728 14.8604 16.0513 14.7791 16.0898C14.7021 16.1263 14.586 16.1661 14.5211 16.1783C14.4449 16.1925 13.681 16.2005 12.3816 16.2005C11.1051 16.2005 10.3168 16.1925 10.2422 16.1788C10.177 16.1667 10.0609 16.1261 9.98417 16.0887C9.89493 16.0452 9.79323 15.9696 9.70271 15.8793C9.60824 15.7849 9.53915 15.6912 9.49543 15.598C9.45931 15.521 9.41888 15.4075 9.40598 15.3454C9.38942 15.2673 9.38211 14.5919 9.38233 13.1629C9.38233 11.8993 9.39071 11.0411 9.40383 10.959C9.41544 10.885 9.45242 10.7642 9.48575 10.6902C9.52016 10.6143 9.59864 10.4997 9.66637 10.4268C9.73216 10.3558 9.84247 10.264 9.91149 10.2225Z" fill="white"/>
<path d="M16.6639 10.928C16.6975 10.8962 16.7491 10.8605 16.7788 10.8487C16.8136 10.8349 18.0633 10.8267 20.3212 10.8259C23.7032 10.8246 23.8122 10.8259 23.8905 10.8652C23.9348 10.8878 23.9875 10.9239 24.0075 10.9459C24.0275 10.9678 24.0589 11.0222 24.0774 11.0665C24.0959 11.1108 24.1109 11.1688 24.1107 11.1955C24.1107 11.2222 24.0999 11.2826 24.0866 11.3299C24.0735 11.3772 24.0275 11.4512 23.9847 11.4939C23.9417 11.5369 23.8679 11.583 23.8206 11.5961C23.7589 11.6131 22.7561 11.6184 20.2836 11.6146C16.8805 11.6094 16.8314 11.6088 16.7476 11.5664C16.696 11.5404 16.6388 11.4853 16.602 11.4266C16.5556 11.3522 16.5416 11.3039 16.542 11.217C16.542 11.1549 16.5558 11.0775 16.5726 11.045C16.5893 11.0125 16.6304 10.9598 16.6639 10.928Z" fill="white"/>
<path d="M16.6356 12.9004C16.6616 12.8653 16.7166 12.8245 16.7577 12.8099C16.8164 12.7888 17.5887 12.7828 20.3212 12.7821C23.7677 12.7813 23.811 12.7817 23.8959 12.8243C23.9432 12.8479 24.0053 12.9036 24.0341 12.9479C24.063 12.9922 24.0928 13.0623 24.1006 13.1038C24.1083 13.1453 24.103 13.2225 24.0888 13.2758C24.0729 13.3352 24.0326 13.4029 23.9847 13.4506C23.9419 13.4936 23.8679 13.5396 23.8206 13.5527C23.7591 13.5697 22.7531 13.5749 20.2836 13.5712C16.8805 13.5661 16.8314 13.5654 16.7476 13.5231C16.696 13.4971 16.6388 13.442 16.602 13.3833C16.5577 13.3121 16.5418 13.2595 16.542 13.1844C16.542 13.1283 16.5526 13.0556 16.565 13.0232C16.5777 12.9907 16.6093 12.9354 16.6356 12.9004Z" fill="white"/>
<path d="M16.6104 14.9022C16.6455 14.85 16.7009 14.8044 16.7601 14.779C16.8499 14.7405 16.9607 14.7388 19.3536 14.7384C21.5675 14.7379 21.8625 14.7418 21.9338 14.7715C21.9781 14.7898 22.0373 14.8261 22.065 14.8521C22.0925 14.8779 22.1304 14.9282 22.1486 14.9637C22.1671 14.9992 22.1828 15.0766 22.1835 15.1357C22.1846 15.2116 22.1693 15.2714 22.1319 15.3393C22.0992 15.3985 22.0461 15.4539 21.907 15.5329L19.3644 15.5331C17.2505 15.5335 16.8119 15.5286 16.7626 15.504C16.7302 15.4877 16.6721 15.4393 16.6336 15.3965C16.5934 15.3516 16.5579 15.2843 16.5502 15.2379C16.5427 15.1936 16.5407 15.1185 16.5457 15.0712C16.5506 15.0239 16.5797 14.9478 16.6104 14.9022Z" fill="white"/>
<path d="M9.95729 17.7835C10.0194 17.7523 10.1209 17.7127 10.1831 17.6959C10.2772 17.6701 10.6406 17.6648 12.3816 17.6635C14.1975 17.6622 14.4841 17.6663 14.5963 17.6953C14.6673 17.7136 14.7769 17.7596 14.8397 17.7974C14.9027 17.8355 15.0074 17.9198 15.0726 17.9847C15.1388 18.0507 15.222 18.1647 15.2612 18.2427C15.2996 18.3197 15.3429 18.4502 15.3571 18.533C15.3762 18.645 15.3811 19.2336 15.37 22.9839L15.3209 23.1129C15.2938 23.1839 15.2308 23.3 15.1807 23.3709C15.1304 23.4419 15.0317 23.544 14.9612 23.598C14.8905 23.6518 14.7748 23.7195 14.5748 23.801L12.4569 23.8076C10.8853 23.8126 10.3084 23.8079 10.2207 23.7889C10.1558 23.775 10.0444 23.7341 9.97342 23.6982C9.90246 23.6623 9.7928 23.5838 9.7298 23.5234C9.6668 23.4632 9.58746 23.3705 9.55327 23.3172C9.5193 23.2639 9.4692 23.1624 9.39286 22.9624L9.38641 20.823C9.38125 19.0422 9.38534 18.6584 9.41071 18.533C9.42748 18.4502 9.46877 18.3245 9.50252 18.2535C9.53994 18.175 9.61885 18.0688 9.70421 17.9824C9.7814 17.9043 9.89515 17.8149 9.95729 17.7835Z" fill="white"/>
<path d="M16.6523 18.6152C16.6805 18.5894 16.7325 18.553 16.768 18.5345C16.8256 18.5046 17.2024 18.501 20.3212 18.501C23.7671 18.5008 23.811 18.5012 23.8959 18.5438C23.9432 18.5674 24.0053 18.6231 24.0341 18.6674C24.063 18.7117 24.0928 18.782 24.1006 18.8233C24.1083 18.8646 24.104 18.9396 24.0911 18.9899C24.0784 19.0402 24.0365 19.1157 23.998 19.1579C23.9595 19.2 23.8894 19.2488 23.8421 19.266C23.7677 19.2931 23.2859 19.2966 16.8078 19.2856L16.7181 19.2265C16.6674 19.1931 16.6095 19.1299 16.5852 19.0813C16.5614 19.0336 16.5422 18.9523 16.5422 18.8986C16.5422 18.8452 16.5556 18.7704 16.5717 18.7319C16.588 18.6934 16.6242 18.641 16.6523 18.6152Z" fill="white"/>
<path d="M16.6095 20.62C16.6439 20.5708 16.7031 20.523 16.7601 20.4985C16.8506 20.4598 16.9826 20.4583 20.3158 20.4583C23.6084 20.4583 23.7819 20.4602 23.8636 20.4972C23.9109 20.5185 23.9763 20.5667 24.0088 20.6043C24.0412 20.6417 24.0776 20.7088 24.0892 20.7531C24.101 20.7974 24.1107 20.8507 24.1107 20.8713C24.1109 20.892 24.0959 20.9453 24.0776 20.9896C24.0593 21.0339 24.0133 21.1021 23.9754 21.1408C23.9376 21.1797 23.8727 21.2208 23.8314 21.2322C23.7847 21.2448 22.4469 21.2526 20.3051 21.2524C17.0383 21.2521 16.8495 21.25 16.768 21.2137C16.7207 21.1926 16.653 21.1378 16.6175 21.0922C16.5597 21.0176 16.553 20.9935 16.553 20.8552C16.553 20.7241 16.5614 20.6894 16.6095 20.62Z" fill="white"/>
<path d="M16.6091 22.579C16.6401 22.5356 16.7029 22.481 16.7489 22.458C16.8304 22.4171 16.897 22.416 19.3536 22.415C21.4141 22.4143 21.8874 22.4193 21.9446 22.4429C21.9831 22.4588 22.0459 22.5072 22.0844 22.5504C22.1228 22.5937 22.1646 22.6702 22.177 22.7205C22.1897 22.7708 22.1936 22.8409 22.1856 22.8764C22.1777 22.9119 22.1523 22.9749 22.1295 23.0162C22.1067 23.0574 22.053 23.1157 21.9317 23.1989L19.3981 23.2043C16.9974 23.2095 16.86 23.2077 16.7734 23.171C16.7229 23.1495 16.6532 23.0949 16.6175 23.0488C16.5597 22.9742 16.553 22.9499 16.553 22.8119C16.553 22.6805 16.5612 22.6465 16.6091 22.579Z" fill="white"/>
</svg>
