<svg width="34" height="34" viewBox="0 0 34 34" fill="none" xmlns="http://www.w3.org/2000/svg">
<rect width="33.5194" height="33.4902" rx="4" fill="white" fill-opacity="0.1"/>
<path d="M15.4456 18.5395C15.1485 18.5395 14.9067 18.2977 14.9067 18.0006V15.9884H12.8944C12.5972 15.9884 12.3555 15.7467 12.3555 15.4495C12.3555 15.1524 12.5972 14.9106 12.8944 14.9106H14.9067V12.8983C14.9067 12.6011 15.1485 12.3594 15.4456 12.3594C15.7427 12.3594 15.9845 12.6011 15.9845 12.8983V14.9104H17.9967C18.2938 14.9104 18.5355 15.1522 18.5355 15.4493C18.5355 15.7465 18.2938 15.9882 17.9967 15.9882H15.9847V18.0006C15.9847 18.2977 15.7427 18.5395 15.4456 18.5395Z" fill="black"/>
<path d="M15.4451 18.3498C15.2527 18.3498 15.0963 18.1933 15.0963 18.0009V15.7985H12.8941C12.7017 15.7985 12.5452 15.6421 12.5452 15.4497C12.5452 15.2573 12.7017 15.1009 12.8941 15.1009H15.0965V12.8986C15.0965 12.7062 15.2529 12.5498 15.4453 12.5498C15.6377 12.5498 15.7941 12.7062 15.7941 12.8986V15.101H17.9965C18.1889 15.101 18.3454 15.2575 18.3454 15.4499C18.3454 15.6423 18.1889 15.7987 17.9965 15.7987H15.7939V18.0009C15.7939 18.1933 15.6375 18.3498 15.4451 18.3498Z" fill="white"/>
<path d="M25.0061 25.4902C24.8283 25.4902 24.6779 25.4333 24.6136 25.3802L20.3203 21.0877L20.1748 21.2075C18.8488 22.2983 17.1707 22.8988 15.4495 22.8988C11.3418 22.8988 8 19.557 8 15.4493C8 11.3418 11.3402 8 15.4458 8C19.5535 8 22.8953 11.3418 22.8953 15.4493C22.8953 17.1701 22.2932 18.8494 21.2003 20.1783L21.0804 20.3238L25.3608 24.6043C25.5711 24.8145 25.5724 25.1575 25.3635 25.3692C25.2866 25.4471 25.1597 25.4902 25.0061 25.4902ZM15.4495 9.08886C11.9402 9.08886 9.08517 11.9423 9.08517 15.4495C9.08517 18.9569 11.9402 21.8103 15.4495 21.8103C18.9569 21.8103 21.8103 18.9569 21.8103 15.4495C21.8101 11.9421 18.9567 9.08886 15.4495 9.08886Z" fill="black"/>
<path d="M25.006 25.3001C24.8603 25.3001 24.7561 25.2513 24.7345 25.2334L20.3328 20.8311L20.0539 21.0606C18.7622 22.1232 17.1271 22.7086 15.4495 22.7086C11.4466 22.7086 8.19012 19.4521 8.19012 15.4492C8.19012 11.4464 11.4451 8.18994 15.4459 8.18994C19.4488 8.18994 22.7053 11.4464 22.7053 15.4492C22.7053 17.1259 22.1188 18.7626 21.0536 20.0573L20.8241 20.3361L25.2266 24.7384C25.3632 24.875 25.364 25.0979 25.2283 25.2353C25.1885 25.276 25.1053 25.3001 25.006 25.3001ZM15.4495 8.89849C11.8353 8.89849 8.89498 11.8372 8.89498 15.4492C8.89498 19.0613 11.8353 22 15.4495 22C19.0617 22 22.0004 19.0615 22.0004 15.4492C22.0004 11.8372 19.0617 8.89849 15.4495 8.89849Z" fill="white"/>
</svg>
