<svg width="34" height="34" viewBox="0 0 34 34" fill="none" xmlns="http://www.w3.org/2000/svg">
<rect width="33.5194" height="33.4902" rx="4" fill="white" fill-opacity="0.1"/>
<path d="M12.8944 15.9881H14.9067L17.9967 15.9879C18.2938 15.9879 18.5355 15.7462 18.5355 15.4491C18.5355 15.1519 18.2938 14.9102 17.9967 14.9102H15.9845L12.8944 14.9104C12.5972 14.9104 12.3555 15.1521 12.3555 15.4492C12.3555 15.7464 12.5972 15.9881 12.8944 15.9881Z" fill="white"/>
<path d="M25.0061 25.4902C24.8283 25.4902 24.6779 25.4333 24.6136 25.3802L20.3203 21.0877L20.1748 21.2075C18.8488 22.2983 17.1707 22.8988 15.4495 22.8988C11.3418 22.8988 8 19.557 8 15.4493C8 11.3418 11.3402 8 15.4458 8C19.5535 8 22.8953 11.3418 22.8953 15.4493C22.8953 17.1701 22.2932 18.8494 21.2003 20.1783L21.0804 20.3238L25.3608 24.6043C25.5711 24.8145 25.5724 25.1575 25.3635 25.3692C25.2866 25.4471 25.1597 25.4902 25.0061 25.4902ZM15.4495 9.08886C11.9402 9.08886 9.08517 11.9423 9.08517 15.4495C9.08517 18.9569 11.9402 21.8103 15.4495 21.8103C18.9569 21.8103 21.8103 18.9569 21.8103 15.4495C21.8101 11.9421 18.9567 9.08886 15.4495 9.08886Z" fill="black"/>
<path d="M25.006 25.3001C24.8602 25.3001 24.756 25.2513 24.7345 25.2334L20.3328 20.8311L20.0539 21.0606C18.7621 22.1232 17.127 22.7086 15.4495 22.7086C11.4466 22.7086 8.19006 19.4521 8.19006 15.4492C8.19006 11.4464 11.445 8.18994 15.4458 8.18994C19.4487 8.18994 22.7052 11.4464 22.7052 15.4492C22.7052 17.1259 22.1187 18.7626 21.0535 20.0573L20.824 20.3361L25.2265 24.7384C25.3631 24.875 25.3639 25.0979 25.2283 25.2353C25.1884 25.276 25.1053 25.3001 25.006 25.3001ZM15.4495 8.89849C11.8352 8.89849 8.89492 11.8372 8.89492 15.4492C8.89492 19.0613 11.8352 22 15.4495 22C19.0616 22 22.0004 19.0615 22.0004 15.4492C22.0004 11.8372 19.0616 8.89849 15.4495 8.89849Z" fill="white"/>
</svg>
