<svg width="595" height="80" viewBox="0 0 595 80" fill="none" xmlns="http://www.w3.org/2000/svg">
<rect x="0.5" y="0.5" width="594" height="79" fill="white" fill-opacity="0.61" stroke="white"/>
<g filter="url(#filter0_d_1980_881)">
<circle cx="95.2113" cy="43.2113" r="20.5686" fill="#0F76C7" stroke="#0F76C7" stroke-width="1.28553"/>
<path d="M101.031 38.7793C101.171 38.6387 101.25 38.4481 101.25 38.2493C101.25 38.0506 101.171 37.86 101.031 37.7193L95.7808 32.4693C95.6402 32.3289 95.4496 32.25 95.2508 32.25C95.0521 32.25 94.8614 32.3289 94.7208 32.4693L89.4708 37.7193C89.3383 37.8615 89.2662 38.0496 89.2696 38.2439C89.2731 38.4382 89.3518 38.6235 89.4892 38.761C89.6266 38.8984 89.812 38.9771 90.0063 38.9805C90.2006 38.9839 90.3886 38.9118 90.5308 38.7793L94.5008 34.8093V51.1893L90.5308 47.2193C90.4622 47.1457 90.3794 47.0866 90.2874 47.0456C90.1954 47.0046 90.096 46.9825 89.9953 46.9807C89.8946 46.979 89.7946 46.9975 89.7012 47.0352C89.6078 47.0729 89.523 47.1291 89.4518 47.2003C89.3806 47.2715 89.3244 47.3564 89.2867 47.4497C89.249 47.5431 89.2305 47.6432 89.2322 47.7439C89.234 47.8446 89.256 47.9439 89.297 48.0359C89.338 48.1279 89.3971 48.2107 89.4708 48.2793L94.7208 53.5293C94.8614 53.6698 95.0521 53.7487 95.2508 53.7487C95.4496 53.7487 95.6402 53.6698 95.7808 53.5293L101.031 48.2793C101.105 48.2107 101.164 48.1279 101.205 48.0359C101.246 47.9439 101.268 47.8446 101.269 47.7439C101.271 47.6432 101.253 47.5431 101.215 47.4497C101.177 47.3564 101.121 47.2715 101.05 47.2003C100.979 47.1291 100.894 47.0729 100.8 47.0352C100.707 46.9975 100.607 46.979 100.506 46.9807C100.406 46.9825 100.306 47.0046 100.214 47.0456C100.122 47.0866 100.039 47.1457 99.9708 47.2193L96.0008 51.1893V34.8093L99.9708 38.7793C100.111 38.9198 100.302 38.9987 100.501 38.9987C100.7 38.9987 100.89 38.9198 101.031 38.7793Z" fill="white"/>
</g>
<path d="M124.817 40.6289V31.1876H126.813V35.0831H130.865V31.1876H132.857V40.6289H130.865V36.7288H126.813V40.6289H124.817ZM137.692 40.7672C136.964 40.7672 136.337 40.6197 135.812 40.3246C135.289 40.0265 134.886 39.6055 134.604 39.0615C134.321 38.5144 134.18 37.8675 134.18 37.1207C134.18 36.3923 134.321 35.753 134.604 35.2029C134.886 34.6528 135.284 34.2241 135.798 33.9167C136.314 33.6094 136.92 33.4557 137.614 33.4557C138.081 33.4557 138.516 33.531 138.919 33.6816C139.324 33.8291 139.678 34.0519 139.979 34.3501C140.283 34.6482 140.52 35.0231 140.689 35.4749C140.858 35.9236 140.943 36.4492 140.943 37.0515V37.5909H134.963V36.3739H139.094C139.094 36.0911 139.032 35.8406 138.91 35.6224C138.787 35.4042 138.616 35.2336 138.398 35.1107C138.183 34.9847 137.932 34.9217 137.646 34.9217C137.348 34.9217 137.084 34.9909 136.853 35.1292C136.626 35.2644 136.448 35.4472 136.319 35.6777C136.19 35.9052 136.124 36.1587 136.12 36.4384V37.5955C136.12 37.9459 136.185 38.2486 136.314 38.5037C136.446 38.7588 136.632 38.9555 136.872 39.0938C137.112 39.2321 137.396 39.3012 137.725 39.3012C137.943 39.3012 138.143 39.2705 138.324 39.209C138.505 39.1476 138.661 39.0554 138.79 38.9324C138.919 38.8095 139.017 38.6589 139.085 38.4806L140.901 38.6005C140.809 39.0369 140.62 39.418 140.334 39.7438C140.051 40.0665 139.686 40.3185 139.237 40.4998C138.791 40.6781 138.276 40.7672 137.692 40.7672ZM142.224 40.6289V33.5479H144.188V40.6289H142.224ZM143.211 32.6351C142.919 32.6351 142.668 32.5383 142.459 32.3447C142.253 32.148 142.15 31.9129 142.15 31.6394C142.15 31.3689 142.253 31.1369 142.459 30.9433C142.668 30.7466 142.919 30.6482 143.211 30.6482C143.503 30.6482 143.752 30.7466 143.957 30.9433C144.166 31.1369 144.271 31.3689 144.271 31.6394C144.271 31.9129 144.166 32.148 143.957 32.3447C143.752 32.5383 143.503 32.6351 143.211 32.6351ZM148.951 43.4318C148.315 43.4318 147.77 43.3442 147.315 43.169C146.863 42.9969 146.503 42.7618 146.236 42.4637C145.969 42.1656 145.795 41.8306 145.715 41.4587L147.531 41.2144C147.587 41.3558 147.674 41.4879 147.794 41.6108C147.914 41.7338 148.072 41.8321 148.269 41.9059C148.469 41.9827 148.712 42.0211 148.997 42.0211C149.425 42.0211 149.776 41.9166 150.053 41.7077C150.333 41.5017 150.473 41.156 150.473 40.6704V39.375H150.39C150.304 39.5717 150.174 39.7576 150.002 39.9328C149.83 40.108 149.609 40.2509 149.339 40.3615C149.068 40.4722 148.745 40.5275 148.37 40.5275C147.839 40.5275 147.355 40.4046 146.918 40.1587C146.485 39.9097 146.139 39.5302 145.881 39.02C145.626 38.5068 145.498 37.8583 145.498 37.0746C145.498 36.2724 145.629 35.6024 145.89 35.0646C146.151 34.5268 146.499 34.1242 146.932 33.8568C147.369 33.5894 147.846 33.4557 148.366 33.4557C148.762 33.4557 149.094 33.5233 149.362 33.6586C149.629 33.7907 149.844 33.9567 150.007 34.1564C150.173 34.3531 150.3 34.5468 150.39 34.7373H150.463V33.5479H152.413V40.6981C152.413 41.3004 152.266 41.8045 151.971 42.2101C151.676 42.6158 151.267 42.9201 150.745 43.1229C150.225 43.3288 149.627 43.4318 148.951 43.4318ZM148.993 39.0523C149.309 39.0523 149.577 38.9739 149.795 38.8172C150.016 38.6574 150.185 38.4299 150.302 38.1349C150.422 37.8368 150.482 37.4803 150.482 37.0654C150.482 36.6505 150.423 36.2909 150.307 35.9866C150.19 35.6793 150.021 35.4411 149.8 35.2721C149.578 35.103 149.309 35.0185 148.993 35.0185C148.67 35.0185 148.398 35.1061 148.177 35.2813C147.956 35.4534 147.788 35.6931 147.674 36.0004C147.561 36.3078 147.504 36.6628 147.504 37.0654C147.504 37.4741 147.561 37.8276 147.674 38.1257C147.791 38.4207 147.959 38.6497 148.177 38.8126C148.398 38.9724 148.67 39.0523 148.993 39.0523ZM155.94 36.5352V40.6289H153.976V31.1876H155.885V34.7972H155.968C156.128 34.3793 156.386 34.0519 156.742 33.8153C157.099 33.5756 157.546 33.4557 158.084 33.4557C158.575 33.4557 159.004 33.5633 159.37 33.7784C159.739 33.9905 160.025 34.2963 160.227 34.6958C160.433 35.0923 160.535 35.5671 160.532 36.1203V40.6289H158.568V36.4707C158.571 36.0343 158.46 35.6946 158.236 35.4519C158.015 35.2091 157.704 35.0877 157.305 35.0877C157.037 35.0877 156.801 35.1445 156.595 35.2582C156.392 35.3719 156.232 35.5379 156.115 35.7561C156.002 35.9712 155.943 36.2309 155.94 36.5352ZM165.844 33.5479V35.0231H161.579V33.5479H165.844ZM162.547 31.8514H164.511V38.453C164.511 38.6343 164.539 38.7757 164.594 38.8771C164.65 38.9754 164.726 39.0446 164.825 39.0845C164.926 39.1245 165.043 39.1445 165.175 39.1445C165.267 39.1445 165.36 39.1368 165.452 39.1214C165.544 39.103 165.615 39.0892 165.664 39.0799L165.973 40.5413C165.874 40.572 165.736 40.6074 165.558 40.6473C165.379 40.6904 165.163 40.7165 164.908 40.7257C164.434 40.7442 164.02 40.6812 163.663 40.5367C163.31 40.3923 163.035 40.1679 162.838 39.8636C162.641 39.5594 162.544 39.1752 162.547 38.7111V31.8514Z" fill="black"/>
<path d="M124.811 55.793V55.1015L127.408 52.2586C127.712 51.9257 127.963 51.6363 128.16 51.3904C128.358 51.142 128.504 50.9089 128.598 50.6912C128.696 50.471 128.744 50.2405 128.744 49.9997C128.744 49.7231 128.678 49.4836 128.545 49.2813C128.414 49.079 128.235 48.9228 128.007 48.8126C127.779 48.7025 127.523 48.6474 127.238 48.6474C126.936 48.6474 126.672 48.7102 126.447 48.8357C126.224 48.9586 126.051 49.1315 125.928 49.3543C125.808 49.5771 125.748 49.8384 125.748 50.138H124.841C124.841 49.677 124.948 49.2724 125.16 48.924C125.373 48.5757 125.662 48.3042 126.028 48.1096C126.397 47.915 126.811 47.8176 127.269 47.8176C127.73 47.8176 128.139 47.915 128.495 48.1096C128.851 48.3042 129.13 48.5668 129.332 48.8971C129.535 49.2275 129.636 49.5951 129.636 49.9997C129.636 50.2891 129.583 50.5721 129.478 50.8487C129.376 51.1228 129.196 51.4288 128.94 51.7669C128.687 52.1024 128.335 52.5122 127.884 52.9962L126.117 54.8863V54.9478H129.774V55.793H124.811ZM131.606 55.793L135.125 48.8318V48.7704H131.069V47.9252H136.109V48.8165L132.605 55.793H131.606ZM139.938 55.9005C139.359 55.9005 138.866 55.743 138.459 55.428C138.052 55.1104 137.741 54.6507 137.526 54.0488C137.31 53.4444 137.203 52.7145 137.203 51.8591C137.203 51.0088 137.31 50.2827 137.526 49.6808C137.743 49.0764 138.056 48.6154 138.463 48.2978C138.873 47.9777 139.364 47.8176 139.938 47.8176C140.512 47.8176 141.002 47.9777 141.409 48.2978C141.819 48.6154 142.132 49.0764 142.347 49.6808C142.565 50.2827 142.673 51.0088 142.673 51.8591C142.673 52.7145 142.566 53.4444 142.351 54.0488C142.136 54.6507 141.824 55.1104 141.417 55.428C141.01 55.743 140.517 55.9005 139.938 55.9005ZM139.938 55.0554C140.512 55.0554 140.957 54.7788 141.275 54.2256C141.593 53.6724 141.751 52.8835 141.751 51.8591C141.751 51.1778 141.678 50.5977 141.532 50.1188C141.389 49.6399 141.182 49.2749 140.91 49.0239C140.641 48.7729 140.317 48.6474 139.938 48.6474C139.37 48.6474 138.925 48.9279 138.605 49.4888C138.285 50.0471 138.125 50.8372 138.125 51.8591C138.125 52.5403 138.197 53.1192 138.34 53.5955C138.483 54.0719 138.69 54.4343 138.958 54.6827C139.23 54.9312 139.557 55.0554 139.938 55.0554ZM144.149 55.793V49.8921H145.025V50.8141H145.101C145.224 50.4991 145.423 50.2545 145.697 50.0804C145.971 49.9037 146.3 49.8153 146.684 49.8153C147.073 49.8153 147.397 49.9037 147.656 50.0804C147.917 50.2545 148.121 50.4991 148.267 50.8141H148.328C148.479 50.5094 148.706 50.2673 149.008 50.0881C149.311 49.9062 149.673 49.8153 150.096 49.8153C150.623 49.8153 151.055 49.9805 151.39 50.3109C151.726 50.6387 151.893 51.1497 151.893 51.8437V55.793H150.987V51.8437C150.987 51.4083 150.868 51.0972 150.63 50.9102C150.391 50.7232 150.111 50.6297 149.788 50.6297C149.373 50.6297 149.052 50.7552 148.824 51.0062C148.596 51.2547 148.482 51.5697 148.482 51.9513V55.793H147.56V51.7515C147.56 51.416 147.451 51.1458 147.233 50.9409C147.016 50.7335 146.735 50.6297 146.392 50.6297C146.157 50.6297 145.936 50.6925 145.731 50.818C145.529 50.9435 145.365 51.1176 145.24 51.3405C145.117 51.5607 145.055 51.8155 145.055 52.105V55.793H144.149ZM153.551 55.793V49.8921H154.427V50.8141H154.504C154.627 50.4991 154.825 50.2545 155.099 50.0804C155.373 49.9037 155.702 49.8153 156.087 49.8153C156.476 49.8153 156.8 49.9037 157.059 50.0804C157.32 50.2545 157.523 50.4991 157.669 50.8141H157.731C157.882 50.5094 158.109 50.2673 158.411 50.0881C158.713 49.9062 159.075 49.8153 159.498 49.8153C160.026 49.8153 160.457 49.9805 160.793 50.3109C161.128 50.6387 161.296 51.1497 161.296 51.8437V55.793H160.389V51.8437C160.389 51.4083 160.27 51.0972 160.032 50.9102C159.794 50.7232 159.513 50.6297 159.191 50.6297C158.776 50.6297 158.454 50.7552 158.226 51.0062C157.999 51.2547 157.885 51.5697 157.885 51.9513V55.793H156.963V51.7515C156.963 51.416 156.854 51.1458 156.636 50.9409C156.418 50.7335 156.138 50.6297 155.795 50.6297C155.559 50.6297 155.339 50.6925 155.134 50.818C154.932 50.9435 154.768 51.1176 154.642 51.3405C154.519 51.5607 154.458 51.8155 154.458 52.105V55.793H153.551Z" fill="black"/>
<line x1="215.045" y1="25.7109" x2="215.045" y2="60.7109" stroke="#C8C8C8" stroke-width="1.10919"/>
<g filter="url(#filter1_d_1980_881)">
<circle cx="250.702" cy="43.2113" r="20.5686" fill="#0F76C7" stroke="#0F76C7" stroke-width="1.28553"/>
<path d="M245.779 36.477C245.639 36.3365 245.448 36.2576 245.249 36.2576C245.051 36.2576 244.86 36.3365 244.719 36.477L239.469 41.727C239.329 41.8676 239.25 42.0582 239.25 42.257C239.25 42.4557 239.329 42.6464 239.469 42.787L244.719 48.037C244.862 48.1695 245.05 48.2416 245.244 48.2382C245.438 48.2347 245.624 48.156 245.761 48.0186C245.898 47.8812 245.977 47.6958 245.981 47.5015C245.984 47.3072 245.912 47.1192 245.779 46.977L241.809 43.007H258.189L254.219 46.977C254.146 47.0457 254.087 47.1285 254.046 47.2205C254.005 47.3124 253.983 47.4118 253.981 47.5125C253.979 47.6132 253.997 47.7132 254.035 47.8066C254.073 47.9 254.129 47.9848 254.2 48.056C254.272 48.1272 254.356 48.1834 254.45 48.2211C254.543 48.2588 254.643 48.2774 254.744 48.2756C254.845 48.2738 254.944 48.2518 255.036 48.2108C255.128 48.1698 255.211 48.1107 255.279 48.037L260.529 42.787C260.67 42.6464 260.749 42.4557 260.749 42.257C260.749 42.0582 260.67 41.8676 260.529 41.727L255.279 36.477C255.211 36.4033 255.128 36.3442 255.036 36.3032C254.944 36.2622 254.845 36.2402 254.744 36.2384C254.643 36.2366 254.543 36.2551 254.45 36.2929C254.356 36.3306 254.272 36.3867 254.2 36.458C254.129 36.5292 254.073 36.614 254.035 36.7074C253.997 36.8008 253.979 36.9008 253.981 37.0015C253.983 37.1022 254.005 37.2015 254.046 37.2935C254.087 37.3855 254.146 37.4683 254.219 37.537L258.189 41.507H241.809L245.779 37.537C245.92 37.3964 245.999 37.2057 245.999 37.007C245.999 36.8082 245.92 36.6176 245.779 36.477Z" fill="white"/>
</g>
<path d="M284.736 40.3906H281.389V30.9493H284.763C285.713 30.9493 286.531 31.1383 287.216 31.5163C287.901 31.8913 288.428 32.4307 288.797 33.1345C289.169 33.8382 289.355 34.6803 289.355 35.6607C289.355 36.6442 289.169 37.4894 288.797 38.1963C288.428 38.9031 287.898 39.4456 287.207 39.8236C286.518 40.2016 285.695 40.3906 284.736 40.3906ZM283.385 38.6803H284.653C285.243 38.6803 285.739 38.5758 286.142 38.3668C286.548 38.1548 286.852 37.8275 287.055 37.3849C287.261 36.9393 287.364 36.3645 287.364 35.6607C287.364 34.9631 287.261 34.393 287.055 33.9504C286.852 33.5079 286.549 33.1821 286.146 32.9731C285.744 32.7641 285.248 32.6596 284.657 32.6596H283.385V38.6803ZM290.797 40.3906V33.3096H292.761V40.3906H290.797ZM291.783 32.3968C291.491 32.3968 291.241 32.3 291.032 32.1064C290.826 31.9097 290.723 31.6746 290.723 31.4011C290.723 31.1306 290.826 30.8986 291.032 30.705C291.241 30.5083 291.491 30.4099 291.783 30.4099C292.075 30.4099 292.324 30.5083 292.53 30.705C292.739 30.8986 292.844 31.1306 292.844 31.4011C292.844 31.6746 292.739 31.9097 292.53 32.1064C292.324 32.3 292.075 32.3968 291.783 32.3968ZM294.334 40.3906V33.3096H296.206V34.5589H296.289C296.436 34.144 296.682 33.8167 297.026 33.577C297.37 33.3373 297.782 33.2174 298.262 33.2174C298.747 33.2174 299.161 33.3388 299.502 33.5816C299.843 33.8213 300.07 34.1471 300.184 34.5589H300.258C300.402 34.1533 300.663 33.829 301.041 33.5862C301.423 33.3404 301.873 33.2174 302.392 33.2174C303.053 33.2174 303.589 33.428 304.001 33.849C304.416 34.267 304.623 34.8601 304.623 35.6285V40.3906H302.664V36.0157C302.664 35.6223 302.56 35.3273 302.351 35.1306C302.142 34.9339 301.88 34.8356 301.567 34.8356C301.21 34.8356 300.932 34.9493 300.733 35.1767C300.533 35.401 300.433 35.6976 300.433 36.0664V40.3906H298.529V35.9742C298.529 35.6269 298.429 35.3503 298.229 35.1444C298.033 34.9385 297.773 34.8356 297.45 34.8356C297.232 34.8356 297.035 34.8909 296.86 35.0015C296.688 35.1091 296.551 35.2612 296.45 35.4579C296.348 35.6515 296.298 35.879 296.298 36.1402V40.3906H294.334ZM309.402 40.5289C308.673 40.5289 308.046 40.3814 307.521 40.0864C306.998 39.7882 306.596 39.3672 306.313 38.8232C306.03 38.2762 305.889 37.6292 305.889 36.8824C305.889 36.154 306.03 35.5148 306.313 34.9646C306.596 34.4145 306.994 33.9858 307.507 33.6784C308.023 33.3711 308.629 33.2174 309.323 33.2174C309.791 33.2174 310.225 33.2927 310.628 33.4433C311.034 33.5908 311.387 33.8137 311.688 34.1118C311.993 34.4099 312.229 34.7848 312.398 35.2366C312.567 35.6853 312.652 36.2109 312.652 36.8132V37.3526H306.673V36.1356H310.803C310.803 35.8528 310.742 35.6024 310.619 35.3841C310.496 35.1659 310.325 34.9954 310.107 34.8724C309.892 34.7464 309.641 34.6834 309.356 34.6834C309.058 34.6834 308.793 34.7526 308.563 34.8909C308.335 35.0261 308.157 35.209 308.028 35.4395C307.899 35.6669 307.833 35.9204 307.83 36.2001V37.3572C307.83 37.7076 307.894 38.0103 308.023 38.2654C308.155 38.5205 308.341 38.7172 308.581 38.8555C308.821 38.9938 309.105 39.0629 309.434 39.0629C309.652 39.0629 309.852 39.0322 310.033 38.9707C310.215 38.9093 310.37 38.8171 310.499 38.6941C310.628 38.5712 310.726 38.4206 310.794 38.2424L312.61 38.3622C312.518 38.7986 312.329 39.1797 312.043 39.5055C311.761 39.8282 311.395 40.0802 310.946 40.2615C310.5 40.4398 309.986 40.5289 309.402 40.5289ZM315.897 36.2969V40.3906H313.933V33.3096H315.805V34.5589H315.888C316.045 34.1471 316.308 33.8213 316.676 33.5816C317.045 33.3388 317.492 33.2174 318.018 33.2174C318.51 33.2174 318.938 33.325 319.304 33.5401C319.67 33.7553 319.954 34.0626 320.157 34.4621C320.36 34.8586 320.461 35.3319 320.461 35.882V40.3906H318.497V36.2324C318.5 35.799 318.39 35.461 318.165 35.2182C317.941 34.9723 317.632 34.8494 317.239 34.8494C316.974 34.8494 316.741 34.9062 316.538 35.02C316.338 35.1337 316.182 35.2996 316.068 35.5178C315.957 35.733 315.9 35.9927 315.897 36.2969ZM327.901 35.3288L326.103 35.4395C326.072 35.2858 326.006 35.1475 325.904 35.0246C325.803 34.8986 325.669 34.7987 325.503 34.7249C325.34 34.6481 325.145 34.6097 324.918 34.6097C324.614 34.6097 324.357 34.6742 324.148 34.8033C323.939 34.9293 323.835 35.0983 323.835 35.3104C323.835 35.4794 323.902 35.6223 324.037 35.7391C324.173 35.8559 324.405 35.9496 324.734 36.0203L326.015 36.2785C326.704 36.4199 327.217 36.6473 327.555 36.9608C327.893 37.2743 328.062 37.6861 328.062 38.1963C328.062 38.6603 327.925 39.0675 327.652 39.4179C327.381 39.7683 327.009 40.0418 326.536 40.2385C326.066 40.4321 325.523 40.5289 324.909 40.5289C323.971 40.5289 323.224 40.3338 322.668 39.9435C322.115 39.5501 321.791 39.0153 321.696 38.3392L323.627 38.2377C323.685 38.5236 323.827 38.7418 324.051 38.8924C324.276 39.0399 324.563 39.1136 324.913 39.1136C325.258 39.1136 325.534 39.0476 325.743 38.9154C325.955 38.7802 326.063 38.6065 326.066 38.3945C326.063 38.2162 325.987 38.0702 325.84 37.9565C325.692 37.8397 325.465 37.7506 325.158 37.6892L323.931 37.4448C323.24 37.3065 322.725 37.0668 322.387 36.7257C322.052 36.3845 321.885 35.9496 321.885 35.421C321.885 34.9662 322.007 34.5743 322.253 34.2455C322.502 33.9166 322.851 33.6631 323.3 33.4848C323.752 33.3066 324.28 33.2174 324.886 33.2174C325.78 33.2174 326.484 33.4064 326.997 33.7845C327.513 34.1625 327.815 34.6773 327.901 35.3288ZM329.299 40.3906V33.3096H331.262V40.3906H329.299ZM330.285 32.3968C329.993 32.3968 329.743 32.3 329.534 32.1064C329.328 31.9097 329.225 31.6746 329.225 31.4011C329.225 31.1306 329.328 30.8986 329.534 30.705C329.743 30.5083 329.993 30.4099 330.285 30.4099C330.577 30.4099 330.826 30.5083 331.032 30.705C331.241 30.8986 331.345 31.1306 331.345 31.4011C331.345 31.6746 331.241 31.9097 331.032 32.1064C330.826 32.3 330.577 32.3968 330.285 32.3968ZM336.035 40.5289C335.319 40.5289 334.7 40.3768 334.177 40.0725C333.658 39.7652 333.257 39.338 332.974 38.7909C332.691 38.2408 332.55 37.6031 332.55 36.8778C332.55 36.1463 332.691 35.5071 332.974 34.96C333.257 34.4099 333.658 33.9827 334.177 33.6784C334.7 33.3711 335.319 33.2174 336.035 33.2174C336.751 33.2174 337.369 33.3711 337.888 33.6784C338.411 33.9827 338.813 34.4099 339.096 34.96C339.379 35.5071 339.52 36.1463 339.52 36.8778C339.52 37.6031 339.379 38.2408 339.096 38.7909C338.813 39.338 338.411 39.7652 337.888 40.0725C337.369 40.3768 336.751 40.5289 336.035 40.5289ZM336.044 39.0076C336.37 39.0076 336.642 38.9154 336.86 38.731C337.078 38.5435 337.243 38.2885 337.353 37.9658C337.467 37.6431 337.524 37.2758 337.524 36.864C337.524 36.4521 337.467 36.0849 337.353 35.7622C337.243 35.4395 337.078 35.1844 336.86 34.9969C336.642 34.8094 336.37 34.7157 336.044 34.7157C335.715 34.7157 335.439 34.8094 335.214 34.9969C334.993 35.1844 334.826 35.4395 334.712 35.7622C334.601 36.0849 334.546 36.4521 334.546 36.864C334.546 37.2758 334.601 37.6431 334.712 37.9658C334.826 38.2885 334.993 38.5435 335.214 38.731C335.439 38.9154 335.715 39.0076 336.044 39.0076ZM342.761 36.2969V40.3906H340.797V33.3096H342.669V34.5589H342.752C342.909 34.1471 343.171 33.8213 343.54 33.5816C343.909 33.3388 344.356 33.2174 344.882 33.2174C345.373 33.2174 345.802 33.325 346.168 33.5401C346.534 33.7553 346.818 34.0626 347.021 34.4621C347.223 34.8586 347.325 35.3319 347.325 35.882V40.3906H345.361V36.2324C345.364 35.799 345.253 35.461 345.029 35.2182C344.805 34.9723 344.496 34.8494 344.103 34.8494C343.838 34.8494 343.605 34.9062 343.402 35.02C343.202 35.1337 343.045 35.2996 342.932 35.5178C342.821 35.733 342.764 35.9927 342.761 36.2969Z" fill="black"/>
<path d="M283.903 56.1427C283.375 56.1427 282.909 56.0492 282.505 55.8623C282.102 55.6728 281.789 55.4128 281.563 55.0824C281.338 54.7495 281.227 54.3704 281.229 53.9453C281.227 53.6123 281.292 53.305 281.425 53.0233C281.558 52.739 281.74 52.5021 281.971 52.3126C282.204 52.1205 282.464 51.9988 282.75 51.9476V51.9015C282.374 51.8042 282.074 51.5929 281.851 51.2676C281.629 50.9398 281.519 50.5672 281.521 50.1497C281.519 49.7502 281.62 49.3929 281.825 49.0779C282.029 48.7628 282.311 48.5144 282.67 48.3326C283.031 48.1507 283.442 48.0598 283.903 48.0598C284.359 48.0598 284.766 48.1507 285.125 48.3326C285.483 48.5144 285.765 48.7628 285.97 49.0779C286.177 49.3929 286.282 49.7502 286.285 50.1497C286.282 50.5672 286.168 50.9398 285.943 51.2676C285.72 51.5929 285.424 51.8042 285.055 51.9015V51.9476C285.34 51.9988 285.596 52.1205 285.824 52.3126C286.052 52.5021 286.234 52.739 286.369 53.0233C286.505 53.305 286.574 53.6123 286.577 53.9453C286.574 54.3704 286.459 54.7495 286.231 55.0824C286.006 55.4128 285.692 55.6728 285.29 55.8623C284.89 56.0492 284.428 56.1427 283.903 56.1427ZM283.903 55.2976C284.259 55.2976 284.566 55.2399 284.825 55.1247C285.084 55.0094 285.283 54.8468 285.424 54.6368C285.565 54.4268 285.637 54.1809 285.639 53.8992C285.637 53.6021 285.56 53.3396 285.409 53.1116C285.258 52.8837 285.052 52.7044 284.79 52.5738C284.532 52.4432 284.236 52.3779 283.903 52.3779C283.567 52.3779 283.268 52.4432 283.004 52.5738C282.743 52.7044 282.537 52.8837 282.385 53.1116C282.237 53.3396 282.164 53.6021 282.166 53.8992C282.164 54.1809 282.232 54.4268 282.37 54.6368C282.511 54.8468 282.712 55.0094 282.973 55.1247C283.234 55.2399 283.544 55.2976 283.903 55.2976ZM283.903 51.5634C284.185 51.5634 284.434 51.5071 284.652 51.3944C284.872 51.2817 285.045 51.1242 285.171 50.9219C285.296 50.7195 285.36 50.4826 285.363 50.2112C285.36 49.9448 285.297 49.713 285.175 49.5158C285.052 49.3161 284.881 49.1624 284.664 49.0548C284.446 48.9447 284.192 48.8896 283.903 48.8896C283.608 48.8896 283.351 48.9447 283.131 49.0548C282.911 49.1624 282.74 49.3161 282.62 49.5158C282.499 49.713 282.441 49.9448 282.443 50.2112C282.441 50.4826 282.501 50.7195 282.624 50.9219C282.749 51.1242 282.922 51.2817 283.142 51.3944C283.363 51.5071 283.616 51.5634 283.903 51.5634ZM290.615 56.1427C290.037 56.1427 289.543 55.9852 289.136 55.6702C288.729 55.3526 288.418 54.8929 288.203 54.291C287.988 53.6866 287.88 52.9567 287.88 52.1013C287.88 51.251 287.988 50.5249 288.203 49.923C288.42 49.3186 288.733 48.8576 289.14 48.54C289.55 48.2199 290.042 48.0598 290.615 48.0598C291.189 48.0598 291.679 48.2199 292.087 48.54C292.496 48.8576 292.809 49.3186 293.024 49.923C293.242 50.5249 293.351 51.251 293.351 52.1013C293.351 52.9567 293.243 53.6866 293.028 54.291C292.813 54.8929 292.502 55.3526 292.094 55.6702C291.687 55.9852 291.194 56.1427 290.615 56.1427ZM290.615 55.2976C291.189 55.2976 291.635 55.021 291.952 54.4677C292.27 53.9145 292.429 53.1257 292.429 52.1013C292.429 51.42 292.356 50.8399 292.21 50.361C292.066 49.8821 291.859 49.5171 291.587 49.2661C291.318 49.0151 290.994 48.8896 290.615 48.8896C290.047 48.8896 289.602 49.1701 289.282 49.731C288.962 50.2893 288.802 51.0794 288.802 52.1013C288.802 52.7825 288.874 53.3613 289.017 53.8377C289.161 54.3141 289.367 54.6765 289.636 54.9249C289.907 55.1733 290.234 55.2976 290.615 55.2976ZM294.826 56.0352V50.1343H295.702V51.0563H295.779C295.901 50.7413 296.1 50.4967 296.374 50.3226C296.648 50.1459 296.977 50.0575 297.361 50.0575C297.751 50.0575 298.075 50.1459 298.333 50.3226C298.594 50.4967 298.798 50.7413 298.944 51.0563H299.006C299.157 50.7516 299.383 50.5095 299.686 50.3303C299.988 50.1484 300.35 50.0575 300.773 50.0575C301.3 50.0575 301.732 50.2227 302.067 50.5531C302.403 50.8809 302.571 51.3918 302.571 52.0859V56.0352H301.664V52.0859C301.664 51.6505 301.545 51.3393 301.307 51.1524C301.069 50.9654 300.788 50.8719 300.465 50.8719C300.05 50.8719 299.729 50.9974 299.501 51.2484C299.273 51.4968 299.159 51.8119 299.159 52.1935V56.0352H298.237V51.9937C298.237 51.6582 298.128 51.388 297.911 51.1831C297.693 50.9757 297.413 50.8719 297.069 50.8719C296.834 50.8719 296.613 50.9347 296.409 51.0602C296.206 51.1857 296.042 51.3598 295.917 51.5826C295.794 51.8029 295.732 52.0577 295.732 52.3471V56.0352H294.826ZM304.228 56.0352V50.1343H305.104V51.0563H305.181C305.304 50.7413 305.502 50.4967 305.777 50.3226C306.051 50.1459 306.38 50.0575 306.764 50.0575C307.153 50.0575 307.477 50.1459 307.736 50.3226C307.997 50.4967 308.201 50.7413 308.347 51.0563H308.408C308.559 50.7516 308.786 50.5095 309.088 50.3303C309.39 50.1484 309.753 50.0575 310.175 50.0575C310.703 50.0575 311.134 50.2227 311.47 50.5531C311.805 50.8809 311.973 51.3918 311.973 52.0859V56.0352H311.067V52.0859C311.067 51.6505 310.947 51.3393 310.709 51.1524C310.471 50.9654 310.191 50.8719 309.868 50.8719C309.453 50.8719 309.132 50.9974 308.904 51.2484C308.676 51.4968 308.562 51.8119 308.562 52.1935V56.0352H307.64V51.9937C307.64 51.6582 307.531 51.388 307.313 51.1831C307.096 50.9757 306.815 50.8719 306.472 50.8719C306.236 50.8719 306.016 50.9347 305.811 51.0602C305.609 51.1857 305.445 51.3598 305.319 51.5826C305.196 51.8029 305.135 52.0577 305.135 52.3471V56.0352H304.228Z" fill="black"/>
<line x1="370.537" y1="25.7109" x2="370.537" y2="60.7109" stroke="#C8C8C8" stroke-width="1.10919"/>
<g filter="url(#filter2_d_1980_881)">
<circle cx="406.194" cy="43.2113" r="20.5686" fill="#0F76C7" stroke="#0F76C7" stroke-width="1.28553"/>
<path d="M405.999 38.0195C406.283 38.0195 406.52 37.9235 406.712 37.7315C406.904 37.5395 407 37.3022 406.999 37.0195C406.999 36.7369 406.903 36.4995 406.711 36.3075C406.52 36.1155 406.283 36.0195 405.999 36.0195C405.716 36.0195 405.479 36.1155 405.287 36.3075C405.096 36.4995 405 36.7369 404.999 37.0195C404.999 37.3022 405.095 37.5399 405.287 37.7325C405.48 37.9252 405.717 38.0209 405.999 38.0195ZM408.824 38.0195H410.574C411.074 38.0195 411.508 38.1862 411.874 38.5195C412.241 38.8529 412.466 39.2612 412.549 39.7445L413.974 49.7445C414.058 50.3445 413.904 50.8739 413.512 51.3325C413.121 51.7912 412.617 52.0202 411.999 52.0195H399.999C399.383 52.0195 398.878 51.7905 398.486 51.3325C398.094 50.8745 397.94 50.3452 398.024 49.7445L399.449 39.7445C399.533 39.2612 399.758 38.8529 400.124 38.5195C400.491 38.1862 400.924 38.0195 401.424 38.0195H403.174C403.124 37.8529 403.083 37.6905 403.049 37.5325C403.016 37.3745 402.999 37.2035 402.999 37.0195C402.999 36.1862 403.291 35.4779 403.874 34.8945C404.458 34.3112 405.166 34.0195 405.999 34.0195C406.833 34.0195 407.541 34.3112 408.124 34.8945C408.708 35.4779 408.999 36.1862 408.999 37.0195C408.999 37.2029 408.983 37.3739 408.949 37.5325C408.916 37.6912 408.874 37.8535 408.824 38.0195Z" fill="white"/>
</g>
<path d="M445.35 40.6289L442.649 31.1876H444.829L446.392 37.7476H446.47L448.194 31.1876H450.062L451.781 37.7615H451.864L453.427 31.1876H455.607L452.906 40.6289H450.96L449.163 34.4561H449.089L447.296 40.6289H445.35ZM459.105 40.7672C458.377 40.7672 457.75 40.6197 457.224 40.3246C456.702 40.0265 456.299 39.6055 456.017 39.0615C455.734 38.5144 455.592 37.8675 455.592 37.1207C455.592 36.3923 455.734 35.753 456.017 35.2029C456.299 34.6528 456.697 34.2241 457.211 33.9167C457.727 33.6094 458.332 33.4557 459.027 33.4557C459.494 33.4557 459.929 33.531 460.332 33.6816C460.737 33.8291 461.091 34.0519 461.392 34.3501C461.696 34.6482 461.933 35.0231 462.102 35.4749C462.271 35.9236 462.355 36.4492 462.355 37.0515V37.5909H456.376V36.3739H460.507C460.507 36.0911 460.445 35.8406 460.322 35.6224C460.199 35.4042 460.029 35.2336 459.811 35.1107C459.595 34.9847 459.345 34.9217 459.059 34.9217C458.761 34.9217 458.497 34.9909 458.266 35.1292C458.039 35.2644 457.861 35.4472 457.731 35.6777C457.602 35.9052 457.536 36.1587 457.533 36.4384V37.5955C457.533 37.9459 457.598 38.2486 457.727 38.5037C457.859 38.7588 458.045 38.9555 458.285 39.0938C458.524 39.2321 458.809 39.3012 459.138 39.3012C459.356 39.3012 459.555 39.2705 459.737 39.209C459.918 39.1476 460.073 39.0554 460.202 38.9324C460.332 38.8095 460.43 38.6589 460.497 38.4806L462.314 38.6005C462.222 39.0369 462.033 39.418 461.747 39.7438C461.464 40.0665 461.098 40.3185 460.65 40.4998C460.204 40.6781 459.689 40.7672 459.105 40.7672ZM463.637 40.6289V33.5479H465.601V40.6289H463.637ZM464.623 32.6351C464.331 32.6351 464.081 32.5383 463.872 32.3447C463.666 32.148 463.563 31.9129 463.563 31.6394C463.563 31.3689 463.666 31.1369 463.872 30.9433C464.081 30.7466 464.331 30.6482 464.623 30.6482C464.915 30.6482 465.164 30.7466 465.37 30.9433C465.579 31.1369 465.684 31.3689 465.684 31.6394C465.684 31.9129 465.579 32.148 465.37 32.3447C465.164 32.5383 464.915 32.6351 464.623 32.6351ZM470.364 43.4318C469.728 43.4318 469.182 43.3442 468.728 43.169C468.276 42.9969 467.916 42.7618 467.649 42.4637C467.381 42.1656 467.208 41.8306 467.128 41.4587L468.944 41.2144C469 41.3558 469.087 41.4879 469.207 41.6108C469.327 41.7338 469.485 41.8321 469.682 41.9059C469.882 41.9827 470.124 42.0211 470.41 42.0211C470.837 42.0211 471.189 41.9166 471.466 41.7077C471.746 41.5017 471.885 41.156 471.885 40.6704V39.375H471.802C471.716 39.5717 471.587 39.7576 471.415 39.9328C471.243 40.108 471.022 40.2509 470.751 40.3615C470.481 40.4722 470.158 40.5275 469.783 40.5275C469.252 40.5275 468.767 40.4046 468.331 40.1587C467.898 39.9097 467.552 39.5302 467.294 39.02C467.039 38.5068 466.911 37.8583 466.911 37.0746C466.911 36.2724 467.042 35.6024 467.303 35.0646C467.564 34.5268 467.912 34.1242 468.345 33.8568C468.781 33.5894 469.259 33.4557 469.779 33.4557C470.175 33.4557 470.507 33.5233 470.774 33.6586C471.042 33.7907 471.257 33.9567 471.42 34.1564C471.586 34.3531 471.713 34.5468 471.802 34.7373H471.876V33.5479H473.826V40.6981C473.826 41.3004 473.679 41.8045 473.384 42.2101C473.089 42.6158 472.68 42.9201 472.157 43.1229C471.638 43.3288 471.04 43.4318 470.364 43.4318ZM470.406 39.0523C470.722 39.0523 470.989 38.9739 471.208 38.8172C471.429 38.6574 471.598 38.4299 471.715 38.1349C471.835 37.8368 471.895 37.4803 471.895 37.0654C471.895 36.6505 471.836 36.2909 471.719 35.9866C471.603 35.6793 471.434 35.4411 471.212 35.2721C470.991 35.103 470.722 35.0185 470.406 35.0185C470.083 35.0185 469.811 35.1061 469.59 35.2813C469.368 35.4534 469.201 35.6931 469.087 36.0004C468.973 36.3078 468.917 36.6628 468.917 37.0654C468.917 37.4741 468.973 37.8276 469.087 38.1257C469.204 38.4207 469.371 38.6497 469.59 38.8126C469.811 38.9724 470.083 39.0523 470.406 39.0523ZM477.353 36.5352V40.6289H475.389V31.1876H477.298V34.7972H477.381C477.54 34.3793 477.798 34.0519 478.155 33.8153C478.512 33.5756 478.959 33.4557 479.497 33.4557C479.988 33.4557 480.417 33.5633 480.783 33.7784C481.152 33.9905 481.437 34.2963 481.64 34.6958C481.846 35.0923 481.948 35.5671 481.944 36.1203V40.6289H479.981V36.4707C479.984 36.0343 479.873 35.6946 479.649 35.4519C479.427 35.2091 479.117 35.0877 478.717 35.0877C478.45 35.0877 478.213 35.1445 478.007 35.2582C477.805 35.3719 477.645 35.5379 477.528 35.7561C477.414 35.9712 477.356 36.2309 477.353 36.5352ZM487.256 33.5479V35.0231H482.992V33.5479H487.256ZM483.96 31.8514H485.924V38.453C485.924 38.6343 485.952 38.7757 486.007 38.8771C486.062 38.9754 486.139 39.0446 486.238 39.0845C486.339 39.1245 486.456 39.1445 486.588 39.1445C486.68 39.1445 486.772 39.1368 486.864 39.1214C486.957 39.103 487.027 39.0892 487.077 39.0799L487.385 40.5413C487.287 40.572 487.149 40.6074 486.971 40.6473C486.792 40.6904 486.576 40.7165 486.321 40.7257C485.847 40.7442 485.432 40.6812 485.076 40.5367C484.722 40.3923 484.447 40.1679 484.251 39.8636C484.054 39.5594 483.957 39.1752 483.96 38.7111V31.8514Z" fill="black"/>
<path d="M445.985 47.9252V55.793H445.032V48.924H444.986L443.065 50.1995V49.2314L445.032 47.9252H445.985ZM450.768 55.9005C450.24 55.9005 449.774 55.8071 449.369 55.6201C448.967 55.4306 448.653 55.1706 448.428 54.8402C448.203 54.5073 448.091 54.1282 448.094 53.7031C448.091 53.3701 448.157 53.0628 448.29 52.7811C448.423 52.4968 448.605 52.2599 448.835 52.0704C449.068 51.8783 449.328 51.7566 449.615 51.7054V51.6593C449.239 51.562 448.939 51.3507 448.716 51.0254C448.493 50.6976 448.383 50.325 448.386 49.9075C448.383 49.508 448.484 49.1507 448.689 48.8357C448.894 48.5207 449.176 48.2722 449.534 48.0904C449.896 47.9086 450.307 47.8176 450.768 47.8176C451.224 47.8176 451.631 47.9086 451.989 48.0904C452.348 48.2722 452.63 48.5207 452.834 48.8357C453.042 49.1507 453.147 49.508 453.149 49.9075C453.147 50.325 453.033 50.6976 452.808 51.0254C452.585 51.3507 452.289 51.562 451.92 51.6593V51.7054C452.204 51.7566 452.461 51.8783 452.688 52.0704C452.916 52.2599 453.098 52.4968 453.234 52.7811C453.37 53.0628 453.439 53.3701 453.441 53.7031C453.439 54.1282 453.324 54.5073 453.096 54.8402C452.87 55.1706 452.557 55.4306 452.154 55.6201C451.755 55.8071 451.293 55.9005 450.768 55.9005ZM450.768 55.0554C451.124 55.0554 451.431 54.9977 451.69 54.8825C451.948 54.7672 452.148 54.6046 452.289 54.3946C452.43 54.1846 452.502 53.9387 452.504 53.657C452.502 53.3599 452.425 53.0974 452.274 52.8694C452.122 52.6415 451.916 52.4622 451.655 52.3316C451.396 52.201 451.101 52.1357 450.768 52.1357C450.432 52.1357 450.132 52.201 449.869 52.3316C449.607 52.4622 449.401 52.6415 449.25 52.8694C449.102 53.0974 449.029 53.3599 449.031 53.657C449.029 53.9387 449.097 54.1846 449.235 54.3946C449.376 54.6046 449.577 54.7672 449.838 54.8825C450.099 54.9977 450.409 55.0554 450.768 55.0554ZM450.768 51.3212C451.049 51.3212 451.299 51.2649 451.517 51.1522C451.737 51.0395 451.91 50.882 452.035 50.6797C452.161 50.4774 452.225 50.2405 452.227 49.969C452.225 49.7026 452.162 49.4708 452.039 49.2736C451.916 49.0739 451.746 48.9202 451.528 48.8126C451.311 48.7025 451.057 48.6474 450.768 48.6474C450.473 48.6474 450.216 48.7025 449.995 48.8126C449.775 48.9202 449.605 49.0739 449.485 49.2736C449.364 49.4708 449.305 49.7026 449.308 49.969C449.305 50.2405 449.365 50.4774 449.488 50.6797C449.614 50.882 449.787 51.0395 450.007 51.1522C450.227 51.2649 450.481 51.3212 450.768 51.3212ZM457.48 55.9005C456.901 55.9005 456.408 55.743 456.001 55.428C455.594 55.1104 455.283 54.6507 455.067 54.0488C454.852 53.4444 454.745 52.7145 454.745 51.8591C454.745 51.0088 454.852 50.2827 455.067 49.6808C455.285 49.0764 455.598 48.6154 456.005 48.2978C456.415 47.9777 456.906 47.8176 457.48 47.8176C458.054 47.8176 458.544 47.9777 458.951 48.2978C459.361 48.6154 459.674 49.0764 459.889 49.6808C460.106 50.2827 460.215 51.0088 460.215 51.8591C460.215 52.7145 460.108 53.4444 459.893 54.0488C459.677 54.6507 459.366 55.1104 458.959 55.428C458.552 55.743 458.059 55.9005 457.48 55.9005ZM457.48 55.0554C458.054 55.0554 458.499 54.7788 458.817 54.2256C459.135 53.6724 459.293 52.8835 459.293 51.8591C459.293 51.1778 459.22 50.5977 459.074 50.1188C458.931 49.6399 458.723 49.2749 458.452 49.0239C458.183 48.7729 457.859 48.6474 457.48 48.6474C456.911 48.6474 456.467 48.9279 456.147 49.4888C455.827 50.0471 455.667 50.8372 455.667 51.8591C455.667 52.5403 455.738 53.1192 455.882 53.5955C456.025 54.0719 456.231 54.4343 456.5 54.6827C456.772 54.9312 457.098 55.0554 457.48 55.0554ZM464.072 58.1287C463.634 58.1287 463.258 58.0724 462.943 57.9597C462.628 57.8496 462.365 57.7036 462.155 57.5217C461.948 57.3424 461.783 57.1504 461.66 56.9455L462.382 56.4384C462.464 56.5459 462.568 56.6689 462.693 56.8072C462.819 56.948 462.99 57.0697 463.208 57.1721C463.428 57.2771 463.716 57.3296 464.072 57.3296C464.549 57.3296 464.942 57.2144 465.252 56.9839C465.562 56.7534 465.717 56.3923 465.717 55.9005V54.7019H465.64C465.573 54.8095 465.478 54.9427 465.355 55.1015C465.235 55.2577 465.061 55.3973 464.833 55.5202C464.608 55.6406 464.303 55.7008 463.919 55.7008C463.442 55.7008 463.015 55.5881 462.636 55.3627C462.259 55.1373 461.961 54.8095 461.74 54.3792C461.523 53.949 461.414 53.4265 461.414 52.8118C461.414 52.2074 461.52 51.6811 461.733 51.2329C461.945 50.7821 462.241 50.4338 462.62 50.188C462.999 49.9395 463.437 49.8153 463.934 49.8153C464.318 49.8153 464.623 49.8793 464.848 50.0074C465.076 50.1329 465.25 50.2763 465.371 50.4377C465.494 50.5965 465.589 50.7271 465.655 50.8295H465.747V49.8921H466.623V55.962C466.623 56.4691 466.508 56.8814 466.277 57.199C466.05 57.5192 465.742 57.7535 465.355 57.9021C464.971 58.0532 464.544 58.1287 464.072 58.1287ZM464.042 54.8863C464.405 54.8863 464.713 54.8031 464.964 54.6366C465.215 54.4701 465.405 54.2307 465.536 53.9182C465.667 53.6058 465.732 53.2318 465.732 52.7965C465.732 52.3713 465.668 51.9961 465.54 51.6708C465.412 51.3456 465.222 51.0907 464.971 50.9063C464.72 50.7219 464.41 50.6297 464.042 50.6297C463.657 50.6297 463.337 50.7271 463.081 50.9217C462.828 51.1164 462.637 51.3776 462.509 51.7054C462.383 52.0332 462.321 52.3969 462.321 52.7965C462.321 53.2062 462.385 53.5686 462.513 53.8837C462.643 54.1961 462.835 54.442 463.089 54.6213C463.345 54.798 463.663 54.8863 464.042 54.8863Z" fill="black"/>
<defs>
<filter id="filter0_d_1980_881" x="69.6727" y="16.5909" width="51.0764" height="51.0764" filterUnits="userSpaceOnUse" color-interpolation-filters="sRGB">
<feFlood flood-opacity="0" result="BackgroundImageFix"/>
<feColorMatrix in="SourceAlpha" type="matrix" values="0 0 0 0 0 0 0 0 0 0 0 0 0 0 0 0 0 0 127 0" result="hardAlpha"/>
<feOffset dy="-1.08182"/>
<feGaussianBlur stdDeviation="2.16364"/>
<feComposite in2="hardAlpha" operator="out"/>
<feColorMatrix type="matrix" values="0 0 0 0 0 0 0 0 0 0 0 0 0 0 0 0 0 0 0.25 0"/>
<feBlend mode="normal" in2="BackgroundImageFix" result="effect1_dropShadow_1980_881"/>
<feBlend mode="normal" in="SourceGraphic" in2="effect1_dropShadow_1980_881" result="shape"/>
</filter>
<filter id="filter1_d_1980_881" x="225.163" y="16.5909" width="51.0764" height="51.0764" filterUnits="userSpaceOnUse" color-interpolation-filters="sRGB">
<feFlood flood-opacity="0" result="BackgroundImageFix"/>
<feColorMatrix in="SourceAlpha" type="matrix" values="0 0 0 0 0 0 0 0 0 0 0 0 0 0 0 0 0 0 127 0" result="hardAlpha"/>
<feOffset dy="-1.08182"/>
<feGaussianBlur stdDeviation="2.16364"/>
<feComposite in2="hardAlpha" operator="out"/>
<feColorMatrix type="matrix" values="0 0 0 0 0 0 0 0 0 0 0 0 0 0 0 0 0 0 0.25 0"/>
<feBlend mode="normal" in2="BackgroundImageFix" result="effect1_dropShadow_1980_881"/>
<feBlend mode="normal" in="SourceGraphic" in2="effect1_dropShadow_1980_881" result="shape"/>
</filter>
<filter id="filter2_d_1980_881" x="380.655" y="16.5909" width="51.0764" height="51.0764" filterUnits="userSpaceOnUse" color-interpolation-filters="sRGB">
<feFlood flood-opacity="0" result="BackgroundImageFix"/>
<feColorMatrix in="SourceAlpha" type="matrix" values="0 0 0 0 0 0 0 0 0 0 0 0 0 0 0 0 0 0 127 0" result="hardAlpha"/>
<feOffset dy="-1.08182"/>
<feGaussianBlur stdDeviation="2.16364"/>
<feComposite in2="hardAlpha" operator="out"/>
<feColorMatrix type="matrix" values="0 0 0 0 0 0 0 0 0 0 0 0 0 0 0 0 0 0 0.25 0"/>
<feBlend mode="normal" in2="BackgroundImageFix" result="effect1_dropShadow_1980_881"/>
<feBlend mode="normal" in="SourceGraphic" in2="effect1_dropShadow_1980_881" result="shape"/>
</filter>
</defs>
</svg>
