<svg width="103" height="14" viewBox="0 0 103 14" fill="none" xmlns="http://www.w3.org/2000/svg">
<path d="M-0.00165633 13.1914V0.178496H8.33474V2.15458H2.35566V5.68738H7.76288V7.66346H2.35566V13.1914H-0.00165633ZM22.1101 6.68495C22.1101 8.08706 21.8475 9.28796 21.3222 10.2876C20.8012 11.2831 20.0896 12.0456 19.1873 12.5751C18.2893 13.1046 17.2705 13.3693 16.131 13.3693C14.9916 13.3693 13.9707 13.1046 13.0684 12.5751C12.1704 12.0413 11.4588 11.2767 10.9335 10.2813C10.4125 9.2816 10.152 8.08282 10.152 6.68495C10.152 5.28284 10.4125 4.08406 10.9335 3.08861C11.4588 2.08892 12.1704 1.32433 13.0684 0.794829C13.9707 0.265333 14.9916 0.000584559 16.131 0.000584559C17.2705 0.000584559 18.2893 0.265333 19.1873 0.794829C20.0896 1.32433 20.8012 2.08892 21.3222 3.08861C21.8475 4.08406 22.1101 5.28284 22.1101 6.68495ZM19.7401 6.68495C19.7401 5.69797 19.5855 4.8656 19.2763 4.18784C18.9713 3.50585 18.5477 2.99118 18.0055 2.64383C17.4633 2.29225 16.8385 2.11645 16.131 2.11645C15.4236 2.11645 14.7988 2.29225 14.2566 2.64383C13.7144 2.99118 13.2887 3.50585 12.9795 4.18784C12.6745 4.8656 12.522 5.69797 12.522 6.68495C12.522 7.67193 12.6745 8.50642 12.9795 9.18841C13.2887 9.86617 13.7144 10.3808 14.2566 10.7324C14.7988 11.0798 15.4236 11.2534 16.131 11.2534C16.8385 11.2534 17.4633 11.0798 18.0055 10.7324C18.5477 10.3808 18.9713 9.86617 19.2763 9.18841C19.5855 8.50642 19.7401 7.67193 19.7401 6.68495ZM24.3388 13.1914V0.178496H26.6961V11.2153H32.4274V13.1914H24.3388ZM34.4733 13.1914V0.178496H36.8307V11.2153H42.5619V13.1914H34.4733ZM55.7289 6.68495C55.7289 8.08706 55.4663 9.28796 54.941 10.2876C54.42 11.2831 53.7084 12.0456 52.8061 12.5751C51.9081 13.1046 50.8893 13.3693 49.7499 13.3693C48.6104 13.3693 47.5895 13.1046 46.6872 12.5751C45.7892 12.0413 45.0776 11.2767 44.5523 10.2813C44.0313 9.2816 43.7708 8.08282 43.7708 6.68495C43.7708 5.28284 44.0313 4.08406 44.5523 3.08861C45.0776 2.08892 45.7892 1.32433 46.6872 0.794829C47.5895 0.265333 48.6104 0.000584559 49.7499 0.000584559C50.8893 0.000584559 51.9081 0.265333 52.8061 0.794829C53.7084 1.32433 54.42 2.08892 54.941 3.08861C55.4663 4.08406 55.7289 5.28284 55.7289 6.68495ZM53.3589 6.68495C53.3589 5.69797 53.2043 4.8656 52.8951 4.18784C52.5901 3.50585 52.1665 2.99118 51.6243 2.64383C51.0821 2.29225 50.4573 2.11645 49.7499 2.11645C49.0424 2.11645 48.4176 2.29225 47.8754 2.64383C47.3332 2.99118 46.9075 3.50585 46.5983 4.18784C46.2933 4.8656 46.1408 5.69797 46.1408 6.68495C46.1408 7.67193 46.2933 8.50642 46.5983 9.18841C46.9075 9.86617 47.3332 10.3808 47.8754 10.7324C48.4176 11.0798 49.0424 11.2534 49.7499 11.2534C50.4573 11.2534 51.0821 11.0798 51.6243 10.7324C52.1665 10.3808 52.5901 9.86617 52.8951 9.18841C53.2043 8.50642 53.3589 7.67193 53.3589 6.68495ZM60.3641 13.1914L56.6916 0.178496H59.2268L61.5714 9.74121H61.6921L64.1956 0.178496H66.5021L69.0119 9.74756H69.1263L71.4709 0.178496H74.0061L70.3335 13.1914H68.008L65.4028 4.06077H65.3012L62.6897 13.1914H60.3641ZM88.2819 0.178496H90.6392V8.68009C90.6392 9.61201 90.4189 10.4317 89.9784 11.1391C89.5421 11.8465 88.9278 12.3993 88.1357 12.7975C87.3436 13.1914 86.418 13.3884 85.359 13.3884C84.2958 13.3884 83.3681 13.1914 82.576 12.7975C81.7839 12.3993 81.1697 11.8465 80.7334 11.1391C80.297 10.4317 80.0789 9.61201 80.0789 8.68009V0.178496H82.4362V8.48312C82.4362 9.02533 82.5548 9.50823 82.792 9.93182C83.0335 10.3554 83.3724 10.6879 83.8087 10.9294C84.245 11.1666 84.7618 11.2852 85.359 11.2852C85.9563 11.2852 86.4731 11.1666 86.9094 10.9294C87.3499 10.6879 87.6888 10.3554 87.926 9.93182C88.1633 9.50823 88.2819 9.02533 88.2819 8.48312V0.178496ZM100.273 3.75578C100.214 3.20086 99.9641 2.76879 99.5236 2.45957C99.0873 2.15034 98.5197 1.99573 97.8207 1.99573C97.3294 1.99573 96.9079 2.06986 96.5563 2.21812C96.2047 2.36638 95.9357 2.56758 95.7493 2.82174C95.563 3.0759 95.4677 3.36607 95.4634 3.69224C95.4634 3.96334 95.5248 4.19843 95.6477 4.39753C95.7748 4.59662 95.9463 4.76606 96.1624 4.90584C96.3784 5.04139 96.6177 5.15576 96.8804 5.24896C97.143 5.34215 97.4077 5.42051 97.6746 5.48405L98.8946 5.78904C99.3859 5.90341 99.8582 6.05803 100.311 6.25288C100.769 6.44774 101.178 6.69342 101.538 6.98994C101.902 7.28646 102.19 7.6444 102.402 8.06376C102.614 8.48312 102.72 8.97449 102.72 9.53788C102.72 10.3004 102.525 10.9718 102.135 11.5521C101.745 12.1282 101.182 12.5793 100.445 12.9055C99.7121 13.2274 98.8247 13.3884 97.7826 13.3884C96.7702 13.3884 95.8913 13.2316 95.1457 12.9182C94.4044 12.6047 93.8241 12.1472 93.4047 11.5457C92.9896 10.9442 92.7651 10.2114 92.7312 9.34726H95.0504C95.0843 9.80051 95.2241 10.1775 95.4698 10.4783C95.7155 10.779 96.0353 11.0035 96.4292 11.1518C96.8274 11.3 97.2722 11.3742 97.7636 11.3742C98.2761 11.3742 98.7251 11.2979 99.1106 11.1454C99.5003 10.9887 99.8053 10.7727 100.026 10.4973C100.246 10.2178 100.358 9.89158 100.362 9.51882C100.358 9.17994 100.259 8.90037 100.064 8.68009C99.8688 8.45559 99.5956 8.2692 99.244 8.12095C98.8967 7.96845 98.49 7.8329 98.0241 7.71429L96.5436 7.33305C95.4719 7.05772 94.6247 6.64047 94.002 6.08132C93.3836 5.51794 93.0743 4.77029 93.0743 3.83838C93.0743 3.07167 93.2819 2.40026 93.697 1.82417C94.1164 1.24808 94.6861 0.801184 95.4062 0.483485C96.1263 0.161551 96.9418 0.000584559 97.8525 0.000584559C98.7759 0.000584559 99.585 0.161551 100.28 0.483485C100.979 0.801184 101.527 1.24384 101.925 1.81146C102.324 2.37485 102.529 3.02295 102.542 3.75578H100.273Z" fill="white"/>
</svg>
