<svg width="142" height="27" viewBox="0 0 142 27" fill="none" xmlns="http://www.w3.org/2000/svg">
<path d="M4.3446 21.7255C3.7471 21.7255 3.23579 21.513 2.81066 21.0878C2.38553 20.6627 2.1726 20.151 2.17188 19.5528V6.51647C2.17188 5.91897 2.3848 5.40766 2.81066 4.98253C3.23651 4.5574 3.74782 4.34447 4.3446 4.34375H21.7264C22.3239 4.34375 22.8356 4.55668 23.2614 4.98253C23.6873 5.40838 23.8998 5.9197 23.8991 6.51647V19.5528C23.8991 20.1503 23.6865 20.662 23.2614 21.0878C22.8363 21.5137 22.3246 21.7263 21.7264 21.7255H4.3446ZM13.0355 14.121L21.7264 8.6892V6.51647L13.0355 11.9483L4.3446 6.51647V8.6892L13.0355 14.121Z" fill="#00B1EF"/>
<path d="M43.4057 8.40845V18.0352H42.24V8.40845H43.4057ZM46.7019 13.6919V18.0352H45.5926V10.8151H46.6643V11.9433H46.7583C46.9276 11.5766 47.1845 11.282 47.5292 11.0596C47.8739 10.8339 48.3189 10.7211 48.8642 10.7211C49.353 10.7211 49.7808 10.8214 50.1474 11.0219C50.5141 11.2194 50.7992 11.5202 51.0029 11.9245C51.2066 12.3256 51.3085 12.8332 51.3085 13.4474V18.0352H50.1991V13.5226C50.1991 12.9554 50.0519 12.5136 49.7573 12.1971C49.4627 11.8774 49.0585 11.7176 48.5446 11.7176C48.1904 11.7176 47.8739 11.7944 47.595 11.948C47.3193 12.1015 47.1015 12.3256 46.9417 12.6201C46.7819 12.9147 46.7019 13.2719 46.7019 13.6919ZM56.5508 10.8151V11.7552H52.6587V10.8151H56.5508ZM53.8244 18.0352V9.81861C53.8244 9.40496 53.9216 9.06026 54.1159 8.78449C54.3102 8.50873 54.5624 8.3019 54.8727 8.16402C55.1829 8.02614 55.5104 7.9572 55.8551 7.9572C56.1277 7.9572 56.3502 7.97913 56.5225 8.023C56.6949 8.06687 56.8234 8.10761 56.908 8.14522L56.5884 9.10413C56.5319 9.08533 56.4536 9.06182 56.3533 9.03362C56.2562 9.00542 56.1277 8.99131 55.9679 8.99131C55.6012 8.99131 55.3364 9.08376 55.1735 9.26865C55.0137 9.45353 54.9338 9.7246 54.9338 10.0818V18.0352H53.8244ZM60.7413 18.1856C60.0895 18.1856 59.5176 18.0305 59.0256 17.7202C58.5367 17.41 58.1544 16.976 57.8787 16.4182C57.606 15.8604 57.4697 15.2086 57.4697 14.4627C57.4697 13.7107 57.606 13.0541 57.8787 12.4932C58.1544 11.9323 58.5367 11.4967 59.0256 11.1865C59.5176 10.8762 60.0895 10.7211 60.7413 10.7211C61.3931 10.7211 61.9634 10.8762 62.4523 11.1865C62.9443 11.4967 63.3266 11.9323 63.5992 12.4932C63.875 13.0541 64.0129 13.7107 64.0129 14.4627C64.0129 15.2086 63.875 15.8604 63.5992 16.4182C63.3266 16.976 62.9443 17.41 62.4523 17.7202C61.9634 18.0305 61.3931 18.1856 60.7413 18.1856ZM60.7413 17.1891C61.2364 17.1891 61.6438 17.0621 61.9634 16.8083C62.2831 16.5545 62.5197 16.2207 62.6732 15.8071C62.8268 15.3935 62.9035 14.9453 62.9035 14.4627C62.9035 13.9802 62.8268 13.5305 62.6732 13.1137C62.5197 12.6969 62.2831 12.36 61.9634 12.1031C61.6438 11.8461 61.2364 11.7176 60.7413 11.7176C60.2462 11.7176 59.8388 11.8461 59.5191 12.1031C59.1995 12.36 58.9629 12.6969 58.8094 13.1137C58.6558 13.5305 58.579 13.9802 58.579 14.4627C58.579 14.9453 58.6558 15.3935 58.8094 15.8071C58.9629 16.2207 59.1995 16.5545 59.5191 16.8083C59.8388 17.0621 60.2462 17.1891 60.7413 17.1891ZM71.2529 20.5734C70.294 20.5734 69.4463 20.4418 68.7099 20.1786C67.9735 19.9185 67.3546 19.5346 66.8532 19.027C66.3518 18.5193 65.9726 17.8973 65.7156 17.1609C65.4587 16.4244 65.3302 15.5815 65.3302 14.632C65.3302 13.7138 65.4602 12.8928 65.7203 12.1689C65.9836 11.445 66.3643 10.8308 66.8626 10.3263C67.364 9.81861 67.9719 9.4316 68.6864 9.16524C69.404 8.89887 70.2156 8.76569 71.1213 8.76569C72.0018 8.76569 72.7727 8.90984 73.4339 9.19814C74.0983 9.4833 74.6529 9.87032 75.0979 10.3592C75.546 10.8449 75.8813 11.3917 76.1038 11.9997C76.3295 12.6076 76.4423 13.2343 76.4423 13.8799C76.4423 14.3343 76.4203 14.7949 76.3765 15.2618C76.3326 15.7288 76.2401 16.1581 76.0991 16.5498C75.9581 16.9384 75.7403 17.2517 75.4458 17.4899C75.1543 17.7281 74.7595 17.8471 74.2612 17.8471C74.0419 17.8471 73.8006 17.8127 73.5373 17.7437C73.2741 17.6748 73.0406 17.5604 72.837 17.4006C72.6333 17.2408 72.5126 17.0261 72.475 16.7566H72.4186C72.3434 16.9384 72.2274 17.1107 72.0708 17.2737C71.9172 17.4366 71.7151 17.5667 71.4644 17.6638C71.2168 17.761 70.9144 17.8033 70.5572 17.7907C70.1498 17.7751 69.791 17.6842 69.4808 17.5181C69.1705 17.3489 68.9104 17.1201 68.7005 16.8318C68.4937 16.5404 68.337 16.2035 68.2304 15.8212C68.127 15.4358 68.0753 15.0205 68.0753 14.5756C68.0753 14.1525 68.138 13.7655 68.2633 13.4145C68.3887 13.0636 68.5626 12.7564 68.7851 12.4932C69.0107 12.23 69.2739 12.02 69.5748 11.8633C69.8787 11.7035 70.2062 11.6048 70.5572 11.5672C70.8706 11.5359 71.1557 11.55 71.4127 11.6095C71.6696 11.6659 71.8812 11.7521 72.0473 11.868C72.2133 11.9809 72.3183 12.1062 72.3622 12.2441H72.4186V11.7176H73.4151V15.9669C73.4151 16.2301 73.4888 16.462 73.636 16.6626C73.7833 16.8632 73.998 16.9634 74.28 16.9634C74.5997 16.9634 74.8441 16.8538 75.0133 16.6344C75.1857 16.415 75.3032 16.0766 75.3658 15.6191C75.4316 15.1616 75.4646 14.5756 75.4646 13.8611C75.4646 13.4412 75.4066 13.0275 75.2906 12.6201C75.1778 12.2096 75.0055 11.8257 74.7736 11.4685C74.5448 11.1113 74.2549 10.7963 73.904 10.5237C73.553 10.2511 73.1409 10.038 72.6677 9.88442C72.1977 9.72773 71.6634 9.64939 71.0648 9.64939C70.3284 9.64939 69.6688 9.76377 69.0859 9.99253C68.5062 10.2182 68.0126 10.5488 67.6052 10.9843C67.201 11.4168 66.8923 11.9433 66.6792 12.5637C66.4693 13.1811 66.3643 13.883 66.3643 14.6696C66.3643 15.4687 66.4693 16.1784 66.6792 16.7989C66.8923 17.4194 67.2057 17.9427 67.6193 18.3689C68.0361 18.7951 68.5516 19.1178 69.1658 19.3372C69.78 19.5597 70.4882 19.6709 71.2905 19.6709C71.6352 19.6709 71.9752 19.638 72.3105 19.5722C72.6458 19.5064 72.9419 19.4344 73.1989 19.356C73.4559 19.2777 73.6407 19.2197 73.7536 19.1821L74.0168 20.047C73.8225 20.1285 73.5687 20.2099 73.2553 20.2914C72.9451 20.3729 72.6129 20.4403 72.2588 20.4935C71.9078 20.5468 71.5725 20.5734 71.2529 20.5734ZM70.7076 16.8318C71.1275 16.8318 71.4675 16.7472 71.7276 16.578C71.9877 16.4088 72.1773 16.1534 72.2964 15.8118C72.4155 15.4702 72.475 15.0393 72.475 14.5192C72.475 13.9927 72.4092 13.5822 72.2776 13.2876C72.146 12.993 71.9517 12.7862 71.6947 12.6671C71.4378 12.5481 71.1213 12.4885 70.7452 12.4885C70.388 12.4885 70.0824 12.5825 69.8286 12.7706C69.5779 12.9554 69.3852 13.203 69.2504 13.5132C69.1188 13.8203 69.053 14.1556 69.053 14.5192C69.053 14.9203 69.1063 15.2979 69.2128 15.652C69.3194 16.003 69.4933 16.2881 69.7346 16.5075C69.9759 16.7237 70.3002 16.8318 70.7076 16.8318ZM81.3179 10.8151V11.7552H77.4259V10.8151H81.3179ZM78.5916 18.0352V9.81861C78.5916 9.40496 78.6887 9.06026 78.883 8.78449C79.0773 8.50873 79.3296 8.3019 79.6398 8.16402C79.95 8.02614 80.2775 7.9572 80.6222 7.9572C80.8949 7.9572 81.1173 7.97913 81.2897 8.023C81.4621 8.06687 81.5905 8.10761 81.6751 8.14522L81.3555 9.10413C81.2991 9.08533 81.2208 9.06182 81.1205 9.03362C81.0233 9.00542 80.8949 8.99131 80.735 8.99131C80.3684 8.99131 80.1036 9.08376 79.9406 9.26865C79.7808 9.45353 79.7009 9.7246 79.7009 10.0818V18.0352H78.5916ZM82.8726 18.0352V10.8151H83.9819V18.0352H82.8726ZM83.4367 9.61179C83.2204 9.61179 83.034 9.53814 82.8773 9.39086C82.7238 9.24358 82.647 9.06652 82.647 8.8597C82.647 8.65288 82.7238 8.47582 82.8773 8.32854C83.034 8.18126 83.2204 8.10761 83.4367 8.10761C83.6529 8.10761 83.8378 8.18126 83.9913 8.32854C84.148 8.47582 84.2264 8.65288 84.2264 8.8597C84.2264 9.06652 84.148 9.24358 83.9913 9.39086C83.8378 9.53814 83.6529 9.61179 83.4367 9.61179ZM91.1279 12.4321L90.1314 12.7141C90.0687 12.5481 89.9763 12.3867 89.8541 12.23C89.735 12.0702 89.5721 11.9386 89.3652 11.8351C89.1584 11.7317 88.8936 11.68 88.5708 11.68C88.129 11.68 87.7608 11.7819 87.4662 11.9856C87.1748 12.1861 87.0291 12.4415 87.0291 12.7517C87.0291 13.0275 87.1293 13.2453 87.3299 13.4051C87.5304 13.5649 87.8438 13.6981 88.27 13.8047L89.3417 14.0679C89.9873 14.2246 90.4683 14.4643 90.7848 14.7871C91.1013 15.1067 91.2595 15.5188 91.2595 16.0233C91.2595 16.437 91.1405 16.8067 90.9023 17.1327C90.6673 17.4586 90.3382 17.7155 89.9152 17.9035C89.4921 18.0916 89.0002 18.1856 88.4392 18.1856C87.7028 18.1856 87.0933 18.0258 86.6107 17.7061C86.1281 17.3865 85.8226 16.9196 85.6941 16.3054L86.747 16.0421C86.8473 16.4307 87.0369 16.7221 87.3158 16.9164C87.5978 17.1107 87.966 17.2079 88.4204 17.2079C88.9375 17.2079 89.348 17.0982 89.652 16.8788C89.9591 16.6563 90.1126 16.39 90.1126 16.0797C90.1126 15.829 90.0249 15.6191 89.8494 15.4499C89.6739 15.2775 89.4044 15.149 89.0409 15.0644L87.8376 14.7824C87.1763 14.6257 86.6906 14.3828 86.3804 14.0538C86.0733 13.7216 85.9197 13.3064 85.9197 12.8082C85.9197 12.4008 86.0341 12.0404 86.2629 11.727C86.4948 11.4137 86.8097 11.1677 87.2077 10.989C87.6088 10.8104 88.0632 10.7211 88.5708 10.7211C89.2853 10.7211 89.8462 10.8778 90.2536 11.1912C90.6641 11.5045 90.9556 11.9182 91.1279 12.4321ZM96.0694 10.8151V11.7552H92.3277V10.8151H96.0694ZM93.4183 9.08533H94.5276V15.9669C94.5276 16.2803 94.573 16.5153 94.6639 16.672C94.7579 16.8256 94.877 16.929 95.0212 16.9822C95.1684 17.0324 95.3236 17.0574 95.4865 17.0574C95.6087 17.0574 95.709 17.0512 95.7873 17.0386C95.8657 17.023 95.9284 17.0104 95.9754 17.001L96.201 17.9976C96.1258 18.0258 96.0208 18.054 95.8861 18.0822C95.7513 18.1135 95.5805 18.1292 95.3737 18.1292C95.0603 18.1292 94.7532 18.0618 94.4524 17.927C94.1547 17.7923 93.9071 17.587 93.7097 17.3113C93.5154 17.0355 93.4183 16.6877 93.4183 16.2678V9.08533ZM101.616 13.391V14.4251H97.4043V13.391H101.616ZM106.501 18.1856C105.849 18.1856 105.277 18.0305 104.785 17.7202C104.296 17.41 103.914 16.976 103.638 16.4182C103.366 15.8604 103.229 15.2086 103.229 14.4627C103.229 13.7107 103.366 13.0541 103.638 12.4932C103.914 11.9323 104.296 11.4967 104.785 11.1865C105.277 10.8762 105.849 10.7211 106.501 10.7211C107.153 10.7211 107.723 10.8762 108.212 11.1865C108.704 11.4967 109.086 11.9323 109.359 12.4932C109.635 13.0541 109.773 13.7107 109.773 14.4627C109.773 15.2086 109.635 15.8604 109.359 16.4182C109.086 16.976 108.704 17.41 108.212 17.7202C107.723 18.0305 107.153 18.1856 106.501 18.1856ZM106.501 17.1891C106.996 17.1891 107.404 17.0621 107.723 16.8083C108.043 16.5545 108.279 16.2207 108.433 15.8071C108.587 15.3935 108.663 14.9453 108.663 14.4627C108.663 13.9802 108.587 13.5305 108.433 13.1137C108.279 12.6969 108.043 12.36 107.723 12.1031C107.404 11.8461 106.996 11.7176 106.501 11.7176C106.006 11.7176 105.599 11.8461 105.279 12.1031C104.959 12.36 104.723 12.6969 104.569 13.1137C104.416 13.5305 104.339 13.9802 104.339 14.4627C104.339 14.9453 104.416 15.3935 104.569 15.8071C104.723 16.2207 104.959 16.5545 105.279 16.8083C105.599 17.0621 106.006 17.1891 106.501 17.1891ZM112.274 18.1104C112.043 18.1104 111.844 18.0273 111.678 17.8612C111.511 17.6952 111.428 17.4962 111.428 17.2643C111.428 17.0324 111.511 16.8334 111.678 16.6673C111.844 16.5012 112.043 16.4182 112.274 16.4182C112.506 16.4182 112.705 16.5012 112.871 16.6673C113.038 16.8334 113.121 17.0324 113.121 17.2643C113.121 17.4178 113.081 17.5588 113.003 17.6873C112.928 17.8158 112.826 17.9192 112.698 17.9976C112.572 18.0728 112.431 18.1104 112.274 18.1104ZM118.044 18.1856C117.368 18.1856 116.785 18.0258 116.296 17.7061C115.807 17.3865 115.431 16.9462 115.168 16.3853C114.904 15.8243 114.773 15.1835 114.773 14.4627C114.773 13.7295 114.908 13.0824 115.177 12.5214C115.45 11.9574 115.829 11.5171 116.315 11.2006C116.803 10.8809 117.374 10.7211 118.026 10.7211C118.533 10.7211 118.991 10.8151 119.398 11.0031C119.806 11.1912 120.139 11.4544 120.399 11.7928C120.659 12.1313 120.821 12.5261 120.884 12.9774H119.774C119.69 12.6483 119.502 12.3569 119.21 12.1031C118.922 11.8461 118.533 11.7176 118.044 11.7176C117.612 11.7176 117.233 11.8304 116.907 12.0561C116.584 12.2786 116.332 12.5935 116.15 13.0009C115.971 13.4051 115.882 13.8799 115.882 14.4251C115.882 14.9829 115.97 15.4687 116.145 15.8823C116.324 16.296 116.575 16.6172 116.897 16.8459C117.223 17.0747 117.606 17.1891 118.044 17.1891C118.333 17.1891 118.594 17.1389 118.829 17.0386C119.064 16.9384 119.263 16.7942 119.426 16.6062C119.589 16.4182 119.705 16.1925 119.774 15.9293H120.884C120.821 16.3555 120.666 16.7394 120.418 17.0809C120.174 17.4194 119.849 17.6889 119.445 17.8894C119.044 18.0869 118.577 18.1856 118.044 18.1856ZM125.438 18.1856C124.787 18.1856 124.215 18.0305 123.723 17.7202C123.234 17.41 122.851 16.976 122.576 16.4182C122.303 15.8604 122.167 15.2086 122.167 14.4627C122.167 13.7107 122.303 13.0541 122.576 12.4932C122.851 11.9323 123.234 11.4967 123.723 11.1865C124.215 10.8762 124.787 10.7211 125.438 10.7211C126.09 10.7211 126.66 10.8762 127.149 11.1865C127.641 11.4967 128.024 11.9323 128.296 12.4932C128.572 13.0541 128.71 13.7107 128.71 14.4627C128.71 15.2086 128.572 15.8604 128.296 16.4182C128.024 16.976 127.641 17.41 127.149 17.7202C126.66 18.0305 126.09 18.1856 125.438 18.1856ZM125.438 17.1891C125.933 17.1891 126.341 17.0621 126.66 16.8083C126.98 16.5545 127.217 16.2207 127.37 15.8071C127.524 15.3935 127.601 14.9453 127.601 14.4627C127.601 13.9802 127.524 13.5305 127.37 13.1137C127.217 12.6969 126.98 12.36 126.66 12.1031C126.341 11.8461 125.933 11.7176 125.438 11.7176C124.943 11.7176 124.536 11.8461 124.216 12.1031C123.897 12.36 123.66 12.6969 123.506 13.1137C123.353 13.5305 123.276 13.9802 123.276 14.4627C123.276 14.9453 123.353 15.3935 123.506 15.8071C123.66 16.2207 123.897 16.5545 124.216 16.8083C124.536 17.0621 124.943 17.1891 125.438 17.1891ZM130.403 18.0352V10.8151H131.475V11.9433H131.569C131.719 11.5578 131.962 11.2585 132.298 11.0455C132.633 10.8292 133.036 10.7211 133.506 10.7211C133.982 10.7211 134.378 10.8292 134.695 11.0455C135.015 11.2585 135.264 11.5578 135.442 11.9433H135.517C135.702 11.5703 135.98 11.2742 136.349 11.0549C136.719 10.8324 137.163 10.7211 137.68 10.7211C138.325 10.7211 138.853 10.9232 139.264 11.3275C139.674 11.7286 139.88 12.3538 139.88 13.203V18.0352H138.77V13.203C138.77 12.6703 138.625 12.2895 138.333 12.0608C138.042 11.832 137.699 11.7176 137.304 11.7176C136.796 11.7176 136.403 11.8712 136.124 12.1783C135.845 12.4823 135.706 12.8677 135.706 13.3346V18.0352H134.577V13.0902C134.577 12.6797 134.444 12.3491 134.178 12.0984C133.911 11.8445 133.568 11.7176 133.148 11.7176C132.86 11.7176 132.591 11.7944 132.34 11.948C132.092 12.1015 131.892 12.3146 131.738 12.5872C131.588 12.8567 131.513 13.1685 131.513 13.5226V18.0352H130.403Z" fill="white"/>
</svg>
