<svg width="30" height="30" viewBox="0 0 30 30" fill="none" xmlns="http://www.w3.org/2000/svg">
<g clip-path="url(#clip0_1939_39)">
<path d="M21.6879 2H7.4523C3.98372 2 1.17188 4.81184 1.17188 8.28042V22.5161C1.17188 25.9846 3.98372 28.7965 7.4523 28.7965H21.6879C25.1565 28.7965 27.9684 25.9846 27.9684 22.5161V8.28042C27.9684 4.81184 25.1565 2 21.6879 2Z" fill="url(#paint0_radial_1939_39)"/>
<path d="M21.6879 2H7.4523C3.98372 2 1.17188 4.81184 1.17188 8.28042V22.5161C1.17188 25.9846 3.98372 28.7965 7.4523 28.7965H21.6879C25.1565 28.7965 27.9684 25.9846 27.9684 22.5161V8.28042C27.9684 4.81184 25.1565 2 21.6879 2Z" fill="url(#paint1_radial_1939_39)"/>
<path d="M14.5699 4.93359C11.7271 4.93359 11.3703 4.94605 10.2539 4.99682C9.13951 5.0479 8.37885 5.22427 7.71333 5.48313C7.02479 5.75047 6.44081 6.10814 5.85903 6.69012C5.27673 7.272 4.91906 7.85598 4.65089 8.54421C4.3913 9.20993 4.21471 9.97091 4.16458 11.0847C4.11465 12.2013 4.10156 12.5582 4.10156 15.4011C4.10156 18.2439 4.11412 18.5996 4.16479 19.716C4.21608 20.8304 4.39245 21.5911 4.6511 22.2566C4.91865 22.9451 5.27632 23.5291 5.8583 24.1109C6.43997 24.6932 7.02395 25.0517 7.71197 25.319C8.37801 25.5779 9.13878 25.7542 10.2529 25.8053C11.3695 25.8561 11.726 25.8685 14.5686 25.8685C17.4117 25.8685 17.7673 25.8561 18.8838 25.8053C19.9982 25.7542 20.7597 25.5779 21.4257 25.319C22.1139 25.0517 22.6971 24.6932 23.2786 24.1109C23.8609 23.5291 24.2185 22.9451 24.4868 22.2569C24.7441 21.5911 24.9207 20.8302 24.9731 19.7162C25.0232 18.5998 25.0363 18.2439 25.0363 15.4011C25.0363 12.5582 25.0232 12.2015 24.9731 11.085C24.9207 9.9706 24.7441 9.21004 24.4868 8.54452C24.2185 7.85598 23.8609 7.272 23.2786 6.69012C22.6964 6.10793 22.1141 5.75026 21.4251 5.48324C20.7578 5.22427 19.9967 5.04779 18.8823 4.99682C17.7658 4.94605 17.4103 4.93359 14.5666 4.93359H14.5699ZM13.6308 6.81992C13.9096 6.8195 14.2206 6.81992 14.5699 6.81992C17.3648 6.81992 17.696 6.82997 18.7996 6.88011C19.8202 6.92679 20.3741 7.0973 20.7431 7.2406C21.2316 7.43027 21.5799 7.6571 21.946 8.02356C22.3124 8.38992 22.5391 8.7388 22.7293 9.22731C22.8726 9.59576 23.0433 10.1497 23.0898 11.1703C23.1399 12.2737 23.1508 12.6051 23.1508 15.3987C23.1508 18.1922 23.1399 18.5237 23.0898 19.6271C23.0431 20.6476 22.8726 21.2016 22.7293 21.5701C22.5396 22.0586 22.3124 22.4065 21.946 22.7726C21.5797 23.139 21.2318 23.3657 20.7431 23.5555C20.3746 23.6994 19.8202 23.8695 18.7996 23.9162C17.6962 23.9663 17.3648 23.9772 14.5699 23.9772C11.7749 23.9772 11.4436 23.9663 10.3402 23.9162C9.31965 23.8691 8.76572 23.6986 8.39643 23.5553C7.90802 23.3655 7.55904 23.1388 7.19268 22.7724C6.82632 22.406 6.5996 22.058 6.40941 21.5693C6.26611 21.2007 6.09539 20.6468 6.04891 19.6262C5.99877 18.5228 5.98873 18.1914 5.98873 15.396C5.98873 12.6007 5.99877 12.2711 6.04891 11.1676C6.0956 10.1471 6.26611 9.59314 6.40941 9.22417C6.59918 8.73566 6.82632 8.38678 7.19279 8.02042C7.55925 7.65406 7.90802 7.42724 8.39653 7.23715C8.76551 7.09322 9.31965 6.92313 10.3402 6.87623C11.3058 6.83258 11.68 6.8195 13.6308 6.8173V6.81992ZM20.1574 8.55792C19.4639 8.55792 18.9013 9.12002 18.9013 9.81359C18.9013 10.5071 19.4639 11.0697 20.1574 11.0697C20.8508 11.0697 21.4134 10.5071 21.4134 9.81359C21.4134 9.12012 20.8508 8.5575 20.1574 8.5575V8.55792ZM14.5699 10.0256C11.6013 10.0256 9.19446 12.4324 9.19446 15.4011C9.19446 18.3697 11.6013 20.7754 14.5699 20.7754C17.5385 20.7754 19.9446 18.3697 19.9446 15.4011C19.9446 12.4325 17.5383 10.0256 14.5697 10.0256H14.5699ZM14.5699 11.9119C16.4968 11.9119 18.0591 13.4739 18.0591 15.4011C18.0591 17.328 16.4968 18.8903 14.5699 18.8903C12.6429 18.8903 11.0808 17.328 11.0808 15.4011C11.0808 13.4739 12.6428 11.9119 14.5699 11.9119Z" fill="white"/>
</g>
<defs>
<radialGradient id="paint0_radial_1939_39" cx="0" cy="0" r="1" gradientUnits="userSpaceOnUse" gradientTransform="translate(8.28969 30.8603) rotate(-90) scale(26.5573 24.7004)">
<stop stop-color="#FFDD55"/>
<stop offset="0.1" stop-color="#FFDD55"/>
<stop offset="0.5" stop-color="#FF543E"/>
<stop offset="1" stop-color="#C837AB"/>
</radialGradient>
<radialGradient id="paint1_radial_1939_39" cx="0" cy="0" r="1" gradientUnits="userSpaceOnUse" gradientTransform="translate(-3.31662 3.93035) rotate(78.68) scale(11.8713 48.9337)">
<stop stop-color="#3771C8"/>
<stop offset="0.128" stop-color="#3771C8"/>
<stop offset="1" stop-color="#6600FF" stop-opacity="0"/>
</radialGradient>
<clipPath id="clip0_1939_39">
<rect width="26.7965" height="26.7965" fill="white" transform="translate(1.17188 2)"/>
</clipPath>
</defs>
</svg>
