<svg width="121" height="25" viewBox="0 0 121 25" fill="none" xmlns="http://www.w3.org/2000/svg">
<path d="M20.0703 21.1226C17.9746 21.1226 15.904 20.6659 13.8586 19.7525C11.8132 18.8391 9.95217 17.5438 8.27559 15.8666C6.59902 14.1893 5.30403 12.3283 4.39063 10.2836C3.47724 8.23883 3.0202 6.16826 3.01953 4.07187C3.01953 3.77008 3.12013 3.5186 3.32131 3.31741C3.5225 3.11622 3.77399 3.01562 4.07577 3.01562H8.14985C8.38457 3.01562 8.59414 3.09543 8.77856 3.25504C8.96299 3.41465 9.07196 3.6031 9.1055 3.82038L9.75936 7.34119C9.79289 7.60944 9.78451 7.83578 9.73421 8.0202C9.68391 8.20462 9.5917 8.3639 9.45758 8.49802L7.01816 10.9626C7.35348 11.5829 7.75149 12.1821 8.21222 12.7602C8.67294 13.3383 9.18027 13.8959 9.73421 14.4331C10.2539 14.9528 10.7988 15.435 11.3689 15.8796C11.9389 16.3243 12.5425 16.7307 13.1796 17.0988L15.5435 14.7349C15.6944 14.584 15.8916 14.471 16.135 14.3959C16.3785 14.3208 16.6172 14.2996 16.8513 14.3325L20.3218 15.0367C20.5565 15.1037 20.7493 15.2254 20.9002 15.4018C21.0511 15.5782 21.1265 15.775 21.1265 15.9923V20.0664C21.1265 20.3682 21.0259 20.6197 20.8248 20.8208C20.6236 21.022 20.3721 21.1226 20.0703 21.1226Z" fill="#00B1EF"/>
<path d="M41.7919 7.53434C42.1575 7.53724 42.5231 7.60688 42.8887 7.74327C43.2544 7.87965 43.5881 8.10598 43.8898 8.42227C44.1916 8.73566 44.4339 9.16366 44.6167 9.70628C44.7995 10.2489 44.8909 10.9294 44.8909 11.7476C44.8909 12.5398 44.8155 13.2435 44.6646 13.8587C44.5166 14.4709 44.3019 14.9874 44.0204 15.4082C43.7418 15.8289 43.4023 16.1481 43.0019 16.3657C42.6044 16.5834 42.1546 16.6922 41.6526 16.6922C41.1535 16.6922 40.7081 16.5935 40.3164 16.3962C39.9275 16.196 39.6083 15.9189 39.3588 15.5649C39.1121 15.208 38.954 14.7945 38.8844 14.3244H39.9464C40.0421 14.7335 40.2322 15.0716 40.5166 15.3385C40.8038 15.6026 41.1825 15.7346 41.6526 15.7346C42.3403 15.7346 42.8829 15.4343 43.2805 14.8336C43.6809 14.233 43.8811 13.3842 43.8811 12.2874H43.8115C43.649 12.5311 43.456 12.7415 43.2326 12.9185C43.0092 13.0955 42.7611 13.2319 42.4883 13.3276C42.2155 13.4234 41.9254 13.4713 41.6178 13.4713C41.1071 13.4713 40.6384 13.345 40.2119 13.0926C39.7882 12.8372 39.4487 12.4876 39.1934 12.0436C38.9409 11.5968 38.8147 11.0861 38.8147 10.5115C38.8147 9.96599 38.9366 9.46689 39.1803 9.01422C39.427 8.55865 39.7723 8.19593 40.2162 7.92607C40.6631 7.65621 41.1883 7.52564 41.7919 7.53434ZM41.7919 8.49191C41.4263 8.49191 41.0969 8.58331 40.8038 8.76612C40.5137 8.94603 40.283 9.18978 40.1118 9.49736C39.9435 9.80204 39.8593 10.1401 39.8593 10.5115C39.8593 10.8829 39.9406 11.221 40.1031 11.5257C40.2685 11.8274 40.4934 12.0683 40.7777 12.2482C41.065 12.4252 41.3914 12.5137 41.7571 12.5137C42.0327 12.5137 42.2895 12.46 42.5275 12.3527C42.7654 12.2424 42.9729 12.093 43.1499 11.9043C43.3298 11.7128 43.4705 11.4966 43.5721 11.2558C43.6737 11.0121 43.7244 10.7582 43.7244 10.4941C43.7244 10.1459 43.6403 9.81945 43.472 9.51477C43.3066 9.21009 43.0773 8.96344 42.7843 8.77483C42.4941 8.58622 42.1633 8.49191 41.7919 8.49191ZM49.4405 7.53434C49.8061 7.53724 50.1717 7.60688 50.5373 7.74327C50.9029 7.87965 51.2366 8.10598 51.5384 8.42227C51.8402 8.73566 52.0825 9.16366 52.2653 9.70628C52.4481 10.2489 52.5395 10.9294 52.5395 11.7476C52.5395 12.5398 52.4641 13.2435 52.3132 13.8587C52.1652 14.4709 51.9505 14.9874 51.669 15.4082C51.3904 15.8289 51.0509 16.1481 50.6505 16.3657C50.253 16.5834 49.8032 16.6922 49.3012 16.6922C48.8021 16.6922 48.3567 16.5935 47.9649 16.3962C47.5761 16.196 47.2569 15.9189 47.0074 15.5649C46.7607 15.208 46.6026 14.7945 46.5329 14.3244H47.595C47.6907 14.7335 47.8808 15.0716 48.1652 15.3385C48.4524 15.6026 48.8311 15.7346 49.3012 15.7346C49.9889 15.7346 50.5315 15.4343 50.9291 14.8336C51.3295 14.233 51.5297 13.3842 51.5297 12.2874H51.4601C51.2976 12.5311 51.1046 12.7415 50.8812 12.9185C50.6577 13.0955 50.4096 13.2319 50.1369 13.3276C49.8641 13.4234 49.5739 13.4713 49.2664 13.4713C48.7557 13.4713 48.287 13.345 47.8605 13.0926C47.4368 12.8372 47.0973 12.4876 46.842 12.0436C46.5895 11.5968 46.4633 11.0861 46.4633 10.5115C46.4633 9.96599 46.5852 9.46689 46.8289 9.01422C47.0756 8.55865 47.4209 8.19593 47.8648 7.92607C48.3117 7.65621 48.8369 7.52564 49.4405 7.53434ZM49.4405 8.49191C49.0749 8.49191 48.7455 8.58331 48.4524 8.76612C48.1623 8.94603 47.9316 9.18978 47.7604 9.49736C47.5921 9.80204 47.5079 10.1401 47.5079 10.5115C47.5079 10.8829 47.5892 11.221 47.7517 11.5257C47.9171 11.8274 48.1419 12.0683 48.4263 12.2482C48.7136 12.4252 49.04 12.5137 49.4056 12.5137C49.6813 12.5137 49.9381 12.46 50.1761 12.3527C50.414 12.2424 50.6215 12.093 50.7985 11.9043C50.9784 11.7128 51.1191 11.4966 51.2207 11.2558C51.3222 11.0121 51.373 10.7582 51.373 10.4941C51.373 10.1459 51.2889 9.81945 51.1206 9.51477C50.9552 9.21009 50.7259 8.96344 50.4329 8.77483C50.1427 8.58622 49.8119 8.49191 49.4405 8.49191ZM57.0891 7.53434C57.4547 7.53724 57.8203 7.60688 58.1859 7.74327C58.5515 7.87965 58.8852 8.10598 59.187 8.42227C59.4888 8.73566 59.7311 9.16366 59.9139 9.70628C60.0967 10.2489 60.1881 10.9294 60.1881 11.7476C60.1881 12.5398 60.1127 13.2435 59.9618 13.8587C59.8138 14.4709 59.599 14.9874 59.3176 15.4082C59.039 15.8289 58.6995 16.1481 58.2991 16.3657C57.9015 16.5834 57.4518 16.6922 56.9498 16.6922C56.4507 16.6922 56.0053 16.5935 55.6135 16.3962C55.2247 16.196 54.9055 15.9189 54.656 15.5649C54.4093 15.208 54.2512 14.7945 54.1815 14.3244H55.2436C55.3393 14.7335 55.5294 15.0716 55.8137 15.3385C56.101 15.6026 56.4797 15.7346 56.9498 15.7346C57.6375 15.7346 58.1801 15.4343 58.5776 14.8336C58.9781 14.233 59.1783 13.3842 59.1783 12.2874H59.1087C58.9462 12.5311 58.7532 12.7415 58.5298 12.9185C58.3063 13.0955 58.0582 13.2319 57.7855 13.3276C57.5127 13.4234 57.2225 13.4713 56.9149 13.4713C56.4042 13.4713 55.9356 13.345 55.5091 13.0926C55.0854 12.8372 54.7459 12.4876 54.4906 12.0436C54.2381 11.5968 54.1119 11.0861 54.1119 10.5115C54.1119 9.96599 54.2338 9.46689 54.4775 9.01422C54.7241 8.55865 55.0695 8.19593 55.5134 7.92607C55.9603 7.65621 56.4855 7.52564 57.0891 7.53434ZM57.0891 8.49191C56.7234 8.49191 56.3941 8.58331 56.101 8.76612C55.8108 8.94603 55.5802 9.18978 55.409 9.49736C55.2407 9.80204 55.1565 10.1401 55.1565 10.5115C55.1565 10.8829 55.2378 11.221 55.4002 11.5257C55.5656 11.8274 55.7905 12.0683 56.0749 12.2482C56.3622 12.4252 56.6886 12.5137 57.0542 12.5137C57.3299 12.5137 57.5867 12.46 57.8246 12.3527C58.0626 12.2424 58.2701 12.093 58.4471 11.9043C58.627 11.7128 58.7677 11.4966 58.8693 11.2558C58.9708 11.0121 59.0216 10.7582 59.0216 10.4941C59.0216 10.1459 58.9375 9.81945 58.7692 9.51477C58.6038 9.21009 58.3745 8.96344 58.0814 8.77483C57.7913 8.58622 57.4605 8.49191 57.0891 8.49191ZM65.1381 14.7422V13.8543L69.0554 7.65621H69.6996V9.03163H69.2643L66.3046 13.715V13.7847H71.5799V14.7422H65.1381ZM69.334 16.5703V14.4724V14.0589V7.65621H70.3612V16.5703H69.334ZM73.0021 14.7422V13.8543L76.9194 7.65621H77.5636V9.03163H77.1284L74.1686 13.715V13.7847H79.4439V14.7422H73.0021ZM77.198 16.5703V14.4724V14.0589V7.65621H78.2252V16.5703H77.198ZM81.0751 16.5703V15.7868L84.0174 12.5659C84.3627 12.1887 84.6471 11.8608 84.8705 11.5822C85.094 11.3008 85.2594 11.0367 85.3667 10.7901C85.477 10.5405 85.5321 10.2794 85.5321 10.0066C85.5321 9.69322 85.4567 9.42191 85.3058 9.19268C85.1578 8.96344 84.9547 8.78644 84.6964 8.66166C84.4382 8.53689 84.148 8.4745 83.8259 8.4745C83.4835 8.4745 83.1846 8.54559 82.9293 8.68778C82.6768 8.82706 82.481 9.02293 82.3417 9.27538C82.2053 9.52783 82.1371 9.8238 82.1371 10.1633H81.1099C81.1099 9.64099 81.2303 9.18252 81.4712 8.78789C81.712 8.39325 82.0399 8.08567 82.4548 7.86514C82.8727 7.64461 83.3413 7.53434 83.8607 7.53434C84.383 7.53434 84.8459 7.64461 85.2492 7.86514C85.6525 8.08567 85.9688 8.3831 86.1981 8.75742C86.4273 9.13174 86.5419 9.54814 86.5419 10.0066C86.5419 10.3345 86.4824 10.6551 86.3635 10.9685C86.2474 11.279 86.0443 11.6258 85.7541 12.0088C85.4668 12.3889 85.0678 12.8532 84.5571 13.4016L82.555 15.5431V15.6127H86.6986V16.5703H81.0751ZM94.7291 16.6922C94.2184 16.6922 93.7585 16.5906 93.3494 16.3875C92.9402 16.1844 92.6123 15.9058 92.3657 15.5518C92.119 15.1978 91.9841 14.7945 91.9609 14.3418H93.0055C93.0461 14.7451 93.2289 15.0788 93.5539 15.3429C93.8818 15.604 94.2736 15.7346 94.7291 15.7346C95.0948 15.7346 95.4198 15.649 95.7041 15.4778C95.9914 15.3066 96.2163 15.0716 96.3788 14.7727C96.5442 14.4709 96.6269 14.13 96.6269 13.7498C96.6269 13.361 96.5413 13.0142 96.3701 12.7096C96.2018 12.402 95.9696 12.1597 95.6737 11.9827C95.3777 11.8057 95.0396 11.7157 94.6595 11.7128C94.3867 11.7099 94.1067 11.752 93.8195 11.8391C93.5322 11.9232 93.2957 12.032 93.11 12.1655L92.1002 12.0436L92.6399 7.65621H97.2711V8.61378H93.5452L93.2319 11.2427H93.2841C93.4669 11.0977 93.6961 10.9772 93.9718 10.8815C94.2475 10.7857 94.5347 10.7378 94.8336 10.7378C95.3791 10.7378 95.8652 10.8684 96.2917 11.1296C96.7212 11.3878 97.0578 11.7418 97.3015 12.1916C97.5482 12.6414 97.6715 13.155 97.6715 13.7324C97.6715 14.3012 97.5438 14.809 97.2885 15.2558C97.036 15.6998 96.6878 16.0509 96.2438 16.3092C95.7999 16.5645 95.295 16.6922 94.7291 16.6922ZM102.534 7.65621V16.5703H101.455V8.78789H101.403L99.2265 10.2329V9.13609L101.455 7.65621H102.534ZM104.889 14.7422V13.8543L108.806 7.65621H109.451V9.03163H109.015L106.056 13.715V13.7847H111.331V14.7422H104.889ZM109.085 16.5703V14.4724V14.0589V7.65621H110.112V16.5703H109.085ZM113.241 16.5703L117.228 8.68342V8.61378H112.631V7.65621H118.342V8.66601L114.372 16.5703H113.241Z" fill="white"/>
</svg>
