<svg width="119" height="25" viewBox="0 0 119 25" fill="none" xmlns="http://www.w3.org/2000/svg">
<path d="M20.0703 21.1226C17.9746 21.1226 15.904 20.6659 13.8586 19.7525C11.8132 18.8391 9.95217 17.5438 8.27559 15.8666C6.59902 14.1893 5.30403 12.3283 4.39063 10.2836C3.47724 8.23883 3.0202 6.16826 3.01953 4.07187C3.01953 3.77008 3.12013 3.5186 3.32131 3.31741C3.5225 3.11622 3.77399 3.01562 4.07577 3.01562H8.14985C8.38457 3.01562 8.59414 3.09543 8.77856 3.25504C8.96299 3.41465 9.07196 3.6031 9.1055 3.82038L9.75936 7.34119C9.79289 7.60944 9.78451 7.83578 9.73421 8.0202C9.68391 8.20462 9.5917 8.3639 9.45758 8.49802L7.01816 10.9626C7.35348 11.5829 7.75149 12.1821 8.21222 12.7602C8.67294 13.3383 9.18027 13.8959 9.73421 14.4331C10.2539 14.9528 10.7988 15.435 11.3689 15.8796C11.9389 16.3243 12.5425 16.7307 13.1796 17.0988L15.5435 14.7349C15.6944 14.584 15.8916 14.471 16.135 14.3959C16.3785 14.3208 16.6172 14.2996 16.8513 14.3325L20.3218 15.0367C20.5565 15.1037 20.7493 15.2254 20.9002 15.4018C21.0511 15.5782 21.1265 15.775 21.1265 15.9923V20.0664C21.1265 20.3682 21.0259 20.6197 20.8248 20.8208C20.6236 21.022 20.3721 21.1226 20.0703 21.1226Z" fill="#00B1EF"/>
<path d="M39.2326 16.5703L43.2195 8.68342V8.61378H38.6232V7.65621H44.3338V8.66601L40.3642 16.5703H39.2326ZM48.6222 16.6922C48.1115 16.6922 47.6516 16.5906 47.2424 16.3875C46.8333 16.1844 46.5054 15.9058 46.2587 15.5518C46.0121 15.1978 45.8772 14.7945 45.8539 14.3418H46.8986C46.9392 14.7451 47.122 15.0788 47.447 15.3429C47.7749 15.604 48.1666 15.7346 48.6222 15.7346C48.9878 15.7346 49.3128 15.649 49.5972 15.4778C49.8844 15.3066 50.1093 15.0716 50.2718 14.7727C50.4372 14.4709 50.5199 14.13 50.5199 13.7498C50.5199 13.361 50.4343 13.0142 50.2631 12.7096C50.0948 12.402 49.8627 12.1597 49.5667 11.9827C49.2707 11.8057 48.9327 11.7157 48.5525 11.7128C48.2798 11.7099 47.9998 11.752 47.7125 11.8391C47.4252 11.9232 47.1887 12.032 47.003 12.1655L45.9932 12.0436L46.5329 7.65621H51.1641V8.61378H47.4383L47.1249 11.2427H47.1771C47.3599 11.0977 47.5892 10.9772 47.8648 10.8815C48.1405 10.7857 48.4278 10.7378 48.7266 10.7378C49.2722 10.7378 49.7582 10.8684 50.1848 11.1296C50.6142 11.3878 50.9508 11.7418 51.1946 12.1916C51.4412 12.6414 51.5645 13.155 51.5645 13.7324C51.5645 14.3012 51.4369 14.809 51.1815 15.2558C50.9291 15.6998 50.5808 16.0509 50.1369 16.3092C49.6929 16.5645 49.188 16.6922 48.6222 16.6922ZM56.3056 16.6922C55.731 16.6922 55.2189 16.5935 54.7691 16.3962C54.3223 16.1989 53.9668 15.9247 53.7027 15.5736C53.4416 15.2196 53.2994 14.809 53.2762 14.3418H54.373C54.3963 14.6291 54.4949 14.8772 54.669 15.0861C54.8431 15.2921 55.0709 15.4517 55.3524 15.5649C55.6338 15.678 55.9458 15.7346 56.2882 15.7346C56.6712 15.7346 57.0107 15.6679 57.3067 15.5344C57.6027 15.4009 57.8348 15.2152 58.0031 14.9773C58.1714 14.7393 58.2555 14.4637 58.2555 14.1503C58.2555 13.8224 58.1743 13.5337 58.0118 13.2841C57.8493 13.0317 57.6114 12.8343 57.298 12.6922C56.9846 12.55 56.6016 12.4789 56.1489 12.4789H55.4351V11.5213H56.1489C56.5029 11.5213 56.8134 11.4575 57.0803 11.3298C57.3502 11.2021 57.5606 11.0222 57.7115 10.7901C57.8653 10.5579 57.9422 10.2852 57.9422 9.97179C57.9422 9.67001 57.8754 9.4074 57.7419 9.18397C57.6085 8.96054 57.4198 8.78644 57.1761 8.66166C56.9353 8.53689 56.6509 8.4745 56.323 8.4745C56.0154 8.4745 55.7252 8.53108 55.4525 8.64425C55.1826 8.75452 54.9621 8.91556 54.7909 9.12739C54.6197 9.33631 54.5268 9.58876 54.5123 9.88474H53.4677C53.4851 9.41756 53.6258 9.00842 53.8899 8.65731C54.154 8.3033 54.4993 8.02763 54.9258 7.83032C55.3553 7.633 55.8268 7.53434 56.3404 7.53434C56.8917 7.53434 57.3647 7.64606 57.7594 7.86949C58.154 8.09002 58.4572 8.38164 58.669 8.74436C58.8809 9.10708 58.9868 9.49881 58.9868 9.91956C58.9868 10.4216 58.8548 10.8496 58.5907 11.2036C58.3295 11.5576 57.9741 11.8028 57.5243 11.9392V12.0088C58.0872 12.1017 58.5269 12.341 58.8431 12.727C59.1594 13.11 59.3176 13.5844 59.3176 14.1503C59.3176 14.6349 59.1855 15.0701 58.9215 15.4561C58.6603 15.8391 58.3034 16.1409 57.8508 16.3614C57.3981 16.5819 56.883 16.6922 56.3056 16.6922ZM67.4526 16.6922C66.7968 16.6922 66.2382 16.5137 65.7768 16.1568C65.3154 15.797 64.9629 15.2761 64.7191 14.5942C64.4754 13.9094 64.3535 13.0824 64.3535 12.1133C64.3535 11.1499 64.4754 10.3273 64.7191 9.64535C64.9658 8.96054 65.3198 8.43823 65.7812 8.07841C66.2454 7.7157 66.8026 7.53434 67.4526 7.53434C68.1025 7.53434 68.6582 7.7157 69.1196 8.07841C69.5839 8.43823 69.9379 8.96054 70.1816 9.64535C70.4283 10.3273 70.5516 11.1499 70.5516 12.1133C70.5516 13.0824 70.4297 13.9094 70.186 14.5942C69.9422 15.2761 69.5897 15.797 69.1283 16.1568C68.6669 16.5137 68.1084 16.6922 67.4526 16.6922ZM67.4526 15.7346C68.1025 15.7346 68.6074 15.4212 68.9673 14.7945C69.3271 14.1677 69.507 13.274 69.507 12.1133C69.507 11.3414 69.4243 10.6842 69.2589 10.1415C69.0964 9.59892 68.8614 9.18542 68.5538 8.90105C68.2491 8.61668 67.882 8.4745 67.4526 8.4745C66.8084 8.4745 66.3049 8.79224 65.9422 9.42772C65.5795 10.0603 65.3981 10.9555 65.3981 12.1133C65.3981 12.8851 65.4794 13.5409 65.6419 14.0806C65.8044 14.6204 66.038 15.0309 66.3427 15.3124C66.6502 15.5939 67.0202 15.7346 67.4526 15.7346ZM75.1131 16.6922C74.4573 16.6922 73.8987 16.5137 73.4374 16.1568C72.976 15.797 72.6234 15.2761 72.3797 14.5942C72.1359 13.9094 72.0141 13.0824 72.0141 12.1133C72.0141 11.1499 72.1359 10.3273 72.3797 9.64535C72.6263 8.96054 72.9803 8.43823 73.4417 8.07841C73.906 7.7157 74.4631 7.53434 75.1131 7.53434C75.7631 7.53434 76.3188 7.7157 76.7802 8.07841C77.2444 8.43823 77.5984 8.96054 77.8422 9.64535C78.0888 10.3273 78.2122 11.1499 78.2122 12.1133C78.2122 13.0824 78.0903 13.9094 77.8465 14.5942C77.6028 15.2761 77.2502 15.797 76.7889 16.1568C76.3275 16.5137 75.7689 16.6922 75.1131 16.6922ZM75.1131 15.7346C75.7631 15.7346 76.268 15.4212 76.6278 14.7945C76.9876 14.1677 77.1675 13.274 77.1675 12.1133C77.1675 11.3414 77.0848 10.6842 76.9194 10.1415C76.7569 9.59892 76.5219 9.18542 76.2143 8.90105C75.9096 8.61668 75.5426 8.4745 75.1131 8.4745C74.4689 8.4745 73.9655 8.79224 73.6028 9.42772C73.2401 10.0603 73.0587 10.9555 73.0587 12.1133C73.0587 12.8851 73.1399 13.5409 73.3024 14.0806C73.4649 14.6204 73.6985 15.0309 74.0032 15.3124C74.3108 15.5939 74.6808 15.7346 75.1131 15.7346ZM79.8661 16.5703V15.7868L82.8085 12.5659C83.1538 12.1887 83.4382 11.8608 83.6616 11.5822C83.885 11.3008 84.0504 11.0367 84.1578 10.7901C84.2681 10.5405 84.3232 10.2794 84.3232 10.0066C84.3232 9.69322 84.2477 9.42191 84.0969 9.19268C83.9489 8.96344 83.7457 8.78644 83.4875 8.66166C83.2292 8.53689 82.9391 8.4745 82.617 8.4745C82.2746 8.4745 81.9757 8.54559 81.7203 8.68778C81.4679 8.82706 81.272 9.02293 81.1327 9.27538C80.9964 9.52783 80.9282 9.8238 80.9282 10.1633H79.901C79.901 9.64099 80.0214 9.18252 80.2622 8.78789C80.5031 8.39325 80.831 8.08567 81.2459 7.86514C81.6638 7.64461 82.1324 7.53434 82.6518 7.53434C83.1741 7.53434 83.6369 7.64461 84.0403 7.86514C84.4436 8.08567 84.7599 8.3831 84.9891 8.75742C85.2184 9.13174 85.333 9.54814 85.333 10.0066C85.333 10.3345 85.2735 10.6551 85.1545 10.9685C85.0385 11.279 84.8353 11.6258 84.5452 12.0088C84.2579 12.3889 83.8589 12.8532 83.3482 13.4016L81.346 15.5431V15.6127H85.4897V16.5703H79.8661ZM93.5202 16.6922C93.0095 16.6922 92.5496 16.5906 92.1404 16.3875C91.7313 16.1844 91.4034 15.9058 91.1568 15.5518C90.9101 15.1978 90.7752 14.7945 90.752 14.3418H91.7966C91.8372 14.7451 92.02 15.0788 92.345 15.3429C92.6729 15.604 93.0646 15.7346 93.5202 15.7346C93.8858 15.7346 94.2108 15.649 94.4952 15.4778C94.7825 15.3066 95.0073 15.0716 95.1698 14.7727C95.3352 14.4709 95.4179 14.13 95.4179 13.7498C95.4179 13.361 95.3323 13.0142 95.1611 12.7096C94.9928 12.402 94.7607 12.1597 94.4647 11.9827C94.1687 11.8057 93.8307 11.7157 93.4506 11.7128C93.1778 11.7099 92.8978 11.752 92.6105 11.8391C92.3232 11.9232 92.0868 12.032 91.901 12.1655L90.8912 12.0436L91.431 7.65621H96.0621V8.61378H92.3363L92.0229 11.2427H92.0751C92.258 11.0977 92.4872 10.9772 92.7629 10.8815C93.0385 10.7857 93.3258 10.7378 93.6247 10.7378C94.1702 10.7378 94.6562 10.8684 95.0828 11.1296C95.5122 11.3878 95.8488 11.7418 96.0926 12.1916C96.3392 12.6414 96.4626 13.155 96.4626 13.7324C96.4626 14.3012 96.3349 14.809 96.0795 15.2558C95.8271 15.6998 95.4789 16.0509 95.0349 16.3092C94.5909 16.5645 94.086 16.6922 93.5202 16.6922ZM101.325 7.65621V16.5703H100.246V8.78789H100.194L98.0175 10.2329V9.13609L100.246 7.65621H101.325ZM103.68 14.7422V13.8543L107.598 7.65621H108.242V9.03163H107.806L104.847 13.715V13.7847H110.122V14.7422H103.68ZM107.876 16.5703V14.4724V14.0589V7.65621H108.903V16.5703H107.876ZM112.032 16.5703L116.019 8.68342V8.61378H111.422V7.65621H117.133V8.66601L113.163 16.5703H112.032Z" fill="white"/>
</svg>
