<svg width="125" height="67" viewBox="0 0 125 67" fill="none" xmlns="http://www.w3.org/2000/svg">
<path d="M31 0H125V67H0L31 0Z" fill="black"/>
<path fill-rule="evenodd" clip-rule="evenodd" d="M110.531 33.4692C110.671 33.6098 110.75 33.8004 110.75 33.9992C110.75 34.1979 110.671 34.3886 110.531 34.5292L104.531 40.5292C104.462 40.6029 104.379 40.662 104.287 40.703C104.195 40.7439 104.096 40.766 103.995 40.7678C103.894 40.7695 103.794 40.751 103.701 40.7133C103.608 40.6756 103.523 40.6194 103.452 40.5482C103.38 40.477 103.324 40.3922 103.287 40.2988C103.249 40.2054 103.23 40.1054 103.232 40.0047C103.234 39.904 103.256 39.8046 103.297 39.7126C103.338 39.6206 103.397 39.5378 103.471 39.4692L108.191 34.7492H94.0007C93.8017 34.7492 93.611 34.6702 93.4703 34.5295C93.3297 34.3889 93.2507 34.1981 93.2507 33.9992C93.2507 33.8003 93.3297 33.6095 93.4703 33.4688C93.611 33.3282 93.8017 33.2492 94.0007 33.2492H108.191L103.471 28.5292C103.397 28.4605 103.338 28.3777 103.297 28.2857C103.256 28.1937 103.234 28.0944 103.232 27.9937C103.23 27.893 103.249 27.793 103.287 27.6996C103.324 27.6062 103.38 27.5214 103.452 27.4501C103.523 27.3789 103.608 27.3228 103.701 27.2851C103.794 27.2473 103.894 27.2288 103.995 27.2306C104.096 27.2324 104.195 27.2544 104.287 27.2954C104.379 27.3364 104.462 27.3955 104.531 27.4692L110.531 33.4692Z" fill="white"/>
<path d="M28 6L3 60" stroke="#EAEAEA"/>
<path d="M47.5131 22.9543H45.2956C45.2324 22.5907 45.1158 22.2685 44.9458 21.9879C44.7759 21.7033 44.5644 21.4622 44.3114 21.2646C44.0585 21.0669 43.7699 20.9187 43.4458 20.8199C43.1256 20.7171 42.7798 20.6657 42.4082 20.6657C41.7481 20.6657 41.1631 20.8317 40.6532 21.1638C40.1433 21.4918 39.7441 21.9741 39.4556 22.6104C39.167 23.2429 39.0227 24.0156 39.0227 24.9287C39.0227 25.8576 39.167 26.6402 39.4556 27.2766C39.7481 27.909 40.1473 28.3873 40.6532 28.7114C41.1631 29.0316 41.7461 29.1917 42.4023 29.1917C42.7659 29.1917 43.1059 29.1442 43.4221 29.0494C43.7422 28.9505 44.0288 28.8063 44.2818 28.6165C44.5387 28.4268 44.7541 28.1936 44.928 27.9169C45.1059 27.6402 45.2284 27.324 45.2956 26.9683L47.5131 26.9801C47.4301 27.5572 47.2502 28.0987 46.9736 28.6047C46.7008 29.1106 46.3431 29.5573 45.9004 29.9446C45.4577 30.328 44.9399 30.6284 44.347 30.8458C43.7541 31.0593 43.096 31.166 42.3726 31.166C41.3054 31.166 40.3528 30.919 39.5149 30.4249C38.6769 29.9308 38.0168 29.2173 37.5346 28.2845C37.0523 27.3517 36.8112 26.2331 36.8112 24.9287C36.8112 23.6204 37.0543 22.5017 37.5405 21.5729C38.0267 20.64 38.6887 19.9266 39.5267 19.4325C40.3647 18.9384 41.3133 18.6914 42.3726 18.6914C43.0485 18.6914 43.677 18.7862 44.2581 18.976C44.8391 19.1657 45.3569 19.4444 45.8115 19.812C46.266 20.1756 46.6396 20.6223 46.9321 21.1519C47.2285 21.6776 47.4222 22.2784 47.5131 22.9543ZM49.5275 31V18.8574H51.7271V29.1561H57.0751V31H49.5275ZM61.1839 18.8574V31H58.9843V18.8574H61.1839ZM73.9595 22.9543H71.742C71.6788 22.5907 71.5622 22.2685 71.3922 21.9879C71.2222 21.7033 71.0108 21.4622 70.7578 21.2646C70.5048 21.0669 70.2163 20.9187 69.8922 20.8199C69.572 20.7171 69.2261 20.6657 68.8546 20.6657C68.1945 20.6657 67.6095 20.8317 67.0996 21.1638C66.5897 21.4918 66.1905 21.9741 65.9019 22.6104C65.6134 23.2429 65.4691 24.0156 65.4691 24.9287C65.4691 25.8576 65.6134 26.6402 65.9019 27.2766C66.1944 27.909 66.5936 28.3873 67.0996 28.7114C67.6095 29.0316 68.1925 29.1917 68.8486 29.1917C69.2123 29.1917 69.5522 29.1442 69.8684 29.0494C70.1886 28.9505 70.4752 28.8063 70.7281 28.6165C70.9851 28.4268 71.2005 28.1936 71.3744 27.9169C71.5523 27.6402 71.6748 27.324 71.742 26.9683L73.9595 26.9801C73.8765 27.5572 73.6966 28.0987 73.4199 28.6047C73.1472 29.1106 72.7895 29.5573 72.3468 29.9446C71.9041 30.328 71.3863 30.6284 70.7934 30.8458C70.2005 31.0593 69.5423 31.166 68.819 31.166C67.7518 31.166 66.7992 30.919 65.9612 30.4249C65.1233 29.9308 64.4632 29.2173 63.9809 28.2845C63.4987 27.3517 63.2576 26.2331 63.2576 24.9287C63.2576 23.6204 63.5007 22.5017 63.9869 21.5729C64.473 20.64 65.1351 19.9266 65.9731 19.4325C66.811 18.9384 67.7597 18.6914 68.819 18.6914C69.4949 18.6914 70.1234 18.7862 70.7044 18.976C71.2855 19.1657 71.8033 19.4444 72.2578 19.812C72.7124 20.1756 73.0859 20.6223 73.3784 21.1519C73.6749 21.6776 73.8685 22.2784 73.9595 22.9543ZM75.9738 31V18.8574H78.1735V24.4366H78.3217L83.059 18.8574H85.7449L81.0491 24.3061L85.7864 31H83.142L79.5194 25.7943L78.1735 27.3833V31H75.9738ZM37.1195 48V35.8574H39.3192V40.9978H44.9458V35.8574H47.1514V48H44.9458V42.8418H39.3192V48H37.1195ZM49.5438 48V35.8574H57.4412V37.7013H51.7434V40.9978H57.0321V42.8418H51.7434V46.1561H57.4887V48H49.5438ZM59.6854 48V35.8574H64.2388C65.1717 35.8574 65.9543 36.0194 66.5867 36.3436C67.2231 36.6677 67.7034 37.1222 68.0275 37.7072C68.3556 38.2883 68.5196 38.9662 68.5196 39.7409C68.5196 40.5196 68.3536 41.1955 68.0216 41.7686C67.6935 42.3378 67.2093 42.7785 66.5689 43.0908C65.9286 43.3991 65.142 43.5532 64.2092 43.5532H60.966V41.7271H63.9127C64.4582 41.7271 64.9049 41.652 65.2527 41.5018C65.6005 41.3476 65.8575 41.1243 66.0235 40.8318C66.1934 40.5354 66.2784 40.1717 66.2784 39.7409C66.2784 39.31 66.1934 38.9424 66.0235 38.6381C65.8535 38.3298 65.5946 38.0966 65.2468 37.9385C64.8989 37.7764 64.4503 37.6954 63.9009 37.6954H61.885V48H59.6854ZM65.9583 42.4979L68.9643 48H66.5097L63.557 42.4979H65.9583ZM70.5443 48V35.8574H78.4418V37.7013H72.744V40.9978H78.0327V42.8418H72.744V46.1561H78.4892V48H70.5443Z" fill="white"/>
<path d="M33 50.8047H81.4132" stroke="#00B1EF" stroke-width="0.834711"/>
</svg>
