<svg width="125" height="67" viewBox="0 0 125 67" fill="none" xmlns="http://www.w3.org/2000/svg">
<path d="M31 0H125V67H0L31 0Z" fill="black"/>
<path fill-rule="evenodd" clip-rule="evenodd" d="M110.531 33.4692C110.671 33.6098 110.75 33.8004 110.75 33.9992C110.75 34.1979 110.671 34.3886 110.531 34.5292L104.531 40.5292C104.462 40.6029 104.379 40.662 104.287 40.703C104.195 40.7439 104.096 40.766 103.995 40.7678C103.894 40.7695 103.794 40.751 103.701 40.7133C103.608 40.6756 103.523 40.6194 103.452 40.5482C103.38 40.477 103.324 40.3922 103.287 40.2988C103.249 40.2054 103.23 40.1054 103.232 40.0047C103.234 39.904 103.256 39.8046 103.297 39.7126C103.338 39.6206 103.397 39.5378 103.471 39.4692L108.191 34.7492H94.0007C93.8017 34.7492 93.611 34.6702 93.4703 34.5295C93.3297 34.3889 93.2507 34.1981 93.2507 33.9992C93.2507 33.8003 93.3297 33.6095 93.4703 33.4688C93.611 33.3282 93.8017 33.2492 94.0007 33.2492H108.191L103.471 28.5292C103.397 28.4605 103.338 28.3777 103.297 28.2857C103.256 28.1937 103.234 28.0944 103.232 27.9937C103.23 27.893 103.249 27.793 103.287 27.6996C103.324 27.6062 103.38 27.5214 103.452 27.4501C103.523 27.3789 103.608 27.3228 103.701 27.2851C103.794 27.2473 103.894 27.2288 103.995 27.2306C104.096 27.2324 104.195 27.2544 104.287 27.2954C104.379 27.3364 104.462 27.3955 104.531 27.4692L110.531 33.4692Z" fill="white"/>
<path d="M28 6L3 60" stroke="#EAEAEA"/>
<path d="M41.2343 31H37.1195V18.8574H41.3173C42.5228 18.8574 43.5584 19.1005 44.4241 19.5867C45.2937 20.0689 45.9617 20.7626 46.4281 21.6677C46.8945 22.5729 47.1277 23.6559 47.1277 24.9168C47.1277 26.1817 46.8925 27.2687 46.4222 28.1778C45.9557 29.0869 45.2818 29.7846 44.4004 30.2707C43.5229 30.7569 42.4675 31 41.2343 31ZM39.3192 29.0968H41.1275C41.9734 29.0968 42.679 28.9426 43.2442 28.6343C43.8094 28.3221 44.2344 27.8576 44.5189 27.241C44.8035 26.6204 44.9458 25.8457 44.9458 24.9168C44.9458 23.988 44.8035 23.2172 44.5189 22.6045C44.2344 21.9879 43.8134 21.5274 43.2561 21.2231C42.7027 20.9147 42.0149 20.7606 41.1928 20.7606H39.3192V29.0968ZM49.2177 31V18.8574H53.7712C54.704 18.8574 55.4866 19.0194 56.1191 19.3436C56.7554 19.6677 57.2357 20.1222 57.5598 20.7072C57.8879 21.2883 58.0519 21.9662 58.0519 22.7409C58.0519 23.5196 57.8859 24.1955 57.5539 24.7686C57.2258 25.3378 56.7416 25.7785 56.1013 26.0908C55.4609 26.3991 54.6744 26.5532 53.7415 26.5532H50.4984V24.7271H53.4451C53.9905 24.7271 54.4372 24.652 54.785 24.5018C55.1329 24.3476 55.3898 24.1243 55.5558 23.8318C55.7258 23.5354 55.8107 23.1717 55.8107 22.7409C55.8107 22.31 55.7258 21.9424 55.5558 21.6381C55.3858 21.3298 55.1269 21.0966 54.7791 20.9385C54.4313 20.7764 53.9826 20.6954 53.4332 20.6954H51.4174V31H49.2177ZM55.4906 25.4979L58.4966 31H56.042L53.0893 25.4979H55.4906ZM61.636 31H59.2881L63.5629 18.8574H66.2784L70.5592 31H68.2113L64.9681 21.3476H64.8732L61.636 31ZM61.7131 26.239H68.1164V28.0058H61.7131V26.239ZM79.7225 22.735C79.6236 22.4148 79.4873 22.1282 79.3134 21.8752C79.1434 21.6183 78.9379 21.399 78.6967 21.2171C78.4596 21.0353 78.1868 20.8989 77.8785 20.808C77.5702 20.7132 77.2342 20.6657 76.8706 20.6657C76.2184 20.6657 75.6374 20.8298 75.1275 21.1578C74.6176 21.4859 74.2164 21.9681 73.9239 22.6045C73.6353 23.2369 73.4911 24.0077 73.4911 24.9168C73.4911 25.8339 73.6353 26.6106 73.9239 27.2469C74.2124 27.8833 74.6136 28.3675 75.1275 28.6995C75.6413 29.0276 76.2382 29.1917 76.918 29.1917C77.5347 29.1917 78.0683 29.0731 78.5189 28.8359C78.9734 28.5987 79.3232 28.2628 79.5683 27.828C79.8134 27.3892 79.9359 26.8754 79.9359 26.2864L80.4339 26.3635H77.1374V24.6441H82.0644V26.1026C82.0644 27.1422 81.8431 28.0414 81.4004 28.8003C80.9577 29.5592 80.349 30.1442 79.5742 30.5553C78.7995 30.9624 77.9102 31.166 76.9062 31.166C75.7876 31.166 74.8053 30.915 73.9595 30.413C73.1175 29.9071 72.4594 29.1897 71.9851 28.2608C71.5147 27.328 71.2795 26.2212 71.2795 24.9405C71.2795 23.9603 71.4179 23.0848 71.6946 22.314C71.9752 21.5432 72.3665 20.8891 72.8685 20.3515C73.3705 19.81 73.9595 19.3989 74.6354 19.1183C75.3113 18.8337 76.0465 18.6914 76.841 18.6914C77.5129 18.6914 78.1394 18.7902 78.7205 18.9878C79.3015 19.1815 79.8173 19.4582 80.2679 19.8179C80.7225 20.1776 81.096 20.6045 81.3885 21.0985C81.681 21.5926 81.8727 22.1381 81.9636 22.735H79.7225ZM37.1195 48V35.8574H39.3192V40.9978H44.9458V35.8574H47.1514V48H44.9458V42.8418H39.3192V48H37.1195ZM49.5438 48V35.8574H57.4412V37.7013H51.7434V40.9978H57.0321V42.8418H51.7434V46.1561H57.4887V48H49.5438ZM59.6854 48V35.8574H64.2388C65.1717 35.8574 65.9543 36.0194 66.5867 36.3436C67.2231 36.6677 67.7034 37.1222 68.0275 37.7072C68.3556 38.2883 68.5196 38.9662 68.5196 39.7409C68.5196 40.5196 68.3536 41.1955 68.0216 41.7686C67.6935 42.3378 67.2093 42.7785 66.5689 43.0908C65.9286 43.3991 65.142 43.5532 64.2092 43.5532H60.966V41.7271H63.9127C64.4582 41.7271 64.9049 41.652 65.2527 41.5018C65.6005 41.3476 65.8575 41.1243 66.0235 40.8318C66.1934 40.5354 66.2784 40.1717 66.2784 39.7409C66.2784 39.31 66.1934 38.9424 66.0235 38.6381C65.8535 38.3298 65.5946 38.0966 65.2468 37.9385C64.8989 37.7764 64.4503 37.6954 63.9009 37.6954H61.885V48H59.6854ZM65.9583 42.4979L68.9643 48H66.5097L63.557 42.4979H65.9583ZM70.5443 48V35.8574H78.4418V37.7013H72.744V40.9978H78.0327V42.8418H72.744V46.1561H78.4892V48H70.5443Z" fill="white"/>
<path d="M33 50.8047H81.4132" stroke="#00B1EF" stroke-width="0.834711"/>
</svg>
