<svg width="15" height="15" viewBox="0 0 15 15" fill="none" xmlns="http://www.w3.org/2000/svg">
<path d="M2.48793 12.4347C2.14589 12.4347 1.85318 12.313 1.60981 12.0696C1.36645 11.8263 1.24456 11.5334 1.24414 11.1909V3.72816C1.24414 3.38612 1.36603 3.09342 1.60981 2.85005C1.8536 2.60668 2.1463 2.48479 2.48793 2.48438H12.4382C12.7803 2.48438 13.0732 2.60627 13.317 2.85005C13.5608 3.09383 13.6824 3.38654 13.682 3.72816V11.1909C13.682 11.5329 13.5603 11.8259 13.317 12.0696C13.0736 12.3134 12.7807 12.4351 12.4382 12.4347H2.48793ZM7.46309 8.08143L12.4382 4.97195V3.72816L7.46309 6.83764L2.48793 3.72816V4.97195L7.46309 8.08143Z" fill="white"/>
</svg>
