<svg width="202" height="49" viewBox="0 0 202 49" fill="none" xmlns="http://www.w3.org/2000/svg">
<path d="M0.488 10.0781V0.451416H6.29787V1.48554H1.65373V4.73831H5.99703V5.77243H1.65373V9.04401H6.37308V10.0781H0.488ZM9.35792 5.73482V10.0781H8.24859V2.85809H9.32032V3.98622H9.41433C9.58355 3.61958 9.84051 3.32501 10.1852 3.10252C10.5299 2.8769 10.9749 2.76408 11.5202 2.76408C12.009 2.76408 12.4368 2.86436 12.8034 3.06492C13.1701 3.26234 13.4552 3.56317 13.6589 3.96742C13.8626 4.36853 13.9645 4.87619 13.9645 5.4904V10.0781H12.8551V5.56561C12.8551 4.99841 12.7078 4.55656 12.4133 4.24005C12.1187 3.92042 11.7145 3.7606 11.2005 3.7606C10.8464 3.7606 10.5299 3.83737 10.251 3.99092C9.97526 4.14448 9.75747 4.36853 9.59765 4.6631C9.43783 4.95767 9.35792 5.31491 9.35792 5.73482ZM18.9059 12.9361C18.37 12.9361 17.9094 12.8671 17.5239 12.7292C17.1385 12.5945 16.8173 12.4159 16.5603 12.1934C16.3065 11.974 16.1044 11.739 15.954 11.4883L16.8377 10.8678C16.9379 10.9994 17.0649 11.1498 17.2184 11.3191C17.372 11.4914 17.5819 11.6403 17.8483 11.7656C18.1178 11.8941 18.4703 11.9583 18.9059 11.9583C19.4888 11.9583 19.9698 11.8173 20.349 11.5353C20.7281 11.2533 20.9177 10.8114 20.9177 10.2097V8.74317H20.8237C20.7422 8.87479 20.6263 9.03774 20.4759 9.23203C20.3286 9.42318 20.1155 9.59397 19.8366 9.74439C19.5608 9.89167 19.1879 9.96531 18.7179 9.96531C18.135 9.96531 17.6117 9.82743 17.1479 9.55166C16.6872 9.2759 16.3222 8.87479 16.0527 8.34833C15.7863 7.82187 15.6531 7.18259 15.6531 6.4305C15.6531 5.69095 15.7832 5.04698 16.0433 4.49858C16.3034 3.94705 16.6653 3.52087 17.1291 3.22004C17.5929 2.91607 18.1287 2.76408 18.7367 2.76408C19.2067 2.76408 19.5796 2.84243 19.8554 2.99911C20.1343 3.15266 20.3474 3.32815 20.4947 3.52557C20.6451 3.71986 20.761 3.87968 20.8425 4.00503H20.9553V2.85809H22.0271V10.2849C22.0271 10.9054 21.886 11.4099 21.604 11.7985C21.3251 12.1902 20.9491 12.477 20.4759 12.6587C20.0058 12.8436 19.4825 12.9361 18.9059 12.9361ZM18.8683 8.9688C19.3133 8.9688 19.6893 8.86695 19.9964 8.66326C20.3035 8.45957 20.537 8.16657 20.6968 7.78426C20.8566 7.40195 20.9365 6.94443 20.9365 6.4117C20.9365 5.89151 20.8582 5.43242 20.7015 5.03444C20.5448 4.63647 20.3129 4.32466 20.0058 4.09904C19.6987 3.87341 19.3195 3.7606 18.8683 3.7606C18.3982 3.7606 18.0065 3.87968 17.6932 4.11784C17.3829 4.356 17.1495 4.67564 16.9928 5.07675C16.8392 5.47786 16.7624 5.92285 16.7624 6.4117C16.7624 6.91309 16.8408 7.35651 16.9975 7.74196C17.1573 8.12427 17.3923 8.4251 17.7026 8.64446C18.0159 8.86068 18.4045 8.9688 18.8683 8.9688ZM26.1823 10.2473C25.7248 10.2473 25.3096 10.1612 24.9367 9.98881C24.5638 9.81333 24.2676 9.56107 24.0483 9.23203C23.8289 8.89986 23.7192 8.49874 23.7192 8.02869C23.7192 7.61504 23.8007 7.27974 23.9637 7.02277C24.1266 6.76268 24.3444 6.55899 24.6171 6.4117C24.8897 6.26442 25.1905 6.15474 25.5196 6.08266C25.8517 6.00746 26.1855 5.94792 26.5208 5.90404C26.9595 5.84764 27.3152 5.80533 27.5878 5.77713C27.8636 5.74579 28.0641 5.69409 28.1895 5.62201C28.3179 5.54994 28.3822 5.42459 28.3822 5.24597V5.20836C28.3822 4.74458 28.2553 4.3842 28.0014 4.12724C27.7507 3.87028 27.37 3.7418 26.8592 3.7418C26.3296 3.7418 25.9144 3.85774 25.6136 4.08964C25.3127 4.32153 25.1012 4.56909 24.979 4.83232L23.9261 4.45628C24.1141 4.01756 24.3648 3.67599 24.6782 3.43156C24.9947 3.184 25.3394 3.01164 25.7123 2.9145C26.0883 2.81422 26.4581 2.76408 26.8216 2.76408C27.0535 2.76408 27.3199 2.79229 27.6207 2.84869C27.9247 2.90197 28.2177 3.01321 28.4997 3.18243C28.7849 3.35165 29.0215 3.60705 29.2095 3.94862C29.3975 4.29019 29.4915 4.74771 29.4915 5.32118V10.0781H28.3822V9.10041H28.3258C28.2506 9.2571 28.1252 9.42475 27.9497 9.60337C27.7743 9.78199 27.5408 9.93398 27.2494 10.0593C26.9579 10.1847 26.6022 10.2473 26.1823 10.2473ZM26.3516 9.25083C26.7903 9.25083 27.16 9.16465 27.4609 8.9923C27.7648 8.81995 27.9936 8.59745 28.1472 8.32482C28.3038 8.05219 28.3822 7.76546 28.3822 7.46462V6.44931C28.3352 6.50571 28.2318 6.55742 28.072 6.60442C27.9153 6.6483 27.7335 6.68747 27.5267 6.72194C27.323 6.75328 27.124 6.78148 26.9297 6.80655C26.7386 6.82848 26.5834 6.84729 26.4644 6.86295C26.1761 6.90056 25.9066 6.96167 25.6559 7.04628C25.4083 7.12775 25.2078 7.25153 25.0542 7.41762C24.9038 7.58057 24.8286 7.80306 24.8286 8.0851C24.8286 8.47054 24.9712 8.76197 25.2563 8.9594C25.5446 9.15369 25.9097 9.25083 26.3516 9.25083ZM34.4306 12.9361C33.8947 12.9361 33.4341 12.8671 33.0486 12.7292C32.6632 12.5945 32.342 12.4159 32.085 12.1934C31.8312 11.974 31.6291 11.739 31.4787 11.4883L32.3624 10.8678C32.4626 10.9994 32.5896 11.1498 32.7431 11.3191C32.8967 11.4914 33.1066 11.6403 33.373 11.7656C33.6425 11.8941 33.995 11.9583 34.4306 11.9583C35.0135 11.9583 35.4945 11.8173 35.8737 11.5353C36.2529 11.2533 36.4424 10.8114 36.4424 10.2097V8.74317H36.3484C36.267 8.87479 36.151 9.03774 36.0006 9.23203C35.8533 9.42318 35.6402 9.59397 35.3613 9.74439C35.0856 9.89167 34.7126 9.96531 34.2426 9.96531C33.6597 9.96531 33.1364 9.82743 32.6726 9.55166C32.212 9.2759 31.8469 8.87479 31.5774 8.34833C31.311 7.82187 31.1778 7.18259 31.1778 6.4305C31.1778 5.69095 31.3079 5.04698 31.568 4.49858C31.8281 3.94705 32.19 3.52087 32.6538 3.22004C33.1176 2.91607 33.6535 2.76408 34.2614 2.76408C34.7314 2.76408 35.1044 2.84243 35.3801 2.99911C35.659 3.15266 35.8721 3.32815 36.0194 3.52557C36.1698 3.71986 36.2858 3.87968 36.3672 4.00503H36.48V2.85809H37.5518V10.2849C37.5518 10.9054 37.4108 11.4099 37.1287 11.7985C36.8498 12.1902 36.4738 12.477 36.0006 12.6587C35.5305 12.8436 35.0072 12.9361 34.4306 12.9361ZM34.393 8.9688C34.838 8.9688 35.214 8.86695 35.5211 8.66326C35.8282 8.45957 36.0617 8.16657 36.2215 7.78426C36.3813 7.40195 36.4612 6.94443 36.4612 6.4117C36.4612 5.89151 36.3829 5.43242 36.2262 5.03444C36.0695 4.63647 35.8376 4.32466 35.5305 4.09904C35.2234 3.87341 34.8443 3.7606 34.393 3.7606C33.9229 3.7606 33.5312 3.87968 33.2179 4.11784C32.9076 4.356 32.6742 4.67564 32.5175 5.07675C32.3639 5.47786 32.2872 5.92285 32.2872 6.4117C32.2872 6.91309 32.3655 7.35651 32.5222 7.74196C32.682 8.12427 32.917 8.4251 33.2273 8.64446C33.5406 8.86068 33.9292 8.9688 34.393 8.9688ZM39.5824 10.0781V2.85809H40.6917V10.0781H39.5824ZM40.1465 1.65476C39.9302 1.65476 39.7438 1.58111 39.5871 1.43383C39.4336 1.28655 39.3568 1.10949 39.3568 0.902669C39.3568 0.695845 39.4336 0.518791 39.5871 0.371507C39.7438 0.224224 39.9302 0.150582 40.1465 0.150582C40.3627 0.150582 40.5476 0.224224 40.7011 0.371507C40.8578 0.518791 40.9362 0.695845 40.9362 0.902669C40.9362 1.10949 40.8578 1.28655 40.7011 1.43383C40.5476 1.58111 40.3627 1.65476 40.1465 1.65476ZM43.8329 5.73482V10.0781H42.7235V2.85809H43.7953V3.98622H43.8893C44.0585 3.61958 44.3155 3.32501 44.6602 3.10252C45.0049 2.8769 45.4499 2.76408 45.9951 2.76408C46.484 2.76408 46.9117 2.86436 47.2784 3.06492C47.645 3.26234 47.9302 3.56317 48.1339 3.96742C48.3376 4.36853 48.4394 4.87619 48.4394 5.4904V10.0781H47.3301V5.56561C47.3301 4.99841 47.1828 4.55656 46.8882 4.24005C46.5937 3.92042 46.1894 3.7606 45.6755 3.7606C45.3214 3.7606 45.0049 3.83737 44.726 3.99092C44.4502 4.14448 44.2324 4.36853 44.0726 4.6631C43.9128 4.95767 43.8329 5.31491 43.8329 5.73482ZM53.3808 12.9361C52.845 12.9361 52.3843 12.8671 51.9989 12.7292C51.6134 12.5945 51.2922 12.4159 51.0353 12.1934C50.7814 11.974 50.5793 11.739 50.4289 11.4883L51.3126 10.8678C51.4129 10.9994 51.5398 11.1498 51.6933 11.3191C51.8469 11.4914 52.0569 11.6403 52.3232 11.7656C52.5927 11.8941 52.9453 11.9583 53.3808 11.9583C53.9637 11.9583 54.4447 11.8173 54.8239 11.5353C55.2031 11.2533 55.3927 10.8114 55.3927 10.2097V8.74317H55.2987C55.2172 8.87479 55.1012 9.03774 54.9508 9.23203C54.8035 9.42318 54.5904 9.59397 54.3115 9.74439C54.0358 9.89167 53.6629 9.96531 53.1928 9.96531C52.61 9.96531 52.0866 9.82743 51.6228 9.55166C51.1622 9.2759 50.7971 8.87479 50.5276 8.34833C50.2612 7.82187 50.1281 7.18259 50.1281 6.4305C50.1281 5.69095 50.2581 5.04698 50.5182 4.49858C50.7783 3.94705 51.1402 3.52087 51.604 3.22004C52.0678 2.91607 52.6037 2.76408 53.2116 2.76408C53.6817 2.76408 54.0546 2.84243 54.3303 2.99911C54.6092 3.15266 54.8223 3.32815 54.9696 3.52557C55.12 3.71986 55.236 3.87968 55.3175 4.00503H55.4303V2.85809H56.502V10.2849C56.502 10.9054 56.361 11.4099 56.079 11.7985C55.8001 12.1902 55.424 12.477 54.9508 12.6587C54.4808 12.8436 53.9574 12.9361 53.3808 12.9361ZM53.3432 8.9688C53.7882 8.9688 54.1643 8.86695 54.4714 8.66326C54.7785 8.45957 55.0119 8.16657 55.1717 7.78426C55.3316 7.40195 55.4115 6.94443 55.4115 6.4117C55.4115 5.89151 55.3331 5.43242 55.1764 5.03444C55.0198 4.63647 54.7879 4.32466 54.4808 4.09904C54.1737 3.87341 53.7945 3.7606 53.3432 3.7606C52.8732 3.7606 52.4815 3.87968 52.1681 4.11784C51.8579 4.356 51.6244 4.67564 51.4677 5.07675C51.3142 5.47786 51.2374 5.92285 51.2374 6.4117C51.2374 6.91309 51.3157 7.35651 51.4724 7.74196C51.6322 8.12427 51.8673 8.4251 52.1775 8.64446C52.4909 8.86068 52.8794 8.9688 53.3432 8.9688ZM59.3411 10.1533C59.1092 10.1533 58.9102 10.0703 58.7442 9.9042C58.5781 9.73812 58.495 9.53913 58.495 9.30724C58.495 9.07534 58.5781 8.87635 58.7442 8.71027C58.9102 8.54418 59.1092 8.46114 59.3411 8.46114C59.573 8.46114 59.772 8.54418 59.9381 8.71027C60.1042 8.87635 60.1872 9.07534 60.1872 9.30724C60.1872 9.46079 60.1481 9.6018 60.0697 9.73028C59.9945 9.85877 59.8927 9.96218 59.7642 10.0405C59.6388 10.1157 59.4978 10.1533 59.3411 10.1533ZM67.2169 0.451416V10.0781H66.0511V0.451416H67.2169ZM70.5131 5.73482V10.0781H69.4038V2.85809H70.4755V3.98622H70.5695C70.7388 3.61958 70.9957 3.32501 71.3404 3.10252C71.6851 2.8769 72.1301 2.76408 72.6754 2.76408C73.1642 2.76408 73.592 2.86436 73.9586 3.06492C74.3253 3.26234 74.6104 3.56317 74.8141 3.96742C75.0178 4.36853 75.1197 4.87619 75.1197 5.4904V10.0781H74.0103V5.56561C74.0103 4.99841 73.8631 4.55656 73.5685 4.24005C73.2739 3.92042 72.8697 3.7606 72.3558 3.7606C72.0016 3.7606 71.6851 3.83737 71.4062 3.99092C71.1305 4.14448 70.9127 4.36853 70.7529 4.6631C70.5931 4.95767 70.5131 5.31491 70.5131 5.73482ZM80.2867 2.85809V3.7982H76.5451V2.85809H80.2867ZM77.6356 1.12829H78.745V8.00989C78.745 8.32326 78.7904 8.55828 78.8813 8.71497C78.9753 8.86852 79.0944 8.97193 79.2385 9.0252C79.3858 9.07534 79.5409 9.10041 79.7039 9.10041C79.8261 9.10041 79.9264 9.09415 80.0047 9.08161C80.0831 9.06594 80.1457 9.05341 80.1927 9.04401L80.4184 10.0405C80.3431 10.0687 80.2382 10.0969 80.1034 10.1251C79.9687 10.1565 79.7979 10.1721 79.5911 10.1721C79.2777 10.1721 78.9706 10.1048 78.6698 9.97001C78.3721 9.83526 78.1245 9.63001 77.9271 9.35424C77.7328 9.07848 77.6356 8.73064 77.6356 8.31072V1.12829ZM84.905 10.2285C84.2093 10.2285 83.6092 10.075 83.1047 9.76789C82.6033 9.45765 82.2163 9.0252 81.9437 8.47054C81.6742 7.91274 81.5394 7.26407 81.5394 6.52452C81.5394 5.78496 81.6742 5.13316 81.9437 4.56909C82.2163 4.00189 82.5955 3.56004 83.0812 3.24354C83.5701 2.9239 84.1404 2.76408 84.7922 2.76408C85.1683 2.76408 85.5396 2.82676 85.9062 2.9521C86.2729 3.07745 86.6066 3.28114 86.9075 3.56317C87.2083 3.84207 87.448 4.21185 87.6266 4.6725C87.8053 5.13316 87.8946 5.70035 87.8946 6.3741V6.84415H82.3291V5.88524H86.7664C86.7664 5.47786 86.685 5.11435 86.522 4.79472C86.3622 4.47508 86.1334 4.22282 85.8357 4.03793C85.5412 3.85304 85.1933 3.7606 84.7922 3.7606C84.3504 3.7606 83.968 3.87028 83.6453 4.08964C83.3256 4.30586 83.0796 4.58789 82.9073 4.93573C82.7349 5.28357 82.6488 5.65648 82.6488 6.05446V6.69374C82.6488 7.239 82.7428 7.70122 82.9308 8.08039C83.1219 8.45644 83.3867 8.74317 83.7252 8.94059C84.0636 9.13488 84.4569 9.23203 84.905 9.23203C85.1965 9.23203 85.4597 9.19129 85.6947 9.10981C85.9329 9.0252 86.1381 8.89986 86.3105 8.73377C86.4828 8.56455 86.616 8.35459 86.71 8.1039L87.7818 8.40473C87.6689 8.76824 87.4794 9.08788 87.213 9.36364C86.9466 9.63627 86.6176 9.84937 86.2259 10.0029C85.8342 10.1533 85.3939 10.2285 84.905 10.2285ZM89.5821 10.0781V2.85809H90.6538V3.94862H90.729C90.8606 3.59138 91.0988 3.30151 91.4435 3.07902C91.7882 2.85653 92.1768 2.74528 92.6092 2.74528C92.6907 2.74528 92.7925 2.74685 92.9147 2.74998C93.037 2.75311 93.1294 2.75782 93.1921 2.76408V3.89221C93.1545 3.88281 93.0683 3.86871 92.9335 3.84991C92.8019 3.82797 92.6625 3.817 92.5152 3.817C92.1642 3.817 91.8509 3.89065 91.5751 4.03793C91.3025 4.18208 91.0862 4.38264 90.9264 4.6396C90.7697 4.89343 90.6914 5.18329 90.6914 5.5092V10.0781H89.5821ZM96.6317 10.2473C96.1742 10.2473 95.759 10.1612 95.386 9.98881C95.0131 9.81333 94.717 9.56107 94.4976 9.23203C94.2783 8.89986 94.1686 8.49874 94.1686 8.02869C94.1686 7.61504 94.2501 7.27974 94.413 7.02277C94.576 6.76268 94.7938 6.55899 95.0664 6.4117C95.339 6.26442 95.6399 6.15474 95.9689 6.08266C96.3011 6.00746 96.6348 5.94792 96.9701 5.90404C97.4088 5.84764 97.7645 5.80533 98.0372 5.77713C98.3129 5.74579 98.5135 5.69409 98.6388 5.62201C98.7673 5.54994 98.8315 5.42459 98.8315 5.24597V5.20836C98.8315 4.74458 98.7046 4.3842 98.4508 4.12724C98.2001 3.87028 97.8194 3.7418 97.3086 3.7418C96.779 3.7418 96.3638 3.85774 96.0629 4.08964C95.7621 4.32153 95.5506 4.56909 95.4284 4.83232L94.3754 4.45628C94.5635 4.01756 94.8141 3.67599 95.1275 3.43156C95.444 3.184 95.7887 3.01164 96.1616 2.9145C96.5377 2.81422 96.9075 2.76408 97.271 2.76408C97.5029 2.76408 97.7692 2.79229 98.0701 2.84869C98.374 2.90197 98.667 3.01321 98.9491 3.18243C99.2342 3.35165 99.4708 3.60705 99.6588 3.94862C99.8469 4.29019 99.9409 4.74771 99.9409 5.32118V10.0781H98.8315V9.10041H98.7751C98.6999 9.2571 98.5746 9.42475 98.3991 9.60337C98.2236 9.78199 97.9901 9.93398 97.6987 10.0593C97.4073 10.1847 97.0516 10.2473 96.6317 10.2473ZM96.8009 9.25083C97.2396 9.25083 97.6094 9.16465 97.9102 8.9923C98.2142 8.81995 98.443 8.59745 98.5965 8.32482C98.7532 8.05219 98.8315 7.76546 98.8315 7.46462V6.44931C98.7845 6.50571 98.6811 6.55742 98.5213 6.60442C98.3646 6.6483 98.1829 6.68747 97.976 6.72194C97.7724 6.75328 97.5734 6.78148 97.3791 6.80655C97.1879 6.82848 97.0328 6.84729 96.9137 6.86295C96.6254 6.90056 96.3559 6.96167 96.1052 7.04628C95.8577 7.12775 95.6571 7.25153 95.5036 7.41762C95.3531 7.58057 95.2779 7.80306 95.2779 8.0851C95.2779 8.47054 95.4205 8.76197 95.7057 8.9594C95.994 9.15369 96.3591 9.25083 96.8009 9.25083ZM104.899 10.2285C104.222 10.2285 103.639 10.0687 103.15 9.74909C102.661 9.42945 102.285 8.98917 102.022 8.42823C101.759 7.8673 101.627 7.22646 101.627 6.50571C101.627 5.77243 101.762 5.12532 102.031 4.56439C102.304 4.00033 102.683 3.56004 103.169 3.24354C103.658 2.9239 104.228 2.76408 104.88 2.76408C105.388 2.76408 105.845 2.85809 106.253 3.04612C106.66 3.23414 106.994 3.49737 107.254 3.83581C107.514 4.17425 107.675 4.56909 107.738 5.02034H106.629C106.544 4.6913 106.356 4.39987 106.065 4.14604C105.776 3.88908 105.388 3.7606 104.899 3.7606C104.466 3.7606 104.087 3.87341 103.761 4.09904C103.438 4.32153 103.186 4.63646 103.004 5.04385C102.826 5.44809 102.737 5.92285 102.737 6.46811C102.737 7.02591 102.824 7.51163 103 7.92528C103.178 8.33892 103.429 8.66013 103.752 8.88889C104.078 9.11765 104.46 9.23203 104.899 9.23203C105.187 9.23203 105.449 9.18189 105.684 9.08161C105.919 8.98133 106.118 8.83718 106.281 8.64916C106.444 8.46114 106.56 8.23551 106.629 7.97228H107.738C107.675 8.39846 107.52 8.78234 107.273 9.12392C107.028 9.46235 106.704 9.73185 106.3 9.93241C105.898 10.1298 105.432 10.2285 104.899 10.2285ZM112.5 2.85809V3.7982H108.758V2.85809H112.5ZM109.848 1.12829H110.958V8.00989C110.958 8.32326 111.003 8.55828 111.094 8.71497C111.188 8.86852 111.307 8.97193 111.451 9.0252C111.599 9.07534 111.754 9.10041 111.917 9.10041C112.039 9.10041 112.139 9.09415 112.218 9.08161C112.296 9.06594 112.359 9.05341 112.406 9.04401L112.631 10.0405C112.556 10.0687 112.451 10.0969 112.316 10.1251C112.181 10.1565 112.011 10.1721 111.804 10.1721C111.49 10.1721 111.183 10.1048 110.883 9.97001C110.585 9.83526 110.337 9.63001 110.14 9.35424C109.946 9.07848 109.848 8.73064 109.848 8.31072V1.12829ZM114.168 10.0781V2.85809H115.278V10.0781H114.168ZM114.732 1.65476C114.516 1.65476 114.33 1.58111 114.173 1.43383C114.019 1.28655 113.943 1.10949 113.943 0.902669C113.943 0.695845 114.019 0.518791 114.173 0.371507C114.33 0.224224 114.516 0.150582 114.732 0.150582C114.949 0.150582 115.133 0.224224 115.287 0.371507C115.444 0.518791 115.522 0.695845 115.522 0.902669C115.522 1.10949 115.444 1.28655 115.287 1.43383C115.133 1.58111 114.949 1.65476 114.732 1.65476ZM123.213 2.85809L120.543 10.0781H119.415L116.745 2.85809H117.949L119.942 8.61156H120.017L122.01 2.85809H123.213ZM127.446 10.2285C126.75 10.2285 126.15 10.075 125.646 9.76789C125.144 9.45765 124.757 9.0252 124.485 8.47054C124.215 7.91274 124.081 7.26407 124.081 6.52452C124.081 5.78496 124.215 5.13316 124.485 4.56909C124.757 4.00189 125.137 3.56004 125.622 3.24354C126.111 2.9239 126.681 2.76408 127.333 2.76408C127.709 2.76408 128.081 2.82676 128.447 2.9521C128.814 3.07745 129.148 3.28114 129.449 3.56317C129.749 3.84207 129.989 4.21185 130.168 4.6725C130.346 5.13316 130.436 5.70035 130.436 6.3741V6.84415H124.87V5.88524H129.308C129.308 5.47786 129.226 5.11435 129.063 4.79472C128.903 4.47508 128.674 4.22282 128.377 4.03793C128.082 3.85304 127.734 3.7606 127.333 3.7606C126.891 3.7606 126.509 3.87028 126.186 4.08964C125.867 4.30586 125.621 4.58789 125.448 4.93573C125.276 5.28357 125.19 5.65648 125.19 6.05446V6.69374C125.19 7.239 125.284 7.70122 125.472 8.08039C125.663 8.45644 125.928 8.74317 126.266 8.94059C126.605 9.13488 126.998 9.23203 127.446 9.23203C127.738 9.23203 128.001 9.19129 128.236 9.10981C128.474 9.0252 128.679 8.89986 128.852 8.73377C129.024 8.56455 129.157 8.35459 129.251 8.1039L130.323 8.40473C130.21 8.76824 130.02 9.08788 129.754 9.36364C129.488 9.63627 129.159 9.84937 128.767 10.0029C128.375 10.1533 127.935 10.2285 127.446 10.2285ZM132.932 10.1533C132.7 10.1533 132.501 10.0703 132.335 9.9042C132.169 9.73812 132.086 9.53913 132.086 9.30724C132.086 9.07534 132.169 8.87635 132.335 8.71027C132.501 8.54418 132.7 8.46114 132.932 8.46114C133.164 8.46114 133.363 8.54418 133.529 8.71027C133.695 8.87635 133.778 9.07534 133.778 9.30724C133.778 9.46079 133.739 9.6018 133.66 9.73028C133.585 9.85877 133.483 9.96218 133.355 10.0405C133.229 10.1157 133.088 10.1533 132.932 10.1533ZM139.642 10.0781V0.451416H145.452V1.48554H140.807V4.73831H145.151V5.77243H140.807V9.04401H145.527V10.0781H139.642ZM150.617 2.85809V3.7982H146.725V2.85809H150.617ZM147.891 10.0781V1.86158C147.891 1.44793 147.988 1.10322 148.183 0.827459C148.377 0.551694 148.629 0.34487 148.939 0.206988C149.25 0.0691054 149.577 0.000164113 149.922 0.000164113C150.194 0.000164113 150.417 0.0221001 150.589 0.0659721C150.762 0.109844 150.89 0.150582 150.975 0.188186L150.655 1.1471C150.599 1.12829 150.52 1.10479 150.42 1.07659C150.323 1.04838 150.194 1.03428 150.035 1.03428C149.668 1.03428 149.403 1.12673 149.24 1.31162C149.08 1.4965 149 1.76757 149 2.12481V10.0781H147.891ZM155.387 2.85809V3.7982H151.495V2.85809H155.387ZM152.661 10.0781V1.86158C152.661 1.44793 152.758 1.10322 152.952 0.827459C153.147 0.551694 153.399 0.34487 153.709 0.206988C154.019 0.0691054 154.347 0.000164113 154.692 0.000164113C154.964 0.000164113 155.187 0.0221001 155.359 0.0659721C155.531 0.109844 155.66 0.150582 155.745 0.188186L155.425 1.1471C155.368 1.12829 155.29 1.10479 155.19 1.07659C155.093 1.04838 154.964 1.03428 154.804 1.03428C154.438 1.03428 154.173 1.12673 154.01 1.31162C153.85 1.4965 153.77 1.76757 153.77 2.12481V10.0781H152.661ZM159.578 10.2285C158.926 10.2285 158.354 10.0734 157.862 9.76319C157.373 9.45295 156.991 9.01894 156.715 8.46114C156.443 7.90334 156.306 7.25153 156.306 6.50571C156.306 5.75363 156.443 5.09712 156.715 4.53619C156.991 3.97526 157.373 3.53967 157.862 3.22944C158.354 2.9192 158.926 2.76408 159.578 2.76408C160.23 2.76408 160.8 2.9192 161.289 3.22944C161.781 3.53967 162.163 3.97526 162.436 4.53619C162.712 5.09712 162.849 5.75363 162.849 6.50571C162.849 7.25153 162.712 7.90334 162.436 8.46114C162.163 9.01894 161.781 9.45295 161.289 9.76319C160.8 10.0734 160.23 10.2285 159.578 10.2285ZM159.578 9.23203C160.073 9.23203 160.48 9.10511 160.8 8.85128C161.12 8.59745 161.356 8.26372 161.51 7.85007C161.663 7.43642 161.74 6.9883 161.74 6.50571C161.74 6.02312 161.663 5.57344 161.51 5.15666C161.356 4.73988 161.12 4.403 160.8 4.14604C160.48 3.88908 160.073 3.7606 159.578 3.7606C159.083 3.7606 158.675 3.88908 158.356 4.14604C158.036 4.403 157.799 4.73988 157.646 5.15666C157.492 5.57344 157.416 6.02312 157.416 6.50571C157.416 6.9883 157.492 7.43642 157.646 7.85007C157.799 8.26372 158.036 8.59745 158.356 8.85128C158.675 9.10511 159.083 9.23203 159.578 9.23203ZM164.543 10.0781V2.85809H165.614V3.94862H165.69C165.821 3.59138 166.059 3.30151 166.404 3.07902C166.749 2.85653 167.137 2.74528 167.57 2.74528C167.651 2.74528 167.753 2.74685 167.875 2.74998C167.998 2.75311 168.09 2.75782 168.153 2.76408V3.89221C168.115 3.88281 168.029 3.86871 167.894 3.84991C167.763 3.82797 167.623 3.817 167.476 3.817C167.125 3.817 166.812 3.89065 166.536 4.03793C166.263 4.18208 166.047 4.38264 165.887 4.6396C165.73 4.89343 165.652 5.18329 165.652 5.5092V10.0781H164.543ZM173.06 2.85809V3.7982H169.319V2.85809H173.06ZM170.409 1.12829H171.518V8.00989C171.518 8.32326 171.564 8.55828 171.655 8.71497C171.749 8.86852 171.868 8.97193 172.012 9.0252C172.159 9.07534 172.314 9.10041 172.477 9.10041C172.599 9.10041 172.7 9.09415 172.778 9.08161C172.856 9.06594 172.919 9.05341 172.966 9.04401L173.192 10.0405C173.117 10.0687 173.012 10.0969 172.877 10.1251C172.742 10.1565 172.571 10.1721 172.364 10.1721C172.051 10.1721 171.744 10.1048 171.443 9.97001C171.145 9.83526 170.898 9.63001 170.7 9.35424C170.506 9.07848 170.409 8.73064 170.409 8.31072V1.12829ZM175.993 0.451416V10.0781H174.884V0.451416H175.993ZM181.052 10.2285C180.357 10.2285 179.756 10.075 179.252 9.76789C178.751 9.45765 178.364 9.0252 178.091 8.47054C177.821 7.91274 177.687 7.26407 177.687 6.52452C177.687 5.78496 177.821 5.13316 178.091 4.56909C178.364 4.00189 178.743 3.56004 179.228 3.24354C179.717 2.9239 180.288 2.76408 180.939 2.76408C181.315 2.76408 181.687 2.82676 182.053 2.9521C182.42 3.07745 182.754 3.28114 183.055 3.56317C183.356 3.84207 183.595 4.21185 183.774 4.6725C183.952 5.13316 184.042 5.70035 184.042 6.3741V6.84415H178.476V5.88524H182.914C182.914 5.47786 182.832 5.11435 182.669 4.79472C182.509 4.47508 182.281 4.22282 181.983 4.03793C181.688 3.85304 181.341 3.7606 180.939 3.7606C180.498 3.7606 180.115 3.87028 179.793 4.08964C179.473 4.30586 179.227 4.58789 179.055 4.93573C178.882 5.28357 178.796 5.65648 178.796 6.05446V6.69374C178.796 7.239 178.89 7.70122 179.078 8.08039C179.269 8.45644 179.534 8.74317 179.872 8.94059C180.211 9.13488 180.604 9.23203 181.052 9.23203C181.344 9.23203 181.607 9.19129 181.842 9.10981C182.08 9.0252 182.285 8.89986 182.458 8.73377C182.63 8.56455 182.763 8.35459 182.857 8.1039L183.929 8.40473C183.816 8.76824 183.627 9.08788 183.36 9.36364C183.094 9.63627 182.765 9.84937 182.373 10.0029C181.981 10.1533 181.541 10.2285 181.052 10.2285ZM190.843 4.47508L189.847 4.75711C189.784 4.59103 189.692 4.42964 189.57 4.27296C189.451 4.11314 189.288 3.98152 189.081 3.87811C188.874 3.7747 188.609 3.72299 188.286 3.72299C187.845 3.72299 187.476 3.82484 187.182 4.02853C186.89 4.22908 186.745 4.48448 186.745 4.79472C186.745 5.07048 186.845 5.28827 187.045 5.44809C187.246 5.60791 187.559 5.74109 187.986 5.84764L189.057 6.11087C189.703 6.26755 190.184 6.50728 190.5 6.83005C190.817 7.14969 190.975 7.56177 190.975 8.06629C190.975 8.47994 190.856 8.84972 190.618 9.17562C190.383 9.50153 190.054 9.75849 189.631 9.94651C189.208 10.1345 188.716 10.2285 188.155 10.2285C187.418 10.2285 186.809 10.0687 186.326 9.74909C185.844 9.42945 185.538 8.96253 185.41 8.34833L186.463 8.0851C186.563 8.47367 186.752 8.76511 187.031 8.9594C187.313 9.15369 187.682 9.25083 188.136 9.25083C188.653 9.25083 189.064 9.14115 189.367 8.92179C189.675 8.6993 189.828 8.43294 189.828 8.1227C189.828 7.872 189.74 7.66205 189.565 7.49283C189.389 7.32047 189.12 7.19199 188.756 7.10738L187.553 6.82535C186.892 6.66867 186.406 6.4258 186.096 6.09677C185.789 5.76459 185.635 5.34938 185.635 4.85112C185.635 4.44374 185.75 4.08337 185.978 3.77C186.21 3.45663 186.525 3.21063 186.923 3.03201C187.324 2.85339 187.779 2.76408 188.286 2.76408C189.001 2.76408 189.562 2.92077 189.969 3.23414C190.38 3.54751 190.671 3.96115 190.843 4.47508ZM197.759 4.47508L196.763 4.75711C196.7 4.59103 196.608 4.42964 196.485 4.27296C196.366 4.11314 196.203 3.98152 195.996 3.87811C195.79 3.7747 195.525 3.72299 195.202 3.72299C194.76 3.72299 194.392 3.82484 194.097 4.02853C193.806 4.22908 193.66 4.48448 193.66 4.79472C193.66 5.07048 193.761 5.28827 193.961 5.44809C194.162 5.60791 194.475 5.74109 194.901 5.84764L195.973 6.11087C196.618 6.26755 197.1 6.50728 197.416 6.83005C197.733 7.14969 197.891 7.56177 197.891 8.06629C197.891 8.47994 197.772 8.84972 197.534 9.17562C197.298 9.50153 196.969 9.75849 196.546 9.94651C196.123 10.1345 195.631 10.2285 195.07 10.2285C194.334 10.2285 193.725 10.0687 193.242 9.74909C192.759 9.42945 192.454 8.96253 192.325 8.34833L193.378 8.0851C193.479 8.47367 193.668 8.76511 193.947 8.9594C194.229 9.15369 194.597 9.25083 195.052 9.25083C195.569 9.25083 195.979 9.14115 196.283 8.92179C196.59 8.6993 196.744 8.43294 196.744 8.1227C196.744 7.872 196.656 7.66205 196.481 7.49283C196.305 7.32047 196.036 7.19199 195.672 7.10738L194.469 6.82535C193.808 6.66867 193.322 6.4258 193.012 6.09677C192.704 5.76459 192.551 5.34938 192.551 4.85112C192.551 4.44374 192.665 4.08337 192.894 3.77C193.126 3.45663 193.441 3.21063 193.839 3.03201C194.24 2.85339 194.694 2.76408 195.202 2.76408C195.917 2.76408 196.477 2.92077 196.885 3.23414C197.295 3.54751 197.587 3.96115 197.759 4.47508ZM200.369 10.1533C200.137 10.1533 199.938 10.0703 199.772 9.9042C199.606 9.73812 199.523 9.53913 199.523 9.30724C199.523 9.07534 199.606 8.87635 199.772 8.71027C199.938 8.54418 200.137 8.46114 200.369 8.46114C200.601 8.46114 200.8 8.54418 200.966 8.71027C201.132 8.87635 201.215 9.07534 201.215 9.30724C201.215 9.46079 201.176 9.6018 201.098 9.73028C201.022 9.85877 200.921 9.96218 200.792 10.0405C200.667 10.1157 200.526 10.1533 200.369 10.1533ZM0.488 28.0781V18.4514H6.29787V19.4855H1.65373V22.7383H5.99703V23.7724H1.65373V27.044H6.37308V28.0781H0.488ZM9.07589 20.8581L10.8057 23.81L12.5355 20.8581H13.814L11.4826 24.4681L13.814 28.0781H12.5355L10.8057 25.2766L9.07589 28.0781H7.79734L10.0912 24.4681L7.79734 20.8581H9.07589ZM15.3969 30.7856V20.8581H16.4687V22.005H16.6003C16.6818 21.8797 16.7946 21.7199 16.9387 21.5256C17.086 21.3281 17.296 21.1527 17.5686 20.9991C17.8444 20.8424 18.2173 20.7641 18.6873 20.7641C19.2953 20.7641 19.8311 20.9161 20.2949 21.22C20.7587 21.524 21.1206 21.9549 21.3807 22.5127C21.6408 23.0705 21.7709 23.7286 21.7709 24.4869C21.7709 25.2515 21.6408 25.9143 21.3807 26.4752C21.1206 27.033 20.7603 27.4655 20.2996 27.7726C19.839 28.0766 19.3078 28.2285 18.7061 28.2285C18.2423 28.2285 17.871 28.1518 17.5921 27.9982C17.3132 27.8415 17.0985 27.6645 16.9481 27.4671C16.7977 27.2665 16.6818 27.1004 16.6003 26.9688H16.5063V30.7856H15.3969ZM16.4875 24.4681C16.4875 25.0134 16.5674 25.4944 16.7272 25.9112C16.887 26.3248 17.1205 26.6492 17.4276 26.8842C17.7347 27.1161 18.1107 27.232 18.5557 27.232C19.0195 27.232 19.4065 27.1098 19.7167 26.8654C20.0301 26.6178 20.2651 26.2857 20.4218 25.8689C20.5816 25.449 20.6615 24.982 20.6615 24.4681C20.6615 23.9605 20.5832 23.5029 20.4265 23.0956C20.273 22.685 20.0395 22.3607 19.7261 22.1225C19.4159 21.8812 19.0258 21.7606 18.5557 21.7606C18.1045 21.7606 17.7253 21.875 17.4182 22.1037C17.1111 22.3294 16.8792 22.6459 16.7225 23.0532C16.5658 23.4575 16.4875 23.9291 16.4875 24.4681ZM24.5724 18.4514V28.0781H23.4631V18.4514H24.5724ZM29.5373 28.2285C28.8855 28.2285 28.3136 28.0734 27.8216 27.7632C27.3328 27.453 26.9505 27.0189 26.6747 26.4611C26.4021 25.9033 26.2658 25.2515 26.2658 24.5057C26.2658 23.7536 26.4021 23.0971 26.6747 22.5362C26.9505 21.9753 27.3328 21.5397 27.8216 21.2294C28.3136 20.9192 28.8855 20.7641 29.5373 20.7641C30.1892 20.7641 30.7595 20.9192 31.2483 21.2294C31.7403 21.5397 32.1226 21.9753 32.3953 22.5362C32.671 23.0971 32.8089 23.7536 32.8089 24.5057C32.8089 25.2515 32.671 25.9033 32.3953 26.4611C32.1226 27.0189 31.7403 27.453 31.2483 27.7632C30.7595 28.0734 30.1892 28.2285 29.5373 28.2285ZM29.5373 27.232C30.0325 27.232 30.4398 27.1051 30.7595 26.8513C31.0791 26.5975 31.3157 26.2637 31.4693 25.8501C31.6228 25.4364 31.6996 24.9883 31.6996 24.5057C31.6996 24.0231 31.6228 23.5734 31.4693 23.1567C31.3157 22.7399 31.0791 22.403 30.7595 22.146C30.4398 21.8891 30.0325 21.7606 29.5373 21.7606C29.0422 21.7606 28.6348 21.8891 28.3152 22.146C27.9956 22.403 27.759 22.7399 27.6054 23.1567C27.4519 23.5734 27.3751 24.0231 27.3751 24.5057C27.3751 24.9883 27.4519 25.4364 27.6054 25.8501C27.759 26.2637 27.9956 26.5975 28.3152 26.8513C28.6348 27.1051 29.0422 27.232 29.5373 27.232ZM34.5023 28.0781V20.8581H35.574V21.9486H35.6492C35.7808 21.5914 36.019 21.3015 36.3637 21.079C36.7084 20.8565 37.097 20.7453 37.5294 20.7453C37.6109 20.7453 37.7128 20.7468 37.835 20.75C37.9572 20.7531 38.0496 20.7578 38.1123 20.7641V21.8922C38.0747 21.8828 37.9885 21.8687 37.8538 21.8499C37.7222 21.828 37.5827 21.817 37.4354 21.817C37.0845 21.817 36.7711 21.8906 36.4953 22.0379C36.2227 22.1821 36.0065 22.3826 35.8466 22.6396C35.69 22.8934 35.6116 23.1833 35.6116 23.5092V28.0781H34.5023ZM42.2347 28.2285C41.539 28.2285 40.9389 28.075 40.4344 27.7679C39.933 27.4577 39.546 27.0252 39.2733 26.4705C39.0038 25.9127 38.8691 25.2641 38.8691 24.5245C38.8691 23.785 39.0038 23.1332 39.2733 22.5691C39.546 22.0019 39.9251 21.56 40.4109 21.2435C40.8997 20.9239 41.4701 20.7641 42.1219 20.7641C42.4979 20.7641 42.8693 20.8268 43.2359 20.9521C43.6025 21.0775 43.9363 21.2811 44.2371 21.5632C44.5379 21.8421 44.7777 22.2118 44.9563 22.6725C45.1349 23.1332 45.2242 23.7004 45.2242 24.3741V24.8442H39.6588V23.8852H44.0961C44.0961 23.4779 44.0146 23.1144 43.8517 22.7947C43.6918 22.4751 43.4631 22.2228 43.1654 22.0379C42.8708 21.853 42.523 21.7606 42.1219 21.7606C41.68 21.7606 41.2977 21.8703 40.9749 22.0896C40.6553 22.3059 40.4093 22.5879 40.237 22.9357C40.0646 23.2836 39.9784 23.6565 39.9784 24.0545V24.6937C39.9784 25.239 40.0724 25.7012 40.2605 26.0804C40.4516 26.4564 40.7164 26.7432 41.0548 26.9406C41.3933 27.1349 41.7866 27.232 42.2347 27.232C42.5261 27.232 42.7893 27.1913 43.0244 27.1098C43.2625 27.0252 43.4678 26.8999 43.6401 26.7338C43.8125 26.5646 43.9457 26.3546 44.0397 26.1039L45.1114 26.4047C44.9986 26.7682 44.809 27.0879 44.5426 27.3636C44.2763 27.6363 43.9472 27.8494 43.5555 28.0029C43.1638 28.1533 42.7235 28.2285 42.2347 28.2285ZM53.5677 28.2285C52.9159 28.2285 52.344 28.0734 51.852 27.7632C51.3631 27.453 50.9808 27.0189 50.7051 26.4611C50.4324 25.9033 50.2961 25.2515 50.2961 24.5057C50.2961 23.7536 50.4324 23.0971 50.7051 22.5362C50.9808 21.9753 51.3631 21.5397 51.852 21.2294C52.344 20.9192 52.9159 20.7641 53.5677 20.7641C54.2195 20.7641 54.7898 20.9192 55.2787 21.2294C55.7707 21.5397 56.153 21.9753 56.4256 22.5362C56.7014 23.0971 56.8393 23.7536 56.8393 24.5057C56.8393 25.2515 56.7014 25.9033 56.4256 26.4611C56.153 27.0189 55.7707 27.453 55.2787 27.7632C54.7898 28.0734 54.2195 28.2285 53.5677 28.2285ZM53.5677 27.232C54.0628 27.232 54.4702 27.1051 54.7898 26.8513C55.1095 26.5975 55.3461 26.2637 55.4996 25.8501C55.6532 25.4364 55.7299 24.9883 55.7299 24.5057C55.7299 24.0231 55.6532 23.5734 55.4996 23.1567C55.3461 22.7399 55.1095 22.403 54.7898 22.146C54.4702 21.8891 54.0628 21.7606 53.5677 21.7606C53.0726 21.7606 52.6652 21.8891 52.3455 22.146C52.0259 22.403 51.7893 22.7399 51.6358 23.1567C51.4822 23.5734 51.4054 24.0231 51.4054 24.5057C51.4054 24.9883 51.4822 25.4364 51.6358 25.8501C51.7893 26.2637 52.0259 26.5975 52.3455 26.8513C52.6652 27.1051 53.0726 27.232 53.5677 27.232ZM63.0828 25.1262V20.8581H64.1921V28.0781H63.0828V26.856H63.0075C62.8383 27.2226 62.5751 27.5344 62.2179 27.7914C61.8606 28.0452 61.4094 28.1721 60.8641 28.1721C60.4128 28.1721 60.0117 28.0734 59.6608 27.876C59.3098 27.6754 59.034 27.3746 58.8335 26.9735C58.6329 26.5693 58.5326 26.06 58.5326 25.4458V20.8581H59.642V25.3706C59.642 25.8971 59.7892 26.317 60.0838 26.6304C60.3815 26.9437 60.7607 27.1004 61.2213 27.1004C61.4971 27.1004 61.7776 27.0299 62.0627 26.8889C62.351 26.7479 62.5923 26.5316 62.7866 26.2402C62.984 25.9488 63.0828 25.5774 63.0828 25.1262ZM66.2239 28.0781V20.8581H67.2956V21.9486H67.3708C67.5024 21.5914 67.7406 21.3015 68.0853 21.079C68.43 20.8565 68.8186 20.7453 69.251 20.7453C69.3325 20.7453 69.4344 20.7468 69.5566 20.75C69.6788 20.7531 69.7712 20.7578 69.8339 20.7641V21.8922C69.7963 21.8828 69.7101 21.8687 69.5754 21.8499C69.4438 21.828 69.3043 21.817 69.157 21.817C68.8061 21.817 68.4927 21.8906 68.2169 22.0379C67.9443 22.1821 67.7281 22.3826 67.5682 22.6396C67.4116 22.8934 67.3332 23.1833 67.3332 23.5092V28.0781H66.2239ZM74.8717 30.7856V20.8581H75.9434V22.005H76.0751C76.1565 21.8797 76.2693 21.7199 76.4135 21.5256C76.5608 21.3281 76.7707 21.1527 77.0434 20.9991C77.3191 20.8424 77.692 20.7641 78.1621 20.7641C78.77 20.7641 79.3059 20.9161 79.7697 21.22C80.2335 21.524 80.5954 21.9549 80.8555 22.5127C81.1156 23.0705 81.2457 23.7286 81.2457 24.4869C81.2457 25.2515 81.1156 25.9143 80.8555 26.4752C80.5954 27.033 80.235 27.4655 79.7744 27.7726C79.3137 28.0766 78.7826 28.2285 78.1809 28.2285C77.7171 28.2285 77.3458 28.1518 77.0669 27.9982C76.788 27.8415 76.5733 27.6645 76.4229 27.4671C76.2725 27.2665 76.1565 27.1004 76.0751 26.9688H75.981V30.7856H74.8717ZM75.9622 24.4681C75.9622 25.0134 76.0422 25.4944 76.202 25.9112C76.3618 26.3248 76.5952 26.6492 76.9024 26.8842C77.2095 27.1161 77.5855 27.232 78.0305 27.232C78.4943 27.232 78.8813 27.1098 79.1915 26.8654C79.5049 26.6178 79.7399 26.2857 79.8966 25.8689C80.0564 25.449 80.1363 24.982 80.1363 24.4681C80.1363 23.9605 80.058 23.5029 79.9013 23.0956C79.7477 22.685 79.5143 22.3607 79.2009 22.1225C78.8907 21.8812 78.5005 21.7606 78.0305 21.7606C77.5792 21.7606 77.2001 21.875 76.8929 22.1037C76.5858 22.3294 76.354 22.6459 76.1973 23.0532C76.0406 23.4575 75.9622 23.9291 75.9622 24.4681ZM82.9378 28.0781V20.8581H84.0096V21.9486H84.0848C84.2164 21.5914 84.4545 21.3015 84.7993 21.079C85.144 20.8565 85.5325 20.7453 85.965 20.7453C86.0465 20.7453 86.1483 20.7468 86.2705 20.75C86.3927 20.7531 86.4852 20.7578 86.5479 20.7641V21.8922C86.5103 21.8828 86.4241 21.8687 86.2893 21.8499C86.1577 21.828 86.0183 21.817 85.871 21.817C85.52 21.817 85.2066 21.8906 84.9309 22.0379C84.6582 22.1821 84.442 22.3826 84.2822 22.6396C84.1255 22.8934 84.0472 23.1833 84.0472 23.5092V28.0781H82.9378ZM90.5762 28.2285C89.9244 28.2285 89.3525 28.0734 88.8605 27.7632C88.3717 27.453 87.9894 27.0189 87.7136 26.4611C87.441 25.9033 87.3046 25.2515 87.3046 24.5057C87.3046 23.7536 87.441 23.0971 87.7136 22.5362C87.9894 21.9753 88.3717 21.5397 88.8605 21.2294C89.3525 20.9192 89.9244 20.7641 90.5762 20.7641C91.228 20.7641 91.7984 20.9192 92.2872 21.2294C92.7792 21.5397 93.1615 21.9753 93.4342 22.5362C93.7099 23.0971 93.8478 23.7536 93.8478 24.5057C93.8478 25.2515 93.7099 25.9033 93.4342 26.4611C93.1615 27.0189 92.7792 27.453 92.2872 27.7632C91.7984 28.0734 91.228 28.2285 90.5762 28.2285ZM90.5762 27.232C91.0713 27.232 91.4787 27.1051 91.7984 26.8513C92.118 26.5975 92.3546 26.2637 92.5081 25.8501C92.6617 25.4364 92.7385 24.9883 92.7385 24.5057C92.7385 24.0231 92.6617 23.5734 92.5081 23.1567C92.3546 22.7399 92.118 22.403 91.7984 22.146C91.4787 21.8891 91.0713 21.7606 90.5762 21.7606C90.0811 21.7606 89.6737 21.8891 89.3541 22.146C89.0344 22.403 88.7979 22.7399 88.6443 23.1567C88.4908 23.5734 88.414 24.0231 88.414 24.5057C88.414 24.9883 88.4908 25.4364 88.6443 25.8501C88.7979 26.2637 89.0344 26.5975 89.3541 26.8513C89.6737 27.1051 90.0811 27.232 90.5762 27.232ZM98.2675 28.2285C97.6658 28.2285 97.1346 28.0766 96.674 27.7726C96.2133 27.4655 95.853 27.033 95.5929 26.4752C95.3328 25.9143 95.2027 25.2515 95.2027 24.4869C95.2027 23.7286 95.3328 23.0705 95.5929 22.5127C95.853 21.9549 96.2149 21.524 96.6787 21.22C97.1425 20.9161 97.6783 20.7641 98.2863 20.7641C98.7563 20.7641 99.1277 20.8424 99.4003 20.9991C99.6761 21.1527 99.886 21.3281 100.03 21.5256C100.177 21.7199 100.292 21.8797 100.373 22.005H100.467V18.4514H101.577V28.0781H100.505V26.9688H100.373C100.292 27.1004 100.176 27.2665 100.025 27.4671C99.8751 27.6645 99.6604 27.8415 99.3815 27.9982C99.1026 28.1518 98.7313 28.2285 98.2675 28.2285ZM98.4179 27.232C98.8629 27.232 99.2389 27.1161 99.546 26.8842C99.8531 26.6492 100.087 26.3248 100.246 25.9112C100.406 25.4944 100.486 25.0134 100.486 24.4681C100.486 23.9291 100.408 23.4575 100.251 23.0532C100.094 22.6459 99.8625 22.3294 99.5554 22.1037C99.2483 21.875 98.8691 21.7606 98.4179 21.7606C97.9478 21.7606 97.5561 21.8812 97.2428 22.1225C96.9325 22.3607 96.6991 22.685 96.5424 23.0956C96.3888 23.5029 96.3121 23.9605 96.3121 24.4681C96.3121 24.982 96.3904 25.449 96.5471 25.8689C96.7069 26.2857 96.9419 26.6178 97.2522 26.8654C97.5655 27.1098 97.9541 27.232 98.4179 27.232ZM108.313 25.1262V20.8581H109.422V28.0781H108.313V26.856H108.237C108.068 27.2226 107.805 27.5344 107.448 27.7914C107.09 28.0452 106.639 28.1721 106.094 28.1721C105.643 28.1721 105.242 28.0734 104.891 27.876C104.54 27.6754 104.264 27.3746 104.063 26.9735C103.863 26.5693 103.762 26.06 103.762 25.4458V20.8581H104.872V25.3706C104.872 25.8971 105.019 26.317 105.314 26.6304C105.611 26.9437 105.99 27.1004 106.451 27.1004C106.727 27.1004 107.007 27.0299 107.293 26.8889C107.581 26.7479 107.822 26.5316 108.016 26.2402C108.214 25.9488 108.313 25.5774 108.313 25.1262ZM114.387 28.2285C113.71 28.2285 113.127 28.0687 112.638 27.7491C112.149 27.4295 111.773 26.9892 111.51 26.4282C111.247 25.8673 111.115 25.2265 111.115 24.5057C111.115 23.7724 111.25 23.1253 111.519 22.5644C111.792 22.0003 112.171 21.56 112.657 21.2435C113.146 20.9239 113.716 20.7641 114.368 20.7641C114.876 20.7641 115.333 20.8581 115.741 21.0461C116.148 21.2341 116.482 21.4974 116.742 21.8358C117.002 22.1742 117.163 22.5691 117.226 23.0203H116.117C116.032 22.6913 115.844 22.3999 115.553 22.146C115.264 21.8891 114.876 21.7606 114.387 21.7606C113.954 21.7606 113.575 21.8734 113.249 22.099C112.927 22.3215 112.674 22.6365 112.492 23.0438C112.314 23.4481 112.225 23.9228 112.225 24.4681C112.225 25.0259 112.312 25.5116 112.488 25.9253C112.666 26.3389 112.917 26.6601 113.24 26.8889C113.566 27.1176 113.948 27.232 114.387 27.232C114.675 27.232 114.937 27.1819 115.172 27.0816C115.407 26.9813 115.606 26.8372 115.769 26.6492C115.932 26.4611 116.048 26.2355 116.117 25.9723H117.226C117.163 26.3985 117.008 26.7823 116.761 27.1239C116.516 27.4624 116.192 27.7319 115.788 27.9324C115.386 28.1298 114.92 28.2285 114.387 28.2285ZM121.988 20.8581V21.7982H118.246V20.8581H121.988ZM119.336 19.1283H120.446V26.0099C120.446 26.3233 120.491 26.5583 120.582 26.715C120.676 26.8685 120.795 26.9719 120.939 27.0252C121.087 27.0753 121.242 27.1004 121.405 27.1004C121.527 27.1004 121.627 27.0941 121.706 27.0816C121.784 27.0659 121.847 27.0534 121.894 27.044L122.119 28.0405C122.044 28.0687 121.939 28.0969 121.804 28.1251C121.67 28.1565 121.499 28.1721 121.292 28.1721C120.979 28.1721 120.671 28.1048 120.371 27.97C120.073 27.8353 119.825 27.63 119.628 27.3542C119.434 27.0785 119.336 26.7306 119.336 26.3107V19.1283ZM128.641 22.4751L127.645 22.7571C127.582 22.591 127.49 22.4296 127.367 22.273C127.248 22.1131 127.085 21.9815 126.878 21.8781C126.672 21.7747 126.407 21.723 126.084 21.723C125.642 21.723 125.274 21.8248 124.979 22.0285C124.688 22.2291 124.542 22.4845 124.542 22.7947C124.542 23.0705 124.643 23.2883 124.843 23.4481C125.044 23.6079 125.357 23.7411 125.783 23.8476L126.855 24.1109C127.501 24.2676 127.982 24.5073 128.298 24.8301C128.615 25.1497 128.773 25.5618 128.773 26.0663C128.773 26.4799 128.654 26.8497 128.416 27.1756C128.181 27.5015 127.852 27.7585 127.428 27.9465C127.005 28.1345 126.513 28.2285 125.952 28.2285C125.216 28.2285 124.607 28.0687 124.124 27.7491C123.641 27.4295 123.336 26.9625 123.207 26.3483L124.26 26.0851C124.361 26.4737 124.55 26.7651 124.829 26.9594C125.111 27.1537 125.479 27.2508 125.934 27.2508C126.451 27.2508 126.861 27.1412 127.165 26.9218C127.472 26.6993 127.626 26.4329 127.626 26.1227C127.626 25.872 127.538 25.662 127.363 25.4928C127.187 25.3205 126.918 25.192 126.554 25.1074L125.351 24.8254C124.69 24.6687 124.204 24.4258 123.894 24.0968C123.587 23.7646 123.433 23.3494 123.433 22.8511C123.433 22.4437 123.547 22.0834 123.776 21.77C124.008 21.4566 124.323 21.2106 124.721 21.032C125.122 20.8534 125.576 20.7641 126.084 20.7641C126.799 20.7641 127.36 20.9208 127.767 21.2341C128.177 21.5475 128.469 21.9612 128.641 22.4751ZM134.166 28.0781V20.8581H135.275V28.0781H134.166ZM134.73 19.6548C134.513 19.6548 134.327 19.5811 134.17 19.4338C134.017 19.2865 133.94 19.1095 133.94 18.9027C133.94 18.6958 134.017 18.5188 134.17 18.3715C134.327 18.2242 134.513 18.1506 134.73 18.1506C134.946 18.1506 135.131 18.2242 135.284 18.3715C135.441 18.5188 135.519 18.6958 135.519 18.9027C135.519 19.1095 135.441 19.2865 135.284 19.4338C135.131 19.5811 134.946 19.6548 134.73 19.6548ZM138.416 23.7348V28.0781H137.307V20.8581H138.378V21.9862H138.472C138.642 21.6196 138.899 21.325 139.243 21.1025C139.588 20.8769 140.033 20.7641 140.578 20.7641C141.067 20.7641 141.495 20.8644 141.861 21.0649C142.228 21.2623 142.513 21.5632 142.717 21.9674C142.921 22.3685 143.023 22.8762 143.023 23.4904V28.0781H141.913V23.5656C141.913 22.9984 141.766 22.5566 141.471 22.2401C141.177 21.9204 140.773 21.7606 140.259 21.7606C139.904 21.7606 139.588 21.8374 139.309 21.9909C139.033 22.1445 138.816 22.3685 138.656 22.6631C138.496 22.9577 138.416 23.3149 138.416 23.7348ZM150.897 28.2473C150.44 28.2473 150.024 28.1612 149.651 27.9888C149.279 27.8133 148.982 27.5611 148.763 27.232C148.544 26.8999 148.434 26.4987 148.434 26.0287C148.434 25.615 148.515 25.2797 148.678 25.0228C148.841 24.7627 149.059 24.559 149.332 24.4117C149.604 24.2644 149.905 24.1547 150.234 24.0827C150.566 24.0075 150.9 23.9479 151.236 23.904C151.674 23.8476 152.03 23.8053 152.303 23.7771C152.578 23.7458 152.779 23.6941 152.904 23.622C153.033 23.5499 153.097 23.4246 153.097 23.246V23.2084C153.097 22.7446 152.97 22.3842 152.716 22.1272C152.466 21.8703 152.085 21.7418 151.574 21.7418C151.044 21.7418 150.629 21.8577 150.328 22.0896C150.027 22.3215 149.816 22.5691 149.694 22.8323L148.641 22.4563C148.829 22.0176 149.08 21.676 149.393 21.4316C149.709 21.184 150.054 21.0116 150.427 20.9145C150.803 20.8142 151.173 20.7641 151.536 20.7641C151.768 20.7641 152.035 20.7923 152.335 20.8487C152.639 20.902 152.932 21.0132 153.214 21.1824C153.5 21.3517 153.736 21.607 153.924 21.9486C154.112 22.2902 154.206 22.7477 154.206 23.3212V28.0781H153.097V27.1004H153.041C152.965 27.2571 152.84 27.4247 152.664 27.6034C152.489 27.782 152.256 27.934 151.964 28.0593C151.673 28.1847 151.317 28.2473 150.897 28.2473ZM151.066 27.2508C151.505 27.2508 151.875 27.1647 152.176 26.9923C152.48 26.8199 152.708 26.5975 152.862 26.3248C153.019 26.0522 153.097 25.7655 153.097 25.4646V24.4493C153.05 24.5057 152.947 24.5574 152.787 24.6044C152.63 24.6483 152.448 24.6875 152.241 24.7219C152.038 24.7533 151.839 24.7815 151.644 24.8065C151.453 24.8285 151.298 24.8473 151.179 24.863C150.891 24.9006 150.621 24.9617 150.371 25.0463C150.123 25.1278 149.923 25.2515 149.769 25.4176C149.619 25.5806 149.543 25.8031 149.543 26.0851C149.543 26.4705 149.686 26.762 149.971 26.9594C150.259 27.1537 150.624 27.2508 151.066 27.2508ZM157.34 23.7348V28.0781H156.231V20.8581H157.303V21.9862H157.397C157.566 21.6196 157.823 21.325 158.168 21.1025C158.512 20.8769 158.957 20.7641 159.503 20.7641C159.991 20.7641 160.419 20.8644 160.786 21.0649C161.152 21.2623 161.438 21.5632 161.641 21.9674C161.845 22.3685 161.947 22.8762 161.947 23.4904V28.0781H160.838V23.5656C160.838 22.9984 160.69 22.5566 160.396 22.2401C160.101 21.9204 159.697 21.7606 159.183 21.7606C158.829 21.7606 158.512 21.8374 158.233 21.9909C157.958 22.1445 157.74 22.3685 157.58 22.6631C157.42 22.9577 157.34 23.3149 157.34 23.7348ZM2.46223 46.2473C2.00471 46.2473 1.58949 46.1612 1.21658 45.9888C0.843674 45.8133 0.54754 45.5611 0.328181 45.232C0.108823 44.8999 -0.000856403 44.4987 -0.000856403 44.0287C-0.000856403 43.615 0.0806196 43.2797 0.243572 43.0228C0.406524 42.7627 0.624316 42.559 0.896947 42.4117C1.16958 42.2644 1.47041 42.1547 1.79945 42.0827C2.13162 42.0075 2.46536 41.9479 2.80067 41.904C3.23938 41.8476 3.59506 41.8053 3.86769 41.7771C4.14345 41.7458 4.34401 41.6941 4.46936 41.622C4.59784 41.5499 4.66208 41.4246 4.66208 41.246V41.2084C4.66208 40.7446 4.53517 40.3842 4.28134 40.1272C4.03064 39.8703 3.6499 39.7418 3.13911 39.7418C2.60951 39.7418 2.1943 39.8577 1.89346 40.0896C1.59263 40.3215 1.3811 40.5691 1.25889 40.8323L0.205967 40.4563C0.393989 40.0176 0.644685 39.676 0.958054 39.4316C1.27456 39.184 1.61926 39.0116 1.99217 38.9145C2.36822 38.8142 2.73799 38.7641 3.1015 38.7641C3.33339 38.7641 3.59976 38.7923 3.90059 38.8487C4.20456 38.902 4.49756 39.0132 4.77959 39.1824C5.06476 39.3517 5.30135 39.607 5.48938 39.9486C5.6774 40.2902 5.77141 40.7477 5.77141 41.3212V46.0781H4.66208V45.1004H4.60567C4.53047 45.2571 4.40512 45.4247 4.22963 45.6034C4.05414 45.782 3.82068 45.934 3.52925 46.0593C3.23782 46.1847 2.88214 46.2473 2.46223 46.2473ZM2.63145 45.2508C3.07016 45.2508 3.43994 45.1647 3.74077 44.9923C4.04474 44.8199 4.2735 44.5975 4.42705 44.3248C4.58374 44.0522 4.66208 43.7655 4.66208 43.4646V42.4493C4.61508 42.5057 4.51166 42.5574 4.35184 42.6044C4.19516 42.6483 4.01341 42.6875 3.80658 42.7219C3.60289 42.7533 3.4039 42.7815 3.20961 42.8065C3.01846 42.8285 2.86334 42.8473 2.74426 42.863C2.45596 42.9006 2.18646 42.9617 1.93577 43.0463C1.6882 43.1278 1.48765 43.2515 1.3341 43.4176C1.18368 43.5806 1.10847 43.8031 1.10847 44.0851C1.10847 44.4705 1.25105 44.762 1.53622 44.9594C1.82452 45.1537 2.1896 45.2508 2.63145 45.2508ZM8.90549 36.4514V46.0781H7.79617V36.4514H8.90549ZM12.0466 36.4514V46.0781H10.9373V36.4514H12.0466ZM18.2149 41.434V42.4681H14.0032V41.434H18.2149ZM21.2761 41.7348V46.0781H20.1668V38.8581H21.2385V39.9862H21.3325C21.5018 39.6196 21.7587 39.325 22.1034 39.1025C22.4481 38.8769 22.8931 38.7641 23.4384 38.7641C23.9272 38.7641 24.355 38.8644 24.7216 39.0649C25.0883 39.2623 25.3734 39.5632 25.5771 39.9674C25.7808 40.3685 25.8827 40.8762 25.8827 41.4904V46.0781H24.7733V41.5656C24.7733 40.9984 24.6261 40.5566 24.3315 40.2401C24.0369 39.9204 23.6327 39.7606 23.1188 39.7606C22.7646 39.7606 22.4481 39.8374 22.1692 39.9909C21.8935 40.1445 21.6757 40.3685 21.5159 40.6631C21.3561 40.9577 21.2761 41.3149 21.2761 41.7348ZM30.9369 46.2285C30.2413 46.2285 29.6411 46.075 29.1366 45.7679C28.6352 45.4577 28.2482 45.0252 27.9756 44.4705C27.7061 43.9127 27.5713 43.2641 27.5713 42.5245C27.5713 41.785 27.7061 41.1332 27.9756 40.5691C28.2482 40.0019 28.6274 39.56 29.1131 39.2435C29.602 38.9239 30.1723 38.7641 30.8241 38.7641C31.2002 38.7641 31.5715 38.8268 31.9381 38.9521C32.3048 39.0775 32.6385 39.2811 32.9394 39.5632C33.2402 39.8421 33.4799 40.2118 33.6585 40.6725C33.8372 41.1332 33.9265 41.7004 33.9265 42.3741V42.8442H28.361V41.8852H32.7983C32.7983 41.4779 32.7169 41.1144 32.5539 40.7947C32.3941 40.4751 32.1653 40.2228 31.8676 40.0379C31.5731 39.853 31.2252 39.7606 30.8241 39.7606C30.3823 39.7606 30 39.8703 29.6772 40.0896C29.3576 40.3059 29.1116 40.5879 28.9392 40.9357C28.7668 41.2836 28.6807 41.6565 28.6807 42.0545V42.6937C28.6807 43.239 28.7747 43.7012 28.9627 44.0804C29.1539 44.4564 29.4187 44.7432 29.7571 44.9406C30.0955 45.1349 30.4888 45.232 30.9369 45.232C31.2284 45.232 31.4916 45.1913 31.7266 45.1098C31.9648 45.0252 32.17 44.8999 32.3424 44.7338C32.5147 44.5646 32.6479 44.3546 32.7419 44.1039L33.8137 44.4047C33.7009 44.7682 33.5113 45.0879 33.2449 45.3636C32.9785 45.6363 32.6495 45.8494 32.2578 46.0029C31.8661 46.1533 31.4258 46.2285 30.9369 46.2285ZM37.2498 46.0781L35.0499 38.8581H36.2156L37.7762 44.3859H37.8514L39.3932 38.8581H40.5777L42.1007 44.3671H42.1759L43.7365 38.8581H44.9022L42.7024 46.0781H41.6119L40.0325 40.5315H39.9197L38.3403 46.0781H37.2498ZM52.818 46.2285C52.2163 46.2285 51.6851 46.0766 51.2245 45.7726C50.7638 45.4655 50.4034 45.033 50.1433 44.4752C49.8832 43.9143 49.7532 43.2515 49.7532 42.4869C49.7532 41.7286 49.8832 41.0705 50.1433 40.5127C50.4034 39.9549 50.7654 39.524 51.2292 39.22C51.693 38.9161 52.2288 38.7641 52.8368 38.7641C53.3068 38.7641 53.6782 38.8424 53.9508 38.9991C54.2265 39.1527 54.4365 39.3281 54.5807 39.5256C54.7279 39.7199 54.8423 39.8797 54.9238 40.005H55.0178V36.4514H56.1271V46.0781H55.0554V44.9688H54.9238C54.8423 45.1004 54.7264 45.2665 54.576 45.4671C54.4255 45.6645 54.2109 45.8415 53.932 45.9982C53.6531 46.1518 53.2817 46.2285 52.818 46.2285ZM52.9684 45.232C53.4134 45.232 53.7894 45.1161 54.0965 44.8842C54.4036 44.6492 54.6371 44.3248 54.7969 43.9112C54.9567 43.4944 55.0366 43.0134 55.0366 42.4681C55.0366 41.9291 54.9583 41.4575 54.8016 41.0532C54.6449 40.6459 54.413 40.3294 54.1059 40.1037C53.7988 39.875 53.4196 39.7606 52.9684 39.7606C52.4983 39.7606 52.1066 39.8812 51.7932 40.1225C51.483 40.3607 51.2495 40.685 51.0929 41.0956C50.9393 41.5029 50.8625 41.9605 50.8625 42.4681C50.8625 42.982 50.9409 43.449 51.0976 43.8689C51.2574 44.2857 51.4924 44.6178 51.8026 44.8654C52.116 45.1098 52.5046 45.232 52.9684 45.232ZM58.3129 46.0781V38.8581H59.4222V46.0781H58.3129ZM58.8769 37.6548C58.6607 37.6548 58.4743 37.5811 58.3176 37.4338C58.164 37.2865 58.0873 37.1095 58.0873 36.9027C58.0873 36.6958 58.164 36.5188 58.3176 36.3715C58.4743 36.2242 58.6607 36.1506 58.8769 36.1506C59.0932 36.1506 59.2781 36.2242 59.4316 36.3715C59.5883 36.5188 59.6666 36.6958 59.6666 36.9027C59.6666 37.1095 59.5883 37.2865 59.4316 37.4338C59.2781 37.5811 59.0932 37.6548 58.8769 37.6548ZM64.3684 48.9361C63.8325 48.9361 63.3718 48.8671 62.9864 48.7292C62.601 48.5945 62.2797 48.4159 62.0228 48.1934C61.769 47.974 61.5668 47.739 61.4164 47.4883L62.3001 46.8678C62.4004 46.9994 62.5273 47.1498 62.6809 47.3191C62.8344 47.4914 63.0444 47.6403 63.3107 47.7656C63.5802 47.8941 63.9328 47.9583 64.3684 47.9583C64.9512 47.9583 65.4322 47.8173 65.8114 47.5353C66.1906 47.2533 66.3802 46.8114 66.3802 46.2097V44.7432H66.2862C66.2047 44.8748 66.0888 45.0377 65.9383 45.232C65.7911 45.4232 65.578 45.594 65.2991 45.7444C65.0233 45.8917 64.6504 45.9653 64.1803 45.9653C63.5975 45.9653 63.0741 45.8274 62.6104 45.5517C62.1497 45.2759 61.7846 44.8748 61.5151 44.3483C61.2488 43.8219 61.1156 43.1826 61.1156 42.4305C61.1156 41.691 61.2456 41.047 61.5057 40.4986C61.7658 39.9471 62.1278 39.5209 62.5915 39.22C63.0553 38.9161 63.5912 38.7641 64.1991 38.7641C64.6692 38.7641 65.0421 38.8424 65.3179 38.9991C65.5968 39.1527 65.8099 39.3281 65.9571 39.5256C66.1076 39.7199 66.2235 39.8797 66.305 40.005H66.4178V38.8581H67.4895V46.2849C67.4895 46.9054 67.3485 47.4099 67.0665 47.7985C66.7876 48.1902 66.4115 48.477 65.9383 48.6587C65.4683 48.8436 64.945 48.9361 64.3684 48.9361ZM64.3307 44.9688C64.7757 44.9688 65.1518 44.867 65.4589 44.6633C65.766 44.4596 65.9994 44.1666 66.1593 43.7843C66.3191 43.402 66.399 42.9444 66.399 42.4117C66.399 41.8915 66.3206 41.4324 66.164 41.0344C66.0073 40.6365 65.7754 40.3247 65.4683 40.099C65.1612 39.8734 64.782 39.7606 64.3307 39.7606C63.8607 39.7606 63.469 39.8797 63.1556 40.1178C62.8454 40.356 62.6119 40.6756 62.4552 41.0767C62.3017 41.4779 62.2249 41.9228 62.2249 42.4117C62.2249 42.9131 62.3032 43.3565 62.4599 43.742C62.6198 44.1243 62.8548 44.4251 63.165 44.6445C63.4784 44.8607 63.867 44.9688 64.3307 44.9688ZM69.5201 46.0781V38.8581H70.6295V46.0781H69.5201ZM70.0842 37.6548C69.868 37.6548 69.6815 37.5811 69.5248 37.4338C69.3713 37.2865 69.2945 37.1095 69.2945 36.9027C69.2945 36.6958 69.3713 36.5188 69.5248 36.3715C69.6815 36.2242 69.868 36.1506 70.0842 36.1506C70.3004 36.1506 70.4853 36.2242 70.6389 36.3715C70.7956 36.5188 70.8739 36.6958 70.8739 36.9027C70.8739 37.1095 70.7956 37.2865 70.6389 37.4338C70.4853 37.5811 70.3004 37.6548 70.0842 37.6548ZM75.8012 38.8581V39.7982H72.0596V38.8581H75.8012ZM73.1501 37.1283H74.2595V44.0099C74.2595 44.3233 74.3049 44.5583 74.3958 44.715C74.4898 44.8685 74.6089 44.9719 74.753 45.0252C74.9003 45.0753 75.0554 45.1004 75.2184 45.1004C75.3406 45.1004 75.4409 45.0941 75.5192 45.0816C75.5976 45.0659 75.6602 45.0534 75.7072 45.044L75.9329 46.0405C75.8577 46.0687 75.7527 46.0969 75.6179 46.1251C75.4832 46.1565 75.3124 46.1721 75.1056 46.1721C74.7922 46.1721 74.4851 46.1048 74.1843 45.97C73.8866 45.8353 73.639 45.63 73.4416 45.3542C73.2473 45.0785 73.1501 44.7306 73.1501 44.3107V37.1283ZM79.5946 46.2473C79.1371 46.2473 78.7218 46.1612 78.3489 45.9888C77.976 45.8133 77.6799 45.5611 77.4605 45.232C77.2412 44.8999 77.1315 44.4987 77.1315 44.0287C77.1315 43.615 77.213 43.2797 77.3759 43.0228C77.5389 42.7627 77.7567 42.559 78.0293 42.4117C78.3019 42.2644 78.6028 42.1547 78.9318 42.0827C79.264 42.0075 79.5977 41.9479 79.933 41.904C80.3717 41.8476 80.7274 41.8053 81 41.7771C81.2758 41.7458 81.4764 41.6941 81.6017 41.622C81.7302 41.5499 81.7944 41.4246 81.7944 41.246V41.2084C81.7944 40.7446 81.6675 40.3842 81.4137 40.1272C81.163 39.8703 80.7823 39.7418 80.2715 39.7418C79.7419 39.7418 79.3267 39.8577 79.0258 40.0896C78.725 40.3215 78.5135 40.5691 78.3912 40.8323L77.3383 40.4563C77.5263 40.0176 77.777 39.676 78.0904 39.4316C78.4069 39.184 78.7516 39.0116 79.1245 38.9145C79.5006 38.8142 79.8703 38.7641 80.2339 38.7641C80.4657 38.7641 80.7321 38.7923 81.0329 38.8487C81.3369 38.902 81.6299 39.0132 81.9119 39.1824C82.1971 39.3517 82.4337 39.607 82.6217 39.9486C82.8098 40.2902 82.9038 40.7477 82.9038 41.3212V46.0781H81.7944V45.1004H81.738C81.6628 45.2571 81.5375 45.4247 81.362 45.6034C81.1865 45.782 80.953 45.934 80.6616 46.0593C80.3702 46.1847 80.0145 46.2473 79.5946 46.2473ZM79.7638 45.2508C80.2025 45.2508 80.5723 45.1647 80.8731 44.9923C81.1771 44.8199 81.4059 44.5975 81.5594 44.3248C81.7161 44.0522 81.7944 43.7655 81.7944 43.4646V42.4493C81.7474 42.5057 81.644 42.5574 81.4842 42.6044C81.3275 42.6483 81.1458 42.6875 80.9389 42.7219C80.7352 42.7533 80.5363 42.7815 80.342 42.8065C80.1508 42.8285 79.9957 42.8473 79.8766 42.863C79.5883 42.9006 79.3188 42.9617 79.0681 43.0463C78.8206 43.1278 78.62 43.2515 78.4665 43.4176C78.316 43.5806 78.2408 43.8031 78.2408 44.0851C78.2408 44.4705 78.3834 44.762 78.6686 44.9594C78.9569 45.1537 79.322 45.2508 79.7638 45.2508ZM86.0379 36.4514V46.0781H84.9285V36.4514H86.0379ZM94.8196 46.2285C94.124 46.2285 93.5239 46.075 93.0193 45.7679C92.5179 45.4577 92.1309 45.0252 91.8583 44.4705C91.5888 43.9127 91.454 43.2641 91.454 42.5245C91.454 41.785 91.5888 41.1332 91.8583 40.5691C92.1309 40.0019 92.5101 39.56 92.9958 39.2435C93.4847 38.9239 94.055 38.7641 94.7068 38.7641C95.0829 38.7641 95.4542 38.8268 95.8208 38.9521C96.1875 39.0775 96.5212 39.2811 96.8221 39.5632C97.1229 39.8421 97.3626 40.2118 97.5412 40.6725C97.7199 41.1332 97.8092 41.7004 97.8092 42.3741V42.8442H92.2437V41.8852H96.681C96.681 41.4779 96.5996 41.1144 96.4366 40.7947C96.2768 40.4751 96.048 40.2228 95.7503 40.0379C95.4558 39.853 95.1079 39.7606 94.7068 39.7606C94.265 39.7606 93.8827 39.8703 93.5599 40.0896C93.2403 40.3059 92.9943 40.5879 92.8219 40.9357C92.6496 41.2836 92.5634 41.6565 92.5634 42.0545V42.6937C92.5634 43.239 92.6574 43.7012 92.8454 44.0804C93.0366 44.4564 93.3014 44.7432 93.6398 44.9406C93.9782 45.1349 94.3715 45.232 94.8196 45.232C95.1111 45.232 95.3743 45.1913 95.6093 45.1098C95.8475 45.0252 96.0527 44.8999 96.2251 44.7338C96.3974 44.5646 96.5306 44.3546 96.6246 44.1039L97.6964 44.4047C97.5836 44.7682 97.394 45.0879 97.1276 45.3636C96.8612 45.6363 96.5322 45.8494 96.1405 46.0029C95.7488 46.1533 95.3085 46.2285 94.8196 46.2285ZM100.13 38.8581L101.86 41.81L103.59 38.8581H104.868L102.537 42.4681L104.868 46.0781H103.59L101.86 43.2766L100.13 46.0781H98.8515L101.145 42.4681L98.8515 38.8581H100.13ZM106.451 48.7856V38.8581H107.523V40.005H107.654C107.736 39.8797 107.849 39.7199 107.993 39.5256C108.14 39.3281 108.35 39.1527 108.623 38.9991C108.899 38.8424 109.271 38.7641 109.742 38.7641C110.349 38.7641 110.885 38.9161 111.349 39.22C111.813 39.524 112.175 39.9549 112.435 40.5127C112.695 41.0705 112.825 41.7286 112.825 42.4869C112.825 43.2515 112.695 43.9143 112.435 44.4752C112.175 45.033 111.814 45.4655 111.354 45.7726C110.893 46.0766 110.362 46.2285 109.76 46.2285C109.297 46.2285 108.925 46.1518 108.646 45.9982C108.367 45.8415 108.153 45.6645 108.002 45.4671C107.852 45.2665 107.736 45.1004 107.654 44.9688H107.56V48.7856H106.451ZM107.542 42.4681C107.542 43.0134 107.622 43.4944 107.781 43.9112C107.941 44.3248 108.175 44.6492 108.482 44.8842C108.789 45.1161 109.165 45.232 109.61 45.232C110.074 45.232 110.461 45.1098 110.771 44.8654C111.084 44.6178 111.319 44.2857 111.476 43.8689C111.636 43.449 111.716 42.982 111.716 42.4681C111.716 41.9605 111.637 41.5029 111.481 41.0956C111.327 40.685 111.094 40.3607 110.78 40.1225C110.47 39.8812 110.08 39.7606 109.61 39.7606C109.159 39.7606 108.779 39.875 108.472 40.1037C108.165 40.3294 107.933 40.6459 107.777 41.0532C107.62 41.4575 107.542 41.9291 107.542 42.4681ZM117.544 46.2285C116.849 46.2285 116.249 46.075 115.744 45.7679C115.243 45.4577 114.856 45.0252 114.583 44.4705C114.314 43.9127 114.179 43.2641 114.179 42.5245C114.179 41.785 114.314 41.1332 114.583 40.5691C114.856 40.0019 115.235 39.56 115.721 39.2435C116.209 38.9239 116.78 38.7641 117.432 38.7641C117.808 38.7641 118.179 38.8268 118.546 38.9521C118.912 39.0775 119.246 39.2811 119.547 39.5632C119.848 39.8421 120.087 40.2118 120.266 40.6725C120.445 41.1332 120.534 41.7004 120.534 42.3741V42.8442H114.969V41.8852H119.406C119.406 41.4779 119.324 41.1144 119.161 40.7947C119.002 40.4751 118.773 40.2228 118.475 40.0379C118.181 39.853 117.833 39.7606 117.432 39.7606C116.99 39.7606 116.607 39.8703 116.285 40.0896C115.965 40.3059 115.719 40.5879 115.547 40.9357C115.374 41.2836 115.288 41.6565 115.288 42.0545V42.6937C115.288 43.239 115.382 43.7012 115.57 44.0804C115.761 44.4564 116.026 44.7432 116.365 44.9406C116.703 45.1349 117.096 45.232 117.544 45.232C117.836 45.232 118.099 45.1913 118.334 45.1098C118.572 45.0252 118.778 44.8999 118.95 44.7338C119.122 44.5646 119.255 44.3546 119.349 44.1039L120.421 44.4047C120.308 44.7682 120.119 45.0879 119.852 45.3636C119.586 45.6363 119.257 45.8494 118.865 46.0029C118.474 46.1533 118.033 46.2285 117.544 46.2285ZM122.221 46.0781V38.8581H123.293V39.9486H123.368C123.5 39.5914 123.738 39.3015 124.083 39.079C124.428 38.8565 124.816 38.7453 125.249 38.7453C125.33 38.7453 125.432 38.7468 125.554 38.75C125.676 38.7531 125.769 38.7578 125.831 38.7641V39.8922C125.794 39.8828 125.708 39.8687 125.573 39.8499C125.441 39.828 125.302 39.817 125.155 39.817C124.804 39.817 124.49 39.8906 124.214 40.0379C123.942 40.1821 123.726 40.3826 123.566 40.6396C123.409 40.8934 123.331 41.1833 123.331 41.5092V46.0781H122.221ZM127.146 46.0781V38.8581H128.256V46.0781H127.146ZM127.711 37.6548C127.494 37.6548 127.308 37.5811 127.151 37.4338C126.998 37.2865 126.921 37.1095 126.921 36.9027C126.921 36.6958 126.998 36.5188 127.151 36.3715C127.308 36.2242 127.494 36.1506 127.711 36.1506C127.927 36.1506 128.112 36.2242 128.265 36.3715C128.422 36.5188 128.5 36.6958 128.5 36.9027C128.5 37.1095 128.422 37.2865 128.265 37.4338C128.112 37.5811 127.927 37.6548 127.711 37.6548ZM133.315 46.2285C132.619 46.2285 132.019 46.075 131.514 45.7679C131.013 45.4577 130.626 45.0252 130.353 44.4705C130.084 43.9127 129.949 43.2641 129.949 42.5245C129.949 41.785 130.084 41.1332 130.353 40.5691C130.626 40.0019 131.005 39.56 131.491 39.2435C131.98 38.9239 132.55 38.7641 133.202 38.7641C133.578 38.7641 133.949 38.8268 134.316 38.9521C134.683 39.0775 135.016 39.2811 135.317 39.5632C135.618 39.8421 135.858 40.2118 136.036 40.6725C136.215 41.1332 136.304 41.7004 136.304 42.3741V42.8442H130.739V41.8852H135.176C135.176 41.4779 135.095 41.1144 134.932 40.7947C134.772 40.4751 134.543 40.2228 134.245 40.0379C133.951 39.853 133.603 39.7606 133.202 39.7606C132.76 39.7606 132.378 39.8703 132.055 40.0896C131.735 40.3059 131.489 40.5879 131.317 40.9357C131.145 41.2836 131.058 41.6565 131.058 42.0545V42.6937C131.058 43.239 131.152 43.7012 131.34 44.0804C131.532 44.4564 131.796 44.7432 132.135 44.9406C132.473 45.1349 132.867 45.232 133.315 45.232C133.606 45.232 133.869 45.1913 134.104 45.1098C134.343 45.0252 134.548 44.8999 134.72 44.7338C134.893 44.5646 135.026 44.3546 135.12 44.1039L136.191 44.4047C136.079 44.7682 135.889 45.0879 135.623 45.3636C135.356 45.6363 135.027 45.8494 134.636 46.0029C134.244 46.1533 133.804 46.2285 133.315 46.2285ZM139.101 41.7348V46.0781H137.992V38.8581H139.063V39.9862H139.157C139.327 39.6196 139.584 39.325 139.928 39.1025C140.273 38.8769 140.718 38.7641 141.263 38.7641C141.752 38.7641 142.18 38.8644 142.547 39.0649C142.913 39.2623 143.198 39.5632 143.402 39.9674C143.606 40.3685 143.708 40.8762 143.708 41.4904V46.0781H142.598V41.5656C142.598 40.9984 142.451 40.5566 142.156 40.2401C141.862 39.9204 141.458 39.7606 140.944 39.7606C140.59 39.7606 140.273 39.8374 139.994 39.9909C139.718 40.1445 139.501 40.3685 139.341 40.6631C139.181 40.9577 139.101 41.3149 139.101 41.7348ZM148.668 46.2285C147.991 46.2285 147.408 46.0687 146.919 45.7491C146.43 45.4295 146.054 44.9892 145.791 44.4282C145.528 43.8673 145.396 43.2265 145.396 42.5057C145.396 41.7724 145.531 41.1253 145.801 40.5644C146.073 40.0003 146.452 39.56 146.938 39.2435C147.427 38.9239 147.997 38.7641 148.649 38.7641C149.157 38.7641 149.614 38.8581 150.022 39.0461C150.429 39.2341 150.763 39.4974 151.023 39.8358C151.283 40.1742 151.444 40.5691 151.507 41.0203H150.398C150.313 40.6913 150.125 40.3999 149.834 40.146C149.545 39.8891 149.157 39.7606 148.668 39.7606C148.235 39.7606 147.856 39.8734 147.53 40.099C147.208 40.3215 146.955 40.6365 146.774 41.0438C146.595 41.4481 146.506 41.9228 146.506 42.4681C146.506 43.0259 146.593 43.5116 146.769 43.9253C146.947 44.3389 147.198 44.6601 147.521 44.8889C147.847 45.1176 148.229 45.232 148.668 45.232C148.956 45.232 149.218 45.1819 149.453 45.0816C149.688 44.9813 149.887 44.8372 150.05 44.6492C150.213 44.4611 150.329 44.2355 150.398 43.9723H151.507C151.444 44.3985 151.289 44.7823 151.042 45.1239C150.797 45.4624 150.473 45.7319 150.069 45.9324C149.668 46.1298 149.201 46.2285 148.668 46.2285ZM156.156 46.2285C155.46 46.2285 154.86 46.075 154.356 45.7679C153.854 45.4577 153.467 45.0252 153.194 44.4705C152.925 43.9127 152.79 43.2641 152.79 42.5245C152.79 41.785 152.925 41.1332 153.194 40.5691C153.467 40.0019 153.846 39.56 154.332 39.2435C154.821 38.9239 155.391 38.7641 156.043 38.7641C156.419 38.7641 156.79 38.8268 157.157 38.9521C157.524 39.0775 157.857 39.2811 158.158 39.5632C158.459 39.8421 158.699 40.2118 158.877 40.6725C159.056 41.1332 159.145 41.7004 159.145 42.3741V42.8442H153.58V41.8852H158.017C158.017 41.4779 157.936 41.1144 157.773 40.7947C157.613 40.4751 157.384 40.2228 157.087 40.0379C156.792 39.853 156.444 39.7606 156.043 39.7606C155.601 39.7606 155.219 39.8703 154.896 40.0896C154.576 40.3059 154.33 40.5879 154.158 40.9357C153.986 41.2836 153.9 41.6565 153.9 42.0545V42.6937C153.9 43.239 153.994 43.7012 154.182 44.0804C154.373 44.4564 154.638 44.7432 154.976 44.9406C155.314 45.1349 155.708 45.232 156.156 45.232C156.447 45.232 156.71 45.1913 156.946 45.1098C157.184 45.0252 157.389 44.8999 157.561 44.7338C157.734 44.5646 157.867 44.3546 157.961 44.1039L159.033 44.4047C158.92 44.7682 158.73 45.0879 158.464 45.3636C158.197 45.6363 157.868 45.8494 157.477 46.0029C157.085 46.1533 156.645 46.2285 156.156 46.2285ZM161.641 46.1533C161.409 46.1533 161.21 46.0703 161.044 45.9042C160.878 45.7381 160.795 45.5391 160.795 45.3072C160.795 45.0753 160.878 44.8764 161.044 44.7103C161.21 44.5442 161.409 44.4611 161.641 44.4611C161.873 44.4611 162.072 44.5442 162.238 44.7103C162.404 44.8764 162.487 45.0753 162.487 45.3072C162.487 45.4608 162.448 45.6018 162.37 45.7303C162.295 45.8588 162.193 45.9622 162.064 46.0405C161.939 46.1157 161.798 46.1533 161.641 46.1533Z" fill="white"/>
</svg>
