<svg width="49" height="6" viewBox="0 0 49 6" fill="none" xmlns="http://www.w3.org/2000/svg">
<path d="M0.377528 5.58594L2.84264 0.709539V0.66648H0.000764652V0.0744228H3.53158V0.698774L1.07723 5.58594H0.377528ZM6.18305 5.66129C5.86729 5.66129 5.58292 5.5985 5.32995 5.47291C5.07698 5.34732 4.87425 5.17509 4.72175 4.9562C4.56925 4.73732 4.48582 4.48794 4.47147 4.20806H5.11735C5.14247 4.45744 5.2555 4.66376 5.45644 4.82703C5.65917 4.9885 5.90138 5.06923 6.18305 5.06923C6.40911 5.06923 6.61005 5.01631 6.78587 4.91045C6.96349 4.8046 7.10254 4.65928 7.20301 4.47448C7.30527 4.2879 7.3564 4.07709 7.3564 3.84206C7.3564 3.60165 7.30348 3.38725 7.19762 3.19887C7.09357 3.00869 6.95004 2.85889 6.76704 2.74945C6.58404 2.64 6.37502 2.58439 6.13999 2.58259C5.97135 2.5808 5.79822 2.60681 5.6206 2.66064C5.44298 2.71267 5.29676 2.77994 5.18194 2.86247L4.55759 2.78712L4.89129 0.0744228H7.7547V0.66648H5.45105L5.25729 2.29195H5.28958C5.40261 2.20224 5.54435 2.12779 5.71479 2.06858C5.88523 2.00937 6.06285 1.97977 6.24764 1.97977C6.58493 1.97977 6.88545 2.06051 7.14918 2.22198C7.41471 2.38165 7.62283 2.60053 7.77353 2.87862C7.92603 3.15671 8.00228 3.47427 8.00228 3.8313C8.00228 4.18294 7.92334 4.49691 7.76546 4.7732C7.60937 5.0477 7.39408 5.26479 7.11958 5.42447C6.84508 5.58235 6.53291 5.66129 6.18305 5.66129ZM10.9336 5.66129C10.5784 5.66129 10.2617 5.60029 9.98366 5.47829C9.70736 5.35629 9.48758 5.18675 9.32432 4.96966C9.16285 4.75078 9.07494 4.49691 9.06059 4.20806H9.73876C9.75311 4.38568 9.81411 4.53907 9.92176 4.66825C10.0294 4.79563 10.1702 4.89431 10.3443 4.96428C10.5183 5.03425 10.7112 5.06923 10.9229 5.06923C11.1597 5.06923 11.3696 5.02797 11.5526 4.94544C11.7356 4.86291 11.8791 4.74809 11.9832 4.60097C12.0873 4.45385 12.1393 4.28341 12.1393 4.08965C12.1393 3.88691 12.089 3.7084 11.9886 3.5541C11.8881 3.39802 11.741 3.27602 11.5472 3.18811C11.3535 3.10019 11.1166 3.05624 10.8368 3.05624H10.3954V2.46418H10.8368C11.0556 2.46418 11.2476 2.42471 11.4127 2.34577C11.5795 2.26683 11.7096 2.15559 11.8029 2.01206C11.898 1.86854 11.9455 1.69989 11.9455 1.50612C11.9455 1.31954 11.9043 1.15717 11.8217 1.01902C11.7392 0.880876 11.6226 0.77323 11.4719 0.696083C11.323 0.618936 11.1471 0.580363 10.9444 0.580363C10.7542 0.580363 10.5748 0.615348 10.4062 0.685318C10.2393 0.753495 10.103 0.853068 9.99711 0.984038C9.89126 1.11321 9.83385 1.2693 9.82488 1.4523H9.179C9.18976 1.16345 9.27678 0.910479 9.44004 0.693392C9.6033 0.47451 9.8168 0.304069 10.0805 0.18207C10.3461 0.06007 10.6376 -0.000929933 10.9552 -0.000929933C11.296 -0.000929933 11.5885 0.0681434 11.8325 0.20629C12.0765 0.342643 12.264 0.522951 12.3949 0.747215C12.5259 0.971479 12.5914 1.21368 12.5914 1.47383C12.5914 1.78421 12.5098 2.04884 12.3465 2.26773C12.185 2.48661 11.9653 2.63821 11.6872 2.72253V2.76559C12.0352 2.823 12.307 2.97102 12.5026 3.20964C12.6981 3.44646 12.7959 3.7398 12.7959 4.08965C12.7959 4.38926 12.7143 4.65838 12.551 4.897C12.3896 5.13382 12.1689 5.32041 11.889 5.45676C11.6091 5.59311 11.2907 5.66129 10.9336 5.66129ZM17.8257 5.66129C17.4203 5.66129 17.0749 5.55095 16.7896 5.33028C16.5044 5.10781 16.2864 4.78576 16.1357 4.36415C15.985 3.94074 15.9096 3.42941 15.9096 2.83018C15.9096 2.23453 15.985 1.7259 16.1357 1.30429C16.2882 0.880877 16.5071 0.557936 16.7923 0.335466C17.0794 0.111202 17.4238 -0.000929933 17.8257 -0.000929933C18.2276 -0.000929933 18.5712 0.111202 18.8564 0.335466C19.1435 0.557936 19.3624 0.880877 19.5131 1.30429C19.6656 1.7259 19.7418 2.23453 19.7418 2.83018C19.7418 3.42941 19.6665 3.94074 19.5158 4.36415C19.3651 4.78576 19.1471 5.10781 18.8618 5.33028C18.5766 5.55095 18.2312 5.66129 17.8257 5.66129ZM17.8257 5.06923C18.2276 5.06923 18.5398 4.87547 18.7623 4.48794C18.9847 4.10041 19.096 3.54783 19.096 2.83018C19.096 2.35295 19.0448 1.94658 18.9426 1.61108C18.8421 1.27558 18.6968 1.01992 18.5066 0.844097C18.3182 0.668274 18.0913 0.580363 17.8257 0.580363C17.4274 0.580363 17.1162 0.776818 16.8919 1.16973C16.6676 1.56085 16.5555 2.11433 16.5555 2.83018C16.5555 3.30741 16.6057 3.71288 16.7062 4.04659C16.8067 4.38029 16.9511 4.63416 17.1395 4.80819C17.3297 4.98222 17.5584 5.06923 17.8257 5.06923ZM22.5622 5.66129C22.1567 5.66129 21.8113 5.55095 21.5261 5.33028C21.2408 5.10781 21.0228 4.78576 20.8721 4.36415C20.7214 3.94074 20.6461 3.42941 20.6461 2.83018C20.6461 2.23453 20.7214 1.7259 20.8721 1.30429C21.0246 0.880877 21.2435 0.557936 21.5288 0.335466C21.8158 0.111202 22.1603 -0.000929933 22.5622 -0.000929933C22.9641 -0.000929933 23.3076 0.111202 23.5929 0.335466C23.88 0.557936 24.0988 0.880877 24.2495 1.30429C24.402 1.7259 24.4783 2.23453 24.4783 2.83018C24.4783 3.42941 24.4029 3.94074 24.2522 4.36415C24.1015 4.78576 23.8835 5.10781 23.5983 5.33028C23.313 5.55095 22.9677 5.66129 22.5622 5.66129ZM22.5622 5.06923C22.9641 5.06923 23.2762 4.87547 23.4987 4.48794C23.7212 4.10041 23.8324 3.54783 23.8324 2.83018C23.8324 2.35295 23.7813 1.94658 23.679 1.61108C23.5785 1.27558 23.4332 1.01992 23.243 0.844097C23.0547 0.668274 22.8277 0.580363 22.5622 0.580363C22.1639 0.580363 21.8526 0.776818 21.6283 1.16973C21.4041 1.56085 21.2919 2.11433 21.2919 2.83018C21.2919 3.30741 21.3422 3.71288 21.4427 4.04659C21.5431 4.38029 21.6876 4.63416 21.8759 4.80819C22.0661 4.98222 22.2949 5.06923 22.5622 5.06923ZM25.5009 5.58594V5.10153L27.3202 3.11006C27.5337 2.87683 27.7095 2.67409 27.8476 2.50186C27.9858 2.32783 28.088 2.16456 28.1544 2.01206C28.2226 1.85777 28.2567 1.6963 28.2567 1.52765C28.2567 1.33389 28.21 1.16614 28.1168 1.02441C28.0253 0.882671 27.8997 0.77323 27.74 0.696083C27.5803 0.618936 27.4009 0.580363 27.2018 0.580363C26.9901 0.580363 26.8053 0.624318 26.6474 0.71223C26.4913 0.798347 26.3702 0.91945 26.2841 1.07554C26.1997 1.23163 26.1576 1.41463 26.1576 1.62454H25.5225C25.5225 1.3016 25.5969 1.01813 25.7458 0.774127C25.8947 0.530127 26.0975 0.339951 26.354 0.203599C26.6124 0.0672463 26.9021 -0.000929933 27.2233 -0.000929933C27.5462 -0.000929933 27.8324 0.0672463 28.0818 0.203599C28.3312 0.339951 28.5267 0.523848 28.6684 0.755289C28.8102 0.986729 28.881 1.24418 28.881 1.52765C28.881 1.73039 28.8443 1.92864 28.7707 2.1224C28.6989 2.31437 28.5734 2.52877 28.3939 2.76559C28.2163 3.00062 27.9696 3.28768 27.6539 3.62677L26.4159 4.95082V4.99388H28.9779V5.58594H25.5009ZM33.9431 5.66129C33.6274 5.66129 33.343 5.5985 33.09 5.47291C32.8371 5.34732 32.6343 5.17509 32.4818 4.9562C32.3293 4.73732 32.2459 4.48794 32.2316 4.20806H32.8774C32.9026 4.45744 33.0156 4.66376 33.2165 4.82703C33.4193 4.9885 33.6615 5.06923 33.9431 5.06923C34.1692 5.06923 34.3701 5.01631 34.546 4.91045C34.7236 4.8046 34.8626 4.65928 34.9631 4.47448C35.0654 4.2879 35.1165 4.07709 35.1165 3.84206C35.1165 3.60165 35.0636 3.38725 34.9577 3.19887C34.8536 3.00869 34.7101 2.85889 34.5271 2.74945C34.3441 2.64 34.1351 2.58439 33.9001 2.58259C33.7314 2.5808 33.5583 2.60681 33.3807 2.66064C33.2031 2.71267 33.0568 2.77994 32.942 2.86247L32.3177 2.78712L32.6514 0.0744228H35.5148V0.66648H33.2111L33.0174 2.29195H33.0497C33.1627 2.20224 33.3044 2.12779 33.4749 2.06858C33.6453 2.00937 33.8229 1.97977 34.0077 1.97977C34.345 1.97977 34.6455 2.06051 34.9093 2.22198C35.1748 2.38165 35.3829 2.60053 35.5336 2.87862C35.6861 3.15671 35.7624 3.47427 35.7624 3.8313C35.7624 4.18294 35.6834 4.49691 35.5255 4.7732C35.3695 5.0477 35.1542 5.26479 34.8797 5.42447C34.6052 5.58235 34.293 5.66129 33.9431 5.66129ZM38.7691 0.0744228V5.58594H38.1017V0.774127H38.0694L36.7238 1.66759V0.98942L38.1017 0.0744228H38.7691ZM40.225 4.45565V3.90665L42.647 0.0744228H43.0453V0.924833H42.7762L40.9462 3.82053V3.86359H44.2079V4.45565H40.225ZM42.8193 5.58594V4.28879V4.03313V0.0744228H43.4544V5.58594H42.8193ZM45.3887 5.58594L47.8538 0.709539V0.66648H45.0119V0.0744228H48.5427V0.698774L46.0884 5.58594H45.3887Z" fill="white"/>
</svg>
