<svg width="50" height="6" viewBox="0 0 50 6" fill="none" xmlns="http://www.w3.org/2000/svg">
<path d="M1.8408 0.00688257C2.06685 0.00867673 2.29291 0.0517354 2.51897 0.136059C2.74503 0.220382 2.95135 0.360323 3.13794 0.555881C3.32453 0.749645 3.47434 1.01428 3.58736 1.34978C3.70039 1.68528 3.75691 2.10599 3.75691 2.61193C3.75691 3.10173 3.71026 3.5368 3.61697 3.91715C3.52547 4.29571 3.3927 4.61506 3.21867 4.87521C3.04644 5.13535 2.83653 5.33271 2.58894 5.46727C2.34315 5.60182 2.06506 5.6691 1.75468 5.6691C1.44609 5.6691 1.17069 5.6081 0.928489 5.4861C0.688078 5.36231 0.490725 5.19097 0.336432 4.97209C0.183932 4.75141 0.0861529 4.49575 0.0430942 4.20511H0.699739C0.758945 4.45808 0.87646 4.66709 1.05228 4.83215C1.2299 4.99541 1.46403 5.07705 1.75468 5.07705C2.17988 5.07705 2.51538 4.89135 2.76118 4.51997C3.00876 4.14859 3.13256 3.62381 3.13256 2.94564H3.0895C2.98903 3.09634 2.86972 3.22642 2.73157 3.33586C2.59343 3.4453 2.44003 3.52962 2.27138 3.58883C2.10274 3.64803 1.92332 3.67764 1.73315 3.67764C1.41738 3.67764 1.12764 3.59959 0.863901 3.44351C0.60196 3.28562 0.392049 3.06943 0.234167 2.79493C0.0780794 2.51864 3.5443e-05 2.20288 3.5443e-05 1.84764C3.5443e-05 1.51035 0.0753882 1.20176 0.226094 0.92188C0.378593 0.640204 0.592093 0.41594 0.866592 0.249088C1.14289 0.0822355 1.46762 0.00150037 1.8408 0.00688257ZM1.8408 0.59894C1.61474 0.59894 1.41111 0.655454 1.2299 0.768484C1.05049 0.879718 0.907857 1.03042 0.802004 1.2206C0.697945 1.40898 0.645916 1.618 0.645916 1.84764C0.645916 2.07729 0.696151 2.2863 0.796622 2.47468C0.898886 2.66127 1.03793 2.81018 1.21375 2.92142C1.39137 3.03086 1.59321 3.08558 1.81927 3.08558C1.98971 3.08558 2.14849 3.05239 2.2956 2.98601C2.44272 2.91783 2.571 2.82543 2.68044 2.70882C2.79168 2.59041 2.87869 2.45674 2.94148 2.30783C3.00428 2.15713 3.03567 2.00014 3.03567 1.83688C3.03567 1.62158 2.98365 1.41975 2.87959 1.23136C2.77732 1.04298 2.63559 0.890483 2.45438 0.773866C2.27497 0.657248 2.07044 0.59894 1.8408 0.59894ZM6.56985 0.00688257C6.79591 0.00867673 7.02197 0.0517354 7.24803 0.136059C7.47409 0.220382 7.68041 0.360323 7.867 0.555881C8.05358 0.749645 8.20339 1.01428 8.31642 1.34978C8.42945 1.68528 8.48596 2.10599 8.48596 2.61193C8.48596 3.10173 8.43932 3.5368 8.34602 3.91715C8.25452 4.29571 8.12176 4.61506 7.94773 4.87521C7.7755 5.13535 7.56558 5.33271 7.318 5.46727C7.0722 5.60182 6.79412 5.6691 6.48373 5.6691C6.17515 5.6691 5.89975 5.6081 5.65755 5.4861C5.41713 5.36231 5.21978 5.19097 5.06549 4.97209C4.91299 4.75141 4.81521 4.49575 4.77215 4.20511H5.4288C5.488 4.45808 5.60552 4.66709 5.78134 4.83215C5.95896 4.99541 6.19309 5.07705 6.48373 5.07705C6.90894 5.07705 7.24444 4.89135 7.49023 4.51997C7.73782 4.14859 7.86161 3.62381 7.86161 2.94564H7.81855C7.71808 3.09634 7.59878 3.22642 7.46063 3.33586C7.32248 3.4453 7.16909 3.52962 7.00044 3.58883C6.83179 3.64803 6.65238 3.67764 6.46221 3.67764C6.14644 3.67764 5.85669 3.59959 5.59296 3.44351C5.33102 3.28562 5.12111 3.06943 4.96322 2.79493C4.80714 2.51864 4.72909 2.20288 4.72909 1.84764C4.72909 1.51035 4.80445 1.20176 4.95515 0.92188C5.10765 0.640204 5.32115 0.41594 5.59565 0.249088C5.87194 0.0822355 6.19668 0.00150037 6.56985 0.00688257ZM6.56985 0.59894C6.34379 0.59894 6.14016 0.655454 5.95896 0.768484C5.77955 0.879718 5.63691 1.03042 5.53106 1.2206C5.427 1.40898 5.37497 1.618 5.37497 1.84764C5.37497 2.07729 5.42521 2.2863 5.52568 2.47468C5.62794 2.66127 5.76699 2.81018 5.94281 2.92142C6.12043 3.03086 6.32226 3.08558 6.54832 3.08558C6.71876 3.08558 6.87754 3.05239 7.02466 2.98601C7.17178 2.91783 7.30006 2.82543 7.4095 2.70882C7.52073 2.59041 7.60775 2.45674 7.67054 2.30783C7.73333 2.15713 7.76473 2.00014 7.76473 1.83688C7.76473 1.62158 7.7127 1.41975 7.60864 1.23136C7.50638 1.04298 7.36464 0.890483 7.18344 0.773866C7.00403 0.657248 6.7995 0.59894 6.56985 0.59894ZM11.2989 0.00688257C11.525 0.00867673 11.751 0.0517354 11.9771 0.136059C12.2031 0.220382 12.4095 0.360323 12.5961 0.555881C12.7826 0.749645 12.9324 1.01428 13.0455 1.34978C13.1585 1.68528 13.215 2.10599 13.215 2.61193C13.215 3.10173 13.1684 3.5368 13.0751 3.91715C12.9836 4.29571 12.8508 4.61506 12.6768 4.87521C12.5046 5.13535 12.2946 5.33271 12.0471 5.46727C11.8013 5.60182 11.5232 5.6691 11.2128 5.6691C10.9042 5.6691 10.6288 5.6081 10.3866 5.4861C10.1462 5.36231 9.94884 5.19097 9.79455 4.97209C9.64205 4.75141 9.54427 4.49575 9.50121 4.20511H10.1579C10.2171 4.45808 10.3346 4.66709 10.5104 4.83215C10.688 4.99541 10.9221 5.07705 11.2128 5.07705C11.638 5.07705 11.9735 4.89135 12.2193 4.51997C12.4669 4.14859 12.5907 3.62381 12.5907 2.94564H12.5476C12.4471 3.09634 12.3278 3.22642 12.1897 3.33586C12.0515 3.4453 11.8981 3.52962 11.7295 3.58883C11.5608 3.64803 11.3814 3.67764 11.1913 3.67764C10.8755 3.67764 10.5857 3.59959 10.322 3.44351C10.0601 3.28562 9.85016 3.06943 9.69228 2.79493C9.53619 2.51864 9.45815 2.20288 9.45815 1.84764C9.45815 1.51035 9.5335 1.20176 9.68421 0.92188C9.83671 0.640204 10.0502 0.41594 10.3247 0.249088C10.601 0.0822355 10.9257 0.00150037 11.2989 0.00688257ZM11.2989 0.59894C11.0729 0.59894 10.8692 0.655454 10.688 0.768484C10.5086 0.879718 10.366 1.03042 10.2601 1.2206C10.1561 1.40898 10.104 1.618 10.104 1.84764C10.104 2.07729 10.1543 2.2863 10.2547 2.47468C10.357 2.66127 10.496 2.81018 10.6719 2.92142C10.8495 3.03086 11.0513 3.08558 11.2774 3.08558C11.4478 3.08558 11.6066 3.05239 11.7537 2.98601C11.9008 2.91783 12.0291 2.82543 12.1386 2.70882C12.2498 2.59041 12.3368 2.45674 12.3996 2.30783C12.4624 2.15713 12.4938 2.00014 12.4938 1.83688C12.4938 1.62158 12.4418 1.41975 12.3377 1.23136C12.2354 1.04298 12.0937 0.890483 11.9125 0.773866C11.7331 0.657248 11.5286 0.59894 11.2989 0.59894ZM16.2756 4.46346V3.91446L18.6976 0.0822353H19.0959V0.932645H18.8268L16.9968 3.82834V3.8714H20.2585V4.46346H16.2756ZM18.8698 5.59375V4.29661V4.04095V0.0822353H19.505V5.59375H18.8698ZM21.1378 4.46346V3.91446L23.5599 0.0822353H23.9582V0.932645H23.6891L21.8591 3.82834V3.8714H25.1208V4.46346H21.1378ZM23.7321 5.59375V4.29661V4.04095V0.0822353H24.3672V5.59375H23.7321ZM26.1293 5.59375V5.10934L27.9485 3.11787C28.162 2.88464 28.3378 2.6819 28.476 2.50967C28.6141 2.33564 28.7164 2.17238 28.7828 2.01988C28.8509 1.86558 28.885 1.70411 28.885 1.53547C28.885 1.3417 28.8384 1.17395 28.7451 1.03222C28.6536 0.890483 28.528 0.781042 28.3683 0.703895C28.2086 0.626749 28.0292 0.588175 27.8301 0.588175C27.6184 0.588175 27.4336 0.632131 27.2757 0.720042C27.1196 0.80616 26.9985 0.927262 26.9124 1.08335C26.8281 1.23944 26.7859 1.42244 26.7859 1.63235H26.1508C26.1508 1.30941 26.2253 1.02594 26.3742 0.781939C26.5231 0.53794 26.7258 0.347764 26.9824 0.211411C27.2407 0.0750588 27.5305 0.00688257 27.8516 0.00688257C28.1746 0.00688257 28.4607 0.0750588 28.7101 0.211411C28.9595 0.347764 29.155 0.53166 29.2968 0.763101C29.4385 0.994542 29.5094 1.252 29.5094 1.53547C29.5094 1.7382 29.4726 1.93645 29.399 2.13022C29.3273 2.32219 29.2017 2.53658 29.0223 2.7734C28.8447 3.00843 28.598 3.29549 28.2822 3.63458L27.0443 4.95863V5.00169H29.6063V5.59375H26.1293ZM34.5715 5.6691C34.2557 5.6691 33.9713 5.60631 33.7184 5.48072C33.4654 5.35513 33.2627 5.1829 33.1102 4.96402C32.9577 4.74513 32.8742 4.49575 32.8599 4.21587H33.5058C33.5309 4.46525 33.6439 4.67158 33.8449 4.83484C34.0476 4.99631 34.2898 5.07705 34.5715 5.07705C34.7975 5.07705 34.9985 5.02412 35.1743 4.91827C35.3519 4.81241 35.491 4.66709 35.5914 4.4823C35.6937 4.29571 35.7448 4.0849 35.7448 3.84987C35.7448 3.60946 35.6919 3.39506 35.586 3.20668C35.482 3.01651 35.3385 2.8667 35.1555 2.75726C34.9725 2.64782 34.7634 2.5922 34.5284 2.59041C34.3598 2.58861 34.1866 2.61463 34.009 2.66845C33.8314 2.72048 33.6852 2.78776 33.5704 2.87029L32.946 2.79493L33.2797 0.0822353H36.1431V0.674293H33.8395L33.6457 2.29976H33.678C33.791 2.21005 33.9328 2.1356 34.1032 2.07639C34.2736 2.01719 34.4513 1.98758 34.6361 1.98758C34.9733 1.98758 35.2739 2.06832 35.5376 2.22979C35.8031 2.38946 36.0112 2.60835 36.1619 2.88643C36.3144 3.16452 36.3907 3.48208 36.3907 3.83911C36.3907 4.19075 36.3118 4.50472 36.1539 4.78102C35.9978 5.05552 35.7825 5.2726 35.508 5.43228C35.2335 5.59016 34.9213 5.6691 34.5715 5.6691ZM39.3974 0.0822353V5.59375H38.73V0.781939H38.6977L37.3521 1.67541V0.997233L38.73 0.0822353H39.3974ZM40.8533 4.46346V3.91446L43.2754 0.0822353H43.6737V0.932645H43.4046L41.5746 3.82834V3.8714H44.8363V4.46346H40.8533ZM43.4476 5.59375V4.29661V4.04095V0.0822353H44.0827V5.59375H43.4476ZM46.017 5.59375L48.4821 0.717351V0.674293H45.6402V0.0822353H49.1711V0.706587L46.7167 5.59375H46.017Z" fill="white"/>
</svg>
