<svg width="111" height="108" viewBox="0 0 111 108" fill="none" xmlns="http://www.w3.org/2000/svg">
<g filter="url(#filter0_d_1902_5)">
<circle cx="54" cy="54" r="45" fill="#535353"/>
</g>
<circle cx="54" cy="54" r="53" stroke="white" stroke-width="2"/>
<g filter="url(#filter1_d_1902_5)">
<path d="M31.4947 41.5564C31.429 40.9422 31.1524 40.464 30.6648 40.1218C30.1819 39.7795 29.5536 39.6084 28.78 39.6084C28.2362 39.6084 27.7697 39.6904 27.3805 39.8545C26.9914 40.0186 26.6937 40.2413 26.4874 40.5226C26.2811 40.8039 26.1756 41.1251 26.1709 41.4861C26.1709 41.7862 26.2389 42.0464 26.3749 42.2667C26.5155 42.4871 26.7054 42.6746 26.9445 42.8294C27.1836 42.9794 27.4485 43.106 27.7392 43.2091C28.0299 43.3123 28.3229 43.399 28.6183 43.4693L29.9686 43.8069C30.5124 43.9335 31.0352 44.1046 31.5369 44.3203C32.0432 44.536 32.4957 44.8079 32.8942 45.1361C33.2974 45.4643 33.6162 45.8604 33.8506 46.3246C34.085 46.7888 34.2023 47.3326 34.2023 47.9562C34.2023 48.8001 33.9866 49.5432 33.5553 50.1856C33.1239 50.8232 32.5003 51.3225 31.6846 51.6835C30.8734 52.0399 29.8912 52.218 28.7379 52.218C27.6173 52.218 26.6444 52.0445 25.8193 51.6976C24.9988 51.3506 24.3565 50.8443 23.8923 50.1785C23.4328 49.5128 23.1844 48.7017 23.1469 47.7452H25.7138C25.7513 48.2469 25.906 48.6642 26.1779 48.997C26.4499 49.3299 26.8039 49.5784 27.2399 49.7425C27.6806 49.9066 28.1729 49.9886 28.7168 49.9886C29.2841 49.9886 29.781 49.9043 30.2077 49.7355C30.639 49.562 30.9766 49.3229 31.2204 49.0181C31.4642 48.7087 31.5884 48.3477 31.5931 47.9351C31.5884 47.56 31.4783 47.2506 31.2626 47.0068C31.0469 46.7583 30.7445 46.552 30.3554 46.3879C29.9709 46.2191 29.5208 46.0691 29.0051 45.9378L27.3665 45.5158C26.1803 45.2111 25.2426 44.7493 24.5534 44.1304C23.8689 43.5068 23.5266 42.6793 23.5266 41.6479C23.5266 40.7992 23.7564 40.0561 24.2158 39.4185C24.68 38.7809 25.3106 38.2862 26.1076 37.9346C26.9047 37.5783 27.8072 37.4001 28.8152 37.4001C29.8373 37.4001 30.7328 37.5783 31.5017 37.9346C32.2753 38.2862 32.8825 38.7762 33.3232 39.4044C33.7639 40.028 33.9913 40.7453 34.0053 41.5564H31.4947ZM36.5283 52V37.597H39.1375V43.6944H45.8115V37.597H48.4277V52H45.8115V45.8815H39.1375V52H36.5283ZM64.1352 44.7985C64.1352 46.3504 63.8445 47.6796 63.2632 48.7861C62.6865 49.8878 61.8988 50.7318 60.9002 51.3178C59.9062 51.9039 58.7786 52.1969 57.5174 52.1969C56.2562 52.1969 55.1263 51.9039 54.1277 51.3178C53.1337 50.7271 52.3461 49.8808 51.7647 48.779C51.188 47.6725 50.8997 46.3457 50.8997 44.7985C50.8997 43.2466 51.188 41.9198 51.7647 40.818C52.3461 39.7115 53.1337 38.8653 54.1277 38.2792C55.1263 37.6931 56.2562 37.4001 57.5174 37.4001C58.7786 37.4001 59.9062 37.6931 60.9002 38.2792C61.8988 38.8653 62.6865 39.7115 63.2632 40.818C63.8445 41.9198 64.1352 43.2466 64.1352 44.7985ZM61.512 44.7985C61.512 43.7061 61.3409 42.7848 60.9986 42.0347C60.6611 41.2798 60.1922 40.7102 59.5921 40.3257C58.992 39.9366 58.3004 39.742 57.5174 39.742C56.7345 39.742 56.0429 39.9366 55.4428 40.3257C54.8427 40.7102 54.3715 41.2798 54.0292 42.0347C53.6916 42.7848 53.5229 43.7061 53.5229 44.7985C53.5229 45.8909 53.6916 46.8146 54.0292 47.5694C54.3715 48.3196 54.8427 48.8892 55.4428 49.2783C56.0429 49.6628 56.7345 49.855 57.5174 49.855C58.3004 49.855 58.992 49.6628 59.5921 49.2783C60.1922 48.8892 60.6611 48.3196 60.9986 47.5694C61.3409 46.8146 61.512 45.8909 61.512 44.7985ZM69.2656 52L65.2007 37.597H68.0067L70.6018 48.1812H70.7354L73.5063 37.597H76.0592L78.8371 48.1883H78.9637L81.5587 37.597H84.3648L80.2999 52H77.7259L74.8425 41.894H74.73L71.8395 52H69.2656ZM40.4825 61.4566H37.8522C37.7772 61.0253 37.6389 60.6432 37.4373 60.3103C37.2357 59.9727 36.9849 59.6867 36.6848 59.4523C36.3847 59.2179 36.0425 59.0421 35.658 58.9248C35.2783 58.8029 34.868 58.742 34.4273 58.742C33.6443 58.742 32.9504 58.9389 32.3456 59.3327C31.7408 59.7219 31.2673 60.2939 30.925 61.0487C30.5828 61.7989 30.4116 62.7155 30.4116 63.7985C30.4116 64.9003 30.5828 65.8286 30.925 66.5835C31.272 67.3336 31.7455 67.9009 32.3456 68.2854C32.9504 68.6651 33.642 68.855 34.4203 68.855C34.8516 68.855 35.2548 68.7988 35.6299 68.6862C36.0097 68.569 36.3496 68.3979 36.6496 68.1729C36.9544 67.9478 37.2099 67.6712 37.4162 67.343C37.6272 67.0148 37.7725 66.6397 37.8522 66.2178L40.4825 66.2318C40.384 66.9163 40.1707 67.5587 39.8425 68.1588C39.519 68.7589 39.0947 69.2887 38.5696 69.7482C38.0445 70.203 37.4303 70.5593 36.727 70.8171C36.0237 71.0703 35.2431 71.1969 34.3851 71.1969C33.1192 71.1969 31.9893 70.9039 30.9954 70.3178C30.0014 69.7318 29.2184 68.8855 28.6464 67.779C28.0744 66.6725 27.7884 65.3457 27.7884 63.7985C27.7884 62.2466 28.0768 60.9198 28.6535 59.818C29.2301 58.7115 30.0155 57.8653 31.0094 57.2792C32.0034 56.6931 33.1286 56.4001 34.3851 56.4001C35.1868 56.4001 35.9323 56.5126 36.6215 56.7377C37.3107 56.9627 37.9249 57.2933 38.4641 57.7293C39.0033 58.1606 39.4463 58.6904 39.7933 59.3187C40.1449 59.9422 40.3746 60.6549 40.4825 61.4566ZM44.5474 71H41.7624L46.833 56.597H50.054L55.1316 71H52.3466L48.4997 59.5508H48.3872L44.5474 71ZM44.6388 65.3527H52.2341V67.4485H44.6388V65.3527ZM64.624 60.5564C64.5583 59.9422 64.2817 59.464 63.7941 59.1218C63.3112 58.7795 62.683 58.6084 61.9094 58.6084C61.3655 58.6084 60.899 58.6904 60.5099 58.8545C60.1207 59.0186 59.823 59.2413 59.6167 59.5226C59.4104 59.8039 59.3049 60.1251 59.3002 60.4861C59.3002 60.7862 59.3682 61.0464 59.5042 61.2667C59.6448 61.4871 59.8347 61.6746 60.0738 61.8294C60.3129 61.9794 60.5778 62.106 60.8685 62.2091C61.1592 62.3123 61.4522 62.399 61.7476 62.4693L63.0979 62.8069C63.6417 62.9335 64.1645 63.1046 64.6662 63.3203C65.1725 63.536 65.625 63.8079 66.0235 64.1361C66.4267 64.4643 66.7455 64.8604 66.9799 65.3246C67.2144 65.7888 67.3316 66.3326 67.3316 66.9562C67.3316 67.8001 67.1159 68.5432 66.6846 69.1856C66.2532 69.8232 65.6297 70.3225 64.8139 70.6835C64.0028 71.0399 63.0205 71.218 61.8672 71.218C60.7466 71.218 59.7738 71.0445 58.9486 70.6976C58.1281 70.3506 57.4858 69.8443 57.0216 69.1785C56.5622 68.5128 56.3137 67.7017 56.2762 66.7452H58.8431C58.8806 67.2469 59.0353 67.6642 59.3073 67.997C59.5792 68.3299 59.9332 68.5784 60.3692 68.7425C60.8099 68.9066 61.3022 68.9886 61.8461 68.9886C62.4134 68.9886 62.9103 68.9043 63.337 68.7355C63.7683 68.562 64.1059 68.3229 64.3497 68.0181C64.5935 67.7087 64.7178 67.3477 64.7224 66.9351C64.7178 66.56 64.6076 66.2506 64.3919 66.0068C64.1762 65.7583 63.8738 65.552 63.4847 65.3879C63.1002 65.2191 62.6501 65.0691 62.1344 64.9378L60.4958 64.5158C59.3096 64.2111 58.3719 63.7493 57.6827 63.1304C56.9982 62.5068 56.6559 61.6793 56.6559 60.6479C56.6559 59.7992 56.8857 59.0561 57.3451 58.4185C57.8093 57.7809 58.4399 57.2862 59.2369 56.9346C60.034 56.5783 60.9365 56.4001 61.9445 56.4001C62.9666 56.4001 63.8621 56.5783 64.631 56.9346C65.4046 57.2862 66.0118 57.7762 66.4525 58.4044C66.8932 59.028 67.1206 59.7453 67.1347 60.5564H64.624ZM69.6576 71V56.597H79.0252V58.7842H72.2668V62.6944H78.5399V64.8815H72.2668V68.8128H79.0815V71H69.6576Z" fill="white"/>
</g>
<defs>
<filter id="filter0_d_1902_5" x="9" y="5.3" width="101.7" height="101.4" filterUnits="userSpaceOnUse" color-interpolation-filters="sRGB">
<feFlood flood-opacity="0" result="BackgroundImageFix"/>
<feColorMatrix in="SourceAlpha" type="matrix" values="0 0 0 0 0 0 0 0 0 0 0 0 0 0 0 0 0 0 127 0" result="hardAlpha"/>
<feOffset dx="6" dy="2"/>
<feGaussianBlur stdDeviation="2.85"/>
<feComposite in2="hardAlpha" operator="out"/>
<feColorMatrix type="matrix" values="0 0 0 0 0.380769 0 0 0 0 0.380769 0 0 0 0 0.380769 0 0 0 0.42 0"/>
<feBlend mode="normal" in2="BackgroundImageFix" result="effect1_dropShadow_1902_5"/>
<feBlend mode="normal" in="SourceGraphic" in2="effect1_dropShadow_1902_5" result="shape"/>
</filter>
<filter id="filter1_d_1902_5" x="23.1465" y="36.3984" width="61.2188" height="34.8203" filterUnits="userSpaceOnUse" color-interpolation-filters="sRGB">
<feFlood flood-opacity="0" result="BackgroundImageFix"/>
<feColorMatrix in="SourceAlpha" type="matrix" values="0 0 0 0 0 0 0 0 0 0 0 0 0 0 0 0 0 0 127 0" result="hardAlpha"/>
<feOffset dy="-1"/>
<feComposite in2="hardAlpha" operator="out"/>
<feColorMatrix type="matrix" values="0 0 0 0 0 0 0 0 0 0 0 0 0 0 0 0 0 0 0.25 0"/>
<feBlend mode="normal" in2="BackgroundImageFix" result="effect1_dropShadow_1902_5"/>
<feBlend mode="normal" in="SourceGraphic" in2="effect1_dropShadow_1902_5" result="shape"/>
</filter>
</defs>
</svg>
