<svg width="71" height="8" viewBox="0 0 71 8" fill="none" xmlns="http://www.w3.org/2000/svg">
<path d="M3.11044 2.56203L2.53998 2.72348C2.5041 2.62841 2.45118 2.53602 2.38122 2.44633C2.31305 2.35484 2.21976 2.27949 2.10137 2.22029C1.98297 2.1611 1.83138 2.1315 1.64661 2.1315C1.39367 2.1315 1.18289 2.1898 1.01426 2.3064C0.847428 2.42121 0.764012 2.56741 0.764012 2.74501C0.764012 2.90287 0.821416 3.02755 0.936226 3.11904C1.05104 3.21053 1.23043 3.28677 1.4744 3.34776L2.08791 3.49845C2.45746 3.58815 2.73282 3.72538 2.914 3.91015C3.09519 4.09313 3.18578 4.32903 3.18578 4.61785C3.18578 4.85464 3.11761 5.06632 2.98128 5.25289C2.84673 5.43945 2.65837 5.58655 2.4162 5.69419C2.17402 5.80182 1.89238 5.85564 1.57127 5.85564C1.1497 5.85564 0.800787 5.76415 0.524526 5.58117C0.248264 5.39819 0.0733589 5.1309 -0.000191059 4.7793L0.60256 4.62861C0.659965 4.85105 0.768496 5.01789 0.928154 5.12911C1.0896 5.24033 1.30039 5.29594 1.5605 5.29594C1.8565 5.29594 2.0915 5.23315 2.26551 5.10758C2.44131 4.98021 2.52921 4.82773 2.52921 4.65014C2.52921 4.50662 2.47898 4.38643 2.37852 4.28956C2.27807 4.1909 2.12379 4.11735 1.9157 4.06891L1.22684 3.90746C0.848325 3.81777 0.57027 3.67874 0.392674 3.49038C0.216871 3.30022 0.12897 3.06253 0.12897 2.7773C0.12897 2.54409 0.194447 2.3378 0.325402 2.1584C0.458151 1.97901 0.638438 1.83819 0.866264 1.73594C1.09588 1.63369 1.356 1.58256 1.64661 1.58256C2.05562 1.58256 2.37673 1.67226 2.60994 1.85165C2.84494 2.03104 3.01177 2.26783 3.11044 2.56203ZM6.74645 4.07967V1.63638H7.38149V5.76953H6.74645V5.06991H6.7034C6.60653 5.2798 6.45584 5.45829 6.25134 5.60539C6.04683 5.7507 5.78851 5.82335 5.47637 5.82335C5.21805 5.82335 4.98843 5.76684 4.78751 5.65382C4.58659 5.53901 4.42873 5.3668 4.31392 5.13718C4.19911 4.90577 4.14171 4.61426 4.14171 4.26265V1.63638H4.77675V4.2196C4.77675 4.52097 4.86106 4.76136 5.02969 4.94075C5.20011 5.12014 5.41717 5.20983 5.68088 5.20983C5.83874 5.20983 5.99929 5.16947 6.16254 5.08875C6.32758 5.00802 6.46571 4.88424 6.57693 4.71741C6.68995 4.55057 6.74645 4.338 6.74645 4.07967ZM8.54462 7.31946V1.63638H9.15813V2.29295H9.23348C9.28012 2.22119 9.3447 2.1297 9.42722 2.01848C9.51153 1.90546 9.63172 1.80501 9.78779 1.7171C9.94565 1.62741 10.1591 1.58256 10.4282 1.58256C10.7762 1.58256 11.083 1.66957 11.3485 1.84357C11.614 2.01758 11.8212 2.26425 11.9701 2.58356C12.119 2.90287 12.1934 3.27959 12.1934 3.71372C12.1934 4.15143 12.119 4.53084 11.9701 4.85195C11.8212 5.17126 11.6149 5.41882 11.3512 5.59463C11.0875 5.76863 10.7834 5.85564 10.439 5.85564C10.1735 5.85564 9.9609 5.81169 9.80125 5.72379C9.64159 5.63409 9.51871 5.53274 9.4326 5.41972C9.34649 5.30491 9.28012 5.20983 9.23348 5.13449H9.17966V7.31946H8.54462ZM9.16889 3.70296C9.16889 4.01509 9.21464 4.29046 9.30613 4.52905C9.39762 4.76584 9.53126 4.95151 9.70707 5.08605C9.88287 5.2188 10.0981 5.28518 10.3529 5.28518C10.6184 5.28518 10.8399 5.21522 11.0175 5.07529C11.1969 4.93357 11.3314 4.74342 11.4211 4.50483C11.5126 4.26445 11.5584 3.99716 11.5584 3.70296C11.5584 3.41234 11.5135 3.15043 11.4238 2.91723C11.3359 2.68222 11.2023 2.49656 11.0229 2.36022C10.8453 2.22209 10.622 2.15302 10.3529 2.15302C10.0945 2.15302 9.87749 2.2185 9.70168 2.34946C9.52588 2.47862 9.39313 2.6598 9.30344 2.89301C9.21374 3.12442 9.16889 3.3944 9.16889 3.70296ZM13.1621 7.31946V1.63638H13.7756V2.29295H13.851C13.8976 2.22119 13.9622 2.1297 14.0447 2.01848C14.129 1.90546 14.2492 1.80501 14.4053 1.7171C14.5632 1.62741 14.7766 1.58256 15.0457 1.58256C15.3937 1.58256 15.7005 1.66957 15.966 1.84357C16.2315 2.01758 16.4387 2.26425 16.5876 2.58356C16.7365 2.90287 16.8109 3.27959 16.8109 3.71372C16.8109 4.15143 16.7365 4.53084 16.5876 4.85195C16.4387 5.17126 16.2324 5.41882 15.9687 5.59463C15.705 5.76863 15.4009 5.85564 15.0565 5.85564C14.791 5.85564 14.5784 5.81169 14.4188 5.72379C14.2591 5.63409 14.1362 5.53274 14.0501 5.41972C13.964 5.30491 13.8976 5.20983 13.851 5.13449H13.7972V7.31946H13.1621ZM13.7864 3.70296C13.7864 4.01509 13.8321 4.29046 13.9236 4.52905C14.0151 4.76584 14.1488 4.95151 14.3246 5.08605C14.5004 5.2188 14.7156 5.28518 14.9704 5.28518C15.2359 5.28518 15.4574 5.21522 15.635 5.07529C15.8144 4.93357 15.949 4.74342 16.0386 4.50483C16.1301 4.26445 16.1759 3.99716 16.1759 3.70296C16.1759 3.41234 16.131 3.15043 16.0413 2.91723C15.9534 2.68222 15.8198 2.49656 15.6404 2.36022C15.4628 2.22209 15.2395 2.15302 14.9704 2.15302C14.7121 2.15302 14.495 2.2185 14.3192 2.34946C14.1434 2.47862 14.0106 2.6598 13.9209 2.89301C13.8312 3.12442 13.7864 3.3944 13.7864 3.70296ZM19.4587 5.85564C19.0856 5.85564 18.7582 5.76684 18.4766 5.58924C18.1967 5.41165 17.9779 5.16319 17.82 4.84388C17.6639 4.52456 17.5859 4.15143 17.5859 3.72448C17.5859 3.29395 17.6639 2.91812 17.82 2.59701C17.9779 2.27591 18.1967 2.02655 18.4766 1.84896C18.7582 1.67136 19.0856 1.58256 19.4587 1.58256C19.8319 1.58256 20.1583 1.67136 20.4382 1.84896C20.7198 2.02655 20.9387 2.27591 21.0948 2.59701C21.2526 2.91812 21.3316 3.29395 21.3316 3.72448C21.3316 4.15143 21.2526 4.52456 21.0948 4.84388C20.9387 5.16319 20.7198 5.41165 20.4382 5.58924C20.1583 5.76684 19.8319 5.85564 19.4587 5.85564ZM19.4587 5.28518C19.7422 5.28518 19.9754 5.21252 20.1583 5.06722C20.3413 4.92191 20.4768 4.73086 20.5647 4.49407C20.6526 4.25727 20.6965 4.00074 20.6965 3.72448C20.6965 3.44822 20.6526 3.1908 20.5647 2.95221C20.4768 2.71362 20.3413 2.52077 20.1583 2.37367C19.9754 2.22657 19.7422 2.15302 19.4587 2.15302C19.1753 2.15302 18.9421 2.22657 18.7591 2.37367C18.5761 2.52077 18.4407 2.71362 18.3528 2.95221C18.2649 3.1908 18.2209 3.44822 18.2209 3.72448C18.2209 4.00074 18.2649 4.25727 18.3528 4.49407C18.4407 4.73086 18.5761 4.92191 18.7591 5.06722C18.9421 5.21252 19.1753 5.28518 19.4587 5.28518ZM22.3009 5.76953V1.63638H22.9145V2.26066H22.9575C23.0328 2.05615 23.1692 1.89022 23.3665 1.76285C23.5638 1.63548 23.7863 1.5718 24.0338 1.5718C24.0805 1.5718 24.1388 1.5727 24.2088 1.57449C24.2787 1.57628 24.3316 1.57897 24.3675 1.58256V2.22837C24.346 2.22299 24.2967 2.21491 24.2195 2.20415C24.1442 2.19159 24.0643 2.18531 23.98 2.18531C23.7791 2.18531 23.5997 2.22747 23.4419 2.31178C23.2858 2.3943 23.162 2.50911 23.0705 2.65621C22.9808 2.80152 22.936 2.96745 22.936 3.15402V5.76953H22.3009ZM27.1768 1.63638V2.17455H25.0348V1.63638H27.1768ZM25.6591 0.646145H26.2942V4.58556C26.2942 4.76495 26.3202 4.89949 26.3722 4.98918C26.426 5.07708 26.4942 5.13628 26.5767 5.16678C26.661 5.19548 26.7498 5.20983 26.8431 5.20983C26.9131 5.20983 26.9705 5.20625 27.0153 5.19907C27.0602 5.1901 27.096 5.18293 27.1229 5.17754L27.2521 5.748C27.2091 5.76415 27.149 5.78029 27.0718 5.79644C26.9947 5.81438 26.8969 5.82335 26.7785 5.82335C26.5991 5.82335 26.4233 5.78478 26.2511 5.70764C26.0807 5.6305 25.939 5.513 25.826 5.35514C25.7147 5.19728 25.6591 4.99815 25.6591 4.75777V0.646145ZM31.3072 7.22259C30.7583 7.22259 30.273 7.14725 29.8515 6.99656C29.4299 6.84767 29.0756 6.62791 28.7886 6.3373C28.5016 6.04669 28.2845 5.6906 28.1374 5.26903C27.9903 4.84747 27.9167 4.36491 27.9167 3.82135C27.9167 3.29574 27.9912 2.82574 28.1401 2.41134C28.2908 1.99695 28.5087 1.64535 28.794 1.35653C29.081 1.06592 29.429 0.844371 29.838 0.691889C30.2488 0.539407 30.7134 0.463166 31.2319 0.463166C31.736 0.463166 32.1773 0.545686 32.5558 0.710725C32.9361 0.87397 33.2536 1.09552 33.5083 1.37537C33.7649 1.65342 33.9568 1.96646 34.0842 2.31447C34.2133 2.66249 34.2779 3.02127 34.2779 3.39082C34.2779 3.65093 34.2654 3.91464 34.2403 4.18193C34.2151 4.44922 34.1622 4.69498 34.0815 4.91922C34.0008 5.14167 33.8761 5.32106 33.7075 5.45739C33.5406 5.59373 33.3146 5.6619 33.0294 5.6619C32.9038 5.6619 32.7657 5.64216 32.615 5.6027C32.4643 5.56323 32.3306 5.49775 32.214 5.40627C32.0974 5.31478 32.0284 5.19189 32.0068 5.03762H31.9746C31.9315 5.14167 31.8651 5.24033 31.7754 5.33361C31.6875 5.4269 31.5718 5.50134 31.4283 5.55695C31.2866 5.61256 31.1135 5.63678 30.909 5.62961C30.6758 5.62064 30.4704 5.56861 30.2928 5.47354C30.1152 5.37667 29.9663 5.24571 29.8461 5.08067C29.7277 4.91384 29.638 4.721 29.577 4.50214C29.5178 4.28149 29.4882 4.0438 29.4882 3.78906C29.4882 3.54689 29.5241 3.32534 29.5958 3.12442C29.6676 2.9235 29.7672 2.7477 29.8945 2.59701C30.0237 2.44633 30.1744 2.32613 30.3466 2.23644C30.5206 2.14495 30.7081 2.08844 30.909 2.06692C31.0884 2.04898 31.2516 2.05705 31.3987 2.09113C31.5458 2.12342 31.6669 2.17276 31.762 2.23913C31.8571 2.30371 31.9172 2.37547 31.9423 2.4544H31.9746V2.15302H32.545V4.58556C32.545 4.73624 32.5872 4.86899 32.6715 4.9838C32.7558 5.09861 32.8787 5.15602 33.0401 5.15602C33.2231 5.15602 33.363 5.09323 33.4599 4.96766C33.5586 4.84208 33.6258 4.64834 33.6617 4.38643C33.6994 4.12452 33.7182 3.78906 33.7182 3.38005C33.7182 3.13967 33.685 2.90287 33.6187 2.66967C33.5541 2.43467 33.4554 2.21491 33.3227 2.01041C33.1917 1.8059 33.0258 1.62562 32.8249 1.46955C32.6239 1.31348 32.3881 1.19149 32.1172 1.10359C31.8481 1.01389 31.5422 0.969047 31.1996 0.969047C30.778 0.969047 30.4004 1.03452 30.0667 1.16548C29.7349 1.29464 29.4523 1.4839 29.2191 1.73325C28.9877 1.98081 28.811 2.28218 28.689 2.63738C28.5688 2.99078 28.5087 3.39261 28.5087 3.84288C28.5087 4.30032 28.5688 4.70664 28.689 5.06184C28.811 5.41703 28.9904 5.71661 29.2272 5.96058C29.4658 6.20455 29.7609 6.38932 30.1125 6.5149C30.4641 6.64226 30.8695 6.70595 31.3288 6.70595C31.5261 6.70595 31.7207 6.68711 31.9127 6.64944C32.1046 6.61177 32.2741 6.57051 32.4212 6.52566C32.5683 6.48081 32.6742 6.44763 32.7388 6.4261L32.8894 6.92122C32.7782 6.96786 32.6329 7.0145 32.4535 7.06114C32.2759 7.10778 32.0858 7.14635 31.8831 7.17685C31.6822 7.20734 31.4902 7.22259 31.3072 7.22259ZM30.9951 5.08067C31.2355 5.08067 31.4301 5.03224 31.579 4.93537C31.7279 4.8385 31.8364 4.69229 31.9046 4.49676C31.9728 4.30122 32.0068 4.05456 32.0068 3.75677C32.0068 3.4554 31.9692 3.2204 31.8938 3.05177C31.8185 2.88314 31.7073 2.76474 31.5602 2.69658C31.4131 2.62841 31.2319 2.59432 31.0166 2.59432C30.8121 2.59432 30.6372 2.64814 30.4919 2.75577C30.3484 2.86161 30.2381 3.00333 30.1609 3.18093C30.0856 3.35673 30.0479 3.54868 30.0479 3.75677C30.0479 3.98639 30.0784 4.20256 30.1394 4.40527C30.2004 4.60619 30.2999 4.76943 30.4381 4.895C30.5762 5.01878 30.7619 5.08067 30.9951 5.08067ZM37.069 1.63638V2.17455H34.841V1.63638H37.069ZM35.5083 5.76953V1.06592C35.5083 0.829123 35.5639 0.631793 35.6752 0.47393C35.7864 0.316066 35.9308 0.197669 36.1084 0.118737C36.286 0.0398053 36.4734 0.000339415 36.6708 0.000339415C36.8268 0.000339415 36.9542 0.0128968 37.0529 0.0380116C37.1515 0.0631261 37.2251 0.0864468 37.2735 0.107974L37.0905 0.656908C37.0583 0.646145 37.0134 0.63269 36.956 0.616545C36.9004 0.6004 36.8268 0.592327 36.7354 0.592327C36.5255 0.592327 36.3739 0.645248 36.2806 0.751088C36.1891 0.856928 36.1434 1.0121 36.1434 1.21661V5.76953H35.5083ZM37.959 5.76953V1.63638H38.5941V5.76953H37.959ZM38.2819 0.947521C38.1581 0.947521 38.0514 0.905364 37.9617 0.82105C37.8738 0.736737 37.8299 0.635381 37.8299 0.516984C37.8299 0.398586 37.8738 0.297231 37.9617 0.212917C38.0514 0.128604 38.1581 0.0864471 38.2819 0.0864471C38.4057 0.0864471 38.5115 0.128604 38.5994 0.212917C38.6891 0.297231 38.734 0.398586 38.734 0.516984C38.734 0.635381 38.6891 0.736737 38.5994 0.82105C38.5115 0.905364 38.4057 0.947521 38.2819 0.947521ZM42.6848 2.56203L42.1144 2.72348C42.0785 2.62841 42.0256 2.53602 41.9556 2.44633C41.8874 2.35484 41.7942 2.27949 41.6758 2.22029C41.5574 2.1611 41.4058 2.1315 41.221 2.1315C40.9681 2.1315 40.7573 2.1898 40.5887 2.3064C40.4218 2.42121 40.3384 2.56741 40.3384 2.74501C40.3384 2.90287 40.3958 3.02755 40.5106 3.11904C40.6254 3.21053 40.8048 3.28677 41.0488 3.34776L41.6623 3.49845C42.0319 3.58815 42.3072 3.72538 42.4884 3.91015C42.6696 4.09313 42.7602 4.32903 42.7602 4.61785C42.7602 4.85464 42.692 5.06632 42.5557 5.25289C42.4211 5.43945 42.2328 5.58655 41.9906 5.69419C41.7484 5.80182 41.4668 5.85564 41.1457 5.85564C40.7241 5.85564 40.3752 5.76415 40.0989 5.58117C39.8227 5.39819 39.6478 5.1309 39.5742 4.7793L40.177 4.62861C40.2344 4.85105 40.3429 5.01789 40.5025 5.12911C40.664 5.24033 40.8748 5.29594 41.1349 5.29594C41.4309 5.29594 41.6659 5.23315 41.8399 5.10758C42.0157 4.98021 42.1036 4.82773 42.1036 4.65014C42.1036 4.50662 42.0534 4.38643 41.9529 4.28956C41.8525 4.1909 41.6982 4.11735 41.4901 4.06891L40.8012 3.90746C40.4227 3.81777 40.1447 3.67874 39.9671 3.49038C39.7913 3.30022 39.7034 3.06253 39.7034 2.7773C39.7034 2.54409 39.7688 2.3378 39.8998 2.1584C40.0325 1.97901 40.2128 1.83819 40.4407 1.73594C40.6703 1.63369 40.9304 1.58256 41.221 1.58256C41.63 1.58256 41.9511 1.67226 42.1843 1.85165C42.4193 2.03104 42.5862 2.26783 42.6848 2.56203ZM45.5136 1.63638V2.17455H43.3717V1.63638H45.5136ZM43.9959 0.646145H44.631V4.58556C44.631 4.76495 44.657 4.89949 44.709 4.98918C44.7628 5.07708 44.831 5.13628 44.9135 5.16678C44.9978 5.19548 45.0866 5.20983 45.1799 5.20983C45.2499 5.20983 45.3073 5.20625 45.3521 5.19907C45.397 5.1901 45.4329 5.18293 45.4598 5.17754L45.5889 5.748C45.5459 5.76415 45.4858 5.78029 45.4086 5.79644C45.3315 5.81438 45.2337 5.82335 45.1153 5.82335C44.936 5.82335 44.7602 5.78478 44.5879 5.70764C44.4175 5.6305 44.2758 5.513 44.1628 5.35514C44.0516 5.19728 43.9959 4.99815 43.9959 4.75777V0.646145ZM48.6888 3.11097V3.70296H46.2778V3.11097H48.6888ZM51.4853 5.85564C51.1121 5.85564 50.7848 5.76684 50.5031 5.58924C50.2233 5.41165 50.0044 5.16319 49.8465 4.84388C49.6905 4.52456 49.6124 4.15143 49.6124 3.72448C49.6124 3.29395 49.6905 2.91812 49.8465 2.59701C50.0044 2.27591 50.2233 2.02655 50.5031 1.84896C50.7848 1.67136 51.1121 1.58256 51.4853 1.58256C51.8584 1.58256 52.1849 1.67136 52.4647 1.84896C52.7464 2.02655 52.9652 2.27591 53.1213 2.59701C53.2792 2.91812 53.3581 3.29395 53.3581 3.72448C53.3581 4.15143 53.2792 4.52456 53.1213 4.84388C52.9652 5.16319 52.7464 5.41165 52.4647 5.58924C52.1849 5.76684 51.8584 5.85564 51.4853 5.85564ZM51.4853 5.28518C51.7687 5.28518 52.0019 5.21252 52.1849 5.06722C52.3679 4.92191 52.5033 4.73086 52.5912 4.49407C52.6791 4.25727 52.7231 4.00074 52.7231 3.72448C52.7231 3.44822 52.6791 3.1908 52.5912 2.95221C52.5033 2.71362 52.3679 2.52077 52.1849 2.37367C52.0019 2.22657 51.7687 2.15302 51.4853 2.15302C51.2018 2.15302 50.9686 2.22657 50.7856 2.37367C50.6027 2.52077 50.4672 2.71362 50.3793 2.95221C50.2914 3.1908 50.2475 3.44822 50.2475 3.72448C50.2475 4.00074 50.2914 4.25727 50.3793 4.49407C50.4672 4.73086 50.6027 4.92191 50.7856 5.06722C50.9686 5.21252 51.2018 5.28518 51.4853 5.28518ZM54.7903 5.81258C54.6576 5.81258 54.5436 5.76505 54.4486 5.66997C54.3535 5.57489 54.306 5.46098 54.306 5.32823C54.306 5.19548 54.3535 5.08157 54.4486 4.98649C54.5436 4.89142 54.6576 4.84388 54.7903 4.84388C54.9231 4.84388 55.037 4.89142 55.132 4.98649C55.2271 5.08157 55.2747 5.19548 55.2747 5.32823C55.2747 5.41613 55.2522 5.49686 55.2074 5.57041C55.1643 5.64396 55.106 5.70316 55.0325 5.748C54.9607 5.79106 54.88 5.81258 54.7903 5.81258ZM58.0933 5.85564C57.7059 5.85564 57.3722 5.76415 57.0923 5.58117C56.8125 5.39819 56.5972 5.14615 56.4465 4.82504C56.2958 4.50393 56.2205 4.13708 56.2205 3.72448C56.2205 3.30471 56.2976 2.93427 56.4519 2.61316C56.608 2.29026 56.825 2.03821 57.1031 1.85703C57.3829 1.67405 57.7094 1.58256 58.0826 1.58256C58.3732 1.58256 58.6351 1.63638 58.8683 1.74401C59.1015 1.85165 59.2926 2.00234 59.4415 2.19608C59.5903 2.38982 59.6827 2.61585 59.7186 2.87417H59.0836C59.0351 2.68581 58.9275 2.51898 58.7607 2.37367C58.5956 2.22657 58.3732 2.15302 58.0933 2.15302C57.8458 2.15302 57.6287 2.2176 57.4421 2.34676C57.2574 2.47413 57.113 2.65442 57.0089 2.88763C56.9067 3.11904 56.8555 3.39082 56.8555 3.70296C56.8555 4.02227 56.9058 4.30032 57.0062 4.53712C57.1085 4.77392 57.252 4.95779 57.4368 5.08875C57.6233 5.2197 57.8422 5.28518 58.0933 5.28518C58.2584 5.28518 58.4082 5.25648 58.5427 5.19907C58.6772 5.14167 58.7912 5.05915 58.8844 4.95151C58.9777 4.84388 59.0441 4.71472 59.0836 4.56403H59.7186C59.6827 4.808 59.5939 5.02775 59.4522 5.22329C59.3123 5.41703 59.1266 5.5713 58.8952 5.68611C58.6656 5.79913 58.3983 5.85564 58.0933 5.85564ZM62.326 5.85564C61.9529 5.85564 61.6255 5.76684 61.3439 5.58924C61.064 5.41165 60.8452 5.16319 60.6873 4.84388C60.5312 4.52456 60.4532 4.15143 60.4532 3.72448C60.4532 3.29395 60.5312 2.91812 60.6873 2.59701C60.8452 2.27591 61.064 2.02655 61.3439 1.84896C61.6255 1.67136 61.9529 1.58256 62.326 1.58256C62.6992 1.58256 63.0257 1.67136 63.3055 1.84896C63.5872 2.02655 63.806 2.27591 63.9621 2.59701C64.12 2.91812 64.1989 3.29395 64.1989 3.72448C64.1989 4.15143 64.12 4.52456 63.9621 4.84388C63.806 5.16319 63.5872 5.41165 63.3055 5.58924C63.0257 5.76684 62.6992 5.85564 62.326 5.85564ZM62.326 5.28518C62.6095 5.28518 62.8427 5.21252 63.0257 5.06722C63.2086 4.92191 63.3441 4.73086 63.432 4.49407C63.5199 4.25727 63.5638 4.00074 63.5638 3.72448C63.5638 3.44822 63.5199 3.1908 63.432 2.95221C63.3441 2.71362 63.2086 2.52077 63.0257 2.37367C62.8427 2.22657 62.6095 2.15302 62.326 2.15302C62.0426 2.15302 61.8094 2.22657 61.6264 2.37367C61.4434 2.52077 61.308 2.71362 61.2201 2.95221C61.1322 3.1908 61.0883 3.44822 61.0883 3.72448C61.0883 4.00074 61.1322 4.25727 61.2201 4.49407C61.308 4.73086 61.4434 4.92191 61.6264 5.06722C61.8094 5.21252 62.0426 5.28518 62.326 5.28518ZM65.1683 5.76953V1.63638H65.7818V2.28218H65.8356C65.9217 2.06153 66.0607 1.89022 66.2527 1.76823C66.4446 1.64445 66.6751 1.58256 66.9442 1.58256C67.2169 1.58256 67.4438 1.64445 67.625 1.76823C67.808 1.89022 67.9506 2.06153 68.0529 2.28218H68.0959C68.2018 2.06871 68.3605 1.89919 68.5722 1.77361C68.7839 1.64625 69.0377 1.58256 69.3337 1.58256C69.7032 1.58256 70.0055 1.69827 70.2405 1.92968C70.4755 2.1593 70.593 2.51719 70.593 3.00333V5.76953H69.958V3.00333C69.958 2.69837 69.8746 2.48041 69.7077 2.34946C69.5409 2.2185 69.3445 2.15302 69.1184 2.15302C68.8278 2.15302 68.6027 2.24092 68.443 2.41673C68.2834 2.59074 68.2035 2.81139 68.2035 3.07868V5.76953H67.5577V2.93875C67.5577 2.70375 67.4815 2.51449 67.329 2.37098C67.1765 2.22568 66.9801 2.15302 66.7397 2.15302C66.5747 2.15302 66.4204 2.19697 66.2769 2.28487C66.1352 2.37278 66.0204 2.49476 65.9325 2.65083C65.8464 2.80511 65.8033 2.9836 65.8033 3.18631V5.76953H65.1683Z" fill="white"/>
</svg>
