<svg width="78" height="15" viewBox="0 0 78 15" fill="none" xmlns="http://www.w3.org/2000/svg">
<g clip-path="url(#clip0_1902_44)">
<path d="M11.0037 7.46131C11.0019 6.90383 10.9422 6.34804 10.8254 5.80292H12.318C12.2415 5.57539 12.1487 5.3537 12.0402 5.13957H10.6513C10.3904 4.26722 9.98538 3.44465 9.45313 2.70589C9.11315 2.56294 8.75867 2.45729 8.39591 2.39079C9.12522 3.17383 9.67553 4.1061 10.0087 5.12298H7.77401V2.32031H7.15212V5.12713H4.91744C5.25127 4.1084 5.80304 3.17464 6.53437 2.39079C6.17318 2.45624 5.8201 2.56049 5.48129 2.70174C4.94693 3.43741 4.53917 4.25715 4.27482 5.12713H2.87763C2.76718 5.34516 2.67295 5.57104 2.5957 5.80292H4.10069C3.98395 6.34804 3.9242 6.90383 3.92241 7.46131C3.92366 8.07108 3.99319 8.6788 4.12971 9.27309H2.66204C2.74734 9.50568 2.84989 9.73157 2.96884 9.94888H4.30799C4.56168 10.7432 4.93798 11.493 5.42325 12.1711C5.77069 12.3201 6.13362 12.4299 6.50535 12.4987C5.8286 11.7606 5.3082 10.8933 4.97549 9.94888H7.15626V12.5774H7.77816V9.94888H9.95064C9.61669 10.8937 9.09487 11.761 8.41664 12.4987C8.7901 12.4276 9.15445 12.3149 9.50288 12.1628C9.98739 11.4873 10.3637 10.7403 10.6181 9.94888H11.9448C12.0632 9.73559 12.1658 9.51387 12.2517 9.28553H10.7798C10.9229 8.68782 10.998 8.07587 11.0037 7.46131ZM7.15212 9.27309H4.77233C4.48061 8.13204 4.46781 6.93753 4.73502 5.79048H7.15212V9.27309ZM10.1538 9.27309H7.77401V5.80292H10.1911C10.3102 6.34759 10.3686 6.90378 10.3652 7.46131C10.3691 8.07161 10.2981 8.68008 10.1538 9.27309Z" fill="white"/>
<path d="M7.46362 0.828125C6.15163 0.828125 4.8691 1.21718 3.77822 1.94608C2.68734 2.67498 1.83711 3.711 1.33503 4.92312C0.832952 6.13524 0.701586 7.46903 0.957543 8.75581C1.2135 10.0426 1.84528 11.2246 2.773 12.1523C3.70072 13.08 4.8827 13.7118 6.16948 13.9677C7.45626 14.2237 8.79005 14.0923 10.0022 13.5903C11.2143 13.0882 12.2503 12.2379 12.9792 11.1471C13.7081 10.0562 14.0972 8.77366 14.0972 7.46167C14.0972 5.70234 13.3983 4.01507 12.1542 2.77104C10.9102 1.52701 9.22295 0.828125 7.46362 0.828125ZM7.46362 13.266C6.31563 13.266 5.19342 12.9256 4.2389 12.2878C3.28438 11.65 2.54042 10.7435 2.1011 9.68289C1.66179 8.62229 1.54684 7.45523 1.7708 6.32929C1.99476 5.20336 2.54758 4.16912 3.35933 3.35737C4.17108 2.54562 5.20532 1.99281 6.33125 1.76885C7.45718 1.54488 8.62425 1.65983 9.68485 2.09915C10.7455 2.53846 11.652 3.28242 12.2898 4.23694C12.9276 5.19146 13.268 6.31367 13.268 7.46167C13.268 9.00108 12.6564 10.4774 11.5679 11.566C10.4794 12.6545 9.00303 13.266 7.46362 13.266Z" fill="white"/>
</g>
<path d="M22.1954 10.4609L20.9361 6.32779H21.6034L22.4968 9.49223H22.5398L23.4224 6.32779H24.1005L24.9723 9.48147H25.0154L25.9088 6.32779H26.5761L25.3168 10.4609H24.6925L23.7884 7.28573H23.7238L22.8197 10.4609H22.1954ZM28.3521 10.4609L27.0927 6.32779H27.7601L28.6534 9.49223H28.6965L29.5791 6.32779H30.2572L31.129 9.48147H31.1721L32.0654 6.32779H32.7328L31.4734 10.4609H30.8492L29.945 7.28573H29.8805L28.9763 10.4609H28.3521ZM34.5087 10.4609L33.2494 6.32779H33.9167L34.8101 9.49223H34.8532L35.7358 6.32779H36.4138L37.2857 9.48147H37.3287L38.2221 6.32779H38.8894L37.6301 10.4609H37.0058L36.1017 7.28573H36.0371L35.133 10.4609H34.5087ZM39.6294 10.504C39.4967 10.504 39.3828 10.4565 39.2877 10.3614C39.1926 10.2663 39.1451 10.1524 39.1451 10.0196C39.1451 9.88689 39.1926 9.77298 39.2877 9.6779C39.3828 9.58282 39.4967 9.53528 39.6294 9.53528C39.7622 9.53528 39.8761 9.58282 39.9712 9.6779C40.0662 9.77298 40.1138 9.88689 40.1138 10.0196C40.1138 10.1075 40.0914 10.1883 40.0465 10.2618C40.0034 10.3354 39.9451 10.3946 39.8716 10.4394C39.7998 10.4825 39.7191 10.504 39.6294 10.504ZM43.0939 6.32779V6.86596H40.8659V6.32779H43.0939ZM41.5332 10.4609V5.75732C41.5332 5.52053 41.5888 5.3232 41.7 5.16534C41.8113 5.00747 41.9557 4.88907 42.1333 4.81014C42.3109 4.73121 42.4983 4.69175 42.6956 4.69175C42.8517 4.69175 42.9791 4.7043 43.0778 4.72942C43.1764 4.75453 43.25 4.77785 43.2984 4.79938L43.1154 5.34831C43.0831 5.33755 43.0383 5.3241 42.9809 5.30795C42.9253 5.29181 42.8517 5.28373 42.7602 5.28373C42.5503 5.28373 42.3988 5.33665 42.3055 5.44249C42.214 5.54833 42.1682 5.70351 42.1682 5.90801V10.4609H41.5332ZM43.9839 10.4609V6.32779H44.6189V10.4609H43.9839ZM44.3068 5.63893C44.183 5.63893 44.0763 5.59677 43.9866 5.51246C43.8987 5.42814 43.8547 5.32679 43.8547 5.20839C43.8547 5.08999 43.8987 4.98864 43.9866 4.90432C44.0763 4.82001 44.183 4.77785 44.3068 4.77785C44.4306 4.77785 44.5364 4.82001 44.6243 4.90432C44.714 4.98864 44.7589 5.08999 44.7589 5.20839C44.7589 5.32679 44.714 5.42814 44.6243 5.51246C44.5364 5.59677 44.4306 5.63893 44.3068 5.63893ZM48.7097 7.25344L48.1392 7.41489C48.1034 7.31981 48.0504 7.22743 47.9805 7.13773C47.9123 7.04624 47.819 6.9709 47.7006 6.9117C47.5822 6.8525 47.4307 6.8229 47.2459 6.8229C46.9929 6.8229 46.7822 6.8812 46.6135 6.99781C46.4467 7.11262 46.3633 7.25882 46.3633 7.43642C46.3633 7.59428 46.4207 7.71896 46.5355 7.81045C46.6503 7.90194 46.8297 7.97818 47.0737 8.03917L47.6872 8.18986C48.0567 8.27955 48.3321 8.41679 48.5133 8.60156C48.6945 8.78454 48.7851 9.02043 48.7851 9.30925C48.7851 9.54605 48.7169 9.75773 48.5805 9.94429C48.446 10.1309 48.2576 10.278 48.0155 10.3856C47.7733 10.4932 47.4916 10.547 47.1705 10.547C46.749 10.547 46.4001 10.4556 46.1238 10.2726C45.8475 10.0896 45.6726 9.82231 45.5991 9.4707L46.2018 9.32002C46.2592 9.54246 46.3678 9.70929 46.5274 9.82051C46.6889 9.93174 46.8997 9.98735 47.1598 9.98735C47.4558 9.98735 47.6908 9.92456 47.8648 9.79899C48.0406 9.67162 48.1285 9.51914 48.1285 9.34154C48.1285 9.19803 48.0783 9.07784 47.9778 8.98097C47.8773 8.8823 47.7231 8.80875 47.515 8.76032L46.8261 8.59887C46.4476 8.50917 46.1695 8.37014 45.9919 8.18178C45.8161 7.99163 45.7282 7.75394 45.7282 7.46871C45.7282 7.2355 45.7937 7.0292 45.9247 6.84981C46.0574 6.67042 46.2377 6.5296 46.4655 6.42735C46.6952 6.32509 46.9553 6.27397 47.2459 6.27397C47.6549 6.27397 47.976 6.36366 48.2092 6.54305C48.4442 6.72244 48.611 6.95924 48.7097 7.25344ZM51.5385 6.32779V6.86596H49.3965V6.32779H51.5385ZM50.0208 5.33755H50.6559V9.27696C50.6559 9.45635 50.6819 9.59089 50.7339 9.68059C50.7877 9.76849 50.8559 9.82769 50.9384 9.85819C51.0227 9.88689 51.1115 9.90124 51.2048 9.90124C51.2748 9.90124 51.3322 9.89765 51.377 9.89048C51.4219 9.88151 51.4577 9.87433 51.4847 9.86895L51.6138 10.4394C51.5708 10.4556 51.5107 10.4717 51.4335 10.4878C51.3564 10.5058 51.2586 10.5148 51.1402 10.5148C50.9608 10.5148 50.785 10.4762 50.6128 10.399C50.4424 10.3219 50.3007 10.2044 50.1877 10.0465C50.0764 9.88868 50.0208 9.68956 50.0208 9.44918V5.33755ZM54.7137 7.80237V8.39436H52.3027V7.80237H54.7137ZM57.5101 10.547C57.137 10.547 56.8096 10.4582 56.528 10.2807C56.2481 10.1031 56.0293 9.8546 55.8714 9.53528C55.7153 9.21597 55.6373 8.84284 55.6373 8.41589C55.6373 7.98535 55.7153 7.60953 55.8714 7.28842C56.0293 6.96731 56.2481 6.71796 56.528 6.54036C56.8096 6.36277 57.137 6.27397 57.5101 6.27397C57.8833 6.27397 58.2098 6.36277 58.4896 6.54036C58.7713 6.71796 58.9901 6.96731 59.1462 7.28842C59.304 7.60953 59.383 7.98535 59.383 8.41589C59.383 8.84284 59.304 9.21597 59.1462 9.53528C58.9901 9.8546 58.7713 10.1031 58.4896 10.2807C58.2098 10.4582 57.8833 10.547 57.5101 10.547ZM57.5101 9.97658C57.7936 9.97658 58.0268 9.90393 58.2098 9.75862C58.3927 9.61332 58.5282 9.42227 58.6161 9.18547C58.704 8.94868 58.7479 8.69215 58.7479 8.41589C58.7479 8.13963 58.704 7.8822 58.6161 7.64361C58.5282 7.40502 58.3927 7.21218 58.2098 7.06508C58.0268 6.91798 57.7936 6.84443 57.5101 6.84443C57.2267 6.84443 56.9935 6.91798 56.8105 7.06508C56.6275 7.21218 56.4921 7.40502 56.4042 7.64361C56.3163 7.8822 56.2724 8.13963 56.2724 8.41589C56.2724 8.69215 56.3163 8.94868 56.4042 9.18547C56.4921 9.42227 56.6275 9.61332 56.8105 9.75862C56.9935 9.90393 57.2267 9.97658 57.5101 9.97658ZM60.8152 10.504C60.6824 10.504 60.5685 10.4565 60.4735 10.3614C60.3784 10.2663 60.3308 10.1524 60.3308 10.0196C60.3308 9.88689 60.3784 9.77298 60.4735 9.6779C60.5685 9.58282 60.6824 9.53528 60.8152 9.53528C60.9479 9.53528 61.0619 9.58282 61.1569 9.6779C61.252 9.77298 61.2995 9.88689 61.2995 10.0196C61.2995 10.1075 61.2771 10.1883 61.2323 10.2618C61.1892 10.3354 61.1309 10.3946 61.0574 10.4394C60.9856 10.4825 60.9049 10.504 60.8152 10.504ZM64.1182 10.547C63.7307 10.547 63.3971 10.4556 63.1172 10.2726C62.8374 10.0896 62.6221 9.83756 62.4714 9.51645C62.3207 9.19534 62.2454 8.82849 62.2454 8.41589C62.2454 7.99611 62.3225 7.62567 62.4768 7.30457C62.6329 6.98166 62.8499 6.72962 63.128 6.54844C63.4078 6.36546 63.7343 6.27397 64.1074 6.27397C64.3981 6.27397 64.66 6.32779 64.8932 6.43542C65.1264 6.54305 65.3174 6.69374 65.4663 6.88748C65.6152 7.08122 65.7076 7.30726 65.7435 7.56558H65.1084C65.06 7.37722 64.9524 7.21039 64.7855 7.06508C64.6205 6.91798 64.3981 6.84443 64.1182 6.84443C63.8707 6.84443 63.6536 6.90901 63.467 7.03817C63.2823 7.16554 63.1378 7.34583 63.0338 7.57903C62.9315 7.81045 62.8804 8.08222 62.8804 8.39436C62.8804 8.71368 62.9306 8.99173 63.0311 9.22853C63.1334 9.46532 63.2769 9.6492 63.4616 9.78015C63.6482 9.91111 63.8671 9.97658 64.1182 9.97658C64.2833 9.97658 64.433 9.94788 64.5676 9.89048C64.7021 9.83307 64.816 9.75055 64.9093 9.64292C65.0026 9.53528 65.069 9.40612 65.1084 9.25543H65.7435C65.7076 9.49941 65.6188 9.71916 65.4771 9.91469C65.3372 10.1084 65.1515 10.2627 64.9201 10.3775C64.6905 10.4905 64.4232 10.547 64.1182 10.547ZM68.3509 10.547C67.9778 10.547 67.6504 10.4582 67.3688 10.2807C67.0889 10.1031 66.8701 9.8546 66.7122 9.53528C66.5561 9.21597 66.4781 8.84284 66.4781 8.41589C66.4781 7.98535 66.5561 7.60953 66.7122 7.28842C66.8701 6.96731 67.0889 6.71796 67.3688 6.54036C67.6504 6.36277 67.9778 6.27397 68.3509 6.27397C68.7241 6.27397 69.0505 6.36277 69.3304 6.54036C69.612 6.71796 69.8309 6.96731 69.987 7.28842C70.1448 7.60953 70.2238 7.98535 70.2238 8.41589C70.2238 8.84284 70.1448 9.21597 69.987 9.53528C69.8309 9.8546 69.612 10.1031 69.3304 10.2807C69.0505 10.4582 68.7241 10.547 68.3509 10.547ZM68.3509 9.97658C68.6344 9.97658 68.8676 9.90393 69.0505 9.75862C69.2335 9.61332 69.369 9.42227 69.4569 9.18547C69.5448 8.94868 69.5887 8.69215 69.5887 8.41589C69.5887 8.13963 69.5448 7.8822 69.4569 7.64361C69.369 7.40502 69.2335 7.21218 69.0505 7.06508C68.8676 6.91798 68.6344 6.84443 68.3509 6.84443C68.0675 6.84443 67.8343 6.91798 67.6513 7.06508C67.4683 7.21218 67.3329 7.40502 67.245 7.64361C67.1571 7.8822 67.1131 8.13963 67.1131 8.41589C67.1131 8.69215 67.1571 8.94868 67.245 9.18547C67.3329 9.42227 67.4683 9.61332 67.6513 9.75862C67.8343 9.90393 68.0675 9.97658 68.3509 9.97658ZM71.1931 10.4609V6.32779H71.8067V6.97359H71.8605C71.9466 6.75294 72.0856 6.58162 72.2776 6.45964C72.4695 6.33586 72.7 6.27397 72.9691 6.27397C73.2418 6.27397 73.4687 6.33586 73.6499 6.45964C73.8329 6.58162 73.9755 6.75294 74.0777 6.97359H74.1208C74.2266 6.76012 74.3854 6.59059 74.5971 6.46502C74.8088 6.33765 75.0626 6.27397 75.3586 6.27397C75.7281 6.27397 76.0304 6.38968 76.2654 6.62109C76.5004 6.85071 76.6179 7.20859 76.6179 7.69474V10.4609H75.9829V7.69474C75.9829 7.38978 75.8994 7.17182 75.7326 7.04086C75.5658 6.90991 75.3693 6.84443 75.1433 6.84443C74.8527 6.84443 74.6276 6.93233 74.4679 7.10813C74.3083 7.28214 74.2284 7.50279 74.2284 7.77008V10.4609H73.5826V7.63016C73.5826 7.39516 73.5064 7.2059 73.3539 7.06239C73.2014 6.91708 73.005 6.84443 72.7646 6.84443C72.5996 6.84443 72.4453 6.88838 72.3018 6.97628C72.1601 7.06418 72.0452 7.18617 71.9573 7.34224C71.8712 7.49651 71.8282 7.67501 71.8282 7.87772V10.4609H71.1931Z" fill="white"/>
<defs>
<clipPath id="clip0_1902_44">
<rect width="14.9255" height="14.9255" fill="white"/>
</clipPath>
</defs>
</svg>
