<svg width="367" height="21" viewBox="0 0 367 21" fill="none" xmlns="http://www.w3.org/2000/svg">
<path d="M53 10.5H1" stroke="#00B1EF" stroke-width="2" stroke-linecap="round"/>
<path d="M69.2539 2.79599V18H66.4996V2.79599H69.2539ZM84.7307 2.79599V18H82.2808L75.1168 7.64375H74.9906V18H72.2364V2.79599H74.7011L81.8577 13.1597H81.9913V2.79599H84.7307ZM92.8839 18H87.7318V2.79599H92.9878C94.4974 2.79599 95.7941 3.10037 96.8779 3.70912C97.9668 4.31293 98.8032 5.18152 99.3872 6.31489C99.9712 7.44826 100.263 8.80435 100.263 10.3831C100.263 11.9669 99.9687 13.3279 99.3798 14.4663C98.7958 15.6046 97.9519 16.4781 96.8482 17.0869C95.7495 17.6956 94.4281 18 92.8839 18ZM90.486 15.6169H92.7503C93.8094 15.6169 94.6929 15.4239 95.4006 15.0379C96.1083 14.6469 96.6404 14.0654 96.9967 13.2933C97.3531 12.5163 97.5312 11.5462 97.5312 10.3831C97.5312 9.22008 97.3531 8.25498 96.9967 7.48785C96.6404 6.71577 96.1133 6.13919 95.4154 5.7581C94.7226 5.37206 93.8614 5.17904 92.8319 5.17904H90.486V15.6169ZM112.464 2.79599H115.219V12.7291C115.219 13.8179 114.961 14.7756 114.446 15.6021C113.937 16.4286 113.219 17.0745 112.294 17.5397C111.368 18 110.287 18.2301 109.049 18.2301C107.807 18.2301 106.723 18 105.798 17.5397C104.872 17.0745 104.155 16.4286 103.645 15.6021C103.135 14.7756 102.88 13.8179 102.88 12.7291V2.79599H105.634V12.4989C105.634 13.1324 105.773 13.6967 106.05 14.1916C106.332 14.6865 106.728 15.075 107.238 15.3571C107.748 15.6343 108.351 15.7729 109.049 15.7729C109.747 15.7729 110.351 15.6343 110.861 15.3571C111.375 15.075 111.771 14.6865 112.049 14.1916C112.326 13.6967 112.464 13.1324 112.464 12.4989V2.79599ZM126.475 6.97561C126.406 6.32726 126.114 5.82244 125.599 5.46115C125.089 5.09985 124.426 4.91921 123.609 4.91921C123.035 4.91921 122.543 5.00582 122.132 5.17904C121.721 5.35226 121.407 5.58735 121.189 5.8843C120.971 6.18126 120.86 6.52028 120.855 6.90137C120.855 7.21812 120.927 7.4928 121.07 7.72542C121.219 7.95803 121.419 8.156 121.672 8.31932C121.924 8.4777 122.204 8.61133 122.511 8.72021C122.817 8.82909 123.127 8.92065 123.439 8.99489L124.864 9.35123C125.438 9.48486 125.99 9.66551 126.519 9.89318C127.054 10.1208 127.532 10.4079 127.952 10.7543C128.378 11.1008 128.714 11.519 128.962 12.009C129.209 12.4989 129.333 13.073 129.333 13.7313C129.333 14.6222 129.105 15.4066 128.65 16.0847C128.195 16.7577 127.537 17.2848 126.675 17.6659C125.819 18.0421 124.782 18.2301 123.565 18.2301C122.382 18.2301 121.355 18.047 120.484 17.6808C119.618 17.3145 118.94 16.78 118.45 16.0772C117.965 15.3744 117.702 14.5182 117.663 13.5086H120.373C120.412 14.0381 120.575 14.4786 120.862 14.83C121.15 15.1814 121.523 15.4437 121.983 15.6169C122.449 15.7902 122.968 15.8768 123.542 15.8768C124.141 15.8768 124.666 15.7877 125.116 15.6095C125.572 15.4264 125.928 15.174 126.185 14.8523C126.443 14.5256 126.574 14.1446 126.579 13.709C126.574 13.3131 126.458 12.9864 126.23 12.7291C126.002 12.4668 125.683 12.249 125.272 12.0758C124.866 11.8976 124.391 11.7392 123.847 11.6007L122.117 11.1552C120.865 10.8335 119.875 10.346 119.148 9.69273C118.425 9.03449 118.064 8.16095 118.064 7.07212C118.064 6.17631 118.306 5.39186 118.791 4.71876C119.281 4.04567 119.947 3.52353 120.788 3.15233C121.63 2.77619 122.582 2.58812 123.646 2.58812C124.725 2.58812 125.671 2.77619 126.482 3.15233C127.299 3.52353 127.94 4.04072 128.405 4.70392C128.87 5.36216 129.11 6.11939 129.125 6.97561H126.475ZM131.12 5.1048V2.79599H143.251V5.1048H138.552V18H135.82V5.1048H131.12ZM145.589 18V2.79599H151.291C152.459 2.79599 153.439 2.99891 154.231 3.40475C155.028 3.81058 155.629 4.37974 156.035 5.11223C156.446 5.83976 156.651 6.68855 156.651 7.6586C156.651 8.6336 156.443 9.47991 156.027 10.1976C155.617 10.9102 155.01 11.4621 154.208 11.8531C153.407 12.2391 152.422 12.4321 151.254 12.4321H147.193V10.1456H150.883C151.566 10.1456 152.125 10.0515 152.56 9.86348C152.996 9.67046 153.318 9.39083 153.525 9.02459C153.738 8.65339 153.845 8.19807 153.845 7.6586C153.845 7.11914 153.738 6.65886 153.525 6.27777C153.313 5.89173 152.988 5.59972 152.553 5.40176C152.117 5.19884 151.556 5.09738 150.868 5.09738H148.344V18H145.589ZM153.444 11.1107L157.208 18H154.134L150.437 11.1107H153.444ZM161.94 2.79599V18H159.186V2.79599H161.94ZM164.923 18V2.79599H174.811V5.1048H167.677V9.23245H174.299V11.5413H167.677V15.6912H174.871V18H164.923ZM185.884 6.97561C185.815 6.32726 185.523 5.82244 185.008 5.46115C184.498 5.09985 183.835 4.91921 183.019 4.91921C182.444 4.91921 181.952 5.00582 181.541 5.17904C181.13 5.35226 180.816 5.58735 180.598 5.8843C180.381 6.18126 180.269 6.52028 180.264 6.90137C180.264 7.21812 180.336 7.4928 180.48 7.72542C180.628 7.95803 180.828 8.156 181.081 8.31932C181.333 8.4777 181.613 8.61133 181.92 8.72021C182.227 8.82909 182.536 8.92065 182.848 8.99489L184.273 9.35123C184.847 9.48486 185.399 9.66551 185.929 9.89318C186.463 10.1208 186.941 10.4079 187.361 10.7543C187.787 11.1008 188.124 11.519 188.371 12.009C188.619 12.4989 188.742 13.073 188.742 13.7313C188.742 14.6222 188.515 15.4066 188.059 16.0847C187.604 16.7577 186.946 17.2848 186.085 17.6659C185.228 18.0421 184.191 18.2301 182.974 18.2301C181.791 18.2301 180.764 18.047 179.893 17.6808C179.027 17.3145 178.349 16.78 177.859 16.0772C177.374 15.3744 177.112 14.5182 177.072 13.5086H179.782C179.821 14.0381 179.985 14.4786 180.272 14.83C180.559 15.1814 180.932 15.4437 181.393 15.6169C181.858 15.7902 182.378 15.8768 182.952 15.8768C183.551 15.8768 184.075 15.7877 184.526 15.6095C184.981 15.4264 185.337 15.174 185.595 14.8523C185.852 14.5256 185.983 14.1446 185.988 13.709C185.983 13.3131 185.867 12.9864 185.639 12.7291C185.411 12.4668 185.092 12.249 184.681 12.0758C184.276 11.8976 183.8 11.7392 183.256 11.6007L181.526 11.1552C180.274 10.8335 179.284 10.346 178.557 9.69273C177.834 9.03449 177.473 8.16095 177.473 7.07212C177.473 6.17631 177.715 5.39186 178.2 4.71876C178.69 4.04567 179.356 3.52353 180.197 3.15233C181.039 2.77619 181.992 2.58812 183.056 2.58812C184.135 2.58812 185.08 2.77619 185.892 3.15233C186.708 3.52353 187.349 4.04072 187.814 4.70392C188.28 5.36216 188.52 6.11939 188.534 6.97561H185.884ZM199.583 18L195.292 2.79599H198.254L200.993 13.9689H201.135L204.06 2.79599H206.754L209.687 13.9763H209.82L212.56 2.79599H215.522L211.231 18H208.514L205.47 7.33195H205.351L202.3 18H199.583ZM217.432 18V2.79599H227.32V5.1048H220.186V9.23245H226.808V11.5413H220.186V15.6912H227.38V18H217.432ZM243.578 6.97561C243.509 6.32726 243.217 5.82244 242.702 5.46115C242.193 5.09985 241.529 4.91921 240.713 4.91921C240.139 4.91921 239.646 5.00582 239.235 5.17904C238.825 5.35226 238.51 5.58735 238.293 5.8843C238.075 6.18126 237.964 6.52028 237.959 6.90137C237.959 7.21812 238.03 7.4928 238.174 7.72542C238.322 7.95803 238.523 8.156 238.775 8.31932C239.028 8.4777 239.307 8.61133 239.614 8.72021C239.921 8.82909 240.23 8.92065 240.542 8.99489L241.967 9.35123C242.542 9.48486 243.093 9.66551 243.623 9.89318C244.157 10.1208 244.635 10.4079 245.056 10.7543C245.481 11.1008 245.818 11.519 246.065 12.009C246.313 12.4989 246.437 13.073 246.437 13.7313C246.437 14.6222 246.209 15.4066 245.754 16.0847C245.298 16.7577 244.64 17.2848 243.779 17.6659C242.923 18.0421 241.886 18.2301 240.668 18.2301C239.485 18.2301 238.458 18.047 237.587 17.6808C236.721 17.3145 236.043 16.78 235.553 16.0772C235.068 15.3744 234.806 14.5182 234.766 13.5086H237.476C237.516 14.0381 237.679 14.4786 237.966 14.83C238.253 15.1814 238.627 15.4437 239.087 15.6169C239.552 15.7902 240.072 15.8768 240.646 15.8768C241.245 15.8768 241.769 15.7877 242.22 15.6095C242.675 15.4264 243.032 15.174 243.289 14.8523C243.546 14.5256 243.677 14.1446 243.682 13.709C243.677 13.3131 243.561 12.9864 243.333 12.7291C243.106 12.4668 242.787 12.249 242.376 12.0758C241.97 11.8976 241.495 11.7392 240.95 11.6007L239.221 11.1552C237.968 10.8335 236.979 10.346 236.251 9.69273C235.529 9.03449 235.167 8.16095 235.167 7.07212C235.167 6.17631 235.41 5.39186 235.895 4.71876C236.385 4.04567 237.05 3.52353 237.892 3.15233C238.733 2.77619 239.686 2.58812 240.75 2.58812C241.829 2.58812 242.774 2.77619 243.586 3.15233C244.402 3.52353 245.043 4.04072 245.509 4.70392C245.974 5.36216 246.214 6.11939 246.229 6.97561H243.578ZM248.892 18V2.79599H258.781V5.1048H251.646V9.23245H258.268V11.5413H251.646V15.6912H258.84V18H248.892ZM261.59 18V2.79599H267.292C268.46 2.79599 269.44 2.99891 270.232 3.40475C271.029 3.81058 271.63 4.37974 272.036 5.11223C272.447 5.83976 272.652 6.68855 272.652 7.6586C272.652 8.6336 272.444 9.47991 272.028 10.1976C271.618 10.9102 271.011 11.4621 270.21 11.8531C269.408 12.2391 268.423 12.4321 267.255 12.4321H263.194V10.1456H266.884C267.567 10.1456 268.126 10.0515 268.561 9.86348C268.997 9.67046 269.319 9.39083 269.527 9.02459C269.739 8.65339 269.846 8.19807 269.846 7.6586C269.846 7.11914 269.739 6.65886 269.527 6.27777C269.314 5.89173 268.99 5.59972 268.554 5.40176C268.119 5.19884 267.557 5.09738 266.869 5.09738H264.345V18H261.59ZM269.445 11.1107L273.209 18H270.135L266.438 11.1107H269.445ZM276.833 2.79599L280.79 14.7632H280.946L284.896 2.79599H287.925L282.565 18H279.165L273.812 2.79599H276.833ZM289.927 18V2.79599H299.816V5.1048H292.682V9.23245H299.304V11.5413H292.682V15.6912H299.875V18H289.927Z" fill="black"/>
<path d="M366 10.5H314" stroke="#00B1EF" stroke-width="2" stroke-linecap="round"/>
</svg>
