<svg width="275" height="85" viewBox="0 0 275 85" fill="none" xmlns="http://www.w3.org/2000/svg">
<path d="M4.62746 35.3733V45H3.46172V36.5954H3.40532L1.05504 38.156V36.9715L3.46172 35.3733H4.62746ZM10.536 45.1316C9.82782 45.1316 9.22459 44.9389 8.72633 44.5534C8.22807 44.1649 7.84733 43.6024 7.5841 42.866C7.32087 42.1264 7.18925 41.2333 7.18925 40.1866C7.18925 39.1463 7.32087 38.2579 7.5841 37.5214C7.85046 36.7819 8.23277 36.2178 8.73103 35.8292C9.23242 35.4375 9.83409 35.2417 10.536 35.2417C11.238 35.2417 11.8381 35.4375 12.3363 35.8292C12.8377 36.2178 13.22 36.7819 13.4833 37.5214C13.7496 38.2579 13.8828 39.1463 13.8828 40.1866C13.8828 41.2333 13.7512 42.1264 13.488 42.866C13.2247 43.6024 12.844 44.1649 12.3457 44.5534C11.8475 44.9389 11.2443 45.1316 10.536 45.1316ZM10.536 44.0975C11.238 44.0975 11.7832 43.7591 12.1718 43.0822C12.5604 42.4053 12.7547 41.4401 12.7547 40.1866C12.7547 39.3531 12.6654 38.6433 12.4868 38.0573C12.3113 37.4713 12.0574 37.0247 11.7253 36.7176C11.3962 36.4105 10.9998 36.257 10.536 36.257C9.84036 36.257 9.29666 36.6001 8.90495 37.2864C8.51324 37.9696 8.31738 38.9363 8.31738 40.1866C8.31738 41.0202 8.40512 41.7284 8.58061 42.3113C8.7561 42.8942 9.00836 43.3376 9.3374 43.6415C9.66957 43.9455 10.0691 44.0975 10.536 44.0975ZM19.091 34.922L15.9887 46.4478H14.9733L18.0757 34.922H19.091ZM23.7716 35.3733V45H22.6059V36.5954H22.5494L20.1992 38.156V36.9715L22.6059 35.3733H23.7716ZM29.9246 35.3733V45H28.7589V36.5954H28.7025L26.3522 38.156V36.9715L28.7589 35.3733H29.9246ZM33.7978 43.6838L33.7226 44.1915C33.6694 44.5487 33.5879 44.9311 33.4782 45.3384C33.3717 45.7458 33.2604 46.1297 33.1445 46.4901C33.0285 46.8504 32.9329 47.1372 32.8577 47.3503H32.0116C32.0524 47.1497 32.1056 46.8849 32.1715 46.5559C32.2373 46.2268 32.3031 45.8586 32.3689 45.4513C32.4378 45.047 32.4942 44.6334 32.5381 44.2103L32.5945 43.6838H33.7978ZM39.1999 36.4074V35.3733H46.42V36.4074H43.3928V45H42.2271V36.4074H39.1999ZM47.3189 45V37.78H48.3907V38.8705H48.4659C48.5975 38.5133 48.8357 38.2234 49.1804 38.0009C49.5251 37.7784 49.9136 37.6672 50.3461 37.6672C50.4276 37.6672 50.5294 37.6687 50.6516 37.6719C50.7738 37.675 50.8663 37.6797 50.929 37.686V38.8141C50.8914 38.8047 50.8052 38.7906 50.6704 38.7718C50.5388 38.7498 50.3994 38.7389 50.2521 38.7389C49.9011 38.7389 49.5877 38.8125 49.312 38.9598C49.0393 39.104 48.8231 39.3045 48.6633 39.5615C48.5066 39.8153 48.4283 40.1052 48.4283 40.4311V45H47.3189ZM52.2439 45V37.78H53.3533V45H52.2439ZM52.808 36.5766C52.5918 36.5766 52.4053 36.503 52.2486 36.3557C52.0951 36.2084 52.0183 36.0314 52.0183 35.8245C52.0183 35.6177 52.0951 35.4407 52.2486 35.2934C52.4053 35.1461 52.5918 35.0725 52.808 35.0725C53.0242 35.0725 53.2091 35.1461 53.3627 35.2934C53.5194 35.4407 53.5977 35.6177 53.5977 35.8245C53.5977 36.0314 53.5194 36.2084 53.3627 36.3557C53.2091 36.503 53.0242 36.5766 52.808 36.5766ZM58.3182 45.1504C57.6413 45.1504 57.0585 44.9906 56.5696 44.671C56.0808 44.3513 55.7047 43.911 55.4415 43.3501C55.1783 42.7892 55.0466 42.1483 55.0466 41.4276C55.0466 40.6943 55.1814 40.0472 55.4509 39.4863C55.7235 38.9222 56.1027 38.4819 56.5884 38.1654C57.0773 37.8458 57.6476 37.686 58.2994 37.686C58.8071 37.686 59.2646 37.78 59.672 37.968C60.0793 38.156 60.4131 38.4192 60.6732 38.7577C60.9333 39.0961 61.0947 39.491 61.1573 39.9422H60.048C59.9634 39.6132 59.7754 39.3217 59.4839 39.0679C59.1956 38.811 58.8071 38.6825 58.3182 38.6825C57.8858 38.6825 57.5066 38.7953 57.1807 39.0209C56.8579 39.2434 56.6056 39.5583 56.4239 39.9657C56.2453 40.37 56.156 40.8447 56.156 41.39C56.156 41.9478 56.2437 42.4335 56.4192 42.8472C56.5978 43.2608 56.8485 43.582 57.1713 43.8108C57.4972 44.0395 57.8795 44.1539 58.3182 44.1539C58.6065 44.1539 58.8682 44.1038 59.1032 44.0035C59.3382 43.9032 59.5372 43.7591 59.7002 43.571C59.8631 43.383 59.9791 43.1574 60.048 42.8942H61.1573C61.0947 43.3203 60.9395 43.7042 60.692 44.0458C60.4476 44.3842 60.1232 44.6537 59.719 44.8543C59.3179 45.0517 58.8509 45.1504 58.3182 45.1504ZM63.8884 40.6567V45H62.779V35.3733H63.8884V38.9081H63.9824C64.1516 38.5352 64.4054 38.2391 64.7439 38.0197C65.0854 37.7972 65.5398 37.686 66.107 37.686C66.599 37.686 67.0299 37.7847 67.3997 37.9821C67.7694 38.1764 68.0562 38.4756 68.2599 38.8799C68.4667 39.281 68.5701 39.7918 68.5701 40.4123V45H67.4608V40.4875C67.4608 39.914 67.3119 39.4706 67.0142 39.1572C66.7196 38.8407 66.3107 38.6825 65.7874 38.6825C65.4239 38.6825 65.098 38.7592 64.8097 38.9128C64.5245 39.0664 64.2989 39.2904 64.1328 39.585C63.9698 39.8795 63.8884 40.2368 63.8884 40.6567ZM71.0555 47.7075C70.8675 47.7075 70.6998 47.6918 70.5525 47.6605C70.4053 47.6323 70.3034 47.6041 70.247 47.5759L70.529 46.5982C70.7985 46.6671 71.0367 46.6922 71.2435 46.6734C71.4504 46.6546 71.6337 46.5621 71.7935 46.3961C71.9564 46.2331 72.1053 45.9683 72.24 45.6017L72.4469 45.0376L69.777 37.78H70.9803L72.9733 43.5334H73.0485L75.0416 37.78H76.2449L73.1802 46.0529C73.0423 46.4258 72.8715 46.7345 72.6678 46.9789C72.4641 47.2265 72.2275 47.4098 71.958 47.5289C71.6916 47.648 71.3908 47.7075 71.0555 47.7075ZM81.5824 45V35.3733H84.8351C85.5872 35.3733 86.2046 35.5018 86.6872 35.7587C87.1697 36.0126 87.527 36.362 87.7589 36.807C87.9908 37.2519 88.1067 37.758 88.1067 38.3252C88.1067 38.8924 87.9908 39.3954 87.7589 39.8341C87.527 40.2728 87.1713 40.6175 86.6919 40.8682C86.2124 41.1158 85.5998 41.2396 84.8539 41.2396H82.2216V40.1866H84.8163C85.3303 40.1866 85.7439 40.1114 86.0573 39.961C86.3738 39.8106 86.6025 39.5975 86.7436 39.3217C86.8877 39.0428 86.9598 38.7107 86.9598 38.3252C86.9598 37.9398 86.8877 37.6029 86.7436 37.3146C86.5994 37.0263 86.3691 36.8038 86.0526 36.6471C85.7361 36.4873 85.3177 36.4074 84.7975 36.4074H82.7481V45H81.5824ZM86.1137 40.6755L88.4828 45H87.129L84.7975 40.6755H86.1137ZM92.5476 45.1504C91.9459 45.1504 91.4147 44.9984 90.9541 44.6945C90.4934 44.3874 90.133 43.9549 89.8729 43.3971C89.6128 42.8362 89.4828 42.1734 89.4828 41.4088C89.4828 40.6504 89.6128 39.9924 89.8729 39.4346C90.133 38.8768 90.495 38.4459 90.9588 38.1419C91.4226 37.8379 91.9584 37.686 92.5664 37.686C93.0364 37.686 93.4078 37.7643 93.6804 37.921C93.9561 38.0745 94.1661 38.25 94.3103 38.4474C94.4575 38.6417 94.5719 38.8016 94.6534 38.9269H94.7474V35.3733H95.8567V45H94.785V43.8907H94.6534C94.5719 44.0223 94.456 44.1884 94.3056 44.3889C94.1551 44.5864 93.9405 44.7634 93.6616 44.9201C93.3827 45.0736 93.0113 45.1504 92.5476 45.1504ZM92.698 44.1539C93.143 44.1539 93.519 44.038 93.8261 43.8061C94.1332 43.571 94.3667 43.2467 94.5265 42.8331C94.6863 42.4163 94.7662 41.9352 94.7662 41.39C94.7662 40.851 94.6879 40.3794 94.5312 39.9751C94.3745 39.5677 94.1426 39.2512 93.8355 39.0256C93.5284 38.7969 93.1492 38.6825 92.698 38.6825C92.2279 38.6825 91.8362 38.8031 91.5228 39.0444C91.2126 39.2826 90.9791 39.6069 90.8225 40.0174C90.6689 40.4248 90.5921 40.8823 90.5921 41.39C90.5921 41.9039 90.6705 42.3708 90.8272 42.7907C90.987 43.2075 91.222 43.5397 91.5322 43.7873C91.8456 44.0317 92.2342 44.1539 92.698 44.1539ZM99.6971 43.6838L99.6219 44.1915C99.5686 44.5487 99.4871 44.9311 99.3774 45.3384C99.2709 45.7458 99.1596 46.1297 99.0437 46.4901C98.9278 46.8504 98.8322 47.1372 98.757 47.3503H97.9109C97.9516 47.1497 98.0049 46.8849 98.0707 46.5559C98.1365 46.2268 98.2023 45.8586 98.2681 45.4513C98.3371 45.047 98.3935 44.6334 98.4373 44.2103L98.4937 43.6838H99.6971ZM110.89 37.78C110.834 37.3036 110.605 36.9339 110.204 36.6706C109.803 36.4074 109.311 36.2758 108.728 36.2758C108.302 36.2758 107.929 36.3447 107.609 36.4826C107.293 36.6205 107.045 36.8101 106.867 37.0514C106.691 37.2927 106.603 37.5669 106.603 37.874C106.603 38.1309 106.664 38.3519 106.787 38.5368C106.912 38.7185 107.072 38.8705 107.266 38.9927C107.46 39.1118 107.664 39.2105 107.877 39.2888C108.09 39.3641 108.286 39.4252 108.465 39.4722L109.442 39.7354C109.693 39.8012 109.972 39.8921 110.279 40.008C110.589 40.124 110.886 40.2822 111.168 40.4828C111.453 40.6802 111.688 40.934 111.873 41.2443C112.058 41.5545 112.15 41.9352 112.15 42.3865C112.15 42.9067 112.014 43.3767 111.741 43.7967C111.472 44.2166 111.077 44.5503 110.557 44.7979C110.039 45.0454 109.411 45.1692 108.672 45.1692C107.982 45.1692 107.385 45.058 106.881 44.8355C106.379 44.613 105.984 44.3028 105.696 43.9048C105.411 43.5068 105.25 43.0446 105.212 42.5181H106.415C106.447 42.8816 106.569 43.1825 106.782 43.4206C106.998 43.6556 107.271 43.8311 107.6 43.9471C107.932 44.0599 108.289 44.1163 108.672 44.1163C109.117 44.1163 109.516 44.0442 109.87 43.9001C110.224 43.7528 110.505 43.5491 110.712 43.289C110.918 43.0258 111.022 42.7187 111.022 42.3677C111.022 42.0481 110.933 41.788 110.754 41.5874C110.575 41.3869 110.34 41.2239 110.049 41.0986C109.757 40.9732 109.442 40.8635 109.104 40.7695L107.919 40.4311C107.167 40.2148 106.572 39.9062 106.133 39.5051C105.695 39.104 105.475 38.5791 105.475 37.9304C105.475 37.3914 105.621 36.9213 105.912 36.5202C106.207 36.116 106.602 35.8026 107.097 35.5801C107.595 35.3545 108.151 35.2417 108.766 35.2417C109.386 35.2417 109.938 35.3529 110.42 35.5754C110.903 35.7948 111.285 36.0956 111.567 36.4779C111.852 36.8602 112.003 37.2942 112.018 37.78H110.89ZM118.466 42.0481V37.78H119.576V45H118.466V43.7779H118.391C118.222 44.1445 117.959 44.4563 117.601 44.7133C117.244 44.9671 116.793 45.094 116.248 45.094C115.796 45.094 115.395 44.9953 115.044 44.7979C114.693 44.5973 114.418 44.2965 114.217 43.8954C114.016 43.4911 113.916 42.9819 113.916 42.3677V37.78H115.026V42.2925C115.026 42.8189 115.173 43.2389 115.467 43.5522C115.765 43.8656 116.144 44.0223 116.605 44.0223C116.881 44.0223 117.161 43.9518 117.446 43.8108C117.735 43.6697 117.976 43.4535 118.17 43.1621C118.368 42.8707 118.466 42.4993 118.466 42.0481ZM122.717 40.6567V45H121.607V37.78H122.679V38.9081H122.773C122.942 38.5415 123.199 38.2469 123.544 38.0244C123.889 37.7988 124.334 37.686 124.879 37.686C125.368 37.686 125.796 37.7862 126.162 37.9868C126.529 38.1842 126.814 38.485 127.018 38.8893C127.221 39.2904 127.323 39.7981 127.323 40.4123V45H126.214V40.4875C126.214 39.9203 126.067 39.4784 125.772 39.1619C125.478 38.8423 125.073 38.6825 124.559 38.6825C124.205 38.6825 123.889 38.7592 123.61 38.9128C123.334 39.0664 123.116 39.2904 122.957 39.585C122.797 39.8795 122.717 40.2368 122.717 40.6567ZM132.077 45.1504C131.475 45.1504 130.944 44.9984 130.483 44.6945C130.023 44.3874 129.662 43.9549 129.402 43.3971C129.142 42.8362 129.012 42.1734 129.012 41.4088C129.012 40.6504 129.142 39.9924 129.402 39.4346C129.662 38.8768 130.024 38.4459 130.488 38.1419C130.952 37.8379 131.488 37.686 132.096 37.686C132.566 37.686 132.937 37.7643 133.21 37.921C133.485 38.0745 133.695 38.25 133.839 38.4474C133.987 38.6417 134.101 38.8016 134.183 38.9269H134.277V35.3733H135.386V45H134.314V43.8907H134.183C134.101 44.0223 133.985 44.1884 133.835 44.3889C133.684 44.5864 133.47 44.7634 133.191 44.9201C132.912 45.0736 132.541 45.1504 132.077 45.1504ZM132.227 44.1539C132.672 44.1539 133.048 44.038 133.355 43.8061C133.662 43.571 133.896 43.2467 134.056 42.8331C134.216 42.4163 134.295 41.9352 134.295 41.39C134.295 40.851 134.217 40.3794 134.06 39.9751C133.904 39.5677 133.672 39.2512 133.365 39.0256C133.058 38.7969 132.678 38.6825 132.227 38.6825C131.757 38.6825 131.365 38.8031 131.052 39.0444C130.742 39.2826 130.508 39.6069 130.352 40.0174C130.198 40.4248 130.121 40.8823 130.121 41.39C130.121 41.9039 130.2 42.3708 130.356 42.7907C130.516 43.2075 130.751 43.5397 131.061 43.7873C131.375 44.0317 131.763 44.1539 132.227 44.1539ZM139.696 45.1692C139.239 45.1692 138.824 45.083 138.451 44.9107C138.078 44.7352 137.782 44.4829 137.562 44.1539C137.343 43.8217 137.233 43.4206 137.233 42.9506C137.233 42.5369 137.315 42.2016 137.478 41.9446C137.641 41.6846 137.858 41.4809 138.131 41.3336C138.404 41.1863 138.705 41.0766 139.034 41.0045C139.366 40.9293 139.699 40.8698 140.035 40.8259C140.473 40.7695 140.829 40.7272 141.102 40.699C141.378 40.6677 141.578 40.616 141.703 40.5439C141.832 40.4718 141.896 40.3465 141.896 40.1678V40.1302C141.896 39.6665 141.769 39.3061 141.515 39.0491C141.265 38.7922 140.884 38.6637 140.373 38.6637C139.844 38.6637 139.428 38.7796 139.128 39.0115C138.827 39.2434 138.615 39.491 138.493 39.7542L137.44 39.3782C137.628 38.9394 137.879 38.5979 138.192 38.3534C138.509 38.1059 138.853 37.9335 139.226 37.8364C139.602 37.7361 139.972 37.686 140.336 37.686C140.567 37.686 140.834 37.7142 141.135 37.7706C141.439 37.8238 141.732 37.9351 142.014 38.1043C142.299 38.2735 142.535 38.5289 142.723 38.8705C142.911 39.2121 143.006 39.6696 143.006 40.2431V45H141.896V44.0223H141.84C141.765 44.179 141.639 44.3466 141.464 44.5252C141.288 44.7039 141.055 44.8559 140.763 44.9812C140.472 45.1065 140.116 45.1692 139.696 45.1692ZM139.866 44.1727C140.304 44.1727 140.674 44.0865 140.975 43.9142C141.279 43.7418 141.508 43.5193 141.661 43.2467C141.818 42.9741 141.896 42.6873 141.896 42.3865V41.3712C141.849 41.4276 141.746 41.4793 141.586 41.5263C141.429 41.5702 141.248 41.6093 141.041 41.6438C140.837 41.6752 140.638 41.7034 140.444 41.7284C140.253 41.7504 140.097 41.7692 139.978 41.7848C139.69 41.8224 139.421 41.8835 139.17 41.9682C138.922 42.0496 138.722 42.1734 138.568 42.3395C138.418 42.5024 138.343 42.7249 138.343 43.007C138.343 43.3924 138.485 43.6838 138.77 43.8813C139.059 44.0756 139.424 44.1727 139.866 44.1727ZM145.03 45V37.78H146.102V38.8705H146.177C146.309 38.5133 146.547 38.2234 146.892 38.0009C147.236 37.7784 147.625 37.6672 148.057 37.6672C148.139 37.6672 148.241 37.6687 148.363 37.6719C148.485 37.675 148.578 37.6797 148.64 37.686V38.8141C148.603 38.8047 148.517 38.7906 148.382 38.7718C148.25 38.7498 148.111 38.7389 147.963 38.7389C147.612 38.7389 147.299 38.8125 147.023 38.9598C146.751 39.104 146.534 39.3045 146.375 39.5615C146.218 39.8153 146.14 40.1052 146.14 40.4311V45H145.03ZM152.08 45.1692C151.622 45.1692 151.207 45.083 150.834 44.9107C150.461 44.7352 150.165 44.4829 149.946 44.1539C149.726 43.8217 149.617 43.4206 149.617 42.9506C149.617 42.5369 149.698 42.2016 149.861 41.9446C150.024 41.6846 150.242 41.4809 150.515 41.3336C150.787 41.1863 151.088 41.0766 151.417 41.0045C151.749 40.9293 152.083 40.8698 152.418 40.8259C152.857 40.7695 153.213 40.7272 153.485 40.699C153.761 40.6677 153.962 40.616 154.087 40.5439C154.216 40.4718 154.28 40.3465 154.28 40.1678V40.1302C154.28 39.6665 154.153 39.3061 153.899 39.0491C153.648 38.7922 153.268 38.6637 152.757 38.6637C152.227 38.6637 151.812 38.7796 151.511 39.0115C151.21 39.2434 150.999 39.491 150.877 39.7542L149.824 39.3782C150.012 38.9394 150.262 38.5979 150.576 38.3534C150.892 38.1059 151.237 37.9335 151.61 37.8364C151.986 37.7361 152.356 37.686 152.719 37.686C152.951 37.686 153.217 37.7142 153.518 37.7706C153.822 37.8238 154.115 37.9351 154.397 38.1043C154.682 38.2735 154.919 38.5289 155.107 38.8705C155.295 39.2121 155.389 39.6696 155.389 40.2431V45H154.28V44.0223H154.223C154.148 44.179 154.023 44.3466 153.847 44.5252C153.672 44.7039 153.438 44.8559 153.147 44.9812C152.855 45.1065 152.5 45.1692 152.08 45.1692ZM152.249 44.1727C152.688 44.1727 153.058 44.0865 153.358 43.9142C153.662 43.7418 153.891 43.5193 154.045 43.2467C154.201 42.9741 154.28 42.6873 154.28 42.3865V41.3712C154.233 41.4276 154.129 41.4793 153.97 41.5263C153.813 41.5702 153.631 41.6093 153.424 41.6438C153.221 41.6752 153.022 41.7034 152.827 41.7284C152.636 41.7504 152.481 41.7692 152.362 41.7848C152.074 41.8224 151.804 41.8835 151.553 41.9682C151.306 42.0496 151.105 42.1734 150.952 42.3395C150.801 42.5024 150.726 42.7249 150.726 43.007C150.726 43.3924 150.869 43.6838 151.154 43.8813C151.442 44.0756 151.807 44.1727 152.249 44.1727ZM157.414 45V37.78H158.486V38.9081H158.58C158.73 38.5227 158.973 38.2234 159.308 38.0103C159.643 37.7941 160.046 37.686 160.516 37.686C160.993 37.686 161.389 37.7941 161.705 38.0103C162.025 38.2234 162.274 38.5227 162.453 38.9081H162.528C162.713 38.5352 162.99 38.2391 163.36 38.0197C163.73 37.7972 164.173 37.686 164.69 37.686C165.336 37.686 165.864 37.8881 166.274 38.2923C166.685 38.6934 166.89 39.3186 166.89 40.1678V45H165.781V40.1678C165.781 39.6351 165.635 39.2544 165.344 39.0256C165.052 38.7969 164.709 38.6825 164.314 38.6825C163.807 38.6825 163.413 38.836 163.134 39.1431C162.856 39.4471 162.716 39.8325 162.716 40.2995V45H161.588V40.055C161.588 39.6445 161.455 39.3139 161.188 39.0632C160.922 38.8094 160.579 38.6825 160.159 38.6825C159.871 38.6825 159.601 38.7592 159.35 38.9128C159.103 39.0664 158.902 39.2794 158.749 39.5521C158.598 39.8216 158.523 40.1334 158.523 40.4875V45H157.414ZM172.792 45V35.3733H176.157C176.828 35.3733 177.381 35.4892 177.817 35.7211C178.252 35.9499 178.576 36.2586 178.79 36.6471C179.003 37.0326 179.109 37.4603 179.109 37.9304C179.109 38.344 179.036 38.6856 178.888 38.9551C178.744 39.2246 178.553 39.4377 178.315 39.5944C178.08 39.7511 177.824 39.867 177.549 39.9422V40.0362C177.843 40.055 178.139 40.1584 178.437 40.3465C178.735 40.5345 178.984 40.804 179.184 41.155C179.385 41.5059 179.485 41.9352 179.485 42.4429C179.485 42.9255 179.376 43.3595 179.156 43.745C178.937 44.1304 178.591 44.4359 178.117 44.6616C177.644 44.8872 177.028 45 176.27 45H172.792ZM173.957 43.9659H176.27C177.032 43.9659 177.572 43.8186 177.892 43.524C178.215 43.2263 178.376 42.866 178.376 42.4429C178.376 42.117 178.293 41.8162 178.127 41.5404C177.961 41.2615 177.724 41.039 177.417 40.8729C177.11 40.7037 176.746 40.6191 176.326 40.6191H173.957V43.9659ZM173.957 39.6038H176.12C176.471 39.6038 176.787 39.5348 177.069 39.397C177.354 39.2591 177.58 39.0648 177.746 38.8141C177.915 38.5634 178 38.2688 178 37.9304C178 37.5073 177.853 37.1485 177.558 36.854C177.263 36.5563 176.797 36.4074 176.157 36.4074H173.957V39.6038ZM181.25 45V37.78H182.322V38.8705H182.397C182.529 38.5133 182.767 38.2234 183.112 38.0009C183.456 37.7784 183.845 37.6672 184.277 37.6672C184.359 37.6672 184.461 37.6687 184.583 37.6719C184.705 37.675 184.798 37.6797 184.86 37.686V38.8141C184.823 38.8047 184.737 38.7906 184.602 38.7718C184.47 38.7498 184.331 38.7389 184.183 38.7389C183.832 38.7389 183.519 38.8125 183.243 38.9598C182.971 39.104 182.754 39.3045 182.595 39.5615C182.438 39.8153 182.36 40.1052 182.36 40.4311V45H181.25ZM188.889 45.1504C188.237 45.1504 187.665 44.9953 187.173 44.6851C186.684 44.3748 186.302 43.9408 186.026 43.383C185.753 42.8252 185.617 42.1734 185.617 41.4276C185.617 40.6755 185.753 40.019 186.026 39.4581C186.302 38.8971 186.684 38.4615 187.173 38.1513C187.665 37.8411 188.237 37.686 188.889 37.686C189.54 37.686 190.111 37.8411 190.6 38.1513C191.092 38.4615 191.474 38.8971 191.747 39.4581C192.022 40.019 192.16 40.6755 192.16 41.4276C192.16 42.1734 192.022 42.8252 191.747 43.383C191.474 43.9408 191.092 44.3748 190.6 44.6851C190.111 44.9953 189.54 45.1504 188.889 45.1504ZM188.889 44.1539C189.384 44.1539 189.791 44.027 190.111 43.7732C190.43 43.5193 190.667 43.1856 190.821 42.7719C190.974 42.3583 191.051 41.9102 191.051 41.4276C191.051 40.945 190.974 40.4953 190.821 40.0785C190.667 39.6618 190.43 39.3249 190.111 39.0679C189.791 38.811 189.384 38.6825 188.889 38.6825C188.394 38.6825 187.986 38.811 187.667 39.0679C187.347 39.3249 187.11 39.6618 186.957 40.0785C186.803 40.4953 186.726 40.945 186.726 41.4276C186.726 41.9102 186.803 42.3583 186.957 42.7719C187.11 43.1856 187.347 43.5193 187.667 43.7732C187.986 44.027 188.394 44.1539 188.889 44.1539ZM196.994 37.78V38.7201H193.252V37.78H196.994ZM194.342 36.0502H195.452V42.9318C195.452 43.2451 195.497 43.4802 195.588 43.6368C195.682 43.7904 195.801 43.8938 195.945 43.9471C196.093 43.9972 196.248 44.0223 196.411 44.0223C196.533 44.0223 196.633 44.016 196.712 44.0035C196.79 43.9878 196.853 43.9753 196.9 43.9659L197.125 44.9624C197.05 44.9906 196.945 45.0188 196.81 45.047C196.676 45.0783 196.505 45.094 196.298 45.094C195.985 45.094 195.677 45.0266 195.377 44.8919C195.079 44.7571 194.831 44.5519 194.634 44.2761C194.44 44.0004 194.342 43.6525 194.342 43.2326V36.0502ZM199.927 40.6567V45H198.817V35.3733H199.927V38.9081H200.021C200.19 38.5352 200.444 38.2391 200.782 38.0197C201.124 37.7972 201.578 37.686 202.145 37.686C202.637 37.686 203.068 37.7847 203.438 37.9821C203.808 38.1764 204.095 38.4756 204.298 38.8799C204.505 39.281 204.608 39.7918 204.608 40.4123V45H203.499V40.4875C203.499 39.914 203.35 39.4706 203.053 39.1572C202.758 38.8407 202.349 38.6825 201.826 38.6825C201.462 38.6825 201.136 38.7592 200.848 38.9128C200.563 39.0664 200.337 39.2904 200.171 39.585C200.008 39.8795 199.927 40.2368 199.927 40.6567ZM209.665 45.1504C208.969 45.1504 208.369 44.9969 207.865 44.6898C207.363 44.3795 206.976 43.9471 206.704 43.3924C206.434 42.8346 206.299 42.1859 206.299 41.4464C206.299 40.7068 206.434 40.055 206.704 39.491C206.976 38.9238 207.356 38.4819 207.841 38.1654C208.33 37.8458 208.9 37.686 209.552 37.686C209.928 37.686 210.3 37.7486 210.666 37.874C211.033 37.9993 211.367 38.203 211.668 38.485C211.968 38.7639 212.208 39.1337 212.387 39.5944C212.565 40.055 212.655 40.6222 212.655 41.296V41.766H207.089V40.8071H211.526C211.526 40.3997 211.445 40.0362 211.282 39.7166C211.122 39.397 210.893 39.1447 210.596 38.9598C210.301 38.7749 209.953 38.6825 209.552 38.6825C209.11 38.6825 208.728 38.7922 208.405 39.0115C208.086 39.2277 207.84 39.5098 207.667 39.8576C207.495 40.2054 207.409 40.5784 207.409 40.9763V41.6156C207.409 42.1609 207.503 42.6231 207.691 43.0023C207.882 43.3783 208.147 43.665 208.485 43.8625C208.824 44.0568 209.217 44.1539 209.665 44.1539C209.957 44.1539 210.22 44.1132 210.455 44.0317C210.693 43.9471 210.898 43.8217 211.071 43.6556C211.243 43.4864 211.376 43.2765 211.47 43.0258L212.542 43.3266C212.429 43.6901 212.239 44.0098 211.973 44.2855C211.707 44.5581 211.378 44.7712 210.986 44.9248C210.594 45.0752 210.154 45.1504 209.665 45.1504ZM214.342 45V37.78H215.414V38.8705H215.489C215.621 38.5133 215.859 38.2234 216.204 38.0009C216.548 37.7784 216.937 37.6672 217.369 37.6672C217.451 37.6672 217.553 37.6687 217.675 37.6719C217.797 37.675 217.889 37.6797 217.952 37.686V38.8141C217.915 38.8047 217.828 38.7906 217.694 38.7718C217.562 38.7498 217.423 38.7389 217.275 38.7389C216.924 38.7389 216.611 38.8125 216.335 38.9598C216.062 39.104 215.846 39.3045 215.686 39.5615C215.53 39.8153 215.451 40.1052 215.451 40.4311V45H214.342ZM224.381 39.397L223.385 39.679C223.322 39.5129 223.23 39.3515 223.107 39.1948C222.988 39.035 222.825 38.9034 222.619 38.8C222.412 38.6966 222.147 38.6449 221.824 38.6449C221.382 38.6449 221.014 38.7467 220.72 38.9504C220.428 39.151 220.282 39.4064 220.282 39.7166C220.282 39.9924 220.383 40.2101 220.583 40.37C220.784 40.5298 221.097 40.663 221.523 40.7695L222.595 41.0327C223.241 41.1894 223.722 41.4292 224.038 41.7519C224.355 42.0716 224.513 42.4836 224.513 42.9882C224.513 43.4018 224.394 43.7716 224.156 44.0975C223.921 44.4234 223.592 44.6804 223.169 44.8684C222.745 45.0564 222.253 45.1504 221.693 45.1504C220.956 45.1504 220.347 44.9906 219.864 44.671C219.381 44.3513 219.076 43.8844 218.947 43.2702L220 43.007C220.101 43.3955 220.29 43.687 220.569 43.8813C220.851 44.0756 221.219 44.1727 221.674 44.1727C222.191 44.1727 222.601 44.063 222.905 43.8437C223.212 43.6212 223.366 43.3548 223.366 43.0446C223.366 42.7939 223.278 42.5839 223.103 42.4147C222.927 42.2423 222.658 42.1139 222.294 42.0293L221.091 41.7472C220.43 41.5905 219.944 41.3477 219.634 41.0186C219.327 40.6865 219.173 40.2713 219.173 39.773C219.173 39.3656 219.287 39.0052 219.516 38.6919C219.748 38.3785 220.063 38.1325 220.461 37.9539C220.862 37.7753 221.317 37.686 221.824 37.686C222.539 37.686 223.1 37.8426 223.507 38.156C223.917 38.4694 224.209 38.883 224.381 39.397ZM230.056 45V35.3733H231.222V43.9659H235.697V45H230.056ZM239.476 45.1692C239.018 45.1692 238.603 45.083 238.23 44.9107C237.857 44.7352 237.561 44.4829 237.342 44.1539C237.122 43.8217 237.013 43.4206 237.013 42.9506C237.013 42.5369 237.094 42.2016 237.257 41.9446C237.42 41.6846 237.638 41.4809 237.911 41.3336C238.183 41.1863 238.484 41.0766 238.813 41.0045C239.145 40.9293 239.479 40.8698 239.814 40.8259C240.253 40.7695 240.609 40.7272 240.881 40.699C241.157 40.6677 241.358 40.616 241.483 40.5439C241.612 40.4718 241.676 40.3465 241.676 40.1678V40.1302C241.676 39.6665 241.549 39.3061 241.295 39.0491C241.044 38.7922 240.664 38.6637 240.153 38.6637C239.623 38.6637 239.208 38.7796 238.907 39.0115C238.606 39.2434 238.395 39.491 238.273 39.7542L237.22 39.3782C237.408 38.9394 237.658 38.5979 237.972 38.3534C238.288 38.1059 238.633 37.9335 239.006 37.8364C239.382 37.7361 239.752 37.686 240.115 37.686C240.347 37.686 240.613 37.7142 240.914 37.7706C241.218 37.8238 241.511 37.9351 241.793 38.1043C242.078 38.2735 242.315 38.5289 242.503 38.8705C242.691 39.2121 242.785 39.6696 242.785 40.2431V45H241.676V44.0223H241.619C241.544 44.179 241.419 44.3466 241.243 44.5252C241.068 44.7039 240.834 44.8559 240.543 44.9812C240.251 45.1065 239.896 45.1692 239.476 45.1692ZM239.645 44.1727C240.084 44.1727 240.454 44.0865 240.754 43.9142C241.058 43.7418 241.287 43.5193 241.441 43.2467C241.597 42.9741 241.676 42.6873 241.676 42.3865V41.3712C241.629 41.4276 241.525 41.4793 241.366 41.5263C241.209 41.5702 241.027 41.6093 240.82 41.6438C240.617 41.6752 240.418 41.7034 240.223 41.7284C240.032 41.7504 239.877 41.7692 239.758 41.7848C239.47 41.8224 239.2 41.8835 238.949 41.9682C238.702 42.0496 238.501 42.1734 238.348 42.3395C238.197 42.5024 238.122 42.7249 238.122 43.007C238.122 43.3924 238.265 43.6838 238.55 43.8813C238.838 44.0756 239.203 44.1727 239.645 44.1727ZM245.266 47.7075C245.078 47.7075 244.91 47.6918 244.763 47.6605C244.616 47.6323 244.514 47.6041 244.457 47.5759L244.739 46.5982C245.009 46.6671 245.247 46.6922 245.454 46.6734C245.661 46.6546 245.844 46.5621 246.004 46.3961C246.167 46.2331 246.316 45.9683 246.45 45.6017L246.657 45.0376L243.987 37.78H245.191L247.184 43.5334H247.259L249.252 37.78H250.455L247.39 46.0529C247.253 46.4258 247.082 46.7345 246.878 46.9789C246.674 47.2265 246.438 47.4098 246.168 47.5289C245.902 47.648 245.601 47.7075 245.266 47.7075ZM254.594 45.1504C253.942 45.1504 253.37 44.9953 252.878 44.6851C252.389 44.3748 252.007 43.9408 251.731 43.383C251.459 42.8252 251.322 42.1734 251.322 41.4276C251.322 40.6755 251.459 40.019 251.731 39.4581C252.007 38.8971 252.389 38.4615 252.878 38.1513C253.37 37.8411 253.942 37.686 254.594 37.686C255.246 37.686 255.816 37.8411 256.305 38.1513C256.797 38.4615 257.179 38.8971 257.452 39.4581C257.728 40.019 257.866 40.6755 257.866 41.4276C257.866 42.1734 257.728 42.8252 257.452 43.383C257.179 43.9408 256.797 44.3748 256.305 44.6851C255.816 44.9953 255.246 45.1504 254.594 45.1504ZM254.594 44.1539C255.089 44.1539 255.497 44.027 255.816 43.7732C256.136 43.5193 256.372 43.1856 256.526 42.7719C256.679 42.3583 256.756 41.9102 256.756 41.4276C256.756 40.945 256.679 40.4953 256.526 40.0785C256.372 39.6618 256.136 39.3249 255.816 39.0679C255.497 38.811 255.089 38.6825 254.594 38.6825C254.099 38.6825 253.692 38.811 253.372 39.0679C253.052 39.3249 252.816 39.6618 252.662 40.0785C252.509 40.4953 252.432 40.945 252.432 41.4276C252.432 41.9102 252.509 42.3583 252.662 42.7719C252.816 43.1856 253.052 43.5193 253.372 43.7732C253.692 44.027 254.099 44.1539 254.594 44.1539ZM264.109 42.0481V37.78H265.218V45H264.109V43.7779H264.034C263.865 44.1445 263.601 44.4563 263.244 44.7133C262.887 44.9671 262.436 45.094 261.89 45.094C261.439 45.094 261.038 44.9953 260.687 44.7979C260.336 44.5973 260.06 44.2965 259.86 43.8954C259.659 43.4911 259.559 42.9819 259.559 42.3677V37.78H260.668V42.2925C260.668 42.8189 260.816 43.2389 261.11 43.5522C261.408 43.8656 261.787 44.0223 262.248 44.0223C262.523 44.0223 262.804 43.9518 263.089 43.8108C263.377 43.6697 263.619 43.4535 263.813 43.1621C264.01 42.8707 264.109 42.4993 264.109 42.0481ZM270.39 37.78V38.7201H266.649V37.78H270.39ZM267.739 36.0502H268.848V42.9318C268.848 43.2451 268.894 43.4802 268.985 43.6368C269.079 43.7904 269.198 43.8938 269.342 43.9471C269.489 43.9972 269.644 44.0223 269.807 44.0223C269.93 44.0223 270.03 44.016 270.108 44.0035C270.186 43.9878 270.249 43.9753 270.296 43.9659L270.522 44.9624C270.447 44.9906 270.342 45.0188 270.207 45.047C270.072 45.0783 269.901 45.094 269.694 45.094C269.381 45.094 269.074 45.0266 268.773 44.8919C268.475 44.7571 268.228 44.5519 268.031 44.2761C267.836 44.0004 267.739 43.6525 267.739 43.2326V36.0502ZM273.713 43.6838L273.638 44.1915C273.585 44.5487 273.503 44.9311 273.394 45.3384C273.287 45.7458 273.176 46.1297 273.06 46.4901C272.944 46.8504 272.849 47.1372 272.773 47.3503H271.927C271.968 47.1497 272.021 46.8849 272.087 46.5559C272.153 46.2268 272.219 45.8586 272.284 45.4513C272.353 45.047 272.41 44.6334 272.454 44.2103L272.51 43.6838H273.713ZM11.2752 63V53.3733H14.528C15.2801 53.3733 15.8974 53.5018 16.38 53.7587C16.8626 54.0126 17.2198 54.362 17.4517 54.807C17.6836 55.2519 17.7995 55.758 17.7995 56.3252C17.7995 56.8924 17.6836 57.3954 17.4517 57.8341C17.2198 58.2728 16.8641 58.6175 16.3847 58.8682C15.9052 59.1158 15.2926 59.2396 14.5468 59.2396H11.9145V58.1866H14.5092C15.0231 58.1866 15.4367 58.1114 15.7501 57.961C16.0666 57.8106 16.2954 57.5975 16.4364 57.3217C16.5805 57.0428 16.6526 56.7107 16.6526 56.3252C16.6526 55.9398 16.5805 55.6029 16.4364 55.3146C16.2922 55.0263 16.0619 54.8038 15.7454 54.6471C15.4289 54.4873 15.0106 54.4074 14.4904 54.4074H12.4409V63H11.2752ZM15.8065 58.6755L18.1756 63H16.8218L14.4904 58.6755H15.8065ZM21.7163 63.1692C21.2588 63.1692 20.8435 63.083 20.4706 62.9107C20.0977 62.7352 19.8016 62.4829 19.5822 62.1539C19.3629 61.8217 19.2532 61.4206 19.2532 60.9506C19.2532 60.5369 19.3347 60.2016 19.4976 59.9446C19.6606 59.6846 19.8784 59.4809 20.151 59.3336C20.4236 59.1863 20.7245 59.0766 21.0535 59.0045C21.3857 58.9293 21.7194 58.8698 22.0547 58.8259C22.4934 58.7695 22.8491 58.7272 23.1217 58.699C23.3975 58.6677 23.5981 58.616 23.7234 58.5439C23.8519 58.4718 23.9161 58.3465 23.9161 58.1678V58.1302C23.9161 57.6665 23.7892 57.3061 23.5354 57.0491C23.2847 56.7922 22.9039 56.6637 22.3931 56.6637C21.8636 56.6637 21.4483 56.7796 21.1475 57.0115C20.8467 57.2434 20.6351 57.491 20.5129 57.7542L19.46 57.3782C19.648 56.9394 19.8987 56.5979 20.2121 56.3534C20.5286 56.1059 20.8733 55.9335 21.2462 55.8364C21.6223 55.7361 21.992 55.686 22.3555 55.686C22.5874 55.686 22.8538 55.7142 23.1546 55.7706C23.4586 55.8238 23.7516 55.9351 24.0336 56.1043C24.3188 56.2735 24.5554 56.5289 24.7434 56.8705C24.9314 57.2121 25.0255 57.6696 25.0255 58.2431V63H23.9161V62.0223H23.8597C23.7845 62.179 23.6592 62.3466 23.4837 62.5252C23.3082 62.7039 23.0747 62.8559 22.7833 62.9812C22.4919 63.1065 22.1362 63.1692 21.7163 63.1692ZM21.8855 62.1727C22.3242 62.1727 22.694 62.0865 22.9948 61.9142C23.2988 61.7418 23.5275 61.5193 23.6811 61.2467C23.8378 60.9741 23.9161 60.6873 23.9161 60.3865V59.3712C23.8691 59.4276 23.7657 59.4793 23.6059 59.5263C23.4492 59.5702 23.2674 59.6093 23.0606 59.6438C22.8569 59.6752 22.6579 59.7034 22.4637 59.7284C22.2725 59.7504 22.1174 59.7692 21.9983 59.7848C21.71 59.8224 21.4405 59.8835 21.1898 59.9682C20.9422 60.0496 20.7417 60.1734 20.5881 60.3395C20.4377 60.5024 20.3625 60.7249 20.3625 61.007C20.3625 61.3924 20.5051 61.6838 20.7903 61.8813C21.0786 62.0756 21.4436 62.1727 21.8855 62.1727ZM27.0502 63V55.78H28.1219V56.9081H28.2159C28.3664 56.5227 28.6092 56.2234 28.9445 56.0103C29.2798 55.7941 29.6825 55.686 30.1526 55.686C30.6289 55.686 31.0253 55.7941 31.3418 56.0103C31.6614 56.2234 31.9106 56.5227 32.0892 56.9081H32.1644C32.3493 56.5352 32.6266 56.2391 32.9964 56.0197C33.3662 55.7972 33.8096 55.686 34.3266 55.686C34.9722 55.686 35.5002 55.8881 35.9107 56.2923C36.3212 56.6934 36.5265 57.3186 36.5265 58.1678V63H35.4172V58.1678C35.4172 57.6351 35.2715 57.2544 34.98 57.0256C34.6886 56.7969 34.3454 56.6825 33.9506 56.6825C33.4429 56.6825 33.0497 56.836 32.7708 57.1431C32.4919 57.4471 32.3524 57.8325 32.3524 58.2995V63H31.2243V58.055C31.2243 57.6445 31.0911 57.3139 30.8247 57.0632C30.5584 56.8094 30.2152 56.6825 29.7953 56.6825C29.507 56.6825 29.2375 56.7592 28.9868 56.9128C28.7393 57.0664 28.5387 57.2794 28.3852 57.5521C28.2347 57.8216 28.1595 58.1334 28.1595 58.4875V63H27.0502ZM40.6794 63.1692C40.2219 63.1692 39.8067 63.083 39.4338 62.9107C39.0609 62.7352 38.7647 62.4829 38.5454 62.1539C38.326 61.8217 38.2163 61.4206 38.2163 60.9506C38.2163 60.5369 38.2978 60.2016 38.4608 59.9446C38.6237 59.6846 38.8415 59.4809 39.1141 59.3336C39.3868 59.1863 39.6876 59.0766 40.0167 59.0045C40.3488 58.9293 40.6826 58.8698 41.0179 58.8259C41.4566 58.7695 41.8123 58.7272 42.0849 58.699C42.3607 58.6677 42.5612 58.616 42.6866 58.5439C42.815 58.4718 42.8793 58.3465 42.8793 58.1678V58.1302C42.8793 57.6665 42.7524 57.3061 42.4985 57.0491C42.2478 56.7922 41.8671 56.6637 41.3563 56.6637C40.8267 56.6637 40.4115 56.7796 40.1107 57.0115C39.8098 57.2434 39.5983 57.491 39.4761 57.7542L38.4232 57.3782C38.6112 56.9394 38.8619 56.5979 39.1753 56.3534C39.4918 56.1059 39.8365 55.9335 40.2094 55.8364C40.5854 55.7361 40.9552 55.686 41.3187 55.686C41.5506 55.686 41.817 55.7142 42.1178 55.7706C42.4218 55.8238 42.7148 55.9351 42.9968 56.1043C43.282 56.2735 43.5186 56.5289 43.7066 56.8705C43.8946 57.2121 43.9886 57.6696 43.9886 58.2431V63H42.8793V62.0223H42.8229C42.7477 62.179 42.6223 62.3466 42.4468 62.5252C42.2713 62.7039 42.0379 62.8559 41.7465 62.9812C41.455 63.1065 41.0993 63.1692 40.6794 63.1692ZM40.8486 62.1727C41.2874 62.1727 41.6571 62.0865 41.958 61.9142C42.2619 61.7418 42.4907 61.5193 42.6443 61.2467C42.8009 60.9741 42.8793 60.6873 42.8793 60.3865V59.3712C42.8323 59.4276 42.7289 59.4793 42.569 59.5263C42.4124 59.5702 42.2306 59.6093 42.0238 59.6438C41.8201 59.6752 41.6211 59.7034 41.4268 59.7284C41.2357 59.7504 41.0805 59.7692 40.9615 59.7848C40.6732 59.8224 40.4037 59.8835 40.153 59.9682C39.9054 60.0496 39.7048 60.1734 39.5513 60.3395C39.4009 60.5024 39.3257 60.7249 39.3257 61.007C39.3257 61.3924 39.4683 61.6838 39.7534 61.8813C40.0417 62.0756 40.4068 62.1727 40.8486 62.1727ZM47.1227 58.6567V63H46.0134V55.78H47.0851V56.9081H47.1791C47.3483 56.5415 47.6053 56.2469 47.95 56.0244C48.2947 55.7988 48.7397 55.686 49.2849 55.686C49.7738 55.686 50.2015 55.7862 50.5682 55.9868C50.9348 56.1842 51.22 56.485 51.4237 56.8893C51.6274 57.2904 51.7292 57.7981 51.7292 58.4123V63H50.6199V58.4875C50.6199 57.9203 50.4726 57.4784 50.178 57.1619C49.8835 56.8423 49.4792 56.6825 48.9653 56.6825C48.6112 56.6825 48.2947 56.7592 48.0158 56.9128C47.74 57.0664 47.5222 57.2904 47.3624 57.585C47.2026 57.8795 47.1227 58.2368 47.1227 58.6567ZM55.881 63.1692C55.4235 63.1692 55.0082 63.083 54.6353 62.9107C54.2624 62.7352 53.9663 62.4829 53.7469 62.1539C53.5276 61.8217 53.4179 61.4206 53.4179 60.9506C53.4179 60.5369 53.4994 60.2016 53.6623 59.9446C53.8253 59.6846 54.0431 59.4809 54.3157 59.3336C54.5883 59.1863 54.8892 59.0766 55.2182 59.0045C55.5504 58.9293 55.8841 58.8698 56.2194 58.8259C56.6581 58.7695 57.0138 58.7272 57.2864 58.699C57.5622 58.6677 57.7628 58.616 57.8881 58.5439C58.0166 58.4718 58.0808 58.3465 58.0808 58.1678V58.1302C58.0808 57.6665 57.9539 57.3061 57.7001 57.0491C57.4494 56.7922 57.0686 56.6637 56.5579 56.6637C56.0283 56.6637 55.613 56.7796 55.3122 57.0115C55.0114 57.2434 54.7999 57.491 54.6776 57.7542L53.6247 57.3782C53.8127 56.9394 54.0634 56.5979 54.3768 56.3534C54.6933 56.1059 55.038 55.9335 55.4109 55.8364C55.787 55.7361 56.1567 55.686 56.5203 55.686C56.7521 55.686 57.0185 55.7142 57.3193 55.7706C57.6233 55.8238 57.9163 55.9351 58.1983 56.1043C58.4835 56.2735 58.7201 56.5289 58.9081 56.8705C59.0961 57.2121 59.1902 57.6696 59.1902 58.2431V63H58.0808V62.0223H58.0244C57.9492 62.179 57.8239 62.3466 57.6484 62.5252C57.4729 62.7039 57.2394 62.8559 56.948 62.9812C56.6566 63.1065 56.3009 63.1692 55.881 63.1692ZM56.0502 62.1727C56.4889 62.1727 56.8587 62.0865 57.1595 61.9142C57.4635 61.7418 57.6923 61.5193 57.8458 61.2467C58.0025 60.9741 58.0808 60.6873 58.0808 60.3865V59.3712C58.0338 59.4276 57.9304 59.4793 57.7706 59.5263C57.6139 59.5702 57.4322 59.6093 57.2253 59.6438C57.0216 59.6752 56.8227 59.7034 56.6284 59.7284C56.4372 59.7504 56.2821 59.7692 56.163 59.7848C55.8747 59.8224 55.6052 59.8835 55.3545 59.9682C55.107 60.0496 54.9064 60.1734 54.7528 60.3395C54.6024 60.5024 54.5272 60.7249 54.5272 61.007C54.5272 61.3924 54.6698 61.6838 54.955 61.8813C55.2433 62.0756 55.6083 62.1727 56.0502 62.1727ZM64.3549 55.78V56.7201H60.6132V55.78H64.3549ZM61.7038 54.0502H62.8131V60.9318C62.8131 61.2451 62.8585 61.4802 62.9494 61.6368C63.0434 61.7904 63.1625 61.8938 63.3067 61.9471C63.4539 61.9972 63.6091 62.0223 63.772 62.0223C63.8942 62.0223 63.9945 62.016 64.0728 62.0035C64.1512 61.9878 64.2139 61.9753 64.2609 61.9659L64.4865 62.9624C64.4113 62.9906 64.3063 63.0188 64.1716 63.047C64.0368 63.0783 63.866 63.094 63.6592 63.094C63.3458 63.094 63.0387 63.0266 62.7379 62.8919C62.4402 62.7571 62.1926 62.5519 61.9952 62.2761C61.8009 62.0004 61.7038 61.6525 61.7038 61.2326V54.0502ZM67.288 58.6567V63H66.1787V53.3733H67.288V56.9081H67.382C67.5513 56.5352 67.8051 56.2391 68.1435 56.0197C68.4851 55.7972 68.9395 55.686 69.5067 55.686C69.9987 55.686 70.4295 55.7847 70.7993 55.9821C71.1691 56.1764 71.4558 56.4756 71.6595 56.8799C71.8663 57.281 71.9698 57.7918 71.9698 58.4123V63H70.8604V58.4875C70.8604 57.914 70.7116 57.4706 70.4139 57.1572C70.1193 56.8407 69.7104 56.6825 69.187 56.6825C68.8235 56.6825 68.4976 56.7592 68.2093 56.9128C67.9242 57.0664 67.6985 57.2904 67.5324 57.585C67.3695 57.8795 67.288 58.2368 67.288 58.6567ZM76.1239 63.1692C75.6663 63.1692 75.2511 63.083 74.8782 62.9107C74.5053 62.7352 74.2092 62.4829 73.9898 62.1539C73.7705 61.8217 73.6608 61.4206 73.6608 60.9506C73.6608 60.5369 73.7423 60.2016 73.9052 59.9446C74.0682 59.6846 74.286 59.4809 74.5586 59.3336C74.8312 59.1863 75.132 59.0766 75.4611 59.0045C75.7933 58.9293 76.127 58.8698 76.4623 58.8259C76.901 58.7695 77.2567 58.7272 77.5293 58.699C77.8051 58.6677 78.0056 58.616 78.131 58.5439C78.2595 58.4718 78.3237 58.3465 78.3237 58.1678V58.1302C78.3237 57.6665 78.1968 57.3061 77.943 57.0491C77.6923 56.7922 77.3115 56.6637 76.8007 56.6637C76.2711 56.6637 75.8559 56.7796 75.5551 57.0115C75.2543 57.2434 75.0427 57.491 74.9205 57.7542L73.8676 57.3782C74.0556 56.9394 74.3063 56.5979 74.6197 56.3534C74.9362 56.1059 75.2809 55.9335 75.6538 55.8364C76.0299 55.7361 76.3996 55.686 76.7631 55.686C76.995 55.686 77.2614 55.7142 77.5622 55.7706C77.8662 55.8238 78.1592 55.9351 78.4412 56.1043C78.7264 56.2735 78.963 56.5289 79.151 56.8705C79.339 57.2121 79.433 57.6696 79.433 58.2431V63H78.3237V62.0223H78.2673C78.1921 62.179 78.0668 62.3466 77.8913 62.5252C77.7158 62.7039 77.4823 62.8559 77.1909 62.9812C76.8995 63.1065 76.5438 63.1692 76.1239 63.1692ZM76.2931 62.1727C76.7318 62.1727 77.1016 62.0865 77.4024 61.9142C77.7064 61.7418 77.9351 61.5193 78.0887 61.2467C78.2454 60.9741 78.3237 60.6873 78.3237 60.3865V59.3712C78.2767 59.4276 78.1733 59.4793 78.0135 59.5263C77.8568 59.5702 77.675 59.6093 77.4682 59.6438C77.2645 59.6752 77.0655 59.7034 76.8712 59.7284C76.6801 59.7504 76.525 59.7692 76.4059 59.7848C76.1176 59.8224 75.8481 59.8835 75.5974 59.9682C75.3498 60.0496 75.1493 60.1734 74.9957 60.3395C74.8453 60.5024 74.7701 60.7249 74.7701 61.007C74.7701 61.3924 74.9127 61.6838 75.1979 61.8813C75.4862 62.0756 75.8512 62.1727 76.2931 62.1727ZM81.4578 65.7075V55.78H82.5295V56.9269H82.6611C82.7426 56.8016 82.8554 56.6417 82.9996 56.4474C83.1469 56.25 83.3568 56.0745 83.6294 55.921C83.9052 55.7643 84.2781 55.686 84.7482 55.686C85.3561 55.686 85.892 55.8379 86.3558 56.1419C86.8195 56.4459 87.1815 56.8768 87.4416 57.4346C87.7017 57.9924 87.8317 58.6504 87.8317 59.4088C87.8317 60.1734 87.7017 60.8362 87.4416 61.3971C87.1815 61.9549 86.8211 62.3874 86.3605 62.6945C85.8998 62.9984 85.3686 63.1504 84.767 63.1504C84.3032 63.1504 83.9319 63.0736 83.653 62.9201C83.3741 62.7634 83.1594 62.5864 83.009 62.3889C82.8586 62.1884 82.7426 62.0223 82.6611 61.8907H82.5671V65.7075H81.4578ZM82.5483 59.39C82.5483 59.9352 82.6282 60.4163 82.7881 60.8331C82.9479 61.2467 83.1813 61.571 83.4884 61.8061C83.7955 62.038 84.1716 62.1539 84.6166 62.1539C85.0803 62.1539 85.4674 62.0317 85.7776 61.7873C86.091 61.5397 86.326 61.2075 86.4827 60.7907C86.6425 60.3708 86.7224 59.9039 86.7224 59.39C86.7224 58.8823 86.6441 58.4248 86.4874 58.0174C86.3338 57.6069 86.1004 57.2826 85.787 57.0444C85.4768 56.8031 85.0866 56.6825 84.6166 56.6825C84.1653 56.6825 83.7861 56.7969 83.479 57.0256C83.1719 57.2512 82.94 57.5677 82.7834 57.9751C82.6267 58.3794 82.5483 58.851 82.5483 59.39ZM94.0741 60.0481V55.78H95.1834V63H94.0741V61.7779H93.9988C93.8296 62.1445 93.5664 62.4563 93.2092 62.7133C92.8519 62.9671 92.4007 63.094 91.8554 63.094C91.4041 63.094 91.003 62.9953 90.6521 62.7979C90.3011 62.5973 90.0253 62.2965 89.8248 61.8954C89.6242 61.4911 89.5239 60.9819 89.5239 60.3677V55.78H90.6333V60.2925C90.6333 60.8189 90.7805 61.2389 91.0751 61.5522C91.3728 61.8656 91.752 62.0223 92.2126 62.0223C92.4884 62.0223 92.7689 61.9518 93.054 61.8108C93.3423 61.6697 93.5836 61.4535 93.7779 61.1621C93.9753 60.8707 94.0741 60.4993 94.0741 60.0481ZM97.2152 63V55.78H98.2869V56.8705H98.3621C98.4937 56.5133 98.7319 56.2234 99.0766 56.0009C99.4213 55.7784 99.8099 55.6672 100.242 55.6672C100.324 55.6672 100.426 55.6687 100.548 55.6719C100.67 55.675 100.763 55.6797 100.825 55.686V56.8141C100.788 56.8047 100.701 56.7906 100.567 56.7718C100.435 56.7498 100.296 56.7389 100.148 56.7389C99.7973 56.7389 99.484 56.8125 99.2082 56.9598C98.9356 57.104 98.7194 57.3045 98.5595 57.5615C98.4029 57.8153 98.3245 58.1052 98.3245 58.4311V63H97.2152ZM104.265 63.1692C103.807 63.1692 103.392 63.083 103.019 62.9107C102.646 62.7352 102.35 62.4829 102.131 62.1539C101.911 61.8217 101.802 61.4206 101.802 60.9506C101.802 60.5369 101.883 60.2016 102.046 59.9446C102.209 59.6846 102.427 59.4809 102.7 59.3336C102.972 59.1863 103.273 59.0766 103.602 59.0045C103.934 58.9293 104.268 58.8698 104.603 58.8259C105.042 58.7695 105.398 58.7272 105.67 58.699C105.946 58.6677 106.147 58.616 106.272 58.5439C106.4 58.4718 106.465 58.3465 106.465 58.1678V58.1302C106.465 57.6665 106.338 57.3061 106.084 57.0491C105.833 56.7922 105.452 56.6637 104.942 56.6637C104.412 56.6637 103.997 56.7796 103.696 57.0115C103.395 57.2434 103.184 57.491 103.061 57.7542L102.009 57.3782C102.197 56.9394 102.447 56.5979 102.761 56.3534C103.077 56.1059 103.422 55.9335 103.795 55.8364C104.171 55.7361 104.541 55.686 104.904 55.686C105.136 55.686 105.402 55.7142 105.703 55.7706C106.007 55.8238 106.3 55.9351 106.582 56.1043C106.867 56.2735 107.104 56.5289 107.292 56.8705C107.48 57.2121 107.574 57.6696 107.574 58.2431V63H106.465V62.0223H106.408C106.333 62.179 106.208 62.3466 106.032 62.5252C105.857 62.7039 105.623 62.8559 105.332 62.9812C105.04 63.1065 104.685 63.1692 104.265 63.1692ZM104.434 62.1727C104.873 62.1727 105.243 62.0865 105.543 61.9142C105.847 61.7418 106.076 61.5193 106.23 61.2467C106.386 60.9741 106.465 60.6873 106.465 60.3865V59.3712C106.418 59.4276 106.314 59.4793 106.154 59.5263C105.998 59.5702 105.816 59.6093 105.609 59.6438C105.405 59.6752 105.206 59.7034 105.012 59.7284C104.821 59.7504 104.666 59.7692 104.547 59.7848C104.259 59.8224 103.989 59.8835 103.738 59.9682C103.491 60.0496 103.29 60.1734 103.137 60.3395C102.986 60.5024 102.911 60.7249 102.911 61.007C102.911 61.3924 103.054 61.6838 103.339 61.8813C103.627 62.0756 103.992 62.1727 104.434 62.1727ZM109.599 63V55.78H110.67V56.9081H110.764C110.915 56.5227 111.158 56.2234 111.493 56.0103C111.828 55.7941 112.231 55.686 112.701 55.686C113.177 55.686 113.574 55.7941 113.89 56.0103C114.21 56.2234 114.459 56.5227 114.638 56.9081H114.713C114.898 56.5352 115.175 56.2391 115.545 56.0197C115.915 55.7972 116.358 55.686 116.875 55.686C117.521 55.686 118.049 55.8881 118.459 56.2923C118.87 56.6934 119.075 57.3186 119.075 58.1678V63H117.966V58.1678C117.966 57.6351 117.82 57.2544 117.529 57.0256C117.237 56.7969 116.894 56.6825 116.499 56.6825C115.991 56.6825 115.598 56.836 115.319 57.1431C115.04 57.4471 114.901 57.8325 114.901 58.2995V63H113.773V58.055C113.773 57.6445 113.64 57.3139 113.373 57.0632C113.107 56.8094 112.764 56.6825 112.344 56.6825C112.056 56.6825 111.786 56.7592 111.535 56.9128C111.288 57.0664 111.087 57.2794 110.934 57.5521C110.783 57.8216 110.708 58.1334 110.708 58.4875V63H109.599ZM122.758 61.6838L122.683 62.1915C122.629 62.5487 122.548 62.9311 122.438 63.3384C122.332 63.7458 122.22 64.1297 122.105 64.4901C121.989 64.8504 121.893 65.1372 121.818 65.3503H120.972C121.012 65.1497 121.066 64.8849 121.132 64.5559C121.197 64.2268 121.263 63.8586 121.329 63.4513C121.398 63.047 121.454 62.6334 121.498 62.2103L121.555 61.6838H122.758ZM136.433 56.3816H135.267C135.198 56.0463 135.078 55.7518 134.905 55.4979C134.736 55.2441 134.529 55.031 134.285 54.8587C134.044 54.6832 133.776 54.5516 133.481 54.4638C133.186 54.3761 132.879 54.3322 132.56 54.3322C131.977 54.3322 131.449 54.4795 130.976 54.7741C130.506 55.0686 130.131 55.5026 129.852 56.0761C129.576 56.6496 129.439 57.3531 129.439 58.1866C129.439 59.0202 129.576 59.7237 129.852 60.2972C130.131 60.8707 130.506 61.3047 130.976 61.5992C131.449 61.8938 131.977 62.0411 132.56 62.0411C132.879 62.0411 133.186 61.9972 133.481 61.9095C133.776 61.8217 134.044 61.6917 134.285 61.5193C134.529 61.3438 134.736 61.1292 134.905 60.8754C135.078 60.6184 135.198 60.3238 135.267 59.9917H136.433C136.345 60.4836 136.185 60.9239 135.954 61.3125C135.722 61.7011 135.433 62.0317 135.089 62.3043C134.744 62.5738 134.357 62.7791 133.928 62.9201C133.501 63.0611 133.045 63.1316 132.56 63.1316C131.739 63.1316 131.009 62.9311 130.369 62.5299C129.73 62.1288 129.227 61.5585 128.86 60.8189C128.494 60.0794 128.31 59.202 128.31 58.1866C128.31 57.1713 128.494 56.2939 128.86 55.5543C129.227 54.8148 129.73 54.2445 130.369 53.8433C131.009 53.4422 131.739 53.2417 132.56 53.2417C133.045 53.2417 133.501 53.3122 133.928 53.4532C134.357 53.5942 134.744 53.801 135.089 54.0737C135.433 54.3432 135.722 54.6722 135.954 55.0608C136.185 55.4462 136.345 55.8865 136.433 56.3816ZM141.099 63.1504C140.448 63.1504 139.876 62.9953 139.384 62.6851C138.895 62.3748 138.513 61.9408 138.237 61.383C137.964 60.8252 137.828 60.1734 137.828 59.4276C137.828 58.6755 137.964 58.019 138.237 57.4581C138.513 56.8971 138.895 56.4615 139.384 56.1513C139.876 55.8411 140.448 55.686 141.099 55.686C141.751 55.686 142.322 55.8411 142.81 56.1513C143.302 56.4615 143.685 56.8971 143.957 57.4581C144.233 58.019 144.371 58.6755 144.371 59.4276C144.371 60.1734 144.233 60.8252 143.957 61.383C143.685 61.9408 143.302 62.3748 142.81 62.6851C142.322 62.9953 141.751 63.1504 141.099 63.1504ZM141.099 62.1539C141.595 62.1539 142.002 62.027 142.322 61.7732C142.641 61.5193 142.878 61.1856 143.031 60.7719C143.185 60.3583 143.262 59.9102 143.262 59.4276C143.262 58.945 143.185 58.4953 143.031 58.0785C142.878 57.6618 142.641 57.3249 142.322 57.0679C142.002 56.811 141.595 56.6825 141.099 56.6825C140.604 56.6825 140.197 56.811 139.877 57.0679C139.558 57.3249 139.321 57.6618 139.168 58.0785C139.014 58.4953 138.937 58.945 138.937 59.4276C138.937 59.9102 139.014 60.3583 139.168 60.7719C139.321 61.1856 139.558 61.5193 139.877 61.7732C140.197 62.027 140.604 62.1539 141.099 62.1539ZM146.064 63V55.78H147.174V63H146.064ZM146.628 54.5766C146.412 54.5766 146.226 54.503 146.069 54.3557C145.916 54.2084 145.839 54.0314 145.839 53.8245C145.839 53.6177 145.916 53.4407 146.069 53.2934C146.226 53.1461 146.412 53.0725 146.628 53.0725C146.845 53.0725 147.03 53.1461 147.183 53.2934C147.34 53.4407 147.418 53.6177 147.418 53.8245C147.418 54.0314 147.34 54.2084 147.183 54.3557C147.03 54.503 146.845 54.5766 146.628 54.5766ZM149.206 63V55.78H150.277V56.9081H150.371C150.522 56.5227 150.765 56.2234 151.1 56.0103C151.435 55.7941 151.838 55.686 152.308 55.686C152.784 55.686 153.181 55.7941 153.497 56.0103C153.817 56.2234 154.066 56.5227 154.245 56.9081H154.32C154.505 56.5352 154.782 56.2391 155.152 56.0197C155.521 55.7972 155.965 55.686 156.482 55.686C157.128 55.686 157.656 55.8881 158.066 56.2923C158.477 56.6934 158.682 57.3186 158.682 58.1678V63H157.572V58.1678C157.572 57.6351 157.427 57.2544 157.135 57.0256C156.844 56.7969 156.501 56.6825 156.106 56.6825C155.598 56.6825 155.205 56.836 154.926 57.1431C154.647 57.4471 154.508 57.8325 154.508 58.2995V63H153.38V58.055C153.38 57.6445 153.246 57.3139 152.98 57.0632C152.714 56.8094 152.371 56.6825 151.951 56.6825C151.662 56.6825 151.393 56.7592 151.142 56.9128C150.895 57.0664 150.694 57.2794 150.54 57.5521C150.39 57.8216 150.315 58.1334 150.315 58.4875V63H149.206ZM160.861 63V53.3733H161.97V56.9269H162.064C162.145 56.8016 162.258 56.6417 162.402 56.4474C162.55 56.25 162.76 56.0745 163.032 55.921C163.308 55.7643 163.681 55.686 164.151 55.686C164.759 55.686 165.295 55.8379 165.758 56.1419C166.222 56.4459 166.584 56.8768 166.844 57.4346C167.104 57.9924 167.234 58.6504 167.234 59.4088C167.234 60.1734 167.104 60.8362 166.844 61.3971C166.584 61.9549 166.224 62.3874 165.763 62.6945C165.303 62.9984 164.771 63.1504 164.17 63.1504C163.706 63.1504 163.335 63.0736 163.056 62.9201C162.777 62.7634 162.562 62.5864 162.412 62.3889C162.261 62.1884 162.145 62.0223 162.064 61.8907H161.932V63H160.861ZM161.951 59.39C161.951 59.9352 162.031 60.4163 162.191 60.8331C162.351 61.2467 162.584 61.571 162.891 61.8061C163.198 62.038 163.574 62.1539 164.019 62.1539C164.483 62.1539 164.87 62.0317 165.18 61.7873C165.494 61.5397 165.729 61.2075 165.885 60.7907C166.045 60.3708 166.125 59.9039 166.125 59.39C166.125 58.8823 166.047 58.4248 165.89 58.0174C165.737 57.6069 165.503 57.2826 165.19 57.0444C164.879 56.8031 164.489 56.6825 164.019 56.6825C163.568 56.6825 163.189 56.7969 162.882 57.0256C162.575 57.2512 162.343 57.5677 162.186 57.9751C162.029 58.3794 161.951 58.851 161.951 59.39ZM171.056 63.1692C170.598 63.1692 170.183 63.083 169.81 62.9107C169.437 62.7352 169.141 62.4829 168.922 62.1539C168.703 61.8217 168.593 61.4206 168.593 60.9506C168.593 60.5369 168.674 60.2016 168.837 59.9446C169 59.6846 169.218 59.4809 169.491 59.3336C169.763 59.1863 170.064 59.0766 170.393 59.0045C170.725 58.9293 171.059 58.8698 171.394 58.8259C171.833 58.7695 172.189 58.7272 172.461 58.699C172.737 58.6677 172.938 58.616 173.063 58.5439C173.192 58.4718 173.256 58.3465 173.256 58.1678V58.1302C173.256 57.6665 173.129 57.3061 172.875 57.0491C172.624 56.7922 172.244 56.6637 171.733 56.6637C171.203 56.6637 170.788 56.7796 170.487 57.0115C170.186 57.2434 169.975 57.491 169.853 57.7542L168.8 57.3782C168.988 56.9394 169.238 56.5979 169.552 56.3534C169.868 56.1059 170.213 55.9335 170.586 55.8364C170.962 55.7361 171.332 55.686 171.695 55.686C171.927 55.686 172.194 55.7142 172.494 55.7706C172.798 55.8238 173.091 55.9351 173.373 56.1043C173.659 56.2735 173.895 56.5289 174.083 56.8705C174.271 57.2121 174.365 57.6696 174.365 58.2431V63H173.256V62.0223H173.199C173.124 62.179 172.999 62.3466 172.823 62.5252C172.648 62.7039 172.414 62.8559 172.123 62.9812C171.832 63.1065 171.476 63.1692 171.056 63.1692ZM171.225 62.1727C171.664 62.1727 172.034 62.0865 172.335 61.9142C172.638 61.7418 172.867 61.5193 173.021 61.2467C173.177 60.9741 173.256 60.6873 173.256 60.3865V59.3712C173.209 59.4276 173.105 59.4793 172.946 59.5263C172.789 59.5702 172.607 59.6093 172.4 59.6438C172.197 59.6752 171.998 59.7034 171.803 59.7284C171.612 59.7504 171.457 59.7692 171.338 59.7848C171.05 59.8224 170.78 59.8835 170.53 59.9682C170.282 60.0496 170.081 60.1734 169.928 60.3395C169.777 60.5024 169.702 60.7249 169.702 61.007C169.702 61.3924 169.845 61.6838 170.13 61.8813C170.418 62.0756 170.783 62.1727 171.225 62.1727ZM179.53 55.78V56.7201H175.788V55.78H179.53ZM176.879 54.0502H177.988V60.9318C177.988 61.2451 178.034 61.4802 178.124 61.6368C178.218 61.7904 178.338 61.8938 178.482 61.9471C178.629 61.9972 178.784 62.0223 178.947 62.0223C179.069 62.0223 179.17 62.016 179.248 62.0035C179.326 61.9878 179.389 61.9753 179.436 61.9659L179.661 62.9624C179.586 62.9906 179.481 63.0188 179.347 63.047C179.212 63.0783 179.041 63.094 178.834 63.094C178.521 63.094 178.214 63.0266 177.913 62.8919C177.615 62.7571 177.368 62.5519 177.17 62.2761C176.976 62.0004 176.879 61.6525 176.879 61.2326V54.0502ZM184.054 63.1504C183.402 63.1504 182.83 62.9953 182.338 62.6851C181.85 62.3748 181.467 61.9408 181.192 61.383C180.919 60.8252 180.783 60.1734 180.783 59.4276C180.783 58.6755 180.919 58.019 181.192 57.4581C181.467 56.8971 181.85 56.4615 182.338 56.1513C182.83 55.8411 183.402 55.686 184.054 55.686C184.706 55.686 185.276 55.8411 185.765 56.1513C186.257 56.4615 186.639 56.8971 186.912 57.4581C187.188 58.019 187.326 58.6755 187.326 59.4276C187.326 60.1734 187.188 60.8252 186.912 61.383C186.639 61.9408 186.257 62.3748 185.765 62.6851C185.276 62.9953 184.706 63.1504 184.054 63.1504ZM184.054 62.1539C184.549 62.1539 184.957 62.027 185.276 61.7732C185.596 61.5193 185.833 61.1856 185.986 60.7719C186.14 60.3583 186.216 59.9102 186.216 59.4276C186.216 58.945 186.14 58.4953 185.986 58.0785C185.833 57.6618 185.596 57.3249 185.276 57.0679C184.957 56.811 184.549 56.6825 184.054 56.6825C183.559 56.6825 183.152 56.811 182.832 57.0679C182.512 57.3249 182.276 57.6618 182.122 58.0785C181.969 58.4953 181.892 58.945 181.892 59.4276C181.892 59.9102 181.969 60.3583 182.122 60.7719C182.276 61.1856 182.512 61.5193 182.832 61.7732C183.152 62.027 183.559 62.1539 184.054 62.1539ZM189.019 63V55.78H190.091V56.8705H190.166C190.298 56.5133 190.536 56.2234 190.881 56.0009C191.225 55.7784 191.614 55.6672 192.046 55.6672C192.128 55.6672 192.23 55.6687 192.352 55.6719C192.474 55.675 192.566 55.6797 192.629 55.686V56.8141C192.592 56.8047 192.505 56.7906 192.371 56.7718C192.239 56.7498 192.1 56.7389 191.952 56.7389C191.601 56.7389 191.288 56.8125 191.012 56.9598C190.739 57.104 190.523 57.3045 190.363 57.5615C190.207 57.8153 190.128 58.1052 190.128 58.4311V63H189.019ZM196.752 63.1504C196.056 63.1504 195.456 62.9969 194.951 62.6898C194.45 62.3795 194.063 61.9471 193.79 61.3924C193.521 60.8346 193.386 60.1859 193.386 59.4464C193.386 58.7068 193.521 58.055 193.79 57.491C194.063 56.9238 194.442 56.4819 194.928 56.1654C195.417 55.8458 195.987 55.686 196.639 55.686C197.015 55.686 197.386 55.7486 197.753 55.874C198.119 55.9993 198.453 56.203 198.754 56.485C199.055 56.7639 199.295 57.1337 199.473 57.5944C199.652 58.055 199.741 58.6222 199.741 59.296V59.766H194.176V58.8071H198.613C198.613 58.3997 198.531 58.0362 198.368 57.7166C198.209 57.397 197.98 57.1447 197.682 56.9598C197.388 56.7749 197.04 56.6825 196.639 56.6825C196.197 56.6825 195.815 56.7922 195.492 57.0115C195.172 57.2277 194.926 57.5098 194.754 57.8576C194.581 58.2054 194.495 58.5784 194.495 58.9763V59.6156C194.495 60.1609 194.589 60.6231 194.777 61.0023C194.968 61.3783 195.233 61.665 195.572 61.8625C195.91 62.0568 196.303 62.1539 196.752 62.1539C197.043 62.1539 197.306 62.1132 197.541 62.0317C197.779 61.9471 197.985 61.8217 198.157 61.6556C198.329 61.4864 198.463 61.2765 198.557 61.0258L199.628 61.3266C199.515 61.6901 199.326 62.0098 199.059 62.2855C198.793 62.5581 198.464 62.7712 198.072 62.9248C197.681 63.0752 197.24 63.1504 196.752 63.1504ZM209.288 57.6696V58.7037H205.076V57.6696H209.288ZM218.14 63.1316C217.745 63.1253 217.35 63.0501 216.956 62.906C216.561 62.7618 216.2 62.519 215.874 62.1774C215.549 61.8327 215.287 61.3673 215.089 60.7813C214.892 60.1922 214.793 59.4527 214.793 58.5627C214.793 57.7103 214.873 56.9551 215.033 56.297C215.193 55.6358 215.425 55.0796 215.729 54.6283C216.033 54.174 216.399 53.8292 216.829 53.5942C217.261 53.3592 217.748 53.2417 218.291 53.2417C218.83 53.2417 219.309 53.3498 219.729 53.566C220.152 53.7791 220.497 54.0768 220.763 54.4591C221.029 54.8414 221.202 55.2817 221.28 55.78H220.133C220.027 55.3475 219.82 54.9887 219.513 54.7035C219.206 54.4184 218.798 54.2758 218.291 54.2758C217.545 54.2758 216.957 54.6001 216.528 55.2488C216.102 55.8975 215.887 56.8078 215.884 57.9798H215.959C216.135 57.7135 216.343 57.4863 216.584 57.2982C216.829 57.1071 217.098 56.9598 217.393 56.8564C217.687 56.753 217.999 56.7013 218.328 56.7013C218.88 56.7013 219.384 56.8392 219.842 57.1149C220.299 57.3876 220.666 57.7652 220.942 58.2478C221.217 58.7272 221.355 59.2772 221.355 59.8976C221.355 60.493 221.222 61.0383 220.956 61.5334C220.689 62.0254 220.315 62.4171 219.832 62.7086C219.353 62.9969 218.789 63.1379 218.14 63.1316ZM218.14 62.0975C218.535 62.0975 218.889 61.9988 219.202 61.8014C219.519 61.6039 219.768 61.3391 219.95 61.007C220.135 60.6748 220.227 60.305 220.227 59.8976C220.227 59.4997 220.138 59.1377 219.959 58.8118C219.784 58.4828 219.541 58.2211 219.231 58.0268C218.924 57.8325 218.573 57.7354 218.178 57.7354C217.88 57.7354 217.603 57.7949 217.346 57.914C217.089 58.03 216.863 58.1898 216.669 58.3935C216.478 58.5972 216.327 58.8306 216.218 59.0939C216.108 59.3539 216.053 59.6281 216.053 59.9164C216.053 60.2988 216.142 60.656 216.321 60.9882C216.503 61.3203 216.75 61.5883 217.064 61.792C217.38 61.9957 217.739 62.0975 218.14 62.0975ZM222.978 61.0258V60.0669L227.209 53.3733H227.904V54.8587H227.434L224.238 59.9164V59.9917H229.935V61.0258H222.978ZM227.509 63V60.7343V60.2878V53.3733H228.619V63H227.509ZM234.952 53.3733V63H233.786V54.5954H233.729L231.379 56.156V54.9715L233.786 53.3733H234.952ZM240.86 63.1316C240.152 63.1316 239.549 62.9389 239.05 62.5534C238.552 62.1649 238.171 61.6024 237.908 60.866C237.645 60.1264 237.513 59.2333 237.513 58.1866C237.513 57.1463 237.645 56.2579 237.908 55.5214C238.175 54.7819 238.557 54.2178 239.055 53.8292C239.557 53.4375 240.158 53.2417 240.86 53.2417C241.562 53.2417 242.162 53.4375 242.661 53.8292C243.162 54.2178 243.544 54.7819 243.807 55.5214C244.074 56.2579 244.207 57.1463 244.207 58.1866C244.207 59.2333 244.075 60.1264 243.812 60.866C243.549 61.6024 243.168 62.1649 242.67 62.5534C242.172 62.9389 241.568 63.1316 240.86 63.1316ZM240.86 62.0975C241.562 62.0975 242.107 61.7591 242.496 61.0822C242.885 60.4053 243.079 59.4401 243.079 58.1866C243.079 57.3531 242.99 56.6433 242.811 56.0573C242.635 55.4713 242.382 55.0247 242.049 54.7176C241.72 54.4105 241.324 54.257 240.86 54.257C240.165 54.257 239.621 54.6001 239.229 55.2864C238.837 55.9696 238.642 56.9363 238.642 58.1866C238.642 59.0202 238.729 59.7284 238.905 60.3113C239.08 60.8942 239.333 61.3376 239.662 61.6415C239.994 61.9455 240.393 62.0975 240.86 62.0975ZM245.768 61.0258V60.0669L249.998 53.3733H250.694V54.8587H250.224L247.027 59.9164V59.9917H252.724V61.0258H245.768ZM250.299 63V60.7343V60.2878V53.3733H251.408V63H250.299ZM257.494 63.1316C256.943 63.1316 256.446 63.0219 256.004 62.8026C255.562 62.5832 255.208 62.2824 254.942 61.9001C254.675 61.5178 254.53 61.0822 254.505 60.5933H255.633C255.677 61.0289 255.874 61.3893 256.225 61.6744C256.579 61.9565 257.002 62.0975 257.494 62.0975C257.889 62.0975 258.24 62.0051 258.547 61.8202C258.857 61.6353 259.1 61.3814 259.276 61.0587C259.454 60.7328 259.544 60.3646 259.544 59.954C259.544 59.5341 259.451 59.1597 259.266 58.8306C259.085 58.4984 258.834 58.2368 258.514 58.0456C258.195 57.8545 257.83 57.7573 257.419 57.7542C257.124 57.7511 256.822 57.7965 256.512 57.8905C256.202 57.9814 255.946 58.0989 255.746 58.2431L254.655 58.1114L255.238 53.3733H260.239V54.4074H256.216L255.877 57.2465H255.934C256.131 57.0899 256.379 56.9598 256.676 56.8564C256.974 56.753 257.284 56.7013 257.607 56.7013C258.196 56.7013 258.721 56.8423 259.182 57.1243C259.646 57.4032 260.009 57.7855 260.272 58.2713C260.539 58.757 260.672 59.3116 260.672 59.9352C260.672 60.5495 260.534 61.0978 260.258 61.5804C259.986 62.0599 259.609 62.4391 259.13 62.718C258.651 62.9937 258.105 63.1316 257.494 63.1316ZM263.851 61.6838L263.775 62.1915C263.722 62.5487 263.641 62.9311 263.531 63.3384C263.424 63.7458 263.313 64.1297 263.197 64.4901C263.081 64.8504 262.986 65.1372 262.91 65.3503H262.064C262.105 65.1497 262.158 64.8849 262.224 64.5559C262.29 64.2268 262.356 63.8586 262.422 63.4513C262.491 63.047 262.547 62.6334 262.591 62.2103L262.647 61.6838H263.851ZM84.4814 72.4074V71.3733H91.7015V72.4074H88.6743V81H87.5086V72.4074H84.4814ZM94.4924 81.1692C94.0349 81.1692 93.6197 81.083 93.2468 80.9107C92.8738 80.7352 92.5777 80.4829 92.3584 80.1539C92.139 79.8217 92.0293 79.4206 92.0293 78.9506C92.0293 78.5369 92.1108 78.2016 92.2737 77.9446C92.4367 77.6846 92.6545 77.4809 92.9271 77.3336C93.1998 77.1863 93.5006 77.0766 93.8296 77.0045C94.1618 76.9293 94.4955 76.8698 94.8308 76.8259C95.2696 76.7695 95.6252 76.7272 95.8979 76.699C96.1736 76.6677 96.3742 76.616 96.4995 76.5439C96.628 76.4718 96.6923 76.3465 96.6923 76.1678V76.1302C96.6923 75.6665 96.5653 75.3061 96.3115 75.0491C96.0608 74.7922 95.6801 74.6637 95.1693 74.6637C94.6397 74.6637 94.2245 74.7796 93.9236 75.0115C93.6228 75.2434 93.4113 75.491 93.2891 75.7542L92.2361 75.3782C92.4242 74.9394 92.6749 74.5979 92.9882 74.3534C93.3047 74.1059 93.6494 73.9335 94.0223 73.8364C94.3984 73.7361 94.7682 73.686 95.1317 73.686C95.3636 73.686 95.6299 73.7142 95.9308 73.7706C96.2347 73.8238 96.5277 73.9351 96.8098 74.1043C97.0949 74.2735 97.3315 74.5289 97.5195 74.8705C97.7076 75.2121 97.8016 75.6696 97.8016 76.2431V81H96.6923V80.0223H96.6358C96.5606 80.179 96.4353 80.3466 96.2598 80.5252C96.0843 80.7039 95.8509 80.8559 95.5594 80.9812C95.268 81.1065 94.9123 81.1692 94.4924 81.1692ZM94.6616 80.1727C95.1003 80.1727 95.4701 80.0865 95.7709 79.9142C96.0749 79.7418 96.3037 79.5193 96.4572 79.2467C96.6139 78.9741 96.6923 78.6873 96.6923 78.3865V77.3712C96.6452 77.4276 96.5418 77.4793 96.382 77.5263C96.2253 77.5702 96.0436 77.6093 95.8368 77.6438C95.6331 77.6752 95.4341 77.7034 95.2398 77.7284C95.0486 77.7504 94.8935 77.7692 94.7744 77.7848C94.4861 77.8224 94.2166 77.8835 93.9659 77.9682C93.7184 78.0496 93.5178 78.1734 93.3643 78.3395C93.2139 78.5024 93.1386 78.7249 93.1386 79.007C93.1386 79.3924 93.2812 79.6838 93.5664 79.8813C93.8547 80.0756 94.2198 80.1727 94.6616 80.1727ZM99.8263 81V73.78H100.898V74.9081H100.992C101.142 74.5227 101.385 74.2234 101.721 74.0103C102.056 73.7941 102.459 73.686 102.929 73.686C103.405 73.686 103.801 73.7941 104.118 74.0103C104.438 74.2234 104.687 74.5227 104.865 74.9081H104.941C105.125 74.5352 105.403 74.2391 105.773 74.0197C106.142 73.7972 106.586 73.686 107.103 73.686C107.748 73.686 108.276 73.8881 108.687 74.2923C109.097 74.6934 109.303 75.3186 109.303 76.1678V81H108.193V76.1678C108.193 75.6351 108.048 75.2544 107.756 75.0256C107.465 74.7969 107.122 74.6825 106.727 74.6825C106.219 74.6825 105.826 74.836 105.547 75.1431C105.268 75.4471 105.129 75.8325 105.129 76.2995V81H104V76.055C104 75.6445 103.867 75.3139 103.601 75.0632C103.335 74.8094 102.991 74.6825 102.571 74.6825C102.283 74.6825 102.014 74.7592 101.763 74.9128C101.515 75.0664 101.315 75.2794 101.161 75.5521C101.011 75.8216 100.936 76.1334 100.936 76.4875V81H99.8263ZM111.331 81V73.78H112.44V81H111.331ZM111.895 72.5766C111.679 72.5766 111.492 72.503 111.336 72.3557C111.182 72.2084 111.105 72.0314 111.105 71.8245C111.105 71.6177 111.182 71.4407 111.336 71.2934C111.492 71.1461 111.679 71.0725 111.895 71.0725C112.111 71.0725 112.296 71.1461 112.45 71.2934C112.606 71.4407 112.685 71.6177 112.685 71.8245C112.685 72.0314 112.606 72.2084 112.45 72.3557C112.296 72.503 112.111 72.5766 111.895 72.5766ZM115.581 71.3733V81H114.472V71.3733H115.581ZM129.12 71.3733V81H127.992L122.746 73.4415H122.652V81H121.486V71.3733H122.615L127.879 78.9506H127.973V71.3733H129.12ZM133.427 81.1692C132.969 81.1692 132.554 81.083 132.181 80.9107C131.808 80.7352 131.512 80.4829 131.293 80.1539C131.074 79.8217 130.964 79.4206 130.964 78.9506C130.964 78.5369 131.045 78.2016 131.208 77.9446C131.371 77.6846 131.589 77.4809 131.862 77.3336C132.134 77.1863 132.435 77.0766 132.764 77.0045C133.096 76.9293 133.43 76.8698 133.765 76.8259C134.204 76.7695 134.56 76.7272 134.832 76.699C135.108 76.6677 135.309 76.616 135.434 76.5439C135.563 76.4718 135.627 76.3465 135.627 76.1678V76.1302C135.627 75.6665 135.5 75.3061 135.246 75.0491C134.995 74.7922 134.615 74.6637 134.104 74.6637C133.574 74.6637 133.159 74.7796 132.858 75.0115C132.557 75.2434 132.346 75.491 132.224 75.7542L131.171 75.3782C131.359 74.9394 131.609 74.5979 131.923 74.3534C132.239 74.1059 132.584 73.9335 132.957 73.8364C133.333 73.7361 133.703 73.686 134.066 73.686C134.298 73.686 134.565 73.7142 134.865 73.7706C135.169 73.8238 135.462 73.9351 135.744 74.1043C136.03 74.2735 136.266 74.5289 136.454 74.8705C136.642 75.2121 136.736 75.6696 136.736 76.2431V81H135.627V80.0223H135.57C135.495 80.179 135.37 80.3466 135.194 80.5252C135.019 80.7039 134.785 80.8559 134.494 80.9812C134.203 81.1065 133.847 81.1692 133.427 81.1692ZM133.596 80.1727C134.035 80.1727 134.405 80.0865 134.706 79.9142C135.009 79.7418 135.238 79.5193 135.392 79.2467C135.548 78.9741 135.627 78.6873 135.627 78.3865V77.3712C135.58 77.4276 135.476 77.4793 135.317 77.5263C135.16 77.5702 134.978 77.6093 134.771 77.6438C134.568 77.6752 134.369 77.7034 134.174 77.7284C133.983 77.7504 133.828 77.7692 133.709 77.7848C133.421 77.8224 133.151 77.8835 132.901 77.9682C132.653 78.0496 132.452 78.1734 132.299 78.3395C132.148 78.5024 132.073 78.7249 132.073 79.007C132.073 79.3924 132.216 79.6838 132.501 79.8813C132.789 80.0756 133.154 80.1727 133.596 80.1727ZM141.487 81.1504C140.886 81.1504 140.354 80.9984 139.894 80.6945C139.433 80.3874 139.073 79.9549 138.813 79.3971C138.553 78.8362 138.422 78.1734 138.422 77.4088C138.422 76.6504 138.553 75.9924 138.813 75.4346C139.073 74.8768 139.435 74.4459 139.898 74.1419C140.362 73.8379 140.898 73.686 141.506 73.686C141.976 73.686 142.347 73.7643 142.62 73.921C142.896 74.0745 143.106 74.25 143.25 74.4474C143.397 74.6417 143.512 74.8016 143.593 74.9269H143.687V71.3733H144.796V81H143.725V79.8907H143.593C143.512 80.0223 143.396 80.1884 143.245 80.3889C143.095 80.5864 142.88 80.7634 142.601 80.9201C142.322 81.0736 141.951 81.1504 141.487 81.1504ZM141.638 80.1539C142.083 80.1539 142.459 80.038 142.766 79.8061C143.073 79.571 143.306 79.2467 143.466 78.8331C143.626 78.4163 143.706 77.9352 143.706 77.39C143.706 76.851 143.628 76.3794 143.471 75.9751C143.314 75.5677 143.082 75.2512 142.775 75.0256C142.468 74.7969 142.089 74.6825 141.638 74.6825C141.168 74.6825 140.776 74.8031 140.463 75.0444C140.152 75.2826 139.919 75.6069 139.762 76.0174C139.609 76.4248 139.532 76.8823 139.532 77.39C139.532 77.9039 139.61 78.3708 139.767 78.7907C139.927 79.2075 140.162 79.5397 140.472 79.7873C140.785 80.0317 141.174 80.1539 141.638 80.1539ZM151.532 78.0481V73.78H152.642V81H151.532V79.7779H151.457C151.288 80.1445 151.025 80.4563 150.667 80.7133C150.31 80.9671 149.859 81.094 149.314 81.094C148.862 81.094 148.461 80.9953 148.11 80.7979C147.759 80.5973 147.484 80.2965 147.283 79.8954C147.082 79.4911 146.982 78.9819 146.982 78.3677V73.78H148.092V78.2925C148.092 78.8189 148.239 79.2389 148.533 79.5522C148.831 79.8656 149.21 80.0223 149.671 80.0223C149.947 80.0223 150.227 79.9518 150.512 79.8108C150.801 79.6697 151.042 79.4535 151.236 79.1621C151.434 78.8707 151.532 78.4993 151.532 78.0481ZM156.328 79.6838L156.253 80.1915C156.2 80.5487 156.118 80.9311 156.008 81.3384C155.902 81.7458 155.791 82.1297 155.675 82.4901C155.559 82.8504 155.463 83.1372 155.388 83.3503H154.542C154.583 83.1497 154.636 82.8849 154.702 82.5559C154.767 82.2268 154.833 81.8586 154.899 81.4513C154.968 81.047 155.024 80.6334 155.068 80.2103L155.125 79.6838H156.328ZM163.422 71.3733V81H162.257V71.3733H163.422ZM166.719 76.6567V81H165.609V73.78H166.681V74.9081H166.775C166.944 74.5415 167.201 74.2469 167.546 74.0244C167.891 73.7988 168.336 73.686 168.881 73.686C169.37 73.686 169.797 73.7862 170.164 73.9868C170.531 74.1842 170.816 74.485 171.02 74.8893C171.223 75.2904 171.325 75.7981 171.325 76.4123V81H170.216V76.4875C170.216 75.9203 170.068 75.4784 169.774 75.1619C169.479 74.8423 169.075 74.6825 168.561 74.6825C168.207 74.6825 167.891 74.7592 167.612 74.9128C167.336 75.0664 167.118 75.2904 166.958 75.585C166.798 75.8795 166.719 76.2368 166.719 76.6567ZM176.079 81.1504C175.477 81.1504 174.946 80.9984 174.485 80.6945C174.024 80.3874 173.664 79.9549 173.404 79.3971C173.144 78.8362 173.014 78.1734 173.014 77.4088C173.014 76.6504 173.144 75.9924 173.404 75.4346C173.664 74.8768 174.026 74.4459 174.49 74.1419C174.954 73.8379 175.489 73.686 176.097 73.686C176.567 73.686 176.939 73.7643 177.211 73.921C177.487 74.0745 177.697 74.25 177.841 74.4474C177.989 74.6417 178.103 74.8016 178.184 74.9269H178.278V71.3733H179.388V81H178.316V79.8907H178.184C178.103 80.0223 177.987 80.1884 177.837 80.3889C177.686 80.5864 177.471 80.7634 177.193 80.9201C176.914 81.0736 176.542 81.1504 176.079 81.1504ZM176.229 80.1539C176.674 80.1539 177.05 80.038 177.357 79.8061C177.664 79.571 177.898 79.2467 178.057 78.8331C178.217 78.4163 178.297 77.9352 178.297 77.39C178.297 76.851 178.219 76.3794 178.062 75.9751C177.905 75.5677 177.674 75.2512 177.366 75.0256C177.059 74.7969 176.68 74.6825 176.229 74.6825C175.759 74.6825 175.367 74.8031 175.054 75.0444C174.744 75.2826 174.51 75.6069 174.353 76.0174C174.2 76.4248 174.123 76.8823 174.123 77.39C174.123 77.9039 174.201 78.3708 174.358 78.7907C174.518 79.2075 174.753 79.5397 175.063 79.7873C175.377 80.0317 175.765 80.1539 176.229 80.1539ZM181.573 81V73.78H182.683V81H181.573ZM182.138 72.5766C181.921 72.5766 181.735 72.503 181.578 72.3557C181.425 72.2084 181.348 72.0314 181.348 71.8245C181.348 71.6177 181.425 71.4407 181.578 71.2934C181.735 71.1461 181.921 71.0725 182.138 71.0725C182.354 71.0725 182.539 71.1461 182.692 71.2934C182.849 71.4407 182.927 71.6177 182.927 71.8245C182.927 72.0314 182.849 72.2084 182.692 72.3557C182.539 72.503 182.354 72.5766 182.138 72.5766ZM186.839 81.1692C186.382 81.1692 185.967 81.083 185.594 80.9107C185.221 80.7352 184.925 80.4829 184.705 80.1539C184.486 79.8217 184.376 79.4206 184.376 78.9506C184.376 78.5369 184.458 78.2016 184.621 77.9446C184.784 77.6846 185.001 77.4809 185.274 77.3336C185.547 77.1863 185.847 77.0766 186.176 77.0045C186.509 76.9293 186.842 76.8698 187.178 76.8259C187.616 76.7695 187.972 76.7272 188.245 76.699C188.52 76.6677 188.721 76.616 188.846 76.5439C188.975 76.4718 189.039 76.3465 189.039 76.1678V76.1302C189.039 75.6665 188.912 75.3061 188.658 75.0491C188.408 74.7922 188.027 74.6637 187.516 74.6637C186.987 74.6637 186.571 74.7796 186.27 75.0115C185.97 75.2434 185.758 75.491 185.636 75.7542L184.583 75.3782C184.771 74.9394 185.022 74.5979 185.335 74.3534C185.652 74.1059 185.996 73.9335 186.369 73.8364C186.745 73.7361 187.115 73.686 187.479 73.686C187.71 73.686 187.977 73.7142 188.278 73.7706C188.582 73.8238 188.875 73.9351 189.157 74.1043C189.442 74.2735 189.678 74.5289 189.866 74.8705C190.054 75.2121 190.148 75.6696 190.148 76.2431V81H189.039V80.0223H188.983C188.907 80.179 188.782 80.3466 188.607 80.5252C188.431 80.7039 188.198 80.8559 187.906 80.9812C187.615 81.1065 187.259 81.1692 186.839 81.1692ZM187.008 80.1727C187.447 80.1727 187.817 80.0865 188.118 79.9142C188.422 79.7418 188.651 79.5193 188.804 79.2467C188.961 78.9741 189.039 78.6873 189.039 78.3865V77.3712C188.992 77.4276 188.889 77.4793 188.729 77.5263C188.572 77.5702 188.39 77.6093 188.184 77.6438C187.98 77.6752 187.781 77.7034 187.587 77.7284C187.395 77.7504 187.24 77.7692 187.121 77.7848C186.833 77.8224 186.563 77.8835 186.313 77.9682C186.065 78.0496 185.865 78.1734 185.711 78.3395C185.561 78.5024 185.485 78.7249 185.485 79.007C185.485 79.3924 185.628 79.6838 185.913 79.8813C186.202 80.0756 186.567 80.1727 187.008 80.1727Z" fill="white"/>
<path d="M136 11.5C135.337 11.5 134.701 11.2366 134.232 10.7678C133.763 10.2989 133.5 9.66304 133.5 9C133.5 8.33696 133.763 7.70107 134.232 7.23223C134.701 6.76339 135.337 6.5 136 6.5C136.663 6.5 137.299 6.76339 137.768 7.23223C138.237 7.70107 138.5 8.33696 138.5 9C138.5 9.3283 138.435 9.65339 138.31 9.95671C138.184 10.26 138 10.5356 137.768 10.7678C137.536 10.9999 137.26 11.1841 136.957 11.3097C136.653 11.4353 136.328 11.5 136 11.5ZM136 2C134.143 2 132.363 2.7375 131.05 4.05025C129.737 5.36301 129 7.14348 129 9C129 14.25 136 22 136 22C136 22 143 14.25 143 9C143 7.14348 142.263 5.36301 140.95 4.05025C139.637 2.7375 137.857 2 136 2Z" fill="#00B1EF"/>
</svg>
