<svg width="30" height="30" viewBox="0 0 30 30" fill="none" xmlns="http://www.w3.org/2000/svg">
<g clip-path="url(#clip0_1939_48)">
<path d="M27.9996 15.3982C27.9996 7.99864 22.001 2 14.6014 2C7.20177 2 1.20312 7.99864 1.20312 15.3982C1.20312 22.0856 6.10269 27.6286 12.5079 28.6337V19.2712H9.10599V15.3982H12.5079V12.4464C12.5079 9.08851 14.5082 7.23369 17.5687 7.23369C19.0345 7.23369 20.5678 7.49537 20.5678 7.49537V10.7926H18.8783C17.2139 10.7926 16.6948 11.8254 16.6948 12.885V15.3982H20.4108L19.8167 19.2712H16.6948V28.6337C23.1 27.6286 27.9996 22.0857 27.9996 15.3982Z" fill="#1877F2"/>
<path d="M19.8162 19.2719L20.4102 15.3989H16.6943V12.8857C16.6943 11.826 17.2134 10.7933 18.8778 10.7933H20.5672V7.49606C20.5672 7.49606 19.034 7.23438 17.568 7.23438C14.5077 7.23438 12.5074 9.08919 12.5074 12.4471V15.3989H9.10547V19.2719H12.5074V28.6344C13.1999 28.7429 13.8998 28.7973 14.6008 28.7972C15.3018 28.7973 16.0018 28.7429 16.6943 28.6344V19.2719H19.8162Z" fill="white"/>
</g>
<defs>
<clipPath id="clip0_1939_48">
<rect width="26.7965" height="26.7965" fill="white" transform="translate(1.20312 2)"/>
</clipPath>
</defs>
</svg>
