<svg width="105" height="25" viewBox="0 0 105 25" fill="none" xmlns="http://www.w3.org/2000/svg">
<path d="M1.2835 16V2.98709H9.6199V4.96317H3.64082V8.49597H9.04804V10.4721H3.64082V16H1.2835ZM23.3953 9.49354C23.3953 10.8957 23.1327 12.0966 22.6074 13.0962C22.0864 14.0917 21.3747 14.8542 20.4725 15.3837C19.5744 15.9132 18.5557 16.1779 17.4162 16.1779C16.2767 16.1779 15.2559 15.9132 14.3536 15.3837C13.4556 14.8499 12.7439 14.0853 12.2187 13.0899C11.6976 12.0902 11.4371 10.8914 11.4371 9.49354C11.4371 8.09144 11.6976 6.89266 12.2187 5.8972C12.7439 4.89751 13.4556 4.13292 14.3536 3.60342C15.2559 3.07393 16.2767 2.80918 17.4162 2.80918C18.5557 2.80918 19.5744 3.07393 20.4725 3.60342C21.3747 4.13292 22.0864 4.89751 22.6074 5.8972C23.1327 6.89266 23.3953 8.09144 23.3953 9.49354ZM21.0253 9.49354C21.0253 8.50656 20.8706 7.67419 20.5614 6.99644C20.2564 6.31445 19.8328 5.79978 19.2906 5.45243C18.7484 5.10084 18.1236 4.92505 17.4162 4.92505C16.7088 4.92505 16.084 5.10084 15.5418 5.45243C14.9996 5.79978 14.5739 6.31445 14.2646 6.99644C13.9597 7.67419 13.8072 8.50656 13.8072 9.49354C13.8072 10.4805 13.9597 11.315 14.2646 11.997C14.5739 12.6748 14.9996 13.1894 15.5418 13.541C16.084 13.8884 16.7088 14.062 17.4162 14.062C18.1236 14.062 18.7484 13.8884 19.2906 13.541C19.8328 13.1894 20.2564 12.6748 20.5614 11.997C20.8706 11.315 21.0253 10.4805 21.0253 9.49354ZM25.6239 16V2.98709H27.9813V14.0239H33.7125V16H25.6239ZM35.7585 16V2.98709H38.1158V14.0239H43.8471V16H35.7585ZM57.0141 9.49354C57.0141 10.8957 56.7515 12.0966 56.2262 13.0962C55.7052 14.0917 54.9935 14.8542 54.0913 15.3837C53.1932 15.9132 52.1745 16.1779 51.035 16.1779C49.8955 16.1779 48.8747 15.9132 47.9724 15.3837C47.0744 14.8499 46.3627 14.0853 45.8375 13.0899C45.3164 12.0902 45.0559 10.8914 45.0559 9.49354C45.0559 8.09144 45.3164 6.89266 45.8375 5.8972C46.3627 4.89751 47.0744 4.13292 47.9724 3.60342C48.8747 3.07393 49.8955 2.80918 51.035 2.80918C52.1745 2.80918 53.1932 3.07393 54.0913 3.60342C54.9935 4.13292 55.7052 4.89751 56.2262 5.8972C56.7515 6.89266 57.0141 8.09144 57.0141 9.49354ZM54.6441 9.49354C54.6441 8.50656 54.4894 7.67419 54.1802 6.99644C53.8752 6.31445 53.4516 5.79978 52.9094 5.45243C52.3672 5.10084 51.7424 4.92505 51.035 4.92505C50.3276 4.92505 49.7028 5.10084 49.1606 5.45243C48.6184 5.79978 48.1927 6.31445 47.8834 6.99644C47.5785 7.67419 47.426 8.50656 47.426 9.49354C47.426 10.4805 47.5785 11.315 47.8834 11.997C48.1927 12.6748 48.6184 13.1894 49.1606 13.541C49.7028 13.8884 50.3276 14.062 51.035 14.062C51.7424 14.062 52.3672 13.8884 52.9094 13.541C53.4516 13.1894 53.8752 12.6748 54.1802 11.997C54.4894 11.315 54.6441 10.4805 54.6441 9.49354ZM61.6493 16L57.9767 2.98709H60.5119L62.8566 12.5498H62.9773L65.4807 2.98709H67.7872L70.297 12.5562H70.4114L72.756 2.98709H75.2913L71.6187 16H69.2931L66.688 6.86936H66.5863L63.9748 16H61.6493Z" fill="black"/>
<path d="M89.567 2.98709H91.9243V11.4887C91.9243 12.4206 91.7041 13.2403 91.2635 13.9477C90.8272 14.6551 90.213 15.2079 89.4209 15.6061C88.6287 16 87.7032 16.197 86.6442 16.197C85.581 16.197 84.6533 16 83.8612 15.6061C83.069 15.2079 82.4548 14.6551 82.0185 13.9477C81.5822 13.2403 81.3641 12.4206 81.3641 11.4887V2.98709H83.7214V11.2917C83.7214 11.8339 83.84 12.3168 84.0772 12.7404C84.3186 13.164 84.6575 13.4965 85.0938 13.738C85.5301 13.9752 86.0469 14.0938 86.6442 14.0938C87.2415 14.0938 87.7583 13.9752 88.1946 13.738C88.6351 13.4965 88.974 13.164 89.2112 12.7404C89.4484 12.3168 89.567 11.8339 89.567 11.2917V2.98709ZM101.559 6.56437C101.499 6.00946 101.249 5.57739 100.809 5.26816C100.372 4.95894 99.8048 4.80432 99.1059 4.80432C98.6145 4.80432 98.193 4.87845 97.8415 5.02671C97.4899 5.17497 97.2209 5.37618 97.0345 5.63034C96.8481 5.8845 96.7528 6.17466 96.7486 6.50083C96.7486 6.77193 96.81 7.00703 96.9328 7.20612C97.0599 7.40521 97.2315 7.57465 97.4475 7.71444C97.6635 7.84999 97.9029 7.96436 98.1655 8.05755C98.4281 8.15074 98.6929 8.22911 98.9598 8.29265L100.18 8.59764C100.671 8.71201 101.143 8.86662 101.597 9.06148C102.054 9.25633 102.463 9.50202 102.823 9.79853C103.187 10.0951 103.475 10.453 103.687 10.8724C103.899 11.2917 104.005 11.7831 104.005 12.3465C104.005 13.1089 103.81 13.7803 103.42 14.3607C103.031 14.9368 102.467 15.3879 101.73 15.7141C100.997 16.036 100.11 16.197 99.0678 16.197C98.0554 16.197 97.1764 16.0402 96.4309 15.7268C95.6896 15.4133 95.1093 14.9558 94.6899 14.3543C94.2748 13.7528 94.0503 13.02 94.0164 12.1559H96.3356C96.3695 12.6091 96.5092 12.9861 96.7549 13.2869C97.0006 13.5876 97.3204 13.8121 97.7144 13.9604C98.1126 14.1086 98.5573 14.1828 99.0487 14.1828C99.5613 14.1828 100.01 14.1065 100.396 13.954C100.785 13.7973 101.09 13.5813 101.311 13.3059C101.531 13.0263 101.643 12.7002 101.647 12.3274C101.643 11.9885 101.544 11.709 101.349 11.4887C101.154 11.2642 100.881 11.0778 100.529 10.9295C100.182 10.777 99.7752 10.6415 99.3092 10.5229L97.8287 10.1416C96.757 9.86631 95.9099 9.44907 95.2872 8.88992C94.6687 8.32653 94.3595 7.57888 94.3595 6.64697C94.3595 5.88026 94.567 5.20886 94.9822 4.63277C95.4015 4.05667 95.9713 3.60978 96.6914 3.29208C97.4115 2.97015 98.2269 2.80918 99.1377 2.80918C100.061 2.80918 100.87 2.97015 101.565 3.29208C102.264 3.60978 102.812 4.05244 103.211 4.62006C103.609 5.18344 103.814 5.83155 103.827 6.56437H101.559Z" fill="#434343"/>
<path d="M24.3984 24.2617H79.7033" stroke="url(#paint0_linear_1944_2)" stroke-width="0.813307"/>
<defs>
<linearGradient id="paint0_linear_1944_2" x1="24.3984" y1="24.7617" x2="79.7033" y2="24.7617" gradientUnits="userSpaceOnUse">
<stop stop-color="white"/>
<stop offset="1" stop-color="#026DF9"/>
</linearGradient>
</defs>
</svg>
