<svg width="158" height="33" viewBox="0 0 158 33" fill="none" xmlns="http://www.w3.org/2000/svg">
<path d="M12.2969 8.10937C12.1667 7.6875 11.987 7.3099 11.7578 6.97656C11.5339 6.63802 11.263 6.34896 10.9453 6.10938C10.6328 5.86979 10.2734 5.6901 9.86719 5.57031C9.46094 5.44531 9.01823 5.38281 8.53906 5.38281C7.67969 5.38281 6.91406 5.59896 6.24219 6.03125C5.57031 6.46354 5.04167 7.09896 4.65625 7.9375C4.27604 8.77083 4.08594 9.78646 4.08594 10.9844C4.08594 12.1927 4.27604 13.2161 4.65625 14.0547C5.03646 14.8932 5.5651 15.5312 6.24219 15.9687C6.91927 16.401 7.70573 16.6172 8.60156 16.6172C9.41406 16.6172 10.1172 16.4609 10.7109 16.1484C11.3099 15.8359 11.7708 15.3932 12.0938 14.8203C12.4167 14.2422 12.5781 13.5651 12.5781 12.7891L13.2344 12.8906H8.89063V10.625H15.3828V12.5469C15.3828 13.9167 15.0911 15.1016 14.5078 16.1016C13.9245 17.1016 13.1224 17.8724 12.1016 18.4141C11.0807 18.9505 9.90885 19.2187 8.58594 19.2187C7.11198 19.2187 5.81771 18.888 4.70313 18.2266C3.59375 17.5599 2.72656 16.6146 2.10156 15.3906C1.48177 14.1615 1.17188 12.7031 1.17188 11.0156C1.17188 9.72396 1.35417 8.57031 1.71875 7.55469C2.08854 6.53906 2.60417 5.67708 3.26562 4.96875C3.92708 4.25521 4.70313 3.71354 5.59375 3.34375C6.48438 2.96875 7.45313 2.78125 8.5 2.78125C9.38542 2.78125 10.2109 2.91146 10.9766 3.17187C11.7422 3.42708 12.4219 3.79167 13.0156 4.26563C13.6146 4.73958 14.1068 5.30208 14.4922 5.95312C14.8776 6.60417 15.1302 7.32292 15.25 8.10937H12.2969ZM18.1855 19V3H28.5918V5.42969H21.084V9.77344H28.0527V12.2031H21.084V16.5703H28.6543V19H18.1855ZM30.8457 5.42969V3H43.6113V5.42969H38.666V19H35.791V5.42969H30.8457ZM54.4277 3V19H51.5293V3H54.4277ZM70.7148 3V19H68.1367L60.5977 8.10156H60.4648V19H57.5664V3H60.1602L67.6914 13.9062H67.832V3H70.7148Z" fill="black"/>
<path d="M78.627 5.42969V3H91.3926V5.42969H86.4473V19H83.5723V5.42969H78.627ZM107.441 11C107.441 12.724 107.118 14.2005 106.473 15.4297C105.832 16.6536 104.957 17.5911 103.848 18.2422C102.743 18.8932 101.491 19.2187 100.09 19.2187C98.6888 19.2187 97.4336 18.8932 96.3242 18.2422C95.2201 17.5859 94.3451 16.6458 93.6992 15.4219C93.0586 14.1927 92.7383 12.7187 92.7383 11C92.7383 9.27604 93.0586 7.80208 93.6992 6.57812C94.3451 5.34896 95.2201 4.40885 96.3242 3.75781C97.4336 3.10677 98.6888 2.78125 100.09 2.78125C101.491 2.78125 102.743 3.10677 103.848 3.75781C104.957 4.40885 105.832 5.34896 106.473 6.57812C107.118 7.80208 107.441 9.27604 107.441 11ZM104.527 11C104.527 9.78646 104.337 8.76302 103.957 7.92969C103.582 7.09115 103.061 6.45833 102.395 6.03125C101.728 5.59896 100.96 5.38281 100.09 5.38281C99.2201 5.38281 98.4518 5.59896 97.7852 6.03125C97.1185 6.45833 96.5951 7.09115 96.2148 7.92969C95.8398 8.76302 95.6523 9.78646 95.6523 11C95.6523 12.2135 95.8398 13.2396 96.2148 14.0781C96.5951 14.9115 97.1185 15.5443 97.7852 15.9766C98.4518 16.4036 99.2201 16.6172 100.09 16.6172C100.96 16.6172 101.728 16.4036 102.395 15.9766C103.061 15.5443 103.582 14.9115 103.957 14.0781C104.337 13.2396 104.527 12.2135 104.527 11ZM120.268 3H123.166V13.4531C123.166 14.599 122.895 15.6068 122.354 16.4766C121.817 17.3464 121.062 18.026 120.088 18.5156C119.114 19 117.976 19.2422 116.674 19.2422C115.367 19.2422 114.226 19 113.252 18.5156C112.278 18.026 111.523 17.3464 110.986 16.4766C110.45 15.6068 110.182 14.599 110.182 13.4531V3H113.08V13.2109C113.08 13.8776 113.226 14.4714 113.518 14.9922C113.814 15.513 114.231 15.9219 114.768 16.2188C115.304 16.5104 115.939 16.6562 116.674 16.6562C117.408 16.6562 118.044 16.5104 118.58 16.2188C119.122 15.9219 119.538 15.513 119.83 14.9922C120.122 14.4714 120.268 13.8776 120.268 13.2109V3ZM140.012 8.39844H137.09C137.007 7.91927 136.853 7.49479 136.629 7.125C136.405 6.75 136.126 6.43229 135.793 6.17187C135.46 5.91146 135.079 5.71615 134.652 5.58594C134.23 5.45052 133.775 5.38281 133.285 5.38281C132.415 5.38281 131.645 5.60156 130.973 6.03906C130.301 6.47135 129.775 7.10677 129.395 7.94531C129.014 8.77865 128.824 9.79687 128.824 11C128.824 12.224 129.014 13.2552 129.395 14.0937C129.78 14.9271 130.306 15.5573 130.973 15.9844C131.645 16.4062 132.413 16.6172 133.277 16.6172C133.757 16.6172 134.204 16.5547 134.621 16.4297C135.043 16.2995 135.421 16.1094 135.754 15.8594C136.092 15.6094 136.376 15.3021 136.605 14.9375C136.84 14.5729 137.001 14.1562 137.09 13.6875L140.012 13.7031C139.902 14.4635 139.665 15.1771 139.301 15.8438C138.941 16.5104 138.47 17.099 137.887 17.6094C137.303 18.1146 136.621 18.5104 135.84 18.7969C135.059 19.0781 134.191 19.2187 133.238 19.2187C131.832 19.2187 130.577 18.8932 129.473 18.2422C128.368 17.5911 127.499 16.651 126.863 15.4219C126.228 14.1927 125.91 12.7187 125.91 11C125.91 9.27604 126.23 7.80208 126.871 6.57812C127.512 5.34896 128.384 4.40885 129.488 3.75781C130.592 3.10677 131.842 2.78125 133.238 2.78125C134.129 2.78125 134.957 2.90625 135.723 3.15625C136.488 3.40625 137.171 3.77344 137.77 4.25781C138.368 4.73698 138.861 5.32552 139.246 6.02344C139.637 6.71615 139.892 7.50781 140.012 8.39844ZM142.666 19V3H145.564V9.77344H152.979V3H155.885V19H152.979V12.2031H145.564V19H142.666Z" fill="#00B7F0"/>
<path d="M46 32H114" stroke="url(#paint0_linear_1939_27)"/>
<defs>
<linearGradient id="paint0_linear_1939_27" x1="46" y1="32.5" x2="114" y2="32.5" gradientUnits="userSpaceOnUse">
<stop stop-color="white"/>
<stop offset="1" stop-color="#026DF9"/>
</linearGradient>
</defs>
</svg>
