<svg width="155" height="17" viewBox="0 0 155 17" fill="none" xmlns="http://www.w3.org/2000/svg">
<path d="M11.125 5.32812C10.9948 4.90625 10.8151 4.52865 10.5859 4.19531C10.362 3.85677 10.0911 3.56771 9.77344 3.32812C9.46094 3.08854 9.10156 2.90885 8.69531 2.78906C8.28906 2.66406 7.84635 2.60156 7.36719 2.60156C6.50781 2.60156 5.74219 2.81771 5.07031 3.25C4.39844 3.68229 3.86979 4.31771 3.48438 5.15625C3.10417 5.98958 2.91406 7.00521 2.91406 8.20312C2.91406 9.41146 3.10417 10.4349 3.48438 11.2734C3.86458 12.112 4.39323 12.75 5.07031 13.1875C5.7474 13.6198 6.53385 13.8359 7.42969 13.8359C8.24219 13.8359 8.94531 13.6797 9.53906 13.3672C10.138 13.0547 10.599 12.612 10.9219 12.0391C11.2448 11.4609 11.4063 10.7839 11.4063 10.0078L12.0625 10.1094H7.71875V7.84375H14.2109V9.76562C14.2109 11.1354 13.9193 12.3203 13.3359 13.3203C12.7526 14.3203 11.9505 15.0911 10.9297 15.6328C9.90885 16.1693 8.73698 16.4375 7.41406 16.4375C5.9401 16.4375 4.64583 16.1068 3.53125 15.4453C2.42188 14.7786 1.55469 13.8333 0.929688 12.6094C0.309896 11.3802 2.98023e-08 9.92187 2.98023e-08 8.23437C2.98023e-08 6.94271 0.182292 5.78906 0.546875 4.77344C0.916667 3.75781 1.43229 2.89583 2.09375 2.1875C2.75521 1.47396 3.53125 0.932291 4.42188 0.5625C5.3125 0.187499 6.28125 -5.96046e-07 7.32813 -5.96046e-07C8.21354 -5.96046e-07 9.03906 0.130208 9.80469 0.390625C10.5703 0.645833 11.25 1.01042 11.8437 1.48438C12.4427 1.95833 12.9349 2.52083 13.3203 3.17187C13.7057 3.82292 13.9583 4.54167 14.0781 5.32812H11.125ZM17.0137 16.2188V0.21875H27.4199V2.64844H19.9121V6.99219H26.8809V9.42187H19.9121V13.7891H27.4824V16.2188H17.0137ZM29.6738 2.64844V0.21875H42.4395V2.64844H37.4941V16.2188H34.6191V2.64844H29.6738ZM53.2559 0.21875V16.2188H50.3574V0.21875H53.2559ZM69.543 0.21875V16.2188H66.9648L59.4258 5.32031H59.293V16.2188H56.3945V0.21875H58.9883L66.5195 11.125H66.6602V0.21875H69.543Z" fill="white"/>
<path d="M77.4551 2.64844V0.21875H90.2207V2.64844H85.2754V16.2188H82.4004V2.64844H77.4551ZM106.27 8.21875C106.27 9.94271 105.947 11.4193 105.301 12.6484C104.66 13.8724 103.785 14.8099 102.676 15.4609C101.572 16.112 100.319 16.4375 98.918 16.4375C97.5169 16.4375 96.2617 16.112 95.1523 15.4609C94.0482 14.8047 93.1732 13.8646 92.5273 12.6406C91.8867 11.4115 91.5664 9.9375 91.5664 8.21875C91.5664 6.49479 91.8867 5.02083 92.5273 3.79687C93.1732 2.56771 94.0482 1.6276 95.1523 0.976562C96.2617 0.32552 97.5169 -5.96046e-07 98.918 -5.96046e-07C100.319 -5.96046e-07 101.572 0.32552 102.676 0.976562C103.785 1.6276 104.66 2.56771 105.301 3.79687C105.947 5.02083 106.27 6.49479 106.27 8.21875ZM103.355 8.21875C103.355 7.00521 103.165 5.98177 102.785 5.14844C102.41 4.3099 101.889 3.67708 101.223 3.25C100.556 2.81771 99.7878 2.60156 98.918 2.60156C98.0482 2.60156 97.2799 2.81771 96.6133 3.25C95.9466 3.67708 95.4232 4.3099 95.043 5.14844C94.668 5.98177 94.4805 7.00521 94.4805 8.21875C94.4805 9.43229 94.668 10.4583 95.043 11.2969C95.4232 12.1302 95.9466 12.763 96.6133 13.1953C97.2799 13.6224 98.0482 13.8359 98.918 13.8359C99.7878 13.8359 100.556 13.6224 101.223 13.1953C101.889 12.763 102.41 12.1302 102.785 11.2969C103.165 10.4583 103.355 9.43229 103.355 8.21875ZM119.096 0.21875H121.994V10.6719C121.994 11.8177 121.723 12.8255 121.182 13.6953C120.645 14.5651 119.89 15.2448 118.916 15.7344C117.942 16.2188 116.804 16.4609 115.502 16.4609C114.195 16.4609 113.054 16.2188 112.08 15.7344C111.106 15.2448 110.351 14.5651 109.814 13.6953C109.278 12.8255 109.01 11.8177 109.01 10.6719V0.21875H111.908V10.4297C111.908 11.0964 112.054 11.6901 112.346 12.2109C112.643 12.7318 113.059 13.1406 113.596 13.4375C114.132 13.7292 114.768 13.875 115.502 13.875C116.236 13.875 116.872 13.7292 117.408 13.4375C117.95 13.1406 118.367 12.7318 118.658 12.2109C118.95 11.6901 119.096 11.0964 119.096 10.4297V0.21875ZM138.84 5.61719H135.918C135.835 5.13802 135.681 4.71354 135.457 4.34375C135.233 3.96875 134.954 3.65104 134.621 3.39062C134.288 3.13021 133.908 2.9349 133.48 2.80469C133.059 2.66927 132.603 2.60156 132.113 2.60156C131.243 2.60156 130.473 2.82031 129.801 3.25781C129.129 3.6901 128.603 4.32552 128.223 5.16406C127.842 5.9974 127.652 7.01562 127.652 8.21875C127.652 9.44271 127.842 10.474 128.223 11.3125C128.608 12.1458 129.134 12.776 129.801 13.2031C130.473 13.625 131.241 13.8359 132.105 13.8359C132.585 13.8359 133.033 13.7734 133.449 13.6484C133.871 13.5182 134.249 13.3281 134.582 13.0781C134.921 12.8281 135.204 12.5208 135.434 12.1562C135.668 11.7917 135.829 11.375 135.918 10.9062L138.84 10.9219C138.73 11.6823 138.493 12.3958 138.129 13.0625C137.77 13.7292 137.298 14.3177 136.715 14.8281C136.132 15.3333 135.449 15.7292 134.668 16.0156C133.887 16.2969 133.02 16.4375 132.066 16.4375C130.66 16.4375 129.405 16.112 128.301 15.4609C127.197 14.8099 126.327 13.8698 125.691 12.6406C125.056 11.4115 124.738 9.9375 124.738 8.21875C124.738 6.49479 125.059 5.02083 125.699 3.79687C126.34 2.56771 127.212 1.6276 128.316 0.976562C129.421 0.32552 130.671 -5.96046e-07 132.066 -5.96046e-07C132.957 -5.96046e-07 133.785 0.124999 134.551 0.374999C135.316 0.625 135.999 0.992187 136.598 1.47656C137.197 1.95573 137.689 2.54427 138.074 3.24219C138.465 3.9349 138.72 4.72656 138.84 5.61719ZM141.494 16.2188V0.21875H144.393V6.99219H151.807V0.21875H154.713V16.2188H151.807V9.42187H144.393V16.2188H141.494Z" fill="#00B7F0"/>
</svg>
