<svg width="101" height="28" viewBox="0 0 101 28" fill="none" xmlns="http://www.w3.org/2000/svg">
<rect width="101" height="28" rx="5" fill="#D9D9D9"/>
<g clip-path="url(#clip0_1939_60)">
<path d="M20.5 7H13.5C13.2348 7 12.9804 7.10536 12.7929 7.29289C12.6054 7.48043 12.5 7.73478 12.5 8V20C12.5 20.2652 12.6054 20.5196 12.7929 20.7071C12.9804 20.8946 13.2348 21 13.5 21H20.5C20.7652 21 21.0196 20.8946 21.2071 20.7071C21.3946 20.5196 21.5 20.2652 21.5 20V8C21.5 7.73478 21.3946 7.48043 21.2071 7.29289C21.0196 7.10536 20.7652 7 20.5 7ZM17.5 20H16.5V19H17.5V20ZM13.5 18V8H20.5V18H13.5Z" fill="black"/>
</g>
<path d="M37.6171 6.93873C37.5853 6.6708 37.4567 6.4628 37.231 6.31474C37.0054 6.16667 36.7287 6.09263 36.4008 6.09263C36.1611 6.09263 35.9513 6.13141 35.7715 6.20897C35.5935 6.28653 35.4542 6.39318 35.3538 6.5289C35.255 6.66463 35.2057 6.81887 35.2057 6.99161C35.2057 7.13615 35.2401 7.26043 35.3088 7.36442C35.3793 7.46666 35.4692 7.55215 35.5785 7.6209C35.6878 7.68788 35.8024 7.74341 35.9222 7.78747C36.0421 7.82978 36.1523 7.86415 36.2527 7.89059L36.8027 8.03866C36.9437 8.07568 37.1006 8.12679 37.2733 8.19201C37.4478 8.25723 37.6144 8.34625 37.7731 8.45906C37.9335 8.57011 38.0657 8.71289 38.1697 8.8874C38.2737 9.06191 38.3257 9.27608 38.3257 9.52991C38.3257 9.82251 38.249 10.0869 38.0956 10.3231C37.944 10.5593 37.7219 10.7471 37.4293 10.8863C37.1385 11.0256 36.7851 11.0952 36.3691 11.0952C35.9813 11.0952 35.6455 11.0326 35.3617 10.9075C35.0797 10.7823 34.8576 10.6078 34.6954 10.3839C34.535 10.1601 34.4442 9.90007 34.423 9.60394H35.0999C35.1176 9.80841 35.1863 9.97763 35.3062 10.1116C35.4278 10.2438 35.5811 10.3425 35.7662 10.4077C35.9531 10.4712 36.154 10.5029 36.3691 10.5029C36.6194 10.5029 36.8441 10.4624 37.0433 10.3813C37.2425 10.2984 37.4003 10.1839 37.5166 10.0376C37.6329 9.8895 37.6911 9.71675 37.6911 9.51933C37.6911 9.33953 37.6409 9.19323 37.5404 9.08042C37.4399 8.9676 37.3077 8.87594 37.1438 8.80543C36.9798 8.73493 36.8027 8.67323 36.6123 8.62035L35.946 8.42998C35.523 8.30835 35.1881 8.13473 34.9413 7.9091C34.6945 7.68347 34.5711 7.38822 34.5711 7.02334C34.5711 6.72016 34.6531 6.45575 34.817 6.23013C34.9827 6.00274 35.2048 5.82647 35.4833 5.70131C35.7636 5.5744 36.0765 5.51094 36.422 5.51094C36.771 5.51094 37.0812 5.57352 37.3527 5.69867C37.6241 5.82206 37.8392 5.99128 37.9978 6.20633C38.1582 6.42138 38.2428 6.66551 38.2516 6.93873H37.6171ZM43.7612 7.27717H43.1055C43.0667 7.08856 42.9988 6.92287 42.9019 6.78009C42.8067 6.63731 42.6903 6.51745 42.5529 6.4205C42.4171 6.32179 42.2664 6.24775 42.1007 6.1984C41.935 6.14904 41.7623 6.12436 41.5825 6.12436C41.2546 6.12436 40.9576 6.20721 40.6914 6.3729C40.427 6.5386 40.2164 6.78273 40.0595 7.10531C39.9044 7.42788 39.8268 7.82361 39.8268 8.29249C39.8268 8.76137 39.9044 9.15709 40.0595 9.47967C40.2164 9.80224 40.427 10.0464 40.6914 10.2121C40.9576 10.3778 41.2546 10.4606 41.5825 10.4606C41.7623 10.4606 41.935 10.4359 42.1007 10.3866C42.2664 10.3372 42.4171 10.2641 42.5529 10.1671C42.6903 10.0684 42.8067 9.94767 42.9019 9.80489C42.9988 9.66035 43.0667 9.49465 43.1055 9.30781H43.7612C43.7118 9.58455 43.6219 9.83221 43.4915 10.0508C43.3611 10.2694 43.1989 10.4553 43.005 10.6087C42.8111 10.7603 42.5934 10.8757 42.3519 10.9551C42.1122 11.0344 41.8557 11.074 41.5825 11.074C41.1207 11.074 40.7099 10.9612 40.3504 10.7356C39.9908 10.51 39.7079 10.1892 39.5016 9.77316C39.2954 9.35716 39.1923 8.8636 39.1923 8.29249C39.1923 7.72137 39.2954 7.22782 39.5016 6.81182C39.7079 6.39582 39.9908 6.07501 40.3504 5.84938C40.7099 5.62376 41.1207 5.51094 41.5825 5.51094C41.8557 5.51094 42.1122 5.5506 42.3519 5.62993C42.5934 5.70925 42.8111 5.82559 43.005 5.97894C43.1989 6.13053 43.3611 6.31562 43.4915 6.53419C43.6219 6.751 43.7118 6.99866 43.7612 7.27717ZM45.0429 11H44.3554L46.3438 5.58498H47.0206L49.009 11H48.3215L46.7034 6.44165H46.6611L45.0429 11ZM45.2967 8.88476H48.0677V9.46645H45.2967V8.88476ZM54.1464 5.58498V11H53.5118L50.561 6.74836H50.5082V11H49.8524V5.58498H50.487L53.4483 9.84719H53.5012V5.58498H54.1464ZM57.2564 6.16667V5.58498H61.3177V6.16667H59.6149V11H58.9592V6.16667H57.2564ZM66.6732 8.29249C66.6732 8.8636 66.5701 9.35716 66.3639 9.77316C66.1577 10.1892 65.8747 10.51 65.5151 10.7356C65.1556 10.9612 64.7448 11.074 64.283 11.074C63.8212 11.074 63.4105 10.9612 63.0509 10.7356C62.6913 10.51 62.4084 10.1892 62.2021 9.77316C61.9959 9.35716 61.8928 8.8636 61.8928 8.29249C61.8928 7.72137 61.9959 7.22782 62.2021 6.81182C62.4084 6.39582 62.6913 6.07501 63.0509 5.84938C63.4105 5.62376 63.8212 5.51094 64.283 5.51094C64.7448 5.51094 65.1556 5.62376 65.5151 5.84938C65.8747 6.07501 66.1577 6.39582 66.3639 6.81182C66.5701 7.22782 66.6732 7.72137 66.6732 8.29249ZM66.0387 8.29249C66.0387 7.82361 65.9602 7.42788 65.8033 7.10531C65.6482 6.78273 65.4376 6.5386 65.1714 6.3729C64.907 6.20721 64.6109 6.12436 64.283 6.12436C63.9552 6.12436 63.6581 6.20721 63.392 6.3729C63.1276 6.5386 62.9169 6.78273 62.76 7.10531C62.6049 7.42788 62.5274 7.82361 62.5274 8.29249C62.5274 8.76137 62.6049 9.15709 62.76 9.47967C62.9169 9.80224 63.1276 10.0464 63.392 10.2121C63.6581 10.3778 63.9552 10.4606 64.283 10.4606C64.6109 10.4606 64.907 10.3778 65.1714 10.2121C65.4376 10.0464 65.6482 9.80224 65.8033 9.47967C65.9602 9.15709 66.0387 8.76137 66.0387 8.29249ZM70.092 5.58498L71.6996 10.1433H71.763L73.3706 5.58498H74.0581L72.0698 11H71.3929L69.4046 5.58498H70.092ZM75.5573 5.58498V11H74.9015V5.58498H75.5573ZM79.8334 6.93873C79.8016 6.6708 79.673 6.4628 79.4473 6.31474C79.2217 6.16667 78.945 6.09263 78.6171 6.09263C78.3774 6.09263 78.1676 6.13141 77.9878 6.20897C77.8098 6.28653 77.6705 6.39318 77.5701 6.5289C77.4713 6.66463 77.422 6.81887 77.422 6.99161C77.422 7.13615 77.4564 7.26043 77.5251 7.36442C77.5956 7.46666 77.6855 7.55215 77.7948 7.6209C77.9041 7.68788 78.0187 7.74341 78.1385 7.78747C78.2584 7.82978 78.3686 7.86415 78.469 7.89059L79.019 8.03866C79.16 8.07568 79.3169 8.12679 79.4896 8.19201C79.6641 8.25723 79.8307 8.34625 79.9894 8.45906C80.1498 8.57011 80.282 8.71289 80.386 8.8874C80.49 9.06191 80.542 9.27608 80.542 9.52991C80.542 9.82251 80.4653 10.0869 80.3119 10.3231C80.1603 10.5593 79.9382 10.7471 79.6456 10.8863C79.3548 11.0256 79.0014 11.0952 78.5854 11.0952C78.1976 11.0952 77.8618 11.0326 77.578 10.9075C77.296 10.7823 77.0739 10.6078 76.9117 10.3839C76.7513 10.1601 76.6605 9.90007 76.6393 9.60394H77.3162C77.3339 9.80841 77.4026 9.97763 77.5225 10.1116C77.6441 10.2438 77.7974 10.3425 77.9825 10.4077C78.1694 10.4712 78.3703 10.5029 78.5854 10.5029C78.8357 10.5029 79.0604 10.4624 79.2596 10.3813C79.4588 10.2984 79.6166 10.1839 79.7329 10.0376C79.8492 9.8895 79.9074 9.71675 79.9074 9.51933C79.9074 9.33953 79.8572 9.19323 79.7567 9.08042C79.6562 8.9676 79.524 8.87594 79.3601 8.80543C79.1961 8.73493 79.019 8.67323 78.8286 8.62035L78.1623 8.42998C77.7393 8.30835 77.4044 8.13473 77.1576 7.9091C76.9108 7.68347 76.7874 7.38822 76.7874 7.02334C76.7874 6.72016 76.8694 6.45575 77.0333 6.23013C77.199 6.00274 77.4211 5.82647 77.6996 5.70131C77.9799 5.5744 78.2928 5.51094 78.6383 5.51094C78.9873 5.51094 79.2975 5.57352 79.569 5.69867C79.8404 5.82206 80.0555 5.99128 80.2141 6.20633C80.3745 6.42138 80.4591 6.66551 80.4679 6.93873H79.8334ZM82.2758 5.58498V11H81.6201V5.58498H82.2758ZM83.2944 6.16667V5.58498H87.3557V6.16667H85.6529V11H84.9972V6.16667H83.2944ZM39.2247 18.2925C39.2247 18.8636 39.1215 19.3572 38.9153 19.7732C38.7091 20.1892 38.4261 20.51 38.0666 20.7356C37.707 20.9612 37.2963 21.074 36.8344 21.074C36.3726 21.074 35.9619 20.9612 35.6023 20.7356C35.2427 20.51 34.9598 20.1892 34.7536 19.7732C34.5473 19.3572 34.4442 18.8636 34.4442 18.2925C34.4442 17.7214 34.5473 17.2278 34.7536 16.8118C34.9598 16.3958 35.2427 16.075 35.6023 15.8494C35.9619 15.6238 36.3726 15.5109 36.8344 15.5109C37.2963 15.5109 37.707 15.6238 38.0666 15.8494C38.4261 16.075 38.7091 16.3958 38.9153 16.8118C39.1215 17.2278 39.2247 17.7214 39.2247 18.2925ZM38.5901 18.2925C38.5901 17.8236 38.5116 17.4279 38.3548 17.1053C38.1996 16.7827 37.989 16.5386 37.7228 16.3729C37.4584 16.2072 37.1623 16.1244 36.8344 16.1244C36.5066 16.1244 36.2095 16.2072 35.9434 16.3729C35.679 16.5386 35.4683 16.7827 35.3115 17.1053C35.1563 17.4279 35.0788 17.8236 35.0788 18.2925C35.0788 18.7614 35.1563 19.1571 35.3115 19.4797C35.4683 19.8022 35.679 20.0464 35.9434 20.2121C36.2095 20.3778 36.5066 20.4606 36.8344 20.4606C37.1623 20.4606 37.4584 20.3778 37.7228 20.2121C37.989 20.0464 38.1996 19.8022 38.3548 19.4797C38.5116 19.1571 38.5901 18.7614 38.5901 18.2925ZM43.8808 15.585H44.5366V19.1703C44.5366 19.5405 44.4493 19.871 44.2748 20.1618C44.1021 20.4509 43.8579 20.6792 43.5424 20.8466C43.2269 21.0123 42.8567 21.0952 42.4319 21.0952C42.0071 21.0952 41.6369 21.0123 41.3214 20.8466C41.0059 20.6792 40.7608 20.4509 40.5863 20.1618C40.4136 19.871 40.3272 19.5405 40.3272 19.1703V15.585H40.9829V19.1174C40.9829 19.3818 41.0411 19.6172 41.1575 19.8234C41.2738 20.0279 41.4395 20.1892 41.6545 20.3073C41.8714 20.4236 42.1305 20.4818 42.4319 20.4818C42.7333 20.4818 42.9924 20.4236 43.2092 20.3073C43.4261 20.1892 43.5917 20.0279 43.7063 19.8234C43.8227 19.6172 43.8808 19.3818 43.8808 19.1174V15.585ZM45.846 21V15.585H47.6757C48.0988 15.585 48.446 15.6572 48.7175 15.8018C48.9889 15.9446 49.1899 16.1411 49.3203 16.3914C49.4508 16.6417 49.516 16.9264 49.516 17.2454C49.516 17.5645 49.4508 17.8474 49.3203 18.0942C49.1899 18.341 48.9898 18.5349 48.7201 18.6759C48.4504 18.8151 48.1058 18.8848 47.6863 18.8848H46.2056V18.2925H47.6651C47.9542 18.2925 48.1869 18.2502 48.3632 18.1656C48.5412 18.081 48.6699 17.9611 48.7492 17.806C48.8303 17.6491 48.8708 17.4623 48.8708 17.2454C48.8708 17.0286 48.8303 16.8391 48.7492 16.677C48.6681 16.5148 48.5386 16.3897 48.3605 16.3015C48.1825 16.2116 47.9472 16.1667 47.6546 16.1667H46.5018V21H45.846ZM48.3949 18.5675L49.7275 21H48.966L47.6546 18.5675H48.3949ZM53.6863 21L52.2056 15.585H52.8719L54.0036 19.9953H54.0565L55.2093 15.585H55.9496L57.1024 19.9953H57.1553L58.287 15.585H58.9533L57.4726 21H56.7957L55.6006 16.6849H55.5583L54.3632 21H53.6863ZM59.7703 21V15.585H63.0383V16.1667H60.426V17.9964H62.8691V18.578H60.426V20.4183H63.0806V21H59.7703ZM64.2202 21V15.585H66.1134C66.4906 15.585 66.8017 15.6502 67.0467 15.7806C67.2917 15.9093 67.4742 16.0829 67.594 16.3015C67.7139 16.5183 67.7738 16.7589 67.7738 17.0233C67.7738 17.256 67.7324 17.4482 67.6496 17.5997C67.5685 17.7513 67.461 17.8712 67.327 17.9593C67.1948 18.0475 67.0511 18.1127 66.896 18.155V18.2079C67.0617 18.2185 67.2283 18.2766 67.3957 18.3824C67.5632 18.4881 67.7033 18.6397 67.8161 18.8372C67.9289 19.0346 67.9854 19.2761 67.9854 19.5616C67.9854 19.8331 67.9237 20.0772 67.8003 20.294C67.6769 20.5108 67.4821 20.6827 67.2159 20.8096C66.9498 20.9365 66.6034 21 66.1768 21H64.2202ZM64.8759 20.4183H66.1768C66.6052 20.4183 66.9092 20.3355 67.089 20.1698C67.2706 20.0023 67.3614 19.7996 67.3614 19.5616C67.3614 19.3783 67.3146 19.2091 67.2212 19.054C67.1278 18.8971 66.9947 18.7719 66.822 18.6785C66.6492 18.5833 66.4448 18.5357 66.2086 18.5357H64.8759V20.4183ZM64.8759 17.9646H66.0922C66.2896 17.9646 66.4677 17.9258 66.6263 17.8483C66.7867 17.7707 66.9136 17.6614 67.0071 17.5204C67.1022 17.3794 67.1498 17.2137 67.1498 17.0233C67.1498 16.7854 67.067 16.5835 66.9013 16.4179C66.7356 16.2504 66.473 16.1667 66.1134 16.1667H64.8759V17.9646ZM72.0241 16.9387C71.9924 16.6708 71.8637 16.4628 71.6381 16.3147C71.4125 16.1667 71.1357 16.0926 70.8079 16.0926C70.5682 16.0926 70.3584 16.1314 70.1786 16.209C70.0006 16.2865 69.8613 16.3932 69.7608 16.5289C69.6621 16.6646 69.6128 16.8189 69.6128 16.9916C69.6128 17.1362 69.6471 17.2604 69.7159 17.3644C69.7864 17.4667 69.8763 17.5522 69.9856 17.6209C70.0949 17.6879 70.2094 17.7434 70.3293 17.7875C70.4492 17.8298 70.5593 17.8642 70.6598 17.8906L71.2098 18.0387C71.3508 18.0757 71.5077 18.1268 71.6804 18.192C71.8549 18.2572 72.0215 18.3463 72.1801 18.4591C72.3406 18.5701 72.4728 18.7129 72.5768 18.8874C72.6808 19.0619 72.7328 19.2761 72.7328 19.5299C72.7328 19.8225 72.6561 20.0869 72.5027 20.3231C72.3511 20.5593 72.129 20.7471 71.8364 20.8863C71.5456 21.0256 71.1922 21.0952 70.7762 21.0952C70.3884 21.0952 70.0526 21.0326 69.7688 20.9075C69.4867 20.7823 69.2646 20.6078 69.1025 20.3839C68.9421 20.1601 68.8513 19.9001 68.8301 19.6039H69.507C69.5246 19.8084 69.5934 19.9776 69.7132 20.1116C69.8349 20.2438 69.9882 20.3425 70.1733 20.4077C70.3602 20.4712 70.5611 20.5029 70.7762 20.5029C71.0265 20.5029 71.2512 20.4624 71.4504 20.3813C71.6496 20.2984 71.8073 20.1839 71.9237 20.0376C72.04 19.8895 72.0982 19.7168 72.0982 19.5193C72.0982 19.3395 72.0479 19.1932 71.9475 19.0804C71.847 18.9676 71.7148 18.8759 71.5509 18.8054C71.3869 18.7349 71.2098 18.6732 71.0194 18.6204L70.3531 18.43C69.9301 18.3084 69.5951 18.1347 69.3484 17.9091C69.1016 17.6835 68.9782 17.3882 68.9782 17.0233C68.9782 16.7202 69.0602 16.4558 69.2241 16.2301C69.3898 16.0027 69.6119 15.8265 69.8904 15.7013C70.1707 15.5744 70.4835 15.5109 70.829 15.5109C71.1781 15.5109 71.4883 15.5735 71.7597 15.6987C72.0312 15.8221 72.2462 15.9913 72.4049 16.2063C72.5653 16.4214 72.6499 16.6655 72.6587 16.9387H72.0241ZM74.4666 15.585V21H73.8109V15.585H74.4666ZM75.4852 16.1667V15.585H79.5465V16.1667H77.8437V21H77.188V16.1667H75.4852ZM80.5585 21V15.585H83.8265V16.1667H81.2142V17.9964H83.6573V18.578H81.2142V20.4183H83.8689V21H80.5585Z" fill="black"/>
<defs>
<clipPath id="clip0_1939_60">
<rect width="18" height="18" fill="white" transform="translate(8 5)"/>
</clipPath>
</defs>
</svg>
