<svg width="168" height="27" viewBox="0 0 168 27" fill="none" xmlns="http://www.w3.org/2000/svg">
<path d="M4.3446 21.7255C3.7471 21.7255 3.23579 21.513 2.81066 21.0878C2.38553 20.6627 2.1726 20.151 2.17188 19.5528V6.51647C2.17188 5.91897 2.3848 5.40766 2.81066 4.98253C3.23651 4.5574 3.74782 4.34447 4.3446 4.34375H21.7264C22.3239 4.34375 22.8356 4.55668 23.2614 4.98253C23.6873 5.40838 23.8998 5.9197 23.8991 6.51647V19.5528C23.8991 20.1503 23.6865 20.662 23.2614 21.0878C22.8363 21.5137 22.3246 21.7263 21.7264 21.7255H4.3446ZM13.0355 14.121L21.7264 8.6892V6.51647L13.0355 11.9483L4.3446 6.51647V8.6892L13.0355 14.121Z" fill="#00B1EF"/>
<path d="M47.2037 12.4321L46.2072 12.7141C46.1445 12.5481 46.0521 12.3867 45.9299 12.23C45.8108 12.0702 45.6478 11.9386 45.441 11.8351C45.2342 11.7317 44.9694 11.68 44.6466 11.68C44.2048 11.68 43.8366 11.7819 43.542 11.9856C43.2506 12.1861 43.1049 12.4415 43.1049 12.7517C43.1049 13.0275 43.2051 13.2453 43.4057 13.4051C43.6062 13.5649 43.9196 13.6981 44.3458 13.8047L45.4175 14.0679C46.0631 14.2246 46.5441 14.4643 46.8606 14.7871C47.1771 15.1067 47.3353 15.5188 47.3353 16.0233C47.3353 16.437 47.2163 16.8067 46.9781 17.1327C46.7431 17.4586 46.414 17.7155 45.991 17.9035C45.5679 18.0916 45.0759 18.1856 44.515 18.1856C43.7786 18.1856 43.1691 18.0258 42.6865 17.7061C42.2039 17.3865 41.8984 16.9196 41.7699 16.3054L42.8228 16.0421C42.9231 16.4307 43.1127 16.7221 43.3916 16.9164C43.6736 17.1107 44.0418 17.2079 44.4962 17.2079C45.0133 17.2079 45.4238 17.0982 45.7278 16.8788C46.0349 16.6563 46.1884 16.39 46.1884 16.0797C46.1884 15.829 46.1007 15.6191 45.9252 15.4499C45.7497 15.2775 45.4802 15.149 45.1167 15.0644L43.9133 14.7824C43.2521 14.6257 42.7664 14.3828 42.4562 14.0538C42.1491 13.7216 41.9955 13.3064 41.9955 12.8082C41.9955 12.4008 42.1099 12.0404 42.3387 11.727C42.5706 11.4137 42.8855 11.1677 43.2835 10.989C43.6846 10.8104 44.139 10.7211 44.6466 10.7211C45.3611 10.7211 45.922 10.8778 46.3294 11.1912C46.7399 11.5045 47.0314 11.9182 47.2037 12.4321ZM53.5553 15.0832V10.8151H54.6647V18.0352H53.5553V16.813H53.4801C53.3109 17.1797 53.0477 17.4915 52.6904 17.7484C52.3332 18.0023 51.8819 18.1292 51.3367 18.1292C50.8854 18.1292 50.4843 18.0305 50.1333 17.833C49.7824 17.6325 49.5066 17.3316 49.306 16.9305C49.1055 16.5263 49.0052 16.0171 49.0052 15.4029V10.8151H50.1145V15.3276C50.1145 15.8541 50.2618 16.274 50.5564 16.5874C50.8541 16.9008 51.2333 17.0574 51.6939 17.0574C51.9697 17.0574 52.2501 16.9869 52.5353 16.8459C52.8236 16.7049 53.0649 16.4887 53.2592 16.1972C53.4566 15.9058 53.5553 15.5345 53.5553 15.0832ZM56.6965 20.7427V10.8151H57.7682V11.9621H57.8998C57.9813 11.8367 58.0941 11.6769 58.2382 11.4826C58.3855 11.2852 58.5955 11.1097 58.8681 10.9561C59.1439 10.7995 59.5168 10.7211 59.9868 10.7211C60.5948 10.7211 61.1306 10.8731 61.5944 11.1771C62.0582 11.481 62.4202 11.9119 62.6803 12.4697C62.9404 13.0275 63.0704 13.6856 63.0704 14.4439C63.0704 15.2086 62.9404 15.8713 62.6803 16.4323C62.4202 16.9901 62.0598 17.4225 61.5991 17.7296C61.1385 18.0336 60.6073 18.1856 60.0056 18.1856C59.5419 18.1856 59.1705 18.1088 58.8916 17.9552C58.6127 17.7986 58.3981 17.6215 58.2476 17.4241C58.0972 17.2235 57.9813 17.0574 57.8998 16.9258H57.8058V20.7427H56.6965ZM57.787 14.4251C57.787 14.9704 57.8669 15.4514 58.0267 15.8682C58.1865 16.2819 58.42 16.6062 58.7271 16.8412C59.0342 17.0731 59.4102 17.1891 59.8552 17.1891C60.319 17.1891 60.706 17.0668 61.0163 16.8224C61.3296 16.5749 61.5647 16.2427 61.7213 15.8259C61.8812 15.406 61.9611 14.9391 61.9611 14.4251C61.9611 13.9175 61.8827 13.46 61.726 13.0526C61.5725 12.6421 61.339 12.3177 61.0257 12.0796C60.7154 11.8383 60.3253 11.7176 59.8552 11.7176C59.404 11.7176 59.0248 11.832 58.7177 12.0608C58.4106 12.2864 58.1787 12.6029 58.022 13.0103C57.8653 13.4145 57.787 13.8861 57.787 14.4251ZM64.7626 20.7427V10.8151H65.8343V11.9621H65.9659C66.0474 11.8367 66.1602 11.6769 66.3044 11.4826C66.4517 11.2852 66.6616 11.1097 66.9342 10.9561C67.21 10.7995 67.5829 10.7211 68.053 10.7211C68.6609 10.7211 69.1968 10.8731 69.6606 11.1771C70.1243 11.481 70.4863 11.9119 70.7464 12.4697C71.0065 13.0275 71.1365 13.6856 71.1365 14.4439C71.1365 15.2086 71.0065 15.8713 70.7464 16.4323C70.4863 16.9901 70.1259 17.4225 69.6653 17.7296C69.2046 18.0336 68.6734 18.1856 68.0718 18.1856C67.608 18.1856 67.2366 18.1088 66.9577 17.9552C66.6789 17.7986 66.4642 17.6215 66.3138 17.4241C66.1634 17.2235 66.0474 17.0574 65.9659 16.9258H65.8719V20.7427H64.7626ZM65.8531 14.4251C65.8531 14.9704 65.933 15.4514 66.0929 15.8682C66.2527 16.2819 66.4861 16.6062 66.7932 16.8412C67.1003 17.0731 67.4764 17.1891 67.9214 17.1891C68.3851 17.1891 68.7722 17.0668 69.0824 16.8224C69.3958 16.5749 69.6308 16.2427 69.7875 15.8259C69.9473 15.406 70.0272 14.9391 70.0272 14.4251C70.0272 13.9175 69.9489 13.46 69.7922 13.0526C69.6386 12.6421 69.4052 12.3177 69.0918 12.0796C68.7816 11.8383 68.3914 11.7176 67.9214 11.7176C67.4701 11.7176 67.0909 11.832 66.7838 12.0608C66.4767 12.2864 66.2448 12.6029 66.0881 13.0103C65.9315 13.4145 65.8531 13.8861 65.8531 14.4251ZM75.7619 18.1856C75.1101 18.1856 74.5382 18.0305 74.0462 17.7202C73.5573 17.41 73.175 16.976 72.8992 16.4182C72.6266 15.8604 72.4903 15.2086 72.4903 14.4627C72.4903 13.7107 72.6266 13.0541 72.8992 12.4932C73.175 11.9323 73.5573 11.4967 74.0462 11.1865C74.5382 10.8762 75.1101 10.7211 75.7619 10.7211C76.4137 10.7211 76.984 10.8762 77.4729 11.1865C77.9648 11.4967 78.3472 11.9323 78.6198 12.4932C78.8956 13.0541 79.0334 13.7107 79.0334 14.4627C79.0334 15.2086 78.8956 15.8604 78.6198 16.4182C78.3472 16.976 77.9648 17.41 77.4729 17.7202C76.984 18.0305 76.4137 18.1856 75.7619 18.1856ZM75.7619 17.1891C76.257 17.1891 76.6644 17.0621 76.984 16.8083C77.3036 16.5545 77.5402 16.2207 77.6938 15.8071C77.8473 15.3935 77.9241 14.9453 77.9241 14.4627C77.9241 13.9802 77.8473 13.5305 77.6938 13.1137C77.5402 12.6969 77.3036 12.36 76.984 12.1031C76.6644 11.8461 76.257 11.7176 75.7619 11.7176C75.2667 11.7176 74.8594 11.8461 74.5397 12.1031C74.2201 12.36 73.9835 12.6969 73.8299 13.1137C73.6764 13.5305 73.5996 13.9802 73.5996 14.4627C73.5996 14.9453 73.6764 15.3935 73.8299 15.8071C73.9835 16.2207 74.2201 16.5545 74.5397 16.8083C74.8594 17.0621 75.2667 17.1891 75.7619 17.1891ZM80.7268 18.0352V10.8151H81.7985V11.9057H81.8737C82.0054 11.5484 82.2435 11.2585 82.5882 11.036C82.9329 10.8136 83.3215 10.7023 83.754 10.7023C83.8354 10.7023 83.9373 10.7039 84.0595 10.707C84.1817 10.7101 84.2741 10.7148 84.3368 10.7211V11.8492C84.2992 11.8398 84.213 11.8257 84.0783 11.8069C83.9467 11.785 83.8072 11.774 83.6599 11.774C83.309 11.774 82.9956 11.8477 82.7198 11.995C82.4472 12.1391 82.231 12.3397 82.0712 12.5966C81.9145 12.8505 81.8361 13.1403 81.8361 13.4662V18.0352H80.7268ZM89.2442 10.8151V11.7552H85.5026V10.8151H89.2442ZM86.5931 9.08533H87.7024V15.9669C87.7024 16.2803 87.7479 16.5153 87.8387 16.672C87.9327 16.8256 88.0518 16.929 88.196 16.9822C88.3433 17.0324 88.4984 17.0574 88.6613 17.0574C88.7835 17.0574 88.8838 17.0512 88.9622 17.0386C89.0405 17.023 89.1032 17.0104 89.1502 17.001L89.3758 17.9976C89.3006 18.0258 89.1956 18.054 89.0609 18.0822C88.9261 18.1135 88.7553 18.1292 88.5485 18.1292C88.2351 18.1292 87.928 18.0618 87.6272 17.927C87.3295 17.7923 87.0819 17.587 86.8845 17.3113C86.6902 17.0355 86.5931 16.6877 86.5931 16.2678V9.08533ZM96.4595 20.5734C95.5006 20.5734 94.6529 20.4418 93.9165 20.1786C93.1801 19.9185 92.5612 19.5346 92.0598 19.027C91.5584 18.5193 91.1792 17.8973 90.9223 17.1609C90.6653 16.4244 90.5368 15.5815 90.5368 14.632C90.5368 13.7138 90.6669 12.8928 90.927 12.1689C91.1902 11.445 91.571 10.8308 92.0692 10.3263C92.5706 9.81861 93.1785 9.4316 93.893 9.16524C94.6106 8.89887 95.4223 8.76569 96.3279 8.76569C97.2085 8.76569 97.9794 8.90984 98.6406 9.19814C99.3049 9.4833 99.8596 9.87032 100.305 10.3592C100.753 10.8449 101.088 11.3917 101.31 11.9997C101.536 12.6076 101.649 13.2343 101.649 13.8799C101.649 14.3343 101.627 14.7949 101.583 15.2618C101.539 15.7288 101.447 16.1581 101.306 16.5498C101.165 16.9384 100.947 17.2517 100.652 17.4899C100.361 17.7281 99.9661 17.8471 99.4679 17.8471C99.2485 17.8471 99.0072 17.8127 98.744 17.7437C98.4808 17.6748 98.2473 17.5604 98.0436 17.4006C97.8399 17.2408 97.7193 17.0261 97.6817 16.7566H97.6253C97.55 16.9384 97.4341 17.1107 97.2774 17.2737C97.1239 17.4366 96.9217 17.5667 96.671 17.6638C96.4235 17.761 96.1211 17.8033 95.7638 17.7907C95.3565 17.7751 94.9977 17.6842 94.6874 17.5181C94.3772 17.3489 94.1171 17.1201 93.9071 16.8318C93.7003 16.5404 93.5436 16.2035 93.4371 15.8212C93.3337 15.4358 93.282 15.0205 93.282 14.5756C93.282 14.1525 93.3446 13.7655 93.47 13.4145C93.5953 13.0636 93.7692 12.7564 93.9917 12.4932C94.2174 12.23 94.4806 12.02 94.7814 11.8633C95.0854 11.7035 95.4129 11.6048 95.7638 11.5672C96.0772 11.5359 96.3624 11.55 96.6193 11.6095C96.8763 11.6659 97.0878 11.7521 97.2539 11.868C97.42 11.9809 97.525 12.1062 97.5688 12.2441H97.6253V11.7176H98.6218V15.9669C98.6218 16.2301 98.6954 16.462 98.8427 16.6626C98.99 16.8632 99.2046 16.9634 99.4867 16.9634C99.8063 16.9634 100.051 16.8538 100.22 16.6344C100.392 16.415 100.51 16.0766 100.572 15.6191C100.638 15.1616 100.671 14.5756 100.671 13.8611C100.671 13.4412 100.613 13.0275 100.497 12.6201C100.384 12.2096 100.212 11.8257 99.9802 11.4685C99.7515 11.1113 99.4616 10.7963 99.1106 10.5237C98.7597 10.2511 98.3476 10.038 97.8744 9.88442C97.4043 9.72773 96.87 9.64939 96.2715 9.64939C95.5351 9.64939 94.8754 9.76377 94.2926 9.99253C93.7128 10.2182 93.2193 10.5488 92.8119 10.9843C92.4077 11.4168 92.099 11.9433 91.8859 12.5637C91.6759 13.1811 91.571 13.883 91.571 14.6696C91.571 15.4687 91.6759 16.1784 91.8859 16.7989C92.099 17.4194 92.4124 17.9427 92.826 18.3689C93.2428 18.7951 93.7583 19.1178 94.3725 19.3372C94.9867 19.5597 95.6949 19.6709 96.4971 19.6709C96.8418 19.6709 97.1818 19.638 97.5171 19.5722C97.8524 19.5064 98.1486 19.4344 98.4055 19.356C98.6625 19.2777 98.8474 19.2197 98.9602 19.1821L99.2234 20.047C99.0291 20.1285 98.7753 20.2099 98.462 20.2914C98.1517 20.3729 97.8195 20.4403 97.4654 20.4935C97.1145 20.5468 96.7792 20.5734 96.4595 20.5734ZM95.9143 16.8318C96.3342 16.8318 96.6742 16.7472 96.9343 16.578C97.1944 16.4088 97.384 16.1534 97.503 15.8118C97.6221 15.4702 97.6817 15.0393 97.6817 14.5192C97.6817 13.9927 97.6159 13.5822 97.4842 13.2876C97.3526 12.993 97.1583 12.7862 96.9014 12.6671C96.6444 12.5481 96.3279 12.4885 95.9519 12.4885C95.5946 12.4885 95.2891 12.5825 95.0353 12.7706C94.7846 12.9554 94.5918 13.203 94.4571 13.5132C94.3255 13.8203 94.2597 14.1556 94.2597 14.5192C94.2597 14.9203 94.3129 15.2979 94.4195 15.652C94.526 16.003 94.7 16.2881 94.9412 16.5075C95.1825 16.7237 95.5069 16.8318 95.9143 16.8318ZM106.525 10.8151V11.7552H102.633V10.8151H106.525ZM103.798 18.0352V9.81861C103.798 9.40496 103.895 9.06026 104.09 8.78449C104.284 8.50873 104.536 8.3019 104.846 8.16402C105.157 8.02614 105.484 7.9572 105.829 7.9572C106.102 7.9572 106.324 7.97913 106.496 8.023C106.669 8.06687 106.797 8.10761 106.882 8.14522L106.562 9.10413C106.506 9.08533 106.427 9.06182 106.327 9.03362C106.23 9.00542 106.102 8.99131 105.942 8.99131C105.575 8.99131 105.31 9.08376 105.147 9.26865C104.987 9.45353 104.908 9.7246 104.908 10.0818V18.0352H103.798ZM108.079 18.0352V10.8151H109.189V18.0352H108.079ZM108.643 9.61179C108.427 9.61179 108.241 9.53814 108.084 9.39086C107.93 9.24358 107.854 9.06652 107.854 8.8597C107.854 8.65288 107.93 8.47582 108.084 8.32854C108.241 8.18126 108.427 8.10761 108.643 8.10761C108.86 8.10761 109.044 8.18126 109.198 8.32854C109.355 8.47582 109.433 8.65288 109.433 8.8597C109.433 9.06652 109.355 9.24358 109.198 9.39086C109.044 9.53814 108.86 9.61179 108.643 9.61179ZM116.335 12.4321L115.338 12.7141C115.275 12.5481 115.183 12.3867 115.061 12.23C114.942 12.0702 114.779 11.9386 114.572 11.8351C114.365 11.7317 114.1 11.68 113.777 11.68C113.336 11.68 112.967 11.7819 112.673 11.9856C112.381 12.1861 112.236 12.4415 112.236 12.7517C112.236 13.0275 112.336 13.2453 112.537 13.4051C112.737 13.5649 113.05 13.6981 113.477 13.8047L114.548 14.0679C115.194 14.2246 115.675 14.4643 115.991 14.7871C116.308 15.1067 116.466 15.5188 116.466 16.0233C116.466 16.437 116.347 16.8067 116.109 17.1327C115.874 17.4586 115.545 17.7155 115.122 17.9035C114.699 18.0916 114.207 18.1856 113.646 18.1856C112.909 18.1856 112.3 18.0258 111.817 17.7061C111.335 17.3865 111.029 16.9196 110.901 16.3054L111.954 16.0421C112.054 16.4307 112.244 16.7221 112.522 16.9164C112.804 17.1107 113.173 17.2079 113.627 17.2079C114.144 17.2079 114.555 17.0982 114.859 16.8788C115.166 16.6563 115.319 16.39 115.319 16.0797C115.319 15.829 115.232 15.6191 115.056 15.4499C114.881 15.2775 114.611 15.149 114.248 15.0644L113.044 14.7824C112.383 14.6257 111.897 14.3828 111.587 14.0538C111.28 13.7216 111.126 13.3064 111.126 12.8082C111.126 12.4008 111.241 12.0404 111.47 11.727C111.701 11.4137 112.016 11.1677 112.414 10.989C112.815 10.8104 113.27 10.7211 113.777 10.7211C114.492 10.7211 115.053 10.8778 115.46 11.1912C115.871 11.5045 116.162 11.9182 116.335 12.4321ZM121.276 10.8151V11.7552H117.534V10.8151H121.276ZM118.625 9.08533H119.734V15.9669C119.734 16.2803 119.78 16.5153 119.871 16.672C119.965 16.8256 120.084 16.929 120.228 16.9822C120.375 17.0324 120.53 17.0574 120.693 17.0574C120.815 17.0574 120.916 17.0512 120.994 17.0386C121.072 17.023 121.135 17.0104 121.182 17.001L121.408 17.9976C121.332 18.0258 121.227 18.054 121.093 18.0822C120.958 18.1135 120.787 18.1292 120.58 18.1292C120.267 18.1292 119.96 18.0618 119.659 17.927C119.361 17.7923 119.114 17.587 118.916 17.3113C118.722 17.0355 118.625 16.6877 118.625 16.2678V9.08533ZM126.823 13.391V14.4251H122.611V13.391H126.823ZM131.708 18.1856C131.056 18.1856 130.484 18.0305 129.992 17.7202C129.503 17.41 129.121 16.976 128.845 16.4182C128.572 15.8604 128.436 15.2086 128.436 14.4627C128.436 13.7107 128.572 13.0541 128.845 12.4932C129.121 11.9323 129.503 11.4967 129.992 11.1865C130.484 10.8762 131.056 10.7211 131.708 10.7211C132.36 10.7211 132.93 10.8762 133.419 11.1865C133.911 11.4967 134.293 11.9323 134.566 12.4932C134.841 13.0541 134.979 13.7107 134.979 14.4627C134.979 15.2086 134.841 15.8604 134.566 16.4182C134.293 16.976 133.911 17.41 133.419 17.7202C132.93 18.0305 132.36 18.1856 131.708 18.1856ZM131.708 17.1891C132.203 17.1891 132.61 17.0621 132.93 16.8083C133.249 16.5545 133.486 16.2207 133.64 15.8071C133.793 15.3935 133.87 14.9453 133.87 14.4627C133.87 13.9802 133.793 13.5305 133.64 13.1137C133.486 12.6969 133.249 12.36 132.93 12.1031C132.61 11.8461 132.203 11.7176 131.708 11.7176C131.213 11.7176 130.805 11.8461 130.486 12.1031C130.166 12.36 129.929 12.6969 129.776 13.1137C129.622 13.5305 129.545 13.9802 129.545 14.4627C129.545 14.9453 129.622 15.3935 129.776 15.8071C129.929 16.2207 130.166 16.5545 130.486 16.8083C130.805 17.0621 131.213 17.1891 131.708 17.1891ZM137.481 18.1104C137.249 18.1104 137.05 18.0273 136.884 17.8612C136.718 17.6952 136.635 17.4962 136.635 17.2643C136.635 17.0324 136.718 16.8334 136.884 16.6673C137.05 16.5012 137.249 16.4182 137.481 16.4182C137.713 16.4182 137.912 16.5012 138.078 16.6673C138.244 16.8334 138.327 17.0324 138.327 17.2643C138.327 17.4178 138.288 17.5588 138.21 17.6873C138.135 17.8158 138.033 17.9192 137.904 17.9976C137.779 18.0728 137.638 18.1104 137.481 18.1104ZM143.251 18.1856C142.574 18.1856 141.991 18.0258 141.502 17.7061C141.014 17.3865 140.638 16.9462 140.374 16.3853C140.111 15.8243 139.979 15.1835 139.979 14.4627C139.979 13.7295 140.114 13.0824 140.384 12.5214C140.656 11.9574 141.036 11.5171 141.521 11.2006C142.01 10.8809 142.58 10.7211 143.232 10.7211C143.74 10.7211 144.197 10.8151 144.605 11.0031C145.012 11.1912 145.346 11.4544 145.606 11.7928C145.866 12.1313 146.028 12.5261 146.09 12.9774H144.981C144.896 12.6483 144.708 12.3569 144.417 12.1031C144.128 11.8461 143.74 11.7176 143.251 11.7176C142.819 11.7176 142.439 11.8304 142.114 12.0561C141.791 12.2786 141.538 12.5935 141.357 13.0009C141.178 13.4051 141.089 13.8799 141.089 14.4251C141.089 14.9829 141.177 15.4687 141.352 15.8823C141.531 16.296 141.781 16.6172 142.104 16.8459C142.43 17.0747 142.812 17.1891 143.251 17.1891C143.539 17.1891 143.801 17.1389 144.036 17.0386C144.271 16.9384 144.47 16.7942 144.633 16.6062C144.796 16.4182 144.912 16.1925 144.981 15.9293H146.09C146.028 16.3555 145.872 16.7394 145.625 17.0809C145.38 17.4194 145.056 17.6889 144.652 17.8894C144.251 18.0869 143.784 18.1856 143.251 18.1856ZM150.645 18.1856C149.993 18.1856 149.421 18.0305 148.929 17.7202C148.44 17.41 148.058 16.976 147.782 16.4182C147.51 15.8604 147.373 15.2086 147.373 14.4627C147.373 13.7107 147.51 13.0541 147.782 12.4932C148.058 11.9323 148.44 11.4967 148.929 11.1865C149.421 10.8762 149.993 10.7211 150.645 10.7211C151.297 10.7211 151.867 10.8762 152.356 11.1865C152.848 11.4967 153.23 11.9323 153.503 12.4932C153.779 13.0541 153.917 13.7107 153.917 14.4627C153.917 15.2086 153.779 15.8604 153.503 16.4182C153.23 16.976 152.848 17.41 152.356 17.7202C151.867 18.0305 151.297 18.1856 150.645 18.1856ZM150.645 17.1891C151.14 17.1891 151.548 17.0621 151.867 16.8083C152.187 16.5545 152.423 16.2207 152.577 15.8071C152.73 15.3935 152.807 14.9453 152.807 14.4627C152.807 13.9802 152.73 13.5305 152.577 13.1137C152.423 12.6969 152.187 12.36 151.867 12.1031C151.548 11.8461 151.14 11.7176 150.645 11.7176C150.15 11.7176 149.743 11.8461 149.423 12.1031C149.103 12.36 148.867 12.6969 148.713 13.1137C148.56 13.5305 148.483 13.9802 148.483 14.4627C148.483 14.9453 148.56 15.3935 148.713 15.8071C148.867 16.2207 149.103 16.5545 149.423 16.8083C149.743 17.0621 150.15 17.1891 150.645 17.1891ZM155.61 18.0352V10.8151H156.682V11.9433H156.776C156.926 11.5578 157.169 11.2585 157.504 11.0455C157.84 10.8292 158.242 10.7211 158.712 10.7211C159.189 10.7211 159.585 10.8292 159.902 11.0455C160.221 11.2585 160.47 11.5578 160.649 11.9433H160.724C160.909 11.5703 161.186 11.2742 161.556 11.0549C161.926 10.8324 162.369 10.7211 162.886 10.7211C163.532 10.7211 164.06 10.9232 164.47 11.3275C164.881 11.7286 165.086 12.3538 165.086 13.203V18.0352H163.977V13.203C163.977 12.6703 163.831 12.2895 163.54 12.0608C163.248 11.832 162.905 11.7176 162.51 11.7176C162.003 11.7176 161.609 11.8712 161.331 12.1783C161.052 12.4823 160.912 12.8677 160.912 13.3346V18.0352H159.784V13.0902C159.784 12.6797 159.651 12.3491 159.384 12.0984C159.118 11.8445 158.775 11.7176 158.355 11.7176C158.067 11.7176 157.797 11.7944 157.547 11.948C157.299 12.1015 157.098 12.3146 156.945 12.5872C156.794 12.8567 156.719 13.1685 156.719 13.5226V18.0352H155.61Z" fill="white"/>
</svg>
