<svg width="506" height="42" viewBox="0 0 506 42" fill="none" xmlns="http://www.w3.org/2000/svg">
<path d="M488.797 14.5486V24.1953H487.049V16.249H486.993L484.736 17.6904V16.0889L487.134 14.5486H488.797ZM491.246 24.1953V22.9329L494.595 19.6499C494.915 19.3264 495.182 19.0391 495.396 18.7879C495.609 18.5367 495.769 18.2933 495.876 18.0578C495.983 17.8223 496.036 17.571 496.036 17.3041C496.036 16.9995 495.967 16.7389 495.829 16.5222C495.691 16.3024 495.501 16.1328 495.259 16.0135C495.017 15.8942 494.743 15.8345 494.435 15.8345C494.118 15.8345 493.84 15.9005 493.601 16.0323C493.362 16.1611 493.177 16.3448 493.045 16.5834C492.917 16.8221 492.852 17.1063 492.852 17.436H491.189C491.189 16.8237 491.329 16.2914 491.609 15.8392C491.888 15.387 492.273 15.0369 492.763 14.7888C493.256 14.5407 493.821 14.4167 494.458 14.4167C495.105 14.4167 495.674 14.5376 496.164 14.7794C496.653 15.0212 497.033 15.3525 497.303 15.7733C497.577 16.1941 497.713 16.6745 497.713 17.2146C497.713 17.5758 497.644 17.9306 497.506 18.2792C497.368 18.6277 497.124 19.014 496.776 19.4379C496.43 19.8618 495.945 20.3752 495.32 20.9782L493.658 22.6692V22.7351H497.859V24.1953H491.246Z" fill="#7D7D7D"/>
<path d="M56.7706 18.8876C56.7706 19.927 56.5759 20.8172 56.1865 21.5583C55.8002 22.2963 55.2727 22.8615 54.6038 23.254C53.9381 23.6466 53.1829 23.8428 52.3382 23.8428C51.4935 23.8428 50.7367 23.6466 50.0678 23.254C49.4021 22.8584 48.8745 22.2916 48.4851 21.5536C48.0989 20.8125 47.9058 19.9238 47.9058 18.8876C47.9058 17.8482 48.0989 16.9595 48.4851 16.2215C48.8745 15.4805 49.4021 14.9136 50.0678 14.5211C50.7367 14.1286 51.4935 13.9323 52.3382 13.9323C53.1829 13.9323 53.9381 14.1286 54.6038 14.5211C55.2727 14.9136 55.8002 15.4805 56.1865 16.2215C56.5759 16.9595 56.7706 17.8482 56.7706 18.8876ZM55.0136 18.8876C55.0136 18.1559 54.899 17.5389 54.6698 17.0364C54.4437 16.5309 54.1297 16.1493 53.7277 15.8918C53.3258 15.6312 52.8626 15.5009 52.3382 15.5009C51.8138 15.5009 51.3506 15.6312 50.9486 15.8918C50.5467 16.1493 50.2311 16.5309 50.0019 17.0364C49.7758 17.5389 49.6627 18.1559 49.6627 18.8876C49.6627 19.6192 49.7758 20.2379 50.0019 20.7434C50.2311 21.2459 50.5467 21.6274 50.9486 21.888C51.3506 22.1455 51.8138 22.2743 52.3382 22.2743C52.8626 22.2743 53.3258 22.1455 53.7277 21.888C54.1297 21.6274 54.4437 21.2459 54.6698 20.7434C54.899 20.2379 55.0136 19.6192 55.0136 18.8876ZM64.5037 14.0642H66.2513V20.3666C66.2513 21.0575 66.088 21.6651 65.7614 22.1895C65.4379 22.7139 64.9826 23.1237 64.3954 23.4189C63.8082 23.7109 63.122 23.857 62.337 23.857C61.5488 23.857 60.8611 23.7109 60.2739 23.4189C59.6866 23.1237 59.2313 22.7139 58.9079 22.1895C58.5844 21.6651 58.4227 21.0575 58.4227 20.3666V14.0642H60.1702V20.2206C60.1702 20.6225 60.2582 20.9805 60.434 21.2945C60.613 21.6086 60.8642 21.8551 61.1877 22.0341C61.5111 22.2099 61.8942 22.2978 62.337 22.2978C62.7798 22.2978 63.1629 22.2099 63.4863 22.0341C63.8129 21.8551 64.0641 21.6086 64.24 21.2945C64.4158 20.9805 64.5037 20.6225 64.5037 20.2206V14.0642ZM68.1507 23.7109V14.0642H71.7682C72.5093 14.0642 73.1311 14.193 73.6335 14.4505C74.1391 14.708 74.5206 15.0691 74.7781 15.5338C75.0387 15.9954 75.1691 16.534 75.1691 17.1495C75.1691 17.7681 75.0372 18.3051 74.7734 18.7604C74.5127 19.2126 74.1281 19.5627 73.6194 19.8108C73.1106 20.0557 72.4857 20.1782 71.7447 20.1782H69.1681V18.7274H71.5091C71.9425 18.7274 72.2973 18.6678 72.5737 18.5484C72.85 18.426 73.0541 18.2485 73.186 18.0162C73.321 17.7807 73.3886 17.4918 73.3886 17.1495C73.3886 16.8072 73.321 16.5152 73.186 16.2734C73.051 16.0284 72.8453 15.8431 72.569 15.7175C72.2926 15.5888 71.9362 15.5244 71.4997 15.5244H69.8982V23.7109H68.1507ZM73.1342 19.3398L75.5223 23.7109H73.5723L71.2265 19.3398H73.1342ZM80.0678 23.7109V14.0642H83.6853C84.4264 14.0642 85.0481 14.2024 85.5506 14.4787C86.0562 14.7551 86.4377 15.135 86.6952 15.6186C86.9558 16.0991 87.0861 16.6455 87.0861 17.2578C87.0861 17.8764 86.9558 18.426 86.6952 18.9064C86.4346 19.3869 86.0499 19.7653 85.5412 20.0416C85.0324 20.3148 84.406 20.4514 83.6617 20.4514H81.2642V19.0148H83.4262C83.8596 19.0148 84.2144 18.9394 84.4908 18.7887C84.7671 18.6379 84.9712 18.4307 85.1031 18.1669C85.2381 17.9031 85.3056 17.6001 85.3056 17.2578C85.3056 16.9155 85.2381 16.6141 85.1031 16.3534C84.9712 16.0928 84.7655 15.8902 84.4861 15.7458C84.2097 15.5982 83.8533 15.5244 83.4168 15.5244H81.8153V23.7109H80.0678ZM88.604 23.7109V14.0642H92.2216C92.9626 14.0642 93.5844 14.193 94.0868 14.4505C94.5924 14.708 94.974 15.0691 95.2315 15.5338C95.4921 15.9954 95.6224 16.534 95.6224 17.1495C95.6224 17.7681 95.4905 18.3051 95.2267 18.7604C94.9661 19.2126 94.5814 19.5627 94.0727 19.8108C93.564 20.0557 92.9391 20.1782 92.198 20.1782H89.6215V18.7274H91.9625C92.3958 18.7274 92.7507 18.6678 93.027 18.5484C93.3034 18.426 93.5075 18.2485 93.6394 18.0162C93.7744 17.7807 93.8419 17.4918 93.8419 17.1495C93.8419 16.8072 93.7744 16.5152 93.6394 16.2734C93.5043 16.0284 93.2987 15.8431 93.0223 15.7175C92.746 15.5888 92.3896 15.5244 91.9531 15.5244H90.3516V23.7109H88.604ZM93.5876 19.3398L95.9757 23.7109H94.0256L91.6799 19.3398H93.5876ZM105.851 18.8876C105.851 19.927 105.656 20.8172 105.267 21.5583C104.881 22.2963 104.353 22.8615 103.684 23.254C103.018 23.6466 102.263 23.8428 101.418 23.8428C100.574 23.8428 99.8169 23.6466 99.1481 23.254C98.4824 22.8584 97.9548 22.2916 97.5654 21.5536C97.1792 20.8125 96.986 19.9238 96.986 18.8876C96.986 17.8482 97.1792 16.9595 97.5654 16.2215C97.9548 15.4805 98.4824 14.9136 99.1481 14.5211C99.8169 14.1286 100.574 13.9323 101.418 13.9323C102.263 13.9323 103.018 14.1286 103.684 14.5211C104.353 14.9136 104.881 15.4805 105.267 16.2215C105.656 16.9595 105.851 17.8482 105.851 18.8876ZM104.094 18.8876C104.094 18.1559 103.979 17.5389 103.75 17.0364C103.524 16.5309 103.21 16.1493 102.808 15.8918C102.406 15.6312 101.943 15.5009 101.418 15.5009C100.894 15.5009 100.431 15.6312 100.029 15.8918C99.627 16.1493 99.3114 16.5309 99.0821 17.0364C98.856 17.5389 98.743 18.1559 98.743 18.8876C98.743 19.6192 98.856 20.2379 99.0821 20.7434C99.3114 21.2459 99.627 21.6274 100.029 21.888C100.431 22.1455 100.894 22.2743 101.418 22.2743C101.943 22.2743 102.406 22.1455 102.808 21.888C103.21 21.6274 103.524 21.2459 103.75 20.7434C103.979 20.2379 104.094 19.6192 104.094 18.8876ZM111.309 14.0642H113.042V20.8471C113.039 21.4688 112.907 22.0042 112.647 22.4533C112.386 22.8992 112.022 23.243 111.554 23.4848C111.089 23.7235 110.547 23.8428 109.929 23.8428C109.364 23.8428 108.855 23.7423 108.403 23.5414C107.954 23.3373 107.597 23.0358 107.333 22.637C107.07 22.2382 106.938 21.742 106.938 21.1485H108.676C108.679 21.4092 108.736 21.6337 108.845 21.8221C108.958 22.0105 109.114 22.155 109.312 22.2555C109.51 22.3559 109.737 22.4062 109.995 22.4062C110.274 22.4062 110.511 22.3481 110.706 22.2319C110.901 22.1126 111.048 21.9367 111.149 21.7043C111.252 21.472 111.306 21.1862 111.309 20.8471V14.0642ZM114.938 23.7109V14.0642H121.212V15.5291H116.686V18.1481H120.887V19.613H116.686V22.246H121.25V23.7109H114.938ZM131.252 17.319H129.491C129.44 17.0301 129.348 16.7742 129.213 16.5513C129.078 16.3252 128.91 16.1336 128.709 15.9766C128.508 15.8196 128.279 15.7018 128.021 15.6233C127.767 15.5417 127.492 15.5009 127.197 15.5009C126.672 15.5009 126.208 15.6328 125.803 15.8965C125.397 16.1572 125.08 16.5403 124.851 17.0458C124.622 17.5483 124.507 18.1622 124.507 18.8876C124.507 19.6255 124.622 20.2473 124.851 20.7529C125.083 21.2553 125.401 21.6353 125.803 21.8928C126.208 22.1471 126.671 22.2743 127.192 22.2743C127.481 22.2743 127.751 22.2366 128.002 22.1612C128.257 22.0827 128.484 21.9681 128.685 21.8174C128.889 21.6667 129.061 21.4814 129.199 21.2616C129.34 21.0418 129.437 20.7905 129.491 20.5079L131.252 20.5173C131.186 20.9758 131.044 21.406 130.824 21.808C130.607 22.2099 130.323 22.5648 129.971 22.8725C129.619 23.1771 129.208 23.4158 128.737 23.5885C128.266 23.758 127.743 23.8428 127.169 23.8428C126.321 23.8428 125.564 23.6466 124.898 23.254C124.232 22.8615 123.708 22.2947 123.325 21.5536C122.942 20.8125 122.75 19.9238 122.75 18.8876C122.75 17.8482 122.943 16.9595 123.33 16.2215C123.716 15.4805 124.242 14.9136 124.908 14.5211C125.573 14.1286 126.327 13.9323 127.169 13.9323C127.706 13.9323 128.205 14.0077 128.666 14.1584C129.128 14.3092 129.539 14.5305 129.901 14.8226C130.262 15.1115 130.558 15.4663 130.791 15.8871C131.026 16.3048 131.18 16.7821 131.252 17.319ZM132.429 15.5291V14.0642H140.125V15.5291H137.144V23.7109H135.41V15.5291H132.429ZM146.19 14.0642L148.701 21.6572H148.799L151.305 14.0642H153.227L149.826 23.7109H147.669L144.273 14.0642H146.19ZM156.245 14.0642V23.7109H154.498V14.0642H156.245ZM161.407 23.7109H158.138V14.0642H161.473C162.43 14.0642 163.253 14.2573 163.941 14.6436C164.632 15.0267 165.162 15.5778 165.533 16.2969C165.903 17.016 166.089 17.8764 166.089 18.8782C166.089 19.883 165.902 20.7466 165.528 21.4688C165.158 22.1911 164.622 22.7453 163.922 23.1316C163.225 23.5178 162.386 23.7109 161.407 23.7109ZM159.885 22.1989H161.322C161.994 22.1989 162.554 22.0765 163.003 21.8315C163.452 21.5834 163.79 21.2145 164.016 20.7246C164.242 20.2316 164.355 19.6161 164.355 18.8782C164.355 18.1402 164.242 17.5279 164.016 17.0411C163.79 16.5513 163.456 16.1854 163.013 15.9436C162.573 15.6987 162.027 15.5762 161.374 15.5762H159.885V22.1989ZM167.749 23.7109V14.0642H174.023V15.5291H169.497V18.1481H173.698V19.613H169.497V22.246H174.061V23.7109H167.749ZM184.426 18.8876C184.426 19.927 184.231 20.8172 183.842 21.5583C183.456 22.2963 182.928 22.8615 182.259 23.254C181.593 23.6466 180.838 23.8428 179.994 23.8428C179.149 23.8428 178.392 23.6466 177.723 23.254C177.057 22.8584 176.53 22.2916 176.14 21.5536C175.754 20.8125 175.561 19.9238 175.561 18.8876C175.561 17.8482 175.754 16.9595 176.14 16.2215C176.53 15.4805 177.057 14.9136 177.723 14.5211C178.392 14.1286 179.149 13.9323 179.994 13.9323C180.838 13.9323 181.593 14.1286 182.259 14.5211C182.928 14.9136 183.456 15.4805 183.842 16.2215C184.231 16.9595 184.426 17.8482 184.426 18.8876ZM182.669 18.8876C182.669 18.1559 182.554 17.5389 182.325 17.0364C182.099 16.5309 181.785 16.1493 181.383 15.8918C180.981 15.6312 180.518 15.5009 179.994 15.5009C179.469 15.5009 179.006 15.6312 178.604 15.8918C178.202 16.1493 177.886 16.5309 177.657 17.0364C177.431 17.5389 177.318 18.1559 177.318 18.8876C177.318 19.6192 177.431 20.2379 177.657 20.7434C177.886 21.2459 178.202 21.6274 178.604 21.888C179.006 22.1455 179.469 22.2743 179.994 22.2743C180.518 22.2743 180.981 22.1455 181.383 21.888C181.785 21.6274 182.099 21.2459 182.325 20.7434C182.554 20.2379 182.669 19.6192 182.669 18.8876Z" fill="black"/>
<path d="M198.284 19.838C197.998 19.838 197.753 19.7375 197.549 19.5365C197.345 19.3356 197.245 19.0906 197.248 18.8017C197.245 18.5191 197.345 18.2773 197.549 18.0763C197.753 17.8754 197.998 17.7749 198.284 17.7749C198.56 17.7749 198.801 17.8754 199.005 18.0763C199.212 18.2773 199.317 18.5191 199.32 18.8017C199.317 18.9933 199.267 19.1676 199.17 19.3246C199.075 19.4816 198.95 19.6072 198.793 19.7014C198.639 19.7925 198.469 19.838 198.284 19.838ZM202.131 19.838C201.845 19.838 201.6 19.7375 201.396 19.5365C201.192 19.3356 201.092 19.0906 201.095 18.8017C201.092 18.5191 201.192 18.2773 201.396 18.0763C201.6 17.8754 201.845 17.7749 202.131 17.7749C202.407 17.7749 202.648 17.8754 202.852 18.0763C203.059 18.2773 203.164 18.5191 203.167 18.8017C203.164 18.9933 203.114 19.1676 203.017 19.3246C202.922 19.4816 202.797 19.6072 202.64 19.7014C202.486 19.7925 202.316 19.838 202.131 19.838ZM205.978 19.838C205.693 19.838 205.448 19.7375 205.243 19.5365C205.039 19.3356 204.939 19.0906 204.942 18.8017C204.939 18.5191 205.039 18.2773 205.243 18.0763C205.448 17.8754 205.693 17.7749 205.978 17.7749C206.255 17.7749 206.495 17.8754 206.699 18.0763C206.906 18.2773 207.011 18.5191 207.015 18.8017C207.011 18.9933 206.961 19.1676 206.864 19.3246C206.77 19.4816 206.644 19.6072 206.487 19.7014C206.333 19.7925 206.164 19.838 205.978 19.838ZM209.825 19.838C209.54 19.838 209.295 19.7375 209.091 19.5365C208.886 19.3356 208.786 19.0906 208.789 18.8017C208.786 18.5191 208.886 18.2773 209.091 18.0763C209.295 17.8754 209.54 17.7749 209.825 17.7749C210.102 17.7749 210.342 17.8754 210.546 18.0763C210.753 18.2773 210.859 18.5191 210.862 18.8017C210.859 18.9933 210.808 19.1676 210.711 19.3246C210.617 19.4816 210.491 19.6072 210.334 19.7014C210.18 19.7925 210.011 19.838 209.825 19.838ZM213.673 19.838C213.387 19.838 213.142 19.7375 212.938 19.5365C212.734 19.3356 212.633 19.0906 212.636 18.8017C212.633 18.5191 212.734 18.2773 212.938 18.0763C213.142 17.8754 213.387 17.7749 213.673 17.7749C213.949 17.7749 214.189 17.8754 214.393 18.0763C214.6 18.2773 214.706 18.5191 214.709 18.8017C214.706 18.9933 214.655 19.1676 214.558 19.3246C214.464 19.4816 214.338 19.6072 214.181 19.7014C214.027 19.7925 213.858 19.838 213.673 19.838ZM217.52 19.838C217.234 19.838 216.989 19.7375 216.785 19.5365C216.581 19.3356 216.48 19.0906 216.483 18.8017C216.48 18.5191 216.581 18.2773 216.785 18.0763C216.989 17.8754 217.234 17.7749 217.52 17.7749C217.796 17.7749 218.036 17.8754 218.24 18.0763C218.448 18.2773 218.553 18.5191 218.556 18.8017C218.553 18.9933 218.503 19.1676 218.405 19.3246C218.311 19.4816 218.185 19.6072 218.028 19.7014C217.875 19.7925 217.705 19.838 217.52 19.838ZM221.367 19.838C221.081 19.838 220.836 19.7375 220.632 19.5365C220.428 19.3356 220.327 19.0906 220.331 18.8017C220.327 18.5191 220.428 18.2773 220.632 18.0763C220.836 17.8754 221.081 17.7749 221.367 17.7749C221.643 17.7749 221.883 17.8754 222.088 18.0763C222.295 18.2773 222.4 18.5191 222.403 18.8017C222.4 18.9933 222.35 19.1676 222.252 19.3246C222.158 19.4816 222.033 19.6072 221.876 19.7014C221.722 19.7925 221.552 19.838 221.367 19.838ZM225.214 19.838C224.928 19.838 224.683 19.7375 224.479 19.5365C224.275 19.3356 224.175 19.0906 224.178 18.8017C224.175 18.5191 224.275 18.2773 224.479 18.0763C224.683 17.8754 224.928 17.7749 225.214 17.7749C225.49 17.7749 225.731 17.8754 225.935 18.0763C226.142 18.2773 226.247 18.5191 226.25 18.8017C226.247 18.9933 226.197 19.1676 226.1 19.3246C226.005 19.4816 225.88 19.6072 225.723 19.7014C225.569 19.7925 225.399 19.838 225.214 19.838ZM229.061 19.838C228.775 19.838 228.53 19.7375 228.326 19.5365C228.122 19.3356 228.022 19.0906 228.025 18.8017C228.022 18.5191 228.122 18.2773 228.326 18.0763C228.53 17.8754 228.775 17.7749 229.061 17.7749C229.337 17.7749 229.578 17.8754 229.782 18.0763C229.989 18.2773 230.094 18.5191 230.097 18.8017C230.094 18.9933 230.044 19.1676 229.947 19.3246C229.852 19.4816 229.727 19.6072 229.57 19.7014C229.416 19.7925 229.246 19.838 229.061 19.838ZM232.908 19.838C232.623 19.838 232.378 19.7375 232.173 19.5365C231.969 19.3356 231.869 19.0906 231.872 18.8017C231.869 18.5191 231.969 18.2773 232.173 18.0763C232.378 17.8754 232.623 17.7749 232.908 17.7749C233.185 17.7749 233.425 17.8754 233.629 18.0763C233.836 18.2773 233.941 18.5191 233.945 18.8017C233.941 18.9933 233.891 19.1676 233.794 19.3246C233.7 19.4816 233.574 19.6072 233.417 19.7014C233.263 19.7925 233.094 19.838 232.908 19.838ZM236.755 19.838C236.47 19.838 236.225 19.7375 236.021 19.5365C235.817 19.3356 235.716 19.0906 235.719 18.8017C235.716 18.5191 235.817 18.2773 236.021 18.0763C236.225 17.8754 236.47 17.7749 236.755 17.7749C237.032 17.7749 237.272 17.8754 237.476 18.0763C237.683 18.2773 237.789 18.5191 237.792 18.8017C237.789 18.9933 237.738 19.1676 237.641 19.3246C237.547 19.4816 237.421 19.6072 237.264 19.7014C237.11 19.7925 236.941 19.838 236.755 19.838ZM240.603 19.838C240.317 19.838 240.072 19.7375 239.868 19.5365C239.664 19.3356 239.563 19.0906 239.566 18.8017C239.563 18.5191 239.664 18.2773 239.868 18.0763C240.072 17.8754 240.317 17.7749 240.603 17.7749C240.879 17.7749 241.119 17.8754 241.323 18.0763C241.531 18.2773 241.636 18.5191 241.639 18.8017C241.636 18.9933 241.585 19.1676 241.488 19.3246C241.394 19.4816 241.268 19.6072 241.111 19.7014C240.957 19.7925 240.788 19.838 240.603 19.838ZM244.45 19.838C244.164 19.838 243.919 19.7375 243.715 19.5365C243.511 19.3356 243.41 19.0906 243.413 18.8017C243.41 18.5191 243.511 18.2773 243.715 18.0763C243.919 17.8754 244.164 17.7749 244.45 17.7749C244.726 17.7749 244.966 17.8754 245.17 18.0763C245.378 18.2773 245.483 18.5191 245.486 18.8017C245.483 18.9933 245.433 19.1676 245.335 19.3246C245.241 19.4816 245.115 19.6072 244.958 19.7014C244.805 19.7925 244.635 19.838 244.45 19.838ZM248.297 19.838C248.011 19.838 247.766 19.7375 247.562 19.5365C247.358 19.3356 247.257 19.0906 247.261 18.8017C247.257 18.5191 247.358 18.2773 247.562 18.0763C247.766 17.8754 248.011 17.7749 248.297 17.7749C248.573 17.7749 248.813 17.8754 249.018 18.0763C249.225 18.2773 249.33 18.5191 249.333 18.8017C249.33 18.9933 249.28 19.1676 249.182 19.3246C249.088 19.4816 248.963 19.6072 248.806 19.7014C248.652 19.7925 248.482 19.838 248.297 19.838ZM252.144 19.838C251.858 19.838 251.613 19.7375 251.409 19.5365C251.205 19.3356 251.105 19.0906 251.108 18.8017C251.105 18.5191 251.205 18.2773 251.409 18.0763C251.613 17.8754 251.858 17.7749 252.144 17.7749C252.42 17.7749 252.661 17.8754 252.865 18.0763C253.072 18.2773 253.177 18.5191 253.18 18.8017C253.177 18.9933 253.127 19.1676 253.03 19.3246C252.935 19.4816 252.81 19.6072 252.653 19.7014C252.499 19.7925 252.329 19.838 252.144 19.838ZM255.991 19.838C255.705 19.838 255.46 19.7375 255.256 19.5365C255.052 19.3356 254.952 19.0906 254.955 18.8017C254.952 18.5191 255.052 18.2773 255.256 18.0763C255.46 17.8754 255.705 17.7749 255.991 17.7749C256.268 17.7749 256.508 17.8754 256.712 18.0763C256.919 18.2773 257.024 18.5191 257.027 18.8017C257.024 18.9933 256.974 19.1676 256.877 19.3246C256.783 19.4816 256.657 19.6072 256.5 19.7014C256.346 19.7925 256.176 19.838 255.991 19.838ZM259.838 19.838C259.553 19.838 259.308 19.7375 259.104 19.5365C258.899 19.3356 258.799 19.0906 258.802 18.8017C258.799 18.5191 258.899 18.2773 259.104 18.0763C259.308 17.8754 259.553 17.7749 259.838 17.7749C260.115 17.7749 260.355 17.8754 260.559 18.0763C260.766 18.2773 260.871 18.5191 260.875 18.8017C260.871 18.9933 260.821 19.1676 260.724 19.3246C260.63 19.4816 260.504 19.6072 260.347 19.7014C260.193 19.7925 260.024 19.838 259.838 19.838ZM263.685 19.838C263.4 19.838 263.155 19.7375 262.951 19.5365C262.747 19.3356 262.646 19.0906 262.649 18.8017C262.646 18.5191 262.747 18.2773 262.951 18.0763C263.155 17.8754 263.4 17.7749 263.685 17.7749C263.962 17.7749 264.202 17.8754 264.406 18.0763C264.613 18.2773 264.719 18.5191 264.722 18.8017C264.719 18.9933 264.668 19.1676 264.571 19.3246C264.477 19.4816 264.351 19.6072 264.194 19.7014C264.04 19.7925 263.871 19.838 263.685 19.838ZM267.533 19.838C267.247 19.838 267.002 19.7375 266.798 19.5365C266.594 19.3356 266.493 19.0906 266.496 18.8017C266.493 18.5191 266.594 18.2773 266.798 18.0763C267.002 17.8754 267.247 17.7749 267.533 17.7749C267.809 17.7749 268.049 17.8754 268.253 18.0763C268.461 18.2773 268.566 18.5191 268.569 18.8017C268.566 18.9933 268.516 19.1676 268.418 19.3246C268.324 19.4816 268.198 19.6072 268.041 19.7014C267.887 19.7925 267.718 19.838 267.533 19.838ZM271.38 19.838C271.094 19.838 270.849 19.7375 270.645 19.5365C270.441 19.3356 270.34 19.0906 270.344 18.8017C270.34 18.5191 270.441 18.2773 270.645 18.0763C270.849 17.8754 271.094 17.7749 271.38 17.7749C271.656 17.7749 271.896 17.8754 272.1 18.0763C272.308 18.2773 272.413 18.5191 272.416 18.8017C272.413 18.9933 272.363 19.1676 272.265 19.3246C272.171 19.4816 272.045 19.6072 271.888 19.7014C271.735 19.7925 271.565 19.838 271.38 19.838ZM275.227 19.838C274.941 19.838 274.696 19.7375 274.492 19.5365C274.288 19.3356 274.188 19.0906 274.191 18.8017C274.188 18.5191 274.288 18.2773 274.492 18.0763C274.696 17.8754 274.941 17.7749 275.227 17.7749C275.503 17.7749 275.743 17.8754 275.948 18.0763C276.155 18.2773 276.26 18.5191 276.263 18.8017C276.26 18.9933 276.21 19.1676 276.112 19.3246C276.018 19.4816 275.893 19.6072 275.736 19.7014C275.582 19.7925 275.412 19.838 275.227 19.838ZM279.074 19.838C278.788 19.838 278.543 19.7375 278.339 19.5365C278.135 19.3356 278.035 19.0906 278.038 18.8017C278.035 18.5191 278.135 18.2773 278.339 18.0763C278.543 17.8754 278.788 17.7749 279.074 17.7749C279.35 17.7749 279.591 17.8754 279.795 18.0763C280.002 18.2773 280.107 18.5191 280.11 18.8017C280.107 18.9933 280.057 19.1676 279.96 19.3246C279.865 19.4816 279.74 19.6072 279.583 19.7014C279.429 19.7925 279.259 19.838 279.074 19.838ZM282.921 19.838C282.635 19.838 282.391 19.7375 282.186 19.5365C281.982 19.3356 281.882 19.0906 281.885 18.8017C281.882 18.5191 281.982 18.2773 282.186 18.0763C282.391 17.8754 282.635 17.7749 282.921 17.7749C283.198 17.7749 283.438 17.8754 283.642 18.0763C283.849 18.2773 283.954 18.5191 283.957 18.8017C283.954 18.9933 283.904 19.1676 283.807 19.3246C283.713 19.4816 283.587 19.6072 283.43 19.7014C283.276 19.7925 283.106 19.838 282.921 19.838ZM286.768 19.838C286.483 19.838 286.238 19.7375 286.034 19.5365C285.829 19.3356 285.729 19.0906 285.732 18.8017C285.729 18.5191 285.829 18.2773 286.034 18.0763C286.238 17.8754 286.483 17.7749 286.768 17.7749C287.045 17.7749 287.285 17.8754 287.489 18.0763C287.696 18.2773 287.801 18.5191 287.805 18.8017C287.801 18.9933 287.751 19.1676 287.654 19.3246C287.56 19.4816 287.434 19.6072 287.277 19.7014C287.123 19.7925 286.954 19.838 286.768 19.838ZM290.616 19.838C290.33 19.838 290.085 19.7375 289.881 19.5365C289.677 19.3356 289.576 19.0906 289.579 18.8017C289.576 18.5191 289.677 18.2773 289.881 18.0763C290.085 17.8754 290.33 17.7749 290.616 17.7749C290.892 17.7749 291.132 17.8754 291.336 18.0763C291.543 18.2773 291.649 18.5191 291.652 18.8017C291.649 18.9933 291.598 19.1676 291.501 19.3246C291.407 19.4816 291.281 19.6072 291.124 19.7014C290.97 19.7925 290.801 19.838 290.616 19.838ZM294.463 19.838C294.177 19.838 293.932 19.7375 293.728 19.5365C293.524 19.3356 293.423 19.0906 293.426 18.8017C293.423 18.5191 293.524 18.2773 293.728 18.0763C293.932 17.8754 294.177 17.7749 294.463 17.7749C294.739 17.7749 294.979 17.8754 295.183 18.0763C295.391 18.2773 295.496 18.5191 295.499 18.8017C295.496 18.9933 295.446 19.1676 295.348 19.3246C295.254 19.4816 295.128 19.6072 294.971 19.7014C294.818 19.7925 294.648 19.838 294.463 19.838ZM298.31 19.838C298.024 19.838 297.779 19.7375 297.575 19.5365C297.371 19.3356 297.27 19.0906 297.274 18.8017C297.27 18.5191 297.371 18.2773 297.575 18.0763C297.779 17.8754 298.024 17.7749 298.31 17.7749C298.586 17.7749 298.826 17.8754 299.03 18.0763C299.238 18.2773 299.343 18.5191 299.346 18.8017C299.343 18.9933 299.293 19.1676 299.195 19.3246C299.101 19.4816 298.976 19.6072 298.819 19.7014C298.665 19.7925 298.495 19.838 298.31 19.838ZM302.157 19.838C301.871 19.838 301.626 19.7375 301.422 19.5365C301.218 19.3356 301.118 19.0906 301.121 18.8017C301.118 18.5191 301.218 18.2773 301.422 18.0763C301.626 17.8754 301.871 17.7749 302.157 17.7749C302.433 17.7749 302.674 17.8754 302.878 18.0763C303.085 18.2773 303.19 18.5191 303.193 18.8017C303.19 18.9933 303.14 19.1676 303.042 19.3246C302.948 19.4816 302.823 19.6072 302.666 19.7014C302.512 19.7925 302.342 19.838 302.157 19.838ZM306.004 19.838C305.718 19.838 305.473 19.7375 305.269 19.5365C305.065 19.3356 304.965 19.0906 304.968 18.8017C304.965 18.5191 305.065 18.2773 305.269 18.0763C305.473 17.8754 305.718 17.7749 306.004 17.7749C306.28 17.7749 306.521 17.8754 306.725 18.0763C306.932 18.2773 307.037 18.5191 307.04 18.8017C307.037 18.9933 306.987 19.1676 306.89 19.3246C306.795 19.4816 306.67 19.6072 306.513 19.7014C306.359 19.7925 306.189 19.838 306.004 19.838ZM309.851 19.838C309.565 19.838 309.321 19.7375 309.116 19.5365C308.912 19.3356 308.812 19.0906 308.815 18.8017C308.812 18.5191 308.912 18.2773 309.116 18.0763C309.321 17.8754 309.565 17.7749 309.851 17.7749C310.128 17.7749 310.368 17.8754 310.572 18.0763C310.779 18.2773 310.884 18.5191 310.888 18.8017C310.884 18.9933 310.834 19.1676 310.737 19.3246C310.643 19.4816 310.517 19.6072 310.36 19.7014C310.206 19.7925 310.037 19.838 309.851 19.838ZM313.698 19.838C313.413 19.838 313.168 19.7375 312.964 19.5365C312.759 19.3356 312.659 19.0906 312.662 18.8017C312.659 18.5191 312.759 18.2773 312.964 18.0763C313.168 17.8754 313.413 17.7749 313.698 17.7749C313.975 17.7749 314.215 17.8754 314.419 18.0763C314.626 18.2773 314.732 18.5191 314.735 18.8017C314.732 18.9933 314.681 19.1676 314.584 19.3246C314.49 19.4816 314.364 19.6072 314.207 19.7014C314.053 19.7925 313.884 19.838 313.698 19.838ZM317.546 19.838C317.26 19.838 317.015 19.7375 316.811 19.5365C316.607 19.3356 316.506 19.0906 316.509 18.8017C316.506 18.5191 316.607 18.2773 316.811 18.0763C317.015 17.8754 317.26 17.7749 317.546 17.7749C317.822 17.7749 318.062 17.8754 318.266 18.0763C318.473 18.2773 318.579 18.5191 318.582 18.8017C318.579 18.9933 318.528 19.1676 318.431 19.3246C318.337 19.4816 318.211 19.6072 318.054 19.7014C317.9 19.7925 317.731 19.838 317.546 19.838ZM321.393 19.838C321.107 19.838 320.862 19.7375 320.658 19.5365C320.454 19.3356 320.353 19.0906 320.356 18.8017C320.353 18.5191 320.454 18.2773 320.658 18.0763C320.862 17.8754 321.107 17.7749 321.393 17.7749C321.669 17.7749 321.909 17.8754 322.113 18.0763C322.321 18.2773 322.426 18.5191 322.429 18.8017C322.426 18.9933 322.376 19.1676 322.278 19.3246C322.184 19.4816 322.058 19.6072 321.901 19.7014C321.748 19.7925 321.578 19.838 321.393 19.838ZM325.24 19.838C324.954 19.838 324.709 19.7375 324.505 19.5365C324.301 19.3356 324.2 19.0906 324.204 18.8017C324.2 18.5191 324.301 18.2773 324.505 18.0763C324.709 17.8754 324.954 17.7749 325.24 17.7749C325.516 17.7749 325.756 17.8754 325.961 18.0763C326.168 18.2773 326.273 18.5191 326.276 18.8017C326.273 18.9933 326.223 19.1676 326.125 19.3246C326.031 19.4816 325.906 19.6072 325.749 19.7014C325.595 19.7925 325.425 19.838 325.24 19.838ZM329.087 19.838C328.801 19.838 328.556 19.7375 328.352 19.5365C328.148 19.3356 328.048 19.0906 328.051 18.8017C328.048 18.5191 328.148 18.2773 328.352 18.0763C328.556 17.8754 328.801 17.7749 329.087 17.7749C329.363 17.7749 329.604 17.8754 329.808 18.0763C330.015 18.2773 330.12 18.5191 330.123 18.8017C330.12 18.9933 330.07 19.1676 329.973 19.3246C329.878 19.4816 329.753 19.6072 329.596 19.7014C329.442 19.7925 329.272 19.838 329.087 19.838ZM332.934 19.838C332.648 19.838 332.403 19.7375 332.199 19.5365C331.995 19.3356 331.895 19.0906 331.898 18.8017C331.895 18.5191 331.995 18.2773 332.199 18.0763C332.403 17.8754 332.648 17.7749 332.934 17.7749C333.21 17.7749 333.451 17.8754 333.655 18.0763C333.862 18.2773 333.967 18.5191 333.97 18.8017C333.967 18.9933 333.917 19.1676 333.82 19.3246C333.725 19.4816 333.6 19.6072 333.443 19.7014C333.289 19.7925 333.119 19.838 332.934 19.838ZM336.781 19.838C336.496 19.838 336.251 19.7375 336.046 19.5365C335.842 19.3356 335.742 19.0906 335.745 18.8017C335.742 18.5191 335.842 18.2773 336.046 18.0763C336.251 17.8754 336.496 17.7749 336.781 17.7749C337.058 17.7749 337.298 17.8754 337.502 18.0763C337.709 18.2773 337.814 18.5191 337.818 18.8017C337.814 18.9933 337.764 19.1676 337.667 19.3246C337.573 19.4816 337.447 19.6072 337.29 19.7014C337.136 19.7925 336.967 19.838 336.781 19.838ZM340.628 19.838C340.343 19.838 340.098 19.7375 339.894 19.5365C339.689 19.3356 339.589 19.0906 339.592 18.8017C339.589 18.5191 339.689 18.2773 339.894 18.0763C340.098 17.8754 340.343 17.7749 340.628 17.7749C340.905 17.7749 341.145 17.8754 341.349 18.0763C341.556 18.2773 341.662 18.5191 341.665 18.8017C341.662 18.9933 341.611 19.1676 341.514 19.3246C341.42 19.4816 341.294 19.6072 341.137 19.7014C340.983 19.7925 340.814 19.838 340.628 19.838ZM344.476 19.838C344.19 19.838 343.945 19.7375 343.741 19.5365C343.537 19.3356 343.436 19.0906 343.439 18.8017C343.436 18.5191 343.537 18.2773 343.741 18.0763C343.945 17.8754 344.19 17.7749 344.476 17.7749C344.752 17.7749 344.992 17.8754 345.196 18.0763C345.404 18.2773 345.509 18.5191 345.512 18.8017C345.509 18.9933 345.458 19.1676 345.361 19.3246C345.267 19.4816 345.141 19.6072 344.984 19.7014C344.83 19.7925 344.661 19.838 344.476 19.838ZM348.323 19.838C348.037 19.838 347.792 19.7375 347.588 19.5365C347.384 19.3356 347.283 19.0906 347.286 18.8017C347.283 18.5191 347.384 18.2773 347.588 18.0763C347.792 17.8754 348.037 17.7749 348.323 17.7749C348.599 17.7749 348.839 17.8754 349.043 18.0763C349.251 18.2773 349.356 18.5191 349.359 18.8017C349.356 18.9933 349.306 19.1676 349.208 19.3246C349.114 19.4816 348.988 19.6072 348.831 19.7014C348.678 19.7925 348.508 19.838 348.323 19.838ZM352.17 19.838C351.884 19.838 351.639 19.7375 351.435 19.5365C351.231 19.3356 351.13 19.0906 351.134 18.8017C351.13 18.5191 351.231 18.2773 351.435 18.0763C351.639 17.8754 351.884 17.7749 352.17 17.7749C352.446 17.7749 352.686 17.8754 352.891 18.0763C353.098 18.2773 353.203 18.5191 353.206 18.8017C353.203 18.9933 353.153 19.1676 353.055 19.3246C352.961 19.4816 352.836 19.6072 352.679 19.7014C352.525 19.7925 352.355 19.838 352.17 19.838ZM356.017 19.838C355.731 19.838 355.486 19.7375 355.282 19.5365C355.078 19.3356 354.978 19.0906 354.981 18.8017C354.978 18.5191 355.078 18.2773 355.282 18.0763C355.486 17.8754 355.731 17.7749 356.017 17.7749C356.293 17.7749 356.534 17.8754 356.738 18.0763C356.945 18.2773 357.05 18.5191 357.053 18.8017C357.05 18.9933 357 19.1676 356.903 19.3246C356.808 19.4816 356.683 19.6072 356.526 19.7014C356.372 19.7925 356.202 19.838 356.017 19.838ZM359.864 19.838C359.578 19.838 359.333 19.7375 359.129 19.5365C358.925 19.3356 358.825 19.0906 358.828 18.8017C358.825 18.5191 358.925 18.2773 359.129 18.0763C359.333 17.8754 359.578 17.7749 359.864 17.7749C360.141 17.7749 360.381 17.8754 360.585 18.0763C360.792 18.2773 360.897 18.5191 360.9 18.8017C360.897 18.9933 360.847 19.1676 360.75 19.3246C360.656 19.4816 360.53 19.6072 360.373 19.7014C360.219 19.7925 360.049 19.838 359.864 19.838ZM363.711 19.838C363.426 19.838 363.181 19.7375 362.976 19.5365C362.772 19.3356 362.672 19.0906 362.675 18.8017C362.672 18.5191 362.772 18.2773 362.976 18.0763C363.181 17.8754 363.426 17.7749 363.711 17.7749C363.988 17.7749 364.228 17.8754 364.432 18.0763C364.639 18.2773 364.744 18.5191 364.748 18.8017C364.744 18.9933 364.694 19.1676 364.597 19.3246C364.503 19.4816 364.377 19.6072 364.22 19.7014C364.066 19.7925 363.897 19.838 363.711 19.838ZM367.558 19.838C367.273 19.838 367.028 19.7375 366.824 19.5365C366.62 19.3356 366.519 19.0906 366.522 18.8017C366.519 18.5191 366.62 18.2773 366.824 18.0763C367.028 17.8754 367.273 17.7749 367.558 17.7749C367.835 17.7749 368.075 17.8754 368.279 18.0763C368.486 18.2773 368.592 18.5191 368.595 18.8017C368.592 18.9933 368.541 19.1676 368.444 19.3246C368.35 19.4816 368.224 19.6072 368.067 19.7014C367.913 19.7925 367.744 19.838 367.558 19.838ZM371.406 19.838C371.12 19.838 370.875 19.7375 370.671 19.5365C370.467 19.3356 370.366 19.0906 370.369 18.8017C370.366 18.5191 370.467 18.2773 370.671 18.0763C370.875 17.8754 371.12 17.7749 371.406 17.7749C371.682 17.7749 371.922 17.8754 372.126 18.0763C372.334 18.2773 372.439 18.5191 372.442 18.8017C372.439 18.9933 372.388 19.1676 372.291 19.3246C372.197 19.4816 372.071 19.6072 371.914 19.7014C371.76 19.7925 371.591 19.838 371.406 19.838ZM375.253 19.838C374.967 19.838 374.722 19.7375 374.518 19.5365C374.314 19.3356 374.213 19.0906 374.216 18.8017C374.213 18.5191 374.314 18.2773 374.518 18.0763C374.722 17.8754 374.967 17.7749 375.253 17.7749C375.529 17.7749 375.769 17.8754 375.973 18.0763C376.181 18.2773 376.286 18.5191 376.289 18.8017C376.286 18.9933 376.236 19.1676 376.138 19.3246C376.044 19.4816 375.918 19.6072 375.761 19.7014C375.608 19.7925 375.438 19.838 375.253 19.838ZM379.1 19.838C378.814 19.838 378.569 19.7375 378.365 19.5365C378.161 19.3356 378.06 19.0906 378.064 18.8017C378.06 18.5191 378.161 18.2773 378.365 18.0763C378.569 17.8754 378.814 17.7749 379.1 17.7749C379.376 17.7749 379.616 17.8754 379.821 18.0763C380.028 18.2773 380.133 18.5191 380.136 18.8017C380.133 18.9933 380.083 19.1676 379.985 19.3246C379.891 19.4816 379.766 19.6072 379.609 19.7014C379.455 19.7925 379.285 19.838 379.1 19.838ZM382.947 19.838C382.661 19.838 382.416 19.7375 382.212 19.5365C382.008 19.3356 381.908 19.0906 381.911 18.8017C381.908 18.5191 382.008 18.2773 382.212 18.0763C382.416 17.8754 382.661 17.7749 382.947 17.7749C383.223 17.7749 383.464 17.8754 383.668 18.0763C383.875 18.2773 383.98 18.5191 383.983 18.8017C383.98 18.9933 383.93 19.1676 383.833 19.3246C383.738 19.4816 383.613 19.6072 383.456 19.7014C383.302 19.7925 383.132 19.838 382.947 19.838ZM386.794 19.838C386.508 19.838 386.263 19.7375 386.059 19.5365C385.855 19.3356 385.755 19.0906 385.758 18.8017C385.755 18.5191 385.855 18.2773 386.059 18.0763C386.263 17.8754 386.508 17.7749 386.794 17.7749C387.071 17.7749 387.311 17.8754 387.515 18.0763C387.722 18.2773 387.827 18.5191 387.83 18.8017C387.827 18.9933 387.777 19.1676 387.68 19.3246C387.586 19.4816 387.46 19.6072 387.303 19.7014C387.149 19.7925 386.979 19.838 386.794 19.838ZM390.641 19.838C390.356 19.838 390.111 19.7375 389.907 19.5365C389.702 19.3356 389.602 19.0906 389.605 18.8017C389.602 18.5191 389.702 18.2773 389.907 18.0763C390.111 17.8754 390.356 17.7749 390.641 17.7749C390.918 17.7749 391.158 17.8754 391.362 18.0763C391.569 18.2773 391.674 18.5191 391.678 18.8017C391.674 18.9933 391.624 19.1676 391.527 19.3246C391.433 19.4816 391.307 19.6072 391.15 19.7014C390.996 19.7925 390.827 19.838 390.641 19.838ZM394.488 19.838C394.203 19.838 393.958 19.7375 393.754 19.5365C393.55 19.3356 393.449 19.0906 393.452 18.8017C393.449 18.5191 393.55 18.2773 393.754 18.0763C393.958 17.8754 394.203 17.7749 394.488 17.7749C394.765 17.7749 395.005 17.8754 395.209 18.0763C395.416 18.2773 395.522 18.5191 395.525 18.8017C395.522 18.9933 395.471 19.1676 395.374 19.3246C395.28 19.4816 395.154 19.6072 394.997 19.7014C394.843 19.7925 394.674 19.838 394.488 19.838ZM398.336 19.838C398.05 19.838 397.805 19.7375 397.601 19.5365C397.397 19.3356 397.296 19.0906 397.299 18.8017C397.296 18.5191 397.397 18.2773 397.601 18.0763C397.805 17.8754 398.05 17.7749 398.336 17.7749C398.612 17.7749 398.852 17.8754 399.056 18.0763C399.264 18.2773 399.369 18.5191 399.372 18.8017C399.369 18.9933 399.319 19.1676 399.221 19.3246C399.127 19.4816 399.001 19.6072 398.844 19.7014C398.69 19.7925 398.521 19.838 398.336 19.838ZM402.183 19.838C401.897 19.838 401.652 19.7375 401.448 19.5365C401.244 19.3356 401.143 19.0906 401.147 18.8017C401.143 18.5191 401.244 18.2773 401.448 18.0763C401.652 17.8754 401.897 17.7749 402.183 17.7749C402.459 17.7749 402.699 17.8754 402.903 18.0763C403.111 18.2773 403.216 18.5191 403.219 18.8017C403.216 18.9933 403.166 19.1676 403.068 19.3246C402.974 19.4816 402.849 19.6072 402.692 19.7014C402.538 19.7925 402.368 19.838 402.183 19.838ZM406.03 19.838C405.744 19.838 405.499 19.7375 405.295 19.5365C405.091 19.3356 404.991 19.0906 404.994 18.8017C404.991 18.5191 405.091 18.2773 405.295 18.0763C405.499 17.8754 405.744 17.7749 406.03 17.7749C406.306 17.7749 406.546 17.8754 406.751 18.0763C406.958 18.2773 407.063 18.5191 407.066 18.8017C407.063 18.9933 407.013 19.1676 406.915 19.3246C406.821 19.4816 406.696 19.6072 406.539 19.7014C406.385 19.7925 406.215 19.838 406.03 19.838ZM409.877 19.838C409.591 19.838 409.346 19.7375 409.142 19.5365C408.938 19.3356 408.838 19.0906 408.841 18.8017C408.838 18.5191 408.938 18.2773 409.142 18.0763C409.346 17.8754 409.591 17.7749 409.877 17.7749C410.153 17.7749 410.394 17.8754 410.598 18.0763C410.805 18.2773 410.91 18.5191 410.913 18.8017C410.91 18.9933 410.86 19.1676 410.763 19.3246C410.668 19.4816 410.543 19.6072 410.386 19.7014C410.232 19.7925 410.062 19.838 409.877 19.838ZM413.724 19.838C413.438 19.838 413.194 19.7375 412.989 19.5365C412.785 19.3356 412.685 19.0906 412.688 18.8017C412.685 18.5191 412.785 18.2773 412.989 18.0763C413.194 17.8754 413.438 17.7749 413.724 17.7749C414.001 17.7749 414.241 17.8754 414.445 18.0763C414.652 18.2773 414.757 18.5191 414.761 18.8017C414.757 18.9933 414.707 19.1676 414.61 19.3246C414.516 19.4816 414.39 19.6072 414.233 19.7014C414.079 19.7925 413.91 19.838 413.724 19.838ZM417.571 19.838C417.286 19.838 417.041 19.7375 416.837 19.5365C416.632 19.3356 416.532 19.0906 416.535 18.8017C416.532 18.5191 416.632 18.2773 416.837 18.0763C417.041 17.8754 417.286 17.7749 417.571 17.7749C417.848 17.7749 418.088 17.8754 418.292 18.0763C418.499 18.2773 418.604 18.5191 418.608 18.8017C418.604 18.9933 418.554 19.1676 418.457 19.3246C418.363 19.4816 418.237 19.6072 418.08 19.7014C417.926 19.7925 417.757 19.838 417.571 19.838ZM421.419 19.838C421.133 19.838 420.888 19.7375 420.684 19.5365C420.48 19.3356 420.379 19.0906 420.382 18.8017C420.379 18.5191 420.48 18.2773 420.684 18.0763C420.888 17.8754 421.133 17.7749 421.419 17.7749C421.695 17.7749 421.935 17.8754 422.139 18.0763C422.346 18.2773 422.452 18.5191 422.455 18.8017C422.452 18.9933 422.401 19.1676 422.304 19.3246C422.21 19.4816 422.084 19.6072 421.927 19.7014C421.773 19.7925 421.604 19.838 421.419 19.838ZM425.266 19.838C424.98 19.838 424.735 19.7375 424.531 19.5365C424.327 19.3356 424.226 19.0906 424.229 18.8017C424.226 18.5191 424.327 18.2773 424.531 18.0763C424.735 17.8754 424.98 17.7749 425.266 17.7749C425.542 17.7749 425.782 17.8754 425.986 18.0763C426.194 18.2773 426.299 18.5191 426.302 18.8017C426.299 18.9933 426.249 19.1676 426.151 19.3246C426.057 19.4816 425.931 19.6072 425.774 19.7014C425.621 19.7925 425.451 19.838 425.266 19.838ZM429.113 19.838C428.827 19.838 428.582 19.7375 428.378 19.5365C428.174 19.3356 428.073 19.0906 428.077 18.8017C428.073 18.5191 428.174 18.2773 428.378 18.0763C428.582 17.8754 428.827 17.7749 429.113 17.7749C429.389 17.7749 429.629 17.8754 429.833 18.0763C430.041 18.2773 430.146 18.5191 430.149 18.8017C430.146 18.9933 430.096 19.1676 429.998 19.3246C429.904 19.4816 429.779 19.6072 429.622 19.7014C429.468 19.7925 429.298 19.838 429.113 19.838ZM432.96 19.838C432.674 19.838 432.429 19.7375 432.225 19.5365C432.021 19.3356 431.921 19.0906 431.924 18.8017C431.921 18.5191 432.021 18.2773 432.225 18.0763C432.429 17.8754 432.674 17.7749 432.96 17.7749C433.236 17.7749 433.477 17.8754 433.681 18.0763C433.888 18.2773 433.993 18.5191 433.996 18.8017C433.993 18.9933 433.943 19.1676 433.846 19.3246C433.751 19.4816 433.626 19.6072 433.469 19.7014C433.315 19.7925 433.145 19.838 432.96 19.838ZM436.807 19.838C436.521 19.838 436.276 19.7375 436.072 19.5365C435.868 19.3356 435.768 19.0906 435.771 18.8017C435.768 18.5191 435.868 18.2773 436.072 18.0763C436.276 17.8754 436.521 17.7749 436.807 17.7749C437.083 17.7749 437.324 17.8754 437.528 18.0763C437.735 18.2773 437.84 18.5191 437.843 18.8017C437.84 18.9933 437.79 19.1676 437.693 19.3246C437.598 19.4816 437.473 19.6072 437.316 19.7014C437.162 19.7925 436.992 19.838 436.807 19.838ZM440.654 19.838C440.368 19.838 440.124 19.7375 439.919 19.5365C439.715 19.3356 439.615 19.0906 439.618 18.8017C439.615 18.5191 439.715 18.2773 439.919 18.0763C440.124 17.8754 440.368 17.7749 440.654 17.7749C440.931 17.7749 441.171 17.8754 441.375 18.0763C441.582 18.2773 441.687 18.5191 441.691 18.8017C441.687 18.9933 441.637 19.1676 441.54 19.3246C441.446 19.4816 441.32 19.6072 441.163 19.7014C441.009 19.7925 440.84 19.838 440.654 19.838ZM444.501 19.838C444.216 19.838 443.971 19.7375 443.767 19.5365C443.562 19.3356 443.462 19.0906 443.465 18.8017C443.462 18.5191 443.562 18.2773 443.767 18.0763C443.971 17.8754 444.216 17.7749 444.501 17.7749C444.778 17.7749 445.018 17.8754 445.222 18.0763C445.429 18.2773 445.535 18.5191 445.538 18.8017C445.535 18.9933 445.484 19.1676 445.387 19.3246C445.293 19.4816 445.167 19.6072 445.01 19.7014C444.856 19.7925 444.687 19.838 444.501 19.838ZM448.349 19.838C448.063 19.838 447.818 19.7375 447.614 19.5365C447.41 19.3356 447.309 19.0906 447.312 18.8017C447.309 18.5191 447.41 18.2773 447.614 18.0763C447.818 17.8754 448.063 17.7749 448.349 17.7749C448.625 17.7749 448.865 17.8754 449.069 18.0763C449.276 18.2773 449.382 18.5191 449.385 18.8017C449.382 18.9933 449.331 19.1676 449.234 19.3246C449.14 19.4816 449.014 19.6072 448.857 19.7014C448.703 19.7925 448.534 19.838 448.349 19.838ZM452.196 19.838C451.91 19.838 451.665 19.7375 451.461 19.5365C451.257 19.3356 451.156 19.0906 451.159 18.8017C451.156 18.5191 451.257 18.2773 451.461 18.0763C451.665 17.8754 451.91 17.7749 452.196 17.7749C452.472 17.7749 452.712 17.8754 452.916 18.0763C453.124 18.2773 453.229 18.5191 453.232 18.8017C453.229 18.9933 453.179 19.1676 453.081 19.3246C452.987 19.4816 452.861 19.6072 452.704 19.7014C452.551 19.7925 452.381 19.838 452.196 19.838ZM456.043 19.838C455.757 19.838 455.512 19.7375 455.308 19.5365C455.104 19.3356 455.003 19.0906 455.007 18.8017C455.003 18.5191 455.104 18.2773 455.308 18.0763C455.512 17.8754 455.757 17.7749 456.043 17.7749C456.319 17.7749 456.559 17.8754 456.764 18.0763C456.971 18.2773 457.076 18.5191 457.079 18.8017C457.076 18.9933 457.026 19.1676 456.928 19.3246C456.834 19.4816 456.709 19.6072 456.552 19.7014C456.398 19.7925 456.228 19.838 456.043 19.838ZM459.89 19.838C459.604 19.838 459.359 19.7375 459.155 19.5365C458.951 19.3356 458.851 19.0906 458.854 18.8017C458.851 18.5191 458.951 18.2773 459.155 18.0763C459.359 17.8754 459.604 17.7749 459.89 17.7749C460.166 17.7749 460.407 17.8754 460.611 18.0763C460.818 18.2773 460.923 18.5191 460.926 18.8017C460.923 18.9933 460.873 19.1676 460.776 19.3246C460.681 19.4816 460.556 19.6072 460.399 19.7014C460.245 19.7925 460.075 19.838 459.89 19.838ZM463.737 19.838C463.451 19.838 463.206 19.7375 463.002 19.5365C462.798 19.3356 462.698 19.0906 462.701 18.8017C462.698 18.5191 462.798 18.2773 463.002 18.0763C463.206 17.8754 463.451 17.7749 463.737 17.7749C464.013 17.7749 464.254 17.8754 464.458 18.0763C464.665 18.2773 464.77 18.5191 464.773 18.8017C464.77 18.9933 464.72 19.1676 464.623 19.3246C464.528 19.4816 464.403 19.6072 464.246 19.7014C464.092 19.7925 463.922 19.838 463.737 19.838ZM467.584 19.838C467.299 19.838 467.054 19.7375 466.849 19.5365C466.645 19.3356 466.545 19.0906 466.548 18.8017C466.545 18.5191 466.645 18.2773 466.849 18.0763C467.054 17.8754 467.299 17.7749 467.584 17.7749C467.861 17.7749 468.101 17.8754 468.305 18.0763C468.512 18.2773 468.617 18.5191 468.621 18.8017C468.617 18.9933 468.567 19.1676 468.47 19.3246C468.376 19.4816 468.25 19.6072 468.093 19.7014C467.939 19.7925 467.77 19.838 467.584 19.838ZM471.431 19.838C471.146 19.838 470.901 19.7375 470.697 19.5365C470.493 19.3356 470.392 19.0906 470.395 18.8017C470.392 18.5191 470.493 18.2773 470.697 18.0763C470.901 17.8754 471.146 17.7749 471.431 17.7749C471.708 17.7749 471.948 17.8754 472.152 18.0763C472.359 18.2773 472.465 18.5191 472.468 18.8017C472.465 18.9933 472.414 19.1676 472.317 19.3246C472.223 19.4816 472.097 19.6072 471.94 19.7014C471.786 19.7925 471.617 19.838 471.431 19.838ZM475.279 19.838C474.993 19.838 474.748 19.7375 474.544 19.5365C474.34 19.3356 474.239 19.0906 474.242 18.8017C474.239 18.5191 474.34 18.2773 474.544 18.0763C474.748 17.8754 474.993 17.7749 475.279 17.7749C475.555 17.7749 475.795 17.8754 475.999 18.0763C476.207 18.2773 476.312 18.5191 476.315 18.8017C476.312 18.9933 476.261 19.1676 476.164 19.3246C476.07 19.4816 475.944 19.6072 475.787 19.7014C475.633 19.7925 475.464 19.838 475.279 19.838Z" fill="#6C6C6C"/>
<g filter="url(#filter0_d_1954_80)">
<rect x="7.19922" y="7.19922" width="27" height="27" rx="13.5" fill="white" shape-rendering="crispEdges"/>
<path d="M18.1853 15.6719H23.2147V16.9273H24.472V15.6719C24.8054 15.672 25.125 15.8046 25.3607 16.0404C25.5964 16.2761 25.7287 16.5959 25.7287 16.9292V24.4733C25.7287 24.8067 25.5964 25.1264 25.3607 25.3622C25.125 25.598 24.8054 25.7305 24.472 25.7307V24.4715H23.2147V25.7307H18.1853V24.4715H16.9279V25.7307C16.5944 25.7307 16.274 25.5982 16.0382 25.3624C15.8024 25.1266 15.6699 24.8068 15.6699 24.4733V16.9292C15.6699 16.5958 15.8024 16.2759 16.0382 16.0401C16.274 15.8043 16.5938 15.6719 16.9273 15.6719L16.9279 16.9273H18.1853V15.6719ZM19.442 22.5873L22.271 20.7013L19.442 18.8153V22.5873ZM24.472 23.2141V21.3281H23.2147V23.2141H24.472ZM24.472 20.0707V18.1847H23.2147V20.0707H24.472ZM18.1853 23.2141V21.3281H16.9279V23.2141H18.1853ZM18.1853 20.0707V18.1847H16.9279V20.0707H18.1853Z" fill="#00B1EF"/>
</g>
<defs>
<filter id="filter0_d_1954_80" x="-0.000781059" y="-0.000781059" width="41.4" height="41.4" filterUnits="userSpaceOnUse" color-interpolation-filters="sRGB">
<feFlood flood-opacity="0" result="BackgroundImageFix"/>
<feColorMatrix in="SourceAlpha" type="matrix" values="0 0 0 0 0 0 0 0 0 0 0 0 0 0 0 0 0 0 127 0" result="hardAlpha"/>
<feOffset/>
<feGaussianBlur stdDeviation="3.6"/>
<feComposite in2="hardAlpha" operator="out"/>
<feColorMatrix type="matrix" values="0 0 0 0 0 0 0 0 0 0 0 0 0 0 0 0 0 0 0.25 0"/>
<feBlend mode="normal" in2="BackgroundImageFix" result="effect1_dropShadow_1954_80"/>
<feBlend mode="normal" in="SourceGraphic" in2="effect1_dropShadow_1954_80" result="shape"/>
</filter>
</defs>
</svg>
