<svg width="374" height="43" viewBox="0 0 374 43" fill="none" xmlns="http://www.w3.org/2000/svg">
<path d="M19.3849 19V10.2727H22.3338C23.0185 10.2727 23.5781 10.3963 24.0128 10.6435C24.4503 10.8878 24.7741 11.2188 24.9844 11.6364C25.1946 12.054 25.2997 12.5199 25.2997 13.0341C25.2997 13.5483 25.1946 14.0156 24.9844 14.4361C24.777 14.8565 24.456 15.1918 24.0213 15.4418C23.5866 15.6889 23.0298 15.8125 22.3509 15.8125H20.2372V14.875H22.3168C22.7855 14.875 23.1619 14.794 23.446 14.6321C23.7301 14.4702 23.9361 14.2514 24.0639 13.9759C24.1946 13.6974 24.2599 13.3835 24.2599 13.0341C24.2599 12.6847 24.1946 12.3722 24.0639 12.0966C23.9361 11.821 23.7287 11.6051 23.4418 11.4489C23.1548 11.2898 22.7741 11.2102 22.2997 11.2102H20.4418V19H19.3849ZM29.5398 19.1364C28.9091 19.1364 28.3651 18.9972 27.9077 18.7188C27.4531 18.4375 27.1023 18.0455 26.8551 17.5426C26.6108 17.0369 26.4886 16.4489 26.4886 15.7784C26.4886 15.108 26.6108 14.517 26.8551 14.0057C27.1023 13.4915 27.446 13.0909 27.8864 12.804C28.3295 12.5142 28.8466 12.3693 29.4375 12.3693C29.7784 12.3693 30.1151 12.4261 30.4474 12.5398C30.7798 12.6534 31.0824 12.8381 31.3551 13.0938C31.6278 13.3466 31.8452 13.6818 32.0071 14.0994C32.169 14.517 32.25 15.0312 32.25 15.642V16.0682H27.2045V15.1989H31.2273C31.2273 14.8295 31.1534 14.5 31.0057 14.2102C30.8608 13.9205 30.6534 13.6918 30.3835 13.5241C30.1165 13.3565 29.8011 13.2727 29.4375 13.2727C29.0369 13.2727 28.6903 13.3722 28.3977 13.571C28.108 13.767 27.8849 14.0227 27.7287 14.3381C27.5724 14.6534 27.4943 14.9915 27.4943 15.3523V15.9318C27.4943 16.4261 27.5795 16.8452 27.75 17.1889C27.9233 17.5298 28.1634 17.7898 28.4702 17.9688C28.777 18.1449 29.1335 18.233 29.5398 18.233C29.804 18.233 30.0426 18.196 30.2557 18.1222C30.4716 18.0455 30.6577 17.9318 30.8139 17.7812C30.9702 17.6278 31.0909 17.4375 31.1761 17.2102L32.1477 17.483C32.0455 17.8125 31.8736 18.1023 31.6321 18.3523C31.3906 18.5994 31.0923 18.7926 30.7372 18.9318C30.3821 19.0682 29.983 19.1364 29.5398 19.1364ZM33.7798 19V12.4545H34.7514V13.4432H34.8196C34.9389 13.1193 35.1548 12.8565 35.4673 12.6548C35.7798 12.4531 36.1321 12.3523 36.5241 12.3523C36.598 12.3523 36.6903 12.3537 36.8011 12.3565C36.9119 12.3594 36.9957 12.3636 37.0526 12.3693V13.392C37.0185 13.3835 36.9403 13.3707 36.8182 13.3537C36.6989 13.3338 36.5724 13.3239 36.4389 13.3239C36.1207 13.3239 35.8366 13.3906 35.5866 13.5241C35.3395 13.6548 35.1435 13.8366 34.9986 14.0696C34.8565 14.2997 34.7855 14.5625 34.7855 14.858V19H33.7798ZM41.5696 12.4545V13.3068H38.0412V12.4545H41.5696ZM39.098 19V11.5511C39.098 11.1761 39.1861 10.8636 39.3622 10.6136C39.5384 10.3636 39.767 10.1761 40.0483 10.0511C40.3295 9.92614 40.6264 9.86364 40.9389 9.86364C41.1861 9.86364 41.3878 9.88352 41.544 9.9233C41.7003 9.96307 41.8168 10 41.8935 10.0341L41.6037 10.9034C41.5526 10.8864 41.4815 10.8651 41.3906 10.8395C41.3026 10.8139 41.1861 10.8011 41.0412 10.8011C40.7088 10.8011 40.4688 10.8849 40.321 11.0526C40.1761 11.2202 40.1037 11.4659 40.1037 11.7898V19H39.098ZM45.4538 19.1364C44.8232 19.1364 44.2791 18.9972 43.8217 18.7188C43.3672 18.4375 43.0163 18.0455 42.7692 17.5426C42.5249 17.0369 42.4027 16.4489 42.4027 15.7784C42.4027 15.108 42.5249 14.517 42.7692 14.0057C43.0163 13.4915 43.3601 13.0909 43.8004 12.804C44.2436 12.5142 44.7607 12.3693 45.3516 12.3693C45.6925 12.3693 46.0291 12.4261 46.3615 12.5398C46.6939 12.6534 46.9964 12.8381 47.2692 13.0938C47.5419 13.3466 47.7592 13.6818 47.9212 14.0994C48.0831 14.517 48.1641 15.0312 48.1641 15.642V16.0682H43.1186V15.1989H47.1413C47.1413 14.8295 47.0675 14.5 46.9197 14.2102C46.7749 13.9205 46.5675 13.6918 46.2976 13.5241C46.0305 13.3565 45.7152 13.2727 45.3516 13.2727C44.951 13.2727 44.6044 13.3722 44.3118 13.571C44.022 13.767 43.799 14.0227 43.6428 14.3381C43.4865 14.6534 43.4084 14.9915 43.4084 15.3523V15.9318C43.4084 16.4261 43.4936 16.8452 43.6641 17.1889C43.8374 17.5298 44.0774 17.7898 44.3842 17.9688C44.6911 18.1449 45.0476 18.233 45.4538 18.233C45.718 18.233 45.9567 18.196 46.1697 18.1222C46.3857 18.0455 46.5717 17.9318 46.728 17.7812C46.8842 17.6278 47.005 17.4375 47.0902 17.2102L48.0618 17.483C47.9595 17.8125 47.7876 18.1023 47.5462 18.3523C47.3047 18.5994 47.0064 18.7926 46.6513 18.9318C46.2962 19.0682 45.897 19.1364 45.4538 19.1364ZM52.353 19.1364C51.7393 19.1364 51.2109 18.9915 50.7678 18.7017C50.3246 18.4119 49.9837 18.0128 49.745 17.5043C49.5064 16.9957 49.3871 16.4148 49.3871 15.7614C49.3871 15.0966 49.5092 14.5099 49.7536 14.0014C50.0007 13.4901 50.3445 13.0909 50.7848 12.804C51.228 12.5142 51.745 12.3693 52.3359 12.3693C52.7962 12.3693 53.2109 12.4545 53.5803 12.625C53.9496 12.7955 54.2521 13.0341 54.4879 13.3409C54.7237 13.6477 54.87 14.0057 54.9268 14.4148H53.9212C53.8445 14.1165 53.674 13.8523 53.4098 13.6222C53.1484 13.3892 52.7962 13.2727 52.353 13.2727C51.9609 13.2727 51.6172 13.375 51.3217 13.5795C51.0291 13.7812 50.8004 14.0668 50.6357 14.4361C50.4737 14.8026 50.3928 15.233 50.3928 15.7273C50.3928 16.233 50.4723 16.6733 50.6314 17.0483C50.7933 17.4233 51.0206 17.7145 51.3132 17.9219C51.6087 18.1293 51.9553 18.233 52.353 18.233C52.6143 18.233 52.8516 18.1875 53.0646 18.0966C53.2777 18.0057 53.4581 17.875 53.6058 17.7045C53.7536 17.5341 53.8587 17.3295 53.9212 17.0909H54.9268C54.87 17.4773 54.7294 17.8253 54.505 18.1349C54.2834 18.4418 53.9893 18.6861 53.6229 18.8679C53.2592 19.0469 52.8359 19.1364 52.353 19.1364ZM59.2436 12.4545V13.3068H55.8516V12.4545H59.2436ZM56.8402 10.8864H57.8459V17.125C57.8459 17.4091 57.8871 17.6222 57.9695 17.7642C58.0547 17.9034 58.1626 17.9972 58.2933 18.0455C58.4268 18.0909 58.5675 18.1136 58.7152 18.1136C58.826 18.1136 58.9169 18.108 58.9879 18.0966C59.0589 18.0824 59.1158 18.071 59.1584 18.0625L59.3629 18.9659C59.2947 18.9915 59.1996 19.017 59.0774 19.0426C58.9553 19.071 58.8004 19.0852 58.6129 19.0852C58.3288 19.0852 58.0504 19.0241 57.7777 18.902C57.5078 18.7798 57.2834 18.5938 57.1044 18.3438C56.9283 18.0938 56.8402 17.7784 56.8402 17.3977V10.8864ZM67.0462 12.4545V13.3068H63.5178V12.4545H67.0462ZM64.5746 19V11.5511C64.5746 11.1761 64.6626 10.8636 64.8388 10.6136C65.0149 10.3636 65.2436 10.1761 65.5249 10.0511C65.8061 9.92614 66.103 9.86364 66.4155 9.86364C66.6626 9.86364 66.8643 9.88352 67.0206 9.9233C67.1768 9.96307 67.2933 10 67.37 10.0341L67.0803 10.9034C67.0291 10.8864 66.9581 10.8651 66.8672 10.8395C66.7791 10.8139 66.6626 10.8011 66.5178 10.8011C66.1854 10.8011 65.9453 10.8849 65.7976 11.0526C65.6527 11.2202 65.5803 11.4659 65.5803 11.7898V19H64.5746ZM70.8452 19.1364C70.2543 19.1364 69.7358 18.9957 69.2898 18.7145C68.8466 18.4332 68.5 18.0398 68.25 17.5341C68.0028 17.0284 67.8793 16.4375 67.8793 15.7614C67.8793 15.0795 68.0028 14.4844 68.25 13.9759C68.5 13.4673 68.8466 13.0724 69.2898 12.7912C69.7358 12.5099 70.2543 12.3693 70.8452 12.3693C71.4361 12.3693 71.9531 12.5099 72.3963 12.7912C72.8423 13.0724 73.1889 13.4673 73.4361 13.9759C73.6861 14.4844 73.8111 15.0795 73.8111 15.7614C73.8111 16.4375 73.6861 17.0284 73.4361 17.5341C73.1889 18.0398 72.8423 18.4332 72.3963 18.7145C71.9531 18.9957 71.4361 19.1364 70.8452 19.1364ZM70.8452 18.233C71.294 18.233 71.6634 18.1179 71.9531 17.8878C72.2429 17.6577 72.4574 17.3551 72.5966 16.9801C72.7358 16.6051 72.8054 16.1989 72.8054 15.7614C72.8054 15.3239 72.7358 14.9162 72.5966 14.5384C72.4574 14.1605 72.2429 13.8551 71.9531 13.6222C71.6634 13.3892 71.294 13.2727 70.8452 13.2727C70.3963 13.2727 70.027 13.3892 69.7372 13.6222C69.4474 13.8551 69.233 14.1605 69.0938 14.5384C68.9545 14.9162 68.8849 15.3239 68.8849 15.7614C68.8849 16.1989 68.9545 16.6051 69.0938 16.9801C69.233 17.3551 69.4474 17.6577 69.7372 17.8878C70.027 18.1179 70.3963 18.233 70.8452 18.233ZM75.3462 19V12.4545H76.3178V13.4432H76.386C76.5053 13.1193 76.7212 12.8565 77.0337 12.6548C77.3462 12.4531 77.6985 12.3523 78.0906 12.3523C78.1644 12.3523 78.2567 12.3537 78.3675 12.3565C78.4783 12.3594 78.5621 12.3636 78.619 12.3693V13.392C78.5849 13.3835 78.5067 13.3707 78.3846 13.3537C78.2653 13.3338 78.1388 13.3239 78.0053 13.3239C77.6871 13.3239 77.4031 13.3906 77.1531 13.5241C76.9059 13.6548 76.7099 13.8366 76.565 14.0696C76.4229 14.2997 76.3519 14.5625 76.3519 14.858V19H75.3462ZM86.1009 12.4545V13.3068H82.5724V12.4545H86.1009ZM83.6293 19V11.5511C83.6293 11.1761 83.7173 10.8636 83.8935 10.6136C84.0696 10.3636 84.2983 10.1761 84.5795 10.0511C84.8608 9.92614 85.1577 9.86364 85.4702 9.86364C85.7173 9.86364 85.919 9.88352 86.0753 9.9233C86.2315 9.96307 86.348 10 86.4247 10.0341L86.1349 10.9034C86.0838 10.8864 86.0128 10.8651 85.9219 10.8395C85.8338 10.8139 85.7173 10.8011 85.5724 10.8011C85.2401 10.8011 85 10.8849 84.8523 11.0526C84.7074 11.2202 84.6349 11.4659 84.6349 11.7898V19H83.6293ZM89.2489 19.1534C88.8342 19.1534 88.4577 19.0753 88.1197 18.919C87.7816 18.7599 87.5131 18.5312 87.3143 18.233C87.1154 17.9318 87.016 17.5682 87.016 17.142C87.016 16.767 87.0898 16.4631 87.2376 16.2301C87.3853 15.9943 87.5827 15.8097 87.8299 15.6761C88.0771 15.5426 88.3498 15.4432 88.6481 15.3778C88.9492 15.3097 89.2518 15.2557 89.5558 15.2159C89.9535 15.1648 90.2759 15.1264 90.5231 15.1009C90.7731 15.0724 90.9549 15.0256 91.0685 14.9602C91.185 14.8949 91.2433 14.7812 91.2433 14.6193V14.5852C91.2433 14.1648 91.1282 13.8381 90.8981 13.6051C90.6708 13.3722 90.3256 13.2557 89.8626 13.2557C89.3825 13.2557 89.006 13.3608 88.7333 13.571C88.4606 13.7812 88.2688 14.0057 88.158 14.2443L87.2035 13.9034C87.3739 13.5057 87.6012 13.196 87.8853 12.9744C88.1722 12.75 88.4847 12.5937 88.8228 12.5057C89.1637 12.4148 89.4989 12.3693 89.8285 12.3693C90.0387 12.3693 90.2802 12.3949 90.5529 12.446C90.8285 12.4943 91.0941 12.5952 91.3498 12.7486C91.6083 12.902 91.8228 13.1335 91.9933 13.4432C92.1637 13.7528 92.2489 14.1676 92.2489 14.6875V19H91.2433V18.1136H91.1921C91.1239 18.2557 91.0103 18.4077 90.8512 18.5696C90.6921 18.7315 90.4805 18.8693 90.2163 18.983C89.9521 19.0966 89.6296 19.1534 89.2489 19.1534ZM89.4023 18.25C89.8001 18.25 90.1353 18.1719 90.408 18.0156C90.6836 17.8594 90.891 17.6577 91.0302 17.4105C91.1722 17.1634 91.2433 16.9034 91.2433 16.6307V15.7102C91.2006 15.7614 91.1069 15.8082 90.962 15.8509C90.82 15.8906 90.6552 15.9261 90.4677 15.9574C90.283 15.9858 90.1026 16.0114 89.9265 16.0341C89.7532 16.054 89.6126 16.071 89.5046 16.0852C89.2433 16.1193 88.9989 16.1747 88.7717 16.2514C88.5472 16.3253 88.3654 16.4375 88.2262 16.5881C88.0898 16.7358 88.0217 16.9375 88.0217 17.1932C88.0217 17.5426 88.1509 17.8068 88.4094 17.9858C88.6708 18.1619 89.0018 18.25 89.4023 18.25ZM94.0845 19V12.4545H95.0561V13.4773H95.1413C95.2777 13.1278 95.4979 12.8565 95.8018 12.6634C96.1058 12.4673 96.4709 12.3693 96.897 12.3693C97.3288 12.3693 97.6882 12.4673 97.9751 12.6634C98.2649 12.8565 98.4908 13.1278 98.6527 13.4773H98.7209C98.8885 13.1392 99.1399 12.8707 99.4751 12.6719C99.8104 12.4702 100.212 12.3693 100.681 12.3693C101.266 12.3693 101.745 12.5526 102.117 12.919C102.489 13.2827 102.675 13.8494 102.675 14.6193V19H101.67V14.6193C101.67 14.1364 101.538 13.7912 101.273 13.5838C101.009 13.3764 100.698 13.2727 100.34 13.2727C99.88 13.2727 99.5234 13.4119 99.2706 13.6903C99.0178 13.9659 98.8913 14.3153 98.8913 14.7386V19H97.8686V14.517C97.8686 14.1449 97.7479 13.8452 97.5064 13.6179C97.2649 13.3878 96.9538 13.2727 96.5732 13.2727C96.3118 13.2727 96.0675 13.3423 95.8402 13.4815C95.6158 13.6207 95.4339 13.8139 95.2947 14.0611C95.1584 14.3054 95.0902 14.5881 95.0902 14.9091V19H94.0845ZM104.514 19V12.4545H105.52V19H104.514ZM105.026 11.3636C104.83 11.3636 104.661 11.2969 104.518 11.1634C104.379 11.0298 104.31 10.8693 104.31 10.6818C104.31 10.4943 104.379 10.3338 104.518 10.2003C104.661 10.0668 104.83 10 105.026 10C105.222 10 105.389 10.0668 105.528 10.2003C105.67 10.3338 105.741 10.4943 105.741 10.6818C105.741 10.8693 105.67 11.0298 105.528 11.1634C105.389 11.2969 105.222 11.3636 105.026 11.3636ZM108.368 10.2727V19H107.362V10.2727H108.368ZM110.857 21.4545C110.687 21.4545 110.535 21.4403 110.401 21.4119C110.268 21.3864 110.175 21.3608 110.124 21.3352L110.38 20.4489C110.624 20.5114 110.84 20.5341 111.028 20.517C111.215 20.5 111.381 20.4162 111.526 20.2656C111.674 20.1179 111.809 19.8778 111.931 19.5455L112.119 19.0341L109.698 12.4545H110.789L112.596 17.6705H112.664L114.471 12.4545H115.562L112.783 19.9545C112.658 20.2926 112.504 20.5724 112.319 20.794C112.134 21.0185 111.92 21.1847 111.675 21.2926C111.434 21.4006 111.161 21.4545 110.857 21.4545ZM120.264 19V12.4545H121.236V13.4773H121.321C121.457 13.1278 121.678 12.8565 121.982 12.6634C122.286 12.4673 122.651 12.3693 123.077 12.3693C123.509 12.3693 123.868 12.4673 124.155 12.6634C124.445 12.8565 124.67 13.1278 124.832 13.4773H124.901C125.068 13.1392 125.32 12.8707 125.655 12.6719C125.99 12.4702 126.392 12.3693 126.861 12.3693C127.446 12.3693 127.925 12.5526 128.297 12.919C128.669 13.2827 128.855 13.8494 128.855 14.6193V19H127.849V14.6193C127.849 14.1364 127.717 13.7912 127.453 13.5838C127.189 13.3764 126.878 13.2727 126.52 13.2727C126.06 13.2727 125.703 13.4119 125.45 13.6903C125.197 13.9659 125.071 14.3153 125.071 14.7386V19H124.048V14.517C124.048 14.1449 123.928 13.8452 123.686 13.6179C123.445 13.3878 123.134 13.2727 122.753 13.2727C122.491 13.2727 122.247 13.3423 122.02 13.4815C121.795 13.6207 121.614 13.8139 121.474 14.0611C121.338 14.3054 121.27 14.5881 121.27 14.9091V19H120.264ZM133.438 19.1364C132.808 19.1364 132.263 18.9972 131.806 18.7188C131.352 18.4375 131.001 18.0455 130.754 17.5426C130.509 17.0369 130.387 16.4489 130.387 15.7784C130.387 15.108 130.509 14.517 130.754 14.0057C131.001 13.4915 131.344 13.0909 131.785 12.804C132.228 12.5142 132.745 12.3693 133.336 12.3693C133.677 12.3693 134.013 12.4261 134.346 12.5398C134.678 12.6534 134.981 12.8381 135.254 13.0938C135.526 13.3466 135.744 13.6818 135.906 14.0994C136.067 14.517 136.148 15.0312 136.148 15.642V16.0682H131.103V15.1989H135.126C135.126 14.8295 135.052 14.5 134.904 14.2102C134.759 13.9205 134.552 13.6918 134.282 13.5241C134.015 13.3565 133.7 13.2727 133.336 13.2727C132.935 13.2727 132.589 13.3722 132.296 13.571C132.006 13.767 131.783 14.0227 131.627 14.3381C131.471 14.6534 131.393 14.9915 131.393 15.3523V15.9318C131.393 16.4261 131.478 16.8452 131.648 17.1889C131.822 17.5298 132.062 17.7898 132.369 17.9688C132.675 18.1449 133.032 18.233 133.438 18.233C133.702 18.233 133.941 18.196 134.154 18.1222C134.37 18.0455 134.556 17.9318 134.712 17.7812C134.869 17.6278 134.989 17.4375 135.075 17.2102L136.046 17.483C135.944 17.8125 135.772 18.1023 135.531 18.3523C135.289 18.5994 134.991 18.7926 134.636 18.9318C134.281 19.0682 133.881 19.1364 133.438 19.1364ZM139.604 19.1534C139.19 19.1534 138.813 19.0753 138.475 18.919C138.137 18.7599 137.869 18.5312 137.67 18.233C137.471 17.9318 137.371 17.5682 137.371 17.142C137.371 16.767 137.445 16.4631 137.593 16.2301C137.741 15.9943 137.938 15.8097 138.185 15.6761C138.433 15.5426 138.705 15.4432 139.004 15.3778C139.305 15.3097 139.607 15.2557 139.911 15.2159C140.309 15.1648 140.631 15.1264 140.879 15.1009C141.129 15.0724 141.31 15.0256 141.424 14.9602C141.54 14.8949 141.599 14.7812 141.599 14.6193V14.5852C141.599 14.1648 141.484 13.8381 141.254 13.6051C141.026 13.3722 140.681 13.2557 140.218 13.2557C139.738 13.2557 139.362 13.3608 139.089 13.571C138.816 13.7812 138.624 14.0057 138.513 14.2443L137.559 13.9034C137.729 13.5057 137.957 13.196 138.241 12.9744C138.528 12.75 138.84 12.5937 139.178 12.5057C139.519 12.4148 139.854 12.3693 140.184 12.3693C140.394 12.3693 140.636 12.3949 140.908 12.446C141.184 12.4943 141.45 12.5952 141.705 12.7486C141.964 12.902 142.178 13.1335 142.349 13.4432C142.519 13.7528 142.604 14.1676 142.604 14.6875V19H141.599V18.1136H141.548C141.479 18.2557 141.366 18.4077 141.207 18.5696C141.048 18.7315 140.836 18.8693 140.572 18.983C140.308 19.0966 139.985 19.1534 139.604 19.1534ZM139.758 18.25C140.156 18.25 140.491 18.1719 140.763 18.0156C141.039 17.8594 141.246 17.6577 141.386 17.4105C141.528 17.1634 141.599 16.9034 141.599 16.6307V15.7102C141.556 15.7614 141.462 15.8082 141.317 15.8509C141.175 15.8906 141.011 15.9261 140.823 15.9574C140.638 15.9858 140.458 16.0114 140.282 16.0341C140.109 16.054 139.968 16.071 139.86 16.0852C139.599 16.1193 139.354 16.1747 139.127 16.2514C138.903 16.3253 138.721 16.4375 138.582 16.5881C138.445 16.7358 138.377 16.9375 138.377 17.1932C138.377 17.5426 138.506 17.8068 138.765 17.9858C139.026 18.1619 139.357 18.25 139.758 18.25ZM145.446 10.2727V19H144.44V10.2727H145.446ZM151.924 13.9205L151.021 14.1761C150.964 14.0256 150.88 13.8793 150.769 13.7372C150.661 13.5923 150.513 13.473 150.326 13.3793C150.138 13.2855 149.898 13.2386 149.606 13.2386C149.205 13.2386 148.871 13.331 148.604 13.5156C148.34 13.6974 148.208 13.929 148.208 14.2102C148.208 14.4602 148.299 14.6577 148.481 14.8026C148.663 14.9474 148.947 15.0682 149.333 15.1648L150.305 15.4034C150.89 15.5455 151.326 15.7628 151.613 16.0554C151.9 16.3452 152.043 16.7187 152.043 17.1761C152.043 17.5511 151.935 17.8864 151.719 18.1818C151.506 18.4773 151.208 18.7102 150.825 18.8807C150.441 19.0511 149.995 19.1364 149.487 19.1364C148.819 19.1364 148.266 18.9915 147.829 18.7017C147.391 18.4119 147.114 17.9886 146.998 17.4318L147.952 17.1932C148.043 17.5455 148.215 17.8097 148.468 17.9858C148.724 18.1619 149.058 18.25 149.469 18.25C149.938 18.25 150.31 18.1506 150.586 17.9517C150.864 17.75 151.004 17.5085 151.004 17.2273C151.004 17 150.924 16.8097 150.765 16.6562C150.606 16.5 150.362 16.3835 150.032 16.3068L148.941 16.0511C148.342 15.9091 147.901 15.6889 147.62 15.3906C147.342 15.0895 147.202 14.7131 147.202 14.2614C147.202 13.892 147.306 13.5653 147.513 13.2812C147.724 12.9972 148.009 12.7741 148.37 12.6122C148.734 12.4503 149.146 12.3693 149.606 12.3693C150.254 12.3693 150.762 12.5114 151.131 12.7955C151.504 13.0795 151.768 13.4545 151.924 13.9205ZM155.057 17.8068L154.989 18.267C154.941 18.5909 154.867 18.9375 154.767 19.3068C154.671 19.6761 154.57 20.0241 154.465 20.3509C154.36 20.6776 154.273 20.9375 154.205 21.1307H153.438C153.475 20.9489 153.523 20.7088 153.583 20.4105C153.642 20.1122 153.702 19.7784 153.762 19.4091C153.824 19.0426 153.875 18.6676 153.915 18.2841L153.966 17.8068H155.057ZM160.432 19V10.2727H161.438V13.4943H161.523C161.597 13.3807 161.699 13.2358 161.83 13.0597C161.963 12.8807 162.153 12.7216 162.401 12.5824C162.651 12.4403 162.989 12.3693 163.415 12.3693C163.966 12.3693 164.452 12.5071 164.872 12.7827C165.293 13.0582 165.621 13.4489 165.857 13.9545C166.092 14.4602 166.21 15.0568 166.21 15.7443C166.21 16.4375 166.092 17.0384 165.857 17.5469C165.621 18.0526 165.294 18.4446 164.876 18.723C164.459 18.9986 163.977 19.1364 163.432 19.1364C163.011 19.1364 162.675 19.0668 162.422 18.9276C162.169 18.7855 161.974 18.625 161.838 18.446C161.702 18.2642 161.597 18.1136 161.523 17.9943H161.403V19H160.432ZM161.42 15.7273C161.42 16.2216 161.493 16.6577 161.638 17.0355C161.783 17.4105 161.994 17.7045 162.273 17.9176C162.551 18.1278 162.892 18.233 163.295 18.233C163.716 18.233 164.067 18.1222 164.348 17.9006C164.632 17.6761 164.845 17.375 164.987 16.9972C165.132 16.6165 165.205 16.1932 165.205 15.7273C165.205 15.267 165.134 14.8523 164.991 14.483C164.852 14.1108 164.641 13.8168 164.357 13.6009C164.075 13.3821 163.722 13.2727 163.295 13.2727C162.886 13.2727 162.543 13.3764 162.264 13.5838C161.986 13.7884 161.776 14.0753 161.634 14.4446C161.491 14.8111 161.42 15.2386 161.42 15.7273ZM171.874 16.3239V12.4545H172.879V19H171.874V17.892H171.805C171.652 18.2244 171.413 18.5071 171.089 18.7401C170.766 18.9702 170.357 19.0852 169.862 19.0852C169.453 19.0852 169.089 18.9957 168.771 18.8168C168.453 18.6349 168.203 18.3622 168.021 17.9986C167.839 17.6321 167.749 17.1705 167.749 16.6136V12.4545H168.754V16.5455C168.754 17.0227 168.888 17.4034 169.155 17.6875C169.425 17.9716 169.768 18.1136 170.186 18.1136C170.436 18.1136 170.69 18.0497 170.949 17.9219C171.21 17.794 171.429 17.598 171.605 17.3338C171.784 17.0696 171.874 16.733 171.874 16.3239ZM175.727 10.2727V19H174.721V10.2727H175.727ZM178.506 16.6136L178.489 15.3693H178.694L181.558 12.4545H182.802L179.751 15.5398H179.665L178.506 16.6136ZM177.569 19V10.2727H178.575V19H177.569ZM181.728 19L179.171 15.7614L179.887 15.0625L183.006 19H181.728ZM192.108 13.9205L191.204 14.1761C191.147 14.0256 191.064 13.8793 190.953 13.7372C190.845 13.5923 190.697 13.473 190.51 13.3793C190.322 13.2855 190.082 13.2386 189.789 13.2386C189.389 13.2386 189.055 13.331 188.788 13.5156C188.524 13.6974 188.392 13.929 188.392 14.2102C188.392 14.4602 188.483 14.6577 188.664 14.8026C188.846 14.9474 189.13 15.0682 189.517 15.1648L190.488 15.4034C191.074 15.5455 191.51 15.7628 191.797 16.0554C192.083 16.3452 192.227 16.7187 192.227 17.1761C192.227 17.5511 192.119 17.8864 191.903 18.1818C191.69 18.4773 191.392 18.7102 191.008 18.8807C190.625 19.0511 190.179 19.1364 189.67 19.1364C189.002 19.1364 188.45 18.9915 188.012 18.7017C187.575 18.4119 187.298 17.9886 187.181 17.4318L188.136 17.1932C188.227 17.5455 188.399 17.8097 188.652 17.9858C188.907 18.1619 189.241 18.25 189.653 18.25C190.122 18.25 190.494 18.1506 190.77 17.9517C191.048 17.75 191.187 17.5085 191.187 17.2273C191.187 17 191.108 16.8097 190.949 16.6562C190.789 16.5 190.545 16.3835 190.216 16.3068L189.125 16.0511C188.525 15.9091 188.085 15.6889 187.804 15.3906C187.525 15.0895 187.386 14.7131 187.386 14.2614C187.386 13.892 187.49 13.5653 187.697 13.2812C187.907 12.9972 188.193 12.7741 188.554 12.6122C188.917 12.4503 189.329 12.3693 189.789 12.3693C190.437 12.3693 190.946 12.5114 191.315 12.7955C191.687 13.0795 191.951 13.4545 192.108 13.9205ZM196.587 12.4545V13.3068H193.195V12.4545H196.587ZM194.184 10.8864H195.19V17.125C195.19 17.4091 195.231 17.6222 195.313 17.7642C195.398 17.9034 195.506 17.9972 195.637 18.0455C195.771 18.0909 195.911 18.1136 196.059 18.1136C196.17 18.1136 196.261 18.108 196.332 18.0966C196.403 18.0824 196.46 18.071 196.502 18.0625L196.707 18.9659C196.638 18.9915 196.543 19.017 196.421 19.0426C196.299 19.071 196.144 19.0852 195.957 19.0852C195.673 19.0852 195.394 19.0241 195.121 18.902C194.852 18.7798 194.627 18.5938 194.448 18.3438C194.272 18.0938 194.184 17.7784 194.184 17.3977V10.8864ZM200.689 19.1364C200.098 19.1364 199.58 18.9957 199.134 18.7145C198.69 18.4332 198.344 18.0398 198.094 17.5341C197.847 17.0284 197.723 16.4375 197.723 15.7614C197.723 15.0795 197.847 14.4844 198.094 13.9759C198.344 13.4673 198.69 13.0724 199.134 12.7912C199.58 12.5099 200.098 12.3693 200.689 12.3693C201.28 12.3693 201.797 12.5099 202.24 12.7912C202.686 13.0724 203.033 13.4673 203.28 13.9759C203.53 14.4844 203.655 15.0795 203.655 15.7614C203.655 16.4375 203.53 17.0284 203.28 17.5341C203.033 18.0398 202.686 18.4332 202.24 18.7145C201.797 18.9957 201.28 19.1364 200.689 19.1364ZM200.689 18.233C201.138 18.233 201.507 18.1179 201.797 17.8878C202.087 17.6577 202.301 17.3551 202.44 16.9801C202.58 16.6051 202.649 16.1989 202.649 15.7614C202.649 15.3239 202.58 14.9162 202.44 14.5384C202.301 14.1605 202.087 13.8551 201.797 13.6222C201.507 13.3892 201.138 13.2727 200.689 13.2727C200.24 13.2727 199.871 13.3892 199.581 13.6222C199.291 13.8551 199.077 14.1605 198.938 14.5384C198.798 14.9162 198.729 15.3239 198.729 15.7614C198.729 16.1989 198.798 16.6051 198.938 16.9801C199.077 17.3551 199.291 17.6577 199.581 17.8878C199.871 18.1179 200.24 18.233 200.689 18.233ZM205.19 19V12.4545H206.162V13.4432H206.23C206.349 13.1193 206.565 12.8565 206.877 12.6548C207.19 12.4531 207.542 12.3523 207.934 12.3523C208.008 12.3523 208.1 12.3537 208.211 12.3565C208.322 12.3594 208.406 12.3636 208.463 12.3693V13.392C208.429 13.3835 208.35 13.3707 208.228 13.3537C208.109 13.3338 207.983 13.3239 207.849 13.3239C207.531 13.3239 207.247 13.3906 206.997 13.5241C206.75 13.6548 206.554 13.8366 206.409 14.0696C206.267 14.2997 206.196 14.5625 206.196 14.858V19H205.19ZM211.581 19.1534C211.166 19.1534 210.79 19.0753 210.452 18.919C210.114 18.7599 209.845 18.5312 209.646 18.233C209.447 17.9318 209.348 17.5682 209.348 17.142C209.348 16.767 209.422 16.4631 209.57 16.2301C209.717 15.9943 209.915 15.8097 210.162 15.6761C210.409 15.5426 210.682 15.4432 210.98 15.3778C211.281 15.3097 211.584 15.2557 211.888 15.2159C212.286 15.1648 212.608 15.1264 212.855 15.1009C213.105 15.0724 213.287 15.0256 213.401 14.9602C213.517 14.8949 213.575 14.7812 213.575 14.6193V14.5852C213.575 14.1648 213.46 13.8381 213.23 13.6051C213.003 13.3722 212.658 13.2557 212.195 13.2557C211.714 13.2557 211.338 13.3608 211.065 13.571C210.793 13.7812 210.601 14.0057 210.49 14.2443L209.536 13.9034C209.706 13.5057 209.933 13.196 210.217 12.9744C210.504 12.75 210.817 12.5937 211.155 12.5057C211.496 12.4148 211.831 12.3693 212.161 12.3693C212.371 12.3693 212.612 12.3949 212.885 12.446C213.161 12.4943 213.426 12.5952 213.682 12.7486C213.94 12.902 214.155 13.1335 214.325 13.4432C214.496 13.7528 214.581 14.1676 214.581 14.6875V19H213.575V18.1136H213.524C213.456 18.2557 213.342 18.4077 213.183 18.5696C213.024 18.7315 212.813 18.8693 212.548 18.983C212.284 19.0966 211.962 19.1534 211.581 19.1534ZM211.734 18.25C212.132 18.25 212.467 18.1719 212.74 18.0156C213.016 17.8594 213.223 17.6577 213.362 17.4105C213.504 17.1634 213.575 16.9034 213.575 16.6307V15.7102C213.533 15.7614 213.439 15.8082 213.294 15.8509C213.152 15.8906 212.987 15.9261 212.8 15.9574C212.615 15.9858 212.435 16.0114 212.259 16.0341C212.085 16.054 211.945 16.071 211.837 16.0852C211.575 16.1193 211.331 16.1747 211.104 16.2514C210.879 16.3253 210.697 16.4375 210.558 16.5881C210.422 16.7358 210.354 16.9375 210.354 17.1932C210.354 17.5426 210.483 17.8068 210.741 17.9858C211.003 18.1619 211.334 18.25 211.734 18.25ZM219.059 21.5909C218.573 21.5909 218.155 21.5284 217.806 21.4034C217.456 21.2812 217.165 21.1193 216.932 20.9176C216.702 20.7188 216.519 20.5057 216.382 20.2784L217.184 19.7159C217.275 19.8352 217.39 19.9716 217.529 20.125C217.668 20.2812 217.858 20.4162 218.1 20.5298C218.344 20.6463 218.664 20.7045 219.059 20.7045C219.587 20.7045 220.023 20.5767 220.367 20.321C220.711 20.0653 220.882 19.6648 220.882 19.1193V17.7898H220.797C220.723 17.9091 220.618 18.0568 220.482 18.233C220.348 18.4062 220.155 18.5611 219.902 18.6974C219.652 18.831 219.314 18.8977 218.888 18.8977C218.36 18.8977 217.885 18.7727 217.465 18.5227C217.047 18.2727 216.716 17.9091 216.472 17.4318C216.23 16.9545 216.11 16.375 216.11 15.6932C216.11 15.0227 216.228 14.4389 216.463 13.9418C216.699 13.4418 217.027 13.0554 217.448 12.7827C217.868 12.5071 218.354 12.3693 218.905 12.3693C219.331 12.3693 219.669 12.4403 219.919 12.5824C220.172 12.7216 220.365 12.8807 220.499 13.0597C220.635 13.2358 220.74 13.3807 220.814 13.4943H220.917V12.4545H221.888V19.1875C221.888 19.75 221.76 20.2074 221.505 20.5597C221.252 20.9148 220.911 21.1747 220.482 21.3395C220.056 21.5071 219.581 21.5909 219.059 21.5909ZM219.025 17.9943C219.428 17.9943 219.769 17.902 220.047 17.7173C220.326 17.5327 220.537 17.267 220.682 16.9205C220.827 16.5739 220.9 16.1591 220.9 15.6761C220.9 15.2045 220.828 14.7884 220.686 14.4276C220.544 14.0668 220.334 13.7841 220.056 13.5795C219.777 13.375 219.434 13.2727 219.025 13.2727C218.598 13.2727 218.243 13.3807 217.959 13.5966C217.678 13.8125 217.466 14.1023 217.324 14.4659C217.185 14.8295 217.115 15.233 217.115 15.6761C217.115 16.1307 217.186 16.5327 217.328 16.8821C217.473 17.2287 217.686 17.5014 217.968 17.7003C218.252 17.8963 218.604 17.9943 219.025 17.9943ZM226.473 19.1364C225.843 19.1364 225.299 18.9972 224.841 18.7188C224.387 18.4375 224.036 18.0455 223.789 17.5426C223.544 17.0369 223.422 16.4489 223.422 15.7784C223.422 15.108 223.544 14.517 223.789 14.0057C224.036 13.4915 224.38 13.0909 224.82 12.804C225.263 12.5142 225.78 12.3693 226.371 12.3693C226.712 12.3693 227.049 12.4261 227.381 12.5398C227.713 12.6534 228.016 12.8381 228.289 13.0938C228.561 13.3466 228.779 13.6818 228.941 14.0994C229.103 14.517 229.184 15.0312 229.184 15.642V16.0682H224.138V15.1989H228.161C228.161 14.8295 228.087 14.5 227.939 14.2102C227.794 13.9205 227.587 13.6918 227.317 13.5241C227.05 13.3565 226.735 13.2727 226.371 13.2727C225.971 13.2727 225.624 13.3722 225.331 13.571C225.042 13.767 224.819 14.0227 224.662 14.3381C224.506 14.6534 224.428 14.9915 224.428 15.3523V15.9318C224.428 16.4261 224.513 16.8452 224.684 17.1889C224.857 17.5298 225.097 17.7898 225.404 17.9688C225.711 18.1449 226.067 18.233 226.473 18.233C226.738 18.233 226.976 18.196 227.189 18.1222C227.405 18.0455 227.591 17.9318 227.748 17.7812C227.904 17.6278 228.025 17.4375 228.11 17.2102L229.081 17.483C228.979 17.8125 228.807 18.1023 228.566 18.3523C228.324 18.5994 228.026 18.7926 227.671 18.9318C227.316 19.0682 226.917 19.1364 226.473 19.1364ZM236.56 19.1193C235.986 19.1193 235.492 19.0142 235.077 18.804C234.662 18.5937 234.343 18.3054 234.118 17.9389C233.894 17.5724 233.782 17.1534 233.782 16.6818C233.782 16.3182 233.858 15.9957 234.012 15.7145C234.168 15.4304 234.382 15.1676 234.655 14.9261C234.931 14.6818 235.248 14.4375 235.605 14.1932L236.867 13.2557C237.114 13.0937 237.311 12.9205 237.459 12.7358C237.61 12.5511 237.685 12.3097 237.685 12.0114C237.685 11.7898 237.587 11.5753 237.391 11.3679C237.198 11.1605 236.944 11.0568 236.628 11.0568C236.407 11.0568 236.211 11.1136 236.04 11.2273C235.873 11.3381 235.74 11.4801 235.644 11.6534C235.55 11.8239 235.503 12 235.503 12.1818C235.503 12.3864 235.559 12.5938 235.669 12.804C235.783 13.0114 235.926 13.2244 236.1 13.4432C236.276 13.6591 236.458 13.8807 236.645 14.108L240.651 19H239.441L236.134 15.0114C235.827 14.642 235.549 14.3068 235.299 14.0057C235.049 13.7045 234.85 13.4077 234.702 13.1151C234.554 12.8224 234.48 12.5057 234.48 12.1648C234.48 11.7727 234.567 11.429 234.74 11.1335C234.917 10.8352 235.162 10.6037 235.478 10.4389C235.796 10.2713 236.168 10.1875 236.594 10.1875C237.032 10.1875 237.408 10.2727 237.723 10.4432C238.039 10.6108 238.282 10.8338 238.452 11.1122C238.623 11.3878 238.708 11.6875 238.708 12.0114C238.708 12.429 238.604 12.7912 238.397 13.098C238.189 13.4048 237.907 13.6903 237.549 13.9545L235.81 15.25C235.418 15.5398 235.152 15.821 235.013 16.0938C234.874 16.3665 234.804 16.5625 234.804 16.6818C234.804 16.9545 234.875 17.2088 235.017 17.4446C235.159 17.6804 235.36 17.8707 235.618 18.0156C235.877 18.1605 236.179 18.233 236.526 18.233C236.855 18.233 237.176 18.1634 237.489 18.0241C237.801 17.8821 238.084 17.6776 238.337 17.4105C238.593 17.1435 238.794 16.8224 238.942 16.4474C239.093 16.0724 239.168 15.6506 239.168 15.1818H240.14C240.14 15.7614 240.073 16.2344 239.939 16.6009C239.806 16.9673 239.655 17.2543 239.488 17.4616C239.32 17.669 239.185 17.8239 239.083 17.9261C239.049 17.9687 239.017 18.0114 238.989 18.054C238.961 18.0966 238.929 18.1392 238.895 18.1818C238.614 18.4972 238.259 18.733 237.83 18.8892C237.401 19.0426 236.978 19.1193 236.56 19.1193ZM248.054 12.4545V13.3068H244.526V12.4545H248.054ZM245.582 19V11.5511C245.582 11.1761 245.67 10.8636 245.847 10.6136C246.023 10.3636 246.251 10.1761 246.533 10.0511C246.814 9.92614 247.111 9.86364 247.423 9.86364C247.67 9.86364 247.872 9.88352 248.028 9.9233C248.185 9.96307 248.301 10 248.378 10.0341L248.088 10.9034C248.037 10.8864 247.966 10.8651 247.875 10.8395C247.787 10.8139 247.67 10.8011 247.526 10.8011C247.193 10.8011 246.953 10.8849 246.805 11.0526C246.661 11.2202 246.588 11.4659 246.588 11.7898V19H245.582ZM251.853 19.1364C251.262 19.1364 250.744 18.9957 250.298 18.7145C249.854 18.4332 249.508 18.0398 249.258 17.5341C249.011 17.0284 248.887 16.4375 248.887 15.7614C248.887 15.0795 249.011 14.4844 249.258 13.9759C249.508 13.4673 249.854 13.0724 250.298 12.7912C250.744 12.5099 251.262 12.3693 251.853 12.3693C252.444 12.3693 252.961 12.5099 253.404 12.7912C253.85 13.0724 254.197 13.4673 254.444 13.9759C254.694 14.4844 254.819 15.0795 254.819 15.7614C254.819 16.4375 254.694 17.0284 254.444 17.5341C254.197 18.0398 253.85 18.4332 253.404 18.7145C252.961 18.9957 252.444 19.1364 251.853 19.1364ZM251.853 18.233C252.302 18.233 252.671 18.1179 252.961 17.8878C253.251 17.6577 253.465 17.3551 253.604 16.9801C253.744 16.6051 253.813 16.1989 253.813 15.7614C253.813 15.3239 253.744 14.9162 253.604 14.5384C253.465 14.1605 253.251 13.8551 252.961 13.6222C252.671 13.3892 252.302 13.2727 251.853 13.2727C251.404 13.2727 251.035 13.3892 250.745 13.6222C250.455 13.8551 250.241 14.1605 250.102 14.5384C249.962 14.9162 249.893 15.3239 249.893 15.7614C249.893 16.1989 249.962 16.6051 250.102 16.9801C250.241 17.3551 250.455 17.6577 250.745 17.8878C251.035 18.1179 251.404 18.233 251.853 18.233ZM259.013 19.1364C258.422 19.1364 257.904 18.9957 257.458 18.7145C257.015 18.4332 256.668 18.0398 256.418 17.5341C256.171 17.0284 256.047 16.4375 256.047 15.7614C256.047 15.0795 256.171 14.4844 256.418 13.9759C256.668 13.4673 257.015 13.0724 257.458 12.7912C257.904 12.5099 258.422 12.3693 259.013 12.3693C259.604 12.3693 260.121 12.5099 260.564 12.7912C261.01 13.0724 261.357 13.4673 261.604 13.9759C261.854 14.4844 261.979 15.0795 261.979 15.7614C261.979 16.4375 261.854 17.0284 261.604 17.5341C261.357 18.0398 261.01 18.4332 260.564 18.7145C260.121 18.9957 259.604 19.1364 259.013 19.1364ZM259.013 18.233C259.462 18.233 259.831 18.1179 260.121 17.8878C260.411 17.6577 260.625 17.3551 260.765 16.9801C260.904 16.6051 260.973 16.1989 260.973 15.7614C260.973 15.3239 260.904 14.9162 260.765 14.5384C260.625 14.1605 260.411 13.8551 260.121 13.6222C259.831 13.3892 259.462 13.2727 259.013 13.2727C258.564 13.2727 258.195 13.3892 257.905 13.6222C257.615 13.8551 257.401 14.1605 257.262 14.5384C257.123 14.9162 257.053 15.3239 257.053 15.7614C257.053 16.1989 257.123 16.6051 257.262 16.9801C257.401 17.3551 257.615 17.6577 257.905 17.8878C258.195 18.1179 258.564 18.233 259.013 18.233ZM265.986 19.1364C265.44 19.1364 264.959 18.9986 264.541 18.723C264.124 18.4446 263.797 18.0526 263.561 17.5469C263.325 17.0384 263.207 16.4375 263.207 15.7443C263.207 15.0568 263.325 14.4602 263.561 13.9545C263.797 13.4489 264.125 13.0582 264.545 12.7827C264.966 12.5071 265.452 12.3693 266.003 12.3693C266.429 12.3693 266.766 12.4403 267.013 12.5824C267.263 12.7216 267.453 12.8807 267.584 13.0597C267.717 13.2358 267.821 13.3807 267.895 13.4943H267.98V10.2727H268.986V19H268.014V17.9943H267.895C267.821 18.1136 267.716 18.2642 267.58 18.446C267.443 18.625 267.249 18.7855 266.996 18.9276C266.743 19.0668 266.406 19.1364 265.986 19.1364ZM266.122 18.233C266.526 18.233 266.866 18.1278 267.145 17.9176C267.423 17.7045 267.635 17.4105 267.78 17.0355C267.925 16.6577 267.997 16.2216 267.997 15.7273C267.997 15.2386 267.926 14.8111 267.784 14.4446C267.642 14.0753 267.432 13.7884 267.153 13.5838C266.875 13.3764 266.531 13.2727 266.122 13.2727C265.696 13.2727 265.341 13.3821 265.057 13.6009C264.776 13.8168 264.564 14.1108 264.422 14.483C264.283 14.8523 264.213 15.267 264.213 15.7273C264.213 16.1932 264.284 16.6165 264.426 16.9972C264.571 17.375 264.784 17.6761 265.065 17.9006C265.349 18.1222 265.702 18.233 266.122 18.233ZM276.814 19.1364C276.268 19.1364 275.787 18.9986 275.369 18.723C274.952 18.4446 274.625 18.0526 274.389 17.5469C274.153 17.0384 274.036 16.4375 274.036 15.7443C274.036 15.0568 274.153 14.4602 274.389 13.9545C274.625 13.4489 274.953 13.0582 275.374 12.7827C275.794 12.5071 276.28 12.3693 276.831 12.3693C277.257 12.3693 277.594 12.4403 277.841 12.5824C278.091 12.7216 278.281 12.8807 278.412 13.0597C278.545 13.2358 278.649 13.3807 278.723 13.4943H278.808V10.2727H279.814V19H278.842V17.9943H278.723C278.649 18.1136 278.544 18.2642 278.408 18.446C278.271 18.625 278.077 18.7855 277.824 18.9276C277.571 19.0668 277.234 19.1364 276.814 19.1364ZM276.95 18.233C277.354 18.233 277.695 18.1278 277.973 17.9176C278.251 17.7045 278.463 17.4105 278.608 17.0355C278.753 16.6577 278.825 16.2216 278.825 15.7273C278.825 15.2386 278.754 14.8111 278.612 14.4446C278.47 14.0753 278.26 13.7884 277.982 13.5838C277.703 13.3764 277.359 13.2727 276.95 13.2727C276.524 13.2727 276.169 13.3821 275.885 13.6009C275.604 13.8168 275.392 14.1108 275.25 14.483C275.111 14.8523 275.041 15.267 275.041 15.7273C275.041 16.1932 275.112 16.6165 275.254 16.9972C275.399 17.375 275.612 17.6761 275.893 17.9006C276.178 18.1222 276.53 18.233 276.95 18.233ZM284.54 19.1364C283.909 19.1364 283.365 18.9972 282.908 18.7188C282.453 18.4375 282.102 18.0455 281.855 17.5426C281.611 17.0369 281.489 16.4489 281.489 15.7784C281.489 15.108 281.611 14.517 281.855 14.0057C282.102 13.4915 282.446 13.0909 282.886 12.804C283.33 12.5142 283.847 12.3693 284.438 12.3693C284.778 12.3693 285.115 12.4261 285.447 12.5398C285.78 12.6534 286.082 12.8381 286.355 13.0938C286.628 13.3466 286.845 13.6818 287.007 14.0994C287.169 14.517 287.25 15.0312 287.25 15.642V16.0682H282.205V15.1989H286.227C286.227 14.8295 286.153 14.5 286.006 14.2102C285.861 13.9205 285.653 13.6918 285.384 13.5241C285.116 13.3565 284.801 13.2727 284.438 13.2727C284.037 13.2727 283.69 13.3722 283.398 13.571C283.108 13.767 282.885 14.0227 282.729 14.3381C282.572 14.6534 282.494 14.9915 282.494 15.3523V15.9318C282.494 16.4261 282.58 16.8452 282.75 17.1889C282.923 17.5298 283.163 17.7898 283.47 17.9688C283.777 18.1449 284.134 18.233 284.54 18.233C284.804 18.233 285.043 18.196 285.256 18.1222C285.472 18.0455 285.658 17.9318 285.814 17.7812C285.97 17.6278 286.091 17.4375 286.176 17.2102L287.148 17.483C287.045 17.8125 286.874 18.1023 286.632 18.3523C286.391 18.5994 286.092 18.7926 285.737 18.9318C285.382 19.0682 284.983 19.1364 284.54 19.1364ZM289.786 10.2727V19H288.78V10.2727H289.786ZM291.627 19V12.4545H292.633V19H291.627ZM292.139 11.3636C291.943 11.3636 291.774 11.2969 291.632 11.1634C291.493 11.0298 291.423 10.8693 291.423 10.6818C291.423 10.4943 291.493 10.3338 291.632 10.2003C291.774 10.0668 291.943 10 292.139 10C292.335 10 292.502 10.0668 292.642 10.2003C292.784 10.3338 292.855 10.4943 292.855 10.6818C292.855 10.8693 292.784 11.0298 292.642 11.1634C292.502 11.2969 292.335 11.3636 292.139 11.3636ZM299.827 12.4545L297.407 19H296.384L293.964 12.4545H295.055L296.862 17.6705H296.93L298.737 12.4545H299.827ZM303.665 19.1364C303.034 19.1364 302.49 18.9972 302.033 18.7188C301.578 18.4375 301.227 18.0455 300.98 17.5426C300.736 17.0369 300.614 16.4489 300.614 15.7784C300.614 15.108 300.736 14.517 300.98 14.0057C301.227 13.4915 301.571 13.0909 302.011 12.804C302.455 12.5142 302.972 12.3693 303.562 12.3693C303.903 12.3693 304.24 12.4261 304.572 12.5398C304.905 12.6534 305.207 12.8381 305.48 13.0938C305.753 13.3466 305.97 13.6818 306.132 14.0994C306.294 14.517 306.375 15.0312 306.375 15.642V16.0682H301.33V15.1989H305.352C305.352 14.8295 305.278 14.5 305.131 14.2102C304.986 13.9205 304.778 13.6918 304.509 13.5241C304.241 13.3565 303.926 13.2727 303.562 13.2727C303.162 13.2727 302.815 13.3722 302.523 13.571C302.233 13.767 302.01 14.0227 301.854 14.3381C301.697 14.6534 301.619 14.9915 301.619 15.3523V15.9318C301.619 16.4261 301.705 16.8452 301.875 17.1889C302.048 17.5298 302.288 17.7898 302.595 17.9688C302.902 18.1449 303.259 18.233 303.665 18.233C303.929 18.233 304.168 18.196 304.381 18.1222C304.597 18.0455 304.783 17.9318 304.939 17.7812C305.095 17.6278 305.216 17.4375 305.301 17.2102L306.273 17.483C306.17 17.8125 305.999 18.1023 305.757 18.3523C305.516 18.5994 305.217 18.7926 304.862 18.9318C304.507 19.0682 304.108 19.1364 303.665 19.1364ZM307.905 19V12.4545H308.876V13.4432H308.945C309.064 13.1193 309.28 12.8565 309.592 12.6548C309.905 12.4531 310.257 12.3523 310.649 12.3523C310.723 12.3523 310.815 12.3537 310.926 12.3565C311.037 12.3594 311.121 12.3636 311.178 12.3693V13.392C311.143 13.3835 311.065 13.3707 310.943 13.3537C310.824 13.3338 310.697 13.3239 310.564 13.3239C310.246 13.3239 309.962 13.3906 309.712 13.5241C309.464 13.6548 309.268 13.8366 309.124 14.0696C308.982 14.2997 308.911 14.5625 308.911 14.858V19H307.905ZM313.217 21.4545C313.046 21.4545 312.894 21.4403 312.761 21.4119C312.627 21.3864 312.535 21.3608 312.484 21.3352L312.739 20.4489C312.984 20.5114 313.2 20.5341 313.387 20.517C313.575 20.5 313.741 20.4162 313.886 20.2656C314.033 20.1179 314.168 19.8778 314.29 19.5455L314.478 19.0341L312.058 12.4545H313.148L314.955 17.6705H315.023L316.83 12.4545H317.921L315.143 19.9545C315.018 20.2926 314.863 20.5724 314.678 20.794C314.494 21.0185 314.279 21.1847 314.035 21.2926C313.793 21.4006 313.521 21.4545 313.217 21.4545ZM319.571 19.0682C319.361 19.0682 319.181 18.9929 319.03 18.8423C318.88 18.6918 318.804 18.5114 318.804 18.3011C318.804 18.0909 318.88 17.9105 319.03 17.7599C319.181 17.6094 319.361 17.5341 319.571 17.5341C319.782 17.5341 319.962 17.6094 320.113 17.7599C320.263 17.9105 320.338 18.0909 320.338 18.3011C320.338 18.4403 320.303 18.5682 320.232 18.6847C320.164 18.8011 320.071 18.8949 319.955 18.9659C319.841 19.0341 319.713 19.0682 319.571 19.0682ZM325.654 19V10.2727H326.711V18.0625H330.768V19H325.654ZM334.194 19.1534C333.779 19.1534 333.403 19.0753 333.065 18.919C332.727 18.7599 332.458 18.5312 332.26 18.233C332.061 17.9318 331.961 17.5682 331.961 17.142C331.961 16.767 332.035 16.4631 332.183 16.2301C332.331 15.9943 332.528 15.8097 332.775 15.6761C333.022 15.5426 333.295 15.4432 333.593 15.3778C333.895 15.3097 334.197 15.2557 334.501 15.2159C334.899 15.1648 335.221 15.1264 335.468 15.1009C335.718 15.0724 335.9 15.0256 336.014 14.9602C336.13 14.8949 336.189 14.7812 336.189 14.6193V14.5852C336.189 14.1648 336.074 13.8381 335.843 13.6051C335.616 13.3722 335.271 13.2557 334.808 13.2557C334.328 13.2557 333.951 13.3608 333.679 13.571C333.406 13.7812 333.214 14.0057 333.103 14.2443L332.149 13.9034C332.319 13.5057 332.547 13.196 332.831 12.9744C333.118 12.75 333.43 12.5937 333.768 12.5057C334.109 12.4148 334.444 12.3693 334.774 12.3693C334.984 12.3693 335.225 12.3949 335.498 12.446C335.774 12.4943 336.039 12.5952 336.295 12.7486C336.554 12.902 336.768 13.1335 336.939 13.4432C337.109 13.7528 337.194 14.1676 337.194 14.6875V19H336.189V18.1136H336.137C336.069 18.2557 335.956 18.4077 335.797 18.5696C335.637 18.7315 335.426 18.8693 335.162 18.983C334.897 19.0966 334.575 19.1534 334.194 19.1534ZM334.348 18.25C334.745 18.25 335.081 18.1719 335.353 18.0156C335.629 17.8594 335.836 17.6577 335.975 17.4105C336.118 17.1634 336.189 16.9034 336.189 16.6307V15.7102C336.146 15.7614 336.052 15.8082 335.907 15.8509C335.765 15.8906 335.6 15.9261 335.413 15.9574C335.228 15.9858 335.048 16.0114 334.872 16.0341C334.699 16.054 334.558 16.071 334.45 16.0852C334.189 16.1193 333.944 16.1747 333.717 16.2514C333.493 16.3253 333.311 16.4375 333.172 16.5881C333.035 16.7358 332.967 16.9375 332.967 17.1932C332.967 17.5426 333.096 17.8068 333.355 17.9858C333.616 18.1619 333.947 18.25 334.348 18.25ZM339.03 19V12.4545H340.001V13.4432H340.07C340.189 13.1193 340.405 12.8565 340.717 12.6548C341.03 12.4531 341.382 12.3523 341.774 12.3523C341.848 12.3523 341.94 12.3537 342.051 12.3565C342.162 12.3594 342.246 12.3636 342.303 12.3693V13.392C342.268 13.3835 342.19 13.3707 342.068 13.3537C341.949 13.3338 341.822 13.3239 341.689 13.3239C341.371 13.3239 341.087 13.3906 340.837 13.5241C340.589 13.6548 340.393 13.8366 340.249 14.0696C340.107 14.2997 340.036 14.5625 340.036 14.858V19H339.03ZM345.938 21.5909C345.452 21.5909 345.034 21.5284 344.685 21.4034C344.335 21.2812 344.044 21.1193 343.811 20.9176C343.581 20.7188 343.398 20.5057 343.261 20.2784L344.062 19.7159C344.153 19.8352 344.268 19.9716 344.408 20.125C344.547 20.2812 344.737 20.4162 344.979 20.5298C345.223 20.6463 345.543 20.7045 345.938 20.7045C346.466 20.7045 346.902 20.5767 347.246 20.321C347.589 20.0653 347.761 19.6648 347.761 19.1193V17.7898H347.676C347.602 17.9091 347.497 18.0568 347.361 18.233C347.227 18.4062 347.034 18.5611 346.781 18.6974C346.531 18.831 346.193 18.8977 345.767 18.8977C345.239 18.8977 344.764 18.7727 344.344 18.5227C343.926 18.2727 343.595 17.9091 343.351 17.4318C343.109 16.9545 342.989 16.375 342.989 15.6932C342.989 15.0227 343.107 14.4389 343.342 13.9418C343.578 13.4418 343.906 13.0554 344.327 12.7827C344.747 12.5071 345.233 12.3693 345.784 12.3693C346.21 12.3693 346.548 12.4403 346.798 12.5824C347.051 12.7216 347.244 12.8807 347.378 13.0597C347.514 13.2358 347.619 13.3807 347.693 13.4943H347.795V12.4545H348.767V19.1875C348.767 19.75 348.639 20.2074 348.384 20.5597C348.131 20.9148 347.79 21.1747 347.361 21.3395C346.935 21.5071 346.46 21.5909 345.938 21.5909ZM345.903 17.9943C346.307 17.9943 346.648 17.902 346.926 17.7173C347.205 17.5327 347.416 17.267 347.561 16.9205C347.706 16.5739 347.778 16.1591 347.778 15.6761C347.778 15.2045 347.707 14.7884 347.565 14.4276C347.423 14.0668 347.213 13.7841 346.935 13.5795C346.656 13.375 346.313 13.2727 345.903 13.2727C345.477 13.2727 345.122 13.3807 344.838 13.5966C344.557 13.8125 344.345 14.1023 344.203 14.4659C344.064 14.8295 343.994 15.233 343.994 15.6761C343.994 16.1307 344.065 16.5327 344.207 16.8821C344.352 17.2287 344.565 17.5014 344.847 17.7003C345.131 17.8963 345.483 17.9943 345.903 17.9943ZM353.352 19.1364C352.722 19.1364 352.178 18.9972 351.72 18.7188C351.266 18.4375 350.915 18.0455 350.668 17.5426C350.423 17.0369 350.301 16.4489 350.301 15.7784C350.301 15.108 350.423 14.517 350.668 14.0057C350.915 13.4915 351.259 13.0909 351.699 12.804C352.142 12.5142 352.659 12.3693 353.25 12.3693C353.591 12.3693 353.928 12.4261 354.26 12.5398C354.592 12.6534 354.895 12.8381 355.168 13.0938C355.44 13.3466 355.658 13.6818 355.82 14.0994C355.982 14.517 356.062 15.0312 356.062 15.642V16.0682H351.017V15.1989H355.04C355.04 14.8295 354.966 14.5 354.818 14.2102C354.673 13.9205 354.466 13.6918 354.196 13.5241C353.929 13.3565 353.614 13.2727 353.25 13.2727C352.849 13.2727 352.503 13.3722 352.21 13.571C351.92 13.767 351.697 14.0227 351.541 14.3381C351.385 14.6534 351.307 14.9915 351.307 15.3523V15.9318C351.307 16.4261 351.392 16.8452 351.562 17.1889C351.736 17.5298 351.976 17.7898 352.283 17.9688C352.589 18.1449 352.946 18.233 353.352 18.233C353.616 18.233 353.855 18.196 354.068 18.1222C354.284 18.0455 354.47 17.9318 354.626 17.7812C354.783 17.6278 354.903 17.4375 354.989 17.2102L355.96 17.483C355.858 17.8125 355.686 18.1023 355.445 18.3523C355.203 18.5994 354.905 18.7926 354.55 18.9318C354.195 19.0682 353.795 19.1364 353.352 19.1364ZM13.312 34.1364C12.6983 34.1364 12.1699 33.9915 11.7267 33.7017C11.2836 33.4119 10.9426 33.0128 10.704 32.5043C10.4654 31.9957 10.3461 31.4148 10.3461 30.7614C10.3461 30.0966 10.4682 29.5099 10.7125 29.0014C10.9597 28.4901 11.3034 28.0909 11.7438 27.804C12.187 27.5142 12.704 27.3693 13.2949 27.3693C13.7551 27.3693 14.1699 27.4545 14.5392 27.625C14.9086 27.7955 15.2111 28.0341 15.4469 28.3409C15.6827 28.6477 15.829 29.0057 15.8858 29.4148H14.8801C14.8034 29.1165 14.633 28.8523 14.3688 28.6222C14.1074 28.3892 13.7551 28.2727 13.312 28.2727C12.9199 28.2727 12.5762 28.375 12.2807 28.5795C11.9881 28.7812 11.7594 29.0668 11.5946 29.4361C11.4327 29.8026 11.3517 30.233 11.3517 30.7273C11.3517 31.233 11.4313 31.6733 11.5904 32.0483C11.7523 32.4233 11.9796 32.7145 12.2722 32.9219C12.5676 33.1293 12.9142 33.233 13.312 33.233C13.5733 33.233 13.8105 33.1875 14.0236 33.0966C14.2367 33.0057 14.4171 32.875 14.5648 32.7045C14.7125 32.5341 14.8176 32.3295 14.8801 32.0909H15.8858C15.829 32.4773 15.6884 32.8253 15.464 33.1349C15.2424 33.4418 14.9483 33.6861 14.5819 33.8679C14.2182 34.0469 13.7949 34.1364 13.312 34.1364ZM19.2821 34.1534C18.8674 34.1534 18.4909 34.0753 18.1529 33.919C17.8148 33.7599 17.5463 33.5312 17.3475 33.233C17.1486 32.9318 17.0492 32.5682 17.0492 32.142C17.0492 31.767 17.123 31.4631 17.2708 31.2301C17.4185 30.9943 17.6159 30.8097 17.8631 30.6761C18.1103 30.5426 18.383 30.4432 18.6813 30.3778C18.9824 30.3097 19.285 30.2557 19.589 30.2159C19.9867 30.1648 20.3091 30.1264 20.5563 30.1009C20.8063 30.0724 20.9881 30.0256 21.1017 29.9602C21.2182 29.8949 21.2765 29.7812 21.2765 29.6193V29.5852C21.2765 29.1648 21.1614 28.8381 20.9313 28.6051C20.704 28.3722 20.3588 28.2557 19.8958 28.2557C19.4157 28.2557 19.0392 28.3608 18.7665 28.571C18.4938 28.7812 18.302 29.0057 18.1912 29.2443L17.2367 28.9034C17.4071 28.5057 17.6344 28.196 17.9185 27.9744C18.2054 27.75 18.5179 27.5937 18.856 27.5057C19.1969 27.4148 19.5321 27.3693 19.8617 27.3693C20.0719 27.3693 20.3134 27.3949 20.5861 27.446C20.8617 27.4943 21.1273 27.5952 21.383 27.7486C21.6415 27.902 21.856 28.1335 22.0265 28.4432C22.1969 28.7528 22.2821 29.1676 22.2821 29.6875V34H21.2765V33.1136H21.2253C21.1571 33.2557 21.0435 33.4077 20.8844 33.5696C20.7253 33.7315 20.5137 33.8693 20.2495 33.983C19.9853 34.0966 19.6628 34.1534 19.2821 34.1534ZM19.4355 33.25C19.8333 33.25 20.1685 33.1719 20.4412 33.0156C20.7168 32.8594 20.9242 32.6577 21.0634 32.4105C21.2054 32.1634 21.2765 31.9034 21.2765 31.6307V30.7102C21.2338 30.7614 21.1401 30.8082 20.9952 30.8509C20.8532 30.8906 20.6884 30.9261 20.5009 30.9574C20.3162 30.9858 20.1358 31.0114 19.9597 31.0341C19.7864 31.054 19.6458 31.071 19.5378 31.0852C19.2765 31.1193 19.0321 31.1747 18.8049 31.2514C18.5804 31.3253 18.3986 31.4375 18.2594 31.5881C18.123 31.7358 18.0549 31.9375 18.0549 32.1932C18.0549 32.5426 18.1841 32.8068 18.4426 32.9858C18.704 33.1619 19.035 33.25 19.4355 33.25ZM24.1177 36.4545V27.4545H25.0893V28.4943H25.2086C25.2825 28.3807 25.3848 28.2358 25.5154 28.0597C25.649 27.8807 25.8393 27.7216 26.0865 27.5824C26.3365 27.4403 26.6745 27.3693 27.1007 27.3693C27.6518 27.3693 28.1376 27.5071 28.5581 27.7827C28.9785 28.0582 29.3066 28.4489 29.5424 28.9545C29.7782 29.4602 29.8961 30.0568 29.8961 30.7443C29.8961 31.4375 29.7782 32.0384 29.5424 32.5469C29.3066 33.0526 28.9799 33.4446 28.5623 33.723C28.1447 33.9986 27.6632 34.1364 27.1177 34.1364C26.6973 34.1364 26.3606 34.0668 26.1078 33.9276C25.8549 33.7855 25.6603 33.625 25.524 33.446C25.3876 33.2642 25.2825 33.1136 25.2086 32.9943H25.1234V36.4545H24.1177ZM25.1064 30.7273C25.1064 31.2216 25.1788 31.6577 25.3237 32.0355C25.4686 32.4105 25.6802 32.7045 25.9586 32.9176C26.237 33.1278 26.5779 33.233 26.9814 33.233C27.4018 33.233 27.7527 33.1222 28.0339 32.9006C28.318 32.6761 28.5311 32.375 28.6731 31.9972C28.818 31.6165 28.8904 31.1932 28.8904 30.7273C28.8904 30.267 28.8194 29.8523 28.6774 29.483C28.5382 29.1108 28.3265 28.8168 28.0424 28.6009C27.7612 28.3821 27.4075 28.2727 26.9814 28.2727C26.5723 28.2727 26.2285 28.3764 25.9501 28.5838C25.6717 28.7884 25.4615 29.0753 25.3194 29.4446C25.1774 29.8111 25.1064 30.2386 25.1064 30.7273ZM33.3564 34.1534C32.9416 34.1534 32.5652 34.0753 32.2271 33.919C31.889 33.7599 31.6206 33.5312 31.4217 33.233C31.2228 32.9318 31.1234 32.5682 31.1234 32.142C31.1234 31.767 31.1973 31.4631 31.345 31.2301C31.4927 30.9943 31.6902 30.8097 31.9373 30.6761C32.1845 30.5426 32.4572 30.4432 32.7555 30.3778C33.0566 30.3097 33.3592 30.2557 33.6632 30.2159C34.0609 30.1648 34.3833 30.1264 34.6305 30.1009C34.8805 30.0724 35.0623 30.0256 35.176 29.9602C35.2924 29.8949 35.3507 29.7812 35.3507 29.6193V29.5852C35.3507 29.1648 35.2356 28.8381 35.0055 28.6051C34.7782 28.3722 34.4331 28.2557 33.97 28.2557C33.4899 28.2557 33.1135 28.3608 32.8407 28.571C32.568 28.7812 32.3762 29.0057 32.2654 29.2443L31.3109 28.9034C31.4814 28.5057 31.7086 28.196 31.9927 27.9744C32.2797 27.75 32.5922 27.5937 32.9302 27.5057C33.2711 27.4148 33.6064 27.3693 33.9359 27.3693C34.1461 27.3693 34.3876 27.3949 34.6603 27.446C34.9359 27.4943 35.2015 27.5952 35.4572 27.7486C35.7157 27.902 35.9302 28.1335 36.1007 28.4432C36.2711 28.7528 36.3564 29.1676 36.3564 29.6875V34H35.3507V33.1136H35.2995C35.2314 33.2557 35.1177 33.4077 34.9586 33.5696C34.7995 33.7315 34.5879 33.8693 34.3237 33.983C34.0595 34.0966 33.737 34.1534 33.3564 34.1534ZM33.5098 33.25C33.9075 33.25 34.2427 33.1719 34.5154 33.0156C34.791 32.8594 34.9984 32.6577 35.1376 32.4105C35.2797 32.1634 35.3507 31.9034 35.3507 31.6307V30.7102C35.3081 30.7614 35.2143 30.8082 35.0694 30.8509C34.9274 30.8906 34.7626 30.9261 34.5751 30.9574C34.3904 30.9858 34.21 31.0114 34.0339 31.0341C33.8606 31.054 33.72 31.071 33.612 31.0852C33.3507 31.1193 33.1064 31.1747 32.8791 31.2514C32.6547 31.3253 32.4728 31.4375 32.3336 31.5881C32.1973 31.7358 32.1291 31.9375 32.1291 32.1932C32.1291 32.5426 32.2583 32.8068 32.5169 32.9858C32.7782 33.1619 33.1092 33.25 33.5098 33.25ZM40.851 34.1364C40.2374 34.1364 39.709 33.9915 39.2658 33.7017C38.8226 33.4119 38.4817 33.0128 38.2431 32.5043C38.0044 31.9957 37.8851 31.4148 37.8851 30.7614C37.8851 30.0966 38.0073 29.5099 38.2516 29.0014C38.4988 28.4901 38.8425 28.0909 39.2828 27.804C39.726 27.5142 40.2431 27.3693 40.834 27.3693C41.2942 27.3693 41.709 27.4545 42.0783 27.625C42.4476 27.7955 42.7502 28.0341 42.986 28.3409C43.2218 28.6477 43.3681 29.0057 43.4249 29.4148H42.4192C42.3425 29.1165 42.1721 28.8523 41.9078 28.6222C41.6465 28.3892 41.2942 28.2727 40.851 28.2727C40.459 28.2727 40.1152 28.375 39.8198 28.5795C39.5272 28.7812 39.2985 29.0668 39.1337 29.4361C38.9718 29.8026 38.8908 30.233 38.8908 30.7273C38.8908 31.233 38.9703 31.6733 39.1294 32.0483C39.2914 32.4233 39.5186 32.7145 39.8113 32.9219C40.1067 33.1293 40.4533 33.233 40.851 33.233C41.1124 33.233 41.3496 33.1875 41.5627 33.0966C41.7757 33.0057 41.9561 32.875 42.1039 32.7045C42.2516 32.5341 42.3567 32.3295 42.4192 32.0909H43.4249C43.3681 32.4773 43.2275 32.8253 43.003 33.1349C42.7814 33.4418 42.4874 33.6861 42.1209 33.8679C41.7573 34.0469 41.334 34.1364 40.851 34.1364ZM44.8951 34V27.4545H45.9007V34H44.8951ZM45.4064 26.3636C45.2104 26.3636 45.0414 26.2969 44.8993 26.1634C44.7601 26.0298 44.6905 25.8693 44.6905 25.6818C44.6905 25.4943 44.7601 25.3338 44.8993 25.2003C45.0414 25.0668 45.2104 25 45.4064 25C45.6025 25 45.7701 25.0668 45.9093 25.2003C46.0513 25.3338 46.1223 25.4943 46.1223 25.6818C46.1223 25.8693 46.0513 26.0298 45.9093 26.1634C45.7701 26.2969 45.6025 26.3636 45.4064 26.3636ZM50.5893 27.4545V28.3068H47.1973V27.4545H50.5893ZM48.1859 25.8864H49.1916V32.125C49.1916 32.4091 49.2328 32.6222 49.3152 32.7642C49.4004 32.9034 49.5083 32.9972 49.639 33.0455C49.7725 33.0909 49.9132 33.1136 50.0609 33.1136C50.1717 33.1136 50.2626 33.108 50.3336 33.0966C50.4047 33.0824 50.4615 33.071 50.5041 33.0625L50.7086 33.9659C50.6404 33.9915 50.5453 34.017 50.4231 34.0426C50.301 34.071 50.1461 34.0852 49.9586 34.0852C49.6745 34.0852 49.3961 34.0241 49.1234 33.902C48.8535 33.7798 48.6291 33.5938 48.4501 33.3438C48.274 33.0938 48.1859 32.7784 48.1859 32.3977V25.8864ZM52.7498 36.4545C52.5794 36.4545 52.4274 36.4403 52.2939 36.4119C52.1603 36.3864 52.068 36.3608 52.0169 36.3352L52.2725 35.4489C52.5169 35.5114 52.7328 35.5341 52.9203 35.517C53.1078 35.5 53.274 35.4162 53.4189 35.2656C53.5666 35.1179 53.7015 34.8778 53.8237 34.5455L54.0112 34.0341L51.5907 27.4545H52.6816L54.4885 32.6705H54.5566L56.3635 27.4545H57.4544L54.676 34.9545C54.551 35.2926 54.3961 35.5724 54.2115 35.794C54.0268 36.0185 53.8123 36.1847 53.568 36.2926C53.3265 36.4006 53.0538 36.4545 52.7498 36.4545ZM59.8716 32.8068L59.8034 33.267C59.7551 33.5909 59.6813 33.9375 59.5819 34.3068C59.4853 34.6761 59.3844 35.0241 59.2793 35.3509C59.1742 35.6776 59.0875 35.9375 59.0194 36.1307H58.2523C58.2892 35.9489 58.3375 35.7088 58.3972 35.4105C58.4569 35.1122 58.5165 34.7784 58.5762 34.4091C58.6387 34.0426 58.6898 33.6676 58.7296 33.2841L58.7807 32.8068H59.8716ZM69.7463 28.9205L68.8429 29.1761C68.786 29.0256 68.7022 28.8793 68.5914 28.7372C68.4835 28.5923 68.3358 28.473 68.1483 28.3793C67.9608 28.2855 67.7207 28.2386 67.4281 28.2386C67.0275 28.2386 66.6937 28.331 66.4267 28.5156C66.1625 28.6974 66.0304 28.929 66.0304 29.2102C66.0304 29.4602 66.1213 29.6577 66.3031 29.8026C66.4849 29.9474 66.769 30.0682 67.1554 30.1648L68.127 30.4034C68.7122 30.5455 69.1483 30.7628 69.4352 31.0554C69.7221 31.3452 69.8656 31.7187 69.8656 32.1761C69.8656 32.5511 69.7576 32.8864 69.5417 33.1818C69.3287 33.4773 69.0304 33.7102 68.6468 33.8807C68.2633 34.0511 67.8173 34.1364 67.3088 34.1364C66.6412 34.1364 66.0886 33.9915 65.6511 33.7017C65.2136 33.4119 64.9366 32.9886 64.8201 32.4318L65.7747 32.1932C65.8656 32.5455 66.0375 32.8097 66.2903 32.9858C66.546 33.1619 66.8798 33.25 67.2917 33.25C67.7605 33.25 68.1326 33.1506 68.4082 32.9517C68.6866 32.75 68.8258 32.5085 68.8258 32.2273C68.8258 32 68.7463 31.8097 68.5872 31.6562C68.4281 31.5 68.1838 31.3835 67.8542 31.3068L66.7633 31.0511C66.1639 30.9091 65.7235 30.6889 65.4423 30.3906C65.1639 30.0895 65.0247 29.7131 65.0247 29.2614C65.0247 28.892 65.1284 28.5653 65.3358 28.2812C65.546 27.9972 65.8315 27.7741 66.1923 27.6122C66.5559 27.4503 66.9679 27.3693 67.4281 27.3693C68.0758 27.3693 68.5843 27.5114 68.9537 27.7955C69.3258 28.0795 69.59 28.4545 69.7463 28.9205ZM74.1238 34.1364C73.4931 34.1364 72.949 33.9972 72.4917 33.7188C72.0371 33.4375 71.6863 33.0455 71.4391 32.5426C71.1948 32.0369 71.0726 31.4489 71.0726 30.7784C71.0726 30.108 71.1948 29.517 71.4391 29.0057C71.6863 28.4915 72.03 28.0909 72.4703 27.804C72.9135 27.5142 73.4306 27.3693 74.0215 27.3693C74.3624 27.3693 74.699 27.4261 75.0314 27.5398C75.3638 27.6534 75.6664 27.8381 75.9391 28.0938C76.2118 28.3466 76.4292 28.6818 76.5911 29.0994C76.753 29.517 76.834 30.0312 76.834 30.642V31.0682H71.7885V30.1989H75.8113C75.8113 29.8295 75.7374 29.5 75.5897 29.2102C75.4448 28.9205 75.2374 28.6918 74.9675 28.5241C74.7005 28.3565 74.3851 28.2727 74.0215 28.2727C73.6209 28.2727 73.2743 28.3722 72.9817 28.571C72.6919 28.767 72.4689 29.0227 72.3127 29.3381C72.1564 29.6534 72.0783 29.9915 72.0783 30.3523V30.9318C72.0783 31.4261 72.1635 31.8452 72.334 32.1889C72.5073 32.5298 72.7473 32.7898 73.0542 32.9688C73.361 33.1449 73.7175 33.233 74.1238 33.233C74.388 33.233 74.6266 33.196 74.8397 33.1222C75.0556 33.0455 75.2417 32.9318 75.3979 32.7812C75.5542 32.6278 75.6749 32.4375 75.7601 32.2102L76.7317 32.483C76.6294 32.8125 76.4576 33.1023 76.2161 33.3523C75.9746 33.5994 75.6763 33.7926 75.3212 33.9318C74.9661 34.0682 74.5669 34.1364 74.1238 34.1364ZM81.0229 34.1364C80.4093 34.1364 79.8809 33.9915 79.4377 33.7017C78.9945 33.4119 78.6536 33.0128 78.415 32.5043C78.1763 31.9957 78.057 31.4148 78.057 30.7614C78.057 30.0966 78.1792 29.5099 78.4235 29.0014C78.6706 28.4901 79.0144 28.0909 79.4547 27.804C79.8979 27.5142 80.415 27.3693 81.0059 27.3693C81.4661 27.3693 81.8809 27.4545 82.2502 27.625C82.6195 27.7955 82.9221 28.0341 83.1578 28.3409C83.3936 28.6477 83.54 29.0057 83.5968 29.4148H82.5911C82.5144 29.1165 82.3439 28.8523 82.0797 28.6222C81.8184 28.3892 81.4661 28.2727 81.0229 28.2727C80.6309 28.2727 80.2871 28.375 79.9917 28.5795C79.699 28.7812 79.4703 29.0668 79.3056 29.4361C79.1436 29.8026 79.0627 30.233 79.0627 30.7273C79.0627 31.233 79.1422 31.6733 79.3013 32.0483C79.4632 32.4233 79.6905 32.7145 79.9831 32.9219C80.2786 33.1293 80.6252 33.233 81.0229 33.233C81.2843 33.233 81.5215 33.1875 81.7346 33.0966C81.9476 33.0057 82.128 32.875 82.2757 32.7045C82.4235 32.5341 82.5286 32.3295 82.5911 32.0909H83.5968C83.54 32.4773 83.3993 32.8253 83.1749 33.1349C82.9533 33.4418 82.6593 33.6861 82.2928 33.8679C81.9292 34.0469 81.5059 34.1364 81.0229 34.1364ZM89.1919 31.3239V27.4545H90.1976V34H89.1919V32.892H89.1238C88.9703 33.2244 88.7317 33.5071 88.4078 33.7401C88.084 33.9702 87.6749 34.0852 87.1806 34.0852C86.7715 34.0852 86.4078 33.9957 86.0897 33.8168C85.7715 33.6349 85.5215 33.3622 85.3397 32.9986C85.1578 32.6321 85.0669 32.1705 85.0669 31.6136V27.4545H86.0726V31.5455C86.0726 32.0227 86.2061 32.4034 86.4732 32.6875C86.7431 32.9716 87.0868 33.1136 87.5044 33.1136C87.7544 33.1136 88.0087 33.0497 88.2672 32.9219C88.5286 32.794 88.7473 32.598 88.9235 32.3338C89.1025 32.0696 89.1919 31.733 89.1919 31.3239ZM92.0396 34V27.4545H93.0112V28.4432H93.0794C93.1987 28.1193 93.4146 27.8565 93.7271 27.6548C94.0396 27.4531 94.3919 27.3523 94.7839 27.3523C94.8578 27.3523 94.9501 27.3537 95.0609 27.3565C95.1717 27.3594 95.2555 27.3636 95.3123 27.3693V28.392C95.2782 28.3835 95.2001 28.3707 95.0779 28.3537C94.9586 28.3338 94.8322 28.3239 94.6987 28.3239C94.3805 28.3239 94.0964 28.3906 93.8464 28.5241C93.5993 28.6548 93.4032 28.8366 93.2583 29.0696C93.1163 29.2997 93.0453 29.5625 93.0453 29.858V34H92.0396ZM99.0495 34.1364C98.4189 34.1364 97.8748 33.9972 97.4174 33.7188C96.9629 33.4375 96.612 33.0455 96.3649 32.5426C96.1206 32.0369 95.9984 31.4489 95.9984 30.7784C95.9984 30.108 96.1206 29.517 96.3649 29.0057C96.612 28.4915 96.9558 28.0909 97.3961 27.804C97.8393 27.5142 98.3564 27.3693 98.9473 27.3693C99.2882 27.3693 99.6248 27.4261 99.9572 27.5398C100.29 27.6534 100.592 27.8381 100.865 28.0938C101.138 28.3466 101.355 28.6818 101.517 29.0994C101.679 29.517 101.76 30.0312 101.76 30.642V31.0682H96.7143V30.1989H100.737C100.737 29.8295 100.663 29.5 100.515 29.2102C100.371 28.9205 100.163 28.6918 99.8933 28.5241C99.6262 28.3565 99.3109 28.2727 98.9473 28.2727C98.5467 28.2727 98.2001 28.3722 97.9075 28.571C97.6177 28.767 97.3947 29.0227 97.2385 29.3381C97.0822 29.6534 97.0041 29.9915 97.0041 30.3523V30.9318C97.0041 31.4261 97.0893 31.8452 97.2598 32.1889C97.4331 32.5298 97.6731 32.7898 97.9799 32.9688C98.2868 33.1449 98.6433 33.233 99.0495 33.233C99.3137 33.233 99.5524 33.196 99.7654 33.1222C99.9814 33.0455 100.167 32.9318 100.324 32.7812C100.48 32.6278 100.601 32.4375 100.686 32.2102L101.657 32.483C101.555 32.8125 101.383 33.1023 101.142 33.3523C100.9 33.5994 100.602 33.7926 100.247 33.9318C99.8919 34.0682 99.4927 34.1364 99.0495 34.1364ZM111.301 28.9205L110.398 29.1761C110.341 29.0256 110.257 28.8793 110.146 28.7372C110.038 28.5923 109.89 28.473 109.703 28.3793C109.515 28.2855 109.275 28.2386 108.983 28.2386C108.582 28.2386 108.248 28.331 107.981 28.5156C107.717 28.6974 107.585 28.929 107.585 29.2102C107.585 29.4602 107.676 29.6577 107.858 29.8026C108.04 29.9474 108.324 30.0682 108.71 30.1648L109.682 30.4034C110.267 30.5455 110.703 30.7628 110.99 31.0554C111.277 31.3452 111.42 31.7187 111.42 32.1761C111.42 32.5511 111.312 32.8864 111.096 33.1818C110.883 33.4773 110.585 33.7102 110.202 33.8807C109.818 34.0511 109.372 34.1364 108.863 34.1364C108.196 34.1364 107.643 33.9915 107.206 33.7017C106.768 33.4119 106.491 32.9886 106.375 32.4318L107.329 32.1932C107.42 32.5455 107.592 32.8097 107.845 32.9858C108.101 33.1619 108.434 33.25 108.846 33.25C109.315 33.25 109.687 33.1506 109.963 32.9517C110.241 32.75 110.381 32.5085 110.381 32.2273C110.381 32 110.301 31.8097 110.142 31.6562C109.983 31.5 109.738 31.3835 109.409 31.3068L108.318 31.0511C107.719 30.9091 107.278 30.6889 106.997 30.3906C106.719 30.0895 106.579 29.7131 106.579 29.2614C106.579 28.892 106.683 28.5653 106.89 28.2812C107.101 27.9972 107.386 27.7741 107.747 27.6122C108.111 27.4503 108.523 27.3693 108.983 27.3693C109.631 27.3693 110.139 27.5114 110.508 27.7955C110.881 28.0795 111.145 28.4545 111.301 28.9205ZM115.678 34.1364C115.048 34.1364 114.504 33.9972 114.046 33.7188C113.592 33.4375 113.241 33.0455 112.994 32.5426C112.749 32.0369 112.627 31.4489 112.627 30.7784C112.627 30.108 112.749 29.517 112.994 29.0057C113.241 28.4915 113.585 28.0909 114.025 27.804C114.468 27.5142 114.985 27.3693 115.576 27.3693C115.917 27.3693 116.254 27.4261 116.586 27.5398C116.919 27.6534 117.221 27.8381 117.494 28.0938C117.767 28.3466 117.984 28.6818 118.146 29.0994C118.308 29.517 118.389 30.0312 118.389 30.642V31.0682H113.343V30.1989H117.366C117.366 29.8295 117.292 29.5 117.144 29.2102C116.999 28.9205 116.792 28.6918 116.522 28.5241C116.255 28.3565 115.94 28.2727 115.576 28.2727C115.176 28.2727 114.829 28.3722 114.536 28.571C114.247 28.767 114.024 29.0227 113.867 29.3381C113.711 29.6534 113.633 29.9915 113.633 30.3523V30.9318C113.633 31.4261 113.718 31.8452 113.889 32.1889C114.062 32.5298 114.302 32.7898 114.609 32.9688C114.916 33.1449 115.272 33.233 115.678 33.233C115.943 33.233 116.181 33.196 116.394 33.1222C116.61 33.0455 116.796 32.9318 116.953 32.7812C117.109 32.6278 117.23 32.4375 117.315 32.2102L118.286 32.483C118.184 32.8125 118.012 33.1023 117.771 33.3523C117.529 33.5994 117.231 33.7926 116.876 33.9318C116.521 34.0682 116.122 34.1364 115.678 34.1364ZM121.845 34.1534C121.43 34.1534 121.053 34.0753 120.715 33.919C120.377 33.7599 120.109 33.5312 119.91 33.233C119.711 32.9318 119.612 32.5682 119.612 32.142C119.612 31.767 119.686 31.4631 119.833 31.2301C119.981 30.9943 120.178 30.8097 120.426 30.6761C120.673 30.5426 120.945 30.4432 121.244 30.3778C121.545 30.3097 121.847 30.2557 122.151 30.2159C122.549 30.1648 122.872 30.1264 123.119 30.1009C123.369 30.0724 123.551 30.0256 123.664 29.9602C123.781 29.8949 123.839 29.7812 123.839 29.6193V29.5852C123.839 29.1648 123.724 28.8381 123.494 28.6051C123.267 28.3722 122.921 28.2557 122.458 28.2557C121.978 28.2557 121.602 28.3608 121.329 28.571C121.056 28.7812 120.865 29.0057 120.754 29.2443L119.799 28.9034C119.97 28.5057 120.197 28.196 120.481 27.9744C120.768 27.75 121.08 27.5937 121.419 27.5057C121.759 27.4148 122.095 27.3693 122.424 27.3693C122.634 27.3693 122.876 27.3949 123.149 27.446C123.424 27.4943 123.69 27.5952 123.945 27.7486C124.204 27.902 124.419 28.1335 124.589 28.4432C124.759 28.7528 124.845 29.1676 124.845 29.6875V34H123.839V33.1136H123.788C123.72 33.2557 123.606 33.4077 123.447 33.5696C123.288 33.7315 123.076 33.8693 122.812 33.983C122.548 34.0966 122.225 34.1534 121.845 34.1534ZM121.998 33.25C122.396 33.25 122.731 33.1719 123.004 33.0156C123.279 32.8594 123.487 32.6577 123.626 32.4105C123.768 32.1634 123.839 31.9034 123.839 31.6307V30.7102C123.796 30.7614 123.703 30.8082 123.558 30.8509C123.416 30.8906 123.251 30.9261 123.063 30.9574C122.879 30.9858 122.698 31.0114 122.522 31.0341C122.349 31.054 122.208 31.071 122.1 31.0852C121.839 31.1193 121.595 31.1747 121.367 31.2514C121.143 31.3253 120.961 31.4375 120.822 31.5881C120.686 31.7358 120.617 31.9375 120.617 32.1932C120.617 32.5426 120.747 32.8068 121.005 32.9858C121.267 33.1619 121.597 33.25 121.998 33.25ZM127.686 25.2727V34H126.68V25.2727H127.686ZM129.528 34V27.4545H130.534V34H129.528ZM130.039 26.3636C129.843 26.3636 129.674 26.2969 129.532 26.1634C129.393 26.0298 129.323 25.8693 129.323 25.6818C129.323 25.4943 129.393 25.3338 129.532 25.2003C129.674 25.0668 129.843 25 130.039 25C130.235 25 130.403 25.0668 130.542 25.2003C130.684 25.3338 130.755 25.4943 130.755 25.6818C130.755 25.8693 130.684 26.0298 130.542 26.1634C130.403 26.2969 130.235 26.3636 130.039 26.3636ZM133.381 30.0625V34H132.376V27.4545H133.347V28.4773H133.432C133.586 28.1449 133.819 27.8778 134.131 27.6761C134.444 27.4716 134.847 27.3693 135.341 27.3693C135.785 27.3693 136.172 27.4602 136.505 27.642C136.837 27.821 137.096 28.0938 137.28 28.4602C137.465 28.8239 137.557 29.2841 137.557 29.8409V34H136.552V29.9091C136.552 29.3949 136.418 28.9943 136.151 28.7074C135.884 28.4176 135.518 28.2727 135.052 28.2727C134.731 28.2727 134.444 28.3423 134.191 28.4815C133.941 28.6207 133.743 28.8239 133.599 29.0909C133.454 29.358 133.381 29.6818 133.381 30.0625ZM142.037 36.5909C141.551 36.5909 141.134 36.5284 140.784 36.4034C140.435 36.2812 140.144 36.1193 139.911 35.9176C139.681 35.7188 139.497 35.5057 139.361 35.2784L140.162 34.7159C140.253 34.8352 140.368 34.9716 140.507 35.125C140.646 35.2812 140.837 35.4162 141.078 35.5298C141.323 35.6463 141.642 35.7045 142.037 35.7045C142.566 35.7045 143.002 35.5767 143.345 35.321C143.689 35.0653 143.861 34.6648 143.861 34.1193V32.7898H143.776C143.702 32.9091 143.597 33.0568 143.46 33.233C143.327 33.4062 143.134 33.5611 142.881 33.6974C142.631 33.831 142.293 33.8977 141.867 33.8977C141.338 33.8977 140.864 33.7727 140.443 33.5227C140.026 33.2727 139.695 32.9091 139.45 32.4318C139.209 31.9545 139.088 31.375 139.088 30.6932C139.088 30.0227 139.206 29.4389 139.442 28.9418C139.678 28.4418 140.006 28.0554 140.426 27.7827C140.847 27.5071 141.333 27.3693 141.884 27.3693C142.31 27.3693 142.648 27.4403 142.898 27.5824C143.151 27.7216 143.344 27.8807 143.477 28.0597C143.614 28.2358 143.719 28.3807 143.793 28.4943H143.895V27.4545H144.867V34.1875C144.867 34.75 144.739 35.2074 144.483 35.5597C144.23 35.9148 143.889 36.1747 143.46 36.3395C143.034 36.5071 142.56 36.5909 142.037 36.5909ZM142.003 32.9943C142.406 32.9943 142.747 32.902 143.026 32.7173C143.304 32.5327 143.516 32.267 143.661 31.9205C143.806 31.5739 143.878 31.1591 143.878 30.6761C143.878 30.2045 143.807 29.7884 143.665 29.4276C143.523 29.0668 143.313 28.7841 143.034 28.5795C142.756 28.375 142.412 28.2727 142.003 28.2727C141.577 28.2727 141.222 28.3807 140.938 28.5966C140.656 28.8125 140.445 29.1023 140.303 29.4659C140.164 29.8295 140.094 30.233 140.094 30.6761C140.094 31.1307 140.165 31.5327 140.307 31.8821C140.452 32.2287 140.665 32.5014 140.946 32.7003C141.23 32.8963 141.583 32.9943 142.003 32.9943ZM152.554 34.1193C151.98 34.1193 151.486 34.0142 151.071 33.804C150.656 33.5937 150.337 33.3054 150.112 32.9389C149.888 32.5724 149.776 32.1534 149.776 31.6818C149.776 31.3182 149.852 30.9957 150.006 30.7145C150.162 30.4304 150.377 30.1676 150.649 29.9261C150.925 29.6818 151.242 29.4375 151.6 29.1932L152.861 28.2557C153.108 28.0937 153.306 27.9205 153.453 27.7358C153.604 27.5511 153.679 27.3097 153.679 27.0114C153.679 26.7898 153.581 26.5753 153.385 26.3679C153.192 26.1605 152.938 26.0568 152.622 26.0568C152.401 26.0568 152.205 26.1136 152.034 26.2273C151.867 26.3381 151.735 26.4801 151.638 26.6534C151.544 26.8239 151.497 27 151.497 27.1818C151.497 27.3864 151.553 27.5938 151.664 27.804C151.777 28.0114 151.921 28.2244 152.094 28.4432C152.27 28.6591 152.452 28.8807 152.639 29.108L156.645 34H155.435L152.128 30.0114C151.821 29.642 151.543 29.3068 151.293 29.0057C151.043 28.7045 150.844 28.4077 150.696 28.1151C150.548 27.8224 150.475 27.5057 150.475 27.1648C150.475 26.7727 150.561 26.429 150.735 26.1335C150.911 25.8352 151.156 25.6037 151.472 25.4389C151.79 25.2713 152.162 25.1875 152.588 25.1875C153.026 25.1875 153.402 25.2727 153.718 25.4432C154.033 25.6108 154.276 25.8338 154.446 26.1122C154.617 26.3878 154.702 26.6875 154.702 27.0114C154.702 27.429 154.598 27.7912 154.391 28.098C154.183 28.4048 153.901 28.6903 153.543 28.9545L151.804 30.25C151.412 30.5398 151.146 30.821 151.007 31.0938C150.868 31.3665 150.798 31.5625 150.798 31.6818C150.798 31.9545 150.869 32.2088 151.012 32.4446C151.154 32.6804 151.354 32.8707 151.612 33.0156C151.871 33.1605 152.173 33.233 152.52 33.233C152.85 33.233 153.171 33.1634 153.483 33.0241C153.796 32.8821 154.078 32.6776 154.331 32.4105C154.587 32.1435 154.789 31.8224 154.936 31.4474C155.087 31.0724 155.162 30.6506 155.162 30.1818H156.134C156.134 30.7614 156.067 31.2344 155.933 31.6009C155.8 31.9673 155.649 32.2543 155.482 32.4616C155.314 32.669 155.179 32.8239 155.077 32.9261C155.043 32.9687 155.012 33.0114 154.983 33.054C154.955 33.0966 154.923 33.1392 154.889 33.1818C154.608 33.4972 154.253 33.733 153.824 33.8892C153.395 34.0426 152.972 34.1193 152.554 34.1193ZM163.605 34.1364C163.059 34.1364 162.578 33.9986 162.16 33.723C161.743 33.4446 161.416 33.0526 161.18 32.5469C160.944 32.0384 160.827 31.4375 160.827 30.7443C160.827 30.0568 160.944 29.4602 161.18 28.9545C161.416 28.4489 161.744 28.0582 162.165 27.7827C162.585 27.5071 163.071 27.3693 163.622 27.3693C164.048 27.3693 164.385 27.4403 164.632 27.5824C164.882 27.7216 165.072 27.8807 165.203 28.0597C165.336 28.2358 165.44 28.3807 165.514 28.4943H165.599V25.2727H166.605V34H165.633V32.9943H165.514C165.44 33.1136 165.335 33.2642 165.199 33.446C165.062 33.625 164.868 33.7855 164.615 33.9276C164.362 34.0668 164.025 34.1364 163.605 34.1364ZM163.741 33.233C164.145 33.233 164.486 33.1278 164.764 32.9176C165.042 32.7045 165.254 32.4105 165.399 32.0355C165.544 31.6577 165.616 31.2216 165.616 30.7273C165.616 30.2386 165.545 29.8111 165.403 29.4446C165.261 29.0753 165.051 28.7884 164.773 28.5838C164.494 28.3764 164.15 28.2727 163.741 28.2727C163.315 28.2727 162.96 28.3821 162.676 28.6009C162.395 28.8168 162.183 29.1108 162.041 29.483C161.902 29.8523 161.832 30.267 161.832 30.7273C161.832 31.1932 161.903 31.6165 162.045 31.9972C162.19 32.375 162.403 32.6761 162.684 32.9006C162.969 33.1222 163.321 33.233 163.741 33.233ZM171.331 34.1364C170.7 34.1364 170.156 33.9972 169.699 33.7188C169.244 33.4375 168.893 33.0455 168.646 32.5426C168.402 32.0369 168.28 31.4489 168.28 30.7784C168.28 30.108 168.402 29.517 168.646 29.0057C168.893 28.4915 169.237 28.0909 169.677 27.804C170.121 27.5142 170.638 27.3693 171.229 27.3693C171.569 27.3693 171.906 27.4261 172.238 27.5398C172.571 27.6534 172.873 27.8381 173.146 28.0938C173.419 28.3466 173.636 28.6818 173.798 29.0994C173.96 29.517 174.041 30.0312 174.041 30.642V31.0682H168.996V30.1989H173.018C173.018 29.8295 172.944 29.5 172.797 29.2102C172.652 28.9205 172.444 28.6918 172.175 28.5241C171.907 28.3565 171.592 28.2727 171.229 28.2727C170.828 28.2727 170.481 28.3722 170.189 28.571C169.899 28.767 169.676 29.0227 169.52 29.3381C169.363 29.6534 169.285 29.9915 169.285 30.3523V30.9318C169.285 31.4261 169.371 31.8452 169.541 32.1889C169.714 32.5298 169.954 32.7898 170.261 32.9688C170.568 33.1449 170.925 33.233 171.331 33.233C171.595 33.233 171.834 33.196 172.047 33.1222C172.263 33.0455 172.449 32.9318 172.605 32.7812C172.761 32.6278 172.882 32.4375 172.967 32.2102L173.939 32.483C173.836 32.8125 173.665 33.1023 173.423 33.3523C173.182 33.5994 172.883 33.7926 172.528 33.9318C172.173 34.0682 171.774 34.1364 171.331 34.1364ZM180.207 28.9205L179.304 29.1761C179.247 29.0256 179.163 28.8793 179.052 28.7372C178.944 28.5923 178.797 28.473 178.609 28.3793C178.422 28.2855 178.182 28.2386 177.889 28.2386C177.488 28.2386 177.155 28.331 176.888 28.5156C176.623 28.6974 176.491 28.929 176.491 29.2102C176.491 29.4602 176.582 29.6577 176.764 29.8026C176.946 29.9474 177.23 30.0682 177.616 30.1648L178.588 30.4034C179.173 30.5455 179.609 30.7628 179.896 31.0554C180.183 31.3452 180.327 31.7187 180.327 32.1761C180.327 32.5511 180.219 32.8864 180.003 33.1818C179.79 33.4773 179.491 33.7102 179.108 33.8807C178.724 34.0511 178.278 34.1364 177.77 34.1364C177.102 34.1364 176.55 33.9915 176.112 33.7017C175.675 33.4119 175.398 32.9886 175.281 32.4318L176.236 32.1932C176.327 32.5455 176.498 32.8097 176.751 32.9858C177.007 33.1619 177.341 33.25 177.753 33.25C178.221 33.25 178.594 33.1506 178.869 32.9517C179.148 32.75 179.287 32.5085 179.287 32.2273C179.287 32 179.207 31.8097 179.048 31.6562C178.889 31.5 178.645 31.3835 178.315 31.3068L177.224 31.0511C176.625 30.9091 176.184 30.6889 175.903 30.3906C175.625 30.0895 175.486 29.7131 175.486 29.2614C175.486 28.892 175.589 28.5653 175.797 28.2812C176.007 27.9972 176.292 27.7741 176.653 27.6122C177.017 27.4503 177.429 27.3693 177.889 27.3693C178.537 27.3693 179.045 27.5114 179.415 27.7955C179.787 28.0795 180.051 28.4545 180.207 28.9205ZM181.84 34V27.4545H182.846V34H181.84ZM182.352 26.3636C182.156 26.3636 181.987 26.2969 181.845 26.1634C181.705 26.0298 181.636 25.8693 181.636 25.6818C181.636 25.4943 181.705 25.3338 181.845 25.2003C181.987 25.0668 182.156 25 182.352 25C182.548 25 182.715 25.0668 182.855 25.2003C182.997 25.3338 183.068 25.4943 183.068 25.6818C183.068 25.8693 182.997 26.0298 182.855 26.1634C182.715 26.2969 182.548 26.3636 182.352 26.3636ZM187.33 36.5909C186.844 36.5909 186.427 36.5284 186.077 36.4034C185.728 36.2812 185.437 36.1193 185.204 35.9176C184.974 35.7188 184.79 35.5057 184.654 35.2784L185.455 34.7159C185.546 34.8352 185.661 34.9716 185.8 35.125C185.939 35.2812 186.13 35.4162 186.371 35.5298C186.616 35.6463 186.935 35.7045 187.33 35.7045C187.858 35.7045 188.295 35.5767 188.638 35.321C188.982 35.0653 189.154 34.6648 189.154 34.1193V32.7898H189.069C188.995 32.9091 188.89 33.0568 188.753 33.233C188.62 33.4062 188.427 33.5611 188.174 33.6974C187.924 33.831 187.586 33.8977 187.16 33.8977C186.631 33.8977 186.157 33.7727 185.736 33.5227C185.319 33.2727 184.988 32.9091 184.743 32.4318C184.502 31.9545 184.381 31.375 184.381 30.6932C184.381 30.0227 184.499 29.4389 184.735 28.9418C184.971 28.4418 185.299 28.0554 185.719 27.7827C186.14 27.5071 186.626 27.3693 187.177 27.3693C187.603 27.3693 187.941 27.4403 188.191 27.5824C188.444 27.7216 188.637 27.8807 188.77 28.0597C188.907 28.2358 189.012 28.3807 189.086 28.4943H189.188V27.4545H190.16V34.1875C190.16 34.75 190.032 35.2074 189.776 35.5597C189.523 35.9148 189.182 36.1747 188.753 36.3395C188.327 36.5071 187.853 36.5909 187.33 36.5909ZM187.296 32.9943C187.699 32.9943 188.04 32.902 188.319 32.7173C188.597 32.5327 188.809 32.267 188.954 31.9205C189.099 31.5739 189.171 31.1591 189.171 30.6761C189.171 30.2045 189.1 29.7884 188.958 29.4276C188.816 29.0668 188.606 28.7841 188.327 28.5795C188.049 28.375 187.705 28.2727 187.296 28.2727C186.87 28.2727 186.515 28.3807 186.231 28.5966C185.949 28.8125 185.738 29.1023 185.596 29.4659C185.456 29.8295 185.387 30.233 185.387 30.6761C185.387 31.1307 185.458 31.5327 185.6 31.8821C185.745 32.2287 185.958 32.5014 186.239 32.7003C186.523 32.8963 186.876 32.9943 187.296 32.9943ZM193.006 30.0625V34H192.001V27.4545H192.972V28.4773H193.057C193.211 28.1449 193.444 27.8778 193.756 27.6761C194.069 27.4716 194.472 27.3693 194.966 27.3693C195.41 27.3693 195.797 27.4602 196.13 27.642C196.462 27.821 196.721 28.0938 196.905 28.4602C197.09 28.8239 197.182 29.2841 197.182 29.8409V34H196.177V29.9091C196.177 29.3949 196.043 28.9943 195.776 28.7074C195.509 28.4176 195.143 28.2727 194.677 28.2727C194.356 28.2727 194.069 28.3423 193.816 28.4815C193.566 28.6207 193.368 28.8239 193.224 29.0909C193.079 29.358 193.006 29.6818 193.006 30.0625ZM201.764 34.1364C201.134 34.1364 200.59 33.9972 200.132 33.7188C199.678 33.4375 199.327 33.0455 199.08 32.5426C198.835 32.0369 198.713 31.4489 198.713 30.7784C198.713 30.108 198.835 29.517 199.08 29.0057C199.327 28.4915 199.671 28.0909 200.111 27.804C200.554 27.5142 201.071 27.3693 201.662 27.3693C202.003 27.3693 202.34 27.4261 202.672 27.5398C203.004 27.6534 203.307 27.8381 203.58 28.0938C203.852 28.3466 204.07 28.6818 204.232 29.0994C204.394 29.517 204.475 30.0312 204.475 30.642V31.0682H199.429V30.1989H203.452C203.452 29.8295 203.378 29.5 203.23 29.2102C203.085 28.9205 202.878 28.6918 202.608 28.5241C202.341 28.3565 202.026 28.2727 201.662 28.2727C201.262 28.2727 200.915 28.3722 200.622 28.571C200.333 28.767 200.11 29.0227 199.953 29.3381C199.797 29.6534 199.719 29.9915 199.719 30.3523V30.9318C199.719 31.4261 199.804 31.8452 199.975 32.1889C200.148 32.5298 200.388 32.7898 200.695 32.9688C201.002 33.1449 201.358 33.233 201.764 33.233C202.029 33.233 202.267 33.196 202.48 33.1222C202.696 33.0455 202.882 32.9318 203.039 32.7812C203.195 32.6278 203.316 32.4375 203.401 32.2102L204.372 32.483C204.27 32.8125 204.098 33.1023 203.857 33.3523C203.615 33.5994 203.317 33.7926 202.962 33.9318C202.607 34.0682 202.208 34.1364 201.764 34.1364ZM208.476 34.1364C207.931 34.1364 207.449 33.9986 207.031 33.723C206.614 33.4446 206.287 33.0526 206.051 32.5469C205.816 32.0384 205.698 31.4375 205.698 30.7443C205.698 30.0568 205.816 29.4602 206.051 28.9545C206.287 28.4489 206.615 28.0582 207.036 27.7827C207.456 27.5071 207.942 27.3693 208.493 27.3693C208.919 27.3693 209.256 27.4403 209.503 27.5824C209.753 27.7216 209.943 27.8807 210.074 28.0597C210.208 28.2358 210.311 28.3807 210.385 28.4943H210.47V25.2727H211.476V34H210.504V32.9943H210.385C210.311 33.1136 210.206 33.2642 210.07 33.446C209.933 33.625 209.739 33.7855 209.486 33.9276C209.233 34.0668 208.896 34.1364 208.476 34.1364ZM208.612 33.233C209.016 33.233 209.357 33.1278 209.635 32.9176C209.914 32.7045 210.125 32.4105 210.27 32.0355C210.415 31.6577 210.487 31.2216 210.487 30.7273C210.487 30.2386 210.416 29.8111 210.274 29.4446C210.132 29.0753 209.922 28.7884 209.644 28.5838C209.365 28.3764 209.021 28.2727 208.612 28.2727C208.186 28.2727 207.831 28.3821 207.547 28.6009C207.266 28.8168 207.054 29.1108 206.912 29.483C206.773 29.8523 206.703 30.267 206.703 30.7273C206.703 31.1932 206.774 31.6165 206.916 31.9972C207.061 32.375 207.274 32.6761 207.556 32.9006C207.84 33.1222 208.192 33.233 208.612 33.233ZM219.747 27.4545V28.3068H216.219V27.4545H219.747ZM217.276 34V26.5511C217.276 26.1761 217.364 25.8636 217.54 25.6136C217.716 25.3636 217.945 25.1761 218.226 25.0511C218.507 24.9261 218.804 24.8636 219.117 24.8636C219.364 24.8636 219.566 24.8835 219.722 24.9233C219.878 24.9631 219.994 25 220.071 25.0341L219.781 25.9034C219.73 25.8864 219.659 25.8651 219.568 25.8395C219.48 25.8139 219.364 25.8011 219.219 25.8011C218.887 25.8011 218.646 25.8849 218.499 26.0526C218.354 26.2202 218.281 26.4659 218.281 26.7898V34H217.276ZM223.546 34.1364C222.955 34.1364 222.437 33.9957 221.991 33.7145C221.548 33.4332 221.201 33.0398 220.951 32.5341C220.704 32.0284 220.58 31.4375 220.58 30.7614C220.58 30.0795 220.704 29.4844 220.951 28.9759C221.201 28.4673 221.548 28.0724 221.991 27.7912C222.437 27.5099 222.955 27.3693 223.546 27.3693C224.137 27.3693 224.654 27.5099 225.097 27.7912C225.544 28.0724 225.89 28.4673 226.137 28.9759C226.387 29.4844 226.512 30.0795 226.512 30.7614C226.512 31.4375 226.387 32.0284 226.137 32.5341C225.89 33.0398 225.544 33.4332 225.097 33.7145C224.654 33.9957 224.137 34.1364 223.546 34.1364ZM223.546 33.233C223.995 33.233 224.365 33.1179 224.654 32.8878C224.944 32.6577 225.159 32.3551 225.298 31.9801C225.437 31.6051 225.507 31.1989 225.507 30.7614C225.507 30.3239 225.437 29.9162 225.298 29.5384C225.159 29.1605 224.944 28.8551 224.654 28.6222C224.365 28.3892 223.995 28.2727 223.546 28.2727C223.097 28.2727 222.728 28.3892 222.438 28.6222C222.149 28.8551 221.934 29.1605 221.795 29.5384C221.656 29.9162 221.586 30.3239 221.586 30.7614C221.586 31.1989 221.656 31.6051 221.795 31.9801C221.934 32.3551 222.149 32.6577 222.438 32.8878C222.728 33.1179 223.097 33.233 223.546 33.233ZM228.047 34V27.4545H229.019V28.4432H229.087C229.206 28.1193 229.422 27.8565 229.735 27.6548C230.047 27.4531 230.4 27.3523 230.792 27.3523C230.866 27.3523 230.958 27.3537 231.069 27.3565C231.18 27.3594 231.263 27.3636 231.32 27.3693V28.392C231.286 28.3835 231.208 28.3707 231.086 28.3537C230.966 28.3338 230.84 28.3239 230.706 28.3239C230.388 28.3239 230.104 28.3906 229.854 28.5241C229.607 28.6548 229.411 28.8366 229.266 29.0696C229.124 29.2997 229.053 29.5625 229.053 29.858V34H228.047ZM238.632 34.1364C238.001 34.1364 237.457 33.9972 236.999 33.7188C236.545 33.4375 236.194 33.0455 235.947 32.5426C235.703 32.0369 235.58 31.4489 235.58 30.7784C235.58 30.108 235.703 29.517 235.947 29.0057C236.194 28.4915 236.538 28.0909 236.978 27.804C237.421 27.5142 237.938 27.3693 238.529 27.3693C238.87 27.3693 239.207 27.4261 239.539 27.5398C239.872 27.6534 240.174 27.8381 240.447 28.0938C240.72 28.3466 240.937 28.6818 241.099 29.0994C241.261 29.517 241.342 30.0312 241.342 30.642V31.0682H236.296V30.1989H240.319C240.319 29.8295 240.245 29.5 240.097 29.2102C239.953 28.9205 239.745 28.6918 239.475 28.5241C239.208 28.3565 238.893 28.2727 238.529 28.2727C238.129 28.2727 237.782 28.3722 237.49 28.571C237.2 28.767 236.977 29.0227 236.82 29.3381C236.664 29.6534 236.586 29.9915 236.586 30.3523V30.9318C236.586 31.4261 236.671 31.8452 236.842 32.1889C237.015 32.5298 237.255 32.7898 237.562 32.9688C237.869 33.1449 238.225 33.233 238.632 33.233C238.896 33.233 239.134 33.196 239.347 33.1222C239.563 33.0455 239.749 32.9318 239.906 32.7812C240.062 32.6278 240.183 32.4375 240.268 32.2102L241.24 32.483C241.137 32.8125 240.965 33.1023 240.724 33.3523C240.482 33.5994 240.184 33.7926 239.829 33.9318C239.474 34.0682 239.075 34.1364 238.632 34.1364ZM248.025 27.4545L245.604 34H244.581L242.161 27.4545H243.252L245.059 32.6705H245.127L246.934 27.4545H248.025ZM251.862 34.1364C251.231 34.1364 250.687 33.9972 250.23 33.7188C249.775 33.4375 249.425 33.0455 249.177 32.5426C248.933 32.0369 248.811 31.4489 248.811 30.7784C248.811 30.108 248.933 29.517 249.177 29.0057C249.425 28.4915 249.768 28.0909 250.209 27.804C250.652 27.5142 251.169 27.3693 251.76 27.3693C252.101 27.3693 252.437 27.4261 252.77 27.5398C253.102 27.6534 253.405 27.8381 253.677 28.0938C253.95 28.3466 254.167 28.6818 254.329 29.0994C254.491 29.517 254.572 30.0312 254.572 30.642V31.0682H249.527V30.1989H253.55C253.55 29.8295 253.476 29.5 253.328 29.2102C253.183 28.9205 252.976 28.6918 252.706 28.5241C252.439 28.3565 252.123 28.2727 251.76 28.2727C251.359 28.2727 251.013 28.3722 250.72 28.571C250.43 28.767 250.207 29.0227 250.051 29.3381C249.895 29.6534 249.817 29.9915 249.817 30.3523V30.9318C249.817 31.4261 249.902 31.8452 250.072 32.1889C250.246 32.5298 250.486 32.7898 250.792 32.9688C251.099 33.1449 251.456 33.233 251.862 33.233C252.126 33.233 252.365 33.196 252.578 33.1222C252.794 33.0455 252.98 32.9318 253.136 32.7812C253.292 32.6278 253.413 32.4375 253.498 32.2102L254.47 32.483C254.368 32.8125 254.196 33.1023 253.954 33.3523C253.713 33.5994 253.415 33.7926 253.059 33.9318C252.704 34.0682 252.305 34.1364 251.862 34.1364ZM256.102 34V27.4545H257.074V28.4432H257.142C257.261 28.1193 257.477 27.8565 257.79 27.6548C258.102 27.4531 258.454 27.3523 258.846 27.3523C258.92 27.3523 259.013 27.3537 259.123 27.3565C259.234 27.3594 259.318 27.3636 259.375 27.3693V28.392C259.341 28.3835 259.263 28.3707 259.14 28.3537C259.021 28.3338 258.895 28.3239 258.761 28.3239C258.443 28.3239 258.159 28.3906 257.909 28.5241C257.662 28.6548 257.466 28.8366 257.321 29.0696C257.179 29.2997 257.108 29.5625 257.108 29.858V34H256.102ZM261.414 36.4545C261.243 36.4545 261.091 36.4403 260.958 36.4119C260.824 36.3864 260.732 36.3608 260.681 36.3352L260.937 35.4489C261.181 35.5114 261.397 35.5341 261.584 35.517C261.772 35.5 261.938 35.4162 262.083 35.2656C262.231 35.1179 262.366 34.8778 262.488 34.5455L262.675 34.0341L260.255 27.4545H261.346L263.153 32.6705H263.221L265.028 27.4545H266.118L263.34 34.9545C263.215 35.2926 263.06 35.5724 262.876 35.794C262.691 36.0185 262.476 36.1847 262.232 36.2926C261.991 36.4006 261.718 36.4545 261.414 36.4545ZM269.683 34.1364C269.138 34.1364 268.656 33.9986 268.238 33.723C267.821 33.4446 267.494 33.0526 267.258 32.5469C267.023 32.0384 266.905 31.4375 266.905 30.7443C266.905 30.0568 267.023 29.4602 267.258 28.9545C267.494 28.4489 267.822 28.0582 268.243 27.7827C268.663 27.5071 269.149 27.3693 269.7 27.3693C270.126 27.3693 270.463 27.4403 270.71 27.5824C270.96 27.7216 271.15 27.8807 271.281 28.0597C271.415 28.2358 271.518 28.3807 271.592 28.4943H271.677V25.2727H272.683V34H271.711V32.9943H271.592C271.518 33.1136 271.413 33.2642 271.277 33.446C271.14 33.625 270.946 33.7855 270.693 33.9276C270.44 34.0668 270.104 34.1364 269.683 34.1364ZM269.819 33.233C270.223 33.233 270.564 33.1278 270.842 32.9176C271.121 32.7045 271.332 32.4105 271.477 32.0355C271.622 31.6577 271.694 31.2216 271.694 30.7273C271.694 30.2386 271.623 29.8111 271.481 29.4446C271.339 29.0753 271.129 28.7884 270.851 28.5838C270.572 28.3764 270.229 28.2727 269.819 28.2727C269.393 28.2727 269.038 28.3821 268.754 28.6009C268.473 28.8168 268.261 29.1108 268.119 29.483C267.98 29.8523 267.91 30.267 267.91 30.7273C267.91 31.1932 267.981 31.6165 268.123 31.9972C268.268 32.375 268.481 32.6761 268.763 32.9006C269.047 33.1222 269.399 33.233 269.819 33.233ZM276.591 34.1534C276.176 34.1534 275.8 34.0753 275.461 33.919C275.123 33.7599 274.855 33.5312 274.656 33.233C274.457 32.9318 274.358 32.5682 274.358 32.142C274.358 31.767 274.432 31.4631 274.579 31.2301C274.727 30.9943 274.925 30.8097 275.172 30.6761C275.419 30.5426 275.692 30.4432 275.99 30.3778C276.291 30.3097 276.594 30.2557 276.898 30.2159C277.295 30.1648 277.618 30.1264 277.865 30.1009C278.115 30.0724 278.297 30.0256 278.41 29.9602C278.527 29.8949 278.585 29.7812 278.585 29.6193V29.5852C278.585 29.1648 278.47 28.8381 278.24 28.6051C278.013 28.3722 277.667 28.2557 277.204 28.2557C276.724 28.2557 276.348 28.3608 276.075 28.571C275.802 28.7812 275.611 29.0057 275.5 29.2443L274.545 28.9034C274.716 28.5057 274.943 28.196 275.227 27.9744C275.514 27.75 275.827 27.5937 276.165 27.5057C276.506 27.4148 276.841 27.3693 277.17 27.3693C277.381 27.3693 277.622 27.3949 277.895 27.446C278.17 27.4943 278.436 27.5952 278.692 27.7486C278.95 27.902 279.165 28.1335 279.335 28.4432C279.506 28.7528 279.591 29.1676 279.591 29.6875V34H278.585V33.1136H278.534C278.466 33.2557 278.352 33.4077 278.193 33.5696C278.034 33.7315 277.822 33.8693 277.558 33.983C277.294 34.0966 276.971 34.1534 276.591 34.1534ZM276.744 33.25C277.142 33.25 277.477 33.1719 277.75 33.0156C278.025 32.8594 278.233 32.6577 278.372 32.4105C278.514 32.1634 278.585 31.9034 278.585 31.6307V30.7102C278.542 30.7614 278.449 30.8082 278.304 30.8509C278.162 30.8906 277.997 30.9261 277.809 30.9574C277.625 30.9858 277.444 31.0114 277.268 31.0341C277.095 31.054 276.954 31.071 276.846 31.0852C276.585 31.1193 276.341 31.1747 276.113 31.2514C275.889 31.3253 275.707 31.4375 275.568 31.5881C275.432 31.7358 275.363 31.9375 275.363 32.1932C275.363 32.5426 275.493 32.8068 275.751 32.9858C276.013 33.1619 276.344 33.25 276.744 33.25ZM281.84 36.4545C281.669 36.4545 281.517 36.4403 281.384 36.4119C281.25 36.3864 281.158 36.3608 281.107 36.3352L281.362 35.4489C281.607 35.5114 281.823 35.5341 282.01 35.517C282.198 35.5 282.364 35.4162 282.509 35.2656C282.656 35.1179 282.791 34.8778 282.914 34.5455L283.101 34.0341L280.681 27.4545H281.771L283.578 32.6705H283.646L285.453 27.4545H286.544L283.766 34.9545C283.641 35.2926 283.486 35.5724 283.301 35.794C283.117 36.0185 282.902 36.1847 282.658 36.2926C282.416 36.4006 282.144 36.4545 281.84 36.4545ZM293.906 34.1364C293.292 34.1364 292.764 33.9915 292.32 33.7017C291.877 33.4119 291.536 33.0128 291.298 32.5043C291.059 31.9957 290.94 31.4148 290.94 30.7614C290.94 30.0966 291.062 29.5099 291.306 29.0014C291.553 28.4901 291.897 28.0909 292.338 27.804C292.781 27.5142 293.298 27.3693 293.889 27.3693C294.349 27.3693 294.764 27.4545 295.133 27.625C295.502 27.7955 295.805 28.0341 296.041 28.3409C296.276 28.6477 296.423 29.0057 296.48 29.4148H295.474C295.397 29.1165 295.227 28.8523 294.963 28.6222C294.701 28.3892 294.349 28.2727 293.906 28.2727C293.514 28.2727 293.17 28.375 292.874 28.5795C292.582 28.7812 292.353 29.0668 292.188 29.4361C292.026 29.8026 291.945 30.233 291.945 30.7273C291.945 31.233 292.025 31.6733 292.184 32.0483C292.346 32.4233 292.573 32.7145 292.866 32.9219C293.161 33.1293 293.508 33.233 293.906 33.233C294.167 33.233 294.404 33.1875 294.617 33.0966C294.83 33.0057 295.011 32.875 295.159 32.7045C295.306 32.5341 295.411 32.3295 295.474 32.0909H296.48C296.423 32.4773 296.282 32.8253 296.058 33.1349C295.836 33.4418 295.542 33.6861 295.176 33.8679C294.812 34.0469 294.389 34.1364 293.906 34.1364ZM300.609 34.1364C300.018 34.1364 299.499 33.9957 299.053 33.7145C298.61 33.4332 298.264 33.0398 298.014 32.5341C297.767 32.0284 297.643 31.4375 297.643 30.7614C297.643 30.0795 297.767 29.4844 298.014 28.9759C298.264 28.4673 298.61 28.0724 299.053 27.7912C299.499 27.5099 300.018 27.3693 300.609 27.3693C301.2 27.3693 301.717 27.5099 302.16 27.7912C302.606 28.0724 302.953 28.4673 303.2 28.9759C303.45 29.4844 303.575 30.0795 303.575 30.7614C303.575 31.4375 303.45 32.0284 303.2 32.5341C302.953 33.0398 302.606 33.4332 302.16 33.7145C301.717 33.9957 301.2 34.1364 300.609 34.1364ZM300.609 33.233C301.058 33.233 301.427 33.1179 301.717 32.8878C302.007 32.6577 302.221 32.3551 302.36 31.9801C302.499 31.6051 302.569 31.1989 302.569 30.7614C302.569 30.3239 302.499 29.9162 302.36 29.5384C302.221 29.1605 302.007 28.8551 301.717 28.6222C301.427 28.3892 301.058 28.2727 300.609 28.2727C300.16 28.2727 299.791 28.3892 299.501 28.6222C299.211 28.8551 298.997 29.1605 298.857 29.5384C298.718 29.9162 298.649 30.3239 298.649 30.7614C298.649 31.1989 298.718 31.6051 298.857 31.9801C298.997 32.3551 299.211 32.6577 299.501 32.8878C299.791 33.1179 300.16 33.233 300.609 33.233ZM306.116 30.0625V34H305.11V27.4545H306.081V28.4773H306.167C306.32 28.1449 306.553 27.8778 306.866 27.6761C307.178 27.4716 307.581 27.3693 308.076 27.3693C308.519 27.3693 308.907 27.4602 309.239 27.642C309.572 27.821 309.83 28.0938 310.015 28.4602C310.199 28.8239 310.292 29.2841 310.292 29.8409V34H309.286V29.9091C309.286 29.3949 309.153 28.9943 308.885 28.7074C308.618 28.4176 308.252 28.2727 307.786 28.2727C307.465 28.2727 307.178 28.3423 306.925 28.4815C306.675 28.6207 306.478 28.8239 306.333 29.0909C306.188 29.358 306.116 29.6818 306.116 30.0625ZM317.247 27.4545L314.827 34H313.804L311.384 27.4545H312.475L314.281 32.6705H314.35L316.156 27.4545H317.247ZM321.085 34.1364C320.454 34.1364 319.91 33.9972 319.453 33.7188C318.998 33.4375 318.647 33.0455 318.4 32.5426C318.156 32.0369 318.034 31.4489 318.034 30.7784C318.034 30.108 318.156 29.517 318.4 29.0057C318.647 28.4915 318.991 28.0909 319.431 27.804C319.874 27.5142 320.392 27.3693 320.982 27.3693C321.323 27.3693 321.66 27.4261 321.992 27.5398C322.325 27.6534 322.627 27.8381 322.9 28.0938C323.173 28.3466 323.39 28.6818 323.552 29.0994C323.714 29.517 323.795 30.0312 323.795 30.642V31.0682H318.749V30.1989H322.772C322.772 29.8295 322.698 29.5 322.551 29.2102C322.406 28.9205 322.198 28.6918 321.928 28.5241C321.661 28.3565 321.346 28.2727 320.982 28.2727C320.582 28.2727 320.235 28.3722 319.943 28.571C319.653 28.767 319.43 29.0227 319.274 29.3381C319.117 29.6534 319.039 29.9915 319.039 30.3523V30.9318C319.039 31.4261 319.124 31.8452 319.295 32.1889C319.468 32.5298 319.708 32.7898 320.015 32.9688C320.322 33.1449 320.678 33.233 321.085 33.233C321.349 33.233 321.588 33.196 321.801 33.1222C322.017 33.0455 322.203 32.9318 322.359 32.7812C322.515 32.6278 322.636 32.4375 322.721 32.2102L323.693 32.483C323.59 32.8125 323.419 33.1023 323.177 33.3523C322.936 33.5994 322.637 33.7926 322.282 33.9318C321.927 34.0682 321.528 34.1364 321.085 34.1364ZM326.33 30.0625V34H325.325V27.4545H326.296V28.4773H326.382C326.535 28.1449 326.768 27.8778 327.08 27.6761C327.393 27.4716 327.796 27.3693 328.291 27.3693C328.734 27.3693 329.122 27.4602 329.454 27.642C329.786 27.821 330.045 28.0938 330.23 28.4602C330.414 28.8239 330.507 29.2841 330.507 29.8409V34H329.501V29.9091C329.501 29.3949 329.367 28.9943 329.1 28.7074C328.833 28.4176 328.467 28.2727 328.001 28.2727C327.68 28.2727 327.393 28.3423 327.14 28.4815C326.89 28.6207 326.693 28.8239 326.548 29.0909C326.403 29.358 326.33 29.6818 326.33 30.0625ZM332.344 34V27.4545H333.35V34H332.344ZM332.856 26.3636C332.66 26.3636 332.491 26.2969 332.349 26.1634C332.209 26.0298 332.14 25.8693 332.14 25.6818C332.14 25.4943 332.209 25.3338 332.349 25.2003C332.491 25.0668 332.66 25 332.856 25C333.052 25 333.219 25.0668 333.358 25.2003C333.501 25.3338 333.572 25.4943 333.572 25.6818C333.572 25.8693 333.501 26.0298 333.358 26.1634C333.219 26.2969 333.052 26.3636 332.856 26.3636ZM337.936 34.1364C337.306 34.1364 336.762 33.9972 336.304 33.7188C335.85 33.4375 335.499 33.0455 335.252 32.5426C335.007 32.0369 334.885 31.4489 334.885 30.7784C334.885 30.108 335.007 29.517 335.252 29.0057C335.499 28.4915 335.843 28.0909 336.283 27.804C336.726 27.5142 337.243 27.3693 337.834 27.3693C338.175 27.3693 338.512 27.4261 338.844 27.5398C339.176 27.6534 339.479 27.8381 339.752 28.0938C340.024 28.3466 340.242 28.6818 340.404 29.0994C340.566 29.517 340.646 30.0312 340.646 30.642V31.0682H335.601V30.1989H339.624C339.624 29.8295 339.55 29.5 339.402 29.2102C339.257 28.9205 339.05 28.6918 338.78 28.5241C338.513 28.3565 338.198 28.2727 337.834 28.2727C337.433 28.2727 337.087 28.3722 336.794 28.571C336.504 28.767 336.281 29.0227 336.125 29.3381C335.969 29.6534 335.891 29.9915 335.891 30.3523V30.9318C335.891 31.4261 335.976 31.8452 336.146 32.1889C336.32 32.5298 336.56 32.7898 336.867 32.9688C337.173 33.1449 337.53 33.233 337.936 33.233C338.2 33.233 338.439 33.196 338.652 33.1222C338.868 33.0455 339.054 32.9318 339.21 32.7812C339.367 32.6278 339.487 32.4375 339.573 32.2102L340.544 32.483C340.442 32.8125 340.27 33.1023 340.029 33.3523C339.787 33.5994 339.489 33.7926 339.134 33.9318C338.779 34.0682 338.379 34.1364 337.936 34.1364ZM343.182 30.0625V34H342.176V27.4545H343.148V28.4773H343.233C343.387 28.1449 343.619 27.8778 343.932 27.6761C344.244 27.4716 344.648 27.3693 345.142 27.3693C345.585 27.3693 345.973 27.4602 346.306 27.642C346.638 27.821 346.896 28.0938 347.081 28.4602C347.266 28.8239 347.358 29.2841 347.358 29.8409V34H346.352V29.9091C346.352 29.3949 346.219 28.9943 345.952 28.7074C345.685 28.4176 345.318 28.2727 344.852 28.2727C344.531 28.2727 344.244 28.3423 343.992 28.4815C343.742 28.6207 343.544 28.8239 343.399 29.0909C343.254 29.358 343.182 29.6818 343.182 30.0625ZM351.855 34.1364C351.241 34.1364 350.713 33.9915 350.27 33.7017C349.827 33.4119 349.486 33.0128 349.247 32.5043C349.008 31.9957 348.889 31.4148 348.889 30.7614C348.889 30.0966 349.011 29.5099 349.256 29.0014C349.503 28.4901 349.846 28.0909 350.287 27.804C350.73 27.5142 351.247 27.3693 351.838 27.3693C352.298 27.3693 352.713 27.4545 353.082 27.625C353.452 27.7955 353.754 28.0341 353.99 28.3409C354.226 28.6477 354.372 29.0057 354.429 29.4148H353.423C353.346 29.1165 353.176 28.8523 352.912 28.6222C352.65 28.3892 352.298 28.2727 351.855 28.2727C351.463 28.2727 351.119 28.375 350.824 28.5795C350.531 28.7812 350.302 29.0668 350.138 29.4361C349.976 29.8026 349.895 30.233 349.895 30.7273C349.895 31.233 349.974 31.6733 350.133 32.0483C350.295 32.4233 350.523 32.7145 350.815 32.9219C351.111 33.1293 351.457 33.233 351.855 33.233C352.116 33.233 352.354 33.1875 352.567 33.0966C352.78 33.0057 352.96 32.875 353.108 32.7045C353.256 32.5341 353.361 32.3295 353.423 32.0909H354.429C354.372 32.4773 354.231 32.8253 354.007 33.1349C353.785 33.4418 353.491 33.6861 353.125 33.8679C352.761 34.0469 352.338 34.1364 351.855 34.1364ZM358.643 34.1364C358.013 34.1364 357.469 33.9972 357.011 33.7188C356.557 33.4375 356.206 33.0455 355.959 32.5426C355.714 32.0369 355.592 31.4489 355.592 30.7784C355.592 30.108 355.714 29.517 355.959 29.0057C356.206 28.4915 356.55 28.0909 356.99 27.804C357.433 27.5142 357.95 27.3693 358.541 27.3693C358.882 27.3693 359.219 27.4261 359.551 27.5398C359.883 27.6534 360.186 27.8381 360.459 28.0938C360.731 28.3466 360.949 28.6818 361.111 29.0994C361.273 29.517 361.354 30.0312 361.354 30.642V31.0682H356.308V30.1989H360.331C360.331 29.8295 360.257 29.5 360.109 29.2102C359.964 28.9205 359.757 28.6918 359.487 28.5241C359.22 28.3565 358.905 28.2727 358.541 28.2727C358.14 28.2727 357.794 28.3722 357.501 28.571C357.211 28.767 356.988 29.0227 356.832 29.3381C356.676 29.6534 356.598 29.9915 356.598 30.3523V30.9318C356.598 31.4261 356.683 31.8452 356.854 32.1889C357.027 32.5298 357.267 32.7898 357.574 32.9688C357.881 33.1449 358.237 33.233 358.643 33.233C358.907 33.233 359.146 33.196 359.359 33.1222C359.575 33.0455 359.761 32.9318 359.917 32.7812C360.074 32.6278 360.194 32.4375 360.28 32.2102L361.251 32.483C361.149 32.8125 360.977 33.1023 360.736 33.3523C360.494 33.5994 360.196 33.7926 359.841 33.9318C359.486 34.0682 359.086 34.1364 358.643 34.1364ZM363.616 34.0682C363.406 34.0682 363.226 33.9929 363.075 33.8423C362.925 33.6918 362.849 33.5114 362.849 33.3011C362.849 33.0909 362.925 32.9105 363.075 32.7599C363.226 32.6094 363.406 32.5341 363.616 32.5341C363.827 32.5341 364.007 32.6094 364.157 32.7599C364.308 32.9105 364.383 33.0909 364.383 33.3011C364.383 33.4403 364.348 33.5682 364.277 33.6847C364.209 33.8011 364.116 33.8949 364 33.9659C363.886 34.0341 363.758 34.0682 363.616 34.0682Z" fill="black"/>
</svg>
