<svg width="385" height="35" viewBox="0 0 385 35" fill="none" xmlns="http://www.w3.org/2000/svg">
<path d="M1.16832 0.338702V4.07872H-0.000437906V0.338702H1.16832ZM3.88833 0.338702V4.07872H2.71957V0.338702H3.88833ZM5.55115 11.2188H4.16989L8.16491 0.338702H9.52492L13.5199 11.2188H12.1387L8.88741 2.05996H8.80241L5.55115 11.2188ZM6.06115 6.96873H11.6287V8.13749H6.06115V6.96873ZM18.3596 11.3888C17.5946 11.3888 16.9359 11.2081 16.3834 10.8469C15.8309 10.4856 15.4059 9.98802 15.1084 9.35405C14.8109 8.72009 14.6621 7.99582 14.6621 7.18123C14.6621 6.35248 14.8144 5.62112 15.119 4.98716C15.4271 4.34966 15.8557 3.85205 16.4046 3.49434C16.9571 3.13309 17.6017 2.95246 18.3384 2.95246C18.9121 2.95246 19.4292 3.05871 19.8897 3.27122C20.3501 3.48372 20.7273 3.78122 21.0212 4.16372C21.3152 4.54622 21.4976 4.99247 21.5684 5.50248H20.3147C20.219 5.1306 20.0065 4.80122 19.6772 4.51435C19.3513 4.22393 18.9121 4.07872 18.3596 4.07872C17.8709 4.07872 17.4423 4.20622 17.074 4.46122C16.7092 4.71268 16.4241 5.06862 16.2187 5.52904C16.0168 5.98591 15.9159 6.52248 15.9159 7.13873C15.9159 7.76915 16.0151 8.31811 16.2134 8.78561C16.4153 9.25312 16.6986 9.61614 17.0634 9.87468C17.4317 10.1332 17.8638 10.2625 18.3596 10.2625C18.6855 10.2625 18.9812 10.2058 19.2468 10.0925C19.5125 9.97916 19.7374 9.81624 19.9215 9.60374C20.1057 9.39124 20.2367 9.13624 20.3147 8.83874H21.5684C21.4976 9.32041 21.3223 9.75426 21.0425 10.1403C20.7662 10.5228 20.3997 10.8274 19.9428 11.0541C19.4894 11.2772 18.9617 11.3888 18.3596 11.3888ZM26.7162 11.3888C25.9512 11.3888 25.2925 11.2081 24.74 10.8469C24.1875 10.4856 23.7625 9.98802 23.465 9.35405C23.1675 8.72009 23.0187 7.99582 23.0187 7.18123C23.0187 6.35248 23.171 5.62112 23.4756 4.98716C23.7837 4.34966 24.2123 3.85205 24.7612 3.49434C25.3137 3.13309 25.9583 2.95246 26.695 2.95246C27.2687 2.95246 27.7858 3.05871 28.2462 3.27122C28.7067 3.48372 29.0839 3.78122 29.3778 4.16372C29.6718 4.54622 29.8542 4.99247 29.925 5.50248H28.6713C28.5756 5.1306 28.3631 4.80122 28.0337 4.51435C27.7079 4.22393 27.2687 4.07872 26.7162 4.07872C26.2275 4.07872 25.7989 4.20622 25.4306 4.46122C25.0658 4.71268 24.7807 5.06862 24.5753 5.52904C24.3734 5.98591 24.2725 6.52248 24.2725 7.13873C24.2725 7.76915 24.3716 8.31811 24.57 8.78561C24.7719 9.25312 25.0552 9.61614 25.42 9.87468C25.7883 10.1332 26.2204 10.2625 26.7162 10.2625C27.0421 10.2625 27.3378 10.2058 27.6034 10.0925C27.8691 9.97916 28.094 9.81624 28.2781 9.60374C28.4623 9.39124 28.5933 9.13624 28.6713 8.83874H29.925C29.8542 9.32041 29.6789 9.75426 29.3991 10.1403C29.1228 10.5228 28.7563 10.8274 28.2994 11.0541C27.846 11.2772 27.3183 11.3888 26.7162 11.3888ZM35.1791 11.3888C34.3928 11.3888 33.7146 11.2152 33.1444 10.8681C32.5777 10.5175 32.1403 10.0287 31.8322 9.40187C31.5276 8.77145 31.3753 8.03832 31.3753 7.20248C31.3753 6.36665 31.5276 5.62998 31.8322 4.99247C32.1403 4.35143 32.5689 3.85205 33.1178 3.49434C33.6703 3.13309 34.3149 2.95246 35.0516 2.95246C35.4766 2.95246 35.8963 3.0233 36.3107 3.16496C36.725 3.30663 37.1022 3.53684 37.4422 3.85559C37.7822 4.1708 38.0532 4.58872 38.255 5.10935C38.4569 5.62998 38.5579 6.27102 38.5579 7.03248V7.56373H32.2678V6.47998H37.2829C37.2829 6.01956 37.1908 5.60873 37.0066 5.24747C36.826 4.88622 36.5674 4.60112 36.231 4.39216C35.8981 4.1832 35.5049 4.07872 35.0516 4.07872C34.5522 4.07872 34.1201 4.20268 33.7553 4.4506C33.3941 4.69497 33.1161 5.01372 32.9213 5.40685C32.7265 5.79998 32.6291 6.22144 32.6291 6.67123V7.39373C32.6291 8.00999 32.7353 8.53238 32.9478 8.96093C33.1639 9.38593 33.4631 9.70999 33.8456 9.93312C34.2281 10.1527 34.6726 10.2625 35.1791 10.2625C35.5085 10.2625 35.806 10.2165 36.0716 10.1244C36.3408 10.0287 36.5727 9.88708 36.7675 9.69937C36.9623 9.50812 37.1128 9.27082 37.2191 8.98749L38.4304 9.32749C38.3029 9.73833 38.0886 10.0996 37.7875 10.4112C37.4865 10.7194 37.1146 10.9602 36.6719 11.1337C36.2292 11.3038 35.7316 11.3888 35.1791 11.3888ZM46.2451 4.88622L45.1188 5.20497C45.048 5.01726 44.9435 4.83487 44.8054 4.65778C44.6708 4.47716 44.4866 4.32841 44.2529 4.21153C44.0191 4.09466 43.7199 4.03622 43.3551 4.03622C42.8557 4.03622 42.4395 4.15132 42.1066 4.38153C41.7772 4.6082 41.6126 4.89685 41.6126 5.24747C41.6126 5.55914 41.7259 5.80529 41.9526 5.98591C42.1792 6.16654 42.5334 6.31706 43.0151 6.43748L44.2263 6.73498C44.9559 6.91206 45.4996 7.183 45.8573 7.5478C46.215 7.90905 46.3938 8.37478 46.3938 8.94499C46.3938 9.41249 46.2592 9.83041 45.9901 10.1987C45.7245 10.5671 45.3526 10.8575 44.8744 11.07C44.3963 11.2825 43.8403 11.3888 43.2063 11.3888C42.374 11.3888 41.6852 11.2081 41.1397 10.8469C40.5943 10.4856 40.249 9.95791 40.1038 9.26374L41.2938 8.96624C41.4071 9.40541 41.6214 9.73479 41.9366 9.95437C42.2554 10.174 42.6715 10.2837 43.1851 10.2837C43.7694 10.2837 44.2334 10.1598 44.5769 9.91187C44.924 9.66041 45.0976 9.35937 45.0976 9.00874C45.0976 8.72541 44.9984 8.48811 44.8001 8.29686C44.6017 8.10207 44.2972 7.95686 43.8863 7.86124L42.5263 7.54248C41.779 7.3654 41.2301 7.09092 40.8794 6.71904C40.5323 6.34362 40.3588 5.87435 40.3588 5.31122C40.3588 4.85081 40.4881 4.44351 40.7466 4.08934C41.0087 3.73518 41.3646 3.45715 41.8144 3.25528C42.2678 3.0534 42.7813 2.95246 43.3551 2.95246C44.1626 2.95246 44.7965 3.12955 45.257 3.48372C45.7209 3.83788 46.0503 4.30539 46.2451 4.88622ZM54.0611 4.88622L52.9349 5.20497C52.864 5.01726 52.7596 4.83487 52.6214 4.65778C52.4868 4.47716 52.3027 4.32841 52.0689 4.21153C51.8352 4.09466 51.5359 4.03622 51.1711 4.03622C50.6717 4.03622 50.2556 4.15132 49.9227 4.38153C49.5933 4.6082 49.4286 4.89685 49.4286 5.24747C49.4286 5.55914 49.5419 5.80529 49.7686 5.98591C49.9953 6.16654 50.3494 6.31706 50.8311 6.43748L52.0424 6.73498C52.7719 6.91206 53.3156 7.183 53.6733 7.5478C54.031 7.90905 54.2099 8.37478 54.2099 8.94499C54.2099 9.41249 54.0753 9.83041 53.8061 10.1987C53.5405 10.5671 53.1686 10.8575 52.6905 11.07C52.2124 11.2825 51.6563 11.3888 51.0224 11.3888C50.1901 11.3888 49.5012 11.2081 48.9558 10.8469C48.4104 10.4856 48.0651 9.95791 47.9198 9.26374L49.1098 8.96624C49.2232 9.40541 49.4375 9.73479 49.7527 9.95437C50.0714 10.174 50.4876 10.2837 51.0011 10.2837C51.5855 10.2837 52.0494 10.1598 52.393 9.91187C52.7401 9.66041 52.9136 9.35937 52.9136 9.00874C52.9136 8.72541 52.8144 8.48811 52.6161 8.29686C52.4178 8.10207 52.1132 7.95686 51.7024 7.86124L50.3424 7.54248C49.5951 7.3654 49.0461 7.09092 48.6955 6.71904C48.3484 6.34362 48.1748 5.87435 48.1748 5.31122C48.1748 4.85081 48.3041 4.44351 48.5627 4.08934C48.8247 3.73518 49.1807 3.45715 49.6305 3.25528C50.0838 3.0534 50.5974 2.95246 51.1711 2.95246C51.9786 2.95246 52.6126 3.12955 53.073 3.48372C53.537 3.83788 53.8663 4.30539 54.0611 4.88622ZM57.9672 9.73124L57.8822 10.305C57.822 10.7087 57.7299 11.1408 57.6059 11.6013C57.4855 12.0617 57.3598 12.4955 57.2287 12.9028C57.0977 13.3101 56.9897 13.6342 56.9047 13.875H55.9484C55.9944 13.6483 56.0547 13.3491 56.129 12.9772C56.2034 12.6053 56.2778 12.1892 56.3522 11.7288C56.4301 11.2719 56.4938 10.8044 56.5434 10.3262L56.6072 9.73124H57.9672ZM64.6676 11.2188V0.338702H65.9213V4.35497H66.0276C66.1197 4.2133 66.2472 4.03268 66.4101 3.81309C66.5765 3.58997 66.8138 3.39163 67.122 3.21809C67.4336 3.04101 67.8551 2.95246 68.3863 2.95246C69.0734 2.95246 69.6791 3.12424 70.2032 3.46778C70.7274 3.81132 71.1365 4.2983 71.4304 4.92872C71.7244 5.55914 71.8714 6.3029 71.8714 7.15998C71.8714 8.02415 71.7244 8.77322 71.4304 9.40718C71.1365 10.0376 70.7292 10.5264 70.2085 10.8734C69.6879 11.217 69.0876 11.3888 68.4076 11.3888C67.8834 11.3888 67.4637 11.302 67.1485 11.1284C66.8333 10.9514 66.5907 10.7512 66.4207 10.5281C66.2507 10.3015 66.1197 10.1137 66.0276 9.96499H65.8788V11.2188H64.6676ZM65.9001 7.13873C65.9001 7.75498 65.9904 8.29863 66.171 8.76968C66.3517 9.23718 66.6155 9.60374 66.9626 9.86937C67.3097 10.1315 67.7347 10.2625 68.2376 10.2625C68.7618 10.2625 69.1992 10.1244 69.5498 9.84812C69.904 9.56833 70.1696 9.19291 70.3467 8.72186C70.5273 8.24728 70.6176 7.71957 70.6176 7.13873C70.6176 6.56498 70.5291 6.04789 70.352 5.58748C70.1784 5.12352 69.9146 4.75695 69.5604 4.48778C69.2098 4.21507 68.7688 4.07872 68.2376 4.07872C67.7276 4.07872 67.2991 4.20799 66.952 4.46653C66.6049 4.72153 66.3428 5.07924 66.1657 5.53966C65.9886 5.99654 65.9001 6.52956 65.9001 7.13873ZM73.7892 11.2188V3.05871H75.0004V4.29122H75.0854C75.2342 3.88747 75.5034 3.55986 75.8929 3.3084C76.2825 3.05694 76.7217 2.93121 77.2104 2.93121C77.3025 2.93121 77.4176 2.93298 77.5558 2.93653C77.6939 2.94007 77.7984 2.94538 77.8692 2.95246V4.22747C77.8267 4.21684 77.7293 4.20091 77.577 4.17966C77.4283 4.15486 77.2707 4.14247 77.1042 4.14247C76.7075 4.14247 76.3534 4.2257 76.0417 4.39216C75.7336 4.55508 75.4892 4.78174 75.3086 5.07216C75.1315 5.35904 75.0429 5.68664 75.0429 6.05498V11.2188H73.7892ZM82.422 11.3888C81.6854 11.3888 81.039 11.2134 80.483 10.8628C79.9305 10.5122 79.4984 10.0217 79.1867 9.39124C78.8786 8.76082 78.7245 8.02415 78.7245 7.18123C78.7245 6.33123 78.8786 5.58925 79.1867 4.95529C79.4984 4.32132 79.9305 3.82903 80.483 3.4784C81.039 3.12778 81.6854 2.95246 82.422 2.95246C83.1587 2.95246 83.8033 3.12778 84.3558 3.4784C84.9118 3.82903 85.3439 4.32132 85.652 4.95529C85.9637 5.58925 86.1195 6.33123 86.1195 7.18123C86.1195 8.02415 85.9637 8.76082 85.652 9.39124C85.3439 10.0217 84.9118 10.5122 84.3558 10.8628C83.8033 11.2134 83.1587 11.3888 82.422 11.3888ZM82.422 10.2625C82.9816 10.2625 83.442 10.1191 83.8033 9.83218C84.1645 9.54531 84.4319 9.16812 84.6055 8.70061C84.779 8.23311 84.8658 7.72665 84.8658 7.18123C84.8658 6.63581 84.779 6.12758 84.6055 5.65654C84.4319 5.18549 84.1645 4.80476 83.8033 4.51435C83.442 4.22393 82.9816 4.07872 82.422 4.07872C81.8624 4.07872 81.402 4.22393 81.0408 4.51435C80.6795 4.80476 80.4121 5.18549 80.2386 5.65654C80.065 6.12758 79.9783 6.63581 79.9783 7.18123C79.9783 7.72665 80.065 8.23311 80.2386 8.70061C80.4121 9.16812 80.6795 9.54531 81.0408 9.83218C81.402 10.1191 81.8624 10.2625 82.422 10.2625ZM89.6046 11.2188L87.1183 3.05871H88.4358L90.1996 9.30624H90.2846L92.0271 3.05871H93.3658L95.0871 9.28499H95.1721L96.9358 3.05871H98.2534L95.7671 11.2188H94.5346L92.7496 4.94997H92.6221L90.8371 11.2188H89.6046ZM105.691 4.88622L104.565 5.20497C104.494 5.01726 104.389 4.83487 104.251 4.65778C104.117 4.47716 103.932 4.32841 103.699 4.21153C103.465 4.09466 103.166 4.03622 102.801 4.03622C102.301 4.03622 101.885 4.15132 101.552 4.38153C101.223 4.6082 101.058 4.89685 101.058 5.24747C101.058 5.55914 101.172 5.80529 101.398 5.98591C101.625 6.16654 101.979 6.31706 102.461 6.43748L103.672 6.73498C104.402 6.91206 104.945 7.183 105.303 7.5478C105.661 7.90905 105.84 8.37478 105.84 8.94499C105.84 9.41249 105.705 9.83041 105.436 10.1987C105.17 10.5671 104.798 10.8575 104.32 11.07C103.842 11.2825 103.286 11.3888 102.652 11.3888C101.82 11.3888 101.131 11.2081 100.586 10.8469C100.04 10.4856 99.6948 9.95791 99.5496 9.26374L100.74 8.96624C100.853 9.40541 101.067 9.73479 101.382 9.95437C101.701 10.174 102.117 10.2837 102.631 10.2837C103.215 10.2837 103.679 10.1598 104.023 9.91187C104.37 9.66041 104.543 9.35937 104.543 9.00874C104.543 8.72541 104.444 8.48811 104.246 8.29686C104.048 8.10207 103.743 7.95686 103.332 7.86124L101.972 7.54248C101.225 7.3654 100.676 7.09092 100.325 6.71904C99.9781 6.34362 99.8046 5.87435 99.8046 5.31122C99.8046 4.85081 99.9339 4.44351 100.192 4.08934C100.455 3.73518 100.81 3.45715 101.26 3.25528C101.714 3.0534 102.227 2.95246 102.801 2.95246C103.608 2.95246 104.242 3.12955 104.703 3.48372C105.167 3.83788 105.496 4.30539 105.691 4.88622ZM111.148 11.3888C110.362 11.3888 109.684 11.2152 109.113 10.8681C108.547 10.5175 108.109 10.0287 107.801 9.40187C107.497 8.77145 107.344 8.03832 107.344 7.20248C107.344 6.36665 107.497 5.62998 107.801 4.99247C108.109 4.35143 108.538 3.85205 109.087 3.49434C109.639 3.13309 110.284 2.95246 111.021 2.95246C111.446 2.95246 111.865 3.0233 112.28 3.16496C112.694 3.30663 113.071 3.53684 113.411 3.85559C113.751 4.1708 114.022 4.58872 114.224 5.10935C114.426 5.62998 114.527 6.27102 114.527 7.03248V7.56373H108.237V6.47998H113.252C113.252 6.01956 113.16 5.60873 112.976 5.24747C112.795 4.88622 112.537 4.60112 112.2 4.39216C111.867 4.1832 111.474 4.07872 111.021 4.07872C110.521 4.07872 110.089 4.20268 109.724 4.4506C109.363 4.69497 109.085 5.01372 108.89 5.40685C108.696 5.79998 108.598 6.22144 108.598 6.67123V7.39373C108.598 8.00999 108.704 8.53238 108.917 8.96093C109.133 9.38593 109.432 9.70999 109.815 9.93312C110.197 10.1527 110.642 10.2625 111.148 10.2625C111.478 10.2625 111.775 10.2165 112.041 10.1244C112.31 10.0287 112.542 9.88708 112.737 9.69937C112.931 9.50812 113.082 9.27082 113.188 8.98749L114.399 9.32749C114.272 9.73833 114.058 10.0996 113.757 10.4112C113.456 10.7194 113.084 10.9602 112.641 11.1337C112.198 11.3038 111.701 11.3888 111.148 11.3888ZM118.304 9.73124L118.219 10.305C118.159 10.7087 118.067 11.1408 117.943 11.6013C117.822 12.0617 117.697 12.4955 117.566 12.9028C117.435 13.3101 117.327 13.6342 117.242 13.875H116.285C116.331 13.6483 116.392 13.3491 116.466 12.9772C116.54 12.6053 116.615 12.1892 116.689 11.7288C116.767 11.2719 116.831 10.8044 116.88 10.3262L116.944 9.73124H118.304ZM127.236 11.41C126.719 11.41 126.249 11.3126 125.828 11.1178C125.407 10.9195 125.072 10.6344 124.824 10.2625C124.576 9.88708 124.452 9.43374 124.452 8.90249C124.452 8.43499 124.544 8.05603 124.728 7.76561C124.912 7.47165 125.159 7.24144 125.467 7.07498C125.775 6.90852 126.115 6.78456 126.487 6.70311C126.862 6.61811 127.239 6.55081 127.618 6.50123C128.114 6.43748 128.516 6.38967 128.824 6.35779C129.136 6.32237 129.363 6.26394 129.504 6.18248C129.649 6.10102 129.722 5.95935 129.722 5.75748V5.71498C129.722 5.19081 129.579 4.78351 129.292 4.4931C129.008 4.20268 128.578 4.05747 128.001 4.05747C127.402 4.05747 126.933 4.18851 126.593 4.4506C126.253 4.71268 126.014 4.99247 125.876 5.28997L124.686 4.86497C124.898 4.36914 125.182 3.98309 125.536 3.70684C125.894 3.42705 126.283 3.23226 126.705 3.12246C127.13 3.00913 127.547 2.95246 127.958 2.95246C128.22 2.95246 128.521 2.98434 128.861 3.04809C129.205 3.1083 129.536 3.23403 129.855 3.42528C130.177 3.61653 130.445 3.90518 130.657 4.29122C130.87 4.67726 130.976 5.19435 130.976 5.84248V11.2188H129.722V10.1137H129.658C129.573 10.2908 129.432 10.4803 129.233 10.6822C129.035 10.8841 128.771 11.0558 128.442 11.1975C128.112 11.3392 127.71 11.41 127.236 11.41ZM127.427 10.2837C127.923 10.2837 128.341 10.1863 128.681 9.99156C129.024 9.79676 129.283 9.54531 129.456 9.23718C129.634 8.92905 129.722 8.60499 129.722 8.26499V7.11748C129.669 7.18123 129.552 7.23967 129.371 7.2928C129.194 7.34238 128.989 7.38665 128.755 7.42561C128.525 7.46103 128.3 7.4929 128.08 7.52123C127.864 7.54603 127.689 7.56728 127.555 7.58498C127.229 7.62748 126.924 7.69655 126.641 7.79217C126.361 7.88426 126.134 8.02415 125.961 8.21186C125.791 8.39603 125.706 8.64749 125.706 8.96624C125.706 9.40187 125.867 9.73124 126.189 9.95437C126.515 10.174 126.928 10.2837 127.427 10.2837ZM134.518 6.30998V11.2188H133.264V3.05871H134.475V4.33372H134.582C134.773 3.91934 135.063 3.58643 135.453 3.33497C135.843 3.07996 136.345 2.95246 136.962 2.95246C137.514 2.95246 137.998 3.0658 138.412 3.29247C138.826 3.51559 139.149 3.85559 139.379 4.31247C139.609 4.76581 139.724 5.33956 139.724 6.03373V11.2188H138.47V6.11873C138.47 5.47768 138.304 4.97831 137.971 4.6206C137.638 4.25934 137.181 4.07872 136.6 4.07872C136.2 4.07872 135.843 4.16549 135.527 4.33903C135.216 4.51257 134.97 4.76581 134.789 5.09872C134.608 5.43164 134.518 5.83539 134.518 6.30998ZM145.097 11.3888C144.417 11.3888 143.816 11.217 143.296 10.8734C142.775 10.5264 142.368 10.0376 142.074 9.40718C141.78 8.77322 141.633 8.02415 141.633 7.15998C141.633 6.3029 141.78 5.55914 142.074 4.92872C142.368 4.2983 142.777 3.81132 143.301 3.46778C143.825 3.12424 144.431 2.95246 145.118 2.95246C145.649 2.95246 146.069 3.04101 146.377 3.21809C146.689 3.39163 146.926 3.58997 147.089 3.81309C147.255 4.03268 147.384 4.2133 147.477 4.35497H147.583V0.338702H148.837V11.2188H147.625V9.96499H147.477C147.384 10.1137 147.253 10.3015 147.083 10.5281C146.913 10.7512 146.671 10.9514 146.356 11.1284C146.04 11.302 145.621 11.3888 145.097 11.3888ZM145.267 10.2625C145.769 10.2625 146.194 10.1315 146.542 9.86937C146.889 9.60374 147.152 9.23718 147.333 8.76968C147.514 8.29863 147.604 7.75498 147.604 7.13873C147.604 6.52956 147.515 5.99654 147.338 5.53966C147.161 5.07924 146.899 4.72153 146.552 4.46653C146.205 4.20799 145.777 4.07872 145.267 4.07872C144.735 4.07872 144.293 4.21507 143.938 4.48778C143.588 4.75695 143.324 5.12352 143.147 5.58748C142.973 6.04789 142.887 6.56498 142.887 7.13873C142.887 7.71957 142.975 8.24728 143.152 8.72186C143.333 9.19291 143.598 9.56833 143.949 9.84812C144.303 10.1244 144.742 10.2625 145.267 10.2625ZM158.596 11.3888C157.916 11.3888 157.315 11.217 156.795 10.8734C156.274 10.5264 155.867 10.0376 155.573 9.40718C155.279 8.77322 155.132 8.02415 155.132 7.15998C155.132 6.3029 155.279 5.55914 155.573 4.92872C155.867 4.2983 156.276 3.81132 156.8 3.46778C157.324 3.12424 157.93 2.95246 158.617 2.95246C159.148 2.95246 159.568 3.04101 159.876 3.21809C160.188 3.39163 160.425 3.58997 160.588 3.81309C160.754 4.03268 160.884 4.2133 160.976 4.35497H161.082V0.338702H162.336V11.2188H161.124V9.96499H160.976C160.884 10.1137 160.753 10.3015 160.583 10.5281C160.413 10.7512 160.17 10.9514 159.855 11.1284C159.539 11.302 159.12 11.3888 158.596 11.3888ZM158.766 10.2625C159.269 10.2625 159.694 10.1315 160.041 9.86937C160.388 9.60374 160.652 9.23718 160.832 8.76968C161.013 8.29863 161.103 7.75498 161.103 7.13873C161.103 6.52956 161.015 5.99654 160.838 5.53966C160.66 5.07924 160.398 4.72153 160.051 4.46653C159.704 4.20799 159.276 4.07872 158.766 4.07872C158.234 4.07872 157.792 4.21507 157.438 4.48778C157.087 4.75695 156.823 5.12352 156.646 5.58748C156.472 6.04789 156.386 6.56498 156.386 7.13873C156.386 7.71957 156.474 8.24728 156.651 8.72186C156.832 9.19291 157.098 9.56833 157.448 9.84812C157.802 10.1244 158.241 10.2625 158.766 10.2625ZM164.806 11.2188V3.05871H166.06V11.2188H164.806ZM165.443 1.69871C165.199 1.69871 164.988 1.61548 164.811 1.44902C164.638 1.28256 164.551 1.08246 164.551 0.848705C164.551 0.614954 164.638 0.414849 164.811 0.24839C164.988 0.0819307 165.199 -0.00129867 165.443 -0.00129867C165.688 -0.00129867 165.897 0.0819307 166.07 0.24839C166.247 0.414849 166.336 0.614954 166.336 0.848705C166.336 1.08246 166.247 1.28256 166.07 1.44902C165.897 1.61548 165.688 1.69871 165.443 1.69871ZM174.136 4.88622L173.01 5.20497C172.939 5.01726 172.835 4.83487 172.696 4.65778C172.562 4.47716 172.378 4.32841 172.144 4.21153C171.91 4.09466 171.611 4.03622 171.246 4.03622C170.747 4.03622 170.331 4.15132 169.998 4.38153C169.668 4.6082 169.504 4.89685 169.504 5.24747C169.504 5.55914 169.617 5.80529 169.844 5.98591C170.07 6.16654 170.424 6.31706 170.906 6.43748L172.117 6.73498C172.847 6.91206 173.391 7.183 173.748 7.5478C174.106 7.90905 174.285 8.37478 174.285 8.94499C174.285 9.41249 174.15 9.83041 173.881 10.1987C173.615 10.5671 173.244 10.8575 172.765 11.07C172.287 11.2825 171.731 11.3888 171.097 11.3888C170.265 11.3888 169.576 11.2081 169.031 10.8469C168.485 10.4856 168.14 9.95791 167.995 9.26374L169.185 8.96624C169.298 9.40541 169.512 9.73479 169.828 9.95437C170.146 10.174 170.563 10.2837 171.076 10.2837C171.66 10.2837 172.124 10.1598 172.468 9.91187C172.815 9.66041 172.989 9.35937 172.989 9.00874C172.989 8.72541 172.889 8.48811 172.691 8.29686C172.493 8.10207 172.188 7.95686 171.777 7.86124L170.417 7.54248C169.67 7.3654 169.121 7.09092 168.77 6.71904C168.423 6.34362 168.25 5.87435 168.25 5.31122C168.25 4.85081 168.379 4.44351 168.638 4.08934C168.9 3.73518 169.256 3.45715 169.705 3.25528C170.159 3.0534 170.672 2.95246 171.246 2.95246C172.054 2.95246 172.688 3.12955 173.148 3.48372C173.612 3.83788 173.941 4.30539 174.136 4.88622ZM179.487 11.3888C178.722 11.3888 178.063 11.2081 177.511 10.8469C176.958 10.4856 176.533 9.98802 176.236 9.35405C175.938 8.72009 175.79 7.99582 175.79 7.18123C175.79 6.35248 175.942 5.62112 176.246 4.98716C176.555 4.34966 176.983 3.85205 177.532 3.49434C178.085 3.13309 178.729 2.95246 179.466 2.95246C180.04 2.95246 180.557 3.05871 181.017 3.27122C181.478 3.48372 181.855 3.78122 182.149 4.16372C182.443 4.54622 182.625 4.99247 182.696 5.50248H181.442C181.347 5.1306 181.134 4.80122 180.805 4.51435C180.479 4.22393 180.04 4.07872 179.487 4.07872C178.998 4.07872 178.57 4.20622 178.202 4.46122C177.837 4.71268 177.552 5.06862 177.346 5.52904C177.144 5.98591 177.043 6.52248 177.043 7.13873C177.043 7.76915 177.143 8.31811 177.341 8.78561C177.543 9.25312 177.826 9.61614 178.191 9.87468C178.559 10.1332 178.991 10.2625 179.487 10.2625C179.813 10.2625 180.109 10.2058 180.374 10.0925C180.64 9.97916 180.865 9.81624 181.049 9.60374C181.233 9.39124 181.364 9.13624 181.442 8.83874H182.696C182.625 9.32041 182.45 9.75426 182.17 10.1403C181.894 10.5228 181.527 10.8274 181.07 11.0541C180.617 11.2772 180.089 11.3888 179.487 11.3888ZM187.844 11.3888C187.107 11.3888 186.461 11.2134 185.905 10.8628C185.352 10.5122 184.92 10.0217 184.608 9.39124C184.3 8.76082 184.146 8.02415 184.146 7.18123C184.146 6.33123 184.3 5.58925 184.608 4.95529C184.92 4.32132 185.352 3.82903 185.905 3.4784C186.461 3.12778 187.107 2.95246 187.844 2.95246C188.58 2.95246 189.225 3.12778 189.777 3.4784C190.334 3.82903 190.766 4.32132 191.074 4.95529C191.385 5.58925 191.541 6.33123 191.541 7.18123C191.541 8.02415 191.385 8.76082 191.074 9.39124C190.766 10.0217 190.334 10.5122 189.777 10.8628C189.225 11.2134 188.58 11.3888 187.844 11.3888ZM187.844 10.2625C188.403 10.2625 188.864 10.1191 189.225 9.83218C189.586 9.54531 189.854 9.16812 190.027 8.70061C190.201 8.23311 190.287 7.72665 190.287 7.18123C190.287 6.63581 190.201 6.12758 190.027 5.65654C189.854 5.18549 189.586 4.80476 189.225 4.51435C188.864 4.22393 188.403 4.07872 187.844 4.07872C187.284 4.07872 186.824 4.22393 186.462 4.51435C186.101 4.80476 185.834 5.18549 185.66 5.65654C185.487 6.12758 185.4 6.63581 185.4 7.18123C185.4 7.72665 185.487 8.23311 185.66 8.70061C185.834 9.16812 186.101 9.54531 186.462 9.83218C186.824 10.1191 187.284 10.2625 187.844 10.2625ZM199.835 3.05871L196.818 11.2188H195.543L192.525 3.05871H193.885L196.138 9.56124H196.223L198.475 3.05871H199.835ZM204.619 11.3888C203.833 11.3888 203.155 11.2152 202.585 10.8681C202.018 10.5175 201.581 10.0287 201.272 9.40187C200.968 8.77145 200.816 8.03832 200.816 7.20248C200.816 6.36665 200.968 5.62998 201.272 4.99247C201.581 4.35143 202.009 3.85205 202.558 3.49434C203.111 3.13309 203.755 2.95246 204.492 2.95246C204.917 2.95246 205.337 3.0233 205.751 3.16496C206.165 3.30663 206.542 3.53684 206.882 3.85559C207.222 4.1708 207.493 4.58872 207.695 5.10935C207.897 5.62998 207.998 6.27102 207.998 7.03248V7.56373H201.708V6.47998H206.723C206.723 6.01956 206.631 5.60873 206.447 5.24747C206.266 4.88622 206.008 4.60112 205.671 4.39216C205.338 4.1832 204.945 4.07872 204.492 4.07872C203.992 4.07872 203.56 4.20268 203.196 4.4506C202.834 4.69497 202.556 5.01372 202.362 5.40685C202.167 5.79998 202.069 6.22144 202.069 6.67123V7.39373C202.069 8.00999 202.176 8.53238 202.388 8.96093C202.604 9.38593 202.903 9.70999 203.286 9.93312C203.668 10.1527 204.113 10.2625 204.619 10.2625C204.949 10.2625 205.246 10.2165 205.512 10.1244C205.781 10.0287 206.013 9.88708 206.208 9.69937C206.403 9.50812 206.553 9.27082 206.659 8.98749L207.871 9.32749C207.743 9.73833 207.529 10.0996 207.228 10.4112C206.927 10.7194 206.555 10.9602 206.112 11.1337C205.669 11.3038 205.172 11.3888 204.619 11.3888ZM209.905 11.2188V3.05871H211.117V4.29122H211.202C211.35 3.88747 211.619 3.55986 212.009 3.3084C212.399 3.05694 212.838 2.93121 213.327 2.93121C213.419 2.93121 213.534 2.93298 213.672 2.93653C213.81 2.94007 213.915 2.94538 213.985 2.95246V4.22747C213.943 4.21684 213.845 4.20091 213.693 4.17966C213.544 4.15486 213.387 4.14247 213.22 4.14247C212.824 4.14247 212.469 4.2257 212.158 4.39216C211.85 4.55508 211.605 4.78174 211.425 5.07216C211.248 5.35904 211.159 5.68664 211.159 6.05498V11.2188H209.905ZM219.679 14.2788V3.05871H220.89V4.35497H221.039C221.131 4.2133 221.259 4.03268 221.422 3.81309C221.588 3.58997 221.825 3.39163 222.133 3.21809C222.445 3.04101 222.867 2.95246 223.398 2.95246C224.085 2.95246 224.691 3.12424 225.215 3.46778C225.739 3.81132 226.148 4.2983 226.442 4.92872C226.736 5.55914 226.883 6.3029 226.883 7.15998C226.883 8.02415 226.736 8.77322 226.442 9.40718C226.148 10.0376 225.741 10.5264 225.22 10.8734C224.699 11.217 224.099 11.3888 223.419 11.3888C222.895 11.3888 222.475 11.302 222.16 11.1284C221.845 10.9514 221.602 10.7512 221.432 10.5281C221.262 10.3015 221.131 10.1137 221.039 9.96499H220.933V14.2788H219.679ZM220.912 7.13873C220.912 7.75498 221.002 8.29863 221.182 8.76968C221.363 9.23718 221.627 9.60374 221.974 9.86937C222.321 10.1315 222.746 10.2625 223.249 10.2625C223.773 10.2625 224.211 10.1244 224.561 9.84812C224.915 9.56833 225.181 9.19291 225.358 8.72186C225.539 8.24728 225.629 7.71957 225.629 7.13873C225.629 6.56498 225.541 6.04789 225.363 5.58748C225.19 5.12352 224.926 4.75695 224.572 4.48778C224.221 4.21507 223.78 4.07872 223.249 4.07872C222.739 4.07872 222.31 4.20799 221.963 4.46653C221.616 4.72153 221.354 5.07924 221.177 5.53966C221 5.99654 220.912 6.52956 220.912 7.13873ZM228.795 11.2188V3.05871H230.007V4.29122H230.092C230.24 3.88747 230.51 3.55986 230.899 3.3084C231.289 3.05694 231.728 2.93121 232.217 2.93121C232.309 2.93121 232.424 2.93298 232.562 2.93653C232.7 2.94007 232.805 2.94538 232.875 2.95246V4.22747C232.833 4.21684 232.735 4.20091 232.583 4.17966C232.434 4.15486 232.277 4.14247 232.11 4.14247C231.714 4.14247 231.36 4.2257 231.048 4.39216C230.74 4.55508 230.495 4.78174 230.315 5.07216C230.138 5.35904 230.049 5.68664 230.049 6.05498V11.2188H228.795ZM237.428 11.3888C236.691 11.3888 236.045 11.2134 235.489 10.8628C234.937 10.5122 234.504 10.0217 234.193 9.39124C233.885 8.76082 233.731 8.02415 233.731 7.18123C233.731 6.33123 233.885 5.58925 234.193 4.95529C234.504 4.32132 234.937 3.82903 235.489 3.4784C236.045 3.12778 236.691 2.95246 237.428 2.95246C238.165 2.95246 238.809 3.12778 239.362 3.4784C239.918 3.82903 240.35 4.32132 240.658 4.95529C240.97 5.58925 241.126 6.33123 241.126 7.18123C241.126 8.02415 240.97 8.76082 240.658 9.39124C240.35 10.0217 239.918 10.5122 239.362 10.8628C238.809 11.2134 238.165 11.3888 237.428 11.3888ZM237.428 10.2625C237.988 10.2625 238.448 10.1191 238.809 9.83218C239.171 9.54531 239.438 9.16812 239.612 8.70061C239.785 8.23311 239.872 7.72665 239.872 7.18123C239.872 6.63581 239.785 6.12758 239.612 5.65654C239.438 5.18549 239.171 4.80476 238.809 4.51435C238.448 4.22393 237.988 4.07872 237.428 4.07872C236.869 4.07872 236.408 4.22393 236.047 4.51435C235.686 4.80476 235.418 5.18549 235.245 5.65654C235.071 6.12758 234.984 6.63581 234.984 7.18123C234.984 7.72665 235.071 8.23311 235.245 8.70061C235.418 9.16812 235.686 9.54531 236.047 9.83218C236.408 10.1191 236.869 10.2625 237.428 10.2625ZM246.121 11.3888C245.441 11.3888 244.84 11.217 244.32 10.8734C243.799 10.5264 243.392 10.0376 243.098 9.40718C242.804 8.77322 242.657 8.02415 242.657 7.15998C242.657 6.3029 242.804 5.55914 243.098 4.92872C243.392 4.2983 243.801 3.81132 244.325 3.46778C244.849 3.12424 245.455 2.95246 246.142 2.95246C246.673 2.95246 247.093 3.04101 247.401 3.21809C247.713 3.39163 247.95 3.58997 248.113 3.81309C248.279 4.03268 248.409 4.2133 248.501 4.35497H248.607V0.338702H249.861V11.2188H248.65V9.96499H248.501C248.409 10.1137 248.278 10.3015 248.108 10.5281C247.938 10.7512 247.695 10.9514 247.38 11.1284C247.065 11.302 246.645 11.3888 246.121 11.3888ZM246.291 10.2625C246.794 10.2625 247.219 10.1315 247.566 9.86937C247.913 9.60374 248.177 9.23718 248.357 8.76968C248.538 8.29863 248.628 7.75498 248.628 7.13873C248.628 6.52956 248.54 5.99654 248.363 5.53966C248.186 5.07924 247.924 4.72153 247.576 4.46653C247.229 4.20799 246.801 4.07872 246.291 4.07872C245.76 4.07872 245.317 4.21507 244.963 4.48778C244.612 4.75695 244.348 5.12352 244.171 5.58748C243.998 6.04789 243.911 6.56498 243.911 7.13873C243.911 7.71957 243.999 8.24728 244.176 8.72186C244.357 9.19291 244.623 9.56833 244.973 9.84812C245.327 10.1244 245.767 10.2625 246.291 10.2625ZM257.474 7.88249V3.05871H258.727V11.2188H257.474V9.83749H257.389C257.197 10.2519 256.9 10.6043 256.496 10.8947C256.092 11.1816 255.582 11.325 254.966 11.325C254.456 11.325 254.003 11.2134 253.606 10.9903C253.209 10.7636 252.898 10.4236 252.671 9.97031C252.444 9.51343 252.331 8.93791 252.331 8.24374V3.05871H253.585V8.15874C253.585 8.75374 253.751 9.22832 254.084 9.58249C254.421 9.93666 254.849 10.1137 255.37 10.1137C255.682 10.1137 255.999 10.0341 256.321 9.87468C256.647 9.71531 256.919 9.47093 257.139 9.14155C257.362 8.81218 257.474 8.39249 257.474 7.88249ZM264.339 11.3888C263.574 11.3888 262.915 11.2081 262.362 10.8469C261.81 10.4856 261.385 9.98802 261.087 9.35405C260.79 8.72009 260.641 7.99582 260.641 7.18123C260.641 6.35248 260.794 5.62112 261.098 4.98716C261.406 4.34966 261.835 3.85205 262.384 3.49434C262.936 3.13309 263.581 2.95246 264.317 2.95246C264.891 2.95246 265.408 3.05871 265.869 3.27122C266.329 3.48372 266.706 3.78122 267 4.16372C267.294 4.54622 267.477 4.99247 267.548 5.50248H266.294C266.198 5.1306 265.986 4.80122 265.656 4.51435C265.33 4.22393 264.891 4.07872 264.339 4.07872C263.85 4.07872 263.421 4.20622 263.053 4.46122C262.688 4.71268 262.403 5.06862 262.198 5.52904C261.996 5.98591 261.895 6.52248 261.895 7.13873C261.895 7.76915 261.994 8.31811 262.192 8.78561C262.394 9.25312 262.678 9.61614 263.042 9.87468C263.411 10.1332 263.843 10.2625 264.339 10.2625C264.665 10.2625 264.96 10.2058 265.226 10.0925C265.492 9.97916 265.716 9.81624 265.901 9.60374C266.085 9.39124 266.216 9.13624 266.294 8.83874H267.548C267.477 9.32041 267.301 9.75426 267.022 10.1403C266.745 10.5228 266.379 10.8274 265.922 11.0541C265.469 11.2772 264.941 11.3888 264.339 11.3888ZM272.929 3.05871V4.12122H268.7V3.05871H272.929ZM269.933 1.10371H271.187V8.88124C271.187 9.23541 271.238 9.50103 271.341 9.67812C271.447 9.85166 271.582 9.96854 271.744 10.0287C271.911 10.0854 272.086 10.1137 272.27 10.1137C272.408 10.1137 272.522 10.1067 272.61 10.0925C272.699 10.0748 272.77 10.0606 272.823 10.05L273.078 11.1762C272.993 11.2081 272.874 11.24 272.722 11.2719C272.57 11.3073 272.377 11.325 272.143 11.325C271.789 11.325 271.442 11.2489 271.102 11.0966C270.765 10.9443 270.485 10.7123 270.262 10.4006C270.043 10.089 269.933 9.69583 269.933 9.22124V1.10371ZM282.338 11.3888C281.573 11.3888 280.914 11.2081 280.361 10.8469C279.809 10.4856 279.384 9.98802 279.086 9.35405C278.789 8.72009 278.64 7.99582 278.64 7.18123C278.64 6.35248 278.792 5.62112 279.097 4.98716C279.405 4.34966 279.834 3.85205 280.383 3.49434C280.935 3.13309 281.58 2.95246 282.316 2.95246C282.89 2.95246 283.407 3.05871 283.868 3.27122C284.328 3.48372 284.705 3.78122 284.999 4.16372C285.293 4.54622 285.476 4.99247 285.546 5.50248H284.293C284.197 5.1306 283.984 4.80122 283.655 4.51435C283.329 4.22393 282.89 4.07872 282.338 4.07872C281.849 4.07872 281.42 4.20622 281.052 4.46122C280.687 4.71268 280.402 5.06862 280.197 5.52904C279.995 5.98591 279.894 6.52248 279.894 7.13873C279.894 7.76915 279.993 8.31811 280.191 8.78561C280.393 9.25312 280.677 9.61614 281.041 9.87468C281.41 10.1332 281.842 10.2625 282.338 10.2625C282.663 10.2625 282.959 10.2058 283.225 10.0925C283.49 9.97916 283.715 9.81624 283.899 9.60374C284.084 9.39124 284.215 9.13624 284.293 8.83874H285.546C285.476 9.32041 285.3 9.75426 285.02 10.1403C284.744 10.5228 284.378 10.8274 283.921 11.0541C283.467 11.2772 282.94 11.3888 282.338 11.3888ZM289.78 11.41C289.263 11.41 288.794 11.3126 288.373 11.1178C287.951 10.9195 287.616 10.6344 287.369 10.2625C287.121 9.88708 286.997 9.43374 286.997 8.90249C286.997 8.43499 287.089 8.05603 287.273 7.76561C287.457 7.47165 287.703 7.24144 288.011 7.07498C288.32 6.90852 288.66 6.78456 289.031 6.70311C289.407 6.61811 289.784 6.55081 290.163 6.50123C290.659 6.43748 291.061 6.38967 291.369 6.35779C291.681 6.32237 291.907 6.26394 292.049 6.18248C292.194 6.10102 292.267 5.95935 292.267 5.75748V5.71498C292.267 5.19081 292.123 4.78351 291.836 4.4931C291.553 4.20268 291.123 4.05747 290.545 4.05747C289.947 4.05747 289.478 4.18851 289.138 4.4506C288.798 4.71268 288.559 4.99247 288.42 5.28997L287.23 4.86497C287.443 4.36914 287.726 3.98309 288.08 3.70684C288.438 3.42705 288.828 3.23226 289.249 3.12246C289.674 3.00913 290.092 2.95246 290.503 2.95246C290.765 2.95246 291.066 2.98434 291.406 3.04809C291.75 3.1083 292.081 3.23403 292.4 3.42528C292.722 3.61653 292.989 3.90518 293.202 4.29122C293.414 4.67726 293.52 5.19435 293.52 5.84248V11.2188H292.267V10.1137H292.203C292.118 10.2908 291.976 10.4803 291.778 10.6822C291.58 10.8841 291.316 11.0558 290.986 11.1975C290.657 11.3392 290.255 11.41 289.78 11.41ZM289.972 10.2837C290.468 10.2837 290.885 10.1863 291.225 9.99156C291.569 9.79676 291.828 9.54531 292.001 9.23718C292.178 8.92905 292.267 8.60499 292.267 8.26499V7.11748C292.214 7.18123 292.097 7.23967 291.916 7.2928C291.739 7.34238 291.534 7.38665 291.3 7.42561C291.07 7.46103 290.845 7.4929 290.625 7.52123C290.409 7.54603 290.234 7.56728 290.099 7.58498C289.773 7.62748 289.469 7.69655 289.185 7.79217C288.906 7.88426 288.679 8.02415 288.505 8.21186C288.335 8.39603 288.25 8.64749 288.25 8.96624C288.25 9.40187 288.412 9.73124 288.734 9.95437C289.06 10.174 289.472 10.2837 289.972 10.2837ZM299.358 3.05871V4.12122H295.129V3.05871H299.358ZM296.361 1.10371H297.615V8.88124C297.615 9.23541 297.666 9.50103 297.769 9.67812C297.875 9.85166 298.01 9.96854 298.173 10.0287C298.339 10.0854 298.515 10.1137 298.699 10.1137C298.837 10.1137 298.95 10.1067 299.039 10.0925C299.127 10.0748 299.198 10.0606 299.251 10.05L299.506 11.1762C299.421 11.2081 299.303 11.24 299.15 11.2719C298.998 11.3073 298.805 11.325 298.571 11.325C298.217 11.325 297.87 11.2489 297.53 11.0966C297.194 10.9443 296.914 10.7123 296.691 10.4006C296.471 10.089 296.361 9.69583 296.361 9.22124V1.10371ZM303.645 11.41C303.128 11.41 302.658 11.3126 302.237 11.1178C301.815 10.9195 301.481 10.6344 301.233 10.2625C300.985 9.88708 300.861 9.43374 300.861 8.90249C300.861 8.43499 300.953 8.05603 301.137 7.76561C301.321 7.47165 301.568 7.24144 301.876 7.07498C302.184 6.90852 302.524 6.78456 302.896 6.70311C303.271 6.61811 303.648 6.55081 304.027 6.50123C304.523 6.43748 304.925 6.38967 305.233 6.35779C305.545 6.32237 305.772 6.26394 305.913 6.18248C306.058 6.10102 306.131 5.95935 306.131 5.75748V5.71498C306.131 5.19081 305.988 4.78351 305.701 4.4931C305.417 4.20268 304.987 4.05747 304.41 4.05747C303.811 4.05747 303.342 4.18851 303.002 4.4506C302.662 4.71268 302.423 4.99247 302.285 5.28997L301.095 4.86497C301.307 4.36914 301.591 3.98309 301.945 3.70684C302.302 3.42705 302.692 3.23226 303.114 3.12246C303.539 3.00913 303.956 2.95246 304.367 2.95246C304.629 2.95246 304.93 2.98434 305.27 3.04809C305.614 3.1083 305.945 3.23403 306.264 3.42528C306.586 3.61653 306.854 3.90518 307.066 4.29122C307.279 4.67726 307.385 5.19435 307.385 5.84248V11.2188H306.131V10.1137H306.067C305.982 10.2908 305.841 10.4803 305.642 10.6822C305.444 10.8841 305.18 11.0558 304.851 11.1975C304.521 11.3392 304.119 11.41 303.645 11.41ZM303.836 10.2837C304.332 10.2837 304.75 10.1863 305.09 9.99156C305.433 9.79676 305.692 9.54531 305.865 9.23718C306.042 8.92905 306.131 8.60499 306.131 8.26499V7.11748C306.078 7.18123 305.961 7.23967 305.78 7.2928C305.603 7.34238 305.398 7.38665 305.164 7.42561C304.934 7.46103 304.709 7.4929 304.489 7.52123C304.273 7.54603 304.098 7.56728 303.964 7.58498C303.638 7.62748 303.333 7.69655 303.05 7.79217C302.77 7.88426 302.543 8.02415 302.37 8.21186C302.2 8.39603 302.115 8.64749 302.115 8.96624C302.115 9.40187 302.276 9.73124 302.598 9.95437C302.924 10.174 303.337 10.2837 303.836 10.2837ZM310.927 0.338702V11.2188H309.673V0.338702H310.927ZM316.538 11.3888C315.802 11.3888 315.155 11.2134 314.599 10.8628C314.047 10.5122 313.615 10.0217 313.303 9.39124C312.995 8.76082 312.841 8.02415 312.841 7.18123C312.841 6.33123 312.995 5.58925 313.303 4.95529C313.615 4.32132 314.047 3.82903 314.599 3.4784C315.155 3.12778 315.802 2.95246 316.538 2.95246C317.275 2.95246 317.92 3.12778 318.472 3.4784C319.028 3.82903 319.46 4.32132 319.768 4.95529C320.08 5.58925 320.236 6.33123 320.236 7.18123C320.236 8.02415 320.08 8.76082 319.768 9.39124C319.46 10.0217 319.028 10.5122 318.472 10.8628C317.92 11.2134 317.275 11.3888 316.538 11.3888ZM316.538 10.2625C317.098 10.2625 317.558 10.1191 317.92 9.83218C318.281 9.54531 318.548 9.16812 318.722 8.70061C318.895 8.23311 318.982 7.72665 318.982 7.18123C318.982 6.63581 318.895 6.12758 318.722 5.65654C318.548 5.18549 318.281 4.80476 317.92 4.51435C317.558 4.22393 317.098 4.07872 316.538 4.07872C315.979 4.07872 315.518 4.22393 315.157 4.51435C314.796 4.80476 314.528 5.18549 314.355 5.65654C314.181 6.12758 314.095 6.63581 314.095 7.18123C314.095 7.72665 314.181 8.23311 314.355 8.70061C314.528 9.16812 314.796 9.54531 315.157 9.83218C315.518 10.1191 315.979 10.2625 316.538 10.2625ZM325.443 14.4488C324.838 14.4488 324.317 14.3708 323.882 14.215C323.446 14.0627 323.083 13.8608 322.792 13.6094C322.506 13.3615 322.277 13.0958 322.107 12.8125L323.106 12.1113C323.219 12.26 323.363 12.43 323.536 12.6213C323.71 12.816 323.947 12.9843 324.248 13.1259C324.553 13.2712 324.951 13.3438 325.443 13.3438C326.102 13.3438 326.646 13.1844 327.074 12.8656C327.503 12.5469 327.717 12.0475 327.717 11.3675V9.70999H327.611C327.519 9.85874 327.388 10.0429 327.218 10.2625C327.051 10.4785 326.81 10.6716 326.495 10.8416C326.184 11.008 325.762 11.0912 325.231 11.0912C324.572 11.0912 323.981 10.9354 323.457 10.6237C322.936 10.3121 322.523 9.85874 322.219 9.26374C321.918 8.66874 321.767 7.94624 321.767 7.09623C321.767 6.2604 321.914 5.53258 322.208 4.91278C322.502 4.28945 322.911 3.80778 323.435 3.46778C323.959 3.12424 324.565 2.95246 325.252 2.95246C325.783 2.95246 326.205 3.04101 326.517 3.21809C326.832 3.39163 327.073 3.58997 327.239 3.81309C327.409 4.03268 327.54 4.2133 327.632 4.35497H327.76V3.05871H328.971V11.4525C328.971 12.1538 328.812 12.724 328.493 13.1631C328.178 13.6058 327.753 13.9299 327.218 14.1353C326.687 14.3443 326.095 14.4488 325.443 14.4488ZM325.401 9.96499C325.904 9.96499 326.329 9.84989 326.676 9.61968C327.023 9.38947 327.287 9.05832 327.467 8.62624C327.648 8.19415 327.738 7.67707 327.738 7.07498C327.738 6.48706 327.65 5.96821 327.473 5.51841C327.296 5.06862 327.034 4.71622 326.687 4.46122C326.339 4.20622 325.911 4.07872 325.401 4.07872C324.87 4.07872 324.427 4.2133 324.073 4.48247C323.722 4.75164 323.458 5.11289 323.281 5.56623C323.108 6.01956 323.021 6.52248 323.021 7.07498C323.021 7.64165 323.109 8.1428 323.287 8.57843C323.467 9.01051 323.733 9.35051 324.083 9.59843C324.438 9.84281 324.877 9.96499 325.401 9.96499ZM336.408 7.88249V3.05871H337.662V11.2188H336.408V9.83749H336.323C336.132 10.2519 335.835 10.6043 335.431 10.8947C335.027 11.1816 334.517 11.325 333.901 11.325C333.391 11.325 332.938 11.2134 332.541 10.9903C332.144 10.7636 331.833 10.4236 331.606 9.97031C331.379 9.51343 331.266 8.93791 331.266 8.24374V3.05871H332.52V8.15874C332.52 8.75374 332.686 9.22832 333.019 9.58249C333.356 9.93666 333.784 10.1137 334.305 10.1137C334.616 10.1137 334.933 10.0341 335.256 9.87468C335.581 9.71531 335.854 9.47093 336.074 9.14155C336.297 8.81218 336.408 8.39249 336.408 7.88249ZM343.38 11.3888C342.594 11.3888 341.915 11.2152 341.345 10.8681C340.778 10.5175 340.341 10.0287 340.033 9.40187C339.728 8.77145 339.576 8.03832 339.576 7.20248C339.576 6.36665 339.728 5.62998 340.033 4.99247C340.341 4.35143 340.77 3.85205 341.319 3.49434C341.871 3.13309 342.516 2.95246 343.252 2.95246C343.677 2.95246 344.097 3.0233 344.511 3.16496C344.926 3.30663 345.303 3.53684 345.643 3.85559C345.983 4.1708 346.254 4.58872 346.456 5.10935C346.658 5.62998 346.759 6.27102 346.759 7.03248V7.56373H340.469V6.47998H345.484C345.484 6.01956 345.391 5.60873 345.207 5.24747C345.027 4.88622 344.768 4.60112 344.432 4.39216C344.099 4.1832 343.706 4.07872 343.252 4.07872C342.753 4.07872 342.321 4.20268 341.956 4.4506C341.595 4.69497 341.317 5.01372 341.122 5.40685C340.927 5.79998 340.83 6.22144 340.83 6.67123V7.39373C340.83 8.00999 340.936 8.53238 341.149 8.96093C341.365 9.38593 341.664 9.70999 342.046 9.93312C342.429 10.1527 342.873 10.2625 343.38 10.2625C343.709 10.2625 344.007 10.2165 344.272 10.1244C344.541 10.0287 344.773 9.88708 344.968 9.69937C345.163 9.50812 345.314 9.27082 345.42 8.98749L346.631 9.32749C346.504 9.73833 346.289 10.0996 345.988 10.4112C345.687 10.7194 345.315 10.9602 344.873 11.1337C344.43 11.3038 343.932 11.3888 343.38 11.3888ZM354.446 4.88622L353.32 5.20497C353.249 5.01726 353.144 4.83487 353.006 4.65778C352.872 4.47716 352.687 4.32841 352.454 4.21153C352.22 4.09466 351.921 4.03622 351.556 4.03622C351.056 4.03622 350.64 4.15132 350.307 4.38153C349.978 4.6082 349.813 4.89685 349.813 5.24747C349.813 5.55914 349.927 5.80529 350.153 5.98591C350.38 6.16654 350.734 6.31706 351.216 6.43748L352.427 6.73498C353.157 6.91206 353.7 7.183 354.058 7.5478C354.416 7.90905 354.595 8.37478 354.595 8.94499C354.595 9.41249 354.46 9.83041 354.191 10.1987C353.925 10.5671 353.553 10.8575 353.075 11.07C352.597 11.2825 352.041 11.3888 351.407 11.3888C350.575 11.3888 349.886 11.2081 349.34 10.8469C348.795 10.4856 348.45 9.95791 348.305 9.26374L349.495 8.96624C349.608 9.40541 349.822 9.73479 350.137 9.95437C350.456 10.174 350.872 10.2837 351.386 10.2837C351.97 10.2837 352.434 10.1598 352.778 9.91187C353.125 9.66041 353.298 9.35937 353.298 9.00874C353.298 8.72541 353.199 8.48811 353.001 8.29686C352.802 8.10207 352.498 7.95686 352.087 7.86124L350.727 7.54248C349.98 7.3654 349.431 7.09092 349.08 6.71904C348.733 6.34362 348.56 5.87435 348.56 5.31122C348.56 4.85081 348.689 4.44351 348.947 4.08934C349.209 3.73518 349.565 3.45715 350.015 3.25528C350.468 3.0534 350.982 2.95246 351.556 2.95246C352.363 2.95246 352.997 3.12955 353.458 3.48372C353.922 3.83788 354.251 4.30539 354.446 4.88622ZM363.091 11.41C362.573 11.41 362.104 11.3126 361.683 11.1178C361.261 10.9195 360.927 10.6344 360.679 10.2625C360.431 9.88708 360.307 9.43374 360.307 8.90249C360.307 8.43499 360.399 8.05603 360.583 7.76561C360.767 7.47165 361.013 7.24144 361.322 7.07498C361.63 6.90852 361.97 6.78456 362.342 6.70311C362.717 6.61811 363.094 6.55081 363.473 6.50123C363.969 6.43748 364.371 6.38967 364.679 6.35779C364.991 6.32237 365.217 6.26394 365.359 6.18248C365.504 6.10102 365.577 5.95935 365.577 5.75748V5.71498C365.577 5.19081 365.433 4.78351 365.147 4.4931C364.863 4.20268 364.433 4.05747 363.856 4.05747C363.257 4.05747 362.788 4.18851 362.448 4.4506C362.108 4.71268 361.869 4.99247 361.731 5.28997L360.541 4.86497C360.753 4.36914 361.036 3.98309 361.391 3.70684C361.748 3.42705 362.138 3.23226 362.559 3.12246C362.984 3.00913 363.402 2.95246 363.813 2.95246C364.075 2.95246 364.376 2.98434 364.716 3.04809C365.06 3.1083 365.391 3.23403 365.71 3.42528C366.032 3.61653 366.299 3.90518 366.512 4.29122C366.724 4.67726 366.831 5.19435 366.831 5.84248V11.2188H365.577V10.1137H365.513C365.428 10.2908 365.286 10.4803 365.088 10.6822C364.89 10.8841 364.626 11.0558 364.297 11.1975C363.967 11.3392 363.565 11.41 363.091 11.41ZM363.282 10.2837C363.778 10.2837 364.196 10.1863 364.536 9.99156C364.879 9.79676 365.138 9.54531 365.311 9.23718C365.488 8.92905 365.577 8.60499 365.577 8.26499V7.11748C365.524 7.18123 365.407 7.23967 365.226 7.2928C365.049 7.34238 364.844 7.38665 364.61 7.42561C364.38 7.46103 364.155 7.4929 363.935 7.52123C363.719 7.54603 363.544 7.56728 363.409 7.58498C363.083 7.62748 362.779 7.69655 362.496 7.79217C362.216 7.88426 361.989 8.02415 361.816 8.21186C361.646 8.39603 361.561 8.64749 361.561 8.96624C361.561 9.40187 361.722 9.73124 362.044 9.95437C362.37 10.174 362.782 10.2837 363.282 10.2837ZM370.373 6.30998V11.2188H369.119V3.05871H370.33V4.33372H370.437C370.628 3.91934 370.918 3.58643 371.308 3.33497C371.697 3.07996 372.2 2.95246 372.817 2.95246C373.369 2.95246 373.852 3.0658 374.267 3.29247C374.681 3.51559 375.004 3.85559 375.234 4.31247C375.464 4.76581 375.579 5.33956 375.579 6.03373V11.2188H374.325V6.11873C374.325 5.47768 374.159 4.97831 373.826 4.6206C373.493 4.25934 373.036 4.07872 372.455 4.07872C372.055 4.07872 371.697 4.16549 371.382 4.33903C371.07 4.51257 370.824 4.76581 370.644 5.09872C370.463 5.43164 370.373 5.83539 370.373 6.30998ZM380.951 11.3888C380.271 11.3888 379.671 11.217 379.15 10.8734C378.63 10.5264 378.222 10.0376 377.928 9.40718C377.635 8.77322 377.488 8.02415 377.488 7.15998C377.488 6.3029 377.635 5.55914 377.928 4.92872C378.222 4.2983 378.632 3.81132 379.156 3.46778C379.68 3.12424 380.285 2.95246 380.973 2.95246C381.504 2.95246 381.923 3.04101 382.232 3.21809C382.543 3.39163 382.781 3.58997 382.943 3.81309C383.11 4.03268 383.239 4.2133 383.331 4.35497H383.438V0.338702H384.691V11.2188H383.48V9.96499H383.331C383.239 10.1137 383.108 10.3015 382.938 10.5281C382.768 10.7512 382.526 10.9514 382.21 11.1284C381.895 11.302 381.475 11.3888 380.951 11.3888ZM381.121 10.2625C381.624 10.2625 382.049 10.1315 382.396 9.86937C382.743 9.60374 383.007 9.23718 383.188 8.76968C383.369 8.29863 383.459 7.75498 383.459 7.13873C383.459 6.52956 383.37 5.99654 383.193 5.53966C383.016 5.07924 382.754 4.72153 382.407 4.46653C382.06 4.20799 381.631 4.07872 381.121 4.07872C380.59 4.07872 380.147 4.21507 379.793 4.48778C379.443 4.75695 379.179 5.12352 379.002 5.58748C378.828 6.04789 378.741 6.56498 378.741 7.13873C378.741 7.71957 378.83 8.24728 379.007 8.72186C379.188 9.19291 379.453 9.56833 379.804 9.84812C380.158 10.1244 380.597 10.2625 381.121 10.2625ZM79.0984 23.0587V24.1212H74.8696V23.0587H79.0984ZM76.1021 21.1037H77.3559V28.8812C77.3559 29.2354 77.4072 29.501 77.5099 29.6781C77.6162 29.8517 77.7508 29.9685 77.9137 30.0287C78.0801 30.0854 78.2555 30.1137 78.4396 30.1137C78.5778 30.1137 78.6911 30.1067 78.7796 30.0925C78.8682 30.0748 78.939 30.0606 78.9921 30.05L79.2471 31.1762C79.1621 31.2081 79.0435 31.24 78.8912 31.2719C78.7389 31.3073 78.5459 31.325 78.3121 31.325C77.958 31.325 77.6109 31.2489 77.2709 31.0966C76.9344 30.9443 76.6546 30.7123 76.4315 30.4006C76.2119 30.089 76.1021 29.6958 76.1021 29.2212V21.1037ZM84.3179 31.3888C83.5317 31.3888 82.8534 31.2152 82.2832 30.8681C81.7166 30.5175 81.2792 30.0287 80.971 29.4019C80.6665 28.7714 80.5142 28.0383 80.5142 27.2025C80.5142 26.3666 80.6665 25.63 80.971 24.9925C81.2792 24.3514 81.7077 23.8521 82.2567 23.4943C82.8092 23.1331 83.4538 22.9525 84.1904 22.9525C84.6154 22.9525 85.0351 23.0233 85.4495 23.165C85.8639 23.3066 86.2411 23.5368 86.5811 23.8556C86.9211 24.1708 87.192 24.5887 87.3939 25.1093C87.5958 25.63 87.6967 26.271 87.6967 27.0325V27.5637H81.4067V26.48H86.4217C86.4217 26.0196 86.3296 25.6087 86.1454 25.2475C85.9648 24.8862 85.7063 24.6011 85.3698 24.3922C85.0369 24.1832 84.6438 24.0787 84.1904 24.0787C83.6911 24.0787 83.259 24.2027 82.8942 24.4506C82.5329 24.695 82.2549 25.0137 82.0601 25.4068C81.8653 25.8 81.7679 26.2214 81.7679 26.6712V27.3937C81.7679 28.01 81.8742 28.5324 82.0867 28.9609C82.3027 29.3859 82.602 29.71 82.9845 29.9331C83.367 30.1527 83.8115 30.2625 84.3179 30.2625C84.6473 30.2625 84.9448 30.2165 85.2104 30.1244C85.4796 30.0287 85.7116 29.8871 85.9064 29.6994C86.1012 29.5081 86.2517 29.2708 86.3579 28.9875L87.5692 29.3275C87.4417 29.7383 87.2274 30.0996 86.9264 30.4112C86.6253 30.7194 86.2535 30.9602 85.8107 31.1337C85.368 31.3038 84.8704 31.3888 84.3179 31.3888ZM92.9189 31.3888C92.1539 31.3888 91.4952 31.2081 90.9427 30.8469C90.3901 30.4856 89.9651 29.988 89.6676 29.3541C89.3701 28.7201 89.2214 27.9958 89.2214 27.1812C89.2214 26.3525 89.3737 25.6211 89.6783 24.9872C89.9864 24.3497 90.4149 23.8521 90.9639 23.4943C91.5164 23.1331 92.161 22.9525 92.8977 22.9525C93.4714 22.9525 93.9885 23.0587 94.4489 23.2712C94.9093 23.4837 95.2865 23.7812 95.5805 24.1637C95.8744 24.5462 96.0568 24.9925 96.1277 25.5025H94.8739C94.7783 25.1306 94.5658 24.8012 94.2364 24.5143C93.9106 24.2239 93.4714 24.0787 92.9189 24.0787C92.4302 24.0787 92.0016 24.2062 91.6333 24.4612C91.2685 24.7127 90.9834 25.0686 90.778 25.529C90.5761 25.9859 90.4751 26.5225 90.4751 27.1387C90.4751 27.7692 90.5743 28.3181 90.7727 28.7856C90.9745 29.2531 91.2579 29.6161 91.6227 29.8747C91.991 30.1332 92.4231 30.2625 92.9189 30.2625C93.2447 30.2625 93.5405 30.2058 93.8061 30.0925C94.0717 29.9792 94.2966 29.8162 94.4808 29.6037C94.665 29.3912 94.796 29.1362 94.8739 28.8387H96.1277C96.0568 29.3204 95.8815 29.7543 95.6017 30.1403C95.3255 30.5228 94.9589 30.8274 94.502 31.0541C94.0487 31.2772 93.521 31.3888 92.9189 31.3888ZM99.2142 26.31V31.2188H97.9605V20.3387H99.2142V24.3337H99.3205C99.5118 23.9123 99.7986 23.5776 100.181 23.3297C100.567 23.0782 101.081 22.9525 101.722 22.9525C102.278 22.9525 102.765 23.064 103.183 23.2872C103.601 23.5067 103.925 23.845 104.155 24.3018C104.389 24.7552 104.506 25.3325 104.506 26.0337V31.2188H103.252V26.1187C103.252 25.4706 103.084 24.9695 102.747 24.6153C102.414 24.2576 101.952 24.0787 101.361 24.0787C100.95 24.0787 100.581 24.1655 100.256 24.339C99.9332 24.5126 99.6782 24.7658 99.4905 25.0987C99.3063 25.4316 99.2142 25.8354 99.2142 26.31ZM108.053 26.31V31.2188H106.799V23.0587H108.01V24.3337H108.117C108.308 23.9193 108.598 23.5864 108.988 23.335C109.378 23.08 109.88 22.9525 110.497 22.9525C111.049 22.9525 111.533 23.0658 111.947 23.2925C112.361 23.5156 112.684 23.8556 112.914 24.3125C113.144 24.7658 113.259 25.3396 113.259 26.0337V31.2188H112.005V26.1187C112.005 25.4777 111.839 24.9783 111.506 24.6206C111.173 24.2593 110.716 24.0787 110.135 24.0787C109.735 24.0787 109.378 24.1655 109.062 24.339C108.751 24.5126 108.505 24.7658 108.324 25.0987C108.143 25.4316 108.053 25.8354 108.053 26.31ZM115.55 31.2188V23.0587H116.804V31.2188H115.55ZM116.188 21.6987C115.943 21.6987 115.733 21.6155 115.556 21.449C115.382 21.2826 115.295 21.0825 115.295 20.8487C115.295 20.615 115.382 20.4148 115.556 20.2484C115.733 20.0819 115.943 19.9987 116.188 19.9987C116.432 19.9987 116.641 20.0819 116.815 20.2484C116.992 20.4148 117.08 20.615 117.08 20.8487C117.08 21.0825 116.992 21.2826 116.815 21.449C116.641 21.6155 116.432 21.6987 116.188 21.6987ZM122.415 31.3888C121.65 31.3888 120.992 31.2081 120.439 30.8469C119.887 30.4856 119.462 29.988 119.164 29.3541C118.867 28.7201 118.718 27.9958 118.718 27.1812C118.718 26.3525 118.87 25.6211 119.175 24.9872C119.483 24.3497 119.911 23.8521 120.46 23.4943C121.013 23.1331 121.657 22.9525 122.394 22.9525C122.968 22.9525 123.485 23.0587 123.945 23.2712C124.406 23.4837 124.783 23.7812 125.077 24.1637C125.371 24.5462 125.553 24.9925 125.624 25.5025H124.37C124.275 25.1306 124.062 24.8012 123.733 24.5143C123.407 24.2239 122.968 24.0787 122.415 24.0787C121.927 24.0787 121.498 24.2062 121.13 24.4612C120.765 24.7127 120.48 25.0686 120.274 25.529C120.073 25.9859 119.972 26.5225 119.972 27.1387C119.972 27.7692 120.071 28.3181 120.269 28.7856C120.471 29.2531 120.754 29.6161 121.119 29.8747C121.487 30.1332 121.92 30.2625 122.415 30.2625C122.741 30.2625 123.037 30.2058 123.303 30.0925C123.568 29.9792 123.793 29.8162 123.977 29.6037C124.161 29.3912 124.292 29.1362 124.37 28.8387H125.624C125.553 29.3204 125.378 29.7543 125.098 30.1403C124.822 30.5228 124.455 30.8274 123.999 31.0541C123.545 31.2772 123.017 31.3888 122.415 31.3888ZM129.858 31.41C129.341 31.41 128.872 31.3126 128.45 31.1178C128.029 30.9195 127.694 30.6344 127.446 30.2625C127.198 29.8871 127.074 29.4337 127.074 28.9025C127.074 28.435 127.167 28.056 127.351 27.7656C127.535 27.4717 127.781 27.2414 128.089 27.075C128.397 26.9085 128.737 26.7846 129.109 26.7031C129.485 26.6181 129.862 26.5508 130.241 26.5012C130.737 26.4375 131.139 26.3897 131.447 26.3578C131.758 26.3224 131.985 26.2639 132.127 26.1825C132.272 26.101 132.344 25.9594 132.344 25.7575V25.715C132.344 25.1908 132.201 24.7835 131.914 24.4931C131.631 24.2027 131.201 24.0575 130.623 24.0575C130.025 24.0575 129.555 24.1885 129.215 24.4506C128.875 24.7127 128.636 24.9925 128.498 25.29L127.308 24.865C127.521 24.3691 127.804 23.9831 128.158 23.7068C128.516 23.427 128.906 23.2323 129.327 23.1225C129.752 23.0091 130.17 22.9525 130.581 22.9525C130.843 22.9525 131.144 22.9843 131.484 23.0481C131.827 23.1083 132.159 23.234 132.477 23.4253C132.8 23.6165 133.067 23.9052 133.279 24.2912C133.492 24.6773 133.598 25.1943 133.598 25.8425V31.2188H132.344V30.1137H132.281C132.196 30.2908 132.054 30.4803 131.856 30.6822C131.657 30.8841 131.394 31.0558 131.064 31.1975C130.735 31.3392 130.333 31.41 129.858 31.41ZM130.049 30.2837C130.545 30.2837 130.963 30.1863 131.303 29.9916C131.647 29.7968 131.905 29.5453 132.079 29.2372C132.256 28.9291 132.344 28.605 132.344 28.265V27.1175C132.291 27.1812 132.174 27.2397 131.994 27.2928C131.817 27.3424 131.611 27.3866 131.378 27.4256C131.147 27.461 130.922 27.4929 130.703 27.5212C130.487 27.546 130.312 27.5673 130.177 27.585C129.851 27.6275 129.547 27.6965 129.263 27.7922C128.983 27.8843 128.757 28.0242 128.583 28.2119C128.413 28.396 128.328 28.6475 128.328 28.9662C128.328 29.4019 128.489 29.7312 128.812 29.9544C129.137 30.174 129.55 30.2837 130.049 30.2837ZM137.14 20.3387V31.2188H135.887V20.3387H137.14ZM143.644 31.2188V23.0587H144.855V24.2912H144.94C145.089 23.8875 145.358 23.5599 145.748 23.3084C146.138 23.0569 146.577 22.9312 147.065 22.9312C147.158 22.9312 147.273 22.933 147.411 22.9365C147.549 22.9401 147.653 22.9454 147.724 22.9525V24.2275C147.682 24.2168 147.584 24.2009 147.432 24.1797C147.283 24.1549 147.126 24.1425 146.959 24.1425C146.563 24.1425 146.208 24.2257 145.897 24.3922C145.589 24.5551 145.344 24.7817 145.164 25.0722C144.987 25.359 144.898 25.6866 144.898 26.055V31.2188H143.644ZM152.383 31.3888C151.597 31.3888 150.919 31.2152 150.349 30.8681C149.782 30.5175 149.345 30.0287 149.036 29.4019C148.732 28.7714 148.58 28.0383 148.58 27.2025C148.58 26.3666 148.732 25.63 149.036 24.9925C149.345 24.3514 149.773 23.8521 150.322 23.4943C150.875 23.1331 151.519 22.9525 152.256 22.9525C152.681 22.9525 153.101 23.0233 153.515 23.165C153.929 23.3066 154.306 23.5368 154.646 23.8556C154.986 24.1708 155.257 24.5887 155.459 25.1093C155.661 25.63 155.762 26.271 155.762 27.0325V27.5637H149.472V26.48H154.487C154.487 26.0196 154.395 25.6087 154.211 25.2475C154.03 24.8862 153.772 24.6011 153.435 24.3922C153.102 24.1832 152.709 24.0787 152.256 24.0787C151.756 24.0787 151.324 24.2027 150.96 24.4506C150.598 24.695 150.32 25.0137 150.125 25.4068C149.931 25.8 149.833 26.2214 149.833 26.6712V27.3937C149.833 28.01 149.94 28.5324 150.152 28.9609C150.368 29.3859 150.667 29.71 151.05 29.9331C151.432 30.1527 151.877 30.2625 152.383 30.2625C152.713 30.2625 153.01 30.2165 153.276 30.1244C153.545 30.0287 153.777 29.8871 153.972 29.6994C154.167 29.5081 154.317 29.2708 154.423 28.9875L155.635 29.3275C155.507 29.7383 155.293 30.0996 154.992 30.4112C154.691 30.7194 154.319 30.9602 153.876 31.1337C153.433 31.3038 152.936 31.3888 152.383 31.3888ZM163.449 24.8862L162.323 25.205C162.252 25.0173 162.148 24.8349 162.01 24.6578C161.875 24.4772 161.691 24.3284 161.457 24.2115C161.223 24.0947 160.924 24.0362 160.559 24.0362C160.06 24.0362 159.644 24.1513 159.311 24.3815C158.981 24.6082 158.817 24.8968 158.817 25.2475C158.817 25.5591 158.93 25.8053 159.157 25.9859C159.383 26.1665 159.738 26.3171 160.219 26.4375L161.431 26.735C162.16 26.9121 162.704 27.183 163.061 27.5478C163.419 27.909 163.598 28.3748 163.598 28.945C163.598 29.4125 163.463 29.8304 163.194 30.1987C162.929 30.5671 162.557 30.8575 162.079 31.07C161.601 31.2825 161.044 31.3888 160.411 31.3888C159.578 31.3888 158.889 31.2081 158.344 30.8469C157.799 30.4856 157.453 29.9579 157.308 29.2637L158.498 28.9662C158.611 29.4054 158.826 29.7348 159.141 29.9544C159.46 30.174 159.876 30.2837 160.389 30.2837C160.974 30.2837 161.438 30.1598 161.781 29.9119C162.128 29.6604 162.302 29.3594 162.302 29.0087C162.302 28.7254 162.203 28.4881 162.004 28.2969C161.806 28.1021 161.501 27.9569 161.091 27.8612L159.731 27.5425C158.983 27.3654 158.434 27.0909 158.084 26.719C157.737 26.3436 157.563 25.8744 157.563 25.3112C157.563 24.8508 157.692 24.4435 157.951 24.0893C158.213 23.7352 158.569 23.4572 159.019 23.2553C159.472 23.0534 159.986 22.9525 160.559 22.9525C161.367 22.9525 162.001 23.1295 162.461 23.4837C162.925 23.8379 163.254 24.3054 163.449 24.8862ZM168.8 31.3888C168.064 31.3888 167.417 31.2134 166.861 30.8628C166.309 30.5122 165.877 30.0217 165.565 29.3912C165.257 28.7608 165.103 28.0242 165.103 27.1812C165.103 26.3312 165.257 25.5892 165.565 24.9553C165.877 24.3213 166.309 23.829 166.861 23.4784C167.417 23.1278 168.064 22.9525 168.8 22.9525C169.537 22.9525 170.182 23.1278 170.734 23.4784C171.29 23.829 171.722 24.3213 172.03 24.9553C172.342 25.5892 172.498 26.3312 172.498 27.1812C172.498 28.0242 172.342 28.7608 172.03 29.3912C171.722 30.0217 171.29 30.5122 170.734 30.8628C170.182 31.2134 169.537 31.3888 168.8 31.3888ZM168.8 30.2625C169.36 30.2625 169.82 30.1191 170.182 29.8322C170.543 29.5453 170.81 29.1681 170.984 28.7006C171.157 28.2331 171.244 27.7267 171.244 27.1812C171.244 26.6358 171.157 26.1276 170.984 25.6565C170.81 25.1855 170.543 24.8048 170.182 24.5143C169.82 24.2239 169.36 24.0787 168.8 24.0787C168.241 24.0787 167.78 24.2239 167.419 24.5143C167.058 24.8048 166.79 25.1855 166.617 25.6565C166.443 26.1276 166.357 26.6358 166.357 27.1812C166.357 27.7267 166.443 28.2331 166.617 28.7006C166.79 29.1681 167.058 29.5453 167.419 29.8322C167.78 30.1191 168.241 30.2625 168.8 30.2625ZM179.554 27.8825V23.0587H180.808V31.2188H179.554V29.8375H179.469C179.278 30.2519 178.98 30.6043 178.577 30.8947C178.173 31.1816 177.663 31.325 177.047 31.325C176.537 31.325 176.083 31.2134 175.687 30.9903C175.29 30.7636 174.978 30.4236 174.752 29.9703C174.525 29.5134 174.412 28.9379 174.412 28.2437V23.0587H175.665V28.1587C175.665 28.7537 175.832 29.2283 176.165 29.5825C176.501 29.9367 176.93 30.1137 177.45 30.1137C177.762 30.1137 178.079 30.0341 178.401 29.8747C178.727 29.7153 179 29.4709 179.22 29.1416C179.443 28.8122 179.554 28.3925 179.554 27.8825ZM183.104 31.2188V23.0587H184.316V24.2912H184.401C184.549 23.8875 184.818 23.5599 185.208 23.3084C185.598 23.0569 186.037 22.9312 186.526 22.9312C186.618 22.9312 186.733 22.933 186.871 22.9365C187.009 22.9401 187.113 22.9454 187.184 22.9525V24.2275C187.142 24.2168 187.044 24.2009 186.892 24.1797C186.743 24.1549 186.586 24.1425 186.419 24.1425C186.023 24.1425 185.668 24.2257 185.357 24.3922C185.049 24.5551 184.804 24.7817 184.624 25.0722C184.447 25.359 184.358 25.6866 184.358 26.055V31.2188H183.104ZM191.737 31.3888C190.972 31.3888 190.313 31.2081 189.761 30.8469C189.208 30.4856 188.783 29.988 188.486 29.3541C188.188 28.7201 188.04 27.9958 188.04 27.1812C188.04 26.3525 188.192 25.6211 188.497 24.9872C188.805 24.3497 189.233 23.8521 189.782 23.4943C190.335 23.1331 190.979 22.9525 191.716 22.9525C192.29 22.9525 192.807 23.0587 193.267 23.2712C193.728 23.4837 194.105 23.7812 194.399 24.1637C194.693 24.5462 194.875 24.9925 194.946 25.5025H193.692C193.597 25.1306 193.384 24.8012 193.055 24.5143C192.729 24.2239 192.29 24.0787 191.737 24.0787C191.248 24.0787 190.82 24.2062 190.452 24.4612C190.087 24.7127 189.802 25.0686 189.596 25.529C189.394 25.9859 189.293 26.5225 189.293 27.1387C189.293 27.7692 189.393 28.3181 189.591 28.7856C189.793 29.2531 190.076 29.6161 190.441 29.8747C190.809 30.1332 191.241 30.2625 191.737 30.2625C192.063 30.2625 192.359 30.2058 192.624 30.0925C192.89 29.9792 193.115 29.8162 193.299 29.6037C193.483 29.3912 193.614 29.1362 193.692 28.8387H194.946C194.875 29.3204 194.7 29.7543 194.42 30.1403C194.144 30.5228 193.777 30.8274 193.32 31.0541C192.867 31.2772 192.339 31.3888 191.737 31.3888ZM200.2 31.3888C199.414 31.3888 198.736 31.2152 198.165 30.8681C197.599 30.5175 197.161 30.0287 196.853 29.4019C196.549 28.7714 196.396 28.0383 196.396 27.2025C196.396 26.3666 196.549 25.63 196.853 24.9925C197.161 24.3514 197.59 23.8521 198.139 23.4943C198.691 23.1331 199.336 22.9525 200.072 22.9525C200.497 22.9525 200.917 23.0233 201.332 23.165C201.746 23.3066 202.123 23.5368 202.463 23.8556C202.803 24.1708 203.074 24.5887 203.276 25.1093C203.478 25.63 203.579 26.271 203.579 27.0325V27.5637H197.289V26.48H202.304C202.304 26.0196 202.212 25.6087 202.028 25.2475C201.847 24.8862 201.588 24.6011 201.252 24.3922C200.919 24.1832 200.526 24.0787 200.072 24.0787C199.573 24.0787 199.141 24.2027 198.776 24.4506C198.415 24.695 198.137 25.0137 197.942 25.4068C197.747 25.8 197.65 26.2214 197.65 26.6712V27.3937C197.65 28.01 197.756 28.5324 197.969 28.9609C198.185 29.3859 198.484 29.71 198.867 29.9331C199.249 30.1527 199.694 30.2625 200.2 30.2625C200.529 30.2625 200.827 30.2165 201.092 30.1244C201.362 30.0287 201.594 29.8871 201.788 29.6994C201.983 29.5081 202.134 29.2708 202.24 28.9875L203.451 29.3275C203.324 29.7383 203.109 30.0996 202.808 30.4112C202.507 30.7194 202.136 30.9602 201.693 31.1337C201.25 31.3038 200.752 31.3888 200.2 31.3888ZM211.266 24.8862L210.14 25.205C210.069 25.0173 209.964 24.8349 209.826 24.6578C209.692 24.4772 209.508 24.3284 209.274 24.2115C209.04 24.0947 208.741 24.0362 208.376 24.0362C207.877 24.0362 207.46 24.1513 207.128 24.3815C206.798 24.6082 206.633 24.8968 206.633 25.2475C206.633 25.5591 206.747 25.8053 206.973 25.9859C207.2 26.1665 207.554 26.3171 208.036 26.4375L209.247 26.735C209.977 26.9121 210.52 27.183 210.878 27.5478C211.236 27.909 211.415 28.3748 211.415 28.945C211.415 29.4125 211.28 29.8304 211.011 30.1987C210.745 30.5671 210.373 30.8575 209.895 31.07C209.417 31.2825 208.861 31.3888 208.227 31.3888C207.395 31.3888 206.706 31.2081 206.161 30.8469C205.615 30.4856 205.27 29.9579 205.125 29.2637L206.315 28.9662C206.428 29.4054 206.642 29.7348 206.958 29.9544C207.276 30.174 207.692 30.2837 208.206 30.2837C208.79 30.2837 209.254 30.1598 209.598 29.9119C209.945 29.6604 210.118 29.3594 210.118 29.0087C210.118 28.7254 210.019 28.4881 209.821 28.2969C209.623 28.1021 209.318 27.9569 208.907 27.8612L207.547 27.5425C206.8 27.3654 206.251 27.0909 205.9 26.719C205.553 26.3436 205.38 25.8744 205.38 25.3112C205.38 24.8508 205.509 24.4435 205.768 24.0893C206.03 23.7352 206.386 23.4572 206.835 23.2553C207.289 23.0534 207.802 22.9525 208.376 22.9525C209.183 22.9525 209.817 23.1295 210.278 23.4837C210.742 23.8379 211.071 24.3054 211.266 24.8862ZM217.51 31.2188V23.0587H218.763V31.2188H217.51ZM218.147 21.6987C217.903 21.6987 217.692 21.6155 217.515 21.449C217.341 21.2826 217.255 21.0825 217.255 20.8487C217.255 20.615 217.341 20.4148 217.515 20.2484C217.692 20.0819 217.903 19.9987 218.147 19.9987C218.391 19.9987 218.6 20.0819 218.774 20.2484C218.951 20.4148 219.04 20.615 219.04 20.8487C219.04 21.0825 218.951 21.2826 218.774 21.449C218.6 21.6155 218.391 21.6987 218.147 21.6987ZM222.313 26.31V31.2188H221.06V23.0587H222.271V24.3337H222.377C222.568 23.9193 222.859 23.5864 223.248 23.335C223.638 23.08 224.141 22.9525 224.757 22.9525C225.31 22.9525 225.793 23.0658 226.207 23.2925C226.622 23.5156 226.944 23.8556 227.174 24.3125C227.405 24.7658 227.52 25.3396 227.52 26.0337V31.2188H226.266V26.1187C226.266 25.4777 226.099 24.9783 225.767 24.6206C225.434 24.2593 224.977 24.0787 224.396 24.0787C223.996 24.0787 223.638 24.1655 223.323 24.339C223.011 24.5126 222.765 24.7658 222.584 25.0987C222.404 25.4316 222.313 25.8354 222.313 26.31ZM237.333 31.3888C236.597 31.3888 235.95 31.2134 235.394 30.8628C234.842 30.5122 234.41 30.0217 234.098 29.3912C233.79 28.7608 233.636 28.0242 233.636 27.1812C233.636 26.3312 233.79 25.5892 234.098 24.9553C234.41 24.3213 234.842 23.829 235.394 23.4784C235.95 23.1278 236.597 22.9525 237.333 22.9525C238.07 22.9525 238.714 23.1278 239.267 23.4784C239.823 23.829 240.255 24.3213 240.563 24.9553C240.875 25.5892 241.031 26.3312 241.031 27.1812C241.031 28.0242 240.875 28.7608 240.563 29.3912C240.255 30.0217 239.823 30.5122 239.267 30.8628C238.714 31.2134 238.07 31.3888 237.333 31.3888ZM237.333 30.2625C237.893 30.2625 238.353 30.1191 238.714 29.8322C239.076 29.5453 239.343 29.1681 239.517 28.7006C239.69 28.2331 239.777 27.7267 239.777 27.1812C239.777 26.6358 239.69 26.1276 239.517 25.6565C239.343 25.1855 239.076 24.8048 238.714 24.5143C238.353 24.2239 237.893 24.0787 237.333 24.0787C236.774 24.0787 236.313 24.2239 235.952 24.5143C235.591 24.8048 235.323 25.1855 235.15 25.6565C234.976 26.1276 234.889 26.6358 234.889 27.1812C234.889 27.7267 234.976 28.2331 235.15 28.7006C235.323 29.1681 235.591 29.5453 235.952 29.8322C236.313 30.1191 236.774 30.2625 237.333 30.2625ZM244.198 26.31V31.2188H242.945V23.0587H244.156V24.3337H244.262C244.453 23.9193 244.744 23.5864 245.133 23.335C245.523 23.08 246.026 22.9525 246.642 22.9525C247.195 22.9525 247.678 23.0658 248.092 23.2925C248.507 23.5156 248.829 23.8556 249.059 24.3125C249.289 24.7658 249.405 25.3396 249.405 26.0337V31.2188H248.151V26.1187C248.151 25.4777 247.984 24.9783 247.651 24.6206C247.319 24.2593 246.862 24.0787 246.281 24.0787C245.881 24.0787 245.523 24.1655 245.208 24.339C244.896 24.5126 244.65 24.7658 244.469 25.0987C244.289 25.4316 244.198 25.8354 244.198 26.31ZM255.117 31.3888C254.331 31.3888 253.652 31.2152 253.082 30.8681C252.516 30.5175 252.078 30.0287 251.77 29.4019C251.465 28.7714 251.313 28.0383 251.313 27.2025C251.313 26.3666 251.465 25.63 251.77 24.9925C252.078 24.3514 252.507 23.8521 253.056 23.4943C253.608 23.1331 254.253 22.9525 254.989 22.9525C255.414 22.9525 255.834 23.0233 256.248 23.165C256.663 23.3066 257.04 23.5368 257.38 23.8556C257.72 24.1708 257.991 24.5887 258.193 25.1093C258.395 25.63 258.496 26.271 258.496 27.0325V27.5637H252.206V26.48H257.221C257.221 26.0196 257.129 25.6087 256.944 25.2475C256.764 24.8862 256.505 24.6011 256.169 24.3922C255.836 24.1832 255.443 24.0787 254.989 24.0787C254.49 24.0787 254.058 24.2027 253.693 24.4506C253.332 24.695 253.054 25.0137 252.859 25.4068C252.664 25.8 252.567 26.2214 252.567 26.6712V27.3937C252.567 28.01 252.673 28.5324 252.886 28.9609C253.102 29.3859 253.401 29.71 253.783 29.9331C254.166 30.1527 254.61 30.2625 255.117 30.2625C255.446 30.2625 255.744 30.2165 256.009 30.1244C256.279 30.0287 256.511 29.8871 256.705 29.6994C256.9 29.5081 257.051 29.2708 257.157 28.9875L258.368 29.3275C258.241 29.7383 258.026 30.0996 257.725 30.4112C257.424 30.7194 257.052 30.9602 256.61 31.1337C256.167 31.3038 255.669 31.3888 255.117 31.3888ZM264.61 34.2788V23.0587H265.822V24.355H265.97C266.062 24.2133 266.19 24.0327 266.353 23.8131C266.519 23.59 266.757 23.3916 267.065 23.2181C267.376 23.041 267.798 22.9525 268.329 22.9525C269.016 22.9525 269.622 23.1242 270.146 23.4678C270.67 23.8113 271.079 24.2983 271.373 24.9287C271.667 25.5591 271.814 26.3029 271.814 27.16C271.814 28.0242 271.667 28.7732 271.373 29.4072C271.079 30.0376 270.672 30.5264 270.151 30.8734C269.631 31.217 269.03 31.3888 268.35 31.3888C267.826 31.3888 267.407 31.302 267.091 31.1284C266.776 30.9514 266.533 30.7512 266.363 30.5281C266.193 30.3015 266.062 30.1137 265.97 29.965H265.864V34.2788H264.61ZM265.843 27.1387C265.843 27.755 265.933 28.2986 266.114 28.7697C266.294 29.2372 266.558 29.6037 266.905 29.8694C267.252 30.1315 267.677 30.2625 268.18 30.2625C268.705 30.2625 269.142 30.1244 269.493 29.8481C269.847 29.5683 270.112 29.1929 270.289 28.7219C270.47 28.2473 270.56 27.7196 270.56 27.1387C270.56 26.565 270.472 26.0479 270.295 25.5875C270.121 25.1235 269.857 24.757 269.503 24.4878C269.153 24.2151 268.712 24.0787 268.18 24.0787C267.67 24.0787 267.242 24.208 266.895 24.4665C266.548 24.7215 266.286 25.0792 266.108 25.5397C265.931 25.9965 265.843 26.5296 265.843 27.1387ZM274.98 20.3387V31.2188H273.727V20.3387H274.98ZM279.678 31.41C279.161 31.41 278.692 31.3126 278.27 31.1178C277.849 30.9195 277.514 30.6344 277.266 30.2625C277.018 29.8871 276.894 29.4337 276.894 28.9025C276.894 28.435 276.986 28.056 277.17 27.7656C277.355 27.4717 277.601 27.2414 277.909 27.075C278.217 26.9085 278.557 26.7846 278.929 26.7031C279.304 26.6181 279.682 26.5508 280.061 26.5012C280.556 26.4375 280.958 26.3897 281.266 26.3578C281.578 26.3224 281.805 26.2639 281.946 26.1825C282.092 26.101 282.164 25.9594 282.164 25.7575V25.715C282.164 25.1908 282.021 24.7835 281.734 24.4931C281.451 24.2027 281.02 24.0575 280.443 24.0575C279.844 24.0575 279.375 24.1885 279.035 24.4506C278.695 24.7127 278.456 24.9925 278.318 25.29L277.128 24.865C277.34 24.3691 277.624 23.9831 277.978 23.7068C278.336 23.427 278.725 23.2323 279.147 23.1225C279.572 23.0091 279.99 22.9525 280.401 22.9525C280.663 22.9525 280.964 22.9843 281.304 23.0481C281.647 23.1083 281.978 23.234 282.297 23.4253C282.619 23.6165 282.887 23.9052 283.099 24.2912C283.312 24.6773 283.418 25.1943 283.418 25.8425V31.2188H282.164V30.1137H282.101C282.016 30.2908 281.874 30.4803 281.676 30.6822C281.477 30.8841 281.213 31.0558 280.884 31.1975C280.555 31.3392 280.153 31.41 279.678 31.41ZM279.869 30.2837C280.365 30.2837 280.783 30.1863 281.123 29.9916C281.467 29.7968 281.725 29.5453 281.899 29.2372C282.076 28.9291 282.164 28.605 282.164 28.265V27.1175C282.111 27.1812 281.994 27.2397 281.814 27.2928C281.637 27.3424 281.431 27.3866 281.197 27.4256C280.967 27.461 280.742 27.4929 280.523 27.5212C280.307 27.546 280.131 27.5673 279.997 27.585C279.671 27.6275 279.366 27.6965 279.083 27.7922C278.803 27.8843 278.577 28.0242 278.403 28.2119C278.233 28.396 278.148 28.6475 278.148 28.9662C278.148 29.4019 278.309 29.7312 278.631 29.9544C278.957 30.174 279.37 30.2837 279.869 30.2837ZM289.021 31.3888C288.256 31.3888 287.598 31.2081 287.045 30.8469C286.493 30.4856 286.068 29.988 285.77 29.3541C285.473 28.7201 285.324 27.9958 285.324 27.1812C285.324 26.3525 285.476 25.6211 285.781 24.9872C286.089 24.3497 286.517 23.8521 287.066 23.4943C287.619 23.1331 288.263 22.9525 289 22.9525C289.574 22.9525 290.091 23.0587 290.551 23.2712C291.012 23.4837 291.389 23.7812 291.683 24.1637C291.977 24.5462 292.159 24.9925 292.23 25.5025H290.976C290.881 25.1306 290.668 24.8012 290.339 24.5143C290.013 24.2239 289.574 24.0787 289.021 24.0787C288.533 24.0787 288.104 24.2062 287.736 24.4612C287.371 24.7127 287.086 25.0686 286.88 25.529C286.679 25.9859 286.578 26.5225 286.578 27.1387C286.578 27.7692 286.677 28.3181 286.875 28.7856C287.077 29.2531 287.36 29.6161 287.725 29.8747C288.093 30.1332 288.526 30.2625 289.021 30.2625C289.347 30.2625 289.643 30.2058 289.909 30.0925C290.174 29.9792 290.399 29.8162 290.583 29.6037C290.767 29.3912 290.898 29.1362 290.976 28.8387H292.23C292.159 29.3204 291.984 29.7543 291.704 30.1403C291.428 30.5228 291.061 30.8274 290.605 31.0541C290.151 31.2772 289.623 31.3888 289.021 31.3888ZM297.484 31.3888C296.698 31.3888 296.02 31.2152 295.45 30.8681C294.883 30.5175 294.445 30.0287 294.137 29.4019C293.833 28.7714 293.68 28.0383 293.68 27.2025C293.68 26.3666 293.833 25.63 294.137 24.9925C294.445 24.3514 294.874 23.8521 295.423 23.4943C295.975 23.1331 296.62 22.9525 297.357 22.9525C297.782 22.9525 298.201 23.0233 298.616 23.165C299.03 23.3066 299.407 23.5368 299.747 23.8556C300.087 24.1708 300.358 24.5887 300.56 25.1093C300.762 25.63 300.863 26.271 300.863 27.0325V27.5637H294.573V26.48H299.588C299.588 26.0196 299.496 25.6087 299.312 25.2475C299.131 24.8862 298.873 24.6011 298.536 24.3922C298.203 24.1832 297.81 24.0787 297.357 24.0787C296.857 24.0787 296.425 24.2027 296.06 24.4506C295.699 24.695 295.421 25.0137 295.226 25.4068C295.032 25.8 294.934 26.2214 294.934 26.6712V27.3937C294.934 28.01 295.04 28.5324 295.253 28.9609C295.469 29.3859 295.768 29.71 296.151 29.9331C296.533 30.1527 296.978 30.2625 297.484 30.2625C297.814 30.2625 298.111 30.2165 298.377 30.1244C298.646 30.0287 298.878 29.8871 299.073 29.6994C299.267 29.5081 299.418 29.2708 299.524 28.9875L300.736 29.3275C300.608 29.7383 300.394 30.0996 300.093 30.4112C299.792 30.7194 299.42 30.9602 298.977 31.1337C298.534 31.3038 298.037 31.3888 297.484 31.3888ZM303.684 31.3038C303.422 31.3038 303.197 31.2099 303.009 31.0222C302.822 30.8345 302.728 30.6096 302.728 30.3475C302.728 30.0854 302.822 29.8605 303.009 29.6728C303.197 29.4851 303.422 29.3912 303.684 29.3912C303.946 29.3912 304.171 29.4851 304.359 29.6728C304.546 29.8605 304.64 30.0854 304.64 30.3475C304.64 30.521 304.596 30.6804 304.507 30.8256C304.422 30.9708 304.307 31.0877 304.162 31.1762C304.02 31.2613 303.861 31.3038 303.684 31.3038ZM306.747 20.3387V24.0787H305.578V20.3387H306.747ZM309.467 20.3387V24.0787H308.298V20.3387H309.467Z" fill="#4A5370"/>
</svg>
