<svg width="351" height="35" viewBox="0 0 351 35" fill="none" xmlns="http://www.w3.org/2000/svg">
<path d="M0.552857 11.3906V0.510577H7.11914V1.67933H1.87036V5.3556H6.77913V6.52435H1.87036V10.2219H7.20414V11.3906H0.552857ZM10.2588 3.23059L12.2138 6.56685L14.1689 3.23059H15.6139L12.9788 7.31061L15.6139 11.3906H14.1689L12.2138 8.22436L10.2588 11.3906H8.81383L11.4063 7.31061L8.81383 3.23059H10.2588ZM17.4029 14.4506V3.23059H18.6141V4.52684H18.7629C18.8549 4.38518 18.9824 4.20455 19.1454 3.98497C19.3118 3.76184 19.5491 3.56351 19.8572 3.38997C20.1689 3.21288 20.5904 3.12434 21.1216 3.12434C21.8087 3.12434 22.4143 3.29611 22.9385 3.63965C23.4627 3.9832 23.8717 4.47018 24.1657 5.1006C24.4597 5.73102 24.6066 6.47477 24.6066 7.33186C24.6066 8.19603 24.4597 8.94509 24.1657 9.57905C23.8717 10.2095 23.4644 10.6982 22.9438 11.0453C22.4232 11.3889 21.8229 11.5606 21.1429 11.5606C20.6187 11.5606 20.199 11.4739 19.8838 11.3003C19.5686 11.1232 19.326 10.9231 19.156 10.7C18.986 10.4733 18.8549 10.2856 18.7629 10.1369H18.6566V14.4506H17.4029ZM18.6354 7.31061C18.6354 7.92686 18.7257 8.47051 18.9063 8.94155C19.0869 9.40905 19.3508 9.77562 19.6979 10.0412C20.0449 10.3033 20.4699 10.4344 20.9729 10.4344C21.497 10.4344 21.9344 10.2962 22.2851 10.02C22.6392 9.7402 22.9049 9.36478 23.0819 8.89374C23.2626 8.41915 23.3529 7.89144 23.3529 7.31061C23.3529 6.73685 23.2643 6.21977 23.0873 5.75935C22.9137 5.29539 22.6499 4.92883 22.2957 4.65966C21.9451 4.38695 21.5041 4.25059 20.9729 4.25059C20.4629 4.25059 20.0343 4.37987 19.6872 4.63841C19.3402 4.89341 19.0781 5.25112 18.901 5.71154C18.7239 6.16841 18.6354 6.70144 18.6354 7.31061ZM27.7729 0.510577V11.3906H26.5191V0.510577H27.7729ZM33.3842 11.5606C32.6476 11.5606 32.0012 11.3853 31.4452 11.0347C30.8927 10.6841 30.4606 10.1935 30.1489 9.56312C29.8408 8.9327 29.6867 8.19603 29.6867 7.35311C29.6867 6.5031 29.8408 5.76112 30.1489 5.12716C30.4606 4.4932 30.8927 4.00091 31.4452 3.65028C32.0012 3.29965 32.6476 3.12434 33.3842 3.12434C34.1209 3.12434 34.7655 3.29965 35.318 3.65028C35.8741 4.00091 36.3061 4.4932 36.6143 5.12716C36.9259 5.76112 37.0818 6.5031 37.0818 7.35311C37.0818 8.19603 36.9259 8.9327 36.6143 9.56312C36.3061 10.1935 35.8741 10.6841 35.318 11.0347C34.7655 11.3853 34.1209 11.5606 33.3842 11.5606ZM33.3842 10.4344C33.9438 10.4344 34.4043 10.2909 34.7655 10.0041C35.1268 9.71718 35.3942 9.33999 35.5677 8.87249C35.7412 8.40499 35.828 7.89853 35.828 7.35311C35.828 6.80769 35.7412 6.29946 35.5677 5.82841C35.3942 5.35737 35.1268 4.97664 34.7655 4.68622C34.4043 4.3958 33.9438 4.25059 33.3842 4.25059C32.8247 4.25059 32.3642 4.3958 32.003 4.68622C31.6417 4.97664 31.3743 5.35737 31.2008 5.82841C31.0273 6.29946 30.9405 6.80769 30.9405 7.35311C30.9405 7.89853 31.0273 8.40499 31.2008 8.87249C31.3743 9.33999 31.6417 9.71718 32.003 10.0041C32.3642 10.2909 32.8247 10.4344 33.3842 10.4344ZM38.9956 11.3906V3.23059H40.2069V4.46309H40.2919C40.4406 4.05934 40.7098 3.73174 41.0994 3.48028C41.4889 3.22882 41.9281 3.10309 42.4169 3.10309C42.5089 3.10309 42.6241 3.10486 42.7622 3.1084C42.9003 3.11194 43.0048 3.11726 43.0756 3.12434V4.39934C43.0331 4.38872 42.9357 4.37278 42.7834 4.35153C42.6347 4.32674 42.4771 4.31434 42.3106 4.31434C41.9139 4.31434 41.5598 4.39757 41.2481 4.56403C40.94 4.72695 40.6956 4.95362 40.515 5.24404C40.3379 5.53091 40.2494 5.85852 40.2494 6.22685V11.3906H38.9956ZM47.7347 11.5606C46.9484 11.5606 46.2702 11.3871 45.7 11.04C45.1333 10.6894 44.6959 10.2006 44.3878 9.57374C44.0832 8.94332 43.9309 8.21019 43.9309 7.37436C43.9309 6.53852 44.0832 5.80185 44.3878 5.16435C44.6959 4.5233 45.1245 4.02393 45.6734 3.66622C46.2259 3.30496 46.8705 3.12434 47.6072 3.12434C48.0322 3.12434 48.4519 3.19517 48.8663 3.33684C49.2806 3.47851 49.6578 3.70872 49.9978 4.02747C50.3378 4.34268 50.6088 4.7606 50.8107 5.28122C51.0125 5.80185 51.1135 6.44289 51.1135 7.20436V7.73561H44.8234V6.65185H49.8385C49.8385 6.19144 49.7464 5.7806 49.5622 5.41935C49.3816 5.0581 49.123 4.77299 48.7866 4.56403C48.4537 4.35507 48.0605 4.25059 47.6072 4.25059C47.1078 4.25059 46.6757 4.37455 46.3109 4.62247C45.9497 4.86685 45.6717 5.1856 45.4769 5.57872C45.2821 5.97185 45.1847 6.39331 45.1847 6.84311V7.56561C45.1847 8.18186 45.2909 8.70426 45.5034 9.1328C45.7195 9.5578 46.0188 9.88187 46.4013 10.105C46.7838 10.3246 47.2282 10.4344 47.7347 10.4344C48.0641 10.4344 48.3616 10.3883 48.6272 10.2962C48.8964 10.2006 49.1284 10.059 49.3231 9.87124C49.5179 9.67999 49.6685 9.4427 49.7747 9.15937L50.986 9.49937C50.8585 9.9102 50.6442 10.2715 50.3432 10.5831C50.0421 10.8912 49.6702 11.1321 49.2275 11.3056C48.7848 11.4756 48.2872 11.5606 47.7347 11.5606ZM60.5432 11.5606C59.8065 11.5606 59.1602 11.3853 58.6041 11.0347C58.0516 10.6841 57.6195 10.1935 57.3079 9.56312C56.9997 8.9327 56.8457 8.19603 56.8457 7.35311C56.8457 6.5031 56.9997 5.76112 57.3079 5.12716C57.6195 4.4932 58.0516 4.00091 58.6041 3.65028C59.1602 3.29965 59.8065 3.12434 60.5432 3.12434C61.2799 3.12434 61.9244 3.29965 62.477 3.65028C63.033 4.00091 63.4651 4.4932 63.7732 5.12716C64.0849 5.76112 64.2407 6.5031 64.2407 7.35311C64.2407 8.19603 64.0849 8.9327 63.7732 9.56312C63.4651 10.1935 63.033 10.6841 62.477 11.0347C61.9244 11.3853 61.2799 11.5606 60.5432 11.5606ZM60.5432 10.4344C61.1028 10.4344 61.5632 10.2909 61.9244 10.0041C62.2857 9.71718 62.5531 9.33999 62.7266 8.87249C62.9002 8.40499 62.987 7.89853 62.987 7.35311C62.987 6.80769 62.9002 6.29946 62.7266 5.82841C62.5531 5.35737 62.2857 4.97664 61.9244 4.68622C61.5632 4.3958 61.1028 4.25059 60.5432 4.25059C59.9836 4.25059 59.5232 4.3958 59.1619 4.68622C58.8007 4.97664 58.5333 5.35737 58.3597 5.82841C58.1862 6.29946 58.0994 6.80769 58.0994 7.35311C58.0994 7.89853 58.1862 8.40499 58.3597 8.87249C58.5333 9.33999 58.8007 9.71718 59.1619 10.0041C59.5232 10.2909 59.9836 10.4344 60.5432 10.4344ZM71.2971 8.05436V3.23059H72.5508V11.3906H71.2971V10.0094H71.2121C71.0208 10.4237 70.7233 10.7761 70.3196 11.0666C69.9158 11.3534 69.4058 11.4969 68.7896 11.4969C68.2796 11.4969 67.8262 11.3853 67.4296 11.1622C67.0329 10.9355 66.7212 10.5955 66.4945 10.1422C66.2679 9.6853 66.1545 9.10978 66.1545 8.41561V3.23059H67.4083V8.33061C67.4083 8.92561 67.5748 9.4002 67.9077 9.75437C68.2441 10.1085 68.6727 10.2856 69.1933 10.2856C69.505 10.2856 69.822 10.2059 70.1443 10.0466C70.4701 9.88718 70.7428 9.6428 70.9624 9.31343C71.1855 8.98405 71.2971 8.56436 71.2971 8.05436ZM74.8472 11.3906V3.23059H76.0584V4.46309H76.1434C76.2922 4.05934 76.5613 3.73174 76.9509 3.48028C77.3405 3.22882 77.7797 3.10309 78.2684 3.10309C78.3605 3.10309 78.4756 3.10486 78.6137 3.1084C78.7519 3.11194 78.8563 3.11726 78.9272 3.12434V4.39934C78.8847 4.38872 78.7873 4.37278 78.635 4.35153C78.4862 4.32674 78.3286 4.31434 78.1622 4.31434C77.7655 4.31434 77.4113 4.39757 77.0997 4.56403C76.7915 4.72695 76.5472 4.95362 76.3665 5.24404C76.1895 5.53091 76.1009 5.85852 76.1009 6.22685V11.3906H74.8472ZM84.6209 11.3906V3.23059H85.8321V4.46309H85.9171C86.0659 4.05934 86.3351 3.73174 86.7246 3.48028C87.1142 3.22882 87.5534 3.10309 88.0421 3.10309C88.1342 3.10309 88.2493 3.10486 88.3875 3.1084C88.5256 3.11194 88.6301 3.11726 88.7009 3.12434V4.39934C88.6584 4.38872 88.561 4.37278 88.4087 4.35153C88.26 4.32674 88.1024 4.31434 87.9359 4.31434C87.5392 4.31434 87.1851 4.39757 86.8734 4.56403C86.5653 4.72695 86.3209 4.95362 86.1403 5.24404C85.9632 5.53091 85.8746 5.85852 85.8746 6.22685V11.3906H84.6209ZM92.5883 11.5819C92.0712 11.5819 91.602 11.4845 91.1805 11.2897C90.7591 11.0914 90.4244 10.8062 90.1764 10.4344C89.9285 10.059 89.8046 9.60562 89.8046 9.07436C89.8046 8.60686 89.8967 8.2279 90.0808 7.93748C90.265 7.64353 90.5111 7.41332 90.8193 7.24686C91.1274 7.0804 91.4674 6.95644 91.8393 6.87498C92.2147 6.78998 92.5919 6.72269 92.9708 6.6731C93.4667 6.60935 93.8686 6.56154 94.1768 6.52967C94.4884 6.49425 94.7151 6.43581 94.8568 6.35435C95.002 6.27289 95.0746 6.13123 95.0746 5.92935V5.88685C95.0746 5.36268 94.9312 4.95539 94.6443 4.66497C94.3609 4.37455 93.9306 4.22934 93.3533 4.22934C92.7548 4.22934 92.2855 4.36039 91.9455 4.62247C91.6055 4.88455 91.3665 5.16435 91.2283 5.46185L90.0383 5.03685C90.2508 4.54101 90.5342 4.15497 90.8883 3.87872C91.246 3.59892 91.6356 3.40413 92.0571 3.29434C92.4821 3.18101 92.9 3.12434 93.3108 3.12434C93.5729 3.12434 93.874 3.15621 94.214 3.21996C94.5575 3.28017 94.8887 3.4059 95.2074 3.59715C95.5297 3.7884 95.7971 4.07705 96.0096 4.46309C96.2221 4.84914 96.3283 5.36622 96.3283 6.01435V11.3906H95.0746V10.2856H95.0108C94.9258 10.4627 94.7842 10.6522 94.5858 10.8541C94.3875 11.0559 94.1237 11.2277 93.7943 11.3694C93.4649 11.511 93.0629 11.5819 92.5883 11.5819ZM92.7796 10.4556C93.2754 10.4556 93.6933 10.3582 94.0333 10.1634C94.3769 9.96864 94.6354 9.71718 94.809 9.40905C94.9861 9.10093 95.0746 8.77686 95.0746 8.43686V7.28936C95.0215 7.35311 94.9046 7.41155 94.724 7.46467C94.5469 7.51425 94.3415 7.55852 94.1077 7.59748C93.8775 7.6329 93.6526 7.66478 93.433 7.69311C93.217 7.7179 93.0417 7.73915 92.9071 7.75686C92.5812 7.79936 92.2767 7.86842 91.9933 7.96405C91.7135 8.05613 91.4869 8.19603 91.3133 8.38374C91.1433 8.5679 91.0583 8.81936 91.0583 9.13812C91.0583 9.57374 91.2195 9.90312 91.5418 10.1262C91.8676 10.3458 92.2802 10.4556 92.7796 10.4556ZM99.8705 6.48185V11.3906H98.6167V3.23059H99.828V4.5056H99.9342C100.125 4.09122 100.416 3.7583 100.805 3.50684C101.195 3.25184 101.698 3.12434 102.314 3.12434C102.867 3.12434 103.35 3.23767 103.765 3.46434C104.179 3.68747 104.501 4.02747 104.731 4.48434C104.962 4.93768 105.077 5.51143 105.077 6.2056V11.3906H103.823V6.2906C103.823 5.64956 103.657 5.15018 103.324 4.79247C102.991 4.43122 102.534 4.25059 101.953 4.25059C101.553 4.25059 101.195 4.33736 100.88 4.51091C100.568 4.68445 100.322 4.93768 100.141 5.2706C99.9608 5.60352 99.8705 6.00727 99.8705 6.48185ZM110.662 14.6206C110.056 14.6206 109.535 14.5427 109.1 14.3869C108.664 14.2346 108.301 14.0327 108.011 13.7813C107.724 13.5333 107.495 13.2677 107.325 12.9844L108.324 12.2831C108.437 12.4319 108.581 12.6019 108.754 12.7931C108.928 12.9879 109.165 13.1562 109.466 13.2978C109.771 13.443 110.169 13.5156 110.662 13.5156C111.32 13.5156 111.864 13.3563 112.292 13.0375C112.721 12.7188 112.935 12.2194 112.935 11.5394V9.88187H112.829C112.737 10.0306 112.606 10.2148 112.436 10.4344C112.269 10.6504 112.029 10.8434 111.713 11.0134C111.402 11.1799 110.98 11.2631 110.449 11.2631C109.79 11.2631 109.199 11.1073 108.675 10.7956C108.154 10.484 107.741 10.0306 107.437 9.43562C107.136 8.84061 106.985 8.11811 106.985 7.26811C106.985 6.43227 107.132 5.70445 107.426 5.08466C107.72 4.46132 108.129 3.97966 108.653 3.63965C109.178 3.29611 109.783 3.12434 110.47 3.12434C111.002 3.12434 111.423 3.21288 111.735 3.38997C112.05 3.56351 112.291 3.76184 112.457 3.98497C112.627 4.20455 112.758 4.38518 112.85 4.52684H112.978V3.23059H114.189V11.6244C114.189 12.3256 114.03 12.8958 113.711 13.335C113.396 13.7777 112.971 14.1018 112.436 14.3072C111.905 14.5162 111.313 14.6206 110.662 14.6206ZM110.619 10.1369C111.122 10.1369 111.547 10.0218 111.894 9.79156C112.241 9.56135 112.505 9.2302 112.686 8.79811C112.866 8.36603 112.957 7.84894 112.957 7.24686C112.957 6.65894 112.868 6.14008 112.691 5.69029C112.514 5.24049 112.252 4.8881 111.905 4.6331C111.558 4.37809 111.129 4.25059 110.619 4.25059C110.088 4.25059 109.645 4.38518 109.291 4.65435C108.94 4.92351 108.676 5.28477 108.499 5.7381C108.326 6.19144 108.239 6.69435 108.239 7.24686C108.239 7.81353 108.328 8.31467 108.505 8.7503C108.685 9.18239 108.951 9.52239 109.302 9.77031C109.656 10.0147 110.095 10.1369 110.619 10.1369ZM119.905 11.5606C119.119 11.5606 118.441 11.3871 117.871 11.04C117.304 10.6894 116.867 10.2006 116.558 9.57374C116.254 8.94332 116.102 8.21019 116.102 7.37436C116.102 6.53852 116.254 5.80185 116.558 5.16435C116.867 4.5233 117.295 4.02393 117.844 3.66622C118.397 3.30496 119.041 3.12434 119.778 3.12434C120.203 3.12434 120.623 3.19517 121.037 3.33684C121.451 3.47851 121.828 3.70872 122.168 4.02747C122.508 4.34268 122.779 4.7606 122.981 5.28122C123.183 5.80185 123.284 6.44289 123.284 7.20436V7.73561H116.994V6.65185H122.009C122.009 6.19144 121.917 5.7806 121.733 5.41935C121.552 5.0581 121.294 4.77299 120.957 4.56403C120.624 4.35507 120.231 4.25059 119.778 4.25059C119.278 4.25059 118.846 4.37455 118.482 4.62247C118.12 4.86685 117.842 5.1856 117.648 5.57872C117.453 5.97185 117.355 6.39331 117.355 6.84311V7.56561C117.355 8.18186 117.462 8.70426 117.674 9.1328C117.89 9.5578 118.189 9.88187 118.572 10.105C118.954 10.3246 119.399 10.4344 119.905 10.4344C120.235 10.4344 120.532 10.3883 120.798 10.2962C121.067 10.2006 121.299 10.059 121.494 9.87124C121.689 9.67999 121.839 9.4427 121.945 9.15937L123.157 9.49937C123.029 9.9102 122.815 10.2715 122.514 10.5831C122.213 10.8912 121.841 11.1321 121.398 11.3056C120.955 11.4756 120.458 11.5606 119.905 11.5606ZM132.714 11.5606C131.977 11.5606 131.331 11.3853 130.775 11.0347C130.222 10.6841 129.79 10.1935 129.478 9.56312C129.17 8.9327 129.016 8.19603 129.016 7.35311C129.016 6.5031 129.17 5.76112 129.478 5.12716C129.79 4.4932 130.222 4.00091 130.775 3.65028C131.331 3.29965 131.977 3.12434 132.714 3.12434C133.45 3.12434 134.095 3.29965 134.648 3.65028C135.204 4.00091 135.636 4.4932 135.944 5.12716C136.255 5.76112 136.411 6.5031 136.411 7.35311C136.411 8.19603 136.255 8.9327 135.944 9.56312C135.636 10.1935 135.204 10.6841 134.648 11.0347C134.095 11.3853 133.45 11.5606 132.714 11.5606ZM132.714 10.4344C133.273 10.4344 133.734 10.2909 134.095 10.0041C134.456 9.71718 134.724 9.33999 134.897 8.87249C135.071 8.40499 135.158 7.89853 135.158 7.35311C135.158 6.80769 135.071 6.29946 134.897 5.82841C134.724 5.35737 134.456 4.97664 134.095 4.68622C133.734 4.3958 133.273 4.25059 132.714 4.25059C132.154 4.25059 131.694 4.3958 131.333 4.68622C130.971 4.97664 130.704 5.35737 130.53 5.82841C130.357 6.29946 130.27 6.80769 130.27 7.35311C130.27 7.89853 130.357 8.40499 130.53 8.87249C130.704 9.33999 130.971 9.71718 131.333 10.0041C131.694 10.2909 132.154 10.4344 132.714 10.4344ZM141.959 3.23059V4.29309H137.56V3.23059H141.959ZM138.878 11.3906V2.10433C138.878 1.63683 138.987 1.24725 139.207 0.935579C139.427 0.623911 139.712 0.39016 140.062 0.234326C140.413 0.0784919 140.783 0.000574867 141.173 0.000574867C141.481 0.000574867 141.732 0.0253668 141.927 0.0749507C142.122 0.124534 142.267 0.170576 142.363 0.213076L142.001 1.29683C141.938 1.27558 141.849 1.24902 141.736 1.21714C141.626 1.18527 141.481 1.16933 141.3 1.16933C140.886 1.16933 140.587 1.27381 140.402 1.48277C140.222 1.69173 140.131 1.99808 140.131 2.40184V11.3906H138.878ZM151.005 11.5606C150.325 11.5606 149.725 11.3889 149.204 11.0453C148.683 10.6982 148.276 10.2095 147.982 9.57905C147.688 8.94509 147.541 8.19603 147.541 7.33186C147.541 6.47477 147.688 5.73102 147.982 5.1006C148.276 4.47018 148.685 3.9832 149.209 3.63965C149.733 3.29611 150.339 3.12434 151.026 3.12434C151.557 3.12434 151.977 3.21288 152.285 3.38997C152.597 3.56351 152.834 3.76184 152.997 3.98497C153.163 4.20455 153.293 4.38518 153.385 4.52684H153.491V0.510577H154.745V11.3906H153.534V10.1369H153.385C153.293 10.2856 153.162 10.4733 152.992 10.7C152.822 10.9231 152.579 11.1232 152.264 11.3003C151.949 11.4739 151.529 11.5606 151.005 11.5606ZM151.175 10.4344C151.678 10.4344 152.103 10.3033 152.45 10.0412C152.797 9.77562 153.061 9.40905 153.241 8.94155C153.422 8.47051 153.512 7.92686 153.512 7.31061C153.512 6.70144 153.424 6.16841 153.247 5.71154C153.07 5.25112 152.808 4.89341 152.46 4.63841C152.113 4.37987 151.685 4.25059 151.175 4.25059C150.644 4.25059 150.201 4.38695 149.847 4.65966C149.496 4.92883 149.232 5.29539 149.055 5.75935C148.882 6.21977 148.795 6.73685 148.795 7.31061C148.795 7.89144 148.883 8.41915 149.06 8.89374C149.241 9.36478 149.507 9.7402 149.857 10.02C150.211 10.2962 150.651 10.4344 151.175 10.4344ZM157.215 11.3906V3.23059H158.469V11.3906H157.215ZM157.853 1.87058C157.608 1.87058 157.398 1.78735 157.22 1.62089C157.047 1.45444 156.96 1.25433 156.96 1.02058C156.96 0.786829 157.047 0.586724 157.22 0.420265C157.398 0.253806 157.608 0.170576 157.853 0.170576C158.097 0.170576 158.306 0.253806 158.48 0.420265C158.657 0.586724 158.745 0.786829 158.745 1.02058C158.745 1.25433 158.657 1.45444 158.48 1.62089C158.306 1.78735 158.097 1.87058 157.853 1.87058ZM164.059 14.6206C163.453 14.6206 162.933 14.5427 162.497 14.3869C162.062 14.2346 161.699 14.0327 161.408 13.7813C161.121 13.5333 160.893 13.2677 160.723 12.9844L161.722 12.2831C161.835 12.4319 161.978 12.6019 162.152 12.7931C162.325 12.9879 162.563 13.1562 162.864 13.2978C163.168 13.443 163.567 13.5156 164.059 13.5156C164.718 13.5156 165.261 13.3563 165.69 13.0375C166.119 12.7188 166.333 12.2194 166.333 11.5394V9.88187H166.227C166.134 10.0306 166.003 10.2148 165.833 10.4344C165.667 10.6504 165.426 10.8434 165.111 11.0134C164.799 11.1799 164.378 11.2631 163.847 11.2631C163.188 11.2631 162.596 11.1073 162.072 10.7956C161.552 10.484 161.139 10.0306 160.834 9.43562C160.533 8.84061 160.383 8.11811 160.383 7.26811C160.383 6.43227 160.53 5.70445 160.824 5.08466C161.118 4.46132 161.527 3.97966 162.051 3.63965C162.575 3.29611 163.181 3.12434 163.868 3.12434C164.399 3.12434 164.82 3.21288 165.132 3.38997C165.447 3.56351 165.688 3.76184 165.855 3.98497C166.025 4.20455 166.156 4.38518 166.248 4.52684H166.375V3.23059H167.587V11.6244C167.587 12.3256 167.427 12.8958 167.108 13.335C166.793 13.7777 166.368 14.1018 165.833 14.3072C165.302 14.5162 164.711 14.6206 164.059 14.6206ZM164.017 10.1369C164.519 10.1369 164.944 10.0218 165.292 9.79156C165.639 9.56135 165.902 9.2302 166.083 8.79811C166.264 8.36603 166.354 7.84894 166.354 7.24686C166.354 6.65894 166.266 6.14008 166.088 5.69029C165.911 5.24049 165.649 4.8881 165.302 4.6331C164.955 4.37809 164.527 4.25059 164.017 4.25059C163.485 4.25059 163.043 4.38518 162.688 4.65435C162.338 4.92351 162.074 5.28477 161.897 5.7381C161.723 6.19144 161.637 6.69435 161.637 7.24686C161.637 7.81353 161.725 8.31467 161.902 8.7503C162.083 9.18239 162.348 9.52239 162.699 9.77031C163.053 10.0147 163.492 10.1369 164.017 10.1369ZM169.882 11.3906V3.23059H171.135V11.3906H169.882ZM170.519 1.87058C170.275 1.87058 170.064 1.78735 169.887 1.62089C169.713 1.45444 169.627 1.25433 169.627 1.02058C169.627 0.786829 169.713 0.586724 169.887 0.420265C170.064 0.253806 170.275 0.170576 170.519 0.170576C170.763 0.170576 170.972 0.253806 171.146 0.420265C171.323 0.586724 171.412 0.786829 171.412 1.02058C171.412 1.25433 171.323 1.45444 171.146 1.62089C170.972 1.78735 170.763 1.87058 170.519 1.87058ZM176.98 3.23059V4.29309H172.752V3.23059H176.98ZM173.984 1.27558H175.238V9.05311C175.238 9.40728 175.289 9.67291 175.392 9.84999C175.498 10.0235 175.633 10.1404 175.796 10.2006C175.962 10.2573 176.137 10.2856 176.322 10.2856C176.46 10.2856 176.573 10.2785 176.662 10.2644C176.75 10.2467 176.821 10.2325 176.874 10.2219L177.129 11.3481C177.044 11.38 176.926 11.4119 176.773 11.4438C176.621 11.4792 176.428 11.4969 176.194 11.4969C175.84 11.4969 175.493 11.4207 175.153 11.2684C174.816 11.1161 174.537 10.8842 174.314 10.5725C174.094 10.2608 173.984 9.8677 173.984 9.39312V1.27558ZM181.268 11.5819C180.751 11.5819 180.281 11.4845 179.86 11.2897C179.438 11.0914 179.104 10.8062 178.856 10.4344C178.608 10.059 178.484 9.60562 178.484 9.07436C178.484 8.60686 178.576 8.2279 178.76 7.93748C178.944 7.64353 179.19 7.41332 179.499 7.24686C179.807 7.0804 180.147 6.95644 180.519 6.87498C180.894 6.78998 181.271 6.72269 181.65 6.6731C182.146 6.60935 182.548 6.56154 182.856 6.52967C183.168 6.49425 183.394 6.43581 183.536 6.35435C183.681 6.27289 183.754 6.13123 183.754 5.92935V5.88685C183.754 5.36268 183.61 4.95539 183.324 4.66497C183.04 4.37455 182.61 4.22934 182.033 4.22934C181.434 4.22934 180.965 4.36039 180.625 4.62247C180.285 4.88455 180.046 5.16435 179.908 5.46185L178.718 5.03685C178.93 4.54101 179.213 4.15497 179.568 3.87872C179.925 3.59892 180.315 3.40413 180.736 3.29434C181.161 3.18101 181.579 3.12434 181.99 3.12434C182.252 3.12434 182.553 3.15621 182.893 3.21996C183.237 3.28017 183.568 3.4059 183.887 3.59715C184.209 3.7884 184.476 4.07705 184.689 4.46309C184.901 4.84914 185.008 5.36622 185.008 6.01435V11.3906H183.754V10.2856H183.69C183.605 10.4627 183.463 10.6522 183.265 10.8541C183.067 11.0559 182.803 11.2277 182.474 11.3694C182.144 11.511 181.742 11.5819 181.268 11.5819ZM181.459 10.4556C181.955 10.4556 182.373 10.3582 182.713 10.1634C183.056 9.96864 183.315 9.71718 183.488 9.40905C183.665 9.10093 183.754 8.77686 183.754 8.43686V7.28936C183.701 7.35311 183.584 7.41155 183.403 7.46467C183.226 7.51425 183.021 7.55852 182.787 7.59748C182.557 7.6329 182.332 7.66478 182.112 7.69311C181.896 7.7179 181.721 7.73915 181.586 7.75686C181.261 7.79936 180.956 7.86842 180.673 7.96405C180.393 8.05613 180.166 8.19603 179.993 8.38374C179.823 8.5679 179.738 8.81936 179.738 9.13812C179.738 9.57374 179.899 9.90312 180.221 10.1262C180.547 10.3458 180.959 10.4556 181.459 10.4556ZM188.55 0.510577V11.3906H187.296V0.510577H188.55ZM198.369 11.5606C197.604 11.5606 196.945 11.38 196.392 11.0187C195.84 10.6575 195.415 10.1599 195.117 9.52593C194.82 8.89197 194.671 8.16769 194.671 7.35311C194.671 6.52435 194.823 5.793 195.128 5.15904C195.436 4.52153 195.865 4.02393 196.414 3.66622C196.966 3.30496 197.611 3.12434 198.347 3.12434C198.921 3.12434 199.438 3.23059 199.899 3.44309C200.359 3.65559 200.736 3.95309 201.03 4.33559C201.324 4.7181 201.507 5.16435 201.577 5.67435H200.324C200.228 5.30247 200.016 4.9731 199.686 4.68622C199.36 4.3958 198.921 4.25059 198.369 4.25059C197.88 4.25059 197.451 4.37809 197.083 4.6331C196.718 4.88455 196.433 5.24049 196.228 5.70091C196.026 6.15779 195.925 6.69435 195.925 7.31061C195.925 7.94103 196.024 8.48999 196.222 8.95749C196.424 9.42499 196.708 9.78801 197.072 10.0466C197.441 10.3051 197.873 10.4344 198.369 10.4344C198.694 10.4344 198.99 10.3777 199.256 10.2644C199.521 10.151 199.746 9.98812 199.931 9.77562C200.115 9.56312 200.246 9.30812 200.324 9.01061H201.577C201.507 9.49228 201.331 9.92614 201.051 10.3122C200.775 10.6947 200.409 10.9993 199.952 11.2259C199.498 11.4491 198.971 11.5606 198.369 11.5606ZM205.811 11.5819C205.294 11.5819 204.825 11.4845 204.404 11.2897C203.982 11.0914 203.648 10.8062 203.4 10.4344C203.152 10.059 203.028 9.60562 203.028 9.07436C203.028 8.60686 203.12 8.2279 203.304 7.93748C203.488 7.64353 203.734 7.41332 204.042 7.24686C204.351 7.0804 204.691 6.95644 205.062 6.87498C205.438 6.78998 205.815 6.72269 206.194 6.6731C206.69 6.60935 207.092 6.56154 207.4 6.52967C207.712 6.49425 207.938 6.43581 208.08 6.35435C208.225 6.27289 208.298 6.13123 208.298 5.92935V5.88685C208.298 5.36268 208.154 4.95539 207.867 4.66497C207.584 4.37455 207.154 4.22934 206.576 4.22934C205.978 4.22934 205.509 4.36039 205.169 4.62247C204.829 4.88455 204.59 5.16435 204.451 5.46185L203.261 5.03685C203.474 4.54101 203.757 4.15497 204.111 3.87872C204.469 3.59892 204.859 3.40413 205.28 3.29434C205.705 3.18101 206.123 3.12434 206.534 3.12434C206.796 3.12434 207.097 3.15621 207.437 3.21996C207.781 3.28017 208.112 3.4059 208.431 3.59715C208.753 3.7884 209.02 4.07705 209.233 4.46309C209.445 4.84914 209.551 5.36622 209.551 6.01435V11.3906H208.298V10.2856H208.234C208.149 10.4627 208.007 10.6522 207.809 10.8541C207.611 11.0559 207.347 11.2277 207.017 11.3694C206.688 11.511 206.286 11.5819 205.811 11.5819ZM206.003 10.4556C206.499 10.4556 206.916 10.3582 207.256 10.1634C207.6 9.96864 207.859 9.71718 208.032 9.40905C208.209 9.10093 208.298 8.77686 208.298 8.43686V7.28936C208.245 7.35311 208.128 7.41155 207.947 7.46467C207.77 7.51425 207.565 7.55852 207.331 7.59748C207.101 7.6329 206.876 7.66478 206.656 7.69311C206.44 7.7179 206.265 7.73915 206.13 7.75686C205.804 7.79936 205.5 7.86842 205.216 7.96405C204.937 8.05613 204.71 8.19603 204.536 8.38374C204.366 8.5679 204.281 8.81936 204.281 9.13812C204.281 9.57374 204.443 9.90312 204.765 10.1262C205.091 10.3458 205.503 10.4556 206.003 10.4556ZM215.389 3.23059V4.29309H211.16V3.23059H215.389ZM212.392 1.27558H213.646V9.05311C213.646 9.40728 213.697 9.67291 213.8 9.84999C213.906 10.0235 214.041 10.1404 214.204 10.2006C214.37 10.2573 214.546 10.2856 214.73 10.2856C214.868 10.2856 214.981 10.2785 215.07 10.2644C215.158 10.2467 215.229 10.2325 215.282 10.2219L215.537 11.3481C215.452 11.38 215.334 11.4119 215.181 11.4438C215.029 11.4792 214.836 11.4969 214.602 11.4969C214.248 11.4969 213.901 11.4207 213.561 11.2684C213.225 11.1161 212.945 10.8842 212.722 10.5725C212.502 10.2608 212.392 9.8677 212.392 9.39312V1.27558ZM219.676 11.5819C219.159 11.5819 218.689 11.4845 218.268 11.2897C217.847 11.0914 217.512 10.8062 217.264 10.4344C217.016 10.059 216.892 9.60562 216.892 9.07436C216.892 8.60686 216.984 8.2279 217.168 7.93748C217.352 7.64353 217.599 7.41332 217.907 7.24686C218.215 7.0804 218.555 6.95644 218.927 6.87498C219.302 6.78998 219.679 6.72269 220.058 6.6731C220.554 6.60935 220.956 6.56154 221.264 6.52967C221.576 6.49425 221.803 6.43581 221.944 6.35435C222.089 6.27289 222.162 6.13123 222.162 5.92935V5.88685C222.162 5.36268 222.019 4.95539 221.732 4.66497C221.448 4.37455 221.018 4.22934 220.441 4.22934C219.842 4.22934 219.373 4.36039 219.033 4.62247C218.693 4.88455 218.454 5.16435 218.316 5.46185L217.126 5.03685C217.338 4.54101 217.622 4.15497 217.976 3.87872C218.334 3.59892 218.723 3.40413 219.145 3.29434C219.57 3.18101 219.988 3.12434 220.398 3.12434C220.66 3.12434 220.961 3.15621 221.301 3.21996C221.645 3.28017 221.976 3.4059 222.295 3.59715C222.617 3.7884 222.885 4.07705 223.097 4.46309C223.31 4.84914 223.416 5.36622 223.416 6.01435V11.3906H222.162V10.2856H222.098C222.013 10.4627 221.872 10.6522 221.673 10.8541C221.475 11.0559 221.211 11.2277 220.882 11.3694C220.552 11.511 220.15 11.5819 219.676 11.5819ZM219.867 10.4556C220.363 10.4556 220.781 10.3582 221.121 10.1634C221.464 9.96864 221.723 9.71718 221.896 9.40905C222.074 9.10093 222.162 8.77686 222.162 8.43686V7.28936C222.109 7.35311 221.992 7.41155 221.811 7.46467C221.634 7.51425 221.429 7.55852 221.195 7.59748C220.965 7.6329 220.74 7.66478 220.521 7.69311C220.304 7.7179 220.129 7.73915 219.995 7.75686C219.669 7.79936 219.364 7.86842 219.081 7.96405C218.801 8.05613 218.574 8.19603 218.401 8.38374C218.231 8.5679 218.146 8.81936 218.146 9.13812C218.146 9.57374 218.307 9.90312 218.629 10.1262C218.955 10.3458 219.368 10.4556 219.867 10.4556ZM226.958 0.510577V11.3906H225.704V0.510577H226.958ZM232.569 11.5606C231.833 11.5606 231.186 11.3853 230.63 11.0347C230.078 10.6841 229.646 10.1935 229.334 9.56312C229.026 8.9327 228.872 8.19603 228.872 7.35311C228.872 6.5031 229.026 5.76112 229.334 5.12716C229.646 4.4932 230.078 4.00091 230.63 3.65028C231.186 3.29965 231.833 3.12434 232.569 3.12434C233.306 3.12434 233.951 3.29965 234.503 3.65028C235.059 4.00091 235.491 4.4932 235.799 5.12716C236.111 5.76112 236.267 6.5031 236.267 7.35311C236.267 8.19603 236.111 8.9327 235.799 9.56312C235.491 10.1935 235.059 10.6841 234.503 11.0347C233.951 11.3853 233.306 11.5606 232.569 11.5606ZM232.569 10.4344C233.129 10.4344 233.589 10.2909 233.951 10.0041C234.312 9.71718 234.579 9.33999 234.753 8.87249C234.926 8.40499 235.013 7.89853 235.013 7.35311C235.013 6.80769 234.926 6.29946 234.753 5.82841C234.579 5.35737 234.312 4.97664 233.951 4.68622C233.589 4.3958 233.129 4.25059 232.569 4.25059C232.01 4.25059 231.549 4.3958 231.188 4.68622C230.827 4.97664 230.559 5.35737 230.386 5.82841C230.212 6.29946 230.126 6.80769 230.126 7.35311C230.126 7.89853 230.212 8.40499 230.386 8.87249C230.559 9.33999 230.827 9.71718 231.188 10.0041C231.549 10.2909 232.01 10.4344 232.569 10.4344ZM241.474 14.6206C240.869 14.6206 240.348 14.5427 239.913 14.3869C239.477 14.2346 239.114 14.0327 238.823 13.7813C238.537 13.5333 238.308 13.2677 238.138 12.9844L239.137 12.2831C239.25 12.4319 239.394 12.6019 239.567 12.7931C239.741 12.9879 239.978 13.1562 240.279 13.2978C240.584 13.443 240.982 13.5156 241.474 13.5156C242.133 13.5156 242.677 13.3563 243.105 13.0375C243.534 12.7188 243.748 12.2194 243.748 11.5394V9.88187H243.642C243.55 10.0306 243.419 10.2148 243.249 10.4344C243.082 10.6504 242.842 10.8434 242.526 11.0134C242.215 11.1799 241.793 11.2631 241.262 11.2631C240.603 11.2631 240.012 11.1073 239.488 10.7956C238.967 10.484 238.554 10.0306 238.25 9.43562C237.949 8.84061 237.798 8.11811 237.798 7.26811C237.798 6.43227 237.945 5.70445 238.239 5.08466C238.533 4.46132 238.942 3.97966 239.466 3.63965C239.99 3.29611 240.596 3.12434 241.283 3.12434C241.814 3.12434 242.236 3.21288 242.548 3.38997C242.863 3.56351 243.104 3.76184 243.27 3.98497C243.44 4.20455 243.571 4.38518 243.663 4.52684H243.791V3.23059H245.002V11.6244C245.002 12.3256 244.843 12.8958 244.524 13.335C244.209 13.7777 243.784 14.1018 243.249 14.3072C242.718 14.5162 242.126 14.6206 241.474 14.6206ZM241.432 10.1369C241.935 10.1369 242.36 10.0218 242.707 9.79156C243.054 9.56135 243.318 9.2302 243.499 8.79811C243.679 8.36603 243.769 7.84894 243.769 7.24686C243.769 6.65894 243.681 6.14008 243.504 5.69029C243.327 5.24049 243.065 4.8881 242.718 4.6331C242.37 4.37809 241.942 4.25059 241.432 4.25059C240.901 4.25059 240.458 4.38518 240.104 4.65435C239.753 4.92351 239.489 5.28477 239.312 5.7381C239.139 6.19144 239.052 6.69435 239.052 7.24686C239.052 7.81353 239.14 8.31467 239.318 8.7503C239.498 9.18239 239.764 9.52239 240.114 9.77031C240.469 10.0147 240.908 10.1369 241.432 10.1369ZM252.439 8.05436V3.23059H253.693V11.3906H252.439V10.0094H252.354C252.163 10.4237 251.866 10.7761 251.462 11.0666C251.058 11.3534 250.548 11.4969 249.932 11.4969C249.422 11.4969 248.969 11.3853 248.572 11.1622C248.175 10.9355 247.864 10.5955 247.637 10.1422C247.41 9.6853 247.297 9.10978 247.297 8.41561V3.23059H248.551V8.33061C248.551 8.92561 248.717 9.4002 249.05 9.75437C249.387 10.1085 249.815 10.2856 250.336 10.2856C250.647 10.2856 250.964 10.2059 251.287 10.0466C251.613 9.88718 251.885 9.6428 252.105 9.31343C252.328 8.98405 252.439 8.56436 252.439 8.05436ZM259.411 11.5606C258.625 11.5606 257.946 11.3871 257.376 11.04C256.809 10.6894 256.372 10.2006 256.064 9.57374C255.759 8.94332 255.607 8.21019 255.607 7.37436C255.607 6.53852 255.759 5.80185 256.064 5.16435C256.372 4.5233 256.801 4.02393 257.35 3.66622C257.902 3.30496 258.547 3.12434 259.283 3.12434C259.708 3.12434 260.128 3.19517 260.542 3.33684C260.957 3.47851 261.334 3.70872 261.674 4.02747C262.014 4.34268 262.285 4.7606 262.487 5.28122C262.689 5.80185 262.79 6.44289 262.79 7.20436V7.73561H256.5V6.65185H261.515C261.515 6.19144 261.423 5.7806 261.238 5.41935C261.058 5.0581 260.799 4.77299 260.463 4.56403C260.13 4.35507 259.737 4.25059 259.283 4.25059C258.784 4.25059 258.352 4.37455 257.987 4.62247C257.626 4.86685 257.348 5.1856 257.153 5.57872C256.958 5.97185 256.861 6.39331 256.861 6.84311V7.56561C256.861 8.18186 256.967 8.70426 257.18 9.1328C257.396 9.5578 257.695 9.88187 258.077 10.105C258.46 10.3246 258.904 10.4344 259.411 10.4344C259.74 10.4344 260.038 10.3883 260.303 10.2962C260.573 10.2006 260.805 10.059 260.999 9.87124C261.194 9.67999 261.345 9.4427 261.451 9.15937L262.662 9.49937C262.535 9.9102 262.32 10.2715 262.019 10.5831C261.718 10.8912 261.346 11.1321 260.904 11.3056C260.461 11.4756 259.963 11.5606 259.411 11.5606ZM270.477 5.0581L269.351 5.37685C269.28 5.18914 269.175 5.00674 269.037 4.82966C268.903 4.64903 268.718 4.50028 268.485 4.38341C268.251 4.26653 267.952 4.20809 267.587 4.20809C267.087 4.20809 266.671 4.3232 266.338 4.55341C266.009 4.78008 265.844 5.06872 265.844 5.41935C265.844 5.73102 265.958 5.97716 266.184 6.15779C266.411 6.33842 266.765 6.48894 267.247 6.60935L268.458 6.90686C269.188 7.08394 269.731 7.35488 270.089 7.71967C270.447 8.08092 270.626 8.54665 270.626 9.11687C270.626 9.58437 270.491 10.0023 270.222 10.3706C269.956 10.739 269.584 11.0294 269.106 11.2419C268.628 11.4544 268.072 11.5606 267.438 11.5606C266.606 11.5606 265.917 11.38 265.372 11.0187C264.826 10.6575 264.481 10.1298 264.336 9.43562L265.526 9.13812C265.639 9.57728 265.853 9.90666 266.168 10.1262C266.487 10.3458 266.903 10.4556 267.417 10.4556C268.001 10.4556 268.465 10.3317 268.809 10.0837C269.156 9.83228 269.329 9.53124 269.329 9.18062C269.329 8.89728 269.23 8.65999 269.032 8.46874C268.834 8.27394 268.529 8.12874 268.118 8.03311L266.758 7.71436C266.011 7.53727 265.462 7.26279 265.111 6.89092C264.764 6.5155 264.591 6.04623 264.591 5.4831C264.591 5.02268 264.72 4.61539 264.978 4.26122C265.24 3.90705 265.596 3.62903 266.046 3.42715C266.5 3.22528 267.013 3.12434 267.587 3.12434C268.394 3.12434 269.028 3.30142 269.489 3.65559C269.953 4.00976 270.282 4.47726 270.477 5.0581ZM274.383 9.90312L274.298 10.4769C274.238 10.8806 274.146 11.3127 274.022 11.7731C273.901 12.2335 273.775 12.6674 273.644 13.0747C273.513 13.482 273.405 13.8061 273.32 14.0469H272.364C272.41 13.8202 272.47 13.5209 272.545 13.1491C272.619 12.7772 272.693 12.361 272.768 11.9006C272.846 11.4438 272.91 10.9762 272.959 10.4981L273.023 9.90312H274.383ZM281.083 11.3906V0.510577H282.337V4.52684H282.443C282.535 4.38518 282.663 4.20455 282.826 3.98497C282.992 3.76184 283.23 3.56351 283.538 3.38997C283.849 3.21288 284.271 3.12434 284.802 3.12434C285.489 3.12434 286.095 3.29611 286.619 3.63965C287.143 3.9832 287.552 4.47018 287.846 5.1006C288.14 5.73102 288.287 6.47477 288.287 7.33186C288.287 8.19603 288.14 8.94509 287.846 9.57905C287.552 10.2095 287.145 10.6982 286.624 11.0453C286.104 11.3889 285.503 11.5606 284.823 11.5606C284.299 11.5606 283.879 11.4739 283.564 11.3003C283.249 11.1232 283.006 10.9231 282.836 10.7C282.666 10.4733 282.535 10.2856 282.443 10.1369H282.295V11.3906H281.083ZM282.316 7.31061C282.316 7.92686 282.406 8.47051 282.587 8.94155C282.767 9.40905 283.031 9.77562 283.378 10.0412C283.725 10.3033 284.15 10.4344 284.653 10.4344C285.177 10.4344 285.615 10.2962 285.965 10.02C286.32 9.7402 286.585 9.36478 286.762 8.89374C286.943 8.41915 287.033 7.89144 287.033 7.31061C287.033 6.73685 286.945 6.21977 286.768 5.75935C286.594 5.29539 286.33 4.92883 285.976 4.65966C285.625 4.38695 285.185 4.25059 284.653 4.25059C284.143 4.25059 283.715 4.37987 283.368 4.63841C283.021 4.89341 282.758 5.25112 282.581 5.71154C282.404 6.16841 282.316 6.70144 282.316 7.31061ZM290.205 11.3906V3.23059H291.416V4.46309H291.501C291.65 4.05934 291.919 3.73174 292.309 3.48028C292.698 3.22882 293.137 3.10309 293.626 3.10309C293.718 3.10309 293.833 3.10486 293.971 3.1084C294.11 3.11194 294.214 3.11726 294.285 3.12434V4.39934C294.242 4.38872 294.145 4.37278 293.993 4.35153C293.844 4.32674 293.686 4.31434 293.52 4.31434C293.123 4.31434 292.769 4.39757 292.457 4.56403C292.149 4.72695 291.905 4.95362 291.724 5.24404C291.547 5.53091 291.459 5.85852 291.459 6.22685V11.3906H290.205ZM298.838 11.5606C298.101 11.5606 297.455 11.3853 296.899 11.0347C296.346 10.6841 295.914 10.1935 295.602 9.56312C295.294 8.9327 295.14 8.19603 295.14 7.35311C295.14 6.5031 295.294 5.76112 295.602 5.12716C295.914 4.4932 296.346 4.00091 296.899 3.65028C297.455 3.29965 298.101 3.12434 298.838 3.12434C299.574 3.12434 300.219 3.29965 300.771 3.65028C301.328 4.00091 301.76 4.4932 302.068 5.12716C302.379 5.76112 302.535 6.5031 302.535 7.35311C302.535 8.19603 302.379 8.9327 302.068 9.56312C301.76 10.1935 301.328 10.6841 300.771 11.0347C300.219 11.3853 299.574 11.5606 298.838 11.5606ZM298.838 10.4344C299.397 10.4344 299.858 10.2909 300.219 10.0041C300.58 9.71718 300.848 9.33999 301.021 8.87249C301.195 8.40499 301.281 7.89853 301.281 7.35311C301.281 6.80769 301.195 6.29946 301.021 5.82841C300.848 5.35737 300.58 4.97664 300.219 4.68622C299.858 4.3958 299.397 4.25059 298.838 4.25059C298.278 4.25059 297.818 4.3958 297.456 4.68622C297.095 4.97664 296.828 5.35737 296.654 5.82841C296.481 6.29946 296.394 6.80769 296.394 7.35311C296.394 7.89853 296.481 8.40499 296.654 8.87249C296.828 9.33999 297.095 9.71718 297.456 10.0041C297.818 10.2909 298.278 10.4344 298.838 10.4344ZM307.764 11.5606C306.999 11.5606 306.34 11.38 305.788 11.0187C305.235 10.6575 304.81 10.1599 304.513 9.52593C304.215 8.89197 304.067 8.16769 304.067 7.35311C304.067 6.52435 304.219 5.793 304.523 5.15904C304.832 4.52153 305.26 4.02393 305.809 3.66622C306.362 3.30496 307.006 3.12434 307.743 3.12434C308.317 3.12434 308.834 3.23059 309.294 3.44309C309.755 3.65559 310.132 3.95309 310.426 4.33559C310.72 4.7181 310.902 5.16435 310.973 5.67435H309.719C309.623 5.30247 309.411 4.9731 309.082 4.68622C308.756 4.3958 308.317 4.25059 307.764 4.25059C307.275 4.25059 306.847 4.37809 306.478 4.6331C306.114 4.88455 305.829 5.24049 305.623 5.70091C305.421 6.15779 305.32 6.69435 305.32 7.31061C305.32 7.94103 305.42 8.48999 305.618 8.95749C305.82 9.42499 306.103 9.78801 306.468 10.0466C306.836 10.3051 307.268 10.4344 307.764 10.4344C308.09 10.4344 308.386 10.3777 308.651 10.2644C308.917 10.151 309.142 9.98812 309.326 9.77562C309.51 9.56312 309.641 9.30812 309.719 9.01061H310.973C310.902 9.49228 310.727 9.92614 310.447 10.3122C310.171 10.6947 309.804 10.9993 309.347 11.2259C308.894 11.4491 308.366 11.5606 307.764 11.5606ZM314.059 6.48185V11.3906H312.806V0.510577H314.059V4.5056H314.166C314.357 4.08413 314.644 3.74945 315.026 3.50153C315.412 3.25007 315.926 3.12434 316.567 3.12434C317.123 3.12434 317.61 3.2359 318.028 3.45903C318.446 3.67861 318.77 4.01684 319 4.47372C319.234 4.92705 319.351 5.50435 319.351 6.2056V11.3906H318.097V6.2906C318.097 5.64247 317.929 5.14133 317.592 4.78716C317.259 4.42945 316.797 4.25059 316.206 4.25059C315.795 4.25059 315.427 4.33736 315.101 4.51091C314.778 4.68445 314.523 4.93768 314.336 5.2706C314.152 5.60352 314.059 6.00727 314.059 6.48185ZM326.787 8.05436V3.23059H328.041V11.3906H326.787V10.0094H326.702C326.511 10.4237 326.213 10.7761 325.809 11.0666C325.406 11.3534 324.896 11.4969 324.279 11.4969C323.769 11.4969 323.316 11.3853 322.919 11.1622C322.523 10.9355 322.211 10.5955 321.984 10.1422C321.758 9.6853 321.644 9.10978 321.644 8.41561V3.23059H322.898V8.33061C322.898 8.92561 323.065 9.4002 323.398 9.75437C323.734 10.1085 324.163 10.2856 324.683 10.2856C324.995 10.2856 325.312 10.2059 325.634 10.0466C325.96 9.88718 326.233 9.6428 326.452 9.31343C326.675 8.98405 326.787 8.56436 326.787 8.05436ZM330.337 11.3906V3.23059H331.548V4.46309H331.633C331.782 4.05934 332.051 3.73174 332.441 3.48028C332.83 3.22882 333.27 3.10309 333.758 3.10309C333.85 3.10309 333.965 3.10486 334.104 3.1084C334.242 3.11194 334.346 3.11726 334.417 3.12434V4.39934C334.375 4.38872 334.277 4.37278 334.125 4.35153C333.976 4.32674 333.818 4.31434 333.652 4.31434C333.255 4.31434 332.901 4.39757 332.59 4.56403C332.281 4.72695 332.037 4.95362 331.856 5.24404C331.679 5.53091 331.591 5.85852 331.591 6.22685V11.3906H330.337ZM339.076 11.5606C338.29 11.5606 337.612 11.3871 337.041 11.04C336.475 10.6894 336.037 10.2006 335.729 9.57374C335.425 8.94332 335.272 8.21019 335.272 7.37436C335.272 6.53852 335.425 5.80185 335.729 5.16435C336.037 4.5233 336.466 4.02393 337.015 3.66622C337.567 3.30496 338.212 3.12434 338.949 3.12434C339.374 3.12434 339.793 3.19517 340.208 3.33684C340.622 3.47851 340.999 3.70872 341.339 4.02747C341.679 4.34268 341.95 4.7606 342.152 5.28122C342.354 5.80185 342.455 6.44289 342.455 7.20436V7.73561H336.165V6.65185H341.18C341.18 6.19144 341.088 5.7806 340.904 5.41935C340.723 5.0581 340.464 4.77299 340.128 4.56403C339.795 4.35507 339.402 4.25059 338.949 4.25059C338.449 4.25059 338.017 4.37455 337.652 4.62247C337.291 4.86685 337.013 5.1856 336.818 5.57872C336.624 5.97185 336.526 6.39331 336.526 6.84311V7.56561C336.526 8.18186 336.632 8.70426 336.845 9.1328C337.061 9.5578 337.36 9.88187 337.743 10.105C338.125 10.3246 338.57 10.4344 339.076 10.4344C339.406 10.4344 339.703 10.3883 339.969 10.2962C340.238 10.2006 340.47 10.059 340.665 9.87124C340.859 9.67999 341.01 9.4427 341.116 9.15937L342.327 9.49937C342.2 9.9102 341.986 10.2715 341.685 10.5831C341.384 10.8912 341.012 11.1321 340.569 11.3056C340.126 11.4756 339.629 11.5606 339.076 11.5606ZM350.142 5.0581L349.016 5.37685C348.945 5.18914 348.841 5.00674 348.702 4.82966C348.568 4.64903 348.384 4.50028 348.15 4.38341C347.916 4.26653 347.617 4.20809 347.252 4.20809C346.753 4.20809 346.337 4.3232 346.004 4.55341C345.674 4.78008 345.51 5.06872 345.51 5.41935C345.51 5.73102 345.623 5.97716 345.85 6.15779C346.076 6.33842 346.43 6.48894 346.912 6.60935L348.123 6.90686C348.853 7.08394 349.397 7.35488 349.754 7.71967C350.112 8.08092 350.291 8.54665 350.291 9.11687C350.291 9.58437 350.156 10.0023 349.887 10.3706C349.621 10.739 349.25 11.0294 348.771 11.2419C348.293 11.4544 347.737 11.5606 347.103 11.5606C346.271 11.5606 345.582 11.38 345.037 11.0187C344.491 10.6575 344.146 10.1298 344.001 9.43562L345.191 9.13812C345.304 9.57728 345.518 9.90666 345.834 10.1262C346.152 10.3458 346.569 10.4556 347.082 10.4556C347.666 10.4556 348.13 10.3317 348.474 10.0837C348.821 9.83228 348.995 9.53124 348.995 9.18062C348.995 8.89728 348.895 8.65999 348.697 8.46874C348.499 8.27394 348.194 8.12874 347.783 8.03311L346.423 7.71436C345.676 7.53727 345.127 7.26279 344.776 6.89092C344.429 6.5155 344.256 6.04623 344.256 5.4831C344.256 5.02268 344.385 4.61539 344.644 4.26122C344.906 3.90705 345.262 3.62903 345.711 3.42715C346.165 3.22528 346.678 3.12434 347.252 3.12434C348.06 3.12434 348.694 3.30142 349.154 3.65559C349.618 4.00976 349.947 4.47726 350.142 5.0581ZM2.78412 31.5819C2.26703 31.5819 1.79776 31.4845 1.3763 31.2897C0.954838 31.0914 0.620149 30.8062 0.372232 30.4344C0.124314 30.059 0.000354931 29.6056 0.000354931 29.0744C0.000354931 28.6069 0.0924387 28.2279 0.276606 27.9375C0.460774 27.6435 0.706921 27.4133 1.01505 27.2469C1.32317 27.0804 1.66317 26.9564 2.03505 26.875C2.41047 26.79 2.78766 26.7227 3.16662 26.6731C3.66245 26.6094 4.06444 26.5615 4.37256 26.5297C4.68423 26.4942 4.9109 26.4358 5.05256 26.3544C5.19777 26.2729 5.27038 26.1312 5.27038 25.9294V25.8869C5.27038 25.3627 5.12694 24.9554 4.84006 24.665C4.55673 24.3746 4.12641 24.2293 3.54912 24.2293C2.95058 24.2293 2.4813 24.3604 2.1413 24.6225C1.8013 24.8846 1.56224 25.1643 1.42411 25.4618L0.234106 25.0368C0.446607 24.541 0.729941 24.155 1.08411 23.8787C1.44182 23.5989 1.8314 23.4041 2.25286 23.2943C2.67787 23.181 3.09579 23.1243 3.50662 23.1243C3.7687 23.1243 4.06975 23.1562 4.40975 23.22C4.75329 23.2802 5.08444 23.4059 5.40319 23.5972C5.72548 23.7884 5.99288 24.0771 6.20538 24.4631C6.41788 24.8491 6.52413 25.3662 6.52413 26.0144V31.3906H5.27038V30.2856H5.20663C5.12163 30.4627 4.97996 30.6522 4.78163 30.8541C4.58329 31.0559 4.31944 31.2277 3.99006 31.3694C3.66068 31.511 3.2587 31.5819 2.78412 31.5819ZM2.97537 30.4556C3.4712 30.4556 3.88912 30.3582 4.22912 30.1634C4.57267 29.9686 4.83121 29.7172 5.00475 29.4091C5.18184 29.1009 5.27038 28.7769 5.27038 28.4369V27.2894C5.21725 27.3531 5.10038 27.4115 4.91975 27.4647C4.74267 27.5143 4.53725 27.5585 4.3035 27.5975C4.07329 27.6329 3.84839 27.6648 3.62881 27.6931C3.41277 27.7179 3.23745 27.7392 3.10287 27.7569C2.77703 27.7994 2.47245 27.8684 2.18911 27.964C1.90932 28.0561 1.68265 28.196 1.50911 28.3837C1.33911 28.5679 1.25411 28.8194 1.25411 29.1381C1.25411 29.5737 1.41526 29.9031 1.73755 30.1262C2.06338 30.3458 2.47599 30.4556 2.97537 30.4556ZM10.0663 26.4819V31.3906H8.8125V23.2306H10.0238V24.5056H10.13C10.3213 24.0912 10.6117 23.7583 11.0013 23.5068C11.3908 23.2518 11.8938 23.1243 12.51 23.1243C13.0625 23.1243 13.546 23.2377 13.9603 23.4643C14.3747 23.6875 14.697 24.0275 14.9272 24.4843C15.1574 24.9377 15.2725 25.5114 15.2725 26.2056V31.3906H14.0188V26.2906C14.0188 25.6496 13.8523 25.1502 13.5194 24.7925C13.1865 24.4312 12.7296 24.2506 12.1488 24.2506C11.7486 24.2506 11.3908 24.3374 11.0756 24.5109C10.764 24.6844 10.5178 24.9377 10.3372 25.2706C10.1566 25.6035 10.0663 26.0073 10.0663 26.4819ZM20.6448 31.5606C19.9648 31.5606 19.3645 31.3889 18.8439 31.0453C18.3232 30.6982 17.916 30.2095 17.622 29.5791C17.328 28.9451 17.1811 28.196 17.1811 27.3319C17.1811 26.4748 17.328 25.731 17.622 25.1006C17.916 24.4702 18.325 23.9832 18.8492 23.6397C19.3734 23.2961 19.979 23.1243 20.6661 23.1243C21.1973 23.1243 21.617 23.2129 21.9251 23.39C22.2368 23.5635 22.4741 23.7618 22.637 23.985C22.8035 24.2046 22.9327 24.3852 23.0248 24.5268H23.1311V20.5106H24.3848V31.3906H23.1736V30.1369H23.0248C22.9327 30.2856 22.8017 30.4733 22.6317 30.7C22.4617 30.9231 22.2191 31.1232 21.9039 31.3003C21.5887 31.4739 21.169 31.5606 20.6448 31.5606ZM20.8148 30.4344C21.3177 30.4344 21.7427 30.3033 22.0898 30.0412C22.4369 29.7756 22.7008 29.4091 22.8814 28.9416C23.062 28.4705 23.1523 27.9269 23.1523 27.3106C23.1523 26.7014 23.0638 26.1684 22.8867 25.7115C22.7096 25.2511 22.4475 24.8934 22.1004 24.6384C21.7534 24.3799 21.3248 24.2506 20.8148 24.2506C20.2836 24.2506 19.8409 24.3869 19.4867 24.6597C19.1361 24.9288 18.8722 25.2954 18.6951 25.7594C18.5216 26.2198 18.4348 26.7369 18.4348 27.3106C18.4348 27.8914 18.5234 28.4192 18.7004 28.8937C18.8811 29.3648 19.1467 29.7402 19.4973 30.02C19.8515 30.2962 20.2907 30.4344 20.8148 30.4344ZM34.6114 23.2306V24.2931H30.3827V23.2306H34.6114ZM31.6152 21.2756H32.8689V29.0531C32.8689 29.4073 32.9203 29.6729 33.023 29.85C33.1292 30.0235 33.2638 30.1404 33.4268 30.2006C33.5932 30.2573 33.7685 30.2856 33.9527 30.2856C34.0908 30.2856 34.2041 30.2785 34.2927 30.2644C34.3812 30.2467 34.4521 30.2325 34.5052 30.2219L34.7602 31.3481C34.6752 31.38 34.5565 31.4119 34.4043 31.4438C34.252 31.4792 34.0589 31.4969 33.8252 31.4969C33.471 31.4969 33.1239 31.4207 32.7839 31.2684C32.4475 31.1161 32.1677 30.8842 31.9446 30.5725C31.725 30.2608 31.6152 29.8677 31.6152 29.3931V21.2756ZM39.831 31.5606C39.0447 31.5606 38.3665 31.3871 37.7963 31.04C37.2296 30.6894 36.7922 30.2006 36.4841 29.5737C36.1795 28.9433 36.0272 28.2102 36.0272 27.3744C36.0272 26.5385 36.1795 25.8019 36.4841 25.1643C36.7922 24.5233 37.2208 24.0239 37.7697 23.6662C38.3222 23.305 38.9668 23.1243 39.7035 23.1243C40.1285 23.1243 40.5482 23.1952 40.9626 23.3368C41.3769 23.4785 41.7541 23.7087 42.0941 24.0275C42.4341 24.3427 42.7051 24.7606 42.9069 25.2812C43.1088 25.8019 43.2098 26.4429 43.2098 27.2044V27.7356H36.9197V26.6519H41.9348C41.9348 26.1914 41.8427 25.7806 41.6585 25.4193C41.4779 25.0581 41.2193 24.773 40.8829 24.564C40.55 24.3551 40.1568 24.2506 39.7035 24.2506C39.2041 24.2506 38.772 24.3746 38.4072 24.6225C38.046 24.8668 37.768 25.1856 37.5732 25.5787C37.3784 25.9719 37.281 26.3933 37.281 26.8431V27.5656C37.281 28.1819 37.3872 28.7043 37.5997 29.1328C37.8158 29.5578 38.1151 29.8819 38.4976 30.105C38.8801 30.3246 39.3245 30.4344 39.831 30.4344C40.1604 30.4344 40.4579 30.3883 40.7235 30.2962C40.9927 30.2006 41.2246 30.059 41.4194 29.8712C41.6142 29.68 41.7648 29.4427 41.871 29.1594L43.0823 29.4994C42.9548 29.9102 42.7405 30.2715 42.4394 30.5831C42.1384 30.8912 41.7665 31.1321 41.3238 31.3056C40.8811 31.4756 40.3835 31.5606 39.831 31.5606ZM48.432 31.5606C47.667 31.5606 47.0082 31.38 46.4557 31.0187C45.9032 30.6575 45.4782 30.1599 45.1807 29.5259C44.8832 28.892 44.7345 28.1677 44.7345 27.3531C44.7345 26.5244 44.8867 25.793 45.1913 25.159C45.4995 24.5215 45.928 24.0239 46.477 23.6662C47.0295 23.305 47.6741 23.1243 48.4107 23.1243C48.9845 23.1243 49.5016 23.2306 49.962 23.4431C50.4224 23.6556 50.7996 23.9531 51.0935 24.3356C51.3875 24.7181 51.5699 25.1643 51.6407 25.6744H50.387C50.2914 25.3025 50.0789 24.9731 49.7495 24.6862C49.4236 24.3958 48.9845 24.2506 48.432 24.2506C47.9432 24.2506 47.5147 24.3781 47.1463 24.6331C46.7815 24.8846 46.4964 25.2405 46.291 25.7009C46.0891 26.1578 45.9882 26.6944 45.9882 27.3106C45.9882 27.941 46.0874 28.49 46.2857 28.9575C46.4876 29.425 46.7709 29.788 47.1357 30.0466C47.5041 30.3051 47.9361 30.4344 48.432 30.4344C48.7578 30.4344 49.0535 30.3777 49.3192 30.2644C49.5848 30.151 49.8097 29.9881 49.9939 29.7756C50.178 29.5631 50.3091 29.3081 50.387 29.0106H51.6407C51.5699 29.4923 51.3946 29.9261 51.1148 30.3122C50.8385 30.6947 50.472 30.9993 50.0151 31.2259C49.5618 31.4491 49.0341 31.5606 48.432 31.5606ZM54.7273 26.4819V31.3906H53.4736V20.5106H54.7273V24.5056H54.8336C55.0248 24.0841 55.3117 23.7494 55.6942 23.5015C56.0802 23.2501 56.5938 23.1243 57.2348 23.1243C57.7909 23.1243 58.2778 23.2359 58.6958 23.459C59.1137 23.6786 59.4377 24.0168 59.668 24.4737C59.9017 24.9271 60.0186 25.5043 60.0186 26.2056V31.3906H58.7648V26.2906C58.7648 25.6425 58.5966 25.1413 58.2601 24.7872C57.9272 24.4294 57.465 24.2506 56.8736 24.2506C56.4627 24.2506 56.0944 24.3374 55.7686 24.5109C55.4463 24.6844 55.1913 24.9377 55.0036 25.2706C54.8194 25.6035 54.7273 26.0073 54.7273 26.4819ZM63.566 26.4819V31.3906H62.3123V23.2306H63.5235V24.5056H63.6298C63.821 24.0912 64.1114 23.7583 64.501 23.5068C64.8906 23.2518 65.3935 23.1243 66.0098 23.1243C66.5623 23.1243 67.0457 23.2377 67.4601 23.4643C67.8745 23.6875 68.1968 24.0275 68.427 24.4843C68.6572 24.9377 68.7723 25.5114 68.7723 26.2056V31.3906H67.5185V26.2906C67.5185 25.6496 67.3521 25.1502 67.0192 24.7925C66.6862 24.4312 66.2294 24.2506 65.6485 24.2506C65.2483 24.2506 64.8906 24.3374 64.5754 24.5109C64.2637 24.6844 64.0176 24.9377 63.837 25.2706C63.6563 25.6035 63.566 26.0073 63.566 26.4819ZM71.0633 31.3906V23.2306H72.3171V31.3906H71.0633ZM71.7008 21.8706C71.4564 21.8706 71.2457 21.7874 71.0686 21.6209C70.8951 21.4544 70.8083 21.2543 70.8083 21.0206C70.8083 20.7868 70.8951 20.5867 71.0686 20.4203C71.2457 20.2538 71.4564 20.1706 71.7008 20.1706C71.9452 20.1706 72.1542 20.2538 72.3277 20.4203C72.5048 20.5867 72.5933 20.7868 72.5933 21.0206C72.5933 21.2543 72.5048 21.4544 72.3277 21.6209C72.1542 21.7874 71.9452 21.8706 71.7008 21.8706ZM77.9284 31.5606C77.1634 31.5606 76.5047 31.38 75.9522 31.0187C75.3997 30.6575 74.9747 30.1599 74.6772 29.5259C74.3797 28.892 74.2309 28.1677 74.2309 27.3531C74.2309 26.5244 74.3832 25.793 74.6878 25.159C74.9959 24.5215 75.4245 24.0239 75.9734 23.6662C76.5259 23.305 77.1705 23.1243 77.9072 23.1243C78.4809 23.1243 78.998 23.2306 79.4584 23.4431C79.9188 23.6556 80.296 23.9531 80.59 24.3356C80.884 24.7181 81.0664 25.1643 81.1372 25.6744H79.8834C79.7878 25.3025 79.5753 24.9731 79.2459 24.6862C78.9201 24.3958 78.4809 24.2506 77.9284 24.2506C77.4397 24.2506 77.0111 24.3781 76.6428 24.6331C76.278 24.8846 75.9929 25.2405 75.7875 25.7009C75.5856 26.1578 75.4847 26.6944 75.4847 27.3106C75.4847 27.941 75.5838 28.49 75.7822 28.9575C75.984 29.425 76.2674 29.788 76.6322 30.0466C77.0005 30.3051 77.4326 30.4344 77.9284 30.4344C78.2543 30.4344 78.55 30.3777 78.8156 30.2644C79.0812 30.151 79.3061 29.9881 79.4903 29.7756C79.6745 29.5631 79.8055 29.3081 79.8834 29.0106H81.1372C81.0664 29.4923 80.891 29.9261 80.6112 30.3122C80.335 30.6947 79.9684 30.9993 79.5116 31.2259C79.0582 31.4491 78.5305 31.5606 77.9284 31.5606ZM85.3713 31.5819C84.8542 31.5819 84.3849 31.4845 83.9635 31.2897C83.542 31.0914 83.2073 30.8062 82.9594 30.4344C82.7115 30.059 82.5875 29.6056 82.5875 29.0744C82.5875 28.6069 82.6796 28.2279 82.8638 27.9375C83.0479 27.6435 83.2941 27.4133 83.6022 27.2469C83.9103 27.0804 84.2503 26.9564 84.6222 26.875C84.9976 26.79 85.3748 26.7227 85.7538 26.6731C86.2496 26.6094 86.6516 26.5615 86.9597 26.5297C87.2714 26.4942 87.4981 26.4358 87.6397 26.3544C87.7849 26.2729 87.8575 26.1312 87.8575 25.9294V25.8869C87.8575 25.3627 87.7141 24.9554 87.4272 24.665C87.1439 24.3746 86.7136 24.2293 86.1363 24.2293C85.5377 24.2293 85.0685 24.3604 84.7285 24.6225C84.3885 24.8846 84.1494 25.1643 84.0113 25.4618L82.8213 25.0368C83.0338 24.541 83.3171 24.155 83.6713 23.8787C84.029 23.5989 84.4186 23.4041 84.84 23.2943C85.265 23.181 85.6829 23.1243 86.0938 23.1243C86.3559 23.1243 86.6569 23.1562 86.9969 23.22C87.3405 23.2802 87.6716 23.4059 87.9903 23.5972C88.3126 23.7884 88.58 24.0771 88.7925 24.4631C89.005 24.8491 89.1113 25.3662 89.1113 26.0144V31.3906H87.8575V30.2856H87.7938C87.7088 30.4627 87.5671 30.6522 87.3688 30.8541C87.1704 31.0559 86.9066 31.2277 86.5772 31.3694C86.2478 31.511 85.8459 31.5819 85.3713 31.5819ZM85.5625 30.4556C86.0584 30.4556 86.4763 30.3582 86.8163 30.1634C87.1598 29.9686 87.4184 29.7172 87.5919 29.4091C87.769 29.1009 87.8575 28.7769 87.8575 28.4369V27.2894C87.8044 27.3531 87.6875 27.4115 87.5069 27.4647C87.3298 27.5143 87.1244 27.5585 86.8907 27.5975C86.6604 27.6329 86.4356 27.6648 86.216 27.6931C85.9999 27.7179 85.8246 27.7392 85.69 27.7569C85.3642 27.7994 85.0596 27.8684 84.7763 27.964C84.4965 28.0561 84.2698 28.196 84.0963 28.3837C83.9263 28.5679 83.8413 28.8194 83.8413 29.1381C83.8413 29.5737 84.0024 29.9031 84.3247 30.1262C84.6505 30.3458 85.0631 30.4556 85.5625 30.4556ZM92.6534 20.5106V31.3906H91.3997V20.5106H92.6534ZM102.239 31.5606C101.559 31.5606 100.958 31.3889 100.438 31.0453C99.917 30.6982 99.5097 30.2095 99.2157 29.5791C98.9217 28.9451 98.7748 28.196 98.7748 27.3319C98.7748 26.4748 98.9217 25.731 99.2157 25.1006C99.5097 24.4702 99.9187 23.9832 100.443 23.6397C100.967 23.2961 101.573 23.1243 102.26 23.1243C102.791 23.1243 103.211 23.2129 103.519 23.39C103.831 23.5635 104.068 23.7618 104.231 23.985C104.397 24.2046 104.526 24.3852 104.619 24.5268H104.725V20.5106H105.979V31.3906H104.767V30.1369H104.619C104.526 30.2856 104.395 30.4733 104.225 30.7C104.055 30.9231 103.813 31.1232 103.498 31.3003C103.182 31.4739 102.763 31.5606 102.239 31.5606ZM102.409 30.4344C102.911 30.4344 103.336 30.3033 103.684 30.0412C104.031 29.7756 104.294 29.4091 104.475 28.9416C104.656 28.4705 104.746 27.9269 104.746 27.3106C104.746 26.7014 104.658 26.1684 104.48 25.7115C104.303 25.2511 104.041 24.8934 103.694 24.6384C103.347 24.3799 102.919 24.2506 102.409 24.2506C101.877 24.2506 101.435 24.3869 101.08 24.6597C100.73 24.9288 100.466 25.2954 100.289 25.7594C100.115 26.2198 100.029 26.7369 100.029 27.3106C100.029 27.8914 100.117 28.4192 100.294 28.8937C100.475 29.3648 100.74 29.7402 101.091 30.02C101.445 30.2962 101.884 30.4344 102.409 30.4344ZM111.764 31.5606C111.027 31.5606 110.381 31.3853 109.825 31.0347C109.272 30.6841 108.84 30.1935 108.529 29.5631C108.22 28.9327 108.066 28.196 108.066 27.3531C108.066 26.5031 108.22 25.7611 108.529 25.1272C108.84 24.4932 109.272 24.0009 109.825 23.6503C110.381 23.2997 111.027 23.1243 111.764 23.1243C112.501 23.1243 113.145 23.2997 113.698 23.6503C114.254 24.0009 114.686 24.4932 114.994 25.1272C115.306 25.7611 115.461 26.5031 115.461 27.3531C115.461 28.196 115.306 28.9327 114.994 29.5631C114.686 30.1935 114.254 30.6841 113.698 31.0347C113.145 31.3853 112.501 31.5606 111.764 31.5606ZM111.764 30.4344C112.323 30.4344 112.784 30.2909 113.145 30.0041C113.506 29.7172 113.774 29.34 113.947 28.8725C114.121 28.405 114.208 27.8985 114.208 27.3531C114.208 26.8077 114.121 26.2995 113.947 25.8284C113.774 25.3574 113.506 24.9766 113.145 24.6862C112.784 24.3958 112.323 24.2506 111.764 24.2506C111.204 24.2506 110.744 24.3958 110.383 24.6862C110.021 24.9766 109.754 25.3574 109.58 25.8284C109.407 26.2995 109.32 26.8077 109.32 27.3531C109.32 27.8985 109.407 28.405 109.58 28.8725C109.754 29.34 110.021 29.7172 110.383 30.0041C110.744 30.2909 111.204 30.4344 111.764 30.4344ZM120.69 31.5606C119.925 31.5606 119.266 31.38 118.714 31.0187C118.161 30.6575 117.736 30.1599 117.439 29.5259C117.141 28.892 116.993 28.1677 116.993 27.3531C116.993 26.5244 117.145 25.793 117.45 25.159C117.758 24.5215 118.186 24.0239 118.735 23.6662C119.288 23.305 119.932 23.1243 120.669 23.1243C121.243 23.1243 121.76 23.2306 122.22 23.4431C122.681 23.6556 123.058 23.9531 123.352 24.3356C123.646 24.7181 123.828 25.1643 123.899 25.6744H122.645C122.55 25.3025 122.337 24.9731 122.008 24.6862C121.682 24.3958 121.243 24.2506 120.69 24.2506C120.201 24.2506 119.773 24.3781 119.405 24.6331C119.04 24.8846 118.755 25.2405 118.549 25.7009C118.347 26.1578 118.246 26.6944 118.246 27.3106C118.246 27.941 118.346 28.49 118.544 28.9575C118.746 29.425 119.029 29.788 119.394 30.0466C119.762 30.3051 120.194 30.4344 120.69 30.4344C121.016 30.4344 121.312 30.3777 121.577 30.2644C121.843 30.151 122.068 29.9881 122.252 29.7756C122.436 29.5631 122.567 29.3081 122.645 29.0106H123.899C123.828 29.4923 123.653 29.9261 123.373 30.3122C123.097 30.6947 122.73 30.9993 122.273 31.2259C121.82 31.4491 121.292 31.5606 120.69 31.5606ZM130.874 28.0544V23.2306H132.128V31.3906H130.874V30.0094H130.789C130.598 30.4237 130.301 30.7761 129.897 31.0666C129.493 31.3534 128.983 31.4969 128.367 31.4969C127.857 31.4969 127.404 31.3853 127.007 31.1622C126.61 30.9355 126.299 30.5955 126.072 30.1422C125.845 29.6853 125.732 29.1098 125.732 28.4156V23.2306H126.986V28.3306C126.986 28.9256 127.152 29.4002 127.485 29.7544C127.821 30.1085 128.25 30.2856 128.771 30.2856C129.082 30.2856 129.399 30.2059 129.722 30.0466C130.047 29.8872 130.32 29.6428 130.54 29.3134C130.763 28.9841 130.874 28.5644 130.874 28.0544ZM134.424 31.3906V23.2306H135.636V24.5056H135.742C135.912 24.07 136.186 23.7317 136.565 23.4909C136.944 23.2465 137.399 23.1243 137.931 23.1243C138.469 23.1243 138.917 23.2465 139.275 23.4909C139.636 23.7317 139.918 24.07 140.119 24.5056H140.204C140.413 24.0841 140.727 23.7494 141.145 23.5015C141.563 23.2501 142.064 23.1243 142.648 23.1243C143.378 23.1243 143.975 23.3528 144.439 23.8097C144.903 24.263 145.134 24.9696 145.134 25.9294V31.3906H143.881V25.9294C143.881 25.3273 143.716 24.897 143.387 24.6384C143.057 24.3799 142.669 24.2506 142.223 24.2506C141.649 24.2506 141.205 24.4241 140.89 24.7712C140.575 25.1148 140.417 25.5504 140.417 26.0781V31.3906H139.142V25.8019C139.142 25.3379 138.991 24.9642 138.69 24.6809C138.389 24.394 138.002 24.2506 137.527 24.2506C137.201 24.2506 136.897 24.3374 136.613 24.5109C136.333 24.6844 136.107 24.9253 135.933 25.2334C135.763 25.538 135.678 25.8904 135.678 26.2906V31.3906H134.424ZM150.848 31.5606C150.062 31.5606 149.384 31.3871 148.813 31.04C148.247 30.6894 147.809 30.2006 147.501 29.5737C147.197 28.9433 147.044 28.2102 147.044 27.3744C147.044 26.5385 147.197 25.8019 147.501 25.1643C147.809 24.5233 148.238 24.0239 148.787 23.6662C149.339 23.305 149.984 23.1243 150.721 23.1243C151.146 23.1243 151.565 23.1952 151.98 23.3368C152.394 23.4785 152.771 23.7087 153.111 24.0275C153.451 24.3427 153.722 24.7606 153.924 25.2812C154.126 25.8019 154.227 26.4429 154.227 27.2044V27.7356H147.937V26.6519H152.952C152.952 26.1914 152.86 25.7806 152.676 25.4193C152.495 25.0581 152.236 24.773 151.9 24.564C151.567 24.3551 151.174 24.2506 150.721 24.2506C150.221 24.2506 149.789 24.3746 149.424 24.6225C149.063 24.8668 148.785 25.1856 148.59 25.5787C148.395 25.9719 148.298 26.3933 148.298 26.8431V27.5656C148.298 28.1819 148.404 28.7043 148.617 29.1328C148.833 29.5578 149.132 29.8819 149.515 30.105C149.897 30.3246 150.342 30.4344 150.848 30.4344C151.177 30.4344 151.475 30.3883 151.741 30.2962C152.01 30.2006 152.242 30.059 152.437 29.8712C152.631 29.68 152.782 29.4427 152.888 29.1594L154.099 29.4994C153.972 29.9102 153.758 30.2715 153.457 30.5831C153.156 30.8912 152.784 31.1321 152.341 31.3056C151.898 31.4756 151.401 31.5606 150.848 31.5606ZM157.388 26.4819V31.3906H156.134V23.2306H157.345V24.5056H157.452C157.643 24.0912 157.933 23.7583 158.323 23.5068C158.712 23.2518 159.215 23.1243 159.832 23.1243C160.384 23.1243 160.868 23.2377 161.282 23.4643C161.696 23.6875 162.019 24.0275 162.249 24.4843C162.479 24.9377 162.594 25.5114 162.594 26.2056V31.3906H161.34V26.2906C161.34 25.6496 161.174 25.1502 160.841 24.7925C160.508 24.4312 160.051 24.2506 159.47 24.2506C159.07 24.2506 158.712 24.3374 158.397 24.5109C158.086 24.6844 157.839 24.9377 157.659 25.2706C157.478 25.6035 157.388 26.0073 157.388 26.4819ZM168.434 23.2306V24.2931H164.205V23.2306H168.434ZM165.438 21.2756H166.691V29.0531C166.691 29.4073 166.743 29.6729 166.845 29.85C166.952 30.0235 167.086 30.1404 167.249 30.2006C167.416 30.2573 167.591 30.2856 167.775 30.2856C167.913 30.2856 168.027 30.2785 168.115 30.2644C168.204 30.2467 168.275 30.2325 168.328 30.2219L168.583 31.3481C168.498 31.38 168.379 31.4119 168.227 31.4438C168.074 31.4792 167.881 31.4969 167.648 31.4969C167.293 31.4969 166.946 31.4207 166.606 31.2684C166.27 31.1161 165.99 30.8842 165.767 30.5725C165.547 30.2608 165.438 29.8677 165.438 29.3931V21.2756ZM175.954 25.0581L174.828 25.3768C174.757 25.1891 174.652 25.0067 174.514 24.8297C174.379 24.649 174.195 24.5003 173.962 24.3834C173.728 24.2665 173.429 24.2081 173.064 24.2081C172.564 24.2081 172.148 24.3232 171.815 24.5534C171.486 24.7801 171.321 25.0687 171.321 25.4193C171.321 25.731 171.435 25.9772 171.661 26.1578C171.888 26.3384 172.242 26.4889 172.724 26.6094L173.935 26.9069C174.665 27.0839 175.208 27.3549 175.566 27.7197C175.924 28.0809 176.103 28.5467 176.103 29.1169C176.103 29.5844 175.968 30.0023 175.699 30.3706C175.433 30.739 175.061 31.0294 174.583 31.2419C174.105 31.4544 173.549 31.5606 172.915 31.5606C172.083 31.5606 171.394 31.38 170.848 31.0187C170.303 30.6575 169.958 30.1298 169.812 29.4356L171.003 29.1381C171.116 29.5773 171.33 29.9067 171.645 30.1262C171.964 30.3458 172.38 30.4556 172.894 30.4556C173.478 30.4556 173.942 30.3317 174.286 30.0837C174.633 29.8323 174.806 29.5312 174.806 29.1806C174.806 28.8973 174.707 28.66 174.509 28.4687C174.31 28.2739 174.006 28.1287 173.595 28.0331L172.235 27.7144C171.488 27.5373 170.939 27.2628 170.588 26.8909C170.241 26.5155 170.067 26.0462 170.067 25.4831C170.067 25.0227 170.197 24.6154 170.455 24.2612C170.717 23.9071 171.073 23.629 171.523 23.4272C171.976 23.2253 172.49 23.1243 173.064 23.1243C173.871 23.1243 174.505 23.3014 174.966 23.6556C175.43 24.0098 175.759 24.4773 175.954 25.0581ZM186.872 26.1419V27.3106H182.112V26.1419H186.872ZM195.687 31.5819C195.17 31.5819 194.701 31.4845 194.279 31.2897C193.858 31.0914 193.523 30.8062 193.275 30.4344C193.027 30.059 192.903 29.6056 192.903 29.0744C192.903 28.6069 192.995 28.2279 193.18 27.9375C193.364 27.6435 193.61 27.4133 193.918 27.2469C194.226 27.0804 194.566 26.9564 194.938 26.875C195.313 26.79 195.691 26.7227 196.07 26.6731C196.565 26.6094 196.967 26.5615 197.276 26.5297C197.587 26.4942 197.814 26.4358 197.956 26.3544C198.101 26.2729 198.173 26.1312 198.173 25.9294V25.8869C198.173 25.3627 198.03 24.9554 197.743 24.665C197.46 24.3746 197.029 24.2293 196.452 24.2293C195.854 24.2293 195.384 24.3604 195.044 24.6225C194.704 24.8846 194.465 25.1643 194.327 25.4618L193.137 25.0368C193.35 24.541 193.633 24.155 193.987 23.8787C194.345 23.5989 194.734 23.4041 195.156 23.2943C195.581 23.181 195.999 23.1243 196.41 23.1243C196.672 23.1243 196.973 23.1562 197.313 23.22C197.656 23.2802 197.987 23.4059 198.306 23.5972C198.628 23.7884 198.896 24.0771 199.108 24.4631C199.321 24.8491 199.427 25.3662 199.427 26.0144V31.3906H198.173V30.2856H198.11C198.025 30.4627 197.883 30.6522 197.685 30.8541C197.486 31.0559 197.222 31.2277 196.893 31.3694C196.564 31.511 196.162 31.5819 195.687 31.5819ZM195.878 30.4556C196.374 30.4556 196.792 30.3582 197.132 30.1634C197.476 29.9686 197.734 29.7172 197.908 29.4091C198.085 29.1009 198.173 28.7769 198.173 28.4369V27.2894C198.12 27.3531 198.003 27.4115 197.823 27.4647C197.646 27.5143 197.44 27.5585 197.207 27.5975C196.976 27.6329 196.751 27.6648 196.532 27.6931C196.316 27.7179 196.14 27.7392 196.006 27.7569C195.68 27.7994 195.375 27.8684 195.092 27.964C194.812 28.0561 194.586 28.196 194.412 28.3837C194.242 28.5679 194.157 28.8194 194.157 29.1381C194.157 29.5737 194.318 29.9031 194.641 30.1262C194.966 30.3458 195.379 30.4556 195.878 30.4556ZM202.969 20.5106V31.3906H201.716V20.5106H202.969ZM206.519 20.5106V31.3906H205.266V20.5106H206.519ZM213.023 31.3906V23.2306H214.277V31.3906H213.023ZM213.661 21.8706C213.416 21.8706 213.206 21.7874 213.029 21.6209C212.855 21.4544 212.768 21.2543 212.768 21.0206C212.768 20.7868 212.855 20.5867 213.029 20.4203C213.206 20.2538 213.416 20.1706 213.661 20.1706C213.905 20.1706 214.114 20.2538 214.288 20.4203C214.465 20.5867 214.553 20.7868 214.553 21.0206C214.553 21.2543 214.465 21.4544 214.288 21.6209C214.114 21.7874 213.905 21.8706 213.661 21.8706ZM217.827 26.4819V31.3906H216.573V23.2306H217.785V24.5056H217.891C218.082 24.0912 218.372 23.7583 218.762 23.5068C219.152 23.2518 219.655 23.1243 220.271 23.1243C220.823 23.1243 221.307 23.2377 221.721 23.4643C222.136 23.6875 222.458 24.0275 222.688 24.4843C222.918 24.9377 223.033 25.5114 223.033 26.2056V31.3906H221.78V26.2906C221.78 25.6496 221.613 25.1502 221.28 24.7925C220.947 24.4312 220.49 24.2506 219.91 24.2506C219.509 24.2506 219.152 24.3374 218.836 24.5109C218.525 24.6844 218.279 24.9377 218.098 25.2706C217.917 25.6035 217.827 26.0073 217.827 26.4819ZM232.847 31.5606C232.11 31.5606 231.464 31.3853 230.908 31.0347C230.355 30.6841 229.923 30.1935 229.612 29.5631C229.303 28.9327 229.149 28.196 229.149 27.3531C229.149 26.5031 229.303 25.7611 229.612 25.1272C229.923 24.4932 230.355 24.0009 230.908 23.6503C231.464 23.2997 232.11 23.1243 232.847 23.1243C233.584 23.1243 234.228 23.2997 234.781 23.6503C235.337 24.0009 235.769 24.4932 236.077 25.1272C236.389 25.7611 236.544 26.5031 236.544 27.3531C236.544 28.196 236.389 28.9327 236.077 29.5631C235.769 30.1935 235.337 30.6841 234.781 31.0347C234.228 31.3853 233.584 31.5606 232.847 31.5606ZM232.847 30.4344C233.406 30.4344 233.867 30.2909 234.228 30.0041C234.589 29.7172 234.857 29.34 235.03 28.8725C235.204 28.405 235.291 27.8985 235.291 27.3531C235.291 26.8077 235.204 26.2995 235.03 25.8284C234.857 25.3574 234.589 24.9766 234.228 24.6862C233.867 24.3958 233.406 24.2506 232.847 24.2506C232.287 24.2506 231.827 24.3958 231.466 24.6862C231.104 24.9766 230.837 25.3574 230.663 25.8284C230.49 26.2995 230.403 26.8077 230.403 27.3531C230.403 27.8985 230.49 28.405 230.663 28.8725C230.837 29.34 231.104 29.7172 231.466 30.0041C231.827 30.2909 232.287 30.4344 232.847 30.4344ZM239.712 26.4819V31.3906H238.458V23.2306H239.67V24.5056H239.776C239.967 24.0912 240.257 23.7583 240.647 23.5068C241.037 23.2518 241.54 23.1243 242.156 23.1243C242.708 23.1243 243.192 23.2377 243.606 23.4643C244.02 23.6875 244.343 24.0275 244.573 24.4843C244.803 24.9377 244.918 25.5114 244.918 26.2056V31.3906H243.665V26.2906C243.665 25.6496 243.498 25.1502 243.165 24.7925C242.832 24.4312 242.375 24.2506 241.795 24.2506C241.394 24.2506 241.037 24.3374 240.721 24.5109C240.41 24.6844 240.164 24.9377 239.983 25.2706C239.802 25.6035 239.712 26.0073 239.712 26.4819ZM250.631 31.5606C249.844 31.5606 249.166 31.3871 248.596 31.04C248.029 30.6894 247.592 30.2006 247.284 29.5737C246.979 28.9433 246.827 28.2102 246.827 27.3744C246.827 26.5385 246.979 25.8019 247.284 25.1643C247.592 24.5233 248.02 24.0239 248.569 23.6662C249.122 23.305 249.766 23.1243 250.503 23.1243C250.928 23.1243 251.348 23.1952 251.762 23.3368C252.177 23.4785 252.554 23.7087 252.894 24.0275C253.234 24.3427 253.505 24.7606 253.707 25.2812C253.908 25.8019 254.009 26.4429 254.009 27.2044V27.7356H247.719V26.6519H252.734C252.734 26.1914 252.642 25.7806 252.458 25.4193C252.277 25.0581 252.019 24.773 251.682 24.564C251.35 24.3551 250.956 24.2506 250.503 24.2506C250.004 24.2506 249.572 24.3746 249.207 24.6225C248.846 24.8668 248.568 25.1856 248.373 25.5787C248.178 25.9719 248.081 26.3933 248.081 26.8431V27.5656C248.081 28.1819 248.187 28.7043 248.399 29.1328C248.615 29.5578 248.915 29.8819 249.297 30.105C249.68 30.3246 250.124 30.4344 250.631 30.4344C250.96 30.4344 251.257 30.3883 251.523 30.2962C251.792 30.2006 252.024 30.059 252.219 29.8712C252.414 29.68 252.564 29.4427 252.671 29.1594L253.882 29.4994C253.754 29.9102 253.54 30.2715 253.239 30.5831C252.938 30.8912 252.566 31.1321 252.123 31.3056C251.681 31.4756 251.183 31.5606 250.631 31.5606ZM260.124 34.4506V23.2306H261.335V24.5268H261.484C261.576 24.3852 261.704 24.2046 261.867 23.985C262.033 23.7618 262.27 23.5635 262.578 23.39C262.89 23.2129 263.312 23.1243 263.843 23.1243C264.53 23.1243 265.136 23.2961 265.66 23.6397C266.184 23.9832 266.593 24.4702 266.887 25.1006C267.181 25.731 267.328 26.4748 267.328 27.3319C267.328 28.196 267.181 28.9451 266.887 29.5791C266.593 30.2095 266.186 30.6982 265.665 31.0453C265.144 31.3889 264.544 31.5606 263.864 31.5606C263.34 31.5606 262.92 31.4739 262.605 31.3003C262.29 31.1232 262.047 30.9231 261.877 30.7C261.707 30.4733 261.576 30.2856 261.484 30.1369H261.378V34.4506H260.124ZM261.357 27.3106C261.357 27.9269 261.447 28.4705 261.628 28.9416C261.808 29.4091 262.072 29.7756 262.419 30.0412C262.766 30.3033 263.191 30.4344 263.694 30.4344C264.218 30.4344 264.656 30.2962 265.006 30.02C265.36 29.7402 265.626 29.3648 265.803 28.8937C265.984 28.4192 266.074 27.8914 266.074 27.3106C266.074 26.7369 265.986 26.2198 265.808 25.7594C265.635 25.2954 265.371 24.9288 265.017 24.6597C264.666 24.3869 264.225 24.2506 263.694 24.2506C263.184 24.2506 262.756 24.3799 262.408 24.6384C262.061 24.8934 261.799 25.2511 261.622 25.7115C261.445 26.1684 261.357 26.7014 261.357 27.3106ZM270.494 20.5106V31.3906H269.24V20.5106H270.494ZM275.192 31.5819C274.675 31.5819 274.205 31.4845 273.784 31.2897C273.362 31.0914 273.028 30.8062 272.78 30.4344C272.532 30.059 272.408 29.6056 272.408 29.0744C272.408 28.6069 272.5 28.2279 272.684 27.9375C272.868 27.6435 273.115 27.4133 273.423 27.2469C273.731 27.0804 274.071 26.9564 274.443 26.875C274.818 26.79 275.195 26.7227 275.574 26.6731C276.07 26.6094 276.472 26.5615 276.78 26.5297C277.092 26.4942 277.318 26.4358 277.46 26.3544C277.605 26.2729 277.678 26.1312 277.678 25.9294V25.8869C277.678 25.3627 277.535 24.9554 277.248 24.665C276.964 24.3746 276.534 24.2293 275.957 24.2293C275.358 24.2293 274.889 24.3604 274.549 24.6225C274.209 24.8846 273.97 25.1643 273.832 25.4618L272.642 25.0368C272.854 24.541 273.138 24.155 273.492 23.8787C273.849 23.5989 274.239 23.4041 274.66 23.2943C275.085 23.181 275.503 23.1243 275.914 23.1243C276.176 23.1243 276.477 23.1562 276.817 23.22C277.161 23.2802 277.492 23.4059 277.811 23.5972C278.133 23.7884 278.4 24.0771 278.613 24.4631C278.825 24.8491 278.932 25.3662 278.932 26.0144V31.3906H277.678V30.2856H277.614C277.529 30.4627 277.388 30.6522 277.189 30.8541C276.991 31.0559 276.727 31.2277 276.398 31.3694C276.068 31.511 275.666 31.5819 275.192 31.5819ZM275.383 30.4556C275.879 30.4556 276.297 30.3582 276.637 30.1634C276.98 29.9686 277.239 29.7172 277.412 29.4091C277.589 29.1009 277.678 28.7769 277.678 28.4369V27.2894C277.625 27.3531 277.508 27.4115 277.327 27.4647C277.15 27.5143 276.945 27.5585 276.711 27.5975C276.481 27.6329 276.256 27.6648 276.036 27.6931C275.82 27.7179 275.645 27.7392 275.51 27.7569C275.185 27.7994 274.88 27.8684 274.597 27.964C274.317 28.0561 274.09 28.196 273.917 28.3837C273.747 28.5679 273.662 28.8194 273.662 29.1381C273.662 29.5737 273.823 29.9031 274.145 30.1262C274.471 30.3458 274.884 30.4556 275.383 30.4556ZM284.535 31.5606C283.77 31.5606 283.111 31.38 282.559 31.0187C282.006 30.6575 281.581 30.1599 281.284 29.5259C280.986 28.892 280.838 28.1677 280.838 27.3531C280.838 26.5244 280.99 25.793 281.294 25.159C281.603 24.5215 282.031 24.0239 282.58 23.6662C283.133 23.305 283.777 23.1243 284.514 23.1243C285.088 23.1243 285.605 23.2306 286.065 23.4431C286.526 23.6556 286.903 23.9531 287.197 24.3356C287.491 24.7181 287.673 25.1643 287.744 25.6744H286.49C286.394 25.3025 286.182 24.9731 285.853 24.6862C285.527 24.3958 285.088 24.2506 284.535 24.2506C284.046 24.2506 283.618 24.3781 283.249 24.6331C282.885 24.8846 282.6 25.2405 282.394 25.7009C282.192 26.1578 282.091 26.6944 282.091 27.3106C282.091 27.941 282.19 28.49 282.389 28.9575C282.591 29.425 282.874 29.788 283.239 30.0466C283.607 30.3051 284.039 30.4344 284.535 30.4344C284.861 30.4344 285.157 30.3777 285.422 30.2644C285.688 30.151 285.913 29.9881 286.097 29.7756C286.281 29.5631 286.412 29.3081 286.49 29.0106H287.744C287.673 29.4923 287.498 29.9261 287.218 30.3122C286.942 30.6947 286.575 30.9993 286.118 31.2259C285.665 31.4491 285.137 31.5606 284.535 31.5606ZM292.998 31.5606C292.212 31.5606 291.533 31.3871 290.963 31.04C290.397 30.6894 289.959 30.2006 289.651 29.5737C289.346 28.9433 289.194 28.2102 289.194 27.3744C289.194 26.5385 289.346 25.8019 289.651 25.1643C289.959 24.5233 290.388 24.0239 290.937 23.6662C291.489 23.305 292.134 23.1243 292.87 23.1243C293.295 23.1243 293.715 23.1952 294.13 23.3368C294.544 23.4785 294.921 23.7087 295.261 24.0275C295.601 24.3427 295.872 24.7606 296.074 25.2812C296.276 25.8019 296.377 26.4429 296.377 27.2044V27.7356H290.087V26.6519H295.102C295.102 26.1914 295.01 25.7806 294.825 25.4193C294.645 25.0581 294.386 24.773 294.05 24.564C293.717 24.3551 293.324 24.2506 292.87 24.2506C292.371 24.2506 291.939 24.3746 291.574 24.6225C291.213 24.8668 290.935 25.1856 290.74 25.5787C290.545 25.9719 290.448 26.3933 290.448 26.8431V27.5656C290.448 28.1819 290.554 28.7043 290.767 29.1328C290.983 29.5578 291.282 29.8819 291.664 30.105C292.047 30.3246 292.491 30.4344 292.998 30.4344C293.327 30.4344 293.625 30.3883 293.89 30.2962C294.16 30.2006 294.392 30.059 294.586 29.8712C294.781 29.68 294.932 29.4427 295.038 29.1594L296.249 29.4994C296.122 29.9102 295.907 30.2715 295.606 30.5831C295.305 30.8912 294.933 31.1321 294.491 31.3056C294.048 31.4756 293.55 31.5606 292.998 31.5606ZM299.198 31.4756C298.936 31.4756 298.711 31.3818 298.523 31.1941C298.335 31.0064 298.241 30.7815 298.241 30.5194C298.241 30.2573 298.335 30.0324 298.523 29.8447C298.711 29.657 298.936 29.5631 299.198 29.5631C299.46 29.5631 299.685 29.657 299.872 29.8447C300.06 30.0324 300.154 30.2573 300.154 30.5194C300.154 30.6929 300.11 30.8523 300.021 30.9975C299.936 31.1427 299.821 31.2596 299.676 31.3481C299.534 31.4331 299.375 31.4756 299.198 31.4756Z" fill="#4A5370"/>
</svg>
