<svg width="293" height="71" viewBox="0 0 293 71" fill="none" xmlns="http://www.w3.org/2000/svg">
<path d="M2.72116 32V4.41124H7.71893V27.8105H19.8698V32H2.72116ZM29.2053 4.41124V32H24.2075V4.41124H29.2053ZM34.6173 32V4.41124H45.1786C47.1723 4.41124 48.8293 4.72557 50.1494 5.35421C51.4786 5.97388 52.471 6.82256 53.1265 7.90025C53.7911 8.97793 54.1234 10.1993 54.1234 11.5644C54.1234 12.687 53.9079 13.6479 53.4768 14.4472C53.0457 15.2375 52.4665 15.8796 51.739 16.3736C51.0116 16.8675 50.1988 17.2222 49.3008 17.4378V17.7072C50.2797 17.7611 51.2181 18.0619 52.1162 18.6098C53.0233 19.1486 53.7642 19.912 54.3389 20.8998C54.9137 21.8877 55.2011 23.0821 55.2011 24.4831C55.2011 25.9111 54.8553 27.1953 54.1638 28.3359C53.4723 29.4674 52.4305 30.361 51.0385 31.0166C49.6465 31.6722 47.8953 32 45.7848 32H34.6173ZM39.6151 27.824H44.99C46.8041 27.824 48.1108 27.4782 48.9101 26.7867C49.7184 26.0862 50.1225 25.1881 50.1225 24.0925C50.1225 23.2752 49.9204 22.5388 49.5163 21.8832C49.1122 21.2187 48.5374 20.6978 47.792 20.3206C47.0466 19.9344 46.1575 19.7413 45.1247 19.7413H39.6151V27.824ZM39.6151 16.1445H44.5589C45.4211 16.1445 46.1979 15.9874 46.8894 15.6731C47.581 15.3498 48.1243 14.8962 48.5194 14.3125C48.9236 13.7198 49.1256 13.0193 49.1256 12.211C49.1256 11.1423 48.7484 10.2622 47.9941 9.57066C47.2487 8.87915 46.1395 8.53339 44.6667 8.53339H39.6151V16.1445ZM59.5489 32V4.41124H69.8947C72.0141 4.41124 73.7923 4.77945 75.2292 5.51587C76.6751 6.25229 77.7663 7.28507 78.5027 8.61421C79.2481 9.93438 79.6208 11.4746 79.6208 13.2348C79.6208 15.004 79.2436 16.5397 78.4892 17.8419C77.7438 19.1351 76.6437 20.1365 75.1888 20.846C73.7339 21.5464 71.9468 21.8967 69.8273 21.8967H62.4586V17.7476H69.1538C70.3931 17.7476 71.4079 17.577 72.1982 17.2357C72.9885 16.8855 73.5723 16.378 73.9495 15.7135C74.3356 15.0399 74.5287 14.2137 74.5287 13.2348C74.5287 12.2559 74.3356 11.4207 73.9495 10.7292C73.5633 10.0287 72.9751 9.49882 72.1847 9.13959C71.3944 8.77138 70.3751 8.58727 69.1268 8.58727H64.5467V32H59.5489ZM73.8013 19.4988L80.6311 32H75.0541L68.3455 19.4988H73.8013ZM87.764 32H82.4295L92.1421 4.41124H98.3119L108.038 32H102.703L95.3348 10.0691H95.1192L87.764 32ZM87.9392 21.1827H102.488V25.1971H87.9392V21.1827ZM111.672 32V4.41124H122.018C124.137 4.41124 125.915 4.77945 127.352 5.51587C128.798 6.25229 129.889 7.28507 130.626 8.61421C131.371 9.93438 131.744 11.4746 131.744 13.2348C131.744 15.004 131.367 16.5397 130.612 17.8419C129.867 19.1351 128.767 20.1365 127.312 20.846C125.857 21.5464 124.07 21.8967 121.95 21.8967H114.582V17.7476H121.277C122.516 17.7476 123.531 17.577 124.321 17.2357C125.111 16.8855 125.695 16.378 126.072 15.7135C126.459 15.0399 126.652 14.2137 126.652 13.2348C126.652 12.2559 126.459 11.4207 126.072 10.7292C125.686 10.0287 125.098 9.49882 124.308 9.13959C123.517 8.77138 122.498 8.58727 121.25 8.58727H116.67V32H111.672ZM125.924 19.4988L132.754 32H127.177L120.468 19.4988H125.924ZM133.384 4.41124H139.028L145.777 16.616H146.047L152.796 4.41124H158.44L148.404 21.7081V32H143.42V21.7081L133.384 4.41124Z" fill="black"/>
<path d="M0.541773 49.4751H4.20311L8.58099 57.392H8.75576L13.1336 49.4751H16.795L10.285 60.695V67.3711H7.05179V60.695L0.541773 49.4751ZM34.0727 58.4231C34.0727 60.3513 33.7116 62.0029 32.9892 63.3777C32.2727 64.7467 31.294 65.7953 30.0531 66.5235C28.8181 67.2517 27.4171 67.6158 25.85 67.6158C24.283 67.6158 22.879 67.2517 21.6382 66.5235C20.4032 65.7895 19.4245 64.738 18.7021 63.369C17.9856 61.9941 17.6273 60.3455 17.6273 58.4231C17.6273 56.4948 17.9856 54.8462 18.7021 53.4772C19.4245 52.1024 20.4032 51.0509 21.6382 50.3227C22.879 49.5945 24.283 49.2304 25.85 49.2304C27.4171 49.2304 28.8181 49.5945 30.0531 50.3227C31.294 51.0509 32.2727 52.1024 32.9892 53.4772C33.7116 54.8462 34.0727 56.4948 34.0727 58.4231ZM30.8134 58.4231C30.8134 57.0657 30.6007 55.921 30.1755 54.9889C29.756 54.051 29.1735 53.3432 28.4278 52.8655C27.6821 52.382 26.8229 52.1403 25.85 52.1403C24.8772 52.1403 24.0179 52.382 23.2722 52.8655C22.5266 53.3432 21.9411 54.051 21.5158 54.9889C21.0964 55.921 20.8867 57.0657 20.8867 58.4231C20.8867 59.7804 21.0964 60.9281 21.5158 61.866C21.9411 62.7981 22.5266 63.5059 23.2722 63.9894C24.0179 64.4671 24.8772 64.7059 25.85 64.7059C26.8229 64.7059 27.6821 64.4671 28.4278 63.9894C29.1735 63.5059 29.756 62.7981 30.1755 61.866C30.6007 60.9281 30.8134 59.7804 30.8134 58.4231ZM48.4188 49.4751H51.6607V61.1669C51.6607 62.4485 51.3578 63.5758 50.7519 64.5486C50.1519 65.5215 49.3072 66.2817 48.2178 66.8293C47.1285 67.3711 45.8556 67.642 44.3992 67.642C42.937 67.642 41.6612 67.3711 40.5718 66.8293C39.4825 66.2817 38.6378 65.5215 38.0377 64.5486C37.4377 63.5758 37.1377 62.4485 37.1377 61.1669V49.4751H40.3796V60.896C40.3796 61.6417 40.5427 62.3058 40.8689 62.8884C41.201 63.4709 41.667 63.9282 42.2671 64.2603C42.8671 64.5865 43.5778 64.7496 44.3992 64.7496C45.2206 64.7496 45.9313 64.5865 46.5313 64.2603C47.1372 63.9282 47.6032 63.4709 47.9295 62.8884C48.2557 62.3058 48.4188 61.6417 48.4188 60.896V49.4751ZM55.1844 67.3711V49.4751H61.8954C63.2703 49.4751 64.4237 49.7139 65.3558 50.1916C66.2937 50.6693 67.0015 51.3393 67.4792 52.2014C67.9627 53.0578 68.2045 54.0569 68.2045 55.1987C68.2045 56.3463 67.9598 57.3425 67.4705 58.1872C66.9869 59.026 66.2733 59.6756 65.3296 60.1358C64.3858 60.5902 63.2266 60.8174 61.8517 60.8174H57.0719V58.126H61.4148C62.2187 58.126 62.877 58.0153 63.3897 57.7939C63.9023 57.5667 64.281 57.2376 64.5257 56.8065C64.7761 56.3696 64.9014 55.8336 64.9014 55.1987C64.9014 54.5637 64.7761 54.0219 64.5257 53.5733C64.2752 53.119 63.8936 52.7753 63.3809 52.5422C62.8683 52.3034 62.2071 52.184 61.3973 52.184H58.4263V67.3711H55.1844ZM64.4295 59.262L68.8598 67.3711H65.2422L60.8905 59.262H64.4295ZM241.9 67.3711V49.4751H245.142V57.0512H253.434V49.4751H256.685V67.3711H253.434V59.7688H245.142V67.3711H241.9ZM271.492 49.4751H274.734V61.1669C274.734 62.4485 274.431 63.5758 273.825 64.5486C273.225 65.5215 272.38 66.2817 271.291 66.8293C270.201 67.3711 268.929 67.642 267.472 67.642C266.01 67.642 264.734 67.3711 263.645 66.8293C262.555 66.2817 261.711 65.5215 261.111 64.5486C260.511 63.5758 260.211 62.4485 260.211 61.1669V49.4751H263.453V60.896C263.453 61.6417 263.616 62.3058 263.942 62.8884C264.274 63.4709 264.74 63.9282 265.34 64.2603C265.94 64.5865 266.651 64.7496 267.472 64.7496C268.294 64.7496 269.004 64.5865 269.604 64.2603C270.21 63.9282 270.676 63.4709 271.002 62.8884C271.329 62.3058 271.492 61.6417 271.492 60.896V49.4751ZM278.257 67.3711V49.4751H285.108C286.402 49.4751 287.476 49.679 288.333 50.0868C289.195 50.4887 289.839 51.0392 290.264 51.7383C290.695 52.4374 290.91 53.2296 290.91 54.1151C290.91 54.8433 290.771 55.4666 290.491 55.9851C290.211 56.4978 289.836 56.9143 289.364 57.2347C288.892 57.5551 288.365 57.7852 287.782 57.925V58.0998C288.417 58.1347 289.026 58.3299 289.608 58.6852C290.197 59.0348 290.677 59.5299 291.05 60.1707C291.423 60.8116 291.61 61.5864 291.61 62.4951C291.61 63.4214 291.385 64.2544 290.937 64.9943C290.488 65.7283 289.812 66.3079 288.909 66.7332C288.006 67.1585 286.87 67.3711 285.501 67.3711H278.257ZM281.499 64.6622H284.986C286.163 64.6622 287.01 64.4379 287.529 63.9894C288.053 63.535 288.315 62.9524 288.315 62.2417C288.315 61.7116 288.184 61.2339 287.922 60.8086C287.66 60.3776 287.287 60.0397 286.803 59.795C286.32 59.5445 285.743 59.4193 285.073 59.4193H281.499V64.6622ZM281.499 57.0861H284.706C285.266 57.0861 285.769 56.9842 286.218 56.7803C286.667 56.5706 287.019 56.2764 287.275 55.8977C287.537 55.5132 287.669 55.0589 287.669 54.5346C287.669 53.8413 287.424 53.2704 286.935 52.8219C286.451 52.3733 285.732 52.149 284.776 52.149H281.499V57.0861Z" fill="black"/>
<path d="M77.2923 67.3711V49.4751H80.5342V57.6978H80.7526L87.7345 49.4751H91.693L84.7722 57.5056L91.7541 67.3711H87.8569L82.5178 59.6989L80.5342 62.0407V67.3711H77.2923ZM108.652 49.4751V67.3711H105.768L97.3357 55.1812H97.1872V67.3711H93.9453V49.4751H96.8464L105.27 61.6737H105.427V49.4751H108.652ZM128.175 58.4231C128.175 60.3513 127.814 62.0029 127.092 63.3777C126.375 64.7467 125.397 65.7953 124.156 66.5235C122.921 67.2517 121.52 67.6158 119.953 67.6158C118.385 67.6158 116.982 67.2517 115.741 66.5235C114.506 65.7895 113.527 64.738 112.805 63.369C112.088 61.9941 111.73 60.3455 111.73 58.4231C111.73 56.4948 112.088 54.8462 112.805 53.4772C113.527 52.1024 114.506 51.0509 115.741 50.3227C116.982 49.5945 118.385 49.2304 119.953 49.2304C121.52 49.2304 122.921 49.5945 124.156 50.3227C125.397 51.0509 126.375 52.1024 127.092 53.4772C127.814 54.8462 128.175 56.4948 128.175 58.4231ZM124.916 58.4231C124.916 57.0657 124.703 55.921 124.278 54.9889C123.859 54.051 123.276 53.3432 122.53 52.8655C121.785 52.382 120.925 52.1403 119.953 52.1403C118.98 52.1403 118.12 52.382 117.375 52.8655C116.629 53.3432 116.044 54.051 115.618 54.9889C115.199 55.921 114.989 57.0657 114.989 58.4231C114.989 59.7804 115.199 60.9281 115.618 61.866C116.044 62.7981 116.629 63.5059 117.375 63.9894C118.12 64.4671 118.98 64.7059 119.953 64.7059C120.925 64.7059 121.785 64.4671 122.53 63.9894C123.276 63.5059 123.859 62.7981 124.278 61.866C124.703 60.9281 124.916 59.7804 124.916 58.4231ZM134.55 67.3711L129.499 49.4751H132.986L136.21 62.6262H136.376L139.819 49.4751H142.991L146.443 62.6349H146.6L149.824 49.4751H153.311L148.26 67.3711H145.062L141.479 54.8142H141.34L137.748 67.3711H134.55ZM155.559 67.3711V49.4751H158.801V64.6535H166.683V67.3711H155.559ZM169.496 67.3711V49.4751H181.136V52.1927H172.738V57.0512H180.533V59.7688H172.738V64.6535H181.206V67.3711H169.496ZM190.508 67.3711H184.443V49.4751H190.63C192.407 49.4751 193.933 49.8334 195.209 50.5499C196.49 51.2606 197.475 52.283 198.162 53.617C198.85 54.9511 199.193 56.5473 199.193 58.4056C199.193 60.2698 198.847 61.8718 198.154 63.2117C197.466 64.5515 196.473 65.5797 195.174 66.2963C193.881 67.0128 192.325 67.3711 190.508 67.3711ZM187.685 64.5661H190.35C191.597 64.5661 192.637 64.3389 193.47 63.8845C194.303 63.4243 194.929 62.7398 195.349 61.831C195.768 60.9164 195.978 59.7746 195.978 58.4056C195.978 57.0366 195.768 55.9006 195.349 54.9977C194.929 54.0889 194.309 53.4102 193.487 52.9617C192.672 52.5073 191.658 52.2801 190.446 52.2801H187.685V64.5661ZM214.263 55.1899C214.117 54.7181 213.916 54.2957 213.66 53.9229C213.409 53.5442 213.106 53.2209 212.751 52.9529C212.401 52.685 211.999 52.484 211.545 52.35C211.091 52.2102 210.595 52.1403 210.06 52.1403C209.098 52.1403 208.242 52.382 207.49 52.8655C206.739 53.3491 206.148 54.0598 205.717 54.9977C205.291 55.9298 205.079 57.0657 205.079 58.4056C205.079 59.7571 205.291 60.9019 205.717 61.8398C206.142 62.7777 206.733 63.4913 207.49 63.9806C208.248 64.4642 209.127 64.7059 210.129 64.7059C211.038 64.7059 211.825 64.5312 212.489 64.1816C213.159 63.8321 213.674 63.3369 214.035 62.6961C214.397 62.0495 214.577 61.2922 214.577 60.4242L215.311 60.5378H210.453V58.0037H217.714V60.1533C217.714 61.6854 217.388 63.0107 216.736 64.1292C216.083 65.2477 215.186 66.1099 214.044 66.7157C212.902 67.3158 211.592 67.6158 210.112 67.6158C208.463 67.6158 207.016 67.2458 205.769 66.506C204.528 65.7603 203.558 64.703 202.859 63.334C202.166 61.9592 201.819 60.328 201.819 58.4406C201.819 56.9958 202.023 55.7055 202.431 54.5695C202.845 53.4335 203.421 52.4694 204.161 51.6771C204.901 50.879 205.769 50.2732 206.765 49.8596C207.761 49.4401 208.845 49.2304 210.016 49.2304C211.006 49.2304 211.93 49.3761 212.786 49.6673C213.642 49.9528 214.402 50.3606 215.067 50.8907C215.737 51.4208 216.287 52.05 216.718 52.7782C217.149 53.5064 217.432 54.3103 217.566 55.1899H214.263ZM220.849 67.3711V49.4751H232.489V52.1927H224.091V57.0512H231.886V59.7688H224.091V64.6535H232.558V67.3711H220.849Z" fill="#026DF9"/>
</svg>
