<svg width="520" height="101" viewBox="0 0 520 101" fill="none" xmlns="http://www.w3.org/2000/svg">
<g filter="url(#filter0_d_2008_110)">
<rect x="3.87891" y="3.87891" width="512" height="93" rx="10.6651" fill="white" shape-rendering="crispEdges"/>
<rect x="36.9297" y="10.9141" width="42.5465" height="42.5465" rx="21.2733" fill="#00B1EF" fill-opacity="0.1"/>
<path d="M69.9481 19.4834C69.9816 19.5179 70.0046 19.5612 70.0144 19.6083C70.7661 22.8843 68.064 29.9344 64.1401 33.8364C63.4473 34.5336 62.6948 35.169 61.8913 35.7352C61.9946 36.9345 61.9028 38.1332 61.4552 39.1604C60.1887 42.0571 56.8548 42.9 55.426 43.1296C55.3478 43.1422 55.2678 43.1367 55.1921 43.1135C55.1164 43.0902 55.047 43.0499 54.9894 42.9956C54.9318 42.9413 54.8874 42.8745 54.8597 42.8003C54.832 42.7261 54.8218 42.6466 54.8297 42.5678L55.3399 37.9198C54.9911 37.9164 54.6427 37.8953 54.2961 37.8567C54.0548 37.8325 53.8296 37.7249 53.6591 37.5525L51.8579 35.7513C51.6856 35.581 51.578 35.3559 51.5538 35.1149C51.5149 34.7662 51.4938 34.4157 51.4906 34.0648L46.8386 34.5755C46.7597 34.5836 46.68 34.5734 46.6057 34.5457C46.5314 34.518 46.4645 34.4736 46.4101 34.4159C46.3557 34.3582 46.3154 34.2888 46.2922 34.2129C46.2689 34.1371 46.2635 34.057 46.2762 33.9787C46.5115 32.5505 47.3545 29.2234 50.2517 27.9495C51.2777 27.5019 52.4828 27.4101 53.6878 27.5191C54.2546 26.718 54.8899 25.9677 55.5866 25.2766C59.4961 21.37 66.7046 18.6506 69.825 19.4138C69.8719 19.4248 69.9145 19.449 69.9481 19.4834Z" stroke="#00B1EF" stroke-width="1.83625" stroke-linecap="round" stroke-linejoin="round"/>
<path d="M49.8045 36.7188C49.2325 36.789 48.7003 37.0483 48.2925 37.4555C47.2814 38.4701 47.1855 42.2275 47.1855 42.2275C47.1855 42.2275 50.9453 42.1317 51.9569 41.1194C52.3658 40.7123 52.6256 40.1792 52.6943 39.6063" stroke="#00B1EF" stroke-width="1.83625" stroke-linecap="round" stroke-linejoin="round"/>
<path d="M48.1156 62.9447V71.4609H46.315V64.6538H46.2651L44.3149 65.8763V64.2795L46.4231 62.9447H48.1156ZM53.25 71.5774C52.6623 71.5774 52.1384 71.4693 51.6782 71.253C51.2208 71.0368 50.8576 70.7388 50.5887 70.359C50.3198 69.9792 50.1798 69.544 50.1687 69.0533H51.9152C51.9346 69.3832 52.0732 69.6507 52.3311 69.8558C52.5889 70.061 52.8952 70.1635 53.25 70.1635C53.5328 70.1635 53.7823 70.1012 53.9985 69.9764C54.2175 69.8489 54.388 69.6729 54.51 69.4483C54.6348 69.221 54.6971 68.9604 54.6971 68.6665C54.6971 68.3671 54.6334 68.1038 54.5059 67.8765C54.3811 67.6491 54.2078 67.4717 53.9861 67.3442C53.7643 67.2167 53.5106 67.1515 53.2251 67.1488C52.9756 67.1488 52.733 67.2 52.4974 67.3026C52.2645 67.4052 52.0829 67.5452 51.9527 67.7226L50.3517 67.4357L50.7551 62.9447H55.9613V64.4167H52.2396L52.0192 66.55H52.0691C52.2188 66.3393 52.4447 66.1646 52.7469 66.026C53.0491 65.8874 53.3873 65.8181 53.7615 65.8181C54.2744 65.8181 54.7318 65.9387 55.1338 66.1799C55.5357 66.4211 55.8532 66.7523 56.086 67.1737C56.3189 67.5923 56.4339 68.0747 56.4312 68.6208C56.4339 69.1947 56.3009 69.7047 56.032 70.1511C55.7658 70.5946 55.393 70.9439 54.9134 71.199C54.4366 71.4512 53.8821 71.5774 53.25 71.5774ZM60.7683 62.8283C61.2063 62.8283 61.6277 62.9017 62.0324 63.0487C62.4399 63.1956 62.8031 63.4298 63.1219 63.7514C63.4435 64.073 63.6971 64.4999 63.8829 65.0322C64.0714 65.5617 64.167 66.2117 64.1698 66.9824C64.1698 67.706 64.088 68.3519 63.9245 68.9202C63.7637 69.4857 63.5322 69.9667 63.23 70.3631C62.9278 70.7596 62.5633 71.0617 62.1364 71.2697C61.7095 71.4748 61.2326 71.5774 60.7059 71.5774C60.1376 71.5774 59.6358 71.4679 59.2006 71.2489C58.7654 71.0271 58.4147 70.7263 58.1485 70.3465C57.8852 69.9639 57.7258 69.5342 57.6703 69.0574H59.4459C59.5152 69.3679 59.6608 69.6091 59.8826 69.781C60.1043 69.9501 60.3788 70.0346 60.7059 70.0346C61.2604 70.0346 61.6817 69.7935 61.97 69.3111C62.2584 68.8259 62.4039 68.162 62.4067 67.3192H62.3485C62.2209 67.5687 62.0491 67.7836 61.8328 67.9638C61.6166 68.1412 61.3685 68.2784 61.0885 68.3755C60.8113 68.4725 60.516 68.521 60.2028 68.521C59.701 68.521 59.2533 68.4032 58.8596 68.1675C58.466 67.9319 58.1555 67.6076 57.9282 67.1945C57.7008 66.7814 57.5872 66.3102 57.5872 65.7807C57.5844 65.2096 57.7161 64.7009 57.9822 64.2546C58.2483 63.8082 58.6198 63.4589 59.0966 63.2067C59.5762 62.9516 60.1335 62.8255 60.7683 62.8283ZM60.7808 64.2421C60.5008 64.2421 60.2513 64.3086 60.0323 64.4417C59.816 64.5748 59.6442 64.7536 59.5166 64.9781C59.3919 65.2027 59.3309 65.4535 59.3337 65.7308C59.3337 66.0108 59.3947 66.263 59.5166 66.4876C59.6414 66.7094 59.8105 66.8868 60.024 67.0199C60.2402 67.1501 60.4869 67.2153 60.7641 67.2153C60.972 67.2153 61.1647 67.1765 61.3421 67.0989C61.5196 67.0212 61.6734 66.9145 61.8037 66.7787C61.9368 66.6401 62.0407 66.4807 62.1156 66.3005C62.1904 66.1203 62.2279 65.929 62.2279 65.7266C62.2251 65.4577 62.1613 65.211 62.0366 64.9864C61.9118 64.7619 61.74 64.5817 61.5209 64.4458C61.3019 64.31 61.0552 64.2421 60.7808 64.2421ZM67.9622 70.1635V64.2754H69.4509V70.1635H67.9622ZM65.7624 67.9638V66.4751H71.6506V67.9638H65.7624Z" fill="black"/>
<path d="M20.1997 83.535C20.169 83.276 20.0446 83.0749 19.8265 82.9318C19.6084 82.7886 19.3409 82.7171 19.0239 82.7171C18.7922 82.7171 18.5894 82.7545 18.4156 82.8295C18.2435 82.9045 18.1089 83.0076 18.0118 83.1388C17.9164 83.27 17.8686 83.4191 17.8686 83.5861C17.8686 83.7258 17.9019 83.8459 17.9683 83.9465C18.0365 84.0453 18.1234 84.128 18.229 84.1944C18.3347 84.2592 18.4454 84.3128 18.5613 84.3554C18.6772 84.3963 18.7837 84.4296 18.8808 84.4551L19.4125 84.5983C19.5488 84.634 19.7004 84.6835 19.8674 84.7465C20.0361 84.8095 20.1971 84.8956 20.3505 85.0047C20.5056 85.112 20.6334 85.25 20.7339 85.4187C20.8344 85.5874 20.8847 85.7944 20.8847 86.0398C20.8847 86.3227 20.8106 86.5783 20.6623 86.8066C20.5158 87.0349 20.3011 87.2164 20.0182 87.351C19.7371 87.4856 19.3954 87.553 18.9933 87.553C18.6184 87.553 18.2938 87.4925 18.0194 87.3715C17.7468 87.2505 17.5321 87.0818 17.3753 86.8654C17.2203 86.649 17.1325 86.3977 17.1121 86.1114H17.7664C17.7834 86.309 17.8499 86.4726 17.9658 86.6021C18.0833 86.7299 18.2316 86.8254 18.4105 86.8884C18.5911 86.9497 18.7854 86.9804 18.9933 86.9804C19.2352 86.9804 19.4525 86.9412 19.645 86.8628C19.8376 86.7828 19.9901 86.672 20.1026 86.5306C20.215 86.3874 20.2713 86.2204 20.2713 86.0296C20.2713 85.8558 20.2227 85.7144 20.1256 85.6053C20.0284 85.4963 19.9006 85.4076 19.7422 85.3395C19.5837 85.2713 19.4125 85.2117 19.2284 85.1606L18.5843 84.9765C18.1754 84.859 17.8516 84.6911 17.613 84.473C17.3745 84.2549 17.2552 83.9695 17.2552 83.6168C17.2552 83.3237 17.3344 83.0681 17.4929 82.85C17.6531 82.6302 17.8678 82.4598 18.137 82.3388C18.408 82.2161 18.7104 82.1547 19.0444 82.1547C19.3818 82.1547 19.6817 82.2152 19.9441 82.3362C20.2065 82.4555 20.4144 82.6191 20.5677 82.827C20.7228 83.0349 20.8046 83.2709 20.8131 83.535H20.1997ZM26.3436 84.8436C26.3436 85.3957 26.2439 85.8728 26.0445 86.275C25.8452 86.6771 25.5717 86.9872 25.2241 87.2053C24.8765 87.4234 24.4794 87.5325 24.033 87.5325C23.5866 87.5325 23.1895 87.4234 22.8419 87.2053C22.4943 86.9872 22.2208 86.6771 22.0215 86.275C21.8221 85.8728 21.7224 85.3957 21.7224 84.8436C21.7224 84.2915 21.8221 83.8144 22.0215 83.4123C22.2208 83.0101 22.4943 82.7 22.8419 82.4819C23.1895 82.2638 23.5866 82.1547 24.033 82.1547C24.4794 82.1547 24.8765 82.2638 25.2241 82.4819C25.5717 82.7 25.8452 83.0101 26.0445 83.4123C26.2439 83.8144 26.3436 84.2915 26.3436 84.8436ZM25.7302 84.8436C25.7302 84.3904 25.6543 84.0078 25.5027 83.696C25.3527 83.3842 25.1491 83.1482 24.8918 82.988C24.6362 82.8278 24.3499 82.7477 24.033 82.7477C23.7161 82.7477 23.4289 82.8278 23.1716 82.988C22.916 83.1482 22.7124 83.3842 22.5608 83.696C22.4108 84.0078 22.3358 84.3904 22.3358 84.8436C22.3358 85.2969 22.4108 85.6794 22.5608 85.9913C22.7124 86.3031 22.916 86.5391 23.1716 86.6993C23.4289 86.8594 23.7161 86.9395 24.033 86.9395C24.3499 86.9395 24.6362 86.8594 24.8918 86.6993C25.1491 86.5391 25.3527 86.3031 25.5027 85.9913C25.6543 85.6794 25.7302 85.2969 25.7302 84.8436ZM27.4094 87.4609V82.2263H28.0433V86.8986H30.4766V87.4609H27.4094ZM34.8933 82.2263H35.5272V85.6922C35.5272 86.05 35.4428 86.3695 35.2741 86.6507C35.1072 86.9301 34.8712 87.1508 34.5661 87.3127C34.2611 87.4729 33.9033 87.553 33.4926 87.553C33.082 87.553 32.7241 87.4729 32.4191 87.3127C32.1141 87.1508 31.8773 86.9301 31.7086 86.6507C31.5416 86.3695 31.4581 86.05 31.4581 85.6922V82.2263H32.092V85.6411C32.092 85.8967 32.1482 86.1242 32.2607 86.3235C32.3731 86.5212 32.5333 86.6771 32.7412 86.7913C32.9508 86.9037 33.2013 86.96 33.4926 86.96C33.784 86.96 34.0345 86.9037 34.2441 86.7913C34.4537 86.6771 34.6139 86.5212 34.7246 86.3235C34.8371 86.1242 34.8933 85.8967 34.8933 85.6411V82.2263ZM36.5068 82.7886V82.2263H40.4327V82.7886H38.7867V87.4609H38.1528V82.7886H36.5068ZM42.0449 82.2263V87.4609H41.411V82.2263H42.0449ZM47.7326 84.8436C47.7326 85.3957 47.6329 85.8728 47.4335 86.275C47.2342 86.6771 46.9607 86.9872 46.6131 87.2053C46.2654 87.4234 45.8684 87.5325 45.422 87.5325C44.9755 87.5325 44.5785 87.4234 44.2309 87.2053C43.8833 86.9872 43.6098 86.6771 43.4104 86.275C43.2111 85.8728 43.1114 85.3957 43.1114 84.8436C43.1114 84.2915 43.2111 83.8144 43.4104 83.4123C43.6098 83.0101 43.8833 82.7 44.2309 82.4819C44.5785 82.2638 44.9755 82.1547 45.422 82.1547C45.8684 82.1547 46.2654 82.2638 46.6131 82.4819C46.9607 82.7 47.2342 83.0101 47.4335 83.4123C47.6329 83.8144 47.7326 84.2915 47.7326 84.8436ZM47.1191 84.8436C47.1191 84.3904 47.0433 84.0078 46.8917 83.696C46.7417 83.3842 46.5381 83.1482 46.2808 82.988C46.0252 82.8278 45.7389 82.7477 45.422 82.7477C45.105 82.7477 44.8179 82.8278 44.5606 82.988C44.305 83.1482 44.1014 83.3842 43.9497 83.696C43.7998 84.0078 43.7248 84.3904 43.7248 84.8436C43.7248 85.2969 43.7998 85.6794 43.9497 85.9913C44.1014 86.3031 44.305 86.5391 44.5606 86.6993C44.8179 86.8594 45.105 86.9395 45.422 86.9395C45.7389 86.9395 46.0252 86.8594 46.2808 86.6993C46.5381 86.5391 46.7417 86.3031 46.8917 85.9913C47.0433 85.6794 47.1191 85.2969 47.1191 84.8436ZM52.9493 82.2263V87.4609H52.3359L49.4834 83.3509H49.4323V87.4609H48.7984V82.2263H49.4118L52.2745 86.3465H52.3256V82.2263H52.9493ZM57.0804 83.535C57.0497 83.276 56.9253 83.0749 56.7072 82.9318C56.4891 82.7886 56.2216 82.7171 55.9046 82.7171C55.6729 82.7171 55.4701 82.7545 55.2963 82.8295C55.1242 82.9045 54.9896 83.0076 54.8925 83.1388C54.797 83.27 54.7493 83.4191 54.7493 83.5861C54.7493 83.7258 54.7826 83.8459 54.849 83.9465C54.9172 84.0453 55.0041 84.128 55.1097 84.1944C55.2154 84.2592 55.3261 84.3128 55.442 84.3554C55.5579 84.3963 55.6644 84.4296 55.7615 84.4551L56.2931 84.5983C56.4295 84.634 56.5811 84.6835 56.7481 84.7465C56.9168 84.8095 57.0778 84.8956 57.2312 85.0047C57.3862 85.112 57.514 85.25 57.6146 85.4187C57.7151 85.5874 57.7654 85.7944 57.7654 86.0398C57.7654 86.3227 57.6913 86.5783 57.543 86.8066C57.3965 87.0349 57.1818 87.2164 56.8989 87.351C56.6177 87.4856 56.2761 87.553 55.874 87.553C55.4991 87.553 55.1745 87.4925 54.9001 87.3715C54.6275 87.2505 54.4128 87.0818 54.256 86.8654C54.101 86.649 54.0132 86.3977 53.9928 86.1114H54.6471C54.6641 86.309 54.7306 86.4726 54.8465 86.6021C54.964 86.7299 55.1123 86.8254 55.2912 86.8884C55.4718 86.9497 55.6661 86.9804 55.874 86.9804C56.1159 86.9804 56.3332 86.9412 56.5257 86.8628C56.7183 86.7828 56.8708 86.672 56.9833 86.5306C57.0957 86.3874 57.1519 86.2204 57.1519 86.0296C57.1519 85.8558 57.1034 85.7144 57.0063 85.6053C56.9091 85.4963 56.7813 85.4076 56.6229 85.3395C56.4644 85.2713 56.2931 85.2117 56.1091 85.1606L55.465 84.9765C55.0561 84.859 54.7323 84.6911 54.4937 84.473C54.2552 84.2549 54.1359 83.9695 54.1359 83.6168C54.1359 83.3237 54.2151 83.0681 54.3736 82.85C54.5338 82.6302 54.7485 82.4598 55.0177 82.3388C55.2886 82.2161 55.5911 82.1547 55.9251 82.1547C56.2625 82.1547 56.5624 82.2152 56.8248 82.3362C57.0872 82.4555 57.2951 82.6191 57.4484 82.827C57.6035 83.0349 57.6853 83.2709 57.6938 83.535H57.0804ZM62.4473 87.4609H60.8319V82.2263H62.5188C63.0266 82.2263 63.4611 82.3311 63.8224 82.5407C64.1836 82.7486 64.4605 83.0476 64.6531 83.4378C64.8456 83.8264 64.9419 84.2915 64.9419 84.8334C64.9419 85.3787 64.8448 85.8481 64.6505 86.2417C64.4563 86.6337 64.1734 86.9353 63.8019 87.1466C63.4305 87.3561 62.9789 87.4609 62.4473 87.4609ZM61.4658 86.8986H62.4064C62.8392 86.8986 63.1979 86.8151 63.4824 86.6481C63.767 86.4811 63.9791 86.2434 64.1189 85.935C64.2586 85.6266 64.3285 85.2594 64.3285 84.8334C64.3285 84.4108 64.2595 84.047 64.1214 83.742C63.9834 83.4353 63.7772 83.2001 63.5029 83.0366C63.2285 82.8713 62.8869 82.7886 62.4779 82.7886H61.4658V86.8986ZM66.0052 87.4609V82.2263H69.1644V82.7886H66.6391V84.5574H69.0008V85.1197H66.6391V86.8986H69.2053V87.4609H66.0052ZM70.3069 87.4609V82.2263H70.9408V86.8986H73.374V87.4609H70.3069ZM74.9894 82.2263V87.4609H74.3555V82.2263H74.9894ZM76.4751 82.2263L78.0291 86.6328H78.0904L79.6445 82.2263H80.309L78.3869 87.4609H77.7326L75.8105 82.2263H76.4751ZM81.1244 87.4609V82.2263H84.2835V82.7886H81.7582V84.5574H84.12V85.1197H81.7582V86.8986H84.3244V87.4609H81.1244ZM85.4261 87.4609V82.2263H87.1948C87.6037 82.2263 87.9394 82.2962 88.2018 82.4359C88.4643 82.5739 88.6585 82.7639 88.7846 83.0059C88.9107 83.2479 88.9737 83.523 88.9737 83.8315C88.9737 84.1399 88.9107 84.4134 88.7846 84.6519C88.6585 84.8905 88.4651 85.0779 88.2044 85.2142C87.9437 85.3489 87.6106 85.4162 87.205 85.4162H85.7737V84.8436H87.1846C87.464 84.8436 87.6889 84.8027 87.8593 84.7209C88.0314 84.6391 88.1558 84.5233 88.2325 84.3733C88.3109 84.2217 88.3501 84.0411 88.3501 83.8315C88.3501 83.6219 88.3109 83.4387 88.2325 83.2819C88.1541 83.1252 88.0289 83.0042 87.8568 82.919C87.6847 82.8321 87.4572 82.7886 87.1743 82.7886H86.0599V87.4609H85.4261ZM87.89 85.1094L89.1782 87.4609H88.4421L87.1743 85.1094H87.89ZM90.03 87.4609V82.2263H93.1892V82.7886H90.6639V84.5574H93.0256V85.1197H90.6639V86.8986H93.2301V87.4609H90.03ZM95.9471 87.4609H94.3317V82.2263H96.0186C96.5264 82.2263 96.9609 82.3311 97.3222 82.5407C97.6834 82.7486 97.9603 83.0476 98.1529 83.4378C98.3454 83.8264 98.4417 84.2915 98.4417 84.8334C98.4417 85.3787 98.3446 85.8481 98.1503 86.2417C97.956 86.6337 97.6732 86.9353 97.3017 87.1466C96.9303 87.3561 96.4787 87.4609 95.9471 87.4609ZM94.9656 86.8986H95.9062C96.339 86.8986 96.6977 86.8151 96.9822 86.6481C97.2668 86.4811 97.4789 86.2434 97.6187 85.935C97.7584 85.6266 97.8283 85.2594 97.8283 84.8334C97.8283 84.4108 97.7592 84.047 97.6212 83.742C97.4832 83.4353 97.277 83.2001 97.0027 83.0366C96.7283 82.8713 96.3867 82.7886 95.9777 82.7886H94.9656V86.8986Z" fill="black"/>
<path d="M129.703 23.9648L129.703 76.4084" stroke="#8F8F8F" stroke-opacity="0.74" stroke-width="0.782739" stroke-linecap="round"/>
<rect x="172.43" y="10.875" width="42.5465" height="42.5465" rx="21.2733" fill="#00B1EF" fill-opacity="0.1"/>
<g clip-path="url(#clip0_2008_110)">
<path d="M193.703 31.2379C192.503 31.2379 191.352 30.7612 190.503 29.9125C189.654 29.0639 189.178 27.9129 189.178 26.7127C189.178 25.5126 189.654 24.3615 190.503 23.5129C191.352 22.6643 192.503 22.1875 193.703 22.1875C194.903 22.1875 196.054 22.6643 196.903 23.5129C197.751 24.3615 198.228 25.5126 198.228 26.7127C198.228 27.9129 197.751 29.0639 196.903 29.9125C196.054 30.7612 194.903 31.2379 193.703 31.2379ZM193.703 23.9976C192.201 23.9976 190.988 25.2103 190.988 26.7127C190.988 28.2151 192.201 29.4278 193.703 29.4278C195.205 29.4278 196.418 28.2151 196.418 26.7127C196.418 25.2103 195.205 23.9976 193.703 23.9976Z" fill="#00B1EF"/>
<path d="M204.563 38.4783C204.056 38.4783 203.658 38.08 203.658 37.5732C203.658 37.0664 204.056 36.6682 204.563 36.6682C205.07 36.6682 205.468 36.27 205.468 35.7631C205.468 34.563 204.991 33.412 204.143 32.5633C203.294 31.7147 202.143 31.2379 200.943 31.2379H199.133C198.626 31.2379 198.228 30.8397 198.228 30.3329C198.228 29.8261 198.626 29.4278 199.133 29.4278C200.635 29.4278 201.848 28.2151 201.848 26.7127C201.848 25.2103 200.635 23.9976 199.133 23.9976C198.626 23.9976 198.228 23.5994 198.228 23.0925C198.228 22.5857 198.626 22.1875 199.133 22.1875C200.333 22.1875 201.484 22.6643 202.333 23.5129C203.181 24.3615 203.658 25.5126 203.658 26.7127C203.658 27.835 203.26 28.8486 202.572 29.645C205.269 30.3691 207.278 32.8308 207.278 35.7631C207.278 37.2655 206.065 38.4783 204.563 38.4783ZM182.842 38.4783C181.34 38.4783 180.127 37.2655 180.127 35.7631C180.127 32.8308 182.118 30.3691 184.833 29.645C184.163 28.8486 183.747 27.835 183.747 26.7127C183.747 25.5126 184.224 24.3615 185.073 23.5129C185.921 22.6643 187.072 22.1875 188.272 22.1875C188.779 22.1875 189.177 22.5857 189.177 23.0925C189.177 23.5994 188.779 23.9976 188.272 23.9976C186.77 23.9976 185.557 25.2103 185.557 26.7127C185.557 28.2151 186.77 29.4278 188.272 29.4278C188.779 29.4278 189.177 29.8261 189.177 30.3329C189.177 30.8397 188.779 31.2379 188.272 31.2379H186.462C185.262 31.2379 184.111 31.7147 183.262 32.5633C182.414 33.412 181.937 34.563 181.937 35.7631C181.937 36.27 182.335 36.6682 182.842 36.6682C183.349 36.6682 183.747 37.0664 183.747 37.5732C183.747 38.08 183.349 38.4783 182.842 38.4783ZM199.133 43.9085H188.272C186.77 43.9085 185.557 42.6958 185.557 41.1934V39.3833C185.557 35.8898 188.399 33.048 191.893 33.048H195.513C199.006 33.048 201.848 35.8898 201.848 39.3833V41.1934C201.848 42.6958 200.635 43.9085 199.133 43.9085ZM191.893 34.8581C190.692 34.8581 189.541 35.3349 188.693 36.1835C187.844 37.0321 187.367 38.1831 187.367 39.3833V41.1934C187.367 41.7002 187.766 42.0984 188.272 42.0984H199.133C199.64 42.0984 200.038 41.7002 200.038 41.1934V39.3833C200.038 38.1831 199.561 37.0321 198.712 36.1835C197.864 35.3349 196.713 34.8581 195.513 34.8581H191.893Z" fill="#00B1EF"/>
</g>
<path d="M183.461 71.5L186.991 64.514V64.4558H182.878V62.9838H188.854V64.4766L185.319 71.5H183.461ZM193.055 62.8673C193.493 62.8673 193.914 62.9408 194.319 63.0877C194.727 63.2346 195.09 63.4689 195.409 63.7905C195.73 64.112 195.984 64.539 196.17 65.0712C196.358 65.6007 196.454 66.2508 196.456 67.0215C196.456 67.745 196.375 68.391 196.211 68.9593C196.05 69.5248 195.819 70.0058 195.517 70.4022C195.215 70.7986 194.85 71.1008 194.423 71.3087C193.996 71.5139 193.519 71.6164 192.993 71.6164C192.424 71.6164 191.922 71.5069 191.487 71.2879C191.052 71.0661 190.701 70.7654 190.435 70.3856C190.172 70.003 190.012 69.5733 189.957 69.0965H191.733C191.802 69.407 191.947 69.6482 192.169 69.82C192.391 69.9891 192.665 70.0737 192.993 70.0737C193.547 70.0737 193.968 69.8325 194.257 69.3501C194.545 68.865 194.691 68.2011 194.693 67.3583H194.635C194.508 67.6078 194.336 67.8227 194.119 68.0029C193.903 68.1803 193.655 68.3175 193.375 68.4145C193.098 68.5116 192.803 68.5601 192.489 68.5601C191.988 68.5601 191.54 68.4422 191.146 68.2066C190.753 67.971 190.442 67.6466 190.215 67.2336C189.987 66.8205 189.874 66.3492 189.874 65.8197C189.871 65.2487 190.003 64.74 190.269 64.2936C190.535 63.8473 190.906 63.498 191.383 63.2457C191.863 62.9907 192.42 62.8646 193.055 62.8673ZM193.067 64.2812C192.787 64.2812 192.538 64.3477 192.319 64.4808C192.103 64.6138 191.931 64.7926 191.803 65.0172C191.679 65.2417 191.618 65.4926 191.62 65.7698C191.62 66.0498 191.681 66.3021 191.803 66.5266C191.928 66.7484 192.097 66.9258 192.311 67.0589C192.527 67.1892 192.774 67.2544 193.051 67.2544C193.259 67.2544 193.451 67.2155 193.629 67.1379C193.806 67.0603 193.96 66.9536 194.09 66.8177C194.223 66.6791 194.327 66.5197 194.402 66.3395C194.477 66.1593 194.515 65.968 194.515 65.7657C194.512 65.4968 194.448 65.25 194.323 65.0255C194.198 64.8009 194.027 64.6208 193.808 64.4849C193.589 64.3491 193.342 64.2812 193.067 64.2812ZM200.249 70.2026V64.3144H201.738V70.2026H200.249ZM198.049 68.0029V66.5142H203.937V68.0029H198.049Z" fill="black"/>
<path d="M163.2 83.574C163.169 83.315 163.045 83.114 162.827 82.9708C162.608 82.8277 162.341 82.7561 162.024 82.7561C161.792 82.7561 161.589 82.7936 161.416 82.8686C161.244 82.9436 161.109 83.0467 161.012 83.1779C160.916 83.3091 160.869 83.4582 160.869 83.6252C160.869 83.7649 160.902 83.885 160.968 83.9855C161.036 84.0844 161.123 84.167 161.229 84.2335C161.335 84.2982 161.445 84.3519 161.561 84.3945C161.677 84.4354 161.784 84.4686 161.881 84.4942L162.412 84.6373C162.549 84.6731 162.7 84.7225 162.867 84.7856C163.036 84.8486 163.197 84.9347 163.35 85.0437C163.506 85.1511 163.633 85.2891 163.734 85.4578C163.834 85.6265 163.885 85.8335 163.885 86.0789C163.885 86.3617 163.811 86.6173 163.662 86.8457C163.516 87.074 163.301 87.2555 163.018 87.3901C162.737 87.5247 162.395 87.592 161.993 87.592C161.618 87.592 161.294 87.5315 161.019 87.4105C160.747 87.2896 160.532 87.1209 160.375 86.9045C160.22 86.6881 160.133 86.4367 160.112 86.1504H160.766C160.783 86.3481 160.85 86.5117 160.966 86.6412C161.083 86.769 161.232 86.8644 161.411 86.9275C161.591 86.9888 161.785 87.0195 161.993 87.0195C162.235 87.0195 162.452 86.9803 162.645 86.9019C162.838 86.8218 162.99 86.7111 163.103 86.5696C163.215 86.4265 163.271 86.2595 163.271 86.0687C163.271 85.8949 163.223 85.7534 163.126 85.6444C163.028 85.5353 162.901 85.4467 162.742 85.3785C162.584 85.3104 162.412 85.2507 162.228 85.1996L161.584 85.0156C161.175 84.898 160.852 84.7302 160.613 84.5121C160.374 84.294 160.255 84.0085 160.255 83.6558C160.255 83.3627 160.334 83.1071 160.493 82.889C160.653 82.6692 160.868 82.4988 161.137 82.3778C161.408 82.2552 161.71 82.1938 162.044 82.1938C162.382 82.1938 162.682 82.2543 162.944 82.3753C163.207 82.4946 163.414 82.6581 163.568 82.866C163.723 83.0739 163.805 83.3099 163.813 83.574H163.2ZM165.142 87.5H164.477L166.399 82.2654H167.053L168.976 87.5H168.311L166.747 83.0935H166.706L165.142 87.5ZM165.387 85.4552H168.066V86.0175H165.387V85.4552ZM168.893 82.8277V82.2654H172.819V82.8277H171.173V87.5H170.539V82.8277H168.893ZM174.431 82.2654V87.5H173.797V82.2654H174.431ZM178.565 83.574C178.534 83.315 178.41 83.114 178.192 82.9708C177.974 82.8277 177.706 82.7561 177.389 82.7561C177.157 82.7561 176.955 82.7936 176.781 82.8686C176.609 82.9436 176.474 83.0467 176.377 83.1779C176.282 83.3091 176.234 83.4582 176.234 83.6252C176.234 83.7649 176.267 83.885 176.334 83.9855C176.402 84.0844 176.489 84.167 176.594 84.2335C176.7 84.2982 176.811 84.3519 176.927 84.3945C177.042 84.4354 177.149 84.4686 177.246 84.4942L177.778 84.6373C177.914 84.6731 178.066 84.7225 178.233 84.7856C178.401 84.8486 178.562 84.9347 178.716 85.0437C178.871 85.1511 178.999 85.2891 179.099 85.4578C179.2 85.6265 179.25 85.8335 179.25 86.0789C179.25 86.3617 179.176 86.6173 179.028 86.8457C178.881 87.074 178.666 87.2555 178.383 87.3901C178.102 87.5247 177.761 87.592 177.358 87.592C176.984 87.592 176.659 87.5315 176.385 87.4105C176.112 87.2896 175.897 87.1209 175.741 86.9045C175.585 86.6881 175.498 86.4367 175.477 86.1504H176.132C176.149 86.3481 176.215 86.5117 176.331 86.6412C176.449 86.769 176.597 86.8644 176.776 86.9275C176.956 86.9888 177.151 87.0195 177.358 87.0195C177.6 87.0195 177.818 86.9803 178.01 86.9019C178.203 86.8218 178.355 86.7111 178.468 86.5696C178.58 86.4265 178.636 86.2595 178.636 86.0687C178.636 85.8949 178.588 85.7534 178.491 85.6444C178.394 85.5353 178.266 85.4467 178.107 85.3785C177.949 85.3104 177.778 85.2507 177.594 85.1996L176.95 85.0156C176.541 84.898 176.217 84.7302 175.978 84.5121C175.74 84.294 175.62 84.0085 175.62 83.6558C175.62 83.3627 175.7 83.1071 175.858 82.889C176.018 82.6692 176.233 82.4988 176.502 82.3778C176.773 82.2552 177.076 82.1938 177.41 82.1938C177.747 82.1938 178.047 82.2543 178.309 82.3753C178.572 82.4946 178.78 82.6581 178.933 82.866C179.088 83.0739 179.17 83.3099 179.178 83.574H178.565ZM180.292 87.5V82.2654H183.431V82.8277H180.926V84.5964H183.196V85.1587H180.926V87.5H180.292ZM185.15 82.2654V87.5H184.516V82.2654H185.15ZM186.421 87.5V82.2654H189.58V82.8277H187.055V84.5964H189.417V85.1587H187.055V86.9377H189.621V87.5H186.421ZM192.338 87.5H190.723V82.2654H192.41C192.918 82.2654 193.352 82.3702 193.713 82.5798C194.075 82.7876 194.352 83.0867 194.544 83.4769C194.737 83.8654 194.833 84.3306 194.833 84.8725C194.833 85.4177 194.736 85.8872 194.542 86.2808C194.347 86.6727 194.064 86.9743 193.693 87.1856C193.322 87.3952 192.87 87.5 192.338 87.5ZM191.357 86.9377H192.297C192.73 86.9377 193.089 86.8542 193.374 86.6872C193.658 86.5202 193.87 86.2825 194.01 85.9741C194.15 85.6657 194.22 85.2985 194.22 84.8725C194.22 84.4499 194.151 84.0861 194.013 83.7811C193.874 83.4744 193.668 83.2392 193.394 83.0756C193.12 82.9103 192.778 82.8277 192.369 82.8277H191.357V86.9377ZM202.133 83.9012H201.499C201.461 83.7189 201.396 83.5587 201.302 83.4207C201.21 83.2827 201.098 83.1668 200.965 83.0731C200.834 82.9776 200.688 82.9061 200.528 82.8584C200.368 82.8107 200.201 82.7868 200.027 82.7868C199.71 82.7868 199.423 82.8669 199.165 83.0271C198.91 83.1872 198.706 83.4232 198.554 83.7351C198.405 84.0469 198.33 84.4294 198.33 84.8827C198.33 85.3359 198.405 85.7185 198.554 86.0303C198.706 86.3421 198.91 86.5781 199.165 86.7383C199.423 86.8985 199.71 86.9786 200.027 86.9786C200.201 86.9786 200.368 86.9547 200.528 86.907C200.688 86.8593 200.834 86.7886 200.965 86.6949C201.098 86.5994 201.21 86.4827 201.302 86.3447C201.396 86.205 201.461 86.0448 201.499 85.8642H202.133C202.085 86.1317 201.998 86.3711 201.872 86.5824C201.746 86.7937 201.589 86.9735 201.402 87.1217C201.214 87.2683 201.004 87.3799 200.77 87.4565C200.539 87.5332 200.291 87.5716 200.027 87.5716C199.58 87.5716 199.183 87.4625 198.836 87.2444C198.488 87.0263 198.215 86.7162 198.015 86.314C197.816 85.9119 197.716 85.4348 197.716 84.8827C197.716 84.3306 197.816 83.8535 198.015 83.4513C198.215 83.0492 198.488 82.7391 198.836 82.521C199.183 82.3029 199.58 82.1938 200.027 82.1938C200.291 82.1938 200.539 82.2322 200.77 82.3088C201.004 82.3855 201.214 82.498 201.402 82.6462C201.589 82.7928 201.746 82.9717 201.872 83.183C201.998 83.3926 202.085 83.632 202.133 83.9012ZM203.157 87.5V82.2654H203.791V86.9377H206.224V87.5H203.157ZM207.84 82.2654V87.5H207.206V82.2654H207.84ZM209.111 87.5V82.2654H212.27V82.8277H209.744V84.5964H212.106V85.1587H209.744V86.9377H212.311V87.5H209.111ZM217.563 82.2654V87.5H216.95L214.097 83.39H214.046V87.5H213.412V82.2654H214.026L216.888 86.3856H216.94V82.2654H217.563ZM218.545 82.8277V82.2654H222.471V82.8277H220.825V87.5H220.191V82.8277H218.545ZM226.312 83.574C226.282 83.315 226.157 83.114 225.939 82.9708C225.721 82.8277 225.453 82.7561 225.137 82.7561C224.905 82.7561 224.702 82.7936 224.528 82.8686C224.356 82.9436 224.221 83.0467 224.124 83.1779C224.029 83.3091 223.981 83.4582 223.981 83.6252C223.981 83.7649 224.014 83.885 224.081 83.9855C224.149 84.0844 224.236 84.167 224.342 84.2335C224.447 84.2982 224.558 84.3519 224.674 84.3945C224.79 84.4354 224.896 84.4686 224.993 84.4942L225.525 84.6373C225.661 84.6731 225.813 84.7225 225.98 84.7856C226.149 84.8486 226.31 84.9347 226.463 85.0437C226.618 85.1511 226.746 85.2891 226.846 85.4578C226.947 85.6265 226.997 85.8335 226.997 86.0789C226.997 86.3617 226.923 86.6173 226.775 86.8457C226.628 87.074 226.414 87.2555 226.131 87.3901C225.85 87.5247 225.508 87.592 225.106 87.592C224.731 87.592 224.406 87.5315 224.132 87.4105C223.859 87.2896 223.645 87.1209 223.488 86.9045C223.333 86.6881 223.245 86.4367 223.225 86.1504H223.879C223.896 86.3481 223.962 86.5117 224.078 86.6412C224.196 86.769 224.344 86.8644 224.523 86.9275C224.704 86.9888 224.898 87.0195 225.106 87.0195C225.348 87.0195 225.565 86.9803 225.758 86.9019C225.95 86.8218 226.103 86.7111 226.215 86.5696C226.328 86.4265 226.384 86.2595 226.384 86.0687C226.384 85.8949 226.335 85.7534 226.238 85.6444C226.141 85.5353 226.013 85.4467 225.855 85.3785C225.696 85.3104 225.525 85.2507 225.341 85.1996L224.697 85.0156C224.288 84.898 223.964 84.7302 223.726 84.5121C223.487 84.294 223.368 84.0085 223.368 83.6558C223.368 83.3627 223.447 83.1071 223.606 82.889C223.766 82.6692 223.98 82.4988 224.25 82.3778C224.521 82.2552 224.823 82.1938 225.157 82.1938C225.494 82.1938 225.794 82.2543 226.057 82.3753C226.319 82.4946 226.527 82.6581 226.68 82.866C226.835 83.0739 226.917 83.3099 226.926 83.574H226.312Z" fill="black"/>
<path d="M257.703 23.9648L257.703 76.4084" stroke="#8F8F8F" stroke-opacity="0.74" stroke-width="0.782739" stroke-linecap="round"/>
<rect x="303.43" y="10.9141" width="42.5465" height="42.5465" rx="21.2733" fill="#00B1EF" fill-opacity="0.1"/>
<g clip-path="url(#clip1_2008_110)">
<path d="M330.73 30.4658C332.785 30.4658 334.756 31.2821 336.209 32.7351C337.662 34.1881 338.478 36.1588 338.478 38.2137C338.478 40.2685 337.662 42.2392 336.209 43.6923C334.756 45.1453 332.785 45.9616 330.73 45.9616C328.675 45.9616 326.705 45.1453 325.252 43.6923C323.799 42.2392 322.982 40.2685 322.982 38.2137C322.982 36.1588 323.799 34.1881 325.252 32.7351C326.705 31.2821 328.675 30.4658 330.73 30.4658ZM331.55 33.6682C331.5 33.4891 331.393 33.3311 331.245 33.2186C331.097 33.1061 330.916 33.0452 330.73 33.0452C330.544 33.0452 330.364 33.1061 330.216 33.2186C330.068 33.3311 329.961 33.4891 329.911 33.6682L329.09 36.3077H326.429C325.594 36.3077 325.247 37.4199 325.921 37.9313L328.074 39.5618L327.251 42.1995C326.992 43.026 327.903 43.7147 328.578 43.2033L330.73 41.5728L332.883 43.2033C333.557 43.7147 334.467 43.026 334.208 42.1995L333.387 39.5618L335.539 37.9313C336.214 37.4199 335.866 36.3077 335.031 36.3077H332.371L331.55 33.6682ZM323.427 32.1875C322.989 32.7187 322.61 33.296 322.297 33.9093H315.235C314.778 33.9093 314.34 34.0907 314.017 34.4136C313.694 34.7365 313.513 35.1744 313.513 35.631C313.513 36.5057 314.036 37.339 315.117 37.9984C316.199 38.6579 317.759 39.0745 319.539 39.0745C320.152 39.0745 320.739 39.0194 321.29 38.9282C321.332 39.5136 321.426 40.08 321.571 40.6276C320.899 40.7411 320.22 40.7975 319.539 40.7963C317.516 40.7963 315.631 40.328 314.22 39.4705C312.809 38.6097 311.791 37.2925 311.791 35.631C311.791 34.7178 312.154 33.8419 312.8 33.1961C313.445 32.5503 314.321 32.1875 315.235 32.1875H323.427ZM319.539 20.9961C320.795 20.9961 321.999 21.4949 322.887 22.3829C323.775 23.2708 324.274 24.4752 324.274 25.7309C324.274 26.9867 323.775 28.191 322.887 29.079C321.999 29.9669 320.795 30.4658 319.539 30.4658C318.283 30.4658 317.079 29.9669 316.191 29.079C315.303 28.191 314.804 26.9867 314.804 25.7309C314.804 24.4752 315.303 23.2708 316.191 22.3829C317.079 21.4949 318.283 20.9961 319.539 20.9961ZM331.128 22.7333C332.083 22.8313 332.968 23.2799 333.611 23.9922C334.254 24.7046 334.611 25.6302 334.611 26.5901L334.591 26.9861C334.504 27.8297 334.146 28.5925 333.606 29.1899C332.684 28.8965 331.722 28.7461 330.754 28.744C331.324 28.7381 331.868 28.5068 332.268 28.1008C332.668 27.6948 332.891 27.147 332.888 26.5773C332.885 26.0075 332.656 25.4621 332.252 25.0603C331.848 24.6584 331.302 24.4328 330.732 24.4328C330.162 24.4328 329.616 24.6584 329.212 25.0603C328.808 25.4621 328.579 26.0075 328.576 26.5773C328.573 27.147 328.796 27.6948 329.196 28.1008C329.596 28.5068 330.14 28.7381 330.71 28.744C329.742 28.7455 328.781 28.8954 327.858 29.1882C327.304 28.5774 326.96 27.805 326.877 26.9844L326.856 26.5918C326.856 26.0825 326.956 25.5781 327.151 25.1075C327.345 24.6368 327.631 24.2092 327.991 23.8491C328.351 23.4889 328.779 23.2033 329.249 23.0086C329.72 22.8139 330.224 22.714 330.734 22.7144L331.128 22.7333ZM319.539 22.7179C318.74 22.7179 317.973 23.0353 317.408 23.6004C316.843 24.1654 316.526 24.9318 316.526 25.7309C316.526 26.53 316.843 27.2964 317.408 27.8615C317.973 28.4266 318.74 28.744 319.539 28.744C320.338 28.744 321.104 28.4266 321.669 27.8615C322.235 27.2964 322.552 26.53 322.552 25.7309C322.552 24.9318 322.235 24.1654 321.669 23.6004C321.104 23.0353 320.338 22.7179 319.539 22.7179Z" fill="#00B1EF"/>
</g>
<path d="M316.671 71.5774C316.05 71.5774 315.497 71.4706 315.012 71.2572C314.53 71.0409 314.149 70.7443 313.869 70.3673C313.591 69.9875 313.449 69.5495 313.44 69.0533H315.253C315.264 69.2612 315.332 69.4442 315.457 69.6022C315.585 69.7574 315.754 69.878 315.964 69.9639C316.175 70.0499 316.412 70.0928 316.675 70.0928C316.95 70.0928 317.193 70.0443 317.403 69.9473C317.614 69.8503 317.779 69.7158 317.898 69.544C318.017 69.3721 318.077 69.1739 318.077 68.9493C318.077 68.722 318.013 68.521 317.886 68.3464C317.761 68.1689 317.581 68.0303 317.345 67.9305C317.112 67.8307 316.835 67.7808 316.513 67.7808H315.719V66.4585H316.513C316.785 66.4585 317.025 66.4113 317.233 66.3171C317.443 66.2228 317.607 66.0925 317.723 65.9262C317.84 65.7571 317.898 65.5603 317.898 65.3357C317.898 65.1223 317.847 64.9351 317.744 64.7744C317.644 64.6108 317.503 64.4833 317.32 64.3918C317.14 64.3003 316.929 64.2546 316.688 64.2546C316.444 64.2546 316.221 64.2989 316.018 64.3876C315.816 64.4736 315.654 64.5969 315.532 64.7577C315.41 64.9185 315.345 65.107 315.337 65.3233H313.611C313.619 64.8326 313.759 64.4001 314.031 64.0259C314.302 63.6516 314.668 63.3591 315.129 63.1485C315.592 62.935 316.114 62.8283 316.696 62.8283C317.284 62.8283 317.798 62.935 318.239 63.1485C318.68 63.3619 319.022 63.6502 319.266 64.0134C319.513 64.3738 319.635 64.7785 319.632 65.2276C319.635 65.7044 319.487 66.1022 319.187 66.4211C318.89 66.7399 318.504 66.9422 318.027 67.0282V67.0947C318.653 67.1751 319.13 67.3927 319.457 67.7476C319.787 68.0996 319.951 68.5404 319.948 69.0699C319.951 69.555 319.811 69.9861 319.528 70.3631C319.248 70.7402 318.861 71.0368 318.368 71.253C317.874 71.4693 317.309 71.5774 316.671 71.5774ZM324.581 71.6481C323.866 71.6453 323.251 71.4693 322.735 71.12C322.222 70.7707 321.827 70.2647 321.55 69.6022C321.276 68.9396 321.14 68.1426 321.143 67.2111C321.143 66.2824 321.28 65.491 321.554 64.8367C321.831 64.1825 322.226 63.6849 322.739 63.3439C323.255 63.0001 323.869 62.8283 324.581 62.8283C325.294 62.8283 325.907 63.0001 326.419 63.3439C326.935 63.6876 327.332 64.1866 327.609 64.8409C327.886 65.4924 328.023 66.2824 328.02 67.2111C328.02 68.1454 327.882 68.9438 327.605 69.6063C327.33 70.2689 326.936 70.7748 326.424 71.1241C325.911 71.4734 325.297 71.6481 324.581 71.6481ZM324.581 70.1552C325.069 70.1552 325.459 69.9099 325.75 69.4192C326.041 68.9285 326.185 68.1925 326.182 67.2111C326.182 66.5652 326.116 66.0274 325.983 65.5977C325.853 65.168 325.667 64.845 325.426 64.6288C325.187 64.4126 324.906 64.3045 324.581 64.3045C324.096 64.3045 323.708 64.547 323.417 65.0322C323.126 65.5173 322.979 66.2436 322.976 67.2111C322.976 67.8654 323.042 68.4115 323.172 68.8495C323.305 69.2847 323.492 69.6119 323.733 69.8309C323.974 70.0471 324.257 70.1552 324.581 70.1552ZM331.849 70.1635V64.2754H333.338V70.1635H331.849ZM329.649 67.9638V66.4751H335.538V67.9638H329.649Z" fill="black"/>
<path d="M291.2 83.535C291.169 83.276 291.045 83.0749 290.827 82.9318C290.608 82.7886 290.341 82.7171 290.024 82.7171C289.792 82.7171 289.589 82.7545 289.416 82.8295C289.244 82.9045 289.109 83.0076 289.012 83.1388C288.916 83.27 288.869 83.4191 288.869 83.5861C288.869 83.7258 288.902 83.8459 288.968 83.9465C289.036 84.0453 289.123 84.128 289.229 84.1944C289.335 84.2592 289.445 84.3128 289.561 84.3554C289.677 84.3963 289.784 84.4296 289.881 84.4551L290.412 84.5983C290.549 84.634 290.7 84.6835 290.867 84.7465C291.036 84.8095 291.197 84.8956 291.35 85.0047C291.506 85.112 291.633 85.25 291.734 85.4187C291.834 85.5874 291.885 85.7944 291.885 86.0398C291.885 86.3227 291.811 86.5783 291.662 86.8066C291.516 87.0349 291.301 87.2164 291.018 87.351C290.737 87.4856 290.395 87.553 289.993 87.553C289.618 87.553 289.294 87.4925 289.019 87.3715C288.747 87.2505 288.532 87.0818 288.375 86.8654C288.22 86.649 288.133 86.3977 288.112 86.1114H288.766C288.783 86.309 288.85 86.4726 288.966 86.6021C289.083 86.7299 289.232 86.8254 289.411 86.8884C289.591 86.9497 289.785 86.9804 289.993 86.9804C290.235 86.9804 290.452 86.9412 290.645 86.8628C290.838 86.7828 290.99 86.672 291.103 86.5306C291.215 86.3874 291.271 86.2204 291.271 86.0296C291.271 85.8558 291.223 85.7144 291.126 85.6053C291.028 85.4963 290.901 85.4076 290.742 85.3395C290.584 85.2713 290.412 85.2117 290.228 85.1606L289.584 84.9765C289.175 84.859 288.852 84.6911 288.613 84.473C288.374 84.2549 288.255 83.9695 288.255 83.6168C288.255 83.3237 288.334 83.0681 288.493 82.85C288.653 82.6302 288.868 82.4598 289.137 82.3388C289.408 82.2161 289.71 82.1547 290.044 82.1547C290.382 82.1547 290.682 82.2152 290.944 82.3362C291.207 82.4555 291.414 82.6191 291.568 82.827C291.723 83.0349 291.805 83.2709 291.813 83.535H291.2ZM292.927 87.4609V82.2263H293.561V84.8232H293.622L295.974 82.2263H296.802L294.604 84.588L296.802 87.4609H296.035L294.215 85.0277L293.561 85.7638V87.4609H292.927ZM298.256 82.2263V87.4609H297.622V82.2263H298.256ZM299.527 87.4609V82.2263H300.161V86.8986H302.594V87.4609H299.527ZM303.576 87.4609V82.2263H304.21V86.8986H306.643V87.4609H303.576ZM307.624 87.4609V82.2263H310.784V82.7886H308.258V84.5574H310.62V85.1197H308.258V86.8986H310.824V87.4609H307.624ZM313.541 87.4609H311.926V82.2263H313.613C314.121 82.2263 314.555 82.3311 314.917 82.5407C315.278 82.7486 315.555 83.0476 315.747 83.4378C315.94 83.8264 316.036 84.2915 316.036 84.8334C316.036 85.3787 315.939 85.8481 315.745 86.2417C315.55 86.6337 315.268 86.9353 314.896 87.1466C314.525 87.3561 314.073 87.4609 313.541 87.4609ZM312.56 86.8986H313.501C313.933 86.8986 314.292 86.8151 314.577 86.6481C314.861 86.4811 315.073 86.2434 315.213 85.935C315.353 85.6266 315.423 85.2594 315.423 84.8334C315.423 84.4108 315.354 84.047 315.216 83.742C315.078 83.4353 314.871 83.2001 314.597 83.0366C314.323 82.8713 313.981 82.7886 313.572 82.7886H312.56V86.8986ZM319.124 87.4609V82.2263H322.283V82.7886H319.758V84.5574H322.119V85.1197H319.758V86.8986H322.324V87.4609H319.124ZM323.425 82.2263H324.182L325.961 86.5715H326.022L327.801 82.2263H328.558V87.4609H327.965V83.4839H327.914L326.278 87.4609H325.705L324.069 83.4839H324.018V87.4609H323.425V82.2263ZM329.829 87.4609V82.2263H331.597C332.008 82.2263 332.344 82.3004 332.604 82.4487C332.867 82.5952 333.061 82.7937 333.187 83.0442C333.313 83.2947 333.376 83.5742 333.376 83.8826C333.376 84.191 333.313 84.4713 333.187 84.7235C333.063 84.9757 332.87 85.1768 332.61 85.3267C332.349 85.475 332.015 85.5491 331.608 85.5491H330.34V84.9868H331.587C331.868 84.9868 332.094 84.9382 332.264 84.8411C332.435 84.7439 332.558 84.6127 332.635 84.4475C332.713 84.2805 332.753 84.0922 332.753 83.8826C332.753 83.673 332.713 83.4856 332.635 83.3203C332.558 83.155 332.434 83.0255 332.262 82.9318C332.09 82.8363 331.862 82.7886 331.577 82.7886H330.463V87.4609H329.829ZM334.397 87.4609V82.2263H335.031V86.8986H337.465V87.4609H334.397ZM342.659 84.8436C342.659 85.3957 342.559 85.8728 342.36 86.275C342.161 86.6771 341.887 86.9872 341.539 87.2053C341.192 87.4234 340.795 87.5325 340.348 87.5325C339.902 87.5325 339.505 87.4234 339.157 87.2053C338.81 86.9872 338.536 86.6771 338.337 86.275C338.137 85.8728 338.038 85.3957 338.038 84.8436C338.038 84.2915 338.137 83.8144 338.337 83.4123C338.536 83.0101 338.81 82.7 339.157 82.4819C339.505 82.2638 339.902 82.1547 340.348 82.1547C340.795 82.1547 341.192 82.2638 341.539 82.4819C341.887 82.7 342.161 83.0101 342.36 83.4123C342.559 83.8144 342.659 84.2915 342.659 84.8436ZM342.046 84.8436C342.046 84.3904 341.97 84.0078 341.818 83.696C341.668 83.3842 341.464 83.1482 341.207 82.988C340.952 82.8278 340.665 82.7477 340.348 82.7477C340.031 82.7477 339.744 82.8278 339.487 82.988C339.231 83.1482 339.028 83.3842 338.876 83.696C338.726 84.0078 338.651 84.3904 338.651 84.8436C338.651 85.2969 338.726 85.6794 338.876 85.9913C339.028 86.3031 339.231 86.5391 339.487 86.6993C339.744 86.8594 340.031 86.9395 340.348 86.9395C340.665 86.9395 340.952 86.8594 341.207 86.6993C341.464 86.5391 341.668 86.3031 341.818 85.9913C341.97 85.6794 342.046 85.2969 342.046 84.8436ZM343.029 82.2263H343.755L345.207 84.6698H345.268L346.72 82.2263H347.446L345.554 85.3037V87.4609H344.92V85.3037L343.029 82.2263ZM348.265 87.4609V82.2263H351.425V82.7886H348.899V84.5574H351.261V85.1197H348.899V86.8986H351.466V87.4609H348.265ZM352.567 87.4609V82.2263H355.726V82.7886H353.201V84.5574H355.563V85.1197H353.201V86.8986H355.767V87.4609H352.567ZM359.732 83.535C359.701 83.276 359.577 83.0749 359.358 82.9318C359.14 82.7886 358.873 82.7171 358.556 82.7171C358.324 82.7171 358.121 82.7545 357.947 82.8295C357.775 82.9045 357.641 83.0076 357.544 83.1388C357.448 83.27 357.401 83.4191 357.401 83.5861C357.401 83.7258 357.434 83.8459 357.5 83.9465C357.568 84.0453 357.655 84.128 357.761 84.1944C357.867 84.2592 357.977 84.3128 358.093 84.3554C358.209 84.3963 358.316 84.4296 358.413 84.4551L358.944 84.5983C359.081 84.634 359.232 84.6835 359.399 84.7465C359.568 84.8095 359.729 84.8956 359.882 85.0047C360.037 85.112 360.165 85.25 360.266 85.4187C360.366 85.5874 360.417 85.7944 360.417 86.0398C360.417 86.3227 360.342 86.5783 360.194 86.8066C360.048 87.0349 359.833 87.2164 359.55 87.351C359.269 87.4856 358.927 87.553 358.525 87.553C358.15 87.553 357.826 87.4925 357.551 87.3715C357.279 87.2505 357.064 87.0818 356.907 86.8654C356.752 86.649 356.664 86.3977 356.644 86.1114H357.298C357.315 86.309 357.382 86.4726 357.498 86.6021C357.615 86.7299 357.763 86.8254 357.942 86.8884C358.123 86.9497 358.317 86.9804 358.525 86.9804C358.767 86.9804 358.984 86.9412 359.177 86.8628C359.369 86.7828 359.522 86.672 359.634 86.5306C359.747 86.3874 359.803 86.2204 359.803 86.0296C359.803 85.8558 359.755 85.7144 359.657 85.6053C359.56 85.4963 359.433 85.4076 359.274 85.3395C359.116 85.2713 358.944 85.2117 358.76 85.1606L358.116 84.9765C357.707 84.859 357.383 84.6911 357.145 84.473C356.906 84.2549 356.787 83.9695 356.787 83.6168C356.787 83.3237 356.866 83.0681 357.025 82.85C357.185 82.6302 357.4 82.4598 357.669 82.3388C357.94 82.2161 358.242 82.1547 358.576 82.1547C358.914 82.1547 359.214 82.2152 359.476 82.3362C359.738 82.4555 359.946 82.6191 360.1 82.827C360.255 83.0349 360.336 83.2709 360.345 83.535H359.732Z" fill="black"/>
<rect x="422.346" y="10.875" width="43.7139" height="42.5465" rx="21.2733" fill="#00B1EF" fill-opacity="0.1"/>
<path d="M433.01 42.4814H455.393M434.732 21.8203V42.4814M446.784 21.8203V42.4814M453.671 26.9856V42.4814M438.175 26.1247H439.036M438.175 29.5682H439.036M438.175 33.0117H439.036M442.479 26.1247H443.34M442.479 29.5682H443.34M442.479 33.0117H443.34M438.175 42.4814V38.6074C438.175 37.8946 438.754 37.3161 439.466 37.3161H442.049C442.762 37.3161 443.34 37.8946 443.34 38.6074V42.4814M433.871 21.8203H447.645M446.784 26.9856H454.532M450.227 31.29H450.237V31.2992H450.227V31.29ZM450.227 34.7335H450.237V34.7427H450.227V34.7335ZM450.227 38.177H450.237V38.1862H450.227V38.177Z" stroke="#00B1EF" stroke-width="1.72176" stroke-linecap="round" stroke-linejoin="round"/>
<path d="M438.066 62.9838V71.5H436.266V64.6928H436.216L434.266 65.9154V64.3186L436.374 62.9838H438.066ZM440.091 71.5V70.2026L443.122 67.3957C443.38 67.1462 443.596 66.9217 443.771 66.7221C443.948 66.5225 444.083 66.327 444.174 66.1358C444.265 65.9417 444.311 65.7324 444.311 65.5079C444.311 65.2584 444.254 65.0435 444.141 64.8633C444.027 64.6804 443.872 64.5404 443.675 64.4433C443.478 64.3435 443.255 64.2936 443.006 64.2936C442.745 64.2936 442.518 64.3463 442.324 64.4516C442.13 64.557 441.98 64.7081 441.874 64.9049C441.769 65.1017 441.716 65.336 441.716 65.6077H440.007C440.007 65.0504 440.134 64.5667 440.386 64.1564C440.638 63.7461 440.992 63.4287 441.446 63.2041C441.901 62.9796 442.425 62.8673 443.018 62.8673C443.628 62.8673 444.159 62.9754 444.611 63.1917C445.065 63.4051 445.419 63.7018 445.671 64.0816C445.923 64.4613 446.049 64.8966 446.049 65.3873C446.049 65.7088 445.986 66.0263 445.858 66.3395C445.733 66.6528 445.51 67.0007 445.189 67.3833C444.867 67.7631 444.414 68.2191 443.829 68.7513L442.586 69.9697V70.028H446.162V71.5H440.091ZM450.011 70.2026V64.3144H451.5V70.2026H450.011ZM447.812 68.0029V66.5142H453.7V68.0029H447.812Z" fill="black"/>
<path d="M392.337 87.5V82.2654H395.496V82.8277H392.971V84.5964H395.333V85.1587H392.971V86.9377H395.537V87.5H392.337ZM396.945 82.2654L398.295 84.4431H398.336L399.685 82.2654H400.432L398.786 84.8827L400.432 87.5H399.685L398.336 85.3632H398.295L396.945 87.5H396.199L397.886 84.8827L396.199 82.2654H396.945ZM401.257 87.5V82.2654H403.025C403.436 82.2654 403.772 82.3395 404.032 82.4877C404.295 82.6343 404.489 82.8328 404.615 83.0833C404.741 83.3338 404.804 83.6132 404.804 83.9216C404.804 84.2301 404.741 84.5104 404.615 84.7626C404.491 85.0147 404.298 85.2158 404.038 85.3658C403.777 85.514 403.443 85.5881 403.036 85.5881H401.768V85.0258H403.015C403.296 85.0258 403.522 84.9773 403.693 84.8801C403.863 84.783 403.986 84.6518 404.063 84.4865C404.142 84.3195 404.181 84.1312 404.181 83.9216C404.181 83.7121 404.142 83.5246 404.063 83.3593C403.986 83.194 403.862 83.0645 403.69 82.9708C403.518 82.8754 403.29 82.8277 403.005 82.8277H401.891V87.5H401.257ZM405.825 87.5V82.2654H408.985V82.8277H406.459V84.5964H408.821V85.1587H406.459V86.9377H409.026V87.5H405.825ZM410.127 87.5V82.2654H411.896C412.305 82.2654 412.641 82.3352 412.903 82.475C413.165 82.613 413.36 82.803 413.486 83.0449C413.612 83.2869 413.675 83.5621 413.675 83.8705C413.675 84.1789 413.612 84.4524 413.486 84.691C413.36 84.9295 413.166 85.117 412.906 85.2533C412.645 85.3879 412.312 85.4552 411.906 85.4552H410.475V84.8827H411.886C412.165 84.8827 412.39 84.8418 412.56 84.76C412.733 84.6782 412.857 84.5623 412.934 84.4124C413.012 84.2607 413.051 84.0801 413.051 83.8705C413.051 83.6609 413.012 83.4778 412.934 83.321C412.855 83.1642 412.73 83.0432 412.558 82.958C412.386 82.8711 412.158 82.8277 411.875 82.8277H410.761V87.5H410.127ZM412.591 85.1485L413.879 87.5H413.143L411.875 85.1485H412.591ZM415.365 82.2654V87.5H414.731V82.2654H415.365ZM416.636 87.5V82.2654H419.795V82.8277H417.27V84.5964H419.632V85.1587H417.27V86.9377H419.836V87.5H416.636ZM425.089 82.2654V87.5H424.475L421.623 83.39H421.572V87.5H420.938V82.2654H421.551L424.414 86.3856H424.465V82.2654H425.089ZM430.569 83.9012H429.935C429.898 83.7189 429.832 83.5587 429.738 83.4207C429.646 83.2827 429.534 83.1668 429.401 83.0731C429.27 82.9776 429.124 82.9061 428.964 82.8584C428.804 82.8107 428.637 82.7868 428.463 82.7868C428.146 82.7868 427.859 82.8669 427.602 83.0271C427.346 83.1872 427.142 83.4232 426.991 83.7351C426.841 84.0469 426.766 84.4294 426.766 84.8827C426.766 85.3359 426.841 85.7185 426.991 86.0303C427.142 86.3421 427.346 86.5781 427.602 86.7383C427.859 86.8985 428.146 86.9786 428.463 86.9786C428.637 86.9786 428.804 86.9547 428.964 86.907C429.124 86.8593 429.27 86.7886 429.401 86.6949C429.534 86.5994 429.646 86.4827 429.738 86.3447C429.832 86.205 429.898 86.0448 429.935 85.8642H430.569C430.521 86.1317 430.435 86.3711 430.308 86.5824C430.182 86.7937 430.026 86.9735 429.838 87.1217C429.651 87.2683 429.44 87.3799 429.207 87.4565C428.975 87.5332 428.727 87.5716 428.463 87.5716C428.017 87.5716 427.62 87.4625 427.272 87.2444C426.924 87.0263 426.651 86.7162 426.452 86.314C426.252 85.9119 426.152 85.4348 426.152 84.8827C426.152 84.3306 426.252 83.8535 426.452 83.4513C426.651 83.0492 426.924 82.7391 427.272 82.521C427.62 82.3029 428.017 82.1938 428.463 82.1938C428.727 82.1938 428.975 82.2322 429.207 82.3088C429.44 82.3855 429.651 82.498 429.838 82.6462C430.026 82.7928 430.182 82.9717 430.308 83.183C430.435 83.3926 430.521 83.632 430.569 83.9012ZM431.593 87.5V82.2654H434.753V82.8277H432.227V84.5964H434.589V85.1587H432.227V86.9377H434.794V87.5H431.593ZM437.511 87.5H435.895V82.2654H437.582C438.09 82.2654 438.524 82.3702 438.886 82.5798C439.247 82.7876 439.524 83.0867 439.716 83.4769C439.909 83.8654 440.005 84.3306 440.005 84.8725C440.005 85.4177 439.908 85.8872 439.714 86.2808C439.52 86.6727 439.237 86.9743 438.865 87.1856C438.494 87.3952 438.042 87.5 437.511 87.5ZM436.529 86.9377H437.47C437.902 86.9377 438.261 86.8542 438.546 86.6872C438.83 86.5202 439.042 86.2825 439.182 85.9741C439.322 85.6657 439.392 85.2985 439.392 84.8725C439.392 84.4499 439.323 84.0861 439.185 83.7811C439.047 83.4744 438.84 83.2392 438.566 83.0756C438.292 82.9103 437.95 82.8277 437.541 82.8277H436.529V86.9377ZM447.509 84.8827C447.509 85.4348 447.41 85.9119 447.21 86.314C447.011 86.7162 446.738 87.0263 446.39 87.2444C446.042 87.4625 445.645 87.5716 445.199 87.5716C444.752 87.5716 444.355 87.4625 444.008 87.2444C443.66 87.0263 443.387 86.7162 443.187 86.314C442.988 85.9119 442.888 85.4348 442.888 84.8827C442.888 84.3306 442.988 83.8535 443.187 83.4513C443.387 83.0492 443.66 82.7391 444.008 82.521C444.355 82.3029 444.752 82.1938 445.199 82.1938C445.645 82.1938 446.042 82.3029 446.39 82.521C446.738 82.7391 447.011 83.0492 447.21 83.4513C447.41 83.8535 447.509 84.3306 447.509 84.8827ZM446.896 84.8827C446.896 84.4294 446.82 84.0469 446.669 83.7351C446.519 83.4232 446.315 83.1872 446.058 83.0271C445.802 82.8669 445.516 82.7868 445.199 82.7868C444.882 82.7868 444.595 82.8669 444.338 83.0271C444.082 83.1872 443.878 83.4232 443.727 83.7351C443.577 84.0469 443.502 84.4294 443.502 84.8827C443.502 85.3359 443.577 85.7185 443.727 86.0303C443.878 86.3421 444.082 86.5781 444.338 86.7383C444.595 86.8985 444.882 86.9786 445.199 86.9786C445.516 86.9786 445.802 86.8985 446.058 86.7383C446.315 86.5781 446.519 86.3421 446.669 86.0303C446.82 85.7185 446.896 85.3359 446.896 84.8827ZM448.575 87.5V82.2654H450.344C450.753 82.2654 451.089 82.3352 451.351 82.475C451.614 82.613 451.808 82.803 451.934 83.0449C452.06 83.2869 452.123 83.5621 452.123 83.8705C452.123 84.1789 452.06 84.4524 451.934 84.691C451.808 84.9295 451.614 85.117 451.354 85.2533C451.093 85.3879 450.76 85.4552 450.354 85.4552H448.923V84.8827H450.334C450.613 84.8827 450.838 84.8418 451.009 84.76C451.181 84.6782 451.305 84.5623 451.382 84.4124C451.46 84.2607 451.499 84.0801 451.499 83.8705C451.499 83.6609 451.46 83.4778 451.382 83.321C451.303 83.1642 451.178 83.0432 451.006 82.958C450.834 82.8711 450.606 82.8277 450.324 82.8277H449.209V87.5H448.575ZM451.039 85.1485L452.327 87.5H451.591L450.324 85.1485H451.039ZM456.758 83.9012C456.701 83.7291 456.627 83.5749 456.535 83.4386C456.445 83.3005 456.337 83.183 456.211 83.0858C456.086 82.9887 455.945 82.9146 455.786 82.8635C455.628 82.8124 455.454 82.7868 455.265 82.7868C454.955 82.7868 454.673 82.8669 454.419 83.0271C454.165 83.1872 453.963 83.4232 453.813 83.7351C453.663 84.0469 453.588 84.4294 453.588 84.8827C453.588 85.3359 453.664 85.7185 453.816 86.0303C453.967 86.3421 454.173 86.5781 454.432 86.7383C454.691 86.8985 454.982 86.9786 455.306 86.9786C455.606 86.9786 455.87 86.9147 456.098 86.7869C456.328 86.6574 456.507 86.4751 456.635 86.2399C456.764 86.0031 456.829 85.7245 456.829 85.4041L457.023 85.445H455.449V84.8827H457.443V85.445C457.443 85.8761 457.351 86.251 457.167 86.5696C456.984 86.8883 456.732 87.1353 456.41 87.3109C456.09 87.4847 455.722 87.5716 455.306 87.5716C454.842 87.5716 454.435 87.4625 454.084 87.2444C453.735 87.0263 453.462 86.7162 453.266 86.314C453.072 85.9119 452.975 85.4348 452.975 84.8827C452.975 84.4686 453.03 84.0963 453.141 83.7657C453.253 83.4335 453.412 83.1506 453.616 82.9172C453.821 82.6837 454.063 82.5048 454.342 82.3804C454.622 82.256 454.929 82.1938 455.265 82.1938C455.541 82.1938 455.798 82.2356 456.037 82.3191C456.277 82.4008 456.491 82.5176 456.678 82.6692C456.868 82.8192 457.025 82.9989 457.151 83.2085C457.277 83.4164 457.364 83.6473 457.412 83.9012H456.758ZM458.581 87.5H457.917L459.839 82.2654H460.493L462.415 87.5H461.751L460.186 83.0935H460.146L458.581 87.5ZM458.827 85.4552H461.505V86.0175H458.827V85.4552ZM467.381 82.2654V87.5H466.768L463.916 83.39H463.864V87.5H463.231V82.2654H463.844L466.707 86.3856H466.758V82.2654H467.381ZM469.284 82.2654V87.5H468.65V82.2654H469.284ZM470.381 87.5V87.0399L473.203 82.8277H470.35V82.2654H473.959V82.7255L471.137 86.9377H473.99V87.5H470.381ZM475.268 87.5H474.603L476.525 82.2654H477.18L479.102 87.5H478.437L476.873 83.0935H476.832L475.268 87.5ZM475.513 85.4552H478.192V86.0175H475.513V85.4552ZM480.551 82.2654V87.5H479.917V82.2654H480.551ZM481.536 82.8277V82.2654H485.462V82.8277H483.816V87.5H483.182V82.8277H481.536ZM490.639 84.8827C490.639 85.4348 490.539 85.9119 490.34 86.314C490.14 86.7162 489.867 87.0263 489.519 87.2444C489.172 87.4625 488.775 87.5716 488.328 87.5716C487.882 87.5716 487.485 87.4625 487.137 87.2444C486.79 87.0263 486.516 86.7162 486.317 86.314C486.117 85.9119 486.018 85.4348 486.018 84.8827C486.018 84.3306 486.117 83.8535 486.317 83.4513C486.516 83.0492 486.79 82.7391 487.137 82.521C487.485 82.3029 487.882 82.1938 488.328 82.1938C488.775 82.1938 489.172 82.3029 489.519 82.521C489.867 82.7391 490.14 83.0492 490.34 83.4513C490.539 83.8535 490.639 84.3306 490.639 84.8827ZM490.025 84.8827C490.025 84.4294 489.95 84.0469 489.798 83.7351C489.648 83.4232 489.444 83.1872 489.187 83.0271C488.931 82.8669 488.645 82.7868 488.328 82.7868C488.011 82.7868 487.724 82.8669 487.467 83.0271C487.211 83.1872 487.008 83.4232 486.856 83.7351C486.706 84.0469 486.631 84.4294 486.631 84.8827C486.631 85.3359 486.706 85.7185 486.856 86.0303C487.008 86.3421 487.211 86.5781 487.467 86.7383C487.724 86.8985 488.011 86.9786 488.328 86.9786C488.645 86.9786 488.931 86.8985 489.187 86.7383C489.444 86.5781 489.648 86.3421 489.798 86.0303C489.95 85.7185 490.025 85.3359 490.025 84.8827ZM495.856 82.2654V87.5H495.242L492.39 83.39H492.339V87.5H491.705V82.2654H492.318L495.181 86.3856H495.232V82.2654H495.856Z" fill="black"/>
<path d="M378.879 23.8789L378.879 76.3225" stroke="#8F8F8F" stroke-opacity="0.74" stroke-width="0.782739" stroke-linecap="round"/>
</g>
<defs>
<filter id="filter0_d_2008_110" x="0.000686169" y="0.000686169" width="519.756" height="100.756" filterUnits="userSpaceOnUse" color-interpolation-filters="sRGB">
<feFlood flood-opacity="0" result="BackgroundImageFix"/>
<feColorMatrix in="SourceAlpha" type="matrix" values="0 0 0 0 0 0 0 0 0 0 0 0 0 0 0 0 0 0 127 0" result="hardAlpha"/>
<feOffset/>
<feGaussianBlur stdDeviation="1.93911"/>
<feComposite in2="hardAlpha" operator="out"/>
<feColorMatrix type="matrix" values="0 0 0 0 0 0 0 0 0 0 0 0 0 0 0 0 0 0 0.25 0"/>
<feBlend mode="normal" in2="BackgroundImageFix" result="effect1_dropShadow_2008_110"/>
<feBlend mode="normal" in="SourceGraphic" in2="effect1_dropShadow_2008_110" result="shape"/>
</filter>
<clipPath id="clip0_2008_110">
<rect width="27.16" height="27.16" fill="white" transform="translate(180.123 18.5664)"/>
</clipPath>
<clipPath id="clip1_2008_110">
<rect width="27.5481" height="27.5481" fill="white" transform="translate(310.93 18.4141)"/>
</clipPath>
</defs>
</svg>
