<svg width="221" height="47" viewBox="0 0 221 47" fill="none" xmlns="http://www.w3.org/2000/svg">
<path d="M44.646 17.4001C43.2087 17.4001 41.8887 17.0628 40.686 16.3881C39.4833 15.7134 38.53 14.7821 37.826 13.5941C37.122 12.3914 36.77 11.0348 36.77 9.52409C36.77 8.02809 37.122 6.68609 37.826 5.49809C38.53 4.29543 39.4833 3.35676 40.686 2.68209C41.8887 2.00743 43.2087 1.67009 44.646 1.67009C46.098 1.67009 47.418 2.00743 48.606 2.68209C49.8087 3.35676 50.7547 4.29543 51.444 5.49809C52.148 6.68609 52.5 8.02809 52.5 9.52409C52.5 11.0348 52.148 12.3914 51.444 13.5941C50.7547 14.7821 49.8087 15.7134 48.606 16.3881C47.4033 17.0628 46.0833 17.4001 44.646 17.4001ZM44.646 14.6501C45.57 14.6501 46.384 14.4448 47.088 14.0341C47.792 13.6088 48.342 13.0074 48.738 12.2301C49.134 11.4528 49.332 10.5508 49.332 9.52409C49.332 8.49743 49.134 7.60276 48.738 6.84009C48.342 6.06276 47.792 5.46876 47.088 5.05809C46.384 4.64743 45.57 4.44209 44.646 4.44209C43.722 4.44209 42.9007 4.64743 42.182 5.05809C41.478 5.46876 40.928 6.06276 40.532 6.84009C40.136 7.60276 39.938 8.49743 39.938 9.52409C39.938 10.5508 40.136 11.4528 40.532 12.2301C40.928 13.0074 41.478 13.6088 42.182 14.0341C42.9007 14.4448 43.722 14.6501 44.646 14.6501ZM66.2974 5.05809V17.2461H63.1954V15.7061C62.7994 16.2341 62.2788 16.6521 61.6334 16.9601C61.0028 17.2534 60.3134 17.4001 59.5654 17.4001C58.6121 17.4001 57.7688 17.2021 57.0354 16.8061C56.3021 16.3954 55.7228 15.8014 55.2974 15.0241C54.8868 14.2321 54.6814 13.2934 54.6814 12.2081V5.05809H57.7614V11.7681C57.7614 12.7361 58.0034 13.4841 58.4874 14.0121C58.9714 14.5254 59.6314 14.7821 60.4674 14.7821C61.3181 14.7821 61.9854 14.5254 62.4694 14.0121C62.9534 13.4841 63.1954 12.7361 63.1954 11.7681V5.05809H66.2974ZM72.4164 6.95009C72.8124 6.30476 73.3257 5.79876 73.9564 5.43209C74.6017 5.06543 75.335 4.88209 76.1564 4.88209V8.11609H75.3424C74.3744 8.11609 73.641 8.34343 73.1424 8.79809C72.6584 9.25276 72.4164 10.0448 72.4164 11.1741V17.2461H69.3364V5.05809H72.4164V6.95009Z" fill="black"/>
<path d="M88.7751 17.4001C87.7044 17.4001 86.7364 17.2168 85.8711 16.8501C85.0204 16.4834 84.3457 15.9554 83.8471 15.2661C83.3484 14.5768 83.0917 13.7628 83.0771 12.8241H86.3771C86.4211 13.4548 86.6411 13.9534 87.0371 14.3201C87.4477 14.6868 88.0051 14.8701 88.7091 14.8701C89.4277 14.8701 89.9924 14.7014 90.4031 14.3641C90.8137 14.0121 91.0191 13.5574 91.0191 13.0001C91.0191 12.5454 90.8797 12.1714 90.6011 11.8781C90.3224 11.5848 89.9704 11.3574 89.5451 11.1961C89.1344 11.0201 88.5624 10.8294 87.8291 10.6241C86.8317 10.3308 86.0177 10.0448 85.3871 9.76609C84.7711 9.47276 84.2357 9.04009 83.7811 8.46809C83.3411 7.88143 83.1211 7.10409 83.1211 6.13609C83.1211 5.22676 83.3484 4.43476 83.8031 3.76009C84.2577 3.08543 84.8957 2.57209 85.7171 2.22009C86.5384 1.85343 87.4771 1.67009 88.5331 1.67009C90.1171 1.67009 91.4004 2.05876 92.3831 2.83609C93.3804 3.59876 93.9304 4.66943 94.0331 6.04809H90.6451C90.6157 5.52009 90.3884 5.08743 89.9631 4.75009C89.5524 4.39809 89.0024 4.22209 88.3131 4.22209C87.7117 4.22209 87.2277 4.37609 86.8611 4.68409C86.5091 4.99209 86.3331 5.43943 86.3331 6.02609C86.3331 6.43676 86.4651 6.78143 86.7291 7.06009C87.0077 7.32409 87.3451 7.54409 87.7411 7.72009C88.1517 7.88143 88.7237 8.07209 89.4571 8.29209C90.4544 8.58543 91.2684 8.87876 91.8991 9.17209C92.5297 9.46543 93.0724 9.90543 93.5271 10.4921C93.9817 11.0788 94.2091 11.8488 94.2091 12.8021C94.2091 13.6234 93.9964 14.3861 93.5711 15.0901C93.1457 15.7941 92.5224 16.3588 91.7011 16.7841C90.8797 17.1948 89.9044 17.4001 88.7751 17.4001ZM102.291 17.4441C101.118 17.4441 100.062 17.1874 99.1233 16.6741C98.1847 16.1461 97.444 15.4054 96.9013 14.4521C96.3733 13.4988 96.1093 12.3988 96.1093 11.1521C96.1093 9.90543 96.3807 8.80543 96.9233 7.85209C97.4807 6.89876 98.236 6.16543 99.1893 5.65209C100.143 5.12409 101.206 4.86009 102.379 4.86009C103.553 4.86009 104.616 5.12409 105.569 5.65209C106.523 6.16543 107.271 6.89876 107.813 7.85209C108.371 8.80543 108.649 9.90543 108.649 11.1521C108.649 12.3988 108.363 13.4988 107.791 14.4521C107.234 15.4054 106.471 16.1461 105.503 16.6741C104.55 17.1874 103.479 17.4441 102.291 17.4441ZM102.291 14.7601C102.849 14.7601 103.369 14.6281 103.853 14.3641C104.352 14.0854 104.748 13.6748 105.041 13.1321C105.335 12.5894 105.481 11.9294 105.481 11.1521C105.481 9.99343 105.173 9.10609 104.557 8.49009C103.956 7.85943 103.215 7.54409 102.335 7.54409C101.455 7.54409 100.715 7.85943 100.113 8.49009C99.5267 9.10609 99.2333 9.99343 99.2333 11.1521C99.2333 12.3108 99.5193 13.2054 100.091 13.8361C100.678 14.4521 101.411 14.7601 102.291 14.7601ZM113.989 0.966094V17.2461H110.909V0.966094H113.989ZM128.538 5.05809V17.2461H125.436V15.7061C125.04 16.2341 124.519 16.6521 123.874 16.9601C123.243 17.2534 122.554 17.4001 121.806 17.4001C120.852 17.4001 120.009 17.2021 119.276 16.8061C118.542 16.3954 117.963 15.8014 117.538 15.0241C117.127 14.2321 116.922 13.2934 116.922 12.2081V5.05809H120.002V11.7681C120.002 12.7361 120.244 13.4841 120.728 14.0121C121.212 14.5254 121.872 14.7821 122.708 14.7821C123.558 14.7821 124.226 14.5254 124.71 14.0121C125.194 13.4841 125.436 12.7361 125.436 11.7681V5.05809H128.538ZM135.163 7.58809V13.4841C135.163 13.8948 135.258 14.1954 135.449 14.3861C135.654 14.5621 135.991 14.6501 136.461 14.6501H137.891V17.2461H135.955C133.359 17.2461 132.061 15.9848 132.061 13.4621V7.58809H130.609V5.05809H132.061V2.04409H135.163V5.05809H137.891V7.58809H135.163ZM141.668 3.60609C141.125 3.60609 140.671 3.43743 140.304 3.10009C139.952 2.74809 139.776 2.31543 139.776 1.80209C139.776 1.28876 139.952 0.863426 140.304 0.526093C140.671 0.174093 141.125 -0.00190711 141.668 -0.00190711C142.211 -0.00190711 142.658 0.174093 143.01 0.526093C143.377 0.863426 143.56 1.28876 143.56 1.80209C143.56 2.31543 143.377 2.74809 143.01 3.10009C142.658 3.43743 142.211 3.60609 141.668 3.60609ZM143.186 5.05809V17.2461H140.106V5.05809H143.186ZM151.641 17.4441C150.468 17.4441 149.412 17.1874 148.473 16.6741C147.534 16.1461 146.794 15.4054 146.251 14.4521C145.723 13.4988 145.459 12.3988 145.459 11.1521C145.459 9.90543 145.73 8.80543 146.273 7.85209C146.83 6.89876 147.586 6.16543 148.539 5.65209C149.492 5.12409 150.556 4.86009 151.729 4.86009C152.902 4.86009 153.966 5.12409 154.919 5.65209C155.872 6.16543 156.62 6.89876 157.163 7.85209C157.72 8.80543 157.999 9.90543 157.999 11.1521C157.999 12.3988 157.713 13.4988 157.141 14.4521C156.584 15.4054 155.821 16.1461 154.853 16.6741C153.9 17.1874 152.829 17.4441 151.641 17.4441ZM151.641 14.7601C152.198 14.7601 152.719 14.6281 153.203 14.3641C153.702 14.0854 154.098 13.6748 154.391 13.1321C154.684 12.5894 154.831 11.9294 154.831 11.1521C154.831 9.99343 154.523 9.10609 153.907 8.49009C153.306 7.85943 152.565 7.54409 151.685 7.54409C150.805 7.54409 150.064 7.85943 149.463 8.49009C148.876 9.10609 148.583 9.99343 148.583 11.1521C148.583 12.3108 148.869 13.2054 149.441 13.8361C150.028 14.4521 150.761 14.7601 151.641 14.7601ZM167.012 4.88209C168.464 4.88209 169.638 5.34409 170.532 6.26809C171.427 7.17743 171.874 8.45343 171.874 10.0961V17.2461H168.794V10.5141C168.794 9.54609 168.552 8.80543 168.068 8.29209C167.584 7.76409 166.924 7.50009 166.088 7.50009C165.238 7.50009 164.563 7.76409 164.064 8.29209C163.58 8.80543 163.338 9.54609 163.338 10.5141V17.2461H160.258V5.05809H163.338V6.57609C163.749 6.04809 164.27 5.63743 164.9 5.34409C165.546 5.03609 166.25 4.88209 167.012 4.88209ZM179.467 17.4441C178.47 17.4441 177.575 17.2681 176.783 16.9161C175.991 16.5494 175.36 16.0581 174.891 15.4421C174.436 14.8261 174.187 14.1441 174.143 13.3961H177.245C177.304 13.8654 177.531 14.2541 177.927 14.5621C178.338 14.8701 178.844 15.0241 179.445 15.0241C180.032 15.0241 180.486 14.9068 180.809 14.6721C181.146 14.4374 181.315 14.1368 181.315 13.7701C181.315 13.3741 181.11 13.0808 180.699 12.8901C180.303 12.6848 179.665 12.4648 178.785 12.2301C177.876 12.0101 177.128 11.7828 176.541 11.5481C175.969 11.3134 175.47 10.9541 175.045 10.4701C174.634 9.98609 174.429 9.33343 174.429 8.51209C174.429 7.83743 174.62 7.22143 175.001 6.66409C175.397 6.10676 175.954 5.66676 176.673 5.34409C177.406 5.02143 178.264 4.86009 179.247 4.86009C180.699 4.86009 181.858 5.22676 182.723 5.96009C183.588 6.67876 184.065 7.65409 184.153 8.88609H181.205C181.161 8.40209 180.956 8.02076 180.589 7.74209C180.237 7.44876 179.76 7.30209 179.159 7.30209C178.602 7.30209 178.169 7.40476 177.861 7.61009C177.568 7.81543 177.421 8.10143 177.421 8.46809C177.421 8.87876 177.626 9.19409 178.037 9.41409C178.448 9.61943 179.086 9.83209 179.951 10.0521C180.831 10.2721 181.557 10.4994 182.129 10.7341C182.701 10.9688 183.192 11.3354 183.603 11.8341C184.028 12.3181 184.248 12.9634 184.263 13.7701C184.263 14.4741 184.065 15.1048 183.669 15.6621C183.288 16.2194 182.73 16.6594 181.997 16.9821C181.278 17.2901 180.435 17.4441 179.467 17.4441Z" fill="#00B1EF"/>
<path d="M6.90407 34.3448C6.8449 33.8452 6.60495 33.4573 6.18422 33.1812C5.76349 32.9051 5.24744 32.7671 4.63606 32.7671C4.18904 32.7671 3.79789 32.8394 3.46262 32.984C3.13064 33.1286 2.87097 33.3275 2.68361 33.5806C2.49954 33.8337 2.40751 34.1213 2.40751 34.4434C2.40751 34.713 2.4716 34.9447 2.59979 35.1386C2.73127 35.3293 2.89891 35.4887 3.1027 35.6169C3.30649 35.7418 3.52014 35.8453 3.74366 35.9275C3.96717 36.0064 4.1726 36.0705 4.35996 36.1198L5.38549 36.3959C5.64845 36.4649 5.94099 36.5602 6.26311 36.6818C6.58852 36.8035 6.89914 36.9695 7.19496 37.1798C7.49408 37.3869 7.7406 37.6531 7.93453 37.9785C8.12846 38.304 8.22543 38.7033 8.22543 39.1766C8.22543 39.7223 8.08244 40.2153 7.79648 40.6558C7.5138 41.0962 7.09964 41.4463 6.55401 41.706C6.01166 41.9656 5.35262 42.0955 4.5769 42.0955C3.85377 42.0955 3.2276 41.9788 2.6984 41.7454C2.17249 41.512 1.75833 41.1866 1.45593 40.7692C1.15682 40.3517 0.987539 39.8669 0.948096 39.3147H2.21029C2.24316 39.696 2.37135 40.0115 2.59486 40.2613C2.82166 40.5079 3.10763 40.6919 3.45276 40.8136C3.80118 40.9319 4.17589 40.991 4.5769 40.991C5.04365 40.991 5.46274 40.9154 5.83416 40.7642C6.20559 40.6098 6.49977 40.3961 6.71671 40.1233C6.93365 39.8472 7.04212 39.5251 7.04212 39.1569C7.04212 38.8217 6.94844 38.5488 6.76108 38.3385C6.57373 38.1281 6.32721 37.9572 6.02152 37.8257C5.71583 37.6942 5.38549 37.5792 5.0305 37.4806L3.78803 37.1256C2.99916 36.8988 2.37464 36.575 1.91446 36.1543C1.45429 35.7336 1.2242 35.183 1.2242 34.5026C1.2242 33.9372 1.37704 33.4442 1.68273 33.0235C1.99171 32.5994 2.40586 32.2707 2.9252 32.0374C3.44783 31.8007 4.03126 31.6824 4.67551 31.6824C5.32633 31.6824 5.90483 31.7991 6.41102 32.0324C6.91722 32.2625 7.31822 32.5781 7.61405 32.9791C7.91316 33.3801 8.07094 33.8353 8.08737 34.3448H6.90407ZM10.078 41.918V34.3448H11.2022V35.5281H11.3008C11.4586 35.1238 11.7133 34.8099 12.065 34.5864C12.4167 34.3596 12.8391 34.2462 13.3321 34.2462C13.8317 34.2462 14.2475 34.3596 14.5795 34.5864C14.9148 34.8099 15.1761 35.1238 15.3635 35.5281H15.4424C15.6363 35.137 15.9272 34.8264 16.315 34.5963C16.7029 34.3629 17.168 34.2462 17.7104 34.2462C18.3875 34.2462 18.9413 34.4582 19.3719 34.8822C19.8025 35.303 20.0178 35.9587 20.0178 36.8495V41.918H18.8542V36.8495C18.8542 36.2907 18.7014 35.8913 18.3957 35.6514C18.09 35.4114 17.7301 35.2915 17.3159 35.2915C16.7834 35.2915 16.3709 35.4525 16.0784 35.7746C15.7858 36.0935 15.6396 36.4978 15.6396 36.9875V41.918H14.4563V36.7311C14.4563 36.3006 14.3166 35.9538 14.0372 35.6908C13.7578 35.4246 13.3979 35.2915 12.9574 35.2915C12.655 35.2915 12.3723 35.372 12.1094 35.533C11.8497 35.6941 11.6393 35.9176 11.4783 36.2036C11.3205 36.4863 11.2416 36.8133 11.2416 37.1847V41.918H10.078ZM24.3738 42.0955C23.894 42.0955 23.4584 42.0051 23.0673 41.8243C22.6761 41.6402 22.3655 41.3756 22.1354 41.0305C21.9053 40.6821 21.7903 40.2613 21.7903 39.7683C21.7903 39.3344 21.8758 38.9827 22.0467 38.7132C22.2176 38.4404 22.446 38.2267 22.732 38.0722C23.018 37.9177 23.3335 37.8027 23.6787 37.7271C24.0271 37.6482 24.3771 37.5858 24.7288 37.5397C25.189 37.4806 25.5621 37.4362 25.8481 37.4066C26.1373 37.3737 26.3477 37.3195 26.4791 37.2439C26.6139 37.1683 26.6813 37.0368 26.6813 36.8495V36.81C26.6813 36.3236 26.5482 35.9456 26.2819 35.676C26.019 35.4065 25.6196 35.2717 25.0838 35.2717C24.5283 35.2717 24.0928 35.3934 23.7773 35.6366C23.4617 35.8798 23.2398 36.1395 23.1117 36.4156L22.0072 36.0212C22.2045 35.561 22.4674 35.2027 22.7961 34.9463C23.1281 34.6867 23.4897 34.5059 23.8808 34.404C24.2752 34.2988 24.6631 34.2462 25.0444 34.2462C25.2876 34.2462 25.567 34.2758 25.8826 34.335C26.2014 34.3908 26.5087 34.5075 26.8046 34.685C27.1037 34.8625 27.3518 35.1304 27.5491 35.4887C27.7463 35.847 27.8449 36.3269 27.8449 36.9284V41.918H26.6813V40.8924H26.6221C26.5432 41.0568 26.4118 41.2326 26.2277 41.42C26.0436 41.6074 25.7987 41.7668 25.4931 41.8982C25.1874 42.0297 24.8143 42.0955 24.3738 42.0955ZM24.5513 41.0502C25.0115 41.0502 25.3994 40.9598 25.7149 40.779C26.0338 40.5983 26.2737 40.3649 26.4348 40.0789C26.5991 39.7929 26.6813 39.4922 26.6813 39.1766V38.1117C26.632 38.1708 26.5235 38.2251 26.3559 38.2744C26.1915 38.3204 26.0009 38.3615 25.784 38.3976C25.5703 38.4305 25.3616 38.4601 25.1578 38.4864C24.9573 38.5094 24.7946 38.5291 24.6697 38.5455C24.3673 38.585 24.0846 38.6491 23.8216 38.7378C23.562 38.8233 23.3516 38.9531 23.1905 39.1273C23.0328 39.2983 22.9539 39.5316 22.9539 39.8275C22.9539 40.2318 23.1034 40.5374 23.4026 40.7445C23.705 40.9483 24.0879 41.0502 24.5513 41.0502ZM29.9687 41.918V34.3448H31.0928V35.4887H31.1717C31.3097 35.114 31.5596 34.8099 31.9211 34.5765C32.2827 34.3432 32.6903 34.2265 33.1439 34.2265C33.2293 34.2265 33.3362 34.2281 33.4643 34.2314C33.5925 34.2347 33.6895 34.2396 33.7552 34.2462V35.4295C33.7158 35.4196 33.6254 35.4049 33.4841 35.3851C33.346 35.3621 33.1997 35.3506 33.0453 35.3506C32.6771 35.3506 32.3484 35.4279 32.0592 35.5824C31.7732 35.7336 31.5464 35.9439 31.3788 36.2134C31.2144 36.4797 31.1322 36.7837 31.1322 37.1256V41.918H29.9687ZM38.9026 34.3448V35.3309H34.978V34.3448H38.9026ZM36.1219 32.5304H37.2854V39.7486C37.2854 40.0773 37.3331 40.3238 37.4284 40.4881C37.527 40.6492 37.6519 40.7577 37.8031 40.8136C37.9576 40.8661 38.1203 40.8924 38.2912 40.8924C38.4194 40.8924 38.5246 40.8859 38.6068 40.8727C38.689 40.8563 38.7547 40.8431 38.804 40.8333L39.0407 41.8785C38.9618 41.9081 38.8517 41.9377 38.7103 41.9673C38.569 42.0001 38.3899 42.0166 38.1729 42.0166C37.8442 42.0166 37.5221 41.9459 37.2066 41.8046C36.8943 41.6632 36.6346 41.4479 36.4275 41.1587C36.2237 40.8694 36.1219 40.5046 36.1219 40.0641V32.5304ZM50.2377 34.3448C50.1785 33.8452 49.9386 33.4573 49.5179 33.1812C49.0971 32.9051 48.5811 32.7671 47.9697 32.7671C47.5227 32.7671 47.1315 32.8394 46.7963 32.984C46.4643 33.1286 46.2046 33.3275 46.0172 33.5806C45.8332 33.8337 45.7411 34.1213 45.7411 34.4434C45.7411 34.713 45.8052 34.9447 45.9334 35.1386C46.0649 35.3293 46.2325 35.4887 46.4363 35.6169C46.6401 35.7418 46.8538 35.8453 47.0773 35.9275C47.3008 36.0064 47.5062 36.0705 47.6936 36.1198L48.7191 36.3959C48.9821 36.4649 49.2746 36.5602 49.5967 36.6818C49.9222 36.8035 50.2328 36.9695 50.5286 37.1798C50.8277 37.3869 51.0742 37.6531 51.2682 37.9785C51.4621 38.304 51.5591 38.7033 51.5591 39.1766C51.5591 39.7223 51.4161 40.2153 51.1301 40.6558C50.8474 41.0962 50.4333 41.4463 49.8876 41.706C49.3453 41.9656 48.6863 42.0955 47.9105 42.0955C47.1874 42.0955 46.5612 41.9788 46.032 41.7454C45.5061 41.512 45.092 41.1866 44.7896 40.7692C44.4905 40.3517 44.3212 39.8669 44.2817 39.3147H45.5439C45.5768 39.696 45.705 40.0115 45.9285 40.2613C46.1553 40.5079 46.4413 40.6919 46.7864 40.8136C47.1348 40.9319 47.5095 40.991 47.9105 40.991C48.3773 40.991 48.7964 40.9154 49.1678 40.7642C49.5392 40.6098 49.8334 40.3961 50.0503 40.1233C50.2673 39.8472 50.3758 39.5251 50.3758 39.1569C50.3758 38.8217 50.2821 38.5488 50.0947 38.3385C49.9074 38.1281 49.6608 37.9572 49.3552 37.8257C49.0495 37.6942 48.7191 37.5792 48.3641 37.4806L47.1217 37.1256C46.3328 36.8988 45.7083 36.575 45.2481 36.1543C44.7879 35.7336 44.5578 35.183 44.5578 34.5026C44.5578 33.9372 44.7107 33.4442 45.0164 33.0235C45.3253 32.5994 45.7395 32.2707 46.2588 32.0374C46.7815 31.8007 47.3649 31.6824 48.0091 31.6824C48.66 31.6824 49.2385 31.7991 49.7447 32.0324C50.2508 32.2625 50.6519 32.5781 50.9477 32.9791C51.2468 33.3801 51.4046 33.8353 51.421 34.3448H50.2377ZM56.4883 42.0757C55.8046 42.0757 55.2047 41.913 54.6887 41.5876C54.1759 41.2622 53.7749 40.807 53.4856 40.2219C53.1997 39.6368 53.0567 38.9531 53.0567 38.1708C53.0567 37.382 53.1997 36.6933 53.4856 36.105C53.7749 35.5166 54.1759 35.0597 54.6887 34.7343C55.2047 34.4089 55.8046 34.2462 56.4883 34.2462C57.172 34.2462 57.7702 34.4089 58.2829 34.7343C58.799 35.0597 59.2 35.5166 59.486 36.105C59.7752 36.6933 59.9199 37.382 59.9199 38.1708C59.9199 38.9531 59.7752 39.6368 59.486 40.2219C59.2 40.807 58.799 41.2622 58.2829 41.5876C57.7702 41.913 57.172 42.0757 56.4883 42.0757ZM56.4883 41.0305C57.0076 41.0305 57.4349 40.8974 57.7702 40.6311C58.1054 40.3649 58.3536 40.0148 58.5147 39.5809C58.6757 39.1471 58.7563 38.677 58.7563 38.1708C58.7563 37.6646 58.6757 37.193 58.5147 36.7558C58.3536 36.3186 58.1054 35.9653 57.7702 35.6958C57.4349 35.4262 57.0076 35.2915 56.4883 35.2915C55.9689 35.2915 55.5416 35.4262 55.2064 35.6958C54.8711 35.9653 54.6229 36.3186 54.4619 36.7558C54.3008 37.193 54.2203 37.6646 54.2203 38.1708C54.2203 38.677 54.3008 39.1471 54.4619 39.5809C54.6229 40.0148 54.8711 40.3649 55.2064 40.6311C55.5416 40.8974 55.9689 41.0305 56.4883 41.0305ZM62.8596 31.8204V41.918H61.696V31.8204H62.8596ZM69.7635 38.8217V34.3448H70.9271V41.918H69.7635V40.6361H69.6846C69.5071 41.0206 69.231 41.3477 68.8563 41.6172C68.4816 41.8835 68.0082 42.0166 67.4363 42.0166C66.963 42.0166 66.5423 41.913 66.1741 41.706C65.806 41.4956 65.5167 41.18 65.3064 40.7593C65.096 40.3353 64.9908 39.8012 64.9908 39.1569V34.3448H66.1544V39.078C66.1544 39.6302 66.3089 40.0707 66.6179 40.3994C66.9301 40.7281 67.3278 40.8924 67.811 40.8924C68.1003 40.8924 68.3945 40.8185 68.6936 40.6706C68.996 40.5227 69.2491 40.2959 69.4529 39.9902C69.6599 39.6845 69.7635 39.295 69.7635 38.8217ZM76.3518 34.3448V35.3309H72.4271V34.3448H76.3518ZM73.571 32.5304H74.7346V39.7486C74.7346 40.0773 74.7822 40.3238 74.8776 40.4881C74.9762 40.6492 75.1011 40.7577 75.2523 40.8136C75.4068 40.8661 75.5695 40.8924 75.7404 40.8924C75.8686 40.8924 75.9738 40.8859 76.0559 40.8727C76.1381 40.8563 76.2039 40.8431 76.2532 40.8333L76.4898 41.8785C76.4109 41.9081 76.3008 41.9377 76.1595 41.9673C76.0181 42.0001 75.839 42.0166 75.6221 42.0166C75.2934 42.0166 74.9712 41.9459 74.6557 41.8046C74.3434 41.6632 74.0838 41.4479 73.8767 41.1587C73.6729 40.8694 73.571 40.5046 73.571 40.0641V32.5304ZM78.1021 41.918V34.3448H79.2657V41.918H78.1021ZM78.6937 33.0826C78.4669 33.0826 78.2714 33.0054 78.107 32.8509C77.946 32.6964 77.8654 32.5107 77.8654 32.2938C77.8654 32.0768 77.946 31.8911 78.107 31.7366C78.2714 31.5821 78.4669 31.5049 78.6937 31.5049C78.9205 31.5049 79.1145 31.5821 79.2755 31.7366C79.4399 31.8911 79.5221 32.0768 79.5221 32.2938C79.5221 32.5107 79.4399 32.6964 79.2755 32.8509C79.1145 33.0054 78.9205 33.0826 78.6937 33.0826ZM84.4734 42.0757C83.7898 42.0757 83.1899 41.913 82.6738 41.5876C82.1611 41.2622 81.7601 40.807 81.4708 40.2219C81.1848 39.6368 81.0419 38.9531 81.0419 38.1708C81.0419 37.382 81.1848 36.6933 81.4708 36.105C81.7601 35.5166 82.1611 35.0597 82.6738 34.7343C83.1899 34.4089 83.7898 34.2462 84.4734 34.2462C85.1571 34.2462 85.7554 34.4089 86.2681 34.7343C86.7842 35.0597 87.1852 35.5166 87.4711 36.105C87.7604 36.6933 87.905 37.382 87.905 38.1708C87.905 38.9531 87.7604 39.6368 87.4711 40.2219C87.1852 40.807 86.7842 41.2622 86.2681 41.5876C85.7554 41.913 85.1571 42.0757 84.4734 42.0757ZM84.4734 41.0305C84.9928 41.0305 85.4201 40.8974 85.7554 40.6311C86.0906 40.3649 86.3388 40.0148 86.4999 39.5809C86.6609 39.1471 86.7414 38.677 86.7414 38.1708C86.7414 37.6646 86.6609 37.193 86.4999 36.7558C86.3388 36.3186 86.0906 35.9653 85.7554 35.6958C85.4201 35.4262 84.9928 35.2915 84.4734 35.2915C83.9541 35.2915 83.5268 35.4262 83.1915 35.6958C82.8563 35.9653 82.6081 36.3186 82.447 36.7558C82.286 37.193 82.2054 37.6646 82.2054 38.1708C82.2054 38.677 82.286 39.1471 82.447 39.5809C82.6081 40.0148 82.8563 40.3649 83.1915 40.6311C83.5268 40.8974 83.9541 41.0305 84.4734 41.0305ZM90.8448 37.3622V41.918H89.6812V34.3448H90.8054V35.5281H90.904C91.0815 35.1435 91.351 34.8346 91.7126 34.6012C92.0741 34.3645 92.5409 34.2462 93.1128 34.2462C93.6256 34.2462 94.0742 34.3514 94.4588 34.5618C94.8434 34.7688 95.1425 35.0844 95.3562 35.5084C95.5698 35.9291 95.6766 36.4616 95.6766 37.1059V41.918H94.513V37.1847C94.513 36.5898 94.3586 36.1263 94.0496 35.7944C93.7406 35.4591 93.3166 35.2915 92.7775 35.2915C92.4061 35.2915 92.0741 35.372 91.7816 35.533C91.4923 35.6941 91.2639 35.9291 91.0963 36.2381C90.9286 36.5471 90.8448 36.9218 90.8448 37.3622ZM103.167 36.0409L102.122 36.3367C102.056 36.1625 101.959 35.9932 101.831 35.8289C101.706 35.6612 101.535 35.5232 101.318 35.4147C101.101 35.3062 100.824 35.252 100.485 35.252C100.022 35.252 99.6354 35.3588 99.3264 35.5725C99.0207 35.7829 98.8679 36.0507 98.8679 36.3762C98.8679 36.6654 98.973 36.8939 99.1834 37.0615C99.3938 37.2291 99.7225 37.3688 100.169 37.4806L101.294 37.7567C101.971 37.921 102.475 38.1725 102.807 38.511C103.139 38.8463 103.305 39.2785 103.305 39.8077C103.305 40.2416 103.18 40.6295 102.931 40.9713C102.684 41.3132 102.339 41.5827 101.895 41.7799C101.451 41.9771 100.935 42.0757 100.347 42.0757C99.5746 42.0757 98.9352 41.9081 98.429 41.5728C97.9229 41.2376 97.6024 40.7478 97.4676 40.1036L98.572 39.8275C98.6772 40.235 98.8761 40.5407 99.1686 40.7445C99.4644 40.9483 99.8507 41.0502 100.327 41.0502C100.87 41.0502 101.3 40.9352 101.619 40.7051C101.941 40.4717 102.102 40.1923 102.102 39.8669C102.102 39.6039 102.01 39.3837 101.826 39.2062C101.642 39.0254 101.359 38.8907 100.978 38.8019L99.7159 38.5061C99.0223 38.3418 98.5129 38.087 98.1875 37.7419C97.8653 37.3935 97.7043 36.9579 97.7043 36.4353C97.7043 36.008 97.8242 35.63 98.0642 35.3013C98.3074 34.9726 98.6378 34.7146 99.0552 34.5272C99.4759 34.3399 99.9526 34.2462 100.485 34.2462C101.234 34.2462 101.823 34.4106 102.25 34.7392C102.681 35.0679 102.986 35.5018 103.167 36.0409ZM105.905 41.9969C105.662 41.9969 105.453 41.9098 105.279 41.7355C105.104 41.5613 105.017 41.3526 105.017 41.1094C105.017 40.8661 105.104 40.6574 105.279 40.4832C105.453 40.309 105.662 40.2219 105.905 40.2219C106.148 40.2219 106.357 40.309 106.531 40.4832C106.705 40.6574 106.792 40.8661 106.792 41.1094C106.792 41.2704 106.751 41.4184 106.669 41.5531C106.59 41.6879 106.483 41.7964 106.349 41.8785C106.217 41.9574 106.069 41.9969 105.905 41.9969ZM118.465 34.3448C118.406 33.8452 118.166 33.4573 117.745 33.1812C117.325 32.9051 116.808 32.7671 116.197 32.7671C115.75 32.7671 115.359 32.8394 115.024 32.984C114.692 33.1286 114.432 33.3275 114.245 33.5806C114.061 33.8337 113.969 34.1213 113.969 34.4434C113.969 34.713 114.033 34.9447 114.161 35.1386C114.292 35.3293 114.46 35.4887 114.664 35.6169C114.868 35.7418 115.081 35.8453 115.305 35.9275C115.528 36.0064 115.734 36.0705 115.921 36.1198L116.947 36.3959C117.21 36.4649 117.502 36.5602 117.824 36.6818C118.15 36.8035 118.46 36.9695 118.756 37.1798C119.055 37.3869 119.302 37.6531 119.496 37.9785C119.69 38.304 119.786 38.7033 119.786 39.1766C119.786 39.7223 119.644 40.2153 119.358 40.6558C119.075 41.0962 118.661 41.4463 118.115 41.706C117.573 41.9656 116.914 42.0955 116.138 42.0955C115.415 42.0955 114.789 41.9788 114.259 41.7454C113.734 41.512 113.319 41.1866 113.017 40.7692C112.718 40.3517 112.549 39.8669 112.509 39.3147H113.771C113.804 39.696 113.932 40.0115 114.156 40.2613C114.383 40.5079 114.669 40.6919 115.014 40.8136C115.362 40.9319 115.737 40.991 116.138 40.991C116.605 40.991 117.024 40.9154 117.395 40.7642C117.767 40.6098 118.061 40.3961 118.278 40.1233C118.495 39.8472 118.603 39.5251 118.603 39.1569C118.603 38.8217 118.509 38.5488 118.322 38.3385C118.135 38.1281 117.888 37.9572 117.583 37.8257C117.277 37.6942 116.947 37.5792 116.592 37.4806L115.349 37.1256C114.56 36.8988 113.936 36.575 113.476 36.1543C113.015 35.7336 112.785 35.183 112.785 34.5026C112.785 33.9372 112.938 33.4442 113.244 33.0235C113.553 32.5994 113.967 32.2707 114.486 32.0374C115.009 31.8007 115.592 31.6824 116.237 31.6824C116.887 31.6824 117.466 31.7991 117.972 32.0324C118.478 32.2625 118.879 32.5781 119.175 32.9791C119.474 33.3801 119.632 33.8353 119.648 34.3448H118.465ZM124.933 34.3448V35.3309H121.008V34.3448H124.933ZM122.152 32.5304H123.315V39.7486C123.315 40.0773 123.363 40.3238 123.458 40.4881C123.557 40.6492 123.682 40.7577 123.833 40.8136C123.988 40.8661 124.15 40.8924 124.321 40.8924C124.449 40.8924 124.555 40.8859 124.637 40.8727C124.719 40.8563 124.785 40.8431 124.834 40.8333L125.071 41.8785C124.992 41.9081 124.882 41.9377 124.74 41.9673C124.599 42.0001 124.42 42.0166 124.203 42.0166C123.874 42.0166 123.552 41.9459 123.237 41.8046C122.924 41.6632 122.665 41.4479 122.458 41.1587C122.254 40.8694 122.152 40.5046 122.152 40.0641V32.5304ZM126.683 41.918V34.3448H127.807V35.4887H127.886C128.024 35.114 128.274 34.8099 128.635 34.5765C128.997 34.3432 129.405 34.2265 129.858 34.2265C129.944 34.2265 130.05 34.2281 130.179 34.2314C130.307 34.2347 130.404 34.2396 130.47 34.2462V35.4295C130.43 35.4196 130.34 35.4049 130.198 35.3851C130.06 35.3621 129.914 35.3506 129.76 35.3506C129.391 35.3506 129.063 35.4279 128.773 35.5824C128.487 35.7336 128.261 35.9439 128.093 36.2134C127.929 36.4797 127.847 36.7837 127.847 37.1256V41.918H126.683ZM134.695 42.0757C134.011 42.0757 133.411 41.913 132.895 41.5876C132.383 41.2622 131.982 40.807 131.692 40.2219C131.406 39.6368 131.263 38.9531 131.263 38.1708C131.263 37.382 131.406 36.6933 131.692 36.105C131.982 35.5166 132.383 35.0597 132.895 34.7343C133.411 34.4089 134.011 34.2462 134.695 34.2462C135.379 34.2462 135.977 34.4089 136.49 34.7343C137.006 35.0597 137.407 35.5166 137.693 36.105C137.982 36.6933 138.126 37.382 138.126 38.1708C138.126 38.9531 137.982 39.6368 137.693 40.2219C137.407 40.807 137.006 41.2622 136.49 41.5876C135.977 41.913 135.379 42.0757 134.695 42.0757ZM134.695 41.0305C135.214 41.0305 135.642 40.8974 135.977 40.6311C136.312 40.3649 136.56 40.0148 136.721 39.5809C136.882 39.1471 136.963 38.677 136.963 38.1708C136.963 37.6646 136.882 37.193 136.721 36.7558C136.56 36.3186 136.312 35.9653 135.977 35.6958C135.642 35.4262 135.214 35.2915 134.695 35.2915C134.176 35.2915 133.748 35.4262 133.413 35.6958C133.078 35.9653 132.83 36.3186 132.668 36.7558C132.507 37.193 132.427 37.6646 132.427 38.1708C132.427 38.677 132.507 39.1471 132.668 39.5809C132.83 40.0148 133.078 40.3649 133.413 40.6311C133.748 40.8974 134.176 41.0305 134.695 41.0305ZM141.066 37.3622V41.918H139.903V34.3448H141.027V35.5281H141.125C141.303 35.1435 141.572 34.8346 141.934 34.6012C142.296 34.3645 142.762 34.2462 143.334 34.2462C143.847 34.2462 144.296 34.3514 144.68 34.5618C145.065 34.7688 145.364 35.0844 145.578 35.5084C145.791 35.9291 145.898 36.4616 145.898 37.1059V41.918H144.735V37.1847C144.735 36.5898 144.58 36.1263 144.271 35.7944C143.962 35.4591 143.538 35.2915 142.999 35.2915C142.628 35.2915 142.296 35.372 142.003 35.533C141.714 35.6941 141.485 35.9291 141.318 36.2381C141.15 36.5471 141.066 36.9218 141.066 37.3622ZM151.081 44.9157C150.519 44.9157 150.036 44.8434 149.632 44.6987C149.227 44.5574 148.89 44.37 148.621 44.1367C148.355 43.9066 148.143 43.6601 147.985 43.3971L148.912 42.7463C149.017 42.8843 149.15 43.0421 149.311 43.2196C149.472 43.4004 149.692 43.5565 149.972 43.688C150.255 43.8228 150.624 43.8901 151.081 43.8901C151.693 43.8901 152.197 43.7422 152.595 43.4464C152.993 43.1506 153.191 42.6871 153.191 42.056V40.5177H153.093C153.007 40.6558 152.886 40.8267 152.728 41.0305C152.573 41.231 152.35 41.4101 152.057 41.5679C151.768 41.7224 151.377 41.7996 150.884 41.7996C150.273 41.7996 149.724 41.655 149.237 41.3658C148.754 41.0765 148.371 40.6558 148.088 40.1036C147.809 39.5514 147.669 38.8808 147.669 38.0919C147.669 37.3162 147.806 36.6408 148.079 36.0655C148.351 35.487 148.731 35.04 149.218 34.7245C149.704 34.4056 150.266 34.2462 150.904 34.2462C151.397 34.2462 151.788 34.3284 152.077 34.4927C152.37 34.6538 152.593 34.8379 152.748 35.0449C152.905 35.2487 153.027 35.4164 153.113 35.5478H153.231V34.3448H154.355V42.1349C154.355 42.7857 154.207 43.3149 153.911 43.7225C153.619 44.1334 153.224 44.4341 152.728 44.6248C152.235 44.8187 151.686 44.9157 151.081 44.9157ZM151.042 40.7544C151.509 40.7544 151.903 40.6476 152.225 40.4339C152.547 40.2203 152.792 39.9129 152.96 39.5119C153.127 39.1109 153.211 38.631 153.211 38.0722C153.211 37.5266 153.129 37.0451 152.965 36.6276C152.8 36.2102 152.557 35.8831 152.235 35.6464C151.913 35.4098 151.515 35.2915 151.042 35.2915C150.549 35.2915 150.138 35.4164 149.809 35.6662C149.484 35.916 149.239 36.2512 149.075 36.672C148.913 37.0927 148.833 37.5595 148.833 38.0722C148.833 38.5981 148.915 39.0632 149.079 39.4675C149.247 39.8685 149.494 40.1841 149.819 40.4142C150.148 40.641 150.555 40.7544 151.042 40.7544ZM159.66 42.0757C158.93 42.0757 158.301 41.9147 157.772 41.5926C157.246 41.2672 156.84 40.8136 156.554 40.2318C156.271 39.6467 156.13 38.9663 156.13 38.1906C156.13 37.4148 156.271 36.7311 156.554 36.1395C156.84 35.5446 157.238 35.0811 157.747 34.7491C158.26 34.4138 158.858 34.2462 159.542 34.2462C159.936 34.2462 160.326 34.3119 160.71 34.4434C161.095 34.5749 161.445 34.7886 161.761 35.0844C162.076 35.3769 162.328 35.7648 162.515 36.248C162.702 36.7311 162.796 37.3261 162.796 38.0328V38.5258H156.958V37.52H161.613C161.613 37.0927 161.527 36.7114 161.356 36.3762C161.189 36.0409 160.949 35.7763 160.636 35.5824C160.327 35.3884 159.963 35.2915 159.542 35.2915C159.078 35.2915 158.677 35.4065 158.339 35.6366C158.004 35.8634 157.746 36.1592 157.565 36.5241C157.384 36.8889 157.294 37.2801 157.294 37.6975V38.3681C157.294 38.94 157.392 39.4248 157.589 39.8225C157.79 40.217 158.068 40.5177 158.423 40.7248C158.778 40.9286 159.19 41.0305 159.66 41.0305C159.966 41.0305 160.242 40.9878 160.488 40.9023C160.738 40.8136 160.954 40.6821 161.134 40.5079C161.315 40.3304 161.455 40.1101 161.553 39.8472L162.678 40.1627C162.559 40.544 162.36 40.8793 162.081 41.1685C161.802 41.4545 161.456 41.678 161.046 41.8391C160.635 41.9969 160.173 42.0757 159.66 42.0757ZM164.566 41.918V34.3448H165.69V35.4887H165.769C165.907 35.114 166.157 34.8099 166.518 34.5765C166.88 34.3432 167.288 34.2265 167.741 34.2265C167.827 34.2265 167.933 34.2281 168.062 34.2314C168.19 34.2347 168.287 34.2396 168.353 34.2462V35.4295C168.313 35.4196 168.223 35.4049 168.081 35.3851C167.943 35.3621 167.797 35.3506 167.643 35.3506C167.274 35.3506 166.946 35.4279 166.656 35.5824C166.371 35.7336 166.144 35.9439 165.976 36.2134C165.812 36.4797 165.73 36.7837 165.73 37.1256V41.918H164.566ZM173.637 41.918V34.3448H174.8V41.918H173.637ZM174.228 33.0826C174.002 33.0826 173.806 33.0054 173.642 32.8509C173.481 32.6964 173.4 32.5107 173.4 32.2938C173.4 32.0768 173.481 31.8911 173.642 31.7366C173.806 31.5821 174.002 31.5049 174.228 31.5049C174.455 31.5049 174.649 31.5821 174.81 31.7366C174.975 31.8911 175.057 32.0768 175.057 32.2938C175.057 32.5107 174.975 32.6964 174.81 32.8509C174.649 33.0054 174.455 33.0826 174.228 33.0826ZM176.932 41.918V34.3448H178.056V35.5281H178.154C178.312 35.1238 178.567 34.8099 178.918 34.5864C179.27 34.3596 179.693 34.2462 180.186 34.2462C180.685 34.2462 181.101 34.3596 181.433 34.5864C181.768 34.8099 182.03 35.1238 182.217 35.5281H182.296C182.49 35.137 182.781 34.8264 183.169 34.5963C183.556 34.3629 184.021 34.2462 184.564 34.2462C185.241 34.2462 185.795 34.4582 186.225 34.8822C186.656 35.303 186.871 35.9587 186.871 36.8495V41.918H185.708V36.8495C185.708 36.2907 185.555 35.8913 185.249 35.6514C184.943 35.4114 184.584 35.2915 184.169 35.2915C183.637 35.2915 183.224 35.4525 182.932 35.7746C182.639 36.0935 182.493 36.4978 182.493 36.9875V41.918H181.31V36.7311C181.31 36.3006 181.17 35.9538 180.891 35.6908C180.611 35.4246 180.251 35.2915 179.811 35.2915C179.508 35.2915 179.226 35.372 178.963 35.533C178.703 35.6941 178.493 35.9176 178.332 36.2036C178.174 36.4863 178.095 36.8133 178.095 37.1847V41.918H176.932ZM188.999 44.7579V34.3448H190.123V35.5478H190.261C190.346 35.4164 190.465 35.2487 190.616 35.0449C190.77 34.8379 190.991 34.6538 191.277 34.4927C191.566 34.3284 191.957 34.2462 192.45 34.2462C193.088 34.2462 193.65 34.4056 194.136 34.7245C194.623 35.0433 195.002 35.4952 195.275 36.0803C195.548 36.6654 195.684 37.3557 195.684 38.1511C195.684 38.9531 195.548 39.6483 195.275 40.2367C195.002 40.8218 194.624 41.2754 194.141 41.5975C193.658 41.9163 193.101 42.0757 192.47 42.0757C191.983 42.0757 191.594 41.9952 191.301 41.8342C191.009 41.6698 190.784 41.4841 190.626 41.277C190.468 41.0666 190.346 40.8924 190.261 40.7544H190.162V44.7579H188.999ZM190.143 38.1314C190.143 38.7033 190.226 39.2079 190.394 39.645C190.562 40.0789 190.807 40.4191 191.129 40.6656C191.451 40.9089 191.845 41.0305 192.312 41.0305C192.798 41.0305 193.204 40.9023 193.53 40.6459C193.859 40.3862 194.105 40.0378 194.269 39.6007C194.437 39.1602 194.521 38.6705 194.521 38.1314C194.521 37.5989 194.439 37.119 194.274 36.6917C194.113 36.2611 193.868 35.9209 193.54 35.6711C193.214 35.418 192.805 35.2915 192.312 35.2915C191.839 35.2915 191.441 35.4114 191.119 35.6514C190.797 35.888 190.553 36.22 190.389 36.6473C190.225 37.0713 190.143 37.566 190.143 38.1314ZM199.688 42.0955C199.208 42.0955 198.773 42.0051 198.381 41.8243C197.99 41.6402 197.68 41.3756 197.45 41.0305C197.219 40.6821 197.104 40.2613 197.104 39.7683C197.104 39.3344 197.19 38.9827 197.361 38.7132C197.532 38.4404 197.76 38.2267 198.046 38.0722C198.332 37.9177 198.648 37.8027 198.993 37.7271C199.341 37.6482 199.691 37.5858 200.043 37.5397C200.503 37.4806 200.876 37.4362 201.162 37.4066C201.451 37.3737 201.662 37.3195 201.793 37.2439C201.928 37.1683 201.995 37.0368 201.995 36.8495V36.81C201.995 36.3236 201.862 35.9456 201.596 35.676C201.333 35.4065 200.934 35.2717 200.398 35.2717C199.842 35.2717 199.407 35.3934 199.091 35.6366C198.776 35.8798 198.554 36.1395 198.426 36.4156L197.321 36.0212C197.519 35.561 197.782 35.2027 198.11 34.9463C198.442 34.6867 198.804 34.5059 199.195 34.404C199.589 34.2988 199.977 34.2462 200.358 34.2462C200.602 34.2462 200.881 34.2758 201.197 34.335C201.516 34.3908 201.823 34.5075 202.119 34.685C202.418 34.8625 202.666 35.1304 202.863 35.4887C203.06 35.847 203.159 36.3269 203.159 36.9284V41.918H201.995V40.8924H201.936C201.857 41.0568 201.726 41.2326 201.542 41.42C201.358 41.6074 201.113 41.7668 200.807 41.8982C200.501 42.0297 200.128 42.0955 199.688 42.0955ZM199.865 41.0502C200.326 41.0502 200.713 40.9598 201.029 40.779C201.348 40.5983 201.588 40.3649 201.749 40.0789C201.913 39.7929 201.995 39.4922 201.995 39.1766V38.1117C201.946 38.1708 201.838 38.2251 201.67 38.2744C201.506 38.3204 201.315 38.3615 201.098 38.3976C200.884 38.4305 200.676 38.4601 200.472 38.4864C200.271 38.5094 200.109 38.5291 199.984 38.5455C199.681 38.585 199.399 38.6491 199.136 38.7378C198.876 38.8233 198.666 38.9531 198.505 39.1273C198.347 39.2983 198.268 39.5316 198.268 39.8275C198.268 40.2318 198.418 40.5374 198.717 40.7445C199.019 40.9483 199.402 41.0502 199.865 41.0502ZM208.359 42.0757C207.649 42.0757 207.038 41.9081 206.525 41.5728C206.012 41.2376 205.618 40.7758 205.342 40.1874C205.066 39.599 204.928 38.9268 204.928 38.1708C204.928 37.4017 205.069 36.7229 205.352 36.1346C205.638 35.5429 206.035 35.0811 206.545 34.7491C207.058 34.4138 207.656 34.2462 208.34 34.2462C208.872 34.2462 209.352 34.3448 209.779 34.542C210.207 34.7392 210.557 35.0154 210.83 35.3703C211.102 35.7253 211.272 36.1395 211.337 36.6128H210.174C210.085 36.2677 209.888 35.962 209.582 35.6958C209.28 35.4262 208.872 35.2915 208.359 35.2915C207.906 35.2915 207.508 35.4098 207.166 35.6464C206.828 35.8798 206.563 36.2102 206.372 36.6375C206.185 37.0615 206.091 37.5595 206.091 38.1314C206.091 38.7165 206.183 39.2259 206.367 39.6598C206.555 40.0937 206.818 40.4306 207.156 40.6706C207.498 40.9105 207.899 41.0305 208.359 41.0305C208.662 41.0305 208.936 40.9779 209.183 40.8727C209.429 40.7675 209.638 40.6163 209.809 40.4191C209.98 40.2219 210.101 39.9852 210.174 39.7091H211.337C211.272 40.1562 211.109 40.5588 210.849 40.9171C210.593 41.2721 210.253 41.5548 209.829 41.7651C209.408 41.9722 208.918 42.0757 208.359 42.0757ZM216.332 34.3448V35.3309H212.407V34.3448H216.332ZM213.551 32.5304H214.715V39.7486C214.715 40.0773 214.762 40.3238 214.858 40.4881C214.956 40.6492 215.081 40.7577 215.232 40.8136C215.387 40.8661 215.55 40.8924 215.721 40.8924C215.849 40.8924 215.954 40.8859 216.036 40.8727C216.118 40.8563 216.184 40.8431 216.233 40.8333L216.47 41.8785C216.391 41.9081 216.281 41.9377 216.14 41.9673C215.998 42.0001 215.819 42.0166 215.602 42.0166C215.273 42.0166 214.951 41.9459 214.636 41.8046C214.324 41.6632 214.064 41.4479 213.857 41.1587C213.653 40.8694 213.551 40.5046 213.551 40.0641V32.5304ZM218.93 41.9969C218.687 41.9969 218.478 41.9098 218.304 41.7355C218.13 41.5613 218.043 41.3526 218.043 41.1094C218.043 40.8661 218.13 40.6574 218.304 40.4832C218.478 40.309 218.687 40.2219 218.93 40.2219C219.173 40.2219 219.382 40.309 219.556 40.4832C219.731 40.6574 219.818 40.8661 219.818 41.1094C219.818 41.2704 219.777 41.4184 219.694 41.5531C219.616 41.6879 219.509 41.7964 219.374 41.8785C219.242 41.9574 219.095 41.9969 218.93 41.9969Z" fill="black"/>
</svg>
