<svg width="257" height="187" viewBox="0 0 257 187" fill="none" xmlns="http://www.w3.org/2000/svg">
<path d="M15.4851 10.513C15.3752 9.48462 14.912 8.68387 14.0956 8.11078C13.287 7.5377 12.235 7.25115 10.9397 7.25115C10.029 7.25115 9.24788 7.38854 8.59629 7.66331C7.9447 7.93807 7.44619 8.31097 7.10077 8.782C6.75535 9.25303 6.57871 9.79079 6.57086 10.3953C6.57086 10.8977 6.68469 11.3334 6.91236 11.7024C7.14787 12.0714 7.46582 12.3854 7.86619 12.6444C8.26657 12.8957 8.71012 13.1076 9.19685 13.2803C9.68358 13.453 10.1742 13.5983 10.6688 13.716L12.9298 14.2813C13.8404 14.4932 14.7157 14.7798 15.5557 15.1409C16.4036 15.502 17.1612 15.9573 17.8285 16.5069C18.5036 17.0564 19.0374 17.7198 19.43 18.497C19.8225 19.2742 20.0187 20.1848 20.0187 21.229C20.0187 22.642 19.6576 23.8863 18.9354 24.9619C18.2131 26.0295 17.169 26.8656 15.803 27.4701C14.4449 28.0667 12.8002 28.365 10.869 28.365C8.99274 28.365 7.36376 28.0746 5.98207 27.4936C4.60824 26.9127 3.53272 26.0649 2.75552 24.9501C1.98617 23.8353 1.5701 22.4772 1.50729 20.8757H5.80544C5.86824 21.7157 6.12731 22.4144 6.58264 22.9718C7.03796 23.5291 7.63068 23.9452 8.36077 24.22C9.09872 24.4948 9.92302 24.6321 10.8337 24.6321C11.7836 24.6321 12.6157 24.4908 13.3301 24.2082C14.0524 23.9177 14.6176 23.5174 15.0258 23.0071C15.4341 22.489 15.6421 21.8845 15.65 21.1936C15.6421 20.5656 15.4576 20.0475 15.0965 19.6392C14.7354 19.2232 14.229 18.8777 13.5774 18.603C12.9337 18.3203 12.18 18.0691 11.3165 17.8493L8.57274 17.1428C6.58656 16.6325 5.01646 15.8592 3.86244 14.823C2.71627 13.7788 2.14318 12.3932 2.14318 10.6661C2.14318 9.24518 2.52786 8.00088 3.29721 6.93321C4.0744 5.86554 5.1303 5.03732 6.46488 4.44853C7.79946 3.85189 9.31068 3.55357 10.9985 3.55357C12.7099 3.55357 14.2094 3.85189 15.4969 4.44853C16.7922 5.03732 17.8088 5.85769 18.5468 6.90966C19.2847 7.95377 19.6655 9.1549 19.689 10.513H15.4851ZM23.9136 3.88329H29.2598L36.4194 21.3585H36.702L43.8617 3.88329H49.2079V28H45.0157V11.4315H44.792L38.1269 27.9293H34.9945L28.3295 11.3962H28.1057V28H23.9136V3.88329ZM57.0623 28H52.3991L60.8894 3.88329H66.2827L74.7847 28H70.1216L63.6802 8.8291H63.4918L57.0623 28ZM57.2154 18.5441H69.9331V22.0533H57.2154V18.5441ZM77.9613 28V3.88329H87.005C88.8577 3.88329 90.4121 4.20516 91.6682 4.8489C92.9321 5.49264 93.886 6.39545 94.5297 7.55732C95.1813 8.71135 95.5071 10.0577 95.5071 11.5964C95.5071 13.1429 95.1774 14.4854 94.5179 15.6237C93.8663 16.7542 92.9047 17.6295 91.6329 18.2497C90.3611 18.862 88.7989 19.1682 86.9461 19.1682H80.5048V15.5413H86.3574C87.4407 15.5413 88.3278 15.3921 89.0187 15.0938C89.7095 14.7876 90.2198 14.3441 90.5495 13.7631C90.8871 13.1743 91.0559 12.4521 91.0559 11.5964C91.0559 10.7407 90.8871 10.0106 90.5495 9.40611C90.2119 8.79378 89.6977 8.3306 89.0069 8.01658C88.3161 7.69471 87.425 7.53377 86.3338 7.53377H82.3301V28H77.9613ZM90.42 17.0721L96.3903 28H91.5151L85.6508 17.0721H90.42ZM98.4687 7.54555V3.88329H117.71V7.54555H110.256V28H105.923V7.54555H98.4687ZM137.817 28H129.645V3.88329H137.982C140.377 3.88329 142.433 4.3661 144.153 5.33171C145.88 6.28947 147.207 7.66723 148.133 9.46499C149.059 11.2628 149.522 13.4138 149.522 15.9181C149.522 18.4303 149.055 20.5891 148.121 22.3948C147.195 24.2004 145.856 25.586 144.106 26.5516C142.363 27.5172 140.267 28 137.817 28ZM134.014 24.22H137.605C139.285 24.22 140.687 23.9138 141.809 23.3015C142.932 22.6813 143.776 21.7589 144.341 20.5342C144.906 19.3017 145.189 17.763 145.189 15.9181C145.189 14.0732 144.906 12.5424 144.341 11.3256C143.776 10.1009 142.94 9.1863 141.833 8.58181C140.734 7.96948 139.368 7.66331 137.735 7.66331H134.014V24.22ZM158.042 3.88329V28H153.673V3.88329H158.042ZM178.929 11.5846C178.733 10.9487 178.462 10.3796 178.117 9.87714C177.779 9.36686 177.371 8.93116 176.892 8.57004C176.421 8.20891 175.879 7.93807 175.267 7.75751C174.655 7.5691 173.987 7.47489 173.265 7.47489C171.97 7.47489 170.816 7.80069 169.803 8.45228C168.79 9.10387 167.994 10.0616 167.413 11.3256C166.84 12.5816 166.553 14.1125 166.553 15.9181C166.553 17.7394 166.84 19.282 167.413 20.546C167.986 21.8099 168.783 22.7716 169.803 23.431C170.824 24.0826 172.009 24.4084 173.359 24.4084C174.584 24.4084 175.644 24.1729 176.539 23.7019C177.442 23.2308 178.136 22.5635 178.623 21.7C179.11 20.8286 179.353 19.808 179.353 18.6383L180.342 18.7914H173.795V15.3764H183.581V18.2732C183.581 20.3379 183.141 22.1239 182.262 23.6312C181.383 25.1385 180.174 26.3004 178.635 27.1168C177.096 27.9254 175.33 28.3297 173.336 28.3297C171.114 28.3297 169.163 27.8312 167.483 26.8342C165.811 25.8293 164.504 24.4045 163.562 22.5596C162.628 20.7069 162.161 18.5088 162.161 15.9652C162.161 14.0183 162.435 12.2794 162.985 10.7485C163.542 9.2177 164.32 7.91845 165.317 6.85078C166.314 5.77526 167.483 4.95881 168.826 4.40143C170.168 3.83619 171.628 3.55357 173.206 3.55357C174.541 3.55357 175.785 3.74984 176.939 4.14236C178.093 4.52703 179.118 5.07657 180.013 5.79096C180.916 6.50536 181.657 7.35321 182.238 8.33452C182.819 9.31583 183.2 10.3992 183.381 11.5846H178.929ZM192.174 3.88329V28H187.805V3.88329H192.174ZM195.845 7.54555V3.88329H215.087V7.54555H207.633V28H203.299V7.54555H195.845ZM218.979 28H214.315L222.806 3.88329H228.199L236.701 28H232.038L225.597 8.8291H225.408L218.979 28ZM219.132 18.5441H231.849V22.0533H219.132V18.5441ZM239.878 28V3.88329H244.246V24.3377H254.868V28H239.878Z" fill="black"/>
<path d="M15.4851 47.8568C15.3752 46.8284 14.912 46.0276 14.0956 45.4545C13.287 44.8814 12.235 44.5949 10.9397 44.5949C10.029 44.5949 9.24788 44.7323 8.59629 45.0071C7.9447 45.2818 7.44619 45.6547 7.10077 46.1257C6.75535 46.5968 6.57871 47.1345 6.57086 47.739C6.57086 48.2415 6.68469 48.6772 6.91236 49.0461C7.14787 49.4151 7.46582 49.7291 7.86619 49.9882C8.26657 50.2394 8.71012 50.4514 9.19685 50.6241C9.68358 50.7968 10.1742 50.942 10.6688 51.0598L12.9298 51.625C13.8404 51.837 14.7157 52.1235 15.5557 52.4846C16.4036 52.8458 17.1612 53.3011 17.8285 53.8506C18.5036 54.4002 19.0374 55.0635 19.43 55.8407C19.8225 56.6179 20.0187 57.5286 20.0187 58.5727C20.0187 59.9858 19.6576 61.2301 18.9354 62.3056C18.2131 63.3733 17.169 64.2094 15.803 64.8138C14.4449 65.4105 12.8002 65.7088 10.869 65.7088C8.99274 65.7088 7.36376 65.4183 5.98207 64.8374C4.60824 64.2565 3.53272 63.4086 2.75552 62.2938C1.98617 61.1791 1.5701 59.8209 1.50729 58.2194H5.80544C5.86824 59.0594 6.12731 59.7581 6.58264 60.3155C7.03796 60.8729 7.63068 61.289 8.36077 61.5637C9.09872 61.8385 9.92302 61.9759 10.8337 61.9759C11.7836 61.9759 12.6157 61.8346 13.3301 61.552C14.0524 61.2615 14.6176 60.8611 15.0258 60.3508C15.4341 59.8327 15.6421 59.2282 15.65 58.5374C15.6421 57.9093 15.4576 57.3912 15.0965 56.983C14.7354 56.5669 14.229 56.2215 13.5774 55.9467C12.9337 55.6641 12.18 55.4129 11.3165 55.1931L8.57274 54.4865C6.58656 53.9762 5.01646 53.203 3.86244 52.1667C2.71627 51.1226 2.14318 49.737 2.14318 48.0099C2.14318 46.5889 2.52786 45.3446 3.29721 44.277C4.0744 43.2093 5.1303 42.3811 6.46488 41.7923C7.79946 41.1956 9.31068 40.8973 10.9985 40.8973C12.7099 40.8973 14.2094 41.1956 15.4969 41.7923C16.7922 42.3811 17.8088 43.2014 18.5468 44.2534C19.2847 45.2975 19.6655 46.4986 19.689 47.8568H15.4851ZM45.4632 53.2854C45.4632 55.8839 44.9764 58.1095 44.003 59.9622C43.0374 61.8071 41.7185 63.2202 40.0463 64.2015C38.382 65.1828 36.494 65.6735 34.3822 65.6735C32.2704 65.6735 30.3785 65.1828 28.7063 64.2015C27.042 63.2123 25.7231 61.7953 24.7497 59.9505C23.784 58.0977 23.3012 55.8761 23.3012 53.2854C23.3012 50.6869 23.784 48.4652 24.7497 46.6203C25.7231 44.7676 27.042 43.3506 28.7063 42.3693C30.3785 41.388 32.2704 40.8973 34.3822 40.8973C36.494 40.8973 38.382 41.388 40.0463 42.3693C41.7185 43.3506 43.0374 44.7676 44.003 46.6203C44.9764 48.4652 45.4632 50.6869 45.4632 53.2854ZM41.0708 53.2854C41.0708 51.4562 40.7843 49.9136 40.2112 48.6575C39.646 47.3936 38.8609 46.4398 37.856 45.796C36.8512 45.1444 35.6932 44.8186 34.3822 44.8186C33.0712 44.8186 31.9132 45.1444 30.9084 45.796C29.9035 46.4398 29.1145 47.3936 28.5414 48.6575C27.9762 49.9136 27.6936 51.4562 27.6936 53.2854C27.6936 55.1146 27.9762 56.6611 28.5414 57.925C29.1145 59.1811 29.9035 60.1349 30.9084 60.7865C31.9132 61.4303 33.0712 61.7522 34.3822 61.7522C35.6932 61.7522 36.8512 61.4303 37.856 60.7865C38.8609 60.1349 39.646 59.1811 40.2112 57.925C40.7843 56.6611 41.0708 55.1146 41.0708 53.2854ZM49.5935 65.3438V41.227H53.9623V61.6815H64.584V65.3438H49.5935ZM83.5783 41.227H87.9471V56.983C87.9471 58.7101 87.5389 60.2292 86.7224 61.5402C85.9138 62.8512 84.7755 63.8757 83.3074 64.6137C81.8394 65.3438 80.1241 65.7088 78.1614 65.7088C76.191 65.7088 74.4717 65.3438 73.0037 64.6137C71.5356 63.8757 70.3973 62.8512 69.5887 61.5402C68.7801 60.2292 68.3758 58.7101 68.3758 56.983V41.227H72.7446V56.6179C72.7446 57.6228 72.9644 58.5177 73.404 59.3028C73.8515 60.0878 74.4796 60.7041 75.2882 61.1516C76.0968 61.5912 77.0545 61.811 78.1614 61.811C79.2684 61.811 80.2261 61.5912 81.0347 61.1516C81.8512 60.7041 82.4792 60.0878 82.9188 59.3028C83.3585 58.5177 83.5783 57.6228 83.5783 56.6179V41.227ZM91.6358 44.8893V41.227H110.877V44.8893H103.423V65.3438H99.0899V44.8893H91.6358ZM118.956 41.227V65.3438H114.587V41.227H118.956ZM145.236 53.2854C145.236 55.8839 144.749 58.1095 143.776 59.9622C142.81 61.8071 141.491 63.2202 139.819 64.2015C138.155 65.1828 136.267 65.6735 134.155 65.6735C132.043 65.6735 130.151 65.1828 128.479 64.2015C126.815 63.2123 125.496 61.7953 124.523 59.9505C123.557 58.0977 123.074 55.8761 123.074 53.2854C123.074 50.6869 123.557 48.4652 124.523 46.6203C125.496 44.7676 126.815 43.3506 128.479 42.3693C130.151 41.388 132.043 40.8973 134.155 40.8973C136.267 40.8973 138.155 41.388 139.819 42.3693C141.491 43.3506 142.81 44.7676 143.776 46.6203C144.749 48.4652 145.236 50.6869 145.236 53.2854ZM140.844 53.2854C140.844 51.4562 140.557 49.9136 139.984 48.6575C139.419 47.3936 138.634 46.4398 137.629 45.796C136.624 45.1444 135.466 44.8186 134.155 44.8186C132.844 44.8186 131.686 45.1444 130.681 45.796C129.676 46.4398 128.887 47.3936 128.314 48.6575C127.749 49.9136 127.466 51.4562 127.466 53.2854C127.466 55.1146 127.749 56.6611 128.314 57.925C128.887 59.1811 129.676 60.1349 130.681 60.7865C131.686 61.4303 132.844 61.7522 134.155 61.7522C135.466 61.7522 136.624 61.4303 137.629 60.7865C138.634 60.1349 139.419 59.1811 139.984 57.925C140.557 56.6611 140.844 55.1146 140.844 53.2854ZM169.185 41.227V65.3438H165.299L153.935 48.9166H153.735V65.3438H149.366V41.227H153.276L164.628 57.666H164.84V41.227H169.185ZM187.052 47.8568C186.942 46.8284 186.479 46.0276 185.662 45.4545C184.854 44.8814 183.802 44.5949 182.506 44.5949C181.596 44.5949 180.814 44.7323 180.163 45.0071C179.511 45.2818 179.013 45.6547 178.667 46.1257C178.322 46.5968 178.145 47.1345 178.137 47.739C178.137 48.2415 178.251 48.6772 178.479 49.0461C178.714 49.4151 179.032 49.7291 179.433 49.9882C179.833 50.2394 180.277 50.4514 180.763 50.6241C181.25 50.7968 181.741 50.942 182.235 51.0598L184.496 51.625C185.407 51.837 186.282 52.1235 187.122 52.4846C187.97 52.8458 188.728 53.3011 189.395 53.8506C190.07 54.4002 190.604 55.0635 190.997 55.8407C191.389 56.6179 191.585 57.5286 191.585 58.5727C191.585 59.9858 191.224 61.2301 190.502 62.3056C189.78 63.3733 188.736 64.2094 187.37 64.8138C186.011 65.4105 184.367 65.7088 182.436 65.7088C180.559 65.7088 178.93 65.4183 177.549 64.8374C176.175 64.2565 175.099 63.4086 174.322 62.2938C173.553 61.1791 173.137 59.8209 173.074 58.2194H177.372C177.435 59.0594 177.694 59.7581 178.149 60.3155C178.605 60.8729 179.197 61.289 179.927 61.5637C180.665 61.8385 181.49 61.9759 182.4 61.9759C183.35 61.9759 184.182 61.8346 184.897 61.552C185.619 61.2615 186.184 60.8611 186.592 60.3508C187.001 59.8327 187.209 59.2282 187.217 58.5374C187.209 57.9093 187.024 57.3912 186.663 56.983C186.302 56.5669 185.796 56.2215 185.144 55.9467C184.5 55.6641 183.747 55.4129 182.883 55.1931L180.139 54.4865C178.153 53.9762 176.583 53.203 175.429 52.1667C174.283 51.1226 173.71 49.737 173.71 48.0099C173.71 46.5889 174.094 45.3446 174.864 44.277C175.641 43.2093 176.697 42.3811 178.031 41.7923C179.366 41.1956 180.877 40.8973 182.565 40.8973C184.277 40.8973 185.776 41.1956 187.063 41.7923C188.359 42.3811 189.375 43.2014 190.113 44.2534C190.851 45.2975 191.232 46.4986 191.256 47.8568H187.052Z" fill="#00B1EF"/>
<path d="M5 88.5312H45.5" stroke="#00B1EF" stroke-width="2" stroke-linecap="round"/>
<path d="M3.81818 115.531H0.860795V106.804H3.87784C4.74432 106.804 5.48864 106.979 6.1108 107.328C6.7358 107.675 7.21591 108.173 7.55114 108.824C7.88636 109.474 8.05398 110.253 8.05398 111.159C8.05398 112.068 7.88494 112.849 7.54688 113.503C7.21165 114.156 6.72727 114.658 6.09375 115.007C5.46307 115.357 4.70455 115.531 3.81818 115.531ZM2.44176 114.163H3.74148C4.34943 114.163 4.85653 114.053 5.26278 113.831C5.66903 113.607 5.97443 113.273 6.17898 112.83C6.38352 112.384 6.4858 111.827 6.4858 111.159C6.4858 110.491 6.38352 109.937 6.17898 109.497C5.97443 109.054 5.67188 108.723 5.27131 108.504C4.87358 108.283 4.37926 108.172 3.78835 108.172H2.44176V114.163ZM11.1371 106.804V115.531H9.55611V106.804H11.1371ZM18.6957 109.591C18.6246 109.361 18.5266 109.155 18.4016 108.973C18.2795 108.788 18.1317 108.631 17.9585 108.5C17.788 108.369 17.592 108.271 17.3704 108.206C17.1488 108.138 16.9073 108.104 16.646 108.104C16.1772 108.104 15.7596 108.222 15.3931 108.457C15.0266 108.693 14.7383 109.04 14.5281 109.497C14.3207 109.952 14.217 110.506 14.217 111.159C14.217 111.818 14.3207 112.376 14.5281 112.834C14.7354 113.291 15.0238 113.639 15.3931 113.878C15.7624 114.114 16.1914 114.232 16.68 114.232C17.1232 114.232 17.5067 114.146 17.8306 113.976C18.1573 113.805 18.4087 113.564 18.5849 113.251C18.761 112.936 18.8491 112.567 18.8491 112.143L19.207 112.199H16.8377V110.963H20.3789V112.011C20.3789 112.759 20.2198 113.405 19.9016 113.95C19.5835 114.496 19.146 114.916 18.5891 115.212C18.0323 115.504 17.3931 115.651 16.6715 115.651C15.8675 115.651 15.1616 115.47 14.5536 115.109C13.9485 114.746 13.4755 114.23 13.1346 113.562C12.7965 112.892 12.6275 112.097 12.6275 111.176C12.6275 110.472 12.7269 109.842 12.9258 109.288C13.1275 108.734 13.4087 108.264 13.7695 107.878C14.1303 107.489 14.5536 107.193 15.0394 106.991C15.5252 106.787 16.0536 106.685 16.6246 106.685C17.1076 106.685 17.5579 106.756 17.9755 106.898C18.3931 107.037 18.7638 107.236 19.0877 107.494C19.4144 107.753 19.6829 108.06 19.8931 108.415C20.1033 108.77 20.2411 109.162 20.3065 109.591H18.6957ZM23.4886 106.804V115.531H21.9077V106.804H23.4886ZM24.8171 108.129V106.804H31.7802V108.129H29.0827V115.531H27.5146V108.129H24.8171ZM33.1886 115.531H31.5011L34.5735 106.804H36.5252L39.6019 115.531H37.9144L35.5835 108.594H35.5153L33.1886 115.531ZM33.244 112.109H37.8462V113.379H33.244V112.109ZM40.7514 115.531V106.804H42.3324V114.206H46.1761V115.531H40.7514ZM50.5249 115.531V106.804H56.201V108.129H52.1058V110.499H55.907V111.824H52.1058V114.206H56.2351V115.531H50.5249ZM59.1349 106.804L61.0568 110H61.125L63.0554 106.804H64.858L62.169 111.168L64.9006 115.531H63.0682L61.125 112.357H61.0568L59.1136 115.531H57.2898L60.0469 111.168L57.3239 106.804H59.1349ZM66.0991 115.531V106.804H69.3718C70.0423 106.804 70.6048 106.929 71.0593 107.179C71.5167 107.429 71.8619 107.773 72.0948 108.21C72.3306 108.645 72.4485 109.139 72.4485 109.693C72.4485 110.253 72.3306 110.75 72.0948 111.185C71.859 111.619 71.511 111.962 71.0508 112.212C70.5906 112.459 70.0238 112.582 69.3505 112.582H67.1815V111.283H69.1374C69.5295 111.283 69.8505 111.214 70.1005 111.078C70.3505 110.942 70.5352 110.754 70.6545 110.516C70.7766 110.277 70.8377 110.003 70.8377 109.693C70.8377 109.384 70.7766 109.111 70.6545 108.875C70.5352 108.639 70.3491 108.456 70.0962 108.325C69.8462 108.192 69.5238 108.125 69.1289 108.125H67.68V115.531H66.0991ZM73.8217 115.531V106.804H79.4979V108.129H75.4027V110.499H79.2038V111.824H75.4027V114.206H79.532V115.531H73.8217ZM81.1108 115.531V106.804H84.3835C85.054 106.804 85.6165 106.92 86.071 107.153C86.5284 107.386 86.8736 107.713 87.1065 108.134C87.3423 108.551 87.4602 109.038 87.4602 109.595C87.4602 110.155 87.3409 110.641 87.1023 111.053C86.8665 111.462 86.5185 111.778 86.0582 112.003C85.598 112.224 85.0327 112.335 84.3622 112.335H82.0312V111.023H84.1491C84.5412 111.023 84.8622 110.969 85.1122 110.861C85.3622 110.75 85.5469 110.589 85.6662 110.379C85.7884 110.166 85.8494 109.905 85.8494 109.595C85.8494 109.286 85.7884 109.021 85.6662 108.803C85.544 108.581 85.358 108.413 85.108 108.3C84.858 108.183 84.5355 108.125 84.1406 108.125H82.6918V115.531H81.1108ZM85.6193 111.577L87.7798 115.531H86.0156L83.8935 111.577H85.6193ZM90.4964 106.804V115.531H88.9155V106.804H90.4964ZM92.2085 115.531V106.804H97.8846V108.129H93.7894V110.499H97.5906V111.824H93.7894V114.206H97.9187V115.531H92.2085ZM106.669 106.804V115.531H105.263L101.151 109.587H101.078V115.531H99.4975V106.804H100.912L105.02 112.753H105.097V106.804H106.669ZM115.862 109.749H114.268C114.223 109.487 114.139 109.256 114.017 109.054C113.895 108.849 113.743 108.676 113.561 108.534C113.379 108.392 113.172 108.286 112.939 108.214C112.709 108.141 112.46 108.104 112.193 108.104C111.719 108.104 111.298 108.223 110.932 108.462C110.565 108.697 110.278 109.044 110.071 109.501C109.864 109.956 109.76 110.511 109.76 111.168C109.76 111.835 109.864 112.398 110.071 112.855C110.281 113.31 110.568 113.653 110.932 113.886C111.298 114.116 111.717 114.232 112.189 114.232C112.45 114.232 112.695 114.197 112.922 114.129C113.152 114.058 113.358 113.955 113.54 113.818C113.724 113.682 113.879 113.514 114.004 113.315C114.132 113.116 114.22 112.889 114.268 112.634L115.862 112.642C115.803 113.057 115.673 113.446 115.474 113.81C115.278 114.173 115.021 114.494 114.703 114.773C114.385 115.048 114.013 115.264 113.587 115.42C113.161 115.574 112.688 115.651 112.168 115.651C111.401 115.651 110.716 115.473 110.114 115.118C109.511 114.763 109.037 114.25 108.69 113.58C108.344 112.909 108.17 112.105 108.17 111.168C108.17 110.227 108.345 109.423 108.695 108.756C109.044 108.085 109.52 107.572 110.122 107.217C110.724 106.862 111.406 106.685 112.168 106.685C112.653 106.685 113.105 106.753 113.523 106.889C113.94 107.026 114.313 107.226 114.639 107.49C114.966 107.751 115.234 108.072 115.445 108.453C115.658 108.831 115.797 109.263 115.862 109.749ZM117.31 115.531V106.804H122.986V108.129H118.891V110.499H122.692V111.824H118.891V114.206H123.02V115.531H117.31ZM129.342 109.203C129.302 108.831 129.135 108.541 128.839 108.334C128.547 108.126 128.166 108.023 127.697 108.023C127.368 108.023 127.085 108.072 126.849 108.172C126.613 108.271 126.433 108.406 126.308 108.577C126.183 108.747 126.119 108.942 126.116 109.161C126.116 109.342 126.157 109.5 126.24 109.634C126.325 109.767 126.44 109.881 126.585 109.974C126.73 110.065 126.89 110.142 127.066 110.205C127.243 110.267 127.42 110.32 127.599 110.362L128.417 110.567C128.747 110.643 129.064 110.747 129.368 110.878C129.674 111.009 129.949 111.173 130.19 111.372C130.434 111.571 130.627 111.811 130.77 112.092C130.912 112.374 130.983 112.703 130.983 113.081C130.983 113.592 130.852 114.043 130.591 114.432C130.329 114.818 129.951 115.121 129.457 115.339C128.966 115.555 128.37 115.663 127.672 115.663C126.993 115.663 126.403 115.558 125.903 115.348C125.406 115.138 125.017 114.831 124.735 114.428C124.457 114.024 124.306 113.533 124.284 112.953H125.839C125.862 113.257 125.956 113.51 126.12 113.712C126.285 113.913 126.5 114.064 126.764 114.163C127.031 114.263 127.329 114.312 127.659 114.312C128.002 114.312 128.304 114.261 128.562 114.159C128.824 114.054 129.028 113.909 129.176 113.724C129.324 113.537 129.399 113.318 129.402 113.068C129.399 112.841 129.332 112.653 129.201 112.506C129.071 112.355 128.887 112.23 128.652 112.131C128.419 112.028 128.146 111.937 127.833 111.858L126.841 111.602C126.122 111.418 125.554 111.138 125.136 110.763C124.721 110.385 124.514 109.884 124.514 109.259C124.514 108.744 124.653 108.294 124.931 107.908C125.213 107.521 125.595 107.222 126.078 107.009C126.561 106.793 127.108 106.685 127.718 106.685C128.338 106.685 128.88 106.793 129.346 107.009C129.815 107.222 130.183 107.518 130.45 107.899C130.717 108.277 130.855 108.712 130.863 109.203H129.342ZM135.369 115.531V106.804H140.96V108.129H136.95V110.499H140.576V111.824H136.95V115.531H135.369ZM150.198 111.168C150.198 112.108 150.022 112.913 149.67 113.584C149.32 114.251 148.843 114.763 148.238 115.118C147.636 115.473 146.952 115.651 146.188 115.651C145.424 115.651 144.739 115.473 144.134 115.118C143.532 114.76 143.055 114.247 142.702 113.58C142.353 112.909 142.178 112.105 142.178 111.168C142.178 110.227 142.353 109.423 142.702 108.756C143.055 108.085 143.532 107.572 144.134 107.217C144.739 106.862 145.424 106.685 146.188 106.685C146.952 106.685 147.636 106.862 148.238 107.217C148.843 107.572 149.32 108.085 149.67 108.756C150.022 109.423 150.198 110.227 150.198 111.168ZM148.609 111.168C148.609 110.506 148.505 109.947 148.298 109.493C148.093 109.036 147.809 108.69 147.445 108.457C147.082 108.222 146.663 108.104 146.188 108.104C145.714 108.104 145.295 108.222 144.931 108.457C144.567 108.69 144.282 109.036 144.075 109.493C143.87 109.947 143.768 110.506 143.768 111.168C143.768 111.83 143.87 112.389 144.075 112.847C144.282 113.301 144.567 113.646 144.931 113.882C145.295 114.115 145.714 114.232 146.188 114.232C146.663 114.232 147.082 114.115 147.445 113.882C147.809 113.646 148.093 113.301 148.298 112.847C148.505 112.389 148.609 111.83 148.609 111.168ZM151.693 115.531V106.804H154.966C155.636 106.804 156.199 106.92 156.653 107.153C157.11 107.386 157.456 107.713 157.689 108.134C157.924 108.551 158.042 109.038 158.042 109.595C158.042 110.155 157.923 110.641 157.684 111.053C157.449 111.462 157.1 111.778 156.64 112.003C156.18 112.224 155.615 112.335 154.944 112.335H152.613V111.023H154.731C155.123 111.023 155.444 110.969 155.694 110.861C155.944 110.75 156.129 110.589 156.248 110.379C156.37 110.166 156.431 109.905 156.431 109.595C156.431 109.286 156.37 109.021 156.248 108.803C156.126 108.581 155.94 108.413 155.69 108.3C155.44 108.183 155.118 108.125 154.723 108.125H153.274V115.531H151.693ZM156.201 111.577L158.362 115.531H156.598L154.475 111.577H156.201ZM0.860795 131.531V122.804H6.53693V124.129H2.44176V126.499H6.2429V127.824H2.44176V130.206H6.57102V131.531H0.860795ZM9.31747 122.804L11.5888 129.673H11.6783L13.9453 122.804H15.6839L12.6072 131.531H10.6555L7.5831 122.804H9.31747ZM16.8335 131.531V122.804H22.5096V124.129H18.4144V126.499H22.2156V127.824H18.4144V130.206H22.5437V131.531H16.8335ZM24.1225 131.531V122.804H27.3952C28.0657 122.804 28.6282 122.92 29.0827 123.153C29.5401 123.386 29.8853 123.713 30.1183 124.134C30.354 124.551 30.4719 125.038 30.4719 125.595C30.4719 126.155 30.3526 126.641 30.114 127.053C29.8782 127.462 29.5302 127.778 29.07 128.003C28.6097 128.224 28.0444 128.335 27.3739 128.335H25.043V127.023H27.1609C27.5529 127.023 27.8739 126.969 28.1239 126.861C28.3739 126.75 28.5586 126.589 28.6779 126.379C28.8001 126.166 28.8612 125.905 28.8612 125.595C28.8612 125.286 28.8001 125.021 28.6779 124.803C28.5558 124.581 28.3697 124.413 28.1197 124.3C27.8697 124.183 27.5472 124.125 27.1523 124.125H25.7035V131.531H24.1225ZM28.631 127.577L30.7915 131.531H29.0273L26.9052 127.577H28.631ZM30.9908 122.804H32.7763L34.9112 126.665H34.9964L37.1314 122.804H38.9169L35.7422 128.276V131.531H34.1655V128.276L30.9908 122.804ZM44.5941 122.804V131.531H43.0131V122.804H44.5941ZM53.478 122.804V131.531H52.0717L47.9595 125.587H47.8871V131.531H46.3061V122.804H47.7209L51.8288 128.753H51.9055V122.804H53.478ZM58.158 131.531H55.2006V122.804H58.2177C59.0842 122.804 59.8285 122.979 60.4506 123.328C61.0756 123.675 61.5558 124.173 61.891 124.824C62.2262 125.474 62.3938 126.253 62.3938 127.159C62.3938 128.068 62.2248 128.849 61.8867 129.503C61.5515 130.156 61.0671 130.658 60.4336 131.007C59.8029 131.357 59.0444 131.531 58.158 131.531ZM56.7816 130.163H58.0813C58.6893 130.163 59.1964 130.053 59.6026 129.831C60.0089 129.607 60.3143 129.273 60.5188 128.83C60.7234 128.384 60.8256 127.827 60.8256 127.159C60.8256 126.491 60.7234 125.937 60.5188 125.497C60.3143 125.054 60.0117 124.723 59.6112 124.504C59.2134 124.283 58.7191 124.172 58.1282 124.172H56.7816V130.163ZM69.3974 122.804H70.9783V128.506C70.9783 129.131 70.8306 129.68 70.5352 130.155C70.2425 130.629 69.8306 131 69.2994 131.267C68.7681 131.531 68.1474 131.663 67.4371 131.663C66.7241 131.663 66.1019 131.531 65.5707 131.267C65.0394 131 64.6275 130.629 64.3349 130.155C64.0423 129.68 63.896 129.131 63.896 128.506V122.804H65.4769V128.374C65.4769 128.737 65.5565 129.061 65.7156 129.345C65.8775 129.629 66.1048 129.852 66.3974 130.014C66.69 130.173 67.0366 130.253 67.4371 130.253C67.8377 130.253 68.1843 130.173 68.4769 130.014C68.7724 129.852 68.9996 129.629 69.1587 129.345C69.3178 129.061 69.3974 128.737 69.3974 128.374V122.804ZM77.4396 125.203C77.3999 124.831 77.2322 124.541 76.9368 124.334C76.6442 124.126 76.2635 124.023 75.7947 124.023C75.4652 124.023 75.1825 124.072 74.9467 124.172C74.7109 124.271 74.5305 124.406 74.4055 124.577C74.2805 124.747 74.2166 124.942 74.2138 125.161C74.2138 125.342 74.255 125.5 74.3374 125.634C74.4226 125.767 74.5376 125.881 74.6825 125.974C74.8274 126.065 74.9879 126.142 75.1641 126.205C75.3402 126.267 75.5178 126.32 75.6967 126.362L76.5149 126.567C76.8445 126.643 77.1612 126.747 77.4652 126.878C77.772 127.009 78.0462 127.173 78.2876 127.372C78.532 127.571 78.7251 127.811 78.8672 128.092C79.0092 128.374 79.0803 128.703 79.0803 129.081C79.0803 129.592 78.9496 130.043 78.6882 130.432C78.4268 130.818 78.049 131.121 77.5547 131.339C77.0632 131.555 76.468 131.663 75.7692 131.663C75.0902 131.663 74.5007 131.558 74.0007 131.348C73.5036 131.138 73.1143 130.831 72.8331 130.428C72.5547 130.024 72.4041 129.533 72.3814 128.953H73.9368C73.9595 129.257 74.0533 129.51 74.218 129.712C74.3828 129.913 74.5973 130.064 74.8615 130.163C75.1286 130.263 75.4268 130.312 75.7564 130.312C76.1001 130.312 76.4013 130.261 76.6598 130.159C76.9212 130.054 77.1257 129.909 77.2734 129.724C77.4212 129.537 77.4964 129.318 77.4993 129.068C77.4964 128.841 77.4297 128.653 77.299 128.506C77.1683 128.355 76.9851 128.23 76.7493 128.131C76.5163 128.028 76.2436 127.937 75.9311 127.858L74.9382 127.602C74.2195 127.418 73.6513 127.138 73.2337 126.763C72.8189 126.385 72.6115 125.884 72.6115 125.259C72.6115 124.744 72.7507 124.294 73.0291 123.908C73.3104 123.521 73.6925 123.222 74.1754 123.009C74.6584 122.793 75.2053 122.685 75.8161 122.685C76.4354 122.685 76.978 122.793 77.4439 123.009C77.9126 123.222 78.2805 123.518 78.5476 123.899C78.8146 124.277 78.9524 124.712 78.9609 125.203H77.4396ZM80.1062 124.129V122.804H87.0692V124.129H84.3718V131.531H82.8036V124.129H80.1062ZM88.4116 131.531V122.804H91.6843C92.3548 122.804 92.9173 122.92 93.3718 123.153C93.8292 123.386 94.1744 123.713 94.4073 124.134C94.6431 124.551 94.761 125.038 94.761 125.595C94.761 126.155 94.6417 126.641 94.4031 127.053C94.1673 127.462 93.8192 127.778 93.359 128.003C92.8988 128.224 92.3335 128.335 91.663 128.335H89.332V127.023H91.4499C91.842 127.023 92.163 126.969 92.413 126.861C92.663 126.75 92.8477 126.589 92.967 126.379C93.0891 126.166 93.1502 125.905 93.1502 125.595C93.1502 125.286 93.0891 125.021 92.967 124.803C92.8448 124.581 92.6587 124.413 92.4087 124.3C92.1587 124.183 91.8363 124.125 91.4414 124.125H89.9925V131.531H88.4116ZM92.9201 127.577L95.0806 131.531H93.3164L91.1942 127.577H92.9201ZM95.2798 122.804H97.0653L99.2003 126.665H99.2855L101.42 122.804H103.206L100.031 128.276V131.531H98.4545V128.276L95.2798 122.804ZM104.528 131.625C104.27 131.625 104.048 131.534 103.863 131.352C103.679 131.17 103.588 130.949 103.591 130.688C103.588 130.432 103.679 130.213 103.863 130.031C104.048 129.849 104.27 129.759 104.528 129.759C104.778 129.759 104.995 129.849 105.18 130.031C105.368 130.213 105.463 130.432 105.466 130.688C105.463 130.861 105.417 131.018 105.329 131.161C105.244 131.303 105.13 131.416 104.988 131.501C104.849 131.584 104.696 131.625 104.528 131.625Z" fill="#404040"/>
<path d="M1.76136 148.259V155.531H0.880682V148.259H1.76136ZM9.29421 148.259V155.531H8.44194L4.47887 149.821H4.40785V155.531H3.52717V148.259H4.37944L8.35671 153.983H8.42773V148.259H9.29421ZM10.6587 149.04V148.259H16.1133V149.04H13.8263V155.531H12.9457V149.04H10.6587ZM17.4725 155.531V148.259H21.8617V149.04H18.3532V151.497H21.6344V152.278H18.3532V154.75H21.9185V155.531H17.4725ZM23.449 155.531V148.259H25.9064C26.4746 148.259 26.941 148.356 27.3056 148.55C27.6702 148.741 27.94 149.005 28.1152 149.342C28.2904 149.678 28.378 150.06 28.378 150.489C28.378 150.917 28.2904 151.297 28.1152 151.629C27.94 151.96 27.6713 152.22 27.3091 152.41C26.9469 152.597 26.4841 152.69 25.9206 152.69H23.932V151.895H25.8922C26.2805 151.895 26.593 151.838 26.8297 151.724C27.0688 151.611 27.2417 151.45 27.3482 151.241C27.4571 151.031 27.5115 150.78 27.5115 150.489C27.5115 150.197 27.4571 149.943 27.3482 149.725C27.2393 149.507 27.0653 149.339 26.8262 149.221C26.5871 149.1 26.271 149.04 25.878 149.04H24.3297V155.531H23.449ZM26.8723 152.264L28.6621 155.531H27.6394L25.878 152.264H26.8723ZM30.1438 155.531H29.2205L31.891 148.259H32.8001L35.4705 155.531H34.5472L32.3739 149.409H32.3171L30.1438 155.531ZM30.4847 152.69H34.2063V153.472H30.4847V152.69ZM42.1138 150.531H41.2331C41.181 150.278 41.0899 150.055 40.9597 149.864C40.8319 149.672 40.6756 149.511 40.4909 149.381C40.3087 149.248 40.1062 149.149 39.8837 149.082C39.6612 149.016 39.4292 148.983 39.1877 148.983C38.7473 148.983 38.3484 149.094 37.9909 149.317C37.6358 149.539 37.3529 149.867 37.1422 150.3C36.9339 150.734 36.8297 151.265 36.8297 151.895C36.8297 152.525 36.9339 153.056 37.1422 153.489C37.3529 153.923 37.6358 154.25 37.9909 154.473C38.3484 154.696 38.7473 154.807 39.1877 154.807C39.4292 154.807 39.6612 154.774 39.8837 154.707C40.1062 154.641 40.3087 154.543 40.4909 154.413C40.6756 154.28 40.8319 154.118 40.9597 153.926C41.0899 153.732 41.181 153.509 41.2331 153.259H42.1138C42.0475 153.63 41.9268 153.963 41.7516 154.256C41.5764 154.55 41.3586 154.8 41.0982 155.006C40.8378 155.209 40.5454 155.364 40.2211 155.471C39.8991 155.577 39.5546 155.631 39.1877 155.631C38.5674 155.631 38.0158 155.479 37.5328 155.176C37.0499 154.873 36.6699 154.442 36.3929 153.884C36.1159 153.325 35.9775 152.662 35.9775 151.895C35.9775 151.128 36.1159 150.465 36.3929 149.906C36.6699 149.348 37.0499 148.917 37.5328 148.614C38.0158 148.311 38.5674 148.159 39.1877 148.159C39.5546 148.159 39.8991 148.212 40.2211 148.319C40.5454 148.425 40.8378 148.582 41.0982 148.788C41.3586 148.991 41.5764 149.24 41.7516 149.533C41.9268 149.825 42.0475 150.157 42.1138 150.531ZM43.1392 149.04V148.259H48.5938V149.04H46.3068V155.531H45.4261V149.04H43.1392ZM50.8336 148.259V155.531H49.9529V148.259H50.8336ZM52.8977 148.259L55.0568 154.381H55.142L57.3011 148.259H58.2244L55.554 155.531H54.6449L51.9744 148.259H52.8977ZM59.3572 155.531V148.259H63.7464V149.04H60.2379V151.497H63.5192V152.278H60.2379V154.75H63.8033V155.531H59.3572ZM70.3906 155.531H68.1463V148.259H70.4901C71.1955 148.259 71.7992 148.404 72.3011 148.695C72.803 148.984 73.1877 149.4 73.4553 149.942C73.7228 150.482 73.8565 151.128 73.8565 151.881C73.8565 152.638 73.7216 153.29 73.4517 153.837C73.1818 154.382 72.7888 154.801 72.2727 155.094C71.7566 155.386 71.1293 155.531 70.3906 155.531ZM69.027 154.75H70.3338C70.9351 154.75 71.4335 154.634 71.8288 154.402C72.2242 154.17 72.5189 153.84 72.7131 153.411C72.9072 152.983 73.0043 152.473 73.0043 151.881C73.0043 151.294 72.9084 150.788 72.7166 150.364C72.5249 149.938 72.2384 149.612 71.8572 149.384C71.4761 149.155 71.0014 149.04 70.4332 149.04H69.027V154.75ZM76.2145 148.259V155.531H75.3338V148.259H76.2145ZM82.9519 150.531C82.8738 150.292 82.7708 150.078 82.6429 149.888C82.5175 149.697 82.3671 149.533 82.1919 149.398C82.0191 149.263 81.8226 149.161 81.6025 149.089C81.3823 149.018 81.1408 148.983 80.878 148.983C80.4471 148.983 80.0553 149.094 79.7026 149.317C79.3498 149.539 79.0693 149.867 78.861 150.3C78.6526 150.734 78.5485 151.265 78.5485 151.895C78.5485 152.525 78.6538 153.056 78.8645 153.489C79.0752 153.923 79.3605 154.25 79.7203 154.473C80.0802 154.696 80.485 154.807 80.9348 154.807C81.3515 154.807 81.7185 154.718 82.0357 154.54C82.3553 154.361 82.6039 154.107 82.7814 153.781C82.9614 153.451 83.0513 153.064 83.0513 152.619L83.3212 152.676H81.1337V151.895H83.9036V152.676C83.9036 153.275 83.7757 153.796 83.5201 154.239C83.2667 154.681 82.9164 155.025 82.4689 155.268C82.0239 155.51 81.5125 155.631 80.9348 155.631C80.2909 155.631 79.7251 155.479 79.2374 155.176C78.7521 154.873 78.3733 154.442 78.101 153.884C77.8311 153.325 77.6962 152.662 77.6962 151.895C77.6962 151.32 77.7731 150.802 77.927 150.343C78.0833 149.881 78.3034 149.488 78.5875 149.164C78.8716 148.84 79.2078 148.591 79.5961 148.418C79.9843 148.246 80.4116 148.159 80.878 148.159C81.2615 148.159 81.619 148.217 81.9505 148.333C82.2843 148.447 82.5814 148.609 82.8418 148.82C83.1046 149.028 83.3236 149.278 83.4988 149.569C83.6739 149.858 83.7947 150.179 83.861 150.531H82.9519ZM86.2926 148.259V155.531H85.4119V148.259H86.2926ZM87.6607 149.04V148.259H93.1152V149.04H90.8283V155.531H89.9476V149.04H87.6607ZM93.9231 155.531H92.9998L95.6703 148.259H96.5794L99.2498 155.531H98.3265L96.1532 149.409H96.0964L93.9231 155.531ZM94.264 152.69H97.9856V153.472H94.264V152.69ZM100.383 155.531V148.259H101.263V154.75H104.644V155.531H100.383ZM114.672 150.531H113.792C113.74 150.278 113.648 150.055 113.518 149.864C113.39 149.672 113.234 149.511 113.05 149.381C112.867 149.248 112.665 149.149 112.442 149.082C112.22 149.016 111.988 148.983 111.746 148.983C111.306 148.983 110.907 149.094 110.55 149.317C110.194 149.539 109.912 149.867 109.701 150.3C109.492 150.734 109.388 151.265 109.388 151.895C109.388 152.525 109.492 153.056 109.701 153.489C109.912 153.923 110.194 154.25 110.55 154.473C110.907 154.696 111.306 154.807 111.746 154.807C111.988 154.807 112.22 154.774 112.442 154.707C112.665 154.641 112.867 154.543 113.05 154.413C113.234 154.28 113.39 154.118 113.518 153.926C113.648 153.732 113.74 153.509 113.792 153.259H114.672C114.606 153.63 114.485 153.963 114.31 154.256C114.135 154.55 113.917 154.8 113.657 155.006C113.396 155.209 113.104 155.364 112.78 155.471C112.458 155.577 112.113 155.631 111.746 155.631C111.126 155.631 110.574 155.479 110.091 155.176C109.608 154.873 109.229 154.442 108.952 153.884C108.675 153.325 108.536 152.662 108.536 151.895C108.536 151.128 108.675 150.465 108.952 149.906C109.229 149.348 109.608 148.917 110.091 148.614C110.574 148.311 111.126 148.159 111.746 148.159C112.113 148.159 112.458 148.212 112.78 148.319C113.104 148.425 113.396 148.582 113.657 148.788C113.917 148.991 114.135 149.24 114.31 149.533C114.485 149.825 114.606 150.157 114.672 150.531ZM116.394 155.531H115.471L118.141 148.259H119.05L121.721 155.531H120.797L118.624 149.409H118.567L116.394 155.531ZM116.735 152.69H120.456V153.472H116.735V152.69ZM121.606 149.04V148.259H127.061V149.04H124.774V155.531H123.893V149.04H121.606ZM127.868 155.531H126.945L129.616 148.259H130.525L133.195 155.531H132.272L130.099 149.409H130.042L127.868 155.531ZM128.209 152.69H131.931V153.472H128.209V152.69ZM134.328 155.531V148.259H135.209V154.75H138.589V155.531H134.328ZM145.806 151.895C145.806 152.662 145.668 153.325 145.391 153.884C145.114 154.442 144.734 154.873 144.251 155.176C143.768 155.479 143.216 155.631 142.596 155.631C141.976 155.631 141.424 155.479 140.941 155.176C140.458 154.873 140.078 154.442 139.801 153.884C139.524 153.325 139.386 152.662 139.386 151.895C139.386 151.128 139.524 150.465 139.801 149.906C140.078 149.348 140.458 148.917 140.941 148.614C141.424 148.311 141.976 148.159 142.596 148.159C143.216 148.159 143.768 148.311 144.251 148.614C144.734 148.917 145.114 149.348 145.391 149.906C145.668 150.465 145.806 151.128 145.806 151.895ZM144.954 151.895C144.954 151.265 144.848 150.734 144.638 150.3C144.429 149.867 144.147 149.539 143.789 149.317C143.434 149.094 143.036 148.983 142.596 148.983C142.156 148.983 141.757 149.094 141.399 149.317C141.044 149.539 140.761 149.867 140.55 150.3C140.342 150.734 140.238 151.265 140.238 151.895C140.238 152.525 140.342 153.056 140.55 153.489C140.761 153.923 141.044 154.25 141.399 154.473C141.757 154.696 142.156 154.807 142.596 154.807C143.036 154.807 143.434 154.696 143.789 154.473C144.147 154.25 144.429 153.923 144.638 153.489C144.848 153.056 144.954 152.525 144.954 151.895ZM152.259 150.531C152.18 150.292 152.077 150.078 151.95 149.888C151.824 149.697 151.674 149.533 151.499 149.398C151.326 149.263 151.129 149.161 150.909 149.089C150.689 149.018 150.447 148.983 150.185 148.983C149.754 148.983 149.362 149.094 149.009 149.317C148.656 149.539 148.376 149.867 148.168 150.3C147.959 150.734 147.855 151.265 147.855 151.895C147.855 152.525 147.96 153.056 148.171 153.489C148.382 153.923 148.667 154.25 149.027 154.473C149.387 154.696 149.792 154.807 150.241 154.807C150.658 154.807 151.025 154.718 151.342 154.54C151.662 154.361 151.911 154.107 152.088 153.781C152.268 153.451 152.358 153.064 152.358 152.619L152.628 152.676H150.44V151.895H153.21V152.676C153.21 153.275 153.082 153.796 152.827 154.239C152.573 154.681 152.223 155.025 151.776 155.268C151.33 155.51 150.819 155.631 150.241 155.631C149.598 155.631 149.032 155.479 148.544 155.176C148.059 154.873 147.68 154.442 147.408 153.884C147.138 153.325 147.003 152.662 147.003 151.895C147.003 151.32 147.08 150.802 147.234 150.343C147.39 149.881 147.61 149.488 147.894 149.164C148.178 148.84 148.514 148.591 148.903 148.418C149.291 148.246 149.718 148.159 150.185 148.159C150.568 148.159 150.926 148.217 151.257 148.333C151.591 148.447 151.888 148.609 152.148 148.82C152.411 149.028 152.63 149.278 152.805 149.569C152.981 149.858 153.101 150.179 153.168 150.531H152.259ZM159.491 148.259H160.372V153.074C160.372 153.571 160.255 154.015 160.02 154.406C159.788 154.794 159.461 155.1 159.037 155.325C158.613 155.548 158.116 155.659 157.545 155.659C156.975 155.659 156.478 155.548 156.054 155.325C155.63 155.1 155.301 154.794 155.067 154.406C154.835 154.015 154.719 153.571 154.719 153.074V148.259H155.599V153.003C155.599 153.358 155.677 153.674 155.834 153.951C155.99 154.226 156.212 154.442 156.501 154.601C156.792 154.757 157.14 154.835 157.545 154.835C157.95 154.835 158.298 154.757 158.589 154.601C158.881 154.442 159.103 154.226 159.257 153.951C159.413 153.674 159.491 153.358 159.491 153.003V148.259ZM162.131 155.531V148.259H166.52V149.04H163.011V151.497H166.293V152.278H163.011V154.75H166.577V155.531H162.131ZM172.085 150.077C172.042 149.717 171.869 149.438 171.566 149.239C171.263 149.04 170.891 148.94 170.451 148.94C170.129 148.94 169.847 148.992 169.606 149.097C169.367 149.201 169.18 149.344 169.045 149.526C168.912 149.709 168.846 149.916 168.846 150.148C168.846 150.342 168.892 150.509 168.984 150.648C169.079 150.786 169.2 150.901 169.347 150.993C169.493 151.083 169.647 151.157 169.808 151.217C169.969 151.273 170.117 151.32 170.252 151.355L170.991 151.554C171.18 151.604 171.391 151.672 171.623 151.76C171.857 151.848 172.081 151.967 172.294 152.119C172.509 152.268 172.687 152.46 172.827 152.694C172.966 152.928 173.036 153.216 173.036 153.557C173.036 153.95 172.933 154.305 172.727 154.622C172.524 154.939 172.225 155.192 171.832 155.379C171.442 155.566 170.967 155.659 170.408 155.659C169.888 155.659 169.437 155.575 169.055 155.407C168.677 155.239 168.378 155.004 168.161 154.704C167.945 154.403 167.823 154.054 167.795 153.656H168.704C168.728 153.931 168.82 154.158 168.981 154.338C169.144 154.516 169.35 154.648 169.599 154.736C169.85 154.821 170.12 154.864 170.408 154.864C170.745 154.864 171.046 154.809 171.314 154.7C171.581 154.589 171.793 154.435 171.95 154.239C172.106 154.04 172.184 153.808 172.184 153.543C172.184 153.301 172.116 153.105 171.982 152.953C171.847 152.802 171.669 152.679 171.449 152.584C171.229 152.489 170.991 152.406 170.735 152.335L169.84 152.08C169.272 151.916 168.822 151.683 168.491 151.38C168.159 151.077 167.994 150.68 167.994 150.19C167.994 149.783 168.104 149.428 168.324 149.125C168.546 148.82 168.845 148.583 169.219 148.415C169.595 148.244 170.015 148.159 170.479 148.159C170.948 148.159 171.365 148.243 171.729 148.411C172.094 148.577 172.383 148.804 172.596 149.093C172.811 149.382 172.925 149.71 172.937 150.077H172.085ZM175.621 154.537L175.564 154.92C175.523 155.19 175.462 155.479 175.379 155.787C175.299 156.095 175.215 156.385 175.127 156.657C175.039 156.929 174.967 157.146 174.91 157.307H174.271C174.302 157.155 174.342 156.955 174.392 156.707C174.442 156.458 174.491 156.18 174.541 155.872C174.593 155.567 174.636 155.254 174.669 154.935L174.711 154.537H175.621ZM180.398 155.531H179.474L182.145 148.259H183.054L185.724 155.531H184.801L182.628 149.409H182.571L180.398 155.531ZM180.739 152.69H184.46V153.472H180.739V152.69ZM186.857 155.531V148.259H189.315C189.883 148.259 190.349 148.356 190.714 148.55C191.078 148.741 191.348 149.005 191.523 149.342C191.699 149.678 191.786 150.06 191.786 150.489C191.786 150.917 191.699 151.297 191.523 151.629C191.348 151.96 191.08 152.22 190.717 152.41C190.355 152.597 189.892 152.69 189.329 152.69H187.34V151.895H189.3C189.689 151.895 190.001 151.838 190.238 151.724C190.477 151.611 190.65 151.45 190.756 151.241C190.865 151.031 190.92 150.78 190.92 150.489C190.92 150.197 190.865 149.943 190.756 149.725C190.647 149.507 190.473 149.339 190.234 149.221C189.995 149.1 189.679 149.04 189.286 149.04H187.738V155.531H186.857ZM190.281 152.264L192.07 155.531H191.048L189.286 152.264H190.281ZM195.711 147.918L193.367 156.625H192.6L194.944 147.918H195.711ZM197.116 148.259L199.276 154.381H199.361L201.52 148.259H202.443L199.773 155.531H198.864L196.193 148.259H197.116ZM203.576 155.531V148.259H206.033C206.602 148.259 207.068 148.356 207.433 148.55C207.797 148.741 208.067 149.005 208.242 149.342C208.417 149.678 208.505 150.06 208.505 150.489C208.505 150.917 208.417 151.297 208.242 151.629C208.067 151.96 207.798 152.22 207.436 152.41C207.074 152.597 206.611 152.69 206.048 152.69H204.059V151.895H206.019C206.407 151.895 206.72 151.838 206.957 151.724C207.196 151.611 207.369 151.45 207.475 151.241C207.584 151.031 207.638 150.78 207.638 150.489C207.638 150.197 207.584 149.943 207.475 149.725C207.366 149.507 207.192 149.339 206.953 149.221C206.714 149.1 206.398 149.04 206.005 149.04H204.457V155.531H203.576ZM206.999 152.264L208.789 155.531H207.766L206.005 152.264H206.999ZM4.85795 164.077C4.81534 163.717 4.64252 163.438 4.33949 163.239C4.03646 163.04 3.66477 162.94 3.22443 162.94C2.90246 162.94 2.62074 162.992 2.37926 163.097C2.14015 163.201 1.95313 163.344 1.81818 163.526C1.68561 163.709 1.61932 163.916 1.61932 164.148C1.61932 164.342 1.66548 164.509 1.75781 164.648C1.85251 164.786 1.97325 164.901 2.12003 164.993C2.26681 165.083 2.42069 165.157 2.58168 165.217C2.74266 165.273 2.89062 165.32 3.02557 165.355L3.7642 165.554C3.9536 165.604 4.1643 165.672 4.39631 165.76C4.63068 165.848 4.8544 165.967 5.06747 166.119C5.28291 166.268 5.46046 166.46 5.60014 166.694C5.73982 166.928 5.80966 167.216 5.80966 167.557C5.80966 167.95 5.70668 168.305 5.50071 168.622C5.29711 168.939 4.99882 169.192 4.60582 169.379C4.2152 169.566 3.74053 169.659 3.18182 169.659C2.66098 169.659 2.20999 169.575 1.82884 169.407C1.45005 169.239 1.15175 169.004 0.933949 168.704C0.718513 168.403 0.596591 168.054 0.568182 167.656H1.47727C1.50095 167.931 1.59328 168.158 1.75426 168.338C1.91761 168.516 2.12358 168.648 2.37216 168.736C2.62311 168.821 2.89299 168.864 3.18182 168.864C3.51799 168.864 3.81984 168.809 4.08736 168.7C4.35488 168.589 4.56676 168.435 4.72301 168.239C4.87926 168.04 4.95739 167.808 4.95739 167.543C4.95739 167.301 4.88991 167.105 4.75497 166.953C4.62003 166.802 4.44247 166.679 4.2223 166.584C4.00213 166.489 3.7642 166.406 3.50852 166.335L2.61364 166.08C2.04545 165.916 1.59564 165.683 1.2642 165.38C0.932765 165.077 0.767045 164.68 0.767045 164.19C0.767045 163.783 0.877131 163.428 1.0973 163.125C1.31984 162.82 1.61813 162.583 1.99219 162.415C2.36861 162.244 2.78883 162.159 3.25284 162.159C3.72159 162.159 4.13826 162.243 4.50284 162.411C4.86742 162.577 5.15625 162.804 5.36932 163.093C5.58475 163.382 5.69839 163.71 5.71023 164.077H4.85795ZM13.394 165.895C13.394 166.662 13.2555 167.325 12.9785 167.884C12.7015 168.442 12.3216 168.873 11.8386 169.176C11.3556 169.479 10.804 169.631 10.1838 169.631C9.56351 169.631 9.0119 169.479 8.52894 169.176C8.04599 168.873 7.66602 168.442 7.38903 167.884C7.11204 167.325 6.97354 166.662 6.97354 165.895C6.97354 165.128 7.11204 164.465 7.38903 163.906C7.66602 163.348 8.04599 162.917 8.52894 162.614C9.0119 162.311 9.56351 162.159 10.1838 162.159C10.804 162.159 11.3556 162.311 11.8386 162.614C12.3216 162.917 12.7015 163.348 12.9785 163.906C13.2555 164.465 13.394 165.128 13.394 165.895ZM12.5417 165.895C12.5417 165.265 12.4364 164.734 12.2257 164.3C12.0173 163.867 11.7344 163.539 11.377 163.317C11.0218 163.094 10.6241 162.983 10.1838 162.983C9.74343 162.983 9.34452 163.094 8.98704 163.317C8.63192 163.539 8.34902 163.867 8.13832 164.3C7.92998 164.734 7.82582 165.265 7.82582 165.895C7.82582 166.525 7.92998 167.056 8.13832 167.489C8.34902 167.923 8.63192 168.25 8.98704 168.473C9.34452 168.696 9.74343 168.807 10.1838 168.807C10.6241 168.807 11.0218 168.696 11.377 168.473C11.7344 168.25 12.0173 167.923 12.2257 167.489C12.4364 167.056 12.5417 166.525 12.5417 165.895ZM14.8748 169.531V162.259H15.7555V168.75H19.1362V169.531H14.8748ZM25.2725 162.259H26.1532V167.074C26.1532 167.571 26.036 168.015 25.8017 168.406C25.5697 168.794 25.2418 169.1 24.818 169.325C24.3942 169.548 23.8971 169.659 23.3265 169.659C22.756 169.659 22.2588 169.548 21.835 169.325C21.4113 169.1 21.0822 168.794 20.8478 168.406C20.6158 168.015 20.4998 167.571 20.4998 167.074V162.259H21.3805V167.003C21.3805 167.358 21.4586 167.674 21.6149 167.951C21.7711 168.226 21.9937 168.442 22.2825 168.601C22.5737 168.757 22.9217 168.835 23.3265 168.835C23.7314 168.835 24.0794 168.757 24.3706 168.601C24.6618 168.442 24.8843 168.226 25.0382 167.951C25.1944 167.674 25.2725 167.358 25.2725 167.003V162.259ZM27.5142 163.04V162.259H32.9688V163.04H30.6818V169.531H29.8011V163.04H27.5142ZM35.2086 162.259V169.531H34.3279V162.259H35.2086ZM43.1108 165.895C43.1108 166.662 42.9723 167.325 42.6953 167.884C42.4183 168.442 42.0384 168.873 41.5554 169.176C41.0724 169.479 40.5208 169.631 39.9006 169.631C39.2803 169.631 38.7287 169.479 38.2457 169.176C37.7628 168.873 37.3828 168.442 37.1058 167.884C36.8288 167.325 36.6903 166.662 36.6903 165.895C36.6903 165.128 36.8288 164.465 37.1058 163.906C37.3828 163.348 37.7628 162.917 38.2457 162.614C38.7287 162.311 39.2803 162.159 39.9006 162.159C40.5208 162.159 41.0724 162.311 41.5554 162.614C42.0384 162.917 42.4183 163.348 42.6953 163.906C42.9723 164.465 43.1108 165.128 43.1108 165.895ZM42.2585 165.895C42.2585 165.265 42.1532 164.734 41.9425 164.3C41.7341 163.867 41.4512 163.539 41.0938 163.317C40.7386 163.094 40.3409 162.983 39.9006 162.983C39.4602 162.983 39.0613 163.094 38.7038 163.317C38.3487 163.539 38.0658 163.867 37.8551 164.3C37.6468 164.734 37.5426 165.265 37.5426 165.895C37.5426 166.525 37.6468 167.056 37.8551 167.489C38.0658 167.923 38.3487 168.25 38.7038 168.473C39.0613 168.696 39.4602 168.807 39.9006 168.807C40.3409 168.807 40.7386 168.696 41.0938 168.473C41.4512 168.25 41.7341 167.923 41.9425 167.489C42.1532 167.056 42.2585 166.525 42.2585 165.895ZM50.3587 162.259V169.531H49.5064L45.5433 163.821H45.4723V169.531H44.5916V162.259H45.4439L49.4212 167.983H49.4922V162.259H50.3587ZM56.0982 164.077C56.0556 163.717 55.8828 163.438 55.5797 163.239C55.2767 163.04 54.905 162.94 54.4647 162.94C54.1427 162.94 53.861 162.992 53.6195 163.097C53.3804 163.201 53.1934 163.344 53.0584 163.526C52.9258 163.709 52.8596 163.916 52.8596 164.148C52.8596 164.342 52.9057 164.509 52.998 164.648C53.0927 164.786 53.2135 164.901 53.3603 164.993C53.507 165.083 53.6609 165.157 53.8219 165.217C53.9829 165.273 54.1309 165.32 54.2658 165.355L55.0044 165.554C55.1938 165.604 55.4045 165.672 55.6365 165.76C55.8709 165.848 56.0946 165.967 56.3077 166.119C56.5231 166.268 56.7007 166.46 56.8404 166.694C56.9801 166.928 57.0499 167.216 57.0499 167.557C57.0499 167.95 56.9469 168.305 56.7409 168.622C56.5373 168.939 56.2391 169.192 55.8461 169.379C55.4554 169.566 54.9808 169.659 54.4221 169.659C53.9012 169.659 53.4502 169.575 53.0691 169.407C52.6903 169.239 52.392 169.004 52.1742 168.704C51.9587 168.403 51.8368 168.054 51.8084 167.656H52.7175C52.7412 167.931 52.8335 168.158 52.9945 168.338C53.1578 168.516 53.3638 168.648 53.6124 168.736C53.8633 168.821 54.1332 168.864 54.4221 168.864C54.7582 168.864 55.0601 168.809 55.3276 168.7C55.5951 168.589 55.807 168.435 55.9632 168.239C56.1195 168.04 56.1976 167.808 56.1976 167.543C56.1976 167.301 56.1301 167.105 55.9952 166.953C55.8603 166.802 55.6827 166.679 55.4625 166.584C55.2424 166.489 55.0044 166.406 54.7488 166.335L53.8539 166.08C53.2857 165.916 52.8359 165.683 52.5044 165.38C52.173 165.077 52.0073 164.68 52.0073 164.19C52.0073 163.783 52.1174 163.428 52.3375 163.125C52.5601 162.82 52.8584 162.583 53.2324 162.415C53.6088 162.244 54.0291 162.159 54.4931 162.159C54.9618 162.159 55.3785 162.243 55.7431 162.411C56.1077 162.577 56.3965 162.804 56.6096 163.093C56.825 163.382 56.9386 163.71 56.9505 164.077H56.0982ZM59.6342 168.537L59.5774 168.92C59.5372 169.19 59.4756 169.479 59.3928 169.787C59.3123 170.095 59.2282 170.385 59.1406 170.657C59.053 170.929 58.9808 171.146 58.924 171.307H58.2848C58.3156 171.155 58.3558 170.955 58.4055 170.707C58.4553 170.458 58.505 170.18 58.5547 169.872C58.6068 169.567 58.6494 169.254 58.6825 168.935L58.7251 168.537H59.6342ZM1.17898 183.531H0.255682L2.92614 176.259H3.83523L6.50568 183.531H5.58239L3.40909 177.409H3.35227L1.17898 183.531ZM1.51989 180.69H5.24148V181.472H1.51989V180.69ZM13.4055 176.259V183.531H12.5533L8.5902 177.821H8.51918V183.531H7.63849V176.259H8.49077L12.468 181.983H12.5391V176.259H13.4055ZM17.4121 183.531H15.1678V176.259H17.5115C18.217 176.259 18.8207 176.404 19.3226 176.695C19.8245 176.984 20.2092 177.4 20.4767 177.942C20.7443 178.482 20.878 179.128 20.878 179.881C20.878 180.638 20.7431 181.29 20.4732 181.837C20.2033 182.382 19.8103 182.801 19.2942 183.094C18.7781 183.386 18.1507 183.531 17.4121 183.531ZM16.0485 182.75H17.3553C17.9566 182.75 18.455 182.634 18.8503 182.402C19.2457 182.17 19.5404 181.84 19.7346 181.411C19.9287 180.983 20.0257 180.473 20.0257 179.881C20.0257 179.294 19.9299 178.788 19.7381 178.364C19.5463 177.938 19.2599 177.612 18.8787 177.384C18.4976 177.155 18.0229 177.04 17.4547 177.04H16.0485V182.75ZM27.4973 183.631C27.0286 183.631 26.6107 183.55 26.2438 183.389C25.8792 183.228 25.5892 183.004 25.3738 182.718C25.1607 182.429 25.0447 182.094 25.0257 181.713H25.9206C25.9396 181.947 26.0201 182.15 26.1621 182.32C26.3042 182.488 26.49 182.619 26.7196 182.711C26.9493 182.803 27.2038 182.849 27.4831 182.849C27.7956 182.849 28.0726 182.795 28.3141 182.686C28.5556 182.577 28.745 182.426 28.8823 182.232C29.0196 182.037 29.0882 181.812 29.0882 181.557C29.0882 181.289 29.022 181.054 28.8894 180.85C28.7568 180.644 28.5627 180.483 28.307 180.367C28.0513 180.251 27.7388 180.193 27.3695 180.193H26.7871V179.412H27.3695C27.6583 179.412 27.9116 179.36 28.1294 179.256C28.3496 179.152 28.5212 179.005 28.6444 178.815C28.7698 178.626 28.8326 178.403 28.8326 178.148C28.8326 177.902 28.7781 177.687 28.6692 177.505C28.5603 177.323 28.4064 177.181 28.2076 177.079C28.0111 176.977 27.7791 176.926 27.5115 176.926C27.2606 176.926 27.0239 176.972 26.8013 177.065C26.5811 177.155 26.4012 177.286 26.2615 177.459C26.1219 177.629 26.0461 177.835 26.0343 178.077H25.182C25.1962 177.696 25.311 177.362 25.5265 177.075C25.7419 176.786 26.0236 176.562 26.3716 176.401C26.722 176.24 27.1067 176.159 27.5257 176.159C27.9756 176.159 28.3614 176.25 28.6834 176.433C29.0054 176.612 29.2528 176.85 29.4256 177.146C29.5984 177.442 29.6848 177.762 29.6848 178.105C29.6848 178.515 29.5771 178.864 29.3617 179.153C29.1486 179.442 28.8586 179.642 28.4917 179.753V179.81C28.9509 179.885 29.3096 180.081 29.5676 180.396C29.8257 180.708 29.9547 181.095 29.9547 181.557C29.9547 181.952 29.847 182.307 29.6316 182.622C29.4185 182.935 29.1273 183.181 28.758 183.361C28.3887 183.541 27.9685 183.631 27.4973 183.631ZM33.7793 183.531H31.535V176.259H33.8787C34.5842 176.259 35.1879 176.404 35.6898 176.695C36.1917 176.984 36.5764 177.4 36.8439 177.942C37.1114 178.482 37.2452 179.128 37.2452 179.881C37.2452 180.638 37.1103 181.29 36.8404 181.837C36.5705 182.382 36.1775 182.801 35.6614 183.094C35.1453 183.386 34.5179 183.531 33.7793 183.531ZM32.4157 182.75H33.7225C34.3238 182.75 34.8221 182.634 35.2175 182.402C35.6129 182.17 35.9076 181.84 36.1017 181.411C36.2959 180.983 36.3929 180.473 36.3929 179.881C36.3929 179.294 36.2971 178.788 36.1053 178.364C35.9135 177.938 35.6271 177.612 35.2459 177.384C34.8648 177.155 34.3901 177.04 33.8219 177.04H32.4157V182.75ZM41.535 183.531V176.259H43.9924C44.5629 176.259 45.0293 176.362 45.3915 176.567C45.7561 176.771 46.026 177.047 46.2012 177.395C46.3764 177.743 46.464 178.131 46.464 178.56C46.464 178.988 46.3764 179.378 46.2012 179.728C46.0284 180.078 45.7608 180.358 45.3986 180.566C45.0364 180.772 44.5724 180.875 44.0066 180.875H42.2452V180.094H43.9782C44.3688 180.094 44.6825 180.026 44.9192 179.891C45.156 179.756 45.3276 179.574 45.4341 179.344C45.543 179.112 45.5975 178.851 45.5975 178.56C45.5975 178.268 45.543 178.008 45.4341 177.778C45.3276 177.549 45.1548 177.369 44.9157 177.239C44.6766 177.106 44.3593 177.04 43.964 177.04H42.4157V183.531H41.535ZM47.8826 183.531V176.259H50.34C50.9082 176.259 51.3746 176.356 51.7392 176.55C52.1038 176.741 52.3736 177.005 52.5488 177.342C52.724 177.678 52.8116 178.06 52.8116 178.489C52.8116 178.917 52.724 179.297 52.5488 179.629C52.3736 179.96 52.1049 180.22 51.7427 180.41C51.3805 180.597 50.9177 180.69 50.3542 180.69H48.3656V179.895H50.3258C50.7141 179.895 51.0266 179.838 51.2633 179.724C51.5024 179.611 51.6752 179.45 51.7818 179.241C51.8907 179.031 51.9451 178.78 51.9451 178.489C51.9451 178.197 51.8907 177.943 51.7818 177.725C51.6729 177.507 51.4989 177.339 51.2598 177.221C51.0207 177.1 50.7046 177.04 50.3116 177.04H48.7633V183.531H47.8826ZM51.3059 180.264L53.0957 183.531H52.073L50.3116 180.264H51.3059ZM60.4155 179.895C60.4155 180.662 60.277 181.325 60 181.884C59.723 182.442 59.343 182.873 58.8601 183.176C58.3771 183.479 57.8255 183.631 57.2053 183.631C56.585 183.631 56.0334 183.479 55.5504 183.176C55.0675 182.873 54.6875 182.442 54.4105 181.884C54.1335 181.325 53.995 180.662 53.995 179.895C53.995 179.128 54.1335 178.465 54.4105 177.906C54.6875 177.348 55.0675 176.917 55.5504 176.614C56.0334 176.311 56.585 176.159 57.2053 176.159C57.8255 176.159 58.3771 176.311 58.8601 176.614C59.343 176.917 59.723 177.348 60 177.906C60.277 178.465 60.4155 179.128 60.4155 179.895ZM59.5632 179.895C59.5632 179.265 59.4579 178.734 59.2472 178.3C59.0388 177.867 58.7559 177.539 58.3984 177.317C58.0433 177.094 57.6456 176.983 57.2053 176.983C56.7649 176.983 56.366 177.094 56.0085 177.317C55.6534 177.539 55.3705 177.867 55.1598 178.3C54.9515 178.734 54.8473 179.265 54.8473 179.895C54.8473 180.525 54.9515 181.056 55.1598 181.489C55.3705 181.923 55.6534 182.25 56.0085 182.473C56.366 182.696 56.7649 182.807 57.2053 182.807C57.6456 182.807 58.0433 182.696 58.3984 182.473C58.7559 182.25 59.0388 181.923 59.2472 181.489C59.4579 181.056 59.5632 180.525 59.5632 179.895ZM64.1406 183.531H61.8963V176.259H64.2401C64.9455 176.259 65.5492 176.404 66.0511 176.695C66.553 176.984 66.9377 177.4 67.2053 177.942C67.4728 178.482 67.6065 179.128 67.6065 179.881C67.6065 180.638 67.4716 181.29 67.2017 181.837C66.9318 182.382 66.5388 182.801 66.0227 183.094C65.5066 183.386 64.8793 183.531 64.1406 183.531ZM62.777 182.75H64.0838C64.6851 182.75 65.1835 182.634 65.5788 182.402C65.9742 182.17 66.2689 181.84 66.4631 181.411C66.6572 180.983 66.7543 180.473 66.7543 179.881C66.7543 179.294 66.6584 178.788 66.4666 178.364C66.2749 177.938 65.9884 177.612 65.6072 177.384C65.2261 177.155 64.7514 177.04 64.1832 177.04H62.777V182.75ZM73.8565 176.259H74.7372V181.074C74.7372 181.571 74.62 182.015 74.3857 182.406C74.1536 182.794 73.8258 183.1 73.402 183.325C72.9782 183.548 72.4811 183.659 71.9105 183.659C71.34 183.659 70.8428 183.548 70.419 183.325C69.9953 183.1 69.6662 182.794 69.4318 182.406C69.1998 182.015 69.0838 181.571 69.0838 181.074V176.259H69.9645V181.003C69.9645 181.358 70.0426 181.674 70.1989 181.951C70.3551 182.226 70.5777 182.442 70.8665 182.601C71.1577 182.757 71.5057 182.835 71.9105 182.835C72.3153 182.835 72.6634 182.757 72.9545 182.601C73.2457 182.442 73.4683 182.226 73.6222 181.951C73.7784 181.674 73.8565 181.358 73.8565 181.003V176.259ZM82.3482 178.531H81.4675C81.4154 178.278 81.3243 178.055 81.1941 177.864C81.0662 177.672 80.91 177.511 80.7253 177.381C80.543 177.248 80.3406 177.149 80.1181 177.082C79.8955 177.016 79.6635 176.983 79.4221 176.983C78.9817 176.983 78.5828 177.094 78.2253 177.317C77.8702 177.539 77.5873 177.867 77.3766 178.3C77.1683 178.734 77.0641 179.265 77.0641 179.895C77.0641 180.525 77.1683 181.056 77.3766 181.489C77.5873 181.923 77.8702 182.25 78.2253 182.473C78.5828 182.696 78.9817 182.807 79.4221 182.807C79.6635 182.807 79.8955 182.774 80.1181 182.707C80.3406 182.641 80.543 182.543 80.7253 182.413C80.91 182.28 81.0662 182.118 81.1941 181.926C81.3243 181.732 81.4154 181.509 81.4675 181.259H82.3482C82.2819 181.63 82.1612 181.963 81.986 182.256C81.8108 182.55 81.593 182.8 81.3326 183.006C81.0721 183.209 80.7798 183.364 80.4554 183.471C80.1335 183.577 79.789 183.631 79.4221 183.631C78.8018 183.631 78.2502 183.479 77.7672 183.176C77.2843 182.873 76.9043 182.442 76.6273 181.884C76.3503 181.325 76.2118 180.662 76.2118 179.895C76.2118 179.128 76.3503 178.465 76.6273 177.906C76.9043 177.348 77.2843 176.917 77.7672 176.614C78.2502 176.311 78.8018 176.159 79.4221 176.159C79.789 176.159 80.1335 176.212 80.4554 176.319C80.7798 176.425 81.0721 176.582 81.3326 176.788C81.593 176.991 81.8108 177.24 81.986 177.533C82.1612 177.825 82.2819 178.157 82.3482 178.531ZM83.3736 177.04V176.259H88.8281V177.04H86.5412V183.531H85.6605V177.04H83.3736ZM92.9998 183.531V176.259H97.389V177.04H93.8805V179.497H97.1618V180.278H93.8805V182.75H97.4458V183.531H92.9998ZM99.4025 176.259L101.278 179.284H101.334L103.209 176.259H104.246L101.959 179.895L104.246 183.531H103.209L101.334 180.562H101.278L99.4025 183.531H98.3656L100.709 179.895L98.3656 176.259H99.4025ZM105.392 183.531V176.259H107.85C108.42 176.259 108.887 176.362 109.249 176.567C109.614 176.771 109.883 177.047 110.059 177.395C110.234 177.743 110.321 178.131 110.321 178.56C110.321 178.988 110.234 179.378 110.059 179.728C109.886 180.078 109.618 180.358 109.256 180.566C108.894 180.772 108.43 180.875 107.864 180.875H106.103V180.094H107.836C108.226 180.094 108.54 180.026 108.777 179.891C109.013 179.756 109.185 179.574 109.292 179.344C109.4 179.112 109.455 178.851 109.455 178.56C109.455 178.268 109.4 178.008 109.292 177.778C109.185 177.549 109.012 177.369 108.773 177.239C108.534 177.106 108.217 177.04 107.821 177.04H106.273V183.531H105.392ZM111.74 183.531V176.259H116.129V177.04H112.621V179.497H115.902V180.278H112.621V182.75H116.186V183.531H111.74ZM117.717 183.531V176.259H120.174C120.742 176.259 121.209 176.356 121.573 176.55C121.938 176.741 122.208 177.005 122.383 177.342C122.558 177.678 122.646 178.06 122.646 178.489C122.646 178.917 122.558 179.297 122.383 179.629C122.208 179.96 121.939 180.22 121.577 180.41C121.214 180.597 120.752 180.69 120.188 180.69H118.2V179.895H120.16C120.548 179.895 120.861 179.838 121.097 179.724C121.336 179.611 121.509 179.45 121.616 179.241C121.725 179.031 121.779 178.78 121.779 178.489C121.779 178.197 121.725 177.943 121.616 177.725C121.507 177.507 121.333 177.339 121.094 177.221C120.855 177.1 120.539 177.04 120.146 177.04H118.597V183.531H117.717ZM121.14 180.264L122.93 183.531H121.907L120.146 180.264H121.14ZM124.994 176.259V183.531H124.113V176.259H124.994ZM126.76 183.531V176.259H131.149V177.04H127.64V179.497H130.922V180.278H127.64V182.75H131.206V183.531H126.76ZM138.503 176.259V183.531H137.651L133.688 177.821H133.617V183.531H132.736V176.259H133.588L137.566 181.983H137.637V176.259H138.503ZM146.118 178.531H145.237C145.185 178.278 145.094 178.055 144.964 177.864C144.836 177.672 144.68 177.511 144.495 177.381C144.313 177.248 144.11 177.149 143.888 177.082C143.665 177.016 143.433 176.983 143.192 176.983C142.751 176.983 142.352 177.094 141.995 177.317C141.64 177.539 141.357 177.867 141.146 178.3C140.938 178.734 140.834 179.265 140.834 179.895C140.834 180.525 140.938 181.056 141.146 181.489C141.357 181.923 141.64 182.25 141.995 182.473C142.352 182.696 142.751 182.807 143.192 182.807C143.433 182.807 143.665 182.774 143.888 182.707C144.11 182.641 144.313 182.543 144.495 182.413C144.68 182.28 144.836 182.118 144.964 181.926C145.094 181.732 145.185 181.509 145.237 181.259H146.118C146.051 181.63 145.931 181.963 145.756 182.256C145.58 182.55 145.363 182.8 145.102 183.006C144.842 183.209 144.549 183.364 144.225 183.471C143.903 183.577 143.559 183.631 143.192 183.631C142.571 183.631 142.02 183.479 141.537 183.176C141.054 182.873 140.674 182.442 140.397 181.884C140.12 181.325 139.981 180.662 139.981 179.895C139.981 179.128 140.12 178.465 140.397 177.906C140.674 177.348 141.054 176.917 141.537 176.614C142.02 176.311 142.571 176.159 143.192 176.159C143.559 176.159 143.903 176.212 144.225 176.319C144.549 176.425 144.842 176.582 145.102 176.788C145.363 176.991 145.58 177.24 145.756 177.533C145.931 177.825 146.051 178.157 146.118 178.531ZM147.541 183.531V176.259H151.93V177.04H148.422V179.497H151.703V180.278H148.422V182.75H151.987V183.531H147.541ZM157.495 178.077C157.452 177.717 157.279 177.438 156.976 177.239C156.673 177.04 156.301 176.94 155.861 176.94C155.539 176.94 155.257 176.992 155.016 177.097C154.777 177.201 154.59 177.344 154.455 177.526C154.322 177.709 154.256 177.916 154.256 178.148C154.256 178.342 154.302 178.509 154.395 178.648C154.489 178.786 154.61 178.901 154.757 178.993C154.904 179.083 155.057 179.157 155.218 179.217C155.379 179.273 155.527 179.32 155.662 179.355L156.401 179.554C156.59 179.604 156.801 179.672 157.033 179.76C157.267 179.848 157.491 179.967 157.704 180.119C157.92 180.268 158.097 180.46 158.237 180.694C158.377 180.928 158.446 181.216 158.446 181.557C158.446 181.95 158.343 182.305 158.137 182.622C157.934 182.939 157.636 183.192 157.243 183.379C156.852 183.566 156.377 183.659 155.819 183.659C155.298 183.659 154.847 183.575 154.466 183.407C154.087 183.239 153.788 183.004 153.571 182.704C153.355 182.403 153.233 182.054 153.205 181.656H154.114C154.138 181.931 154.23 182.158 154.391 182.338C154.554 182.516 154.76 182.648 155.009 182.736C155.26 182.821 155.53 182.864 155.819 182.864C156.155 182.864 156.457 182.809 156.724 182.7C156.992 182.589 157.203 182.435 157.36 182.239C157.516 182.04 157.594 181.808 157.594 181.543C157.594 181.301 157.527 181.105 157.392 180.953C157.257 180.802 157.079 180.679 156.859 180.584C156.639 180.489 156.401 180.406 156.145 180.335L155.25 180.08C154.682 179.916 154.232 179.683 153.901 179.38C153.569 179.077 153.404 178.68 153.404 178.19C153.404 177.783 153.514 177.428 153.734 177.125C153.957 176.82 154.255 176.583 154.629 176.415C155.005 176.244 155.426 176.159 155.89 176.159C156.358 176.159 156.775 176.243 157.14 176.411C157.504 176.577 157.793 176.804 158.006 177.093C158.221 177.382 158.335 177.71 158.347 178.077H157.495ZM160.392 183.588C160.216 183.588 160.066 183.525 159.941 183.4C159.815 183.274 159.752 183.124 159.752 182.949C159.752 182.774 159.815 182.623 159.941 182.498C160.066 182.372 160.216 182.31 160.392 182.31C160.567 182.31 160.717 182.372 160.843 182.498C160.968 182.623 161.031 182.774 161.031 182.949C161.031 183.065 161.001 183.171 160.942 183.268C160.885 183.366 160.808 183.444 160.711 183.503C160.616 183.56 160.51 183.588 160.392 183.588Z" fill="#3B3B3B"/>
</svg>
