<svg width="134" height="157" viewBox="0 0 134 157" fill="none" xmlns="http://www.w3.org/2000/svg">
<rect width="39" height="39" rx="19.5" fill="url(#paint0_linear_1752_225)"/>
<path d="M17.9197 25.0513V14.7767L17.0262 15.6701C16.8443 15.8521 16.6169 15.9431 16.3443 15.9431C16.0716 15.9431 15.8356 15.8438 15.6364 15.6453C15.4544 15.4633 15.3634 15.2316 15.3634 14.9504C15.3634 14.6691 15.4544 14.4375 15.6364 14.2555L18.2175 11.6744C18.3168 11.5751 18.4243 11.5047 18.5401 11.463C18.656 11.4213 18.7801 11.4011 18.9124 11.4024C19.0448 11.4037 19.1689 11.4246 19.2847 11.4649C19.4005 11.5053 19.508 11.5755 19.6073 11.6754L22.1884 14.2565C22.3704 14.4385 22.4614 14.6661 22.4614 14.9395C22.4614 15.2128 22.3704 15.4481 22.1884 15.6453C21.9898 15.8438 21.7542 15.9431 21.4816 15.9431C21.2089 15.9431 20.973 15.8438 20.7738 15.6453L19.9051 14.7767V25.0513L20.7986 24.1578C20.9806 23.9758 21.2082 23.8848 21.4816 23.8848C21.7549 23.8848 21.9905 23.9841 22.1884 24.1827C22.3704 24.3647 22.4614 24.5963 22.4614 24.8776C22.4614 25.1588 22.3704 25.3905 22.1884 25.5725L19.6073 28.1535C19.508 28.2528 19.4005 28.3233 19.2847 28.365C19.1689 28.4067 19.0448 28.4272 18.9124 28.4265C18.7801 28.4259 18.656 28.4054 18.5401 28.365C18.4243 28.3246 18.3168 28.2541 18.2175 28.1535L15.6364 25.5725C15.4544 25.3905 15.3595 25.1631 15.3515 24.8905C15.3436 24.6178 15.4386 24.3819 15.6364 24.1827C15.8184 24.0007 16.0501 23.9097 16.3313 23.9097C16.6126 23.9097 16.8443 24.0007 17.0262 24.1827L17.9197 25.0513Z" fill="white"/>
<path d="M46.319 16.7539V7.30257H48.3173V11.2022H52.3738V7.30257H54.3674V16.7539H52.3738V12.8497H48.3173V16.7539H46.319ZM59.2085 16.8924C58.4793 16.8924 57.8517 16.7447 57.3256 16.4493C56.8025 16.1509 56.3995 15.7294 56.1165 15.1848C55.8334 14.6372 55.6919 13.9896 55.6919 13.242C55.6919 12.5128 55.8334 11.8729 56.1165 11.3222C56.3995 10.7714 56.7979 10.3423 57.3117 10.0346C57.8286 9.72694 58.4347 9.57311 59.13 9.57311C59.5976 9.57311 60.033 9.64848 60.436 9.79924C60.8421 9.94691 61.1959 10.17 61.4974 10.4684C61.802 10.7668 62.0389 11.1422 62.2081 11.5944C62.3774 12.0436 62.462 12.5697 62.462 13.1727V13.7127H56.4764V12.4943H60.6114C60.6114 12.2113 60.5499 11.9606 60.4268 11.7421C60.3037 11.5237 60.133 11.3529 59.9145 11.2299C59.6992 11.1037 59.4484 11.0406 59.1623 11.0406C58.8639 11.0406 58.5993 11.1099 58.3685 11.2483C58.1409 11.3837 57.9624 11.5667 57.8332 11.7975C57.704 12.0252 57.6378 12.279 57.6348 12.559V13.7173C57.6348 14.068 57.6994 14.3711 57.8286 14.6264C57.9609 14.8818 58.147 15.0787 58.387 15.2171C58.627 15.3556 58.9116 15.4248 59.2408 15.4248C59.4592 15.4248 59.6592 15.394 59.8407 15.3325C60.0222 15.271 60.1776 15.1787 60.3068 15.0556C60.436 14.9326 60.5345 14.7818 60.6022 14.6034L62.4204 14.7233C62.3281 15.1602 62.1389 15.5417 61.8528 15.8678C61.5697 16.1909 61.2036 16.4432 60.7544 16.6247C60.3083 16.8031 59.793 16.8924 59.2085 16.8924ZM63.7449 16.7539V9.66541H65.7109V16.7539H63.7449ZM64.7325 8.75165C64.4402 8.75165 64.1895 8.65474 63.9803 8.46091C63.7741 8.26401 63.6711 8.02865 63.6711 7.75483C63.6711 7.48409 63.7741 7.25181 63.9803 7.05798C64.1895 6.86108 64.4402 6.76263 64.7325 6.76263C65.0248 6.76263 65.274 6.86108 65.4801 7.05798C65.6893 7.25181 65.7939 7.48409 65.7939 7.75483C65.7939 8.02865 65.6893 8.26401 65.4801 8.46091C65.274 8.65474 65.0248 8.75165 64.7325 8.75165ZM70.4792 19.5598C69.8424 19.5598 69.2963 19.4721 68.8409 19.2967C68.3887 19.1244 68.0287 18.8891 67.761 18.5906C67.4934 18.2922 67.3195 17.9569 67.2396 17.5846L69.0578 17.34C69.1132 17.4815 69.2009 17.6138 69.3209 17.7369C69.4409 17.8599 69.5993 17.9584 69.7962 18.0322C69.9962 18.1092 70.2392 18.1476 70.5254 18.1476C70.953 18.1476 71.3053 18.043 71.5822 17.8338C71.8622 17.6277 72.0021 17.2815 72.0021 16.7954V15.4987H71.9191C71.8329 15.6956 71.7037 15.8817 71.5314 16.0571C71.3591 16.2324 71.1376 16.3755 70.8669 16.4862C70.5961 16.597 70.2731 16.6524 69.8977 16.6524C69.3655 16.6524 68.8809 16.5293 68.444 16.2832C68.0102 16.034 67.6641 15.654 67.4057 15.1433C67.1503 14.6295 67.0227 13.9803 67.0227 13.1958C67.0227 12.3928 67.1534 11.7221 67.4149 11.1837C67.6764 10.6453 68.0241 10.2423 68.4579 9.9746C68.8948 9.70694 69.3732 9.57311 69.8931 9.57311C70.29 9.57311 70.6223 9.64079 70.8899 9.77616C71.1576 9.90846 71.373 10.0746 71.536 10.2746C71.7022 10.4715 71.8298 10.6653 71.9191 10.8561H71.9929V9.66541H73.945V16.8231C73.945 17.4261 73.7973 17.9307 73.502 18.3368C73.2066 18.7429 72.7974 19.0475 72.2744 19.2506C71.7545 19.4567 71.1561 19.5598 70.4792 19.5598ZM70.5208 15.1756C70.8376 15.1756 71.1053 15.0972 71.3237 14.9402C71.5453 14.7803 71.7145 14.5526 71.8314 14.2572C71.9514 13.9588 72.0114 13.6019 72.0114 13.1866C72.0114 12.7712 71.9529 12.4113 71.836 12.1067C71.7191 11.799 71.5499 11.5606 71.3284 11.3914C71.1068 11.2222 70.8376 11.1376 70.5208 11.1376C70.1977 11.1376 69.9254 11.2252 69.7039 11.4006C69.4824 11.5729 69.3147 11.8129 69.2009 12.1205C69.0871 12.4282 69.0301 12.7835 69.0301 13.1866C69.0301 13.5958 69.0871 13.9496 69.2009 14.248C69.3178 14.5434 69.4855 14.7726 69.7039 14.9356C69.9254 15.0956 70.1977 15.1756 70.5208 15.1756ZM77.4754 12.6559V16.7539H75.5095V7.30257H77.42V10.916H77.5031C77.6631 10.4976 77.9215 10.17 78.2784 9.93307C78.6353 9.69309 79.0829 9.57311 79.6214 9.57311C80.1136 9.57311 80.5428 9.68079 80.9089 9.89615C81.2781 10.1084 81.5642 10.4146 81.7673 10.8145C81.9734 11.2114 82.0749 11.6867 82.0719 12.2405V16.7539H80.1059V12.5913C80.109 12.1544 79.9982 11.8144 79.7736 11.5714C79.5521 11.3283 79.2414 11.2068 78.8414 11.2068C78.5738 11.2068 78.3369 11.2637 78.1307 11.3775C77.9277 11.4914 77.7677 11.6575 77.6508 11.8759C77.537 12.0913 77.4785 12.3513 77.4754 12.6559ZM87.3894 9.66541V11.1422H83.1206V9.66541H87.3894ZM84.0897 7.96712H86.0557V14.5757C86.0557 14.7572 86.0834 14.8987 86.1388 15.0002C86.1941 15.0987 86.2711 15.1679 86.3695 15.2079C86.471 15.2479 86.5879 15.2679 86.7202 15.2679C86.8125 15.2679 86.9048 15.2602 86.9971 15.2448C87.0894 15.2264 87.1602 15.2125 87.2094 15.2033L87.5186 16.6662C87.4202 16.697 87.2817 16.7324 87.1033 16.7724C86.9248 16.8154 86.7079 16.8416 86.4526 16.8508C85.9788 16.8693 85.5634 16.8062 85.2065 16.6616C84.8527 16.517 84.5774 16.2924 84.3805 15.9878C84.1836 15.6832 84.0867 15.2987 84.0897 14.8341V7.96712Z" fill="black"/>
<path d="M49.0818 24.3739V32.25H48.1281V25.3738H48.0819L46.159 26.6506V25.6814L48.1281 24.3739H49.0818ZM53.8082 32.3577C53.357 32.3577 52.9506 32.2679 52.5891 32.0885C52.2276 31.909 51.9379 31.6629 51.72 31.3501C51.5021 31.0373 51.3828 30.6809 51.3623 30.281H52.2853C52.3212 30.6373 52.4827 30.9322 52.7699 31.1655C53.0596 31.3962 53.4057 31.5116 53.8082 31.5116C54.1313 31.5116 54.4184 31.436 54.6697 31.2847C54.9235 31.1334 55.1222 30.9258 55.2658 30.6617C55.4119 30.3951 55.485 30.0938 55.485 29.7579C55.485 29.4144 55.4094 29.108 55.2581 28.8388C55.1094 28.567 54.9043 28.353 54.6428 28.1966C54.3813 28.0402 54.0826 27.9607 53.7467 27.9581C53.5057 27.9556 53.2583 27.9927 53.0045 28.0697C52.7507 28.144 52.5417 28.2402 52.3776 28.3581L51.4854 28.2504L51.9623 24.3739H56.0542V25.22H52.7622L52.4853 27.5428H52.5314C52.693 27.4146 52.8955 27.3082 53.1391 27.2236C53.3826 27.139 53.6365 27.0967 53.9005 27.0967C54.3825 27.0967 54.812 27.2121 55.1889 27.4428C55.5683 27.671 55.8657 27.9838 56.0811 28.3812C56.299 28.7786 56.408 29.2324 56.408 29.7426C56.408 30.2451 56.2952 30.6937 56.0695 31.0886C55.8465 31.4808 55.5388 31.7911 55.1466 32.0193C54.7543 32.2449 54.3082 32.3577 53.8082 32.3577ZM60.5047 32.3577C59.9252 32.3577 59.4317 32.2 59.024 31.8847C58.6164 31.5667 58.3049 31.1065 58.0895 30.504C57.8742 29.899 57.7665 29.1683 57.7665 28.3119C57.7665 27.4607 57.8742 26.7339 58.0895 26.1314C58.3075 25.5263 58.6202 25.0648 59.0279 24.7469C59.4381 24.4264 59.9304 24.2662 60.5047 24.2662C61.079 24.2662 61.5699 24.4264 61.9776 24.7469C62.3878 25.0648 62.7006 25.5263 62.916 26.1314C63.1339 26.7339 63.2428 27.4607 63.2428 28.3119C63.2428 29.1683 63.1352 29.899 62.9198 30.504C62.7044 31.1065 62.3929 31.5667 61.9853 31.8847C61.5776 32.2 61.0841 32.3577 60.5047 32.3577ZM60.5047 31.5116C61.079 31.5116 61.5251 31.2347 61.843 30.6809C62.1609 30.1271 62.3199 29.3375 62.3199 28.3119C62.3199 27.63 62.2468 27.0493 62.1007 26.5698C61.9571 26.0904 61.7494 25.725 61.4776 25.4738C61.2084 25.2225 60.8841 25.0969 60.5047 25.0969C59.9355 25.0969 59.4907 25.3776 59.1702 25.9391C58.8497 26.498 58.6895 27.289 58.6895 28.3119C58.6895 28.9939 58.7613 29.5734 58.9048 30.0502C59.0484 30.5271 59.2548 30.8899 59.524 31.1386C59.7958 31.3873 60.1227 31.5116 60.5047 31.5116ZM64.7196 32.25V26.3429H65.5964V27.2659H65.6734C65.7964 26.9505 65.9951 26.7057 66.2695 26.5314C66.5438 26.3545 66.8732 26.266 67.2578 26.266C67.6475 26.266 67.9718 26.3545 68.2308 26.5314C68.4923 26.7057 68.6961 26.9505 68.8423 27.2659H68.9038C69.0551 26.9608 69.282 26.7185 69.5845 26.539C69.887 26.357 70.2498 26.266 70.6729 26.266C71.201 26.266 71.633 26.4314 71.9689 26.7621C72.3047 27.0903 72.4727 27.6018 72.4727 28.2966V32.25H71.5651V28.2966C71.5651 27.8607 71.4458 27.5492 71.2074 27.362C70.969 27.1749 70.6882 27.0813 70.3652 27.0813C69.9498 27.0813 69.6281 27.2069 69.3999 27.4582C69.1717 27.7069 69.0576 28.0222 69.0576 28.4042V32.25H68.1346V28.2043C68.1346 27.8684 68.0257 27.5979 67.8078 27.3928C67.5898 27.1851 67.3091 27.0813 66.9655 27.0813C66.7297 27.0813 66.5092 27.1441 66.3041 27.2697C66.1015 27.3954 65.9374 27.5697 65.8118 27.7928C65.6887 28.0133 65.6272 28.2684 65.6272 28.5581V32.25H64.7196ZM74.1321 32.25V26.3429H75.0089V27.2659H75.0859C75.2089 26.9505 75.4076 26.7057 75.6819 26.5314C75.9563 26.3545 76.2857 26.266 76.6703 26.266C77.06 26.266 77.3843 26.3545 77.6433 26.5314C77.9048 26.7057 78.1086 26.9505 78.2548 27.2659H78.3163C78.4676 26.9608 78.6945 26.7185 78.997 26.539C79.2995 26.357 79.6623 26.266 80.0853 26.266C80.6135 26.266 81.0455 26.4314 81.3814 26.7621C81.7172 27.0903 81.8852 27.6018 81.8852 28.2966V32.25H80.9776V28.2966C80.9776 27.8607 80.8583 27.5492 80.6199 27.362C80.3815 27.1749 80.1007 27.0813 79.7777 27.0813C79.3623 27.0813 79.0406 27.2069 78.8124 27.4582C78.5842 27.7069 78.4701 28.0222 78.4701 28.4042V32.25H77.5471V28.2043C77.5471 27.8684 77.4382 27.5979 77.2203 27.3928C77.0023 27.1851 76.7216 27.0813 76.378 27.0813C76.1422 27.0813 75.9217 27.1441 75.7166 27.2697C75.514 27.3954 75.3499 27.5697 75.2243 27.7928C75.1012 28.0133 75.0397 28.2684 75.0397 28.5581V32.25H74.1321Z" fill="black"/>
<rect y="59" width="39" height="39" rx="19.5" fill="url(#paint1_linear_1752_225)"/>
<g clip-path="url(#clip0_1752_225)">
<path d="M17.9741 73.7344C17.9741 73.4692 18.0795 73.2148 18.267 73.0273C18.4545 72.8397 18.7089 72.7344 18.9741 72.7344C19.2393 72.7344 19.4937 72.8397 19.6812 73.0273C19.8688 73.2148 19.9741 73.4692 19.9741 73.7344C19.9741 73.9996 19.8688 74.2539 19.6812 74.4415C19.4937 74.629 19.2393 74.7344 18.9741 74.7344C18.7089 74.7344 18.4545 74.629 18.267 74.4415C18.0795 74.2539 17.9741 73.9996 17.9741 73.7344ZM21.8022 74.7344C21.9116 74.4219 21.9741 74.0844 21.9741 73.7344C21.9741 72.0781 20.6304 70.7344 18.9741 70.7344C17.3179 70.7344 15.9741 72.0781 15.9741 73.7344C15.9741 74.0844 16.0335 74.4219 16.146 74.7344H14.7241C14.0366 74.7344 13.4366 75.2031 13.2679 75.8719L11.0179 84.8719C10.9054 85.3187 11.0054 85.7938 11.2897 86.1594C11.5741 86.525 12.0116 86.7344 12.4741 86.7344H25.4741C25.9366 86.7344 26.371 86.5219 26.6554 86.1562C26.9397 85.7906 27.0397 85.3187 26.9272 84.8687L24.6772 75.8688C24.5116 75.2031 23.9116 74.7344 23.2241 74.7344H21.8022Z" fill="white"/>
</g>
<path d="M48.4465 75.7539L45.7421 66.3026H47.925L49.4895 72.8696H49.5679L51.2939 66.3026H53.1629L54.8843 72.8834H54.9674L56.5318 66.3026H58.7147L56.0103 75.7539H54.0628L52.263 69.5745H52.1892L50.394 75.7539H48.4465ZM62.2162 75.8924C61.4871 75.8924 60.8594 75.7447 60.3333 75.4493C59.8103 75.1509 59.4073 74.7294 59.1242 74.1848C58.8412 73.6372 58.6997 72.9896 58.6997 72.242C58.6997 71.5128 58.8412 70.8729 59.1242 70.3222C59.4073 69.7714 59.8057 69.3423 60.3195 69.0346C60.8364 68.7269 61.4425 68.5731 62.1378 68.5731C62.6054 68.5731 63.0408 68.6485 63.4438 68.7992C63.8499 68.9469 64.2037 69.17 64.5052 69.4684C64.8098 69.7668 65.0467 70.1422 65.2159 70.5944C65.3851 71.0436 65.4697 71.5697 65.4697 72.1727V72.7127H59.4842V71.4943H63.6192C63.6192 71.2113 63.5576 70.9606 63.4346 70.7421C63.3115 70.5237 63.1407 70.3529 62.9223 70.2299C62.7069 70.1037 62.4562 70.0406 62.1701 70.0406C61.8716 70.0406 61.6071 70.1099 61.3763 70.2483C61.1486 70.3837 60.9702 70.5667 60.841 70.7975C60.7118 71.0252 60.6456 71.279 60.6425 71.559V72.7173C60.6425 73.068 60.7071 73.3711 60.8364 73.6264C60.9687 73.8818 61.1548 74.0787 61.3948 74.2171C61.6347 74.3556 61.9193 74.4248 62.2485 74.4248C62.467 74.4248 62.6669 74.394 62.8485 74.3325C63.03 74.271 63.1854 74.1787 63.3146 74.0556C63.4438 73.9326 63.5422 73.7818 63.6099 73.6034L65.4282 73.7233C65.3359 74.1602 65.1467 74.5417 64.8606 74.8678C64.5775 75.1909 64.2114 75.4432 63.7622 75.6247C63.3161 75.8031 62.8008 75.8924 62.2162 75.8924ZM66.7527 75.7539V68.6654H68.7186V75.7539H66.7527ZM67.7403 67.7517C67.448 67.7517 67.1972 67.6547 66.988 67.4609C66.7819 67.264 66.6788 67.0287 66.6788 66.7548C66.6788 66.4841 66.7819 66.2518 66.988 66.058C67.1972 65.8611 67.448 65.7626 67.7403 65.7626C68.0325 65.7626 68.2818 65.8611 68.4879 66.058C68.6971 66.2518 68.8017 66.4841 68.8017 66.7548C68.8017 67.0287 68.6971 67.264 68.4879 67.4609C68.2818 67.6547 68.0325 67.7517 67.7403 67.7517ZM73.487 78.5598C72.8501 78.5598 72.304 78.4721 71.8487 78.2967C71.3964 78.1244 71.0365 77.8891 70.7688 77.5906C70.5011 77.2922 70.3273 76.9569 70.2473 76.5846L72.0656 76.34C72.121 76.4815 72.2087 76.6138 72.3286 76.7369C72.4486 76.8599 72.6071 76.9584 72.804 77.0322C73.004 77.1092 73.247 77.1476 73.5331 77.1476C73.9608 77.1476 74.3131 77.043 74.5899 76.8338C74.8699 76.6277 75.0099 76.2815 75.0099 75.7954V74.4987H74.9268C74.8407 74.6956 74.7115 74.8817 74.5392 75.0571C74.3669 75.2324 74.1454 75.3755 73.8746 75.4862C73.6039 75.597 73.2809 75.6524 72.9055 75.6524C72.3733 75.6524 71.8887 75.5293 71.4518 75.2832C71.018 75.034 70.6719 74.654 70.4135 74.1433C70.1581 73.6295 70.0304 72.9803 70.0304 72.1958C70.0304 71.3928 70.1612 70.7221 70.4227 70.1837C70.6842 69.6453 71.0319 69.2423 71.4657 68.9746C71.9025 68.7069 72.3809 68.5731 72.9009 68.5731C73.2978 68.5731 73.63 68.6408 73.8977 68.7762C74.1654 68.9085 74.3807 69.0746 74.5438 69.2746C74.7099 69.4715 74.8376 69.6653 74.9268 69.8561H75.0007V68.6654H76.9528V75.8231C76.9528 76.4261 76.8051 76.9307 76.5097 77.3368C76.2144 77.7429 75.8052 78.0475 75.2822 78.2506C74.7622 78.4567 74.1638 78.5598 73.487 78.5598ZM73.5285 74.1756C73.8454 74.1756 74.1131 74.0972 74.3315 73.9402C74.553 73.7803 74.7222 73.5526 74.8392 73.2572C74.9591 72.9588 75.0191 72.6019 75.0191 72.1866C75.0191 71.7712 74.9607 71.4113 74.8438 71.1067C74.7269 70.799 74.5576 70.5606 74.3361 70.3914C74.1146 70.2222 73.8454 70.1376 73.5285 70.1376C73.2055 70.1376 72.9332 70.2252 72.7117 70.4006C72.4902 70.5729 72.3225 70.8129 72.2087 71.1205C72.0948 71.4282 72.0379 71.7835 72.0379 72.1866C72.0379 72.5958 72.0948 72.9496 72.2087 73.248C72.3256 73.5434 72.4932 73.7726 72.7117 73.9356C72.9332 74.0956 73.2055 74.1756 73.5285 74.1756ZM80.4832 71.6559V75.7539H78.5172V66.3026H80.4278V69.916H80.5109C80.6709 69.4976 80.9293 69.17 81.2862 68.9331C81.6431 68.6931 82.0907 68.5731 82.6291 68.5731C83.1214 68.5731 83.5506 68.6808 83.9167 68.8962C84.2859 69.1084 84.572 69.4146 84.7751 69.8145C84.9812 70.2114 85.0827 70.6867 85.0796 71.2405V75.7539H83.1137V71.5913C83.1168 71.1544 83.006 70.8144 82.7814 70.5714C82.5599 70.3283 82.2492 70.2068 81.8492 70.2068C81.5815 70.2068 81.3446 70.2637 81.1385 70.3775C80.9354 70.4914 80.7755 70.6575 80.6586 70.8759C80.5447 71.0913 80.4863 71.3513 80.4832 71.6559ZM90.3972 68.6654V70.1422H86.1284V68.6654H90.3972ZM87.0975 66.9671H89.0635V73.5757C89.0635 73.7572 89.0911 73.8987 89.1465 74.0002C89.2019 74.0987 89.2788 74.1679 89.3773 74.2079C89.4788 74.2479 89.5957 74.2679 89.728 74.2679C89.8203 74.2679 89.9126 74.2602 90.0049 74.2448C90.0972 74.2264 90.168 74.2125 90.2172 74.2033L90.5264 75.6662C90.4279 75.697 90.2895 75.7324 90.111 75.7724C89.9326 75.8154 89.7157 75.8416 89.4603 75.8508C88.9865 75.8693 88.5712 75.8062 88.2143 75.6616C87.8605 75.517 87.5851 75.2924 87.3882 74.9878C87.1913 74.6832 87.0944 74.2987 87.0975 73.8341V66.9671Z" fill="black"/>
<path d="M48.8357 91.3577C48.3075 91.3577 47.8409 91.2641 47.4358 91.0769C47.0333 90.8872 46.7192 90.627 46.4936 90.2963C46.268 89.963 46.1565 89.5835 46.159 89.1579C46.1565 88.8246 46.2218 88.5169 46.3552 88.2349C46.4885 87.9503 46.6705 87.7132 46.9013 87.5235C47.1346 87.3312 47.3948 87.2094 47.6819 87.1581V87.112C47.3051 87.0145 47.0051 86.803 46.782 86.4774C46.559 86.1492 46.4487 85.7762 46.4513 85.3583C46.4487 84.9583 46.55 84.6007 46.7551 84.2853C46.9602 83.97 47.2423 83.7213 47.6012 83.5393C47.9627 83.3572 48.3742 83.2662 48.8357 83.2662C49.292 83.2662 49.6997 83.3572 50.0586 83.5393C50.4176 83.7213 50.6996 83.97 50.9047 84.2853C51.1124 84.6007 51.2175 84.9583 51.22 85.3583C51.2175 85.7762 51.1034 86.1492 50.8778 86.4774C50.6547 86.803 50.3586 87.0145 49.9894 87.112V87.1581C50.274 87.2094 50.5304 87.3312 50.7586 87.5235C50.9867 87.7132 51.1688 87.9503 51.3047 88.2349C51.4405 88.5169 51.5098 88.8246 51.5123 89.1579C51.5098 89.5835 51.3944 89.963 51.1662 90.2963C50.9406 90.627 50.6265 90.8872 50.224 91.0769C49.824 91.2641 49.3613 91.3577 48.8357 91.3577ZM48.8357 90.5116C49.192 90.5116 49.4997 90.4539 49.7587 90.3386C50.0176 90.2232 50.2176 90.0604 50.3586 89.8501C50.4996 89.6399 50.5714 89.3938 50.574 89.1118C50.5714 88.8144 50.4945 88.5516 50.3432 88.3234C50.1919 88.0952 49.9856 87.9157 49.724 87.785C49.4651 87.6542 49.169 87.5888 48.8357 87.5888C48.4998 87.5888 48.1998 87.6542 47.9358 87.785C47.6743 87.9157 47.4679 88.0952 47.3166 88.3234C47.1679 88.5516 47.0948 88.8144 47.0974 89.1118C47.0948 89.3938 47.1628 89.6399 47.3012 89.8501C47.4422 90.0604 47.6435 90.2232 47.905 90.3386C48.1665 90.4539 48.4767 90.5116 48.8357 90.5116ZM48.8357 86.7735C49.1177 86.7735 49.3677 86.7171 49.5856 86.6043C49.8061 86.4915 49.9791 86.3338 50.1048 86.1313C50.2304 85.9288 50.2945 85.6916 50.2971 85.4198C50.2945 85.1532 50.2317 84.9212 50.1086 84.7237C49.9856 84.5238 49.8151 84.3699 49.5971 84.2623C49.3792 84.152 49.1254 84.0969 48.8357 84.0969C48.5408 84.0969 48.2832 84.152 48.0627 84.2623C47.8422 84.3699 47.6717 84.5238 47.5512 84.7237C47.4307 84.9212 47.3717 85.1532 47.3743 85.4198C47.3717 85.6916 47.432 85.9288 47.555 86.1313C47.6807 86.3338 47.8537 86.4915 48.0742 86.6043C48.2947 86.7171 48.5485 86.7735 48.8357 86.7735ZM55.4475 91.3577C54.9963 91.3577 54.5899 91.2679 54.2284 91.0885C53.8669 90.909 53.5772 90.6629 53.3592 90.3501C53.1413 90.0373 53.0221 89.6809 53.0016 89.281H53.9246C53.9605 89.6373 54.122 89.9322 54.4091 90.1655C54.6989 90.3962 55.045 90.5116 55.4475 90.5116C55.7705 90.5116 56.0577 90.436 56.3089 90.2847C56.5628 90.1334 56.7615 89.9258 56.905 89.6617C57.0512 89.3951 57.1242 89.0938 57.1242 88.7579C57.1242 88.4144 57.0486 88.108 56.8973 87.8388C56.7486 87.567 56.5435 87.353 56.282 87.1966C56.0205 87.0402 55.7218 86.9607 55.386 86.9581C55.145 86.9556 54.8976 86.9927 54.6437 87.0697C54.3899 87.144 54.181 87.2402 54.0169 87.3581L53.1247 87.2504L53.6015 83.3739H57.6934V84.22H54.4014L54.1246 86.5428H54.1707C54.3322 86.4146 54.5348 86.3082 54.7783 86.2236C55.0219 86.139 55.2757 86.0967 55.5398 86.0967C56.0218 86.0967 56.4512 86.2121 56.8281 86.4428C57.2076 86.671 57.505 86.9838 57.7203 87.3812C57.9383 87.7786 58.0472 88.2324 58.0472 88.7426C58.0472 89.2451 57.9344 89.6937 57.7088 90.0886C57.4857 90.4808 57.1781 90.7911 56.7858 91.0193C56.3936 91.2449 55.9474 91.3577 55.4475 91.3577ZM59.5903 91.25V85.3429H60.4672V86.2659H60.5441C60.6672 85.9505 60.8658 85.7057 61.1402 85.5314C61.4145 85.3545 61.744 85.266 62.1285 85.266C62.5182 85.266 62.8426 85.3545 63.1015 85.5314C63.363 85.7057 63.5669 85.9505 63.713 86.2659H63.7745C63.9258 85.9608 64.1527 85.7185 64.4552 85.539C64.7578 85.357 65.1205 85.266 65.5436 85.266C66.0717 85.266 66.5037 85.4314 66.8396 85.7621C67.1755 86.0903 67.3434 86.6018 67.3434 87.2966V91.25H66.4358V87.2966C66.4358 86.8607 66.3166 86.5492 66.0781 86.362C65.8397 86.1749 65.559 86.0813 65.2359 86.0813C64.8206 86.0813 64.4988 86.2069 64.2706 86.4582C64.0424 86.7069 63.9284 87.0222 63.9284 87.4042V91.25H63.0054V87.2043C63.0054 86.8684 62.8964 86.5979 62.6785 86.3928C62.4606 86.1851 62.1798 86.0813 61.8363 86.0813C61.6004 86.0813 61.3799 86.1441 61.1748 86.2697C60.9722 86.3954 60.8082 86.5697 60.6825 86.7928C60.5595 87.0133 60.4979 87.2684 60.4979 87.5581V91.25H59.5903ZM69.0028 91.25V85.3429H69.8797V86.2659H69.9566C70.0796 85.9505 70.2783 85.7057 70.5527 85.5314C70.827 85.3545 71.1565 85.266 71.541 85.266C71.9307 85.266 72.2551 85.3545 72.514 85.5314C72.7755 85.7057 72.9793 85.9505 73.1255 86.2659H73.187C73.3383 85.9608 73.5652 85.7185 73.8677 85.539C74.1702 85.357 74.533 85.266 74.9561 85.266C75.4842 85.266 75.9162 85.4314 76.2521 85.7621C76.5879 86.0903 76.7559 86.6018 76.7559 87.2966V91.25H75.8483V87.2966C75.8483 86.8607 75.7291 86.5492 75.4906 86.362C75.2522 86.1749 74.9714 86.0813 74.6484 86.0813C74.2331 86.0813 73.9113 86.2069 73.6831 86.4582C73.4549 86.7069 73.3408 87.0222 73.3408 87.4042V91.25H72.4179V87.2043C72.4179 86.8684 72.3089 86.5979 72.091 86.3928C71.873 86.1851 71.5923 86.0813 71.2488 86.0813C71.0129 86.0813 70.7924 86.1441 70.5873 86.2697C70.3847 86.3954 70.2207 86.5697 70.095 86.7928C69.972 87.0133 69.9104 87.2684 69.9104 87.5581V91.25H69.0028Z" fill="black"/>
<rect y="118" width="39" height="39" rx="19.5" fill="url(#paint2_linear_1752_225)"/>
<path d="M16.9271 140.889V137.91M20.898 140.889V137.91M24.8688 140.889V137.91M8.98535 133.94V129.969M28.8397 131.954H8.98535M28.8397 133.94V129.969M12.9562 140.889V137.91" stroke="white" stroke-width="2.23288" stroke-linecap="round" stroke-linejoin="round"/>
<path d="M26.8543 137.914H10.9708C9.87426 137.914 8.98535 138.803 8.98535 139.899V143.87C8.98535 144.967 9.87426 145.856 10.9708 145.856H26.8543C27.9508 145.856 28.8397 144.967 28.8397 143.87V139.899C28.8397 138.803 27.9508 137.914 26.8543 137.914Z" stroke="white" stroke-width="2.23288" stroke-linecap="round" stroke-linejoin="round"/>
<path d="M46.319 134.754V125.303H48.3173V133.106H52.3692V134.754H46.319ZM56.886 134.892C56.1568 134.892 55.5292 134.745 55.0031 134.449C54.4801 134.151 54.0771 133.729 53.794 133.185C53.511 132.637 53.3694 131.99 53.3694 131.242C53.3694 130.513 53.511 129.873 53.794 129.322C54.0771 128.771 54.4755 128.342 54.9893 128.035C55.5061 127.727 56.1122 127.573 56.8075 127.573C57.2752 127.573 57.7105 127.648 58.1136 127.799C58.5197 127.947 58.8735 128.17 59.175 128.468C59.4796 128.767 59.7165 129.142 59.8857 129.594C60.0549 130.044 60.1395 130.57 60.1395 131.173V131.713H54.154V130.494H58.2889C58.2889 130.211 58.2274 129.961 58.1043 129.742C57.9813 129.524 57.8105 129.353 57.5921 129.23C57.3767 129.104 57.126 129.041 56.8399 129.041C56.5414 129.041 56.2768 129.11 56.0461 129.248C55.8184 129.384 55.64 129.567 55.5108 129.797C55.3815 130.025 55.3154 130.279 55.3123 130.559V131.717C55.3123 132.068 55.3769 132.371 55.5061 132.626C55.6384 132.882 55.8246 133.079 56.0645 133.217C56.3045 133.356 56.5891 133.425 56.9183 133.425C57.1367 133.425 57.3367 133.394 57.5182 133.333C57.6998 133.271 57.8551 133.179 57.9843 133.056C58.1136 132.933 58.212 132.782 58.2797 132.603L60.098 132.723C60.0057 133.16 59.8165 133.542 59.5303 133.868C59.2473 134.191 58.8812 134.443 58.432 134.625C57.9859 134.803 57.4706 134.892 56.886 134.892ZM63.3884 130.656V134.754H61.4225V127.665H63.2961V128.916H63.3792C63.5361 128.504 63.7991 128.178 64.1683 127.938C64.5375 127.695 64.9852 127.573 65.5113 127.573C66.0035 127.573 66.4327 127.681 66.7988 127.896C67.1649 128.112 67.4495 128.419 67.6526 128.819C67.8556 129.216 67.9572 129.69 67.9572 130.241V134.754H65.9912V130.591C65.9943 130.157 65.8835 129.819 65.6589 129.576C65.4344 129.33 65.1252 129.207 64.7313 129.207C64.4668 129.207 64.2329 129.264 64.0299 129.378C63.8299 129.491 63.673 129.658 63.5592 129.876C63.4484 130.091 63.3915 130.351 63.3884 130.656ZM72.7001 137.56C72.0633 137.56 71.5172 137.472 71.0618 137.297C70.6096 137.124 70.2496 136.889 69.982 136.591C69.7143 136.292 69.5405 135.957 69.4605 135.585L71.2787 135.34C71.3341 135.482 71.4218 135.614 71.5418 135.737C71.6618 135.86 71.8202 135.958 72.0171 136.032C72.2171 136.109 72.4602 136.148 72.7463 136.148C73.1739 136.148 73.5262 136.043 73.8031 135.834C74.0831 135.628 74.2231 135.282 74.2231 134.795V133.499H74.14C74.0538 133.696 73.9246 133.882 73.7523 134.057C73.5801 134.232 73.3585 134.375 73.0878 134.486C72.8171 134.597 72.494 134.652 72.1187 134.652C71.5864 134.652 71.1018 134.529 70.665 134.283C70.2312 134.034 69.885 133.654 69.6266 133.143C69.3713 132.63 69.2436 131.98 69.2436 131.196C69.2436 130.393 69.3743 129.722 69.6358 129.184C69.8974 128.645 70.245 128.242 70.6788 127.975C71.1157 127.707 71.5941 127.573 72.114 127.573C72.5109 127.573 72.8432 127.641 73.1109 127.776C73.3785 127.908 73.5939 128.075 73.757 128.275C73.9231 128.471 74.0508 128.665 74.14 128.856H74.2138V127.665H76.1659V134.823C76.1659 135.426 76.0183 135.931 75.7229 136.337C75.4276 136.743 75.0184 137.048 74.4953 137.251C73.9754 137.457 73.377 137.56 72.7001 137.56ZM72.7417 133.176C73.0586 133.176 73.3262 133.097 73.5447 132.94C73.7662 132.78 73.9354 132.553 74.0523 132.257C74.1723 131.959 74.2323 131.602 74.2323 131.187C74.2323 130.771 74.1738 130.411 74.0569 130.107C73.94 129.799 73.7708 129.561 73.5493 129.391C73.3278 129.222 73.0586 129.138 72.7417 129.138C72.4186 129.138 72.1464 129.225 71.9248 129.401C71.7033 129.573 71.5356 129.813 71.4218 130.121C71.308 130.428 71.2511 130.784 71.2511 131.187C71.2511 131.596 71.308 131.95 71.4218 132.248C71.5387 132.543 71.7064 132.773 71.9248 132.936C72.1464 133.096 72.4186 133.176 72.7417 133.176ZM81.5008 127.665V129.142H77.232V127.665H81.5008ZM78.2011 125.967H80.1671V132.576C80.1671 132.757 80.1948 132.899 80.2501 133C80.3055 133.099 80.3824 133.168 80.4809 133.208C80.5824 133.248 80.6993 133.268 80.8316 133.268C80.9239 133.268 81.0162 133.26 81.1085 133.245C81.2008 133.226 81.2716 133.213 81.3208 133.203L81.63 134.666C81.5315 134.697 81.3931 134.732 81.2146 134.772C81.0362 134.815 80.8193 134.842 80.5639 134.851C80.0901 134.869 79.6748 134.806 79.3179 134.662C78.9641 134.517 78.6888 134.292 78.4919 133.988C78.2949 133.683 78.198 133.299 78.2011 132.834V125.967ZM84.8997 130.656V134.754H82.9337V125.303H84.8443V128.916H84.9273C85.0873 128.498 85.3458 128.17 85.7027 127.933C86.0595 127.693 86.5072 127.573 87.0456 127.573C87.5378 127.573 87.967 127.681 88.3331 127.896C88.7023 128.108 88.9885 128.415 89.1915 128.815C89.3977 129.211 89.4992 129.687 89.4961 130.241V134.754H87.5302V130.591C87.5332 130.154 87.4225 129.814 87.1979 129.571C86.9764 129.328 86.6656 129.207 86.2657 129.207C85.998 129.207 85.7611 129.264 85.555 129.378C85.3519 129.491 85.1919 129.658 85.075 129.876C84.9612 130.091 84.9027 130.351 84.8997 130.656Z" fill="black"/>
<path d="M46.3129 150.25V149.558L48.9126 146.712C49.2177 146.379 49.4689 146.089 49.6664 145.843C49.8638 145.594 50.0099 145.361 50.1048 145.143C50.2022 144.922 50.2509 144.692 50.2509 144.451C50.2509 144.174 50.1843 143.934 50.0509 143.731C49.9202 143.529 49.7407 143.373 49.5125 143.262C49.2843 143.152 49.028 143.097 48.7434 143.097C48.4408 143.097 48.1768 143.16 47.9512 143.285C47.7281 143.408 47.555 143.581 47.432 143.805C47.3115 144.028 47.2512 144.289 47.2512 144.589H46.3436C46.3436 144.128 46.45 143.722 46.6628 143.374C46.8756 143.025 47.1653 142.753 47.532 142.558C47.9012 142.364 48.3152 142.266 48.7741 142.266C49.2356 142.266 49.6446 142.364 50.0009 142.558C50.3573 142.753 50.6368 143.016 50.8393 143.347C51.0419 143.678 51.1431 144.046 51.1431 144.451C51.1431 144.74 51.0906 145.024 50.9855 145.301C50.8829 145.575 50.7034 145.881 50.447 146.22C50.1932 146.556 49.8407 146.966 49.3895 147.45L47.6204 149.342V149.404H51.2816V150.25H46.3129ZM52.8699 150.25V149.558L55.4696 146.712C55.7747 146.379 56.026 146.089 56.2234 145.843C56.4208 145.594 56.5669 145.361 56.6618 145.143C56.7592 144.922 56.8079 144.692 56.8079 144.451C56.8079 144.174 56.7413 143.934 56.608 143.731C56.4772 143.529 56.2977 143.373 56.0695 143.262C55.8414 143.152 55.585 143.097 55.3004 143.097C54.9979 143.097 54.7338 143.16 54.5082 143.285C54.2851 143.408 54.1121 143.581 53.989 143.805C53.8685 144.028 53.8082 144.289 53.8082 144.589H52.9006C52.9006 144.128 53.007 143.722 53.2198 143.374C53.4326 143.025 53.7224 142.753 54.089 142.558C54.4582 142.364 54.8722 142.266 55.3312 142.266C55.7927 142.266 56.2016 142.364 56.558 142.558C56.9143 142.753 57.1938 143.016 57.3963 143.347C57.5989 143.678 57.7001 144.046 57.7001 144.451C57.7001 144.74 57.6476 145.024 57.5425 145.301C57.4399 145.575 57.2604 145.881 57.0041 146.22C56.7502 146.556 56.3977 146.966 55.9465 147.45L54.1774 149.342V149.404H57.8386V150.25H52.8699ZM61.8266 152.588C61.3882 152.588 61.0113 152.532 60.696 152.419C60.3806 152.309 60.1178 152.163 59.9076 151.981C59.6999 151.801 59.5346 151.609 59.4115 151.404L60.1345 150.896C60.2166 151.004 60.3204 151.127 60.446 151.265C60.5716 151.406 60.7434 151.528 60.9614 151.631C61.1818 151.736 61.4703 151.788 61.8266 151.788C62.3035 151.788 62.6971 151.673 63.0073 151.442C63.3175 151.211 63.4726 150.85 63.4726 150.358V149.158H63.3957C63.3291 149.265 63.2342 149.399 63.1111 149.558C62.9906 149.714 62.8163 149.854 62.5881 149.977C62.3625 150.097 62.0574 150.158 61.6728 150.158C61.1959 150.158 60.7678 150.045 60.3883 149.819C60.0114 149.594 59.7128 149.265 59.4923 148.835C59.2743 148.404 59.1654 147.881 59.1654 147.266C59.1654 146.661 59.2718 146.134 59.4846 145.685C59.6974 145.234 59.9935 144.885 60.3729 144.639C60.7524 144.39 61.1908 144.266 61.6882 144.266C62.0728 144.266 62.3779 144.33 62.6035 144.458C62.8317 144.584 63.006 144.727 63.1265 144.889C63.2496 145.048 63.3444 145.179 63.4111 145.281H63.5034V144.343H64.3802V150.419C64.3802 150.927 64.2649 151.34 64.0341 151.658C63.8059 151.978 63.4983 152.213 63.1111 152.361C62.7266 152.513 62.2984 152.588 61.8266 152.588ZM61.7959 149.342C62.1599 149.342 62.4676 149.259 62.7189 149.092C62.9701 148.926 63.1611 148.686 63.2919 148.373C63.4226 148.06 63.488 147.686 63.488 147.25C63.488 146.825 63.4239 146.449 63.2957 146.124C63.1675 145.798 62.9778 145.543 62.7266 145.358C62.4753 145.174 62.1651 145.081 61.7959 145.081C61.4113 145.081 61.0908 145.179 60.8344 145.374C60.5806 145.568 60.3896 145.83 60.2614 146.158C60.1358 146.486 60.073 146.85 60.073 147.25C60.073 147.661 60.1371 148.023 60.2653 148.339C60.396 148.651 60.5883 148.898 60.8421 149.077C61.0985 149.254 61.4164 149.342 61.7959 149.342Z" fill="black"/>
<defs>
<linearGradient id="paint0_linear_1752_225" x1="0" y1="19.5" x2="39" y2="19.5" gradientUnits="userSpaceOnUse">
<stop stop-color="#7C7675"/>
<stop offset="1" stop-color="#98918F"/>
</linearGradient>
<linearGradient id="paint1_linear_1752_225" x1="0" y1="78.5" x2="39" y2="78.5" gradientUnits="userSpaceOnUse">
<stop stop-color="#7C7675"/>
<stop offset="1" stop-color="#98918F"/>
</linearGradient>
<linearGradient id="paint2_linear_1752_225" x1="0" y1="137.5" x2="39" y2="137.5" gradientUnits="userSpaceOnUse">
<stop stop-color="#7C7675"/>
<stop offset="1" stop-color="#98918F"/>
</linearGradient>
<clipPath id="clip0_1752_225">
<rect width="16" height="16" fill="white" transform="translate(10.9741 70.7344)"/>
</clipPath>
</defs>
</svg>
