<svg width="165" height="157" viewBox="0 0 165 157" fill="none" xmlns="http://www.w3.org/2000/svg">
<rect width="39" height="39" rx="19.5" fill="#8F8987"/>
<path d="M25.6136 12.4688C26.601 12.4688 27.5478 12.861 28.246 13.5591C28.9441 14.2572 29.3363 15.2041 29.3363 16.1914V23.6368C29.3363 24.6241 28.9441 25.571 28.246 26.2692C27.5478 26.9673 26.601 27.3595 25.6136 27.3595H12.212C11.2246 27.3595 10.2777 26.9673 9.57961 26.2692C8.88147 25.571 8.48926 24.6241 8.48926 23.6368V16.1914C8.48926 15.2041 8.88147 14.2572 9.57961 13.5591C10.2777 12.861 11.2246 12.4688 12.212 12.4688H25.6136ZM12.9565 15.4469C12.5616 15.4469 12.1828 15.6038 11.9036 15.883C11.6243 16.1623 11.4674 16.5411 11.4674 16.936V22.8923C11.4674 23.2872 11.6243 23.666 11.9036 23.9452C12.1828 24.2245 12.5616 24.3814 12.9565 24.3814H21.891C22.2859 24.3814 22.6646 24.2245 22.9439 23.9452C23.2231 23.666 23.38 23.2872 23.38 22.8923V16.936C23.38 16.5411 23.2231 16.1623 22.9439 15.883C22.6646 15.6038 22.2859 15.4469 21.891 15.4469H12.9565ZM21.891 22.8923H12.9565V16.936H21.891V22.8923ZM19.6573 17.6805C19.4599 17.6805 19.2705 17.759 19.1309 17.8986C18.9912 18.0382 18.9128 18.2276 18.9128 18.4251V21.4032C18.9128 21.6007 18.9912 21.7901 19.1309 21.9297C19.2705 22.0693 19.4599 22.1478 19.6573 22.1478C19.8548 22.1478 20.0442 22.0693 20.1838 21.9297C20.3234 21.7901 20.4019 21.6007 20.4019 21.4032V18.4251C20.4019 18.2276 20.3234 18.0382 20.1838 17.8986C20.0442 17.759 19.8548 17.6805 19.6573 17.6805ZM26.3582 19.5419C26.062 19.5419 25.7779 19.6595 25.5685 19.869C25.359 20.0784 25.2414 20.3625 25.2414 20.6587C25.2414 20.9549 25.359 21.2389 25.5685 21.4484C25.7779 21.6578 26.062 21.7755 26.3582 21.7755C26.6544 21.7755 26.9384 21.6578 27.1479 21.4484C27.3573 21.2389 27.475 20.9549 27.475 20.6587C27.475 20.3625 27.3573 20.0784 27.1479 19.869C26.9384 19.6595 26.6544 19.5419 26.3582 19.5419ZM26.3582 15.8192C26.062 15.8192 25.7779 15.9368 25.5685 16.1463C25.359 16.3557 25.2414 16.6398 25.2414 16.936C25.2414 17.2322 25.359 17.5162 25.5685 17.7257C25.7779 17.9351 26.062 18.0528 26.3582 18.0528C26.6544 18.0528 26.9384 17.9351 27.1479 17.7257C27.3573 17.5162 27.475 17.2322 27.475 16.936C27.475 16.6398 27.3573 16.3557 27.1479 16.1463C26.9384 15.9368 26.6544 15.8192 26.3582 15.8192Z" fill="white"/>
<path d="M51.0877 15.2727H52.6857L55.4641 22.0568H55.5664L58.3448 15.2727H59.9428V24H58.69V17.6847H58.609L56.0352 23.9872H54.9954L52.4215 17.6804H52.3406V24H51.0877V15.2727ZM61.755 24V17.4545H63.0291V24H61.755ZM62.3984 16.4446C62.1768 16.4446 61.9865 16.3707 61.8274 16.223C61.6712 16.0724 61.593 15.8935 61.593 15.6861C61.593 15.4759 61.6712 15.2969 61.8274 15.1491C61.9865 14.9986 62.1768 14.9233 62.3984 14.9233C62.62 14.9233 62.8089 14.9986 62.9652 15.1491C63.1243 15.2969 63.2038 15.4759 63.2038 15.6861C63.2038 15.8935 63.1243 16.0724 62.9652 16.223C62.8089 16.3707 62.62 16.4446 62.3984 16.4446ZM67.5004 24.1321C66.8668 24.1321 66.3214 23.9886 65.864 23.7017C65.4094 23.4119 65.06 23.0128 64.8157 22.5043C64.5714 21.9957 64.4492 21.4134 64.4492 20.7571C64.4492 20.0923 64.5742 19.5057 64.8242 18.9972C65.0742 18.4858 65.4265 18.0866 65.881 17.7997C66.3356 17.5128 66.8711 17.3693 67.4876 17.3693C67.9847 17.3693 68.4279 17.4616 68.8171 17.6463C69.2063 17.8281 69.5202 18.0838 69.7589 18.4134C70.0004 18.7429 70.1438 19.1278 70.1893 19.5682H68.9492C68.881 19.2614 68.7248 18.9972 68.4805 18.7756C68.239 18.554 67.9151 18.4432 67.5089 18.4432C67.1538 18.4432 66.8427 18.5369 66.5756 18.7244C66.3114 18.9091 66.1055 19.1733 65.9577 19.517C65.81 19.858 65.7362 20.2614 65.7362 20.7273C65.7362 21.2045 65.8086 21.6165 65.9535 21.9631C66.0984 22.3097 66.3029 22.5781 66.5671 22.7685C66.8342 22.9588 67.1481 23.054 67.5089 23.054C67.7504 23.054 67.9691 23.0099 68.1651 22.9219C68.364 22.831 68.5302 22.7017 68.6637 22.5341C68.8001 22.3665 68.8952 22.1648 68.9492 21.929H70.1893C70.1438 22.3523 70.006 22.7301 69.7759 23.0625C69.5458 23.3949 69.2376 23.6562 68.8512 23.8466C68.4677 24.0369 68.0174 24.1321 67.5004 24.1321ZM71.5518 24V17.4545H72.7834V18.4943H72.8516C72.9709 18.142 73.1811 17.8651 73.4822 17.6634C73.7862 17.4588 74.13 17.3565 74.5135 17.3565C74.593 17.3565 74.6868 17.3594 74.7947 17.3651C74.9055 17.3707 74.9922 17.3778 75.0547 17.3864V18.6051C75.0036 18.5909 74.9126 18.5753 74.782 18.5582C74.6513 18.5384 74.5206 18.5284 74.3899 18.5284C74.0888 18.5284 73.8203 18.5923 73.5845 18.7202C73.3516 18.8452 73.1669 19.0199 73.0305 19.2443C72.8942 19.4659 72.826 19.7187 72.826 20.0028V24H71.5518ZM78.68 24.1321C78.0664 24.1321 77.5309 23.9915 77.0735 23.7102C76.6161 23.429 76.261 23.0355 76.0082 22.5298C75.7553 22.0241 75.6289 21.4332 75.6289 20.7571C75.6289 20.0781 75.7553 19.4844 76.0082 18.9759C76.261 18.4673 76.6161 18.0724 77.0735 17.7912C77.5309 17.5099 78.0664 17.3693 78.68 17.3693C79.2937 17.3693 79.8292 17.5099 80.2866 17.7912C80.744 18.0724 81.0991 18.4673 81.3519 18.9759C81.6048 19.4844 81.7312 20.0781 81.7312 20.7571C81.7312 21.4332 81.6048 22.0241 81.3519 22.5298C81.0991 23.0355 80.744 23.429 80.2866 23.7102C79.8292 23.9915 79.2937 24.1321 78.68 24.1321ZM78.6843 23.0625C79.082 23.0625 79.4116 22.9574 79.6729 22.7472C79.9343 22.5369 80.1275 22.2571 80.2525 21.9077C80.3803 21.5582 80.4442 21.1733 80.4442 20.7528C80.4442 20.3352 80.3803 19.9517 80.2525 19.6023C80.1275 19.25 79.9343 18.9673 79.6729 18.7543C79.4116 18.5412 79.082 18.4347 78.6843 18.4347C78.2837 18.4347 77.9513 18.5412 77.6871 18.7543C77.4258 18.9673 77.2312 19.25 77.1033 19.6023C76.9783 19.9517 76.9158 20.3352 76.9158 20.7528C76.9158 21.1733 76.9783 21.5582 77.1033 21.9077C77.2312 22.2571 77.4258 22.5369 77.6871 22.7472C77.9513 22.9574 78.2837 23.0625 78.6843 23.0625ZM84.3732 24L82.4471 17.4545H83.7638L85.0465 22.2614H85.1104L86.3974 17.4545H87.7141L88.9925 22.2401H89.0565L90.3306 17.4545H91.6474L89.7255 24H88.4258L87.0962 19.2741H86.9982L85.6687 24H84.3732ZM94.7614 24.1449C94.3466 24.1449 93.9716 24.0682 93.6364 23.9148C93.3011 23.7585 93.0355 23.5327 92.8395 23.2372C92.6463 22.9418 92.5497 22.5795 92.5497 22.1506C92.5497 21.7812 92.6207 21.4773 92.7628 21.2386C92.9048 21 93.0966 20.8111 93.3381 20.6719C93.5795 20.5327 93.8494 20.4276 94.1477 20.3565C94.446 20.2855 94.75 20.2315 95.0597 20.1946C95.4517 20.1491 95.7699 20.1122 96.0142 20.0838C96.2585 20.0526 96.4361 20.0028 96.5469 19.9347C96.6577 19.8665 96.7131 19.7557 96.7131 19.6023V19.5724C96.7131 19.2003 96.608 18.9119 96.3977 18.7074C96.1903 18.5028 95.8807 18.4006 95.4688 18.4006C95.0398 18.4006 94.7017 18.4957 94.4545 18.6861C94.2102 18.8736 94.0412 19.0824 93.9474 19.3125L92.75 19.0398C92.892 18.642 93.0994 18.321 93.3722 18.0767C93.6477 17.8295 93.9645 17.6506 94.3224 17.5398C94.6804 17.4261 95.0568 17.3693 95.4517 17.3693C95.7131 17.3693 95.9901 17.4006 96.2827 17.4631C96.5781 17.5227 96.8537 17.6335 97.1094 17.7955C97.3679 17.9574 97.5795 18.1889 97.7443 18.4901C97.9091 18.7884 97.9915 19.1761 97.9915 19.6534V24H96.7472V23.1051H96.696C96.6136 23.2699 96.4901 23.4318 96.3253 23.5909C96.1605 23.75 95.9489 23.8821 95.6903 23.9872C95.4318 24.0923 95.1222 24.1449 94.7614 24.1449ZM95.0384 23.1222C95.3906 23.1222 95.6918 23.0526 95.9418 22.9134C96.1946 22.7741 96.3864 22.5923 96.517 22.3679C96.6506 22.1406 96.7173 21.8977 96.7173 21.6392V20.7955C96.6719 20.8409 96.5838 20.8835 96.4531 20.9233C96.3253 20.9602 96.179 20.9929 96.0142 21.0213C95.8494 21.0469 95.6889 21.071 95.5327 21.0938C95.3764 21.1136 95.2457 21.1307 95.1406 21.1449C94.8935 21.1761 94.6676 21.2287 94.4631 21.3026C94.2614 21.3764 94.0994 21.483 93.9773 21.6222C93.858 21.7585 93.7983 21.9403 93.7983 22.1676C93.7983 22.483 93.9148 22.7216 94.1477 22.8835C94.3807 23.0426 94.6776 23.1222 95.0384 23.1222ZM105.054 17.4545L102.68 24H101.316L98.9386 17.4545H100.306L101.964 22.4915H102.032L103.686 17.4545H105.054ZM108.849 24.1321C108.205 24.1321 107.649 23.9943 107.183 23.7188C106.72 23.4403 106.362 23.0497 106.109 22.5469C105.859 22.0412 105.734 21.4489 105.734 20.7699C105.734 20.0994 105.859 19.5085 106.109 18.9972C106.362 18.4858 106.714 18.0866 107.166 17.7997C107.621 17.5128 108.152 17.3693 108.76 17.3693C109.129 17.3693 109.487 17.4304 109.834 17.5526C110.18 17.6747 110.491 17.8665 110.767 18.1278C111.043 18.3892 111.26 18.7287 111.419 19.1463C111.578 19.5611 111.658 20.0653 111.658 20.6591V21.1108H106.455V20.1562H110.409C110.409 19.821 110.341 19.5241 110.205 19.2656C110.068 19.0043 109.876 18.7983 109.629 18.6477C109.385 18.4972 109.098 18.4219 108.768 18.4219C108.411 18.4219 108.098 18.5099 107.831 18.6861C107.567 18.8594 107.362 19.0866 107.217 19.3679C107.075 19.6463 107.004 19.9489 107.004 20.2756V21.0213C107.004 21.4588 107.081 21.831 107.234 22.1378C107.391 22.4446 107.608 22.679 107.886 22.8409C108.165 23 108.49 23.0795 108.862 23.0795C109.104 23.0795 109.324 23.0455 109.523 22.9773C109.722 22.9062 109.893 22.8011 110.038 22.6619C110.183 22.5227 110.294 22.3509 110.371 22.1463L111.577 22.3636C111.48 22.7187 111.307 23.0298 111.057 23.2969C110.81 23.5611 110.499 23.767 110.124 23.9148C109.751 24.0597 109.327 24.1321 108.849 24.1321ZM121.152 19.0526L119.997 19.2571C119.949 19.1094 119.872 18.9687 119.767 18.8352C119.665 18.7017 119.526 18.5923 119.349 18.5071C119.173 18.4219 118.953 18.3793 118.689 18.3793C118.328 18.3793 118.027 18.4602 117.786 18.6222C117.544 18.7812 117.423 18.9872 117.423 19.2401C117.423 19.4588 117.504 19.6349 117.666 19.7685C117.828 19.902 118.089 20.0114 118.45 20.0966L119.49 20.3352C120.092 20.4744 120.541 20.6889 120.837 20.9787C121.132 21.2685 121.28 21.6449 121.28 22.108C121.28 22.5 121.166 22.8494 120.939 23.1562C120.714 23.4602 120.401 23.6989 119.997 23.8722C119.597 24.0455 119.132 24.1321 118.604 24.1321C117.871 24.1321 117.273 23.9759 116.81 23.6634C116.347 23.348 116.063 22.9006 115.957 22.321L117.189 22.1335C117.266 22.4545 117.423 22.6974 117.662 22.8622C117.901 23.0241 118.212 23.1051 118.595 23.1051C119.013 23.1051 119.347 23.0185 119.597 22.8452C119.847 22.669 119.972 22.4545 119.972 22.2017C119.972 21.9972 119.895 21.8253 119.741 21.6861C119.591 21.5469 119.359 21.4418 119.047 21.3707L117.939 21.1278C117.328 20.9886 116.876 20.767 116.584 20.4631C116.294 20.1591 116.149 19.7741 116.149 19.3082C116.149 18.9219 116.257 18.5838 116.473 18.294C116.689 18.0043 116.987 17.7784 117.368 17.6165C117.749 17.4517 118.185 17.3693 118.676 17.3693C119.384 17.3693 119.94 17.5227 120.347 17.8295C120.753 18.1335 121.021 18.5412 121.152 19.0526ZM124.586 24.1449C124.171 24.1449 123.796 24.0682 123.461 23.9148C123.125 23.7585 122.86 23.5327 122.664 23.2372C122.471 22.9418 122.374 22.5795 122.374 22.1506C122.374 21.7812 122.445 21.4773 122.587 21.2386C122.729 21 122.921 20.8111 123.162 20.6719C123.404 20.5327 123.674 20.4276 123.972 20.3565C124.27 20.2855 124.574 20.2315 124.884 20.1946C125.276 20.1491 125.594 20.1122 125.838 20.0838C126.083 20.0526 126.26 20.0028 126.371 19.9347C126.482 19.8665 126.537 19.7557 126.537 19.6023V19.5724C126.537 19.2003 126.432 18.9119 126.222 18.7074C126.015 18.5028 125.705 18.4006 125.293 18.4006C124.864 18.4006 124.526 18.4957 124.279 18.6861C124.034 18.8736 123.865 19.0824 123.772 19.3125L122.574 19.0398C122.716 18.642 122.924 18.321 123.196 18.0767C123.472 17.8295 123.789 17.6506 124.147 17.5398C124.505 17.4261 124.881 17.3693 125.276 17.3693C125.537 17.3693 125.814 17.4006 126.107 17.4631C126.402 17.5227 126.678 17.6335 126.934 17.7955C127.192 17.9574 127.404 18.1889 127.569 18.4901C127.733 18.7884 127.816 19.1761 127.816 19.6534V24H126.571V23.1051H126.52C126.438 23.2699 126.314 23.4318 126.15 23.5909C125.985 23.75 125.773 23.8821 125.515 23.9872C125.256 24.0923 124.946 24.1449 124.586 24.1449ZM124.863 23.1222C125.215 23.1222 125.516 23.0526 125.766 22.9134C126.019 22.7741 126.211 22.5923 126.341 22.3679C126.475 22.1406 126.542 21.8977 126.542 21.6392V20.7955C126.496 20.8409 126.408 20.8835 126.277 20.9233C126.15 20.9602 126.003 20.9929 125.838 21.0213C125.674 21.0469 125.513 21.071 125.357 21.0938C125.201 21.1136 125.07 21.1307 124.965 21.1449C124.718 21.1761 124.492 21.2287 124.287 21.3026C124.086 21.3764 123.924 21.483 123.801 21.6222C123.682 21.7585 123.623 21.9403 123.623 22.1676C123.623 22.483 123.739 22.7216 123.972 22.8835C124.205 23.0426 124.502 23.1222 124.863 23.1222ZM132.628 17.4545V18.4773H128.929V17.4545H132.628ZM129.943 24V16.696C129.943 16.2869 130.033 15.9474 130.212 15.6776C130.391 15.4048 130.628 15.2017 130.923 15.0682C131.219 14.9318 131.54 14.8636 131.886 14.8636C132.142 14.8636 132.361 14.8849 132.543 14.9276C132.724 14.9673 132.859 15.0043 132.947 15.0384L132.649 16.0696C132.589 16.0526 132.513 16.0327 132.419 16.0099C132.325 15.9844 132.212 15.9716 132.078 15.9716C131.768 15.9716 131.547 16.0483 131.413 16.2017C131.283 16.3551 131.217 16.5767 131.217 16.8665V24H129.943ZM136.506 24.1321C135.861 24.1321 135.305 23.9943 134.839 23.7188C134.376 23.4403 134.018 23.0497 133.766 22.5469C133.516 22.0412 133.391 21.4489 133.391 20.7699C133.391 20.0994 133.516 19.5085 133.766 18.9972C134.018 18.4858 134.371 18.0866 134.822 17.7997C135.277 17.5128 135.808 17.3693 136.416 17.3693C136.786 17.3693 137.143 17.4304 137.49 17.5526C137.837 17.6747 138.148 17.8665 138.423 18.1278C138.699 18.3892 138.916 18.7287 139.075 19.1463C139.234 19.5611 139.314 20.0653 139.314 20.6591V21.1108H134.111V20.1562H138.065C138.065 19.821 137.997 19.5241 137.861 19.2656C137.724 19.0043 137.533 18.7983 137.286 18.6477C137.041 18.4972 136.754 18.4219 136.425 18.4219C136.067 18.4219 135.754 18.5099 135.487 18.6861C135.223 18.8594 135.018 19.0866 134.874 19.3679C134.732 19.6463 134.661 19.9489 134.661 20.2756V21.0213C134.661 21.4588 134.737 21.831 134.891 22.1378C135.047 22.4446 135.264 22.679 135.543 22.8409C135.821 23 136.146 23.0795 136.518 23.0795C136.76 23.0795 136.98 23.0455 137.179 22.9773C137.378 22.9062 137.55 22.8011 137.695 22.6619C137.839 22.5227 137.95 22.3509 138.027 22.1463L139.233 22.3636C139.136 22.7187 138.963 23.0298 138.713 23.2969C138.466 23.5611 138.155 23.767 137.78 23.9148C137.408 24.0597 136.983 24.1321 136.506 24.1321Z" fill="black"/>
<rect y="59" width="39" height="39" rx="19.5" fill="#8F8987"/>
<g clip-path="url(#clip0_1752_209)">
<path d="M15.5092 67.8516L18.9128 71.2552M18.9128 71.2552L22.3164 67.8516M18.9128 71.2552V86.5714M7.85107 82.3169L11.2547 78.9133M11.2547 78.9133L7.85107 75.5097M11.2547 78.9133H26.5709M22.3164 89.975L18.9128 86.5714M18.9128 86.5714L15.5092 89.975M29.9745 75.5097L26.5709 78.9133M26.5709 78.9133L29.9745 82.3169M12.9565 72.957L15.5092 75.5097M15.5092 82.3169L12.9565 84.8696M24.8691 72.957L22.3164 75.5097M22.3164 82.3169L24.8691 84.8696" stroke="white" stroke-width="1.7018" stroke-linecap="round" stroke-linejoin="round"/>
</g>
<path d="M51.3865 83V74.2727H56.7985V75.4062H52.7033V78.0653H56.4107V79.1946H52.7033V83H51.3865ZM58.2335 83V76.4545H59.465V77.4943H59.5332C59.6525 77.142 59.8627 76.8651 60.1639 76.6634C60.4679 76.4588 60.8116 76.3565 61.1951 76.3565C61.2747 76.3565 61.3684 76.3594 61.4764 76.3651C61.5872 76.3707 61.6738 76.3778 61.7363 76.3864V77.6051C61.6852 77.5909 61.5943 77.5753 61.4636 77.5582C61.3329 77.5384 61.2022 77.5284 61.0716 77.5284C60.7704 77.5284 60.502 77.5923 60.2662 77.7202C60.0332 77.8452 59.8485 78.0199 59.7122 78.2443C59.5758 78.4659 59.5076 78.7187 59.5076 79.0028V83H58.2335ZM65.4256 83.1321C64.7807 83.1321 64.2253 82.9943 63.7594 82.7188C63.2963 82.4403 62.9384 82.0497 62.6855 81.5469C62.4355 81.0412 62.3105 80.4489 62.3105 79.7699C62.3105 79.0994 62.4355 78.5085 62.6855 77.9972C62.9384 77.4858 63.2907 77.0866 63.7424 76.7997C64.1969 76.5128 64.7282 76.3693 65.3361 76.3693C65.7054 76.3693 66.0634 76.4304 66.41 76.5526C66.7566 76.6747 67.0676 76.8665 67.3432 77.1278C67.6188 77.3892 67.8361 77.7287 67.9952 78.1463C68.1543 78.5611 68.2338 79.0653 68.2338 79.6591V80.1108H63.0307V79.1562H66.9853C66.9853 78.821 66.9171 78.5241 66.7807 78.2656C66.6444 78.0043 66.4526 77.7983 66.2054 77.6477C65.9611 77.4972 65.6742 77.4219 65.3446 77.4219C64.9867 77.4219 64.6742 77.5099 64.4071 77.6861C64.1429 77.8594 63.9384 78.0866 63.7935 78.3679C63.6515 78.6463 63.5804 78.9489 63.5804 79.2756V80.0213C63.5804 80.4588 63.6571 80.831 63.8105 81.1378C63.9668 81.4446 64.1841 81.679 64.4625 81.8409C64.7409 82 65.0662 82.0795 65.4384 82.0795C65.6799 82.0795 65.9 82.0455 66.0989 81.9773C66.2978 81.9062 66.4696 81.8011 66.6145 81.6619C66.7594 81.5227 66.8702 81.3509 66.9469 81.1463L68.1529 81.3636C68.0563 81.7187 67.883 82.0298 67.633 82.2969C67.3858 82.5611 67.0748 82.767 66.6998 82.9148C66.3276 83.0597 65.9029 83.1321 65.4256 83.1321ZM72.4686 83.1321C71.8237 83.1321 71.2683 82.9943 70.8024 82.7188C70.3393 82.4403 69.9814 82.0497 69.7285 81.5469C69.4785 81.0412 69.3535 80.4489 69.3535 79.7699C69.3535 79.0994 69.4785 78.5085 69.7285 77.9972C69.9814 77.4858 70.3336 77.0866 70.7853 76.7997C71.2399 76.5128 71.7711 76.3693 72.3791 76.3693C72.7484 76.3693 73.1064 76.4304 73.4529 76.5526C73.7995 76.6747 74.1106 76.8665 74.3862 77.1278C74.6618 77.3892 74.8791 77.7287 75.0382 78.1463C75.1973 78.5611 75.2768 79.0653 75.2768 79.6591V80.1108H70.0737V79.1562H74.0282C74.0282 78.821 73.96 78.5241 73.8237 78.2656C73.6873 78.0043 73.4956 77.7983 73.2484 77.6477C73.0041 77.4972 72.7172 77.4219 72.3876 77.4219C72.0297 77.4219 71.7172 77.5099 71.4501 77.6861C71.1859 77.8594 70.9814 78.0866 70.8365 78.3679C70.6944 78.6463 70.6234 78.9489 70.6234 79.2756V80.0213C70.6234 80.4588 70.7001 80.831 70.8535 81.1378C71.0098 81.4446 71.2271 81.679 71.5055 81.8409C71.7839 82 72.1092 82.0795 72.4814 82.0795C72.7228 82.0795 72.943 82.0455 73.1419 81.9773C73.3407 81.9062 73.5126 81.8011 73.6575 81.6619C73.8024 81.5227 73.9132 81.3509 73.9899 81.1463L75.1958 81.3636C75.0993 81.7187 74.926 82.0298 74.676 82.2969C74.4288 82.5611 74.1177 82.767 73.7427 82.9148C73.3706 83.0597 72.9458 83.1321 72.4686 83.1321ZM76.5542 83V82.1264L80.0996 77.6222V77.5625H76.6692V76.4545H81.6891V77.3835L78.28 81.8324V81.892H81.8084V83H76.5542ZM85.9451 83.1321C85.3002 83.1321 84.7449 82.9943 84.2789 82.7188C83.8159 82.4403 83.4579 82.0497 83.2051 81.5469C82.9551 81.0412 82.8301 80.4489 82.8301 79.7699C82.8301 79.0994 82.9551 78.5085 83.2051 77.9972C83.4579 77.4858 83.8102 77.0866 84.2619 76.7997C84.7164 76.5128 85.2477 76.3693 85.8556 76.3693C86.225 76.3693 86.5829 76.4304 86.9295 76.5526C87.2761 76.6747 87.5872 76.8665 87.8627 77.1278C88.1383 77.3892 88.3556 77.7287 88.5147 78.1463C88.6738 78.5611 88.7534 79.0653 88.7534 79.6591V80.1108H83.5502V79.1562H87.5048C87.5048 78.821 87.4366 78.5241 87.3002 78.2656C87.1639 78.0043 86.9721 77.7983 86.725 77.6477C86.4806 77.4972 86.1937 77.4219 85.8642 77.4219C85.5062 77.4219 85.1937 77.5099 84.9267 77.6861C84.6625 77.8594 84.4579 78.0866 84.313 78.3679C84.171 78.6463 84.1 78.9489 84.1 79.2756V80.0213C84.1 80.4588 84.1767 80.831 84.3301 81.1378C84.4863 81.4446 84.7037 81.679 84.9821 81.8409C85.2605 82 85.5858 82.0795 85.9579 82.0795C86.1994 82.0795 86.4196 82.0455 86.6184 81.9773C86.8173 81.9062 86.9892 81.8011 87.1341 81.6619C87.2789 81.5227 87.3897 81.3509 87.4664 81.1463L88.6724 81.3636C88.5758 81.7187 88.4025 82.0298 88.1525 82.2969C87.9054 82.5611 87.5943 82.767 87.2193 82.9148C86.8471 83.0597 86.4224 83.1321 85.9451 83.1321ZM90.1671 83V76.4545H91.3986V77.4943H91.4668C91.5861 77.142 91.7963 76.8651 92.0975 76.6634C92.4015 76.4588 92.7452 76.3565 93.1287 76.3565C93.2083 76.3565 93.302 76.3594 93.41 76.3651C93.5208 76.3707 93.6074 76.3778 93.6699 76.3864V77.6051C93.6188 77.5909 93.5279 77.5753 93.3972 77.5582C93.2665 77.5384 93.1358 77.5284 93.0051 77.5284C92.704 77.5284 92.4355 77.5923 92.1998 77.7202C91.9668 77.8452 91.7821 78.0199 91.6458 78.2443C91.5094 78.4659 91.4412 78.7187 91.4412 79.0028V83H90.1671ZM102.853 78.0526L101.698 78.2571C101.65 78.1094 101.573 77.9687 101.468 77.8352C101.366 77.7017 101.227 77.5923 101.051 77.5071C100.874 77.4219 100.654 77.3793 100.39 77.3793C100.029 77.3793 99.7282 77.4602 99.4867 77.6222C99.2452 77.7812 99.1245 77.9872 99.1245 78.2401C99.1245 78.4588 99.2054 78.6349 99.3674 78.7685C99.5293 78.902 99.7907 79.0114 100.151 79.0966L101.191 79.3352C101.794 79.4744 102.242 79.6889 102.538 79.9787C102.833 80.2685 102.981 80.6449 102.981 81.108C102.981 81.5 102.867 81.8494 102.64 82.1562C102.416 82.4602 102.102 82.6989 101.698 82.8722C101.298 83.0455 100.833 83.1321 100.305 83.1321C99.5719 83.1321 98.9739 82.9759 98.5108 82.6634C98.0478 82.348 97.7637 81.9006 97.6586 81.321L98.8901 81.1335C98.9668 81.4545 99.1245 81.6974 99.3631 81.8622C99.6017 82.0241 99.9128 82.1051 100.296 82.1051C100.714 82.1051 101.048 82.0185 101.298 81.8452C101.548 81.669 101.673 81.4545 101.673 81.2017C101.673 80.9972 101.596 80.8253 101.443 80.6861C101.292 80.5469 101.061 80.4418 100.748 80.3707L99.6401 80.1278C99.0293 79.9886 98.5776 79.767 98.285 79.4631C97.9952 79.1591 97.8503 78.7741 97.8503 78.3082C97.8503 77.9219 97.9583 77.5838 98.1742 77.294C98.3901 77.0043 98.6884 76.7784 99.0691 76.6165C99.4498 76.4517 99.8858 76.3693 100.377 76.3693C101.085 76.3693 101.642 76.5227 102.048 76.8295C102.454 77.1335 102.722 77.5412 102.853 78.0526ZM106.287 83.1449C105.872 83.1449 105.497 83.0682 105.162 82.9148C104.827 82.7585 104.561 82.5327 104.365 82.2372C104.172 81.9418 104.075 81.5795 104.075 81.1506C104.075 80.7812 104.146 80.4773 104.288 80.2386C104.43 80 104.622 79.8111 104.863 79.6719C105.105 79.5327 105.375 79.4276 105.673 79.3565C105.971 79.2855 106.275 79.2315 106.585 79.1946C106.977 79.1491 107.295 79.1122 107.54 79.0838C107.784 79.0526 107.961 79.0028 108.072 78.9347C108.183 78.8665 108.238 78.7557 108.238 78.6023V78.5724C108.238 78.2003 108.133 77.9119 107.923 77.7074C107.716 77.5028 107.406 77.4006 106.994 77.4006C106.565 77.4006 106.227 77.4957 105.98 77.6861C105.736 77.8736 105.567 78.0824 105.473 78.3125L104.275 78.0398C104.417 77.642 104.625 77.321 104.898 77.0767C105.173 76.8295 105.49 76.6506 105.848 76.5398C106.206 76.4261 106.582 76.3693 106.977 76.3693C107.238 76.3693 107.515 76.4006 107.808 76.4631C108.104 76.5227 108.379 76.6335 108.635 76.7955C108.893 76.9574 109.105 77.1889 109.27 77.4901C109.434 77.7884 109.517 78.1761 109.517 78.6534V83H108.273V82.1051H108.221C108.139 82.2699 108.015 82.4318 107.851 82.5909C107.686 82.75 107.474 82.8821 107.216 82.9872C106.957 83.0923 106.648 83.1449 106.287 83.1449ZM106.564 82.1222C106.916 82.1222 107.217 82.0526 107.467 81.9134C107.72 81.7741 107.912 81.5923 108.042 81.3679C108.176 81.1406 108.243 80.8977 108.243 80.6392V79.7955C108.197 79.8409 108.109 79.8835 107.979 79.9233C107.851 79.9602 107.704 79.9929 107.54 80.0213C107.375 80.0469 107.214 80.071 107.058 80.0938C106.902 80.1136 106.771 80.1307 106.666 80.1449C106.419 80.1761 106.193 80.2287 105.988 80.3026C105.787 80.3764 105.625 80.483 105.503 80.6222C105.383 80.7585 105.324 80.9403 105.324 81.1676C105.324 81.483 105.44 81.7216 105.673 81.8835C105.906 82.0426 106.203 82.1222 106.564 82.1222ZM114.329 76.4545V77.4773H110.63V76.4545H114.329ZM111.644 83V75.696C111.644 75.2869 111.734 74.9474 111.913 74.6776C112.092 74.4048 112.329 74.2017 112.624 74.0682C112.92 73.9318 113.241 73.8636 113.588 73.8636C113.843 73.8636 114.062 73.8849 114.244 73.9276C114.426 73.9673 114.561 74.0043 114.649 74.0384L114.35 75.0696C114.291 75.0526 114.214 75.0327 114.12 75.0099C114.026 74.9844 113.913 74.9716 113.779 74.9716C113.47 74.9716 113.248 75.0483 113.115 75.2017C112.984 75.3551 112.919 75.5767 112.919 75.8665V83H111.644ZM118.207 83.1321C117.562 83.1321 117.007 82.9943 116.541 82.7188C116.078 82.4403 115.72 82.0497 115.467 81.5469C115.217 81.0412 115.092 80.4489 115.092 79.7699C115.092 79.0994 115.217 78.5085 115.467 77.9972C115.72 77.4858 116.072 77.0866 116.524 76.7997C116.978 76.5128 117.509 76.3693 118.117 76.3693C118.487 76.3693 118.845 76.4304 119.191 76.5526C119.538 76.6747 119.849 76.8665 120.124 77.1278C120.4 77.3892 120.617 77.7287 120.776 78.1463C120.936 78.5611 121.015 79.0653 121.015 79.6591V80.1108H115.812V79.1562H119.767C119.767 78.821 119.698 78.5241 119.562 78.2656C119.426 78.0043 119.234 77.7983 118.987 77.6477C118.742 77.4972 118.455 77.4219 118.126 77.4219C117.768 77.4219 117.455 77.5099 117.188 77.6861C116.924 77.8594 116.72 78.0866 116.575 78.3679C116.433 78.6463 116.362 78.9489 116.362 79.2756V80.0213C116.362 80.4588 116.438 80.831 116.592 81.1378C116.748 81.4446 116.965 81.679 117.244 81.8409C117.522 82 117.847 82.0795 118.22 82.0795C118.461 82.0795 118.681 82.0455 118.88 81.9773C119.079 81.9062 119.251 81.8011 119.396 81.6619C119.541 81.5227 119.651 81.3509 119.728 81.1463L120.934 81.3636C120.838 81.7187 120.664 82.0298 120.414 82.2969C120.167 82.5611 119.856 82.767 119.481 82.9148C119.109 83.0597 118.684 83.1321 118.207 83.1321Z" fill="black"/>
<rect y="118" width="39" height="39" rx="19.5" fill="#8F8987"/>
<path d="M27.845 128.977V130.962C27.845 140.519 22.5111 144.86 15.9324 144.86H14.0442C14.2547 141.87 15.1859 140.06 17.6161 137.91C18.8113 136.853 18.71 136.242 18.1213 136.593C14.0671 139.005 12.0529 142.265 11.9635 147.471L11.9605 147.838H9.9751C9.9751 146.485 10.0903 145.257 10.3186 144.133C10.0909 142.849 9.97675 141.106 9.97609 138.904C9.97609 133.421 14.4205 128.977 19.9033 128.977C21.8887 128.977 23.8741 129.969 27.845 128.977Z" fill="white"/>
<path d="M51.2069 142V133.273H56.6188V134.406H52.5236V137.065H56.231V138.195H52.5236V142H51.2069ZM60.4125 142.132C59.7988 142.132 59.2633 141.991 58.8059 141.71C58.3485 141.429 57.9934 141.036 57.7406 140.53C57.4877 140.024 57.3613 139.433 57.3613 138.757C57.3613 138.078 57.4877 137.484 57.7406 136.976C57.9934 136.467 58.3485 136.072 58.8059 135.791C59.2633 135.51 59.7988 135.369 60.4125 135.369C61.0261 135.369 61.5616 135.51 62.019 135.791C62.4764 136.072 62.8315 136.467 63.0843 136.976C63.3372 137.484 63.4636 138.078 63.4636 138.757C63.4636 139.433 63.3372 140.024 63.0843 140.53C62.8315 141.036 62.4764 141.429 62.019 141.71C61.5616 141.991 61.0261 142.132 60.4125 142.132ZM60.4167 141.062C60.8145 141.062 61.144 140.957 61.4054 140.747C61.6667 140.537 61.8599 140.257 61.9849 139.908C62.1127 139.558 62.1767 139.173 62.1767 138.753C62.1767 138.335 62.1127 137.952 61.9849 137.602C61.8599 137.25 61.6667 136.967 61.4054 136.754C61.144 136.541 60.8145 136.435 60.4167 136.435C60.0162 136.435 59.6838 136.541 59.4196 136.754C59.1582 136.967 58.9636 137.25 58.8358 137.602C58.7108 137.952 58.6483 138.335 58.6483 138.753C58.6483 139.173 58.7108 139.558 58.8358 139.908C58.9636 140.257 59.1582 140.537 59.4196 140.747C59.6838 140.957 60.0162 141.062 60.4167 141.062ZM67.6429 142.132C67.0293 142.132 66.4938 141.991 66.0364 141.71C65.579 141.429 65.2239 141.036 64.9711 140.53C64.7182 140.024 64.5918 139.433 64.5918 138.757C64.5918 138.078 64.7182 137.484 64.9711 136.976C65.2239 136.467 65.579 136.072 66.0364 135.791C66.4938 135.51 67.0293 135.369 67.6429 135.369C68.2566 135.369 68.7921 135.51 69.2495 135.791C69.7069 136.072 70.062 136.467 70.3148 136.976C70.5676 137.484 70.6941 138.078 70.6941 138.757C70.6941 139.433 70.5676 140.024 70.3148 140.53C70.062 141.036 69.7069 141.429 69.2495 141.71C68.7921 141.991 68.2566 142.132 67.6429 142.132ZM67.6472 141.062C68.0449 141.062 68.3745 140.957 68.6358 140.747C68.8972 140.537 69.0904 140.257 69.2154 139.908C69.3432 139.558 69.4071 139.173 69.4071 138.753C69.4071 138.335 69.3432 137.952 69.2154 137.602C69.0904 137.25 68.8972 136.967 68.6358 136.754C68.3745 136.541 68.0449 136.435 67.6472 136.435C67.2466 136.435 66.9142 136.541 66.65 136.754C66.3887 136.967 66.1941 137.25 66.0662 137.602C65.9412 137.952 65.8787 138.335 65.8787 138.753C65.8787 139.173 65.9412 139.558 66.0662 139.908C66.1941 140.257 66.3887 140.537 66.65 140.747C66.9142 140.957 67.2466 141.062 67.6472 141.062ZM74.5666 142.128C74.0382 142.128 73.5666 141.993 73.1518 141.723C72.7399 141.45 72.416 141.062 72.1802 140.56C71.9473 140.054 71.8308 139.447 71.8308 138.74C71.8308 138.033 71.9487 137.428 72.1845 136.925C72.4231 136.422 72.7498 136.037 73.1646 135.77C73.5794 135.503 74.0495 135.369 74.5751 135.369C74.9814 135.369 75.3081 135.438 75.5552 135.574C75.8052 135.707 75.9984 135.864 76.1348 136.043C76.274 136.222 76.3819 136.379 76.4586 136.516H76.5353V133.273H77.8095V142H76.5652V140.982H76.4586C76.3819 141.121 76.2711 141.28 76.1262 141.459C75.9842 141.638 75.7882 141.794 75.5382 141.928C75.2882 142.061 74.9643 142.128 74.5666 142.128ZM74.8478 141.041C75.2143 141.041 75.524 140.945 75.7768 140.751C76.0325 140.555 76.2257 140.284 76.3564 139.938C76.4899 139.591 76.5566 139.187 76.5566 138.727C76.5566 138.273 76.4913 137.875 76.3606 137.534C76.2299 137.193 76.0382 136.928 75.7853 136.737C75.5325 136.547 75.22 136.452 74.8478 136.452C74.4643 136.452 74.1447 136.551 73.889 136.75C73.6333 136.949 73.4402 137.22 73.3095 137.564C73.1816 137.908 73.1177 138.295 73.1177 138.727C73.1177 139.165 73.1831 139.558 73.3137 139.908C73.4444 140.257 73.6376 140.534 73.8933 140.739C74.1518 140.94 74.47 141.041 74.8478 141.041ZM85.5481 144.591C85.0282 144.591 84.5808 144.523 84.2058 144.386C83.8336 144.25 83.5297 144.07 83.2939 143.845C83.0581 143.621 82.8819 143.375 82.7654 143.108L83.8606 142.656C83.9373 142.781 84.0396 142.913 84.1674 143.053C84.2981 143.195 84.4743 143.315 84.6958 143.415C84.9203 143.514 85.2086 143.564 85.5609 143.564C86.0439 143.564 86.443 143.446 86.7583 143.21C87.0737 142.977 87.2314 142.605 87.2314 142.094V140.807H87.1504C87.0737 140.946 86.9629 141.101 86.818 141.271C86.676 141.442 86.4799 141.589 86.2299 141.714C85.9799 141.839 85.6547 141.902 85.2541 141.902C84.737 141.902 84.2711 141.781 83.8564 141.54C83.4444 141.295 83.1177 140.936 82.8762 140.462C82.6376 139.984 82.5183 139.398 82.5183 138.702C82.5183 138.006 82.6362 137.409 82.872 136.912C83.1106 136.415 83.4373 136.034 83.8521 135.77C84.2669 135.503 84.737 135.369 85.2626 135.369C85.6689 135.369 85.997 135.438 86.247 135.574C86.497 135.707 86.6916 135.864 86.8308 136.043C86.9728 136.222 87.0822 136.379 87.1589 136.516H87.2527V135.455H88.5012V142.145C88.5012 142.707 88.3706 143.169 88.1092 143.53C87.8478 143.891 87.4941 144.158 87.0481 144.331C86.6049 144.504 86.1049 144.591 85.5481 144.591ZM85.5353 140.845C85.9018 140.845 86.2115 140.76 86.4643 140.589C86.72 140.416 86.9132 140.169 87.0439 139.848C87.1774 139.524 87.2441 139.136 87.2441 138.685C87.2441 138.244 87.1788 137.857 87.0481 137.521C86.9174 137.186 86.7257 136.925 86.4728 136.737C86.22 136.547 85.9075 136.452 85.5353 136.452C85.1518 136.452 84.8322 136.551 84.5765 136.75C84.3208 136.946 84.1277 137.213 83.997 137.551C83.8691 137.889 83.8052 138.267 83.8052 138.685C83.8052 139.114 83.8706 139.49 84.0012 139.814C84.1319 140.138 84.3251 140.391 84.5808 140.572C84.8393 140.754 85.1575 140.845 85.5353 140.845ZM90.21 142V135.455H91.4416V136.494H91.5098C91.6291 136.142 91.8393 135.865 92.1404 135.663C92.4444 135.459 92.7882 135.357 93.1717 135.357C93.2512 135.357 93.345 135.359 93.4529 135.365C93.5637 135.371 93.6504 135.378 93.7129 135.386V136.605C93.6618 136.591 93.5708 136.575 93.4402 136.558C93.3095 136.538 93.1788 136.528 93.0481 136.528C92.747 136.528 92.4785 136.592 92.2427 136.72C92.0098 136.845 91.8251 137.02 91.6887 137.244C91.5524 137.466 91.4842 137.719 91.4842 138.003V142H90.21ZM96.6618 142.145C96.247 142.145 95.872 142.068 95.5368 141.915C95.2015 141.759 94.9359 141.533 94.7399 141.237C94.5467 140.942 94.4501 140.58 94.4501 140.151C94.4501 139.781 94.5211 139.477 94.6632 139.239C94.8052 139 94.997 138.811 95.2385 138.672C95.4799 138.533 95.7498 138.428 96.0481 138.357C96.3464 138.286 96.6504 138.232 96.96 138.195C97.3521 138.149 97.6703 138.112 97.9146 138.084C98.1589 138.053 98.3365 138.003 98.4473 137.935C98.5581 137.866 98.6135 137.756 98.6135 137.602V137.572C98.6135 137.2 98.5083 136.912 98.2981 136.707C98.0907 136.503 97.7811 136.401 97.3691 136.401C96.9402 136.401 96.6021 136.496 96.3549 136.686C96.1106 136.874 95.9416 137.082 95.8478 137.312L94.6504 137.04C94.7924 136.642 94.9998 136.321 95.2725 136.077C95.5481 135.83 95.8649 135.651 96.2228 135.54C96.5808 135.426 96.9572 135.369 97.3521 135.369C97.6135 135.369 97.8904 135.401 98.1831 135.463C98.4785 135.523 98.7541 135.634 99.0098 135.795C99.2683 135.957 99.4799 136.189 99.6447 136.49C99.8095 136.788 99.8919 137.176 99.8919 137.653V142H98.6475V141.105H98.5964C98.514 141.27 98.3904 141.432 98.2257 141.591C98.0609 141.75 97.8493 141.882 97.5907 141.987C97.3322 142.092 97.0225 142.145 96.6618 142.145ZM96.9387 141.122C97.291 141.122 97.5922 141.053 97.8422 140.913C98.095 140.774 98.2868 140.592 98.4174 140.368C98.551 140.141 98.6177 139.898 98.6177 139.639V138.795C98.5723 138.841 98.4842 138.884 98.3535 138.923C98.2257 138.96 98.0794 138.993 97.9146 139.021C97.7498 139.047 97.5893 139.071 97.4331 139.094C97.2768 139.114 97.1461 139.131 97.041 139.145C96.7939 139.176 96.568 139.229 96.3635 139.303C96.1618 139.376 95.9998 139.483 95.8777 139.622C95.7583 139.759 95.6987 139.94 95.6987 140.168C95.6987 140.483 95.8152 140.722 96.0481 140.884C96.2811 141.043 96.5779 141.122 96.9387 141.122ZM104.039 142.128C103.511 142.128 103.039 141.993 102.624 141.723C102.213 141.45 101.889 141.062 101.653 140.56C101.42 140.054 101.303 139.447 101.303 138.74C101.303 138.033 101.421 137.428 101.657 136.925C101.896 136.422 102.222 136.037 102.637 135.77C103.052 135.503 103.522 135.369 104.048 135.369C104.454 135.369 104.781 135.438 105.028 135.574C105.278 135.707 105.471 135.864 105.607 136.043C105.747 136.222 105.855 136.379 105.931 136.516H106.008V133.273H107.282V142H106.038V140.982H105.931C105.855 141.121 105.744 141.28 105.599 141.459C105.457 141.638 105.261 141.794 105.011 141.928C104.761 142.061 104.437 142.128 104.039 142.128ZM104.32 141.041C104.687 141.041 104.997 140.945 105.249 140.751C105.505 140.555 105.698 140.284 105.829 139.938C105.963 139.591 106.029 139.187 106.029 138.727C106.029 138.273 105.964 137.875 105.833 137.534C105.703 137.193 105.511 136.928 105.258 136.737C105.005 136.547 104.693 136.452 104.32 136.452C103.937 136.452 103.617 136.551 103.362 136.75C103.106 136.949 102.913 137.22 102.782 137.564C102.654 137.908 102.59 138.295 102.59 138.727C102.59 139.165 102.656 139.558 102.786 139.908C102.917 140.257 103.11 140.534 103.366 140.739C103.624 140.94 103.943 141.041 104.32 141.041ZM111.922 142.132C111.277 142.132 110.721 141.994 110.256 141.719C109.792 141.44 109.434 141.05 109.182 140.547C108.932 140.041 108.807 139.449 108.807 138.77C108.807 138.099 108.932 137.509 109.182 136.997C109.434 136.486 109.787 136.087 110.238 135.8C110.693 135.513 111.224 135.369 111.832 135.369C112.202 135.369 112.559 135.43 112.906 135.553C113.253 135.675 113.564 135.866 113.839 136.128C114.115 136.389 114.332 136.729 114.491 137.146C114.65 137.561 114.73 138.065 114.73 138.659V139.111H109.527V138.156H113.481C113.481 137.821 113.413 137.524 113.277 137.266C113.14 137.004 112.949 136.798 112.702 136.648C112.457 136.497 112.17 136.422 111.841 136.422C111.483 136.422 111.17 136.51 110.903 136.686C110.639 136.859 110.434 137.087 110.29 137.368C110.148 137.646 110.077 137.949 110.077 138.276V139.021C110.077 139.459 110.153 139.831 110.307 140.138C110.463 140.445 110.68 140.679 110.959 140.841C111.237 141 111.562 141.08 111.934 141.08C112.176 141.08 112.396 141.045 112.595 140.977C112.794 140.906 112.966 140.801 113.111 140.662C113.256 140.523 113.366 140.351 113.443 140.146L114.649 140.364C114.552 140.719 114.379 141.03 114.129 141.297C113.882 141.561 113.571 141.767 113.196 141.915C112.824 142.06 112.399 142.132 111.922 142.132ZM119.319 142V135.455H120.542V136.52H120.623C120.76 136.159 120.983 135.878 121.292 135.676C121.602 135.472 121.973 135.369 122.405 135.369C122.842 135.369 123.209 135.472 123.504 135.676C123.802 135.881 124.023 136.162 124.165 136.52H124.233C124.389 136.17 124.638 135.892 124.979 135.685C125.319 135.474 125.726 135.369 126.197 135.369C126.791 135.369 127.275 135.555 127.65 135.928C128.028 136.3 128.217 136.861 128.217 137.611V142H126.943V137.73C126.943 137.287 126.822 136.966 126.581 136.767C126.339 136.568 126.051 136.469 125.716 136.469C125.301 136.469 124.979 136.597 124.748 136.852C124.518 137.105 124.403 137.43 124.403 137.828V142H123.133V137.649C123.133 137.294 123.023 137.009 122.801 136.793C122.579 136.577 122.291 136.469 121.936 136.469C121.694 136.469 121.471 136.533 121.267 136.661C121.065 136.786 120.902 136.96 120.777 137.185C120.655 137.409 120.594 137.669 120.594 137.964V142H119.319ZM131.83 142.145C131.415 142.145 131.04 142.068 130.705 141.915C130.369 141.759 130.104 141.533 129.908 141.237C129.715 140.942 129.618 140.58 129.618 140.151C129.618 139.781 129.689 139.477 129.831 139.239C129.973 139 130.165 138.811 130.406 138.672C130.648 138.533 130.918 138.428 131.216 138.357C131.514 138.286 131.818 138.232 132.128 138.195C132.52 138.149 132.838 138.112 133.083 138.084C133.327 138.053 133.504 138.003 133.615 137.935C133.726 137.866 133.781 137.756 133.781 137.602V137.572C133.781 137.2 133.676 136.912 133.466 136.707C133.259 136.503 132.949 136.401 132.537 136.401C132.108 136.401 131.77 136.496 131.523 136.686C131.279 136.874 131.11 137.082 131.016 137.312L129.818 137.04C129.96 136.642 130.168 136.321 130.441 136.077C130.716 135.83 131.033 135.651 131.391 135.54C131.749 135.426 132.125 135.369 132.52 135.369C132.781 135.369 133.058 135.401 133.351 135.463C133.646 135.523 133.922 135.634 134.178 135.795C134.436 135.957 134.648 136.189 134.813 136.49C134.977 136.788 135.06 137.176 135.06 137.653V142H133.816V141.105H133.764C133.682 141.27 133.558 141.432 133.394 141.591C133.229 141.75 133.017 141.882 132.759 141.987C132.5 142.092 132.191 142.145 131.83 142.145ZM132.107 141.122C132.459 141.122 132.76 141.053 133.01 140.913C133.263 140.774 133.455 140.592 133.585 140.368C133.719 140.141 133.786 139.898 133.786 139.639V138.795C133.74 138.841 133.652 138.884 133.521 138.923C133.394 138.96 133.247 138.993 133.083 139.021C132.918 139.047 132.757 139.071 132.601 139.094C132.445 139.114 132.314 139.131 132.209 139.145C131.962 139.176 131.736 139.229 131.531 139.303C131.33 139.376 131.168 139.483 131.046 139.622C130.926 139.759 130.867 139.94 130.867 140.168C130.867 140.483 130.983 140.722 131.216 140.884C131.449 141.043 131.746 141.122 132.107 141.122ZM139.812 135.455V136.477H136.237V135.455H139.812ZM137.196 133.886H138.47V140.078C138.47 140.325 138.507 140.511 138.581 140.636C138.655 140.759 138.75 140.842 138.866 140.888C138.986 140.93 139.115 140.952 139.254 140.952C139.356 140.952 139.446 140.945 139.523 140.93C139.599 140.916 139.659 140.905 139.702 140.896L139.932 141.949C139.858 141.977 139.753 142.006 139.616 142.034C139.48 142.065 139.309 142.082 139.105 142.085C138.77 142.091 138.457 142.031 138.167 141.906C137.878 141.781 137.643 141.588 137.464 141.327C137.285 141.065 137.196 140.737 137.196 140.342V133.886ZM143.972 142.132C143.328 142.132 142.772 141.994 142.306 141.719C141.843 141.44 141.485 141.05 141.232 140.547C140.982 140.041 140.857 139.449 140.857 138.77C140.857 138.099 140.982 137.509 141.232 136.997C141.485 136.486 141.838 136.087 142.289 135.8C142.744 135.513 143.275 135.369 143.883 135.369C144.252 135.369 144.61 135.43 144.957 135.553C145.303 135.675 145.615 135.866 145.89 136.128C146.166 136.389 146.383 136.729 146.542 137.146C146.701 137.561 146.781 138.065 146.781 138.659V139.111H141.578V138.156H145.532C145.532 137.821 145.464 137.524 145.328 137.266C145.191 137.004 144.999 136.798 144.752 136.648C144.508 136.497 144.221 136.422 143.892 136.422C143.534 136.422 143.221 136.51 142.954 136.686C142.69 136.859 142.485 137.087 142.34 137.368C142.198 137.646 142.127 137.949 142.127 138.276V139.021C142.127 139.459 142.204 139.831 142.357 140.138C142.514 140.445 142.731 140.679 143.009 140.841C143.288 141 143.613 141.08 143.985 141.08C144.227 141.08 144.447 141.045 144.646 140.977C144.845 140.906 145.017 140.801 145.161 140.662C145.306 140.523 145.417 140.351 145.494 140.146L146.7 140.364C146.603 140.719 146.43 141.03 146.18 141.297C145.933 141.561 145.622 141.767 145.247 141.915C144.874 142.06 144.45 142.132 143.972 142.132ZM148.194 142V135.455H149.426V136.494H149.494C149.613 136.142 149.824 135.865 150.125 135.663C150.429 135.459 150.773 135.357 151.156 135.357C151.236 135.357 151.329 135.359 151.437 135.365C151.548 135.371 151.635 135.378 151.697 135.386V136.605C151.646 136.591 151.555 136.575 151.425 136.558C151.294 136.538 151.163 136.528 151.032 136.528C150.731 136.528 150.463 136.592 150.227 136.72C149.994 136.845 149.809 137.02 149.673 137.244C149.537 137.466 149.469 137.719 149.469 138.003V142H148.194ZM152.8 142V135.455H154.074V142H152.8ZM153.443 134.445C153.222 134.445 153.031 134.371 152.872 134.223C152.716 134.072 152.638 133.893 152.638 133.686C152.638 133.476 152.716 133.297 152.872 133.149C153.031 132.999 153.222 132.923 153.443 132.923C153.665 132.923 153.854 132.999 154.01 133.149C154.169 133.297 154.249 133.476 154.249 133.686C154.249 133.893 154.169 134.072 154.01 134.223C153.854 134.371 153.665 134.445 153.443 134.445ZM157.693 142.145C157.278 142.145 156.903 142.068 156.568 141.915C156.233 141.759 155.967 141.533 155.771 141.237C155.578 140.942 155.481 140.58 155.481 140.151C155.481 139.781 155.552 139.477 155.694 139.239C155.836 139 156.028 138.811 156.27 138.672C156.511 138.533 156.781 138.428 157.079 138.357C157.378 138.286 157.682 138.232 157.991 138.195C158.383 138.149 158.702 138.112 158.946 138.084C159.19 138.053 159.368 138.003 159.479 137.935C159.589 137.866 159.645 137.756 159.645 137.602V137.572C159.645 137.2 159.54 136.912 159.329 136.707C159.122 136.503 158.812 136.401 158.4 136.401C157.971 136.401 157.633 136.496 157.386 136.686C157.142 136.874 156.973 137.082 156.879 137.312L155.682 137.04C155.824 136.642 156.031 136.321 156.304 136.077C156.579 135.83 156.896 135.651 157.254 135.54C157.612 135.426 157.988 135.369 158.383 135.369C158.645 135.369 158.922 135.401 159.214 135.463C159.51 135.523 159.785 135.634 160.041 135.795C160.3 135.957 160.511 136.189 160.676 136.49C160.841 136.788 160.923 137.176 160.923 137.653V142H159.679V141.105H159.628C159.545 141.27 159.422 141.432 159.257 141.591C159.092 141.75 158.881 141.882 158.622 141.987C158.363 142.092 158.054 142.145 157.693 142.145ZM157.97 141.122C158.322 141.122 158.623 141.053 158.873 140.913C159.126 140.774 159.318 140.592 159.449 140.368C159.582 140.141 159.649 139.898 159.649 139.639V138.795C159.604 138.841 159.515 138.884 159.385 138.923C159.257 138.96 159.111 138.993 158.946 139.021C158.781 139.047 158.621 139.071 158.464 139.094C158.308 139.114 158.177 139.131 158.072 139.145C157.825 139.176 157.599 139.229 157.395 139.303C157.193 139.376 157.031 139.483 156.909 139.622C156.79 139.759 156.73 139.94 156.73 140.168C156.73 140.483 156.846 140.722 157.079 140.884C157.312 141.043 157.609 141.122 157.97 141.122ZM163.894 133.273V142H162.62V133.273H163.894Z" fill="black"/>
<defs>
<clipPath id="clip0_1752_209">
<rect width="23.8252" height="23.8252" fill="white" transform="translate(7 67)"/>
</clipPath>
</defs>
</svg>
