<svg width="91" height="10" viewBox="0 0 91 10" fill="none" xmlns="http://www.w3.org/2000/svg">
<path d="M1.83402 9.07031L0.000489573 2.58115H1.55941L2.70008 7.14384H2.75923L3.92525 2.58115H5.46727L6.63329 7.1185H6.69666L7.82043 2.58115H9.38358L7.54583 9.07031H5.95311L4.73639 4.68506H4.64767L3.43096 9.07031H1.83402ZM11.7906 9.07031L9.95708 2.58115H11.516L12.6567 7.14384H12.7158L13.8818 2.58115H15.4239L16.5899 7.1185H16.6533L17.777 2.58115H19.3402L17.5024 9.07031H15.9097L14.693 4.68506H14.6043L13.3875 9.07031H11.7906ZM21.7472 9.07031L19.9137 2.58115H21.4726L22.6133 7.14384H22.6724L23.8384 2.58115H25.3805L26.5465 7.1185H26.6098L27.7336 2.58115H29.2968L27.459 9.07031H25.8663L24.6496 4.68506H24.5609L23.3441 9.07031H21.7472ZM30.4237 9.16326C30.1674 9.16326 29.9477 9.07313 29.7646 8.89287C29.5816 8.71262 29.4914 8.49294 29.4943 8.23382C29.4914 7.98034 29.5816 7.76347 29.7646 7.58321C29.9477 7.40296 30.1674 7.31283 30.4237 7.31283C30.6716 7.31283 30.887 7.40296 31.0701 7.58321C31.256 7.76347 31.3503 7.98034 31.3531 8.23382C31.3503 8.40562 31.3053 8.56194 31.2179 8.70276C31.1335 8.84359 31.0208 8.95625 30.88 9.04074C30.742 9.12242 30.5899 9.16326 30.4237 9.16326ZM36.219 2.58115V3.76407H32.3829V2.58115H36.219ZM33.3419 9.07031V1.96857C33.3419 1.53202 33.432 1.16869 33.6123 0.878594C33.7954 0.588497 34.0404 0.371628 34.3474 0.227988C34.6544 0.0843477 34.9952 0.0125275 35.3698 0.0125275C35.6345 0.0125275 35.8697 0.0336513 36.0753 0.0758987C36.2809 0.118146 36.433 0.156168 36.5316 0.189966L36.2274 1.37289C36.1626 1.35317 36.0809 1.33345 35.9824 1.31374C35.8838 1.29121 35.7739 1.27994 35.6528 1.27994C35.3684 1.27994 35.167 1.34895 35.0487 1.48695C34.9332 1.62214 34.8755 1.81648 34.8755 2.06996V9.07031H33.3419ZM37.4167 9.07031V2.58115H38.946V9.07031H37.4167ZM38.1856 1.66017C37.9433 1.66017 37.7349 1.5799 37.5603 1.41936C37.3857 1.256 37.2984 1.06026 37.2984 0.832122C37.2984 0.601171 37.3857 0.405426 37.5603 0.244887C37.7349 0.0815314 37.9433 -0.000146302 38.1856 -0.000146302C38.4306 -0.000146302 38.639 0.0815314 38.8108 0.244887C38.9854 0.405426 39.0727 0.601171 39.0727 0.832122C39.0727 1.06026 38.9854 1.256 38.8108 1.41936C38.639 1.5799 38.4306 1.66017 38.1856 1.66017ZM45.6475 4.29639L44.2533 4.44848C44.2139 4.30765 44.1449 4.17528 44.0463 4.05135C43.9505 3.92743 43.821 3.82744 43.6576 3.7514C43.4943 3.67535 43.2943 3.63733 43.0577 3.63733C42.7394 3.63733 42.4719 3.70634 42.255 3.84434C42.041 3.98235 41.9353 4.1612 41.9382 4.38088C41.9353 4.56958 42.0043 4.72308 42.1452 4.84137C42.2888 4.95967 42.5254 5.05684 42.8549 5.13288L43.9618 5.36946C44.5758 5.50184 45.0321 5.71167 45.3306 5.99895C45.632 6.28623 45.7841 6.66223 45.7869 7.12694C45.7841 7.53533 45.6644 7.89584 45.4278 8.20847C45.194 8.51828 44.8687 8.7605 44.4519 8.93512C44.035 9.10974 43.5562 9.19705 43.0155 9.19705C42.2212 9.19705 41.5819 9.03088 41.0974 8.69854C40.613 8.36338 40.3243 7.89725 40.2314 7.30016L41.7227 7.15652C41.7903 7.44943 41.9339 7.67052 42.1536 7.8198C42.3733 7.96907 42.6592 8.04371 43.0112 8.04371C43.3746 8.04371 43.6661 7.96907 43.8857 7.8198C44.1083 7.67052 44.2195 7.48605 44.2195 7.26636C44.2195 7.08047 44.1477 6.92697 44.004 6.80587C43.8632 6.68476 43.6435 6.59181 43.345 6.52704L42.2381 6.29468C41.6157 6.16512 41.1552 5.94684 40.8566 5.63985C40.5581 5.33003 40.4102 4.93854 40.413 4.46538C40.4102 4.06544 40.5187 3.71901 40.7383 3.4261C40.9608 3.13037 41.2692 2.90223 41.6636 2.74169C42.0607 2.57834 42.5184 2.49666 43.0366 2.49666C43.797 2.49666 44.3955 2.65861 44.8321 2.9825C45.2715 3.3064 45.5432 3.74436 45.6475 4.29639ZM50.2883 2.58115V3.76407H46.5579V2.58115H50.2883ZM47.4789 1.02646H49.0082V7.1185C49.0082 7.3241 49.0392 7.48182 49.1012 7.59166C49.1659 7.69869 49.2504 7.77192 49.3546 7.81135C49.4588 7.85078 49.5743 7.87049 49.7011 7.87049C49.7968 7.87049 49.8841 7.86345 49.963 7.84937C50.0447 7.83529 50.1066 7.82261 50.1489 7.81135L50.4066 9.00694C50.3249 9.03511 50.208 9.06609 50.0559 9.09989C49.9067 9.13368 49.7236 9.1534 49.5067 9.15903C49.1237 9.1703 48.7787 9.11256 48.4717 8.98582C48.1647 8.85626 47.9211 8.65629 47.7408 8.38591C47.5634 8.11553 47.4761 7.77755 47.4789 7.37198V1.02646ZM55.2914 4.83715V6.09611H51.3962V4.83715H55.2914ZM59.7305 9.19705C59.0968 9.19705 58.5476 9.05764 58.0829 8.77881C57.6182 8.49998 57.2577 8.10989 57.0014 7.60856C56.7479 7.10723 56.6211 6.5214 56.6211 5.85108C56.6211 5.18076 56.7479 4.59352 57.0014 4.08938C57.2577 3.58523 57.6182 3.19374 58.0829 2.91491C58.5476 2.63607 59.0968 2.49666 59.7305 2.49666C60.3642 2.49666 60.9135 2.63607 61.3782 2.91491C61.8429 3.19374 62.202 3.58523 62.4555 4.08938C62.7118 4.59352 62.8399 5.18076 62.8399 5.85108C62.8399 6.5214 62.7118 7.10723 62.4555 7.60856C62.202 8.10989 61.8429 8.49998 61.3782 8.77881C60.9135 9.05764 60.3642 9.19705 59.7305 9.19705ZM59.739 7.97189C60.0826 7.97189 60.3699 7.87754 60.6008 7.68883C60.8318 7.49731 61.0036 7.24101 61.1162 6.91993C61.2317 6.59886 61.2895 6.24116 61.2895 5.84686C61.2895 5.44973 61.2317 5.09063 61.1162 4.76955C61.0036 4.44566 60.8318 4.18795 60.6008 3.99643C60.3699 3.80491 60.0826 3.70915 59.739 3.70915C59.3869 3.70915 59.094 3.80491 58.8602 3.99643C58.6293 4.18795 58.4561 4.44566 58.3406 4.76955C58.2279 5.09063 58.1716 5.44973 58.1716 5.84686C58.1716 6.24116 58.2279 6.59886 58.3406 6.91993C58.4561 7.24101 58.6293 7.49731 58.8602 7.68883C59.094 7.87754 59.3869 7.97189 59.739 7.97189ZM65.0801 9.16326C64.8238 9.16326 64.6041 9.07313 64.421 8.89287C64.238 8.71262 64.1478 8.49294 64.1506 8.23382C64.1478 7.98034 64.238 7.76347 64.421 7.58321C64.6041 7.40296 64.8238 7.31283 65.0801 7.31283C65.3279 7.31283 65.5434 7.40296 65.7265 7.58321C65.9123 7.76347 66.0067 7.98034 66.0095 8.23382C66.0067 8.40562 65.9616 8.56194 65.8743 8.70276C65.7898 8.84359 65.6772 8.95625 65.5363 9.04074C65.3983 9.12242 65.2463 9.16326 65.0801 9.16326ZM70.4191 9.19705C69.7713 9.19705 69.215 9.05482 68.7503 8.77036C68.2884 8.48589 67.9321 8.093 67.6814 7.59166C67.4336 7.08751 67.3097 6.50732 67.3097 5.85108C67.3097 5.19203 67.4364 4.61042 67.6899 4.10627C67.9434 3.59931 68.3011 3.205 68.763 2.92335C69.2277 2.63889 69.7769 2.49666 70.4106 2.49666C70.9373 2.49666 71.4034 2.59383 71.809 2.78816C72.2174 2.97968 72.5427 3.25147 72.7849 3.60353C73.0271 3.95278 73.1651 4.36117 73.1989 4.8287H71.7372C71.678 4.51607 71.5372 4.25555 71.3147 4.04713C71.095 3.83589 70.8007 3.73028 70.4317 3.73028C70.1191 3.73028 69.8445 3.81477 69.6079 3.98376C69.3713 4.14993 69.1869 4.38933 69.0545 4.70196C68.9249 5.01459 68.8601 5.38918 68.8601 5.82573C68.8601 6.26792 68.9249 6.64814 69.0545 6.96641C69.184 7.28185 69.3657 7.52548 69.5995 7.69728C69.836 7.86627 70.1135 7.95076 70.4317 7.95076C70.6571 7.95076 70.8584 7.90852 71.0359 7.82402C71.2161 7.73671 71.3668 7.61138 71.4879 7.44802C71.609 7.28467 71.6921 7.08611 71.7372 6.85234H73.1989C73.1623 7.31142 73.0271 7.7184 72.7933 8.07328C72.5596 8.42534 72.2413 8.70135 71.8386 8.90132C71.4358 9.09848 70.9626 9.19705 70.4191 9.19705ZM77.2853 9.19705C76.6516 9.19705 76.1024 9.05764 75.6376 8.77881C75.1729 8.49998 74.8124 8.10989 74.5561 7.60856C74.3026 7.10723 74.1759 6.5214 74.1759 5.85108C74.1759 5.18076 74.3026 4.59352 74.5561 4.08938C74.8124 3.58523 75.1729 3.19374 75.6376 2.91491C76.1024 2.63607 76.6516 2.49666 77.2853 2.49666C77.919 2.49666 78.4682 2.63607 78.9329 2.91491C79.3976 3.19374 79.7567 3.58523 80.0102 4.08938C80.2665 4.59352 80.3947 5.18076 80.3947 5.85108C80.3947 6.5214 80.2665 7.10723 80.0102 7.60856C79.7567 8.10989 79.3976 8.49998 78.9329 8.77881C78.4682 9.05764 77.919 9.19705 77.2853 9.19705ZM77.2937 7.97189C77.6373 7.97189 77.9246 7.87754 78.1556 7.68883C78.3865 7.49731 78.5583 7.24101 78.671 6.91993C78.7865 6.59886 78.8442 6.24116 78.8442 5.84686C78.8442 5.44973 78.7865 5.09063 78.671 4.76955C78.5583 4.44566 78.3865 4.18795 78.1556 3.99643C77.9246 3.80491 77.6373 3.70915 77.2937 3.70915C76.9417 3.70915 76.6488 3.80491 76.415 3.99643C76.184 4.18795 76.0108 4.44566 75.8953 4.76955C75.7827 5.09063 75.7264 5.44973 75.7264 5.84686C75.7264 6.24116 75.7827 6.59886 75.8953 6.91993C76.0108 7.24101 76.184 7.49731 76.415 7.68883C76.6488 7.87754 76.9417 7.97189 77.2937 7.97189ZM81.6927 9.07031V2.58115H83.1545V3.6838H83.2305C83.3657 3.31203 83.5896 3.02193 83.9022 2.81351C84.2149 2.60228 84.588 2.49666 85.0218 2.49666C85.4611 2.49666 85.8315 2.60369 86.1329 2.81774C86.4371 3.02897 86.6511 3.31766 86.775 3.6838H86.8426C86.9863 3.32329 87.2285 3.03601 87.5693 2.82196C87.9129 2.60509 88.3199 2.49666 88.7902 2.49666C89.3873 2.49666 89.8746 2.68536 90.252 3.06277C90.6294 3.44018 90.8181 3.9908 90.8181 4.71463V9.07031H89.2845V4.95122C89.2845 4.54846 89.1775 4.25414 88.9634 4.06825C88.7494 3.87955 88.4874 3.7852 88.1776 3.7852C87.8087 3.7852 87.52 3.90067 87.3116 4.13162C87.106 4.35976 87.0032 4.6569 87.0032 5.02304V9.07031H85.5034V4.88785C85.5034 4.55269 85.402 4.28512 85.1992 4.08515C84.9992 3.88518 84.7373 3.7852 84.4134 3.7852C84.1937 3.7852 83.9938 3.84153 83.8135 3.95419C83.6333 4.06403 83.4896 4.22034 83.3826 4.42313C83.2756 4.6231 83.222 4.85687 83.222 5.12443V9.07031H81.6927Z" fill="#666666"/>
</svg>
