<svg width="392" height="59" viewBox="0 0 392 59" fill="none" xmlns="http://www.w3.org/2000/svg">
<path d="M6.92052 3.44382C6.86611 2.93466 6.63679 2.53821 6.23257 2.25448C5.83223 1.97074 5.31141 1.82888 4.6701 1.82888C4.21923 1.82888 3.8325 1.89689 3.5099 2.03293C3.1873 2.16897 2.94049 2.35359 2.76947 2.58679C2.59846 2.82 2.511 3.08624 2.50712 3.38552C2.50712 3.63427 2.56348 3.84999 2.67619 4.03267C2.79279 4.21534 2.95021 4.37081 3.14843 4.49908C3.34666 4.62345 3.56626 4.72839 3.80724 4.8139C4.04822 4.89941 4.29114 4.97132 4.536 5.02962L5.65539 5.30946C6.10625 5.41441 6.53962 5.55627 6.95551 5.73506C7.37527 5.91385 7.75035 6.13928 8.08072 6.41136C8.41498 6.68343 8.67928 7.01186 8.87362 7.39665C9.06796 7.78144 9.16512 8.2323 9.16512 8.74924C9.16512 9.44885 8.98633 10.0649 8.62875 10.5974C8.27117 11.126 7.75423 11.5399 7.07794 11.8392C6.40553 12.1346 5.59126 12.2823 4.63511 12.2823C3.70618 12.2823 2.89968 12.1385 2.21561 11.8509C1.53543 11.5632 1.00294 11.1435 0.618156 10.5916C0.237255 10.0396 0.0312567 9.36723 0.000162667 8.57434H2.12816C2.15925 8.99022 2.28752 9.33614 2.51295 9.6121C2.73838 9.88806 3.03183 10.0941 3.3933 10.2301C3.75865 10.3661 4.16676 10.4341 4.61762 10.4341C5.08792 10.4341 5.49992 10.3642 5.85361 10.2243C6.21119 10.0805 6.49104 9.88223 6.69315 9.62959C6.89526 9.37306 6.99826 9.07378 7.00215 8.73175C6.99826 8.42081 6.90692 8.16428 6.72813 7.96217C6.54934 7.75617 6.29864 7.58516 5.97604 7.44912C5.65733 7.3092 5.2842 7.18482 4.85666 7.07599L3.49824 6.72618C2.51489 6.47355 1.73754 6.0907 1.16619 5.57765C0.598723 5.06071 0.31499 4.3747 0.31499 3.51961C0.31499 2.81611 0.50544 2.20006 0.886342 1.67146C1.27113 1.14286 1.7939 0.732813 2.45465 0.441306C3.11539 0.145913 3.86359 -0.00178385 4.69925 -0.00178385C5.54656 -0.00178385 6.28893 0.145913 6.92636 0.441306C7.56767 0.732813 8.071 1.13898 8.43636 1.6598C8.80171 2.17674 8.99022 2.77141 9.00188 3.44382H6.92052ZM21.3137 4.19008H19.1332C19.071 3.8325 18.9563 3.51573 18.7892 3.23977C18.6221 2.95992 18.4141 2.72283 18.1654 2.52849C17.9166 2.33415 17.6329 2.1884 17.3142 2.09123C16.9994 1.99018 16.6593 1.93965 16.2939 1.93965C15.6448 1.93965 15.0696 2.10289 14.5682 2.42938C14.0668 2.75198 13.6742 3.22616 13.3905 3.85193C13.1068 4.47381 12.9649 5.23367 12.9649 6.13151C12.9649 7.0449 13.1068 7.81447 13.3905 8.44024C13.6781 9.06212 14.0707 9.53242 14.5682 9.85113C15.0696 10.166 15.6429 10.3234 16.2881 10.3234C16.6457 10.3234 16.9799 10.2767 17.2909 10.1835C17.6057 10.0863 17.8875 9.94442 18.1362 9.75785C18.3889 9.57129 18.6007 9.34197 18.7717 9.0699C18.9466 8.79782 19.0671 8.48688 19.1332 8.13708L21.3137 8.14874C21.232 8.7162 21.0552 9.24869 20.7831 9.74619C20.5149 10.2437 20.1632 10.6829 19.7279 11.0638C19.2925 11.4408 18.7834 11.7362 18.2004 11.95C17.6174 12.1599 16.9702 12.2648 16.2589 12.2648C15.2095 12.2648 14.2728 12.0219 13.4488 11.536C12.6248 11.0502 11.9757 10.3486 11.5015 9.43136C11.0274 8.51409 10.7903 7.41414 10.7903 6.13151C10.7903 4.845 11.0293 3.74505 11.5074 2.83166C11.9854 1.91439 12.6365 1.21283 13.4605 0.726982C14.2845 0.241138 15.2173 -0.00178385 16.2589 -0.00178385C16.9236 -0.00178385 17.5416 0.0914981 18.1129 0.278062C18.6843 0.464627 19.1934 0.738643 19.6404 1.10011C20.0874 1.45769 20.4547 1.89689 20.7423 2.41772C21.0338 2.93466 21.2243 3.52544 21.3137 4.19008ZM23.2944 12.1016V0.16146H27.772C28.6893 0.16146 29.4588 0.320817 30.0807 0.63953C30.7065 0.958244 31.1787 1.40522 31.4974 1.98046C31.82 2.55181 31.9813 3.21839 31.9813 3.98019C31.9813 4.74588 31.8181 5.41052 31.4916 5.9741C31.169 6.53379 30.6929 6.96716 30.0632 7.27422C29.4336 7.57738 28.6601 7.72897 27.7428 7.72897H24.5537V5.93329H27.4513C27.9877 5.93329 28.4269 5.85944 28.7689 5.71174C29.111 5.56016 29.3636 5.34056 29.5268 5.05294C29.694 4.76143 29.7775 4.40385 29.7775 3.98019C29.7775 3.55654 29.694 3.19507 29.5268 2.89579C29.3597 2.59262 29.1051 2.3633 28.7631 2.20783C28.4211 2.04848 27.9799 1.9688 27.4397 1.9688H25.4574V12.1016H23.2944ZM29.4627 6.6912L32.4186 12.1016H30.0049L27.1015 6.6912H29.4627ZM44.6415 6.13151C44.6415 7.41803 44.4005 8.51992 43.9185 9.43719C43.4404 10.3506 42.7875 11.0502 41.9596 11.536C41.1356 12.0219 40.2008 12.2648 39.1553 12.2648C38.1098 12.2648 37.1731 12.0219 36.3452 11.536C35.5212 11.0463 34.8682 10.3448 34.3863 9.43136C33.9082 8.51409 33.6692 7.41414 33.6692 6.13151C33.6692 4.845 33.9082 3.74505 34.3863 2.83166C34.8682 1.91439 35.5212 1.21283 36.3452 0.726982C37.1731 0.241138 38.1098 -0.00178385 39.1553 -0.00178385C40.2008 -0.00178385 41.1356 0.241138 41.9596 0.726982C42.7875 1.21283 43.4404 1.91439 43.9185 2.83166C44.4005 3.74505 44.6415 4.845 44.6415 6.13151ZM42.4668 6.13151C42.4668 5.2259 42.3249 4.46215 42.0412 3.84027C41.7614 3.2145 41.3727 2.74226 40.8752 2.42355C40.3777 2.10095 39.8044 1.93965 39.1553 1.93965C38.5062 1.93965 37.9329 2.10095 37.4354 2.42355C36.9379 2.74226 36.5473 3.2145 36.2636 3.84027C35.9837 4.46215 35.8438 5.2259 35.8438 6.13151C35.8438 7.03712 35.9837 7.80281 36.2636 8.42858C36.5473 9.05046 36.9379 9.5227 37.4354 9.8453C37.9329 10.164 38.5062 10.3234 39.1553 10.3234C39.8044 10.3234 40.3777 10.164 40.8752 9.8453C41.3727 9.5227 41.7614 9.05046 42.0412 8.42858C42.3249 7.80281 42.4668 7.03712 42.4668 6.13151ZM46.6864 12.1016V0.16146H48.8493V10.2884H54.1081V12.1016H46.6864ZM55.9854 12.1016V0.16146H58.1484V10.2884H63.4072V12.1016H55.9854ZM69.1353 12.1016V10.7548L75.2569 1.97463H69.1003V0.16146H77.9388V1.50822L71.823 10.2884H77.9738V12.1016H69.1353ZM90.1748 6.13151C90.1748 7.41803 89.9338 8.51992 89.4518 9.43719C88.9737 10.3506 88.3208 11.0502 87.4929 11.536C86.6689 12.0219 85.7341 12.2648 84.6886 12.2648C83.6431 12.2648 82.7064 12.0219 81.8785 11.536C81.0545 11.0463 80.4015 10.3448 79.9196 9.43136C79.4415 8.51409 79.2025 7.41414 79.2025 6.13151C79.2025 4.845 79.4415 3.74505 79.9196 2.83166C80.4015 1.91439 81.0545 1.21283 81.8785 0.726982C82.7064 0.241138 83.6431 -0.00178385 84.6886 -0.00178385C85.7341 -0.00178385 86.6689 0.241138 87.4929 0.726982C88.3208 1.21283 88.9737 1.91439 89.4518 2.83166C89.9338 3.74505 90.1748 4.845 90.1748 6.13151ZM88.0001 6.13151C88.0001 5.2259 87.8583 4.46215 87.5745 3.84027C87.2947 3.2145 86.906 2.74226 86.4085 2.42355C85.911 2.10095 85.3377 1.93965 84.6886 1.93965C84.0395 1.93965 83.4662 2.10095 82.9687 2.42355C82.4712 2.74226 82.0806 3.2145 81.7969 3.84027C81.517 4.46215 81.3771 5.2259 81.3771 6.13151C81.3771 7.03712 81.517 7.80281 81.7969 8.42858C82.0806 9.05046 82.4712 9.5227 82.9687 9.8453C83.4662 10.164 84.0395 10.3234 84.6886 10.3234C85.3377 10.3234 85.911 10.164 86.4085 9.8453C86.906 9.5227 87.2947 9.05046 87.5745 8.42858C87.8583 7.80281 88.0001 7.03712 88.0001 6.13151ZM102.889 6.13151C102.889 7.41803 102.648 8.51992 102.166 9.43719C101.688 10.3506 101.035 11.0502 100.207 11.536C99.383 12.0219 98.4482 12.2648 97.4027 12.2648C96.3571 12.2648 95.4204 12.0219 94.5925 11.536C93.7685 11.0463 93.1156 10.3448 92.6336 9.43136C92.1555 8.51409 91.9165 7.41414 91.9165 6.13151C91.9165 4.845 92.1555 3.74505 92.6336 2.83166C93.1156 1.91439 93.7685 1.21283 94.5925 0.726982C95.4204 0.241138 96.3571 -0.00178385 97.4027 -0.00178385C98.4482 -0.00178385 99.383 0.241138 100.207 0.726982C101.035 1.21283 101.688 1.91439 102.166 2.83166C102.648 3.74505 102.889 4.845 102.889 6.13151ZM100.714 6.13151C100.714 5.2259 100.572 4.46215 100.289 3.84027C100.009 3.2145 99.62 2.74226 99.1225 2.42355C98.625 2.10095 98.0517 1.93965 97.4027 1.93965C96.7536 1.93965 96.1803 2.10095 95.6828 2.42355C95.1853 2.74226 94.7946 3.2145 94.5109 3.84027C94.2311 4.46215 94.0911 5.2259 94.0911 6.13151C94.0911 7.03712 94.2311 7.80281 94.5109 8.42858C94.7946 9.05046 95.1853 9.5227 95.6828 9.8453C96.1803 10.164 96.7536 10.3234 97.4027 10.3234C98.0517 10.3234 98.625 10.164 99.1225 9.8453C99.62 9.5227 100.009 9.05046 100.289 8.42858C100.572 7.80281 100.714 7.03712 100.714 6.13151ZM104.934 0.16146H107.581L111.125 8.81337H111.265L114.81 0.16146H117.457V12.1016H115.381V3.89857H115.271L111.971 12.0666H110.42L107.12 3.88108H107.009V12.1016H104.934V0.16146ZM119.812 12.1016V0.16146H127.578V1.97463H121.975V5.21618H127.176V7.02935H121.975V10.2884H127.625V12.1016H119.812ZM133.831 12.1016H129.785V0.16146H133.912C135.098 0.16146 136.116 0.400495 136.967 0.878566C137.822 1.35275 138.479 2.03487 138.938 2.92494C139.397 3.81501 139.626 4.87998 139.626 6.11985C139.626 7.36361 139.395 8.43247 138.932 9.32642C138.473 10.2204 137.811 10.9064 136.944 11.3845C136.081 11.8625 135.043 12.1016 133.831 12.1016ZM131.948 10.2301H133.726C134.558 10.2301 135.251 10.0785 135.807 9.77534C136.363 9.46829 136.781 9.01159 137.061 8.40526C137.34 7.79504 137.48 7.03324 137.48 6.11985C137.48 5.20646 137.34 4.44855 137.061 3.8461C136.781 3.23977 136.367 2.78696 135.819 2.48768C135.275 2.18451 134.598 2.03293 133.79 2.03293H131.948V10.2301ZM145.753 12.1016V0.16146H150.324C151.187 0.16146 151.904 0.297496 152.476 0.569569C153.051 0.837755 153.48 1.20505 153.764 1.67146C154.052 2.13787 154.195 2.66647 154.195 3.25726C154.195 3.7431 154.102 4.15898 153.916 4.50491C153.729 4.84694 153.478 5.12484 153.163 5.33861C152.849 5.55238 152.497 5.70591 152.108 5.79919V5.9158C152.532 5.93912 152.938 6.06932 153.327 6.30641C153.719 6.53962 154.04 6.86999 154.289 7.29754C154.537 7.72508 154.662 8.24202 154.662 8.84835C154.662 9.46634 154.512 10.0222 154.213 10.5158C153.914 11.0055 153.463 11.3922 152.86 11.676C152.258 11.9597 151.5 12.1016 150.587 12.1016H145.753ZM147.916 10.2942H150.243C151.028 10.2942 151.593 10.1446 151.939 9.8453C152.289 9.54214 152.464 9.15346 152.464 8.67928C152.464 8.32558 152.376 8.00687 152.201 7.72314C152.027 7.43552 151.778 7.21008 151.455 7.04684C151.133 6.87971 150.748 6.79615 150.301 6.79615H147.916V10.2942ZM147.916 5.2395H150.056C150.429 5.2395 150.765 5.17148 151.065 5.03545C151.364 4.89552 151.599 4.69924 151.77 4.4466C151.945 4.19008 152.032 3.88691 152.032 3.5371C152.032 3.07458 151.869 2.69368 151.543 2.3944C151.22 2.09512 150.74 1.94548 150.103 1.94548H147.916V5.2395ZM167.213 6.13151C167.213 7.41803 166.972 8.51992 166.49 9.43719C166.012 10.3506 165.359 11.0502 164.531 11.536C163.707 12.0219 162.772 12.2648 161.726 12.2648C160.681 12.2648 159.744 12.0219 158.916 11.536C158.092 11.0463 157.439 10.3448 156.957 9.43136C156.479 8.51409 156.24 7.41414 156.24 6.13151C156.24 4.845 156.479 3.74505 156.957 2.83166C157.439 1.91439 158.092 1.21283 158.916 0.726982C159.744 0.241138 160.681 -0.00178385 161.726 -0.00178385C162.772 -0.00178385 163.707 0.241138 164.531 0.726982C165.359 1.21283 166.012 1.91439 166.49 2.83166C166.972 3.74505 167.213 4.845 167.213 6.13151ZM165.038 6.13151C165.038 5.2259 164.896 4.46215 164.612 3.84027C164.333 3.2145 163.944 2.74226 163.446 2.42355C162.949 2.10095 162.376 1.93965 161.726 1.93965C161.077 1.93965 160.504 2.10095 160.007 2.42355C159.509 2.74226 159.118 3.2145 158.835 3.84027C158.555 4.46215 158.415 5.2259 158.415 6.13151C158.415 7.03712 158.555 7.80281 158.835 8.42858C159.118 9.05046 159.509 9.5227 160.007 9.8453C160.504 10.164 161.077 10.3234 161.726 10.3234C162.376 10.3234 162.949 10.164 163.446 9.8453C163.944 9.5227 164.333 9.05046 164.612 8.42858C164.896 7.80281 165.038 7.03712 165.038 6.13151ZM179.927 6.13151C179.927 7.41803 179.686 8.51992 179.204 9.43719C178.726 10.3506 178.073 11.0502 177.245 11.536C176.421 12.0219 175.486 12.2648 174.441 12.2648C173.395 12.2648 172.458 12.0219 171.63 11.536C170.806 11.0463 170.153 10.3448 169.671 9.43136C169.193 8.51409 168.954 7.41414 168.954 6.13151C168.954 4.845 169.193 3.74505 169.671 2.83166C170.153 1.91439 170.806 1.21283 171.63 0.726982C172.458 0.241138 173.395 -0.00178385 174.441 -0.00178385C175.486 -0.00178385 176.421 0.241138 177.245 0.726982C178.073 1.21283 178.726 1.91439 179.204 2.83166C179.686 3.74505 179.927 4.845 179.927 6.13151ZM177.752 6.13151C177.752 5.2259 177.61 4.46215 177.326 3.84027C177.047 3.2145 176.658 2.74226 176.16 2.42355C175.663 2.10095 175.09 1.93965 174.441 1.93965C173.791 1.93965 173.218 2.10095 172.721 2.42355C172.223 2.74226 171.832 3.2145 171.549 3.84027C171.269 4.46215 171.129 5.2259 171.129 6.13151C171.129 7.03712 171.269 7.80281 171.549 8.42858C171.832 9.05046 172.223 9.5227 172.721 9.8453C173.218 10.164 173.791 10.3234 174.441 10.3234C175.09 10.3234 175.663 10.164 176.16 9.8453C176.658 9.5227 177.047 9.05046 177.326 8.42858C177.61 7.80281 177.752 7.03712 177.752 6.13151ZM181.972 12.1016V0.16146H184.135V5.64761H184.28L188.939 0.16146H191.58L186.962 5.51935L191.62 12.1016H189.02L185.458 6.98271L184.135 8.54518V12.1016H181.972ZM198.688 12.1016H196.379L200.583 0.16146H203.253L207.462 12.1016H205.154L201.965 2.61011H201.871L198.688 12.1016ZM198.764 7.41997H205.06V9.15735H198.764V7.41997ZM218.847 0.16146V12.1016H216.923L211.297 3.96853H211.198V12.1016H209.035V0.16146H210.971L216.591 8.30032H216.696V0.16146H218.847ZM225.25 12.1016H221.204V0.16146H225.332C226.517 0.16146 227.535 0.400495 228.387 0.878566C229.242 1.35275 229.899 2.03487 230.357 2.92494C230.816 3.81501 231.045 4.87998 231.045 6.11985C231.045 7.36361 230.814 8.43247 230.351 9.32642C229.893 10.2204 229.23 10.9064 228.363 11.3845C227.5 11.8625 226.463 12.1016 225.25 12.1016ZM223.367 10.2301H225.145C225.977 10.2301 226.671 10.0785 227.226 9.77534C227.782 9.46829 228.2 9.01159 228.48 8.40526C228.76 7.79504 228.9 7.03324 228.9 6.11985C228.9 5.20646 228.76 4.44855 228.48 3.8461C228.2 3.23977 227.786 2.78696 227.238 2.48768C226.694 2.18451 226.018 2.03293 225.209 2.03293H223.367V10.2301ZM236.648 1.97463V0.16146H246.174V1.97463H242.484V12.1016H240.338V1.97463H236.648ZM248.011 12.1016V0.16146H250.174V5.21618H255.707V0.16146H257.875V12.1016H255.707V7.02935H250.174V12.1016H248.011ZM267.755 0.16146H269.918V7.96217C269.918 8.81726 269.715 9.56934 269.311 10.2184C268.911 10.8675 268.347 11.3747 267.621 11.7401C266.894 12.1016 266.044 12.2823 265.073 12.2823C264.097 12.2823 263.246 12.1016 262.519 11.7401C261.792 11.3747 261.229 10.8675 260.828 10.2184C260.428 9.56934 260.228 8.81726 260.228 7.96217V0.16146H262.391V7.78144C262.391 8.27894 262.5 8.72203 262.717 9.11071C262.939 9.49938 263.25 9.80449 263.65 10.026C264.051 10.2437 264.525 10.3525 265.073 10.3525C265.621 10.3525 266.095 10.2437 266.495 10.026C266.9 9.80449 267.21 9.49938 267.428 9.11071C267.646 8.72203 267.755 8.27894 267.755 7.78144V0.16146ZM272.269 0.16146H274.915L278.46 8.81337H278.6L282.145 0.16146H284.792V12.1016H282.716V3.89857H282.605L279.306 12.0666H277.755L274.455 3.88108H274.344V12.1016H272.269V0.16146ZM287.147 12.1016V0.16146H291.718C292.581 0.16146 293.298 0.297496 293.869 0.569569C294.444 0.837755 294.874 1.20505 295.158 1.67146C295.445 2.13787 295.589 2.66647 295.589 3.25726C295.589 3.7431 295.496 4.15898 295.309 4.50491C295.123 4.84694 294.872 5.12484 294.557 5.33861C294.242 5.55238 293.891 5.70591 293.502 5.79919V5.9158C293.926 5.93912 294.332 6.06932 294.72 6.30641C295.113 6.53962 295.434 6.86999 295.682 7.29754C295.931 7.72508 296.056 8.24202 296.056 8.84835C296.056 9.46634 295.906 10.0222 295.607 10.5158C295.307 11.0055 294.856 11.3922 294.254 11.676C293.652 11.9597 292.894 12.1016 291.98 12.1016H287.147ZM289.31 10.2942H291.636C292.421 10.2942 292.987 10.1446 293.333 9.8453C293.683 9.54214 293.858 9.15346 293.858 8.67928C293.858 8.32558 293.77 8.00687 293.595 7.72314C293.42 7.43552 293.172 7.21008 292.849 7.04684C292.526 6.87971 292.142 6.79615 291.695 6.79615H289.31V10.2942ZM289.31 5.2395H291.45C291.823 5.2395 292.159 5.17148 292.458 5.03545C292.758 4.89552 292.993 4.69924 293.164 4.4466C293.339 4.19008 293.426 3.88691 293.426 3.5371C293.426 3.07458 293.263 2.69368 292.936 2.3944C292.614 2.09512 292.134 1.94548 291.496 1.94548H289.31V5.2395ZM307.749 0.16146V12.1016H305.825L300.199 3.96853H300.1V12.1016H297.937V0.16146H299.873L305.493 8.30032H305.598V0.16146H307.749ZM311.639 12.1016H309.331L313.534 0.16146H316.204L320.414 12.1016H318.105L314.916 2.61011H314.823L311.639 12.1016ZM311.715 7.41997H318.012V9.15735H311.715V7.41997ZM324.149 0.16146V12.1016H321.986V0.16146H324.149ZM326.492 12.1016V0.16146H328.655V10.2884H333.913V12.1016H326.492ZM342.28 3.44382C342.225 2.93466 341.996 2.53821 341.592 2.25448C341.191 1.97074 340.671 1.82888 340.029 1.82888C339.578 1.82888 339.192 1.89689 338.869 2.03293C338.546 2.16897 338.3 2.35359 338.129 2.58679C337.958 2.82 337.87 3.08624 337.866 3.38552C337.866 3.63427 337.923 3.84999 338.035 4.03267C338.152 4.21534 338.309 4.37081 338.508 4.49908C338.706 4.62345 338.925 4.72839 339.166 4.8139C339.407 4.89941 339.65 4.97132 339.895 5.02962L341.015 5.30946C341.465 5.41441 341.899 5.55627 342.315 5.73506C342.734 5.91385 343.11 6.13928 343.44 6.41136C343.774 6.68343 344.038 7.01186 344.233 7.39665C344.427 7.78144 344.524 8.2323 344.524 8.74924C344.524 9.44885 344.345 10.0649 343.988 10.5974C343.63 11.126 343.113 11.5399 342.437 11.8392C341.765 12.1346 340.95 12.2823 339.994 12.2823C339.065 12.2823 338.259 12.1385 337.575 11.8509C336.895 11.5632 336.362 11.1435 335.977 10.5916C335.596 10.0396 335.39 9.36723 335.359 8.57434H337.487C337.518 8.99022 337.647 9.33614 337.872 9.6121C338.098 9.88806 338.391 10.0941 338.752 10.2301C339.118 10.3661 339.526 10.4341 339.977 10.4341C340.447 10.4341 340.859 10.3642 341.213 10.2243C341.57 10.0805 341.85 9.88223 342.052 9.62959C342.254 9.37306 342.357 9.07378 342.361 8.73175C342.357 8.42081 342.266 8.16428 342.087 7.96217C341.909 7.75617 341.658 7.58516 341.335 7.44912C341.016 7.3092 340.643 7.18482 340.216 7.07599L338.857 6.72618C337.874 6.47355 337.097 6.0907 336.525 5.57765C335.958 5.06071 335.674 4.3747 335.674 3.51961C335.674 2.81611 335.865 2.20006 336.246 1.67146C336.63 1.14286 337.153 0.732813 337.814 0.441306C338.475 0.145913 339.223 -0.00178385 340.058 -0.00178385C340.906 -0.00178385 341.648 0.145913 342.286 0.441306C342.927 0.732813 343.43 1.13898 343.796 1.6598C344.161 2.17674 344.349 2.77141 344.361 3.44382H342.28ZM350.525 12.1016V0.16146H355.096C355.959 0.16146 356.676 0.297496 357.247 0.569569C357.822 0.837755 358.252 1.20505 358.536 1.67146C358.823 2.13787 358.967 2.66647 358.967 3.25726C358.967 3.7431 358.874 4.15898 358.687 4.50491C358.501 4.84694 358.25 5.12484 357.935 5.33861C357.62 5.55238 357.268 5.70591 356.88 5.79919V5.9158C357.303 5.93912 357.71 6.06932 358.098 6.30641C358.491 6.53962 358.812 6.86999 359.06 7.29754C359.309 7.72508 359.433 8.24202 359.433 8.84835C359.433 9.46634 359.284 10.0222 358.984 10.5158C358.685 11.0055 358.234 11.3922 357.632 11.676C357.029 11.9597 356.272 12.1016 355.358 12.1016H350.525ZM352.688 10.2942H355.014C355.799 10.2942 356.365 10.1446 356.711 9.8453C357.061 9.54214 357.235 9.15346 357.235 8.67928C357.235 8.32558 357.148 8.00687 356.973 7.72314C356.798 7.43552 356.549 7.21008 356.227 7.04684C355.904 6.87971 355.519 6.79615 355.072 6.79615H352.688V10.2942ZM352.688 5.2395H354.828C355.201 5.2395 355.537 5.17148 355.836 5.03545C356.135 4.89552 356.371 4.69924 356.542 4.4466C356.717 4.19008 356.804 3.88691 356.804 3.5371C356.804 3.07458 356.641 2.69368 356.314 2.3944C355.992 2.09512 355.512 1.94548 354.874 1.94548H352.688V5.2395ZM360.499 0.16146H362.942L365.863 5.44356H365.979L368.9 0.16146H371.343L366.999 7.64734V12.1016H364.842V7.64734L360.499 0.16146ZM4.4777 33.1016H0.431592V21.1615H4.55932C5.74478 21.1615 6.76311 21.4005 7.61431 21.8786C8.4694 22.3527 9.12626 23.0349 9.58489 23.9249C10.0435 24.815 10.2728 25.88 10.2728 27.1199C10.2728 28.3636 10.0416 29.4325 9.57906 30.3264C9.12043 31.2204 8.45774 31.9064 7.59099 32.3845C6.72813 32.8625 5.69037 33.1016 4.4777 33.1016ZM2.59457 31.2301H4.37276C5.20452 31.2301 5.89831 31.0785 6.45411 30.7753C7.00992 30.4683 7.42775 30.0116 7.70759 29.4053C7.98744 28.795 8.12736 28.0332 8.12736 27.1199C8.12736 26.2065 7.98744 25.4485 7.70759 24.8461C7.42775 24.2398 7.01381 23.787 6.46578 23.4877C5.92163 23.1845 5.24533 23.0329 4.43689 23.0329H2.59457V31.2301ZM12.328 33.1016V21.1615H16.8055C17.7228 21.1615 18.4924 21.3208 19.1142 21.6395C19.74 21.9582 20.2122 22.4052 20.531 22.9805C20.8536 23.5518 21.0149 24.2184 21.0149 24.9802C21.0149 25.7459 20.8516 26.4105 20.5251 26.9741C20.2025 27.5338 19.7264 27.9672 19.0967 28.2742C18.4671 28.5774 17.6936 28.729 16.7764 28.729H13.5873V26.9333H16.4849C17.0212 26.9333 17.4604 26.8594 17.8025 26.7117C18.1445 26.5602 18.3971 26.3406 18.5604 26.0529C18.7275 25.7614 18.8111 25.4038 18.8111 24.9802C18.8111 24.5565 18.7275 24.1951 18.5604 23.8958C18.3932 23.5926 18.1387 23.3633 17.7966 23.2078C17.4546 23.0485 17.0134 22.9688 16.4732 22.9688H14.4909V33.1016H12.328ZM18.4962 27.6912L21.4521 33.1016H19.0384L16.135 27.6912H18.4962ZM24.5392 33.1016H22.2304L26.434 21.1615H29.1042L33.3135 33.1016H31.0048L27.8157 23.6101H27.7224L24.5392 33.1016ZM24.615 28.42H30.9115V30.1573H24.615V28.42ZM42.324 24.9744C42.2268 24.6595 42.0927 24.3777 41.9217 24.129C41.7546 23.8764 41.5525 23.6606 41.3154 23.4819C41.0822 23.3031 40.814 23.169 40.5108 23.0796C40.2076 22.9863 39.8773 22.9396 39.5197 22.9396C38.8784 22.9396 38.307 23.1009 37.8056 23.4236C37.3042 23.7461 36.9097 24.2203 36.6221 24.8461C36.3384 25.468 36.1965 26.2259 36.1965 27.1199C36.1965 28.0216 36.3384 28.7853 36.6221 29.4111C36.9058 30.0369 37.3003 30.513 37.8056 30.8395C38.3109 31.1621 38.8978 31.3234 39.5663 31.3234C40.1727 31.3234 40.6974 31.2068 41.1405 30.9736C41.5874 30.7404 41.9314 30.41 42.1724 29.9824C42.4134 29.551 42.5339 29.0457 42.5339 28.4666L43.0236 28.5424H39.782V26.8517H44.6269V28.2859C44.6269 29.3081 44.4092 30.1923 43.9739 30.9386C43.5386 31.6848 42.94 32.2601 42.1782 32.6643C41.4164 33.0646 40.5419 33.2648 39.5547 33.2648C38.4547 33.2648 37.4889 33.018 36.6571 32.5244C35.8292 32.0269 35.1821 31.3214 34.7157 30.408C34.2531 29.4908 34.0219 28.4025 34.0219 27.1432C34.0219 26.1793 34.1579 25.3183 34.43 24.5604C34.7059 23.8025 35.0907 23.1593 35.5843 22.6307C36.078 22.0982 36.6571 21.6939 37.3217 21.418C37.9864 21.1381 38.7093 20.9982 39.4905 20.9982C40.1513 20.9982 40.7673 21.0954 41.3387 21.2897C41.91 21.4802 42.4173 21.7522 42.8603 22.1059C43.3073 22.4596 43.6746 22.8794 43.9622 23.3652C44.2499 23.8511 44.4384 24.3875 44.5278 24.9744H42.324ZM54.7174 24.9744C54.6202 24.6595 54.4861 24.3777 54.3151 24.129C54.148 23.8764 53.9458 23.6606 53.7088 23.4819C53.4756 23.3031 53.2074 23.169 52.9042 23.0796C52.601 22.9863 52.2707 22.9396 51.9131 22.9396C51.2718 22.9396 50.7004 23.1009 50.199 23.4236C49.6976 23.7461 49.3031 24.2203 49.0155 24.8461C48.7318 25.468 48.5899 26.2259 48.5899 27.1199C48.5899 28.0216 48.7318 28.7853 49.0155 29.4111C49.2992 30.0369 49.6937 30.513 50.199 30.8395C50.7043 31.1621 51.2912 31.3234 51.9597 31.3234C52.5661 31.3234 53.0908 31.2068 53.5339 30.9736C53.9808 30.7404 54.3248 30.41 54.5658 29.9824C54.8068 29.551 54.9273 29.0457 54.9273 28.4666L55.417 28.5424H52.1754V26.8517H57.0203V28.2859C57.0203 29.3081 56.8026 30.1923 56.3673 30.9386C55.932 31.6848 55.3334 32.2601 54.5716 32.6643C53.8098 33.0646 52.9353 33.2648 51.9481 33.2648C50.8481 33.2648 49.8823 33.018 49.0505 32.5244C48.2226 32.0269 47.5755 31.3214 47.1091 30.408C46.6465 29.4908 46.4153 28.4025 46.4153 27.1432C46.4153 26.1793 46.5513 25.3183 46.8234 24.5604C47.0993 23.8025 47.4841 23.1593 47.9777 22.6307C48.4714 22.0982 49.0505 21.6939 49.7151 21.418C50.3798 21.1381 51.1027 20.9982 51.8839 20.9982C52.5447 20.9982 53.1607 21.0954 53.7321 21.2897C54.3034 21.4802 54.8107 21.7522 55.2537 22.1059C55.7007 22.4596 56.068 22.8794 56.3556 23.3652C56.6433 23.8511 56.8318 24.3875 56.9212 24.9744H54.7174ZM61.2748 21.1615V33.1016H59.1118V21.1615H61.2748ZM73.4292 21.1615V33.1016H71.5052L65.8792 24.9685H65.78V33.1016H63.6171V21.1615H65.5527L71.1729 29.3003H71.2779V21.1615H73.4292ZM83.7849 24.9744C83.6878 24.6595 83.5537 24.3777 83.3827 24.129C83.2155 23.8764 83.0134 23.6606 82.7763 23.4819C82.5431 23.3031 82.2749 23.169 81.9718 23.0796C81.6686 22.9863 81.3382 22.9396 80.9806 22.9396C80.3393 22.9396 79.768 23.1009 79.2666 23.4236C78.7652 23.7461 78.3707 24.2203 78.0831 24.8461C77.7993 25.468 77.6575 26.2259 77.6575 27.1199C77.6575 28.0216 77.7993 28.7853 78.0831 29.4111C78.3668 30.0369 78.7613 30.513 79.2666 30.8395C79.7719 31.1621 80.3588 31.3234 81.0273 31.3234C81.6336 31.3234 82.1583 31.2068 82.6014 30.9736C83.0484 30.7404 83.3924 30.41 83.6334 29.9824C83.8743 29.551 83.9948 29.0457 83.9948 28.4666L84.4846 28.5424H81.243V26.8517H86.0878V28.2859C86.0878 29.3081 85.8702 30.1923 85.4349 30.9386C84.9995 31.6848 84.401 32.2601 83.6392 32.6643C82.8774 33.0646 82.0029 33.2648 81.0156 33.2648C79.9157 33.2648 78.9498 33.018 78.1181 32.5244C77.2902 32.0269 76.643 31.3214 76.1766 30.408C75.7141 29.4908 75.4828 28.4025 75.4828 27.1432C75.4828 26.1793 75.6189 25.3183 75.8909 24.5604C76.1669 23.8025 76.5517 23.1593 77.0453 22.6307C77.5389 22.0982 78.1181 21.6939 78.7827 21.418C79.4473 21.1381 80.1703 20.9982 80.9515 20.9982C81.6122 20.9982 82.2283 21.0954 82.7996 21.2897C83.371 21.4802 83.8782 21.7522 84.3213 22.1059C84.7683 22.4596 85.1356 22.8794 85.4232 23.3652C85.7108 23.8511 85.8993 24.3875 85.9887 24.9744H83.7849ZM94.4147 21.1615V33.1016H92.2517V21.1615H94.4147ZM96.2323 22.9746V21.1615H105.759V22.9746H102.068V33.1016H99.9227V22.9746H96.2323ZM108.241 33.2298C107.887 33.2298 107.584 33.1054 107.331 32.8567C107.079 32.6079 106.954 32.3048 106.958 31.9472C106.954 31.5974 107.079 31.2981 107.331 31.0494C107.584 30.8006 107.887 30.6762 108.241 30.6762C108.583 30.6762 108.88 30.8006 109.133 31.0494C109.389 31.2981 109.52 31.5974 109.523 31.9472C109.52 32.1843 109.457 32.4 109.337 32.5943C109.22 32.7887 109.065 32.9441 108.871 33.0608C108.68 33.1735 108.47 33.2298 108.241 33.2298ZM117.033 33.1016H114.724L118.927 21.1615H121.598L125.807 33.1016H123.498L120.309 23.6101H120.216L117.033 33.1016ZM117.108 28.42H123.405V30.1573H117.108V28.42ZM127.38 33.1016V21.1615H129.543V31.2884H134.801V33.1016H127.38ZM143.168 24.4438C143.113 23.9347 142.884 23.5382 142.48 23.2545C142.079 22.9707 141.559 22.8289 140.917 22.8289C140.466 22.8289 140.08 22.8969 139.757 23.0329C139.434 23.169 139.188 23.3536 139.017 23.5868C138.846 23.82 138.758 24.0862 138.754 24.3855C138.754 24.6343 138.811 24.85 138.923 25.0327C139.04 25.2153 139.197 25.3708 139.396 25.4991C139.594 25.6235 139.813 25.7284 140.054 25.8139C140.295 25.8994 140.538 25.9713 140.783 26.0296L141.903 26.3095C142.353 26.4144 142.787 26.5563 143.203 26.7351C143.622 26.9139 143.998 27.1393 144.328 27.4114C144.662 27.6834 144.926 28.0119 145.121 28.3966C145.315 28.7814 145.412 29.2323 145.412 29.7492C145.412 30.4489 145.234 31.0649 144.876 31.5974C144.518 32.126 144.001 32.5399 143.325 32.8392C142.653 33.1346 141.838 33.2823 140.882 33.2823C139.953 33.2823 139.147 33.1385 138.463 32.8509C137.783 32.5632 137.25 32.1435 136.865 31.5916C136.484 31.0396 136.278 30.3672 136.247 29.5743H138.375C138.406 29.9902 138.535 30.3361 138.76 30.6121C138.986 30.8881 139.279 31.0941 139.64 31.2301C140.006 31.3661 140.414 31.4341 140.865 31.4341C141.335 31.4341 141.747 31.3642 142.101 31.2243C142.458 31.0805 142.738 30.8822 142.94 30.6296C143.142 30.3731 143.245 30.0738 143.249 29.7317C143.245 29.4208 143.154 29.1643 142.975 28.9622C142.797 28.7562 142.546 28.5852 142.223 28.4491C141.905 28.3092 141.531 28.1848 141.104 28.076L139.745 27.7262C138.762 27.4735 137.985 27.0907 137.413 26.5776C136.846 26.0607 136.562 25.3747 136.562 24.5196C136.562 23.8161 136.753 23.2001 137.134 22.6715C137.518 22.1429 138.041 21.7328 138.702 21.4413C139.363 21.1459 140.111 20.9982 140.946 20.9982C141.794 20.9982 142.536 21.1459 143.174 21.4413C143.815 21.7328 144.318 22.139 144.684 22.6598C145.049 23.1767 145.237 23.7714 145.249 24.4438H143.168ZM158.01 27.1315C158.01 28.418 157.769 29.5199 157.287 30.4372C156.809 31.3506 156.156 32.0502 155.328 32.536C154.504 33.0219 153.569 33.2648 152.524 33.2648C151.478 33.2648 150.541 33.0219 149.713 32.536C148.889 32.0463 148.237 31.3448 147.755 30.4314C147.276 29.5141 147.037 28.4141 147.037 27.1315C147.037 25.845 147.276 24.745 147.755 23.8317C148.237 22.9144 148.889 22.2128 149.713 21.727C150.541 21.2411 151.478 20.9982 152.524 20.9982C153.569 20.9982 154.504 21.2411 155.328 21.727C156.156 22.2128 156.809 22.9144 157.287 23.8317C157.769 24.745 158.01 25.845 158.01 27.1315ZM155.835 27.1315C155.835 26.2259 155.693 25.4622 155.41 24.8403C155.13 24.2145 154.741 23.7423 154.243 23.4236C153.746 23.1009 153.173 22.9396 152.524 22.9396C151.875 22.9396 151.301 23.1009 150.804 23.4236C150.306 23.7423 149.916 24.2145 149.632 24.8403C149.352 25.4622 149.212 26.2259 149.212 27.1315C149.212 28.0371 149.352 28.8028 149.632 29.4286C149.916 30.0505 150.306 30.5227 150.804 30.8453C151.301 31.164 151.875 31.3234 152.524 31.3234C153.173 31.3234 153.746 31.164 154.243 30.8453C154.741 30.5227 155.13 30.0505 155.41 29.4286C155.693 28.8028 155.835 28.0371 155.835 27.1315ZM171.654 21.1615H173.817V28.9622C173.817 29.8173 173.615 30.5693 173.21 31.2184C172.81 31.8675 172.246 32.3747 171.52 32.7401C170.793 33.1016 169.944 33.2823 168.972 33.2823C167.996 33.2823 167.145 33.1016 166.418 32.7401C165.691 32.3747 165.128 31.8675 164.728 31.2184C164.327 30.5693 164.127 29.8173 164.127 28.9622V21.1615H166.29V28.7814C166.29 29.2789 166.399 29.722 166.616 30.1107C166.838 30.4994 167.149 30.8045 167.549 31.026C167.95 31.2437 168.424 31.3525 168.972 31.3525C169.52 31.3525 169.994 31.2437 170.394 31.026C170.799 30.8045 171.11 30.4994 171.327 30.1107C171.545 29.722 171.654 29.2789 171.654 28.7814V21.1615ZM182.657 24.4438C182.602 23.9347 182.373 23.5382 181.969 23.2545C181.568 22.9707 181.048 22.8289 180.406 22.8289C179.955 22.8289 179.569 22.8969 179.246 23.0329C178.923 23.169 178.677 23.3536 178.506 23.5868C178.335 23.82 178.247 24.0862 178.243 24.3855C178.243 24.6343 178.3 24.85 178.412 25.0327C178.529 25.2153 178.686 25.3708 178.885 25.4991C179.083 25.6235 179.302 25.7284 179.543 25.8139C179.784 25.8994 180.027 25.9713 180.272 26.0296L181.391 26.3095C181.842 26.4144 182.276 26.5563 182.692 26.7351C183.111 26.9139 183.486 27.1393 183.817 27.4114C184.151 27.6834 184.415 28.0119 184.61 28.3966C184.804 28.7814 184.901 29.2323 184.901 29.7492C184.901 30.4489 184.722 31.0649 184.365 31.5974C184.007 32.126 183.49 32.5399 182.814 32.8392C182.142 33.1346 181.327 33.2823 180.371 33.2823C179.442 33.2823 178.636 33.1385 177.952 32.8509C177.272 32.5632 176.739 32.1435 176.354 31.5916C175.973 31.0396 175.767 30.3672 175.736 29.5743H177.864C177.895 29.9902 178.024 30.3361 178.249 30.6121C178.474 30.8881 178.768 31.0941 179.129 31.2301C179.495 31.3661 179.903 31.4341 180.354 31.4341C180.824 31.4341 181.236 31.3642 181.59 31.2243C181.947 31.0805 182.227 30.8822 182.429 30.6296C182.631 30.3731 182.734 30.0738 182.738 29.7317C182.734 29.4208 182.643 29.1643 182.464 28.9622C182.285 28.7562 182.035 28.5852 181.712 28.4491C181.393 28.3092 181.02 28.1848 180.593 28.076L179.234 27.7262C178.251 27.4735 177.474 27.0907 176.902 26.5776C176.335 26.0607 176.051 25.3747 176.051 24.5196C176.051 23.8161 176.242 23.2001 176.622 22.6715C177.007 22.1429 177.53 21.7328 178.191 21.4413C178.851 21.1459 179.6 20.9982 180.435 20.9982C181.283 20.9982 182.025 21.1459 182.662 21.4413C183.304 21.7328 183.807 22.139 184.172 22.6598C184.538 23.1767 184.726 23.7714 184.738 24.4438H182.657ZM186.83 33.1016V21.1615H194.595V22.9746H188.993V26.2162H194.193V28.0294H188.993V31.2884H194.642V33.1016H186.83ZM200.874 33.1016V21.1615H203.037V26.6476H203.183L207.841 21.1615H210.482L205.865 26.5193L210.523 33.1016H207.923L204.361 27.9827L203.037 29.5452V33.1016H200.874ZM211.985 33.1016V21.1615H219.751V22.9746H214.148V26.2162H219.349V28.0294H214.148V31.2884H219.797V33.1016H211.985ZM221.141 21.1615H223.584L226.505 26.4436H226.622L229.543 21.1615H231.985L227.642 28.6473V33.1016H225.485V28.6473L221.141 21.1615ZM240.006 24.4438C239.952 23.9347 239.722 23.5382 239.318 23.2545C238.918 22.9707 238.397 22.8289 237.756 22.8289C237.305 22.8289 236.918 22.8969 236.596 23.0329C236.273 23.169 236.026 23.3536 235.855 23.5868C235.684 23.82 235.597 24.0862 235.593 24.3855C235.593 24.6343 235.649 24.85 235.762 25.0327C235.878 25.2153 236.036 25.3708 236.234 25.4991C236.432 25.6235 236.652 25.7284 236.893 25.8139C237.134 25.8994 237.377 25.9713 237.622 26.0296L238.741 26.3095C239.192 26.4144 239.625 26.5563 240.041 26.7351C240.461 26.9139 240.836 27.1393 241.166 27.4114C241.501 27.6834 241.765 28.0119 241.959 28.3966C242.154 28.7814 242.251 29.2323 242.251 29.7492C242.251 30.4489 242.072 31.0649 241.714 31.5974C241.357 32.126 240.84 32.5399 240.164 32.8392C239.491 33.1346 238.677 33.2823 237.721 33.2823C236.792 33.2823 235.985 33.1385 235.301 32.8509C234.621 32.5632 234.089 32.1435 233.704 31.5916C233.323 31.0396 233.117 30.3672 233.086 29.5743H235.214C235.245 29.9902 235.373 30.3361 235.599 30.6121C235.824 30.8881 236.117 31.0941 236.479 31.2301C236.844 31.3661 237.252 31.4341 237.703 31.4341C238.174 31.4341 238.586 31.3642 238.939 31.2243C239.297 31.0805 239.577 30.8822 239.779 30.6296C239.981 30.3731 240.084 30.0738 240.088 29.7317C240.084 29.4208 239.993 29.1643 239.814 28.9622C239.635 28.7562 239.384 28.5852 239.062 28.4491C238.743 28.3092 238.37 28.1848 237.942 28.076L236.584 27.7262C235.6 27.4735 234.823 27.0907 234.252 26.5776C233.684 26.0607 233.401 25.3747 233.401 24.5196C233.401 23.8161 233.591 23.2001 233.972 22.6715C234.357 22.1429 234.88 21.7328 235.54 21.4413C236.201 21.1459 236.949 20.9982 237.785 20.9982C238.632 20.9982 239.375 21.1459 240.012 21.4413C240.653 21.7328 241.157 22.139 241.522 22.6598C241.887 23.1767 242.076 23.7714 242.087 24.4438H240.006ZM245.386 31.6674C245.032 31.6674 244.729 31.543 244.476 31.2942C244.224 31.0416 244.099 30.7384 244.103 30.3847C244.099 30.0349 244.224 29.7356 244.476 29.4869C244.729 29.2381 245.032 29.1138 245.386 29.1138C245.728 29.1138 246.025 29.2381 246.278 29.4869C246.534 29.7356 246.665 30.0349 246.669 30.3847C246.665 30.6218 246.602 30.8375 246.482 31.0319C246.365 31.2262 246.21 31.3817 246.016 31.4983C245.825 31.611 245.615 31.6674 245.386 31.6674ZM245.386 25.7498C245.032 25.7498 244.729 25.6254 244.476 25.3766C244.224 25.124 244.099 24.8208 244.103 24.4671C244.099 24.1173 244.224 23.8181 244.476 23.5693C244.729 23.3167 245.032 23.1903 245.386 23.1903C245.728 23.1903 246.025 23.3167 246.278 23.5693C246.534 23.8181 246.665 24.1173 246.669 24.4671C246.665 24.7003 246.602 24.9141 246.482 25.1085C246.365 25.3028 246.21 25.4583 246.016 25.5749C245.825 25.6915 245.615 25.7498 245.386 25.7498ZM252.792 33.1016V31.7548L258.913 22.9746H252.757V21.1615H261.595V22.5082L255.479 31.2884H261.63V33.1016H252.792ZM266.108 31.4691L266.032 32.1104C265.977 32.6002 265.88 33.0977 265.74 33.603C265.604 34.1121 265.46 34.5805 265.309 35.008C265.157 35.4356 265.035 35.7718 264.942 36.0166H263.519C263.573 35.7795 263.647 35.4569 263.741 35.0488C263.838 34.6407 263.931 34.1821 264.02 33.6729C264.11 33.1638 264.17 32.6468 264.201 32.1221L264.242 31.4691H266.108ZM267.479 22.9746V21.1615H277.006V22.9746H273.315V33.1016H271.17V22.9746H267.479ZM280.665 31.4691L280.59 32.1104C280.535 32.6002 280.438 33.0977 280.298 33.603C280.162 34.1121 280.018 34.5805 279.867 35.008C279.715 35.4356 279.593 35.7718 279.499 36.0166H278.077C278.131 35.7795 278.205 35.4569 278.298 35.0488C278.396 34.6407 278.489 34.1821 278.578 33.6729C278.668 33.1638 278.728 32.6468 278.759 32.1221L278.8 31.4691H280.665ZM284.656 33.1016H282.347L286.551 21.1615H289.221L293.431 33.1016H291.122L287.933 23.6101H287.839L284.656 33.1016ZM284.732 28.42H291.028V30.1573H284.732V28.42ZM298.551 22.9746V21.1615H308.077V22.9746H304.387V33.1016H302.241V22.9746H298.551ZM320.054 27.1315C320.054 28.418 319.813 29.5199 319.331 30.4372C318.853 31.3506 318.2 32.0502 317.372 32.536C316.548 33.0219 315.613 33.2648 314.568 33.2648C313.522 33.2648 312.585 33.0219 311.758 32.536C310.934 32.0463 310.281 31.3448 309.799 30.4314C309.321 29.5141 309.081 28.4141 309.081 27.1315C309.081 25.845 309.321 24.745 309.799 23.8317C310.281 22.9144 310.934 22.2128 311.758 21.727C312.585 21.2411 313.522 20.9982 314.568 20.9982C315.613 20.9982 316.548 21.2411 317.372 21.727C318.2 22.2128 318.853 22.9144 319.331 23.8317C319.813 24.745 320.054 25.845 320.054 27.1315ZM317.879 27.1315C317.879 26.2259 317.737 25.4622 317.454 24.8403C317.174 24.2145 316.785 23.7423 316.288 23.4236C315.79 23.1009 315.217 22.9396 314.568 22.9396C313.919 22.9396 313.345 23.1009 312.848 23.4236C312.35 23.7423 311.96 24.2145 311.676 24.8403C311.396 25.4622 311.256 26.2259 311.256 27.1315C311.256 28.0371 311.396 28.8028 311.676 29.4286C311.96 30.0505 312.35 30.5227 312.848 30.8453C313.345 31.164 313.919 31.3234 314.568 31.3234C315.217 31.3234 315.79 31.164 316.288 30.8453C316.785 30.5227 317.174 30.0505 317.454 29.4286C317.737 28.8028 317.879 28.0371 317.879 27.1315ZM325.646 22.9746V21.1615H335.173V22.9746H331.482V33.1016H329.337V22.9746H325.646ZM347.149 27.1315C347.149 28.418 346.908 29.5199 346.426 30.4372C345.948 31.3506 345.295 32.0502 344.467 32.536C343.643 33.0219 342.709 33.2648 341.663 33.2648C340.618 33.2648 339.681 33.0219 338.853 32.536C338.029 32.0463 337.376 31.3448 336.894 30.4314C336.416 29.5141 336.177 28.4141 336.177 27.1315C336.177 25.845 336.416 24.745 336.894 23.8317C337.376 22.9144 338.029 22.2128 338.853 21.727C339.681 21.2411 340.618 20.9982 341.663 20.9982C342.709 20.9982 343.643 21.2411 344.467 21.727C345.295 22.2128 345.948 22.9144 346.426 23.8317C346.908 24.745 347.149 25.845 347.149 27.1315ZM344.975 27.1315C344.975 26.2259 344.833 25.4622 344.549 24.8403C344.269 24.2145 343.881 23.7423 343.383 23.4236C342.886 23.1009 342.312 22.9396 341.663 22.9396C341.014 22.9396 340.441 23.1009 339.943 23.4236C339.446 23.7423 339.055 24.2145 338.771 24.8403C338.492 25.4622 338.352 26.2259 338.352 27.1315C338.352 28.0371 338.492 28.8028 338.771 29.4286C339.055 30.0505 339.446 30.5227 339.943 30.8453C340.441 31.164 341.014 31.3234 341.663 31.3234C342.312 31.3234 342.886 31.164 343.383 30.8453C343.881 30.5227 344.269 30.0505 344.549 29.4286C344.833 28.8028 344.975 28.0371 344.975 27.1315ZM357.193 24.9744C357.096 24.6595 356.962 24.3777 356.791 24.129C356.624 23.8764 356.422 23.6606 356.185 23.4819C355.951 23.3031 355.683 23.169 355.38 23.0796C355.077 22.9863 354.746 22.9396 354.389 22.9396C353.748 22.9396 353.176 23.1009 352.675 23.4236C352.173 23.7461 351.779 24.2203 351.491 24.8461C351.208 25.468 351.066 26.2259 351.066 27.1199C351.066 28.0216 351.208 28.7853 351.491 29.4111C351.775 30.0369 352.17 30.513 352.675 30.8395C353.18 31.1621 353.767 31.3234 354.436 31.3234C355.042 31.3234 355.567 31.2068 356.01 30.9736C356.457 30.7404 356.801 30.41 357.042 29.9824C357.283 29.551 357.403 29.0457 357.403 28.4666L357.893 28.5424H354.651V26.8517H359.496V28.2859C359.496 29.3081 359.278 30.1923 358.843 30.9386C358.408 31.6848 357.809 32.2601 357.047 32.6643C356.286 33.0646 355.411 33.2648 354.424 33.2648C353.324 33.2648 352.358 33.018 351.526 32.5244C350.698 32.0269 350.051 31.3214 349.585 30.408C349.122 29.4908 348.891 28.4025 348.891 27.1432C348.891 26.1793 349.027 25.3183 349.299 24.5604C349.575 23.8025 349.96 23.1593 350.454 22.6307C350.947 22.0982 351.526 21.6939 352.191 21.418C352.856 21.1381 353.578 20.9982 354.36 20.9982C355.02 20.9982 355.637 21.0954 356.208 21.2897C356.779 21.4802 357.286 21.7522 357.73 22.1059C358.177 22.4596 358.544 22.8794 358.831 23.3652C359.119 23.8511 359.308 24.3875 359.397 24.9744H357.193ZM369.587 24.9744C369.489 24.6595 369.355 24.3777 369.184 24.129C369.017 23.8764 368.815 23.6606 368.578 23.4819C368.345 23.3031 368.077 23.169 367.773 23.0796C367.47 22.9863 367.14 22.9396 366.782 22.9396C366.141 22.9396 365.57 23.1009 365.068 23.4236C364.567 23.7461 364.172 24.2203 363.885 24.8461C363.601 25.468 363.459 26.2259 363.459 27.1199C363.459 28.0216 363.601 28.7853 363.885 29.4111C364.168 30.0369 364.563 30.513 365.068 30.8395C365.573 31.1621 366.16 31.3234 366.829 31.3234C367.435 31.3234 367.96 31.2068 368.403 30.9736C368.85 30.7404 369.194 30.41 369.435 29.9824C369.676 29.551 369.796 29.0457 369.796 28.4666L370.286 28.5424H367.045V26.8517H371.889V28.2859C371.889 29.3081 371.672 30.1923 371.236 30.9386C370.801 31.6848 370.203 32.2601 369.441 32.6643C368.679 33.0646 367.804 33.2648 366.817 33.2648C365.717 33.2648 364.751 33.018 363.92 32.5244C363.092 32.0269 362.445 31.3214 361.978 30.408C361.516 29.4908 361.284 28.4025 361.284 27.1432C361.284 26.1793 361.42 25.3183 361.693 24.5604C361.969 23.8025 362.353 23.1593 362.847 22.6307C363.341 22.0982 363.92 21.6939 364.584 21.418C365.249 21.1381 365.972 20.9982 366.753 20.9982C367.414 20.9982 368.03 21.0954 368.601 21.2897C369.173 21.4802 369.68 21.7522 370.123 22.1059C370.57 22.4596 370.937 22.8794 371.225 23.3652C371.512 23.8511 371.701 24.3875 371.79 24.9744H369.587ZM373.981 33.1016V21.1615H376.144V31.2884H381.403V33.1016H373.981ZM383.28 33.1016V21.1615H391.046V22.9746H385.443V26.2162H390.644V28.0294H385.443V31.2884H391.092V33.1016H383.28ZM0.210047 55.1016V53.7548L6.33168 44.9746H0.175067V43.1615H9.01354V44.5082L2.89774 53.2884H9.04852V55.1016H0.210047ZM21.2495 49.1315C21.2495 50.418 21.0085 51.5199 20.5266 52.4372C20.0485 53.3506 19.3955 54.0502 18.5677 54.536C17.7437 55.0219 16.8089 55.2648 15.7634 55.2648C14.7178 55.2648 13.7811 55.0219 12.9532 54.536C12.1293 54.0463 11.4763 53.3448 10.9943 52.4314C10.5163 51.5141 10.2772 50.4141 10.2772 49.1315C10.2772 47.845 10.5163 46.745 10.9943 45.8317C11.4763 44.9144 12.1293 44.2128 12.9532 43.727C13.7811 43.2411 14.7178 42.9982 15.7634 42.9982C16.8089 42.9982 17.7437 43.2411 18.5677 43.727C19.3955 44.2128 20.0485 44.9144 20.5266 45.8317C21.0085 46.745 21.2495 47.845 21.2495 49.1315ZM19.0749 49.1315C19.0749 48.2259 18.933 47.4622 18.6493 46.8403C18.3694 46.2145 17.9808 45.7423 17.4833 45.4236C16.9858 45.1009 16.4125 44.9396 15.7634 44.9396C15.1143 44.9396 14.541 45.1009 14.0435 45.4236C13.546 45.7423 13.1554 46.2145 12.8716 46.8403C12.5918 47.4622 12.4519 48.2259 12.4519 49.1315C12.4519 50.0371 12.5918 50.8028 12.8716 51.4286C13.1554 52.0505 13.546 52.5227 14.0435 52.8453C14.541 53.164 15.1143 53.3234 15.7634 53.3234C16.4125 53.3234 16.9858 53.164 17.4833 52.8453C17.9808 52.5227 18.3694 52.0505 18.6493 51.4286C18.933 50.8028 19.0749 50.0371 19.0749 49.1315ZM33.9636 49.1315C33.9636 50.418 33.7226 51.5199 33.2406 52.4372C32.7626 53.3506 32.1096 54.0502 31.2817 54.536C30.4577 55.0219 29.523 55.2648 28.4774 55.2648C27.4319 55.2648 26.4952 55.0219 25.6673 54.536C24.8433 54.0463 24.1903 53.3448 23.7084 52.4314C23.2303 51.5141 22.9913 50.4141 22.9913 49.1315C22.9913 47.845 23.2303 46.745 23.7084 45.8317C24.1903 44.9144 24.8433 44.2128 25.6673 43.727C26.4952 43.2411 27.4319 42.9982 28.4774 42.9982C29.523 42.9982 30.4577 43.2411 31.2817 43.727C32.1096 44.2128 32.7626 44.9144 33.2406 45.8317C33.7226 46.745 33.9636 47.845 33.9636 49.1315ZM31.7889 49.1315C31.7889 48.2259 31.6471 47.4622 31.3633 46.8403C31.0835 46.2145 30.6948 45.7423 30.1973 45.4236C29.6998 45.1009 29.1265 44.9396 28.4774 44.9396C27.8283 44.9396 27.255 45.1009 26.7575 45.4236C26.26 45.7423 25.8694 46.2145 25.5857 46.8403C25.3058 47.4622 25.1659 48.2259 25.1659 49.1315C25.1659 50.0371 25.3058 50.8028 25.5857 51.4286C25.8694 52.0505 26.26 52.5227 26.7575 52.8453C27.255 53.164 27.8283 53.3234 28.4774 53.3234C29.1265 53.3234 29.6998 53.164 30.1973 52.8453C30.6948 52.5227 31.0835 52.0505 31.3633 51.4286C31.6471 50.8028 31.7889 50.0371 31.7889 49.1315ZM36.0085 43.1615H38.6554L42.2001 51.8134H42.34L45.8847 43.1615H48.5316V55.1016H46.4561V46.8986H46.3453L43.0455 55.0666H41.4946L38.1948 46.8811H38.084V55.1016H36.0085V43.1615ZM53.2715 53.4691L53.1957 54.1104C53.1413 54.6002 53.0441 55.0977 52.9042 55.603C52.7682 56.1121 52.6244 56.5805 52.4728 57.008C52.3212 57.4356 52.1988 57.7718 52.1055 58.0166H50.6829C50.7373 57.7795 50.8112 57.4569 50.9045 57.0488C51.0016 56.6407 51.0949 56.1821 51.1843 55.6729C51.2737 55.1638 51.334 54.6468 51.365 54.1221L51.4059 53.4691H53.2715ZM58.9078 44.9746V43.1615H68.4342V44.9746H64.7437V55.1016H62.5982V44.9746H58.9078ZM70.2707 55.1016V43.1615H72.4337V48.2162H77.9665V43.1615H80.1353V55.1016H77.9665V50.0294H72.4337V55.1016H70.2707ZM90.0144 43.1615H92.1774V50.9622C92.1774 51.8173 91.9753 52.5693 91.5711 53.2184C91.1707 53.8675 90.6072 54.3747 89.8803 54.7401C89.1535 55.1016 88.3043 55.2823 87.3326 55.2823C86.357 55.2823 85.5058 55.1016 84.779 54.7401C84.0521 54.3747 83.4886 53.8675 83.0882 53.2184C82.6879 52.5693 82.4877 51.8173 82.4877 50.9622V43.1615H84.6507V50.7814C84.6507 51.2789 84.7595 51.722 84.9772 52.1107C85.1987 52.4994 85.5097 52.8045 85.91 53.026C86.3103 53.2437 86.7845 53.3525 87.3326 53.3525C87.8806 53.3525 88.3548 53.2437 88.7551 53.026C89.1593 52.8045 89.4703 52.4994 89.6879 52.1107C89.9056 51.722 90.0144 51.2789 90.0144 50.7814V43.1615ZM94.5284 43.1615H97.1753L100.72 51.8134H100.86L104.405 43.1615H107.052V55.1016H104.976V46.8986H104.865L101.565 55.0666H100.015L96.7147 46.8811H96.6039V55.1016H94.5284V43.1615ZM109.407 55.1016V43.1615H113.978C114.841 43.1615 115.558 43.2975 116.129 43.5696C116.704 43.8378 117.134 44.2051 117.417 44.6715C117.705 45.1379 117.849 45.6665 117.849 46.2573C117.849 46.7431 117.756 47.159 117.569 47.5049C117.383 47.8469 117.132 48.1248 116.817 48.3386C116.502 48.5524 116.15 48.7059 115.762 48.7992V48.9158C116.185 48.9391 116.592 49.0693 116.98 49.3064C117.373 49.5396 117.693 49.87 117.942 50.2975C118.191 50.7251 118.315 51.242 118.315 51.8484C118.315 52.4663 118.166 53.0222 117.866 53.5158C117.567 54.0055 117.116 54.3922 116.514 54.676C115.911 54.9597 115.153 55.1016 114.24 55.1016H109.407ZM111.57 53.2942H113.896C114.681 53.2942 115.247 53.1446 115.593 52.8453C115.942 52.5421 116.117 52.1535 116.117 51.6793C116.117 51.3256 116.03 51.0069 115.855 50.7231C115.68 50.4355 115.431 50.2101 115.109 50.0468C114.786 49.8797 114.401 49.7961 113.954 49.7961H111.57V53.2942ZM111.57 48.2395H113.71C114.083 48.2395 114.419 48.1715 114.718 48.0354C115.017 47.8955 115.253 47.6992 115.424 47.4466C115.598 47.1901 115.686 46.8869 115.686 46.5371C115.686 46.0746 115.523 45.6937 115.196 45.3944C114.874 45.0951 114.394 44.9455 113.756 44.9455H111.57V48.2395ZM130.009 43.1615V55.1016H128.085L122.459 46.9685H122.36V55.1016H120.197V43.1615H122.133L127.753 51.3003H127.858V43.1615H130.009ZM133.899 55.1016H131.591L135.794 43.1615H138.464L142.674 55.1016H140.365L137.176 45.6101H137.083L133.899 55.1016ZM133.975 50.42H140.272V52.1573H133.975V50.42ZM146.409 43.1615V55.1016H144.246V43.1615H146.409ZM148.752 55.1016V43.1615H150.914V53.2884H156.173V55.1016H148.752ZM164.539 46.4438C164.485 45.9347 164.256 45.5382 163.852 45.2545C163.451 44.9707 162.93 44.8289 162.289 44.8289C161.838 44.8289 161.451 44.8969 161.129 45.0329C160.806 45.169 160.559 45.3536 160.388 45.5868C160.217 45.82 160.13 46.0862 160.126 46.3855C160.126 46.6343 160.182 46.85 160.295 47.0327C160.412 47.2153 160.569 47.3708 160.767 47.4991C160.966 47.6235 161.185 47.7284 161.426 47.8139C161.667 47.8994 161.91 47.9713 162.155 48.0296L163.274 48.3095C163.725 48.4144 164.159 48.5563 164.574 48.7351C164.994 48.9139 165.369 49.1393 165.7 49.4114C166.034 49.6834 166.298 50.0119 166.493 50.3966C166.687 50.7814 166.784 51.2323 166.784 51.7492C166.784 52.4489 166.605 53.0649 166.248 53.5974C165.89 54.126 165.373 54.5399 164.697 54.8392C164.025 55.1346 163.21 55.2823 162.254 55.2823C161.325 55.2823 160.519 55.1385 159.835 54.8509C159.154 54.5632 158.622 54.1435 158.237 53.5916C157.856 53.0396 157.65 52.3672 157.619 51.5743H159.747C159.778 51.9902 159.906 52.3361 160.132 52.6121C160.357 52.8881 160.651 53.0941 161.012 53.2301C161.378 53.3661 161.786 53.4341 162.237 53.4341C162.707 53.4341 163.119 53.3642 163.473 53.2243C163.83 53.0805 164.11 52.8822 164.312 52.6296C164.514 52.3731 164.617 52.0738 164.621 51.7317C164.617 51.4208 164.526 51.1643 164.347 50.9622C164.168 50.7562 163.918 50.5852 163.595 50.4491C163.276 50.3092 162.903 50.1848 162.476 50.076L161.117 49.7262C160.134 49.4735 159.357 49.0907 158.785 48.5776C158.218 48.0607 157.934 47.3747 157.934 46.5196C157.934 45.8161 158.124 45.2001 158.505 44.6715C158.89 44.1429 159.413 43.7328 160.074 43.4413C160.734 43.1459 161.483 42.9982 162.318 42.9982C163.166 42.9982 163.908 43.1459 164.545 43.4413C165.187 43.7328 165.69 44.139 166.055 44.6598C166.421 45.1767 166.609 45.7714 166.621 46.4438H164.539ZM174.318 55.1016H172.009L176.213 43.1615H178.883L183.092 55.1016H180.784L177.595 45.6101H177.501L174.318 55.1016ZM174.394 50.42H180.69V52.1573H174.394V50.42ZM194.477 43.1615V55.1016H192.553L186.927 46.9685H186.828V55.1016H184.665V43.1615H186.601L192.221 51.3003H192.326V43.1615H194.477ZM200.88 55.1016H196.834V43.1615H200.962C202.147 43.1615 203.166 43.4005 204.017 43.8786C204.872 44.3527 205.529 45.0349 205.987 45.9249C206.446 46.815 206.675 47.88 206.675 49.1199C206.675 50.3636 206.444 51.4325 205.981 52.3264C205.523 53.2204 204.86 53.9064 203.993 54.3845C203.131 54.8625 202.093 55.1016 200.88 55.1016ZM198.997 53.2301H200.775C201.607 53.2301 202.301 53.0785 202.857 52.7753C203.412 52.4683 203.83 52.0116 204.11 51.4053C204.39 50.795 204.53 50.0332 204.53 49.1199C204.53 48.2065 204.39 47.4485 204.11 46.8461C203.83 46.2398 203.416 45.787 202.868 45.4877C202.324 45.1845 201.648 45.0329 200.839 45.0329H198.997V53.2301ZM214.336 55.1016H212.027L216.231 43.1615H218.901L223.11 55.1016H220.802L217.613 45.6101H217.519L214.336 55.1016ZM214.412 50.42H220.708V52.1573H214.412V50.42ZM232.21 43.1615H234.373V50.9622C234.373 51.8173 234.171 52.5693 233.766 53.2184C233.366 53.8675 232.803 54.3747 232.076 54.7401C231.349 55.1016 230.5 55.2823 229.528 55.2823C228.552 55.2823 227.701 55.1016 226.974 54.7401C226.248 54.3747 225.684 53.8675 225.284 53.2184C224.883 52.5693 224.683 51.8173 224.683 50.9622V43.1615H226.846V50.7814C226.846 51.2789 226.955 51.722 227.173 52.1107C227.394 52.4994 227.705 52.8045 228.105 53.026C228.506 53.2437 228.98 53.3525 229.528 53.3525C230.076 53.3525 230.55 53.2437 230.95 53.026C231.355 52.8045 231.666 52.4994 231.883 52.1107C232.101 51.722 232.21 51.2789 232.21 50.7814V43.1615ZM236.199 44.9746V43.1615H245.725V44.9746H242.035V55.1016H239.89V44.9746H236.199ZM257.702 49.1315C257.702 50.418 257.461 51.5199 256.979 52.4372C256.501 53.3506 255.848 54.0502 255.02 54.536C254.196 55.0219 253.261 55.2648 252.216 55.2648C251.17 55.2648 250.234 55.0219 249.406 54.536C248.582 54.0463 247.929 53.3448 247.447 52.4314C246.969 51.5141 246.73 50.4141 246.73 49.1315C246.73 47.845 246.969 46.745 247.447 45.8317C247.929 44.9144 248.582 44.2128 249.406 43.727C250.234 43.2411 251.17 42.9982 252.216 42.9982C253.261 42.9982 254.196 43.2411 255.02 43.727C255.848 44.2128 256.501 44.9144 256.979 45.8317C257.461 46.745 257.702 47.845 257.702 49.1315ZM255.527 49.1315C255.527 48.2259 255.386 47.4622 255.102 46.8403C254.822 46.2145 254.433 45.7423 253.936 45.4236C253.438 45.1009 252.865 44.9396 252.216 44.9396C251.567 44.9396 250.993 45.1009 250.496 45.4236C249.998 45.7423 249.608 46.2145 249.324 46.8403C249.044 47.4622 248.904 48.2259 248.904 49.1315C248.904 50.0371 249.044 50.8028 249.324 51.4286C249.608 52.0505 249.998 52.5227 250.496 52.8453C250.993 53.164 251.567 53.3234 252.216 53.3234C252.865 53.3234 253.438 53.164 253.936 52.8453C254.433 52.5227 254.822 52.0505 255.102 51.4286C255.386 50.8028 255.527 50.0371 255.527 49.1315ZM259.747 55.1016V43.1615H267.396V44.9746H261.91V48.2162H266.871V50.0294H261.91V55.1016H259.747ZM269.367 55.1016V43.1615H271.53V53.2884H276.788V55.1016H269.367ZM280.829 43.1615V55.1016H278.666V43.1615H280.829ZM283.171 55.1016V43.1615H287.648C288.566 43.1615 289.335 43.3325 289.957 43.6745C290.583 44.0165 291.055 44.4868 291.374 45.0854C291.697 45.6801 291.858 46.3564 291.858 47.1143C291.858 47.88 291.697 48.5602 291.374 49.1548C291.051 49.7495 290.575 50.2179 289.946 50.5599C289.316 50.898 288.54 51.0671 287.619 51.0671H284.652V49.2889H287.328C287.864 49.2889 288.303 49.1956 288.645 49.0091C288.987 48.8225 289.24 48.566 289.403 48.2395C289.57 47.913 289.654 47.5379 289.654 47.1143C289.654 46.6906 289.57 46.3175 289.403 45.9949C289.24 45.6723 288.986 45.4216 288.64 45.2428C288.298 45.0601 287.856 44.9688 287.316 44.9688H285.334V55.1016H283.171ZM294.382 55.2298C294.029 55.2298 293.725 55.1054 293.473 54.8567C293.22 54.6079 293.096 54.3048 293.1 53.9472C293.096 53.5974 293.22 53.2981 293.473 53.0494C293.725 52.8006 294.029 52.6762 294.382 52.6762C294.724 52.6762 295.022 52.8006 295.274 53.0494C295.531 53.2981 295.661 53.5974 295.665 53.9472C295.661 54.1843 295.599 54.4 295.478 54.5943C295.362 54.7887 295.206 54.9441 295.012 55.0608C294.821 55.1735 294.612 55.2298 294.382 55.2298Z" fill="#666666"/>
</svg>
