<svg width="427" height="101" viewBox="0 0 427 101" fill="none" xmlns="http://www.w3.org/2000/svg">
<path d="M5.67822 15.8008H0.39666V0.214846H5.78477C7.3322 0.214846 8.66147 0.526869 9.77257 1.15092C10.8888 1.76989 11.7462 2.6603 12.3449 3.82214C12.9435 4.98398 13.2429 6.37413 13.2429 7.99259C13.2429 9.61613 12.941 11.0114 12.3373 12.1783C11.7386 13.3452 10.8735 14.2407 9.74213 14.8647C8.6158 15.4888 7.26117 15.8008 5.67822 15.8008ZM3.22009 13.3579H5.54124C6.62697 13.3579 7.5326 13.16 8.25812 12.7643C8.98364 12.3635 9.52904 11.7673 9.89434 10.9758C10.2596 10.1793 10.4423 9.18488 10.4423 7.99259C10.4423 6.80031 10.2596 5.81097 9.89434 5.02457C9.52904 4.2331 8.98871 3.64203 8.27334 3.25136C7.56304 2.85563 6.68025 2.65776 5.62495 2.65776H3.22009V13.3579ZM15.9255 15.8008V0.214846H21.7702C22.9676 0.214846 23.9722 0.422861 24.7839 0.838892C25.6008 1.25492 26.2172 1.83838 26.6332 2.58927C27.0543 3.33508 27.2649 4.20519 27.2649 5.19961C27.2649 6.19909 27.0518 7.06667 26.6256 7.80234C26.2045 8.53293 25.583 9.09863 24.7611 9.49944C23.9392 9.89517 22.9295 10.093 21.7322 10.093H17.5693V7.74906H21.3517C22.0518 7.74906 22.6251 7.65267 23.0716 7.45987C23.5181 7.262 23.8479 6.97535 24.0609 6.5999C24.2791 6.21939 24.3882 5.75262 24.3882 5.19961C24.3882 4.64659 24.2791 4.17475 24.0609 3.78409C23.8428 3.38835 23.5105 3.08901 23.064 2.88607C22.6175 2.67805 22.0417 2.57405 21.3365 2.57405H18.7489V15.8008H15.9255ZM23.9772 8.7384L27.8357 15.8008H24.685L20.8951 8.7384H23.9772ZM31.8653 15.8008H28.8516L34.3387 0.214846H37.8242L43.3189 15.8008H40.3052L36.1423 3.41118H36.0206L31.8653 15.8008ZM31.9643 9.68969H40.1834V11.9576H31.9643V9.68969ZM55.0806 5.192C54.9538 4.78104 54.7787 4.41321 54.5555 4.0885C54.3373 3.75872 54.0735 3.47714 53.764 3.24375C53.4596 3.01037 53.1095 2.83533 52.7138 2.71864C52.3181 2.59688 51.8868 2.53599 51.42 2.53599C50.5829 2.53599 49.8371 2.74655 49.1826 3.16765C48.5281 3.58875 48.0132 4.20773 47.6377 5.02457C47.2673 5.83634 47.0822 6.82568 47.0822 7.99259C47.0822 9.16966 47.2673 10.1666 47.6377 10.9834C48.0081 11.8003 48.5231 12.4218 49.1826 12.848C49.8422 13.2691 50.6083 13.4796 51.4809 13.4796C52.2724 13.4796 52.9573 13.3274 53.5357 13.023C54.1192 12.7186 54.5682 12.2874 54.8827 11.7293C55.1973 11.1661 55.3546 10.5065 55.3546 9.75058L55.9938 9.84951H51.7625V7.64252H58.0867V9.51466C58.0867 10.849 57.8026 12.0032 57.2343 12.9774C56.6661 13.9515 55.8848 14.7024 54.8904 15.23C53.8959 15.7526 52.7544 16.0139 51.4657 16.0139C50.0299 16.0139 48.7691 15.6917 47.6834 15.0474C46.6027 14.3979 45.758 13.4771 45.1491 12.2848C44.5454 11.0875 44.2435 9.66686 44.2435 8.02303C44.2435 6.76479 44.4211 5.641 44.7762 4.65166C45.1365 3.66232 45.6387 2.82265 46.2831 2.13265C46.9274 1.43757 47.6834 0.909922 48.551 0.5497C49.4185 0.184405 50.3622 0.00175699 51.382 0.00175699C52.2445 0.00175699 53.0487 0.128596 53.7945 0.382273C54.5403 0.630877 55.2024 0.986025 55.7808 1.44772C56.3642 1.90941 56.8437 2.45735 57.2191 3.09155C57.5946 3.72574 57.8406 4.42589 57.9573 5.192H55.0806ZM65.4478 2.58166V0.214846H77.883V2.58166H73.0657V15.8008H70.2651V2.58166H65.4478ZM80.2803 15.8008V0.214846H83.1037V6.81299H90.3259V0.214846H93.1569V15.8008H90.3259V9.1798H83.1037V15.8008H80.2803ZM96.2277 15.8008V0.214846H106.365V2.58166H99.0511V6.81299H105.84V9.1798H99.0511V13.434H106.426V15.8008H96.2277ZM127.902 5.47358H125.056C124.974 5.00681 124.825 4.59332 124.607 4.23309C124.388 3.8678 124.117 3.55831 123.792 3.30464C123.468 3.05096 123.097 2.8607 122.681 2.73386C122.27 2.60195 121.826 2.53599 121.349 2.53599C120.502 2.53599 119.751 2.74908 119.097 3.17526C118.442 3.59636 117.93 4.21534 117.559 5.03218C117.189 5.84395 117.004 6.83582 117.004 8.00781C117.004 9.2001 117.189 10.2047 117.559 11.0215C117.935 11.8333 118.447 12.4472 119.097 12.8632C119.751 13.2742 120.5 13.4796 121.342 13.4796C121.809 13.4796 122.245 13.4188 122.651 13.297C123.062 13.1701 123.43 12.985 123.754 12.7414C124.084 12.4979 124.361 12.1986 124.584 11.8434C124.812 11.4883 124.969 11.0824 125.056 10.6258L127.902 10.641C127.795 11.3817 127.564 12.0768 127.209 12.7262C126.859 13.3756 126.4 13.9489 125.832 14.4461C125.264 14.9383 124.599 15.3239 123.838 15.6029C123.077 15.8769 122.232 16.0139 121.304 16.0139C119.934 16.0139 118.711 15.6968 117.636 15.0626C116.56 14.4284 115.713 13.5126 115.094 12.3153C114.475 11.1179 114.165 9.68208 114.165 8.00781C114.165 6.32847 114.477 4.89266 115.101 3.70037C115.725 2.50302 116.575 1.58724 117.651 0.953047C118.726 0.318854 119.944 0.00175699 121.304 0.00175699C122.171 0.00175699 122.978 0.123522 123.724 0.367052C124.47 0.610583 125.134 0.968268 125.718 1.44011C126.301 1.90687 126.781 2.48018 127.156 3.16004C127.537 3.83482 127.785 4.606 127.902 5.47358ZM144.414 8.00781C144.414 9.68716 144.1 11.1255 143.471 12.3229C142.847 13.5151 141.994 14.4284 140.914 15.0626C139.838 15.6968 138.618 16.0139 137.253 16.0139C135.888 16.0139 134.666 15.6968 133.585 15.0626C132.509 14.4233 131.657 13.5075 131.028 12.3153C130.404 11.1179 130.092 9.68208 130.092 8.00781C130.092 6.32847 130.404 4.89266 131.028 3.70037C131.657 2.50302 132.509 1.58724 133.585 0.953047C134.666 0.318854 135.888 0.00175699 137.253 0.00175699C138.618 0.00175699 139.838 0.318854 140.914 0.953047C141.994 1.58724 142.847 2.50302 143.471 3.70037C144.1 4.89266 144.414 6.32847 144.414 8.00781ZM141.576 8.00781C141.576 6.82568 141.391 5.82873 141.02 5.01696C140.655 4.20012 140.147 3.58368 139.498 3.16765C138.849 2.74655 138.1 2.53599 137.253 2.53599C136.406 2.53599 135.657 2.74655 135.008 3.16765C134.359 3.58368 133.849 4.20012 133.478 5.01696C133.113 5.82873 132.93 6.82568 132.93 8.00781C132.93 9.18995 133.113 10.1894 133.478 11.0063C133.849 11.818 134.359 12.4345 135.008 12.8556C135.657 13.2716 136.406 13.4796 137.253 13.4796C138.1 13.4796 138.849 13.2716 139.498 12.8556C140.147 12.4345 140.655 11.818 141.02 11.0063C141.391 10.1894 141.576 9.18995 141.576 8.00781ZM147.084 15.8008V0.214846H152.928C154.126 0.214846 155.13 0.422861 155.942 0.838892C156.759 1.25492 157.375 1.83838 157.791 2.58927C158.212 3.33508 158.423 4.20519 158.423 5.19961C158.423 6.19909 158.21 7.06667 157.784 7.80234C157.363 8.53293 156.741 9.09863 155.919 9.49944C155.097 9.89517 154.088 10.093 152.89 10.093H148.728V7.74906H152.51C153.21 7.74906 153.783 7.65267 154.23 7.45987C154.676 7.262 155.006 6.97535 155.219 6.5999C155.437 6.21939 155.546 5.75262 155.546 5.19961C155.546 4.64659 155.437 4.17475 155.219 3.78409C155.001 3.38835 154.669 3.08901 154.222 2.88607C153.776 2.67805 153.2 2.57405 152.495 2.57405H149.907V15.8008H147.084ZM155.135 8.7384L158.994 15.8008H155.843L152.053 8.7384H155.135ZM173.83 0.214846V15.8008H171.319L163.975 5.18439H163.845V15.8008H161.022V0.214846H163.549L170.885 10.8389H171.022V0.214846H173.83ZM176.907 15.8008V0.214846H187.044V2.58166H179.73V6.81299H186.518V9.1798H179.73V13.434H187.104V15.8008H176.907ZM189.924 15.8008V0.214846H195.769C196.966 0.214846 197.971 0.422861 198.782 0.838892C199.599 1.25492 200.216 1.83838 200.632 2.58927C201.053 3.33508 201.263 4.20519 201.263 5.19961C201.263 6.19909 201.05 7.06667 200.624 7.80234C200.203 8.53293 199.582 9.09863 198.76 9.49944C197.938 9.89517 196.928 10.093 195.731 10.093H191.568V7.74906H195.35C196.05 7.74906 196.624 7.65267 197.07 7.45987C197.517 7.262 197.846 6.97535 198.059 6.5999C198.278 6.21939 198.387 5.75262 198.387 5.19961C198.387 4.64659 198.278 4.17475 198.059 3.78409C197.841 3.38835 197.509 3.08901 197.063 2.88607C196.616 2.67805 196.04 2.57405 195.335 2.57405H192.747V15.8008H189.924ZM197.976 8.7384L201.834 15.8008H198.684L194.894 8.7384H197.976ZM212.333 4.49946C212.262 3.83482 211.962 3.31732 211.435 2.94695C210.912 2.57658 210.232 2.3914 209.395 2.3914C208.807 2.3914 208.302 2.48018 207.881 2.65776C207.46 2.83533 207.137 3.07633 206.914 3.38074C206.691 3.68515 206.577 4.03269 206.572 4.42335C206.572 4.74806 206.645 5.02964 206.792 5.2681C206.945 5.50656 207.15 5.7095 207.409 5.87692C207.668 6.03928 207.954 6.17626 208.269 6.28788C208.583 6.3995 208.9 6.49336 209.22 6.56946L210.681 6.93476C211.27 7.07174 211.835 7.25693 212.378 7.49031C212.926 7.7237 213.416 8.01796 213.847 8.37311C214.283 8.72826 214.628 9.15697 214.882 9.65925C215.136 10.1615 215.263 10.7501 215.263 11.4248C215.263 12.3381 215.029 13.1422 214.562 13.8373C214.096 14.5273 213.421 15.0677 212.538 15.4583C211.66 15.8439 210.597 16.0367 209.349 16.0367C208.137 16.0367 207.084 15.849 206.191 15.4735C205.303 15.0981 204.608 14.5502 204.106 13.8297C203.609 13.1093 203.34 12.2315 203.299 11.1965H206.077C206.118 11.7394 206.285 12.191 206.579 12.5512C206.874 12.9114 207.257 13.1803 207.728 13.3579C208.205 13.5354 208.738 13.6242 209.327 13.6242C209.94 13.6242 210.478 13.5329 210.94 13.3503C211.407 13.1625 211.772 12.9038 212.036 12.574C212.3 12.2392 212.434 11.8485 212.439 11.402C212.434 10.9961 212.315 10.6613 212.082 10.3975C211.848 10.1286 211.521 9.90532 211.1 9.72775C210.684 9.5451 210.197 9.38274 209.639 9.24069L207.865 8.78407C206.582 8.45429 205.567 7.95454 204.821 7.28483C204.081 6.61005 203.71 5.71457 203.71 4.59839C203.71 3.68008 203.959 2.87592 204.456 2.18592C204.958 1.49592 205.641 0.960658 206.503 0.580141C207.366 0.194552 208.342 0.00175699 209.433 0.00175699C210.539 0.00175699 211.508 0.194552 212.34 0.580141C213.177 0.960658 213.834 1.49084 214.311 2.1707C214.788 2.84548 215.034 3.62173 215.05 4.49946H212.333ZM237.022 8.00781C237.022 9.68716 236.708 11.1255 236.079 12.3229C235.455 13.5151 234.602 14.4284 233.522 15.0626C232.446 15.6968 231.226 16.0139 229.861 16.0139C228.496 16.0139 227.274 15.6968 226.193 15.0626C225.117 14.4233 224.265 13.5075 223.636 12.3153C223.012 11.1179 222.7 9.68208 222.7 8.00781C222.7 6.32847 223.012 4.89266 223.636 3.70037C224.265 2.50302 225.117 1.58724 226.193 0.953047C227.274 0.318854 228.496 0.00175699 229.861 0.00175699C231.226 0.00175699 232.446 0.318854 233.522 0.953047C234.602 1.58724 235.455 2.50302 236.079 3.70037C236.708 4.89266 237.022 6.32847 237.022 8.00781ZM234.184 8.00781C234.184 6.82568 233.999 5.82873 233.628 5.01696C233.263 4.20012 232.756 3.58368 232.106 3.16765C231.457 2.74655 230.708 2.53599 229.861 2.53599C229.014 2.53599 228.265 2.74655 227.616 3.16765C226.967 3.58368 226.457 4.20012 226.086 5.01696C225.721 5.82873 225.538 6.82568 225.538 8.00781C225.538 9.18995 225.721 10.1894 226.086 11.0063C226.457 11.818 226.967 12.4345 227.616 12.8556C228.265 13.2716 229.014 13.4796 229.861 13.4796C230.708 13.4796 231.457 13.2716 232.106 12.8556C232.756 12.4345 233.263 11.818 233.628 11.0063C233.999 10.1894 234.184 9.18995 234.184 8.00781ZM239.692 15.8008V0.214846H245.536C246.734 0.214846 247.738 0.422861 248.55 0.838892C249.367 1.25492 249.983 1.83838 250.399 2.58927C250.821 3.33508 251.031 4.20519 251.031 5.19961C251.031 6.19909 250.818 7.06667 250.392 7.80234C249.971 8.53293 249.349 9.09863 248.527 9.49944C247.705 9.89517 246.696 10.093 245.498 10.093H241.336V7.74906H245.118C245.818 7.74906 246.391 7.65267 246.838 7.45987C247.284 7.262 247.614 6.97535 247.827 6.5999C248.045 6.21939 248.154 5.75262 248.154 5.19961C248.154 4.64659 248.045 4.17475 247.827 3.78409C247.609 3.38835 247.277 3.08901 246.83 2.88607C246.384 2.67805 245.808 2.57405 245.103 2.57405H242.515V15.8008H239.692ZM247.743 8.7384L251.602 15.8008H248.451L244.661 8.7384H247.743ZM267.416 4.49946C267.345 3.83482 267.046 3.31732 266.518 2.94695C265.996 2.57658 265.316 2.3914 264.479 2.3914C263.89 2.3914 263.385 2.48018 262.964 2.65776C262.543 2.83533 262.221 3.07633 261.998 3.38074C261.774 3.68515 261.66 4.03269 261.655 4.42335C261.655 4.74806 261.729 5.02964 261.876 5.2681C262.028 5.50656 262.234 5.7095 262.492 5.87692C262.751 6.03928 263.038 6.17626 263.352 6.28788C263.667 6.3995 263.984 6.49336 264.304 6.56946L265.765 6.93476C266.353 7.07174 266.919 7.25693 267.462 7.49031C268.01 7.7237 268.499 8.01796 268.931 8.37311C269.367 8.72826 269.712 9.15697 269.966 9.65925C270.219 10.1615 270.346 10.7501 270.346 11.4248C270.346 12.3381 270.113 13.1422 269.646 13.8373C269.179 14.5273 268.504 15.0677 267.622 15.4583C266.744 15.8439 265.681 16.0367 264.433 16.0367C263.22 16.0367 262.168 15.849 261.275 15.4735C260.387 15.0981 259.692 14.5502 259.189 13.8297C258.692 13.1093 258.423 12.2315 258.383 11.1965H261.16C261.201 11.7394 261.368 12.191 261.663 12.5512C261.957 12.9114 262.34 13.1803 262.812 13.3579C263.289 13.5354 263.822 13.6242 264.41 13.6242C265.024 13.6242 265.562 13.5329 266.023 13.3503C266.49 13.1625 266.856 12.9038 267.119 12.574C267.383 12.2392 267.518 11.8485 267.523 11.402C267.518 10.9961 267.398 10.6613 267.165 10.3975C266.932 10.1286 266.604 9.90532 266.183 9.72775C265.767 9.5451 265.28 9.38274 264.722 9.24069L262.949 8.78407C261.665 8.45429 260.651 7.95454 259.905 7.28483C259.164 6.61005 258.794 5.71457 258.794 4.59839C258.794 3.68008 259.042 2.87592 259.539 2.18592C260.042 1.49592 260.724 0.960658 261.587 0.580141C262.449 0.194552 263.426 0.00175699 264.517 0.00175699C265.623 0.00175699 266.592 0.194552 267.424 0.580141C268.261 0.960658 268.918 1.49084 269.395 2.1707C269.872 2.84548 270.118 3.62173 270.133 4.49946H267.416ZM275.687 0.214846V15.8008H272.863V0.214846H275.687ZM284.026 15.8008H278.744V0.214846H284.132C285.68 0.214846 287.009 0.526869 288.12 1.15092C289.236 1.76989 290.094 2.6603 290.692 3.82214C291.291 4.98398 291.59 6.37413 291.59 7.99259C291.59 9.61613 291.288 11.0114 290.685 12.1783C290.086 13.3452 289.221 14.2407 288.09 14.8647C286.963 15.4888 285.609 15.8008 284.026 15.8008ZM281.568 13.3579H283.889C284.974 13.3579 285.88 13.16 286.606 12.7643C287.331 12.3635 287.876 11.7673 288.242 10.9758C288.607 10.1793 288.79 9.18488 288.79 7.99259C288.79 6.80031 288.607 5.81097 288.242 5.02457C287.876 4.2331 287.336 3.64203 286.621 3.25136C285.91 2.85563 285.028 2.65776 283.972 2.65776H281.568V13.3579ZM294.273 15.8008V0.214846H304.41V2.58166H297.096V6.81299H303.885V9.1798H297.096V13.434H304.471V15.8008H294.273ZM315.761 4.49946C315.69 3.83482 315.39 3.31732 314.863 2.94695C314.34 2.57658 313.66 2.3914 312.823 2.3914C312.235 2.3914 311.73 2.48018 311.309 2.65776C310.888 2.83533 310.565 3.07633 310.342 3.38074C310.119 3.68515 310.005 4.03269 310 4.42335C310 4.74806 310.073 5.02964 310.22 5.2681C310.373 5.50656 310.578 5.7095 310.837 5.87692C311.096 6.03928 311.382 6.17626 311.697 6.28788C312.011 6.3995 312.328 6.49336 312.648 6.56946L314.109 6.93476C314.698 7.07174 315.263 7.25693 315.806 7.49031C316.354 7.7237 316.844 8.01796 317.275 8.37311C317.711 8.72826 318.056 9.15697 318.31 9.65925C318.564 10.1615 318.691 10.7501 318.691 11.4248C318.691 12.3381 318.457 13.1422 317.991 13.8373C317.524 14.5273 316.849 15.0677 315.966 15.4583C315.088 15.8439 314.026 16.0367 312.777 16.0367C311.565 16.0367 310.512 15.849 309.619 15.4735C308.731 15.0981 308.036 14.5502 307.534 13.8297C307.037 13.1093 306.768 12.2315 306.727 11.1965H309.505C309.546 11.7394 309.713 12.191 310.007 12.5512C310.302 12.9114 310.685 13.1803 311.156 13.3579C311.633 13.5354 312.166 13.6242 312.755 13.6242C313.369 13.6242 313.906 13.5329 314.368 13.3503C314.835 13.1625 315.2 12.9038 315.464 12.574C315.728 12.2392 315.862 11.8485 315.867 11.402C315.862 10.9961 315.743 10.6613 315.51 10.3975C315.276 10.1286 314.949 9.90532 314.528 9.72775C314.112 9.5451 313.625 9.38274 313.067 9.24069L311.293 8.78407C310.01 8.45429 308.995 7.95454 308.249 7.28483C307.509 6.61005 307.138 5.71457 307.138 4.59839C307.138 3.68008 307.387 2.87592 307.884 2.18592C308.386 1.49592 309.069 0.960658 309.931 0.580141C310.794 0.194552 311.77 0.00175699 312.861 0.00175699C313.967 0.00175699 314.936 0.194552 315.768 0.580141C316.605 0.960658 317.262 1.49084 317.739 2.1707C318.216 2.84548 318.462 3.62173 318.478 4.49946H315.761ZM324.32 13.6699L324.221 14.507C324.15 15.1463 324.024 15.7957 323.841 16.4553C323.663 17.1199 323.476 17.7313 323.278 18.2894C323.08 18.8474 322.92 19.2863 322.798 19.6059H320.941C321.012 19.2965 321.109 18.8754 321.231 18.3426C321.357 17.8099 321.479 17.2112 321.596 16.5466C321.713 15.882 321.791 15.2072 321.832 14.5222L321.885 13.6699H324.32ZM13.7376 33.4736H10.8913C10.8101 33.0068 10.6604 32.5933 10.4423 32.2331C10.2241 31.8678 9.95268 31.5583 9.62798 31.3046C9.30327 31.051 8.9329 30.8607 8.51687 30.7339C8.10591 30.602 7.66198 30.536 7.18507 30.536C6.33778 30.536 5.5869 30.7491 4.93241 31.1753C4.27792 31.5964 3.76549 32.2153 3.39513 33.0322C3.02476 33.8439 2.83957 34.8358 2.83957 36.0078C2.83957 37.2001 3.02476 38.2047 3.39513 39.0215C3.77057 39.8333 4.283 40.4472 4.93241 40.8632C5.5869 41.2742 6.33525 41.4796 7.17745 41.4796C7.64422 41.4796 8.08055 41.4188 8.48643 41.297C8.89739 41.1701 9.26522 40.985 9.58993 40.7414C9.91971 40.4979 10.1962 40.1986 10.4195 39.8434C10.6478 39.4883 10.805 39.0824 10.8913 38.6258L13.7376 38.641C13.631 39.3817 13.4002 40.0768 13.045 40.7262C12.6949 41.3756 12.2358 41.9489 11.6675 42.4461C11.0993 42.9383 10.4347 43.3239 9.67364 43.6029C8.91261 43.8769 8.06786 44.0139 7.1394 44.0139C5.76955 44.0139 4.54682 43.6968 3.47123 43.0626C2.39564 42.4284 1.54835 41.5126 0.929382 40.3153C0.310409 39.1179 0.000922983 37.6821 0.000922983 36.0078C0.000922983 34.3285 0.312946 32.8927 0.936992 31.7004C1.56104 30.503 2.41086 29.5872 3.48645 28.953C4.56204 28.3189 5.77969 28.0018 7.1394 28.0018C8.00698 28.0018 8.81367 28.1235 9.55948 28.3671C10.3053 28.6106 10.9699 28.9683 11.5534 29.4401C12.1368 29.9069 12.6163 30.4802 12.9917 31.16C13.3723 31.8348 13.6209 32.606 13.7376 33.4736ZM16.3232 43.8008V28.2148H19.1466V41.434H26.0111V43.8008H16.3232ZM31.285 28.2148V43.8008H28.4616V28.2148H31.285ZM47.6834 33.4736H44.8371C44.7559 33.0068 44.6063 32.5933 44.3881 32.2331C44.17 31.8678 43.8985 31.5583 43.5738 31.3046C43.2491 31.051 42.8787 30.8607 42.4627 30.7339C42.0517 30.602 41.6078 30.536 41.1309 30.536C40.2836 30.536 39.5327 30.7491 38.8782 31.1753C38.2238 31.5964 37.7113 32.2153 37.341 33.0322C36.9706 33.8439 36.7854 34.8358 36.7854 36.0078C36.7854 37.2001 36.9706 38.2047 37.341 39.0215C37.7164 39.8333 38.2288 40.4472 38.8782 40.8632C39.5327 41.2742 40.2811 41.4796 41.1233 41.4796C41.5901 41.4796 42.0264 41.4188 42.4323 41.297C42.8432 41.1701 43.2111 40.985 43.5358 40.7414C43.8655 40.4979 44.142 40.1986 44.3653 39.8434C44.5936 39.4883 44.7509 39.0824 44.8371 38.6258L47.6834 38.641C47.5768 39.3817 47.346 40.0768 46.9908 40.7262C46.6408 41.3756 46.1816 41.9489 45.6134 42.4461C45.0451 42.9383 44.3805 43.3239 43.6195 43.6029C42.8584 43.8769 42.0137 44.0139 41.0852 44.0139C39.7154 44.0139 38.4927 43.6968 37.4171 43.0626C36.3415 42.4284 35.4942 41.5126 34.8752 40.3153C34.2562 39.1179 33.9468 37.6821 33.9468 36.0078C33.9468 34.3285 34.2588 32.8927 34.8828 31.7004C35.5069 30.503 36.3567 29.5872 37.4323 28.953C38.5079 28.3189 39.7255 28.0018 41.0852 28.0018C41.9528 28.0018 42.7595 28.1235 43.5053 28.3671C44.2511 28.6106 44.9158 28.9683 45.4992 29.4401C46.0827 29.9069 46.5621 30.4802 46.9376 31.16C47.3181 31.8348 47.5667 32.606 47.6834 33.4736ZM50.269 43.8008V28.2148H53.0924V35.3762H53.2827L59.3633 28.2148H62.8108L56.7834 35.2087L62.8641 43.8008H59.4699L54.82 37.1189L53.0924 39.1585V43.8008H50.269ZM71.0128 27.4843L65.99 46.1448H63.5775L68.6003 27.4843H71.0128ZM72.2076 30.5817V28.2148H84.6429V30.5817H79.8256V43.8008H77.025V30.5817H72.2076ZM87.1581 43.8008H84.1444L89.6315 28.2148H93.117L98.6116 43.8008H95.598L91.4351 31.4112H91.3133L87.1581 43.8008ZM87.257 37.6897H95.4762V39.9576H87.257V37.6897ZM100.665 43.8008V28.2148H106.509C107.707 28.2148 108.711 28.4381 109.523 28.8846C110.34 29.331 110.956 29.9449 111.372 30.7263C111.793 31.5025 112.004 32.3853 112.004 33.3746C112.004 34.3741 111.793 35.262 111.372 36.0383C110.951 36.8145 110.33 37.4259 109.508 37.8723C108.686 38.3137 107.674 38.5344 106.471 38.5344H102.598V36.2133H106.091C106.791 36.2133 107.364 36.0915 107.811 35.848C108.257 35.6045 108.587 35.2696 108.8 34.8434C109.018 34.4173 109.127 33.9277 109.127 33.3746C109.127 32.8216 109.018 32.3346 108.8 31.9135C108.587 31.4924 108.255 31.1651 107.803 30.9317C107.357 30.6933 106.781 30.574 106.075 30.574H103.488V43.8008H100.665ZM133.699 36.0078C133.699 37.6872 133.384 39.1255 132.755 40.3229C132.131 41.5151 131.279 42.4284 130.198 43.0626C129.123 43.6968 127.902 44.0139 126.538 44.0139C125.173 44.0139 123.95 43.6968 122.87 43.0626C121.794 42.4233 120.942 41.5075 120.312 40.3153C119.688 39.1179 119.376 37.6821 119.376 36.0078C119.376 34.3285 119.688 32.8927 120.312 31.7004C120.942 30.503 121.794 29.5872 122.87 28.953C123.95 28.3189 125.173 28.0018 126.538 28.0018C127.902 28.0018 129.123 28.3189 130.198 28.953C131.279 29.5872 132.131 30.503 132.755 31.7004C133.384 32.8927 133.699 34.3285 133.699 36.0078ZM130.86 36.0078C130.86 34.8257 130.675 33.8287 130.305 33.017C129.94 32.2001 129.432 31.5837 128.783 31.1677C128.133 30.7465 127.385 30.536 126.538 30.536C125.69 30.536 124.942 30.7465 124.293 31.1677C123.643 31.5837 123.133 32.2001 122.763 33.017C122.398 33.8287 122.215 34.8257 122.215 36.0078C122.215 37.1899 122.398 38.1894 122.763 39.0063C123.133 39.818 123.643 40.4345 124.293 40.8556C124.942 41.2716 125.69 41.4796 126.538 41.4796C127.385 41.4796 128.133 41.2716 128.783 40.8556C129.432 40.4345 129.94 39.818 130.305 39.0063C130.675 38.1894 130.86 37.1899 130.86 36.0078ZM149.177 28.2148V43.8008H146.665L139.321 33.1844H139.192V43.8008H136.368V28.2148H138.895L146.231 38.8389H146.368V28.2148H149.177ZM156.884 30.5817V28.2148H169.319V30.5817H164.502V43.8008H161.701V30.5817H156.884ZM171.716 43.8008V28.2148H174.54V34.813H181.762V28.2148H184.593V43.8008H181.762V37.1798H174.54V43.8008H171.716ZM187.664 43.8008V28.2148H197.801V30.5817H190.487V34.813H197.276V37.1798H190.487V41.434H197.862V43.8008H187.664ZM219.338 33.4736H216.492C216.411 33.0068 216.261 32.5933 216.043 32.2331C215.825 31.8678 215.553 31.5583 215.228 31.3046C214.904 31.051 214.533 30.8607 214.117 30.7339C213.706 30.602 213.262 30.536 212.785 30.536C211.938 30.536 211.187 30.7491 210.533 31.1753C209.878 31.5964 209.366 32.2153 208.996 33.0322C208.625 33.8439 208.44 34.8358 208.44 36.0078C208.44 37.2001 208.625 38.2047 208.996 39.0215C209.371 39.8333 209.883 40.4472 210.533 40.8632C211.187 41.2742 211.936 41.4796 212.778 41.4796C213.245 41.4796 213.681 41.4188 214.087 41.297C214.498 41.1701 214.866 40.985 215.19 40.7414C215.52 40.4979 215.797 40.1986 216.02 39.8434C216.248 39.4883 216.405 39.0824 216.492 38.6258L219.338 38.641C219.231 39.3817 219.001 40.0768 218.645 40.7262C218.295 41.3756 217.836 41.9489 217.268 42.4461C216.7 42.9383 216.035 43.3239 215.274 43.6029C214.513 43.8769 213.668 44.0139 212.74 44.0139C211.37 44.0139 210.147 43.6968 209.072 43.0626C207.996 42.4284 207.149 41.5126 206.53 40.3153C205.911 39.1179 205.601 37.6821 205.601 36.0078C205.601 34.3285 205.913 32.8927 206.537 31.7004C207.161 30.503 208.011 29.5872 209.087 28.953C210.162 28.3189 211.38 28.0018 212.74 28.0018C213.607 28.0018 214.414 28.1235 215.16 28.3671C215.906 28.6106 216.57 28.9683 217.154 29.4401C217.737 29.9069 218.217 30.4802 218.592 31.16C218.973 31.8348 219.221 32.606 219.338 33.4736ZM235.85 36.0078C235.85 37.6872 235.536 39.1255 234.907 40.3229C234.283 41.5151 233.43 42.4284 232.35 43.0626C231.274 43.6968 230.054 44.0139 228.689 44.0139C227.324 44.0139 226.102 43.6968 225.021 43.0626C223.945 42.4233 223.093 41.5075 222.464 40.3153C221.84 39.1179 221.528 37.6821 221.528 36.0078C221.528 34.3285 221.84 32.8927 222.464 31.7004C223.093 30.503 223.945 29.5872 225.021 28.953C226.102 28.3189 227.324 28.0018 228.689 28.0018C230.054 28.0018 231.274 28.3189 232.35 28.953C233.43 29.5872 234.283 30.503 234.907 31.7004C235.536 32.8927 235.85 34.3285 235.85 36.0078ZM233.012 36.0078C233.012 34.8257 232.827 33.8287 232.456 33.017C232.091 32.2001 231.584 31.5837 230.934 31.1677C230.285 30.7465 229.536 30.536 228.689 30.536C227.842 30.536 227.093 30.7465 226.444 31.1677C225.795 31.5837 225.285 32.2001 224.914 33.017C224.549 33.8287 224.366 34.8257 224.366 36.0078C224.366 37.1899 224.549 38.1894 224.914 39.0063C225.285 39.818 225.795 40.4345 226.444 40.8556C227.093 41.2716 227.842 41.4796 228.689 41.4796C229.536 41.4796 230.285 41.2716 230.934 40.8556C231.584 40.4345 232.091 39.818 232.456 39.0063C232.827 38.1894 233.012 37.1899 233.012 36.0078ZM238.52 43.8008V28.2148H244.364C245.562 28.2148 246.566 28.4229 247.378 28.8389C248.195 29.2549 248.811 29.8384 249.227 30.5893C249.649 31.3351 249.859 32.2052 249.859 33.1996C249.859 34.1991 249.646 35.0667 249.22 35.8023C248.799 36.5329 248.177 37.0986 247.355 37.4994C246.533 37.8952 245.524 38.093 244.326 38.093H240.164V35.7491H243.946C244.646 35.7491 245.219 35.6527 245.666 35.4599C246.112 35.262 246.442 34.9753 246.655 34.5999C246.873 34.2194 246.982 33.7526 246.982 33.1996C246.982 32.6466 246.873 32.1747 246.655 31.7841C246.437 31.3883 246.105 31.089 245.658 30.8861C245.212 30.6781 244.636 30.574 243.931 30.574H241.343V43.8008H238.52ZM246.571 36.7384L250.43 43.8008H247.279L243.489 36.7384H246.571ZM265.266 28.2148V43.8008H262.755L255.411 33.1844H255.281V43.8008H252.458V28.2148H254.985L262.321 38.8389H262.458V28.2148H265.266ZM268.343 43.8008V28.2148H278.48V30.5817H271.166V34.813H277.955V37.1798H271.166V41.434H278.541V43.8008H268.343ZM281.36 43.8008V28.2148H287.205C288.402 28.2148 289.407 28.4229 290.219 28.8389C291.035 29.2549 291.652 29.8384 292.068 30.5893C292.489 31.3351 292.7 32.2052 292.7 33.1996C292.7 34.1991 292.486 35.0667 292.06 35.8023C291.639 36.5329 291.018 37.0986 290.196 37.4994C289.374 37.8952 288.364 38.093 287.167 38.093H283.004V35.7491H286.786C287.486 35.7491 288.06 35.6527 288.506 35.4599C288.953 35.262 289.283 34.9753 289.496 34.5999C289.714 34.2194 289.823 33.7526 289.823 33.1996C289.823 32.6466 289.714 32.1747 289.496 31.7841C289.277 31.3883 288.945 31.089 288.499 30.8861C288.052 30.6781 287.476 30.574 286.771 30.574H284.184V43.8008H281.36ZM289.412 36.7384L293.27 43.8008H290.12L286.33 36.7384H289.412ZM303.769 32.4995C303.698 31.8348 303.398 31.3173 302.871 30.947C302.348 30.5766 301.668 30.3914 300.831 30.3914C300.243 30.3914 299.738 30.4802 299.317 30.6578C298.896 30.8353 298.573 31.0763 298.35 31.3807C298.127 31.6852 298.013 32.0327 298.008 32.4234C298.008 32.7481 298.081 33.0296 298.228 33.2681C298.381 33.5066 298.586 33.7095 298.845 33.8769C299.104 34.0393 299.39 34.1763 299.705 34.2879C300.019 34.3995 300.336 34.4934 300.656 34.5695L302.117 34.9348C302.706 35.0717 303.272 35.2569 303.814 35.4903C304.362 35.7237 304.852 36.018 305.283 36.3731C305.72 36.7283 306.065 37.157 306.318 37.6593C306.572 38.1615 306.699 38.7501 306.699 39.4248C306.699 40.3381 306.465 41.1422 305.999 41.8373C305.532 42.5273 304.857 43.0677 303.974 43.4583C303.096 43.8439 302.034 44.0367 300.785 44.0367C299.573 44.0367 298.52 43.849 297.627 43.4735C296.739 43.0981 296.044 42.5502 295.542 41.8297C295.045 41.1093 294.776 40.2315 294.735 39.1965H297.513C297.554 39.7394 297.721 40.191 298.015 40.5512C298.31 40.9114 298.693 41.1803 299.164 41.3579C299.641 41.5354 300.174 41.6242 300.763 41.6242C301.377 41.6242 301.914 41.5329 302.376 41.3503C302.843 41.1625 303.208 40.9038 303.472 40.574C303.736 40.2392 303.87 39.8485 303.875 39.402C303.87 38.9961 303.751 38.6613 303.518 38.3975C303.284 38.1286 302.957 37.9053 302.536 37.7277C302.12 37.5451 301.633 37.3827 301.075 37.2407L299.301 36.7841C298.018 36.4543 297.003 35.9545 296.257 35.2848C295.517 34.6101 295.146 33.7146 295.146 32.5984C295.146 31.6801 295.395 30.8759 295.892 30.1859C296.394 29.4959 297.077 28.9607 297.939 28.5801C298.802 28.1946 299.778 28.0018 300.869 28.0018C301.975 28.0018 302.944 28.1946 303.776 28.5801C304.613 28.9607 305.271 29.4908 305.747 30.1707C306.224 30.8455 306.47 31.6217 306.486 32.4995H303.769ZM312.328 41.6699L312.229 42.507C312.158 43.1463 312.032 43.7957 311.849 44.4553C311.671 45.1199 311.484 45.7313 311.286 46.2894C311.088 46.8474 310.928 47.2863 310.806 47.6059H308.949C309.02 47.2965 309.117 46.8754 309.239 46.3426C309.365 45.8099 309.487 45.2112 309.604 44.5466C309.721 43.882 309.799 43.2072 309.84 42.5222L309.893 41.6699H312.328ZM330.196 28.2148H333.019V38.3975C333.019 39.5136 332.755 40.4954 332.228 41.3426C331.705 42.1899 330.969 42.852 330.021 43.3289C329.072 43.8008 327.963 44.0367 326.695 44.0367C325.421 44.0367 324.31 43.8008 323.362 43.3289C322.413 42.852 321.677 42.1899 321.155 41.3426C320.632 40.4954 320.371 39.5136 320.371 38.3975V28.2148H323.194V38.1615C323.194 38.8109 323.336 39.3893 323.62 39.8967C323.909 40.404 324.315 40.8023 324.838 41.0915C325.36 41.3756 325.979 41.5177 326.695 41.5177C327.41 41.5177 328.029 41.3756 328.552 41.0915C329.079 40.8023 329.485 40.404 329.769 39.8967C330.054 39.3893 330.196 38.8109 330.196 38.1615V28.2148ZM344.558 32.4995C344.487 31.8348 344.188 31.3173 343.66 30.947C343.138 30.5766 342.458 30.3914 341.621 30.3914C341.032 30.3914 340.527 30.4802 340.106 30.6578C339.685 30.8353 339.363 31.0763 339.14 31.3807C338.916 31.6852 338.802 32.0327 338.797 32.4234C338.797 32.7481 338.871 33.0296 339.018 33.2681C339.17 33.5066 339.376 33.7095 339.634 33.8769C339.893 34.0393 340.18 34.1763 340.494 34.2879C340.809 34.3995 341.126 34.4934 341.446 34.5695L342.907 34.9348C343.495 35.0717 344.061 35.2569 344.604 35.4903C345.152 35.7237 345.641 36.018 346.073 36.3731C346.509 36.7283 346.854 37.157 347.108 37.6593C347.361 38.1615 347.488 38.7501 347.488 39.4248C347.488 40.3381 347.255 41.1422 346.788 41.8373C346.321 42.5273 345.646 43.0677 344.764 43.4583C343.886 43.8439 342.823 44.0367 341.575 44.0367C340.362 44.0367 339.31 43.849 338.417 43.4735C337.529 43.0981 336.834 42.5502 336.331 41.8297C335.834 41.1093 335.565 40.2315 335.525 39.1965H338.302C338.343 39.7394 338.51 40.191 338.805 40.5512C339.099 40.9114 339.482 41.1803 339.954 41.3579C340.431 41.5354 340.964 41.6242 341.552 41.6242C342.166 41.6242 342.704 41.5329 343.165 41.3503C343.632 41.1625 343.998 40.9038 344.261 40.574C344.525 40.2392 344.66 39.8485 344.665 39.402C344.66 38.9961 344.54 38.6613 344.307 38.3975C344.074 38.1286 343.746 37.9053 343.325 37.7277C342.909 37.5451 342.422 37.3827 341.864 37.2407L340.091 36.7841C338.807 36.4543 337.793 35.9545 337.047 35.2848C336.306 34.6101 335.936 33.7146 335.936 32.5984C335.936 31.6801 336.184 30.8759 336.681 30.1859C337.184 29.4959 337.866 28.9607 338.729 28.5801C339.591 28.1946 340.568 28.0018 341.659 28.0018C342.765 28.0018 343.734 28.1946 344.566 28.5801C345.403 28.9607 346.06 29.4908 346.537 30.1707C347.014 30.8455 347.26 31.6217 347.275 32.4995H344.558ZM350.005 43.8008V28.2148H360.142V30.5817H352.829V34.813H359.617V37.1798H352.829V41.434H360.203V43.8008H350.005ZM0.39666 71.8008V56.2148H3.22009V63.3762H3.41035L9.49099 56.2148H12.9385L6.91109 63.2087L12.9917 71.8008H9.59754L4.94763 65.1189L3.22009 67.1585V71.8008H0.39666ZM14.9 71.8008V56.2148H25.037V58.5817H17.7235V62.813H24.5119V65.1798H17.7235V69.434H25.0979V71.8008H14.9ZM26.852 56.2148H30.0408L33.8535 63.1098H34.0057L37.8185 56.2148H41.0072L35.3375 65.9865V71.8008H32.5217V65.9865L26.852 56.2148ZM43.0068 71.8008V56.2148H48.9733C50.0997 56.2148 51.0357 56.3924 51.7815 56.7476C52.5324 57.0976 53.0931 57.5771 53.4634 58.1859C53.8389 58.7947 54.0266 59.4847 54.0266 60.2559C54.0266 60.8901 53.9048 61.433 53.6613 61.8845C53.4178 62.331 53.0905 62.6938 52.6796 62.9728C52.2686 63.2519 51.8094 63.4523 51.3021 63.574V63.7262C51.8551 63.7567 52.3853 63.9266 52.8926 64.2361C53.4051 64.5405 53.8236 64.9718 54.1483 65.5299C54.4731 66.088 54.6354 66.7627 54.6354 67.5542C54.6354 68.3609 54.4401 69.0864 54.0494 69.7308C53.6588 70.37 53.0702 70.8749 52.2838 71.2452C51.4974 71.6156 50.5081 71.8008 49.3158 71.8008H43.0068ZM45.8303 69.4416H48.8668C49.8916 69.4416 50.6298 69.2463 51.0814 68.8556C51.538 68.4599 51.7663 67.9525 51.7663 67.3335C51.7663 66.8718 51.6522 66.4558 51.4239 66.0854C51.1955 65.71 50.8708 65.4157 50.4497 65.2026C50.0286 64.9845 49.5263 64.8754 48.9429 64.8754H45.8303V69.4416ZM45.8303 62.8434H48.6233C49.1103 62.8434 49.5492 62.7546 49.9398 62.5771C50.3305 62.3944 50.6375 62.1382 50.8607 61.8084C51.089 61.4736 51.2032 61.0778 51.2032 60.6212C51.2032 60.0175 50.9901 59.5203 50.5639 59.1296C50.1428 58.7389 49.5162 58.5436 48.6841 58.5436H45.8303V62.8434ZM71.0185 64.0078C71.0185 65.6872 70.704 67.1255 70.0748 68.3229C69.4508 69.5151 68.5984 70.4284 67.5178 71.0626C66.4422 71.6968 65.222 72.0139 63.8572 72.0139C62.4924 72.0139 61.2697 71.6968 60.189 71.0626C59.1134 70.4233 58.2611 69.5075 57.632 68.3153C57.0079 67.1179 56.6959 65.6821 56.6959 64.0078C56.6959 62.3285 57.0079 60.8927 57.632 59.7004C58.2611 58.503 59.1134 57.5872 60.189 56.953C61.2697 56.3189 62.4924 56.0018 63.8572 56.0018C65.222 56.0018 66.4422 56.3189 67.5178 56.953C68.5984 57.5872 69.4508 58.503 70.0748 59.7004C70.704 60.8927 71.0185 62.3285 71.0185 64.0078ZM68.1799 64.0078C68.1799 62.8257 67.9947 61.8287 67.6243 61.017C67.259 60.2001 66.7517 59.5837 66.1023 59.1677C65.4528 58.7465 64.7045 58.536 63.8572 58.536C63.0099 58.536 62.2616 58.7465 61.6122 59.1677C60.9628 59.5837 60.4529 60.2001 60.0825 61.017C59.7172 61.8287 59.5345 62.8257 59.5345 64.0078C59.5345 65.1899 59.7172 66.1894 60.0825 67.0063C60.4529 67.818 60.9628 68.4345 61.6122 68.8556C62.2616 69.2716 63.0099 69.4796 63.8572 69.4796C64.7045 69.4796 65.4528 69.2716 66.1023 68.8556C66.7517 68.4345 67.259 67.818 67.6243 67.0063C67.9947 66.1894 68.1799 65.1899 68.1799 64.0078ZM74.8522 71.8008H71.8385L77.3256 56.2148H80.8111L86.3058 71.8008H83.2921L79.1292 59.4112H79.0075L74.8522 71.8008ZM74.9512 65.6897H83.1703V67.9576H74.9512V65.6897ZM88.3586 71.8008V56.2148H94.2034C95.4007 56.2148 96.4053 56.4229 97.217 56.8389C98.0339 57.2549 98.6503 57.8384 99.0664 58.5893C99.4875 59.3351 99.698 60.2052 99.698 61.1996C99.698 62.1991 99.4849 63.0667 99.0587 63.8023C98.6376 64.5329 98.0161 65.0986 97.1942 65.4994C96.3723 65.8952 95.3627 66.093 94.1653 66.093H90.0025V63.7491H93.7848C94.4849 63.7491 95.0583 63.6527 95.5047 63.4599C95.9512 63.262 96.281 62.9753 96.4941 62.5999C96.7122 62.2194 96.8213 61.7526 96.8213 61.1996C96.8213 60.6466 96.7122 60.1747 96.4941 59.7841C96.2759 59.3883 95.9436 59.089 95.4971 58.8861C95.0506 58.6781 94.4748 58.574 93.7696 58.574H91.1821V71.8008H88.3586ZM96.4104 64.7384L100.269 71.8008H97.1181L93.3282 64.7384H96.4104ZM107.578 71.8008H102.297V56.2148H107.685C109.232 56.2148 110.562 56.5269 111.673 57.1509C112.789 57.7699 113.646 58.6603 114.245 59.8221C114.844 60.984 115.143 62.3741 115.143 63.9926C115.143 65.6161 114.841 67.0114 114.238 68.1783C113.639 69.3452 112.774 70.2407 111.642 70.8647C110.516 71.4888 109.161 71.8008 107.578 71.8008ZM105.12 69.3579H107.442C108.527 69.3579 109.433 69.16 110.158 68.7643C110.884 68.3635 111.429 67.7673 111.795 66.9758C112.16 66.1793 112.343 65.1849 112.343 63.9926C112.343 62.8003 112.16 61.811 111.795 61.0246C111.429 60.2331 110.889 59.642 110.174 59.2514C109.463 58.8556 108.581 58.6578 107.525 58.6578H105.12V69.3579ZM123.142 71.8008V56.2148H125.965V69.434H132.83V71.8008H123.142ZM135.28 71.8008V56.2148H145.417V58.5817H138.103V62.813H144.892V65.1798H138.103V69.434H145.478V71.8008H135.28ZM148.298 71.8008V56.2148H158.282V58.5817H151.121V62.813H157.597V65.1798H151.121V71.8008H148.298ZM160.17 58.5817V56.2148H172.605V58.5817H167.788V71.8008H164.987V58.5817H160.17ZM179.547 55.4843L174.525 74.1448H172.112L177.135 55.4843H179.547ZM181.427 71.8008V56.2148H187.272C188.469 56.2148 189.474 56.4229 190.286 56.8389C191.102 57.2549 191.719 57.8384 192.135 58.5893C192.556 59.3351 192.767 60.2052 192.767 61.1996C192.767 62.1991 192.553 63.0667 192.127 63.8023C191.706 64.5329 191.085 65.0986 190.263 65.4994C189.441 65.8952 188.431 66.093 187.234 66.093H183.071V63.7491H186.853C187.553 63.7491 188.127 63.6527 188.573 63.4599C189.02 63.262 189.349 62.9753 189.563 62.5999C189.781 62.2194 189.89 61.7526 189.89 61.1996C189.89 60.6466 189.781 60.1747 189.563 59.7841C189.344 59.3883 189.012 59.089 188.566 58.8861C188.119 58.6781 187.543 58.574 186.838 58.574H184.251V71.8008H181.427ZM189.479 64.7384L193.337 71.8008H190.187L186.397 64.7384H189.479ZM198.189 56.2148V71.8008H195.365V56.2148H198.189ZM211.688 61.192C211.561 60.781 211.386 60.4132 211.163 60.0885C210.944 59.7587 210.681 59.4771 210.371 59.2438C210.067 59.0104 209.717 58.8353 209.321 58.7186C208.925 58.5969 208.494 58.536 208.027 58.536C207.19 58.536 206.444 58.7465 205.79 59.1677C205.135 59.5888 204.62 60.2077 204.245 61.0246C203.874 61.8363 203.689 62.8257 203.689 63.9926C203.689 65.1697 203.874 66.1666 204.245 66.9834C204.615 67.8003 205.13 68.4218 205.79 68.848C206.449 69.2691 207.215 69.4796 208.088 69.4796C208.879 69.4796 209.564 69.3274 210.143 69.023C210.726 68.7186 211.175 68.2874 211.49 67.7293C211.804 67.1661 211.962 66.5065 211.962 65.7506L212.601 65.8495H208.37V63.6425H214.694V65.5147C214.694 66.849 214.41 68.0032 213.841 68.9774C213.273 69.9515 212.492 70.7024 211.497 71.23C210.503 71.7526 209.361 72.0139 208.073 72.0139C206.637 72.0139 205.376 71.6917 204.29 71.0474C203.21 70.3979 202.365 69.4771 201.756 68.2848C201.152 67.0875 200.851 65.6669 200.851 64.023C200.851 62.7648 201.028 61.641 201.383 60.6517C201.744 59.6623 202.246 58.8226 202.89 58.1326C203.534 57.4376 204.29 56.9099 205.158 56.5497C206.026 56.1844 206.969 56.0018 207.989 56.0018C208.852 56.0018 209.656 56.1286 210.402 56.3823C211.147 56.6309 211.809 56.986 212.388 57.4477C212.971 57.9094 213.451 58.4574 213.826 59.0915C214.202 59.7257 214.448 60.4259 214.564 61.192H211.688ZM217.424 71.8008V56.2148H220.247V62.813H227.47V56.2148H230.301V71.8008H227.47V65.1798H220.247V71.8008H217.424ZM232.686 58.5817V56.2148H245.122V58.5817H240.304V71.8008H237.504V58.5817H232.686ZM254.836 71.8008H251.823L257.31 56.2148H260.795L266.29 71.8008H263.276L259.113 59.4112H258.992L254.836 71.8008ZM254.935 65.6897H263.154V67.9576H254.935V65.6897ZM268.343 71.8008V56.2148H274.187C275.385 56.2148 276.389 56.4229 277.201 56.8389C278.018 57.2549 278.634 57.8384 279.05 58.5893C279.472 59.3351 279.682 60.2052 279.682 61.1996C279.682 62.1991 279.469 63.0667 279.043 63.8023C278.622 64.5329 278 65.0986 277.178 65.4994C276.356 65.8952 275.347 66.093 274.149 66.093H269.987V63.7491H273.769C274.469 63.7491 275.042 63.6527 275.489 63.4599C275.935 63.262 276.265 62.9753 276.478 62.5999C276.696 62.2194 276.805 61.7526 276.805 61.1996C276.805 60.6466 276.696 60.1747 276.478 59.7841C276.26 59.3883 275.928 59.089 275.481 58.8861C275.035 58.6781 274.459 58.574 273.754 58.574H271.166V71.8008H268.343ZM276.394 64.7384L280.253 71.8008H277.102L273.312 64.7384H276.394ZM282.281 71.8008V56.2148H288.126C289.323 56.2148 290.328 56.4229 291.139 56.8389C291.956 57.2549 292.573 57.8384 292.989 58.5893C293.41 59.3351 293.62 60.2052 293.62 61.1996C293.62 62.1991 293.407 63.0667 292.981 63.8023C292.56 64.5329 291.938 65.0986 291.117 65.4994C290.295 65.8952 289.285 66.093 288.088 66.093H283.925V63.7491H287.707C288.407 63.7491 288.981 63.6527 289.427 63.4599C289.874 63.262 290.203 62.9753 290.416 62.5999C290.635 62.2194 290.744 61.7526 290.744 61.1996C290.744 60.6466 290.635 60.1747 290.416 59.7841C290.198 59.3883 289.866 59.089 289.419 58.8861C288.973 58.6781 288.397 58.574 287.692 58.574H285.104V71.8008H282.281ZM290.333 64.7384L294.191 71.8008H291.04L287.251 64.7384H290.333ZM310.146 64.0078C310.146 65.6872 309.832 67.1255 309.202 68.3229C308.578 69.5151 307.726 70.4284 306.645 71.0626C305.57 71.6968 304.35 72.0139 302.985 72.0139C301.62 72.0139 300.397 71.6968 299.317 71.0626C298.241 70.4233 297.389 69.5075 296.76 68.3153C296.136 67.1179 295.824 65.6821 295.824 64.0078C295.824 62.3285 296.136 60.8927 296.76 59.7004C297.389 58.503 298.241 57.5872 299.317 56.953C300.397 56.3189 301.62 56.0018 302.985 56.0018C304.35 56.0018 305.57 56.3189 306.645 56.953C307.726 57.5872 308.578 58.503 309.202 59.7004C309.832 60.8927 310.146 62.3285 310.146 64.0078ZM307.308 64.0078C307.308 62.8257 307.122 61.8287 306.752 61.017C306.387 60.2001 305.879 59.5837 305.23 59.1677C304.58 58.7465 303.832 58.536 302.985 58.536C302.138 58.536 301.389 58.7465 300.74 59.1677C300.09 59.5837 299.581 60.2001 299.21 61.017C298.845 61.8287 298.662 62.8257 298.662 64.0078C298.662 65.1899 298.845 66.1894 299.21 67.0063C299.581 67.818 300.09 68.4345 300.74 68.8556C301.389 69.2716 302.138 69.4796 302.985 69.4796C303.832 69.4796 304.58 69.2716 305.23 68.8556C305.879 68.4345 306.387 67.818 306.752 67.0063C307.122 66.1894 307.308 65.1899 307.308 64.0078ZM315.698 71.8008L311.299 56.2148H314.336L317.144 67.6684H317.288L320.287 56.2148H323.049L326.056 67.676H326.193L329.001 56.2148H332.037L327.639 71.8008H324.853L321.733 60.8648H321.611L318.483 71.8008H315.698ZM342.361 60.4995C342.29 59.8348 341.99 59.3173 341.463 58.947C340.94 58.5766 340.26 58.3914 339.423 58.3914C338.835 58.3914 338.33 58.4802 337.909 58.6578C337.488 58.8353 337.165 59.0763 336.942 59.3807C336.719 59.6852 336.605 60.0327 336.6 60.4234C336.6 60.7481 336.673 61.0296 336.82 61.2681C336.973 61.5066 337.178 61.7095 337.437 61.8769C337.696 62.0393 337.982 62.1763 338.297 62.2879C338.611 62.3995 338.928 62.4934 339.248 62.5695L340.709 62.9348C341.298 63.0717 341.863 63.2569 342.406 63.4903C342.954 63.7237 343.444 64.018 343.875 64.3731C344.311 64.7283 344.656 65.157 344.91 65.6593C345.164 66.1615 345.291 66.7501 345.291 67.4248C345.291 68.3381 345.057 69.1422 344.59 69.8373C344.124 70.5273 343.449 71.0677 342.566 71.4583C341.688 71.8439 340.626 72.0367 339.377 72.0367C338.165 72.0367 337.112 71.849 336.219 71.4735C335.331 71.0981 334.636 70.5502 334.134 69.8297C333.637 69.1093 333.368 68.2315 333.327 67.1965H336.105C336.146 67.7394 336.313 68.191 336.607 68.5512C336.902 68.9114 337.285 69.1803 337.756 69.3579C338.233 69.5354 338.766 69.6242 339.355 69.6242C339.968 69.6242 340.506 69.5329 340.968 69.3503C341.435 69.1625 341.8 68.9038 342.064 68.574C342.328 68.2392 342.462 67.8485 342.467 67.402C342.462 66.9961 342.343 66.6613 342.11 66.3975C341.876 66.1286 341.549 65.9053 341.128 65.7277C340.712 65.5451 340.225 65.3827 339.667 65.2407L337.893 64.7841C336.61 64.4543 335.595 63.9545 334.849 63.2848C334.109 62.6101 333.738 61.7146 333.738 60.5984C333.738 59.6801 333.987 58.8759 334.484 58.1859C334.986 57.4959 335.669 56.9607 336.531 56.5801C337.394 56.1946 338.37 56.0018 339.461 56.0018C340.567 56.0018 341.536 56.1946 342.368 56.5801C343.205 56.9607 343.862 57.4908 344.339 58.1707C344.816 58.8455 345.062 59.6217 345.078 60.4995H342.361ZM350.92 69.6699L350.821 70.507C350.75 71.1463 350.624 71.7957 350.441 72.4553C350.263 73.1199 350.076 73.7313 349.878 74.2894C349.68 74.8474 349.52 75.2863 349.398 75.6059H347.541C347.612 75.2965 347.709 74.8754 347.831 74.3426C347.957 73.8099 348.079 73.2112 348.196 72.5466C348.313 71.882 348.391 71.2072 348.432 70.5222L348.485 69.6699H350.92ZM358.963 71.8008V56.2148H369.1V58.5817H361.786V62.813H368.574V65.1798H361.786V69.434H369.16V71.8008H358.963ZM384.788 56.2148V71.8008H382.277L374.933 61.1844H374.803V71.8008H371.98V56.2148H374.507L381.843 66.8389H381.98V56.2148H384.788ZM387.18 58.5817V56.2148H399.615V58.5817H394.798V71.8008H391.997V58.5817H387.18ZM402.012 71.8008V56.2148H412.149V58.5817H404.836V62.813H411.624V65.1798H404.836V69.434H412.21V71.8008H402.012ZM415.03 71.8008V56.2148H420.874C422.072 56.2148 423.076 56.4229 423.888 56.8389C424.705 57.2549 425.321 57.8384 425.737 58.5893C426.159 59.3351 426.369 60.2052 426.369 61.1996C426.369 62.1991 426.156 63.0667 425.73 63.8023C425.309 64.5329 424.687 65.0986 423.865 65.4994C423.043 65.8952 422.034 66.093 420.836 66.093H416.674V63.7491H420.456C421.156 63.7491 421.729 63.6527 422.176 63.4599C422.622 63.262 422.952 62.9753 423.165 62.5999C423.383 62.2194 423.492 61.7526 423.492 61.1996C423.492 60.6466 423.383 60.1747 423.165 59.7841C422.947 59.3883 422.615 59.089 422.168 58.8861C421.722 58.6781 421.146 58.574 420.441 58.574H417.853V71.8008H415.03ZM423.081 64.7384L426.94 71.8008H423.789L419.999 64.7384H423.081ZM0.39666 99.8008V84.2148H6.24139C7.43874 84.2148 8.4433 84.4381 9.25507 84.8846C10.0719 85.331 10.6883 85.9449 11.1044 86.7263C11.5255 87.5025 11.736 88.3853 11.736 89.3746C11.736 90.3741 11.5255 91.262 11.1044 92.0383C10.6833 92.8145 10.0618 93.4259 9.23985 93.8723C8.41794 94.3137 7.40576 94.5344 6.20333 94.5344H2.32968V92.2133H5.82282C6.52297 92.2133 7.09628 92.0915 7.54275 91.848C7.98922 91.6045 8.319 91.2696 8.53209 90.8434C8.75025 90.4173 8.85934 89.9277 8.85934 89.3746C8.85934 88.8216 8.75025 88.3346 8.53209 87.9135C8.319 87.4924 7.98669 87.1651 7.53514 86.9317C7.08867 86.6933 6.51282 86.574 5.8076 86.574H3.22009V99.8008H0.39666ZM14.4529 99.8008H11.4392L16.9263 84.2148H20.4118L25.9065 99.8008H22.8928L18.7299 87.4112H18.6082L14.4529 99.8008ZM14.5519 93.6897H22.771V95.9576H14.5519V93.6897ZM37.6682 89.192C37.5414 88.781 37.3663 88.4132 37.1431 88.0885C36.9249 87.7587 36.6611 87.4771 36.3516 87.2438C36.0472 87.0104 35.6971 86.8353 35.3014 86.7186C34.9057 86.5969 34.4744 86.536 34.0076 86.536C33.1705 86.536 32.4247 86.7465 31.7702 87.1677C31.1157 87.5888 30.6007 88.2077 30.2253 89.0246C29.8549 89.8363 29.6698 90.8257 29.6698 91.9926C29.6698 93.1697 29.8549 94.1666 30.2253 94.9834C30.5957 95.8003 31.1106 96.4218 31.7702 96.848C32.4298 97.2691 33.1959 97.4796 34.0685 97.4796C34.86 97.4796 35.5449 97.3274 36.1233 97.023C36.7068 96.7186 37.1558 96.2874 37.4703 95.7293C37.7849 95.1661 37.9422 94.5065 37.9422 93.7506L38.5814 93.8495H34.3501V91.6425H40.6743V93.5147C40.6743 94.849 40.3902 96.0032 39.8219 96.9774C39.2537 97.9515 38.4724 98.7024 37.4779 99.23C36.4835 99.7526 35.342 100.014 34.0533 100.014C32.6175 100.014 31.3567 99.6917 30.271 99.0474C29.1903 98.3979 28.3456 97.4771 27.7367 96.2848C27.133 95.0875 26.8311 93.6669 26.8311 92.023C26.8311 90.7648 27.0087 89.641 27.3638 88.6517C27.724 87.6623 28.2263 86.8226 28.8707 86.1326C29.515 85.4376 30.271 84.9099 31.1385 84.5497C32.0061 84.1844 32.9498 84.0018 33.9696 84.0018C34.8321 84.0018 35.6362 84.1286 36.3821 84.3823C37.1279 84.6309 37.79 84.986 38.3683 85.4477C38.9518 85.9094 39.4313 86.4574 39.8067 87.0915C40.1821 87.7257 40.4282 88.4259 40.5449 89.192H37.6682ZM43.4045 99.8008V84.2148H53.5414V86.5817H46.2279V90.813H53.0163V93.1798H46.2279V97.434H53.6023V99.8008H43.4045ZM74.5459 84.2148V99.8008H72.0345L64.6905 89.1844H64.5612V99.8008H61.7377V84.2148H64.2644L71.6007 94.8389H71.7377V84.2148H74.5459ZM87.4473 84.2148H90.2707V94.3975C90.2707 95.5136 90.0069 96.4954 89.4793 97.3426C88.9567 98.1899 88.221 98.852 87.2723 99.3289C86.3235 99.8008 85.2149 100.037 83.9466 100.037C82.6731 100.037 81.562 99.8008 80.6132 99.3289C79.6645 98.852 78.9288 98.1899 78.4062 97.3426C77.8837 96.4954 77.6224 95.5136 77.6224 94.3975V84.2148H80.4458V94.1615C80.4458 94.8109 80.5879 95.3893 80.872 95.8967C81.1612 96.404 81.5671 96.8023 82.0896 97.0915C82.6122 97.3756 83.2312 97.5177 83.9466 97.5177C84.6619 97.5177 85.2809 97.3756 85.8035 97.0915C86.3311 96.8023 86.737 96.404 87.0211 95.8967C87.3052 95.3893 87.4473 94.8109 87.4473 94.1615V84.2148ZM93.3396 84.2148H96.7947L101.422 95.5086H101.604L106.231 84.2148H109.687V99.8008H106.977V89.0931H106.833L102.525 99.7551H100.501L96.1935 89.0702H96.0489V99.8008H93.3396V84.2148ZM112.761 99.8008V84.2148H118.728C119.854 84.2148 120.79 84.3924 121.536 84.7476C122.287 85.0976 122.847 85.5771 123.218 86.1859C123.593 86.7947 123.781 87.4847 123.781 88.2559C123.781 88.8901 123.659 89.433 123.416 89.8845C123.172 90.331 122.845 90.6938 122.434 90.9728C122.023 91.2519 121.564 91.4523 121.056 91.574V91.7262C121.609 91.7567 122.14 91.9266 122.647 92.2361C123.159 92.5405 123.578 92.9718 123.903 93.5299C124.227 94.088 124.39 94.7627 124.39 95.5542C124.39 96.3609 124.194 97.0864 123.804 97.7308C123.413 98.37 122.825 98.8749 122.038 99.2452C121.252 99.6156 120.262 99.8008 119.07 99.8008H112.761ZM115.585 97.4416H118.621C119.646 97.4416 120.384 97.2463 120.836 96.8556C121.292 96.4599 121.521 95.9525 121.521 95.3335C121.521 94.8718 121.406 94.4558 121.178 94.0854C120.95 93.71 120.625 93.4157 120.204 93.2026C119.783 92.9845 119.281 92.8754 118.697 92.8754H115.585V97.4416ZM115.585 90.8434H118.378C118.865 90.8434 119.303 90.7546 119.694 90.5771C120.085 90.3944 120.392 90.1382 120.615 89.8084C120.843 89.4736 120.957 89.0778 120.957 88.6212C120.957 88.0175 120.744 87.5203 120.318 87.1296C119.897 86.7389 119.27 86.5436 118.438 86.5436H115.585V90.8434ZM126.846 99.8008V84.2148H136.983V86.5817H129.669V90.813H136.458V93.1798H129.669V97.434H137.044V99.8008H126.846ZM139.863 99.8008V84.2148H145.708C146.905 84.2148 147.91 84.4229 148.722 84.8389C149.539 85.2549 150.155 85.8384 150.571 86.5893C150.992 87.3351 151.203 88.2052 151.203 89.1996C151.203 90.1991 150.99 91.0667 150.563 91.8023C150.142 92.5329 149.521 93.0986 148.699 93.4994C147.877 93.8952 146.867 94.093 145.67 94.093H141.507V91.7491H145.29C145.99 91.7491 146.563 91.6527 147.009 91.4599C147.456 91.262 147.786 90.9753 147.999 90.5999C148.217 90.2194 148.326 89.7526 148.326 89.1996C148.326 88.6466 148.217 88.1747 147.999 87.7841C147.781 87.3883 147.448 87.089 147.002 86.8861C146.555 86.6781 145.98 86.574 145.274 86.574H142.687V99.8008H139.863ZM147.915 92.7384L151.774 99.8008H148.623L144.833 92.7384H147.915ZM159.117 84.2148H162.573L167.2 95.5086H167.382L172.009 84.2148H175.464V99.8008H172.755V89.0931H172.611L168.303 99.7551H166.279L161.971 89.0702H161.827V99.8008H159.117V84.2148ZM180.541 99.8008H177.527L183.014 84.2148H186.499L191.994 99.8008H188.98L184.818 87.4112H184.696L180.541 99.8008ZM180.639 93.6897H188.859V95.9576H180.639V93.6897ZM206.855 84.2148V99.8008H204.344L197 89.1844H196.87V99.8008H194.047V84.2148H196.574L203.91 94.8389H204.047V84.2148H206.855ZM219.757 84.2148H222.58V94.3975C222.58 95.5136 222.316 96.4954 221.788 97.3426C221.266 98.1899 220.53 98.852 219.581 99.3289C218.633 99.8008 217.524 100.037 216.256 100.037C214.982 100.037 213.871 99.8008 212.922 99.3289C211.974 98.852 211.238 98.1899 210.715 97.3426C210.193 96.4954 209.932 95.5136 209.932 94.3975V84.2148H212.755V94.1615C212.755 94.8109 212.897 95.3893 213.181 95.8967C213.47 96.404 213.876 96.8023 214.399 97.0915C214.921 97.3756 215.54 97.5177 216.256 97.5177C216.971 97.5177 217.59 97.3756 218.113 97.0915C218.64 96.8023 219.046 96.404 219.33 95.8967C219.614 95.3893 219.757 94.8109 219.757 94.1615V84.2148ZM227.65 99.8008H224.637L230.124 84.2148H233.609L239.104 99.8008H236.09L231.927 87.4112H231.806L227.65 99.8008ZM227.749 93.6897H235.968V95.9576H227.749V93.6897ZM241.157 99.8008V84.2148H243.98V97.434H250.845V99.8008H241.157ZM253.295 99.8008V84.2148H256.119V97.434H262.983V99.8008H253.295ZM262.799 84.2148H265.987L269.8 91.1098H269.952L273.765 84.2148H276.954L271.284 93.9865V99.8008H268.468V93.9865L262.799 84.2148ZM279.315 99.9682C278.853 99.9682 278.457 99.8059 278.128 99.4811C277.798 99.1564 277.636 98.7607 277.641 98.2939C277.636 97.8373 277.798 97.4467 278.128 97.1219C278.457 96.7972 278.853 96.6349 279.315 96.6349C279.761 96.6349 280.149 96.7972 280.479 97.1219C280.814 97.4467 280.984 97.8373 280.989 98.2939C280.984 98.6034 280.903 98.885 280.746 99.1387C280.593 99.3924 280.39 99.5953 280.137 99.7475C279.888 99.8946 279.614 99.9682 279.315 99.9682Z" fill="#666666"/>
</svg>
