<svg width="428" height="34" viewBox="0 0 428 34" fill="none" xmlns="http://www.w3.org/2000/svg">
<path d="M10.5229 4.19008H8.34243C8.28024 3.8325 8.16559 3.51573 7.99846 3.23977C7.83132 2.95992 7.62338 2.72283 7.37463 2.52849C7.12588 2.33415 6.84215 2.1884 6.52343 2.09123C6.20861 1.99018 5.86851 1.93965 5.50316 1.93965C4.85407 1.93965 4.27883 2.10289 3.77744 2.42938C3.27605 2.75198 2.88349 3.22616 2.59976 3.85193C2.31602 4.47381 2.17416 5.23367 2.17416 6.13151C2.17416 7.0449 2.31602 7.81447 2.59976 8.44024C2.88738 9.06212 3.27994 9.53242 3.77744 9.85113C4.27883 10.166 4.85213 10.3234 5.49733 10.3234C5.85491 10.3234 6.18917 10.2767 6.50011 10.1835C6.81494 10.0863 7.09673 9.94442 7.34548 9.75785C7.59812 9.57129 7.80995 9.34197 7.98096 9.0699C8.15587 8.79782 8.27636 8.48688 8.34243 8.13708L10.5229 8.14874C10.4413 8.7162 10.2644 9.24869 9.99236 9.74619C9.72417 10.2437 9.37242 10.6829 8.93711 11.0638C8.50179 11.4408 7.99263 11.7362 7.40961 11.95C6.8266 12.1599 6.17946 12.2648 5.46818 12.2648C4.41876 12.2648 3.48205 12.0219 2.65806 11.536C1.83407 11.0502 1.18498 10.3486 0.710795 9.43136C0.236611 8.51409 -0.000480765 7.41414 -0.000480765 6.13151C-0.000480765 4.845 0.238554 3.74505 0.716625 2.83166C1.1947 1.91439 1.84573 1.21283 2.66972 0.726982C3.49371 0.241138 4.42653 -0.00178385 5.46818 -0.00178385C6.13281 -0.00178385 6.75081 0.0914981 7.32216 0.278062C7.89351 0.464627 8.40268 0.738643 8.84965 1.10011C9.29663 1.45769 9.66393 1.89689 9.95155 2.41772C10.2431 2.93466 10.4335 3.52544 10.5229 4.19008ZM12.5037 12.1016V0.16146H14.6667V10.2884H19.9254V12.1016H12.5037ZM23.9657 0.16146V12.1016H21.8027V0.16146H23.9657ZM36.5282 4.19008H34.3477C34.2855 3.8325 34.1709 3.51573 34.0037 3.23977C33.8366 2.95992 33.6287 2.72283 33.3799 2.52849C33.1312 2.33415 32.8474 2.1884 32.5287 2.09123C32.2139 1.99018 31.8738 1.93965 31.5084 1.93965C30.8594 1.93965 30.2841 2.10289 29.7827 2.42938C29.2813 2.75198 28.8888 3.22616 28.605 3.85193C28.3213 4.47381 28.1794 5.23367 28.1794 6.13151C28.1794 7.0449 28.3213 7.81447 28.605 8.44024C28.8927 9.06212 29.2852 9.53242 29.7827 9.85113C30.2841 10.166 30.8574 10.3234 31.5026 10.3234C31.8602 10.3234 32.1945 10.2767 32.5054 10.1835C32.8202 10.0863 33.102 9.94442 33.3508 9.75785C33.6034 9.57129 33.8152 9.34197 33.9863 9.0699C34.1612 8.79782 34.2816 8.48688 34.3477 8.13708L36.5282 8.14874C36.4466 8.7162 36.2697 9.24869 35.9976 9.74619C35.7295 10.2437 35.3777 10.6829 34.9424 11.0638C34.5071 11.4408 33.9979 11.7362 33.4149 11.95C32.8319 12.1599 32.1847 12.2648 31.4735 12.2648C30.424 12.2648 29.4873 12.0219 28.6633 11.536C27.8394 11.0502 27.1903 10.3486 26.7161 9.43136C26.2419 8.51409 26.0048 7.41414 26.0048 6.13151C26.0048 4.845 26.2438 3.74505 26.7219 2.83166C27.2 1.91439 27.851 1.21283 28.675 0.726982C29.499 0.241138 30.4318 -0.00178385 31.4735 -0.00178385C32.1381 -0.00178385 32.7561 0.0914981 33.3274 0.278062C33.8988 0.464627 34.408 0.738643 34.8549 1.10011C35.3019 1.45769 35.6692 1.89689 35.9568 2.41772C36.2483 2.93466 36.4388 3.52544 36.5282 4.19008ZM38.509 12.1016V0.16146H40.672V5.64761H40.8177L45.476 0.16146H48.117L43.4996 5.51935L48.1578 12.1016H45.5576L41.9954 6.98271L40.672 8.54518V12.1016H38.509ZM51.7827 0.16146V12.1016H49.6197V0.16146H51.7827ZM63.9371 0.16146V12.1016H62.0131L56.3871 3.96853H56.2879V12.1016H54.125V0.16146H56.0606L61.6808 8.30032H61.7858V0.16146H63.9371ZM74.2928 3.97436C74.1957 3.65954 74.0616 3.37775 73.8906 3.129C73.7234 2.87636 73.5213 2.66064 73.2842 2.48185C73.051 2.30306 72.7828 2.16897 72.4797 2.07957C72.1765 1.98629 71.8461 1.93965 71.4885 1.93965C70.8472 1.93965 70.2759 2.10095 69.7745 2.42355C69.2731 2.74615 68.8786 3.22033 68.591 3.8461C68.3072 4.46798 68.1654 5.2259 68.1654 6.11985C68.1654 7.02158 68.3072 7.78532 68.591 8.41109C68.8747 9.03686 69.2692 9.51299 69.7745 9.83947C70.2798 10.1621 70.8667 10.3234 71.5352 10.3234C72.1415 10.3234 72.6662 10.2068 73.1093 9.97357C73.5563 9.74036 73.9003 9.40999 74.1413 8.98244C74.3822 8.55101 74.5027 8.04574 74.5027 7.46661L74.9925 7.5424H71.7509V5.85166H76.5957V7.28588C76.5957 8.30809 76.3781 9.19233 75.9428 9.93859C75.5075 10.6848 74.9089 11.2601 74.1471 11.6643C73.3853 12.0646 72.5108 12.2648 71.5235 12.2648C70.4236 12.2648 69.4577 12.018 68.626 11.5244C67.7981 11.0269 67.1509 10.3214 66.6845 9.40804C66.222 8.49077 65.9907 7.40248 65.9907 6.14317C65.9907 5.17926 66.1268 4.31834 66.3988 3.56042C66.6748 2.80251 67.0596 2.15925 67.5532 1.63065C68.0468 1.09817 68.626 0.693945 69.2906 0.417985C69.9552 0.138139 70.6782 -0.00178385 71.4594 -0.00178385C72.1201 -0.00178385 72.7362 0.095385 73.3075 0.289723C73.8789 0.480173 74.3861 0.752246 74.8292 1.10594C75.2762 1.45964 75.6435 1.8794 75.9311 2.36525C76.2187 2.85109 76.4072 3.38746 76.4966 3.97436H74.2928ZM82.2349 1.97463V0.16146H91.7614V1.97463H88.0709V12.1016H85.9254V1.97463H82.2349ZM93.5979 12.1016V0.16146H95.7608V5.21618H101.294V0.16146H103.462V12.1016H101.294V7.02935H95.7608V12.1016H93.5979ZM105.815 12.1016V0.16146H113.581V1.97463H107.978V5.21618H113.178V7.02935H107.978V10.2884H113.627V12.1016H105.815ZM130.08 4.19008H127.899C127.837 3.8325 127.723 3.51573 127.555 3.23977C127.388 2.95992 127.18 2.72283 126.932 2.52849C126.683 2.33415 126.399 2.1884 126.08 2.09123C125.766 1.99018 125.425 1.93965 125.06 1.93965C124.411 1.93965 123.836 2.10289 123.334 2.42938C122.833 2.75198 122.44 3.22616 122.157 3.85193C121.873 4.47381 121.731 5.23367 121.731 6.13151C121.731 7.0449 121.873 7.81447 122.157 8.44024C122.444 9.06212 122.837 9.53242 123.334 9.85113C123.836 10.166 124.409 10.3234 125.054 10.3234C125.412 10.3234 125.746 10.2767 126.057 10.1835C126.372 10.0863 126.654 9.94442 126.902 9.75785C127.155 9.57129 127.367 9.34197 127.538 9.0699C127.713 8.79782 127.833 8.48688 127.899 8.13708L130.08 8.14874C129.998 8.7162 129.821 9.24869 129.549 9.74619C129.281 10.2437 128.929 10.6829 128.494 11.0638C128.059 11.4408 127.55 11.7362 126.967 11.95C126.384 12.1599 125.736 12.2648 125.025 12.2648C123.976 12.2648 123.039 12.0219 122.215 11.536C121.391 11.0502 120.742 10.3486 120.268 9.43136C119.794 8.51409 119.556 7.41414 119.556 6.13151C119.556 4.845 119.796 3.74505 120.274 2.83166C120.752 1.91439 121.403 1.21283 122.227 0.726982C123.051 0.241138 123.984 -0.00178385 125.025 -0.00178385C125.69 -0.00178385 126.308 0.0914981 126.879 0.278062C127.45 0.464627 127.96 0.738643 128.407 1.10011C128.854 1.45769 129.221 1.89689 129.509 2.41772C129.8 2.93466 129.99 3.52544 130.08 4.19008ZM142.73 6.13151C142.73 7.41803 142.489 8.51992 142.007 9.43719C141.529 10.3506 140.876 11.0502 140.048 11.536C139.224 12.0219 138.289 12.2648 137.244 12.2648C136.198 12.2648 135.261 12.0219 134.434 11.536C133.61 11.0463 132.957 10.3448 132.475 9.43136C131.997 8.51409 131.757 7.41414 131.757 6.13151C131.757 4.845 131.997 3.74505 132.475 2.83166C132.957 1.91439 133.61 1.21283 134.434 0.726982C135.261 0.241138 136.198 -0.00178385 137.244 -0.00178385C138.289 -0.00178385 139.224 0.241138 140.048 0.726982C140.876 1.21283 141.529 1.91439 142.007 2.83166C142.489 3.74505 142.73 4.845 142.73 6.13151ZM140.555 6.13151C140.555 5.2259 140.413 4.46215 140.13 3.84027C139.85 3.2145 139.461 2.74226 138.964 2.42355C138.466 2.10095 137.893 1.93965 137.244 1.93965C136.595 1.93965 136.021 2.10095 135.524 2.42355C135.026 2.74226 134.636 3.2145 134.352 3.84027C134.072 4.46215 133.932 5.2259 133.932 6.13151C133.932 7.03712 134.072 7.80281 134.352 8.42858C134.636 9.05046 135.026 9.5227 135.524 9.8453C136.021 10.164 136.595 10.3234 137.244 10.3234C137.893 10.3234 138.466 10.164 138.964 9.8453C139.461 9.5227 139.85 9.05046 140.13 8.42858C140.413 7.80281 140.555 7.03712 140.555 6.13151ZM144.775 12.1016V0.16146H149.252C150.17 0.16146 150.939 0.320817 151.561 0.63953C152.187 0.958244 152.659 1.40522 152.978 1.98046C153.3 2.55181 153.462 3.21839 153.462 3.98019C153.462 4.74588 153.298 5.41052 152.972 5.9741C152.649 6.53379 152.173 6.96716 151.543 7.27422C150.914 7.57738 150.14 7.72897 149.223 7.72897H146.034V5.93329H148.932C149.468 5.93329 149.907 5.85944 150.249 5.71174C150.591 5.56016 150.844 5.34056 151.007 5.05294C151.174 4.76143 151.258 4.40385 151.258 3.98019C151.258 3.55654 151.174 3.19507 151.007 2.89579C150.84 2.59262 150.585 2.3633 150.243 2.20783C149.901 2.04848 149.46 1.9688 148.92 1.9688H146.938V12.1016H144.775ZM150.943 6.6912L153.899 12.1016H151.485L148.582 6.6912H150.943ZM165.265 0.16146V12.1016H163.341L157.715 3.96853H157.616V12.1016H155.453V0.16146H157.388L163.008 8.30032H163.113V0.16146H165.265ZM167.622 12.1016V0.16146H175.387V1.97463H169.785V5.21618H174.985V7.02935H169.785V10.2884H175.434V12.1016H167.622ZM177.594 12.1016V0.16146H182.071C182.989 0.16146 183.758 0.320817 184.38 0.63953C185.006 0.958244 185.478 1.40522 185.797 1.98046C186.12 2.55181 186.281 3.21839 186.281 3.98019C186.281 4.74588 186.118 5.41052 185.791 5.9741C185.469 6.53379 184.992 6.96716 184.363 7.27422C183.733 7.57738 182.96 7.72897 182.042 7.72897H178.853V5.93329H181.751C182.287 5.93329 182.726 5.85944 183.068 5.71174C183.41 5.56016 183.663 5.34056 183.826 5.05294C183.993 4.76143 184.077 4.40385 184.077 3.98019C184.077 3.55654 183.993 3.19507 183.826 2.89579C183.659 2.59262 183.405 2.3633 183.063 2.20783C182.721 2.04848 182.279 1.9688 181.739 1.9688H179.757V12.1016H177.594ZM183.762 6.6912L186.718 12.1016H184.304L181.401 6.6912H183.762ZM194.761 3.44382C194.706 2.93466 194.477 2.53821 194.073 2.25448C193.672 1.97074 193.152 1.82888 192.51 1.82888C192.059 1.82888 191.673 1.89689 191.35 2.03293C191.028 2.16897 190.781 2.35359 190.61 2.58679C190.439 2.82 190.351 3.08624 190.347 3.38552C190.347 3.63427 190.404 3.84999 190.516 4.03267C190.633 4.21534 190.79 4.37081 190.989 4.49908C191.187 4.62345 191.407 4.72839 191.647 4.8139C191.888 4.89941 192.131 4.97132 192.376 5.02962L193.496 5.30946C193.947 5.41441 194.38 5.55627 194.796 5.73506C195.216 5.91385 195.591 6.13928 195.921 6.41136C196.255 6.68343 196.52 7.01186 196.714 7.39665C196.908 7.78144 197.005 8.2323 197.005 8.74924C197.005 9.44885 196.827 10.0649 196.469 10.5974C196.111 11.126 195.594 11.5399 194.918 11.8392C194.246 12.1346 193.432 12.2823 192.475 12.2823C191.546 12.2823 190.74 12.1385 190.056 11.8509C189.376 11.5632 188.843 11.1435 188.458 10.5916C188.078 10.0396 187.872 9.36723 187.84 8.57434H189.968C190 8.99022 190.128 9.33614 190.353 9.6121C190.579 9.88806 190.872 10.0941 191.234 10.2301C191.599 10.3661 192.007 10.4341 192.458 10.4341C192.928 10.4341 193.34 10.3642 193.694 10.2243C194.051 10.0805 194.331 9.88223 194.533 9.62959C194.736 9.37306 194.839 9.07378 194.842 8.73175C194.839 8.42081 194.747 8.16428 194.568 7.96217C194.39 7.75617 194.139 7.58516 193.816 7.44912C193.498 7.3092 193.124 7.18482 192.697 7.07599L191.338 6.72618C190.355 6.47355 189.578 6.0907 189.006 5.57765C188.439 5.06071 188.155 4.3747 188.155 3.51961C188.155 2.81611 188.346 2.20006 188.727 1.67146C189.111 1.14286 189.634 0.732813 190.295 0.441306C190.956 0.145913 191.704 -0.00178385 192.54 -0.00178385C193.387 -0.00178385 194.129 0.145913 194.767 0.441306C195.408 0.732813 195.911 1.13898 196.277 1.6598C196.642 2.17674 196.83 2.77141 196.842 3.44382H194.761ZM213.226 4.19008H211.046C210.984 3.8325 210.869 3.51573 210.702 3.23977C210.535 2.95992 210.327 2.72283 210.078 2.52849C209.829 2.33415 209.546 2.1884 209.227 2.09123C208.912 1.99018 208.572 1.93965 208.207 1.93965C207.557 1.93965 206.982 2.10289 206.481 2.42938C205.979 2.75198 205.587 3.22616 205.303 3.85193C205.019 4.47381 204.878 5.23367 204.878 6.13151C204.878 7.0449 205.019 7.81447 205.303 8.44024C205.591 9.06212 205.983 9.53242 206.481 9.85113C206.982 10.166 207.555 10.3234 208.201 10.3234C208.558 10.3234 208.893 10.2767 209.203 10.1835C209.518 10.0863 209.8 9.94442 210.049 9.75785C210.301 9.57129 210.513 9.34197 210.684 9.0699C210.859 8.79782 210.98 8.48688 211.046 8.13708L213.226 8.14874C213.145 8.7162 212.968 9.24869 212.696 9.74619C212.428 10.2437 212.076 10.6829 211.64 11.0638C211.205 11.4408 210.696 11.7362 210.113 11.95C209.53 12.1599 208.883 12.2648 208.172 12.2648C207.122 12.2648 206.185 12.0219 205.361 11.536C204.537 11.0502 203.888 10.3486 203.414 9.43136C202.94 8.51409 202.703 7.41414 202.703 6.13151C202.703 4.845 202.942 3.74505 203.42 2.83166C203.898 1.91439 204.549 1.21283 205.373 0.726982C206.197 0.241138 207.13 -0.00178385 208.172 -0.00178385C208.836 -0.00178385 209.454 0.0914981 210.026 0.278062C210.597 0.464627 211.106 0.738643 211.553 1.10011C212 1.45769 212.367 1.89689 212.655 2.41772C212.946 2.93466 213.137 3.52544 213.226 4.19008ZM225.876 6.13151C225.876 7.41803 225.635 8.51992 225.153 9.43719C224.675 10.3506 224.022 11.0502 223.194 11.536C222.37 12.0219 221.436 12.2648 220.39 12.2648C219.344 12.2648 218.408 12.0219 217.58 11.536C216.756 11.0463 216.103 10.3448 215.621 9.43136C215.143 8.51409 214.904 7.41414 214.904 6.13151C214.904 4.845 215.143 3.74505 215.621 2.83166C216.103 1.91439 216.756 1.21283 217.58 0.726982C218.408 0.241138 219.344 -0.00178385 220.39 -0.00178385C221.436 -0.00178385 222.37 0.241138 223.194 0.726982C224.022 1.21283 224.675 1.91439 225.153 2.83166C225.635 3.74505 225.876 4.845 225.876 6.13151ZM223.702 6.13151C223.702 5.2259 223.56 4.46215 223.276 3.84027C222.996 3.2145 222.607 2.74226 222.11 2.42355C221.612 2.10095 221.039 1.93965 220.39 1.93965C219.741 1.93965 219.168 2.10095 218.67 2.42355C218.173 2.74226 217.782 3.2145 217.498 3.84027C217.218 4.46215 217.078 5.2259 217.078 6.13151C217.078 7.03712 217.218 7.80281 217.498 8.42858C217.782 9.05046 218.173 9.5227 218.67 9.8453C219.168 10.164 219.741 10.3234 220.39 10.3234C221.039 10.3234 221.612 10.164 222.11 9.8453C222.607 9.5227 222.996 9.05046 223.276 8.42858C223.56 7.80281 223.702 7.03712 223.702 6.13151ZM237.733 0.16146V12.1016H235.809L230.183 3.96853H230.084V12.1016H227.921V0.16146H229.857L235.477 8.30032H235.582V0.16146H237.733ZM239.565 1.97463V0.16146H249.092V1.97463H245.401V12.1016H243.256V1.97463H239.565ZM253.091 0.16146V12.1016H250.928V0.16146H253.091ZM265.246 0.16146V12.1016H263.322L257.696 3.96853H257.596V12.1016H255.433V0.16146H257.369L262.989 8.30032H263.094V0.16146H265.246ZM275.129 0.16146H277.292V7.96217C277.292 8.81726 277.09 9.56934 276.686 10.2184C276.285 10.8675 275.722 11.3747 274.995 11.7401C274.268 12.1016 273.419 12.2823 272.447 12.2823C271.472 12.2823 270.62 12.1016 269.894 11.7401C269.167 11.3747 268.603 10.8675 268.203 10.2184C267.803 9.56934 267.602 8.81726 267.602 7.96217V0.16146H269.765V7.78144C269.765 8.27894 269.874 8.72203 270.092 9.11071C270.313 9.49938 270.624 9.80449 271.025 10.026C271.425 10.2437 271.899 10.3525 272.447 10.3525C272.995 10.3525 273.469 10.2437 273.87 10.026C274.274 9.80449 274.585 9.49938 274.803 9.11071C275.02 8.72203 275.129 8.27894 275.129 7.78144V0.16146ZM290.312 6.13151C290.312 7.41803 290.071 8.51992 289.589 9.43719C289.111 10.3506 288.458 11.0502 287.63 11.536C286.806 12.0219 285.872 12.2648 284.826 12.2648C283.781 12.2648 282.844 12.0219 282.016 11.536C281.192 11.0463 280.539 10.3448 280.057 9.43136C279.579 8.51409 279.34 7.41414 279.34 6.13151C279.34 4.845 279.579 3.74505 280.057 2.83166C280.539 1.91439 281.192 1.21283 282.016 0.726982C282.844 0.241138 283.781 -0.00178385 284.826 -0.00178385C285.872 -0.00178385 286.806 0.241138 287.63 0.726982C288.458 1.21283 289.111 1.91439 289.589 2.83166C290.071 3.74505 290.312 4.845 290.312 6.13151ZM288.138 6.13151C288.138 5.2259 287.996 4.46215 287.712 3.84027C287.432 3.2145 287.043 2.74226 286.546 2.42355C286.048 2.10095 285.475 1.93965 284.826 1.93965C284.177 1.93965 283.604 2.10095 283.106 2.42355C282.609 2.74226 282.218 3.2145 281.934 3.84027C281.654 4.46215 281.515 5.2259 281.515 6.13151C281.515 7.03712 281.654 7.80281 281.934 8.42858C282.218 9.05046 282.609 9.5227 283.106 9.8453C283.604 10.164 284.177 10.3234 284.826 10.3234C285.475 10.3234 286.048 10.164 286.546 9.8453C287.043 9.5227 287.432 9.05046 287.712 8.42858C287.996 7.80281 288.138 7.03712 288.138 6.13151ZM299.884 0.16146H302.047V7.96217C302.047 8.81726 301.845 9.56934 301.44 10.2184C301.04 10.8675 300.477 11.3747 299.75 11.7401C299.023 12.1016 298.174 12.2823 297.202 12.2823C296.226 12.2823 295.375 12.1016 294.648 11.7401C293.922 11.3747 293.358 10.8675 292.958 10.2184C292.557 9.56934 292.357 8.81726 292.357 7.96217V0.16146H294.52V7.78144C294.52 8.27894 294.629 8.72203 294.847 9.11071C295.068 9.49938 295.379 9.80449 295.779 10.026C296.18 10.2437 296.654 10.3525 297.202 10.3525C297.75 10.3525 298.224 10.2437 298.625 10.026C299.029 9.80449 299.34 9.49938 299.557 9.11071C299.775 8.72203 299.884 8.27894 299.884 7.78144V0.16146ZM310.887 3.44382C310.832 2.93466 310.603 2.53821 310.199 2.25448C309.798 1.97074 309.278 1.82888 308.636 1.82888C308.185 1.82888 307.799 1.89689 307.476 2.03293C307.153 2.16897 306.907 2.35359 306.736 2.58679C306.565 2.82 306.477 3.08624 306.473 3.38552C306.473 3.63427 306.53 3.84999 306.642 4.03267C306.759 4.21534 306.916 4.37081 307.115 4.49908C307.313 4.62345 307.532 4.72839 307.773 4.8139C308.014 4.89941 308.257 4.97132 308.502 5.02962L309.622 5.30946C310.072 5.41441 310.506 5.55627 310.922 5.73506C311.341 5.91385 311.717 6.13928 312.047 6.41136C312.381 6.68343 312.645 7.01186 312.84 7.39665C313.034 7.78144 313.131 8.2323 313.131 8.74924C313.131 9.44885 312.953 10.0649 312.595 10.5974C312.237 11.126 311.72 11.5399 311.044 11.8392C310.372 12.1346 309.557 12.2823 308.601 12.2823C307.672 12.2823 306.866 12.1385 306.182 11.8509C305.502 11.5632 304.969 11.1435 304.584 10.5916C304.203 10.0396 303.997 9.36723 303.966 8.57434H306.094C306.125 8.99022 306.254 9.33614 306.479 9.6121C306.705 9.88806 306.998 10.0941 307.359 10.2301C307.725 10.3661 308.133 10.4341 308.584 10.4341C309.054 10.4341 309.466 10.3642 309.82 10.2243C310.177 10.0805 310.457 9.88223 310.659 9.62959C310.861 9.37306 310.964 9.07378 310.968 8.73175C310.964 8.42081 310.873 8.16428 310.694 7.96217C310.516 7.75617 310.265 7.58516 309.942 7.44912C309.624 7.3092 309.25 7.18482 308.823 7.07599L307.464 6.72618C306.481 6.47355 305.704 6.0907 305.132 5.57765C304.565 5.06071 304.281 4.3747 304.281 3.51961C304.281 2.81611 304.472 2.20006 304.853 1.67146C305.237 1.14286 305.76 0.732813 306.421 0.441306C307.082 0.145913 307.83 -0.00178385 308.665 -0.00178385C309.513 -0.00178385 310.255 0.145913 310.893 0.441306C311.534 0.732813 312.037 1.13898 312.403 1.6598C312.768 2.17674 312.956 2.77141 312.968 3.44382H310.887ZM315.06 12.1016V0.16146H317.223V10.2884H322.481V12.1016H315.06ZM322.34 0.16146H324.783L327.704 5.44356H327.82L330.741 0.16146H333.184L328.841 7.64734V12.1016H326.683V7.64734L322.34 0.16146ZM338.788 12.1016V0.16146H343.266C344.183 0.16146 344.953 0.332477 345.575 0.674511C346.2 1.01655 346.673 1.48684 346.991 2.0854C347.314 2.68008 347.475 3.35637 347.475 4.11429C347.475 4.87998 347.314 5.56016 346.991 6.15483C346.669 6.7495 346.193 7.21786 345.563 7.55989C344.933 7.89804 344.158 8.06711 343.237 8.06711H340.269V6.28892H342.945C343.482 6.28892 343.921 6.19564 344.263 6.00908C344.605 5.82251 344.857 5.56599 345.021 5.2395C345.188 4.91301 345.271 4.53794 345.271 4.11429C345.271 3.69063 345.188 3.3175 345.021 2.9949C344.857 2.6723 344.603 2.42161 344.257 2.24282C343.915 2.06014 343.474 1.9688 342.933 1.9688H340.951V12.1016H338.788ZM349.354 12.1016V0.16146H353.831C354.749 0.16146 355.518 0.320817 356.14 0.63953C356.766 0.958244 357.238 1.40522 357.557 1.98046C357.88 2.55181 358.041 3.21839 358.041 3.98019C358.041 4.74588 357.878 5.41052 357.551 5.9741C357.228 6.53379 356.752 6.96716 356.123 7.27422C355.493 7.57738 354.72 7.72897 353.802 7.72897H350.613V5.93329H353.511C354.047 5.93329 354.486 5.85944 354.828 5.71174C355.17 5.56016 355.423 5.34056 355.586 5.05294C355.753 4.76143 355.837 4.40385 355.837 3.98019C355.837 3.55654 355.753 3.19507 355.586 2.89579C355.419 2.59262 355.165 2.3633 354.823 2.20783C354.481 2.04848 354.039 1.9688 353.499 1.9688H351.517V12.1016H349.354ZM355.522 6.6912L358.478 12.1016H356.064L353.161 6.6912H355.522ZM370.701 6.13151C370.701 7.41803 370.46 8.51992 369.978 9.43719C369.5 10.3506 368.847 11.0502 368.019 11.536C367.195 12.0219 366.26 12.2648 365.215 12.2648C364.169 12.2648 363.233 12.0219 362.405 11.536C361.581 11.0463 360.928 10.3448 360.446 9.43136C359.968 8.51409 359.729 7.41414 359.729 6.13151C359.729 4.845 359.968 3.74505 360.446 2.83166C360.928 1.91439 361.581 1.21283 362.405 0.726982C363.233 0.241138 364.169 -0.00178385 365.215 -0.00178385C366.26 -0.00178385 367.195 0.241138 368.019 0.726982C368.847 1.21283 369.5 1.91439 369.978 2.83166C370.46 3.74505 370.701 4.845 370.701 6.13151ZM368.526 6.13151C368.526 5.2259 368.384 4.46215 368.101 3.84027C367.821 3.2145 367.432 2.74226 366.935 2.42355C366.437 2.10095 365.864 1.93965 365.215 1.93965C364.566 1.93965 363.992 2.10095 363.495 2.42355C362.997 2.74226 362.607 3.2145 362.323 3.84027C362.043 4.46215 361.903 5.2259 361.903 6.13151C361.903 7.03712 362.043 7.80281 362.323 8.42858C362.607 9.05046 362.997 9.5227 363.495 9.8453C363.992 10.164 364.566 10.3234 365.215 10.3234C365.864 10.3234 366.437 10.164 366.935 9.8453C367.432 9.5227 367.821 9.05046 368.101 8.42858C368.384 7.80281 368.526 7.03712 368.526 6.13151ZM376.792 12.1016H372.746V0.16146H376.874C378.059 0.16146 379.077 0.400495 379.929 0.878566C380.784 1.35275 381.44 2.03487 381.899 2.92494C382.358 3.81501 382.587 4.87998 382.587 6.11985C382.587 7.36361 382.356 8.43247 381.893 9.32642C381.435 10.2204 380.772 10.9064 379.905 11.3845C379.042 11.8625 378.005 12.1016 376.792 12.1016ZM374.909 10.2301H376.687C377.519 10.2301 378.213 10.0785 378.768 9.77534C379.324 9.46829 379.742 9.01159 380.022 8.40526C380.302 7.79504 380.442 7.03324 380.442 6.11985C380.442 5.20646 380.302 4.44855 380.022 3.8461C379.742 3.23977 379.328 2.78696 378.78 2.48768C378.236 2.18451 377.56 2.03293 376.751 2.03293H374.909V10.2301ZM392.169 0.16146H394.332V7.96217C394.332 8.81726 394.13 9.56934 393.726 10.2184C393.325 10.8675 392.762 11.3747 392.035 11.7401C391.308 12.1016 390.459 12.2823 389.487 12.2823C388.511 12.2823 387.66 12.1016 386.933 11.7401C386.207 11.3747 385.643 10.8675 385.243 10.2184C384.842 9.56934 384.642 8.81726 384.642 7.96217V0.16146H386.805V7.78144C386.805 8.27894 386.914 8.72203 387.132 9.11071C387.353 9.49938 387.664 9.80449 388.065 10.026C388.465 10.2437 388.939 10.3525 389.487 10.3525C390.035 10.3525 390.509 10.2437 390.91 10.026C391.314 9.80449 391.625 9.49938 391.842 9.11071C392.06 8.72203 392.169 8.27894 392.169 7.78144V0.16146ZM406.903 4.19008H404.723C404.66 3.8325 404.546 3.51573 404.379 3.23977C404.212 2.95992 404.004 2.72283 403.755 2.52849C403.506 2.33415 403.222 2.1884 402.904 2.09123C402.589 1.99018 402.249 1.93965 401.883 1.93965C401.234 1.93965 400.659 2.10289 400.158 2.42938C399.656 2.75198 399.264 3.22616 398.98 3.85193C398.696 4.47381 398.554 5.23367 398.554 6.13151C398.554 7.0449 398.696 7.81447 398.98 8.44024C399.268 9.06212 399.66 9.53242 400.158 9.85113C400.659 10.166 401.232 10.3234 401.878 10.3234C402.235 10.3234 402.569 10.2767 402.88 10.1835C403.195 10.0863 403.477 9.94442 403.726 9.75785C403.978 9.57129 404.19 9.34197 404.361 9.0699C404.536 8.79782 404.657 8.48688 404.723 8.13708L406.903 8.14874C406.821 8.7162 406.645 9.24869 406.373 9.74619C406.104 10.2437 405.753 10.6829 405.317 11.0638C404.882 11.4408 404.373 11.7362 403.79 11.95C403.207 12.1599 402.56 12.2648 401.848 12.2648C400.799 12.2648 399.862 12.0219 399.038 11.536C398.214 11.0502 397.565 10.3486 397.091 9.43136C396.617 8.51409 396.38 7.41414 396.38 6.13151C396.38 4.845 396.619 3.74505 397.097 2.83166C397.575 1.91439 398.226 1.21283 399.05 0.726982C399.874 0.241138 400.807 -0.00178385 401.848 -0.00178385C402.513 -0.00178385 403.131 0.0914981 403.702 0.278062C404.274 0.464627 404.783 0.738643 405.23 1.10011C405.677 1.45769 406.044 1.89689 406.332 2.41772C406.623 2.93466 406.814 3.52544 406.903 4.19008ZM408.884 12.1016V0.16146H416.65V1.97463H411.047V5.21618H416.247V7.02935H411.047V10.2884H416.696V12.1016H408.884ZM425.345 3.44382C425.291 2.93466 425.062 2.53821 424.657 2.25448C424.257 1.97074 423.736 1.82888 423.095 1.82888C422.644 1.82888 422.257 1.89689 421.935 2.03293C421.612 2.16897 421.365 2.35359 421.194 2.58679C421.023 2.82 420.936 3.08624 420.932 3.38552C420.932 3.63427 420.988 3.84999 421.101 4.03267C421.218 4.21534 421.375 4.37081 421.573 4.49908C421.771 4.62345 421.991 4.72839 422.232 4.8139C422.473 4.89941 422.716 4.97132 422.961 5.02962L424.08 5.30946C424.531 5.41441 424.964 5.55627 425.38 5.73506C425.8 5.91385 426.175 6.13928 426.505 6.41136C426.84 6.68343 427.104 7.01186 427.298 7.39665C427.493 7.78144 427.59 8.2323 427.59 8.74924C427.59 9.44885 427.411 10.0649 427.053 10.5974C426.696 11.126 426.179 11.5399 425.503 11.8392C424.83 12.1346 424.016 12.2823 423.06 12.2823C422.131 12.2823 421.324 12.1385 420.64 11.8509C419.96 11.5632 419.428 11.1435 419.043 10.5916C418.662 10.0396 418.456 9.36723 418.425 8.57434H420.553C420.584 8.99022 420.712 9.33614 420.938 9.6121C421.163 9.88806 421.457 10.0941 421.818 10.2301C422.183 10.3661 422.592 10.4341 423.042 10.4341C423.513 10.4341 423.925 10.3642 424.278 10.2243C424.636 10.0805 424.916 9.88223 425.118 9.62959C425.32 9.37306 425.423 9.07378 425.427 8.73175C425.423 8.42081 425.332 8.16428 425.153 7.96217C424.974 7.75617 424.723 7.58516 424.401 7.44912C424.082 7.3092 423.709 7.18482 423.281 7.07599L421.923 6.72618C420.94 6.47355 420.162 6.0907 419.591 5.57765C419.023 5.06071 418.74 4.3747 418.74 3.51961C418.74 2.81611 418.93 2.20006 419.311 1.67146C419.696 1.14286 420.219 0.732813 420.879 0.441306C421.54 0.145913 422.288 -0.00178385 423.124 -0.00178385C423.971 -0.00178385 424.714 0.145913 425.351 0.441306C425.992 0.732813 426.496 1.13898 426.861 1.6598C427.226 2.17674 427.415 2.77141 427.427 3.44382H425.345ZM0.302686 21.1615H2.94956L6.49428 29.8134H6.63421L10.1789 21.1615H12.8258V33.1016H10.7503V24.8986H10.6395L7.33965 33.0666H5.78884L2.48898 24.8811H2.37821V33.1016H0.302686V21.1615ZM22.7079 21.1615H24.8708V28.9622C24.8708 29.8173 24.6687 30.5693 24.2645 31.2184C23.8642 31.8675 23.3006 32.3747 22.5738 32.7401C21.847 33.1016 20.9977 33.2823 20.026 33.2823C19.0504 33.2823 18.1992 33.1016 17.4724 32.7401C16.7456 32.3747 16.182 31.8675 15.7817 31.2184C15.3813 30.5693 15.1812 29.8173 15.1812 28.9622V21.1615H17.3442V28.7814C17.3442 29.2789 17.453 29.722 17.6706 30.1107C17.8922 30.4994 18.2031 30.8045 18.6035 31.026C19.0038 31.2437 19.478 31.3525 20.026 31.3525C20.574 31.3525 21.0482 31.2437 21.4486 31.026C21.8528 30.8045 22.1637 30.4994 22.3814 30.1107C22.599 29.722 22.7079 29.2789 22.7079 28.7814V21.1615ZM27.2218 33.1016V21.1615H29.3848V31.2884H34.6436V33.1016H27.2218ZM34.4731 22.9746V21.1615H43.9995V22.9746H40.309V33.1016H38.1635V22.9746H34.4731ZM47.999 21.1615V33.1016H45.836V21.1615H47.999ZM54.4136 33.1016V21.1615H62.0627V22.9746H56.5765V26.2162H61.538V28.0294H56.5765V33.1016H54.4136ZM64.0333 33.1016V21.1615H66.1963V31.2884H71.455V33.1016H64.0333ZM75.4953 21.1615V33.1016H73.3323V21.1615H75.4953ZM77.8376 33.1016V21.1615H82.3151C83.2324 21.1615 84.0019 21.3325 84.6238 21.6745C85.2496 22.0165 85.7218 22.4868 86.0406 23.0854C86.3632 23.6801 86.5245 24.3564 86.5245 25.1143C86.5245 25.88 86.3632 26.5602 86.0406 27.1548C85.718 27.7495 85.2418 28.2179 84.6122 28.5599C83.9825 28.898 83.2071 29.0671 82.2859 29.0671H79.3184V27.2889H81.9944C82.5308 27.2889 82.97 27.1956 83.3121 27.0091C83.6541 26.8225 83.9067 26.566 84.07 26.2395C84.2371 25.913 84.3207 25.5379 84.3207 25.1143C84.3207 24.6906 84.2371 24.3175 84.07 23.9949C83.9067 23.6723 83.6521 23.4216 83.3062 23.2428C82.9642 23.0601 82.523 22.9688 81.9828 22.9688H80.0005V33.1016H77.8376ZM94.8921 24.4438C94.8377 23.9347 94.6084 23.5382 94.2042 23.2545C93.8039 22.9707 93.283 22.8289 92.6417 22.8289C92.1909 22.8289 91.8041 22.8969 91.4815 23.0329C91.1589 23.169 90.9121 23.3536 90.7411 23.5868C90.5701 23.82 90.4826 24.0862 90.4787 24.3855C90.4787 24.6343 90.5351 24.85 90.6478 25.0327C90.7644 25.2153 90.9218 25.3708 91.1201 25.4991C91.3183 25.6235 91.5379 25.7284 91.7789 25.8139C92.0198 25.8994 92.2628 25.9713 92.5076 26.0296L93.627 26.3095C94.0779 26.4144 94.5112 26.5563 94.9271 26.7351C95.3469 26.9139 95.722 27.1393 96.0523 27.4114C96.3866 27.6834 96.6509 28.0119 96.8452 28.3966C97.0396 28.7814 97.1367 29.2323 97.1367 29.7492C97.1367 30.4489 96.958 31.0649 96.6004 31.5974C96.2428 32.126 95.7259 32.5399 95.0496 32.8392C94.3771 33.1346 93.5629 33.2823 92.6067 33.2823C91.6778 33.2823 90.8713 33.1385 90.1872 32.8509C89.507 32.5632 88.9746 32.1435 88.5898 31.5916C88.2089 31.0396 88.0029 30.3672 87.9718 29.5743H90.0998C90.1309 29.9902 90.2591 30.3361 90.4846 30.6121C90.71 30.8881 91.0034 31.0941 91.3649 31.2301C91.7303 31.3661 92.1384 31.4341 92.5892 31.4341C93.0595 31.4341 93.4715 31.3642 93.8252 31.2243C94.1828 31.0805 94.4627 30.8822 94.6648 30.6296C94.8669 30.3731 94.9699 30.0738 94.9738 29.7317C94.9699 29.4208 94.8785 29.1643 94.6997 28.9622C94.521 28.7562 94.2703 28.5852 93.9477 28.4491C93.6289 28.3092 93.2558 28.1848 92.8283 28.076L91.4699 27.7262C90.4865 27.4735 89.7092 27.0907 89.1378 26.5776C88.5703 26.0607 88.2866 25.3747 88.2866 24.5196C88.2866 23.8161 88.4771 23.2001 88.858 22.6715C89.2427 22.1429 89.7655 21.7328 90.4263 21.4413C91.087 21.1459 91.8352 20.9982 92.6709 20.9982C93.5182 20.9982 94.2605 21.1459 94.898 21.4413C95.5393 21.7328 96.0426 22.139 96.408 22.6598C96.7733 23.1767 96.9618 23.7714 96.9735 24.4438H94.8921ZM104.671 33.1016H102.362L106.566 21.1615H109.236L113.445 33.1016H111.136L107.947 23.6101H107.854L104.671 33.1016ZM104.747 28.42H111.043V30.1573H104.747V28.42ZM113.05 22.9746V21.1615H122.577V22.9746H118.886V33.1016H116.741V22.9746H113.05ZM127.961 22.9746V21.1615H137.487V22.9746H133.797V33.1016H131.651V22.9746H127.961ZM139.324 33.1016V21.1615H141.487V26.2162H147.019V21.1615H149.188V33.1016H147.019V28.0294H141.487V33.1016H139.324ZM151.541 33.1016V21.1615H159.306V22.9746H153.704V26.2162H158.904V28.0294H153.704V31.2884H159.353V33.1016H151.541ZM172.074 24.4438C172.02 23.9347 171.791 23.5382 171.386 23.2545C170.986 22.9707 170.465 22.8289 169.824 22.8289C169.373 22.8289 168.986 22.8969 168.664 23.0329C168.341 23.169 168.094 23.3536 167.923 23.5868C167.752 23.82 167.665 24.0862 167.661 24.3855C167.661 24.6343 167.717 24.85 167.83 25.0327C167.947 25.2153 168.104 25.3708 168.302 25.4991C168.5 25.6235 168.72 25.7284 168.961 25.8139C169.202 25.8994 169.445 25.9713 169.69 26.0296L170.809 26.3095C171.26 26.4144 171.693 26.5563 172.109 26.7351C172.529 26.9139 172.904 27.1393 173.234 27.4114C173.569 27.6834 173.833 28.0119 174.027 28.3966C174.222 28.7814 174.319 29.2323 174.319 29.7492C174.319 30.4489 174.14 31.0649 173.783 31.5974C173.425 32.126 172.908 32.5399 172.232 32.8392C171.559 33.1346 170.745 33.2823 169.789 33.2823C168.86 33.2823 168.053 33.1385 167.369 32.8509C166.689 32.5632 166.157 32.1435 165.772 31.5916C165.391 31.0396 165.185 30.3672 165.154 29.5743H167.282C167.313 29.9902 167.441 30.3361 167.667 30.6121C167.892 30.8881 168.186 31.0941 168.547 31.2301C168.912 31.3661 169.321 31.4341 169.771 31.4341C170.242 31.4341 170.654 31.3642 171.007 31.2243C171.365 31.0805 171.645 30.8822 171.847 30.6296C172.049 30.3731 172.152 30.0738 172.156 29.7317C172.152 29.4208 172.061 29.1643 171.882 28.9622C171.703 28.7562 171.452 28.5852 171.13 28.4491C170.811 28.3092 170.438 28.1848 170.01 28.076L168.652 27.7262C167.669 27.4735 166.891 27.0907 166.32 26.5776C165.752 26.0607 165.469 25.3747 165.469 24.5196C165.469 23.8161 165.659 23.2001 166.04 22.6715C166.425 22.1429 166.948 21.7328 167.608 21.4413C168.269 21.1459 169.017 20.9982 169.853 20.9982C170.7 20.9982 171.443 21.1459 172.08 21.4413C172.721 21.7328 173.225 22.139 173.59 22.6598C173.955 23.1767 174.144 23.7714 174.156 24.4438H172.074ZM177.588 33.1016H175.279L179.483 21.1615H182.153L186.362 33.1016H184.054L180.865 23.6101H180.771L177.588 33.1016ZM177.664 28.42H183.96V30.1573H177.664V28.42ZM187.935 21.1615H190.582L194.127 29.8134H194.267L197.811 21.1615H200.458V33.1016H198.383V24.8986H198.272L194.972 33.0666H193.421L190.121 24.8811H190.011V33.1016H187.935V21.1615ZM202.814 33.1016V21.1615H210.579V22.9746H204.977V26.2162H210.177V28.0294H204.977V31.2884H210.626V33.1016H202.814ZM216.334 22.9746V21.1615H225.86V22.9746H222.17V33.1016H220.024V22.9746H216.334ZM229.86 21.1615V33.1016H227.697V21.1615H229.86ZM232.202 21.1615H234.849L238.393 29.8134H238.533L242.078 21.1615H244.725V33.1016H242.649V24.8986H242.539L239.239 33.0666H237.688L234.388 24.8811H234.277V33.1016H232.202V21.1615ZM247.08 33.1016V21.1615H254.846V22.9746H249.243V26.2162H254.444V28.0294H249.243V31.2884H254.893V33.1016H247.08ZM258.26 33.2298C257.906 33.2298 257.603 33.1054 257.35 32.8567C257.097 32.6079 256.973 32.3048 256.977 31.9472C256.973 31.5974 257.097 31.2981 257.35 31.0494C257.603 30.8006 257.906 30.6762 258.26 30.6762C258.602 30.6762 258.899 30.8006 259.152 31.0494C259.408 31.2981 259.538 31.5974 259.542 31.9472C259.538 32.1843 259.476 32.4 259.356 32.5943C259.239 32.7887 259.084 32.9441 258.889 33.0608C258.699 33.1735 258.489 33.2298 258.26 33.2298Z" fill="#666666"/>
</svg>
