<svg width="40" height="40" viewBox="0 0 40 40" fill="none" xmlns="http://www.w3.org/2000/svg">
<path fill-rule="evenodd" clip-rule="evenodd" d="M9.68532 8C9.23835 8 8.80968 8.17754 8.49362 8.49356C8.17756 8.80957 8 9.23819 8 9.68511V17.0383C8 17.2596 8.04359 17.4787 8.12829 17.6832C8.21298 17.8876 8.33712 18.0734 8.49362 18.2298C8.65012 18.3863 8.8359 18.5104 9.04038 18.5951C9.24485 18.6798 9.464 18.7234 9.68532 18.7234H17.0395C17.2608 18.7234 17.4799 18.6798 17.6844 18.5951C17.8889 18.5104 18.0747 18.3863 18.2312 18.2298C18.3877 18.0734 18.5118 17.8876 18.5965 17.6832C18.6812 17.4787 18.7248 17.2596 18.7248 17.0383V9.68511C18.7248 9.46382 18.6812 9.24469 18.5965 9.04024C18.5118 8.8358 18.3877 8.65003 18.2312 8.49356C18.0747 8.33708 17.8889 8.21296 17.6844 8.12827C17.4799 8.04359 17.2608 8 17.0395 8H9.68532ZM9.68532 21.2766C9.23835 21.2766 8.80968 21.4541 8.49362 21.7702C8.17756 22.0862 8 22.5148 8 22.9617V30.3149C8 30.7618 8.17756 31.1904 8.49362 31.5064C8.80968 31.8225 9.23835 32 9.68532 32H17.0395C17.2608 32 17.4799 31.9564 17.6844 31.8717C17.8889 31.787 18.0747 31.6629 18.2312 31.5064C18.3877 31.35 18.5118 31.1642 18.5965 30.9598C18.6812 30.7553 18.7248 30.5362 18.7248 30.3149V22.9617C18.7248 22.7404 18.6812 22.5213 18.5965 22.3168C18.5118 22.1124 18.3877 21.9266 18.2312 21.7702C18.0747 21.6137 17.8889 21.4896 17.6844 21.4049C17.4799 21.3202 17.2608 21.2766 17.0395 21.2766H9.68532ZM20.2538 10.0426C20.2538 9.83941 20.3345 9.64458 20.4782 9.50094C20.6219 9.35729 20.8167 9.2766 21.0199 9.2766H31.2339C31.4371 9.2766 31.632 9.35729 31.7756 9.50094C31.9193 9.64458 32 9.83941 32 10.0426C32 10.2457 31.9193 10.4405 31.7756 10.5842C31.632 10.7278 31.4371 10.8085 31.2339 10.8085H21.0199C20.8167 10.8085 20.6219 10.7278 20.4782 10.5842C20.3345 10.4405 20.2538 10.2457 20.2538 10.0426ZM21.0199 12.5957C20.8167 12.5957 20.6219 12.6764 20.4782 12.8201C20.3345 12.9637 20.2538 13.1586 20.2538 13.3617C20.2538 13.5648 20.3345 13.7597 20.4782 13.9033C20.6219 14.047 20.8167 14.1277 21.0199 14.1277H31.2339C31.4371 14.1277 31.632 14.047 31.7756 13.9033C31.9193 13.7597 32 13.5648 32 13.3617C32 13.1586 31.9193 12.9637 31.7756 12.8201C31.632 12.6764 31.4371 12.5957 31.2339 12.5957H21.0199ZM20.2538 16.6809C20.2538 16.4777 20.3345 16.2829 20.4782 16.1392C20.6219 15.9956 20.8167 15.9149 21.0199 15.9149H31.2339C31.4371 15.9149 31.632 15.9956 31.7756 16.1392C31.9193 16.2829 32 16.4777 32 16.6809C32 16.884 31.9193 17.0788 31.7756 17.2225C31.632 17.3661 31.4371 17.4468 31.2339 17.4468H21.0199C20.8167 17.4468 20.6219 17.3661 20.4782 17.2225C20.3345 17.0788 20.2538 16.884 20.2538 16.6809ZM21.0199 22.5532C20.8167 22.5532 20.6219 22.6339 20.4782 22.7775C20.3345 22.9212 20.2538 23.116 20.2538 23.3191C20.2538 23.5223 20.3345 23.7171 20.4782 23.8608C20.6219 24.0044 20.8167 24.0851 21.0199 24.0851H31.2339C31.4371 24.0851 31.632 24.0044 31.7756 23.8608C31.9193 23.7171 32 23.5223 32 23.3191C32 23.116 31.9193 22.9212 31.7756 22.7775C31.632 22.6339 31.4371 22.5532 31.2339 22.5532H21.0199ZM20.2538 26.6383C20.2538 26.4352 20.3345 26.2403 20.4782 26.0967C20.6219 25.953 20.8167 25.8723 21.0199 25.8723H31.2339C31.4371 25.8723 31.632 25.953 31.7756 26.0967C31.9193 26.2403 32 26.4352 32 26.6383C32 26.8414 31.9193 27.0363 31.7756 27.1799C31.632 27.3236 31.4371 27.4043 31.2339 27.4043H21.0199C20.8167 27.4043 20.6219 27.3236 20.4782 27.1799C20.3345 27.0363 20.2538 26.8414 20.2538 26.6383ZM21.0199 29.1915C20.8167 29.1915 20.6219 29.2722 20.4782 29.4158C20.3345 29.5595 20.2538 29.7543 20.2538 29.9574C20.2538 30.1606 20.3345 30.3554 20.4782 30.4991C20.6219 30.6427 20.8167 30.7234 21.0199 30.7234H31.2339C31.4371 30.7234 31.632 30.6427 31.7756 30.4991C31.9193 30.3554 32 30.1606 32 29.9574C32 29.7543 31.9193 29.5595 31.7756 29.4158C31.632 29.2722 31.4371 29.1915 31.2339 29.1915H21.0199Z" fill="white"/>
</svg>
