<svg width="48" height="48" viewBox="0 0 48 48" fill="none" xmlns="http://www.w3.org/2000/svg">
<g filter="url(#filter0_d_48_108)">
<path d="M4 14C4 7.37258 9.37258 2 16 2H32C38.6274 2 44 7.37258 44 14V30C44 36.6274 38.6274 42 32 42H16C9.37258 42 4 36.6274 4 30V14Z" fill="white"/>
<g clip-path="url(#clip0_48_108)">
<path fill-rule="evenodd" clip-rule="evenodd" d="M35.1585 17.125C35.1191 16.1049 35.059 15.0857 34.9785 14.068C34.8445 12.424 33.576 11.1555 31.932 11.022C30.2965 10.889 27.701 10.75 24 10.75C22.646 10.75 21.44 10.7685 20.375 10.7985V17.125H35.1585ZM16.068 11.022C16.75 10.967 17.599 10.91 18.625 10.863V17.125H12.8415C12.892 15.8715 12.958 14.8575 13.022 14.068C13.1555 12.424 14.424 11.1555 16.068 11.022ZM13.022 29.932C12.958 29.142 12.892 28.1285 12.842 26.875H18.625V33.137C17.7718 33.099 16.9194 33.046 16.068 32.978C14.424 32.8445 13.1555 31.576 13.022 29.932ZM20.375 26.875V33.2015C21.44 33.2315 22.646 33.25 24 33.25C27.701 33.25 30.2965 33.111 31.932 32.978C33.576 32.8445 34.8445 31.576 34.978 29.932C35.0425 29.142 35.108 28.1285 35.1585 26.875H20.375ZM35.25 22C35.25 23.1465 35.2365 24.1865 35.2145 25.125H20.375V18.875H35.2145C35.2365 19.8135 35.25 20.8535 35.25 22ZM12.7855 18.875C12.7613 19.9165 12.7495 20.9582 12.75 22C12.75 23.1465 12.7635 24.1865 12.7855 25.125H18.625V18.875H12.7855Z" fill="black"/>
</g>
</g>
<defs>
<filter id="filter0_d_48_108" x="0" y="0" width="48" height="48" filterUnits="userSpaceOnUse" color-interpolation-filters="sRGB">
<feFlood flood-opacity="0" result="BackgroundImageFix"/>
<feColorMatrix in="SourceAlpha" type="matrix" values="0 0 0 0 0 0 0 0 0 0 0 0 0 0 0 0 0 0 127 0" result="hardAlpha"/>
<feOffset dy="2"/>
<feGaussianBlur stdDeviation="2"/>
<feComposite in2="hardAlpha" operator="out"/>
<feColorMatrix type="matrix" values="0 0 0 0 0 0 0 0 0 0 0 0 0 0 0 0 0 0 0.25 0"/>
<feBlend mode="normal" in2="BackgroundImageFix" result="effect1_dropShadow_48_108"/>
<feBlend mode="normal" in="SourceGraphic" in2="effect1_dropShadow_48_108" result="shape"/>
</filter>
<clipPath id="clip0_48_108">
<rect width="24" height="24" fill="white" transform="translate(12 10)"/>
</clipPath>
</defs>
</svg>
