<svg width="40" height="40" viewBox="0 0 40 40" fill="none" xmlns="http://www.w3.org/2000/svg">
<path d="M0 20C0 8.95431 8.95431 0 20 0C31.0457 0 40 8.95431 40 20C40 31.0457 31.0457 40 20 40C8.95431 40 0 31.0457 0 20Z" fill="white" fill-opacity="0.69"/>
<path d="M10 12C10.2652 12 10.5196 12.1054 10.7071 12.2929C10.8946 12.4804 11 12.7348 11 13V18.666L20.223 12.518C20.2983 12.4679 20.3858 12.4392 20.4761 12.4348C20.5664 12.4305 20.6563 12.4508 20.736 12.4935C20.8157 12.5361 20.8824 12.5997 20.9289 12.6772C20.9754 12.7548 21 12.8436 21 12.934V18.666L30.223 12.518C30.2983 12.4679 30.3858 12.4392 30.4761 12.4348C30.5664 12.4305 30.6563 12.4508 30.736 12.4935C30.8157 12.5361 30.8824 12.5997 30.9289 12.6772C30.9754 12.7548 31 12.8436 31 12.934V27.066C31 27.1564 30.9754 27.2452 30.9289 27.3228C30.8824 27.4003 30.8157 27.4639 30.736 27.5065C30.6563 27.5492 30.5664 27.5695 30.4761 27.5652C30.3858 27.5608 30.2983 27.5321 30.223 27.482L21 21.333V27.066C21 27.1564 20.9754 27.2452 20.9289 27.3228C20.8824 27.4003 20.8157 27.4639 20.736 27.5065C20.6563 27.5492 20.5664 27.5695 20.4761 27.5652C20.3858 27.5608 20.2983 27.5321 20.223 27.482L11 21.333V27C11 27.2652 10.8946 27.5196 10.7071 27.7071C10.5196 27.8946 10.2652 28 10 28C9.73478 28 9.48043 27.8946 9.29289 27.7071C9.10536 27.5196 9 27.2652 9 27V13C9 12.7348 9.10536 12.4804 9.29289 12.2929C9.48043 12.1054 9.73478 12 10 12Z" fill="#555555"/>
</svg>
