<svg width="64" height="21" viewBox="0 0 64 21" fill="none" xmlns="http://www.w3.org/2000/svg">
<g filter="url(#filter0_d_1718_121893)">
<path d="M9.81646 12.4375C12.322 12.4375 14.3555 11.4208 14.3555 10.168C14.3555 9.15126 13.021 8.29339 11.1782 8.00289V6.53679L9.36256 8.35239L11.1782 10.168V8.92885C12.608 9.18303 13.4477 9.79126 13.4477 10.168C13.4477 10.6491 12.0678 11.5297 9.81646 11.5297C7.56511 11.5297 6.18526 10.6491 6.18526 10.168C6.18526 9.83665 6.84795 9.31012 8.00086 9.01963V8.08913C6.39859 8.43863 5.27745 9.2375 5.27745 10.168C5.27745 11.4208 7.31093 12.4375 9.81646 12.4375Z" fill="#353535"/>
<path d="M16.7689 7.60673H17.7116L19.6529 12.8054H19.7369L21.6782 7.60673H22.5742L20.1662 13.6641H19.1209L16.7689 7.60673ZM23.4454 7.5134H24.2854V8.39073H23.4454V7.5134ZM23.4454 9.14673H24.2854V13.6641H23.4454V9.14673ZM27.6463 13.7574C26.265 13.7574 25.5743 13.297 25.5743 12.3761V10.5934C25.5743 10.0458 25.7299 9.65384 26.041 9.4174C26.3583 9.17473 26.8685 9.0534 27.5717 9.0534C28.2374 9.0534 28.7165 9.16851 29.009 9.39873C29.3077 9.62895 29.457 10.0272 29.457 10.5934V11.5921H26.4237V12.2734C26.4237 12.5845 26.5325 12.8085 26.7503 12.9454C26.9681 13.0823 27.3041 13.1507 27.7583 13.1507C28.1877 13.1507 28.6948 13.0761 29.2797 12.9267V13.5707C28.7072 13.6952 28.1628 13.7574 27.6463 13.7574ZM28.617 11.0414V10.3321C28.617 10.0583 28.533 9.87162 28.365 9.77206C28.2032 9.66628 27.9232 9.6134 27.525 9.6134C27.1392 9.6134 26.8592 9.66628 26.685 9.77206C26.5108 9.87162 26.4237 10.0583 26.4237 10.3321V11.0414H28.617ZM30.1211 9.14673H31.0451L32.1464 12.8614H32.2024L33.2664 9.14673H34.2091L35.3104 12.8614H35.3664L36.4304 9.14673H37.2891L35.8051 13.6641H34.8064L33.7144 10.0147L32.6411 13.6641H31.6424L30.1211 9.14673ZM42.0347 13.7574C41.5121 13.7574 40.9241 13.6983 40.2707 13.5801V12.9081C41.0112 13.0636 41.6303 13.1414 42.1281 13.1414C42.9556 13.1414 43.3694 12.9081 43.3694 12.4414V11.4054C43.3694 11.1503 43.2325 10.9823 42.9587 10.9014C42.8281 10.8703 42.7099 10.8516 42.6041 10.8454C42.5045 10.833 42.3739 10.8267 42.2121 10.8267H41.0454V10.2481H42.0534C42.2152 10.2481 42.3459 10.245 42.4454 10.2387C42.545 10.2263 42.6601 10.2014 42.7907 10.1641C42.9276 10.133 43.0334 10.0738 43.1081 9.98673C43.1827 9.89962 43.2201 9.78762 43.2201 9.65073V8.56806C43.2201 8.25073 42.8467 8.09206 42.1001 8.09206C41.6023 8.09206 41.033 8.14184 40.3921 8.2414V7.5974C40.9272 7.5414 41.4934 7.5134 42.0907 7.5134C42.7814 7.5134 43.2823 7.59117 43.5934 7.74673C43.9107 7.89606 44.0694 8.15428 44.0694 8.5214V9.68806C44.0694 9.88095 43.9916 10.0427 43.8361 10.1734C43.6805 10.2978 43.4814 10.3787 43.2387 10.4161V10.4534C43.3881 10.4783 43.5094 10.5063 43.6027 10.5374C43.7023 10.5623 43.8081 10.6027 43.9201 10.6587C44.1379 10.7707 44.2467 10.9667 44.2467 11.2467V12.4601C44.2467 12.6716 44.2001 12.8614 44.1067 13.0294C44.0134 13.1974 43.8952 13.3281 43.7521 13.4214C43.6276 13.5085 43.4627 13.5801 43.2574 13.6361C43.0521 13.6858 42.8499 13.7201 42.6507 13.7387C42.4143 13.7512 42.209 13.7574 42.0347 13.7574ZM47.6635 13.7574C47.3897 13.7574 47.1688 13.7481 47.0008 13.7294C46.8328 13.7107 46.6586 13.6734 46.4781 13.6174C46.2853 13.5614 46.1328 13.4805 46.0208 13.3747C45.9088 13.2627 45.8155 13.1072 45.7408 12.9081C45.6661 12.709 45.6288 12.4756 45.6288 12.2081V9.14673C45.6288 8.86673 45.6724 8.62095 45.7595 8.4094C45.8528 8.19784 45.971 8.02984 46.1141 7.9054C46.2386 7.79962 46.4066 7.71562 46.6181 7.6534C46.8297 7.58495 47.0413 7.5414 47.2528 7.52273C47.4893 7.51028 47.7039 7.50406 47.8968 7.50406C48.2764 7.50406 48.7866 7.53206 49.4275 7.58806V8.22273C48.7866 8.14184 48.2359 8.1014 47.7755 8.1014C47.427 8.1014 47.1626 8.12628 46.9821 8.17606C46.8017 8.22584 46.6679 8.3254 46.5808 8.47473C46.4999 8.61784 46.4595 8.83562 46.4595 9.12806V10.0801H47.8315C48.1426 10.0801 48.3759 10.0863 48.5315 10.0987C48.687 10.1112 48.8519 10.1361 49.0261 10.1734C49.2004 10.2107 49.3279 10.273 49.4088 10.3601C49.4959 10.4472 49.5706 10.5716 49.6328 10.7334C49.6888 10.889 49.7168 11.085 49.7168 11.3214V12.2081C49.7168 12.8801 49.5053 13.3156 49.0821 13.5147C48.8768 13.6081 48.6715 13.6703 48.4661 13.7014C48.2608 13.7387 47.9933 13.7574 47.6635 13.7574ZM47.6821 13.2067C48.0119 13.2067 48.2577 13.185 48.4195 13.1414C48.5875 13.0916 48.7057 13.0014 48.7741 12.8707C48.8488 12.7338 48.8861 12.5285 48.8861 12.2547V11.3494C48.8861 11.1441 48.855 10.9916 48.7928 10.8921C48.7306 10.7863 48.6155 10.7147 48.4475 10.6774C48.2795 10.6401 48.0213 10.6214 47.6728 10.6214H46.4595V12.2547C46.4595 12.5285 46.4968 12.7338 46.5715 12.8707C46.6461 13.0014 46.7675 13.0916 46.9355 13.1414C47.1035 13.185 47.3524 13.2067 47.6821 13.2067ZM53.0775 13.7574C52.8038 13.7574 52.5798 13.7481 52.4055 13.7294C52.2375 13.7107 52.0571 13.6734 51.8642 13.6174C51.6589 13.5614 51.494 13.4805 51.3695 13.3747C51.2513 13.2627 51.1518 13.1072 51.0709 12.9081C50.99 12.7214 50.9495 12.4881 50.9495 12.2081V9.14673C50.9495 8.86673 50.99 8.62095 51.0709 8.4094C51.1518 8.19784 51.2575 8.02984 51.3882 7.9054C51.5064 7.79962 51.662 7.71562 51.8549 7.6534C52.054 7.58495 52.2531 7.5414 52.4522 7.52273C52.6762 7.51028 52.8847 7.50406 53.0775 7.50406C53.3513 7.50406 53.5722 7.5134 53.7402 7.53206C53.9144 7.55073 54.098 7.58806 54.2909 7.64406C54.4962 7.70628 54.6611 7.7934 54.7855 7.9054C54.9162 8.0174 55.022 8.17606 55.1029 8.3814C55.1838 8.58673 55.2242 8.83873 55.2242 9.1374V12.2081C55.2242 12.4632 55.1838 12.6903 55.1029 12.8894C55.022 13.0885 54.9162 13.2441 54.7855 13.3561C54.6611 13.4618 54.5024 13.549 54.3095 13.6174C54.1167 13.6796 53.9207 13.717 53.7215 13.7294C53.5473 13.7481 53.3327 13.7574 53.0775 13.7574ZM53.0962 13.2067C53.426 13.2067 53.6811 13.185 53.8615 13.1414C54.042 13.0916 54.1727 12.9983 54.2535 12.8614C54.3344 12.7245 54.3749 12.5223 54.3749 12.2547V9.0814C54.3749 8.78895 54.3313 8.57117 54.2442 8.42806C54.1633 8.27873 54.0327 8.17917 53.8522 8.1294C53.678 8.07962 53.4229 8.05473 53.0869 8.05473C52.7447 8.05473 52.4833 8.07962 52.3029 8.1294C52.1287 8.17917 52.0011 8.27873 51.9202 8.42806C51.8393 8.57117 51.7989 8.78895 51.7989 9.0814V12.2547C51.7989 12.5223 51.8393 12.7245 51.9202 12.8614C52.0073 12.9983 52.1411 13.0916 52.3215 13.1414C52.502 13.185 52.7602 13.2067 53.0962 13.2067ZM57.5583 11.1347C57.048 11.1347 56.6716 11.0663 56.4289 10.9294C56.1863 10.7863 56.0649 10.5343 56.0649 10.1734V8.48406C56.0649 8.12317 56.1863 7.87117 56.4289 7.72806C56.6716 7.58495 57.048 7.5134 57.5583 7.5134C58.0685 7.5134 58.4449 7.58495 58.6876 7.72806C58.9303 7.87117 59.0516 8.12317 59.0516 8.48406V10.1734C59.0516 10.5467 58.924 10.7987 58.6689 10.9294C58.42 11.0663 58.0498 11.1347 57.5583 11.1347ZM57.5583 10.6307C57.8694 10.6307 58.0778 10.5996 58.1836 10.5374C58.2894 10.469 58.3423 10.3383 58.3423 10.1454V8.51206C58.3423 8.31917 58.2894 8.19162 58.1836 8.1294C58.0778 8.06095 57.8694 8.02673 57.5583 8.02673C57.2472 8.02673 57.0387 8.06095 56.9329 8.1294C56.8272 8.19162 56.7743 8.31917 56.7743 8.51206V10.1454C56.7743 10.3321 56.8272 10.4596 56.9329 10.5281C57.0387 10.5965 57.2472 10.6307 57.5583 10.6307Z" fill="#383838"/>
</g>
<defs>
<filter id="filter0_d_1718_121893" x="-1.33333" y="-1" width="66.6667" height="23.0026" filterUnits="userSpaceOnUse" color-interpolation-filters="sRGB">
<feFlood flood-opacity="0" result="BackgroundImageFix"/>
<feColorMatrix in="SourceAlpha" type="matrix" values="0 0 0 0 0 0 0 0 0 0 0 0 0 0 0 0 0 0 127 0" result="hardAlpha"/>
<feOffset dy="0.333333"/>
<feGaussianBlur stdDeviation="0.666667"/>
<feComposite in2="hardAlpha" operator="out"/>
<feColorMatrix type="matrix" values="0 0 0 0 0 0 0 0 0 0 0 0 0 0 0 0 0 0 0.25 0"/>
<feBlend mode="normal" in2="BackgroundImageFix" result="effect1_dropShadow_1718_121893"/>
<feBlend mode="normal" in="SourceGraphic" in2="effect1_dropShadow_1718_121893" result="shape"/>
</filter>
</defs>
</svg>
