<svg width="239" height="30" viewBox="0 0 239 30" fill="none" xmlns="http://www.w3.org/2000/svg">
<path d="M17.8184 0.38831H22.9392V18.8563C22.9392 20.8807 22.4607 22.6613 21.5037 24.198C20.5559 25.7347 19.2217 26.9355 17.5009 27.8005C15.7802 28.6562 13.7696 29.0841 11.4691 29.0841C9.15948 29.0841 7.14428 28.6562 5.42355 27.8005C3.70281 26.9355 2.36855 25.7347 1.42076 24.198C0.472977 22.6613 -0.000916246 20.8807 -0.000916246 18.8563V0.38831H5.11989V18.4284C5.11989 19.6063 5.37754 20.6553 5.89284 21.5755C6.41734 22.4956 7.15349 23.218 8.10127 23.7425C9.04906 24.2578 10.1717 24.5154 11.4691 24.5154C12.7666 24.5154 13.8892 24.2578 14.837 23.7425C15.794 23.218 16.5301 22.4956 17.0454 21.5755C17.5607 20.6553 17.8184 19.6063 17.8184 18.4284V0.38831ZM43.8675 8.15923C43.7387 6.9538 43.1958 6.01521 42.2388 5.34348C41.291 4.67175 40.058 4.33588 38.5397 4.33588C37.4723 4.33588 36.5567 4.49692 35.7929 4.81898C35.0292 5.14104 34.4449 5.57813 34.04 6.13023C33.6351 6.68234 33.4281 7.31267 33.4189 8.02121C33.4189 8.61012 33.5523 9.12082 33.8192 9.55331C34.0952 9.98579 34.4679 10.3539 34.9372 10.6575C35.4065 10.952 35.9264 11.2004 36.4969 11.4029C37.0674 11.6053 37.6425 11.7755 38.2222 11.9136L40.8723 12.5761C41.9398 12.8245 42.9658 13.1604 43.9503 13.5837C44.9441 14.007 45.8321 14.5407 46.6143 15.1848C47.4056 15.8289 48.0313 16.6065 48.4914 17.5175C48.9515 18.4284 49.1816 19.4959 49.1816 20.7197C49.1816 22.376 48.7583 23.8345 47.9117 25.0952C47.0652 26.3466 45.8413 27.3266 44.2402 28.0351C42.6483 28.7345 40.7205 29.0841 38.4569 29.0841C36.2576 29.0841 34.3483 28.7437 32.7287 28.0627C31.1184 27.3818 29.8578 26.388 28.9468 25.0813C28.045 23.7747 27.5573 22.1828 27.4837 20.3056H32.5217C32.5953 21.2902 32.899 22.1092 33.4327 22.7625C33.9664 23.4158 34.6611 23.9035 35.5169 24.2256C36.3819 24.5476 37.3481 24.7087 38.4155 24.7087C39.5289 24.7087 40.5043 24.543 41.3416 24.2118C42.1882 23.8713 42.8507 23.402 43.3292 22.8039C43.8077 22.1966 44.0516 21.488 44.0608 20.6783C44.0516 19.9421 43.8353 19.3348 43.412 18.8563C42.9888 18.3686 42.3952 17.9638 41.6315 17.6417C40.8769 17.3104 39.9936 17.016 38.9814 16.7583L35.7653 15.9302C33.4373 15.332 31.5969 14.4257 30.2443 13.211C28.9008 11.9872 28.2291 10.3631 28.2291 8.33867C28.2291 6.67314 28.68 5.21466 29.5817 3.96321C30.4927 2.71177 31.7304 1.74098 33.2947 1.05084C34.859 0.351503 36.6303 0.00183443 38.6087 0.00183443C40.6147 0.00183443 42.3722 0.351503 43.8813 1.05084C45.3996 1.74098 46.5913 2.70256 47.4562 3.9356C48.3212 5.15944 48.7675 6.56732 48.7951 8.15923H43.8675ZM53.7468 28.6562V0.38831H72.132V4.68095H58.8676V12.3553H71.1796V16.6479H58.8676V24.3636H72.2424V28.6562H53.7468ZM77.3563 28.6562V0.38831H87.9568C90.1284 0.38831 91.9504 0.765584 93.4227 1.52013C94.9042 2.27468 96.0222 3.33289 96.7767 4.69475C97.5405 6.04742 97.9224 7.62553 97.9224 9.42908C97.9224 11.2418 97.5359 12.8153 96.7629 14.1496C95.9992 15.4747 94.872 16.5007 93.3813 17.2276C91.8906 17.9454 90.0594 18.3042 87.8878 18.3042H80.3377V14.053H87.1977C88.4675 14.053 89.5073 13.8782 90.3171 13.5285C91.1268 13.1696 91.725 12.6497 92.1114 11.9688C92.5071 11.2786 92.7049 10.4321 92.7049 9.42908C92.7049 8.42609 92.5071 7.57032 92.1114 6.86178C91.7158 6.14404 91.113 5.60113 90.3033 5.23306C89.4935 4.85579 88.4491 4.66715 87.1701 4.66715H82.4771V28.6562H77.3563ZM91.9596 15.8473L98.9576 28.6562H93.2433L86.3695 15.8473H91.9596ZM131.214 9.41528C130.984 8.66993 130.667 8.0028 130.262 7.41389C129.866 6.81577 129.388 6.30507 128.827 5.88179C128.275 5.4585 127.64 5.14104 126.922 4.9294C126.204 4.70856 125.422 4.59814 124.575 4.59814C123.057 4.59814 121.704 4.98001 120.517 5.74376C119.33 6.50751 118.396 7.63013 117.715 9.11162C117.044 10.5839 116.708 12.3783 116.708 14.4947C116.708 16.6295 117.044 18.4376 117.715 19.9191C118.387 21.4006 119.321 22.5278 120.517 23.3008C121.714 24.0646 123.103 24.4464 124.686 24.4464C126.121 24.4464 127.364 24.1704 128.413 23.6183C129.471 23.0662 130.285 22.284 130.856 21.2718C131.426 20.2504 131.711 19.0542 131.711 17.6831L132.871 17.8625H125.197V13.8597H136.667V17.2552C136.667 19.6753 136.151 21.7687 135.121 23.5354C134.09 25.3022 132.673 26.6641 130.869 27.621C129.066 28.5688 126.995 29.0427 124.658 29.0427C122.054 29.0427 119.767 28.4584 117.798 27.2898C115.838 26.112 114.306 24.4418 113.202 22.2794C112.107 20.1078 111.559 17.5313 111.559 14.5499C111.559 12.2678 111.882 10.2296 112.526 8.43529C113.179 6.64094 114.09 5.11804 115.259 3.86659C116.427 2.60594 117.798 1.64896 119.372 0.995629C120.945 0.333099 122.657 0.00183443 124.506 0.00183443C126.071 0.00183443 127.529 0.23188 128.882 0.69197C130.235 1.14286 131.435 1.78698 132.484 2.62435C133.543 3.46171 134.412 4.45551 135.093 5.60573C135.774 6.75596 136.22 8.02581 136.432 9.41528H131.214ZM159.438 0.38831H164.558V18.8563C164.558 20.8807 164.08 22.6613 163.123 24.198C162.175 25.7347 160.841 26.9355 159.12 27.8005C157.399 28.6562 155.389 29.0841 153.088 29.0841C150.779 29.0841 148.763 28.6562 147.043 27.8005C145.322 26.9355 143.988 25.7347 143.04 24.198C142.092 22.6613 141.618 20.8807 141.618 18.8563V0.38831H146.739V18.4284C146.739 19.6063 146.997 20.6553 147.512 21.5755C148.037 22.4956 148.773 23.218 149.72 23.7425C150.668 24.2578 151.791 24.5154 153.088 24.5154C154.386 24.5154 155.508 24.2578 156.456 23.7425C157.413 23.218 158.149 22.4956 158.665 21.5755C159.18 20.6553 159.438 19.6063 159.438 18.4284V0.38831ZM175.245 0.38831V28.6562H170.124V0.38831H175.245ZM190.369 28.6562H180.79V0.38831H190.563C193.369 0.38831 195.78 0.954222 197.795 2.08604C199.82 3.20866 201.375 4.82358 202.461 6.93079C203.546 9.03801 204.089 11.5593 204.089 14.4947C204.089 17.4393 203.542 19.9697 202.447 22.0862C201.361 24.2026 199.792 25.8267 197.74 26.9585C195.697 28.0903 193.24 28.6562 190.369 28.6562ZM185.911 24.2256H190.121C192.09 24.2256 193.733 23.8667 195.049 23.149C196.364 22.422 197.354 21.3408 198.016 19.9053C198.679 18.4607 199.01 16.6571 199.01 14.4947C199.01 12.3323 198.679 10.5379 198.016 9.11162C197.354 7.67614 196.374 6.60413 195.076 5.89559C193.788 5.17785 192.187 4.81898 190.273 4.81898H185.911V24.2256ZM208.955 28.6562V0.38831H227.34V4.68095H214.076V12.3553H226.388V16.6479H214.076V24.3636H227.45V28.6562H208.955ZM235.421 25.2608C234.584 25.2608 233.866 24.9663 233.268 24.3774C232.67 23.7793 232.376 23.0616 232.385 22.2242C232.376 21.396 232.67 20.6875 233.268 20.0986C233.866 19.5097 234.584 19.2152 235.421 19.2152C236.231 19.2152 236.935 19.5097 237.533 20.0986C238.141 20.6875 238.449 21.396 238.458 22.2242C238.449 22.7855 238.302 23.2962 238.016 23.7563C237.74 24.2164 237.372 24.5845 236.912 24.8605C236.461 25.1274 235.964 25.2608 235.421 25.2608ZM235.421 11.251C234.584 11.251 233.866 10.9566 233.268 10.3677C232.67 9.76955 232.376 9.05181 232.385 8.21444C232.376 7.38628 232.67 6.67774 233.268 6.08883C233.866 5.49071 234.584 5.19165 235.421 5.19165C236.231 5.19165 236.935 5.49071 237.533 6.08883C238.141 6.67774 238.449 7.38628 238.458 8.21444C238.449 8.76655 238.302 9.27265 238.016 9.73274C237.74 10.1928 237.372 10.5609 236.912 10.837C236.461 11.113 235.964 11.251 235.421 11.251Z" fill="#666666"/>
</svg>
