<svg width="506" height="42" viewBox="0 0 506 42" fill="none" xmlns="http://www.w3.org/2000/svg">
<path d="M240.603 19.838C240.317 19.838 240.072 19.7375 239.868 19.5365C239.664 19.3356 239.563 19.0906 239.566 18.8017C239.563 18.5191 239.664 18.2773 239.868 18.0763C240.072 17.8754 240.317 17.7749 240.603 17.7749C240.879 17.7749 241.119 17.8754 241.323 18.0763C241.531 18.2773 241.636 18.5191 241.639 18.8017C241.636 18.9933 241.585 19.1676 241.488 19.3246C241.394 19.4816 241.268 19.6072 241.111 19.7014C240.957 19.7925 240.788 19.838 240.603 19.838ZM244.45 19.838C244.164 19.838 243.919 19.7375 243.715 19.5365C243.511 19.3356 243.41 19.0906 243.413 18.8017C243.41 18.5191 243.511 18.2773 243.715 18.0763C243.919 17.8754 244.164 17.7749 244.45 17.7749C244.726 17.7749 244.966 17.8754 245.17 18.0763C245.378 18.2773 245.483 18.5191 245.486 18.8017C245.483 18.9933 245.433 19.1676 245.335 19.3246C245.241 19.4816 245.115 19.6072 244.958 19.7014C244.805 19.7925 244.635 19.838 244.45 19.838ZM248.297 19.838C248.011 19.838 247.766 19.7375 247.562 19.5365C247.358 19.3356 247.257 19.0906 247.261 18.8017C247.257 18.5191 247.358 18.2773 247.562 18.0763C247.766 17.8754 248.011 17.7749 248.297 17.7749C248.573 17.7749 248.813 17.8754 249.018 18.0763C249.225 18.2773 249.33 18.5191 249.333 18.8017C249.33 18.9933 249.28 19.1676 249.182 19.3246C249.088 19.4816 248.963 19.6072 248.806 19.7014C248.652 19.7925 248.482 19.838 248.297 19.838ZM252.144 19.838C251.858 19.838 251.613 19.7375 251.409 19.5365C251.205 19.3356 251.105 19.0906 251.108 18.8017C251.105 18.5191 251.205 18.2773 251.409 18.0763C251.613 17.8754 251.858 17.7749 252.144 17.7749C252.42 17.7749 252.661 17.8754 252.865 18.0763C253.072 18.2773 253.177 18.5191 253.18 18.8017C253.177 18.9933 253.127 19.1676 253.03 19.3246C252.935 19.4816 252.81 19.6072 252.653 19.7014C252.499 19.7925 252.329 19.838 252.144 19.838ZM255.991 19.838C255.705 19.838 255.46 19.7375 255.256 19.5365C255.052 19.3356 254.952 19.0906 254.955 18.8017C254.952 18.5191 255.052 18.2773 255.256 18.0763C255.46 17.8754 255.705 17.7749 255.991 17.7749C256.268 17.7749 256.508 17.8754 256.712 18.0763C256.919 18.2773 257.024 18.5191 257.027 18.8017C257.024 18.9933 256.974 19.1676 256.877 19.3246C256.783 19.4816 256.657 19.6072 256.5 19.7014C256.346 19.7925 256.176 19.838 255.991 19.838ZM259.838 19.838C259.553 19.838 259.308 19.7375 259.104 19.5365C258.899 19.3356 258.799 19.0906 258.802 18.8017C258.799 18.5191 258.899 18.2773 259.104 18.0763C259.308 17.8754 259.553 17.7749 259.838 17.7749C260.115 17.7749 260.355 17.8754 260.559 18.0763C260.766 18.2773 260.871 18.5191 260.875 18.8017C260.871 18.9933 260.821 19.1676 260.724 19.3246C260.63 19.4816 260.504 19.6072 260.347 19.7014C260.193 19.7925 260.024 19.838 259.838 19.838ZM263.685 19.838C263.4 19.838 263.155 19.7375 262.951 19.5365C262.747 19.3356 262.646 19.0906 262.649 18.8017C262.646 18.5191 262.747 18.2773 262.951 18.0763C263.155 17.8754 263.4 17.7749 263.685 17.7749C263.962 17.7749 264.202 17.8754 264.406 18.0763C264.613 18.2773 264.719 18.5191 264.722 18.8017C264.719 18.9933 264.668 19.1676 264.571 19.3246C264.477 19.4816 264.351 19.6072 264.194 19.7014C264.04 19.7925 263.871 19.838 263.685 19.838ZM267.533 19.838C267.247 19.838 267.002 19.7375 266.798 19.5365C266.594 19.3356 266.493 19.0906 266.496 18.8017C266.493 18.5191 266.594 18.2773 266.798 18.0763C267.002 17.8754 267.247 17.7749 267.533 17.7749C267.809 17.7749 268.049 17.8754 268.253 18.0763C268.461 18.2773 268.566 18.5191 268.569 18.8017C268.566 18.9933 268.516 19.1676 268.418 19.3246C268.324 19.4816 268.198 19.6072 268.041 19.7014C267.887 19.7925 267.718 19.838 267.533 19.838ZM271.38 19.838C271.094 19.838 270.849 19.7375 270.645 19.5365C270.441 19.3356 270.34 19.0906 270.343 18.8017C270.34 18.5191 270.441 18.2773 270.645 18.0763C270.849 17.8754 271.094 17.7749 271.38 17.7749C271.656 17.7749 271.896 17.8754 272.1 18.0763C272.308 18.2773 272.413 18.5191 272.416 18.8017C272.413 18.9933 272.363 19.1676 272.265 19.3246C272.171 19.4816 272.045 19.6072 271.888 19.7014C271.735 19.7925 271.565 19.838 271.38 19.838ZM275.227 19.838C274.941 19.838 274.696 19.7375 274.492 19.5365C274.288 19.3356 274.188 19.0906 274.191 18.8017C274.188 18.5191 274.288 18.2773 274.492 18.0763C274.696 17.8754 274.941 17.7749 275.227 17.7749C275.503 17.7749 275.743 17.8754 275.948 18.0763C276.155 18.2773 276.26 18.5191 276.263 18.8017C276.26 18.9933 276.21 19.1676 276.112 19.3246C276.018 19.4816 275.893 19.6072 275.736 19.7014C275.582 19.7925 275.412 19.838 275.227 19.838ZM279.074 19.838C278.788 19.838 278.543 19.7375 278.339 19.5365C278.135 19.3356 278.035 19.0906 278.038 18.8017C278.035 18.5191 278.135 18.2773 278.339 18.0763C278.543 17.8754 278.788 17.7749 279.074 17.7749C279.35 17.7749 279.591 17.8754 279.795 18.0763C280.002 18.2773 280.107 18.5191 280.11 18.8017C280.107 18.9933 280.057 19.1676 279.96 19.3246C279.865 19.4816 279.74 19.6072 279.583 19.7014C279.429 19.7925 279.259 19.838 279.074 19.838ZM282.921 19.838C282.635 19.838 282.391 19.7375 282.186 19.5365C281.982 19.3356 281.882 19.0906 281.885 18.8017C281.882 18.5191 281.982 18.2773 282.186 18.0763C282.391 17.8754 282.635 17.7749 282.921 17.7749C283.198 17.7749 283.438 17.8754 283.642 18.0763C283.849 18.2773 283.954 18.5191 283.957 18.8017C283.954 18.9933 283.904 19.1676 283.807 19.3246C283.713 19.4816 283.587 19.6072 283.43 19.7014C283.276 19.7925 283.106 19.838 282.921 19.838ZM286.768 19.838C286.483 19.838 286.238 19.7375 286.034 19.5365C285.829 19.3356 285.729 19.0906 285.732 18.8017C285.729 18.5191 285.829 18.2773 286.034 18.0763C286.238 17.8754 286.483 17.7749 286.768 17.7749C287.045 17.7749 287.285 17.8754 287.489 18.0763C287.696 18.2773 287.801 18.5191 287.805 18.8017C287.801 18.9933 287.751 19.1676 287.654 19.3246C287.56 19.4816 287.434 19.6072 287.277 19.7014C287.123 19.7925 286.954 19.838 286.768 19.838ZM290.616 19.838C290.33 19.838 290.085 19.7375 289.881 19.5365C289.677 19.3356 289.576 19.0906 289.579 18.8017C289.576 18.5191 289.677 18.2773 289.881 18.0763C290.085 17.8754 290.33 17.7749 290.616 17.7749C290.892 17.7749 291.132 17.8754 291.336 18.0763C291.543 18.2773 291.649 18.5191 291.652 18.8017C291.649 18.9933 291.598 19.1676 291.501 19.3246C291.407 19.4816 291.281 19.6072 291.124 19.7014C290.97 19.7925 290.801 19.838 290.616 19.838ZM294.463 19.838C294.177 19.838 293.932 19.7375 293.728 19.5365C293.524 19.3356 293.423 19.0906 293.426 18.8017C293.423 18.5191 293.524 18.2773 293.728 18.0763C293.932 17.8754 294.177 17.7749 294.463 17.7749C294.739 17.7749 294.979 17.8754 295.183 18.0763C295.391 18.2773 295.496 18.5191 295.499 18.8017C295.496 18.9933 295.446 19.1676 295.348 19.3246C295.254 19.4816 295.128 19.6072 294.971 19.7014C294.817 19.7925 294.648 19.838 294.463 19.838ZM298.31 19.838C298.024 19.838 297.779 19.7375 297.575 19.5365C297.371 19.3356 297.27 19.0906 297.274 18.8017C297.27 18.5191 297.371 18.2773 297.575 18.0763C297.779 17.8754 298.024 17.7749 298.31 17.7749C298.586 17.7749 298.826 17.8754 299.03 18.0763C299.238 18.2773 299.343 18.5191 299.346 18.8017C299.343 18.9933 299.293 19.1676 299.195 19.3246C299.101 19.4816 298.976 19.6072 298.819 19.7014C298.665 19.7925 298.495 19.838 298.31 19.838ZM302.157 19.838C301.871 19.838 301.626 19.7375 301.422 19.5365C301.218 19.3356 301.118 19.0906 301.121 18.8017C301.118 18.5191 301.218 18.2773 301.422 18.0763C301.626 17.8754 301.871 17.7749 302.157 17.7749C302.433 17.7749 302.674 17.8754 302.878 18.0763C303.085 18.2773 303.19 18.5191 303.193 18.8017C303.19 18.9933 303.14 19.1676 303.042 19.3246C302.948 19.4816 302.823 19.6072 302.666 19.7014C302.512 19.7925 302.342 19.838 302.157 19.838ZM306.004 19.838C305.718 19.838 305.473 19.7375 305.269 19.5365C305.065 19.3356 304.965 19.0906 304.968 18.8017C304.965 18.5191 305.065 18.2773 305.269 18.0763C305.473 17.8754 305.718 17.7749 306.004 17.7749C306.28 17.7749 306.521 17.8754 306.725 18.0763C306.932 18.2773 307.037 18.5191 307.04 18.8017C307.037 18.9933 306.987 19.1676 306.89 19.3246C306.795 19.4816 306.67 19.6072 306.513 19.7014C306.359 19.7925 306.189 19.838 306.004 19.838ZM309.851 19.838C309.565 19.838 309.321 19.7375 309.116 19.5365C308.912 19.3356 308.812 19.0906 308.815 18.8017C308.812 18.5191 308.912 18.2773 309.116 18.0763C309.321 17.8754 309.565 17.7749 309.851 17.7749C310.128 17.7749 310.368 17.8754 310.572 18.0763C310.779 18.2773 310.884 18.5191 310.888 18.8017C310.884 18.9933 310.834 19.1676 310.737 19.3246C310.643 19.4816 310.517 19.6072 310.36 19.7014C310.206 19.7925 310.037 19.838 309.851 19.838ZM313.698 19.838C313.413 19.838 313.168 19.7375 312.964 19.5365C312.759 19.3356 312.659 19.0906 312.662 18.8017C312.659 18.5191 312.759 18.2773 312.964 18.0763C313.168 17.8754 313.413 17.7749 313.698 17.7749C313.975 17.7749 314.215 17.8754 314.419 18.0763C314.626 18.2773 314.732 18.5191 314.735 18.8017C314.732 18.9933 314.681 19.1676 314.584 19.3246C314.49 19.4816 314.364 19.6072 314.207 19.7014C314.053 19.7925 313.884 19.838 313.698 19.838ZM317.546 19.838C317.26 19.838 317.015 19.7375 316.811 19.5365C316.607 19.3356 316.506 19.0906 316.509 18.8017C316.506 18.5191 316.607 18.2773 316.811 18.0763C317.015 17.8754 317.26 17.7749 317.546 17.7749C317.822 17.7749 318.062 17.8754 318.266 18.0763C318.473 18.2773 318.579 18.5191 318.582 18.8017C318.579 18.9933 318.528 19.1676 318.431 19.3246C318.337 19.4816 318.211 19.6072 318.054 19.7014C317.9 19.7925 317.731 19.838 317.546 19.838ZM321.393 19.838C321.107 19.838 320.862 19.7375 320.658 19.5365C320.454 19.3356 320.353 19.0906 320.356 18.8017C320.353 18.5191 320.454 18.2773 320.658 18.0763C320.862 17.8754 321.107 17.7749 321.393 17.7749C321.669 17.7749 321.909 17.8754 322.113 18.0763C322.321 18.2773 322.426 18.5191 322.429 18.8017C322.426 18.9933 322.376 19.1676 322.278 19.3246C322.184 19.4816 322.058 19.6072 321.901 19.7014C321.748 19.7925 321.578 19.838 321.393 19.838ZM325.24 19.838C324.954 19.838 324.709 19.7375 324.505 19.5365C324.301 19.3356 324.2 19.0906 324.204 18.8017C324.2 18.5191 324.301 18.2773 324.505 18.0763C324.709 17.8754 324.954 17.7749 325.24 17.7749C325.516 17.7749 325.756 17.8754 325.961 18.0763C326.168 18.2773 326.273 18.5191 326.276 18.8017C326.273 18.9933 326.223 19.1676 326.125 19.3246C326.031 19.4816 325.906 19.6072 325.749 19.7014C325.595 19.7925 325.425 19.838 325.24 19.838ZM329.087 19.838C328.801 19.838 328.556 19.7375 328.352 19.5365C328.148 19.3356 328.048 19.0906 328.051 18.8017C328.048 18.5191 328.148 18.2773 328.352 18.0763C328.556 17.8754 328.801 17.7749 329.087 17.7749C329.363 17.7749 329.604 17.8754 329.808 18.0763C330.015 18.2773 330.12 18.5191 330.123 18.8017C330.12 18.9933 330.07 19.1676 329.973 19.3246C329.878 19.4816 329.753 19.6072 329.596 19.7014C329.442 19.7925 329.272 19.838 329.087 19.838ZM332.934 19.838C332.648 19.838 332.403 19.7375 332.199 19.5365C331.995 19.3356 331.895 19.0906 331.898 18.8017C331.895 18.5191 331.995 18.2773 332.199 18.0763C332.403 17.8754 332.648 17.7749 332.934 17.7749C333.21 17.7749 333.451 17.8754 333.655 18.0763C333.862 18.2773 333.967 18.5191 333.97 18.8017C333.967 18.9933 333.917 19.1676 333.82 19.3246C333.725 19.4816 333.6 19.6072 333.443 19.7014C333.289 19.7925 333.119 19.838 332.934 19.838ZM336.781 19.838C336.496 19.838 336.251 19.7375 336.046 19.5365C335.842 19.3356 335.742 19.0906 335.745 18.8017C335.742 18.5191 335.842 18.2773 336.046 18.0763C336.251 17.8754 336.496 17.7749 336.781 17.7749C337.058 17.7749 337.298 17.8754 337.502 18.0763C337.709 18.2773 337.814 18.5191 337.818 18.8017C337.814 18.9933 337.764 19.1676 337.667 19.3246C337.573 19.4816 337.447 19.6072 337.29 19.7014C337.136 19.7925 336.967 19.838 336.781 19.838ZM340.628 19.838C340.343 19.838 340.098 19.7375 339.894 19.5365C339.689 19.3356 339.589 19.0906 339.592 18.8017C339.589 18.5191 339.689 18.2773 339.894 18.0763C340.098 17.8754 340.343 17.7749 340.628 17.7749C340.905 17.7749 341.145 17.8754 341.349 18.0763C341.556 18.2773 341.662 18.5191 341.665 18.8017C341.662 18.9933 341.611 19.1676 341.514 19.3246C341.42 19.4816 341.294 19.6072 341.137 19.7014C340.983 19.7925 340.814 19.838 340.628 19.838ZM344.476 19.838C344.19 19.838 343.945 19.7375 343.741 19.5365C343.537 19.3356 343.436 19.0906 343.439 18.8017C343.436 18.5191 343.537 18.2773 343.741 18.0763C343.945 17.8754 344.19 17.7749 344.476 17.7749C344.752 17.7749 344.992 17.8754 345.196 18.0763C345.403 18.2773 345.509 18.5191 345.512 18.8017C345.509 18.9933 345.458 19.1676 345.361 19.3246C345.267 19.4816 345.141 19.6072 344.984 19.7014C344.83 19.7925 344.661 19.838 344.476 19.838ZM348.323 19.838C348.037 19.838 347.792 19.7375 347.588 19.5365C347.384 19.3356 347.283 19.0906 347.286 18.8017C347.283 18.5191 347.384 18.2773 347.588 18.0763C347.792 17.8754 348.037 17.7749 348.323 17.7749C348.599 17.7749 348.839 17.8754 349.043 18.0763C349.251 18.2773 349.356 18.5191 349.359 18.8017C349.356 18.9933 349.306 19.1676 349.208 19.3246C349.114 19.4816 348.988 19.6072 348.831 19.7014C348.678 19.7925 348.508 19.838 348.323 19.838ZM352.17 19.838C351.884 19.838 351.639 19.7375 351.435 19.5365C351.231 19.3356 351.13 19.0906 351.134 18.8017C351.13 18.5191 351.231 18.2773 351.435 18.0763C351.639 17.8754 351.884 17.7749 352.17 17.7749C352.446 17.7749 352.686 17.8754 352.891 18.0763C353.098 18.2773 353.203 18.5191 353.206 18.8017C353.203 18.9933 353.153 19.1676 353.055 19.3246C352.961 19.4816 352.836 19.6072 352.679 19.7014C352.525 19.7925 352.355 19.838 352.17 19.838ZM356.017 19.838C355.731 19.838 355.486 19.7375 355.282 19.5365C355.078 19.3356 354.978 19.0906 354.981 18.8017C354.978 18.5191 355.078 18.2773 355.282 18.0763C355.486 17.8754 355.731 17.7749 356.017 17.7749C356.293 17.7749 356.534 17.8754 356.738 18.0763C356.945 18.2773 357.05 18.5191 357.053 18.8017C357.05 18.9933 357 19.1676 356.903 19.3246C356.808 19.4816 356.683 19.6072 356.526 19.7014C356.372 19.7925 356.202 19.838 356.017 19.838ZM359.864 19.838C359.578 19.838 359.333 19.7375 359.129 19.5365C358.925 19.3356 358.825 19.0906 358.828 18.8017C358.825 18.5191 358.925 18.2773 359.129 18.0763C359.333 17.8754 359.578 17.7749 359.864 17.7749C360.141 17.7749 360.381 17.8754 360.585 18.0763C360.792 18.2773 360.897 18.5191 360.9 18.8017C360.897 18.9933 360.847 19.1676 360.75 19.3246C360.656 19.4816 360.53 19.6072 360.373 19.7014C360.219 19.7925 360.049 19.838 359.864 19.838ZM363.711 19.838C363.426 19.838 363.181 19.7375 362.976 19.5365C362.772 19.3356 362.672 19.0906 362.675 18.8017C362.672 18.5191 362.772 18.2773 362.976 18.0763C363.181 17.8754 363.426 17.7749 363.711 17.7749C363.988 17.7749 364.228 17.8754 364.432 18.0763C364.639 18.2773 364.744 18.5191 364.748 18.8017C364.744 18.9933 364.694 19.1676 364.597 19.3246C364.503 19.4816 364.377 19.6072 364.22 19.7014C364.066 19.7925 363.897 19.838 363.711 19.838ZM367.558 19.838C367.273 19.838 367.028 19.7375 366.824 19.5365C366.62 19.3356 366.519 19.0906 366.522 18.8017C366.519 18.5191 366.62 18.2773 366.824 18.0763C367.028 17.8754 367.273 17.7749 367.558 17.7749C367.835 17.7749 368.075 17.8754 368.279 18.0763C368.486 18.2773 368.592 18.5191 368.595 18.8017C368.592 18.9933 368.541 19.1676 368.444 19.3246C368.35 19.4816 368.224 19.6072 368.067 19.7014C367.913 19.7925 367.744 19.838 367.558 19.838ZM371.406 19.838C371.12 19.838 370.875 19.7375 370.671 19.5365C370.467 19.3356 370.366 19.0906 370.369 18.8017C370.366 18.5191 370.467 18.2773 370.671 18.0763C370.875 17.8754 371.12 17.7749 371.406 17.7749C371.682 17.7749 371.922 17.8754 372.126 18.0763C372.334 18.2773 372.439 18.5191 372.442 18.8017C372.439 18.9933 372.388 19.1676 372.291 19.3246C372.197 19.4816 372.071 19.6072 371.914 19.7014C371.76 19.7925 371.591 19.838 371.406 19.838ZM375.253 19.838C374.967 19.838 374.722 19.7375 374.518 19.5365C374.314 19.3356 374.213 19.0906 374.216 18.8017C374.213 18.5191 374.314 18.2773 374.518 18.0763C374.722 17.8754 374.967 17.7749 375.253 17.7749C375.529 17.7749 375.769 17.8754 375.973 18.0763C376.181 18.2773 376.286 18.5191 376.289 18.8017C376.286 18.9933 376.236 19.1676 376.138 19.3246C376.044 19.4816 375.918 19.6072 375.761 19.7014C375.608 19.7925 375.438 19.838 375.253 19.838ZM379.1 19.838C378.814 19.838 378.569 19.7375 378.365 19.5365C378.161 19.3356 378.061 19.0906 378.064 18.8017C378.061 18.5191 378.161 18.2773 378.365 18.0763C378.569 17.8754 378.814 17.7749 379.1 17.7749C379.376 17.7749 379.616 17.8754 379.821 18.0763C380.028 18.2773 380.133 18.5191 380.136 18.8017C380.133 18.9933 380.083 19.1676 379.985 19.3246C379.891 19.4816 379.766 19.6072 379.609 19.7014C379.455 19.7925 379.285 19.838 379.1 19.838ZM382.947 19.838C382.661 19.838 382.416 19.7375 382.212 19.5365C382.008 19.3356 381.908 19.0906 381.911 18.8017C381.908 18.5191 382.008 18.2773 382.212 18.0763C382.416 17.8754 382.661 17.7749 382.947 17.7749C383.223 17.7749 383.464 17.8754 383.668 18.0763C383.875 18.2773 383.98 18.5191 383.983 18.8017C383.98 18.9933 383.93 19.1676 383.833 19.3246C383.738 19.4816 383.613 19.6072 383.456 19.7014C383.302 19.7925 383.132 19.838 382.947 19.838ZM386.794 19.838C386.508 19.838 386.263 19.7375 386.059 19.5365C385.855 19.3356 385.755 19.0906 385.758 18.8017C385.755 18.5191 385.855 18.2773 386.059 18.0763C386.263 17.8754 386.508 17.7749 386.794 17.7749C387.071 17.7749 387.311 17.8754 387.515 18.0763C387.722 18.2773 387.827 18.5191 387.83 18.8017C387.827 18.9933 387.777 19.1676 387.68 19.3246C387.586 19.4816 387.46 19.6072 387.303 19.7014C387.149 19.7925 386.979 19.838 386.794 19.838ZM390.641 19.838C390.356 19.838 390.111 19.7375 389.907 19.5365C389.702 19.3356 389.602 19.0906 389.605 18.8017C389.602 18.5191 389.702 18.2773 389.907 18.0763C390.111 17.8754 390.356 17.7749 390.641 17.7749C390.918 17.7749 391.158 17.8754 391.362 18.0763C391.569 18.2773 391.674 18.5191 391.678 18.8017C391.674 18.9933 391.624 19.1676 391.527 19.3246C391.433 19.4816 391.307 19.6072 391.15 19.7014C390.996 19.7925 390.827 19.838 390.641 19.838ZM394.488 19.838C394.203 19.838 393.958 19.7375 393.754 19.5365C393.55 19.3356 393.449 19.0906 393.452 18.8017C393.449 18.5191 393.55 18.2773 393.754 18.0763C393.958 17.8754 394.203 17.7749 394.488 17.7749C394.765 17.7749 395.005 17.8754 395.209 18.0763C395.416 18.2773 395.522 18.5191 395.525 18.8017C395.522 18.9933 395.471 19.1676 395.374 19.3246C395.28 19.4816 395.154 19.6072 394.997 19.7014C394.843 19.7925 394.674 19.838 394.488 19.838ZM398.336 19.838C398.05 19.838 397.805 19.7375 397.601 19.5365C397.397 19.3356 397.296 19.0906 397.299 18.8017C397.296 18.5191 397.397 18.2773 397.601 18.0763C397.805 17.8754 398.05 17.7749 398.336 17.7749C398.612 17.7749 398.852 17.8754 399.056 18.0763C399.264 18.2773 399.369 18.5191 399.372 18.8017C399.369 18.9933 399.319 19.1676 399.221 19.3246C399.127 19.4816 399.001 19.6072 398.844 19.7014C398.69 19.7925 398.521 19.838 398.336 19.838ZM402.183 19.838C401.897 19.838 401.652 19.7375 401.448 19.5365C401.244 19.3356 401.143 19.0906 401.147 18.8017C401.143 18.5191 401.244 18.2773 401.448 18.0763C401.652 17.8754 401.897 17.7749 402.183 17.7749C402.459 17.7749 402.699 17.8754 402.903 18.0763C403.111 18.2773 403.216 18.5191 403.219 18.8017C403.216 18.9933 403.166 19.1676 403.068 19.3246C402.974 19.4816 402.849 19.6072 402.692 19.7014C402.538 19.7925 402.368 19.838 402.183 19.838ZM406.03 19.838C405.744 19.838 405.499 19.7375 405.295 19.5365C405.091 19.3356 404.991 19.0906 404.994 18.8017C404.991 18.5191 405.091 18.2773 405.295 18.0763C405.499 17.8754 405.744 17.7749 406.03 17.7749C406.306 17.7749 406.546 17.8754 406.751 18.0763C406.958 18.2773 407.063 18.5191 407.066 18.8017C407.063 18.9933 407.013 19.1676 406.915 19.3246C406.821 19.4816 406.696 19.6072 406.539 19.7014C406.385 19.7925 406.215 19.838 406.03 19.838ZM409.877 19.838C409.591 19.838 409.346 19.7375 409.142 19.5365C408.938 19.3356 408.838 19.0906 408.841 18.8017C408.838 18.5191 408.938 18.2773 409.142 18.0763C409.346 17.8754 409.591 17.7749 409.877 17.7749C410.153 17.7749 410.394 17.8754 410.598 18.0763C410.805 18.2773 410.91 18.5191 410.913 18.8017C410.91 18.9933 410.86 19.1676 410.763 19.3246C410.668 19.4816 410.543 19.6072 410.386 19.7014C410.232 19.7925 410.062 19.838 409.877 19.838ZM413.724 19.838C413.438 19.838 413.194 19.7375 412.989 19.5365C412.785 19.3356 412.685 19.0906 412.688 18.8017C412.685 18.5191 412.785 18.2773 412.989 18.0763C413.194 17.8754 413.438 17.7749 413.724 17.7749C414.001 17.7749 414.241 17.8754 414.445 18.0763C414.652 18.2773 414.757 18.5191 414.761 18.8017C414.757 18.9933 414.707 19.1676 414.61 19.3246C414.516 19.4816 414.39 19.6072 414.233 19.7014C414.079 19.7925 413.91 19.838 413.724 19.838ZM417.571 19.838C417.286 19.838 417.041 19.7375 416.837 19.5365C416.632 19.3356 416.532 19.0906 416.535 18.8017C416.532 18.5191 416.632 18.2773 416.837 18.0763C417.041 17.8754 417.286 17.7749 417.571 17.7749C417.848 17.7749 418.088 17.8754 418.292 18.0763C418.499 18.2773 418.604 18.5191 418.608 18.8017C418.604 18.9933 418.554 19.1676 418.457 19.3246C418.363 19.4816 418.237 19.6072 418.08 19.7014C417.926 19.7925 417.757 19.838 417.571 19.838ZM421.419 19.838C421.133 19.838 420.888 19.7375 420.684 19.5365C420.48 19.3356 420.379 19.0906 420.382 18.8017C420.379 18.5191 420.48 18.2773 420.684 18.0763C420.888 17.8754 421.133 17.7749 421.419 17.7749C421.695 17.7749 421.935 17.8754 422.139 18.0763C422.346 18.2773 422.452 18.5191 422.455 18.8017C422.452 18.9933 422.401 19.1676 422.304 19.3246C422.21 19.4816 422.084 19.6072 421.927 19.7014C421.773 19.7925 421.604 19.838 421.419 19.838ZM425.266 19.838C424.98 19.838 424.735 19.7375 424.531 19.5365C424.327 19.3356 424.226 19.0906 424.229 18.8017C424.226 18.5191 424.327 18.2773 424.531 18.0763C424.735 17.8754 424.98 17.7749 425.266 17.7749C425.542 17.7749 425.782 17.8754 425.986 18.0763C426.194 18.2773 426.299 18.5191 426.302 18.8017C426.299 18.9933 426.249 19.1676 426.151 19.3246C426.057 19.4816 425.931 19.6072 425.774 19.7014C425.621 19.7925 425.451 19.838 425.266 19.838ZM429.113 19.838C428.827 19.838 428.582 19.7375 428.378 19.5365C428.174 19.3356 428.073 19.0906 428.077 18.8017C428.073 18.5191 428.174 18.2773 428.378 18.0763C428.582 17.8754 428.827 17.7749 429.113 17.7749C429.389 17.7749 429.629 17.8754 429.833 18.0763C430.041 18.2773 430.146 18.5191 430.149 18.8017C430.146 18.9933 430.096 19.1676 429.998 19.3246C429.904 19.4816 429.779 19.6072 429.622 19.7014C429.468 19.7925 429.298 19.838 429.113 19.838ZM432.96 19.838C432.674 19.838 432.429 19.7375 432.225 19.5365C432.021 19.3356 431.921 19.0906 431.924 18.8017C431.921 18.5191 432.021 18.2773 432.225 18.0763C432.429 17.8754 432.674 17.7749 432.96 17.7749C433.236 17.7749 433.477 17.8754 433.681 18.0763C433.888 18.2773 433.993 18.5191 433.996 18.8017C433.993 18.9933 433.943 19.1676 433.846 19.3246C433.751 19.4816 433.626 19.6072 433.469 19.7014C433.315 19.7925 433.145 19.838 432.96 19.838ZM436.807 19.838C436.521 19.838 436.276 19.7375 436.072 19.5365C435.868 19.3356 435.768 19.0906 435.771 18.8017C435.768 18.5191 435.868 18.2773 436.072 18.0763C436.276 17.8754 436.521 17.7749 436.807 17.7749C437.083 17.7749 437.324 17.8754 437.528 18.0763C437.735 18.2773 437.84 18.5191 437.843 18.8017C437.84 18.9933 437.79 19.1676 437.693 19.3246C437.598 19.4816 437.473 19.6072 437.316 19.7014C437.162 19.7925 436.992 19.838 436.807 19.838ZM440.654 19.838C440.368 19.838 440.124 19.7375 439.919 19.5365C439.715 19.3356 439.615 19.0906 439.618 18.8017C439.615 18.5191 439.715 18.2773 439.919 18.0763C440.124 17.8754 440.368 17.7749 440.654 17.7749C440.931 17.7749 441.171 17.8754 441.375 18.0763C441.582 18.2773 441.687 18.5191 441.691 18.8017C441.687 18.9933 441.637 19.1676 441.54 19.3246C441.446 19.4816 441.32 19.6072 441.163 19.7014C441.009 19.7925 440.84 19.838 440.654 19.838ZM444.501 19.838C444.216 19.838 443.971 19.7375 443.767 19.5365C443.562 19.3356 443.462 19.0906 443.465 18.8017C443.462 18.5191 443.562 18.2773 443.767 18.0763C443.971 17.8754 444.216 17.7749 444.501 17.7749C444.778 17.7749 445.018 17.8754 445.222 18.0763C445.429 18.2773 445.535 18.5191 445.538 18.8017C445.535 18.9933 445.484 19.1676 445.387 19.3246C445.293 19.4816 445.167 19.6072 445.01 19.7014C444.856 19.7925 444.687 19.838 444.501 19.838ZM448.349 19.838C448.063 19.838 447.818 19.7375 447.614 19.5365C447.41 19.3356 447.309 19.0906 447.312 18.8017C447.309 18.5191 447.41 18.2773 447.614 18.0763C447.818 17.8754 448.063 17.7749 448.349 17.7749C448.625 17.7749 448.865 17.8754 449.069 18.0763C449.276 18.2773 449.382 18.5191 449.385 18.8017C449.382 18.9933 449.331 19.1676 449.234 19.3246C449.14 19.4816 449.014 19.6072 448.857 19.7014C448.703 19.7925 448.534 19.838 448.349 19.838ZM452.196 19.838C451.91 19.838 451.665 19.7375 451.461 19.5365C451.257 19.3356 451.156 19.0906 451.159 18.8017C451.156 18.5191 451.257 18.2773 451.461 18.0763C451.665 17.8754 451.91 17.7749 452.196 17.7749C452.472 17.7749 452.712 17.8754 452.916 18.0763C453.124 18.2773 453.229 18.5191 453.232 18.8017C453.229 18.9933 453.179 19.1676 453.081 19.3246C452.987 19.4816 452.861 19.6072 452.704 19.7014C452.551 19.7925 452.381 19.838 452.196 19.838ZM456.043 19.838C455.757 19.838 455.512 19.7375 455.308 19.5365C455.104 19.3356 455.003 19.0906 455.007 18.8017C455.003 18.5191 455.104 18.2773 455.308 18.0763C455.512 17.8754 455.757 17.7749 456.043 17.7749C456.319 17.7749 456.559 17.8754 456.764 18.0763C456.971 18.2773 457.076 18.5191 457.079 18.8017C457.076 18.9933 457.026 19.1676 456.928 19.3246C456.834 19.4816 456.709 19.6072 456.552 19.7014C456.398 19.7925 456.228 19.838 456.043 19.838ZM459.89 19.838C459.604 19.838 459.359 19.7375 459.155 19.5365C458.951 19.3356 458.851 19.0906 458.854 18.8017C458.851 18.5191 458.951 18.2773 459.155 18.0763C459.359 17.8754 459.604 17.7749 459.89 17.7749C460.166 17.7749 460.407 17.8754 460.611 18.0763C460.818 18.2773 460.923 18.5191 460.926 18.8017C460.923 18.9933 460.873 19.1676 460.776 19.3246C460.681 19.4816 460.556 19.6072 460.399 19.7014C460.245 19.7925 460.075 19.838 459.89 19.838ZM463.737 19.838C463.451 19.838 463.206 19.7375 463.002 19.5365C462.798 19.3356 462.698 19.0906 462.701 18.8017C462.698 18.5191 462.798 18.2773 463.002 18.0763C463.206 17.8754 463.451 17.7749 463.737 17.7749C464.013 17.7749 464.254 17.8754 464.458 18.0763C464.665 18.2773 464.77 18.5191 464.773 18.8017C464.77 18.9933 464.72 19.1676 464.623 19.3246C464.528 19.4816 464.403 19.6072 464.246 19.7014C464.092 19.7925 463.922 19.838 463.737 19.838ZM467.584 19.838C467.299 19.838 467.054 19.7375 466.849 19.5365C466.645 19.3356 466.545 19.0906 466.548 18.8017C466.545 18.5191 466.645 18.2773 466.849 18.0763C467.054 17.8754 467.299 17.7749 467.584 17.7749C467.861 17.7749 468.101 17.8754 468.305 18.0763C468.512 18.2773 468.617 18.5191 468.621 18.8017C468.617 18.9933 468.567 19.1676 468.47 19.3246C468.376 19.4816 468.25 19.6072 468.093 19.7014C467.939 19.7925 467.77 19.838 467.584 19.838ZM471.431 19.838C471.146 19.838 470.901 19.7375 470.697 19.5365C470.493 19.3356 470.392 19.0906 470.395 18.8017C470.392 18.5191 470.493 18.2773 470.697 18.0763C470.901 17.8754 471.146 17.7749 471.431 17.7749C471.708 17.7749 471.948 17.8754 472.152 18.0763C472.359 18.2773 472.465 18.5191 472.468 18.8017C472.465 18.9933 472.414 19.1676 472.317 19.3246C472.223 19.4816 472.097 19.6072 471.94 19.7014C471.786 19.7925 471.617 19.838 471.431 19.838ZM475.279 19.838C474.993 19.838 474.748 19.7375 474.544 19.5365C474.34 19.3356 474.239 19.0906 474.242 18.8017C474.239 18.5191 474.34 18.2773 474.544 18.0763C474.748 17.8754 474.993 17.7749 475.279 17.7749C475.555 17.7749 475.795 17.8754 475.999 18.0763C476.207 18.2773 476.312 18.5191 476.315 18.8017C476.312 18.9933 476.261 19.1676 476.164 19.3246C476.07 19.4816 475.944 19.6072 475.787 19.7014C475.633 19.7925 475.464 19.838 475.279 19.838Z" fill="#6C6C6C"/>
<path d="M488.439 24.379C487.663 24.379 486.997 24.1828 486.441 23.7902C485.889 23.3946 485.463 22.8246 485.165 22.0804C484.87 21.333 484.722 20.4333 484.722 19.3814C484.725 18.3294 484.874 17.4344 485.17 16.6965C485.468 15.9554 485.893 15.3902 486.446 15.0008C487.002 14.6114 487.666 14.4167 488.439 14.4167C489.211 14.4167 489.875 14.6114 490.431 15.0008C490.987 15.3902 491.412 15.9554 491.708 16.6965C492.006 17.4376 492.155 18.3325 492.155 19.3814C492.155 20.4365 492.006 21.3377 491.708 22.0851C491.412 22.8293 490.987 23.3977 490.431 23.7902C489.878 24.1828 489.214 24.379 488.439 24.379ZM488.439 22.9047C489.042 22.9047 489.517 22.6079 489.866 22.0144C490.218 21.4178 490.393 20.5401 490.393 19.3814C490.393 18.6152 490.313 17.9714 490.153 17.4501C489.993 16.9289 489.767 16.5363 489.475 16.2726C489.183 16.0056 488.837 15.8722 488.439 15.8722C487.839 15.8722 487.365 16.1705 487.016 16.7671C486.668 17.3606 486.492 18.2321 486.489 19.3814C486.485 20.1507 486.562 20.7976 486.719 21.322C486.879 21.8464 487.106 22.2421 487.398 22.509C487.69 22.7728 488.037 22.9047 488.439 22.9047ZM493.814 24.1953L497.917 16.0747V16.0088H493.155V14.5486H499.726V16.0418L495.628 24.1953H493.814Z" fill="#7D7D7D"/>
<path d="M49.8982 14.0642V23.7109H48.1507V14.0642H49.8982ZM59.7181 14.0642V23.7109H58.1636L53.6182 17.1401H53.5381V23.7109H51.7906V14.0642H53.3544L57.8952 20.6398H57.9799V14.0642H59.7181ZM64.8912 23.7109H61.6222V14.0642H64.9571C65.9149 14.0642 66.7376 14.2573 67.4253 14.6436C68.1161 15.0267 68.6468 15.5778 69.0174 16.2969C69.3879 17.016 69.5732 17.8764 69.5732 18.8782C69.5732 19.883 69.3864 20.7466 69.0127 21.4688C68.6421 22.1911 68.1067 22.7453 67.4065 23.1316C66.7093 23.5178 65.8709 23.7109 64.8912 23.7109ZM63.3697 22.1989H64.8064C65.4784 22.1989 66.0389 22.0765 66.4879 21.8315C66.937 21.5834 67.2746 21.2145 67.5007 20.7246C67.7268 20.2316 67.8398 19.6161 67.8398 18.8782C67.8398 18.1402 67.7268 17.5279 67.5007 17.0411C67.2746 16.5513 66.9401 16.1854 66.4974 15.9436C66.0577 15.6987 65.5113 15.5762 64.8582 15.5762H63.3697V22.1989ZM77.3146 14.0642H79.0621V20.3666C79.0621 21.0575 78.8988 21.6651 78.5723 22.1895C78.2488 22.7139 77.7935 23.1237 77.2063 23.4189C76.619 23.7109 75.9329 23.857 75.1479 23.857C74.3597 23.857 73.672 23.7109 73.0847 23.4189C72.4975 23.1237 72.0422 22.7139 71.7187 22.1895C71.3953 21.6651 71.2336 21.0575 71.2336 20.3666V14.0642H72.9811V20.2206C72.9811 20.6225 73.069 20.9805 73.2449 21.2945C73.4239 21.6086 73.6751 21.8551 73.9985 22.0341C74.322 22.2099 74.7051 22.2978 75.1479 22.2978C75.5906 22.2978 75.9737 22.2099 76.2972 22.0341C76.6238 21.8551 76.875 21.6086 77.0508 21.2945C77.2267 20.9805 77.3146 20.6225 77.3146 20.2206V14.0642ZM86.2041 16.7161C86.1602 16.3048 85.9749 15.9845 85.6483 15.7552C85.3249 15.526 84.9041 15.4114 84.386 15.4114C84.0217 15.4114 83.7092 15.4663 83.4486 15.5762C83.188 15.6861 82.9886 15.8353 82.8504 16.0237C82.7122 16.2121 82.6416 16.4272 82.6384 16.669C82.6384 16.87 82.684 17.0443 82.775 17.1919C82.8692 17.3395 82.9964 17.4651 83.1566 17.5687C83.3167 17.6692 83.4941 17.754 83.6888 17.823C83.8835 17.8921 84.0798 17.9502 84.2776 17.9973L85.182 18.2234C85.5463 18.3082 85.8964 18.4228 86.2324 18.5673C86.5715 18.7117 86.8746 18.8939 87.1415 19.1137C87.4115 19.3335 87.6251 19.5988 87.7821 19.9097C87.9391 20.2206 88.0176 20.5849 88.0176 21.0025C88.0176 21.5677 87.8732 22.0655 87.5843 22.4957C87.2954 22.9227 86.8777 23.2572 86.3313 23.499C85.7881 23.7376 85.1302 23.857 84.3577 23.857C83.6072 23.857 82.9556 23.7408 82.4029 23.5084C81.8534 23.276 81.4232 22.9369 81.1123 22.491C80.8045 22.0451 80.6381 21.5018 80.613 20.8612H82.3323C82.3574 21.1972 82.461 21.4767 82.6431 21.6996C82.8253 21.9226 83.0624 22.089 83.3544 22.1989C83.6496 22.3088 83.9793 22.3638 84.3436 22.3638C84.7235 22.3638 85.0564 22.3073 85.3421 22.1942C85.631 22.078 85.8571 21.9179 86.0204 21.7138C86.1837 21.5065 86.2669 21.2647 86.2701 20.9884C86.2669 20.7372 86.1931 20.5299 86.0487 20.3666C85.9042 20.2002 85.7017 20.062 85.4411 19.9521C85.1836 19.8391 84.8821 19.7386 84.5367 19.6506L83.4392 19.368C82.6447 19.1639 82.0167 18.8546 81.5551 18.4401C81.0966 18.0225 80.8674 17.4682 80.8674 16.7774C80.8674 16.209 81.0212 15.7113 81.329 15.2842C81.6398 14.8571 82.0622 14.5258 82.596 14.2903C83.1299 14.0517 83.7344 13.9323 84.4095 13.9323C85.0941 13.9323 85.6939 14.0517 86.2088 14.2903C86.727 14.5258 87.1336 14.854 87.4288 15.2748C87.724 15.6924 87.8763 16.1729 87.8857 16.7161H86.2041ZM89.1516 15.5291V14.0642H96.8483V15.5291H93.8666V23.7109H92.1332V15.5291H89.1516ZM98.332 23.7109V14.0642H101.95C102.691 14.0642 103.312 14.193 103.815 14.4505C104.32 14.708 104.702 15.0691 104.959 15.5338C105.22 15.9954 105.35 16.534 105.35 17.1495C105.35 17.7681 105.218 18.3051 104.955 18.7604C104.694 19.2126 104.309 19.5627 103.801 19.8108C103.292 20.0557 102.667 20.1782 101.926 20.1782H99.3494V18.7274H101.69C102.124 18.7274 102.479 18.6678 102.755 18.5484C103.031 18.426 103.235 18.2485 103.367 18.0162C103.502 17.7807 103.57 17.4918 103.57 17.1495C103.57 16.8072 103.502 16.5152 103.367 16.2734C103.232 16.0284 103.027 15.8431 102.75 15.7175C102.474 15.5888 102.118 15.5244 101.681 15.5244H100.08V23.7109H98.332ZM103.316 19.3398L105.704 23.7109H103.754L101.408 19.3398H103.316ZM105.924 14.0642H107.897L110.257 18.3318H110.352L112.711 14.0642H114.685L111.176 20.1123V23.7109H109.433V20.1123L105.924 14.0642ZM124.455 16.7161C124.411 16.3048 124.226 15.9845 123.9 15.7552C123.576 15.526 123.155 15.4114 122.637 15.4114C122.273 15.4114 121.961 15.4663 121.7 15.5762C121.439 15.6861 121.24 15.8353 121.102 16.0237C120.963 16.2121 120.893 16.4272 120.89 16.669C120.89 16.87 120.935 17.0443 121.026 17.1919C121.121 17.3395 121.248 17.4651 121.408 17.5687C121.568 17.6692 121.745 17.754 121.94 17.823C122.135 17.8921 122.331 17.9502 122.529 17.9973L123.433 18.2234C123.798 18.3082 124.148 18.4228 124.484 18.5673C124.823 18.7117 125.126 18.8939 125.393 19.1137C125.663 19.3335 125.876 19.5988 126.033 19.9097C126.19 20.2206 126.269 20.5849 126.269 21.0025C126.269 21.5677 126.124 22.0655 125.836 22.4957C125.547 22.9227 125.129 23.2572 124.583 23.499C124.039 23.7376 123.381 23.857 122.609 23.857C121.858 23.857 121.207 23.7408 120.654 23.5084C120.105 23.276 119.674 22.9369 119.364 22.491C119.056 22.0451 118.889 21.5018 118.864 20.8612H120.584C120.609 21.1972 120.712 21.4767 120.894 21.6996C121.077 21.9226 121.314 22.089 121.606 22.1989C121.901 22.3088 122.231 22.3638 122.595 22.3638C122.975 22.3638 123.308 22.3073 123.593 22.1942C123.882 22.078 124.108 21.9179 124.272 21.7138C124.435 21.5065 124.518 21.2647 124.521 20.9884C124.518 20.7372 124.444 20.5299 124.3 20.3666C124.156 20.2002 123.953 20.062 123.692 19.9521C123.435 19.8391 123.133 19.7386 122.788 19.6506L121.69 19.368C120.896 19.1639 120.268 18.8546 119.806 18.4401C119.348 18.0225 119.119 17.4682 119.119 16.7774C119.119 16.209 119.272 15.7113 119.58 15.2842C119.891 14.8571 120.313 14.5258 120.847 14.2903C121.381 14.0517 121.986 13.9323 122.661 13.9323C123.345 13.9323 123.945 14.0517 124.46 14.2903C124.978 14.5258 125.385 14.854 125.68 15.2748C125.975 15.6924 126.128 16.1729 126.137 16.7161H124.455ZM127.827 23.7109V14.0642H134.101V15.5291H129.574V18.1481H133.776V19.613H129.574V22.246H134.139V23.7109H127.827ZM135.884 23.7109V14.0642H139.501C140.242 14.0642 140.864 14.193 141.367 14.4505C141.872 14.708 142.254 15.0691 142.511 15.5338C142.772 15.9954 142.902 16.534 142.902 17.1495C142.902 17.7681 142.77 18.3051 142.506 18.7604C142.246 19.2126 141.861 19.5627 141.352 19.8108C140.844 20.0557 140.219 20.1782 139.478 20.1782H136.901V18.7274H139.242C139.676 18.7274 140.03 18.6678 140.307 18.5484C140.583 18.426 140.787 18.2485 140.919 18.0162C141.054 17.7807 141.122 17.4918 141.122 17.1495C141.122 16.8072 141.054 16.5152 140.919 16.2734C140.784 16.0284 140.578 15.8431 140.302 15.7175C140.026 15.5888 139.669 15.5244 139.233 15.5244H137.631V23.7109H135.884ZM140.867 19.3398L143.255 23.7109H141.305L138.96 19.3398H140.867ZM145.555 14.0642L148.066 21.6572H148.165L150.671 14.0642H152.592L149.192 23.7109H147.034L143.638 14.0642H145.555ZM155.611 14.0642V23.7109H153.863V14.0642H155.611ZM165.76 17.319H163.998C163.948 17.0301 163.856 16.7742 163.721 16.5513C163.586 16.3252 163.418 16.1336 163.217 15.9766C163.016 15.8196 162.786 15.7018 162.529 15.6233C162.274 15.5417 162 15.5009 161.705 15.5009C161.18 15.5009 160.715 15.6328 160.31 15.8965C159.905 16.1572 159.588 16.5403 159.359 17.0458C159.13 17.5483 159.015 18.1622 159.015 18.8876C159.015 19.6255 159.13 20.2473 159.359 20.7529C159.591 21.2553 159.908 21.6353 160.31 21.8928C160.715 22.1471 161.179 22.2743 161.7 22.2743C161.989 22.2743 162.259 22.2366 162.51 22.1612C162.764 22.0827 162.992 21.9681 163.193 21.8174C163.397 21.6667 163.568 21.4814 163.706 21.2616C163.848 21.0418 163.945 20.7905 163.998 20.5079L165.76 20.5173C165.694 20.9758 165.551 21.406 165.331 21.808C165.115 22.2099 164.831 22.5648 164.479 22.8725C164.127 23.1771 163.716 23.4158 163.245 23.5885C162.774 23.758 162.251 23.8428 161.676 23.8428C160.828 23.8428 160.072 23.6466 159.406 23.254C158.74 22.8615 158.216 22.2947 157.833 21.5536C157.45 20.8125 157.258 19.9238 157.258 18.8876C157.258 17.8482 157.451 16.9595 157.837 16.2215C158.224 15.4805 158.75 14.9136 159.415 14.5211C160.081 14.1286 160.835 13.9323 161.676 13.9323C162.213 13.9323 162.713 14.0077 163.174 14.1584C163.636 14.3092 164.047 14.5305 164.408 14.8226C164.769 15.1115 165.066 15.4663 165.299 15.8871C165.534 16.3048 165.688 16.7821 165.76 17.319ZM167.36 23.7109V14.0642H173.635V15.5291H169.108V18.1481H173.31V19.613H169.108V22.246H173.672V23.7109H167.36ZM178.708 14.0642H180.846L183.71 21.0543H183.823L186.687 14.0642H188.825V23.7109H187.148V17.0835H187.059L184.393 23.6827H183.14L180.474 17.0694H180.384V23.7109H178.708V14.0642ZM199.348 18.8876C199.348 19.927 199.154 20.8172 198.764 21.5583C198.378 22.2963 197.85 22.8615 197.181 23.254C196.516 23.6466 195.761 23.8428 194.916 23.8428C194.071 23.8428 193.314 23.6466 192.645 23.254C191.98 22.8584 191.452 22.2916 191.063 21.5536C190.677 20.8125 190.483 19.9238 190.483 18.8876C190.483 17.8482 190.677 16.9595 191.063 16.2215C191.452 15.4805 191.98 14.9136 192.645 14.5211C193.314 14.1286 194.071 13.9323 194.916 13.9323C195.761 13.9323 196.516 14.1286 197.181 14.5211C197.85 14.9136 198.378 15.4805 198.764 16.2215C199.154 16.9595 199.348 17.8482 199.348 18.8876ZM197.591 18.8876C197.591 18.1559 197.477 17.5389 197.247 17.0364C197.021 16.5309 196.707 16.1493 196.305 15.8918C195.903 15.6312 195.44 15.5009 194.916 15.5009C194.391 15.5009 193.928 15.6312 193.526 15.8918C193.124 16.1493 192.809 16.5309 192.579 17.0364C192.353 17.5389 192.24 18.1559 192.24 18.8876C192.24 19.6192 192.353 20.2379 192.579 20.7434C192.809 21.2459 193.124 21.6274 193.526 21.888C193.928 22.1455 194.391 22.2743 194.916 22.2743C195.44 22.2743 195.903 22.1455 196.305 21.888C196.707 21.6274 197.021 21.2459 197.247 20.7434C197.477 20.2379 197.591 19.6192 197.591 18.8876ZM204.269 23.7109H201V14.0642H204.335C205.293 14.0642 206.116 14.2573 206.803 14.6436C207.494 15.0267 208.025 15.5778 208.396 16.2969C208.766 17.016 208.951 17.8764 208.951 18.8782C208.951 19.883 208.764 20.7466 208.391 21.4688C208.02 22.1911 207.485 22.7453 206.785 23.1316C206.087 23.5178 205.249 23.7109 204.269 23.7109ZM202.748 22.1989H204.184C204.857 22.1989 205.417 22.0765 205.866 21.8315C206.315 21.5834 206.653 21.2145 206.879 20.7246C207.105 20.2316 207.218 19.6161 207.218 18.8782C207.218 18.1402 207.105 17.5279 206.879 17.0411C206.653 16.5513 206.318 16.1854 205.875 15.9436C205.436 15.6987 204.889 15.5762 204.236 15.5762H202.748V22.1989ZM216.693 14.0642H218.44V20.3666C218.44 21.0575 218.277 21.6651 217.95 22.1895C217.627 22.7139 217.172 23.1237 216.584 23.4189C215.997 23.7109 215.311 23.857 214.526 23.857C213.738 23.857 213.05 23.7109 212.463 23.4189C211.876 23.1237 211.42 22.7139 211.097 22.1895C210.773 21.6651 210.612 21.0575 210.612 20.3666V14.0642H212.359V20.2206C212.359 20.6225 212.447 20.9805 212.623 21.2945C212.802 21.6086 213.053 21.8551 213.377 22.0341C213.7 22.2099 214.083 22.2978 214.526 22.2978C214.969 22.2978 215.352 22.2099 215.675 22.0341C216.002 21.8551 216.253 21.6086 216.429 21.2945C216.605 20.9805 216.693 20.6225 216.693 20.2206V14.0642ZM220.34 23.7109V14.0642H222.087V22.246H226.336V23.7109H220.34ZM227.853 23.7109V14.0642H234.127V15.5291H229.6V18.1481H233.802V19.613H229.6V22.246H234.164V23.7109H227.853Z" fill="black"/>
<g filter="url(#filter0_d_1957_3)">
<rect x="7.19922" y="7.19922" width="27" height="27" rx="13.5" fill="white" shape-rendering="crispEdges"/>
<path d="M15.7526 13.8633C15.4905 13.8633 15.2764 14.0773 15.2764 14.3395V22.465L14.1967 23.0058C14.1677 23.0191 14.143 23.0403 14.1255 23.067C14.1079 23.0937 14.0983 23.1248 14.0977 23.1567V27.2918H15.0454V26.0612C15.0454 25.9622 15.1255 25.882 15.2246 25.882H17.219C17.3181 25.882 17.3982 25.9622 17.3982 26.0612V27.2918H18.3459V26.0612C18.3459 25.9622 18.4261 25.882 18.5251 25.882H20.5196C20.6186 25.882 20.6988 25.9622 20.6988 26.0612V27.2918H21.6465V27.2965H23.0657V25.5001C23.0657 25.4011 23.1459 25.3209 23.2449 25.3209H25.7062C25.8052 25.3209 25.8853 25.4011 25.8853 25.5001V27.2965H27.2904V19.3422C27.2904 19.0451 27.05 18.8094 26.7576 18.8094H22.1793C21.8822 18.8094 21.6465 19.0499 21.6465 19.3422V21.1622L20.463 21.753V14.3395C20.463 14.0773 20.2489 13.8633 19.9868 13.8633H19.0532C18.791 13.8633 18.577 14.0773 18.577 14.3395V22.6946L18.1243 22.9209C18.0977 22.935 18.0679 22.9419 18.0378 22.941C18.0077 22.94 17.9784 22.9313 17.9527 22.9156C17.9271 22.8999 17.9059 22.8778 17.8913 22.8515C17.8768 22.8251 17.8693 22.7954 17.8697 22.7653V21.4498C17.8697 21.3225 17.733 21.2377 17.6151 21.2942L17.1625 21.5206V14.3395C17.1625 14.0773 16.9484 13.8633 16.6862 13.8633H15.7526ZM15.7479 22.2292V21.4027H16.6909V21.7568L15.7479 22.2292ZM19.9915 21.4027V21.9888L19.0485 22.4593V21.4027H19.9915ZM15.7479 15.7493H16.6909V16.6876H15.7479V15.7493ZM16.6909 18.5736V19.5167H15.7479V18.5736H16.6909ZM19.0485 15.7493H19.9915V16.6876H19.0485V15.7493ZM19.9915 18.5736V19.5167H19.0485V18.5736H19.9915ZM22.8347 20.7096C22.698 20.7096 22.5848 20.5964 22.5848 20.4597V20.0023C22.5848 19.8656 22.698 19.7524 22.8347 19.7524H23.2779C23.4146 19.7524 23.5278 19.8656 23.5278 20.0023V20.4597C23.5278 20.6011 23.4146 20.7096 23.2779 20.7096H22.8347ZM24.9423 20.0023V20.4597C24.9423 20.6011 24.8292 20.7096 24.6924 20.7096H24.2492C24.1125 20.7096 23.9993 20.5964 23.9993 20.4597V20.0023C23.9993 19.8656 24.1125 19.7524 24.2492 19.7524H24.6924C24.8292 19.7524 24.9423 19.8656 24.9423 20.0023ZM26.3568 20.0023V20.4597C26.3568 20.6011 26.2437 20.7096 26.1069 20.7096H25.6637C25.527 20.7096 25.4138 20.5964 25.4138 20.4597V20.0023C25.4138 19.8656 25.527 19.7524 25.6637 19.7524H26.1069C26.2437 19.7524 26.3568 19.8656 26.3568 20.0023ZM23.5278 21.4121V21.8695C23.5278 22.0062 23.4146 22.1194 23.2779 22.1194H22.8347C22.698 22.1194 22.5848 22.0062 22.5848 21.8695V21.4121C22.5848 21.2754 22.698 21.1622 22.8347 21.1622H23.2779C23.4146 21.1622 23.5278 21.2754 23.5278 21.4121ZM24.9423 21.4121V21.8695C24.9423 22.0062 24.8292 22.1194 24.6924 22.1194H24.2492C24.1125 22.1194 23.9993 22.0062 23.9993 21.8695V21.4121C23.9993 21.2754 24.1125 21.1622 24.2492 21.1622H24.6924C24.8292 21.1622 24.9423 21.2754 24.9423 21.4121ZM26.3568 21.4121V21.8695C26.3568 22.0062 26.2437 22.1194 26.1069 22.1194H25.6637C25.527 22.1194 25.4138 22.0062 25.4138 21.8695V21.4121C25.4138 21.2754 25.527 21.1622 25.6637 21.1622H26.1069C26.2437 21.1622 26.3568 21.2754 26.3568 21.4121ZM23.5278 22.8172V23.2746C23.5278 23.416 23.4146 23.5245 23.2779 23.5245H22.8347C22.698 23.5245 22.5848 23.4113 22.5848 23.2746V22.8172C22.5848 22.6805 22.698 22.5673 22.8347 22.5673H23.2779C23.4146 22.5673 23.5278 22.6805 23.5278 22.8172ZM24.9423 22.8172V23.2746C24.9423 23.416 24.8292 23.5245 24.6924 23.5245H24.2492C24.1125 23.5245 23.9993 23.4113 23.9993 23.2746V22.8172C23.9993 22.6805 24.1125 22.5673 24.2492 22.5673H24.6924C24.8292 22.5673 24.9423 22.6805 24.9423 22.8172ZM26.3568 22.8172V23.2746C26.3568 23.416 26.2437 23.5245 26.1069 23.5245H25.6637C25.527 23.5245 25.4138 23.4113 25.4138 23.2746V22.8172C25.4138 22.6805 25.527 22.5673 25.6637 22.5673H26.1069C26.2437 22.5673 26.3568 22.6805 26.3568 22.8172Z" fill="#00B1EF"/>
</g>
<defs>
<filter id="filter0_d_1957_3" x="-0.000781059" y="-0.000781059" width="41.4" height="41.4" filterUnits="userSpaceOnUse" color-interpolation-filters="sRGB">
<feFlood flood-opacity="0" result="BackgroundImageFix"/>
<feColorMatrix in="SourceAlpha" type="matrix" values="0 0 0 0 0 0 0 0 0 0 0 0 0 0 0 0 0 0 127 0" result="hardAlpha"/>
<feOffset/>
<feGaussianBlur stdDeviation="3.6"/>
<feComposite in2="hardAlpha" operator="out"/>
<feColorMatrix type="matrix" values="0 0 0 0 0 0 0 0 0 0 0 0 0 0 0 0 0 0 0.25 0"/>
<feBlend mode="normal" in2="BackgroundImageFix" result="effect1_dropShadow_1957_3"/>
<feBlend mode="normal" in="SourceGraphic" in2="effect1_dropShadow_1957_3" result="shape"/>
</filter>
</defs>
</svg>
