<svg width="119" height="35" viewBox="0 0 119 35" fill="none" xmlns="http://www.w3.org/2000/svg">
<rect width="119" height="34.469" rx="17.2345" fill="#00B1EF"/>
<path d="M16.7987 22.7344V15.3638H13.9968V13.7816H21.3674V15.3638H18.5721V22.7344H16.7987ZM25.9166 17.546L28.3888 13.7816H30.4457L26.7934 19.3524V22.7344H25.02V19.3524L21.3479 13.7816H23.4707L25.9166 17.546ZM35.364 20.0973H32.9973V22.7344H31.2173V13.7816H35.364C37.1704 13.7816 38.6274 14.9221 38.6274 16.9527C38.6274 18.8711 37.1704 20.0973 35.364 20.0973ZM35.1597 15.3243H32.9973V18.5613H35.1597C36.1024 18.5613 36.7946 17.9086 36.7946 16.9527C36.7946 15.911 36.0892 15.3243 35.1597 15.3243ZM46.3937 21.1983V22.7344H39.6627V13.7816H46.2948V15.3243H41.4427V17.3878H45.6883V18.9304H41.4427V21.1983H46.3937ZM50.541 13.7816H54.3977C57.2853 13.7816 58.9202 15.4957 58.9202 18.2514C58.9202 21.0269 57.2523 22.7344 54.3977 22.7344H50.541V13.7816ZM54.2065 21.1983C56.2304 21.1983 57.0941 20.1105 57.0941 18.2514C57.0941 16.3791 56.2107 15.3177 54.2065 15.3177H52.321V21.1983H54.2065ZM66.4295 22.7344L65.7702 20.9807H61.6169L60.951 22.7344H59.0523L62.6651 13.7816H64.7088L68.3281 22.7344H66.4295ZM63.6935 15.6407L62.1179 19.5633H65.256L63.6935 15.6407ZM70.1414 22.7344V15.3638H67.3395V13.7816H74.71V15.3638H71.9148V22.7344H70.1414ZM81.1051 22.7344L80.4459 20.9807H76.2925L75.6267 22.7344H73.728L77.3408 13.7816H79.3845L83.0038 22.7344H81.1051ZM78.3692 15.6407L76.7936 19.5633H79.9317L78.3692 15.6407Z" fill="white"/>
<path d="M97.3327 12.7842L98.2035 11.9142L102.946 16.6554C103.023 16.7313 103.083 16.8217 103.125 16.9212C103.166 17.0207 103.188 17.1274 103.188 17.2352C103.188 17.343 103.166 17.4497 103.125 17.5492C103.083 17.6487 103.023 17.739 102.946 17.815L98.2035 22.5586L97.3336 21.6887L101.785 17.2364L97.3327 12.7842Z" fill="white"/>
</svg>
