<svg width="48" height="48" viewBox="0 0 48 48" fill="none" xmlns="http://www.w3.org/2000/svg">
<path d="M0 24C0 10.7452 10.7452 0 24 0C37.2548 0 48 10.7452 48 24C48 37.2548 37.2548 48 24 48C10.7452 48 0 37.2548 0 24Z" fill="white" fill-opacity="0.69"/>
<path d="M13.3333 18.6666L12.3907 19.6093L11.448 18.6666L12.3907 17.724L13.3333 18.6666ZM20 34.6666C19.6464 34.6666 19.3072 34.5262 19.0572 34.2761C18.8071 34.0261 18.6667 33.6869 18.6667 33.3333C18.6667 32.9797 18.8071 32.6406 19.0572 32.3905C19.3072 32.1405 19.6464 32 20 32V34.6666ZM19.0573 26.276L12.3907 19.6093L14.276 17.724L20.9427 24.3906L19.0573 26.276ZM12.3907 17.724L19.0573 11.0573L20.9427 12.9426L14.276 19.6093L12.3907 17.724ZM13.3333 17.3333H27.3333V20H13.3333V17.3333ZM27.3333 34.6666H20V32H27.3333V34.6666ZM36 26C36 28.2985 35.0869 30.5029 33.4616 32.1282C31.8363 33.7536 29.6319 34.6666 27.3333 34.6666V32C28.1213 32 28.9015 31.8448 29.6294 31.5433C30.3574 31.2417 31.0188 30.7998 31.576 30.2426C32.1331 29.6855 32.5751 29.024 32.8766 28.2961C33.1781 27.5681 33.3333 26.7879 33.3333 26H36ZM27.3333 17.3333C29.6319 17.3333 31.8363 18.2464 33.4616 19.8717C35.0869 21.497 36 23.7014 36 26H33.3333C33.3333 25.212 33.1781 24.4318 32.8766 23.7039C32.5751 22.9759 32.1331 22.3145 31.576 21.7573C31.0188 21.2002 30.3574 20.7582 29.6294 20.4567C28.9015 20.1552 28.1213 20 27.3333 20V17.3333Z" fill="black"/>
</svg>
