<svg width="46" height="40" viewBox="0 0 46 40" fill="none" xmlns="http://www.w3.org/2000/svg">
<path d="M33.0125 9.52332C36.0547 11.9936 38 15.7718 38 19.9999C38 24.228 36.0547 28.0014 33.0125 30.4764C32.5297 30.8702 31.8219 30.7952 31.4281 30.3124C31.0344 29.8296 31.1094 29.1218 31.5922 28.728C34.1328 26.6655 35.75 23.5249 35.75 19.9999C35.75 16.4749 34.1328 13.3343 31.5922 11.2671C31.1094 10.8733 31.0391 10.1655 31.4281 9.6827C31.8172 9.19989 32.5297 9.12957 33.0125 9.51864V9.52332ZM30.1766 13.0155C32.2016 14.6655 33.5 17.1827 33.5 19.9999C33.5 22.8171 32.2016 25.3343 30.1766 26.9843C29.6938 27.378 28.9859 27.303 28.5922 26.8202C28.1984 26.3374 28.2734 25.6296 28.7562 25.2358C30.2797 23.9983 31.25 22.1139 31.25 19.9999C31.25 17.8858 30.2797 16.0014 28.7562 14.7593C28.2734 14.3655 28.2031 13.6577 28.5922 13.1749C28.9812 12.6921 29.6938 12.6218 30.1766 13.0108V13.0155ZM27.3406 16.5077C28.3484 17.3327 29 18.5889 29 19.9999C29 21.4108 28.3484 22.6671 27.3406 23.4921C26.8578 23.8858 26.15 23.8108 25.7562 23.328C25.3625 22.8452 25.4375 22.1374 25.9203 21.7436C26.4266 21.3311 26.75 20.703 26.75 19.9999C26.75 19.2968 26.4266 18.6686 25.9203 18.2514C25.4375 17.8577 25.3672 17.1499 25.7562 16.6671C26.1453 16.1843 26.8578 16.1139 27.3406 16.503V16.5077ZM22.1141 9.63114C22.6531 9.87489 23 10.4093 23 10.9999V28.9999C23 29.5905 22.6531 30.1249 22.1141 30.3686C21.575 30.6124 20.9422 30.5139 20.5016 30.1202L14.1781 24.4999H11C9.34531 24.4999 8 23.1546 8 21.4999V18.4999C8 16.8452 9.34531 15.4999 11 15.4999H14.1781L20.5016 9.87957C20.9422 9.48582 21.575 9.39207 22.1141 9.63114Z" fill="white"/>
</svg>
