<svg width="42" height="80" viewBox="0 0 42 80" fill="none" xmlns="http://www.w3.org/2000/svg">
<g clip-path="url(#clip0_20_2016)">
<path d="M30 80C36.6274 80 42 74.6274 42 68V12C42 5.37258 36.6274 0 30 0H12C5.37258 0 0 5.37258 0 12V68C0 74.6274 5.37259 80 12 80H30Z" fill="white" fill-opacity="0.24"/>
<path fill-rule="evenodd" clip-rule="evenodd" d="M27.4871 41.2372C27.8152 40.909 27.9995 40.464 27.9995 39.9999C27.9995 39.5359 27.8152 39.0909 27.4871 38.7627L17.5874 28.8629C17.2573 28.5442 16.8153 28.3678 16.3564 28.3717C15.8976 28.3757 15.4587 28.5598 15.1342 28.8842C14.8097 29.2087 14.6257 29.6476 14.6217 30.1065C14.6177 30.5653 14.7941 31.0074 15.1129 31.3374L23.7754 39.9999L15.1129 48.6624C14.7941 48.9925 14.6177 49.4345 14.6217 49.8934C14.6257 50.3522 14.8097 50.7911 15.1342 51.1156C15.4587 51.4401 15.8976 51.6241 16.3564 51.6281C16.8153 51.6321 17.2573 51.4557 17.5874 51.1369L27.4871 41.2372Z" fill="white"/>
</g>
<defs>
<clipPath id="clip0_20_2016">
<path d="M30 80C36.6274 80 42 74.6274 42 68V12C42 5.37258 36.6274 0 30 0H12C5.37258 0 0 5.37258 0 12V68C0 74.6274 5.37259 80 12 80H30Z" fill="white"/>
</clipPath>
</defs>
</svg>
