<svg width="64" height="64" viewBox="0 0 64 64" fill="none" xmlns="http://www.w3.org/2000/svg">
<g filter="url(#filter0_d_20_1363)">
<rect x="4" y="2" width="56" height="56" rx="28" fill="white" shape-rendering="crispEdges"/>
<path fill-rule="evenodd" clip-rule="evenodd" d="M30.4998 20C29.1444 20.0001 27.8086 20.3244 26.604 20.9457C25.3994 21.567 24.3609 22.4674 23.575 23.5718C22.7891 24.6761 22.2788 25.9523 22.0865 27.294C21.8942 28.6357 22.0255 30.004 22.4695 31.2846C22.9136 32.5652 23.6574 33.7211 24.639 34.6557C25.6206 35.5904 26.8115 36.2768 28.1123 36.6576C29.4131 37.0384 30.7861 37.1026 32.1168 36.8449C33.4475 36.5872 34.6972 36.015 35.7618 35.176L39.4138 38.828C39.6024 39.0102 39.855 39.111 40.1172 39.1087C40.3794 39.1064 40.6302 39.0012 40.8156 38.8158C41.001 38.6304 41.1062 38.3796 41.1084 38.1174C41.1107 37.8552 41.0099 37.6026 40.8278 37.414L37.1758 33.762C38.1638 32.5086 38.7789 31.0024 38.9509 29.4157C39.1228 27.8291 38.8446 26.226 38.148 24.7901C37.4514 23.3542 36.3646 22.1434 35.0121 21.2962C33.6595 20.4491 32.0957 19.9999 30.4998 20ZM23.9998 28.5C23.9998 26.7761 24.6846 25.1228 25.9036 23.9038C27.1226 22.6848 28.7759 22 30.4998 22C32.2237 22 33.877 22.6848 35.096 23.9038C36.3149 25.1228 36.9998 26.7761 36.9998 28.5C36.9998 30.2239 36.3149 31.8772 35.096 33.0962C33.877 34.3152 32.2237 35 30.4998 35C28.7759 35 27.1226 34.3152 25.9036 33.0962C24.6846 31.8772 23.9998 30.2239 23.9998 28.5Z" fill="black"/>
</g>
<defs>
<filter id="filter0_d_20_1363" x="0" y="0" width="64" height="64" filterUnits="userSpaceOnUse" color-interpolation-filters="sRGB">
<feFlood flood-opacity="0" result="BackgroundImageFix"/>
<feColorMatrix in="SourceAlpha" type="matrix" values="0 0 0 0 0 0 0 0 0 0 0 0 0 0 0 0 0 0 127 0" result="hardAlpha"/>
<feOffset dy="2"/>
<feGaussianBlur stdDeviation="2"/>
<feComposite in2="hardAlpha" operator="out"/>
<feColorMatrix type="matrix" values="0 0 0 0 0 0 0 0 0 0 0 0 0 0 0 0 0 0 0.25 0"/>
<feBlend mode="normal" in2="BackgroundImageFix" result="effect1_dropShadow_20_1363"/>
<feBlend mode="normal" in="SourceGraphic" in2="effect1_dropShadow_20_1363" result="shape"/>
</filter>
</defs>
</svg>
