<svg width="65" height="65" viewBox="0 0 65 65" fill="none" xmlns="http://www.w3.org/2000/svg">
<path d="M0 12C0 5.37259 5.37258 0 12 0H52.8937C59.5211 0 64.8937 5.37258 64.8937 12V52.8937C64.8937 59.5211 59.5211 64.8937 52.8937 64.8937H12C5.37259 64.8937 0 59.5211 0 52.8937V12Z" fill="black"/>
<g clip-path="url(#clip0_20_1972)">
<path d="M35.6999 29.7717L48.4284 14.9756H45.4118L34.3601 27.8225L25.5326 14.9756H15.3512L28.6999 34.4027L15.3512 49.9184H18.3677L30.0392 36.3516L39.3613 49.9184H49.5427L35.6991 29.7717H35.6999ZM31.5685 34.5736L30.2158 32.6392L19.4545 17.2463H24.0877L32.7718 29.669L34.1242 31.6034L45.4132 47.7508H40.7805L31.5685 34.5744V34.5736Z" fill="white"/>
</g>
<defs>
<clipPath id="clip0_20_1972">
<rect width="34.9428" height="34.9428" fill="white" transform="translate(14.9756 14.9756)"/>
</clipPath>
</defs>
</svg>
