<svg width="34" height="34" viewBox="0 0 34 34" fill="none" xmlns="http://www.w3.org/2000/svg">
<path d="M0 12C0 5.37259 5.37258 0 12 0H22C28.6274 0 34 5.37259 34 12V21.49C34 28.1174 28.6274 33.49 22 33.49H12C5.37258 33.49 0 28.1174 0 21.49V12Z" fill="white" fill-opacity="0.8"/>
<path d="M20.755 19H19.965L19.685 18.73C20.699 17.5541 21.2562 16.0527 21.255 14.5C21.255 13.2144 20.8738 11.9577 20.1596 10.8888C19.4453 9.81988 18.4302 8.98676 17.2424 8.49479C16.0547 8.00282 14.7478 7.87409 13.4869 8.1249C12.226 8.3757 11.0679 8.99477 10.1588 9.90381C9.24977 10.8128 8.63071 11.971 8.3799 13.2319C8.1291 14.4928 8.25782 15.7997 8.74979 16.9874C9.24176 18.1752 10.0749 19.1903 11.1438 19.9046C12.2127 20.6188 13.4694 21 14.755 21C16.365 21 17.845 20.41 18.985 19.43L19.255 19.71V20.5L24.255 25.49L25.745 24L20.755 19ZM14.755 19C12.265 19 10.255 16.99 10.255 14.5C10.255 12.01 12.265 10 14.755 10C17.245 10 19.255 12.01 19.255 14.5C19.255 16.99 17.245 19 14.755 19ZM12.255 14H17.255V15H12.255V14Z" fill="#555555"/>
</svg>
