<svg width="595" height="80" viewBox="0 0 595 80" fill="none" xmlns="http://www.w3.org/2000/svg">
<rect x="0.5" y="0.5" width="594" height="79" fill="white" fill-opacity="0.61" stroke="white"/>
<g filter="url(#filter0_d_1980_738)">
<circle cx="95.2113" cy="43.2113" r="20.5686" fill="#3C771E" stroke="#3C771E" stroke-width="1.28553"/>
<path d="M101.031 38.7793C101.171 38.6387 101.25 38.4481 101.25 38.2493C101.25 38.0506 101.171 37.86 101.031 37.7193L95.7808 32.4693C95.6402 32.3289 95.4496 32.25 95.2508 32.25C95.0521 32.25 94.8614 32.3289 94.7208 32.4693L89.4708 37.7193C89.3383 37.8615 89.2662 38.0496 89.2696 38.2439C89.2731 38.4382 89.3518 38.6235 89.4892 38.761C89.6266 38.8984 89.812 38.9771 90.0063 38.9805C90.2006 38.9839 90.3886 38.9118 90.5308 38.7793L94.5008 34.8093V51.1893L90.5308 47.2193C90.4622 47.1457 90.3794 47.0866 90.2874 47.0456C90.1954 47.0046 90.096 46.9825 89.9953 46.9807C89.8946 46.979 89.7946 46.9975 89.7012 47.0352C89.6078 47.0729 89.523 47.1291 89.4518 47.2003C89.3806 47.2715 89.3244 47.3564 89.2867 47.4497C89.249 47.5431 89.2305 47.6432 89.2322 47.7439C89.234 47.8446 89.256 47.9439 89.297 48.0359C89.338 48.1279 89.3971 48.2107 89.4708 48.2793L94.7208 53.5293C94.8614 53.6698 95.0521 53.7487 95.2508 53.7487C95.4496 53.7487 95.6402 53.6698 95.7808 53.5293L101.031 48.2793C101.105 48.2107 101.164 48.1279 101.205 48.0359C101.246 47.9439 101.268 47.8446 101.269 47.7439C101.271 47.6432 101.253 47.5431 101.215 47.4497C101.177 47.3564 101.121 47.2715 101.05 47.2003C100.979 47.1291 100.894 47.0729 100.8 47.0352C100.707 46.9975 100.607 46.979 100.506 46.9807C100.406 46.9825 100.306 47.0046 100.214 47.0456C100.122 47.0866 100.039 47.1457 99.9708 47.2193L96.0008 51.1893V34.8093L99.9708 38.7793C100.111 38.9198 100.302 38.9987 100.501 38.9987C100.7 38.9987 100.89 38.9198 101.031 38.7793Z" fill="white"/>
</g>
<path d="M124.817 39.6289V30.1876H126.813V34.0831H130.865V30.1876H132.857V39.6289H130.865V35.7288H126.813V39.6289H124.817ZM137.692 39.7672C136.964 39.7672 136.337 39.6197 135.812 39.3246C135.289 39.0265 134.886 38.6055 134.604 38.0615C134.321 37.5144 134.18 36.8675 134.18 36.1207C134.18 35.3923 134.321 34.753 134.604 34.2029C134.886 33.6528 135.284 33.2241 135.798 32.9167C136.314 32.6094 136.92 32.4557 137.614 32.4557C138.081 32.4557 138.516 32.531 138.919 32.6816C139.324 32.8291 139.678 33.0519 139.979 33.3501C140.283 33.6482 140.52 34.0231 140.689 34.4749C140.858 34.9236 140.943 35.4492 140.943 36.0515V36.5909H134.963V35.3739H139.094C139.094 35.0911 139.032 34.8406 138.91 34.6224C138.787 34.4042 138.616 34.2336 138.398 34.1107C138.183 33.9847 137.932 33.9217 137.646 33.9217C137.348 33.9217 137.084 33.9909 136.853 34.1292C136.626 34.2644 136.448 34.4472 136.319 34.6777C136.19 34.9052 136.124 35.1587 136.12 35.4384V36.5955C136.12 36.9459 136.185 37.2486 136.314 37.5037C136.446 37.7588 136.632 37.9555 136.872 38.0938C137.112 38.2321 137.396 38.3012 137.725 38.3012C137.943 38.3012 138.143 38.2705 138.324 38.209C138.505 38.1476 138.661 38.0554 138.79 37.9324C138.919 37.8095 139.017 37.6589 139.085 37.4806L140.901 37.6005C140.809 38.0369 140.62 38.418 140.334 38.7438C140.051 39.0665 139.686 39.3185 139.237 39.4998C138.791 39.6781 138.276 39.7672 137.692 39.7672ZM142.224 39.6289V32.5479H144.188V39.6289H142.224ZM143.211 31.6351C142.919 31.6351 142.668 31.5383 142.459 31.3447C142.253 31.148 142.15 30.9129 142.15 30.6394C142.15 30.3689 142.253 30.1369 142.459 29.9433C142.668 29.7466 142.919 29.6482 143.211 29.6482C143.503 29.6482 143.752 29.7466 143.957 29.9433C144.166 30.1369 144.271 30.3689 144.271 30.6394C144.271 30.9129 144.166 31.148 143.957 31.3447C143.752 31.5383 143.503 31.6351 143.211 31.6351ZM148.951 42.4318C148.315 42.4318 147.77 42.3442 147.315 42.169C146.863 41.9969 146.503 41.7618 146.236 41.4637C145.969 41.1656 145.795 40.8306 145.715 40.4587L147.531 40.2144C147.587 40.3558 147.674 40.4879 147.794 40.6108C147.914 40.7338 148.072 40.8321 148.269 40.9059C148.469 40.9827 148.712 41.0211 148.997 41.0211C149.425 41.0211 149.776 40.9166 150.053 40.7077C150.333 40.5017 150.473 40.156 150.473 39.6704V38.375H150.39C150.304 38.5717 150.174 38.7576 150.002 38.9328C149.83 39.108 149.609 39.2509 149.339 39.3615C149.068 39.4722 148.745 39.5275 148.37 39.5275C147.839 39.5275 147.355 39.4046 146.918 39.1587C146.485 38.9097 146.139 38.5302 145.881 38.02C145.626 37.5068 145.498 36.8583 145.498 36.0746C145.498 35.2724 145.629 34.6024 145.89 34.0646C146.151 33.5268 146.499 33.1242 146.932 32.8568C147.369 32.5894 147.846 32.4557 148.366 32.4557C148.762 32.4557 149.094 32.5233 149.362 32.6586C149.629 32.7907 149.844 32.9567 150.007 33.1564C150.173 33.3531 150.3 33.5468 150.39 33.7373H150.463V32.5479H152.413V39.6981C152.413 40.3004 152.266 40.8045 151.971 41.2101C151.676 41.6158 151.267 41.9201 150.745 42.1229C150.225 42.3288 149.627 42.4318 148.951 42.4318ZM148.993 38.0523C149.309 38.0523 149.577 37.9739 149.795 37.8172C150.016 37.6574 150.185 37.4299 150.302 37.1349C150.422 36.8368 150.482 36.4803 150.482 36.0654C150.482 35.6505 150.423 35.2909 150.307 34.9866C150.19 34.6793 150.021 34.4411 149.8 34.2721C149.578 34.103 149.309 34.0185 148.993 34.0185C148.67 34.0185 148.398 34.1061 148.177 34.2813C147.956 34.4534 147.788 34.6931 147.674 35.0004C147.561 35.3078 147.504 35.6628 147.504 36.0654C147.504 36.4741 147.561 36.8276 147.674 37.1257C147.791 37.4207 147.959 37.6497 148.177 37.8126C148.398 37.9724 148.67 38.0523 148.993 38.0523ZM155.94 35.5352V39.6289H153.976V30.1876H155.885V33.7972H155.968C156.128 33.3793 156.386 33.0519 156.742 32.8153C157.099 32.5756 157.546 32.4557 158.084 32.4557C158.575 32.4557 159.004 32.5633 159.37 32.7784C159.739 32.9905 160.025 33.2963 160.227 33.6958C160.433 34.0923 160.535 34.5671 160.532 35.1203V39.6289H158.568V35.4707C158.571 35.0343 158.46 34.6946 158.236 34.4519C158.015 34.2091 157.704 34.0877 157.305 34.0877C157.037 34.0877 156.801 34.1445 156.595 34.2582C156.392 34.3719 156.232 34.5379 156.115 34.7561C156.002 34.9712 155.943 35.2309 155.94 35.5352ZM165.844 32.5479V34.0231H161.579V32.5479H165.844ZM162.547 30.8514H164.511V37.453C164.511 37.6343 164.539 37.7757 164.594 37.8771C164.65 37.9754 164.726 38.0446 164.825 38.0845C164.926 38.1245 165.043 38.1445 165.175 38.1445C165.267 38.1445 165.36 38.1368 165.452 38.1214C165.544 38.103 165.615 38.0892 165.664 38.0799L165.973 39.5413C165.874 39.572 165.736 39.6074 165.558 39.6473C165.379 39.6904 165.163 39.7165 164.908 39.7257C164.434 39.7442 164.02 39.6812 163.663 39.5367C163.31 39.3923 163.035 39.1679 162.838 38.8636C162.641 38.5594 162.544 38.1752 162.547 37.7111V30.8514Z" fill="black"/>
<path d="M124.981 55.793V55.2737L127.674 52.3744C127.941 52.0859 128.154 51.8191 128.313 51.5739C128.471 51.3287 128.587 51.0907 128.659 50.8599C128.731 50.6219 128.767 50.3839 128.767 50.1459C128.767 49.6771 128.626 49.3201 128.345 49.0749C128.064 48.8297 127.656 48.7071 127.123 48.7071C126.726 48.7071 126.351 48.7828 125.997 48.9342C125.651 49.0785 125.327 49.3057 125.024 49.6158L124.732 49.0641C125.02 48.7612 125.377 48.5232 125.803 48.3501C126.228 48.1698 126.679 48.0796 127.155 48.0796C127.645 48.0796 128.06 48.1589 128.399 48.3176C128.745 48.4763 129.009 48.7071 129.189 49.01C129.376 49.3129 129.47 49.6771 129.47 50.1026C129.47 50.3334 129.441 50.5606 129.384 50.7842C129.326 51.0005 129.243 51.2205 129.135 51.4441C129.027 51.6604 128.886 51.884 128.713 52.1148C128.547 52.3384 128.349 52.5728 128.118 52.818L125.749 55.3386V55.1872H129.784V55.793H124.981ZM131.467 55.793V55.2737L134.161 52.3744C134.428 52.0859 134.641 51.8191 134.799 51.5739C134.958 51.3287 135.073 51.0907 135.145 50.8599C135.218 50.6219 135.254 50.3839 135.254 50.1459C135.254 49.6771 135.113 49.3201 134.832 49.0749C134.55 48.8297 134.143 48.7071 133.609 48.7071C133.213 48.7071 132.838 48.7828 132.484 48.9342C132.138 49.0785 131.813 49.3057 131.511 49.6158L131.218 49.0641C131.507 48.7612 131.864 48.5232 132.289 48.3501C132.715 48.1698 133.166 48.0796 133.642 48.0796C134.132 48.0796 134.547 48.1589 134.886 48.3176C135.232 48.4763 135.495 48.7071 135.676 49.01C135.863 49.3129 135.957 49.6771 135.957 50.1026C135.957 50.3334 135.928 50.5606 135.87 50.7842C135.813 51.0005 135.73 51.2205 135.621 51.4441C135.513 51.6604 135.373 51.884 135.2 52.1148C135.034 52.3384 134.835 52.5728 134.605 52.818L132.235 55.3386V55.1872H136.271V55.793H131.467ZM140.215 55.8795C139.645 55.8795 139.162 55.7317 138.765 55.436C138.376 55.1403 138.08 54.7039 137.878 54.127C137.683 53.5428 137.586 52.8288 137.586 51.985C137.586 51.1267 137.683 50.4091 137.878 49.8322C138.08 49.2552 138.376 48.8188 138.765 48.5232C139.162 48.2275 139.645 48.0796 140.215 48.0796C140.792 48.0796 141.275 48.2275 141.665 48.5232C142.054 48.8116 142.346 49.2444 142.541 49.8213C142.743 50.3983 142.844 51.1123 142.844 51.9633C142.844 52.8144 142.743 53.532 142.541 54.1162C142.346 54.7003 142.05 55.1403 141.654 55.436C141.264 55.7317 140.785 55.8795 140.215 55.8795ZM140.215 55.2629C140.871 55.2629 141.354 54.996 141.665 54.4623C141.982 53.9214 142.141 53.0884 142.141 51.9633C142.141 50.8455 141.982 50.0233 141.665 49.4968C141.354 48.9631 140.871 48.6962 140.215 48.6962C139.566 48.6962 139.083 48.9631 138.765 49.4968C138.448 50.0233 138.289 50.8491 138.289 51.9742C138.289 53.092 138.448 53.9214 138.765 54.4623C139.083 54.996 139.566 55.2629 140.215 55.2629ZM144.387 55.793V50.5245H145.046V51.7362H144.96C145.054 51.4693 145.183 51.2385 145.349 51.0438C145.515 50.8491 145.717 50.6976 145.955 50.5894C146.193 50.4812 146.456 50.4272 146.745 50.4272C147.214 50.4272 147.589 50.5425 147.87 50.7733C148.158 50.9969 148.342 51.3251 148.422 51.7578H148.303C148.433 51.3611 148.66 51.0402 148.984 50.795C149.316 50.5498 149.713 50.4272 150.174 50.4272C150.571 50.4272 150.899 50.5029 151.159 50.6543C151.418 50.8058 151.617 51.033 151.754 51.3359C151.891 51.6388 151.959 52.0174 151.959 52.4718V55.793H151.278V52.5259C151.278 52.0138 151.184 51.6352 150.996 51.39C150.816 51.1448 150.506 51.0222 150.066 51.0222C149.749 51.0222 149.471 51.0979 149.233 51.2493C149.002 51.3936 148.822 51.5991 148.692 51.866C148.57 52.1328 148.508 52.4429 148.508 52.7963V55.793H147.827V52.5259C147.827 52.021 147.733 51.646 147.545 51.4008C147.358 51.1484 147.051 51.0222 146.626 51.0222C146.309 51.0222 146.031 51.0979 145.793 51.2493C145.562 51.4008 145.382 51.6099 145.252 51.8768C145.129 52.1436 145.068 52.4465 145.068 52.7855V55.793H144.387ZM153.8 55.793V50.5245H154.46V51.7362H154.373C154.467 51.4693 154.597 51.2385 154.762 51.0438C154.928 50.8491 155.13 50.6976 155.368 50.5894C155.606 50.4812 155.869 50.4272 156.158 50.4272C156.627 50.4272 157.002 50.5425 157.283 50.7733C157.572 50.9969 157.755 51.3251 157.835 51.7578H157.716C157.846 51.3611 158.073 51.0402 158.397 50.795C158.729 50.5498 159.126 50.4272 159.587 50.4272C159.984 50.4272 160.312 50.5029 160.572 50.6543C160.831 50.8058 161.03 51.033 161.167 51.3359C161.304 51.6388 161.372 52.0174 161.372 52.4718V55.793H160.691V52.5259C160.691 52.0138 160.597 51.6352 160.41 51.39C160.229 51.1448 159.919 51.0222 159.479 51.0222C159.162 51.0222 158.884 51.0979 158.646 51.2493C158.415 51.3936 158.235 51.5991 158.105 51.866C157.983 52.1328 157.921 52.4429 157.921 52.7963V55.793H157.24V52.5259C157.24 52.021 157.146 51.646 156.959 51.4008C156.771 51.1484 156.464 51.0222 156.039 51.0222C155.722 51.0222 155.444 51.0979 155.206 51.2493C154.975 51.4008 154.795 51.6099 154.665 51.8768C154.542 52.1436 154.481 52.4465 154.481 52.7855V55.793H153.8Z" fill="black"/>
<line x1="215.045" y1="25.7109" x2="215.045" y2="60.7109" stroke="#C8C8C8" stroke-width="1.10919"/>
<g filter="url(#filter1_d_1980_738)">
<circle cx="250.702" cy="43.2113" r="20.5686" fill="#3C771E" stroke="#3C771E" stroke-width="1.28553"/>
<path d="M245.779 36.477C245.639 36.3365 245.448 36.2576 245.249 36.2576C245.051 36.2576 244.86 36.3365 244.719 36.477L239.469 41.727C239.329 41.8676 239.25 42.0582 239.25 42.257C239.25 42.4557 239.329 42.6464 239.469 42.787L244.719 48.037C244.862 48.1695 245.05 48.2416 245.244 48.2382C245.438 48.2347 245.624 48.156 245.761 48.0186C245.898 47.8812 245.977 47.6958 245.981 47.5015C245.984 47.3072 245.912 47.1192 245.779 46.977L241.809 43.007H258.189L254.219 46.977C254.146 47.0457 254.087 47.1285 254.046 47.2205C254.005 47.3124 253.983 47.4118 253.981 47.5125C253.979 47.6132 253.997 47.7132 254.035 47.8066C254.073 47.9 254.129 47.9848 254.2 48.056C254.272 48.1272 254.356 48.1834 254.45 48.2211C254.543 48.2588 254.643 48.2774 254.744 48.2756C254.845 48.2738 254.944 48.2518 255.036 48.2108C255.128 48.1698 255.211 48.1107 255.279 48.037L260.529 42.787C260.67 42.6464 260.749 42.4557 260.749 42.257C260.749 42.0582 260.67 41.8676 260.529 41.727L255.279 36.477C255.211 36.4033 255.128 36.3442 255.036 36.3032C254.944 36.2622 254.845 36.2402 254.744 36.2384C254.643 36.2366 254.543 36.2551 254.45 36.2929C254.356 36.3306 254.272 36.3867 254.2 36.458C254.129 36.5292 254.073 36.614 254.035 36.7074C253.997 36.8008 253.979 36.9008 253.981 37.0015C253.983 37.1022 254.005 37.2015 254.046 37.2935C254.087 37.3855 254.146 37.4683 254.219 37.537L258.189 41.507H241.809L245.779 37.537C245.92 37.3964 245.999 37.2057 245.999 37.007C245.999 36.8082 245.92 36.6176 245.779 36.477Z" fill="white"/>
</g>
<path d="M284.736 40.3906H281.389V30.9493H284.763C285.713 30.9493 286.531 31.1383 287.216 31.5163C287.901 31.8913 288.428 32.4307 288.797 33.1345C289.169 33.8382 289.355 34.6803 289.355 35.6607C289.355 36.6442 289.169 37.4894 288.797 38.1963C288.428 38.9031 287.898 39.4456 287.207 39.8236C286.518 40.2016 285.695 40.3906 284.736 40.3906ZM283.385 38.6803H284.653C285.243 38.6803 285.739 38.5758 286.142 38.3668C286.548 38.1548 286.852 37.8275 287.055 37.3849C287.261 36.9393 287.364 36.3645 287.364 35.6607C287.364 34.9631 287.261 34.393 287.055 33.9504C286.852 33.5079 286.549 33.1821 286.146 32.9731C285.744 32.7641 285.248 32.6596 284.657 32.6596H283.385V38.6803ZM290.797 40.3906V33.3096H292.761V40.3906H290.797ZM291.783 32.3968C291.491 32.3968 291.241 32.3 291.032 32.1064C290.826 31.9097 290.723 31.6746 290.723 31.4011C290.723 31.1306 290.826 30.8986 291.032 30.705C291.241 30.5083 291.491 30.4099 291.783 30.4099C292.075 30.4099 292.324 30.5083 292.53 30.705C292.739 30.8986 292.844 31.1306 292.844 31.4011C292.844 31.6746 292.739 31.9097 292.53 32.1064C292.324 32.3 292.075 32.3968 291.783 32.3968ZM294.334 40.3906V33.3096H296.206V34.5589H296.289C296.436 34.144 296.682 33.8167 297.026 33.577C297.37 33.3373 297.782 33.2174 298.262 33.2174C298.747 33.2174 299.161 33.3388 299.502 33.5816C299.843 33.8213 300.07 34.1471 300.184 34.5589H300.258C300.402 34.1533 300.663 33.829 301.041 33.5862C301.423 33.3404 301.873 33.2174 302.392 33.2174C303.053 33.2174 303.589 33.428 304.001 33.849C304.416 34.267 304.623 34.8601 304.623 35.6285V40.3906H302.664V36.0157C302.664 35.6223 302.56 35.3273 302.351 35.1306C302.142 34.9339 301.88 34.8356 301.567 34.8356C301.21 34.8356 300.932 34.9493 300.733 35.1767C300.533 35.401 300.433 35.6976 300.433 36.0664V40.3906H298.529V35.9742C298.529 35.6269 298.429 35.3503 298.229 35.1444C298.033 34.9385 297.773 34.8356 297.45 34.8356C297.232 34.8356 297.035 34.8909 296.86 35.0015C296.688 35.1091 296.551 35.2612 296.45 35.4579C296.348 35.6515 296.298 35.879 296.298 36.1402V40.3906H294.334ZM309.402 40.5289C308.673 40.5289 308.046 40.3814 307.521 40.0864C306.998 39.7882 306.596 39.3672 306.313 38.8232C306.03 38.2762 305.889 37.6292 305.889 36.8824C305.889 36.154 306.03 35.5148 306.313 34.9646C306.596 34.4145 306.994 33.9858 307.507 33.6784C308.023 33.3711 308.629 33.2174 309.323 33.2174C309.791 33.2174 310.225 33.2927 310.628 33.4433C311.034 33.5908 311.387 33.8137 311.688 34.1118C311.993 34.4099 312.229 34.7848 312.398 35.2366C312.567 35.6853 312.652 36.2109 312.652 36.8132V37.3526H306.673V36.1356H310.803C310.803 35.8528 310.742 35.6024 310.619 35.3841C310.496 35.1659 310.325 34.9954 310.107 34.8724C309.892 34.7464 309.641 34.6834 309.356 34.6834C309.058 34.6834 308.793 34.7526 308.563 34.8909C308.335 35.0261 308.157 35.209 308.028 35.4395C307.899 35.6669 307.833 35.9204 307.83 36.2001V37.3572C307.83 37.7076 307.894 38.0103 308.023 38.2654C308.155 38.5205 308.341 38.7172 308.581 38.8555C308.821 38.9938 309.105 39.0629 309.434 39.0629C309.652 39.0629 309.852 39.0322 310.033 38.9707C310.215 38.9093 310.37 38.8171 310.499 38.6941C310.628 38.5712 310.726 38.4206 310.794 38.2424L312.61 38.3622C312.518 38.7986 312.329 39.1797 312.043 39.5055C311.761 39.8282 311.395 40.0802 310.946 40.2615C310.5 40.4398 309.986 40.5289 309.402 40.5289ZM315.897 36.2969V40.3906H313.933V33.3096H315.805V34.5589H315.888C316.045 34.1471 316.308 33.8213 316.676 33.5816C317.045 33.3388 317.492 33.2174 318.018 33.2174C318.51 33.2174 318.938 33.325 319.304 33.5401C319.67 33.7553 319.954 34.0626 320.157 34.4621C320.36 34.8586 320.461 35.3319 320.461 35.882V40.3906H318.497V36.2324C318.5 35.799 318.39 35.461 318.165 35.2182C317.941 34.9723 317.632 34.8494 317.239 34.8494C316.974 34.8494 316.741 34.9062 316.538 35.02C316.338 35.1337 316.182 35.2996 316.068 35.5178C315.957 35.733 315.9 35.9927 315.897 36.2969ZM327.901 35.3288L326.103 35.4395C326.072 35.2858 326.006 35.1475 325.904 35.0246C325.803 34.8986 325.669 34.7987 325.503 34.7249C325.34 34.6481 325.145 34.6097 324.918 34.6097C324.614 34.6097 324.357 34.6742 324.148 34.8033C323.939 34.9293 323.835 35.0983 323.835 35.3104C323.835 35.4794 323.902 35.6223 324.037 35.7391C324.173 35.8559 324.405 35.9496 324.734 36.0203L326.015 36.2785C326.704 36.4199 327.217 36.6473 327.555 36.9608C327.893 37.2743 328.062 37.6861 328.062 38.1963C328.062 38.6603 327.925 39.0675 327.652 39.4179C327.381 39.7683 327.009 40.0418 326.536 40.2385C326.066 40.4321 325.523 40.5289 324.909 40.5289C323.971 40.5289 323.224 40.3338 322.668 39.9435C322.115 39.5501 321.791 39.0153 321.696 38.3392L323.627 38.2377C323.685 38.5236 323.827 38.7418 324.051 38.8924C324.276 39.0399 324.563 39.1136 324.913 39.1136C325.258 39.1136 325.534 39.0476 325.743 38.9154C325.955 38.7802 326.063 38.6065 326.066 38.3945C326.063 38.2162 325.987 38.0702 325.84 37.9565C325.692 37.8397 325.465 37.7506 325.158 37.6892L323.931 37.4448C323.24 37.3065 322.725 37.0668 322.387 36.7257C322.052 36.3845 321.885 35.9496 321.885 35.421C321.885 34.9662 322.007 34.5743 322.253 34.2455C322.502 33.9166 322.851 33.6631 323.3 33.4848C323.752 33.3066 324.28 33.2174 324.886 33.2174C325.78 33.2174 326.484 33.4064 326.997 33.7845C327.513 34.1625 327.815 34.6773 327.901 35.3288ZM329.299 40.3906V33.3096H331.262V40.3906H329.299ZM330.285 32.3968C329.993 32.3968 329.743 32.3 329.534 32.1064C329.328 31.9097 329.225 31.6746 329.225 31.4011C329.225 31.1306 329.328 30.8986 329.534 30.705C329.743 30.5083 329.993 30.4099 330.285 30.4099C330.577 30.4099 330.826 30.5083 331.032 30.705C331.241 30.8986 331.345 31.1306 331.345 31.4011C331.345 31.6746 331.241 31.9097 331.032 32.1064C330.826 32.3 330.577 32.3968 330.285 32.3968ZM336.035 40.5289C335.319 40.5289 334.7 40.3768 334.177 40.0725C333.658 39.7652 333.257 39.338 332.974 38.7909C332.691 38.2408 332.55 37.6031 332.55 36.8778C332.55 36.1463 332.691 35.5071 332.974 34.96C333.257 34.4099 333.658 33.9827 334.177 33.6784C334.7 33.3711 335.319 33.2174 336.035 33.2174C336.751 33.2174 337.369 33.3711 337.888 33.6784C338.411 33.9827 338.813 34.4099 339.096 34.96C339.379 35.5071 339.52 36.1463 339.52 36.8778C339.52 37.6031 339.379 38.2408 339.096 38.7909C338.813 39.338 338.411 39.7652 337.888 40.0725C337.369 40.3768 336.751 40.5289 336.035 40.5289ZM336.044 39.0076C336.37 39.0076 336.642 38.9154 336.86 38.731C337.078 38.5435 337.243 38.2885 337.353 37.9658C337.467 37.6431 337.524 37.2758 337.524 36.864C337.524 36.4521 337.467 36.0849 337.353 35.7622C337.243 35.4395 337.078 35.1844 336.86 34.9969C336.642 34.8094 336.37 34.7157 336.044 34.7157C335.715 34.7157 335.439 34.8094 335.214 34.9969C334.993 35.1844 334.826 35.4395 334.712 35.7622C334.601 36.0849 334.546 36.4521 334.546 36.864C334.546 37.2758 334.601 37.6431 334.712 37.9658C334.826 38.2885 334.993 38.5435 335.214 38.731C335.439 38.9154 335.715 39.0076 336.044 39.0076ZM342.761 36.2969V40.3906H340.797V33.3096H342.669V34.5589H342.752C342.909 34.1471 343.171 33.8213 343.54 33.5816C343.909 33.3388 344.356 33.2174 344.882 33.2174C345.373 33.2174 345.802 33.325 346.168 33.5401C346.534 33.7553 346.818 34.0626 347.021 34.4621C347.223 34.8586 347.325 35.3319 347.325 35.882V40.3906H345.361V36.2324C345.364 35.799 345.253 35.461 345.029 35.2182C344.805 34.9723 344.496 34.8494 344.103 34.8494C343.838 34.8494 343.605 34.9062 343.402 35.02C343.202 35.1337 343.045 35.2996 342.932 35.5178C342.821 35.733 342.764 35.9927 342.761 36.2969Z" fill="black"/>
<path d="M281.629 56.0352L285.148 49.074V49.0126H281.091V48.1674H286.131V49.0587L282.628 56.0352H281.629ZM289.96 56.1427C289.382 56.1427 288.888 55.9852 288.481 55.6702C288.074 55.3526 287.763 54.8929 287.548 54.291C287.333 53.6866 287.225 52.9567 287.225 52.1013C287.225 51.251 287.333 50.5249 287.548 49.923C287.765 49.3186 288.078 48.8576 288.485 48.54C288.895 48.2199 289.387 48.0598 289.96 48.0598C290.534 48.0598 291.024 48.2199 291.432 48.54C291.841 48.8576 292.154 49.3186 292.369 49.923C292.587 50.5249 292.696 51.251 292.696 52.1013C292.696 52.9567 292.588 53.6866 292.373 54.291C292.158 54.8929 291.847 55.3526 291.439 55.6702C291.032 55.9852 290.539 56.1427 289.96 56.1427ZM289.96 55.2976C290.534 55.2976 290.98 55.021 291.297 54.4677C291.615 53.9145 291.774 53.1257 291.774 52.1013C291.774 51.42 291.701 50.8399 291.555 50.361C291.411 49.8821 291.204 49.5171 290.932 49.2661C290.663 49.0151 290.339 48.8896 289.96 48.8896C289.392 48.8896 288.947 49.1701 288.627 49.731C288.307 50.2893 288.147 51.0794 288.147 52.1013C288.147 52.7825 288.219 53.3613 288.362 53.8377C288.506 54.3141 288.712 54.6765 288.981 54.9249C289.252 55.1733 289.579 55.2976 289.96 55.2976ZM294.171 56.0352V50.1343H295.047V51.0563H295.124C295.246 50.7413 295.445 50.4967 295.719 50.3226C295.993 50.1459 296.322 50.0575 296.706 50.0575C297.096 50.0575 297.42 50.1459 297.678 50.3226C297.939 50.4967 298.143 50.7413 298.289 51.0563H298.351C298.502 50.7516 298.728 50.5095 299.031 50.3303C299.333 50.1484 299.695 50.0575 300.118 50.0575C300.645 50.0575 301.077 50.2227 301.412 50.5531C301.748 50.8809 301.916 51.3918 301.916 52.0859V56.0352H301.009V52.0859C301.009 51.6505 300.89 51.3393 300.652 51.1524C300.414 50.9654 300.133 50.8719 299.81 50.8719C299.395 50.8719 299.074 50.9974 298.846 51.2484C298.618 51.4968 298.504 51.8119 298.504 52.1935V56.0352H297.582V51.9937C297.582 51.6582 297.473 51.388 297.256 51.1831C297.038 50.9757 296.758 50.8719 296.414 50.8719C296.179 50.8719 295.958 50.9347 295.754 51.0602C295.551 51.1857 295.387 51.3598 295.262 51.5826C295.139 51.8029 295.077 52.0577 295.077 52.3471V56.0352H294.171ZM303.573 56.0352V50.1343H304.449V51.0563H304.526C304.649 50.7413 304.847 50.4967 305.122 50.3226C305.396 50.1459 305.725 50.0575 306.109 50.0575C306.498 50.0575 306.822 50.1459 307.081 50.3226C307.342 50.4967 307.546 50.7413 307.692 51.0563H307.753C307.904 50.7516 308.131 50.5095 308.433 50.3303C308.735 50.1484 309.098 50.0575 309.52 50.0575C310.048 50.0575 310.479 50.2227 310.815 50.5531C311.15 50.8809 311.318 51.3918 311.318 52.0859V56.0352H310.412V52.0859C310.412 51.6505 310.292 51.3393 310.054 51.1524C309.816 50.9654 309.536 50.8719 309.213 50.8719C308.798 50.8719 308.477 50.9974 308.249 51.2484C308.021 51.4968 307.907 51.8119 307.907 52.1935V56.0352H306.985V51.9937C306.985 51.6582 306.876 51.388 306.658 51.1831C306.44 50.9757 306.16 50.8719 305.817 50.8719C305.581 50.8719 305.361 50.9347 305.156 51.0602C304.954 51.1857 304.79 51.3598 304.664 51.5826C304.541 51.8029 304.48 52.0577 304.48 52.3471V56.0352H303.573Z" fill="black"/>
<line x1="370.537" y1="25.7109" x2="370.537" y2="60.7109" stroke="#C8C8C8" stroke-width="1.10919"/>
<g filter="url(#filter2_d_1980_738)">
<circle cx="406.194" cy="43.2113" r="20.5686" fill="#3C771E" stroke="#3C771E" stroke-width="1.28553"/>
<path d="M405.999 38.0195C406.283 38.0195 406.52 37.9235 406.712 37.7315C406.904 37.5395 407 37.3022 406.999 37.0195C406.999 36.7369 406.903 36.4995 406.711 36.3075C406.52 36.1155 406.283 36.0195 405.999 36.0195C405.716 36.0195 405.479 36.1155 405.287 36.3075C405.096 36.4995 405 36.7369 404.999 37.0195C404.999 37.3022 405.095 37.5399 405.287 37.7325C405.48 37.9252 405.717 38.0209 405.999 38.0195ZM408.824 38.0195H410.574C411.074 38.0195 411.508 38.1862 411.874 38.5195C412.241 38.8529 412.466 39.2612 412.549 39.7445L413.974 49.7445C414.058 50.3445 413.904 50.8739 413.512 51.3325C413.121 51.7912 412.617 52.0202 411.999 52.0195H399.999C399.383 52.0195 398.878 51.7905 398.486 51.3325C398.094 50.8745 397.94 50.3452 398.024 49.7445L399.449 39.7445C399.533 39.2612 399.758 38.8529 400.124 38.5195C400.491 38.1862 400.924 38.0195 401.424 38.0195H403.174C403.124 37.8529 403.083 37.6905 403.049 37.5325C403.016 37.3745 402.999 37.2035 402.999 37.0195C402.999 36.1862 403.291 35.4779 403.874 34.8945C404.458 34.3112 405.166 34.0195 405.999 34.0195C406.833 34.0195 407.541 34.3112 408.124 34.8945C408.708 35.4779 408.999 36.1862 408.999 37.0195C408.999 37.2029 408.983 37.3739 408.949 37.5325C408.916 37.6912 408.874 37.8535 408.824 38.0195Z" fill="white"/>
</g>
<path d="M445.35 40.6289L442.649 31.1876H444.829L446.392 37.7476H446.47L448.194 31.1876H450.062L451.781 37.7615H451.864L453.427 31.1876H455.607L452.906 40.6289H450.96L449.163 34.4561H449.089L447.296 40.6289H445.35ZM459.105 40.7672C458.377 40.7672 457.75 40.6197 457.224 40.3246C456.702 40.0265 456.299 39.6055 456.017 39.0615C455.734 38.5144 455.592 37.8675 455.592 37.1207C455.592 36.3923 455.734 35.753 456.017 35.2029C456.299 34.6528 456.697 34.2241 457.211 33.9167C457.727 33.6094 458.332 33.4557 459.027 33.4557C459.494 33.4557 459.929 33.531 460.332 33.6816C460.737 33.8291 461.091 34.0519 461.392 34.3501C461.696 34.6482 461.933 35.0231 462.102 35.4749C462.271 35.9236 462.355 36.4492 462.355 37.0515V37.5909H456.376V36.3739H460.507C460.507 36.0911 460.445 35.8406 460.322 35.6224C460.199 35.4042 460.029 35.2336 459.811 35.1107C459.595 34.9847 459.345 34.9217 459.059 34.9217C458.761 34.9217 458.497 34.9909 458.266 35.1292C458.039 35.2644 457.861 35.4472 457.731 35.6777C457.602 35.9052 457.536 36.1587 457.533 36.4384V37.5955C457.533 37.9459 457.598 38.2486 457.727 38.5037C457.859 38.7588 458.045 38.9555 458.285 39.0938C458.524 39.2321 458.809 39.3012 459.138 39.3012C459.356 39.3012 459.555 39.2705 459.737 39.209C459.918 39.1476 460.073 39.0554 460.202 38.9324C460.332 38.8095 460.43 38.6589 460.497 38.4806L462.314 38.6005C462.222 39.0369 462.033 39.418 461.747 39.7438C461.464 40.0665 461.098 40.3185 460.65 40.4998C460.204 40.6781 459.689 40.7672 459.105 40.7672ZM463.637 40.6289V33.5479H465.601V40.6289H463.637ZM464.623 32.6351C464.331 32.6351 464.081 32.5383 463.872 32.3447C463.666 32.148 463.563 31.9129 463.563 31.6394C463.563 31.3689 463.666 31.1369 463.872 30.9433C464.081 30.7466 464.331 30.6482 464.623 30.6482C464.915 30.6482 465.164 30.7466 465.37 30.9433C465.579 31.1369 465.684 31.3689 465.684 31.6394C465.684 31.9129 465.579 32.148 465.37 32.3447C465.164 32.5383 464.915 32.6351 464.623 32.6351ZM470.364 43.4318C469.728 43.4318 469.182 43.3442 468.728 43.169C468.276 42.9969 467.916 42.7618 467.649 42.4637C467.381 42.1656 467.208 41.8306 467.128 41.4587L468.944 41.2144C469 41.3558 469.087 41.4879 469.207 41.6108C469.327 41.7338 469.485 41.8321 469.682 41.9059C469.882 41.9827 470.124 42.0211 470.41 42.0211C470.837 42.0211 471.189 41.9166 471.466 41.7077C471.746 41.5017 471.885 41.156 471.885 40.6704V39.375H471.802C471.716 39.5717 471.587 39.7576 471.415 39.9328C471.243 40.108 471.022 40.2509 470.751 40.3615C470.481 40.4722 470.158 40.5275 469.783 40.5275C469.252 40.5275 468.767 40.4046 468.331 40.1587C467.898 39.9097 467.552 39.5302 467.294 39.02C467.039 38.5068 466.911 37.8583 466.911 37.0746C466.911 36.2724 467.042 35.6024 467.303 35.0646C467.564 34.5268 467.912 34.1242 468.345 33.8568C468.781 33.5894 469.259 33.4557 469.779 33.4557C470.175 33.4557 470.507 33.5233 470.774 33.6586C471.042 33.7907 471.257 33.9567 471.42 34.1564C471.586 34.3531 471.713 34.5468 471.802 34.7373H471.876V33.5479H473.826V40.6981C473.826 41.3004 473.679 41.8045 473.384 42.2101C473.089 42.6158 472.68 42.9201 472.157 43.1229C471.638 43.3288 471.04 43.4318 470.364 43.4318ZM470.406 39.0523C470.722 39.0523 470.989 38.9739 471.208 38.8172C471.429 38.6574 471.598 38.4299 471.715 38.1349C471.835 37.8368 471.895 37.4803 471.895 37.0654C471.895 36.6505 471.836 36.2909 471.719 35.9866C471.603 35.6793 471.434 35.4411 471.212 35.2721C470.991 35.103 470.722 35.0185 470.406 35.0185C470.083 35.0185 469.811 35.1061 469.59 35.2813C469.368 35.4534 469.201 35.6931 469.087 36.0004C468.973 36.3078 468.917 36.6628 468.917 37.0654C468.917 37.4741 468.973 37.8276 469.087 38.1257C469.204 38.4207 469.371 38.6497 469.59 38.8126C469.811 38.9724 470.083 39.0523 470.406 39.0523ZM477.353 36.5352V40.6289H475.389V31.1876H477.298V34.7972H477.381C477.54 34.3793 477.798 34.0519 478.155 33.8153C478.512 33.5756 478.959 33.4557 479.497 33.4557C479.988 33.4557 480.417 33.5633 480.783 33.7784C481.152 33.9905 481.437 34.2963 481.64 34.6958C481.846 35.0923 481.948 35.5671 481.944 36.1203V40.6289H479.981V36.4707C479.984 36.0343 479.873 35.6946 479.649 35.4519C479.427 35.2091 479.117 35.0877 478.717 35.0877C478.45 35.0877 478.213 35.1445 478.007 35.2582C477.805 35.3719 477.645 35.5379 477.528 35.7561C477.414 35.9712 477.356 36.2309 477.353 36.5352ZM487.256 33.5479V35.0231H482.992V33.5479H487.256ZM483.96 31.8514H485.924V38.453C485.924 38.6343 485.952 38.7757 486.007 38.8771C486.062 38.9754 486.139 39.0446 486.238 39.0845C486.339 39.1245 486.456 39.1445 486.588 39.1445C486.68 39.1445 486.772 39.1368 486.864 39.1214C486.957 39.103 487.027 39.0892 487.077 39.0799L487.385 40.5413C487.287 40.572 487.149 40.6074 486.971 40.6473C486.792 40.6904 486.576 40.7165 486.321 40.7257C485.847 40.7442 485.432 40.6812 485.076 40.5367C484.722 40.3923 484.447 40.1679 484.251 39.8636C484.054 39.5594 483.957 39.1752 483.96 38.7111V31.8514Z" fill="black"/>
<path d="M445.985 47.9252V55.793H445.032V48.924H444.986L443.065 50.1995V49.2314L445.032 47.9252H445.985ZM450.906 55.9005C450.399 55.9005 449.947 55.8135 449.55 55.6393C449.155 55.4651 448.842 55.2231 448.609 54.9132C448.378 54.6008 448.253 54.2384 448.232 53.826H449.2C449.221 54.0796 449.308 54.2986 449.461 54.483C449.615 54.6648 449.816 54.8057 450.065 54.9055C450.313 55.0054 450.588 55.0554 450.891 55.0554C451.229 55.0554 451.528 54.9965 451.79 54.8786C452.051 54.7608 452.256 54.5969 452.404 54.3869C452.553 54.1769 452.627 53.9336 452.627 53.657C452.627 53.3676 452.555 53.1128 452.412 52.8925C452.268 52.6697 452.058 52.4955 451.782 52.37C451.505 52.2445 451.167 52.1818 450.768 52.1818H450.138V51.3366H450.768C451.08 51.3366 451.354 51.2803 451.59 51.1676C451.828 51.0549 452.014 50.8961 452.147 50.6912C452.283 50.4863 452.35 50.2456 452.35 49.969C452.35 49.7026 452.292 49.4708 452.174 49.2736C452.056 49.0764 451.889 48.9228 451.674 48.8126C451.462 48.7025 451.211 48.6474 450.921 48.6474C450.65 48.6474 450.394 48.6974 450.153 48.7973C449.915 48.8946 449.72 49.0367 449.569 49.2237C449.418 49.4081 449.336 49.6309 449.323 49.8921H448.401C448.417 49.4798 448.541 49.1187 448.774 48.8088C449.007 48.4963 449.312 48.253 449.688 48.0789C450.067 47.9047 450.483 47.8176 450.937 47.8176C451.423 47.8176 451.841 47.9162 452.189 48.1134C452.537 48.3081 452.805 48.5655 452.992 48.8856C453.179 49.2058 453.272 49.5515 453.272 49.9229C453.272 50.366 453.156 50.7437 452.923 51.0562C452.692 51.3686 452.379 51.585 451.982 51.7054V51.7669C452.478 51.8488 452.866 52.0601 453.146 52.4008C453.425 52.7388 453.564 53.1576 453.564 53.657C453.564 54.0847 453.448 54.4689 453.215 54.8095C452.984 55.1476 452.669 55.4139 452.27 55.6086C451.87 55.8032 451.416 55.9005 450.906 55.9005ZM457.702 55.9005C457.123 55.9005 456.63 55.743 456.223 55.428C455.816 55.1104 455.504 54.6507 455.289 54.0488C455.074 53.4444 454.967 52.7145 454.967 51.8591C454.967 51.0088 455.074 50.2827 455.289 49.6808C455.507 49.0764 455.819 48.6154 456.227 48.2978C456.636 47.9777 457.128 47.8176 457.702 47.8176C458.276 47.8176 458.766 47.9777 459.173 48.2978C459.583 48.6154 459.895 49.0764 460.111 49.6808C460.328 50.2827 460.437 51.0088 460.437 51.8591C460.437 52.7145 460.33 53.4444 460.114 54.0488C459.899 54.6507 459.588 55.1104 459.181 55.428C458.774 55.743 458.281 55.9005 457.702 55.9005ZM457.702 55.0554C458.276 55.0554 458.721 54.7788 459.039 54.2256C459.356 53.6724 459.515 52.8835 459.515 51.8591C459.515 51.1778 459.442 50.5977 459.296 50.1188C459.153 49.6399 458.945 49.2749 458.674 49.0239C458.405 48.7729 458.081 48.6474 457.702 48.6474C457.133 48.6474 456.689 48.9279 456.369 49.4888C456.049 50.0471 455.889 50.8372 455.889 51.8591C455.889 52.5403 455.96 53.1192 456.104 53.5955C456.247 54.0719 456.453 54.4343 456.722 54.6827C456.994 54.9312 457.32 55.0554 457.702 55.0554ZM464.294 58.1287C463.856 58.1287 463.48 58.0724 463.165 57.9597C462.85 57.8496 462.587 57.7036 462.377 57.5217C462.17 57.3424 462.005 57.1504 461.882 56.9455L462.604 56.4384C462.686 56.5459 462.79 56.6689 462.915 56.8072C463.041 56.948 463.212 57.0697 463.43 57.1721C463.65 57.2771 463.938 57.3296 464.294 57.3296C464.771 57.3296 465.164 57.2144 465.474 56.9839C465.784 56.7534 465.938 56.3923 465.938 55.9005V54.7019H465.862C465.795 54.8095 465.7 54.9427 465.577 55.1015C465.457 55.2577 465.283 55.3973 465.055 55.5202C464.829 55.6406 464.525 55.7008 464.141 55.7008C463.664 55.7008 463.236 55.5881 462.857 55.3627C462.481 55.1373 462.183 54.8095 461.962 54.3792C461.745 53.949 461.636 53.4265 461.636 52.8118C461.636 52.2074 461.742 51.6811 461.955 51.2329C462.167 50.7821 462.463 50.4338 462.842 50.188C463.221 49.9395 463.659 49.8153 464.156 49.8153C464.54 49.8153 464.845 49.8793 465.07 50.0074C465.298 50.1329 465.472 50.2763 465.593 50.4377C465.716 50.5965 465.81 50.7271 465.877 50.8295H465.969V49.8921H466.845V55.962C466.845 56.4691 466.73 56.8814 466.499 57.199C466.271 57.5192 465.964 57.7535 465.577 57.9021C465.193 58.0532 464.765 58.1287 464.294 58.1287ZM464.263 54.8863C464.627 54.8863 464.934 54.8031 465.185 54.6366C465.436 54.4701 465.627 54.2307 465.758 53.9182C465.889 53.6058 465.954 53.2318 465.954 52.7965C465.954 52.3713 465.89 51.9961 465.762 51.6708C465.634 51.3456 465.444 51.0907 465.193 50.9063C464.942 50.7219 464.632 50.6297 464.263 50.6297C463.879 50.6297 463.559 50.7271 463.303 50.9217C463.05 51.1164 462.859 51.3776 462.731 51.7054C462.605 52.0332 462.542 52.3969 462.542 52.7965C462.542 53.2062 462.606 53.5686 462.734 53.8837C462.865 54.1961 463.057 54.442 463.311 54.6213C463.567 54.798 463.884 54.8863 464.263 54.8863Z" fill="black"/>
<defs>
<filter id="filter0_d_1980_738" x="69.6727" y="16.5909" width="51.0764" height="51.0764" filterUnits="userSpaceOnUse" color-interpolation-filters="sRGB">
<feFlood flood-opacity="0" result="BackgroundImageFix"/>
<feColorMatrix in="SourceAlpha" type="matrix" values="0 0 0 0 0 0 0 0 0 0 0 0 0 0 0 0 0 0 127 0" result="hardAlpha"/>
<feOffset dy="-1.08182"/>
<feGaussianBlur stdDeviation="2.16364"/>
<feComposite in2="hardAlpha" operator="out"/>
<feColorMatrix type="matrix" values="0 0 0 0 0 0 0 0 0 0 0 0 0 0 0 0 0 0 0.25 0"/>
<feBlend mode="normal" in2="BackgroundImageFix" result="effect1_dropShadow_1980_738"/>
<feBlend mode="normal" in="SourceGraphic" in2="effect1_dropShadow_1980_738" result="shape"/>
</filter>
<filter id="filter1_d_1980_738" x="225.163" y="16.5909" width="51.0764" height="51.0764" filterUnits="userSpaceOnUse" color-interpolation-filters="sRGB">
<feFlood flood-opacity="0" result="BackgroundImageFix"/>
<feColorMatrix in="SourceAlpha" type="matrix" values="0 0 0 0 0 0 0 0 0 0 0 0 0 0 0 0 0 0 127 0" result="hardAlpha"/>
<feOffset dy="-1.08182"/>
<feGaussianBlur stdDeviation="2.16364"/>
<feComposite in2="hardAlpha" operator="out"/>
<feColorMatrix type="matrix" values="0 0 0 0 0 0 0 0 0 0 0 0 0 0 0 0 0 0 0.25 0"/>
<feBlend mode="normal" in2="BackgroundImageFix" result="effect1_dropShadow_1980_738"/>
<feBlend mode="normal" in="SourceGraphic" in2="effect1_dropShadow_1980_738" result="shape"/>
</filter>
<filter id="filter2_d_1980_738" x="380.655" y="16.5909" width="51.0764" height="51.0764" filterUnits="userSpaceOnUse" color-interpolation-filters="sRGB">
<feFlood flood-opacity="0" result="BackgroundImageFix"/>
<feColorMatrix in="SourceAlpha" type="matrix" values="0 0 0 0 0 0 0 0 0 0 0 0 0 0 0 0 0 0 127 0" result="hardAlpha"/>
<feOffset dy="-1.08182"/>
<feGaussianBlur stdDeviation="2.16364"/>
<feComposite in2="hardAlpha" operator="out"/>
<feColorMatrix type="matrix" values="0 0 0 0 0 0 0 0 0 0 0 0 0 0 0 0 0 0 0.25 0"/>
<feBlend mode="normal" in2="BackgroundImageFix" result="effect1_dropShadow_1980_738"/>
<feBlend mode="normal" in="SourceGraphic" in2="effect1_dropShadow_1980_738" result="shape"/>
</filter>
</defs>
</svg>
